<?xml version="1.0" encoding="utf-8"?>
<!-- Generator: Adobe Illustrator 25.2.3, SVG Export Plug-In . SVG Version: 6.00 Build 0)  -->
<svg version="1.1" id="Capa_1" xmlns="http://www.w3.org/2000/svg" xmlns:xlink="http://www.w3.org/1999/xlink" x="0px" y="0px"
	 viewBox="0 0 850.4 547.5" style="enable-background:new 0 0 850.4 547.5;" xml:space="preserve">
<g>
	<path d="M341.9,395.4c-4.2,0-7.5,3.7-8.3,7.4h14.7C348.3,398.9,346.3,395.4,341.9,395.4z"/>
	<path d="M173.6,395.4c-4.2,0-7.5,3.7-8.3,7.4H180C180,398.9,178.1,395.4,173.6,395.4z"/>
	<path d="M219.6,397.1c-6.4,0-8.3,5.4-8.3,10.3c0,4.9,1.9,10.3,8.3,10.3c6.4,0,8.3-5.4,8.3-10.3C228,402.5,226,397.1,219.6,397.1z"
		/>
	<path d="M576,303.8c5,10.8,11.3,15.8,19.3,15.8c9,0,16.3-5.5,21.7-15.7c5.3-10.3,8.3-25.2,8.3-43.2c0-2.9-0.1-6-0.2-9.1
		c-0.6-12.3-3.8-29.2-7.1-41.9c-4.5-15.2-13-23.7-22.6-23.6c-8.9,0-15.9,4.9-20.9,14.6c-5,9.6-7.7,23.8-7.7,41.7
		c0,2.6,0,12.9,0,12.9C568,276.7,571.1,293,576,303.8z"/>
	<path d="M124,398c-2.5,0-5,1-6.9,2.6l-0.3,15.5c1.4,1.5,4.2,2.1,6.2,2.1c6.2,0,9-4.9,9-10.6C132,402.5,130,398,124,398z"/>
	<path d="M269.5,398c-2.5,0-5,1-6.9,2.6l-0.3,15.5c1.4,1.5,4.2,2.1,6.2,2.1c6.2,0,9-4.9,9-10.6C277.5,402.5,275.5,398,269.5,398z"/>
	<path d="M683.4,395.4c-4.2,0-7.5,3.7-8.3,7.4h14.7C689.8,398.9,687.8,395.4,683.4,395.4z"/>
	<path d="M37.6,37.8v471.1h775.3V37.8H37.6z M597.1,172.6c30.5,0,53.9,28.8,55.9,67.1c0.1,2.3,0.2,4.5,0.2,6.8
		c0,47.1-25.7,87.4-58.8,87.6c-29.4-0.1-53.2-28.8-55.1-65.3c-0.1-2.8-0.2-5.6-0.2-8.3C539.2,210.7,563.2,172.7,597.1,172.6z
		 M622.9,371.9v10.8h-13.4v-10.8H622.9z M382.1,107.2c9.3,0,16.8,7.3,16.8,16.3c0,9-7.5,16.3-16.8,16.3c-9.3,0-16.8-7.3-16.8-16.3
		C365.3,114.5,372.9,107.2,382.1,107.2z M101.2,312.3h22.8V122.8h-22.8v-16.7h75v16.7H152v83.6h97.4v-83.6h-22.3v-16.7h75v16.7H279
		v189.5h23.2V329h-75v-16.7h22.3V225H152v87.3h24.2V329h-75V312.3z M125.7,427.7c-3.2,0-6.2-0.7-8.8-2l-0.2,19.5h-12.9l0.3-56.6
		h12.7v2.7c2.8-2.2,6.5-3.8,10.9-4.1c11.8,0,17.7,9.9,17.7,19.1C145.4,418.1,138.2,427.7,125.7,427.7z M174.4,418.2
		c4.7,0,7.3-1.3,10.9-3.7l4.5,7.6c-4.5,3.7-11.5,5.6-17.6,5.6c-14.1,0-20.5-9.7-20.5-19.4c0-11.4,8.8-21,20.9-21
		c14.8,0,19.4,10.2,19.4,23.1h-26.9C165.1,413.3,167,418.2,174.4,418.2z M219.6,427.7c-14.3,0-21.7-8.8-21.7-20.2
		c0-11.4,7.4-20.2,21.7-20.2c14.3,0,21.7,8.8,21.7,20.2C241.4,418.9,234,427.7,219.6,427.7z M271.2,427.7c-3.2,0-6.2-0.7-8.8-2
		l-0.2,19.5h-12.9l0.3-56.6h12.7v2.7c2.8-2.2,6.5-3.8,10.9-4.1c11.8,0,17.7,9.9,17.7,19.1C290.9,418.1,283.6,427.7,271.2,427.7z
		 M312.5,426.3H299l0.3-56.1h13.4L312.5,426.3z M342.7,418.2c4.7,0,7.3-1.3,10.9-3.7l4.5,7.6c-4.5,3.7-11.5,5.6-17.6,5.6
		c-14.1,0-20.5-9.7-20.5-19.4c0-11.4,8.8-21,20.9-21c14.8,0,19.4,10.2,19.4,23.1h-26.9C333.4,413.3,335.3,418.2,342.7,418.2z
		 M336.4,333.1c-4.8,0-8.9-1.1-11.8-3.7c-2.9-2.6-4.6-6.5-4.6-12c0-13.7,35.9-96.6,35.9-110.8c-0.1-3.6-1.6-5.5-4.8-5.5
		c-4.8-0.1-14,8.3-18.6,14l-0.3,0.4l-7.3-5.6l0.2-0.4c5.5-11,29.6-32.5,42.3-33c5.2,0,9.3,1.3,12,4c2.7,2.7,4.1,6.9,4.1,12.3
		c0,11.4-35.9,99.6-35.9,109.5c0,3.4,2.8,6.2,7.3,6.2c9.3,0.2,24.6-23,31.7-30.5l0.1-0.1h0.2c1,0.1,2.3,1,3.6,2.1
		c1.3,1.2,2.4,2.3,2.5,3.4v0.1l-0.1,0.1C382.3,301.6,358.1,333,336.4,333.1z M431.5,426.3h-13.4v-4.1c-3.1,2.9-7.8,5.5-12.6,5.5
		c-8.2,0-12.7-4.4-12.7-14.7c0-7.7,0.1-16,0.2-24.3h13.4c-0.1,7.3-0.2,14.6-0.2,22.4c0,3.1,0.8,5.5,4.8,5.5c2.2,0,5.2-1.8,7-3.4
		l0.3-24.4h13.4L431.5,426.3z M480,426.3h-13.4c0.1-7.3,0.2-14.6,0.2-22.4c0-3.1-0.8-5.5-4.9-5.5c-2.1,0-5.2,1.8-7,3.4l-0.3,24.4
		h-13.4l0.3-37.7h13.4v4.1c3.1-2.9,7.8-5.5,12.5-5.5c8.3,0,12.7,4.4,12.7,14.7C480.2,409.7,480.1,418,480,426.3z M502.9,426.3h-13.4
		l0.3-56.1h13.4L502.9,426.3z M525.7,426.3h-13.4l0.3-37.7H526L525.7,426.3z M526,382.6h-13.4v-10.8H526V382.6z M529.1,190.8h-11.5
		l-47.8,141.9H462l-40.7-141.9h-14.6v-14.5h55.4v14.5h-13.3l25.1,88.8l29.4-88.8h-14.1v-14.5h39.9V190.8z M599.7,426.3h-13.4
		c0.1-7.3,0.1-14.6,0.1-21.9c0-3.1-1-6-4.8-6c-2.4,0-5.5,1.8-7.1,3.4l-0.3,24.4h-13.4c0.1-7.3,0.1-14.6,0.1-21.9c0-3.1-1-6-4.8-6
		c-2.4,0-5.5,1.8-7.1,3.4l-0.3,24.4h-13.4l0.3-37.7H549v4.5c3.5-3.4,7.9-5.8,12.7-5.8c4.8,0,8.2,1.6,11,5.8
		c4.1-3.4,9.5-5.8,14.5-5.8c9.1,0,12.6,6.2,12.6,14.1C599.9,409.7,599.8,418,599.7,426.3z M622.6,426.3h-13.4l0.3-37.7h13.4
		L622.6,426.3z M644.2,427.7c-10.9,0-11.4-6.7-11.4-15.3c0-4.6,0.4-9.3,0.4-14.3h-5.8l0.3-9.4h5.7l0.3-12.8h13l-0.3,12.8h11
		l-0.2,9.4h-11c0,5.2-0.4,10.8-0.4,14c0,3.3,0.8,4.9,3.8,4.9c1.9,0,3.4-0.9,4.9-1.8l2.9,8.8C653.6,426.3,648.8,427.7,644.2,427.7z
		 M684.2,418.2c4.7,0,7.3-1.3,10.9-3.7l4.5,7.6c-4.5,3.7-11.5,5.6-17.6,5.6c-14.1,0-20.5-9.7-20.5-19.4c0-11.4,8.8-21,20.9-21
		c14.8,0,19.4,10.2,19.4,23.1h-26.9C674.9,413.3,676.8,418.2,684.2,418.2z M749.4,426.3h-12.7v-2.7c-2.8,2.2-6.5,3.8-10.9,4.1
		c-11.8,0-17.7-9.9-17.7-19.1c0-11.7,7.2-21.3,19.7-21.3c3.2,0,6.2,0.7,8.8,2l0.2-19.1h12.9L749.4,426.3z M741.2,319.6
		c-8,7-19.3,10.9-33.1,10.9c-9.4,0-17-1-28-4.6v6.1h-12.4V300v-1.4h7.5l0.4,0.3c0,0,0.6,0.4,1,0.9c0.5,0.6,6.9,9.2,7,9.3
		c3.5,4.9,14.5,9,24,9c12.8,0,22.7-9.4,22.7-21.6c0-0.4,0-0.8,0-1.2c-0.6-10.5-6.2-18.1-22.3-30.6c-25.6-19.4-33.1-29.6-33.9-46.2
		c0-0.8-0.1-1.6-0.1-2.5c0-11.9,4.6-22.2,12.3-29.6c7.8-7.4,18.8-11.7,31.6-11.7c7.9,0,13.5,1,23.1,5.1v-7h9.9v37.7h-8.1l-0.3-0.9
		c-5.6-14.8-15-22.6-26.8-22.6c-12.1,0.1-20.1,8.2-20.1,20c0,0.5,0,0.9,0,1.4c0.5,10.3,7.8,20.3,27.4,35
		c23.3,17.2,29.6,26.4,30.4,43.6c0,1,0.1,1.9,0.1,2.8C753.5,302.3,749.1,312.5,741.2,319.6z"/>
	<path d="M721.5,407.3c0,5.1,2,9.6,8,9.6c2.5,0,5-1,6.9-2.6l0.3-15.5c-1.4-1.5-4.2-2.1-6.2-2.1C724.3,396.7,721.5,401.6,721.5,407.3
		z"/>
</g>
</svg>
