<?xml version="1.0" encoding="utf-8"?>
<!-- Generator: Adobe Illustrator 25.2.3, SVG Export Plug-In . SVG Version: 6.00 Build 0)  -->
<svg version="1.1" id="Capa_1" xmlns="http://www.w3.org/2000/svg" xmlns:xlink="http://www.w3.org/1999/xlink" x="0px" y="0px"
	 viewBox="0 0 850.4 850.4" style="enable-background:new 0 0 850.4 850.4;" xml:space="preserve">
<g>
	<path d="M127.2,45.2c0,199.7,0,399.3,0,599c2.5,0.1,5.1,0.2,7.6,0.2c194,0,388,0,582.1,0c2.7,0,5.5,0,8.6,0
		c0-199.7,0-399.1,0-599.2C526.1,45.2,326.6,45.2,127.2,45.2z M177.1,95.5c46.2,0,92,0,138.8,0c0,7.3,0.3,14.3-0.1,21.2
		c-0.4,6.5-4.7,10.3-11.4,10.4c-10.2,0.1-20.4,0-30.6,0c-2.1,0-4.2,0-7.1,0c0,44.9,0,89.2,0,133.8c-13.7,0-26.6,0-40.3,0
		c0-44.5,0-88.8,0-133.8c-7.6,0-14.3,0-21.1,0c-5.5,0-11.1,0.1-16.6,0c-7.1-0.2-11.3-4-11.6-10.8
		C176.8,109.5,177.1,102.7,177.1,95.5z M334.6,393.3c-5,38.8-31.3,64.2-70.3,69.7c-6.5,0.9-13.1,1.4-19.7,1.5
		c-20,0.2-40,0.1-59.9,0.1c-2.3,0-4.6,0-7.3,0c0-55.5,0-110.5,0-166.3c22.4,0,44.3-0.2,66.1,0.1c8.5,0.1,17,0.8,25.3,2.5
		C314.5,309.7,340.6,346.4,334.6,393.3z M448.5,464c-27.9,0-55.4,0-83.6,0c0-7.7-0.4-15.7,0.2-23.6c0.3-4.5,5.1-7.6,10.3-7.9
		c3.3-0.2,6.7,0,10.5,0c0-34,0-67.5,0-102.1c-3.4,0-7,0.1-10.5,0c-6.4-0.3-10.5-4-10.7-10.3c-0.3-7-0.1-14-0.1-21.4
		c27.9,0,55.4,0,83.4,0c0,7.8,0.5,15.8-0.2,23.7c-0.4,4.8-4.5,7.6-9.5,7.9c-3.5,0.2-7.1,0-11.1,0c0,34.2,0,67.7,0,102.1
		c3.7,0,6.8-0.2,10,0c6.6,0.4,10.8,4.1,11.2,10.8C448.8,449.9,448.5,456.7,448.5,464z M445.6,162.6c0,10.1,0,19.6,0,29.9
		c-19.6,0-39.2,0-59.4,0c0,12.6,0,24.3,0,36.7c2.4,0,4.7,0,7,0c20,0,40,0,60,0c10.6,0,14.3,3.6,14.4,14.1c0.1,5.7,0,11.4,0,17.6
		c-41.1,0-81.5,0-122.3,0c0-55.3,0-110.3,0-165.6c40.7,0,81.1,0,122.3,0c0,7.3,0.2,13.8-0.1,20.4c-0.4,7.8-4.3,11.4-12.3,11.4
		c-20.6,0.1-41.3,0-61.9,0c-2.3,0-4.6,0-7.2,0c0,12,0,23.4,0,35.5C405.8,162.6,425.5,162.6,445.6,162.6z M586.2,464.6
		c-16.1,2.7-32.2,3.1-48.1-1c-32.2-8.2-51.7-28.9-58.3-61.4c-2.9-14.5-2.8-29.2,0.8-43.7c6.3-24.9,21.1-43,44.5-53.4
		c27.6-12.3,55.8-10.6,84.5-2.6c-0.1,1.8-0.1,3.3-0.4,4.6c-1.4,5.6-2.9,11.1-4.4,16.6c-1.9,7.2-4.5,8.9-11.9,8.2
		c-7.8-0.8-15.7-1.9-23.5-2c-30-0.1-48.2,16.9-50,47c-0.4,6.5,0.2,13.3,1.5,19.6c5,23,21.6,36.1,46.4,36.4
		c8.2,0.1,16.4-1.6,24.7-2.4c2.8-0.3,5.6,0,8.7,0c3.2,9.6,6.1,18.4,9.3,28.4C601.8,461.1,594.1,463.3,586.2,464.6z M641.3,409
		c-15,0-27.6-12.5-27.6-27.5c0-15.2,12.2-27.4,27.5-27.4c15.4,0,27.5,12,27.5,27.3C668.7,396.6,656.4,409,641.3,409z"/>
	<path d="M287.4,758.2c-3.6,0.2-6.9,0.3-10.2,0.5c-5,9.8-9.8,19.2-14.9,29.1c-5.3-10.3-10.2-19.9-14.9-29c-4.2,0-7.4,0-11.1,0
		c0,5.9,0.1,11.2,0,16.4c-0.1,9.9-0.3,19.9-0.5,29.8c3.4,0,6.8,0,10.2,0c0-9.3,0-18.6,0-27.9c0.3-0.1,0.6-0.3,1-0.4
		c4,7.5,8,15.1,12,22.7c2.3,0,4.1,0,6.6,0c4-7.5,8-15.1,12-22.7c0.5,0.1,1,0.1,1.6,0.2c0,9.4,0,18.8,0,28.1c2.6,0,5.1,0,7.7,0
		c0.5-1.8,1.3-3.6,1.3-5.4c0.1-12.8,0.1-25.5,0-38.3C288.1,760.6,287.7,759.6,287.4,758.2z"/>
	<path d="M464.2,760.7c-9.3-3.9-19-2.4-29-2.1c0,3.5,0,6.3,0,9c-0.1,12.5-0.2,25-0.4,37.5c0.9,0,1.7,0,2.6,0
		c6.9-0.4,13.7-0.7,20.6-1.1c10.8-2.1,17.6-8.8,18.9-18.6C478.4,774.5,473.6,764.6,464.2,760.7z M464.3,789.8
		c-3.5,7.4-10.4,6.8-17.8,6.3c0-9.9,0-19.2,0-29.1c6.4-0.4,12.7-1.4,16.8,4.6C467.2,777.3,467.2,783.7,464.3,789.8z"/>
	<path d="M385,758.9c0,9.2,0,17.8,0,28c-8.2-10.3-15.4-19.3-22.4-28.1c-3,0-5.4,0-8.2,0c0,15.8,0,31.1,0,46.4c2.6,0,5.1,0,7.7,0
		c0.6-2.4,1.6-4.7,1.6-7.1c0.2-6.9,0.1-13.8,1.2-21.1c5.9,7.4,11.6,14.9,17.6,22.2c1.8,2.2,4.2,4.1,6.3,6.1c2.1,0,4.3,0,6.4,0
		c-0.2-15.4-0.4-30.8-0.6-46.3C391.1,758.9,388.3,758.9,385,758.9z"/>
	<path d="M194.3,758.8c-10,2.7-16.6,10.4-17.3,20.4c-0.8,11.4,4.4,20.2,14.6,24.4c0.4,0.2,0.7,0.3,1.1,0.5c1.6,0.8,3.4,1.1,5.2,1.1
		h4.3c3.5,0,7-1,9.9-2.9c2.8-1.7,5.5-3.5,7.6-5.8c6.5-7.2,6.8-19.7,1.6-28C215.7,759.9,204.8,756,194.3,758.8z M200.9,796.2
		c-8.1,0-13-5.5-13-14.7c0-9.2,5-14.7,13.2-14.6c7.9,0.1,13,6,12.8,15.1C213.7,790.7,208.7,796.2,200.9,796.2z"/>
	<path d="M341.2,763.4c0-1.6-0.4-3.2-0.6-4.6c-3.7,0-6.8,0-10.3,0c0,2.4,0,4.2,0,6.1c0,7.4,0.1,14.9-0.2,22.3
		c-0.2,5.6-3.8,8.9-8.8,8.9c-5,0-8.5-3.3-9-8.8c-0.2-2.5-0.1-5.1-0.1-7.7c0-6.9,0-13.9,0-20.9c-3.9,0-7,0-10.8,0
		c0,6.3,0.3,12.2-0.1,18.1c-0.8,11.6,1,22,12.2,28.4c4.7,0,9.4,0,14,0c11.1-4.8,14.4-13.8,13.7-25.2
		C341,774.5,341.3,768.9,341.2,763.4z"/>
	<path d="M515.7,768.4c-1.3-3.3-2.6-6.6-3.9-9.7c-3.9,0-7.3,0-10.9,0c-1.4,3.5-2.7,6.8-4,10.2c-4.5,12.1-9,24.2-13.5,36.3
		c2.6,0,5.1,0,7.7,0c4.9-1.8,4.6-7,6.9-10.7c5.5,0,11,0,17,0c1.3,3.4,2.8,7.1,4.2,10.7c3,0,6,0,8.9,0c-0.2-2.2,0-4.5-0.7-6.5
		C523.6,788.5,519.6,778.5,515.7,768.4z M500.2,786.8c2-5.9,3.8-11.3,5.6-16.7c0.4,0,0.9,0.1,1.3,0.1c1.8,5.3,3.5,10.6,5.6,16.6
		C508.1,786.8,504.6,786.8,500.2,786.8z"/>
	<path d="M143.3,792.5c-4.2-4.6-4.9-14.2-1.4-19.7c3.8-6.1,8.8-6.8,21.8-2.9c0.6-0.6,1.5-1.2,2.1-2c0.9-1.1,1.6-2.4,2.4-3.5
		c-7.3-7.1-17.9-8.4-27.2-3.7c-9,4.6-13.8,14.7-12.1,25.2c1.5,9.8,7.4,15.7,16.2,19.4c4.3,0,8.5,0,12.8,0c3.4-2.2,6.7-4.4,10.6-6.9
		c-2.6-2.4-4.3-4.1-5.9-5.5C153.3,797.4,147.7,797.3,143.3,792.5z"/>
	<path d="M141.3,734.5c3.7,0,6.8,0,10.6,0c0-12.5,0-24.7,0-37c4.6-0.3,8.5-0.5,12.4-0.8c0-2.9,0-5.1,0-7.8c-12.6,0-24.9,0-37.1,0
		c0,2.6,0,5.1,0,7.7c4.5,0.7,9,1.3,14.1,2.1C141.3,710.5,141.3,722.5,141.3,734.5z"/>
	<path d="M566.1,759.7c-8.5-2.4-17.2-1.3-26.1-1.3c0,15.6,0,30.5,0,45.3c7.6,0.1,15.1,0.2,22.7,0.2c11.3-2,18.4-9.6,19-20.6
		C582.3,772.1,576.2,762.6,566.1,759.7z M568.8,789.7c-3.4,7.5-10.4,6.9-17.8,6.3c-0.1-1.4-0.3-2.5-0.3-3.5c0-8.3,0-16.5,0-25.4
		c6.4-0.6,12.7-1.6,17,4.3C571.7,777.1,571.6,783.6,568.8,789.7z"/>
	<path d="M305.6,689c-3,0-5.6,0-9.2,0c0,9.2,0,18,0,26.9c-0.4,0.1-0.8,0.1-1.2,0.2c-7.2-9.1-14.4-18.2-21.4-27.1c-3,0-5.3,0-7.8,0
		c0,15.3,0,30.3,0,45.4c3.2,0,6,0,9.5,0c0-9.2,0-17.9,0-27.9c4.5,5.6,8.1,10.1,11.6,14.5c3.7,4.6,7.4,9.3,10.8,13.6c3,0,5.2,0,7.7,0
		C305.6,719.3,305.6,704.3,305.6,689z"/>
	<path d="M365.6,711.8c0-13.5-10.2-23.6-23.9-23.7c-14-0.1-24.4,10.1-24.2,23.9c0.1,13.6,10.2,23.2,24.1,23.2
		C355.5,735.2,365.5,725.4,365.6,711.8z M341,726.3c-5.7-0.2-9.5-2.5-11.2-7.8c-2.1-6.3-2.1-12.6,2.7-18c3.2-3.6,9.4-4.5,14.2-2.6
		c4.9,1.9,7.7,6.8,7.7,13.5C354.5,721.1,349.5,726.6,341,726.3z"/>
	<path d="M459.1,712.2c0.2-14-9.9-24.1-23.9-24.1c-13.8,0-23.8,9.8-23.9,23.5c-0.1,13.8,9.7,23.5,23.6,23.6
		C449,735.4,459,725.9,459.1,712.2z M422.2,711.9c0-9,5.1-14.9,13.1-14.9c8,0,12.9,5.8,12.9,15c-0.1,9.3-4.9,14.5-13.3,14.4
		C426.9,726.2,422.2,720.8,422.2,711.9z"/>
	<path d="M653.5,708.5c-3.7,0.2-6.1,0.4-8.2,0.5c-1,3.4-1.8,6.2-2.8,9.8c-4.7-5.1-9-9.2-12.6-13.9c-3.5-4.6-1.8-8.2,5.1-9.6
		c0.8,1.4,1.9,3.5,2.7,5c3.3-0.7,5.3-1.1,7.8-1.7c-3.1-9.1-9.9-12.7-18.1-9.6c-2.6,1-5.1,3.1-6.7,5.4c-3.3,4.7-1.3,9.7,0.7,14.5
		c-0.9,0.7-1.5,1.3-2.1,1.8c-5.6,4.8-7.4,10.1-5.3,15.7c2,5.3,7.6,9.1,14.3,8.6c4.5-0.3,9-1.8,14.4-3c0.8,0.5,2.5,1.7,3.7,2.4
		c3.8,0,6.9,0,10.9,0c-3.2-3.7-6-6.8-8.2-9.4C650.4,719.5,651.8,714.6,653.5,708.5z M624.6,725.6c-2.7-3.5-2-7,1.3-10.9
		c3.5,3.6,6.9,7.1,10.3,10.7C631,728.3,626.8,728.5,624.6,725.6z"/>
	<path d="M504.8,700.8c1.5-2,2.9-3.8,4.5-5.9c-9.6-9-25.9-8.8-34.7-0.1c-8.5,8.3-8.9,23.5-1,32.6c8.4,9.7,24.8,10.9,35,2.8
		c0-6.4,0-12.7,0-18.9c-5.5,0-10.4,0-15.9,0c0.1,2.5,0.2,4.6,0.3,6.7c2.3,0.4,4.1,0.7,6.2,1.1c0,2.3,0,4.3,0,6.2
		c-7.1,2.9-13.1,1.9-17-2.9c-3.9-4.8-4.5-14.8-0.7-19.9C488.3,693.5,496.5,697.3,504.8,700.8z"/>
	<path d="M562.7,689c-5.8,15.1-11.6,30.1-17.6,45.6c3.9,0,7,0,10.5,0c1.5-3.4,2.9-6.6,4.2-9.6c6,0,11.7,0,17.1,0
		c1.5,3.5,2.8,6.5,4.1,9.6c3.4,0,6.3,0,10.5,0c-6-15.7-11.8-30.6-17.6-45.6C570,689,566.5,689,562.7,689z M562.2,716.8
		c2-5.8,3.8-11.2,6.1-18.1c2.3,6.6,4.1,12,6.2,18.1C569.9,716.8,566.4,716.8,562.2,716.8z"/>
	<path d="M250.1,700.6c1.6-2.1,3.1-3.8,4.8-5.9c-9.6-9.1-25.7-8.4-34.1,1.2c-8.4,9.6-7.3,26.7,2.3,34.6c9,7.5,24,6.3,31-2.7
		c-1.4-1.7-2.8-3.5-3.8-4.9c-12.1,4.7-16.8,4.4-20.8-0.7c-4-5-4.5-14.6-0.5-19.8C235,694.2,242.5,696.8,250.1,700.6z"/>
	<path d="M205.2,696.7c-0.2-3.1-0.3-5.3-0.4-7.6c-9.9,0-19.2,0-28.8,0c0,15.6,0,30.6,0,45.5c9.9,0,19.3,0,28.8,0c0-2.7,0-4.9,0-7.9
		c-6.2,0-12,0-18.2,0c0-4,0-7.2,0-10.7c5-0.2,9.5-0.4,14.3-0.6c-0.1-2.7-0.2-4.8-0.4-7.2c-4.9-0.2-9.4-0.5-14-0.7
		c0-3.8,0-6.8,0-10.8C193,696.7,199,696.7,205.2,696.7z"/>
	<path d="M387.6,689.2c-3.8,0-6.9,0-10.2,0c0,15.2,0,30,0,45.4c9.3,0,18.1,0,27,0c0-2.8,0-5.2,0-8.3c-5.6,0-10.8,0-16.7,0
		C387.6,713.5,387.6,701.3,387.6,689.2z"/>
	<path d="M523.3,734.6c3.5,0,6.6,0,10.1,0c0-15.6,0-30.6,0-45.6c-3.7,0-6.7,0-10.1,0C523.3,704.4,523.3,719.4,523.3,734.6z"/>
	<path d="M409.8,803.7c3.5,0,7,0,10.4,0c0-14.8,0-29.6,0-44.9c-3.6,0-6.8,0-10.4,0C409.8,774.1,409.8,788.9,409.8,803.7z"/>
	<path d="M522.9,684.9c8.6,1.3,13.2-0.7,16.8-7C532.9,676.8,526.6,677.2,522.9,684.9z"/>
	<path d="M256.6,331.5c-12.4-1.3-25-0.8-37.5-1c-0.3,0-0.6,0.5-1.1,0.9c0,33.2,0,66.6,0,100.5c12.4,0,24.4,0.9,36.1-0.2
		c21.4-2.1,34.4-14.5,38.5-35.5c2.1-11,2-22-0.7-32.9C287.4,345.4,275,333.4,256.6,331.5z"/>
</g>
</svg>
