<svg xmlns="http://www.w3.org/2000/svg" viewBox="0 0 421.2 278"><path d="M347.4 188.4c-.2-.7-.7-.9-1.5-.7-.7.1-1.4.3-2 .4-4.1.9-8.1 1.9-12.2 2.8-3.2.7-6.5 1.5-9.7 2.2-1.4.3-2.8.6-4.3 1 .1-.2.1-.3.2-.3 1.9-2.6 3.6-5.2 4.9-8 1.1-2.4 2.1-4.7 2.9-7.1 1.2-3.2 1.9-6.5 2.3-9.8.6-4.7.7-9.5-.1-14.2-.4-2.3-.9-4.6-1.5-6.9-.8-2.4-1.6-4.9-2.8-7.3-1.6-3.4-3.6-6.6-6-9.6-1.9-2.5-4.1-4.9-6.5-7.1-1.5-1.5-3.2-2.8-4.9-4.2-2.4-1.8-4.9-3.5-7.6-5.1-3.5-2-7-3.8-10.8-5.2-3.6-1.4-7.4-2.6-11.4-3.4-1.7-.3-3.4-.7-5.2-.9-.1-.7-.2-1.3-.2-2-1.5-9.1-6.6-16.4-15.7-21.4-6.9-3.8-14.5-5.6-22.4-6.7-13.3-1.8-26.7-2.4-40.1-2.4-7.7 0-15.3.1-23 .3s-15.3.6-22.9 1.1c-14.7 1-29.2 3-43.5 6.2-8.8 2-17.6 4-25.9 7-8.2 2.9-15.8 6.7-22.1 12.1-7 6-10.9 13.1-11 21.6 0 8.9 3.9 16.4 11.6 22.4 6 4.7 13.5 7.2 21.4 8.4 7.4 1.2 15 1.5 22.6 1.6 11.3.1 22.6 0 36.7 0 5.2-.1 13.1-.3 21-.6 6.3-.2 12.8-.5 19.1-.9 6.7-.4 13.5-.9 20.2-1.3 2.4-.1 4.8-.4 7.3-.6 1-.1 1.5-.9 1.4-1.8-.2-.8-.6-1.1-1.7-1.1-3.9.3-7.9.7-11.8.9-10.8.6-21.6 1.3-32.4 1.7-12.2.5-24.4.7-36.6.9-10.9.2-21.8.3-32.7-.6-5.4-.4-10.8-.8-16-2-7.6-1.6-14.4-4.6-19.5-9.8-7-7.2-9.6-15.4-6.6-24.5 2-6.1 6.4-11 12.1-15 5.5-3.9 11.7-6.7 18.3-8.9 13-4.4 26.5-7.6 40.1-9.8 10.8-1.8 21.7-3 32.6-3.6 6.2-.3 12.4-.7 18.6-.8 7-.1 14.2-.2 21.2-.1 8.3.1 16.6.5 24.9.8 6.2.2 12.4.5 18.6 1.4 6.3.9 12.4 2.5 17.9 5.3 7.8 3.9 12.8 9.6 14.9 17.1 1.8 6.2 1.3 12.3-.7 18.5-2.9 9.1-9.4 16.2-17.8 22.1-6.8 4.7-14.5 8.2-22.6 11.1-8.6 3.1-17.5 5.5-26.5 7.8-13.1 3.5-26.6 5.7-40.4 6.2-9.4.3-18.6-.3-27.8-1.9-1.2-.2-1.9.1-2.2 1.1-.2.9.2 1.5 1.4 1.6 9.6 1.7 19.3 2.3 29.1 2 8-.3 16.1-1.2 24-2.6 11.1-2 21.9-4.7 32.6-7.9 9.7-2.9 19.2-6.5 27.8-11.3 7.7-4.4 14.5-9.6 19.3-16.5 5.1-7.3 8.1-14.9 7.9-23.2 4 .7 8 1.5 11.8 2.8 4.1 1.3 8 3 11.7 4.9 2.6 1.5 5.2 3.1 7.6 4.7 2.1 1.5 4.1 3 5.9 4.7 2.1 1.9 3.9 4 5.8 6 2.7 3.1 4.9 6.5 6.6 10.1 1.1 2.4 2.1 4.7 2.9 7.2 1.1 3.4 1.7 6.8 2 10.3.4 4.6.1 9.2-.8 13.7-.6 3.1-1.5 6.1-2.7 9.2-1.4 3.4-3.1 6.7-5.3 9.8-.7 1.1-1.5 2-2.2 3.1-.2-.2-.1-.3-.1-.4.6-2.6 1.2-5.1 1.8-7.8.8-3.4 1.5-6.9 2.3-10.3.2-1.1.5-2.2.8-3.4.2-.7-.3-1.3-1.2-1.4-.8-.1-1.1.1-1.3.9-.4 1.6-.8 3.2-1.2 4.9-.5 2.2-1 4.4-1.5 6.7-.5 2.5-1.2 5-1.7 7.5-.4 1.9-.9 3.8-1.2 5.7-.2.9.6 1.5 1.6 1.2 2.2-.5 4.3-1 6.5-1.5 2.6-.6 5.2-1.2 7.7-1.8l8.1-1.8c2.8-.7 5.6-1.3 8.4-1.9.9-.2 1.9-.5 2.8-.7.5.3.8-.3.6-.9zM298.7 219.8c-1.4-.3-2.9-.5-4.3-.9l-4.2-.9.1-.1c2.2-.7 4.3-1.3 6.6-2 1-.3 1.9-.6 2-1.6.2-.9-.5-2-2.1-1.6-.9.3-1.7.5-2.6.8-1.7.5-3.4 1.1-5.2 1.6s-3.5 1.1-5.3 1.6v-.2c.8-1.8 1.6-3.6 2.4-5.5.6-1.5 1.2-2.8 1.9-4.3.2-.5.2-1-.3-1.3-1-.8-2.6-.5-3.1.6-.9 1.9-1.7 3.9-2.6 5.8-.5 1.3-1.2 2.6-1.8 4-.9-1.4-1.6-2.7-2.3-4-1.5-2.6-3.1-5.3-4.6-7.9-.5-.9-1.5-1.2-2.3-.8-1 .4-1.4 1.3-.9 2.1.3.5.6 1.1.9 1.6 1.5 2.5 2.9 5.1 4.5 7.6.2.3.3.5.5.9-.5-.1-.9-.1-1.2-.2-3.2-.7-6.6-1.3-9.8-1.9-.8-.1-1.3.1-1.9.5-.5.4-.7.9-.5 1.5s.6.9 1.4 1.1c.7.1 1.3.3 1.9.4 2.7.5 5.3 1.1 8 1.6.9.2 1.7.3 2.7.6-.2.1-.3.1-.5.2-1.5.5-3.1.9-4.6 1.4-2.2.7-4.5 1.4-6.7 2-.6.2-1.3.4-1.7 1s-.4 1.5.2 2c.4.4 1 .5 1.9.3.8-.3 1.6-.5 2.4-.7l6-1.8c1.2-.4 2.6-.7 3.9-1.2-.3.7-.5 1.1-.7 1.6-.7 1.6-1.5 3.2-2.2 4.8-.3.7-.2 1.3.5 1.6 1.2.7 2.4.3 2.9-.9.6-1.4 1.2-2.8 1.9-4.2.2-.5.5-1 .7-1.6 1.9 3.1 3.6 6.1 5.3 9.2.3.5.6 1.1 1.5 1.3.8.1 1.4-.1 1.9-.7.5-.5.5-1.1.1-1.6-1.1-1.8-2.1-3.5-3.2-5.3-1.2-1.9-2.3-3.9-3.5-5.9.4 0 .7-.1 1-.1 2.6.5 5.2 1.1 7.7 1.5 2.1.4 4.1.8 6.2 1.2 1 .2 1.9-.4 2.2-1.3.4-1.2 0-1.7-1.1-1.9z"/><g><path d="M127.1 103.1c.4-.3.7-.4.9-.4.3.1.4.3.4.8 0 .3-.1.7-.4 1-.2.3-.6.7-1 .9-.4.3-.9.6-1.4.8-.5.3-1 .5-1.5.7s-1 .4-1.4.5-.8.2-1 .3c-.7.1-1.4.2-2.1.2-.7 0-1.4-.1-2.1-.2-.7-.2-1.4-.4-2-.8s-1.1-.9-1.5-1.5c-.7-1.1-.9-2.2-.8-3.6.1-1.3.7-3.1 1.7-5.3.6-1.2.9-2.1 1.1-2.7.1-.4.4-1.1.9-2.1.7-1.3.8-1.9.2-1.9-.4 0-1 .4-1.8 1.1-.7.6-1.3 1.1-2 1.6-.5.3-1.3 1.3-2.6 3.1-1.3 1.7-2 3-2.4 3.6-.3.7-.7 1.5-1.2 2.2-.9 1.4-1.9 2.9-2.8 4.6-.5 1-.8 1.4-1 1.4-.1 0-.4.1-.8.2s-.9-.1-1.3-.7l-.6-.9.8-1.3c.4-.5.9-1.5 1.7-2.9s1.3-2.3 1.7-2.8c.3-.4.6-1 1-1.8s.8-1.5 1.1-2.3.6-1.3.7-1.7c.1-.5.4-1.2.8-1.9.3-.6.5-1.2.6-1.9.1-.7 0-1.2-.2-1.4-.1-.1-.3-.1-.7.1s-.9.4-1.4.6c-.5.3-1 .5-1.4.8-.5.3-.8.5-.9.7-.4.4-.7.6-1 .6s-.7-.3-1.1-.7c-.5-.5-.7-.8-.7-.8 0-.2 1-.9 2.9-2s3.3-1.8 4.3-2.2c.4-.1 1-.2 1.7-.1s1.2.2 1.5.4c.2.1.3.3.4.4.1.2.1.4.2.6v2.9l1.8-1.3c.8-.6 1.4-1 1.7-1.2.4-.2.9-.3 1.7-.3s1.4 0 1.5.1c.2.1.4.4.5.9.3.6.3 1.4.2 2.4-.2 1.2-.5 2.5-1 4.1-.5 1.5-.9 2.7-1.3 3.4-.5 1-.7 1.7-.7 2.1 0 .5-.1.8-.4 1-.3.3-.6.7-.7 1.2-.1.5-.1 1 0 1.5s.3.9.6 1.3.7.6 1.1.7c.8.1 1.7.2 2.7.1s2-.2 3-.4c.3-.1.6-.2.7-.3 1.3-.3 2.3-.9 3.1-1.5z"/><path d="M142.2 104.9c.3-.3.6-.4.9-.3.2 0 .4.3.4.7 0 .1 0 .3-.1.4s-.1.2-.2.3l-.3.3c-.2.1-.3.2-.3.3-.1.1-.2.1-.4.3-.2.1-.3.2-.3.2-1.1.7-1.6 1.1-1.6 1.2-.1.1-.3.2-.7.3-.4.1-.6.2-.8.2-.3.1-.5.1-.7.1s-.4 0-.7-.1c-.2-.1-.4-.1-.5-.2-.1 0-.2-.1-.3-.1-.4-.2-1-.6-1.7-1.3l-.9-.8-1.1.8c-.8.5-1.6.9-2.5 1-.8.1-1.5 0-2.2-.2s-1.2-.7-1.6-1.3c-.4-.6-.5-1.3-.3-2.1.2-.9.6-1.8 1.3-2.9.7-1 1.4-1.9 2.2-2.7.6-.6 1.1-.8 1.4-.8.2 0 .4.2.7.5.2.2.3.4.3.5s-.1.4-.3.8c-1.9 3.6-2.3 5.6-1.4 5.9h.2c.6.1 1.5-.4 2.5-1.5 1.1-1.1 1.8-2.2 2.3-3.4.3-.8.7-1.5 1.2-2.1.4-.5.7-.8.9-.9s.5 0 1 .3c.4.2.6.5.7.8 0 .3-.1.7-.5 1.4-.2.3-.3.5-.4.9-.1.3-.2.6-.2.8 0 .1-.1.2-.1.4s-.1.4-.1.5c-.1.4-.2.7-.2.9-.2.6-.2 1.2-.2 1.8s.1.9.3 1.1.5.2 1 .3c.1 0 .3-.1.6-.2s.6-.2.7-.3c.4-.7 1.3-1.3 2-1.8z"/><path d="M152.7 105.4c.3-.3.6-.4.9-.3s.4.3.4.7c0 .1 0 .3-.1.4s-.1.3-.2.3l-.3.3c-.1.1-.3.2-.3.3-.1.1-.2.1-.4.3s-.3.2-.3.2c-.4.2-.7.4-1.1.6 0 0-.1 0-.1.1-.1 0-.1 0-.2.1-.1 0-.1 0-.2.1-.1 0-.1 0-.1.1h-.1c-.9.4-1.9.6-3 .7s-1.9 0-2.4-.3c-.1 0-.3-.1-.7-.3-.4-.2-.7-.3-.9-.5-.3-.2-.7-.7-1-1.5-.6-1.4-.9-2.5-.9-3.6 0-.6.1-1.5.3-2.5 0-.1 0-.2.1-.4 0-.2.1-.3.1-.4s.1-.2.1-.4.1-.3.1-.4.1-.2.2-.4c.1-.1.1-.2.2-.3.3-.4.6-.8.8-.9.8-.8 1.8-1.2 3.1-1.1s2 .5 2.1 1.3c.1.6.1 1.2-.1 1.8s-.4 1.1-.6 1.5c-.2.4-.6.9-1 1.6-.4.6-.7 1.1-.9 1.5-.7 1.2-1 2-1 2.2s.2.5.6.8c.2.2.5.4.6.4.2 0 .5 0 1-.1.8-.1 1.6-.3 2.5-.6.3-.1.8-.3 1.5-.6.7-.4 1.1-.6 1.3-.7zm-8.8-1.6c.1 0 .5-.6 1.1-1.8.6-1.2.9-1.9.9-2.1 0-.3-.2-.5-.5-.6s-.6 0-.7.2c-.2.2-.3.5-.5.8-.2.4-.3.7-.4 1.1-.1.4-.1.7-.2 1.1-.1.3-.1.6 0 .9.1.2.2.4.3.4z"/><path d="M163.9 103.6c.3-.3.6-.4.9-.3.2.1.4.3.4.7v.3c0 .1-.1.2-.1.3-.1.1-.1.2-.2.3l-.2.2c-.1.1-.2.1-.3.2s-.2.1-.3.2-.2.1-.3.2-.2.1-.2.2c-.4.2-.7.4-1.1.6 0 0-.1.1-.2.1-.4.4-.8.7-1.1.9-.3.1-.7.2-1.2.2-.5.2-.9.1-1.1 0h-.5c-.3 0-.5 0-.6-.1h-.5c-.2 0-.4 0-.6.1-.2 0-.3.1-.5.2s-.4.2-.7.2-.8-.1-1.6-.2c-.5-.1-1-.1-1.3-.2h-.2-.3c-.1 0-.2 0-.2-.1-.2-.1-.4-.5-.6-1.2-.1-.4-.2-.8-.2-1.3v-.4c.1-.4.2-.6.4-.7.1 0 .2-.1.3-.1.2 0 .3-.1.4-.2.1-.1.2-.3.3-.5.1-.3.1-.5.2-.8 0-.2 0-.4.1-.5l.3-.3c.2-.1.3-.2.3-.2.2-.2.3-.4.5-.6.1-.1.2-.6.4-1.3.2-.6.3-1.1.4-1.7.1-.6.2-1.1.2-1.5.1-.9.2-1.5.3-1.6.1-.2.4-.2.7-.2.4 0 .7.1.9.3.1.1.2.2.3.4.1.2.2.3.2.5 0 .1.1.3.2.6.1.2.1.4.1.5.3.8.5 1.6.6 2.3 0 .3.1.7.2 1.2s.1 1 .2 1.4l.3 1.2c.2.7.3 1.3.2 1.8 0 .3-.1.6-.1.9s.1.5.3.7.5.3.9.2c.2 0 .3-.1.5-.1.2-.1.3-.1.4-.2s.3-.2.4-.3c.2-.1.3-.2.3-.3.1-.1.2-.2.4-.3.2-.2.6-.5 1-.8.3-.6.6-.8.7-.9zm-7.1.6c.1-.5 0-1.4-.4-2.5s-.6-1.6-.7-1.6c-.1 0-.2.2-.3.6s-.2.7-.3.9c-.2.3-.5.8-.9 1.6s-.6 1.3-.5 1.4.2.2.5.3c.2.1.5.2.7.3.3.1.5.1.7 0 .7-.2 1.1-.5 1.2-1z"/><path d="M175.1 105.2c.3-.2.6-.3.9-.2.2.1.3.3.3.8 0 .1 0 .2-.1.3-.1.1-.1.2-.2.3-.1.1-.2.2-.3.2-.1.1-.2.2-.3.2-.1.1-.2.1-.3.2-.1 0-.2.1-.3.2s-.2.1-.3.2c-.4.2-.8.4-1.2.5l-.6.3c-.4.2-.8.5-1.2.7-.5.3-.8.4-1.1.5l-1.2.3c-.4.1-.9.1-1.3.1-.5 0-.9 0-1.3-.1s-.8-.3-1.1-.5c-.3-.3-.6-.7-.8-1.3-.2-.5-.4-1.1-.4-1.8-.1-.6-.1-1.2-.1-1.8s0-1.1.1-1.6c0-.1.1-.7.3-1.9.2-1.2.3-2.4.5-3.6l.2-1.7c-.2-.1-.5-.2-1-.2h-.9c-.7 0-1.3 0-1.6-.1h-1.2c-.1 0-.1-.1-.1-.1 0-.2.1-.4.3-.5 0 0 .1-.1.3-.2l.6-.3c.2-.1.5-.2.8-.3.3-.1.7-.1 1.1-.1 1.1.1 1.8.1 2.1.1s.6-.2.8-.5c.4-.4.9-1.4 1.6-3 0-.1.1-.2.1-.3.3-.6.5-1.1.6-1.4.2-.3.4-.8.7-1.3s.6-1 1-1.3c.4-.4.7-.6 1.1-.8 1.3-.6 1.9-.6 1.9.1 0 .4-.3 1.3-.9 2.6-.2.4-.3.7-.4.9-.1.3-.2.6-.2 1-.1.4-.2.8-.4 1.1-.4.6-.7 1.2-.9 1.6-.3.5-.4.8-.3.9.1.1.8.3 2.3.4 1 .1 1.6.2 1.8.3.2.1.3.2.3.4 0 .3-.2.4-.5.4h-.7c-.4 0-.8 0-1.2.1-.5 0-.9.1-1.4.1-.5.1-.9.1-1.2.1-.2 0-.4.5-.7 1.4s-.6 2.1-.9 3.4c-.3 1.3-.6 2.2-.7 2.7-.8 2.3-.7 3.9.3 4.7.4.4.8.6 1.2.6.2 0 .5-.1.7-.2 0-.1.2-.2.5-.3.3-.1.5-.2.8-.3l.9-.3c.3-.1.4-.2.5-.2 1-.6 2-1.1 2.7-1.5z"/><path d="M189.2 104.2c.3-.3.6-.4.8-.3s.4.3.4.7c0 .1 0 .2-.1.3 0 .1-.1.2-.2.3-.1.1-.2.2-.2.3l-.3.3c-.1.1-.2.2-.3.2-.1.1-.2.1-.3.2s-.2.1-.3.2c-.4.2-.7.4-1.1.6 0 0-.1 0-.1.1s-.1.1-.2.2c-.1 0-.2.1-.4.1-.3.2-.9.3-1.5.4-.7.1-1.3.1-1.9.1-.6 0-.9-.1-1.1-.2-.1-.1-.3-.3-.5-.6s-.3-.6-.4-.9c-.1-.3-.2-.5-.2-.7-.1-.4-.1-.9-.1-1.4s.1-1.3.2-2.4v-.3c0-.1 0-.1-.1-.2-.1 0-.1-.1-.2-.1h-.4c-.2 0-.4 0-.6-.1-.2-.1-.4-.1-.7-.2-.2-.1-.4-.1-.6-.1 0 0 0 .2-.2.7-.1.5-.3 1-.5 1.5s-.4.8-.5.9c-.5.3-1.1.5-1.7.7-.8.2-.4-1.5 1.1-5.1 0-.1.1-.3.2-.6s.2-.5.2-.6.1-.3.2-.5.2-.5.2-.6c0-.2.1-.3.1-.6.1-.2.1-.4.1-.6v-.6c0-.2.2-.7.5-1.3.3-.6.6-1 .7-1.1.2-.1.6-.2 1-.1.4 0 .7.1.8.3.2.2.2 1.1 0 2.6-.1 1-.2 1.6-.2 1.9s.1.5.2.7c.2.2.3.2.5.2.1 0 .4-.1.8-.3.6-.3 1-.5 1.2-.5s.5.2.7.5c.2.2.2.5.2.7s-.1.6-.3 1.1c-.3.8-.6 1.7-.8 2.7-.2.8-.2 1.4-.2 1.8.1.4.3.9.7 1.4.2.3.3.4.4.4h.2c.1 0 .2-.1.4-.1.1-.1.2-.1.3-.1.5-.1.8-.2.9-.3 1.6-.5 2.5-1 3.2-1.6z"/><path d="M202 103.6c.2.1.3.4.3.8 0 .5-.2.9-.8 1.3-.2.1-.4.3-.7.4 0 0-.1 0-.2.1-.2.1-.4.2-.5.2-.5 0-.9-.2-1.3-.5-.1-.1-.2-.2-.3-.5l-.1-.1c-.1-.2-.3-.4-.4-.4-.1-.1-.3 0-.5 0-.2.1-.5.5-.8 1.1-.1.3-.2.5-.3.7-.3.4-.5.7-.7.7-.3.1-.6.3-1.1.6-.6.3-1.1.5-1.6.6-.6 0-1 .1-1.3.2h-.2c-.2 0-.3 0-.4-.1-.2-.1-.4-.3-.8-.6s-.6-.7-.8-.9c-.1-.3-.3-.7-.4-1.4-.2-1.1-.3-2-.2-2.6.1-.7.5-1.4 1-2.3.7-1.1 1.3-1.9 2-2.4.6-.5 1.4-.8 2.3-1.1.4-.1.8-.2 1.2-.5.5-.3 1-.5 1.4-.4s.8.4 1.4.9c.3.3.5.5.6.7s.2.4.2.5c0 .2.1.4.1.7 0 1.3 0 2.4.1 3.1 0 .4.1.8.3 1s.4.5.8.8h.1c.3-.2.5-.3.6-.4.4-.3.8-.4 1-.2zm-5.8-.4c.1-.3.1-.6 0-.7-.1-.2-.2-.4-.6-.7-.5-.5-.7-.9-.7-1.2 0-.2-.1-.5-.2-.7-.1-.3-.3-.5-.4-.6-.1-.1-.2-.1-.3-.1h-.2c-.2.1-.5.4-.9.8s-.8.9-1.1 1.6c-.4.6-.6 1.2-.8 1.8-.2.5-.2.9-.1 1.2.1.2.2.6.2 1.2 0 .4.1.7.2.9.1.2.2.3.3.3.2.1.4.1.8.1h.8c.1 0 .2-.1.3-.1.1-.1.2-.1.3-.2s.2-.2.4-.3c.6-.5.9-.8 1-1.1.1-.3.3-.6.5-.9.2-.4.4-.8.5-1.3zm.6-3.5c0-.6-.1-.9-.2-1l-.1.1c-.1.1-.1.4 0 .9.1.3.1.6.2.7.1-.1.1-.4.1-.7z"/><path d="M212.7 103.6c.3-.3.6-.4.9-.3.2.1.4.3.4.7v.3c0 .1-.1.2-.1.3-.1.1-.1.2-.2.3l-.2.2c-.1.1-.2.1-.3.2s-.2.1-.3.2-.2.1-.3.2-.2.1-.2.2c-.4.2-.7.4-1.1.6 0 0-.1.1-.2.1-.4.4-.8.7-1.1.9-.3.1-.7.2-1.2.2-.5.2-.9.1-1.1 0h-.5c-.3 0-.5 0-.6-.1h-.5c-.2 0-.4 0-.6.1-.2 0-.3.1-.5.2s-.4.2-.7.2-.8-.1-1.6-.2c-.5-.1-1-.1-1.3-.2h-.5c-.1 0-.2 0-.2-.1-.2-.1-.4-.5-.6-1.2-.1-.4-.2-.8-.2-1.3v-.4c.1-.4.2-.6.4-.7.1 0 .2-.1.3-.1.2 0 .3-.1.4-.2.1-.1.2-.3.3-.5.1-.3.1-.5.2-.8 0-.2 0-.4.1-.5l.3-.3c.2-.1.3-.2.3-.2.2-.2.3-.4.5-.6.1-.1.2-.6.4-1.3.2-.6.3-1.1.4-1.7.1-.6.2-1.1.2-1.5.1-.9.2-1.5.3-1.6.1-.2.4-.2.7-.2.4 0 .7.1.9.3.1.1.2.2.3.4.1.2.2.3.2.5 0 .1.1.3.2.6.1.2.1.4.1.5.3.8.5 1.6.6 2.3 0 .3.1.7.2 1.2s.1 1 .2 1.4l.3 1.2c.2.7.3 1.3.2 1.8 0 .3-.1.6-.1.9s.1.5.3.7.5.3.9.2c.2 0 .3-.1.5-.1s.3-.1.4-.2c.1-.1.3-.2.4-.3.2-.1.3-.2.3-.3.1-.1.2-.2.4-.3.2-.2.6-.5 1-.8.4-.6.7-.8.7-.9zm-7 .6c.1-.5 0-1.4-.4-2.5s-.6-1.6-.7-1.6c-.1 0-.2.2-.3.6s-.2.7-.3.9c-.2.3-.5.8-.9 1.6s-.6 1.3-.5 1.4.2.2.5.3c.2.1.5.2.7.3.3.1.5.1.7 0 .7-.2 1.1-.5 1.2-1zM68.4 132.2c.3-.2.5-.3.7-.3s.3.2.3.6v.2l-.1.2c0 .1-.1.1-.2.2l-.2.2-.2.2c-.1.1-.2.1-.2.2-.1 0-.1.1-.2.1-.1.1-.2.1-.2.1-.3.2-.6.4-.9.5 0 0-.2.1-.5.3l-.1.1c-.4.4-1 .6-1.8.7-.5.1-.9.1-1.1 0-.3-.1-.6-.2-1.1-.4-.7-.3-1.2-.6-1.4-.8-.2-.1-.3-.2-.4-.2-.1 0-.3.1-.6.4-.9.7-2 1-3.3 1.1s-2.1-.2-2.5-.8c-.2-.4-.3-1.1-.3-2.2s.2-1.9.4-2.3c.2-.4.4-.7.5-.9s.3-.4.4-.5c.1-.2.3-.4.6-.8.9-1.2 1.7-2 2.2-2.4.4-.3.9-.6 1.5-.8.6-.2 1.2-.4 1.8-.5s1.2 0 1.7.2c.6.3.9.8 1.1 1.5.1.7.1 1.4 0 2.1-.2.7-.4 1.3-.7 1.9-.3.6-.4 1.2-.6 1.9-.1.7-.1 1.1 0 1.3.3.6 1.2.6 2.8.1h.2c.1 0 .2-.1.2-.1.9-.2 1.7-.6 2.2-1.1zm-6.8-4.2c.2-.1.3-.2.3-.2 0-.1 0-.1-.1-.2-.2-.2-.4-.3-.8-.4-.3-.1-.7 0-1 0-.3.1-.8.4-1.4.9-.6.5-1.1 1-1.3 1.4-.3.4-.6.8-.8 1.2-.3.4-.4.9-.5 1.6-.1.7-.1 1.1.1 1.4.2.2.5.3 1 .3s1-.1 1.4-.2c.4-.2.8-.5 1-.9.4-.7.7-1.3.9-1.7.4-.7.6-1.1.6-1.4 0-.2.1-.3.2-.5s.2-.3.1-.5c-.1-.5 0-.7.3-.8z"/><path d="M80.3 132.2c.3-.3.6-.4.9-.3.2 0 .4.3.4.7 0 .1 0 .2-.1.3 0 .1-.1.2-.2.3-.1.1-.2.2-.2.3l-.3.3c-.1.1-.2.2-.3.2-.1.1-.2.1-.3.2-.1.1-.2.2-.3.2-.4.2-.7.4-1.1.6-.2.1-.6.3-1.2.4-.6.2-1.3.4-2.2.6-.9.2-1.8.3-2.6.3-.8-.1-1.5-.3-1.9-.7-.2-.2-.4-.4-.6-.7l-.6-.9c-.2-.3-.3-.5-.3-.7-.2-.5-.3-1.3-.3-2.2.1-2.8 1.4-5.3 3.7-7.3.5-.5.9-.7 1.2-.8.3-.1.7-.1 1.4-.1 1.3 0 2.3.3 3 .9s.9 1.3.8 2.3c-.1.5-.2.8-.3.9s-.3.2-.7.2c-.5 0-.9 0-1.3-.3-.4-.2-.6-.5-.5-.8.1-.2 0-.5-.1-.7-.2-.2-.4-.3-.7-.3-.5 0-1.3.5-2.3 1.6-1 1-1.5 1.8-1.5 2.4 0 .2-.1.5-.3.9-.2.3-.3.9-.3 1.7s.2 1.4.4 1.7c.4.5 1 .9 1.8 1.1.8.2 1.6.2 2.3.1.4-.1.8-.2 1.2-.4.8-.3 1.5-.7 2.2-1.2.5-.4.9-.5 1.1-.4h.1c-.1-.4-.1-.4 0-.4z"/><path d="M93.6 130.6c.2.1.3.4.3.8 0 .5-.2.9-.8 1.3-.2.1-.4.3-.7.4 0 0-.1 0-.2.1-.2.1-.4.2-.5.2-.5 0-.9-.2-1.3-.5-.1-.1-.2-.2-.3-.5l-.1-.1c-.1-.2-.3-.4-.4-.4-.1-.1-.3 0-.5 0-.2.1-.5.5-.8 1.1-.1.3-.2.5-.3.7-.3.4-.5.7-.7.7-.3.1-.6.3-1.1.6-.6.3-1.1.5-1.6.6-.6 0-1 .1-1.3.2h-.2c-.2 0-.3 0-.4-.1-.2-.1-.4-.3-.8-.6s-.6-.7-.8-.9c-.1-.3-.3-.7-.4-1.4-.2-1.1-.3-2-.2-2.6.1-.7.5-1.4 1-2.3.7-1.1 1.3-1.9 2-2.4.6-.5 1.4-.8 2.3-1.1.4-.1.8-.2 1.2-.5.5-.3 1-.5 1.4-.4s.8.4 1.4.9c.3.3.5.5.6.7s.2.4.2.5c0 .2.1.4.1.7 0 1.3 0 2.4.1 3.1 0 .4.1.8.3 1s.4.5.8.8h.1c.3-.2.5-.3.6-.4.4-.2.8-.3 1-.2zm-5.8-.4c.1-.3.1-.6 0-.7-.1-.2-.2-.4-.6-.7-.5-.5-.7-.9-.7-1.2 0-.2-.1-.5-.2-.7-.1-.3-.3-.5-.4-.6-.1-.1-.2-.1-.3-.1h-.2c-.2.1-.5.4-.9.8s-.8.9-1.1 1.6c-.4.6-.6 1.2-.8 1.8-.2.5-.2.9-.1 1.2.1.2.2.6.2 1.2 0 .4.1.7.2.9.1.2.2.3.3.3.2.1.4.1.8.1h.8c.1 0 .2-.1.3-.1.1-.1.2-.1.3-.2.1-.1.2-.2.4-.3.6-.5.9-.8 1-1.1s.3-.6.5-.9c.2-.4.4-.8.5-1.3zm.6-3.4c0-.6-.1-.9-.2-1l-.1.1c-.1.1-.1.4 0 .9.1.3.1.6.2.7.1-.1.1-.4.1-.7z"/><path d="M112.7 131.5c.3-.3.6-.4.9-.3.2.1.4.3.4.7 0 .1 0 .3-.1.4-.1.1-.1.3-.2.3l-.3.3c-.2.1-.3.2-.3.3-.1.1-.2.1-.4.3-.2.1-.3.2-.3.2-.5.3-.9.7-1.4 1-.6.5-1.2.8-1.8 1-.7.2-1.3.3-1.7.3s-.9-.1-1.6-.2c-.6-.2-1.1-.3-1.4-.6-.4-.2-.6-.6-.8-1s-.3-.9-.3-1.5.1-1.3.2-2c.1-.8.4-1.7.7-2.8.1-.3.1-.4-.1-.4-.4 0-1.2.7-2.4 2.2-1.2 1.4-2.1 2.8-2.7 4.1-.5.9-.8 1.4-1.1 1.6-.3.2-.6.1-1-.3-.3-.3-.5-.6-.5-.8 0-.3.2-.8.6-1.7.3-.6.5-1.1.5-1.3s.2-.6.5-1.3c.2-.8.3-1.2.2-1.2-.2 0-.5.3-1 .8s-1 1.2-1.5 1.9-.9 1.4-1.2 1.9c-.4.8-.8 1.3-1.2 1.5-.3.2-.7.2-1-.1s-.5-.7-.4-1.1c.1-.4.4-1.2.9-2.2.2-.3.3-.8.4-1.4.1-.6.3-1 .4-1.3.5-1.1 1-1.8 1.6-2.3.1-.1.3-.2.4-.3.2-.1.3-.1.5-.2s.3 0 .3.1c.1.1 0 .3 0 .6-.1.5-.1.7.2.6.2 0 .4-.2.6-.6.3-.5.8-1 1.2-1.3.2-.1.3-.2.5-.3.2-.1.2-.1.3-.1s.2-.1.3 0h.3c.1 0 .2 0 .4.1s.3.1.5.1c.4.1.6.2.6.4 0 0 .1.3.1.7 0 .2.1.3.1.4s.1.1.3.1c.1 0 .3-.1.5-.2s.5-.3.9-.5c.9-.6 1.7-.9 2.3-1h.9c.1.1.2.2.4.5.2.5.2 1.1.1 1.8s-.3 1.4-.6 2-.5 1.1-.5 1.4c0 .3-.1.7-.2 1.2-.2.5-.1.9.1 1.3s.6.6 1 .7c.3 0 .6 0 1.1-.1.1 0 .9-.3 2.2-.9l.4-.2c.3-.2.6-.3.9-.5.3-.2.6-.4 1-.6 0 .1.2-.1.3-.2z"/><path d="M125.8 131.7c.3-.3.6-.4.9-.3.2.1.4.3.4.7 0 .1 0 .3-.1.4-.1.1-.1.3-.2.3l-.3.3c-.2.1-.3.2-.3.3-.1.1-.2.1-.4.3-.2.1-.3.2-.3.2-.3.2-.7.4-1.1.6-.3.1-.8.3-1.6.4-.8.2-1.4.2-1.8.2-.4 0-.9-.1-1.5-.4-.6-.2-1.2-.5-1.7-.7s-.7-.3-.7-.2h-.5c-.1 0-.3.1-.6.2-.2.2-.5.4-.7.7-.4.5-.7 1.1-1 1.9-.3.8-.5 1.3-.6 1.5-.2.3-.3.6-.5 1s-.3.7-.5 1l-.6.9c-.2.3-.4.4-.5.5s-.3 0-.6-.1c-.4-.1-.6-.5-.8-1-.2-.6-.2-1.1-.1-1.5.1-.3.2-.6.5-1s.5-.7.6-.9.2-.6.3-1.1.2-.8.3-1c.1-.3.3-.8.6-1.3.3-.6.5-1 .6-1.3.2-.4.3-.9.3-1.6.1-.6.2-1.2.2-1.8.1-.6.3-1.1.5-1.5 0-.1.1-.1.1-.3.1-.1.1-.2.2-.3.1-.1.1-.2.2-.3.1-.1.1-.2.2-.3.1-.1.1-.2.2-.3.1-.1.2-.2.2-.3l.3-.3c.1-.1.2-.2.3-.2.1-.1.2-.1.3-.1.5-.2.9 0 1.2.3.2.4.2.7 0 1.2-.4.6-.5.9-.2.9.2-.1.6-.4 1.1-.9.6-.6 1.2-1.1 1.7-1.4s1.1-.5 1.8-.7c.7-.1 1-.2 1-.2.1 0 .1 0 .2.1s.1.2.2.4c0 .2.1.4.1.6s.1.5.1.7v.7c0 2.1-.3 3.5-.9 4.1-.4.4-.6.7-.8 1.1-.1.1-.1.2-.2.3-.1 0-.2.1-.2.1h-.2c-.1 0-.2.1-.3.2-.2.2-.4.3-.7.3-.2 0-.4.1-.8.3-.3.2-.5.3-.5.5l.2.2c.2.1.3.1.6.2.2.1.5.1.7.2.2 0 .4.1.6.1.3 0 .6 0 .9-.1.1-.1.3-.1.5-.2s.4-.1.5-.2c.2-.1.3-.1.4-.2 1.2-.8 2.1-1.4 2.8-1.9zm-8.6-.1c.2.3.4.4.6.4.3 0 .9-.3 1.6-.9.7-.6 1.2-1.1 1.4-1.6s.3-1 .3-1.6-.1-1-.2-1.4c-.2-.3-.4-.4-.5-.4-.2.1-.6.4-1.2 1-.6.5-1.1 1.2-1.6 1.9-.5.8-.7 1.4-.7 1.7 0 .3.1.6.3.9z"/><path d="M139.6 132.2c.3-.2.5-.3.7-.3s.3.2.3.6v.2c0 .1-.1.2-.1.2 0 .1-.1.1-.2.2l-.2.2-.2.2c-.1.1-.2.1-.2.2-.1 0-.1.1-.2.1-.1.1-.2.1-.2.1-.3.2-.6.4-.9.5 0 0-.2.1-.5.3l-.1.1c-.4.4-1 .6-1.8.7-.5.1-.9.1-1.1 0-.3-.1-.6-.2-1.1-.4-.7-.3-1.2-.6-1.4-.8-.2-.1-.3-.2-.4-.2-.1 0-.3.1-.6.4-.9.7-2 1-3.3 1.1s-2.1-.2-2.5-.8c-.2-.4-.3-1.1-.3-2.2s.2-1.9.4-2.3c.2-.4.4-.7.5-.9s.3-.4.4-.5c.1-.2.3-.4.6-.8.9-1.2 1.7-2 2.2-2.4.4-.3.9-.6 1.5-.8.6-.2 1.2-.4 1.8-.5s1.2 0 1.7.2c.6.3.9.8 1.1 1.5.1.7.1 1.4 0 2.1-.2.7-.4 1.3-.7 1.9-.3.6-.4 1.2-.6 1.9-.1.7-.1 1.1 0 1.3.3.6 1.2.6 2.8.1h.2c.1 0 .2-.1.2-.1.9-.2 1.7-.6 2.2-1.1zm-6.8-4.2c.2-.1.3-.2.3-.2 0-.1 0-.1-.1-.2-.2-.2-.4-.3-.8-.4-.3-.1-.7 0-1 0-.3.1-.8.4-1.4.9-.6.5-1.1 1-1.3 1.4-.3.4-.6.8-.8 1.2-.3.4-.4.9-.5 1.6s-.1 1.1.1 1.4c.2.2.5.3 1 .3s1-.1 1.4-.2c.4-.2.8-.5 1-.9.4-.7.7-1.3.9-1.7.4-.7.6-1.1.6-1.4 0-.2.1-.3.2-.5s.2-.3.1-.5c-.1-.5 0-.7.3-.8z"/><path d="M156.8 130.7c.2 0 .3.2.3.7 0 .2-.1.4-.2.6-.2.2-.4.5-.6.7-.3.2-.6.5-.9.7-.4.3-.7.5-1.1.6-.8.4-1.5.7-2.1 1-.8.3-1.4.4-2 .3-.6-.2-1.3-.6-2-1.4-.6-.6-1-1.1-1.1-1.3s-.2-.7-.2-1.4c0-.9.2-1.9.5-3s.4-1.6.4-1.7c-.1-.1-.7.4-1.8 1.4-1.1 1.1-2.2 2.2-3.3 3.4s-1.6 1.9-1.6 2.1c0 .2-.1.3-.3.5s-.4.3-.7.4c-.3.1-.5.1-.7.1-.3 0-.6-.3-.7-.8-.1-.3-.1-.6-.1-.9.1-.3.3-.7.8-1.4.3-.4.7-1.3 1.4-2.8s1.3-2.5 1.8-3.1c.1-.1.2-.2.2-.3.2-.2.4-.3.8-.4.3-.1.6-.1.8 0 .1.1.2.2.2.5s.1.4.2.4.4-.1.7-.4c.7-.5 1.8-.9 3.3-1.2.6-.2 1-.2 1.2-.2s.4.2.7.4c.4.3.5.7.6 1.3 0 .5-.2 1-.5 1.4s-.6 1.1-1 2.3c-.4 1.1-.6 1.9-.6 2.3 0 .3.1.6.3 1s.4.7.7.9.5.3.8.3c.4 0 1.1-.3 2.3-.9 1.2-.6 2.1-1.2 2.8-1.7.2-.3.5-.4.7-.4zm-11.1-8.7s-.3.1-.7.1v-.3-.3c0-.1 0-.1.1-.2l.6-.6c.3-.3.5-.6.8-.7.3-.2.6-.2.9-.2.6.2 1 .4 1 .4.2.1.5.3 1 .7.5.3.9.3 1.3-.1 0 0 0-.1.1-.1 0-.1.1-.1.1-.1l.1-.1c.1 0 .4-.1.9-.1v.6c0 .1 0 .2-.1.2-.4.8-.8 1.2-1.1 1.3-.3.1-.9 0-1.7-.3-.2-.1-.5-.3-.9-.6s-.8-.4-1-.4-.5.2-.9.5c0 0-.1 0-.1.1s-.4.2-.4.2z"/><path d="M170.1 132.2c.3-.2.5-.3.7-.3s.3.2.3.6v.2l-.1.2c0 .1-.1.1-.2.2l-.2.2-.2.2c-.1.1-.2.1-.2.2-.1 0-.1.1-.2.1-.1.1-.2.1-.2.1-.3.2-.6.4-.9.5 0 0-.2.1-.5.3l-.1.1c-.4.4-1 .6-1.8.7-.5.1-.9.1-1.1 0-.3-.1-.6-.2-1.1-.4-.7-.3-1.2-.6-1.4-.8-.2-.1-.3-.2-.4-.2-.1 0-.3.1-.6.4-.9.7-2 1-3.3 1.1s-2.1-.2-2.5-.8c-.2-.4-.3-1.1-.3-2.2s.2-1.9.4-2.3c.2-.4.4-.7.5-.9s.3-.4.4-.5c.1-.2.3-.4.6-.8.9-1.2 1.7-2 2.2-2.4.4-.3.9-.6 1.5-.8.6-.2 1.2-.4 1.8-.5s1.2 0 1.7.2c.6.3.9.8 1.1 1.5.1.7.1 1.4 0 2.1s-.4 1.3-.7 1.9c-.3.6-.4 1.2-.6 1.9-.1.7-.1 1.1 0 1.3.3.6 1.2.6 2.8.1h.2c.1 0 .2-.1.2-.1.9-.2 1.7-.6 2.2-1.1zm-6.8-4.2c.2-.1.3-.2.3-.2 0-.1 0-.1-.1-.2-.2-.2-.4-.3-.8-.4-.3-.1-.7 0-1 0-.3.1-.8.4-1.4.9-.6.5-1.1 1-1.3 1.4-.3.4-.6.8-.8 1.2-.3.4-.4.9-.5 1.6-.1.7-.1 1.1.1 1.4.2.2.5.3 1 .3s1-.1 1.4-.2c.4-.2.8-.5 1-.9.4-.7.7-1.3.9-1.7.4-.7.6-1.1.6-1.4 0-.2.1-.3.2-.5s.2-.3.1-.5c-.1-.5 0-.7.3-.8z"/><path d="M189.8 131.5c.3-.3.6-.4.9-.3.2.1.4.3.4.7 0 .1 0 .3-.1.4-.1.1-.1.3-.2.3l-.3.3c-.2.1-.3.2-.3.3-.1.1-.2.1-.4.3-.2.1-.3.2-.3.2-.5.3-.9.7-1.4 1-.6.5-1.2.8-1.8 1-.7.2-1.3.3-1.7.3s-.9-.1-1.6-.2c-.6-.2-1.1-.3-1.4-.6-.4-.2-.6-.6-.8-1s-.3-.9-.3-1.5.1-1.3.2-2c.1-.8.4-1.7.7-2.8.1-.3.1-.4-.1-.4-.4 0-1.2.7-2.4 2.2-1.2 1.4-2.1 2.8-2.7 4.1-.5.9-.8 1.4-1.1 1.6-.3.2-.6.1-1-.3-.3-.3-.5-.6-.5-.8 0-.3.2-.8.6-1.7.3-.6.5-1.1.5-1.3s.2-.6.5-1.3c.2-.8.3-1.2.2-1.2-.2 0-.5.3-1 .8s-1 1.2-1.5 1.9-.9 1.4-1.2 1.9c-.4.8-.8 1.3-1.2 1.5-.3.2-.7.2-1-.1s-.5-.7-.4-1.1c.1-.4.4-1.2.9-2.2.2-.3.3-.8.4-1.4.1-.6.3-1 .4-1.3.5-1.1 1-1.8 1.6-2.3.1-.1.3-.2.4-.3.2-.1.3-.1.5-.2s.3 0 .3.1c.1.1 0 .3 0 .6-.1.5-.1.7.2.6.2 0 .4-.2.6-.6.3-.5.8-1 1.2-1.3.2-.1.3-.2.5-.3.2-.1.2-.1.3-.1s.2-.1.3 0h.3c.1 0 .2 0 .4.1s.3.1.5.1c.4.1.6.2.6.4 0 0 .1.3.1.7 0 .2.1.3.1.4s.1.1.3.1c.1 0 .3-.1.5-.2s.5-.3.9-.5c.9-.6 1.7-.9 2.3-1h.9c.1 0 .2.2.4.5.2.5.2 1.1.1 1.8s-.3 1.4-.6 2-.5 1.1-.5 1.4c0 .3-.1.7-.2 1.2-.2.5-.1.9.1 1.3s.6.6 1 .7c.3 0 .6 0 1.1-.1.1 0 .9-.3 2.2-.9l.4-.2c.3-.2.6-.3.9-.5.3-.2.6-.4 1-.6 0 .1.2-.1.3-.2z"/><path d="M199.2 132.1c.1.2.1.4 0 .5-.1.2-.4.4-.8.8-.7.6-1.5 1.2-2.5 1.6-.7.4-1.5.5-2.2.4-.8-.1-1.5-.3-2.2-.7s-1.3-.9-1.8-1.5c-.7-.8-.9-2-.6-3.4 0-.1.1-.5.2-1.1s.2-1.2.3-1.6c.1-.5.2-.8.3-.9.1-.2.4-.3.7-.3.3-.1.6-.1 1 0l.9.3c.3.1.5.3.6.6.1.2.1.5 0 .8-.3.7-.5 1.2-.5 1.5 0 .3-.2.6-.5 1-.3.3-.4.7-.5 1.1-.1.4 0 .7.2.8s.2.2.2.6c0 .3.2.6.6.9.3.3.5.4.6.4.2 0 .4 0 .9-.1.6-.2 1.4-.7 2.4-1.4.8-.6 1.4-.9 1.7-.9.5.1.8.2 1 .6zm-4-10.8c-.4.1-.8 0-1.2-.5-.3-.3-.4-.5-.5-.6 0-.1.1-.2.3-.4.3-.2.7-.3 1.2-.3s.8.1 1 .3c.2.3.2.5 0 .8-.1.4-.4.6-.8.7z"/><path d="M208 132.4c.3-.3.6-.4.9-.3.2.1.4.3.4.7 0 .1 0 .3-.1.4-.1.1-.1.3-.2.3l-.3.3c-.1.1-.3.2-.3.3-.1.1-.2.1-.4.3-.2.1-.3.2-.3.2-.4.2-.7.4-1.1.6 0 0-.1 0-.1.1-.1 0-.1 0-.2.1-.1 0-.1 0-.2.1-.1 0-.1 0-.1.1h-.1c-.9.4-1.9.6-3 .7-1.1.1-1.9 0-2.4-.3-.1 0-.3-.1-.7-.3s-.7-.3-.9-.5c-.3-.2-.7-.7-1-1.5-.6-1.4-.9-2.5-.9-3.6 0-.6.1-1.5.3-2.5 0-.1 0-.2.1-.4 0-.2.1-.3.1-.4s.1-.2.1-.4.1-.3.1-.4.1-.2.2-.4c.1-.1.1-.2.2-.3.3-.4.6-.8.8-.9.8-.8 1.8-1.2 3.1-1.1s2 .5 2.1 1.3c.1.6.1 1.2-.1 1.8-.2.6-.4 1.1-.6 1.5s-.6.9-1 1.6c-.4.6-.7 1.1-.9 1.5-.7 1.2-1 2-1 2.2s.2.5.6.8c.2.2.5.4.6.4.2 0 .5 0 1-.1.8-.1 1.6-.3 2.5-.6.3-.1.8-.3 1.5-.6s1.1-.5 1.3-.7zm-8.8-1.6c.1 0 .5-.6 1.1-1.8s.9-1.9.9-2.1c0-.3-.2-.5-.5-.6s-.6 0-.7.2c-.2.2-.3.5-.5.8-.2.4-.3.7-.4 1.1-.1.4-.1.7-.2 1.1-.1.3-.1.6 0 .9.1.3.2.4.3.4z"/><path d="M206.6 131.9c.2-.4.7-1.3 1.4-2.8s1.3-2.5 1.8-3.1c.1-.1.2-.2.2-.3.2-.2.4-.3.7-.4s.6-.1.9 0c.1.1.2.2.2.5s.1.4.2.4.4-.1.8-.4c.7-.5 1.8-.9 3.3-1.2.6-.2 1-.2 1.2-.2s.4.2.7.4c.3.3.5.8.5 1.3s-.2 1-.5 1.4-.6 1.1-1 2.2-.6 1.9-.6 2.3c0 .3.1.6.3 1s.5.6.7.9c.3.2.6.3.8.3.4 0 1.1-.3 2.3-.9 1.2-.6 2.1-1.2 2.7-1.7.5-.4.8-.6 1.1-.5.2 0 .3.2.3.7 0 .2-.1.4-.2.6-.2.2-.4.5-.6.7-.3.2-.6.5-.9.7-.4.2-.7.4-1.1.6-1 .5-1.7.8-2.1 1-.8.3-1.4.4-2 .3-.6-.2-1.3-.6-2-1.4-.6-.6-1-1.1-1.1-1.3s-.2-.7-.2-1.3c0-1 .2-2 .5-3s.4-1.6.4-1.7c-.1-.1-.7.4-1.8 1.5s-2.2 2.2-3.3 3.4-1.6 1.9-1.6 2c0 .2-.1.3-.3.5s-.4.3-.7.4c-.3.1-.5.1-.7.1-.3 0-.6-.3-.7-.8-.1-.3-.1-.6 0-.9-.3-.2 0-.7.4-1.3z"/><path d="M234.8 132.2c.3-.2.6-.3.9-.2.2.1.3.3.3.8 0 .1 0 .2-.1.3s-.1.2-.2.3c-.1.1-.2.2-.3.2-.1.1-.2.2-.3.2-.1.1-.2.1-.3.2-.1 0-.2.1-.3.2-.1.1-.2.1-.3.2-.4.2-.8.4-1.2.5l-.6.3c-.4.2-.8.5-1.2.7-.5.3-.8.4-1.1.5l-1.2.3c-.4.1-.9.1-1.3.1-.5 0-.9 0-1.3-.1s-.8-.3-1.1-.5c-.3-.3-.6-.7-.8-1.3-.2-.5-.4-1.1-.4-1.8-.1-.6-.1-1.2-.1-1.8s0-1.1.1-1.6c0-.1.1-.7.3-1.9.2-1.2.3-2.4.5-3.6l.2-1.7c-.2-.1-.5-.2-1-.2h-.9c-.7 0-1.3 0-1.6-.1h-1.2c-.1 0-.1-.1-.1-.1 0-.2.1-.4.3-.5 0 0 .1-.1.3-.2l.6-.3c.2-.1.5-.2.8-.3.3-.1.7-.1 1.1-.1 1.1.1 1.8.1 2.1.1s.6-.2.8-.5c.4-.4.9-1.4 1.6-3 0-.1.1-.2.1-.3.3-.6.5-1.1.6-1.4.2-.3.4-.8.7-1.3s.6-1 1-1.3c.4-.4.7-.6 1.1-.8 1.3-.6 1.9-.6 1.9.1 0 .4-.3 1.3-.9 2.6-.2.4-.3.7-.4.9-.1.3-.2.6-.2 1-.1.4-.2.8-.4 1.1-.4.6-.7 1.2-.9 1.6-.3.5-.4.8-.3.9.1.1.8.3 2.3.4 1 .1 1.6.2 1.8.3.2.1.3.2.3.4 0 .3-.2.4-.5.4h-.7c-.4 0-.8 0-1.2.1-.5 0-.9.1-1.4.1-.5.1-.9.1-1.2.1-.2 0-.4.5-.7 1.4s-.6 2.1-.9 3.4c-.3 1.3-.6 2.2-.7 2.7-.8 2.3-.7 3.9.3 4.7.4.4.8.6 1.2.6.2 0 .5-.1.7-.2 0-.1.2-.2.5-.3s.5-.2.8-.3l.9-.3c.3-.1.4-.2.5-.2 1-.5 2-1 2.7-1.5z"/><path d="M247.7 130.6c.2.1.3.4.3.8 0 .5-.2.9-.8 1.3-.2.1-.4.3-.7.4 0 0-.1 0-.2.1-.2.1-.4.2-.5.2-.5 0-.9-.2-1.3-.5-.1-.1-.2-.2-.3-.5l-.1-.1c-.1-.2-.3-.4-.4-.4-.1-.1-.3 0-.5 0-.2.1-.5.5-.8 1.1-.1.3-.2.5-.3.7-.3.4-.5.7-.7.7-.3.1-.6.3-1.1.6-.6.3-1.1.5-1.6.6-.6 0-1 .1-1.3.2h-.2c-.2 0-.3 0-.4-.1-.2-.1-.4-.3-.8-.6s-.6-.7-.8-.9c-.1-.3-.3-.7-.4-1.4-.2-1.1-.3-2-.2-2.6.1-.7.5-1.4 1-2.3.7-1.1 1.3-1.9 2-2.4.6-.5 1.4-.8 2.3-1.1.4-.1.8-.2 1.2-.5.5-.3 1-.5 1.4-.4s.8.4 1.4.9c.3.3.5.5.6.7s.2.4.2.5c0 .2.1.4.1.7 0 1.3 0 2.4.1 3.1 0 .4.1.8.3 1s.4.5.8.8h.1c.3-.2.5-.3.6-.4.4-.2.7-.3 1-.2zm-5.9-.4c.1-.3.1-.6 0-.7-.1-.2-.2-.4-.6-.7-.5-.5-.7-.9-.7-1.2 0-.2-.1-.5-.2-.7-.1-.3-.3-.5-.4-.6-.1-.1-.2-.1-.3-.1h-.2c-.2.1-.5.4-.9.8s-.8.9-1.1 1.6c-.4.6-.6 1.2-.8 1.8-.2.5-.2.9-.1 1.2.1.2.2.6.2 1.2 0 .4.1.7.2.9.1.2.2.3.3.3.2.1.4.1.8.1h.8c.1 0 .2-.1.3-.1.1-.1.2-.1.3-.2.1-.1.2-.2.4-.3.6-.5.9-.8 1-1.1s.3-.6.5-.9c.3-.4.5-.8.5-1.3zm.7-3.4c0-.6-.1-.9-.2-1l-.1.1c-.1.1-.1.4 0 .9.1.3.1.6.2.7.1-.1.1-.4.1-.7z"/><path d="M258.4 130.7c.3-.3.6-.4.9-.3.2.1.4.3.4.7v.3c0 .1-.1.2-.1.3-.1.1-.1.2-.2.3l-.2.2c-.1.1-.2.1-.3.2-.1.1-.2.1-.3.2-.1.1-.2.1-.3.2-.1.1-.2.1-.2.2-.4.2-.7.4-1.1.6 0 0-.1.1-.2.1-.4.4-.8.7-1.1.9-.3.1-.7.2-1.2.2-.5.2-.9.1-1.1 0h-.5c-.3 0-.5 0-.6-.1h-.5c-.2 0-.4 0-.6.1-.2 0-.3.1-.5.2s-.4.2-.7.2-.8-.1-1.6-.2c-.5-.1-1-.1-1.3-.2h-.5c-.1 0-.2 0-.2-.1-.2-.1-.4-.5-.6-1.2-.1-.4-.2-.8-.2-1.3v-.4c.1-.4.2-.6.4-.7.1 0 .2-.1.3-.1.2 0 .3-.1.4-.2.1-.1.2-.3.3-.5.1-.3.1-.5.2-.8 0-.2 0-.4.1-.5l.3-.3c.2-.1.3-.2.3-.2.2-.2.3-.4.5-.6.1-.1.2-.6.4-1.3.2-.6.3-1.1.4-1.7.1-.6.2-1.1.2-1.5.1-.9.2-1.5.3-1.6.1-.2.4-.2.7-.2.4 0 .7.1.9.3.1.1.2.2.3.4.1.2.2.3.2.5 0 .1.1.3.2.6.1.2.1.4.1.5.3.8.5 1.6.6 2.3 0 .3.1.7.2 1.2s.1 1 .2 1.4l.3 1.2c.2.7.3 1.3.2 1.8 0 .3-.1.6-.1.9 0 .3.1.5.3.7s.5.3.9.2c.2 0 .3-.1.5-.1.2-.1.3-.1.4-.2.1-.1.3-.2.4-.3.2-.1.3-.2.3-.3.1-.1.2-.2.4-.3.2-.2.6-.5 1-.8.4-.7.6-.8.7-.9zm-7.1.5c.1-.5 0-1.4-.4-2.5s-.6-1.6-.7-1.6c-.1 0-.2.2-.3.6-.1.4-.2.7-.3.9-.2.3-.5.8-.9 1.6s-.6 1.3-.5 1.4c.1.1.2.2.5.3.2.1.5.2.7.3.3.1.5.1.7 0 .7-.1 1.1-.4 1.2-1z"/></g></svg>