<?xml version="1.0" encoding="utf-8"?>
<!-- Generator: Adobe Illustrator 25.2.3, SVG Export Plug-In . SVG Version: 6.00 Build 0)  -->
<svg version="1.1" id="Capa_1" xmlns="http://www.w3.org/2000/svg" xmlns:xlink="http://www.w3.org/1999/xlink" x="0px" y="0px"
	 viewBox="0 0 929.2 356.9" style="enable-background:new 0 0 929.2 356.9;" xml:space="preserve">
<style type="text/css">
	.st0{display:none;}
	.st1{fill:#E95948;}
	.st2{fill:#EA5B49;}
	.st3{fill:#E95947;}
	.st4{fill:#E95846;}
	.st5{fill:#E95847;}
	.st6{fill:#EA5D4C;}
	.st7{fill:#EA5C4B;}
	.st8{fill:#EA5E4D;}
	.st9{fill:#EA5F4D;}
	.st10{fill:#EA5C4A;}
	.st11{fill:#EA604F;}
	.st12{fill:#EB6453;}
	.st13{fill:#EC7161;}
	.st14{fill:#EC6D5E;}
	.st15{fill:#EA6150;}
	.st16{fill:#EA604E;}
	.st17{fill:#EA5F4E;}
	.st18{fill:#EB6353;}
	.st19{fill:#EC6F60;}
	.st20{fill:#EC7061;}
	.st21{fill:#EC6B5C;}
	.st22{fill:#EB6352;}
	.st23{fill:#ED7668;}
	.st24{fill:#EE7B6C;}
	.st25{fill:#EE8072;}
	.st26{fill:#ED786A;}
	.st27{fill:#EB6252;}
	.st28{fill:#EB6757;}
	.st29{fill:#ED7364;}
	.st30{fill:#ED7566;}
	.st31{fill:#EE8073;}
	.st32{fill:#EB6959;}
	.st33{fill:#ED796B;}
	.st34{fill:#ED7769;}
	.st35{fill:#F19387;}
	.st36{fill:#EB6656;}
	.st37{fill:#EC6B5B;}
	.st38{fill:#EC6D5D;}
	.st39{fill:#EC7060;}
	.st40{fill:#EB6555;}
	.st41{fill:#EF897C;}
	.st42{fill:#F2A197;}
	.st43{fill:#F29B90;}
	.st44{fill:#EF8375;}
	.st45{fill:#F6BFB8;}
	.st46{fill:#F1978C;}
	.st47{fill:#F08E82;}
	.st48{fill:#F5B2AA;}
	.st49{fill:#EB6958;}
	.st50{fill:#EA5B4A;}
	.st51{fill:#EF877A;}
</style>
<g id="Capa_2_1_" class="st0">
</g>
<g>
	<path class="st1" d="M159.6,117.6c0.8-1.6,2-2.8,3.3-4c-1.1-0.6-2-1.4-3.1-1.6c-1.2-0.2-1.2-1.2-1.5-1.8c-0.6-1.4-0.7-2.9,0-4.2
		c0.5-0.9,0.5-1.4-0.2-2c-0.7-0.6-1-1.2-0.8-2c0-0.1,0-0.1,0-0.2c0-1.2-0.1-2.4,0.2-3.4c0.3-1,1.1-1.9,1.8-2.8
		c0.4-0.5,0.9-0.7,1.4-1c1.3-0.7,1.5-1,1.2-2.2c-0.1-0.4-0.1-0.5,0-0.9c0.3-1.5,1.3-2.6,2.1-3.8c0.6-0.8,1.5-1.2,2.5-1.2
		c1,0.1,2-0.4,2.9,0.4c0.1,0.1,0.8-0.4,1.2-0.4s0.8,0.3,1.2,0.4c0.2,0,0.5-0.1,0.6-0.3c0.6-1,1.8-0.9,2.5-0.6
		c0.8,0.4,1.5,0.4,2.2,0.4c2.6,0,4.4,1.2,5.5,3.5c0.5,1,1.2,1.8,1.1,3.1c-0.2,1.5,0,1.3,1.1,2c0.7,0.4,1.5,0.4,2.2,1
		c0.9,0.8,1.5,1.5,1.4,2.7c0,0.3,0,0.6,0,0.9c-0.1,0.5-0.5,1-0.5,1.4c0,1.4-0.8,0.9-1.8,0.9c0.5-0.7,0.9-1.2,1.2-1.6
		c-0.5-1.2-1.8-1.1-2.7-1.7c-1-0.6-2.1-0.5-3.1-0.9c-0.1,0-0.5,0.2-0.6,0.4c-0.1,0.3-0.5,0.6-0.4,0.2c0.1-0.9-1-0.5-1-1
		c0-0.6-0.2-1.4,0.1-1.8c0.6-0.8,0.3-1.7,0.4-2.4c0-1.6-0.7-2.4-2.2-3c-1.1-0.5-2.2-0.5-3.4-0.4c0,0.6,0,1.3,0,1.9
		c0.1,0.7-0.3,1.2-0.7,1.3c-0.5,0.1-1.2,0.3-1.8-0.3c-0.2-0.2-0.5-0.4-0.6-0.7c-1-2.1-3-2-4.5-2.3c-2.4,2.7-0.8,5.3-0.4,8
		c-1,0-2,0-3,0c-1.9,0-3.1,2.1-2.3,3.9c0.4,0.8,0.8,1.3,1.6,1.8c0.7,0.5,1.4,1.2,2.2,1.9c-0.6,0.3-1,0.6-1.3,0.7
		c-0.4,0.2-0.8,0.4-1.2,0.7c-1.1,0.7-1,2.2,0.2,2.8c0.8,0.4,1.6,0.7,2.4,0.9c0.3,0.1,0.9-0.1,1-0.3c0.3-0.9,1-1.1,1.8-1.3
		c0.6-0.1,0.8-0.7,1.2-1.1c1.1-1,2.4-1.6,3.9-2c1.1-0.3,2.1-0.5,3.2-0.9c1.4-0.6,2.9-1.1,4.5-1c1.2,0,2.5,0,3.8,0c1,0,2-0.2,2.8,0.5
		c0.7,0.6,1.6,0.5,2.4,0.5c1.2-0.1,2,0.4,2.8,1.2c0.8,0.8,1.6,1.6,2.8,1.7c0.4,0,0.8,0.5,1.1,0.8c0.4,0.6,1,1,1.5,1.5
		c0.5,0.5,0.4,1.6,1.5,1.5c0,0,0.2,0.1,0.2,0.1c-0.4,1.4,1.2,1.8,1.6,2.9c0.8,2.3,1.4,4.5,1.4,7c0,0.5,0.4,1,0.4,1.4
		c0,0.3-0.4,0.5,0,1.1c0.4,0.6,0.1,1.5-0.4,2.1c0,0.7,0,1.5,0,2.2c0.6,0.1,1.2,0.1,1.3,0.4c0.3,0.6,0.1,1.2-0.5,1.6
		c-0.5,0.3-0.9,0.7-1.3,1c0,0.2,0.1,0.5,0,0.7c-0.6,1-1.2,1.9-1.9,2.9c0.9,0.2,1.7,0.5,2.4,0.6c0,0.9,0.1,1.7-0.7,2.4
		c-0.7,0.6-1.4,0.3-2.1,0.4c-0.4,0.1-0.8,0.1-1,0.4c-0.7,0.9-1.5,1.8-1.8,3c-0.5,1.7-3.3,4.8-5,5.5c-1.1,0.5-1.8,1.3-2.8,1.9
		c-1.6,1.1-3.3,1.9-4.9,2.9c-0.7-0.2-1.5-0.4-2.2-0.6c-0.1,0-0.1-0.5-0.1-0.8c0.1-0.5-0.2-1.1,0.3-1.5c0.6-0.6,1.1-1.2,1.8-1.8
		c0.9-0.8,1.7-0.9,2.7-0.9c0.2,0,0.4-0.2,0.6-0.4c1.7-1.1,3.5-2.1,4.6-3.9c0.8-1.3,2.1-2.4,2.6-3.9c0.6-1.5,1.4-2.9,2.2-4.3
		c2.1-4,2.3-3.9,2.3-8c0-0.7,0.5-1.6,0.3-2.1c-0.5-0.9-0.1-1.7-0.3-2.5c-0.2-1.1-0.3-2.2-0.5-3.3c0-0.3-0.5-0.5-0.4-0.7
		c0.1-1.3-1-2-1.4-3c-0.8-1.7-1.1-2-2.6-2.9c-0.6-0.4-1.2-0.9-1.8-1.3c-0.7-0.5-1.4-1.3-2.2-1.4c-2.2-0.4-4.3-1.3-6.6-1
		c-0.8,0.1-1.7,0-2.6,0c-0.4,0-0.7,0.1-1.1,0.2c-1.2,0.4-2.4,1-3.7,1.2c-2.8,0.3-4.7,1.9-6.4,3.8c-0.4,0.4-0.7,0.8-1.2,1.2
		c-2.3,2.2-4.5,4.6-6.7,6.8c-0.2,0-0.5,0-0.7,0c0-0.2,0-0.4,0-0.5c0.5-0.6,0.3-1.2-0.2-1.6C159.7,118.5,159.5,118.1,159.6,117.6z"/>
	<path class="st2" d="M239.7,120.9c0.2,0.8,0.8,0.5,1.3,0.4c1.3-0.5,2.6-0.9,3.9-1.5c2.3-1,4.8-1.7,7.1-2.8c1.2-0.6,2.6-0.9,4-1.2
		c1.3-0.4,2.6-1.2,4.1-1c0.7,0.1,1-0.7,0.7-1.4c-0.3-0.7-0.8-1.2-0.7-2.1c0-0.4-0.3-0.8-0.6-1.1c-0.8-0.8-1.3-1.7-1.2-2.8
		c0-0.1,0-0.1,0-0.2c-0.2-0.8-0.8-1.6-0.4-2.4s1.2-1.2,1.8-1.9c0.3-0.3,0.5-0.7,0.7-1.1c0.6-1.1,0.5-1.5-0.5-2
		c-1.2-0.6-2.4-1.2-3.5-1.8c-1.2-0.7-2-1.9-3-2.9c-0.5-0.5-0.9-1.1-1.8-0.9c-1.2,0.2-1.2-1-1.6-1.6c-0.4-0.6,0-1.2,0.5-1.6
		c0.4-0.3,0.8-0.7,1.2-1c1.8-1.2,1.9-1.1,2.9-3c0.6-1,0.5-1.2-0.5-1.7c-0.7-0.4-1.4-0.7-2.2-0.9c-0.3-0.1-0.7,0-1.1,0.2
		c-0.9,0.4-1.8,0.9-2.8,1.3c-1.4,0.7-2.5,1.6-1.9,3.3c-0.2,0.2-0.3,0.3-0.4,0.4c-2.2,0.8-1.8,0.7-3-1.2c-0.6-0.9-1.3-4.2-1.3-5.1
		c0-1.2,0-2.4,0-3.6c-0.9-1.2-0.9-1.2-0.9-2.9c0-0.3,0-0.6,0-0.9c0.7-0.7,1.9-0.8,2.4-1.9c0.6,0.4,1.3,0.7,1.8,1.2
		c0.2,0.2-0.3,0.9-0.4,1.4c-0.1,0.6-0.2,1.2,0,1.6c0.6,1,0.4,2.1,0.4,3.1c0,0.5,0,1.1,0,1.6c1,0,1.6,0,2.3-0.6
		c1.6-1.3,3.6-1.5,5.6-1.7c0.7-0.1,1.8,0.1,2.3,0.6c1.3,1.1,2.6,2.3,4.1,3.1c0.2,0.1,0.3,0.6,0.2,0.8c-0.7,1.2-0.3,2.5-0.5,3.8
		c-0.4,0-0.7-0.6-1.1,0c-0.6,1.1-1.3,2.1-2,3.2c1.7,2.3,4.3,3.4,6.8,4.8c0.2-0.7,0.6-1.4,0.6-2.1c0.4-2.5-0.6-4.9-0.5-7.3
		c0-0.2-0.3-0.4-0.3-0.6c-0.2-0.7-0.5-1.3-0.6-2.1c-0.3-1.5-0.8-3-2.2-4c-0.8-0.6-1.6-1.2-2.4-1.8c-0.3-0.2-0.8-0.3-0.9-0.6
		c-0.6-1.5-2-2.2-3-3.2c0.3-0.7,1.3-1.2,1.1-2.2c0,0,0.2-0.1,0.4-0.1c1.7,0.1,2.7,0.8,3.8,2.1c0.8,1,1.8,2.1,2.9,2.8
		c0.6,0.4,0.8,1,1.2,1.4c1.8,1.2,2.4,3.2,3.1,5c0.1,0.2,0.3,0.4,0.2,0.6c-0.3,2.4,0.6,4.7,0.5,7.1c0,0.8-0.2,1.6,0.3,2.4
		c0.3,0.5-0.3,1.4-0.3,2.1c-0.1,0.7-0.2,1.2-0.6,1.9c-0.8,1.2-1.2,2.6-1.8,4c-0.6,1.3-1.1,2.7-1.6,4c-0.1,0.3-0.4,0.5-0.6,0.7
		c0.9,1.8,1.9,3.6,2.3,5.5c0.1,0.6,0.3,1.6,1.4,1.3c-0.1,0.1-0.2,0.5-0.4,0.5c-0.6,0-1.2,0-1.8,0c-0.9,0.1-1.4,1-1,1.8
		c0.2,0.5,0.4,1.6,0.3,2c-0.7,0.7-1.9,0.1-2.7,0.9c-1.5-0.2-2.6,1-4.1,0.9c-0.6,1-1.8,0.1-2.5,0.9c-0.6,0.6-1.8,0.3-2.6,0.6
		c-1.6,0.5-3.1,1.2-4.7,1.8c-1,0.4-2,1-3,1.2c-1.5,0.3-2.6,1.7-4.3,1.6c-1.1,1.1-2.5,1.9-3.8,2.8c-1.6,1.1-3.3,2-4.7,3.3
		c-0.3,0.3-0.8,0.4-1.1,0.7c-1.2,1.3-2.8,2.3-4.3,3.2c-0.6,0.4-1.3,1-1.9,1.6c-0.8,0.7-1.2,2.1-2.6,2.1c-0.9,1.2-1.8,2.2-2.5,3.4
		c-0.3,0.5-0.6,0.3-1,0.4c-0.5,0.2-1.2-0.5-1.5,0.6c-0.2,0.6-1.2,1.1-1.8,0.8c-0.9-0.4-1.9-1-1.9-2.3c0.3-0.8,1.5-0.6,1.7-1.1
		c0.3-0.7,1-1.2,1.4-1.8c0.9-1.8,2.7-2.5,4.1-3.6c1.3-0.9,2.6-1.8,3.7-2.9c1.1-1,2.5-1.6,3.6-2.5c1-0.8,1.9-1.9,2.8-2.9
		c0.1-0.1,2.5-1.7,2.7-1.8c0.2-0.1,0.5-0.1,0.6-0.2c1.2-1.5,3.1-1.8,4.7-2.8c0-0.4,0-0.8,0-1.2c0-0.3,0.1-0.6,0.1-0.8
		C238,121.9,238.8,120.8,239.7,120.9z"/>
	<path class="st3" d="M233.1,176c0.5,0.1,0.9,0.3,1.4,0.5c0,0.6,0,1.2,0,1.9c-0.6,0-1,0-1.4,0c-0.4,0-1,0.2-1.2,0
		c-0.6-0.7-1.1-0.1-1.2,0.3c-0.3,0.8-0.6,1.5-1.2,2.1c-0.1,0.1-0.3,0.2-0.2,0.4c0.3,3.1-1.8,5.2-2.9,7.8c-0.3,0.7-1,1.4-0.8,1.9
		c0.1,0.7-0.6,1.1-0.3,1.8c0.2,0.6-0.4,1.6-0.7,2.4c-0.6,1.5-1.4,3-2.1,4.6c-0.6,1.4-1.2,2.8-1.7,4.2c-0.3,1-1.2,1.8-1.3,2.7
		c-0.1,1-0.7,1.8-1.1,2.6c-0.2,0.7-1,1.2-1.3,1.8c-0.6,1-1.2,2.1-1.4,3.2c-0.1,0.8-0.3,1-1.1,1c-0.5,0-1.2,0.8-1.6,0.3
		c-0.5-0.6-1-1.4-1.1-2.1c-0.3-2.8-0.2-5.7-0.6-8.5c-0.2-1.7-0.4-3.4-0.8-5.1c-0.4-1.6-0.5-3.4-1-5c0.7-0.6-0.1-1.3,0-2
		c0.1-0.7,0.1-1.4,0-2.1c-0.1-1.2-0.3-2.5-0.6-3.7c-0.5-1.8-0.8-3.7-1.2-5.6c-0.1-0.4-0.2-0.8-0.4-1.2c-0.3-1-1-2.1-1-3.1
		c0-1.6-0.7-2.8-1.5-4.1c-0.7-1.3-3.3-4.2-4.2-4.6c-0.8-0.3-1.7-0.6-2.3-1.3c-0.2-0.2-0.6-0.4-1-0.4c-2.4,0-4.9-0.2-7.3,0
		c-1,0.1-2.1,0.4-3.1,0.4c-0.1,0-0.3,0-0.5,0c-0.4,0-1.2,0.2-0.9-0.6c0.2-0.8,0.5,0.2,0.7,0.1c0.3-0.1,0.6-0.2,0.8-0.4
		c0.3-0.3,0.5-0.7,0.7-1.2c0.4,0.3,0.7,0.6,1.1,0.9c0.5,0.5,0.8,0,1.2-0.2c0.5-0.5,0.3-0.9-0.2-1.1c-0.4-0.2-1-0.4-1.2-0.3
		c-0.9,0.8-0.9-0.1-1.2-0.6c0.4-0.1,0.8-0.5,1.2-0.5c1.7,0.2,3.3-0.6,5-0.5s3.4,0,5.2,0c0.8,0.3,1.6,0.6,2.4,0.9
		c0.6,0.2,0.7,1.3,1.7,1c0.5,0.6,1.7,0.5,1.7,1.6c0,0.3,0.6,0.7,1,1c1.5,1.2,2.4,2.9,3.4,4.5c0.8,1.2,1,2.9,1.7,4.2
		c0.4,0.8,0.3,1.8,0.6,2.6c0.2,0.7,0.3,1.4,0.6,2.2c0.5,1,0.6,2.2,0.6,3.2c0,0.9,0.6,1.8,0.1,2.6c0.9,0.7-0.1,1.9,0.8,2.8
		c0.3,0.3,0.1,1.2,0,1.8c-0.1,1.6,0.3,3.1,0.8,4.6c0.1,0.2,0.1,0.4,0.1,0.6c0.2,1.8,0.1,3.7,0.6,5.4c0.3,1.3,0.3,2.7,0.5,4.6
		c0.5-0.8,0.7-1.2,0.9-1.6c0.6-1.2,0.7-2.7,1.8-3.7c0.6-2.4,1.7-4.5,2.4-6.7c0.9-2.8,2.1-5.4,3-8.2c0.7-2.3,1.8-4.5,2.9-6.6
		c0-0.1,0.2-0.2,0.2-0.4c0-0.6-0.2-1.5,0.1-1.8c1.2-1.3,1.4-3.2,2.7-4.4c0.5-0.2,0.9-0.3,1.4-0.2c0.6,0,1.2-0.1,1.8-0.1
		c0,0,0.1,0.2,0.2,0.4c0.3,1-0.9,1.2-1,1.9C232,175.7,232.4,176.1,233.1,176z"/>
	<path class="st4" d="M262.3,118c0.1-0.5-0.1-1.5-0.3-2c-0.4-0.8,0-1.7,1-1.8c0.6,0,1.2,0,1.8,0c0.1,0,0.2-0.3,0.4-0.5
		c1.1-0.6,2.3-0.7,3.4-0.9c0.6-0.1,1.2-0.1,1.7-0.5c1-0.6,1.7-0.5,3.4-0.6c1.1,0,2.2-0.4,3.3-0.6c1.4-0.3,2.8-0.6,4.1-0.8
		c1.8-0.3,3,0.9,4.1,1.9c0.9,0.9,1.9,1.6,2.7,2.5c1.5,1.6,2.5,3.4,3.3,5.4c0.6,1.4,0.6,3,1.6,4.3c0.1,0.1,0.2,0.3,0.2,0.4
		c-0.3,1.3,0.6,2.5,0.5,3.8c-1.5,0.4-1.9,0.8-1.9,2.1c0,1.2,0,1.2,1.4,1.7c0-0.8,0-1.5,0-2.2c1.3-0.4,2.4-0.7,3.3,0.3
		c0.1,0.1,0.6,0,0.9,0c-0.1,0.5-0.3,0.9-0.5,1.4c-0.6,0.6-1.5,0.5-2.5,0.5c1.1,2.6,1.8,5,1.6,7.7c0,0.1,0.3,0.2,0.5,0.4
		c0.1,0.2,0.4,0.5,0.3,0.6c-0.7,1.2,0,2.2,0.2,3.3c0.2,1.2,0.8,2.3,0.6,3.6c-0.1,0.7,0.4,2.5,0.3,3c-0.3,1.2,0.4,2.3,0.9,3.3
		c0.6,2.2,0.4,4.6,1.3,6.7c0.4,1,0.1,2,0.5,3.1c0.6,1.6,0.6,3.5,0.5,5.2c0,2.1,0.2,4,1.7,5.8c-0.6,0.4-1.1,0.8-1.7,1.3
		c0,0-0.3-0.3-0.5-0.3c-1.9,0-2.4-1.6-2.6-2.8c-0.2-1.6-0.8-3.2-0.6-5c0.1-1,0.1-1.9-0.4-2.9c-0.5-0.9-0.6-1.8-0.5-2.9
		c0-0.5-0.3-1-0.4-1.5c-0.2-1-0.7-1.9-0.6-3.1c0.1-1.1,0-2.3-0.5-3.3c-0.5-1-0.3-1.9-0.4-2.9c-0.3-1.8-0.6-3.6-1.1-5.4
		c-0.4-1.4-0.6-2.9-0.7-4.4c-0.1-1.1,0-2.3-0.6-3.3c-0.6-1.2-0.6-2.6-0.9-3.9c-0.3-1-0.2-2.1-0.6-3c-0.8-1.6-0.9-3.3-1.2-4.9
		c-0.7-3.1-1.9-6-3.4-8.7c-0.8-1.4-2.2-2.5-3.5-3.5c-0.7-0.6-1.8-0.6-2.7-0.8c-0.3,0-0.7,0.2-1.1,0.4c-1.1,0.4-2.1,0.9-3.2,1.3
		c-0.3,0.1-0.8-0.3-1.1-0.2c-1,0.4-2.1,0.5-3.1,1.1c-1.1,0.6-2.4,0.7-3.7,0.6c-1.1-0.1-2.2-0.2-3,0.6
		C263.7,118.3,263,117.9,262.3,118z"/>
	<path class="st3" d="M250.5,178.8c0-0.3,0-0.6,0.2-0.9c1.2-1.8,2.3-3.6,3.5-5.4c0.8-1.2,1.5-2.5,2.4-3.7c1.7-2.6,3.6-5,5-7.8
		c0.1-0.3,0.2-0.7,0.3-1c0.1-0.1,0.4-0.2,0.5-0.4c0.6-1.2,0.9-2.4,1.9-3.4c0.3-0.1,0.6-0.3,0.9-0.2c0.1,0,0.2,0.6,0.4,0.7
		c0.5,0.1,0.6-0.5,0.7-0.6c0.7-0.3,0.8-1.1,1.4-1.5c0.2-0.1,0.5-0.1,0.8-0.2c0,0.3,0.1,0.6,0.1,0.9c-0.2,0.8-0.8,1.5-1,2.4
		c-0.2,0.8-1.1,1.4-0.9,2.4c0,0.2-0.2,0.5-0.5,0.7c-1.2,1.2-1.7,2.7-2.4,4.1c-0.3,0.6-0.5,1.2-0.9,1.8c-0.4,0.6-1.1,1-1.5,1.5
		c-0.5,0.8-0.9,1.7-1.3,2.5c-0.6,1.2-1.2,2.4-1.9,3.5c-0.3,0.5-1,0.6-1.3,1.1c-0.6,0.7-1,1.6-1.4,2.4c-0.6,1.1-1,2.1-1.8,3
		c-0.9,1.2-1.3,2.6-2.1,3.8c-0.7,1.2-1.8,2.3-2.3,3.6c-0.8,2.4-2.2,4.4-3,6.8c-0.6,2-1.8,3.8-2.7,5.7c0,0,0,0.2,0,0.2
		c-1.3,1.3-1.6,3.1-2.4,4.7c-1.1,2.1-2.2,4.1-3.5,6.1c-0.4,0.6,0.2,1.7-1.1,1.6c-0.2,0.7-0.4,1.4-0.7,2.1c-0.6,1.2-1.2,2.4-2,3.4
		c-0.6,0.8-1.1,1.5-1.2,2.6c-0.1,0.7-0.7-0.6-0.9,0.1c-0.8,2.9-3.1,4.8-4.7,7.3c-0.4,0.6-0.7,0.6-1.1,0.5c-1.3-0.5-1.8-1.8-1-2.9
		c0.5-0.7,0.9-1.3,1-2.2c0-0.2,0.1-0.4,0.3-0.6c1.4-1.5,2.3-3.2,3.1-5.1c0.9-2.1,2.5-3.8,3.6-5.9c0.3-0.6,0.8-1.1,1-1.7
		c0.6-1.4,1.4-2.6,2.1-3.9c1.1-2.2,2.4-4.2,3.1-6.5c0.2-0.7,0.6-1.2,1-1.7c0.6-0.9,1-1.9,1.5-2.9c0.5-0.9,1.1-1.8,1.3-2.8
		c0.4-2.1,1.8-3.8,2.6-5.8c0.9-2,2.1-3.9,3.1-5.8c0.5-0.7,0.5-1.8,1.8-2C250.5,179.6,250.5,179.1,250.5,178.8z"/>
	<path class="st5" d="M107.7,200.5c0.1-0.3,0.3-0.6,0.5-0.9c0.1,0,0.4,0,0.5,0c0.7-1,1.8-1.8,2.2-3c0.7-1.8,1.4-3.6,2.5-5.3
		c0.3-0.5,0.4-1.1,0.5-1.7c0.8-1,1-2.3,1.6-3.4c0.7-1.3,1.7-2.4,2.4-3.7c0.6-1,1.1-2,1.1-3.1c0-1.2,0.6-2.1,1.2-3
		c0.8-1.3,1.9-2.4,3-3.5c0.6-0.7,1.2-1.3,1.7-2.1c0.6-1,1.8-1.6,2.6-2.4c0.8-0.8,1.6-1.6,2.4-2.4c0.4-0.2,0.5,0.8,1.1,0.1
		c1-1,1.3-0.8,1.8,0.8c0.1,0.5-0.1,0.9-0.5,1.2c-0.4,0.3-0.6,0.7-1,1c-0.4,0.3-0.9,0.6-1.3,0.8c0.5,0.4,0.4,0.6,0,1
		c-0.3,0.3-0.4,0.8-0.7,1.1c-0.7,1-1.6,1.8-2.3,2.8c-0.9,1.2-2.1,2.3-2.5,3.6c-0.5,1.3-1.3,2.4-2,3.6c-0.6,1.2-1.4,2.4-2.1,3.6
		c-2.1,3.1-3.9,6.3-4.9,10c-0.2,0.7-0.5,1.4-1,1.9c-1,1.1-1.3,2.4-2.1,3.6c-0.8,1.1-1.6,2.1-1.7,3.6c-1.2,0.6-0.9,2-1.3,3
		c-0.4,0.8-0.6,1.6-1.2,2.4c-0.6,0.9-1.2,2-1.2,3c0,1-0.9,0.6-1,1.2c-0.1,0.6,0.1,1.3-0.1,1.8c-0.4,1-1.2,1.8-1.5,2.9
		c-0.2,0.7-1,0.7-2.2,0.2c-0.1,0-0.3-0.1-0.4-0.2c-0.2-0.5-0.6-0.9-0.5-1.6c0.2-0.8-0.4-0.8-0.9-0.7c0.5-0.7,1-1.4,1.5-2.2
		c0.2-0.4,0.5-0.9,0.4-1.2c-0.3-0.9-0.2-1.6,0.6-2.2c0.2-0.1,0.4-0.6,0.3-0.8c-0.3-1.1,0.5-1.8,1-2.6c0.2-0.3,0.5-0.7,0.7-0.9
		c0.3-0.3,0.9-0.4,1.1-0.7c0.2-0.4,0-0.9,0.1-1.3c0-0.3,0.5-0.4,0.6-0.7C106.8,203,107.9,202,107.7,200.5z"/>
	<path class="st2" d="M326,127.4c-1.4,1.1-2.6,2.5-4.2,3.2c-1.6,0.7-3,1.7-4.4,2.5c0.7,0.8,1.7,1.3,0.6,2.4
		c-0.1,0.1-0.1,0.4-0.1,0.6c0.1,2.4-0.9,4.7-1,7.1c0,0.6-0.6,1.5-0.4,1.6c0.7,0.6,0,0.9,0,1.3c0,0.6,0,1.2,0,1.9
		c0,0.6,0,1.2-0.2,1.8c-0.1,0.5,0,0.9-0.2,1.4c-0.1,0.5-0.7,1-0.2,1.5c0.7,0.7-0.5,0.9-0.4,1.6c0.5,2.4-0.4,4.8-0.5,7.3
		c0,1.4-0.3,3-0.8,4.3c-0.2,0.6,0,1.2-0.1,1.8c-0.1,0.6-0.3,1.1-0.5,1.7c-0.2,0.6-0.4,1.1-0.5,1.7c-0.1,0.6-0.1,1.2,0,1.6
		c0.2,0.6-0.4,0.9-0.3,1.6c0.1,1.2-0.7,1.8-1.9,1.8c-1.1,0-0.8-1.4-1.6-1.6c0.2-1.1-0.6-2.1-0.4-3c0.2-0.8,0.1-1.7,0.4-2.4
		c0.9-2.5,0.9-5.3,1.5-7.9c0.3-1.2,0.3-2.4,0.4-3.6c0.1-0.9,0.4-1.8,0.5-2.6c0.1-0.9-0.1-1.9,0-2.8c0.1-0.6,0.5-1.2,0.4-1.9
		c-0.1-0.5-0.1-2,0-2.6c0-0.2,0-0.5,0-0.7c0.2-1,0.2-2.2,0.6-3c0.4-1,0.2-1.8,0.3-2.7c0.2-1,0.6-1.8,0.5-2.9
		c-0.1-1.2,0.1-2.4,0.3-3.6c-0.9,0.4-1.8,0.9-2.8,1.2c-0.6,0.2-1.4,0.3-1.9-0.3c-0.5-0.6-0.5-1.3,0-1.9c0.3-0.3,0-1,0.9-1.1
		c0.6-0.1,1.3-0.6,1.9-1c2.6-1.4,5.3-2.8,7.8-4.4c1.8-1.2,3.9-2,5.6-3.5c0.1-0.1,0.3,0,0.5,0c0.1,0,0.3,0.1,0.4,0.2
		c-0.4,0.5-0.7,1,0,1.5C325.8,126.2,326,126.9,326,127.4z"/>
	<path class="st6" d="M297.2,130.8c-0.3,0-0.8,0.1-0.9,0c-1-1.1-2-0.7-3.3-0.3c0,0.7,0,1.4,0,2.2c-1.4-0.5-1.4-0.5-1.4-1.7
		c0-1.2,0.4-1.7,1.9-2.1c0.2,0.1,0.5,0.3,0.9,0.6c0-0.6,0-1.2,0-1.7c0-1-0.1-2,0.5-2.9c0.7-1,0.4-2.3,0.9-3.4
		c0.5-1.1,0.8-2.3,0.6-3.6c0-0.1-0.1-0.4,0-0.5c1-1.2,0.6-2.8,1-4.1c0.5-1.6,0.2-3,0.4-4.6c0.5-0.2,1.1-0.4,1.6-0.7
		c0.5-0.3,0.9-0.7,1.2-1.2c0.1-0.2-0.4-0.7-0.3-0.9c0.2-0.5,0.6-0.8,0.9-1.2c0.2-0.3,1.8-1.2,2.4-1.4c0.7,0.7,1.6,0.3,2.2-0.1
		c1.5-1.1,3.1-1.9,4.9-2.3c0.5-0.1,1-0.3,1.5-0.5c0.9-0.2,0-1.2,0.7-1.5c0.1,0,0.1-0.3,0.2-0.4c0.8-0.1,1.6-0.3,2.4-0.5
		c1.2-0.2,2.2,0.1,2.8,1.2c0.1,0.3,0,0.9-0.2,1.2c-0.6,0.7-0.7,1.1,0,1.3c1.1,0.3,0.7,1,0.8,1.6c-0.4,0-0.9-0.1-1.1,0
		c-0.4,0.3-0.6,0.8-0.7,1.2c-0.1,0.6,0.1,1.3-0.4,1.8c0,0,0.1,0.1,0.2,0.1c0,0,0.1,0,0.2,0c0,1.5-0.7,2.7-1.6,3.7
		c-0.3,0.4-0.2,0.5,0.2,0.5c-0.2,0.9-1,0.3-1.4,0.5c0-0.5,0.1-1.2-0.8-0.8c-0.4,0.2-0.7,0.6-1.1,0.9c-0.2,0.1-0.4,0.3-0.6,0.5
		c-0.1-0.2-0.3-0.5-0.3-0.7c0.1-0.6,0.3-1.2,0.4-1.9c-1.2-0.6-2,0.7-3,0.8c-0.3-0.3-0.5-0.6-0.7-1c0.2-0.2,0.3-0.6,0.5-0.7
		c1.1-0.7,2.2-1.4,3.3-2.1c0,1.3,1,1.8,1.8,2.4c0.4,0.3,1.6-0.5,1.3-0.7c-0.8-1-0.2-2.1-0.4-3.1c-0.1-0.6-0.7-0.8-1.4-0.4
		c-0.1,0-0.3,0-0.5,0c-0.9,0.5-1.8,0.9-2.7,1.4c-1.5-0.9-1.8,0.8-2.6,1.3c-0.5,0.2-0.9,0.4-1.4,0.6c-0.5,0.2-0.9,0.4-1.3,0.7
		c-0.6,0.5-1.1,1.1-2.1,1.2c-0.6,0.1-1.2,0.9-1.2,2c0,1.7-0.3,3.3-0.4,5c-1,0.8-0.4,2-0.7,3c-0.5,1.4-0.9,2.8-1.1,4.2
		C298.3,126.2,297.8,128.5,297.2,130.8z"/>
	<path class="st7" d="M249.2,128c0,0.1-0.1,0.3-0.2,0.4c-0.7,0.9,0.1,2.1-0.7,3c-0.6,0.7-1.1,1.6-1,2.6c0,0.6-0.1,1.4-0.5,1.6
		c-1.1,0.6,0.3,1.3-0.3,1.9c-0.5,0.5-0.8,1.2-1,1.9c-0.2,0.5-0.1,1.1-0.1,1.6c0.1,2-0.6,3.9-1.2,5.9c-0.5,1.4-1.5,2.8-1.2,4.5
		c0,0.5-0.3,1-0.6,1.4c-0.6,1.1-0.9,2.2-0.9,3.4c0,0.9,0,1.7,0,2.6c0,0.8-0.4,1.2-1.1,1.2c-1.2,0-2.3,0.2-3-1.3
		c-0.6-1.2-1.2-2.4-1.8-3.7c-0.8-2.1-1.8-4.1-2.8-6.1c-0.4-0.8-0.5-1.8-1.3-2.3c-0.2-0.1-0.6-0.1-0.9-0.2c-0.4,0-0.7-0.7-1.2,0
		c-0.3,0.4-1.1,0.4-1.6,0.5c0-0.3,0-0.6,0-0.9c0.7,0.2,1.2-0.5,1.8-0.7c0.5-0.2,0.5-0.5,0.1-1c-0.3-0.3,0.1-0.7,0.6-0.6
		c0.5,0.1,1,0.4,1.5,0.4c0.6,0,1.1-0.3,1.7-0.4c1.3,0.1,2,1,2.4,2.1c0.5,1.6,0.9,3.2,2.2,4.5c0.3,0.3,0.1,1,0.2,1.5
		c0,0.1,0.2,0.3,0.3,0.2c0.2,0,0.6-0.1,0.6-0.2c0.4-1.6,1.2-3.2,1.3-4.8c0.1-1.5,1.2-2.6,1.1-4.1c0.6-0.4,0.5-1.1,0.5-1.7
		c0.1-3.7,1.3-7.1,2.4-10.6c1.3-0.6,0.7-2.1,1.4-3c0.3-0.4,0.5-0.9,1-1.1c0.5,0.2,1.5-0.5,1.4,0.7c0,0,0.2,0.1,0.3,0.1
		C249.1,127.5,249.1,127.5,249.2,128z"/>
	<path class="st1" d="M159.6,146.3c-0.1-0.5-0.3-1-0.5-1.6c0-0.1,0.3-0.2,0.5-0.3c0.3-0.3,0.8-1.7,0.9-2.4c1.6-1.2,3.2-2.3,4.5-3.8
		c0.2-0.3,0.5-0.6,0.6-0.9c0.7-1.7,2-3.5,3.2-4.2c0.8-0.5,1.6-1.1,2.4-1.6c0.1,0,0.1-0.3,0-0.4c-0.2-0.8-0.6-1.5-0.7-2.3
		c-0.3-1-0.5-2-0.6-3c0.7-0.5,0.4-1.3,0.5-1.9c0.3-1.4,0.6-2.9,1.7-4c1.6-1.8,3.6-2.6,5.9-2.8c0.7,0,1.4-0.5,2.2,0
		c1.8-0.8,3.5-0.4,5.3,0c0.7,0.2,1,0.6,1,1.3c0,0.4-0.3,1,0.5,1.1c-0.5,1.4-1.9,0.9-2.8,1.4c-0.2-0.3-0.4-0.7-0.6-0.7
		c-0.4,0-0.7,0.2-1.2,0.3c-0.2,0-0.5,0-0.7,0c-1.1,0-2.1,0.1-3.2,0.2c-1.2,0-1.8,1.2-3,1.3c-0.6,0.1-1.4,0.9-1.6,1.6
		c-0.2,0.8-0.7,1.8-0.5,2.3c0.3,0.7,0.1,1.4,0.4,1.9c0.3,0.6,0.9,1.2,1.3,1.8c0.5,0.7,0.9,1.5,1.3,2.3c0.4,0.7,0.2,1.3-0.5,1.8
		c-0.2,0.1-0.5,0.3-0.8,0.3c-0.3,0-0.6-0.2-0.8-0.1c-0.7,0.5-1.5,1-2.1,1.7c-1.5,1.6-3.5,2.8-4.2,5.1c-0.2,0.7-1.7,0.6-1.3,1.8
		c0,0-0.2,0.3-0.3,0.2c-1.2-0.4-1,0.9-1.5,1.2c-0.2,0.1-0.2,0.6-0.5,0.6c-0.7,0.2-0.9,0.6-1,1.3c-0.1,0.6-1,1.2-0.8,1.5
		c0.5,1.2-1.1,0.7-1,1.5c-0.7,0.4-1.3,0.2-1.4-0.4c0-0.5,0-1.1,0-1.6C160,146.5,159.8,146.4,159.6,146.3z"/>
	<path class="st8" d="M259.5,132.2c-1.1,1.6-2.1,3.1-2.5,5.1c-0.2,0.8-0.7,1.6-1.2,2.4c-0.4,0.6-0.5,1.5-1,2.2
		c-1.2,1.6-1.4,3.6-2.4,5.4c-0.3,0.6-0.5,1.3-0.8,2c-1.3,2.6-1.6,3.6-1.7,6.5c-0.9-0.2-1.9,0.4-2.7-0.6c-0.3-0.4-0.5-0.7-0.6-1.2
		c-0.2-1.6,0.3-3.1,0.7-4.7c0.3-1.1,0.6-2.3,1.2-3.3c0.3-0.6,1-1.6,0.1-2.4c-0.1-0.1,0.3-0.6,0.5-1c0.2-0.1,0.4-0.3,0.6-0.3
		c0.3,0,0.6,0.2,0.8,0.1c0.4-0.2,0.4-0.7,0.6-1.2c0.3-0.7,0.5-1.5,0.4-2.3c0.5,0,0.9-0.1,1.4-0.1c0-0.8-0.1-1.6,0.5-2.3
		c0.6-1.5,1.5-2.7,1.9-4.3c0.3-1,1-1.9,1.6-2.8c0.1-0.1,0.5,0,0.7,0c0.7-0.1,1.2,0.2,1.4,0.8C259.3,130.8,259.4,131.5,259.5,132.2z"
		/>
	<path class="st9" d="M153.9,158.1c0-0.8-0.1-1.7,0.5-2.4c0.6-0.1,1.1-0.4,1.7-0.5c0.7-0.1,1.4,0,2.1,0c3.2,0.2,6.4-0.1,9.7,0.4
		c2.9,0.4,5.8,0.9,8.7,0.6c0.3,0,0.6,0,0.9,0c0.2,0.1,0.6,0.5,0.6,0.5c0.5-0.5,0.9-0.3,1.2,0.2c0.2,0.4,0.4,0.9,0.6,1.4
		c-0.3,0.2-0.8,0.3-0.9,0.5c-0.3,0.7-0.4,1.4-0.6,2.1c-0.3,0.4-0.8,0.8-0.9,1.3c-0.1,1-0.8,0.5-1.2,0.6c-0.2,0-0.5-0.3-0.7-0.5
		c0.1-0.7,0.3-1.4,0.5-2.4c-1,0.2-1.8-0.4-2.8-0.1c-0.8,0.2-1.9-0.2-2.8-0.4c-1-0.2-2,0.2-3.1-0.4c-0.7-0.4-2-0.2-3,0
		c-1.1,0.2-2-0.6-3.1-0.5c-1,0.1-1.9,0.3-2.9,0.5c-0.9-1-2.1-0.2-3.1-0.5C154.9,158.4,154.4,158.2,153.9,158.1z"/>
	<path class="st10" d="M315.1,111c-0.4,0-0.5-0.1-0.2-0.5c0.9-1.1,1.7-2.3,1.6-3.7c0.9,0,1.8,0,2.6-0.5c0.2-0.1,0.4-0.5,0.5-0.4
		c1.6,0.2,3.1-0.8,4.6-0.9c2.1,0,4.1-0.7,6.1-0.6c0.6,0,1.3-0.1,2-0.3c1.4-0.5,3-0.1,4.2,0.8c0.4,0.2,0.7,0.4,1.1,0.7
		c0.1,0.1,0.2,0.2,0.3,0.3c0,0.1,0.1,0.3,0,0.3c-0.9,0.8,0.4,2.3-0.7,2.9c-0.6,0.3-0.9,0.6-1.1,1.2c-0.2,0.5-0.7,0.8-1.3,0.7
		c-0.3,0-0.7,0-0.8-0.2c-0.3-0.5-0.6-1.1-0.5-1.6c0-0.5,0.5-0.9,0.8-1.4c-1.3-0.8-1.6-0.8-2.8-0.1c-0.2,0.1-0.4,0.4-0.6,0.5
		c-0.8,0-1.7-0.2-2.3,0.1c-0.8,0.5-1.6,0.3-2.4,0.4c-0.8,0.1-1.6,0.3-2.4,0.5c-1.2,0.2-2.6,0.3-3.7,0.6
		C318.5,110.1,316.8,110.5,315.1,111z"/>
	<path class="st9" d="M220.8,80.8c0.1,0,0.3-0.1,0.4-0.2c-0.6-0.6,0-1.5,0.2-1.6c1.2-0.3,1.4-1.1,1.2-2.1c0-0.1,0-0.2,0-0.2
		c2.2-2.2,3.9-4.9,7.1-5.9c1.5-0.5,1.5-0.5,2.8,0.6c1.2-1.4,2.7-1.7,4.4-1.5c1.2,0.1,2.4,0,3.5,0c0.2,0.7-0.4,1.1-0.8,1.5
		c-0.4,0.4-0.8,0.7-0.6,1.3c-0.8,0.1-1.7,0.2-2.4,0.5c-1.4,0.6-2.9,0.5-4.3,0.8c-2.1,0.5-3.8,1.3-5.2,2.8c-1.1,1.2-2.1,2.6-3.2,3.9
		c-0.6,0-0.5,0.5-0.5,0.8c0,1.1,0,2.1-0.7,3c-0.7,0-1.4,0-2.1,0c0-0.2,0.1-0.6,0-0.7C219.9,82.9,220.4,81.8,220.8,80.8z"/>
	<path class="st11" d="M211.4,142.5c0,1.3,1,1.9,1.9,2.3c0.6,0.3,1.7-0.2,1.8-0.8c0.3-1.1,1-0.4,1.5-0.6c-0.1,0.3-0.1,0.8-0.4,1
		c-0.6,0.6-1.6,1-1.9,1.8c-0.4,0.7-1.5,0.6-1.6,1.7c0,0.6-1,1.1-1.6,1.7c-0.6,0.6-1.2,1.2-1.8,1.8c-2.8,2.8-2.9,3-5,7.2
		c-0.3,0.6-0.9,1.2-1.4,1.8c-0.9,0.2-1.2,0.1-2.2-0.5c-0.2-0.1-0.5,0-0.7,0c-0.1-0.5,0.2-0.8,0.5-1.2c1.2-2.4,1.9-4.8,3.6-6.9
		c-0.3-0.9,0.1-1.5,0.7-2.1c0.6-0.6,1.3-1.3,2-2C208.4,146,209.9,144.3,211.4,142.5z"/>
	<path class="st7" d="M234.5,116.6c-0.5,0-0.9,0-1.3,0c-0.2,0-0.4-0.3-0.6-0.5c0.1-0.4,0.5-1.1,0.5-1.1c-0.8-0.5,0-0.8,0-1.2
		c0.5-0.3,1-0.7,1.5-0.9c0.3-0.1,0.6-0.8,1.1-0.1c0.1,0.1,0.7,0.2,0.9,0c1.4-0.9,3.1-0.7,4.5-1.6c0.2-0.1,0.6-0.3,0.8-0.3
		c2.8-0.2,5.4-0.7,7.8-2.2c0.3-0.2,0.7-0.1,1.2-0.2c0,0.4,0.1,0.6,0,0.9c-0.1,0.6,0.3,1.4-0.3,2c-0.7,0.8-1.5,1.5-2.5,1.8
		c-1.2,0.3-2.2,0.6-3.3,1.2c-0.2,0.1-0.4,0.3-0.6,0.2c-1.9-0.4-3.4,1.1-5.3,1c-0.2,0-0.5,0.3-0.7,0.5c-0.6,0.2-1,0.6-1.7,0.5
		C235.9,116.6,235.2,116.6,234.5,116.6z"/>
	<path class="st12" d="M220.8,84.6c0.7,0,1.4,0,2.1,0c0.8-0.8,0.8-1.9,0.7-3c0-0.3-0.2-0.8,0.5-0.8c0,0.2,0,0.5,0,0.7
		c0.2,0,0.4,0,0.5,0c0.6-0.2,1.1-0.4,1.6-0.6c0.6,1,1.2-0.1,1.7,0c1.4,0.2,2.4-0.5,3.6-1.1c0.4-0.2,0.7-0.5,1.2-0.6
		c2.2-0.7,4.1-1.8,6-3c0.4-0.3,1-0.3,1.4-0.5c0,0.3,0,0.6,0,0.9c0,1.6,0,1.6,0.9,2.9c-0.8-0.2-1.6,0.2-2.1,0.6c-2,1.2-4.2,2.1-6.3,3
		c-0.4,0.2-0.9,0.2-1.3,0.3c-0.4,0.1-0.9,0.1-1.2,0.4c-0.5,0.4-0.9,0.5-1.4,0.6c-1.3,0.2-2.7,0.6-4.1,0.5c-0.5,0-0.9,0.4-1.6,0.7
		c0.2,0.7,0.4,1.5,0.6,2.3c0,0.2-0.2,0.5-0.3,0.7c-0.5-0.8-1.2,0.7-1.7-0.2c-0.1-0.2-0.6-0.3-0.2-0.7c0.5-0.5,0.2-0.9-0.2-1.1
		C220.7,85.9,220.9,85.2,220.8,84.6z"/>
	<path class="st8" d="M330.2,113.3c0,0.1,0,0.3,0,0.5c-0.3,0.1-0.7,0.1-1,0.3c-0.6,0.6-1.2,1.2-1.8,1.8c0.1,0.2,0.3,0.3,0.5,0.5
		c-0.3,0.6-1.3-0.3-1.4,0.7c-0.6,0.1-1.1,0.5-1.7,0.5c-1.7,0-3.1,0.6-4.6,1.3c-1.5,0.7-3.1,1.5-4.9,0.9c-0.1-0.6-0.3-1.1-0.5-1.8
		c0.9-0.6,1.7-1.7,2.8-2.1c1.9-0.7,3.7-1.7,5.5-2.6c1.3-0.6,2.6-1.3,4-1.7c1.5-0.5,2.7-1.5,4-2.2c0.3-0.2,0.7-0.2,1-0.3
		c0.3,0,0.6,0.1,0.9,0.1c0,0.3,0,0.6-0.2,0.8c-0.8,1-1.8,1.4-3.1,1.5C329.9,112.2,330.1,112.8,330.2,113.3z"/>
	<path class="st13" d="M259.5,132.2c-0.1-0.7-0.2-1.4-0.5-2c-0.2-0.6-0.7-0.9-1.4-0.8c0.3-0.8,0.6-1.6,1.8-1.4
		c0.4,0,0.8-0.3,1.3-0.6c0.5,0.6,1.1,1,1.4,1.6c0.2,0.6,1.4,1.2,0.3,2.1c-0.1,0.1-0.1,0.6,0,0.6c1.2,1.4-0.2,2.7-0.1,4.1
		c0,0.7-0.1,0.7,0.6,1.6c0,0.2,0.1,0.6,0,0.7c-0.8,1-0.8,1.8,0.5,2.4c0.1,0,0,0.4,0,0.7c-0.1,0.3-0.1,0.7-0.3,1
		c-1,1.8-1.8,3.6-2.6,5.4c-0.8,0.2,0.1,1.4-0.9,1.6c0.1-0.7-0.1-1.4,0.4-2.2c0.4-0.5,0.3-1.5-0.7-2.1c-0.4,0.5-1.1,1-1.1,1.5
		c0,1.2-0.6,1.5-1.5,1.8c0-0.4-0.2-0.9,0-1.2c1.5-1.5,1.3-3.6,1.8-5.3c0.6-2,1.3-4,1-6.1c0.6-1,0.5-2,0.5-3.1
		C260,132.4,259.7,132.3,259.5,132.2z"/>
	<path class="st10" d="M219,103.9c-1.4-0.4-2.6-1.6-2.9-2.9c0-0.4-0.2-0.7-0.4-1c-0.1-0.4-0.2-0.7,0.4-0.8c0.1,0,0.4-0.1,0.4-0.1
		c-0.1-1.7,1.4-2.4,2-3.6c0.4-0.8,1.3-1.3,2.1-1.9c0.5-0.4,1.5-0.7,1.6-1.2c0.1-0.9,1.1-0.7,1.4-1.2c0.5-0.7,1.3-1.2,2.3-1.3
		c0.1,0,0.3,0,0.5,0c0.5-0.3,0.8-1.2,1.5-0.9c0.6,0.2,1.1,0.7,1.6,1.1c-0.1,1.1-0.9,1.6-1.6,2.1c-1.2,0.9-2.5,1.7-3.6,2.7
		c-1.3,1.2-2.5,2.7-3.6,4.1c-0.4,0.4-0.6,1.1-0.6,1.6c0,0.6,0.2,1.3,0.9,1.6c-0.1,0.1-0.2,0.5-0.3,0.5c-0.9-0.1-1.2,0.2-1.1,1.1
		C219.4,103.7,219.1,103.8,219,103.9z"/>
	<path class="st14" d="M265.2,143.5c0.3-2.2,0.7-4.3,1-6.5c0-0.1,0.2-0.1,0.4-0.1c0.7,0.2,1.4,0.4,2.3,0.7c0.6,0.7-0.4,1.6-0.5,2.7
		c1.4-0.9,2.5-1.6,3.9-2.4c0,0,0.4,0.2,0.6,0.4c0.8,0.5,0.8,0.6,0.7,1.7c0,0.3-0.1,0.7,0,0.9c1.2,1.3,0.1,2.4-0.3,3.5
		c-0.5,1.4-1.2,2.7-1.2,4.1c0,0-0.2,0.1-0.4,0.2c0-0.3,0.2-0.8-0.4-0.9c-0.5-0.1-1-0.2-1.8-0.4c0.3,0.5,0.6,0.7,0.6,1
		c0,0.2,0,0.5-0.1,0.8c-0.2,0-0.4,0-0.6-0.1c-0.2-0.1-0.4-0.2-0.6-0.3c0.4-1.3,0.5-2.6,1.4-3.8c0.5-0.6,1.1-1.3,0.9-2.4
		c-0.7,0.6-1.2,1-1.8,1.5c-0.4-0.7-0.8-1.5-1.3-2.3C267.4,142.4,266.6,143.5,265.2,143.5z"/>
	<path class="st15" d="M201.5,131.2c0.4-0.4,0.8-0.7,1.3-1c0.6-0.4,0.8-1,0.5-1.6c-0.1-0.2-0.8-0.2-1.3-0.4c0-0.7,0-1.5,0-2.2
		c1.2-0.2,2.1,0.4,2.3,1.4c0.3,1.5,1.4,2.4,2,3.6c1,1.8,1.8,3.7,1.8,5.9c0,0.6-0.3,1.1-0.7,1.3c-1.1,0.6-2,1.1-3.4,1.1
		c-1.6-0.1-3.1-0.4-4.7-0.6c-0.1,0-0.1-0.2-0.2-0.4c0.7-0.1,1.4,0.2,2.1-0.4c0.9-0.7,0.7-1.6,0.7-2.4c0.5-0.1,1-0.4,1.5-0.5
		c0.7-0.2,0.6-0.9,0.4-1.1C203.1,133,202.3,132.1,201.5,131.2z"/>
	<path class="st16" d="M132.7,167c-0.5-1.6-0.7-1.8-1.8-0.8c-0.6,0.6-0.7-0.4-1.1-0.1c0.7-1.3,1.9-1.9,3.3-2.4
		c0.3-0.1,0.5-0.3,0.7-0.5c2.1-1.2,4.3-2.4,6.8-2.8c0.2,0,0.4-0.3,0.6-0.3c1.1-0.1,2-1.1,3.3-0.3c0.8,0.5,2.1,0.1,3.2,0.1
		c0.6,0.4,1.2,0.7,1.9,1.1c-0.7,0.8-1.3,1.2-2.1,0.4c-0.2-0.2-0.3-0.4-0.5-0.5c-0.2-0.1-0.5-0.1-0.6,0c-0.1,0.1-0.2,0.5-0.2,0.6
		c0.4,0.3,0.5,0.7,0.5,1.2c-0.5,0.1-1-0.1-1.5,0.3c-0.3,0.2-0.8,0.1-1.3,0c0.3-0.1,0.6-0.3,0.9-0.4c-0.1-0.1-0.2-0.3-0.3-0.3
		c-1-0.2-1.9,0-2.8,0.6c-0.4,0.2-0.7,0.6-1.2,0.1c-0.1-0.1-0.5,0-0.5,0c-0.2,1-1.2,1-1.9,1.5c-0.7,0.4-1.3,1-2,1.5
		c0,0-0.2,0.1-0.2,0.1C134.6,164.9,133.9,166.9,132.7,167z"/>
	<path class="st15" d="M159.6,117.6c-0.1,0.5,0,0.9,0.5,1.2c0.6,0.4,0.7,1,0.2,1.6c-0.1,0.1,0,0.3,0,0.5c0.2,0,0.5,0,0.7,0
		c0,0.1-0.1,0.3-0.2,0.4c-1.4,2.2-2.4,4.4-2.7,7.1c-0.1,1.5-0.9,2.9-1.3,4.3c0,0.6,0,1.2,0,1.7c-0.5,0.3-0.7-0.6-0.9,0
		c-0.2,0.8-0.8,1.2-1.4,1.6c-0.1-0.1-0.5-0.3-0.5-0.4c0.2-1.7-0.4-3.4,0.3-5c0-0.1-0.3-0.5-0.3-0.7c0-0.2,0.3-0.4,0.5-0.6
		c0.7-0.8,1.6,0.5,2.3-0.1c-0.3-0.3-0.6-0.6-0.9-0.9c0.5-0.6,0.8-1.1,1-1.4c-0.3-0.8-1.3,0-1.5-0.9c0-1.4,0.4-2.6,1.1-3.7
		c0.2-0.4,0.1-0.9,0.4-1.2C157.7,119.9,158.3,118.5,159.6,117.6z"/>
	<path class="st10" d="M224.6,103.4c0.3-0.2,0.7-0.5,0.9-0.7c0.3-0.3,0.4-0.8,0.7-1.1c0.3-0.4,0.7-0.6,1-1c0.6-1,1.2-2.1,0.1-3.3
		c0.3-0.4,0.6-0.7,1-1c0.9-0.7,1.9-0.6,2.5,0.4c1.4,2.1,1.3,4.2-0.5,6.5c-0.2,0.2-0.3,0.5-0.5,0.7c-0.8,1-1.7,1.9-2.4,2.7
		c-0.6-0.1-1-0.2-1.4-0.4c-0.4-0.1-0.9,0.2-0.9-0.5c-0.1-0.2-0.3-0.5-0.5-0.7C225.6,104.5,224.8,104,224.6,103.4z"/>
	<path class="st17" d="M250.5,178.8c0,0.3,0,0.8-0.1,0.8c-1.2,0.1-1.2,1.3-1.8,2c-0.8-0.2-1.7,0.3-2.4-0.3c-0.7-0.6-1.7,0.2-2.4-0.5
		c-0.3-0.2-0.9-0.2-1.3-0.1c-0.7,0-1.3-0.1-1.9-0.5c-0.4-0.2-0.8-0.4-1.2-0.5c-1.2-0.2-2.4-0.1-3.5-0.6c-0.8-0.3-1.6-0.4-2.4-0.4
		c-0.1,0-0.2-0.3-0.4-0.5c0.4,0,0.9,0,1.4,0c0-0.7,0-1.3,0-1.9c2.2,0,4.2,0.8,6.4,1c0.4,0.7,1.1,0.4,1.7,0.5
		c0.6,0.1,1.2,0.5,1.7,0.4c1.6-0.1,3,1.2,4.6,0.5C249.4,179.7,250,179.1,250.5,178.8z"/>
	<path class="st18" d="M312.3,147.2c0,0.2,0,0.5,0,0.7c-0.1,0.6-0.1,2.2,0,2.6c-0.5,0.1-1,0.1-1.5,0.3c-1,0.3-1.9,0.7-3,0.7
		c-1.3,0.1-2.6,0.5-3.8,1c-1.5,0.7-2.9,1.4-4.6,1.3c-0.2,0-0.5,0.3-0.7,0.5c-0.5-1-1.2-2-0.9-3.3c0.2,0.3,0.5,0.6,0.8,1
		c1.9-0.8,3.7-1.8,5.8-2.4c2.1-0.6,4.2-0.9,6.2-1.9C311,147.5,311.7,147.4,312.3,147.2z"/>
	<path class="st19" d="M226.1,106.3c0.4,0.1,0.8,0.2,1.4,0.4c0.7-0.8,1.6-1.8,2.4-2.7c0,1.6,0,3.1,0,4.7c0,1.1,0.2,2.3,0.5,3.3
		c0.2,0.7,0.7,1.3,1.6,1.4c0.4,0,0.8,0.3,1.2,0.5c0,0.4-0.8,0.8,0,1.2c0,0-0.3,0.7-0.5,1.1c-2,0-3.5-1.1-4.9-2.3
		c-0.5-0.4,0.6-0.8-0.2-1.2c-0.5-0.2-0.8-0.9-1-1.4c-0.2-0.5,0-1.1,0-1.6C226.4,108.5,226.8,107.3,226.1,106.3z"/>
	<path class="st20" d="M239.2,72.9c-0.1-0.6,0.2-1,0.6-1.3c0.4-0.4,1-0.7,0.8-1.5c1.2,0,2.6-0.3,3.7,0.1c1.1,0.4,2.4,0.1,3.4,0.8
		c0.3,0.2,0.9,0,1.4,0c0.3,0.8,1.3,1.3,0.9,2.4c-1,1.1-1,1.1-2.4,0.2c-0.1-0.1-0.2-0.2-0.4-0.2c-1.6,0-3.2,0.1-4.8,0.2
		c0,0,0,0.1,0,0.2c-0.5,1.1-1.6,1.2-2.4,1.9c0-0.7,0-1.5,0-2.3C240.2,72.6,239.7,72.9,239.2,72.9z"/>
	<path class="st21" d="M326.4,117.1c0.1-1,1.2-0.1,1.4-0.7c-0.1-0.1-0.3-0.3-0.5-0.5c0.6-0.6,1.2-1.2,1.8-1.8c0.2-0.2,0.6-0.2,1-0.3
		c0.1,0.2,0.2,0.5,0.3,0.6c1.5,1,1,2.4,1.1,3.8c0,0.1-0.2,0.3-0.2,0.3c-0.6,0-0.9,0.4-1.2,0.9c-0.2,0.4-0.6,0.6-0.9,1
		c-0.5,0-1.2-0.1-0.8,0.8c0.3,0.6,0.9,1.2,1.3,1.8c0.2,0.3,0.4,0.6,0.6,1c-0.7-0.1-1.3-0.4-1.8-0.3c-1,0.3-0.5-1.1-1.2-1
		c-0.8,0.1-1.6,0.3-2.4,0.5c0.4-0.7,0.7-1.4,1.3-2c0.8-1.1,0.7-1.2-0.3-2.7c0.5-0.4,0.9-0.8,1.7-1.4
		C327,117.1,326.7,117.1,326.4,117.1z"/>
	<path class="st22" d="M187.4,163.7c0.3,0.5,0.3,1.4,1.2,0.6c0.2-0.2,0.9,0,1.2,0.3c0.4,0.2,0.6,0.6,0.2,1.1
		c-0.3,0.3-0.6,0.7-1.2,0.2c-0.3-0.3-0.6-0.6-1.1-0.9c-0.3,0.5-0.5,0.9-0.7,1.2c-0.2,0.2-0.5,0.3-0.8,0.4c-0.3,0.1-0.5-0.9-0.7-0.1
		c-0.2,0.7,0.5,0.6,0.9,0.6c0.1,0,0.3,0,0.5,0c-0.1,0.1-0.3,0.5-0.4,0.5c-1.4-0.1-2.9,0.4-4.2-0.4c-0.4-0.2-1.2-0.2-1.6,0
		c-1.4,0.8-2.8,0.3-4.2,0.4c0.1-0.3-0.2-0.9,0.4-0.9c0.6,0,1.2-0.1,1.6-1.1c-0.3-0.1-0.7-0.4-1.5-0.8c1.5-0.1,2.3-0.2,3.2,0.4
		c0.5,0.4,0.9,0,1.1-0.9c0.5,0,1,0,1.3-0.2c0.5-0.4,1.2-0.5,1.5-0.2C185.3,164.6,186.3,164,187.4,163.7z"/>
	<path class="st17" d="M268.9,148.7c0.2,0.1,0.4,0.2,0.6,0.3c0.2,0.1,0.4,0.1,0.6,0.1c0-0.3,0.1-0.6,0.1-0.8c0-0.3-0.3-0.5-0.6-1
		c0.8,0.1,1.3,0.2,1.8,0.4c0.6,0.1,0.3,0.6,0.4,0.9c-0.4,1.3-0.8,2.6-1.6,3.7c-0.6,0.9-0.8,2.1-1.7,2.9c0-0.3-0.1-0.6-0.1-0.9
		c-0.3,0-0.6,0-0.8,0.2c-0.6,0.4-0.6,1.2-1.4,1.5c-0.1,0-0.2,0.7-0.7,0.6c-0.2,0-0.2-0.6-0.4-0.7c-0.3,0-0.6,0.1-0.9,0.2
		c0-0.7,0-1.3,0.5-1.9c0.2-0.1,0.4-0.2,0.6-0.3C266.5,152.2,267.7,150.5,268.9,148.7z"/>
	<path class="st19" d="M158.2,155.2c-0.7,0-1.4,0-2.1,0c-0.6,0-1.1,0.3-1.7,0.5c1-1.7,1.9-3.4,3-5c0.4-0.6,1.2-1.2,1.2-1.8
		c0.1-0.9,0.5-1.4,1-1.9c0.1-0.1,0-0.5,0-0.7c0.1,0.1,0.4,0.2,0.5,0.4c0,0.5,0,1.1,0,1.6c0,0.6,0.6,0.8,1.4,0.4c0,0.2,0.1,0.5,0,0.7
		c-1,1.7-2.1,3.4-3.1,5C158.2,154.6,158.2,155,158.2,155.2z"/>
	<path class="st23" d="M181.3,164.2c-0.1,0.9-0.6,1.2-1.1,0.9c-0.9-0.6-1.7-0.4-3.2-0.4c0.8,0.4,1.2,0.6,1.5,0.8
		c-0.4,0.9-0.9,1.1-1.6,1.1c-0.6,0-0.3,0.6-0.4,0.9c-1,0.1-2.1,0.3-3.3,0.5c0-0.6,0-1.2,0-1.8c0-0.2-0.1-0.6,0-0.7
		c1.3-0.7,1.1-2.5,2.4-3.1c0.2,0.1,0.5,0.5,0.7,0.5c0.4,0,1.1,0.4,1.2-0.6c0-0.5,0.6-0.9,0.9-1.3c0.3,1.2-0.7,2-1.1,3.2
		C178.8,164.2,180,164.2,181.3,164.2z"/>
	<path class="st24" d="M231.2,150.1c1.1,0.3,0.3,1.3,0.6,1.9c0.5,0.8,0.6,1.9,0.7,3c0.2,1.2,0,2.3-0.9,3.1c-0.1,0-0.3,0-0.5,0
		c-0.7-1.5-1.5-2.9-1.5-4.6c0-0.7-0.3-1.6-0.7-2c-0.8-0.7-0.6-1.5-0.6-2.4c0.3,0,0.6,0,0.9,0.2c0.4,0.3,0.7,0.8,1.2,1.1
		C230.8,150.6,231.2,150.7,231.2,150.1z"/>
	<path class="st25" d="M178.4,160.9c0.2-0.7,0.3-1.5,0.6-2.1c0.1-0.2,0.6-0.3,0.9-0.5c-0.2-0.5-0.4-1-0.6-1.4
		c-0.3-0.5-0.7-0.7-1.2-0.2c0,0-0.4-0.3-0.6-0.5c1.2-0.6,1.8-1.8,2.4-2.9c0.6-0.9,0.6-2,1.4-2.8c0,0.3,0,0.7,0.1,0.8
		c0.7,0.3,1.5,0.4,2.2,0.6c-0.9,1.2-1.3,2.9-2.6,3.9c-0.4,0.3-0.5,1.2-0.7,1.8c-0.2,0.5,0.5,1.2-0.6,1.5c-0.3,0-0.5,1-0.7,1.5
		C178.9,160.7,178.7,160.8,178.4,160.9z"/>
	<path class="st26" d="M253.4,136.4c-0.6,0.6-0.5,1.5-0.5,2.3c-0.5,0-0.9,0.1-1.4,0.1c0,0.8-0.1,1.6-0.4,2.3
		c-0.2,0.4-0.1,0.9-0.6,1.2c-0.2,0.1-0.6-0.1-0.8-0.1c-0.2,0-0.4,0.2-0.6,0.3c-0.1-1.5,0.4-2.9,0.8-4.3c0.2-0.7,0.2-1.5,0.2-2.3
		c0-0.7,0-1.3,0.5-1.9c0.6,0.6,1.2,1.2,1.9,1.9C252.8,136.1,253.1,136.3,253.4,136.4z"/>
	<path class="st27" d="M184.6,98.7c0.9,0.6,2.3,0.4,2.7,1.7c-0.3,0.4-0.6,0.9-1.2,1.6c1,0,1.8,0.6,1.8-0.9c0-0.5,0.3-1,0.5-1.4
		c0.9,1.2,0.7,1.2,0.3,2.4c-0.2,0.6-0.5,1.3-0.2,2c0.1,0.3,0.6,0.5,0.9,0.7c-0.8,0-1.7,0.1-2.4-0.5c-0.8-0.7-1.8-0.4-2.8-0.5
		c0.4-1,1.3-2.1,0.8-3C184.6,100.1,184.7,99.5,184.6,98.7z"/>
	<path class="st28" d="M234.5,116.6c0.7,0,1.4-0.1,2.1,0c0.7,0.1,1.2-0.2,1.7-0.5c0,1.6,0.4,2.6,1.2,3.9c0.1,0.2,0.1,0.6,0.2,0.8
		c-0.9-0.1-1.8,1-2.7,0.1c0,0.3-0.1,0.6-0.1,0.8c-0.2-0.3-0.6-0.6-0.7-1C235.5,119.5,235,118.1,234.5,116.6z"/>
	<path class="st29" d="M154.4,135.9c0.7-0.4,1.2-0.8,1.4-1.6c0.2-0.6,0.5,0.3,0.9,0c0-0.5,0-1.1,0-1.7c0.1,0,0.4,0.1,0.4,0.2
		c0,0.8,0,1.7,0.1,2.5c0.1,0.9,0.5,1.8,0.4,2.6c-0.1,1.2,0.6,2.1,1,3.1c-0.2,0.1-0.6,0.5-0.6,0.5c-0.3-0.3-0.6-0.6-0.8-1
		c-0.2-0.5,0.1-1-0.4-1.5c-0.6-0.6-1,0.6-1.6,0.1c-0.1-0.1-0.3,0-0.5,0c0.3-0.6-0.8-1,0-1.7C155,137.4,154.6,136.5,154.4,135.9z"/>
	<path class="st30" d="M224.6,103.4c0.2,0.6,1,1.1,0,1.7c0.1,0.2,0.3,0.5,0.5,0.7c-1.4,0.3-2.8-0.4-4.1-0.5c-0.6,0-0.5-0.4-0.6-0.7
		c-0.2-0.6-1.3,0.3-1.4-0.7c0.1-0.1,0.5-0.2,0.5-0.3c-0.1-0.9,0.2-1.2,1.1-1.1c0.1,0,0.2-0.3,0.3-0.5c1.2,0,1.9,0.8,2.9,1.2
		C224,103.4,224.4,103.4,224.6,103.4z"/>
	<path class="st31" d="M327.4,122.7c0.7-0.1,0.2,1.2,1.2,1c0.5-0.1,1.1,0.1,1.8,0.3c-0.3-0.4-0.4-0.7-0.6-1c-0.4-0.6-1-1.2-1.3-1.8
		c-0.4-0.9,0.3-0.8,0.8-0.8c1.4,1.8,1.4,1.8,1.3,4.6c-0.3,0.5-0.6-0.9-1,0c-0.1,0.3-0.8,0.4-1.1,0.7c-0.7,0.8-1.5,1.4-2.5,1.8
		c0-0.6-0.2-1.2,0.5-1.7c-0.7-0.5-0.4-1,0-1.5c-0.1,0-0.3-0.1-0.4-0.2c0.1-0.1,0.2-0.3,0.4-0.5C326.7,123.4,327,123.1,327.4,122.7z"
		/>
	<path class="st32" d="M232.7,173.1c0-0.1-0.1-0.4-0.2-0.4c-0.6,0-1.2,0.2-1.8,0.1c-0.5,0-1,0-1.4,0.2c0.5-1.7,1.2-3.3,2.4-4.7
		c0.2,0,0.5,0,0.6,0c1.3-0.5,1.3-0.5,1.7,1c-0.6,0-0.5,0.5-0.5,0.8C233.6,171.3,233.5,172.3,232.7,173.1z"/>
	<path class="st33" d="M249.2,128c0-0.5,0-0.5-0.6-0.6c-0.1,0-0.3-0.1-0.3-0.1c0-1.2-0.9-0.6-1.4-0.7c0-0.3,0-0.6,0.2-0.8
		c0.8-0.9,1.6-1.7,2.4-2.5c0.8-0.7,1.2-0.6,1.8,0.4c0.1,0.2,0.2,0.4,0.3,0.6c0,0.3-0.1,0.6-0.1,0.9c-0.2-0.1-0.4-0.2-0.6-0.3
		c-0.1,1.9-0.1,1.9-1.1,2.8C249.5,127.6,249.3,127.8,249.2,128z"/>
	<path class="st20" d="M250.1,73.3c0.4-1.1-0.6-1.6-0.9-2.4c1.4-0.1,2.8,0,3.7,1.2c0.4,0.6,1.4-0.3,1.5,0.7c-0.1,0-0.4,0.1-0.4,0.1
		c0.2,1-0.7,1.5-1.1,2.2C251.9,74.6,250.5,74.7,250.1,73.3z"/>
	<path class="st34" d="M312.8,98.7c0,0.1-0.1,0.4-0.2,0.4c-0.7,0.3,0.2,1.3-0.7,1.5c-0.5,0.1-1,0.3-1.5,0.5
		c-1.8,0.4-3.4,1.2-4.9,2.3c-0.6,0.4-1.4,0.8-2.2,0.1c0.2-0.3,0.5-0.9,0.6-0.9c0.9,0,1.3-0.8,2-0.9c0.7-0.2,1.2-0.6,1.8-0.9
		C309.4,100,311,99.2,312.8,98.7z"/>
	<path class="st35" d="M113.9,189.6c-0.2,0.6-0.2,1.2-0.5,1.7c-1.2,1.6-1.8,3.5-2.5,5.3c-0.5,1.1-1.4,2-2.2,3c0,0.1-0.3,0-0.5,0
		c-0.2-0.4-0.2-1.2,0-1.5c1.2-1.9,2.4-3.8,3.6-5.7c0.2-0.4,0.5-0.7,0.6-1.2C112.6,190.4,113.2,190,113.9,189.6z"/>
	<path class="st36" d="M330.2,113.3c-0.1-0.6-0.3-1.1-0.5-1.8c1.2-0.1,2.3-0.6,3.1-1.5c0.1-0.2,0.1-0.5,0.2-0.8
		c-0.3,0-0.6-0.1-0.9-0.1c0.5-0.4,0.9-0.8,1.7-1.4c-1,0-1.6,0-2.2,0c1.2-0.7,1.4-0.6,2.8,0.1c-0.3,0.5-0.8,0.9-0.8,1.4
		c0,0.5,0.3,1.1,0.5,1.6c0.1,0.1,0.6,0.1,0.8,0.2c-0.6,0.7-1.6,0.8-2.4,1.4C331.9,112.8,331.2,113.4,330.2,113.3z"/>
	<path class="st37" d="M318.4,103.4c-0.1-0.6,0.3-1.3-0.8-1.6c-0.7-0.2-0.6-0.6,0-1.3c0.2-0.3,0.4-0.9,0.2-1.2
		c-0.6-1.1-1.6-1.3-2.8-1.2c0.4-1,1.2-0.3,1.8-0.5c0.6-0.1,1.2,0,1.9,0.5c0.8,0.6,1,1.6,1.4,2.4c0,0.1-0.2,0.3-0.2,0.5
		C319.7,102.1,318.9,102.7,318.4,103.4z"/>
	<path class="st12" d="M231.2,150.1c0,0.6-0.5,0.6-0.8,0.4c-0.5-0.3-0.7-0.8-1.2-1.1c-0.2-0.1-0.6-0.1-0.9-0.2
		c-0.1-0.2-0.4-0.4-0.5-0.6c0-0.6,0-1.2,0-1.8c0.6-0.1,1.3-0.1,1.6-0.5c0.6-0.6,0.8,0,1.2,0c0.2,0.6,0.6,1,0.5,1.7
		C231.2,148.7,231.2,149.3,231.2,150.1z"/>
	<path class="st38" d="M220.8,80.8c-0.5,1-1,2,0,3.1c0.1,0.1,0,0.5,0,0.7c-0.6-0.2-1.2-0.4-1.8-0.6c-0.8-0.5-1.6-1-2.4-1.5
		c0.7-0.3,0.8-1.3,1.7-1.8C219.4,80.1,220.1,80.4,220.8,80.8z"/>
	<path class="st31" d="M263.3,141.1c0-0.2,0.1-0.6,0-0.7c-1.3-0.6-1.3-1.4-0.5-2.4c0.1-0.1,0-0.5,0-0.7c-0.1-0.7,0.2-1.2,0.8-1.4
		c0.6-0.2,1.3-0.3,2-0.5c0,1.7-1.2,3-1.5,4.5C264.1,140.4,263.6,140.7,263.3,141.1z"/>
	<path class="st39" d="M232.4,93.5c-1.1-1.2-2.2-1.7-1.7-3.1c-0.7-1,0.6-0.9,0.8-1.5c0-0.1,0.7-0.1,1.1,0.1c1.3,0.7,1.5,2.4,0.5,3.5
		C232.8,92.7,232.7,93,232.4,93.5z"/>
	<path class="st37" d="M200.1,160c0.2,0,0.5-0.1,0.7,0c0.9,0.6,1.2,0.6,2.2,0.5c-0.4,1.2-1,2.4-1.9,3.3c-0.8-0.3-1.6-0.6-2.4-0.9
		C198.7,161.6,198.9,160.6,200.1,160z"/>
	<path class="st40" d="M153.9,158.1c0.5,0.1,0.9,0.3,1.4,0.5c-0.6,1.1-1,2.3-1.9,3.2c-0.6,0.6-1.2,0.6-1.8,0.6
		c-0.5-0.6-0.5-1.2-0.5-1.9C152.1,159.6,153,158.8,153.9,158.1z"/>
	<path class="st41" d="M231.2,158.1c0.1,0,0.3,0,0.5,0c1,0.7,2.1,1.3,1.9,2.8c0,0.4-0.1,1.1,0,1.1c1.2,0.5-0.4,1.3,0.3,1.8
		c-0.1,0.1-0.2,0.3-0.3,0.3c-0.5-0.1-1-0.3-1.9-0.6c0.8-0.4,1.2-0.6,1.4-0.6c-0.9-1.4-1.7-2.5-2.3-3.6
		C230.7,158.9,230.4,158.3,231.2,158.1z"/>
	<path class="st42" d="M252.4,135.9c-0.6-0.6-1.2-1.2-1.9-1.9c0-0.7,0-1.4,0-2.1c0-0.6,0.3-1.1,0.5-1.7c0.5-0.1,0.9-0.3,1.4-0.5
		c0,0.5,0,1.1,0.2,1.3c0.9,0.9-0.4,1.9,0.2,2.8C251.7,134.4,252.5,135.2,252.4,135.9z"/>
	<path class="st43" d="M154.9,139.2c0.1,0,0.4,0,0.5,0c0.6,0.4,0.9-0.8,1.6-0.1c0.5,0.5,0.2,1,0.4,1.5c0.1,0.4,0.5,0.7,0.8,1
		c0,0,0.4-0.3,0.6-0.5c0.3,0.2,0.6,0.5,0.9,0.6c0.3,0.1,0.6,0.2,1,0.3c-0.1,0.6-0.6,2-0.9,2.4c0.3-0.6-0.8-1.1,0-1.7
		c-0.2-0.1-0.5-0.3-0.6-0.2c-0.4,0.2-0.7,0.6-1.1,0.9C156.8,142.2,155.6,140.8,154.9,139.2z"/>
	<path class="st12" d="M233.6,143.5c-0.6,0.1-1.1,0.4-1.7,0.4c-0.5,0-1-0.3-1.5-0.4c-0.5-0.1-0.9,0.3-0.6,0.6c0.4,0.5,0.4,0.8-0.1,1
		c-0.6,0.2-1.1,0.9-1.8,0.7c0-0.7,0-1.4,0-2.1c0.2-0.2,0.5-0.4,0.6-0.6c0.7-0.7,1.3-1.5,2.5-0.6c0.3,0.2,0.9,0,1.4,0
		C233.1,142.5,233.4,142.9,233.6,143.5z"/>
	<path class="st30" d="M151.1,160.4c0,0.7,0,1.3,0.5,1.9c-0.8,0.1-1.6,0.4-2.4,0.5c-0.8,0.1-1.6,0-2.4,0c0-0.5,0-0.9-0.5-1.2
		c-0.1,0,0-0.5,0.2-0.6c0.1-0.1,0.4-0.1,0.6,0c0.2,0.1,0.3,0.3,0.5,0.5c0.7,0.7,1.3,0.4,2.1-0.4c-0.6-0.4-1.3-0.7-1.9-1.1
		c0.5-0.8,1.2-0.6,1.8-0.3C150.2,159.9,150.6,160.2,151.1,160.4z"/>
	<path class="st44" d="M234.1,169.4c-0.4-1.4-0.4-1.5-1.7-1c-0.2,0.1-0.5,0-0.6,0c0.3-1.4,1.2-2.4,2-3.6c0.3-0.4,0.7-0.2,0.9,0.1
		c0.2,0.3,0.4,0.6,0.4,1C235.1,167.2,235,168.4,234.1,169.4z"/>
	<path class="st45" d="M252.4,129.8c-0.5,0.1-0.9,0.3-1.4,0.5c-0.9-0.1-0.4-0.8-0.5-1.3c0-0.7-0.1-1.3-1-1.5
		c0.9-0.8,0.9-0.8,1.1-2.8c0.2,0.1,0.4,0.2,0.6,0.3c0-0.3,0.1-0.6,0.1-0.9c0.6,1.1,0.6,1.1-0.2,1.9c-0.1,0.1-0.1,0.7-0.1,0.7
		C253,127.2,252.3,128.7,252.4,129.8z"/>
	<path class="st46" d="M107.7,200.5c0.1,1.5-1,2.5-1.3,3.9c0,0.3-0.5,0.4-0.6,0.7c-0.1,0.4,0.1,1-0.1,1.3c-0.2,0.3-0.7,0.4-1.1,0.7
		c-0.3,0.2-0.5,0.6-0.7,0.9c-0.1-1,0.1-1.9,0.6-2.8c0.4-0.6,0.9-1.2,0.8-2c0-0.6,1.5-0.4,0.9-1.4
		C106.8,201.4,107.3,200.9,107.7,200.5z"/>
	<path class="st47" d="M100.2,216.9c0.6,0,1.2,0,0.9,0.7c-0.1,0.6,0.3,1.1,0.5,1.6c-0.7,0.2-1,0.7-0.9,1.4c-0.7,0.1-1.2-0.2-1.4-0.9
		c-0.4-0.7,0.8-1.4,0-2.2C99.6,217.4,99.9,217.2,100.2,216.9z"/>
	<path class="st20" d="M155.4,126.1c0.1,1,1.2,0,1.5,0.9c-0.3,0.3-0.6,0.8-1,1.4c0.3,0.3,0.6,0.6,0.9,0.9c-0.6,0.6-1.5-0.6-2.3,0.1
		C154.5,128.2,154.1,126.9,155.4,126.1z"/>
	<path class="st48" d="M99.3,219.8c0.2,0.7,0.7,1,1.4,0.9c-0.5,0.6-0.5,1.2-0.5,1.9c0,0.5-0.3,1-0.6,1.4c0-1-0.9-1.4-1.2-2
		C98.1,221.2,98.4,220.3,99.3,219.8z"/>
	<path class="st7" d="M264.7,154.3c-0.5,0.6-0.5,1.2-0.5,1.9c-1,1-1.3,2.3-1.9,3.4c-0.1,0.1-0.3,0.2-0.5,0.4
		c-0.5,0.4-1.1,0.7-1.4,1.2c-0.6,0.8-1.2-0.7-1.7,0.2c0,0-0.2-0.1-0.1-0.1c0.3-1.1-0.9-1.9-0.4-3.2c0.6-1.6,1-3.2,2.2-4.5
		c0.5-0.6,0.7-1.4,0.9-2.2c0.5-2,1.7-3.7,2.7-5.4c0.5-0.8,0.4-1.8,1.2-2.4c1.4,0,2.2-1,3-1.8c0.4,0.8,0.8,1.5,1.3,2.3
		c-0.1,0.3-0.1,0.7-0.3,1c-0.3,0.4-0.8,0.7-1.1,1.2c-1.3,2.6-2.5,5.3-3.7,8C264.4,154.2,264.6,154.2,264.7,154.3z"/>
	<path class="st11" d="M256.7,148.2c0.8-0.3,1.5-0.6,1.5-1.8c0-0.5,0.7-1,1.1-1.5c1,0.6,1.1,1.6,0.7,2.1c-0.6,0.7-0.3,1.5-0.4,2.2
		c-0.6,1.6-1.4,3.2-1.8,4.9c-0.2,1-0.9,1.5-1.5,2.2c-1.1-0.3,0-1.4-0.7-1.9c-0.6,1-1.1,0.2-1.7,0c-0.1-0.5,0.2-0.8,0.4-1.2
		c0.7-1.5,1.3-3,1.9-4.5C256.3,148.4,256.5,148.3,256.7,148.2z"/>
	<path class="st26" d="M253.9,154.3c0.6,0.2,1.1,1,1.7,0c0.7,0.5-0.4,1.6,0.7,1.9c0.1,0.6,0.3,1.1,0.5,1.7c-0.8,0.7-1.4,0-2-0.3
		c-0.4-0.2-0.7-0.9-0.8-1.4C253.8,155.6,253.9,154.9,253.9,154.3z"/>
	<path class="st6" d="M296.7,132.2c-0.1,1.4-0.4,2.8-0.5,4.2c-0.1,1.4,0,2.8,0,4.2c-0.1-0.1-0.5-0.3-0.5-0.4
		c0.3-2.6-0.5-5.1-1.6-7.7C295.2,132.7,296.1,132.7,296.7,132.2z"/>
	<path class="st10" d="M313.7,111.4c-1,1-2.5,0.9-3.5,1.8c-0.4,0.4-1,0.6-1.7,1c-0.4-0.2-0.9-0.6-1.5-0.8c-1-0.4-0.8-1.4-1.1-2.1
		c-0.1-0.4,0.5-1.1,0.8-1.6c0.2-0.3,0.6-0.5,0.9-0.6c0.2,0.3,0.5,0.6,0.7,1c1,0,1.8-1.4,3-0.8c-0.1,0.7-0.3,1.3-0.4,1.9
		c0,0.2,0.2,0.5,0.3,0.7c0.2-0.1,0.4-0.3,0.6-0.5c0.4-0.3,0.7-0.7,1.1-0.9C313.9,110.2,313.7,110.9,313.7,111.4z"/>
	<path class="st10" d="M311.4,106.3c0.5-0.6,0.9-1.2,1.4-1.9c0.7-0.4,1.3-0.2,1.4,0.4c0.2,1-0.4,2.1,0.4,3.1c0.2,0.3-1,1-1.3,0.7
		C312.4,108,311.4,107.5,311.4,106.3z"/>
	<path class="st49" d="M189.3,120.9c0,2.1-0.3,2.5-1.8,3.9c-0.3,0.3-0.4,0.8-0.6,1.2c-0.4,0.6-0.9,1.2-1.4,1.7
		c-0.2,0.2-0.6,0.3-0.8,0.3c-0.5,0-1,0.3-1.2-0.7c-0.1-0.5-1-0.7-1.5-1.2c-0.2-0.1-0.1-0.5-0.2-0.8c1.3-0.1,0.6-1.3,1-1.9
		c0.3,0,0.7,0.2,0.8,0.1c0.5-0.8,0.6-1.7,0.5-2.6c0.9-0.5,2.4,0,2.8-1.4c0.1,0.2,0.5,0.4,0.5,0.6c-0.1,0.8,0.3,0.9,1,0.8
		C188.7,120.9,189,120.9,189.3,120.9z"/>
	<path class="st50" d="M325,123.2c-1.4,0.5-2.7,1-4.1,1.4c-1,0.3-2.1,0.6-3.1,1c-0.6,0.3-1.1,0.9-1.7,1.5c-0.6-0.4-1.2-0.8-1.6-1.7
		c-0.5-1.4-0.4-2.2,0.9-2.7c1.8-0.8,3.7-1.5,5.6-2.3c1.6-0.6,3.2-1.2,4.8-1.9c1.1,1.5,1.2,1.6,0.3,2.7
		C325.8,121.8,325.4,122.5,325,123.2z"/>
	<path class="st37" d="M195.4,125.1c0,1.1,0,2.1,0,3c-0.4,0.3-0.8,0.5-1.2,0.7c-1.3,0.9-2.6,0.6-3.2-0.9c0-0.1,0.3-2.3,0.4-2.4
		c0.6-0.6,1.1-0.6,1.8-0.2C193.7,125.6,194.5,125.2,195.4,125.1z"/>
	<path class="st51" d="M189.3,120.9c-0.3,0-0.6,0-0.9,0c0.1-1.2,0.8-2.2,1.7-2.7c0.6-0.4,0.7-1.2,1.5-1.3c0.5-0.1,0.8-1,1.2-1.5
		c0.6-0.8,0.9-0.7,2.1,0.1c-1.2,1.6-2.6,3-3.3,4.8C191.2,121.2,190.1,120.8,189.3,120.9z"/>
</g>
<g>
	<path d="M855.4,188.4c-0.2-0.7-0.7-0.9-1.5-0.7c-0.7,0.1-1.4,0.3-2,0.4c-4.1,0.9-8.1,1.9-12.2,2.8c-3.2,0.7-6.5,1.5-9.7,2.2
		c-1.4,0.3-2.8,0.6-4.3,1c0.1-0.2,0.1-0.3,0.2-0.3c1.9-2.6,3.6-5.2,4.9-8c1.1-2.4,2.1-4.7,2.9-7.1c1.2-3.2,1.9-6.5,2.3-9.8
		c0.6-4.7,0.7-9.5-0.1-14.2c-0.4-2.3-0.9-4.6-1.5-6.9c-0.8-2.4-1.6-4.9-2.8-7.3c-1.6-3.4-3.6-6.6-6-9.6c-1.9-2.5-4.1-4.9-6.5-7.1
		c-1.5-1.5-3.2-2.8-4.9-4.2c-2.4-1.8-4.9-3.5-7.6-5.1c-3.5-2-7-3.8-10.8-5.2c-3.6-1.4-7.4-2.6-11.4-3.4c-1.7-0.3-3.4-0.7-5.2-0.9
		c-0.1-0.7-0.2-1.3-0.2-2c-1.5-9.1-6.6-16.4-15.7-21.4c-6.9-3.8-14.5-5.6-22.4-6.7c-13.3-1.8-26.7-2.4-40.1-2.4
		c-7.7,0-15.3,0.1-23,0.3s-15.3,0.6-22.9,1.1c-14.7,1-29.2,3-43.5,6.2c-8.8,2-17.6,4-25.9,7c-8.2,2.9-15.8,6.7-22.1,12.1
		c-7,6-10.9,13.1-11,21.6c0,8.9,3.9,16.4,11.6,22.4c6,4.7,13.5,7.2,21.4,8.4c7.4,1.2,15,1.5,22.6,1.6c11.3,0.1,22.6,0,36.7,0
		c5.2-0.1,13.1-0.3,21-0.6c6.3-0.2,12.8-0.5,19.1-0.9c6.7-0.4,13.5-0.9,20.2-1.3c2.4-0.1,4.8-0.4,7.3-0.6c1-0.1,1.5-0.9,1.4-1.8
		c-0.2-0.8-0.6-1.1-1.7-1.1c-3.9,0.3-7.9,0.7-11.8,0.9c-10.8,0.6-21.6,1.3-32.4,1.7c-12.2,0.5-24.4,0.7-36.6,0.9
		c-10.9,0.2-21.8,0.3-32.7-0.6c-5.4-0.4-10.8-0.8-16-2c-7.6-1.6-14.4-4.6-19.5-9.8c-7-7.2-9.6-15.4-6.6-24.5c2-6.1,6.4-11,12.1-15
		c5.5-3.9,11.7-6.7,18.3-8.9c13-4.4,26.5-7.6,40.1-9.8c10.8-1.8,21.7-3,32.6-3.6c6.2-0.3,12.4-0.7,18.6-0.8c7-0.1,14.2-0.2,21.2-0.1
		c8.3,0.1,16.6,0.5,24.9,0.8c6.2,0.2,12.4,0.5,18.6,1.4c6.3,0.9,12.4,2.5,17.9,5.3c7.8,3.9,12.8,9.6,14.9,17.1
		c1.8,6.2,1.3,12.3-0.7,18.5c-2.9,9.1-9.4,16.2-17.8,22.1c-6.8,4.7-14.5,8.2-22.6,11.1c-8.6,3.1-17.5,5.5-26.5,7.8
		c-13.1,3.5-26.6,5.7-40.4,6.2c-9.4,0.3-18.6-0.3-27.8-1.9c-1.2-0.2-1.9,0.1-2.2,1.1c-0.2,0.9,0.2,1.5,1.4,1.6
		c9.6,1.7,19.3,2.3,29.1,2c8-0.3,16.1-1.2,24-2.6c11.1-2,21.9-4.7,32.6-7.9c9.7-2.9,19.2-6.5,27.8-11.3c7.7-4.4,14.5-9.6,19.3-16.5
		c5.1-7.3,8.1-14.9,7.9-23.2c4,0.7,8,1.5,11.8,2.8c4.1,1.3,8,3,11.7,4.9c2.6,1.5,5.2,3.1,7.6,4.7c2.1,1.5,4.1,3,5.9,4.7
		c2.1,1.9,3.9,4,5.8,6c2.7,3.1,4.9,6.5,6.6,10.1c1.1,2.4,2.1,4.7,2.9,7.2c1.1,3.4,1.7,6.8,2,10.3c0.4,4.6,0.1,9.2-0.8,13.7
		c-0.6,3.1-1.5,6.1-2.7,9.2c-1.4,3.4-3.1,6.7-5.3,9.8c-0.7,1.1-1.5,2-2.2,3.1c-0.2-0.2-0.1-0.3-0.1-0.4c0.6-2.6,1.2-5.1,1.8-7.8
		c0.8-3.4,1.5-6.9,2.3-10.3c0.2-1.1,0.5-2.2,0.8-3.4c0.2-0.7-0.3-1.3-1.2-1.4c-0.8-0.1-1.1,0.1-1.3,0.9c-0.4,1.6-0.8,3.2-1.2,4.9
		c-0.5,2.2-1,4.4-1.5,6.7c-0.5,2.5-1.2,5-1.7,7.5c-0.4,1.9-0.9,3.8-1.2,5.7c-0.2,0.9,0.6,1.5,1.6,1.2c2.2-0.5,4.3-1,6.5-1.5
		c2.6-0.6,5.2-1.2,7.7-1.8c2.7-0.6,5.4-1.2,8.1-1.8c2.8-0.7,5.6-1.3,8.4-1.9c0.9-0.2,1.9-0.5,2.8-0.7
		C855.3,189.6,855.6,189,855.4,188.4z"/>
	<path d="M806.7,219.8c-1.4-0.3-2.9-0.5-4.3-0.9c-1.4-0.3-2.8-0.6-4.2-0.9c0.1-0.1,0.1-0.1,0.1-0.1c2.2-0.7,4.3-1.3,6.6-2
		c1-0.3,1.9-0.6,2-1.6c0.2-0.9-0.5-2-2.1-1.6c-0.9,0.3-1.7,0.5-2.6,0.8c-1.7,0.5-3.4,1.1-5.2,1.6c-1.8,0.5-3.5,1.1-5.3,1.6
		c0-0.1,0-0.2,0-0.2c0.8-1.8,1.6-3.6,2.4-5.5c0.6-1.5,1.2-2.8,1.9-4.3c0.2-0.5,0.2-1-0.3-1.3c-1-0.8-2.6-0.5-3.1,0.6
		c-0.9,1.9-1.7,3.9-2.6,5.8c-0.5,1.3-1.2,2.6-1.8,4c-0.9-1.4-1.6-2.7-2.3-4c-1.5-2.6-3.1-5.3-4.6-7.9c-0.5-0.9-1.5-1.2-2.3-0.8
		c-1,0.4-1.4,1.3-0.9,2.1c0.3,0.5,0.6,1.1,0.9,1.6c1.5,2.5,2.9,5.1,4.5,7.6c0.2,0.3,0.3,0.5,0.5,0.9c-0.5-0.1-0.9-0.1-1.2-0.2
		c-3.2-0.7-6.6-1.3-9.8-1.9c-0.8-0.1-1.3,0.1-1.9,0.5c-0.5,0.4-0.7,0.9-0.5,1.5c0.2,0.6,0.6,0.9,1.4,1.1c0.7,0.1,1.3,0.3,1.9,0.4
		c2.7,0.5,5.3,1.1,8,1.6c0.9,0.2,1.7,0.3,2.7,0.6c-0.2,0.1-0.3,0.1-0.5,0.2c-1.5,0.5-3.1,0.9-4.6,1.4c-2.2,0.7-4.5,1.4-6.7,2
		c-0.6,0.2-1.3,0.4-1.7,1c-0.4,0.6-0.4,1.5,0.2,2c0.4,0.4,1,0.5,1.9,0.3c0.8-0.3,1.6-0.5,2.4-0.7c2-0.6,4-1.2,6-1.8
		c1.2-0.4,2.6-0.7,3.9-1.2c-0.3,0.7-0.5,1.1-0.7,1.6c-0.7,1.6-1.5,3.2-2.2,4.8c-0.3,0.7-0.2,1.3,0.5,1.6c1.2,0.7,2.4,0.3,2.9-0.9
		c0.6-1.4,1.2-2.8,1.9-4.2c0.2-0.5,0.5-1,0.7-1.6c1.9,3.1,3.6,6.1,5.3,9.2c0.3,0.5,0.6,1.1,1.5,1.3c0.8,0.1,1.4-0.1,1.9-0.7
		c0.5-0.5,0.5-1.1,0.1-1.6c-1.1-1.8-2.1-3.5-3.2-5.3c-1.2-1.9-2.3-3.9-3.5-5.9c0.4,0,0.7-0.1,1-0.1c2.6,0.5,5.2,1.1,7.7,1.5
		c2.1,0.4,4.1,0.8,6.2,1.2c1,0.2,1.9-0.4,2.2-1.3C808.2,220.5,807.8,220,806.7,219.8z"/>
</g>
<g>
	<path d="M635.1,103.1c0.4-0.3,0.7-0.4,0.9-0.4c0.3,0.1,0.4,0.3,0.4,0.8c0,0.3-0.1,0.7-0.4,1c-0.2,0.3-0.6,0.7-1,0.9
		c-0.4,0.3-0.9,0.6-1.4,0.8c-0.5,0.3-1,0.5-1.5,0.7c-0.5,0.2-1,0.4-1.4,0.5s-0.8,0.2-1,0.3c-0.7,0.1-1.4,0.2-2.1,0.2
		c-0.7,0-1.4-0.1-2.1-0.2c-0.7-0.2-1.4-0.4-2-0.8c-0.6-0.4-1.1-0.9-1.5-1.5c-0.7-1.1-0.9-2.2-0.8-3.6c0.1-1.3,0.7-3.1,1.7-5.3
		c0.6-1.2,0.9-2.1,1.1-2.7c0.1-0.4,0.4-1.1,0.9-2.1c0.7-1.3,0.8-1.9,0.2-1.9c-0.4,0-1,0.4-1.8,1.1c-0.7,0.6-1.3,1.1-2,1.6
		c-0.5,0.3-1.3,1.3-2.6,3.1c-1.3,1.7-2,3-2.4,3.6c-0.3,0.7-0.7,1.5-1.2,2.2c-0.9,1.4-1.9,2.9-2.8,4.6c-0.5,1-0.8,1.4-1,1.4
		c-0.1,0-0.4,0.1-0.8,0.2c-0.4,0.1-0.9-0.1-1.3-0.7l-0.6-0.9l0.8-1.3c0.4-0.5,0.9-1.5,1.7-2.9c0.8-1.4,1.3-2.3,1.7-2.8
		c0.3-0.4,0.6-1,1-1.8c0.4-0.8,0.8-1.5,1.1-2.3c0.3-0.8,0.6-1.3,0.7-1.7c0.1-0.5,0.4-1.2,0.8-1.9c0.3-0.6,0.5-1.2,0.6-1.9
		c0.1-0.7,0-1.2-0.2-1.4c-0.1-0.1-0.3-0.1-0.7,0.1c-0.4,0.2-0.9,0.4-1.4,0.6c-0.5,0.3-1,0.5-1.4,0.8c-0.5,0.3-0.8,0.5-0.9,0.7
		c-0.4,0.4-0.7,0.6-1,0.6c-0.3,0-0.7-0.3-1.1-0.7c-0.5-0.5-0.7-0.8-0.7-0.8c0-0.2,1-0.9,2.9-2c1.9-1.1,3.3-1.8,4.3-2.2
		c0.4-0.1,1-0.2,1.7-0.1c0.7,0.1,1.2,0.2,1.5,0.4c0.2,0.1,0.3,0.3,0.4,0.4c0.1,0.2,0.1,0.4,0.2,0.6c0,0.3,0,0.7,0,1.2v1.7l1.8-1.3
		c0.8-0.6,1.4-1,1.7-1.2c0.4-0.2,0.9-0.3,1.7-0.3c0.8,0,1.4,0,1.5,0.1c0.2,0.1,0.4,0.4,0.5,0.9c0.3,0.6,0.3,1.4,0.2,2.4
		c-0.2,1.2-0.5,2.5-1,4.1c-0.5,1.5-0.9,2.7-1.3,3.4c-0.5,1-0.7,1.7-0.7,2.1c0,0.5-0.1,0.8-0.4,1c-0.3,0.3-0.6,0.7-0.7,1.2
		c-0.1,0.5-0.1,1,0,1.5c0.1,0.5,0.3,0.9,0.6,1.3c0.3,0.4,0.7,0.6,1.1,0.7c0.8,0.1,1.7,0.2,2.7,0.1c1-0.1,2-0.2,3-0.4
		c0.3-0.1,0.6-0.2,0.7-0.3C633.3,104.3,634.3,103.7,635.1,103.1z"/>
	<path d="M650.2,104.9c0.3-0.3,0.6-0.4,0.9-0.3c0.2,0,0.4,0.3,0.4,0.7c0,0.1,0,0.3-0.1,0.4c-0.1,0.1-0.1,0.2-0.2,0.3
		c-0.1,0.1-0.2,0.2-0.3,0.3c-0.2,0.1-0.3,0.2-0.3,0.3c-0.1,0.1-0.2,0.1-0.4,0.3c-0.2,0.1-0.3,0.2-0.3,0.2c-1.1,0.7-1.6,1.1-1.6,1.2
		c-0.1,0.1-0.3,0.2-0.7,0.3c-0.4,0.1-0.6,0.2-0.8,0.2c-0.3,0.1-0.5,0.1-0.7,0.1c-0.2,0-0.4,0-0.7-0.1c-0.2-0.1-0.4-0.1-0.5-0.2
		c-0.1,0-0.2-0.1-0.3-0.1c-0.4-0.2-1-0.6-1.7-1.3l-0.9-0.8l-1.1,0.8c-0.8,0.5-1.6,0.9-2.5,1c-0.8,0.1-1.5,0-2.2-0.2
		c-0.7-0.2-1.2-0.7-1.6-1.3c-0.4-0.6-0.5-1.3-0.3-2.1c0.2-0.9,0.6-1.8,1.3-2.9c0.7-1,1.4-1.9,2.2-2.7c0.6-0.6,1.1-0.8,1.4-0.8
		c0.2,0,0.4,0.2,0.7,0.5c0.2,0.2,0.3,0.4,0.3,0.5c0,0.1-0.1,0.4-0.3,0.8c-1.9,3.6-2.3,5.6-1.4,5.9l0.2,0c0.6,0.1,1.5-0.4,2.5-1.5
		c1.1-1.1,1.8-2.2,2.3-3.4c0.3-0.8,0.7-1.5,1.2-2.1c0.4-0.5,0.7-0.8,0.9-0.9c0.2-0.1,0.5,0,1,0.3c0.4,0.2,0.6,0.5,0.7,0.8
		c0,0.3-0.1,0.7-0.5,1.4c-0.2,0.3-0.3,0.5-0.4,0.9c-0.1,0.3-0.2,0.6-0.2,0.8c0,0.1-0.1,0.2-0.1,0.4c0,0.2-0.1,0.4-0.1,0.5
		c-0.1,0.4-0.2,0.7-0.2,0.9c-0.2,0.6-0.2,1.2-0.2,1.8s0.1,0.9,0.3,1.1c0.2,0.2,0.5,0.2,1,0.3c0.1,0,0.3-0.1,0.6-0.2
		c0.3-0.1,0.6-0.2,0.7-0.3C648.6,106,649.5,105.4,650.2,104.9z"/>
	<path d="M660.7,105.4c0.3-0.3,0.6-0.4,0.9-0.3s0.4,0.3,0.4,0.7c0,0.1,0,0.3-0.1,0.4c-0.1,0.1-0.1,0.3-0.2,0.3
		c-0.1,0.1-0.2,0.2-0.3,0.3c-0.1,0.1-0.3,0.2-0.3,0.3c-0.1,0.1-0.2,0.1-0.4,0.3s-0.3,0.2-0.3,0.2c-0.4,0.2-0.7,0.4-1.1,0.6
		c0,0-0.1,0-0.1,0.1c-0.1,0-0.1,0-0.2,0.1c-0.1,0-0.1,0-0.2,0.1c-0.1,0-0.1,0-0.1,0.1l-0.1,0c-0.9,0.4-1.9,0.6-3,0.7
		c-1.1,0.1-1.9,0-2.4-0.3c-0.1,0-0.3-0.1-0.7-0.3c-0.4-0.2-0.7-0.3-0.9-0.5c-0.3-0.2-0.7-0.7-1-1.5c-0.6-1.4-0.9-2.5-0.9-3.6
		c0-0.6,0.1-1.5,0.3-2.5c0-0.1,0-0.2,0.1-0.4c0-0.2,0.1-0.3,0.1-0.4c0-0.1,0.1-0.2,0.1-0.4c0-0.2,0.1-0.3,0.1-0.4
		c0-0.1,0.1-0.2,0.2-0.4c0.1-0.1,0.1-0.2,0.2-0.3c0.3-0.4,0.6-0.8,0.8-0.9c0.8-0.8,1.8-1.2,3.1-1.1c1.3,0.1,2,0.5,2.1,1.3
		c0.1,0.6,0.1,1.2-0.1,1.8s-0.4,1.1-0.6,1.5c-0.2,0.4-0.6,0.9-1,1.6c-0.4,0.6-0.7,1.1-0.9,1.5c-0.7,1.2-1,2-1,2.2
		c0,0.2,0.2,0.5,0.6,0.8c0.2,0.2,0.5,0.4,0.6,0.4c0.2,0,0.5,0,1-0.1c0.8-0.1,1.6-0.3,2.5-0.6c0.3-0.1,0.8-0.3,1.5-0.6
		C660.1,105.7,660.5,105.5,660.7,105.4z M651.9,103.8c0.1,0,0.5-0.6,1.1-1.8c0.6-1.2,0.9-1.9,0.9-2.1c0-0.3-0.2-0.5-0.5-0.6
		c-0.3-0.1-0.6,0-0.7,0.2c-0.2,0.2-0.3,0.5-0.5,0.8c-0.2,0.4-0.3,0.7-0.4,1.1c-0.1,0.4-0.1,0.7-0.2,1.1c-0.1,0.3-0.1,0.6,0,0.9
		C651.7,103.6,651.8,103.8,651.9,103.8z"/>
	<path d="M671.9,103.6c0.3-0.3,0.6-0.4,0.9-0.3c0.2,0.1,0.4,0.3,0.4,0.7c0,0.1,0,0.2,0,0.3c0,0.1-0.1,0.2-0.1,0.3
		c-0.1,0.1-0.1,0.2-0.2,0.3c-0.1,0.1-0.2,0.2-0.2,0.2c-0.1,0.1-0.2,0.1-0.3,0.2c-0.1,0.1-0.2,0.1-0.3,0.2c-0.1,0.1-0.2,0.1-0.3,0.2
		c-0.1,0.1-0.2,0.1-0.2,0.2c-0.4,0.2-0.7,0.4-1.1,0.6c0,0-0.1,0.1-0.2,0.1c-0.4,0.4-0.8,0.7-1.1,0.9c-0.3,0.1-0.7,0.2-1.2,0.2
		c-0.5,0.2-0.9,0.1-1.1,0c-0.1,0-0.2,0-0.5,0c-0.3,0-0.5,0-0.6-0.1c-0.1,0-0.3,0-0.5,0c-0.2,0-0.4,0-0.6,0.1c-0.2,0-0.3,0.1-0.5,0.2
		c-0.2,0.1-0.4,0.2-0.7,0.2s-0.8-0.1-1.6-0.2c-0.5-0.1-1-0.1-1.3-0.2c-0.1,0-0.2,0-0.2,0s-0.2,0-0.3,0c-0.1,0-0.2,0-0.2-0.1
		c-0.2-0.1-0.4-0.5-0.6-1.2c-0.1-0.4-0.2-0.8-0.2-1.3c0-0.2,0-0.3,0-0.4c0.1-0.4,0.2-0.6,0.4-0.7c0.1,0,0.2-0.1,0.3-0.1
		c0.2,0,0.3-0.1,0.4-0.2c0.1-0.1,0.2-0.3,0.3-0.5c0.1-0.3,0.1-0.5,0.2-0.8c0-0.2,0-0.4,0.1-0.5c0.1-0.1,0.2-0.2,0.3-0.3
		c0.2-0.1,0.3-0.2,0.3-0.2c0.2-0.2,0.3-0.4,0.5-0.6c0.1-0.1,0.2-0.6,0.4-1.3c0.2-0.6,0.3-1.1,0.4-1.7c0.1-0.6,0.2-1.1,0.2-1.5
		c0.1-0.9,0.2-1.5,0.3-1.6c0.1-0.2,0.4-0.2,0.7-0.2c0.4,0,0.7,0.1,0.9,0.3c0.1,0.1,0.2,0.2,0.3,0.4c0.1,0.2,0.2,0.3,0.2,0.5
		c0,0.1,0.1,0.3,0.2,0.6c0.1,0.2,0.1,0.4,0.1,0.5c0.3,0.8,0.5,1.6,0.6,2.3c0,0.3,0.1,0.7,0.2,1.2c0.1,0.5,0.1,1,0.2,1.4
		c0.1,0.4,0.2,0.8,0.3,1.2c0.2,0.7,0.3,1.3,0.2,1.8c0,0.3-0.1,0.6-0.1,0.9c0,0.3,0.1,0.5,0.3,0.7c0.2,0.2,0.5,0.3,0.9,0.2
		c0.2,0,0.3-0.1,0.5-0.1c0.2-0.1,0.3-0.1,0.4-0.2s0.3-0.2,0.4-0.3c0.2-0.1,0.3-0.2,0.3-0.3c0.1-0.1,0.2-0.2,0.4-0.3
		c0.2-0.2,0.6-0.5,1-0.8C671.5,103.9,671.8,103.7,671.9,103.6z M664.8,104.2c0.1-0.5,0-1.4-0.4-2.5c-0.4-1.1-0.6-1.6-0.7-1.6
		c-0.1,0-0.2,0.2-0.3,0.6c-0.1,0.4-0.2,0.7-0.3,0.9c-0.2,0.3-0.5,0.8-0.9,1.6c-0.4,0.8-0.6,1.3-0.5,1.4c0.1,0.1,0.2,0.2,0.5,0.3
		c0.2,0.1,0.5,0.2,0.7,0.3c0.3,0.1,0.5,0.1,0.7,0C664.3,105,664.7,104.7,664.8,104.2z"/>
	<path d="M683.1,105.2c0.3-0.2,0.6-0.3,0.9-0.2c0.2,0.1,0.3,0.3,0.3,0.8c0,0.1,0,0.2-0.1,0.3c-0.1,0.1-0.1,0.2-0.2,0.3
		c-0.1,0.1-0.2,0.2-0.3,0.2c-0.1,0.1-0.2,0.2-0.3,0.2c-0.1,0.1-0.2,0.1-0.3,0.2c-0.1,0-0.2,0.1-0.3,0.2c-0.1,0.1-0.2,0.1-0.3,0.2
		c-0.4,0.2-0.8,0.4-1.2,0.5c0,0-0.2,0.1-0.6,0.3c-0.4,0.2-0.8,0.5-1.2,0.7c-0.5,0.3-0.8,0.4-1.1,0.5c-0.4,0.1-0.8,0.2-1.2,0.3
		c-0.4,0.1-0.9,0.1-1.3,0.1c-0.5,0-0.9,0-1.3-0.1c-0.4-0.1-0.8-0.3-1.1-0.5c-0.3-0.3-0.6-0.7-0.8-1.3c-0.2-0.5-0.4-1.1-0.4-1.8
		c-0.1-0.6-0.1-1.2-0.1-1.8s0-1.1,0.1-1.6c0-0.1,0.1-0.7,0.3-1.9c0.2-1.2,0.3-2.4,0.5-3.6l0.2-1.7c-0.2-0.1-0.5-0.2-1-0.2
		c-0.3,0-0.6,0-0.9,0c-0.7,0-1.3,0-1.6-0.1c-0.1,0-0.1,0-0.3,0s-0.2,0-0.3,0c-0.1,0-0.2,0-0.3,0s-0.2,0-0.3,0
		c-0.1,0-0.1-0.1-0.1-0.1c0-0.2,0.1-0.4,0.3-0.5c0,0,0.1-0.1,0.3-0.2c0.2-0.1,0.4-0.2,0.6-0.3s0.5-0.2,0.8-0.3
		c0.3-0.1,0.7-0.1,1.1-0.1c1.1,0.1,1.8,0.1,2.1,0.1c0.3,0,0.6-0.2,0.8-0.5c0.4-0.4,0.9-1.4,1.6-3c0-0.1,0.1-0.2,0.1-0.3
		c0.3-0.6,0.5-1.1,0.6-1.4c0.2-0.3,0.4-0.8,0.7-1.3c0.3-0.5,0.6-1,1-1.3c0.4-0.4,0.7-0.6,1.1-0.8c1.3-0.6,1.9-0.6,1.9,0.1
		c0,0.4-0.3,1.3-0.9,2.6c-0.2,0.4-0.3,0.7-0.4,0.9c-0.1,0.3-0.2,0.6-0.2,1c-0.1,0.4-0.2,0.8-0.4,1.1c-0.4,0.6-0.7,1.2-0.9,1.6
		c-0.3,0.5-0.4,0.8-0.3,0.9c0.1,0.1,0.8,0.3,2.3,0.4c1,0.1,1.6,0.2,1.8,0.3c0.2,0.1,0.3,0.2,0.3,0.4c0,0.3-0.2,0.4-0.5,0.4
		c-0.1,0-0.4,0-0.7,0c-0.4,0-0.8,0-1.2,0.1c-0.5,0-0.9,0.1-1.4,0.1c-0.5,0.1-0.9,0.1-1.2,0.1c-0.2,0-0.4,0.5-0.7,1.4
		s-0.6,2.1-0.9,3.4c-0.3,1.3-0.6,2.2-0.7,2.7c-0.8,2.3-0.7,3.9,0.3,4.7c0.4,0.4,0.8,0.6,1.2,0.6c0.2,0,0.5-0.1,0.7-0.2
		c0-0.1,0.2-0.2,0.5-0.3c0.3-0.1,0.5-0.2,0.8-0.3c0.3-0.1,0.6-0.2,0.9-0.3c0.3-0.1,0.4-0.2,0.5-0.2
		C681.4,106.1,682.4,105.6,683.1,105.2z"/>
	<path d="M697.2,104.2c0.3-0.3,0.6-0.4,0.8-0.3c0.2,0.1,0.4,0.3,0.4,0.7c0,0.1,0,0.2-0.1,0.3c0,0.1-0.1,0.2-0.2,0.3
		c-0.1,0.1-0.2,0.2-0.2,0.3c-0.1,0.1-0.2,0.2-0.3,0.3c-0.1,0.1-0.2,0.2-0.3,0.2c-0.1,0.1-0.2,0.1-0.3,0.2c-0.1,0.1-0.2,0.1-0.3,0.2
		c-0.4,0.2-0.7,0.4-1.1,0.6c0,0-0.1,0-0.1,0.1c0,0.1-0.1,0.1-0.2,0.2c-0.1,0-0.2,0.1-0.4,0.1c-0.3,0.2-0.9,0.3-1.5,0.4
		c-0.7,0.1-1.3,0.1-1.9,0.1c-0.6,0-0.9-0.1-1.1-0.2c-0.1-0.1-0.3-0.3-0.5-0.6c-0.2-0.3-0.3-0.6-0.4-0.9c-0.1-0.3-0.2-0.5-0.2-0.7
		c-0.1-0.4-0.1-0.9-0.1-1.4c0-0.5,0.1-1.3,0.2-2.4v-0.3c0-0.1,0-0.1-0.1-0.2c-0.1,0-0.1-0.1-0.2-0.1c-0.1,0-0.2,0-0.4,0
		c-0.2,0-0.4,0-0.6-0.1c-0.2-0.1-0.4-0.1-0.7-0.2c-0.2-0.1-0.4-0.1-0.6-0.1c0,0,0,0.2-0.2,0.7c-0.1,0.5-0.3,1-0.5,1.5
		c-0.2,0.5-0.4,0.8-0.5,0.9c-0.5,0.3-1.1,0.5-1.7,0.7c-0.8,0.2-0.4-1.5,1.1-5.1c0-0.1,0.1-0.3,0.2-0.6c0.1-0.3,0.2-0.5,0.2-0.6
		c0-0.1,0.1-0.3,0.2-0.5c0.1-0.2,0.2-0.5,0.2-0.6c0-0.2,0.1-0.3,0.1-0.6c0.1-0.2,0.1-0.4,0.1-0.6c0-0.2,0-0.4,0-0.6
		c0-0.2,0.2-0.7,0.5-1.3c0.3-0.6,0.6-1,0.7-1.1c0.2-0.1,0.6-0.2,1-0.1c0.4,0,0.7,0.1,0.8,0.3c0.2,0.2,0.2,1.1,0,2.6
		c-0.1,1-0.2,1.6-0.2,1.9c0,0.3,0.1,0.5,0.2,0.7c0.2,0.2,0.3,0.2,0.5,0.2c0.1,0,0.4-0.1,0.8-0.3c0.6-0.3,1-0.5,1.2-0.5
		c0.2,0,0.5,0.2,0.7,0.5c0.2,0.2,0.2,0.5,0.2,0.7c0,0.2-0.1,0.6-0.3,1.1c-0.3,0.8-0.6,1.7-0.8,2.7c-0.2,0.8-0.2,1.4-0.2,1.8
		c0.1,0.4,0.3,0.9,0.7,1.4c0.2,0.3,0.3,0.4,0.4,0.4c0,0,0.1,0,0.2,0c0.1,0,0.2-0.1,0.4-0.1c0.1-0.1,0.2-0.1,0.3-0.1
		c0.5-0.1,0.8-0.2,0.9-0.3C695.6,105.3,696.5,104.8,697.2,104.2z"/>
	<path d="M710,103.6c0.2,0.1,0.3,0.4,0.3,0.8c0,0.5-0.2,0.9-0.8,1.3c-0.2,0.1-0.4,0.3-0.7,0.4c0,0-0.1,0-0.2,0.1
		c-0.2,0.1-0.4,0.2-0.5,0.2c-0.5,0-0.9-0.2-1.3-0.5c-0.1-0.1-0.2-0.2-0.3-0.5l-0.1-0.1c-0.1-0.2-0.3-0.4-0.4-0.4
		c-0.1-0.1-0.3,0-0.5,0c-0.2,0.1-0.5,0.5-0.8,1.1c-0.1,0.3-0.2,0.5-0.3,0.7c-0.3,0.4-0.5,0.7-0.7,0.7c-0.3,0.1-0.6,0.3-1.1,0.6
		c-0.6,0.3-1.1,0.5-1.6,0.6c-0.6,0-1,0.1-1.3,0.2c-0.1,0-0.2,0-0.2,0c-0.2,0-0.3,0-0.4-0.1c-0.2-0.1-0.4-0.3-0.8-0.6
		c-0.4-0.3-0.6-0.7-0.8-0.9c-0.1-0.3-0.3-0.7-0.4-1.4c-0.2-1.1-0.3-2-0.2-2.6c0.1-0.7,0.5-1.4,1-2.3c0.7-1.1,1.3-1.9,2-2.4
		c0.6-0.5,1.4-0.8,2.3-1.1c0.4-0.1,0.8-0.2,1.2-0.5c0.5-0.3,1-0.5,1.4-0.4c0.4,0.1,0.8,0.4,1.4,0.9c0.3,0.3,0.5,0.5,0.6,0.7
		c0.1,0.2,0.2,0.4,0.2,0.5c0,0.2,0.1,0.4,0.1,0.7c0,1.3,0,2.4,0.1,3.1c0,0.4,0.1,0.8,0.3,1c0.2,0.2,0.4,0.5,0.8,0.8l0.1,0
		c0.3-0.2,0.5-0.3,0.6-0.4C709.4,103.5,709.8,103.4,710,103.6z M704.2,103.2c0.1-0.3,0.1-0.6,0-0.7c-0.1-0.2-0.2-0.4-0.6-0.7
		c-0.5-0.5-0.7-0.9-0.7-1.2c0-0.2-0.1-0.5-0.2-0.7c-0.1-0.3-0.3-0.5-0.4-0.6c-0.1-0.1-0.2-0.1-0.3-0.1c-0.1,0-0.1,0-0.2,0
		c-0.2,0.1-0.5,0.4-0.9,0.8c-0.4,0.4-0.8,0.9-1.1,1.6c-0.4,0.6-0.6,1.2-0.8,1.8c-0.2,0.5-0.2,0.9-0.1,1.2c0.1,0.2,0.2,0.6,0.2,1.2
		c0,0.4,0.1,0.7,0.2,0.9c0.1,0.2,0.2,0.3,0.3,0.3c0.2,0.1,0.4,0.1,0.8,0.1c0.2,0,0.3,0,0.5,0c0.1,0,0.2,0,0.3,0
		c0.1,0,0.2-0.1,0.3-0.1c0.1-0.1,0.2-0.1,0.3-0.2c0.1-0.1,0.2-0.2,0.4-0.3c0.6-0.5,0.9-0.8,1-1.1c0.1-0.3,0.3-0.6,0.5-0.9
		C703.9,104.1,704.1,103.7,704.2,103.2z M704.8,99.7c0-0.6-0.1-0.9-0.2-1c0,0-0.1,0.1-0.1,0.1c-0.1,0.1-0.1,0.4,0,0.9
		c0.1,0.3,0.1,0.6,0.2,0.7C704.8,100.3,704.8,100,704.8,99.7z"/>
	<path d="M720.7,103.6c0.3-0.3,0.6-0.4,0.9-0.3c0.2,0.1,0.4,0.3,0.4,0.7c0,0.1,0,0.2,0,0.3c0,0.1-0.1,0.2-0.1,0.3
		c-0.1,0.1-0.1,0.2-0.2,0.3c-0.1,0.1-0.2,0.2-0.2,0.2c-0.1,0.1-0.2,0.1-0.3,0.2c-0.1,0.1-0.2,0.1-0.3,0.2c-0.1,0.1-0.2,0.1-0.3,0.2
		c-0.1,0.1-0.2,0.1-0.2,0.2c-0.4,0.2-0.7,0.4-1.1,0.6c0,0-0.1,0.1-0.2,0.1c-0.4,0.4-0.8,0.7-1.1,0.9c-0.3,0.1-0.7,0.2-1.2,0.2
		c-0.5,0.2-0.9,0.1-1.1,0c-0.1,0-0.2,0-0.5,0c-0.3,0-0.5,0-0.6-0.1c-0.1,0-0.3,0-0.5,0c-0.2,0-0.4,0-0.6,0.1c-0.2,0-0.3,0.1-0.5,0.2
		c-0.2,0.1-0.4,0.2-0.7,0.2s-0.8-0.1-1.6-0.2c-0.5-0.1-1-0.1-1.3-0.2c-0.1,0-0.2,0-0.2,0c-0.1,0-0.2,0-0.3,0c-0.1,0-0.2,0-0.2-0.1
		c-0.2-0.1-0.4-0.5-0.6-1.2c-0.1-0.4-0.2-0.8-0.2-1.3c0-0.2,0-0.3,0-0.4c0.1-0.4,0.2-0.6,0.4-0.7c0.1,0,0.2-0.1,0.3-0.1
		c0.2,0,0.3-0.1,0.4-0.2c0.1-0.1,0.2-0.3,0.3-0.5c0.1-0.3,0.1-0.5,0.2-0.8c0-0.2,0-0.4,0.1-0.5c0.1-0.1,0.2-0.2,0.3-0.3
		c0.2-0.1,0.3-0.2,0.3-0.2c0.2-0.2,0.3-0.4,0.5-0.6c0.1-0.1,0.2-0.6,0.4-1.3c0.2-0.6,0.3-1.1,0.4-1.7c0.1-0.6,0.2-1.1,0.2-1.5
		c0.1-0.9,0.2-1.5,0.3-1.6c0.1-0.2,0.4-0.2,0.7-0.2c0.4,0,0.7,0.1,0.9,0.3c0.1,0.1,0.2,0.2,0.3,0.4c0.1,0.2,0.2,0.3,0.2,0.5
		c0,0.1,0.1,0.3,0.2,0.6c0.1,0.2,0.1,0.4,0.1,0.5c0.3,0.8,0.5,1.6,0.6,2.3c0,0.3,0.1,0.7,0.2,1.2c0.1,0.5,0.1,1,0.2,1.4
		c0.1,0.4,0.2,0.8,0.3,1.2c0.2,0.7,0.3,1.3,0.2,1.8c0,0.3-0.1,0.6-0.1,0.9c0,0.3,0.1,0.5,0.3,0.7c0.2,0.2,0.5,0.3,0.9,0.2
		c0.2,0,0.3-0.1,0.5-0.1s0.3-0.1,0.4-0.2c0.1-0.1,0.3-0.2,0.4-0.3c0.2-0.1,0.3-0.2,0.3-0.3c0.1-0.1,0.2-0.2,0.4-0.3
		c0.2-0.2,0.6-0.5,1-0.8C720.4,103.9,720.7,103.7,720.7,103.6z M713.7,104.2c0.1-0.5,0-1.4-0.4-2.5c-0.4-1.1-0.6-1.6-0.7-1.6
		c-0.1,0-0.2,0.2-0.3,0.6c-0.1,0.4-0.2,0.7-0.3,0.9c-0.2,0.3-0.5,0.8-0.9,1.6c-0.4,0.8-0.6,1.3-0.5,1.4c0.1,0.1,0.2,0.2,0.5,0.3
		c0.2,0.1,0.5,0.2,0.7,0.3c0.3,0.1,0.5,0.1,0.7,0C713.2,105,713.6,104.7,713.7,104.2z"/>
	<path d="M576.4,132.2c0.3-0.2,0.5-0.3,0.7-0.3c0.2,0,0.3,0.2,0.3,0.6c0,0.1,0,0.2,0,0.2s-0.1,0.2-0.1,0.2c0,0.1-0.1,0.1-0.2,0.2
		c-0.1,0.1-0.1,0.1-0.2,0.2c-0.1,0.1-0.1,0.1-0.2,0.2c-0.1,0.1-0.2,0.1-0.2,0.2c-0.1,0-0.1,0.1-0.2,0.1c-0.1,0.1-0.2,0.1-0.2,0.1
		c-0.3,0.2-0.6,0.4-0.9,0.5c0,0-0.2,0.1-0.5,0.3l-0.1,0.1c-0.4,0.4-1,0.6-1.8,0.7c-0.5,0.1-0.9,0.1-1.1,0c-0.3-0.1-0.6-0.2-1.1-0.4
		c-0.7-0.3-1.2-0.6-1.4-0.8c-0.2-0.1-0.3-0.2-0.4-0.2c-0.1,0-0.3,0.1-0.6,0.4c-0.9,0.7-2,1-3.3,1.1c-1.3,0.1-2.1-0.2-2.5-0.8
		c-0.2-0.4-0.3-1.1-0.3-2.2c0-1.1,0.2-1.9,0.4-2.3c0.2-0.4,0.4-0.7,0.5-0.9c0.1-0.2,0.3-0.4,0.4-0.5c0.1-0.2,0.3-0.4,0.6-0.8
		c0.9-1.2,1.7-2,2.2-2.4c0.4-0.3,0.9-0.6,1.5-0.8c0.6-0.2,1.2-0.4,1.8-0.5c0.6-0.1,1.2,0,1.7,0.2c0.6,0.3,0.9,0.8,1.1,1.5
		c0.1,0.7,0.1,1.4,0,2.1c-0.2,0.7-0.4,1.3-0.7,1.9c-0.3,0.6-0.4,1.2-0.6,1.9c-0.1,0.7-0.1,1.1,0,1.3c0.3,0.6,1.2,0.6,2.8,0.1
		c0.1,0,0.1,0,0.2,0c0.1,0,0.2-0.1,0.2-0.1C575.1,133.1,575.9,132.7,576.4,132.2z M569.6,128c0.2-0.1,0.3-0.2,0.3-0.2
		c0-0.1,0-0.1-0.1-0.2c-0.2-0.2-0.4-0.3-0.8-0.4c-0.3-0.1-0.7,0-1,0c-0.3,0.1-0.8,0.4-1.4,0.9c-0.6,0.5-1.1,1-1.3,1.4
		c-0.3,0.4-0.6,0.8-0.8,1.2c-0.3,0.4-0.4,0.9-0.5,1.6c-0.1,0.7-0.1,1.1,0.1,1.4c0.2,0.2,0.5,0.3,1,0.3c0.5,0,1-0.1,1.4-0.2
		c0.4-0.2,0.8-0.5,1-0.9c0.4-0.7,0.7-1.3,0.9-1.7c0.4-0.7,0.6-1.1,0.6-1.4c0-0.2,0.1-0.3,0.2-0.5c0.1-0.2,0.2-0.3,0.1-0.5
		C569.2,128.3,569.3,128.1,569.6,128z"/>
	<path d="M588.3,132.2c0.3-0.3,0.6-0.4,0.9-0.3c0.2,0,0.4,0.3,0.4,0.7c0,0.1,0,0.2-0.1,0.3c0,0.1-0.1,0.2-0.2,0.3
		c-0.1,0.1-0.2,0.2-0.2,0.3c-0.1,0.1-0.2,0.2-0.3,0.3c-0.1,0.1-0.2,0.2-0.3,0.2c-0.1,0.1-0.2,0.1-0.3,0.2c-0.1,0.1-0.2,0.2-0.3,0.2
		c-0.4,0.2-0.7,0.4-1.1,0.6c-0.2,0.1-0.6,0.3-1.2,0.4c-0.6,0.2-1.3,0.4-2.2,0.6c-0.9,0.2-1.8,0.3-2.6,0.3c-0.8-0.1-1.5-0.3-1.9-0.7
		c-0.2-0.2-0.4-0.4-0.6-0.7c-0.2-0.3-0.4-0.6-0.6-0.9c-0.2-0.3-0.3-0.5-0.3-0.7c-0.2-0.5-0.3-1.3-0.3-2.2c0.1-2.8,1.4-5.3,3.7-7.3
		c0.5-0.5,0.9-0.7,1.2-0.8c0.3-0.1,0.7-0.1,1.4-0.1c1.3,0,2.3,0.3,3,0.9c0.7,0.6,0.9,1.3,0.8,2.3c-0.1,0.5-0.2,0.8-0.3,0.9
		c-0.1,0.1-0.3,0.2-0.7,0.2c-0.5,0-0.9,0-1.3-0.3c-0.4-0.2-0.6-0.5-0.5-0.8c0.1-0.2,0-0.5-0.1-0.7c-0.2-0.2-0.4-0.3-0.7-0.3
		c-0.5,0-1.3,0.5-2.3,1.6c-1,1-1.5,1.8-1.5,2.4c0,0.2-0.1,0.5-0.3,0.9c-0.2,0.3-0.3,0.9-0.3,1.7c0,0.8,0.2,1.4,0.4,1.7
		c0.4,0.5,1,0.9,1.8,1.1c0.8,0.2,1.6,0.2,2.3,0.1c0.4-0.1,0.8-0.2,1.2-0.4c0.8-0.3,1.5-0.7,2.2-1.2c0.5-0.4,0.9-0.5,1.1-0.4
		c0,0,0,0,0.1,0C588.2,132.2,588.2,132.2,588.3,132.2z"/>
	<path d="M601.6,130.6c0.2,0.1,0.3,0.4,0.3,0.8c0,0.5-0.2,0.9-0.8,1.3c-0.2,0.1-0.4,0.3-0.7,0.4c0,0-0.1,0-0.2,0.1
		c-0.2,0.1-0.4,0.2-0.5,0.2c-0.5,0-0.9-0.2-1.3-0.5c-0.1-0.1-0.2-0.2-0.3-0.5l-0.1-0.1c-0.1-0.2-0.3-0.4-0.4-0.4
		c-0.1-0.1-0.3,0-0.5,0c-0.2,0.1-0.5,0.5-0.8,1.1c-0.1,0.3-0.2,0.5-0.3,0.7c-0.3,0.4-0.5,0.7-0.7,0.7c-0.3,0.1-0.6,0.3-1.1,0.6
		c-0.6,0.3-1.1,0.5-1.6,0.6c-0.6,0-1,0.1-1.3,0.2c-0.1,0-0.2,0-0.2,0c-0.2,0-0.3,0-0.4-0.1c-0.2-0.1-0.4-0.3-0.8-0.6
		c-0.4-0.3-0.6-0.7-0.8-0.9c-0.1-0.3-0.3-0.7-0.4-1.4c-0.2-1.1-0.3-2-0.2-2.6c0.1-0.7,0.5-1.4,1-2.3c0.7-1.1,1.3-1.9,2-2.4
		c0.6-0.5,1.4-0.8,2.3-1.1c0.4-0.1,0.8-0.2,1.2-0.5c0.5-0.3,1-0.5,1.4-0.4c0.4,0.1,0.8,0.4,1.4,0.9c0.3,0.3,0.5,0.5,0.6,0.7
		c0.1,0.2,0.2,0.4,0.2,0.5c0,0.2,0.1,0.4,0.1,0.7c0,1.3,0,2.4,0.1,3.1c0,0.4,0.1,0.8,0.3,1c0.2,0.2,0.4,0.5,0.8,0.8l0.1,0
		c0.3-0.2,0.5-0.3,0.6-0.4C601,130.6,601.4,130.5,601.6,130.6z M595.8,130.2c0.1-0.3,0.1-0.6,0-0.7c-0.1-0.2-0.2-0.4-0.6-0.7
		c-0.5-0.5-0.7-0.9-0.7-1.2c0-0.2-0.1-0.5-0.2-0.7c-0.1-0.3-0.3-0.5-0.4-0.6c-0.1-0.1-0.2-0.1-0.3-0.1c-0.1,0-0.1,0-0.2,0
		c-0.2,0.1-0.5,0.4-0.9,0.8c-0.4,0.4-0.8,0.9-1.1,1.6c-0.4,0.6-0.6,1.2-0.8,1.8c-0.2,0.5-0.2,0.9-0.1,1.2c0.1,0.2,0.2,0.6,0.2,1.2
		c0,0.4,0.1,0.7,0.2,0.9c0.1,0.2,0.2,0.3,0.3,0.3c0.2,0.1,0.4,0.1,0.8,0.1c0.2,0,0.3,0,0.5,0c0.1,0,0.2,0,0.3,0
		c0.1,0,0.2-0.1,0.3-0.1c0.1-0.1,0.2-0.1,0.3-0.2c0.1-0.1,0.2-0.2,0.4-0.3c0.6-0.5,0.9-0.8,1-1.1c0.1-0.3,0.3-0.6,0.5-0.9
		C595.5,131.1,595.7,130.7,595.8,130.2z M596.4,126.8c0-0.6-0.1-0.9-0.2-1c0,0-0.1,0.1-0.1,0.1c-0.1,0.1-0.1,0.4,0,0.9
		c0.1,0.3,0.1,0.6,0.2,0.7C596.4,127.4,596.4,127.1,596.4,126.8z"/>
	<path d="M620.7,131.5c0.3-0.3,0.6-0.4,0.9-0.3c0.2,0.1,0.4,0.3,0.4,0.7c0,0.1,0,0.3-0.1,0.4c-0.1,0.1-0.1,0.3-0.2,0.3
		c-0.1,0.1-0.2,0.2-0.3,0.3c-0.2,0.1-0.3,0.2-0.3,0.3c-0.1,0.1-0.2,0.1-0.4,0.3c-0.2,0.1-0.3,0.2-0.3,0.2c-0.5,0.3-0.9,0.7-1.4,1
		c-0.6,0.5-1.2,0.8-1.8,1c-0.7,0.2-1.3,0.3-1.7,0.3c-0.4,0-0.9-0.1-1.6-0.2c-0.6-0.2-1.1-0.3-1.4-0.6c-0.4-0.2-0.6-0.6-0.8-1
		c-0.2-0.4-0.3-0.9-0.3-1.5c0-0.6,0.1-1.3,0.2-2c0.1-0.8,0.4-1.7,0.7-2.8c0.1-0.3,0.1-0.4-0.1-0.4c-0.4,0-1.2,0.7-2.4,2.2
		c-1.2,1.4-2.1,2.8-2.7,4.1c-0.5,0.9-0.8,1.4-1.1,1.6c-0.3,0.2-0.6,0.1-1-0.3c-0.3-0.3-0.5-0.6-0.5-0.8c0-0.3,0.2-0.8,0.6-1.7
		c0.3-0.6,0.5-1.1,0.5-1.3c0-0.2,0.2-0.6,0.5-1.3c0.2-0.8,0.3-1.2,0.2-1.2c-0.2,0-0.5,0.3-1,0.8s-1,1.2-1.5,1.9
		c-0.5,0.7-0.9,1.4-1.2,1.9c-0.4,0.8-0.8,1.3-1.2,1.5c-0.3,0.2-0.7,0.2-1-0.1c-0.3-0.3-0.5-0.7-0.4-1.1c0.1-0.4,0.4-1.2,0.9-2.2
		c0.2-0.3,0.3-0.8,0.4-1.4c0.1-0.6,0.3-1,0.4-1.3c0.5-1.1,1-1.8,1.6-2.3c0.1-0.1,0.3-0.2,0.4-0.3c0.2-0.1,0.3-0.1,0.5-0.2
		s0.3,0,0.3,0.1c0.1,0.1,0,0.3,0,0.6c-0.1,0.5-0.1,0.7,0.2,0.6c0.2,0,0.4-0.2,0.6-0.6c0.3-0.5,0.8-1,1.2-1.3
		c0.2-0.1,0.3-0.2,0.5-0.3c0.2-0.1,0.2-0.1,0.3-0.1c0.1,0,0.2-0.1,0.3,0c0.1,0,0.2,0,0.3,0c0.1,0,0.2,0,0.4,0.1
		c0.2,0.1,0.3,0.1,0.5,0.1c0.4,0.1,0.6,0.2,0.6,0.4c0,0,0.1,0.3,0.1,0.7c0,0.2,0.1,0.3,0.1,0.4c0,0.1,0.1,0.1,0.3,0.1
		c0.1,0,0.3-0.1,0.5-0.2c0.2-0.1,0.5-0.3,0.9-0.5c0.9-0.6,1.7-0.9,2.3-1c0.5,0,0.8,0,0.9,0c0.1,0.1,0.2,0.2,0.4,0.5
		c0.2,0.5,0.2,1.1,0.1,1.8c-0.1,0.7-0.3,1.4-0.6,2c-0.3,0.6-0.5,1.1-0.5,1.4c0,0.3-0.1,0.7-0.2,1.2c-0.2,0.5-0.1,0.9,0.1,1.3
		c0.2,0.4,0.6,0.6,1,0.7c0.3,0,0.6,0,1.1-0.1c0.1,0,0.9-0.3,2.2-0.9l0.4-0.2c0.3-0.2,0.6-0.3,0.9-0.5c0.3-0.2,0.6-0.4,1-0.6
		C620.4,131.8,620.6,131.6,620.7,131.5z"/>
	<path d="M633.8,131.7c0.3-0.3,0.6-0.4,0.9-0.3c0.2,0.1,0.4,0.3,0.4,0.7c0,0.1,0,0.3-0.1,0.4c-0.1,0.1-0.1,0.3-0.2,0.3
		c-0.1,0.1-0.2,0.2-0.3,0.3c-0.2,0.1-0.3,0.2-0.3,0.3c-0.1,0.1-0.2,0.1-0.4,0.3c-0.2,0.1-0.3,0.2-0.3,0.2c-0.3,0.2-0.7,0.4-1.1,0.6
		c-0.3,0.1-0.8,0.3-1.6,0.4c-0.8,0.2-1.4,0.2-1.8,0.2c-0.4,0-0.9-0.1-1.5-0.4c-0.6-0.2-1.2-0.5-1.7-0.7c-0.5-0.2-0.7-0.3-0.7-0.2
		h-0.2c-0.1,0-0.2,0-0.3,0c-0.1,0-0.3,0.1-0.6,0.2c-0.2,0.2-0.5,0.4-0.7,0.7c-0.4,0.5-0.7,1.1-1,1.9c-0.3,0.8-0.5,1.3-0.6,1.5
		c-0.2,0.3-0.3,0.6-0.5,1s-0.3,0.7-0.5,1c-0.2,0.3-0.4,0.6-0.6,0.9c-0.2,0.3-0.4,0.4-0.5,0.5c-0.1,0.1-0.3,0-0.6-0.1
		c-0.4-0.1-0.6-0.5-0.8-1c-0.2-0.6-0.2-1.1-0.1-1.5c0.1-0.3,0.2-0.6,0.5-1c0.3-0.4,0.5-0.7,0.6-0.9c0.1-0.2,0.2-0.6,0.3-1.1
		c0.1-0.5,0.2-0.8,0.3-1c0.1-0.3,0.3-0.8,0.6-1.3c0.3-0.6,0.5-1,0.6-1.3c0.2-0.4,0.3-0.9,0.3-1.6c0.1-0.6,0.2-1.2,0.2-1.8
		c0.1-0.6,0.3-1.1,0.5-1.5c0-0.1,0.1-0.1,0.1-0.3c0.1-0.1,0.1-0.2,0.2-0.3c0.1-0.1,0.1-0.2,0.2-0.3c0.1-0.1,0.1-0.2,0.2-0.3
		c0.1-0.1,0.1-0.2,0.2-0.3c0.1-0.1,0.2-0.2,0.2-0.3c0.1-0.1,0.2-0.2,0.3-0.3c0.1-0.1,0.2-0.2,0.3-0.2c0.1-0.1,0.2-0.1,0.3-0.1
		c0.5-0.2,0.9,0,1.2,0.3c0.2,0.4,0.2,0.7,0,1.2c-0.4,0.6-0.5,0.9-0.2,0.9c0.2-0.1,0.6-0.4,1.1-0.9c0.6-0.6,1.2-1.1,1.7-1.4
		c0.5-0.3,1.1-0.5,1.8-0.7c0.7-0.1,1-0.2,1-0.2c0.1,0,0.1,0,0.2,0.1c0.1,0.1,0.1,0.2,0.2,0.4c0,0.2,0.1,0.4,0.1,0.6
		c0,0.2,0.1,0.5,0.1,0.7c0,0.2,0,0.4,0,0.7c0,2.1-0.3,3.5-0.9,4.1c-0.4,0.4-0.6,0.7-0.8,1.1c-0.1,0.1-0.1,0.2-0.2,0.3
		c-0.1,0-0.2,0.1-0.2,0.1c-0.1,0-0.1,0-0.2,0c-0.1,0-0.2,0.1-0.3,0.2c-0.2,0.2-0.4,0.3-0.7,0.3c-0.2,0-0.4,0.1-0.8,0.3
		c-0.3,0.2-0.5,0.3-0.5,0.5c0,0,0.1,0.1,0.2,0.2c0.2,0.1,0.3,0.1,0.6,0.2c0.2,0.1,0.5,0.1,0.7,0.2c0.2,0,0.4,0.1,0.6,0.1
		c0.3,0,0.6,0,0.9-0.1c0.1-0.1,0.3-0.1,0.5-0.2c0.2-0.1,0.4-0.1,0.5-0.2c0.2-0.1,0.3-0.1,0.4-0.2
		C632.2,132.8,633.1,132.2,633.8,131.7z M625.2,131.6c0.2,0.3,0.4,0.4,0.6,0.4c0.3,0,0.9-0.3,1.6-0.9c0.7-0.6,1.2-1.1,1.4-1.6
		c0.2-0.5,0.3-1,0.3-1.6c0-0.6-0.1-1-0.2-1.4c-0.2-0.3-0.4-0.4-0.5-0.4c-0.2,0.1-0.6,0.4-1.2,1c-0.6,0.5-1.1,1.2-1.6,1.9
		c-0.5,0.8-0.7,1.4-0.7,1.7C624.9,131,625,131.3,625.2,131.6z"/>
	<path d="M647.6,132.2c0.3-0.2,0.5-0.3,0.7-0.3c0.2,0,0.3,0.2,0.3,0.6c0,0.1,0,0.2,0,0.2c0,0.1-0.1,0.2-0.1,0.2
		c0,0.1-0.1,0.1-0.2,0.2c-0.1,0.1-0.1,0.1-0.2,0.2c-0.1,0.1-0.1,0.1-0.2,0.2s-0.2,0.1-0.2,0.2c-0.1,0-0.1,0.1-0.2,0.1
		c-0.1,0.1-0.2,0.1-0.2,0.1c-0.3,0.2-0.6,0.4-0.9,0.5c0,0-0.2,0.1-0.5,0.3l-0.1,0.1c-0.4,0.4-1,0.6-1.8,0.7c-0.5,0.1-0.9,0.1-1.1,0
		c-0.3-0.1-0.6-0.2-1.1-0.4c-0.7-0.3-1.2-0.6-1.4-0.8c-0.2-0.1-0.3-0.2-0.4-0.2c-0.1,0-0.3,0.1-0.6,0.4c-0.9,0.7-2,1-3.3,1.1
		c-1.3,0.1-2.1-0.2-2.5-0.8c-0.2-0.4-0.3-1.1-0.3-2.2c0-1.1,0.2-1.9,0.4-2.3c0.2-0.4,0.4-0.7,0.5-0.9c0.1-0.2,0.3-0.4,0.4-0.5
		c0.1-0.2,0.3-0.4,0.6-0.8c0.9-1.2,1.7-2,2.2-2.4c0.4-0.3,0.9-0.6,1.5-0.8c0.6-0.2,1.2-0.4,1.8-0.5c0.6-0.1,1.2,0,1.7,0.2
		c0.6,0.3,0.9,0.8,1.1,1.5c0.1,0.7,0.1,1.4,0,2.1c-0.2,0.7-0.4,1.3-0.7,1.9c-0.3,0.6-0.4,1.2-0.6,1.9c-0.1,0.7-0.1,1.1,0,1.3
		c0.3,0.6,1.2,0.6,2.8,0.1c0.1,0,0.1,0,0.2,0c0.1,0,0.2-0.1,0.2-0.1C646.3,133.1,647.1,132.7,647.6,132.2z M640.8,128
		c0.2-0.1,0.3-0.2,0.3-0.2c0-0.1,0-0.1-0.1-0.2c-0.2-0.2-0.4-0.3-0.8-0.4c-0.3-0.1-0.7,0-1,0c-0.3,0.1-0.8,0.4-1.4,0.9
		c-0.6,0.5-1.1,1-1.3,1.4c-0.3,0.4-0.6,0.8-0.8,1.2c-0.3,0.4-0.4,0.9-0.5,1.6s-0.1,1.1,0.1,1.4c0.2,0.2,0.5,0.3,1,0.3
		c0.5,0,1-0.1,1.4-0.2c0.4-0.2,0.8-0.5,1-0.9c0.4-0.7,0.7-1.3,0.9-1.7c0.4-0.7,0.6-1.1,0.6-1.4c0-0.2,0.1-0.3,0.2-0.5
		c0.1-0.2,0.2-0.3,0.1-0.5C640.4,128.3,640.5,128.1,640.8,128z"/>
	<path d="M664.8,130.7c0.2,0,0.3,0.2,0.3,0.7c0,0.2-0.1,0.4-0.2,0.6c-0.2,0.2-0.4,0.5-0.6,0.7c-0.3,0.2-0.6,0.5-0.9,0.7
		c-0.4,0.3-0.7,0.5-1.1,0.6c-0.8,0.4-1.5,0.7-2.1,1c-0.8,0.3-1.4,0.4-2,0.3c-0.6-0.2-1.3-0.6-2-1.4c-0.6-0.6-1-1.1-1.1-1.3
		c-0.1-0.2-0.2-0.7-0.2-1.4c0-0.9,0.2-1.9,0.5-3c0.3-1.1,0.4-1.6,0.4-1.7c-0.1-0.1-0.7,0.4-1.8,1.4c-1.1,1.1-2.2,2.2-3.3,3.4
		c-1.1,1.2-1.6,1.9-1.6,2.1c0,0.2-0.1,0.3-0.3,0.5c-0.2,0.2-0.4,0.3-0.7,0.4c-0.3,0.1-0.5,0.1-0.7,0.1c-0.3,0-0.6-0.3-0.7-0.8
		c-0.1-0.3-0.1-0.6-0.1-0.9c0.1-0.3,0.3-0.7,0.8-1.4c0.3-0.4,0.7-1.3,1.4-2.8c0.7-1.5,1.3-2.5,1.8-3.1c0.1-0.1,0.2-0.2,0.2-0.3
		c0.2-0.2,0.4-0.3,0.8-0.4c0.3-0.1,0.6-0.1,0.8,0c0.1,0.1,0.2,0.2,0.2,0.5c0,0.3,0.1,0.4,0.2,0.4c0.1,0,0.4-0.1,0.7-0.4
		c0.7-0.5,1.8-0.9,3.3-1.2c0.6-0.2,1-0.2,1.2-0.2c0.2,0,0.4,0.2,0.7,0.4c0.4,0.3,0.5,0.7,0.6,1.3c0,0.5-0.2,1-0.5,1.4
		c-0.3,0.4-0.6,1.1-1,2.3c-0.4,1.1-0.6,1.9-0.6,2.3c0,0.3,0.1,0.6,0.3,1c0.2,0.4,0.4,0.7,0.7,0.9c0.3,0.2,0.5,0.3,0.8,0.3
		c0.4,0,1.1-0.3,2.3-0.9c1.2-0.6,2.1-1.2,2.8-1.7C664.3,130.8,664.6,130.7,664.8,130.7z M653.7,122c0,0-0.3,0.1-0.7,0.1
		c0-0.1,0-0.2,0-0.3c0-0.1,0-0.2,0-0.3c0-0.1,0-0.1,0.1-0.2c0.1-0.1,0.3-0.3,0.6-0.6c0.3-0.3,0.5-0.6,0.8-0.7
		c0.3-0.2,0.6-0.2,0.9-0.2c0.6,0.2,1,0.4,1,0.4c0.2,0.1,0.5,0.3,1,0.7c0.5,0.3,0.9,0.3,1.3-0.1c0,0,0-0.1,0.1-0.1
		c0-0.1,0.1-0.1,0.1-0.1c0,0,0.1-0.1,0.1-0.1c0.1,0,0.4-0.1,0.9-0.1c0,0.1,0,0.2,0,0.3c0,0.1,0,0.2,0,0.3c0,0.1,0,0.2-0.1,0.2
		c-0.4,0.8-0.8,1.2-1.1,1.3c-0.3,0.1-0.9,0-1.7-0.3c-0.2-0.1-0.5-0.3-0.9-0.6c-0.4-0.3-0.8-0.4-1-0.4c-0.2,0-0.5,0.2-0.9,0.5
		c0,0-0.1,0-0.1,0.1S653.7,122,653.7,122z"/>
	<path d="M678.1,132.2c0.3-0.2,0.5-0.3,0.7-0.3c0.2,0,0.3,0.2,0.3,0.6c0,0.1,0,0.2,0,0.2s-0.1,0.2-0.1,0.2c0,0.1-0.1,0.1-0.2,0.2
		c-0.1,0.1-0.1,0.1-0.2,0.2c-0.1,0.1-0.1,0.1-0.2,0.2s-0.2,0.1-0.2,0.2c-0.1,0-0.1,0.1-0.2,0.1c-0.1,0.1-0.2,0.1-0.2,0.1
		c-0.3,0.2-0.6,0.4-0.9,0.5c0,0-0.2,0.1-0.5,0.3l-0.1,0.1c-0.4,0.4-1,0.6-1.8,0.7c-0.5,0.1-0.9,0.1-1.1,0c-0.3-0.1-0.6-0.2-1.1-0.4
		c-0.7-0.3-1.2-0.6-1.4-0.8c-0.2-0.1-0.3-0.2-0.4-0.2c-0.1,0-0.3,0.1-0.6,0.4c-0.9,0.7-2,1-3.3,1.1c-1.3,0.1-2.1-0.2-2.5-0.8
		c-0.2-0.4-0.3-1.1-0.3-2.2c0-1.1,0.2-1.9,0.4-2.3c0.2-0.4,0.4-0.7,0.5-0.9c0.1-0.2,0.3-0.4,0.4-0.5c0.1-0.2,0.3-0.4,0.6-0.8
		c0.9-1.2,1.7-2,2.2-2.4c0.4-0.3,0.9-0.6,1.5-0.8c0.6-0.2,1.2-0.4,1.8-0.5c0.6-0.1,1.2,0,1.7,0.2c0.6,0.3,0.9,0.8,1.1,1.5
		c0.1,0.7,0.1,1.4,0,2.1s-0.4,1.3-0.7,1.9c-0.3,0.6-0.4,1.2-0.6,1.9c-0.1,0.7-0.1,1.1,0,1.3c0.3,0.6,1.2,0.6,2.8,0.1
		c0.1,0,0.1,0,0.2,0c0.1,0,0.2-0.1,0.2-0.1C676.8,133.1,677.6,132.7,678.1,132.2z M671.3,128c0.2-0.1,0.3-0.2,0.3-0.2
		c0-0.1,0-0.1-0.1-0.2c-0.2-0.2-0.4-0.3-0.8-0.4c-0.3-0.1-0.7,0-1,0c-0.3,0.1-0.8,0.4-1.4,0.9c-0.6,0.5-1.1,1-1.3,1.4
		c-0.3,0.4-0.6,0.8-0.8,1.2c-0.3,0.4-0.4,0.9-0.5,1.6c-0.1,0.7-0.1,1.1,0.1,1.4c0.2,0.2,0.5,0.3,1,0.3c0.5,0,1-0.1,1.4-0.2
		c0.4-0.2,0.8-0.5,1-0.9c0.4-0.7,0.7-1.3,0.9-1.7c0.4-0.7,0.6-1.1,0.6-1.4c0-0.2,0.1-0.3,0.2-0.5c0.1-0.2,0.2-0.3,0.1-0.5
		C670.9,128.3,671,128.1,671.3,128z"/>
	<path d="M697.8,131.5c0.3-0.3,0.6-0.4,0.9-0.3c0.2,0.1,0.4,0.3,0.4,0.7c0,0.1,0,0.3-0.1,0.4c-0.1,0.1-0.1,0.3-0.2,0.3
		c-0.1,0.1-0.2,0.2-0.3,0.3c-0.2,0.1-0.3,0.2-0.3,0.3c-0.1,0.1-0.2,0.1-0.4,0.3c-0.2,0.1-0.3,0.2-0.3,0.2c-0.5,0.3-0.9,0.7-1.4,1
		c-0.6,0.5-1.2,0.8-1.8,1c-0.7,0.2-1.3,0.3-1.7,0.3c-0.4,0-0.9-0.1-1.6-0.2c-0.6-0.2-1.1-0.3-1.4-0.6c-0.4-0.2-0.6-0.6-0.8-1
		c-0.2-0.4-0.3-0.9-0.3-1.5c0-0.6,0.1-1.3,0.2-2c0.1-0.8,0.4-1.7,0.7-2.8c0.1-0.3,0.1-0.4-0.1-0.4c-0.4,0-1.2,0.7-2.4,2.2
		c-1.2,1.4-2.1,2.8-2.7,4.1c-0.5,0.9-0.8,1.4-1.1,1.6c-0.3,0.2-0.6,0.1-1-0.3c-0.3-0.3-0.5-0.6-0.5-0.8c0-0.3,0.2-0.8,0.6-1.7
		c0.3-0.6,0.5-1.1,0.5-1.3c0-0.2,0.2-0.6,0.5-1.3c0.2-0.8,0.3-1.2,0.2-1.2c-0.2,0-0.5,0.3-1,0.8s-1,1.2-1.5,1.9
		c-0.5,0.7-0.9,1.4-1.2,1.9c-0.4,0.8-0.8,1.3-1.2,1.5c-0.3,0.2-0.7,0.2-1-0.1c-0.3-0.3-0.5-0.7-0.4-1.1c0.1-0.4,0.4-1.2,0.9-2.2
		c0.2-0.3,0.3-0.8,0.4-1.4c0.1-0.6,0.3-1,0.4-1.3c0.5-1.1,1-1.8,1.6-2.3c0.1-0.1,0.3-0.2,0.4-0.3c0.2-0.1,0.3-0.1,0.5-0.2
		s0.3,0,0.3,0.1c0.1,0.1,0,0.3,0,0.6c-0.1,0.5-0.1,0.7,0.2,0.6c0.2,0,0.4-0.2,0.6-0.6c0.3-0.5,0.8-1,1.2-1.3
		c0.2-0.1,0.3-0.2,0.5-0.3c0.2-0.1,0.2-0.1,0.3-0.1c0.1,0,0.2-0.1,0.3,0c0.1,0,0.2,0,0.3,0c0.1,0,0.2,0,0.4,0.1
		c0.2,0.1,0.3,0.1,0.5,0.1c0.4,0.1,0.6,0.2,0.6,0.4c0,0,0.1,0.3,0.1,0.7c0,0.2,0.1,0.3,0.1,0.4c0,0.1,0.1,0.1,0.3,0.1
		c0.1,0,0.3-0.1,0.5-0.2c0.2-0.1,0.5-0.3,0.9-0.5c0.9-0.6,1.7-0.9,2.3-1c0.5,0,0.8,0,0.9,0s0.2,0.2,0.4,0.5c0.2,0.5,0.2,1.1,0.1,1.8
		c-0.1,0.7-0.3,1.4-0.6,2c-0.3,0.6-0.5,1.1-0.5,1.4c0,0.3-0.1,0.7-0.2,1.2c-0.2,0.5-0.1,0.9,0.1,1.3c0.2,0.4,0.6,0.6,1,0.7
		c0.3,0,0.6,0,1.1-0.1c0.1,0,0.9-0.3,2.2-0.9l0.4-0.2c0.3-0.2,0.6-0.3,0.9-0.5c0.3-0.2,0.6-0.4,1-0.6
		C697.5,131.8,697.7,131.6,697.8,131.5z"/>
	<path d="M707.2,132.1c0.1,0.2,0.1,0.4,0,0.5c-0.1,0.2-0.4,0.4-0.8,0.8c-0.7,0.6-1.5,1.2-2.5,1.6c-0.7,0.4-1.5,0.5-2.2,0.4
		c-0.8-0.1-1.5-0.3-2.2-0.7c-0.7-0.4-1.3-0.9-1.8-1.5c-0.7-0.8-0.9-2-0.6-3.4c0-0.1,0.1-0.5,0.2-1.1s0.2-1.2,0.3-1.6
		c0.1-0.5,0.2-0.8,0.3-0.9c0.1-0.2,0.4-0.3,0.7-0.3c0.3-0.1,0.6-0.1,1,0c0.3,0.1,0.6,0.2,0.9,0.3c0.3,0.1,0.5,0.3,0.6,0.6
		c0.1,0.2,0.1,0.5,0,0.8c-0.3,0.7-0.5,1.2-0.5,1.5c0,0.3-0.2,0.6-0.5,1c-0.3,0.3-0.4,0.7-0.5,1.1c-0.1,0.4,0,0.7,0.2,0.8
		c0.2,0.1,0.2,0.2,0.2,0.6c0,0.3,0.2,0.6,0.6,0.9c0.3,0.3,0.5,0.4,0.6,0.4c0.2,0,0.4,0,0.9-0.1c0.6-0.2,1.4-0.7,2.4-1.4
		c0.8-0.6,1.4-0.9,1.7-0.9C706.7,131.6,707,131.7,707.2,132.1z M703.2,121.3c-0.4,0.1-0.8,0-1.2-0.5c-0.3-0.3-0.4-0.5-0.5-0.6
		c0-0.1,0.1-0.2,0.3-0.4c0.3-0.2,0.7-0.3,1.2-0.3s0.8,0.1,1,0.3c0.2,0.3,0.2,0.5,0,0.8C703.9,121,703.6,121.2,703.2,121.3z"/>
	<path d="M716,132.4c0.3-0.3,0.6-0.4,0.9-0.3c0.2,0.1,0.4,0.3,0.4,0.7c0,0.1,0,0.3-0.1,0.4c-0.1,0.1-0.1,0.3-0.2,0.3
		c-0.1,0.1-0.2,0.2-0.3,0.3c-0.1,0.1-0.3,0.2-0.3,0.3c-0.1,0.1-0.2,0.1-0.4,0.3c-0.2,0.1-0.3,0.2-0.3,0.2c-0.4,0.2-0.7,0.4-1.1,0.6
		c0,0-0.1,0-0.1,0.1c-0.1,0-0.1,0-0.2,0.1c-0.1,0-0.1,0-0.2,0.1c-0.1,0-0.1,0-0.1,0.1l-0.1,0c-0.9,0.4-1.9,0.6-3,0.7
		c-1.1,0.1-1.9,0-2.4-0.3c-0.1,0-0.3-0.1-0.7-0.3c-0.4-0.2-0.7-0.3-0.9-0.5c-0.3-0.2-0.7-0.7-1-1.5c-0.6-1.4-0.9-2.5-0.9-3.6
		c0-0.6,0.1-1.5,0.3-2.5c0-0.1,0-0.2,0.1-0.4c0-0.2,0.1-0.3,0.1-0.4c0-0.1,0.1-0.2,0.1-0.4c0-0.2,0.1-0.3,0.1-0.4
		c0-0.1,0.1-0.2,0.2-0.4c0.1-0.1,0.1-0.2,0.2-0.3c0.3-0.4,0.6-0.8,0.8-0.9c0.8-0.8,1.8-1.2,3.1-1.1c1.3,0.1,2,0.5,2.1,1.3
		c0.1,0.6,0.1,1.2-0.1,1.8c-0.2,0.6-0.4,1.1-0.6,1.5s-0.6,0.9-1,1.6c-0.4,0.6-0.7,1.1-0.9,1.5c-0.7,1.2-1,2-1,2.2
		c0,0.2,0.2,0.5,0.6,0.8c0.2,0.2,0.5,0.4,0.6,0.4c0.2,0,0.5,0,1-0.1c0.8-0.1,1.6-0.3,2.5-0.6c0.3-0.1,0.8-0.3,1.5-0.6
		C715.4,132.8,715.8,132.6,716,132.4z M707.2,130.8c0.1,0,0.5-0.6,1.1-1.8c0.6-1.2,0.9-1.9,0.9-2.1c0-0.3-0.2-0.5-0.5-0.6
		c-0.3-0.1-0.6,0-0.7,0.2c-0.2,0.2-0.3,0.5-0.5,0.8c-0.2,0.4-0.3,0.7-0.4,1.1c-0.1,0.4-0.1,0.7-0.2,1.1c-0.1,0.3-0.1,0.6,0,0.9
		C707,130.7,707.1,130.8,707.2,130.8z"/>
	<path d="M714.6,131.9c0.2-0.4,0.7-1.3,1.4-2.8c0.7-1.5,1.3-2.5,1.8-3.1c0.1-0.1,0.2-0.2,0.2-0.3c0.2-0.2,0.4-0.3,0.7-0.4
		c0.3-0.1,0.6-0.1,0.9,0c0.1,0.1,0.2,0.2,0.2,0.5c0,0.3,0.1,0.4,0.2,0.4c0.1,0,0.4-0.1,0.8-0.4c0.7-0.5,1.8-0.9,3.3-1.2
		c0.6-0.2,1-0.2,1.2-0.2c0.2,0,0.4,0.2,0.7,0.4c0.3,0.3,0.5,0.8,0.5,1.3c0,0.5-0.2,1-0.5,1.4c-0.3,0.4-0.6,1.1-1,2.2
		c-0.4,1.1-0.6,1.9-0.6,2.3c0,0.3,0.1,0.6,0.3,1c0.2,0.4,0.5,0.6,0.7,0.9c0.3,0.2,0.6,0.3,0.8,0.3c0.4,0,1.1-0.3,2.3-0.9
		c1.2-0.6,2.1-1.2,2.7-1.7c0.5-0.4,0.8-0.6,1.1-0.5c0.2,0,0.3,0.2,0.3,0.7c0,0.2-0.1,0.4-0.2,0.6c-0.2,0.2-0.4,0.5-0.6,0.7
		c-0.3,0.2-0.6,0.5-0.9,0.7c-0.4,0.2-0.7,0.4-1.1,0.6c-1,0.5-1.7,0.8-2.1,1c-0.8,0.3-1.4,0.4-2,0.3c-0.6-0.2-1.3-0.6-2-1.4
		c-0.6-0.6-1-1.1-1.1-1.3c-0.1-0.2-0.2-0.7-0.2-1.3c0-1,0.2-2,0.5-3c0.3-1,0.4-1.6,0.4-1.7c-0.1-0.1-0.7,0.4-1.8,1.5
		c-1.1,1.1-2.2,2.2-3.3,3.4c-1.1,1.2-1.6,1.9-1.6,2c0,0.2-0.1,0.3-0.3,0.5c-0.2,0.2-0.4,0.3-0.7,0.4c-0.3,0.1-0.5,0.1-0.7,0.1
		c-0.3,0-0.6-0.3-0.7-0.8c-0.1-0.3-0.1-0.6,0-0.9C713.9,133,714.2,132.5,714.6,131.9z"/>
	<path d="M742.8,132.2c0.3-0.2,0.6-0.3,0.9-0.2c0.2,0.1,0.3,0.3,0.3,0.8c0,0.1,0,0.2-0.1,0.3c-0.1,0.1-0.1,0.2-0.2,0.3
		c-0.1,0.1-0.2,0.2-0.3,0.2c-0.1,0.1-0.2,0.2-0.3,0.2c-0.1,0.1-0.2,0.1-0.3,0.2c-0.1,0-0.2,0.1-0.3,0.2c-0.1,0.1-0.2,0.1-0.3,0.2
		c-0.4,0.2-0.8,0.4-1.2,0.5c0,0-0.2,0.1-0.6,0.3c-0.4,0.2-0.8,0.5-1.2,0.7c-0.5,0.3-0.8,0.4-1.1,0.5c-0.4,0.1-0.8,0.2-1.2,0.3
		c-0.4,0.1-0.9,0.1-1.3,0.1c-0.5,0-0.9,0-1.3-0.1c-0.4-0.1-0.8-0.3-1.1-0.5c-0.3-0.3-0.6-0.7-0.8-1.3c-0.2-0.5-0.4-1.1-0.4-1.8
		c-0.1-0.6-0.1-1.2-0.1-1.8c0-0.6,0-1.1,0.1-1.6c0-0.1,0.1-0.7,0.3-1.9c0.2-1.2,0.3-2.4,0.5-3.6l0.2-1.7c-0.2-0.1-0.5-0.2-1-0.2
		c-0.3,0-0.6,0-0.9,0c-0.7,0-1.3,0-1.6-0.1c-0.1,0-0.1,0-0.3,0s-0.2,0-0.3,0c-0.1,0-0.2,0-0.3,0s-0.2,0-0.3,0
		c-0.1,0-0.1-0.1-0.1-0.1c0-0.2,0.1-0.4,0.3-0.5c0,0,0.1-0.1,0.3-0.2c0.2-0.1,0.4-0.2,0.6-0.3s0.5-0.2,0.8-0.3
		c0.3-0.1,0.7-0.1,1.1-0.1c1.1,0.1,1.8,0.1,2.1,0.1c0.3,0,0.6-0.2,0.8-0.5c0.4-0.4,0.9-1.4,1.6-3c0-0.1,0.1-0.2,0.1-0.3
		c0.3-0.6,0.5-1.1,0.6-1.4c0.2-0.3,0.4-0.8,0.7-1.3c0.3-0.5,0.6-1,1-1.3c0.4-0.4,0.7-0.6,1.1-0.8c1.3-0.6,1.9-0.6,1.9,0.1
		c0,0.4-0.3,1.3-0.9,2.6c-0.2,0.4-0.3,0.7-0.4,0.9c-0.1,0.3-0.2,0.6-0.2,1c-0.1,0.4-0.2,0.8-0.4,1.1c-0.4,0.6-0.7,1.2-0.9,1.6
		c-0.3,0.5-0.4,0.8-0.3,0.9c0.1,0.1,0.8,0.3,2.3,0.4c1,0.1,1.6,0.2,1.8,0.3c0.2,0.1,0.3,0.2,0.3,0.4c0,0.3-0.2,0.4-0.5,0.4
		c-0.1,0-0.4,0-0.7,0c-0.4,0-0.8,0-1.2,0.1c-0.5,0-0.9,0.1-1.4,0.1c-0.5,0.1-0.9,0.1-1.2,0.1c-0.2,0-0.4,0.5-0.7,1.4
		s-0.6,2.1-0.9,3.4c-0.3,1.3-0.6,2.2-0.7,2.7c-0.8,2.3-0.7,3.9,0.3,4.7c0.4,0.4,0.8,0.6,1.2,0.6c0.2,0,0.5-0.1,0.7-0.2
		c0-0.1,0.2-0.2,0.5-0.3c0.3-0.1,0.5-0.2,0.8-0.3c0.3-0.1,0.6-0.2,0.9-0.3c0.3-0.1,0.4-0.2,0.5-0.2
		C741.1,133.2,742.1,132.7,742.8,132.2z"/>
	<path d="M755.7,130.6c0.2,0.1,0.3,0.4,0.3,0.8c0,0.5-0.2,0.9-0.8,1.3c-0.2,0.1-0.4,0.3-0.7,0.4c0,0-0.1,0-0.2,0.1
		c-0.2,0.1-0.4,0.2-0.5,0.2c-0.5,0-0.9-0.2-1.3-0.5c-0.1-0.1-0.2-0.2-0.3-0.5l-0.1-0.1c-0.1-0.2-0.3-0.4-0.4-0.4
		c-0.1-0.1-0.3,0-0.5,0c-0.2,0.1-0.5,0.5-0.8,1.1c-0.1,0.3-0.2,0.5-0.3,0.7c-0.3,0.4-0.5,0.7-0.7,0.7c-0.3,0.1-0.6,0.3-1.1,0.6
		c-0.6,0.3-1.1,0.5-1.6,0.6c-0.6,0-1,0.1-1.3,0.2c-0.1,0-0.2,0-0.2,0c-0.2,0-0.3,0-0.4-0.1c-0.2-0.1-0.4-0.3-0.8-0.6
		c-0.4-0.3-0.6-0.7-0.8-0.9c-0.1-0.3-0.3-0.7-0.4-1.4c-0.2-1.1-0.3-2-0.2-2.6c0.1-0.7,0.5-1.4,1-2.3c0.7-1.1,1.3-1.9,2-2.4
		c0.6-0.5,1.4-0.8,2.3-1.1c0.4-0.1,0.8-0.2,1.2-0.5c0.5-0.3,1-0.5,1.4-0.4c0.4,0.1,0.8,0.4,1.4,0.9c0.3,0.3,0.5,0.5,0.6,0.7
		c0.1,0.2,0.2,0.4,0.2,0.5c0,0.2,0.1,0.4,0.1,0.7c0,1.3,0,2.4,0.1,3.1c0,0.4,0.1,0.8,0.3,1c0.2,0.2,0.4,0.5,0.8,0.8l0.1,0
		c0.3-0.2,0.5-0.3,0.6-0.4C755.1,130.6,755.4,130.5,755.7,130.6z M749.8,130.2c0.1-0.3,0.1-0.6,0-0.7c-0.1-0.2-0.2-0.4-0.6-0.7
		c-0.5-0.5-0.7-0.9-0.7-1.2c0-0.2-0.1-0.5-0.2-0.7c-0.1-0.3-0.3-0.5-0.4-0.6c-0.1-0.1-0.2-0.1-0.3-0.1c-0.1,0-0.1,0-0.2,0
		c-0.2,0.1-0.5,0.4-0.9,0.8c-0.4,0.4-0.8,0.9-1.1,1.6c-0.4,0.6-0.6,1.2-0.8,1.8c-0.2,0.5-0.2,0.9-0.1,1.2c0.1,0.2,0.2,0.6,0.2,1.2
		c0,0.4,0.1,0.7,0.2,0.9c0.1,0.2,0.2,0.3,0.3,0.3c0.2,0.1,0.4,0.1,0.8,0.1c0.2,0,0.3,0,0.5,0c0.1,0,0.2,0,0.3,0
		c0.1,0,0.2-0.1,0.3-0.1c0.1-0.1,0.2-0.1,0.3-0.2c0.1-0.1,0.2-0.2,0.4-0.3c0.6-0.5,0.9-0.8,1-1.1c0.1-0.3,0.3-0.6,0.5-0.9
		C749.6,131.1,749.8,130.7,749.8,130.2z M750.5,126.8c0-0.6-0.1-0.9-0.2-1c0,0-0.1,0.1-0.1,0.1c-0.1,0.1-0.1,0.4,0,0.9
		c0.1,0.3,0.1,0.6,0.2,0.7C750.5,127.4,750.5,127.1,750.5,126.8z"/>
	<path d="M766.4,130.7c0.3-0.3,0.6-0.4,0.9-0.3c0.2,0.1,0.4,0.3,0.4,0.7c0,0.1,0,0.2,0,0.3c0,0.1-0.1,0.2-0.1,0.3
		c-0.1,0.1-0.1,0.2-0.2,0.3c-0.1,0.1-0.2,0.2-0.2,0.2c-0.1,0.1-0.2,0.1-0.3,0.2c-0.1,0.1-0.2,0.1-0.3,0.2c-0.1,0.1-0.2,0.1-0.3,0.2
		c-0.1,0.1-0.2,0.1-0.2,0.2c-0.4,0.2-0.7,0.4-1.1,0.6c0,0-0.1,0.1-0.2,0.1c-0.4,0.4-0.8,0.7-1.1,0.9c-0.3,0.1-0.7,0.2-1.2,0.2
		c-0.5,0.2-0.9,0.1-1.1,0c-0.1,0-0.2,0-0.5,0c-0.3,0-0.5,0-0.6-0.1c-0.1,0-0.3,0-0.5,0c-0.2,0-0.4,0-0.6,0.1c-0.2,0-0.3,0.1-0.5,0.2
		c-0.2,0.1-0.4,0.2-0.7,0.2c-0.3,0-0.8-0.1-1.6-0.2c-0.5-0.1-1-0.1-1.3-0.2c-0.1,0-0.2,0-0.2,0c-0.1,0-0.2,0-0.3,0
		c-0.1,0-0.2,0-0.2-0.1c-0.2-0.1-0.4-0.5-0.6-1.2c-0.1-0.4-0.2-0.8-0.2-1.3c0-0.2,0-0.3,0-0.4c0.1-0.4,0.2-0.6,0.4-0.7
		c0.1,0,0.2-0.1,0.3-0.1c0.2,0,0.3-0.1,0.4-0.2c0.1-0.1,0.2-0.3,0.3-0.5c0.1-0.3,0.1-0.5,0.2-0.8c0-0.2,0-0.4,0.1-0.5
		c0.1-0.1,0.2-0.2,0.3-0.3c0.2-0.1,0.3-0.2,0.3-0.2c0.2-0.2,0.3-0.4,0.5-0.6c0.1-0.1,0.2-0.6,0.4-1.3c0.2-0.6,0.3-1.1,0.4-1.7
		c0.1-0.6,0.2-1.1,0.2-1.5c0.1-0.9,0.2-1.5,0.3-1.6c0.1-0.2,0.4-0.2,0.7-0.2c0.4,0,0.7,0.1,0.9,0.3c0.1,0.1,0.2,0.2,0.3,0.4
		c0.1,0.2,0.2,0.3,0.2,0.5c0,0.1,0.1,0.3,0.2,0.6c0.1,0.2,0.1,0.4,0.1,0.5c0.3,0.8,0.5,1.6,0.6,2.3c0,0.3,0.1,0.7,0.2,1.2
		c0.1,0.5,0.1,1,0.2,1.4c0.1,0.4,0.2,0.8,0.3,1.2c0.2,0.7,0.3,1.3,0.2,1.8c0,0.3-0.1,0.6-0.1,0.9c0,0.3,0.1,0.5,0.3,0.7
		c0.2,0.2,0.5,0.3,0.9,0.2c0.2,0,0.3-0.1,0.5-0.1c0.2-0.1,0.3-0.1,0.4-0.2c0.1-0.1,0.3-0.2,0.4-0.3c0.2-0.1,0.3-0.2,0.3-0.3
		c0.1-0.1,0.2-0.2,0.4-0.3c0.2-0.2,0.6-0.5,1-0.8C766.1,130.9,766.3,130.8,766.4,130.7z M759.3,131.2c0.1-0.5,0-1.4-0.4-2.5
		c-0.4-1.1-0.6-1.6-0.7-1.6c-0.1,0-0.2,0.2-0.3,0.6c-0.1,0.4-0.2,0.7-0.3,0.9c-0.2,0.3-0.5,0.8-0.9,1.6c-0.4,0.8-0.6,1.3-0.5,1.4
		c0.1,0.1,0.2,0.2,0.5,0.3c0.2,0.1,0.5,0.2,0.7,0.3c0.3,0.1,0.5,0.1,0.7,0C758.8,132.1,759.2,131.8,759.3,131.2z"/>
</g>
</svg>
