<?xml version="1.0" encoding="utf-8"?>
<!-- Generator: Adobe Illustrator 25.2.3, SVG Export Plug-In . SVG Version: 6.00 Build 0)  -->
<svg version="1.1" id="Capa_1" xmlns="http://www.w3.org/2000/svg" xmlns:xlink="http://www.w3.org/1999/xlink" x="0px" y="0px"
	 viewBox="0 0 421.2 278" style="enable-background:new 0 0 421.2 278;" xml:space="preserve">
<style type="text/css">
	.st0{display:none;}
</style>
<g id="Capa_2_1_" class="st0">
</g>
<g>
	<path d="M347.4,188.4c-0.2-0.7-0.7-0.9-1.5-0.7c-0.7,0.1-1.4,0.3-2,0.4c-4.1,0.9-8.1,1.9-12.2,2.8c-3.2,0.7-6.5,1.5-9.7,2.2
		c-1.4,0.3-2.8,0.6-4.3,1c0.1-0.2,0.1-0.3,0.2-0.3c1.9-2.6,3.6-5.2,4.9-8c1.1-2.4,2.1-4.7,2.9-7.1c1.2-3.2,1.9-6.5,2.3-9.8
		c0.6-4.7,0.7-9.5-0.1-14.2c-0.4-2.3-0.9-4.6-1.5-6.9c-0.8-2.4-1.6-4.9-2.8-7.3c-1.6-3.4-3.6-6.6-6-9.6c-1.9-2.5-4.1-4.9-6.5-7.1
		c-1.5-1.5-3.2-2.8-4.9-4.2c-2.4-1.8-4.9-3.5-7.6-5.1c-3.5-2-7-3.8-10.8-5.2c-3.6-1.4-7.4-2.6-11.4-3.4c-1.7-0.3-3.4-0.7-5.2-0.9
		c-0.1-0.7-0.2-1.3-0.2-2c-1.5-9.1-6.6-16.4-15.7-21.4c-6.9-3.8-14.5-5.6-22.4-6.7c-13.3-1.8-26.7-2.4-40.1-2.4
		c-7.7,0-15.3,0.1-23,0.3s-15.3,0.6-22.9,1.1c-14.7,1-29.2,3-43.5,6.2c-8.8,2-17.6,4-25.9,7c-8.2,2.9-15.8,6.7-22.1,12.1
		c-7,6-10.9,13.1-11,21.6c0,8.9,3.9,16.4,11.6,22.4c6,4.7,13.5,7.2,21.4,8.4c7.4,1.2,15,1.5,22.6,1.6c11.3,0.1,22.6,0,36.7,0
		c5.2-0.1,13.1-0.3,21-0.6c6.3-0.2,12.8-0.5,19.1-0.9c6.7-0.4,13.5-0.9,20.2-1.3c2.4-0.1,4.8-0.4,7.3-0.6c1-0.1,1.5-0.9,1.4-1.8
		c-0.2-0.8-0.6-1.1-1.7-1.1c-3.9,0.3-7.9,0.7-11.8,0.9c-10.8,0.6-21.6,1.3-32.4,1.7c-12.2,0.5-24.4,0.7-36.6,0.9
		c-10.9,0.2-21.8,0.3-32.7-0.6c-5.4-0.4-10.8-0.8-16-2c-7.6-1.6-14.4-4.6-19.5-9.8c-7-7.2-9.6-15.4-6.6-24.5c2-6.1,6.4-11,12.1-15
		c5.5-3.9,11.7-6.7,18.3-8.9c13-4.4,26.5-7.6,40.1-9.8c10.8-1.8,21.7-3,32.6-3.6c6.2-0.3,12.4-0.7,18.6-0.8c7-0.1,14.2-0.2,21.2-0.1
		c8.3,0.1,16.6,0.5,24.9,0.8c6.2,0.2,12.4,0.5,18.6,1.4c6.3,0.9,12.4,2.5,17.9,5.3c7.8,3.9,12.8,9.6,14.9,17.1
		c1.8,6.2,1.3,12.3-0.7,18.5c-2.9,9.1-9.4,16.2-17.8,22.1c-6.8,4.7-14.5,8.2-22.6,11.1c-8.6,3.1-17.5,5.5-26.5,7.8
		c-13.1,3.5-26.6,5.7-40.4,6.2c-9.4,0.3-18.6-0.3-27.8-1.9c-1.2-0.2-1.9,0.1-2.2,1.1c-0.2,0.9,0.2,1.5,1.4,1.6
		c9.6,1.7,19.3,2.3,29.1,2c8-0.3,16.1-1.2,24-2.6c11.1-2,21.9-4.7,32.6-7.9c9.7-2.9,19.2-6.5,27.8-11.3c7.7-4.4,14.5-9.6,19.3-16.5
		c5.1-7.3,8.1-14.9,7.9-23.2c4,0.7,8,1.5,11.8,2.8c4.1,1.3,8,3,11.7,4.9c2.6,1.5,5.2,3.1,7.6,4.7c2.1,1.5,4.1,3,5.9,4.7
		c2.1,1.9,3.9,4,5.8,6c2.7,3.1,4.9,6.5,6.6,10.1c1.1,2.4,2.1,4.7,2.9,7.2c1.1,3.4,1.7,6.8,2,10.3c0.4,4.6,0.1,9.2-0.8,13.7
		c-0.6,3.1-1.5,6.1-2.7,9.2c-1.4,3.4-3.1,6.7-5.3,9.8c-0.7,1.1-1.5,2-2.2,3.1c-0.2-0.2-0.1-0.3-0.1-0.4c0.6-2.6,1.2-5.1,1.8-7.8
		c0.8-3.4,1.5-6.9,2.3-10.3c0.2-1.1,0.5-2.2,0.8-3.4c0.2-0.7-0.3-1.3-1.2-1.4c-0.8-0.1-1.1,0.1-1.3,0.9c-0.4,1.6-0.8,3.2-1.2,4.9
		c-0.5,2.2-1,4.4-1.5,6.7c-0.5,2.5-1.2,5-1.7,7.5c-0.4,1.9-0.9,3.8-1.2,5.7c-0.2,0.9,0.6,1.5,1.6,1.2c2.2-0.5,4.3-1,6.5-1.5
		c2.6-0.6,5.2-1.2,7.7-1.8c2.7-0.6,5.4-1.2,8.1-1.8c2.8-0.7,5.6-1.3,8.4-1.9c0.9-0.2,1.9-0.5,2.8-0.7
		C347.3,189.6,347.6,189,347.4,188.4z"/>
	<path d="M298.7,219.8c-1.4-0.3-2.9-0.5-4.3-0.9c-1.4-0.3-2.8-0.6-4.2-0.9c0.1-0.1,0.1-0.1,0.1-0.1c2.2-0.7,4.3-1.3,6.6-2
		c1-0.3,1.9-0.6,2-1.6c0.2-0.9-0.5-2-2.1-1.6c-0.9,0.3-1.7,0.5-2.6,0.8c-1.7,0.5-3.4,1.1-5.2,1.6s-3.5,1.1-5.3,1.6
		c0-0.1,0-0.2,0-0.2c0.8-1.8,1.6-3.6,2.4-5.5c0.6-1.5,1.2-2.8,1.9-4.3c0.2-0.5,0.2-1-0.3-1.3c-1-0.8-2.6-0.5-3.1,0.6
		c-0.9,1.9-1.7,3.9-2.6,5.8c-0.5,1.3-1.2,2.6-1.8,4c-0.9-1.4-1.6-2.7-2.3-4c-1.5-2.6-3.1-5.3-4.6-7.9c-0.5-0.9-1.5-1.2-2.3-0.8
		c-1,0.4-1.4,1.3-0.9,2.1c0.3,0.5,0.6,1.1,0.9,1.6c1.5,2.5,2.9,5.1,4.5,7.6c0.2,0.3,0.3,0.5,0.5,0.9c-0.5-0.1-0.9-0.1-1.2-0.2
		c-3.2-0.7-6.6-1.3-9.8-1.9c-0.8-0.1-1.3,0.1-1.9,0.5c-0.5,0.4-0.7,0.9-0.5,1.5s0.6,0.9,1.4,1.1c0.7,0.1,1.3,0.3,1.9,0.4
		c2.7,0.5,5.3,1.1,8,1.6c0.9,0.2,1.7,0.3,2.7,0.6c-0.2,0.1-0.3,0.1-0.5,0.2c-1.5,0.5-3.1,0.9-4.6,1.4c-2.2,0.7-4.5,1.4-6.7,2
		c-0.6,0.2-1.3,0.4-1.7,1s-0.4,1.5,0.2,2c0.4,0.4,1,0.5,1.9,0.3c0.8-0.3,1.6-0.5,2.4-0.7c2-0.6,4-1.2,6-1.8c1.2-0.4,2.6-0.7,3.9-1.2
		c-0.3,0.7-0.5,1.1-0.7,1.6c-0.7,1.6-1.5,3.2-2.2,4.8c-0.3,0.7-0.2,1.3,0.5,1.6c1.2,0.7,2.4,0.3,2.9-0.9c0.6-1.4,1.2-2.8,1.9-4.2
		c0.2-0.5,0.5-1,0.7-1.6c1.9,3.1,3.6,6.1,5.3,9.2c0.3,0.5,0.6,1.1,1.5,1.3c0.8,0.1,1.4-0.1,1.9-0.7c0.5-0.5,0.5-1.1,0.1-1.6
		c-1.1-1.8-2.1-3.5-3.2-5.3c-1.2-1.9-2.3-3.9-3.5-5.9c0.4,0,0.7-0.1,1-0.1c2.6,0.5,5.2,1.1,7.7,1.5c2.1,0.4,4.1,0.8,6.2,1.2
		c1,0.2,1.9-0.4,2.2-1.3C300.2,220.5,299.8,220,298.7,219.8z"/>
</g>
<g>
	<path d="M127.1,103.1c0.4-0.3,0.7-0.4,0.9-0.4c0.3,0.1,0.4,0.3,0.4,0.8c0,0.3-0.1,0.7-0.4,1c-0.2,0.3-0.6,0.7-1,0.9
		c-0.4,0.3-0.9,0.6-1.4,0.8c-0.5,0.3-1,0.5-1.5,0.7s-1,0.4-1.4,0.5s-0.8,0.2-1,0.3c-0.7,0.1-1.4,0.2-2.1,0.2c-0.7,0-1.4-0.1-2.1-0.2
		c-0.7-0.2-1.4-0.4-2-0.8s-1.1-0.9-1.5-1.5c-0.7-1.1-0.9-2.2-0.8-3.6c0.1-1.3,0.7-3.1,1.7-5.3c0.6-1.2,0.9-2.1,1.1-2.7
		c0.1-0.4,0.4-1.1,0.9-2.1c0.7-1.3,0.8-1.9,0.2-1.9c-0.4,0-1,0.4-1.8,1.1c-0.7,0.6-1.3,1.1-2,1.6c-0.5,0.3-1.3,1.3-2.6,3.1
		c-1.3,1.7-2,3-2.4,3.6c-0.3,0.7-0.7,1.5-1.2,2.2c-0.9,1.4-1.9,2.9-2.8,4.6c-0.5,1-0.8,1.4-1,1.4c-0.1,0-0.4,0.1-0.8,0.2
		c-0.4,0.1-0.9-0.1-1.3-0.7l-0.6-0.9l0.8-1.3c0.4-0.5,0.9-1.5,1.7-2.9s1.3-2.3,1.7-2.8c0.3-0.4,0.6-1,1-1.8s0.8-1.5,1.1-2.3
		s0.6-1.3,0.7-1.7c0.1-0.5,0.4-1.2,0.8-1.9c0.3-0.6,0.5-1.2,0.6-1.9c0.1-0.7,0-1.2-0.2-1.4c-0.1-0.1-0.3-0.1-0.7,0.1
		s-0.9,0.4-1.4,0.6c-0.5,0.3-1,0.5-1.4,0.8c-0.5,0.3-0.8,0.5-0.9,0.7c-0.4,0.4-0.7,0.6-1,0.6s-0.7-0.3-1.1-0.7
		c-0.5-0.5-0.7-0.8-0.7-0.8c0-0.2,1-0.9,2.9-2s3.3-1.8,4.3-2.2c0.4-0.1,1-0.2,1.7-0.1s1.2,0.2,1.5,0.4c0.2,0.1,0.3,0.3,0.4,0.4
		c0.1,0.2,0.1,0.4,0.2,0.6c0,0.3,0,0.7,0,1.2v1.7l1.8-1.3c0.8-0.6,1.4-1,1.7-1.2c0.4-0.2,0.9-0.3,1.7-0.3s1.4,0,1.5,0.1
		c0.2,0.1,0.4,0.4,0.5,0.9c0.3,0.6,0.3,1.4,0.2,2.4c-0.2,1.2-0.5,2.5-1,4.1c-0.5,1.5-0.9,2.7-1.3,3.4c-0.5,1-0.7,1.7-0.7,2.1
		c0,0.5-0.1,0.8-0.4,1c-0.3,0.3-0.6,0.7-0.7,1.2c-0.1,0.5-0.1,1,0,1.5s0.3,0.9,0.6,1.3s0.7,0.6,1.1,0.7c0.8,0.1,1.7,0.2,2.7,0.1
		s2-0.2,3-0.4c0.3-0.1,0.6-0.2,0.7-0.3C125.3,104.3,126.3,103.7,127.1,103.1z"/>
	<path d="M142.2,104.9c0.3-0.3,0.6-0.4,0.9-0.3c0.2,0,0.4,0.3,0.4,0.7c0,0.1,0,0.3-0.1,0.4s-0.1,0.2-0.2,0.3
		c-0.1,0.1-0.2,0.2-0.3,0.3c-0.2,0.1-0.3,0.2-0.3,0.3c-0.1,0.1-0.2,0.1-0.4,0.3c-0.2,0.1-0.3,0.2-0.3,0.2c-1.1,0.7-1.6,1.1-1.6,1.2
		c-0.1,0.1-0.3,0.2-0.7,0.3c-0.4,0.1-0.6,0.2-0.8,0.2c-0.3,0.1-0.5,0.1-0.7,0.1s-0.4,0-0.7-0.1c-0.2-0.1-0.4-0.1-0.5-0.2
		c-0.1,0-0.2-0.1-0.3-0.1c-0.4-0.2-1-0.6-1.7-1.3l-0.9-0.8l-1.1,0.8c-0.8,0.5-1.6,0.9-2.5,1c-0.8,0.1-1.5,0-2.2-0.2
		s-1.2-0.7-1.6-1.3c-0.4-0.6-0.5-1.3-0.3-2.1c0.2-0.9,0.6-1.8,1.3-2.9c0.7-1,1.4-1.9,2.2-2.7c0.6-0.6,1.1-0.8,1.4-0.8
		c0.2,0,0.4,0.2,0.7,0.5c0.2,0.2,0.3,0.4,0.3,0.5s-0.1,0.4-0.3,0.8c-1.9,3.6-2.3,5.6-1.4,5.9h0.2c0.6,0.1,1.5-0.4,2.5-1.5
		c1.1-1.1,1.8-2.2,2.3-3.4c0.3-0.8,0.7-1.5,1.2-2.1c0.4-0.5,0.7-0.8,0.9-0.9s0.5,0,1,0.3c0.4,0.2,0.6,0.5,0.7,0.8
		c0,0.3-0.1,0.7-0.5,1.4c-0.2,0.3-0.3,0.5-0.4,0.9c-0.1,0.3-0.2,0.6-0.2,0.8c0,0.1-0.1,0.2-0.1,0.4c0,0.2-0.1,0.4-0.1,0.5
		c-0.1,0.4-0.2,0.7-0.2,0.9c-0.2,0.6-0.2,1.2-0.2,1.8s0.1,0.9,0.3,1.1s0.5,0.2,1,0.3c0.1,0,0.3-0.1,0.6-0.2s0.6-0.2,0.7-0.3
		C140.6,106,141.5,105.4,142.2,104.9z"/>
	<path d="M152.7,105.4c0.3-0.3,0.6-0.4,0.9-0.3s0.4,0.3,0.4,0.7c0,0.1,0,0.3-0.1,0.4s-0.1,0.3-0.2,0.3c-0.1,0.1-0.2,0.2-0.3,0.3
		c-0.1,0.1-0.3,0.2-0.3,0.3c-0.1,0.1-0.2,0.1-0.4,0.3s-0.3,0.2-0.3,0.2c-0.4,0.2-0.7,0.4-1.1,0.6c0,0-0.1,0-0.1,0.1
		c-0.1,0-0.1,0-0.2,0.1c-0.1,0-0.1,0-0.2,0.1c-0.1,0-0.1,0-0.1,0.1h-0.1c-0.9,0.4-1.9,0.6-3,0.7s-1.9,0-2.4-0.3
		c-0.1,0-0.3-0.1-0.7-0.3c-0.4-0.2-0.7-0.3-0.9-0.5c-0.3-0.2-0.7-0.7-1-1.5c-0.6-1.4-0.9-2.5-0.9-3.6c0-0.6,0.1-1.5,0.3-2.5
		c0-0.1,0-0.2,0.1-0.4c0-0.2,0.1-0.3,0.1-0.4s0.1-0.2,0.1-0.4c0-0.2,0.1-0.3,0.1-0.4s0.1-0.2,0.2-0.4c0.1-0.1,0.1-0.2,0.2-0.3
		c0.3-0.4,0.6-0.8,0.8-0.9c0.8-0.8,1.8-1.2,3.1-1.1s2,0.5,2.1,1.3c0.1,0.6,0.1,1.2-0.1,1.8s-0.4,1.1-0.6,1.5c-0.2,0.4-0.6,0.9-1,1.6
		c-0.4,0.6-0.7,1.1-0.9,1.5c-0.7,1.2-1,2-1,2.2s0.2,0.5,0.6,0.8c0.2,0.2,0.5,0.4,0.6,0.4c0.2,0,0.5,0,1-0.1c0.8-0.1,1.6-0.3,2.5-0.6
		c0.3-0.1,0.8-0.3,1.5-0.6C152.1,105.7,152.5,105.5,152.7,105.4z M143.9,103.8c0.1,0,0.5-0.6,1.1-1.8c0.6-1.2,0.9-1.9,0.9-2.1
		c0-0.3-0.2-0.5-0.5-0.6s-0.6,0-0.7,0.2c-0.2,0.2-0.3,0.5-0.5,0.8c-0.2,0.4-0.3,0.7-0.4,1.1c-0.1,0.4-0.1,0.7-0.2,1.1
		c-0.1,0.3-0.1,0.6,0,0.9C143.7,103.6,143.8,103.8,143.9,103.8z"/>
	<path d="M163.9,103.6c0.3-0.3,0.6-0.4,0.9-0.3c0.2,0.1,0.4,0.3,0.4,0.7c0,0.1,0,0.2,0,0.3c0,0.1-0.1,0.2-0.1,0.3
		c-0.1,0.1-0.1,0.2-0.2,0.3c-0.1,0.1-0.2,0.2-0.2,0.2c-0.1,0.1-0.2,0.1-0.3,0.2s-0.2,0.1-0.3,0.2s-0.2,0.1-0.3,0.2s-0.2,0.1-0.2,0.2
		c-0.4,0.2-0.7,0.4-1.1,0.6c0,0-0.1,0.1-0.2,0.1c-0.4,0.4-0.8,0.7-1.1,0.9c-0.3,0.1-0.7,0.2-1.2,0.2c-0.5,0.2-0.9,0.1-1.1,0
		c-0.1,0-0.2,0-0.5,0s-0.5,0-0.6-0.1c-0.1,0-0.3,0-0.5,0s-0.4,0-0.6,0.1c-0.2,0-0.3,0.1-0.5,0.2s-0.4,0.2-0.7,0.2s-0.8-0.1-1.6-0.2
		c-0.5-0.1-1-0.1-1.3-0.2c-0.1,0-0.2,0-0.2,0s-0.2,0-0.3,0s-0.2,0-0.2-0.1c-0.2-0.1-0.4-0.5-0.6-1.2c-0.1-0.4-0.2-0.8-0.2-1.3
		c0-0.2,0-0.3,0-0.4c0.1-0.4,0.2-0.6,0.4-0.7c0.1,0,0.2-0.1,0.3-0.1c0.2,0,0.3-0.1,0.4-0.2c0.1-0.1,0.2-0.3,0.3-0.5
		c0.1-0.3,0.1-0.5,0.2-0.8c0-0.2,0-0.4,0.1-0.5s0.2-0.2,0.3-0.3c0.2-0.1,0.3-0.2,0.3-0.2c0.2-0.2,0.3-0.4,0.5-0.6
		c0.1-0.1,0.2-0.6,0.4-1.3c0.2-0.6,0.3-1.1,0.4-1.7c0.1-0.6,0.2-1.1,0.2-1.5c0.1-0.9,0.2-1.5,0.3-1.6c0.1-0.2,0.4-0.2,0.7-0.2
		c0.4,0,0.7,0.1,0.9,0.3c0.1,0.1,0.2,0.2,0.3,0.4c0.1,0.2,0.2,0.3,0.2,0.5c0,0.1,0.1,0.3,0.2,0.6c0.1,0.2,0.1,0.4,0.1,0.5
		c0.3,0.8,0.5,1.6,0.6,2.3c0,0.3,0.1,0.7,0.2,1.2c0.1,0.5,0.1,1,0.2,1.4c0.1,0.4,0.2,0.8,0.3,1.2c0.2,0.7,0.3,1.3,0.2,1.8
		c0,0.3-0.1,0.6-0.1,0.9s0.1,0.5,0.3,0.7s0.5,0.3,0.9,0.2c0.2,0,0.3-0.1,0.5-0.1c0.2-0.1,0.3-0.1,0.4-0.2s0.3-0.2,0.4-0.3
		c0.2-0.1,0.3-0.2,0.3-0.3c0.1-0.1,0.2-0.2,0.4-0.3c0.2-0.2,0.6-0.5,1-0.8C163.5,103.9,163.8,103.7,163.9,103.6z M156.8,104.2
		c0.1-0.5,0-1.4-0.4-2.5s-0.6-1.6-0.7-1.6c-0.1,0-0.2,0.2-0.3,0.6s-0.2,0.7-0.3,0.9c-0.2,0.3-0.5,0.8-0.9,1.6
		c-0.4,0.8-0.6,1.3-0.5,1.4s0.2,0.2,0.5,0.3c0.2,0.1,0.5,0.2,0.7,0.3c0.3,0.1,0.5,0.1,0.7,0C156.3,105,156.7,104.7,156.8,104.2z"/>
	<path d="M175.1,105.2c0.3-0.2,0.6-0.3,0.9-0.2c0.2,0.1,0.3,0.3,0.3,0.8c0,0.1,0,0.2-0.1,0.3c-0.1,0.1-0.1,0.2-0.2,0.3
		c-0.1,0.1-0.2,0.2-0.3,0.2c-0.1,0.1-0.2,0.2-0.3,0.2c-0.1,0.1-0.2,0.1-0.3,0.2c-0.1,0-0.2,0.1-0.3,0.2s-0.2,0.1-0.3,0.2
		c-0.4,0.2-0.8,0.4-1.2,0.5c0,0-0.2,0.1-0.6,0.3c-0.4,0.2-0.8,0.5-1.2,0.7c-0.5,0.3-0.8,0.4-1.1,0.5c-0.4,0.1-0.8,0.2-1.2,0.3
		c-0.4,0.1-0.9,0.1-1.3,0.1c-0.5,0-0.9,0-1.3-0.1c-0.4-0.1-0.8-0.3-1.1-0.5c-0.3-0.3-0.6-0.7-0.8-1.3c-0.2-0.5-0.4-1.1-0.4-1.8
		c-0.1-0.6-0.1-1.2-0.1-1.8s0-1.1,0.1-1.6c0-0.1,0.1-0.7,0.3-1.9c0.2-1.2,0.3-2.4,0.5-3.6l0.2-1.7c-0.2-0.1-0.5-0.2-1-0.2
		c-0.3,0-0.6,0-0.9,0c-0.7,0-1.3,0-1.6-0.1c-0.1,0-0.1,0-0.3,0s-0.2,0-0.3,0s-0.2,0-0.3,0s-0.2,0-0.3,0s-0.1-0.1-0.1-0.1
		c0-0.2,0.1-0.4,0.3-0.5c0,0,0.1-0.1,0.3-0.2s0.4-0.2,0.6-0.3s0.5-0.2,0.8-0.3c0.3-0.1,0.7-0.1,1.1-0.1c1.1,0.1,1.8,0.1,2.1,0.1
		s0.6-0.2,0.8-0.5c0.4-0.4,0.9-1.4,1.6-3c0-0.1,0.1-0.2,0.1-0.3c0.3-0.6,0.5-1.1,0.6-1.4c0.2-0.3,0.4-0.8,0.7-1.3s0.6-1,1-1.3
		c0.4-0.4,0.7-0.6,1.1-0.8c1.3-0.6,1.9-0.6,1.9,0.1c0,0.4-0.3,1.3-0.9,2.6c-0.2,0.4-0.3,0.7-0.4,0.9c-0.1,0.3-0.2,0.6-0.2,1
		c-0.1,0.4-0.2,0.8-0.4,1.1c-0.4,0.6-0.7,1.2-0.9,1.6c-0.3,0.5-0.4,0.8-0.3,0.9c0.1,0.1,0.8,0.3,2.3,0.4c1,0.1,1.6,0.2,1.8,0.3
		c0.2,0.1,0.3,0.2,0.3,0.4c0,0.3-0.2,0.4-0.5,0.4c-0.1,0-0.4,0-0.7,0c-0.4,0-0.8,0-1.2,0.1c-0.5,0-0.9,0.1-1.4,0.1
		c-0.5,0.1-0.9,0.1-1.2,0.1c-0.2,0-0.4,0.5-0.7,1.4s-0.6,2.1-0.9,3.4c-0.3,1.3-0.6,2.2-0.7,2.7c-0.8,2.3-0.7,3.9,0.3,4.7
		c0.4,0.4,0.8,0.6,1.2,0.6c0.2,0,0.5-0.1,0.7-0.2c0-0.1,0.2-0.2,0.5-0.3c0.3-0.1,0.5-0.2,0.8-0.3c0.3-0.1,0.6-0.2,0.9-0.3
		c0.3-0.1,0.4-0.2,0.5-0.2C173.4,106.1,174.4,105.6,175.1,105.2z"/>
	<path d="M189.2,104.2c0.3-0.3,0.6-0.4,0.8-0.3s0.4,0.3,0.4,0.7c0,0.1,0,0.2-0.1,0.3c0,0.1-0.1,0.2-0.2,0.3
		c-0.1,0.1-0.2,0.2-0.2,0.3c-0.1,0.1-0.2,0.2-0.3,0.3c-0.1,0.1-0.2,0.2-0.3,0.2c-0.1,0.1-0.2,0.1-0.3,0.2s-0.2,0.1-0.3,0.2
		c-0.4,0.2-0.7,0.4-1.1,0.6c0,0-0.1,0-0.1,0.1s-0.1,0.1-0.2,0.2c-0.1,0-0.2,0.1-0.4,0.1c-0.3,0.2-0.9,0.3-1.5,0.4
		c-0.7,0.1-1.3,0.1-1.9,0.1c-0.6,0-0.9-0.1-1.1-0.2c-0.1-0.1-0.3-0.3-0.5-0.6c-0.2-0.3-0.3-0.6-0.4-0.9c-0.1-0.3-0.2-0.5-0.2-0.7
		c-0.1-0.4-0.1-0.9-0.1-1.4s0.1-1.3,0.2-2.4v-0.3c0-0.1,0-0.1-0.1-0.2c-0.1,0-0.1-0.1-0.2-0.1c-0.1,0-0.2,0-0.4,0s-0.4,0-0.6-0.1
		c-0.2-0.1-0.4-0.1-0.7-0.2c-0.2-0.1-0.4-0.1-0.6-0.1c0,0,0,0.2-0.2,0.7c-0.1,0.5-0.3,1-0.5,1.5s-0.4,0.8-0.5,0.9
		c-0.5,0.3-1.1,0.5-1.7,0.7c-0.8,0.2-0.4-1.5,1.1-5.1c0-0.1,0.1-0.3,0.2-0.6c0.1-0.3,0.2-0.5,0.2-0.6s0.1-0.3,0.2-0.5
		c0.1-0.2,0.2-0.5,0.2-0.6c0-0.2,0.1-0.3,0.1-0.6c0.1-0.2,0.1-0.4,0.1-0.6s0-0.4,0-0.6s0.2-0.7,0.5-1.3c0.3-0.6,0.6-1,0.7-1.1
		c0.2-0.1,0.6-0.2,1-0.1c0.4,0,0.7,0.1,0.8,0.3c0.2,0.2,0.2,1.1,0,2.6c-0.1,1-0.2,1.6-0.2,1.9s0.1,0.5,0.2,0.7
		c0.2,0.2,0.3,0.2,0.5,0.2c0.1,0,0.4-0.1,0.8-0.3c0.6-0.3,1-0.5,1.2-0.5s0.5,0.2,0.7,0.5c0.2,0.2,0.2,0.5,0.2,0.7s-0.1,0.6-0.3,1.1
		c-0.3,0.8-0.6,1.7-0.8,2.7c-0.2,0.8-0.2,1.4-0.2,1.8c0.1,0.4,0.3,0.9,0.7,1.4c0.2,0.3,0.3,0.4,0.4,0.4c0,0,0.1,0,0.2,0
		c0.1,0,0.2-0.1,0.4-0.1c0.1-0.1,0.2-0.1,0.3-0.1c0.5-0.1,0.8-0.2,0.9-0.3C187.6,105.3,188.5,104.8,189.2,104.2z"/>
	<path d="M202,103.6c0.2,0.1,0.3,0.4,0.3,0.8c0,0.5-0.2,0.9-0.8,1.3c-0.2,0.1-0.4,0.3-0.7,0.4c0,0-0.1,0-0.2,0.1
		c-0.2,0.1-0.4,0.2-0.5,0.2c-0.5,0-0.9-0.2-1.3-0.5c-0.1-0.1-0.2-0.2-0.3-0.5l-0.1-0.1c-0.1-0.2-0.3-0.4-0.4-0.4
		c-0.1-0.1-0.3,0-0.5,0c-0.2,0.1-0.5,0.5-0.8,1.1c-0.1,0.3-0.2,0.5-0.3,0.7c-0.3,0.4-0.5,0.7-0.7,0.7c-0.3,0.1-0.6,0.3-1.1,0.6
		c-0.6,0.3-1.1,0.5-1.6,0.6c-0.6,0-1,0.1-1.3,0.2c-0.1,0-0.2,0-0.2,0c-0.2,0-0.3,0-0.4-0.1c-0.2-0.1-0.4-0.3-0.8-0.6
		c-0.4-0.3-0.6-0.7-0.8-0.9c-0.1-0.3-0.3-0.7-0.4-1.4c-0.2-1.1-0.3-2-0.2-2.6c0.1-0.7,0.5-1.4,1-2.3c0.7-1.1,1.3-1.9,2-2.4
		c0.6-0.5,1.4-0.8,2.3-1.1c0.4-0.1,0.8-0.2,1.2-0.5c0.5-0.3,1-0.5,1.4-0.4s0.8,0.4,1.4,0.9c0.3,0.3,0.5,0.5,0.6,0.7s0.2,0.4,0.2,0.5
		c0,0.2,0.1,0.4,0.1,0.7c0,1.3,0,2.4,0.1,3.1c0,0.4,0.1,0.8,0.3,1s0.4,0.5,0.8,0.8h0.1c0.3-0.2,0.5-0.3,0.6-0.4
		C201.4,103.5,201.8,103.4,202,103.6z M196.2,103.2c0.1-0.3,0.1-0.6,0-0.7c-0.1-0.2-0.2-0.4-0.6-0.7c-0.5-0.5-0.7-0.9-0.7-1.2
		c0-0.2-0.1-0.5-0.2-0.7c-0.1-0.3-0.3-0.5-0.4-0.6c-0.1-0.1-0.2-0.1-0.3-0.1s-0.1,0-0.2,0c-0.2,0.1-0.5,0.4-0.9,0.8
		s-0.8,0.9-1.1,1.6c-0.4,0.6-0.6,1.2-0.8,1.8c-0.2,0.5-0.2,0.9-0.1,1.2c0.1,0.2,0.2,0.6,0.2,1.2c0,0.4,0.1,0.7,0.2,0.9
		c0.1,0.2,0.2,0.3,0.3,0.3c0.2,0.1,0.4,0.1,0.8,0.1c0.2,0,0.3,0,0.5,0c0.1,0,0.2,0,0.3,0s0.2-0.1,0.3-0.1c0.1-0.1,0.2-0.1,0.3-0.2
		s0.2-0.2,0.4-0.3c0.6-0.5,0.9-0.8,1-1.1c0.1-0.3,0.3-0.6,0.5-0.9C195.9,104.1,196.1,103.7,196.2,103.2z M196.8,99.7
		c0-0.6-0.1-0.9-0.2-1l-0.1,0.1c-0.1,0.1-0.1,0.4,0,0.9c0.1,0.3,0.1,0.6,0.2,0.7C196.8,100.3,196.8,100,196.8,99.7z"/>
	<path d="M212.7,103.6c0.3-0.3,0.6-0.4,0.9-0.3c0.2,0.1,0.4,0.3,0.4,0.7c0,0.1,0,0.2,0,0.3c0,0.1-0.1,0.2-0.1,0.3
		c-0.1,0.1-0.1,0.2-0.2,0.3c-0.1,0.1-0.2,0.2-0.2,0.2c-0.1,0.1-0.2,0.1-0.3,0.2s-0.2,0.1-0.3,0.2s-0.2,0.1-0.3,0.2s-0.2,0.1-0.2,0.2
		c-0.4,0.2-0.7,0.4-1.1,0.6c0,0-0.1,0.1-0.2,0.1c-0.4,0.4-0.8,0.7-1.1,0.9c-0.3,0.1-0.7,0.2-1.2,0.2c-0.5,0.2-0.9,0.1-1.1,0
		c-0.1,0-0.2,0-0.5,0s-0.5,0-0.6-0.1c-0.1,0-0.3,0-0.5,0s-0.4,0-0.6,0.1c-0.2,0-0.3,0.1-0.5,0.2s-0.4,0.2-0.7,0.2s-0.8-0.1-1.6-0.2
		c-0.5-0.1-1-0.1-1.3-0.2c-0.1,0-0.2,0-0.2,0c-0.1,0-0.2,0-0.3,0s-0.2,0-0.2-0.1c-0.2-0.1-0.4-0.5-0.6-1.2c-0.1-0.4-0.2-0.8-0.2-1.3
		c0-0.2,0-0.3,0-0.4c0.1-0.4,0.2-0.6,0.4-0.7c0.1,0,0.2-0.1,0.3-0.1c0.2,0,0.3-0.1,0.4-0.2c0.1-0.1,0.2-0.3,0.3-0.5
		c0.1-0.3,0.1-0.5,0.2-0.8c0-0.2,0-0.4,0.1-0.5s0.2-0.2,0.3-0.3c0.2-0.1,0.3-0.2,0.3-0.2c0.2-0.2,0.3-0.4,0.5-0.6
		c0.1-0.1,0.2-0.6,0.4-1.3c0.2-0.6,0.3-1.1,0.4-1.7c0.1-0.6,0.2-1.1,0.2-1.5c0.1-0.9,0.2-1.5,0.3-1.6c0.1-0.2,0.4-0.2,0.7-0.2
		c0.4,0,0.7,0.1,0.9,0.3c0.1,0.1,0.2,0.2,0.3,0.4c0.1,0.2,0.2,0.3,0.2,0.5c0,0.1,0.1,0.3,0.2,0.6c0.1,0.2,0.1,0.4,0.1,0.5
		c0.3,0.8,0.5,1.6,0.6,2.3c0,0.3,0.1,0.7,0.2,1.2c0.1,0.5,0.1,1,0.2,1.4c0.1,0.4,0.2,0.8,0.3,1.2c0.2,0.7,0.3,1.3,0.2,1.8
		c0,0.3-0.1,0.6-0.1,0.9s0.1,0.5,0.3,0.7s0.5,0.3,0.9,0.2c0.2,0,0.3-0.1,0.5-0.1s0.3-0.1,0.4-0.2c0.1-0.1,0.3-0.2,0.4-0.3
		c0.2-0.1,0.3-0.2,0.3-0.3c0.1-0.1,0.2-0.2,0.4-0.3c0.2-0.2,0.6-0.5,1-0.8C212.4,103.9,212.7,103.7,212.7,103.6z M205.7,104.2
		c0.1-0.5,0-1.4-0.4-2.5s-0.6-1.6-0.7-1.6c-0.1,0-0.2,0.2-0.3,0.6s-0.2,0.7-0.3,0.9c-0.2,0.3-0.5,0.8-0.9,1.6
		c-0.4,0.8-0.6,1.3-0.5,1.4s0.2,0.2,0.5,0.3c0.2,0.1,0.5,0.2,0.7,0.3c0.3,0.1,0.5,0.1,0.7,0C205.2,105,205.6,104.7,205.7,104.2z"/>
	<path d="M68.4,132.2c0.3-0.2,0.5-0.3,0.7-0.3s0.3,0.2,0.3,0.6c0,0.1,0,0.2,0,0.2l-0.1,0.2c0,0.1-0.1,0.1-0.2,0.2
		c-0.1,0.1-0.1,0.1-0.2,0.2c-0.1,0.1-0.1,0.1-0.2,0.2c-0.1,0.1-0.2,0.1-0.2,0.2c-0.1,0-0.1,0.1-0.2,0.1c-0.1,0.1-0.2,0.1-0.2,0.1
		c-0.3,0.2-0.6,0.4-0.9,0.5c0,0-0.2,0.1-0.5,0.3l-0.1,0.1c-0.4,0.4-1,0.6-1.8,0.7c-0.5,0.1-0.9,0.1-1.1,0c-0.3-0.1-0.6-0.2-1.1-0.4
		c-0.7-0.3-1.2-0.6-1.4-0.8c-0.2-0.1-0.3-0.2-0.4-0.2c-0.1,0-0.3,0.1-0.6,0.4c-0.9,0.7-2,1-3.3,1.1s-2.1-0.2-2.5-0.8
		c-0.2-0.4-0.3-1.1-0.3-2.2c0-1.1,0.2-1.9,0.4-2.3c0.2-0.4,0.4-0.7,0.5-0.9s0.3-0.4,0.4-0.5c0.1-0.2,0.3-0.4,0.6-0.8
		c0.9-1.2,1.7-2,2.2-2.4c0.4-0.3,0.9-0.6,1.5-0.8c0.6-0.2,1.2-0.4,1.8-0.5s1.2,0,1.7,0.2c0.6,0.3,0.9,0.8,1.1,1.5
		c0.1,0.7,0.1,1.4,0,2.1c-0.2,0.7-0.4,1.3-0.7,1.9c-0.3,0.6-0.4,1.2-0.6,1.9c-0.1,0.7-0.1,1.1,0,1.3c0.3,0.6,1.2,0.6,2.8,0.1
		c0.1,0,0.1,0,0.2,0c0.1,0,0.2-0.1,0.2-0.1C67.1,133.1,67.9,132.7,68.4,132.2z M61.6,128c0.2-0.1,0.3-0.2,0.3-0.2
		c0-0.1,0-0.1-0.1-0.2c-0.2-0.2-0.4-0.3-0.8-0.4c-0.3-0.1-0.7,0-1,0c-0.3,0.1-0.8,0.4-1.4,0.9c-0.6,0.5-1.1,1-1.3,1.4
		c-0.3,0.4-0.6,0.8-0.8,1.2c-0.3,0.4-0.4,0.9-0.5,1.6c-0.1,0.7-0.1,1.1,0.1,1.4c0.2,0.2,0.5,0.3,1,0.3s1-0.1,1.4-0.2
		c0.4-0.2,0.8-0.5,1-0.9c0.4-0.7,0.7-1.3,0.9-1.7c0.4-0.7,0.6-1.1,0.6-1.4c0-0.2,0.1-0.3,0.2-0.5c0.1-0.2,0.2-0.3,0.1-0.5
		C61.2,128.3,61.3,128.1,61.6,128z"/>
	<path d="M80.3,132.2c0.3-0.3,0.6-0.4,0.9-0.3c0.2,0,0.4,0.3,0.4,0.7c0,0.1,0,0.2-0.1,0.3c0,0.1-0.1,0.2-0.2,0.3
		c-0.1,0.1-0.2,0.2-0.2,0.3c-0.1,0.1-0.2,0.2-0.3,0.3s-0.2,0.2-0.3,0.2c-0.1,0.1-0.2,0.1-0.3,0.2c-0.1,0.1-0.2,0.2-0.3,0.2
		c-0.4,0.2-0.7,0.4-1.1,0.6c-0.2,0.1-0.6,0.3-1.2,0.4c-0.6,0.2-1.3,0.4-2.2,0.6c-0.9,0.2-1.8,0.3-2.6,0.3c-0.8-0.1-1.5-0.3-1.9-0.7
		c-0.2-0.2-0.4-0.4-0.6-0.7c-0.2-0.3-0.4-0.6-0.6-0.9c-0.2-0.3-0.3-0.5-0.3-0.7c-0.2-0.5-0.3-1.3-0.3-2.2c0.1-2.8,1.4-5.3,3.7-7.3
		c0.5-0.5,0.9-0.7,1.2-0.8c0.3-0.1,0.7-0.1,1.4-0.1c1.3,0,2.3,0.3,3,0.9s0.9,1.3,0.8,2.3c-0.1,0.5-0.2,0.8-0.3,0.9s-0.3,0.2-0.7,0.2
		c-0.5,0-0.9,0-1.3-0.3c-0.4-0.2-0.6-0.5-0.5-0.8c0.1-0.2,0-0.5-0.1-0.7c-0.2-0.2-0.4-0.3-0.7-0.3c-0.5,0-1.3,0.5-2.3,1.6
		c-1,1-1.5,1.8-1.5,2.4c0,0.2-0.1,0.5-0.3,0.9c-0.2,0.3-0.3,0.9-0.3,1.7s0.2,1.4,0.4,1.7c0.4,0.5,1,0.9,1.8,1.1
		c0.8,0.2,1.6,0.2,2.3,0.1c0.4-0.1,0.8-0.2,1.2-0.4c0.8-0.3,1.5-0.7,2.2-1.2c0.5-0.4,0.9-0.5,1.1-0.4c0,0,0,0,0.1,0
		C80.2,132.2,80.2,132.2,80.3,132.2z"/>
	<path d="M93.6,130.6c0.2,0.1,0.3,0.4,0.3,0.8c0,0.5-0.2,0.9-0.8,1.3c-0.2,0.1-0.4,0.3-0.7,0.4c0,0-0.1,0-0.2,0.1
		c-0.2,0.1-0.4,0.2-0.5,0.2c-0.5,0-0.9-0.2-1.3-0.5c-0.1-0.1-0.2-0.2-0.3-0.5l-0.1-0.1c-0.1-0.2-0.3-0.4-0.4-0.4
		c-0.1-0.1-0.3,0-0.5,0c-0.2,0.1-0.5,0.5-0.8,1.1c-0.1,0.3-0.2,0.5-0.3,0.7c-0.3,0.4-0.5,0.7-0.7,0.7c-0.3,0.1-0.6,0.3-1.1,0.6
		c-0.6,0.3-1.1,0.5-1.6,0.6c-0.6,0-1,0.1-1.3,0.2c-0.1,0-0.2,0-0.2,0c-0.2,0-0.3,0-0.4-0.1c-0.2-0.1-0.4-0.3-0.8-0.6
		c-0.4-0.3-0.6-0.7-0.8-0.9c-0.1-0.3-0.3-0.7-0.4-1.4c-0.2-1.1-0.3-2-0.2-2.6c0.1-0.7,0.5-1.4,1-2.3c0.7-1.1,1.3-1.9,2-2.4
		c0.6-0.5,1.4-0.8,2.3-1.1c0.4-0.1,0.8-0.2,1.2-0.5c0.5-0.3,1-0.5,1.4-0.4s0.8,0.4,1.4,0.9c0.3,0.3,0.5,0.5,0.6,0.7s0.2,0.4,0.2,0.5
		c0,0.2,0.1,0.4,0.1,0.7c0,1.3,0,2.4,0.1,3.1c0,0.4,0.1,0.8,0.3,1s0.4,0.5,0.8,0.8H92c0.3-0.2,0.5-0.3,0.6-0.4
		C93,130.6,93.4,130.5,93.6,130.6z M87.8,130.2c0.1-0.3,0.1-0.6,0-0.7c-0.1-0.2-0.2-0.4-0.6-0.7c-0.5-0.5-0.7-0.9-0.7-1.2
		c0-0.2-0.1-0.5-0.2-0.7c-0.1-0.3-0.3-0.5-0.4-0.6c-0.1-0.1-0.2-0.1-0.3-0.1s-0.1,0-0.2,0c-0.2,0.1-0.5,0.4-0.9,0.8
		s-0.8,0.9-1.1,1.6c-0.4,0.6-0.6,1.2-0.8,1.8c-0.2,0.5-0.2,0.9-0.1,1.2c0.1,0.2,0.2,0.6,0.2,1.2c0,0.4,0.1,0.7,0.2,0.9
		c0.1,0.2,0.2,0.3,0.3,0.3c0.2,0.1,0.4,0.1,0.8,0.1c0.2,0,0.3,0,0.5,0c0.1,0,0.2,0,0.3,0s0.2-0.1,0.3-0.1c0.1-0.1,0.2-0.1,0.3-0.2
		c0.1-0.1,0.2-0.2,0.4-0.3c0.6-0.5,0.9-0.8,1-1.1s0.3-0.6,0.5-0.9C87.5,131.1,87.7,130.7,87.8,130.2z M88.4,126.8
		c0-0.6-0.1-0.9-0.2-1l-0.1,0.1c-0.1,0.1-0.1,0.4,0,0.9c0.1,0.3,0.1,0.6,0.2,0.7C88.4,127.4,88.4,127.1,88.4,126.8z"/>
	<path d="M112.7,131.5c0.3-0.3,0.6-0.4,0.9-0.3c0.2,0.1,0.4,0.3,0.4,0.7c0,0.1,0,0.3-0.1,0.4c-0.1,0.1-0.1,0.3-0.2,0.3
		c-0.1,0.1-0.2,0.2-0.3,0.3c-0.2,0.1-0.3,0.2-0.3,0.3c-0.1,0.1-0.2,0.1-0.4,0.3c-0.2,0.1-0.3,0.2-0.3,0.2c-0.5,0.3-0.9,0.7-1.4,1
		c-0.6,0.5-1.2,0.8-1.8,1c-0.7,0.2-1.3,0.3-1.7,0.3s-0.9-0.1-1.6-0.2c-0.6-0.2-1.1-0.3-1.4-0.6c-0.4-0.2-0.6-0.6-0.8-1
		s-0.3-0.9-0.3-1.5s0.1-1.3,0.2-2c0.1-0.8,0.4-1.7,0.7-2.8c0.1-0.3,0.1-0.4-0.1-0.4c-0.4,0-1.2,0.7-2.4,2.2
		c-1.2,1.4-2.1,2.8-2.7,4.1c-0.5,0.9-0.8,1.4-1.1,1.6c-0.3,0.2-0.6,0.1-1-0.3c-0.3-0.3-0.5-0.6-0.5-0.8c0-0.3,0.2-0.8,0.6-1.7
		c0.3-0.6,0.5-1.1,0.5-1.3s0.2-0.6,0.5-1.3c0.2-0.8,0.3-1.2,0.2-1.2c-0.2,0-0.5,0.3-1,0.8s-1,1.2-1.5,1.9s-0.9,1.4-1.2,1.9
		c-0.4,0.8-0.8,1.3-1.2,1.5c-0.3,0.2-0.7,0.2-1-0.1s-0.5-0.7-0.4-1.1c0.1-0.4,0.4-1.2,0.9-2.2c0.2-0.3,0.3-0.8,0.4-1.4
		c0.1-0.6,0.3-1,0.4-1.3c0.5-1.1,1-1.8,1.6-2.3c0.1-0.1,0.3-0.2,0.4-0.3c0.2-0.1,0.3-0.1,0.5-0.2s0.3,0,0.3,0.1c0.1,0.1,0,0.3,0,0.6
		c-0.1,0.5-0.1,0.7,0.2,0.6c0.2,0,0.4-0.2,0.6-0.6c0.3-0.5,0.8-1,1.2-1.3c0.2-0.1,0.3-0.2,0.5-0.3c0.2-0.1,0.2-0.1,0.3-0.1
		s0.2-0.1,0.3,0c0.1,0,0.2,0,0.3,0s0.2,0,0.4,0.1s0.3,0.1,0.5,0.1c0.4,0.1,0.6,0.2,0.6,0.4c0,0,0.1,0.3,0.1,0.7
		c0,0.2,0.1,0.3,0.1,0.4s0.1,0.1,0.3,0.1c0.1,0,0.3-0.1,0.5-0.2s0.5-0.3,0.9-0.5c0.9-0.6,1.7-0.9,2.3-1c0.5,0,0.8,0,0.9,0
		c0.1,0.1,0.2,0.2,0.4,0.5c0.2,0.5,0.2,1.1,0.1,1.8c-0.1,0.7-0.3,1.4-0.6,2s-0.5,1.1-0.5,1.4c0,0.3-0.1,0.7-0.2,1.2
		c-0.2,0.5-0.1,0.9,0.1,1.3c0.2,0.4,0.6,0.6,1,0.7c0.3,0,0.6,0,1.1-0.1c0.1,0,0.9-0.3,2.2-0.9l0.4-0.2c0.3-0.2,0.6-0.3,0.9-0.5
		c0.3-0.2,0.6-0.4,1-0.6C112.4,131.8,112.6,131.6,112.7,131.5z"/>
	<path d="M125.8,131.7c0.3-0.3,0.6-0.4,0.9-0.3c0.2,0.1,0.4,0.3,0.4,0.7c0,0.1,0,0.3-0.1,0.4c-0.1,0.1-0.1,0.3-0.2,0.3
		c-0.1,0.1-0.2,0.2-0.3,0.3c-0.2,0.1-0.3,0.2-0.3,0.3c-0.1,0.1-0.2,0.1-0.4,0.3c-0.2,0.1-0.3,0.2-0.3,0.2c-0.3,0.2-0.7,0.4-1.1,0.6
		c-0.3,0.1-0.8,0.3-1.6,0.4c-0.8,0.2-1.4,0.2-1.8,0.2c-0.4,0-0.9-0.1-1.5-0.4c-0.6-0.2-1.2-0.5-1.7-0.7s-0.7-0.3-0.7-0.2h-0.2
		c-0.1,0-0.2,0-0.3,0s-0.3,0.1-0.6,0.2c-0.2,0.2-0.5,0.4-0.7,0.7c-0.4,0.5-0.7,1.1-1,1.9c-0.3,0.8-0.5,1.3-0.6,1.5
		c-0.2,0.3-0.3,0.6-0.5,1s-0.3,0.7-0.5,1s-0.4,0.6-0.6,0.9c-0.2,0.3-0.4,0.4-0.5,0.5s-0.3,0-0.6-0.1c-0.4-0.1-0.6-0.5-0.8-1
		c-0.2-0.6-0.2-1.1-0.1-1.5c0.1-0.3,0.2-0.6,0.5-1s0.5-0.7,0.6-0.9s0.2-0.6,0.3-1.1s0.2-0.8,0.3-1c0.1-0.3,0.3-0.8,0.6-1.3
		c0.3-0.6,0.5-1,0.6-1.3c0.2-0.4,0.3-0.9,0.3-1.6c0.1-0.6,0.2-1.2,0.2-1.8c0.1-0.6,0.3-1.1,0.5-1.5c0-0.1,0.1-0.1,0.1-0.3
		c0.1-0.1,0.1-0.2,0.2-0.3c0.1-0.1,0.1-0.2,0.2-0.3c0.1-0.1,0.1-0.2,0.2-0.3c0.1-0.1,0.1-0.2,0.2-0.3c0.1-0.1,0.2-0.2,0.2-0.3
		c0.1-0.1,0.2-0.2,0.3-0.3c0.1-0.1,0.2-0.2,0.3-0.2c0.1-0.1,0.2-0.1,0.3-0.1c0.5-0.2,0.9,0,1.2,0.3c0.2,0.4,0.2,0.7,0,1.2
		c-0.4,0.6-0.5,0.9-0.2,0.9c0.2-0.1,0.6-0.4,1.1-0.9c0.6-0.6,1.2-1.1,1.7-1.4s1.1-0.5,1.8-0.7c0.7-0.1,1-0.2,1-0.2
		c0.1,0,0.1,0,0.2,0.1c0.1,0.1,0.1,0.2,0.2,0.4c0,0.2,0.1,0.4,0.1,0.6s0.1,0.5,0.1,0.7s0,0.4,0,0.7c0,2.1-0.3,3.5-0.9,4.1
		c-0.4,0.4-0.6,0.7-0.8,1.1c-0.1,0.1-0.1,0.2-0.2,0.3c-0.1,0-0.2,0.1-0.2,0.1c-0.1,0-0.1,0-0.2,0c-0.1,0-0.2,0.1-0.3,0.2
		c-0.2,0.2-0.4,0.3-0.7,0.3c-0.2,0-0.4,0.1-0.8,0.3c-0.3,0.2-0.5,0.3-0.5,0.5c0,0,0.1,0.1,0.2,0.2c0.2,0.1,0.3,0.1,0.6,0.2
		c0.2,0.1,0.5,0.1,0.7,0.2c0.2,0,0.4,0.1,0.6,0.1c0.3,0,0.6,0,0.9-0.1c0.1-0.1,0.3-0.1,0.5-0.2c0.2-0.1,0.4-0.1,0.5-0.2
		c0.2-0.1,0.3-0.1,0.4-0.2C124.2,132.8,125.1,132.2,125.8,131.7z M117.2,131.6c0.2,0.3,0.4,0.4,0.6,0.4c0.3,0,0.9-0.3,1.6-0.9
		c0.7-0.6,1.2-1.1,1.4-1.6s0.3-1,0.3-1.6s-0.1-1-0.2-1.4c-0.2-0.3-0.4-0.4-0.5-0.4c-0.2,0.1-0.6,0.4-1.2,1c-0.6,0.5-1.1,1.2-1.6,1.9
		c-0.5,0.8-0.7,1.4-0.7,1.7C116.9,131,117,131.3,117.2,131.6z"/>
	<path d="M139.6,132.2c0.3-0.2,0.5-0.3,0.7-0.3s0.3,0.2,0.3,0.6c0,0.1,0,0.2,0,0.2c0,0.1-0.1,0.2-0.1,0.2c0,0.1-0.1,0.1-0.2,0.2
		c-0.1,0.1-0.1,0.1-0.2,0.2c-0.1,0.1-0.1,0.1-0.2,0.2s-0.2,0.1-0.2,0.2c-0.1,0-0.1,0.1-0.2,0.1c-0.1,0.1-0.2,0.1-0.2,0.1
		c-0.3,0.2-0.6,0.4-0.9,0.5c0,0-0.2,0.1-0.5,0.3l-0.1,0.1c-0.4,0.4-1,0.6-1.8,0.7c-0.5,0.1-0.9,0.1-1.1,0c-0.3-0.1-0.6-0.2-1.1-0.4
		c-0.7-0.3-1.2-0.6-1.4-0.8c-0.2-0.1-0.3-0.2-0.4-0.2c-0.1,0-0.3,0.1-0.6,0.4c-0.9,0.7-2,1-3.3,1.1s-2.1-0.2-2.5-0.8
		c-0.2-0.4-0.3-1.1-0.3-2.2c0-1.1,0.2-1.9,0.4-2.3c0.2-0.4,0.4-0.7,0.5-0.9s0.3-0.4,0.4-0.5c0.1-0.2,0.3-0.4,0.6-0.8
		c0.9-1.2,1.7-2,2.2-2.4c0.4-0.3,0.9-0.6,1.5-0.8c0.6-0.2,1.2-0.4,1.8-0.5s1.2,0,1.7,0.2c0.6,0.3,0.9,0.8,1.1,1.5
		c0.1,0.7,0.1,1.4,0,2.1c-0.2,0.7-0.4,1.3-0.7,1.9c-0.3,0.6-0.4,1.2-0.6,1.9c-0.1,0.7-0.1,1.1,0,1.3c0.3,0.6,1.2,0.6,2.8,0.1
		c0.1,0,0.1,0,0.2,0c0.1,0,0.2-0.1,0.2-0.1C138.3,133.1,139.1,132.7,139.6,132.2z M132.8,128c0.2-0.1,0.3-0.2,0.3-0.2
		c0-0.1,0-0.1-0.1-0.2c-0.2-0.2-0.4-0.3-0.8-0.4c-0.3-0.1-0.7,0-1,0c-0.3,0.1-0.8,0.4-1.4,0.9c-0.6,0.5-1.1,1-1.3,1.4
		c-0.3,0.4-0.6,0.8-0.8,1.2c-0.3,0.4-0.4,0.9-0.5,1.6s-0.1,1.1,0.1,1.4c0.2,0.2,0.5,0.3,1,0.3s1-0.1,1.4-0.2c0.4-0.2,0.8-0.5,1-0.9
		c0.4-0.7,0.7-1.3,0.9-1.7c0.4-0.7,0.6-1.1,0.6-1.4c0-0.2,0.1-0.3,0.2-0.5c0.1-0.2,0.2-0.3,0.1-0.5
		C132.4,128.3,132.5,128.1,132.8,128z"/>
	<path d="M156.8,130.7c0.2,0,0.3,0.2,0.3,0.7c0,0.2-0.1,0.4-0.2,0.6c-0.2,0.2-0.4,0.5-0.6,0.7c-0.3,0.2-0.6,0.5-0.9,0.7
		c-0.4,0.3-0.7,0.5-1.1,0.6c-0.8,0.4-1.5,0.7-2.1,1c-0.8,0.3-1.4,0.4-2,0.3c-0.6-0.2-1.3-0.6-2-1.4c-0.6-0.6-1-1.1-1.1-1.3
		s-0.2-0.7-0.2-1.4c0-0.9,0.2-1.9,0.5-3c0.3-1.1,0.4-1.6,0.4-1.7c-0.1-0.1-0.7,0.4-1.8,1.4c-1.1,1.1-2.2,2.2-3.3,3.4
		s-1.6,1.9-1.6,2.1c0,0.2-0.1,0.3-0.3,0.5s-0.4,0.3-0.7,0.4c-0.3,0.1-0.5,0.1-0.7,0.1c-0.3,0-0.6-0.3-0.7-0.8
		c-0.1-0.3-0.1-0.6-0.1-0.9c0.1-0.3,0.3-0.7,0.8-1.4c0.3-0.4,0.7-1.3,1.4-2.8s1.3-2.5,1.8-3.1c0.1-0.1,0.2-0.2,0.2-0.3
		c0.2-0.2,0.4-0.3,0.8-0.4c0.3-0.1,0.6-0.1,0.8,0c0.1,0.1,0.2,0.2,0.2,0.5s0.1,0.4,0.2,0.4c0.1,0,0.4-0.1,0.7-0.4
		c0.7-0.5,1.8-0.9,3.3-1.2c0.6-0.2,1-0.2,1.2-0.2s0.4,0.2,0.7,0.4c0.4,0.3,0.5,0.7,0.6,1.3c0,0.5-0.2,1-0.5,1.4s-0.6,1.1-1,2.3
		c-0.4,1.1-0.6,1.9-0.6,2.3c0,0.3,0.1,0.6,0.3,1s0.4,0.7,0.7,0.9s0.5,0.3,0.8,0.3c0.4,0,1.1-0.3,2.3-0.9c1.2-0.6,2.1-1.2,2.8-1.7
		C156.3,130.8,156.6,130.7,156.8,130.7z M145.7,122c0,0-0.3,0.1-0.7,0.1c0-0.1,0-0.2,0-0.3c0-0.1,0-0.2,0-0.3c0-0.1,0-0.1,0.1-0.2
		s0.3-0.3,0.6-0.6c0.3-0.3,0.5-0.6,0.8-0.7c0.3-0.2,0.6-0.2,0.9-0.2c0.6,0.2,1,0.4,1,0.4c0.2,0.1,0.5,0.3,1,0.7
		c0.5,0.3,0.9,0.3,1.3-0.1c0,0,0-0.1,0.1-0.1c0-0.1,0.1-0.1,0.1-0.1l0.1-0.1c0.1,0,0.4-0.1,0.9-0.1c0,0.1,0,0.2,0,0.3
		c0,0.1,0,0.2,0,0.3c0,0.1,0,0.2-0.1,0.2c-0.4,0.8-0.8,1.2-1.1,1.3c-0.3,0.1-0.9,0-1.7-0.3c-0.2-0.1-0.5-0.3-0.9-0.6
		c-0.4-0.3-0.8-0.4-1-0.4s-0.5,0.2-0.9,0.5c0,0-0.1,0-0.1,0.1S145.7,122,145.7,122z"/>
	<path d="M170.1,132.2c0.3-0.2,0.5-0.3,0.7-0.3s0.3,0.2,0.3,0.6c0,0.1,0,0.2,0,0.2l-0.1,0.2c0,0.1-0.1,0.1-0.2,0.2
		c-0.1,0.1-0.1,0.1-0.2,0.2c-0.1,0.1-0.1,0.1-0.2,0.2s-0.2,0.1-0.2,0.2c-0.1,0-0.1,0.1-0.2,0.1c-0.1,0.1-0.2,0.1-0.2,0.1
		c-0.3,0.2-0.6,0.4-0.9,0.5c0,0-0.2,0.1-0.5,0.3l-0.1,0.1c-0.4,0.4-1,0.6-1.8,0.7c-0.5,0.1-0.9,0.1-1.1,0c-0.3-0.1-0.6-0.2-1.1-0.4
		c-0.7-0.3-1.2-0.6-1.4-0.8c-0.2-0.1-0.3-0.2-0.4-0.2c-0.1,0-0.3,0.1-0.6,0.4c-0.9,0.7-2,1-3.3,1.1s-2.1-0.2-2.5-0.8
		c-0.2-0.4-0.3-1.1-0.3-2.2c0-1.1,0.2-1.9,0.4-2.3c0.2-0.4,0.4-0.7,0.5-0.9s0.3-0.4,0.4-0.5c0.1-0.2,0.3-0.4,0.6-0.8
		c0.9-1.2,1.7-2,2.2-2.4c0.4-0.3,0.9-0.6,1.5-0.8c0.6-0.2,1.2-0.4,1.8-0.5s1.2,0,1.7,0.2c0.6,0.3,0.9,0.8,1.1,1.5
		c0.1,0.7,0.1,1.4,0,2.1s-0.4,1.3-0.7,1.9c-0.3,0.6-0.4,1.2-0.6,1.9c-0.1,0.7-0.1,1.1,0,1.3c0.3,0.6,1.2,0.6,2.8,0.1
		c0.1,0,0.1,0,0.2,0c0.1,0,0.2-0.1,0.2-0.1C168.8,133.1,169.6,132.7,170.1,132.2z M163.3,128c0.2-0.1,0.3-0.2,0.3-0.2
		c0-0.1,0-0.1-0.1-0.2c-0.2-0.2-0.4-0.3-0.8-0.4c-0.3-0.1-0.7,0-1,0c-0.3,0.1-0.8,0.4-1.4,0.9c-0.6,0.5-1.1,1-1.3,1.4
		c-0.3,0.4-0.6,0.8-0.8,1.2c-0.3,0.4-0.4,0.9-0.5,1.6c-0.1,0.7-0.1,1.1,0.1,1.4c0.2,0.2,0.5,0.3,1,0.3s1-0.1,1.4-0.2
		c0.4-0.2,0.8-0.5,1-0.9c0.4-0.7,0.7-1.3,0.9-1.7c0.4-0.7,0.6-1.1,0.6-1.4c0-0.2,0.1-0.3,0.2-0.5c0.1-0.2,0.2-0.3,0.1-0.5
		C162.9,128.3,163,128.1,163.3,128z"/>
	<path d="M189.8,131.5c0.3-0.3,0.6-0.4,0.9-0.3c0.2,0.1,0.4,0.3,0.4,0.7c0,0.1,0,0.3-0.1,0.4c-0.1,0.1-0.1,0.3-0.2,0.3
		c-0.1,0.1-0.2,0.2-0.3,0.3c-0.2,0.1-0.3,0.2-0.3,0.3c-0.1,0.1-0.2,0.1-0.4,0.3c-0.2,0.1-0.3,0.2-0.3,0.2c-0.5,0.3-0.9,0.7-1.4,1
		c-0.6,0.5-1.2,0.8-1.8,1c-0.7,0.2-1.3,0.3-1.7,0.3s-0.9-0.1-1.6-0.2c-0.6-0.2-1.1-0.3-1.4-0.6c-0.4-0.2-0.6-0.6-0.8-1
		s-0.3-0.9-0.3-1.5s0.1-1.3,0.2-2c0.1-0.8,0.4-1.7,0.7-2.8c0.1-0.3,0.1-0.4-0.1-0.4c-0.4,0-1.2,0.7-2.4,2.2
		c-1.2,1.4-2.1,2.8-2.7,4.1c-0.5,0.9-0.8,1.4-1.1,1.6c-0.3,0.2-0.6,0.1-1-0.3c-0.3-0.3-0.5-0.6-0.5-0.8c0-0.3,0.2-0.8,0.6-1.7
		c0.3-0.6,0.5-1.1,0.5-1.3s0.2-0.6,0.5-1.3c0.2-0.8,0.3-1.2,0.2-1.2c-0.2,0-0.5,0.3-1,0.8s-1,1.2-1.5,1.9s-0.9,1.4-1.2,1.9
		c-0.4,0.8-0.8,1.3-1.2,1.5c-0.3,0.2-0.7,0.2-1-0.1s-0.5-0.7-0.4-1.1c0.1-0.4,0.4-1.2,0.9-2.2c0.2-0.3,0.3-0.8,0.4-1.4
		c0.1-0.6,0.3-1,0.4-1.3c0.5-1.1,1-1.8,1.6-2.3c0.1-0.1,0.3-0.2,0.4-0.3c0.2-0.1,0.3-0.1,0.5-0.2s0.3,0,0.3,0.1c0.1,0.1,0,0.3,0,0.6
		c-0.1,0.5-0.1,0.7,0.2,0.6c0.2,0,0.4-0.2,0.6-0.6c0.3-0.5,0.8-1,1.2-1.3c0.2-0.1,0.3-0.2,0.5-0.3c0.2-0.1,0.2-0.1,0.3-0.1
		s0.2-0.1,0.3,0c0.1,0,0.2,0,0.3,0s0.2,0,0.4,0.1s0.3,0.1,0.5,0.1c0.4,0.1,0.6,0.2,0.6,0.4c0,0,0.1,0.3,0.1,0.7
		c0,0.2,0.1,0.3,0.1,0.4s0.1,0.1,0.3,0.1c0.1,0,0.3-0.1,0.5-0.2s0.5-0.3,0.9-0.5c0.9-0.6,1.7-0.9,2.3-1c0.5,0,0.8,0,0.9,0
		s0.2,0.2,0.4,0.5c0.2,0.5,0.2,1.1,0.1,1.8c-0.1,0.7-0.3,1.4-0.6,2s-0.5,1.1-0.5,1.4c0,0.3-0.1,0.7-0.2,1.2
		c-0.2,0.5-0.1,0.9,0.1,1.3c0.2,0.4,0.6,0.6,1,0.7c0.3,0,0.6,0,1.1-0.1c0.1,0,0.9-0.3,2.2-0.9l0.4-0.2c0.3-0.2,0.6-0.3,0.9-0.5
		c0.3-0.2,0.6-0.4,1-0.6C189.5,131.8,189.7,131.6,189.8,131.5z"/>
	<path d="M199.2,132.1c0.1,0.2,0.1,0.4,0,0.5c-0.1,0.2-0.4,0.4-0.8,0.8c-0.7,0.6-1.5,1.2-2.5,1.6c-0.7,0.4-1.5,0.5-2.2,0.4
		c-0.8-0.1-1.5-0.3-2.2-0.7s-1.3-0.9-1.8-1.5c-0.7-0.8-0.9-2-0.6-3.4c0-0.1,0.1-0.5,0.2-1.1s0.2-1.2,0.3-1.6
		c0.1-0.5,0.2-0.8,0.3-0.9c0.1-0.2,0.4-0.3,0.7-0.3c0.3-0.1,0.6-0.1,1,0c0.3,0.1,0.6,0.2,0.9,0.3c0.3,0.1,0.5,0.3,0.6,0.6
		c0.1,0.2,0.1,0.5,0,0.8c-0.3,0.7-0.5,1.2-0.5,1.5c0,0.3-0.2,0.6-0.5,1c-0.3,0.3-0.4,0.7-0.5,1.1c-0.1,0.4,0,0.7,0.2,0.8
		s0.2,0.2,0.2,0.6c0,0.3,0.2,0.6,0.6,0.9c0.3,0.3,0.5,0.4,0.6,0.4c0.2,0,0.4,0,0.9-0.1c0.6-0.2,1.4-0.7,2.4-1.4
		c0.8-0.6,1.4-0.9,1.7-0.9C198.7,131.6,199,131.7,199.2,132.1z M195.2,121.3c-0.4,0.1-0.8,0-1.2-0.5c-0.3-0.3-0.4-0.5-0.5-0.6
		c0-0.1,0.1-0.2,0.3-0.4c0.3-0.2,0.7-0.3,1.2-0.3s0.8,0.1,1,0.3c0.2,0.3,0.2,0.5,0,0.8C195.9,121,195.6,121.2,195.2,121.3z"/>
	<path d="M208,132.4c0.3-0.3,0.6-0.4,0.9-0.3c0.2,0.1,0.4,0.3,0.4,0.7c0,0.1,0,0.3-0.1,0.4c-0.1,0.1-0.1,0.3-0.2,0.3
		c-0.1,0.1-0.2,0.2-0.3,0.3s-0.3,0.2-0.3,0.3c-0.1,0.1-0.2,0.1-0.4,0.3c-0.2,0.1-0.3,0.2-0.3,0.2c-0.4,0.2-0.7,0.4-1.1,0.6
		c0,0-0.1,0-0.1,0.1c-0.1,0-0.1,0-0.2,0.1c-0.1,0-0.1,0-0.2,0.1c-0.1,0-0.1,0-0.1,0.1h-0.1c-0.9,0.4-1.9,0.6-3,0.7
		c-1.1,0.1-1.9,0-2.4-0.3c-0.1,0-0.3-0.1-0.7-0.3s-0.7-0.3-0.9-0.5c-0.3-0.2-0.7-0.7-1-1.5c-0.6-1.4-0.9-2.5-0.9-3.6
		c0-0.6,0.1-1.5,0.3-2.5c0-0.1,0-0.2,0.1-0.4c0-0.2,0.1-0.3,0.1-0.4s0.1-0.2,0.1-0.4c0-0.2,0.1-0.3,0.1-0.4s0.1-0.2,0.2-0.4
		c0.1-0.1,0.1-0.2,0.2-0.3c0.3-0.4,0.6-0.8,0.8-0.9c0.8-0.8,1.8-1.2,3.1-1.1s2,0.5,2.1,1.3c0.1,0.6,0.1,1.2-0.1,1.8
		c-0.2,0.6-0.4,1.1-0.6,1.5s-0.6,0.9-1,1.6c-0.4,0.6-0.7,1.1-0.9,1.5c-0.7,1.2-1,2-1,2.2s0.2,0.5,0.6,0.8c0.2,0.2,0.5,0.4,0.6,0.4
		c0.2,0,0.5,0,1-0.1c0.8-0.1,1.6-0.3,2.5-0.6c0.3-0.1,0.8-0.3,1.5-0.6C207.4,132.8,207.8,132.6,208,132.4z M199.2,130.8
		c0.1,0,0.5-0.6,1.1-1.8s0.9-1.9,0.9-2.1c0-0.3-0.2-0.5-0.5-0.6s-0.6,0-0.7,0.2c-0.2,0.2-0.3,0.5-0.5,0.8c-0.2,0.4-0.3,0.7-0.4,1.1
		c-0.1,0.4-0.1,0.7-0.2,1.1c-0.1,0.3-0.1,0.6,0,0.9C199,130.7,199.1,130.8,199.2,130.8z"/>
	<path d="M206.6,131.9c0.2-0.4,0.7-1.3,1.4-2.8s1.3-2.5,1.8-3.1c0.1-0.1,0.2-0.2,0.2-0.3c0.2-0.2,0.4-0.3,0.7-0.4s0.6-0.1,0.9,0
		c0.1,0.1,0.2,0.2,0.2,0.5s0.1,0.4,0.2,0.4c0.1,0,0.4-0.1,0.8-0.4c0.7-0.5,1.8-0.9,3.3-1.2c0.6-0.2,1-0.2,1.2-0.2s0.4,0.2,0.7,0.4
		c0.3,0.3,0.5,0.8,0.5,1.3s-0.2,1-0.5,1.4s-0.6,1.1-1,2.2c-0.4,1.1-0.6,1.9-0.6,2.3c0,0.3,0.1,0.6,0.3,1s0.5,0.6,0.7,0.9
		c0.3,0.2,0.6,0.3,0.8,0.3c0.4,0,1.1-0.3,2.3-0.9c1.2-0.6,2.1-1.2,2.7-1.7c0.5-0.4,0.8-0.6,1.1-0.5c0.2,0,0.3,0.2,0.3,0.7
		c0,0.2-0.1,0.4-0.2,0.6c-0.2,0.2-0.4,0.5-0.6,0.7c-0.3,0.2-0.6,0.5-0.9,0.7c-0.4,0.2-0.7,0.4-1.1,0.6c-1,0.5-1.7,0.8-2.1,1
		c-0.8,0.3-1.4,0.4-2,0.3c-0.6-0.2-1.3-0.6-2-1.4c-0.6-0.6-1-1.1-1.1-1.3s-0.2-0.7-0.2-1.3c0-1,0.2-2,0.5-3s0.4-1.6,0.4-1.7
		c-0.1-0.1-0.7,0.4-1.8,1.5c-1.1,1.1-2.2,2.2-3.3,3.4s-1.6,1.9-1.6,2c0,0.2-0.1,0.3-0.3,0.5s-0.4,0.3-0.7,0.4
		c-0.3,0.1-0.5,0.1-0.7,0.1c-0.3,0-0.6-0.3-0.7-0.8c-0.1-0.3-0.1-0.6,0-0.9C205.9,133,206.2,132.5,206.6,131.9z"/>
	<path d="M234.8,132.2c0.3-0.2,0.6-0.3,0.9-0.2c0.2,0.1,0.3,0.3,0.3,0.8c0,0.1,0,0.2-0.1,0.3s-0.1,0.2-0.2,0.3
		c-0.1,0.1-0.2,0.2-0.3,0.2c-0.1,0.1-0.2,0.2-0.3,0.2c-0.1,0.1-0.2,0.1-0.3,0.2c-0.1,0-0.2,0.1-0.3,0.2c-0.1,0.1-0.2,0.1-0.3,0.2
		c-0.4,0.2-0.8,0.4-1.2,0.5c0,0-0.2,0.1-0.6,0.3c-0.4,0.2-0.8,0.5-1.2,0.7c-0.5,0.3-0.8,0.4-1.1,0.5c-0.4,0.1-0.8,0.2-1.2,0.3
		s-0.9,0.1-1.3,0.1c-0.5,0-0.9,0-1.3-0.1c-0.4-0.1-0.8-0.3-1.1-0.5c-0.3-0.3-0.6-0.7-0.8-1.3c-0.2-0.5-0.4-1.1-0.4-1.8
		c-0.1-0.6-0.1-1.2-0.1-1.8s0-1.1,0.1-1.6c0-0.1,0.1-0.7,0.3-1.9c0.2-1.2,0.3-2.4,0.5-3.6l0.2-1.7c-0.2-0.1-0.5-0.2-1-0.2
		c-0.3,0-0.6,0-0.9,0c-0.7,0-1.3,0-1.6-0.1c-0.1,0-0.1,0-0.3,0s-0.2,0-0.3,0s-0.2,0-0.3,0s-0.2,0-0.3,0s-0.1-0.1-0.1-0.1
		c0-0.2,0.1-0.4,0.3-0.5c0,0,0.1-0.1,0.3-0.2s0.4-0.2,0.6-0.3s0.5-0.2,0.8-0.3c0.3-0.1,0.7-0.1,1.1-0.1c1.1,0.1,1.8,0.1,2.1,0.1
		s0.6-0.2,0.8-0.5c0.4-0.4,0.9-1.4,1.6-3c0-0.1,0.1-0.2,0.1-0.3c0.3-0.6,0.5-1.1,0.6-1.4c0.2-0.3,0.4-0.8,0.7-1.3s0.6-1,1-1.3
		c0.4-0.4,0.7-0.6,1.1-0.8c1.3-0.6,1.9-0.6,1.9,0.1c0,0.4-0.3,1.3-0.9,2.6c-0.2,0.4-0.3,0.7-0.4,0.9c-0.1,0.3-0.2,0.6-0.2,1
		c-0.1,0.4-0.2,0.8-0.4,1.1c-0.4,0.6-0.7,1.2-0.9,1.6c-0.3,0.5-0.4,0.8-0.3,0.9c0.1,0.1,0.8,0.3,2.3,0.4c1,0.1,1.6,0.2,1.8,0.3
		c0.2,0.1,0.3,0.2,0.3,0.4c0,0.3-0.2,0.4-0.5,0.4c-0.1,0-0.4,0-0.7,0c-0.4,0-0.8,0-1.2,0.1c-0.5,0-0.9,0.1-1.4,0.1
		c-0.5,0.1-0.9,0.1-1.2,0.1c-0.2,0-0.4,0.5-0.7,1.4s-0.6,2.1-0.9,3.4c-0.3,1.3-0.6,2.2-0.7,2.7c-0.8,2.3-0.7,3.9,0.3,4.7
		c0.4,0.4,0.8,0.6,1.2,0.6c0.2,0,0.5-0.1,0.7-0.2c0-0.1,0.2-0.2,0.5-0.3s0.5-0.2,0.8-0.3s0.6-0.2,0.9-0.3c0.3-0.1,0.4-0.2,0.5-0.2
		C233.1,133.2,234.1,132.7,234.8,132.2z"/>
	<path d="M247.7,130.6c0.2,0.1,0.3,0.4,0.3,0.8c0,0.5-0.2,0.9-0.8,1.3c-0.2,0.1-0.4,0.3-0.7,0.4c0,0-0.1,0-0.2,0.1
		c-0.2,0.1-0.4,0.2-0.5,0.2c-0.5,0-0.9-0.2-1.3-0.5c-0.1-0.1-0.2-0.2-0.3-0.5l-0.1-0.1c-0.1-0.2-0.3-0.4-0.4-0.4
		c-0.1-0.1-0.3,0-0.5,0c-0.2,0.1-0.5,0.5-0.8,1.1c-0.1,0.3-0.2,0.5-0.3,0.7c-0.3,0.4-0.5,0.7-0.7,0.7c-0.3,0.1-0.6,0.3-1.1,0.6
		c-0.6,0.3-1.1,0.5-1.6,0.6c-0.6,0-1,0.1-1.3,0.2c-0.1,0-0.2,0-0.2,0c-0.2,0-0.3,0-0.4-0.1c-0.2-0.1-0.4-0.3-0.8-0.6
		c-0.4-0.3-0.6-0.7-0.8-0.9c-0.1-0.3-0.3-0.7-0.4-1.4c-0.2-1.1-0.3-2-0.2-2.6c0.1-0.7,0.5-1.4,1-2.3c0.7-1.1,1.3-1.9,2-2.4
		c0.6-0.5,1.4-0.8,2.3-1.1c0.4-0.1,0.8-0.2,1.2-0.5c0.5-0.3,1-0.5,1.4-0.4s0.8,0.4,1.4,0.9c0.3,0.3,0.5,0.5,0.6,0.7s0.2,0.4,0.2,0.5
		c0,0.2,0.1,0.4,0.1,0.7c0,1.3,0,2.4,0.1,3.1c0,0.4,0.1,0.8,0.3,1s0.4,0.5,0.8,0.8h0.1c0.3-0.2,0.5-0.3,0.6-0.4
		C247.1,130.6,247.4,130.5,247.7,130.6z M241.8,130.2c0.1-0.3,0.1-0.6,0-0.7c-0.1-0.2-0.2-0.4-0.6-0.7c-0.5-0.5-0.7-0.9-0.7-1.2
		c0-0.2-0.1-0.5-0.2-0.7c-0.1-0.3-0.3-0.5-0.4-0.6c-0.1-0.1-0.2-0.1-0.3-0.1s-0.1,0-0.2,0c-0.2,0.1-0.5,0.4-0.9,0.8
		s-0.8,0.9-1.1,1.6c-0.4,0.6-0.6,1.2-0.8,1.8c-0.2,0.5-0.2,0.9-0.1,1.2c0.1,0.2,0.2,0.6,0.2,1.2c0,0.4,0.1,0.7,0.2,0.9
		c0.1,0.2,0.2,0.3,0.3,0.3c0.2,0.1,0.4,0.1,0.8,0.1c0.2,0,0.3,0,0.5,0c0.1,0,0.2,0,0.3,0s0.2-0.1,0.3-0.1c0.1-0.1,0.2-0.1,0.3-0.2
		c0.1-0.1,0.2-0.2,0.4-0.3c0.6-0.5,0.9-0.8,1-1.1s0.3-0.6,0.5-0.9C241.6,131.1,241.8,130.7,241.8,130.2z M242.5,126.8
		c0-0.6-0.1-0.9-0.2-1l-0.1,0.1c-0.1,0.1-0.1,0.4,0,0.9c0.1,0.3,0.1,0.6,0.2,0.7C242.5,127.4,242.5,127.1,242.5,126.8z"/>
	<path d="M258.4,130.7c0.3-0.3,0.6-0.4,0.9-0.3c0.2,0.1,0.4,0.3,0.4,0.7c0,0.1,0,0.2,0,0.3s-0.1,0.2-0.1,0.3
		c-0.1,0.1-0.1,0.2-0.2,0.3c-0.1,0.1-0.2,0.2-0.2,0.2c-0.1,0.1-0.2,0.1-0.3,0.2c-0.1,0.1-0.2,0.1-0.3,0.2c-0.1,0.1-0.2,0.1-0.3,0.2
		c-0.1,0.1-0.2,0.1-0.2,0.2c-0.4,0.2-0.7,0.4-1.1,0.6c0,0-0.1,0.1-0.2,0.1c-0.4,0.4-0.8,0.7-1.1,0.9c-0.3,0.1-0.7,0.2-1.2,0.2
		c-0.5,0.2-0.9,0.1-1.1,0c-0.1,0-0.2,0-0.5,0s-0.5,0-0.6-0.1c-0.1,0-0.3,0-0.5,0s-0.4,0-0.6,0.1c-0.2,0-0.3,0.1-0.5,0.2
		c-0.2,0.1-0.4,0.2-0.7,0.2s-0.8-0.1-1.6-0.2c-0.5-0.1-1-0.1-1.3-0.2c-0.1,0-0.2,0-0.2,0c-0.1,0-0.2,0-0.3,0s-0.2,0-0.2-0.1
		c-0.2-0.1-0.4-0.5-0.6-1.2c-0.1-0.4-0.2-0.8-0.2-1.3c0-0.2,0-0.3,0-0.4c0.1-0.4,0.2-0.6,0.4-0.7c0.1,0,0.2-0.1,0.3-0.1
		c0.2,0,0.3-0.1,0.4-0.2c0.1-0.1,0.2-0.3,0.3-0.5c0.1-0.3,0.1-0.5,0.2-0.8c0-0.2,0-0.4,0.1-0.5s0.2-0.2,0.3-0.3
		c0.2-0.1,0.3-0.2,0.3-0.2c0.2-0.2,0.3-0.4,0.5-0.6c0.1-0.1,0.2-0.6,0.4-1.3c0.2-0.6,0.3-1.1,0.4-1.7c0.1-0.6,0.2-1.1,0.2-1.5
		c0.1-0.9,0.2-1.5,0.3-1.6c0.1-0.2,0.4-0.2,0.7-0.2c0.4,0,0.7,0.1,0.9,0.3c0.1,0.1,0.2,0.2,0.3,0.4c0.1,0.2,0.2,0.3,0.2,0.5
		c0,0.1,0.1,0.3,0.2,0.6c0.1,0.2,0.1,0.4,0.1,0.5c0.3,0.8,0.5,1.6,0.6,2.3c0,0.3,0.1,0.7,0.2,1.2c0.1,0.5,0.1,1,0.2,1.4
		c0.1,0.4,0.2,0.8,0.3,1.2c0.2,0.7,0.3,1.3,0.2,1.8c0,0.3-0.1,0.6-0.1,0.9c0,0.3,0.1,0.5,0.3,0.7s0.5,0.3,0.9,0.2
		c0.2,0,0.3-0.1,0.5-0.1c0.2-0.1,0.3-0.1,0.4-0.2c0.1-0.1,0.3-0.2,0.4-0.3c0.2-0.1,0.3-0.2,0.3-0.3c0.1-0.1,0.2-0.2,0.4-0.3
		c0.2-0.2,0.6-0.5,1-0.8C258.1,130.9,258.3,130.8,258.4,130.7z M251.3,131.2c0.1-0.5,0-1.4-0.4-2.5c-0.4-1.1-0.6-1.6-0.7-1.6
		c-0.1,0-0.2,0.2-0.3,0.6c-0.1,0.4-0.2,0.7-0.3,0.9c-0.2,0.3-0.5,0.8-0.9,1.6s-0.6,1.3-0.5,1.4c0.1,0.1,0.2,0.2,0.5,0.3
		c0.2,0.1,0.5,0.2,0.7,0.3c0.3,0.1,0.5,0.1,0.7,0C250.8,132.1,251.2,131.8,251.3,131.2z"/>
</g>
</svg>
