<?xml version="1.0" encoding="utf-8"?>
<!-- Generator: Adobe Illustrator 25.2.3, SVG Export Plug-In . SVG Version: 6.00 Build 0)  -->
<svg version="1.1" id="Capa_1" xmlns="http://www.w3.org/2000/svg" xmlns:xlink="http://www.w3.org/1999/xlink" x="0px" y="0px"
	 viewBox="0 0 421.2 278" style="enable-background:new 0 0 421.2 278;" xml:space="preserve">
<style type="text/css">
	.st0{display:none;}
</style>
<g>
	<path d="M347.4,188.4c-0.2-0.7-0.7-0.9-1.5-0.7c-0.7,0.1-1.4,0.3-2,0.4c-4.1,0.9-8.1,1.9-12.2,2.8c-3.2,0.7-6.5,1.5-9.7,2.2
		c-1.4,0.3-2.8,0.6-4.3,1c0.1-0.2,0.1-0.3,0.2-0.3c1.9-2.6,3.6-5.2,4.9-8c1.1-2.4,2.1-4.7,2.9-7.1c1.2-3.2,1.9-6.5,2.3-9.8
		c0.6-4.7,0.7-9.5-0.1-14.2c-0.4-2.3-0.9-4.6-1.5-6.9c-0.8-2.4-1.6-4.9-2.8-7.3c-1.6-3.4-3.6-6.6-6-9.6c-1.9-2.5-4.1-4.9-6.5-7.1
		c-1.5-1.5-3.2-2.8-4.9-4.2c-2.4-1.8-4.9-3.5-7.6-5.1c-3.5-2-7-3.8-10.8-5.2c-3.6-1.4-7.4-2.6-11.4-3.4c-1.7-0.3-3.4-0.7-5.2-0.9
		c-0.1-0.7-0.2-1.3-0.2-2c-1.5-9.1-6.6-16.4-15.7-21.4c-6.9-3.8-14.5-5.6-22.4-6.7c-13.3-1.8-26.7-2.4-40.1-2.4
		c-7.7,0-15.3,0.1-23,0.3s-15.3,0.6-22.9,1.1c-14.7,1-29.2,3-43.5,6.2c-8.8,2-17.6,4-25.9,7c-8.2,2.9-15.8,6.7-22.1,12.1
		c-7,6-10.9,13.1-11,21.6c0,8.9,3.9,16.4,11.6,22.4c6,4.7,13.5,7.2,21.4,8.4c7.4,1.2,15,1.5,22.6,1.6c11.3,0.1,22.6,0,36.7,0
		c5.2-0.1,13.1-0.3,21-0.6c6.3-0.2,12.8-0.5,19.1-0.9c6.7-0.4,13.5-0.9,20.2-1.3c2.4-0.1,4.8-0.4,7.3-0.6c1-0.1,1.5-0.9,1.4-1.8
		c-0.2-0.8-0.6-1.1-1.7-1.1c-3.9,0.3-7.9,0.7-11.8,0.9c-10.8,0.6-21.6,1.3-32.4,1.7c-12.2,0.5-24.4,0.7-36.6,0.9
		c-10.9,0.2-21.8,0.3-32.7-0.6c-5.4-0.4-10.8-0.8-16-2c-7.6-1.6-14.4-4.6-19.5-9.8c-7-7.2-9.6-15.4-6.6-24.5c2-6.1,6.4-11,12.1-15
		c5.5-3.9,11.7-6.7,18.3-8.9c13-4.4,26.5-7.6,40.1-9.8c10.8-1.8,21.7-3,32.6-3.6c6.2-0.3,12.4-0.7,18.6-0.8c7-0.1,14.2-0.2,21.2-0.1
		c8.3,0.1,16.6,0.5,24.9,0.8c6.2,0.2,12.4,0.5,18.6,1.4c6.3,0.9,12.4,2.5,17.9,5.3c7.8,3.9,12.8,9.6,14.9,17.1
		c1.8,6.2,1.3,12.3-0.7,18.5c-2.9,9.1-9.4,16.2-17.8,22.1c-6.8,4.7-14.5,8.2-22.6,11.1c-8.6,3.1-17.5,5.5-26.5,7.8
		c-13.1,3.5-26.6,5.7-40.4,6.2c-9.4,0.3-18.6-0.3-27.8-1.9c-1.2-0.2-1.9,0.1-2.2,1.1c-0.2,0.9,0.2,1.5,1.4,1.6
		c9.6,1.7,19.3,2.3,29.1,2c8-0.3,16.1-1.2,24-2.6c11.1-2,21.9-4.7,32.6-7.9c9.7-2.9,19.2-6.5,27.8-11.3c7.7-4.4,14.5-9.6,19.3-16.5
		c5.1-7.3,8.1-14.9,7.9-23.2c4,0.7,8,1.5,11.8,2.8c4.1,1.3,8,3,11.7,4.9c2.6,1.5,5.2,3.1,7.6,4.7c2.1,1.5,4.1,3,5.9,4.7
		c2.1,1.9,3.9,4,5.8,6c2.7,3.1,4.9,6.5,6.6,10.1c1.1,2.4,2.1,4.7,2.9,7.2c1.1,3.4,1.7,6.8,2,10.3c0.4,4.6,0.1,9.2-0.8,13.7
		c-0.6,3.1-1.5,6.1-2.7,9.2c-1.4,3.4-3.1,6.7-5.3,9.8c-0.7,1.1-1.5,2-2.2,3.1c-0.2-0.2-0.1-0.3-0.1-0.4c0.6-2.6,1.2-5.1,1.8-7.8
		c0.8-3.4,1.5-6.9,2.3-10.3c0.2-1.1,0.5-2.2,0.8-3.4c0.2-0.7-0.3-1.3-1.2-1.4c-0.8-0.1-1.1,0.1-1.3,0.9c-0.4,1.6-0.8,3.2-1.2,4.9
		c-0.5,2.2-1,4.4-1.5,6.7c-0.5,2.5-1.2,5-1.7,7.5c-0.4,1.9-0.9,3.8-1.2,5.7c-0.2,0.9,0.6,1.5,1.6,1.2c2.2-0.5,4.3-1,6.5-1.5
		c2.6-0.6,5.2-1.2,7.7-1.8c2.7-0.6,5.4-1.2,8.1-1.8c2.8-0.7,5.6-1.3,8.4-1.9c0.9-0.2,1.9-0.5,2.8-0.7
		C347.3,189.6,347.6,189,347.4,188.4z"/>
	<path d="M298.7,219.8c-1.4-0.3-2.9-0.5-4.3-0.9c-1.4-0.3-2.8-0.6-4.2-0.9c0.1-0.1,0.1-0.1,0.1-0.1c2.2-0.7,4.3-1.3,6.6-2
		c1-0.3,1.9-0.6,2-1.6c0.2-0.9-0.5-2-2.1-1.6c-0.9,0.3-1.7,0.5-2.6,0.8c-1.7,0.5-3.4,1.1-5.2,1.6s-3.5,1.1-5.3,1.6
		c0-0.1,0-0.2,0-0.2c0.8-1.8,1.6-3.6,2.4-5.5c0.6-1.5,1.2-2.8,1.9-4.3c0.2-0.5,0.2-1-0.3-1.3c-1-0.8-2.6-0.5-3.1,0.6
		c-0.9,1.9-1.7,3.9-2.6,5.8c-0.5,1.3-1.2,2.6-1.8,4c-0.9-1.4-1.6-2.7-2.3-4c-1.5-2.6-3.1-5.3-4.6-7.9c-0.5-0.9-1.5-1.2-2.3-0.8
		c-1,0.4-1.4,1.3-0.9,2.1c0.3,0.5,0.6,1.1,0.9,1.6c1.5,2.5,2.9,5.1,4.5,7.6c0.2,0.3,0.3,0.5,0.5,0.9c-0.5-0.1-0.9-0.1-1.2-0.2
		c-3.2-0.7-6.6-1.3-9.8-1.9c-0.8-0.1-1.3,0.1-1.9,0.5c-0.5,0.4-0.7,0.9-0.5,1.5s0.6,0.9,1.4,1.1c0.7,0.1,1.3,0.3,1.9,0.4
		c2.7,0.5,5.3,1.1,8,1.6c0.9,0.2,1.7,0.3,2.7,0.6c-0.2,0.1-0.3,0.1-0.5,0.2c-1.5,0.5-3.1,0.9-4.6,1.4c-2.2,0.7-4.5,1.4-6.7,2
		c-0.6,0.2-1.3,0.4-1.7,1s-0.4,1.5,0.2,2c0.4,0.4,1,0.5,1.9,0.3c0.8-0.3,1.6-0.5,2.4-0.7c2-0.6,4-1.2,6-1.8c1.2-0.4,2.6-0.7,3.9-1.2
		c-0.3,0.7-0.5,1.1-0.7,1.6c-0.7,1.6-1.5,3.2-2.2,4.8c-0.3,0.7-0.2,1.3,0.5,1.6c1.2,0.7,2.4,0.3,2.9-0.9c0.6-1.4,1.2-2.8,1.9-4.2
		c0.2-0.5,0.5-1,0.7-1.6c1.9,3.1,3.6,6.1,5.3,9.2c0.3,0.5,0.6,1.1,1.5,1.3c0.8,0.1,1.4-0.1,1.9-0.7c0.5-0.5,0.5-1.1,0.1-1.6
		c-1.1-1.8-2.1-3.5-3.2-5.3c-1.2-1.9-2.3-3.9-3.5-5.9c0.4,0,0.7-0.1,1-0.1c2.6,0.5,5.2,1.1,7.7,1.5c2.1,0.4,4.1,0.8,6.2,1.2
		c1,0.2,1.9-0.4,2.2-1.3C300.2,220.5,299.8,220,298.7,219.8z"/>
</g>
<g>
	<path d="M145,87.3c0.2,0,0.4-0.2,0.9-0.5c0.7-0.5,1.6-0.8,2.7-1c0.2,0,0.8,0.4,1.6,1.1c1.9,1.8,2.3,3.9,1.1,6.2
		c-0.7,1.4-0.9,2.2-0.6,2.3h0.1c0.7-0.3,1.3-0.6,1.8-0.7c0.5-0.2,0.8-0.2,1.1-0.2s0.5,0.1,0.6,0.2s0.2,0.3,0.2,0.6
		c0,0.5-0.3,1-0.9,1.4c-0.6,0.4-1.4,0.8-2.4,1c-0.7,0.2-1.2,0.3-1.5,0.5s-0.6,0.4-0.8,0.8c-6.8,10.9-11.6,13.6-14.4,8
		c-0.3-0.7-0.6-1.7-0.7-2.7c-0.2-1.1-0.1-1.8,0.1-2.3c0.4-0.9,0.8-2.7,1.3-5.4c0.2-1.1,0.6-2.1,1-3c0.5-1,0.7-1.6,0.7-1.7
		c0-0.3,0.8-1,2.3-2.2s2.6-2,3.4-2.3c0.6-0.3,1-0.5,1.2-0.5s0.4,0.1,0.6,0.2C144.7,87.2,144.9,87.3,145,87.3z M143.7,92.3
		c-0.3-0.4-0.4-0.8-0.4-1.3c0-0.6-0.1-0.8-0.3-0.9c-0.2,0-0.6,0.2-1.2,0.7c-1.9,1.5-3.1,2.8-3.6,4c-0.4,1-0.9,2.6-1.4,5
		s-0.7,3.8-0.6,4.3c0.1,0.5,0.1,1,0.1,1.5c0,0.4,0.2,0.8,0.5,1.2s0.7,0.5,1.1,0.5c0.9,0,2.3-0.9,4.2-2.7s3.3-3.7,4.3-5.6l0.8-1.5
		l-1.3-1.2c-0.9-0.9-1.4-1.7-1.5-2.4C144.1,93.2,143.9,92.7,143.7,92.3z M149.5,90.9c0.1-0.8,0.1-1.4-0.2-1.8
		c-0.1-0.2-0.5-0.3-1-0.3s-0.9,0.2-1.1,0.7c-0.1,0.2-0.2,0.4-0.3,0.5s-0.3,0.2-0.4,0.2c-0.3,0-0.4,0.3-0.5,0.9s0,1.3,0.2,2.1
		c0.2,0.8,0.4,1.3,0.8,1.7c0.1,0.2,0.2,0.3,0.3,0.3s0.2,0,0.3-0.1s0.3-0.3,0.4-0.6c0.1-0.3,0.3-0.6,0.6-1.1
		C149.1,92.5,149.4,91.7,149.5,90.9z"/>
	<path d="M168.1,105.3c0.3-0.3,0.7-0.4,0.9-0.4c0.3,0,0.4,0.3,0.4,0.8c0,0.1,0,0.3-0.1,0.4s-0.1,0.3-0.2,0.4s-0.2,0.2-0.4,0.3
		c-0.2,0.1-0.3,0.2-0.4,0.3c-0.1,0.1-0.2,0.2-0.4,0.3s-0.3,0.2-0.3,0.2c-1.1,0.8-1.7,1.2-1.7,1.2c-0.1,0.1-0.3,0.2-0.7,0.3
		s-0.7,0.2-0.9,0.2c-0.3,0.1-0.5,0.1-0.7,0.1s-0.4,0-0.7-0.1s-0.5-0.1-0.6-0.2c-0.1,0-0.2-0.1-0.3-0.1c-0.4-0.2-1-0.7-1.8-1.4
		l-0.9-0.9l-1.2,0.9c-0.8,0.6-1.7,0.9-2.7,1c-0.8,0.1-1.6,0-2.3-0.3s-1.3-0.7-1.7-1.3c-0.4-0.6-0.5-1.4-0.4-2.3
		c0.2-0.9,0.6-1.9,1.4-3c0.7-1.1,1.5-2,2.3-2.8c0.6-0.6,1.1-0.9,1.5-0.9c0.2,0,0.4,0.2,0.7,0.5c0.2,0.2,0.3,0.4,0.3,0.5
		s-0.1,0.4-0.4,0.9c-2,3.8-2.5,5.9-1.5,6.2h0.2c0.7,0.1,1.5-0.4,2.7-1.6c1.1-1.2,1.9-2.4,2.4-3.6c0.3-0.8,0.7-1.5,1.2-2.2
		c0.4-0.6,0.7-0.9,0.9-1s0.5,0,1.1,0.3c0.4,0.2,0.7,0.5,0.7,0.8s-0.1,0.8-0.5,1.5c-0.2,0.3-0.3,0.6-0.4,0.9
		c-0.1,0.3-0.2,0.6-0.3,0.9c0,0.1-0.1,0.2-0.1,0.4s-0.1,0.4-0.1,0.5c-0.1,0.4-0.2,0.7-0.3,1c-0.2,0.7-0.2,1.3-0.2,1.9s0.1,1,0.3,1.2
		s0.5,0.3,1,0.3c0.1,0,0.3-0.1,0.6-0.2s0.6-0.2,0.7-0.3C166.4,106.5,167.4,105.9,168.1,105.3z"/>
	<path d="M183.3,104.6c0.3-0.3,0.6-0.4,0.9-0.4c0.3,0.1,0.4,0.3,0.4,0.8c0,0.1,0,0.2-0.1,0.4c0,0.1-0.1,0.2-0.2,0.3
		c-0.1,0.1-0.2,0.2-0.3,0.3c-0.1,0.1-0.2,0.2-0.3,0.3c-0.1,0.1-0.2,0.2-0.3,0.2c-0.1,0.1-0.2,0.1-0.3,0.2s-0.2,0.2-0.3,0.2
		c-0.4,0.3-0.8,0.5-1.2,0.6c0,0-0.1,0-0.1,0.1s-0.1,0.1-0.2,0.2c-0.1,0-0.2,0.1-0.4,0.1c-0.4,0.2-0.9,0.3-1.6,0.4
		c-0.7,0.1-1.4,0.1-2,0.1s-1-0.1-1.1-0.2s-0.3-0.3-0.5-0.6s-0.3-0.6-0.5-0.9s-0.2-0.5-0.2-0.7c-0.1-0.5-0.2-1-0.1-1.5
		c0-0.5,0.1-1.4,0.3-2.5v-0.3c0-0.1,0-0.1-0.1-0.2c-0.1,0-0.1-0.1-0.2-0.1c-0.1,0-0.2,0-0.4,0s-0.4,0-0.6-0.1s-0.5-0.1-0.7-0.2
		s-0.4-0.1-0.6-0.1c0,0,0,0.2-0.2,0.8s-0.3,1-0.5,1.6s-0.4,0.9-0.5,1c-0.6,0.3-1.2,0.6-1.8,0.7c-0.8,0.2-0.5-1.6,1.1-5.4
		c0-0.1,0.1-0.3,0.2-0.6c0.1-0.3,0.2-0.5,0.3-0.6c0-0.1,0.1-0.3,0.2-0.6c0.1-0.3,0.2-0.5,0.2-0.6c0-0.2,0.1-0.4,0.2-0.6
		c0.1-0.2,0.1-0.5,0.1-0.7s0-0.4,0-0.7c0-0.3,0.2-0.7,0.5-1.4c0.3-0.7,0.6-1,0.8-1.2c0.3-0.1,0.6-0.2,1-0.2s0.7,0.1,0.9,0.3
		c0.2,0.2,0.2,1.2,0,2.8c-0.1,1-0.2,1.7-0.2,2s0.1,0.6,0.3,0.8c0.2,0.2,0.4,0.2,0.5,0.2s0.4-0.1,0.8-0.4c0.6-0.3,1-0.5,1.3-0.5
		s0.5,0.2,0.7,0.5s0.3,0.5,0.2,0.7s-0.1,0.6-0.4,1.2c-0.3,0.8-0.6,1.8-0.9,2.9c-0.2,0.9-0.2,1.5-0.2,1.9c0.1,0.4,0.3,0.9,0.8,1.5
		c0.2,0.3,0.3,0.4,0.5,0.5c0,0,0.1,0,0.2,0c0.1,0,0.2-0.1,0.4-0.1c0.1-0.1,0.2-0.1,0.3-0.1c0.5-0.1,0.8-0.2,1-0.3
		C181.6,105.8,182.5,105.2,183.3,104.6z"/>
	<path d="M85.6,126.3c0.3-0.2,0.6-0.3,0.8-0.3s0.3,0.2,0.3,0.6c0,0.1,0,0.2,0,0.2c0,0.1-0.1,0.2-0.1,0.2c0,0.1-0.1,0.1-0.2,0.2
		c-0.1,0.1-0.2,0.2-0.2,0.2s-0.1,0.1-0.2,0.2c-0.1,0.1-0.2,0.1-0.2,0.2c-0.1,0-0.1,0.1-0.2,0.2c-0.1,0.1-0.2,0.1-0.2,0.1
		c-0.3,0.2-0.6,0.4-1,0.5c0,0-0.2,0.1-0.6,0.3l-0.1,0.1c-0.4,0.4-1,0.7-1.9,0.8c-0.5,0.1-0.9,0.1-1.2,0s-0.7-0.2-1.2-0.4
		c-0.7-0.3-1.2-0.6-1.5-0.9c-0.2-0.1-0.3-0.2-0.4-0.2s-0.3,0.1-0.6,0.4c-1,0.7-2.1,1.1-3.5,1.2c-1.3,0.1-2.2-0.2-2.6-0.8
		c-0.3-0.4-0.4-1.2-0.3-2.3c0-1.1,0.2-2,0.4-2.5c0.2-0.4,0.4-0.7,0.5-1c0.1-0.2,0.3-0.4,0.4-0.6c0.1-0.2,0.3-0.5,0.6-0.8
		c1-1.2,1.8-2.1,2.4-2.5c0.4-0.3,1-0.6,1.6-0.9c0.6-0.2,1.2-0.4,1.9-0.5s1.2,0,1.8,0.3s1,0.9,1.1,1.6c0.1,0.8,0.1,1.5,0,2.2
		s-0.4,1.4-0.7,2s-0.5,1.3-0.6,2s-0.1,1.2,0,1.4c0.3,0.6,1.3,0.6,3,0.1c0.1,0,0.1,0,0.2,0c0.1,0,0.2-0.1,0.2-0.1
		C84.2,127.3,85,126.8,85.6,126.3z M78.4,121.9c0.2-0.1,0.3-0.2,0.3-0.2s0-0.1-0.1-0.2c-0.2-0.2-0.5-0.3-0.8-0.4s-0.7,0-1,0
		c-0.3,0.1-0.8,0.4-1.5,1s-1.1,1-1.4,1.4c-0.3,0.5-0.6,0.9-0.8,1.2c-0.3,0.4-0.5,0.9-0.5,1.7c-0.1,0.7-0.1,1.2,0.1,1.4
		c0.2,0.2,0.5,0.3,1,0.3s1-0.1,1.5-0.3s0.8-0.6,1-1c0.4-0.7,0.7-1.3,0.9-1.8c0.4-0.7,0.6-1.2,0.6-1.5c0-0.2,0.1-0.3,0.2-0.5
		c0.1-0.2,0.2-0.3,0.1-0.5C78,122.2,78.1,122,78.4,121.9z"/>
	<path d="M98.1,126.3c0.3-0.3,0.7-0.4,0.9-0.4c0.3,0,0.4,0.3,0.4,0.8c0,0.1,0,0.2-0.1,0.3c0,0.1-0.1,0.2-0.2,0.3
		c-0.1,0.1-0.2,0.2-0.2,0.3c-0.1,0.1-0.2,0.2-0.3,0.3c-0.1,0.1-0.2,0.2-0.3,0.2c-0.1,0.1-0.2,0.1-0.3,0.2c-0.1,0.1-0.2,0.2-0.3,0.2
		c-0.4,0.3-0.8,0.5-1.2,0.6c-0.3,0.1-0.7,0.3-1.3,0.5s-1.4,0.4-2.3,0.7s-1.8,0.3-2.7,0.3s-1.6-0.3-2-0.8c-0.2-0.2-0.4-0.4-0.6-0.8
		c-0.2-0.3-0.4-0.7-0.6-1s-0.3-0.6-0.4-0.8c-0.2-0.6-0.3-1.3-0.3-2.3c0.1-3,1.4-5.6,3.9-7.7c0.6-0.5,1-0.8,1.3-0.9s0.8-0.2,1.5-0.2
		c1.4,0,2.4,0.3,3.1,0.9c0.7,0.6,1,1.4,0.8,2.4c-0.1,0.5-0.2,0.8-0.3,0.9s-0.3,0.2-0.7,0.2c-0.5,0-1-0.1-1.4-0.3s-0.6-0.5-0.5-0.8
		c0.1-0.2,0-0.5-0.2-0.7s-0.4-0.4-0.7-0.4c-0.5,0-1.3,0.6-2.4,1.7c-1.1,1.1-1.6,1.9-1.6,2.5c0,0.2-0.1,0.5-0.3,0.9
		c-0.2,0.3-0.3,1-0.3,1.8s0.2,1.4,0.4,1.8c0.4,0.6,1,1,1.9,1.2s1.7,0.2,2.5,0.1c0.4-0.1,0.8-0.2,1.3-0.4c0.8-0.3,1.6-0.8,2.3-1.3
		c0.5-0.4,0.9-0.5,1.1-0.5c0,0,0,0,0.1,0C98,126.3,98,126.3,98.1,126.3z"/>
	<path d="M112.2,124.7c0.2,0.1,0.4,0.4,0.4,0.8c0,0.5-0.3,1-0.8,1.4c-0.2,0.1-0.4,0.3-0.7,0.4c0,0-0.1,0-0.2,0.1
		c-0.2,0.1-0.4,0.2-0.6,0.2c-0.5,0-0.9-0.2-1.4-0.6c-0.1-0.1-0.2-0.3-0.4-0.5l-0.1-0.1c-0.1-0.2-0.3-0.4-0.4-0.5
		c-0.1-0.1-0.3,0-0.5,0c-0.2,0.1-0.5,0.5-0.8,1.2c-0.1,0.3-0.3,0.6-0.4,0.7c-0.3,0.4-0.6,0.7-0.8,0.8c-0.3,0.1-0.7,0.4-1.2,0.7
		c-0.6,0.4-1.2,0.6-1.7,0.6c-0.6,0-1.1,0.1-1.4,0.2c-0.1,0-0.2,0-0.2,0c-0.2,0-0.3,0-0.5-0.1s-0.5-0.3-0.8-0.6
		c-0.4-0.4-0.7-0.7-0.8-1s-0.3-0.8-0.4-1.5c-0.2-1.1-0.3-2.1-0.2-2.8s0.5-1.5,1-2.4c0.7-1.2,1.4-2,2.1-2.5c0.7-0.5,1.5-0.9,2.4-1.1
		c0.5-0.1,0.9-0.3,1.2-0.5c0.6-0.4,1-0.5,1.5-0.4c0.4,0.1,0.9,0.4,1.4,1c0.3,0.3,0.5,0.6,0.6,0.8s0.2,0.4,0.3,0.5
		c0,0.2,0.1,0.4,0.1,0.8c0,1.4,0,2.5,0.1,3.3c0,0.5,0.2,0.8,0.3,1.1c0.2,0.2,0.5,0.5,0.9,0.9h0.1c0.3-0.2,0.5-0.3,0.6-0.5
		C111.5,124.6,111.9,124.5,112.2,124.7z M106,124.2c0.1-0.4,0.1-0.6,0-0.8c-0.1-0.2-0.3-0.4-0.6-0.7c-0.5-0.5-0.8-0.9-0.8-1.3
		c0-0.2-0.1-0.5-0.2-0.8c-0.1-0.3-0.3-0.5-0.4-0.6c-0.1-0.1-0.2-0.1-0.3-0.1s-0.1,0-0.2,0c-0.2,0.1-0.5,0.4-1,0.9
		c-0.4,0.4-0.8,1-1.2,1.6c-0.4,0.7-0.6,1.3-0.8,1.9s-0.2,1-0.1,1.2c0.1,0.2,0.2,0.6,0.2,1.2c0,0.4,0.1,0.7,0.2,1
		c0.1,0.2,0.2,0.3,0.4,0.4c0.2,0.1,0.5,0.1,0.9,0.1c0.2,0,0.3,0,0.5,0c0.1,0,0.2,0,0.4,0c0.1,0,0.2-0.1,0.3-0.1
		c0.1-0.1,0.2-0.1,0.3-0.2s0.2-0.2,0.4-0.3c0.6-0.5,0.9-0.9,1-1.1c0.1-0.3,0.3-0.6,0.6-1C105.8,125.2,105.9,124.8,106,124.2z
		 M106.7,120.6c0-0.6-0.1-1-0.2-1l-0.1,0.1c-0.1,0.1-0.1,0.5,0,1c0.1,0.4,0.1,0.6,0.2,0.7C106.7,121.2,106.7,121,106.7,120.6z"/>
	<path d="M132.3,125.6c0.3-0.3,0.7-0.4,0.9-0.3c0.3,0.1,0.4,0.3,0.4,0.8c0,0.1,0,0.3-0.1,0.4s-0.1,0.3-0.2,0.4
		c-0.1,0.1-0.2,0.2-0.4,0.3c-0.2,0.1-0.3,0.2-0.4,0.3c-0.1,0.1-0.2,0.2-0.4,0.3c-0.2,0.1-0.3,0.2-0.3,0.2c-0.5,0.3-1,0.7-1.4,1.1
		c-0.6,0.5-1.3,0.8-1.9,1c-0.8,0.2-1.4,0.3-1.8,0.4c-0.4,0-1-0.1-1.6-0.3s-1.1-0.4-1.5-0.6c-0.4-0.3-0.7-0.6-0.9-1s-0.3-0.9-0.3-1.6
		s0.1-1.3,0.2-2.1c0.1-0.8,0.4-1.8,0.7-2.9c0.1-0.3,0.1-0.4-0.1-0.4c-0.4,0-1.3,0.8-2.5,2.3s-2.2,3-2.9,4.3
		c-0.5,0.9-0.9,1.5-1.2,1.7s-0.7,0.1-1.1-0.3c-0.3-0.3-0.5-0.6-0.5-0.9c0-0.3,0.2-0.9,0.6-1.8c0.3-0.7,0.5-1.1,0.5-1.4
		c0-0.2,0.2-0.7,0.5-1.4c0.2-0.8,0.3-1.2,0.2-1.3c-0.2,0-0.5,0.3-1,0.8s-1.1,1.2-1.6,2s-1,1.4-1.3,2c-0.4,0.8-0.8,1.3-1.2,1.6
		s-0.7,0.2-1.1-0.1c-0.3-0.3-0.5-0.7-0.4-1.2s0.4-1.2,1-2.3c0.2-0.3,0.3-0.8,0.5-1.5c0.2-0.6,0.3-1.1,0.4-1.4
		c0.5-1.1,1.1-1.9,1.7-2.4c0.1-0.1,0.3-0.2,0.5-0.3c0.2-0.1,0.3-0.1,0.5-0.2c0.2,0,0.3,0,0.3,0.2c0.1,0.1,0.1,0.3,0,0.6
		c-0.1,0.5-0.1,0.7,0.2,0.7c0.2,0,0.4-0.2,0.7-0.6c0.4-0.6,0.8-1,1.3-1.4c0.2-0.1,0.3-0.2,0.5-0.3c0.2-0.1,0.3-0.1,0.3-0.1
		c0.1,0,0.2-0.1,0.3,0c0.1,0,0.2,0,0.3,0s0.2,0,0.4,0.1s0.4,0.1,0.5,0.1c0.4,0.1,0.7,0.2,0.7,0.4c0,0,0.1,0.3,0.1,0.7
		c0,0.2,0.1,0.4,0.1,0.5s0.1,0.1,0.3,0.1c0.1,0,0.3-0.1,0.5-0.2s0.5-0.3,0.9-0.6c1-0.6,1.8-1,2.5-1c0.5,0,0.8,0,1,0
		c0.1,0.1,0.3,0.3,0.4,0.6c0.2,0.5,0.2,1.1,0.1,1.9c-0.1,0.8-0.3,1.5-0.6,2.1c-0.3,0.7-0.5,1.2-0.5,1.5s-0.1,0.7-0.3,1.3
		c-0.2,0.5-0.1,0.9,0.1,1.3c0.2,0.4,0.6,0.7,1.1,0.8c0.3,0,0.7,0,1.1-0.1c0.1,0,0.9-0.3,2.3-1l0.4-0.3c0.3-0.2,0.6-0.4,1-0.6
		c0.3-0.2,0.7-0.4,1-0.6C131.9,125.9,132.2,125.7,132.3,125.6z"/>
	<path d="M146.1,125.8c0.3-0.3,0.7-0.4,0.9-0.3s0.4,0.3,0.4,0.8c0,0.1,0,0.3-0.1,0.4s-0.1,0.3-0.2,0.4c-0.1,0.1-0.2,0.2-0.4,0.4
		c-0.2,0.1-0.3,0.2-0.4,0.3c-0.1,0.1-0.2,0.2-0.4,0.3c-0.2,0.1-0.3,0.2-0.3,0.2c-0.4,0.3-0.8,0.5-1.2,0.6c-0.3,0.1-0.9,0.3-1.7,0.5
		s-1.4,0.2-1.9,0.2c-0.4,0-0.9-0.1-1.6-0.4c-0.7-0.3-1.3-0.5-1.8-0.7s-0.7-0.3-0.7-0.3h-0.2c-0.1,0-0.2,0-0.4,0
		c-0.1,0-0.3,0.1-0.6,0.2s-0.5,0.4-0.8,0.8c-0.4,0.5-0.8,1.2-1.1,2s-0.5,1.4-0.7,1.6c-0.2,0.3-0.3,0.7-0.5,1.1
		c-0.2,0.4-0.3,0.8-0.5,1c-0.2,0.3-0.4,0.6-0.6,0.9c-0.2,0.3-0.4,0.5-0.6,0.5c-0.1,0.1-0.4,0-0.7-0.1c-0.4-0.1-0.7-0.5-0.8-1.1
		c-0.2-0.6-0.2-1.1-0.1-1.6c0.1-0.3,0.2-0.6,0.6-1.1c0.3-0.5,0.5-0.8,0.6-1c0.1-0.3,0.2-0.6,0.3-1.1s0.2-0.9,0.3-1.1
		c0.1-0.3,0.3-0.8,0.6-1.4s0.5-1.1,0.6-1.4c0.2-0.4,0.3-1,0.3-1.6s0.2-1.3,0.3-1.9s0.3-1.1,0.6-1.6c0-0.1,0.1-0.2,0.1-0.3
		c0.1-0.1,0.1-0.2,0.2-0.3c0.1-0.1,0.1-0.2,0.2-0.4c0.1-0.1,0.2-0.3,0.2-0.4c0.1-0.1,0.2-0.2,0.2-0.3c0.1-0.1,0.2-0.2,0.3-0.3
		c0.1-0.1,0.2-0.2,0.3-0.3c0.1-0.1,0.2-0.2,0.3-0.2c0.1-0.1,0.2-0.1,0.3-0.1c0.6-0.2,1-0.1,1.2,0.3c0.3,0.4,0.2,0.8,0,1.2
		c-0.4,0.7-0.5,1-0.3,1c0.2-0.1,0.6-0.4,1.2-0.9c0.6-0.6,1.2-1.1,1.8-1.5s1.2-0.6,1.9-0.7s1.1-0.2,1.1-0.3c0.1,0,0.1,0,0.2,0.1
		s0.1,0.2,0.2,0.4c0,0.2,0.1,0.4,0.1,0.6s0.1,0.5,0.1,0.7s0,0.5,0,0.7c0,2.2-0.3,3.6-1,4.3c-0.4,0.4-0.7,0.8-0.9,1.1
		c-0.1,0.1-0.1,0.2-0.2,0.3c-0.1,0-0.2,0.1-0.2,0.1c-0.1,0-0.1,0-0.2,0c-0.1,0-0.2,0.1-0.3,0.2c-0.2,0.2-0.5,0.4-0.7,0.4
		s-0.5,0.1-0.8,0.3s-0.5,0.4-0.5,0.5c0,0,0.1,0.1,0.2,0.2c0.2,0.1,0.4,0.2,0.6,0.2s0.5,0.1,0.7,0.2c0.3,0,0.5,0.1,0.6,0.1
		c0.3,0,0.6,0,1-0.1c0.1-0.1,0.3-0.1,0.5-0.2s0.4-0.1,0.6-0.2c0.2-0.1,0.3-0.1,0.4-0.2C144.4,127,145.4,126.4,146.1,125.8z
		 M137,125.7c0.2,0.3,0.4,0.4,0.6,0.4c0.4,0,0.9-0.3,1.7-1s1.2-1.2,1.4-1.7s0.3-1.1,0.3-1.7s-0.1-1.1-0.2-1.4
		c-0.2-0.3-0.4-0.5-0.6-0.4s-0.6,0.4-1.2,1c-0.6,0.5-1.2,1.2-1.7,2s-0.8,1.4-0.8,1.8C136.7,125.1,136.8,125.4,137,125.7z"/>
	<path d="M160.7,126.3c0.3-0.2,0.6-0.3,0.8-0.3s0.3,0.2,0.3,0.6c0,0.1,0,0.2,0,0.2c0,0.1-0.1,0.2-0.1,0.2c0,0.1-0.1,0.1-0.2,0.2
		c-0.1,0.1-0.2,0.2-0.2,0.2s-0.1,0.1-0.2,0.2c-0.1,0.1-0.2,0.1-0.2,0.2c-0.1,0-0.1,0.1-0.2,0.2c-0.1,0.1-0.2,0.1-0.2,0.1
		c-0.3,0.2-0.6,0.4-1,0.5c0,0-0.2,0.1-0.6,0.3l-0.1,0.1c-0.4,0.4-1,0.7-1.9,0.8c-0.5,0.1-0.9,0.1-1.2,0s-0.7-0.2-1.2-0.4
		c-0.7-0.3-1.2-0.6-1.5-0.9c-0.2-0.1-0.3-0.2-0.4-0.2s-0.3,0.1-0.6,0.4c-1,0.7-2.1,1.1-3.5,1.2c-1.3,0.1-2.2-0.2-2.6-0.8
		c-0.3-0.4-0.4-1.2-0.3-2.3c0-1.1,0.2-2,0.4-2.5c0.2-0.4,0.4-0.7,0.5-1c0.1-0.2,0.3-0.4,0.4-0.6c0.1-0.2,0.3-0.5,0.6-0.8
		c1-1.2,1.8-2.1,2.4-2.5c0.4-0.3,1-0.6,1.6-0.9c0.6-0.2,1.2-0.4,1.9-0.5s1.2,0,1.8,0.3s1,0.9,1.1,1.6c0.1,0.8,0.1,1.5,0,2.2
		s-0.4,1.4-0.7,2s-0.5,1.3-0.6,2s-0.1,1.2,0,1.4c0.3,0.6,1.3,0.6,3,0.1c0.1,0,0.1,0,0.2,0c0.1,0,0.2-0.1,0.2-0.1
		C159.3,127.3,160.1,126.8,160.7,126.3z M153.5,121.9c0.2-0.1,0.3-0.2,0.3-0.2s0-0.1-0.1-0.2c-0.2-0.2-0.5-0.3-0.8-0.4s-0.7,0-1,0
		c-0.3,0.1-0.8,0.4-1.5,1s-1.1,1-1.4,1.4c-0.3,0.5-0.6,0.9-0.8,1.2c-0.3,0.4-0.5,0.9-0.5,1.7c-0.1,0.7-0.1,1.2,0.1,1.4
		c0.2,0.2,0.5,0.3,1,0.3s1-0.1,1.5-0.3s0.8-0.6,1-1c0.4-0.7,0.7-1.3,0.9-1.8c0.4-0.7,0.6-1.2,0.6-1.5c0-0.2,0.1-0.3,0.2-0.5
		c0.1-0.2,0.2-0.3,0.1-0.5C153.1,122.2,153.2,122,153.5,121.9z"/>
	<path d="M159.4,126c0.3-0.4,0.7-1.4,1.5-2.9c0.7-1.5,1.4-2.6,1.9-3.2c0.1-0.1,0.2-0.2,0.3-0.3c0.2-0.2,0.5-0.4,0.8-0.5
		s0.6-0.1,0.9,0c0.1,0.1,0.2,0.2,0.2,0.5s0.1,0.4,0.2,0.4c0.1,0,0.4-0.1,0.8-0.4c0.7-0.5,1.9-0.9,3.5-1.3c0.6-0.2,1-0.2,1.2-0.2
		s0.4,0.2,0.7,0.4c0.4,0.4,0.6,0.8,0.6,1.3s-0.2,1-0.5,1.5c-0.3,0.4-0.6,1.2-1,2.4c-0.4,1.2-0.6,2-0.6,2.4c0,0.3,0.1,0.7,0.3,1
		c0.2,0.4,0.5,0.7,0.8,0.9s0.6,0.4,0.8,0.4c0.4,0,1.2-0.3,2.4-1c1.2-0.6,2.2-1.2,2.9-1.8c0.5-0.4,0.9-0.6,1.1-0.6
		c0.2,0,0.3,0.3,0.3,0.7c0,0.2-0.1,0.4-0.2,0.7c-0.2,0.2-0.4,0.5-0.7,0.8s-0.6,0.5-1,0.8c-0.4,0.3-0.8,0.5-1.2,0.6
		c-1,0.5-1.8,0.8-2.3,1.1c-0.8,0.4-1.5,0.5-2.1,0.3s-1.3-0.7-2.2-1.5c-0.7-0.7-1.1-1.1-1.2-1.4c-0.1-0.2-0.2-0.7-0.2-1.4
		c0-1,0.2-2.1,0.5-3.2s0.4-1.7,0.4-1.8c-0.1-0.1-0.7,0.4-1.9,1.5s-2.4,2.3-3.5,3.5s-1.7,2-1.7,2.2s-0.1,0.3-0.3,0.5
		s-0.4,0.3-0.7,0.5c-0.3,0.1-0.5,0.2-0.8,0.1c-0.4,0-0.6-0.3-0.8-0.9c-0.1-0.3-0.1-0.7,0-0.9C158.6,127.1,158.9,126.6,159.4,126z"/>
	<path d="M187,126.2c0.1,0.2,0.1,0.4,0,0.5c-0.1,0.2-0.4,0.5-0.9,0.9c-0.7,0.6-1.6,1.2-2.6,1.7c-0.8,0.4-1.6,0.5-2.4,0.5
		s-1.6-0.3-2.3-0.7s-1.3-0.9-1.9-1.5c-0.7-0.9-1-2.1-0.7-3.5c0-0.1,0.1-0.5,0.2-1.1c0.1-0.7,0.2-1.2,0.3-1.7s0.2-0.8,0.3-1
		s0.4-0.3,0.7-0.4s0.7-0.1,1,0s0.7,0.2,1,0.3c0.3,0.2,0.5,0.4,0.7,0.6s0.1,0.5,0,0.9c-0.4,0.8-0.5,1.3-0.5,1.6
		c0,0.3-0.2,0.6-0.5,1.1c-0.3,0.3-0.4,0.7-0.5,1.2s0,0.8,0.2,0.9s0.3,0.3,0.3,0.6c0,0.3,0.2,0.6,0.6,1c0.3,0.3,0.5,0.4,0.7,0.5
		c0.2,0,0.5,0,0.9-0.1c0.7-0.2,1.5-0.7,2.5-1.5c0.8-0.6,1.4-0.9,1.8-1C186.4,125.6,186.8,125.8,187,126.2z M182.8,114.8
		c-0.4,0.1-0.9,0-1.3-0.5c-0.3-0.3-0.5-0.5-0.5-0.6s0.1-0.2,0.3-0.4c0.3-0.2,0.8-0.4,1.3-0.4s0.9,0.1,1.1,0.4c0.2,0.3,0.2,0.6,0,0.9
		S183.2,114.7,182.8,114.8z"/>
	<path d="M206.1,125.6c0.3-0.3,0.7-0.4,0.9-0.3c0.3,0.1,0.4,0.3,0.4,0.8c0,0.1,0,0.3-0.1,0.4s-0.1,0.3-0.2,0.4
		c-0.1,0.1-0.2,0.2-0.4,0.3c-0.2,0.1-0.3,0.2-0.4,0.3c-0.1,0.1-0.2,0.2-0.4,0.3c-0.2,0.1-0.3,0.2-0.3,0.2c-0.5,0.3-1,0.7-1.4,1.1
		c-0.6,0.5-1.3,0.8-1.9,1c-0.8,0.2-1.4,0.3-1.8,0.4c-0.4,0-1-0.1-1.6-0.3s-1.1-0.4-1.5-0.6c-0.4-0.3-0.7-0.6-0.9-1s-0.3-0.9-0.3-1.6
		s0.1-1.3,0.2-2.1c0.1-0.8,0.4-1.8,0.7-2.9c0.1-0.3,0.1-0.4-0.1-0.4c-0.4,0-1.3,0.8-2.5,2.3s-2.2,3-2.9,4.3
		c-0.5,0.9-0.9,1.5-1.2,1.7s-0.7,0.1-1.1-0.3c-0.3-0.3-0.5-0.6-0.5-0.9c0-0.3,0.2-0.9,0.6-1.8c0.3-0.7,0.5-1.1,0.5-1.4
		c0-0.2,0.2-0.7,0.5-1.4c0.2-0.8,0.3-1.2,0.2-1.3c-0.2,0-0.5,0.3-1,0.8s-1.1,1.2-1.6,2s-1,1.4-1.3,2c-0.4,0.8-0.8,1.3-1.2,1.6
		s-0.7,0.2-1.1-0.1c-0.3-0.3-0.5-0.7-0.4-1.2s0.4-1.2,1-2.3c0.2-0.3,0.3-0.8,0.5-1.5c0.2-0.6,0.3-1.1,0.4-1.4
		c0.5-1.1,1.1-1.9,1.7-2.4c0.1-0.1,0.3-0.2,0.5-0.3c0.2-0.1,0.3-0.1,0.5-0.2c0.2,0,0.3,0,0.3,0.2c0.1,0.1,0.1,0.3,0,0.6
		c-0.1,0.5-0.1,0.7,0.2,0.7c0.2,0,0.4-0.2,0.7-0.6c0.4-0.6,0.8-1,1.3-1.4c0.2-0.1,0.3-0.2,0.5-0.3c0.2-0.1,0.3-0.1,0.3-0.1
		c0.1,0,0.2-0.1,0.3,0c0.1,0,0.2,0,0.3,0s0.2,0,0.4,0.1s0.4,0.1,0.5,0.1c0.4,0.1,0.7,0.2,0.7,0.4c0,0,0.1,0.3,0.1,0.7
		c0,0.2,0.1,0.4,0.1,0.5s0.1,0.1,0.3,0.1c0.1,0,0.3-0.1,0.5-0.2s0.5-0.3,0.9-0.6c1-0.6,1.8-1,2.5-1c0.5,0,0.8,0,1,0
		c0.1,0.1,0.3,0.3,0.4,0.6c0.2,0.5,0.2,1.1,0.1,1.9c-0.1,0.8-0.3,1.5-0.6,2.1c-0.3,0.7-0.5,1.2-0.5,1.5s-0.1,0.7-0.3,1.3
		c-0.2,0.5-0.1,0.9,0.1,1.3c0.2,0.4,0.6,0.7,1.1,0.8c0.3,0,0.7,0,1.1-0.1c0.1,0,0.9-0.3,2.3-1l0.4-0.3c0.3-0.2,0.6-0.4,1-0.6
		c0.3-0.2,0.7-0.4,1-0.6C205.8,125.9,206,125.7,206.1,125.6z"/>
	<path d="M217.3,126.6c0.3-0.3,0.7-0.4,0.9-0.3s0.4,0.3,0.4,0.8c0,0.1,0,0.3-0.1,0.4s-0.1,0.3-0.2,0.4s-0.2,0.2-0.3,0.3
		c-0.2,0.1-0.3,0.2-0.4,0.3c-0.1,0.1-0.2,0.2-0.4,0.3s-0.3,0.2-0.3,0.2c-0.4,0.3-0.8,0.5-1.2,0.6c0,0-0.1,0-0.1,0.1s-0.1,0-0.2,0.1
		s-0.1,0-0.2,0.1c-0.1,0-0.1,0-0.2,0.1h-0.1c-1,0.4-2,0.6-3.1,0.7c-1.1,0.1-2,0-2.5-0.3c-0.1,0-0.3-0.1-0.8-0.3s-0.8-0.4-1-0.5
		c-0.4-0.2-0.7-0.8-1-1.5c-0.6-1.4-0.9-2.7-0.9-3.8c0-0.7,0.1-1.5,0.4-2.6c0-0.1,0-0.2,0.1-0.4c0-0.2,0.1-0.4,0.1-0.5
		s0.1-0.2,0.1-0.4c0-0.2,0.1-0.3,0.1-0.5s0.1-0.3,0.2-0.4c0.1-0.1,0.1-0.3,0.2-0.4c0.3-0.5,0.6-0.8,0.8-1c0.9-0.9,1.9-1.3,3.3-1.2
		c1.4,0.1,2.1,0.6,2.2,1.4c0.1,0.6,0.1,1.3-0.1,1.9c-0.2,0.7-0.4,1.2-0.6,1.6c-0.2,0.4-0.6,1-1,1.7s-0.8,1.2-0.9,1.6
		c-0.7,1.3-1,2.1-1,2.4c0,0.2,0.2,0.5,0.6,0.9c0.3,0.2,0.5,0.4,0.7,0.4s0.6,0,1.1-0.1c0.8-0.1,1.7-0.3,2.7-0.6
		c0.4-0.1,0.9-0.3,1.6-0.6C216.8,126.9,217.2,126.7,217.3,126.6z M208.1,124.9c0.1,0,0.5-0.6,1.2-1.9c0.6-1.2,1-2,1-2.2
		c0-0.3-0.2-0.5-0.5-0.6s-0.6,0-0.8,0.2s-0.3,0.5-0.5,0.9s-0.3,0.8-0.4,1.2c-0.1,0.4-0.2,0.8-0.2,1.1c-0.1,0.4-0.1,0.7,0,0.9
		C207.9,124.8,208,124.9,208.1,124.9z"/>
	<path d="M215.9,126c0.3-0.4,0.7-1.4,1.5-2.9c0.7-1.5,1.4-2.6,1.9-3.2c0.1-0.1,0.2-0.2,0.3-0.3c0.2-0.2,0.5-0.4,0.8-0.5
		s0.6-0.1,0.9,0c0.1,0.1,0.2,0.2,0.2,0.5s0.1,0.4,0.2,0.4c0.1,0,0.4-0.1,0.8-0.4c0.7-0.5,1.9-0.9,3.5-1.3c0.6-0.2,1-0.2,1.2-0.2
		s0.4,0.2,0.7,0.4c0.4,0.4,0.6,0.8,0.6,1.3s-0.2,1-0.5,1.5c-0.3,0.4-0.6,1.2-1,2.4c-0.4,1.2-0.6,2-0.6,2.4c0,0.3,0.1,0.7,0.3,1
		c0.2,0.4,0.5,0.7,0.8,0.9s0.6,0.4,0.8,0.4c0.4,0,1.2-0.3,2.4-1c1.2-0.6,2.2-1.2,2.9-1.8c0.5-0.4,0.9-0.6,1.1-0.6
		c0.2,0,0.3,0.3,0.3,0.7c0,0.2-0.1,0.4-0.2,0.7c-0.2,0.2-0.4,0.5-0.7,0.8s-0.6,0.5-1,0.8c-0.4,0.3-0.8,0.5-1.2,0.6
		c-1,0.5-1.8,0.8-2.3,1.1c-0.8,0.4-1.5,0.5-2.1,0.3s-1.3-0.7-2.2-1.5c-0.7-0.7-1.1-1.1-1.2-1.4c-0.1-0.2-0.2-0.7-0.2-1.4
		c0-1,0.2-2.1,0.5-3.2s0.4-1.7,0.4-1.8c-0.1-0.1-0.7,0.4-1.9,1.5s-2.4,2.3-3.5,3.5s-1.7,2-1.7,2.2s-0.1,0.3-0.3,0.5
		s-0.4,0.3-0.7,0.5c-0.3,0.1-0.5,0.2-0.8,0.1c-0.4,0-0.6-0.3-0.8-0.9c-0.1-0.3-0.1-0.7,0-0.9C215.2,127.1,215.4,126.6,215.9,126z"/>
	<path d="M245.7,126.4c0.4-0.3,0.7-0.3,0.9-0.2c0.3,0.1,0.4,0.4,0.3,0.8c0,0.1-0.1,0.2-0.1,0.3s-0.1,0.2-0.2,0.3
		c-0.1,0.1-0.2,0.2-0.3,0.3c-0.1,0.1-0.2,0.2-0.3,0.2c-0.1,0.1-0.3,0.2-0.4,0.2c-0.1,0-0.2,0.1-0.4,0.2c-0.2,0.1-0.2,0.1-0.3,0.2
		c-0.4,0.2-0.8,0.4-1.2,0.5c0,0-0.2,0.1-0.6,0.4c-0.4,0.2-0.8,0.5-1.3,0.8s-0.9,0.5-1.2,0.6c-0.4,0.1-0.8,0.3-1.3,0.3
		c-0.4,0.1-0.9,0.1-1.4,0.2s-1,0-1.4-0.2s-0.8-0.3-1.1-0.6c-0.4-0.3-0.7-0.8-0.9-1.4c-0.2-0.6-0.4-1.2-0.5-1.9
		c-0.1-0.7-0.1-1.3-0.1-1.9s0-1.2,0.1-1.7c0-0.1,0.1-0.8,0.3-2c0.2-1.3,0.3-2.5,0.5-3.8l0.2-1.8c-0.2-0.1-0.5-0.2-1.1-0.2
		c-0.3,0-0.6,0-1,0c-0.8,0-1.3,0-1.6-0.1c-0.1,0-0.2,0-0.3,0s-0.2,0-0.4,0s-0.2,0-0.4,0s-0.2,0-0.3,0s-0.1-0.1-0.1-0.1
		c0-0.3,0.1-0.4,0.3-0.5c0,0,0.1-0.1,0.3-0.2s0.4-0.2,0.6-0.3c0.2-0.1,0.5-0.2,0.9-0.3c0.4-0.1,0.7-0.1,1.1-0.1
		c1.2,0.1,1.9,0.1,2.2,0.1s0.6-0.2,0.9-0.5c0.4-0.4,1-1.4,1.7-3.1c0-0.1,0.1-0.2,0.1-0.3c0.3-0.6,0.5-1.1,0.7-1.5s0.4-0.8,0.7-1.4
		s0.7-1,1-1.4c0.4-0.4,0.8-0.7,1.2-0.9c1.3-0.6,2-0.6,2,0.1c0,0.4-0.3,1.3-0.9,2.8c-0.2,0.4-0.3,0.7-0.4,0.9c-0.1,0.3-0.2,0.6-0.2,1
		s-0.2,0.8-0.5,1.2c-0.4,0.7-0.7,1.2-1,1.7s-0.4,0.9-0.3,1c0.1,0.1,0.9,0.3,2.4,0.4c1.1,0.1,1.7,0.2,1.9,0.3
		c0.2,0.1,0.3,0.2,0.3,0.5s-0.2,0.4-0.5,0.4c-0.1,0-0.4,0-0.8,0c-0.4,0-0.8,0-1.3,0.1c-0.5,0-1,0.1-1.5,0.1
		c-0.5,0.1-0.9,0.1-1.2,0.1c-0.2,0-0.4,0.5-0.7,1.5s-0.6,2.2-0.9,3.6c-0.3,1.4-0.6,2.3-0.8,2.8c-0.8,2.4-0.7,4.1,0.3,5
		c0.5,0.4,0.9,0.6,1.3,0.6c0.2,0,0.5-0.1,0.8-0.3c0-0.1,0.2-0.2,0.5-0.3s0.6-0.2,0.9-0.3c0.3-0.1,0.6-0.2,0.9-0.3s0.5-0.2,0.5-0.2
		C243.9,127.3,244.9,126.8,245.7,126.4z"/>
</g>
<g id="Capa_2_1_" class="st0">
</g>
</svg>
