<svg xmlns="http://www.w3.org/2000/svg" viewBox="0 0 111.5 226.1"><path d="M26.1 155.8c.8 1.8 2.6 6 4 9.3 4.8 11.3 11.9 25.3 13.1 26 .7.4 2.2 2.8 3.3 5.2 3.4 7.2 16.6 6 16.6-1.6 0-1 1.1-3.4 2.4-5.4 19.4-28.7 20.8-32.6 12.3-33.9-4-.6-9.3 3.8-9.4 7.8 0 .6-1.8 3.2-4 5.8l-3.9 4.7-.2-10c-.2-10.6-.6-20.8-1.5-38.1-.2-4.1-.3-8.2-.1-12.2.8-21.7 1.7-27.2 2.7-43.7 2.4-45.1 2.3-48.9-1.9-50.5-8-3.1-8.7 2.2-11 77.1-.6 18.9-.7 23 .7 62 .3.5.1 2.5-.4 4.5-.9 3.3-1.4 2.7-8-8.5-9.8-16.6-22.2-15.4-14.7 1.5" fill-rule="evenodd" clip-rule="evenodd"/></svg>