<?xml version="1.0" encoding="utf-8"?>
<!-- Generator: Adobe Illustrator 25.2.3, SVG Export Plug-In . SVG Version: 6.00 Build 0)  -->
<svg version="1.1" id="Layer_1" xmlns="http://www.w3.org/2000/svg" xmlns:xlink="http://www.w3.org/1999/xlink" x="0px" y="0px"
	 viewBox="0 0 111.5 226.1" style="enable-background:new 0 0 111.5 226.1;" xml:space="preserve">
<style type="text/css">
	.st0{fill-rule:evenodd;clip-rule:evenodd;}
</style>
<path class="st0" d="M26.1,155.8c0.8,1.8,2.6,6,4,9.3c4.8,11.3,11.9,25.3,13.1,26c0.7,0.4,2.2,2.8,3.3,5.2c3.4,7.2,16.6,6,16.6-1.6
	c0-1,1.1-3.4,2.4-5.4c19.4-28.7,20.8-32.6,12.3-33.9c-4-0.6-9.3,3.8-9.4,7.8c0,0.6-1.8,3.2-4,5.8l-3.9,4.7l-0.2-10
	c-0.2-10.6-0.6-20.8-1.5-38.1c-0.2-4.1-0.3-8.2-0.1-12.2c0.8-21.7,1.7-27.2,2.7-43.7c2.4-45.1,2.3-48.9-1.9-50.5
	c-8-3.1-8.7,2.2-11,77.1c-0.6,18.9-0.7,23,0.7,62c0.3,0.5,0.1,2.5-0.4,4.5c-0.9,3.3-1.4,2.7-8-8.5C31,137.7,18.6,138.9,26.1,155.8"
	/>
</svg>
