<svg xmlns="http://www.w3.org/2000/svg" width="400" height="388.012"><path d="M113.413 105.977c-.239.239-.104.566.234.566.236 0 .332-.092.295-.282-.06-.31-.348-.465-.529-.284m1.91.272c0 .549-1.47 1.102-1.785.671-.176-.241-.27-.249-.68-.063-.413.189-.504.179-.689-.073-.201-.275-.256-.274-1.004.011-.739.283-.806.284-.999.02-.176-.241-.274-.252-.667-.073-.395.18-.491.168-.674-.082-.268-.367-.754-.207-.645.212.063.241-.096.372-.736.607-.449.165-1.081.406-1.404.534-.522.207-.611.202-.792-.045-.112-.153-.303-.245-.425-.204-.122.041-.305-.038-.407-.177-.15-.203-.287-.215-.715-.066-.438.152-.555.138-.68-.085-.204-.364-.697-.161-.591.243.117.45-1.545 1.008-1.776.595-.203-.362-.693-.151-.587.253.064.245-.053.358-.52.501-.493.151-.602.142-.602-.053 0-.276-.312-.303-.905-.078-.3.115-.395.252-.335.484.057.216-.018.353-.224.412-.17.049-.435.14-.589.204-.214.088-.306-.006-.393-.401-.154-.702-.242-.726-1.243-.346-.738.28-.87.292-.87.078 0-.271-.2-.307-.802-.146-.255.068-.38.23-.38.491 0 .296-.123.416-.515.502-.4.088-.503.192-.464.47.072.512-1.483 1.124-1.79.705-.16-.22-.285-.234-.686-.082-.405.154-.517.14-.641-.082a.377.377 0 00-.456-.171c-.187.059-.343-.003-.404-.162-.107-.278-.616-.361-.616-.1 0 .087.079.367.176.622.143.375.125.493-.091.615a.375.375 0 00-.172.454c.067.212-.008.332-.246.394-.224.059-.342.007-.342-.148 0-.276-.313-.303-.905-.078-.313.119-.396.248-.329.507.106.406-.406.503-.558.106-.093-.244-.199-.224-1.707.32-.157.057-.148.211.039.658.243.582.242.584-.284.767-.701.244-.815.233-.815-.081 0-.282-.232-.248-1.304.19-.52.213-.535.246-.357.758.218.624-.11 1.02-.454.549-.31-.424-2.95.551-2.95 1.09-.001.223-.104.38-.252.38-.157 0-.236.136-.211.361.064.579-.368.572-.571-.008-.212-.61-.931-.788-.739-.184.072.23.017.373-.172.446-.165.063-.246.229-.199.41.045.171-.029.345-.169.399-.358.137-.346.148-.552-.478-.145-.437-.264-.554-.505-.491-.293.077-.298.124-.067.676.136.327.224.612.196.635-.368.29-1.162.377-1.294.141-.124-.222-.241-.235-.686-.08-.444.155-.553.142-.636-.074-.062-.161-.227-.228-.433-.174-.231.06-.359-.012-.417-.234-.078-.299-.126-.304-.664-.079-.507.212-.592.211-.676-.006-.052-.136-.241-.247-.42-.247-.178 0-.366-.109-.418-.243-.053-.138-.206-.199-.356-.141-.152.058-.357-.026-.482-.197-.119-.163-.303-.244-.409-.179-.105.065-.283-.008-.396-.162-.168-.23-.291-.247-.685-.098-.395.151-.517.133-.687-.1-.119-.163-.294-.229-.412-.156-.119.074-.293.009-.411-.153-.168-.23-.291-.247-.685-.097-.395.15-.517.132-.688-.102-.124-.169-.32-.241-.486-.178-.18.069-.277.019-.277-.141 0-.286-.306-.316-.904-.089-.325.124-.441.101-.519-.104-.061-.159-.228-.229-.422-.178-.216.056-.348-.02-.404-.233-.077-.295-.123-.299-.679-.067-.556.233-.604.228-.698-.069-.065-.206-.209-.289-.409-.237-.178.046-.35-.027-.406-.173-.061-.16-.227-.22-.446-.163-.245.064-.348.011-.348-.182 0-.338-.134-.34-.902-.02-.766.32-1.124.322-1.124.006 0-.161-.098-.211-.278-.142-.167.065-.364-.011-.495-.191-.12-.164-.304-.244-.409-.179-.105.065-.283-.008-.396-.162-.17-.233-.289-.248-.701-.091-.413.156-.531.141-.702-.092-.112-.154-.291-.227-.396-.162-.105.065-.292-.019-.415-.187-.195-.268-.282-.279-.699-.089-.411.187-.504.178-.683-.067-.114-.155-.307-.249-.429-.208-.122.041-.305-.039-.407-.177-.149-.202-.289-.216-.705-.07-.425.148-.537.134-.619-.078-.06-.156-.227-.226-.42-.176-.217.057-.348-.019-.405-.234-.057-.22-.173-.285-.373-.208a.337.337 0 01-.441-.158c-.124-.223-.242-.238-.676-.087-.431.15-.552.136-.672-.078-.088-.158-.281-.227-.485-.174-.235.062-.338.006-.338-.184 0-.324-.171-.341-.754-.076-.363.166-.468.15-.647-.094-.179-.245-.293-.261-.709-.103-.408.155-.532.141-.692-.078-.155-.212-.289-.231-.649-.095-.662.252-.732.225-.854-.334-.118-.535-.388-.627-.954-.324-.271.145-.385.121-.561-.12-.193-.264-.281-.275-.697-.085-.412.187-.504.178-.683-.067-.114-.156-.307-.249-.429-.208-.122.041-.306-.039-.407-.177-.152-.206-.286-.217-.735-.06-.486.169-.558.155-.632-.128-.077-.295-.127-.302-.651-.083-.506.212-.584.207-.723-.041-.091-.163-.267-.236-.422-.176-.169.064-.301-.012-.364-.21-.067-.21-.207-.284-.429-.226-.202.053-.368-.014-.429-.173-.081-.212-.193-.226-.619-.078-.433.151-.555.133-.733-.111-.169-.232-.284-.254-.554-.11-.487.261-.869.225-.869-.082 0-.188-.098-.234-.339-.157-.226.071-.372.018-.442-.163-.063-.165-.218-.233-.401-.175-.183.058-.338-.01-.401-.176-.07-.181-.216-.234-.442-.162-.241.076-.339.03-.339-.158 0-.167-.15-.264-.408-.264-.224 0-.439-.093-.477-.207-.053-.159-.211-.162-.689-.015-.511.157-.621.148-.621-.047 0-.348-.293-.3-2.048.336-1.37.497-1.575.621-1.529.928.035.238-.039.356-.223.356-.195 0-.245.095-.172.325.065.203.005.38-.159.472-.236.132-.234.228.018.967.247.727.25.842.026 1.006-.322.235-.148.691.264.691.229 0 .418.275.697 1.013.301.798.453 1.006.714.978.258-.028.385.14.578.76.183.591.331.795.576.795.461 0 .701.426.351.623-.409.228-.338.643.11.643.275 0 .441.148.58.517.134.353.291.5.498.464.237-.041.391.195.705 1.082.326.922.464 1.128.738 1.098.269-.03.408.164.699.976.277.773.451 1.025.733 1.066.29.041.448.289.736 1.154.31.931.418 1.089.696 1.016.181-.047.36.003.398.112.627 1.817.778 2.102 1.08 2.023.258-.068.378.114.683 1.03.309.93.432 1.113.749 1.113.304 0 .428.158.629.802.199.633.321.792.583.755.237-.033.388.105.532.486.15.399.28.511.521.448.263-.068.371.077.601.806.23.732.338.875.602.806.26-.068.379.078.624.768.229.644.38.844.62.819.231-.025.4.172.622.726.224.555.392.75.625.726.252-.027.4.208.715 1.133.325.954.459 1.161.734 1.132.235-.026.392.115.524.47.117.315.308.507.504.507.218 0 .409.236.615.76.222.565.379.748.614.713.242-.035.386.154.619.811.248.696.363.837.617.757.255-.081.364.057.596.758.233.701.342.839.597.758.254-.081.369.06.616.757.234.656.378.845.62.81.235-.034.392.149.614.714.206.523.397.76.615.76.231 0 .416.27.692 1.013.447 1.199.468 1.435.13 1.435-.31 0-.31-.008-.005.721.234.56.228.598-.093.682-.322.084-.327.122-.091.686.231.554.227.605-.059.695-.198.063-.279.209-.227.409.06.231-.057.358-.46.499-.413.144-.521.265-.456.513.057.218-.016.351-.222.405-.217.057-.28.185-.214.437.068.258.015.356-.191.356-.208 0-.255.091-.177.339.072.226.018.373-.162.442-.169.064-.234.218-.174.408.074.233-.044.355-.506.522-.433.157-.573.29-.498.478.654 1.639.926 2.598.778 2.746-.244.244-.494.03-.616-.528-.103-.467-.129-.479-.689-.307-.683.209-.859.857-.208.765.305-.043.425.085.659.707.213.567.372.757.628.748a.42.42 0 01.423.295c.049.19-.011.308-.157.308-.277 0-.303.312-.077.909.135.353.106.441-.168.529-.26.082-.295.17-.166.412.13.242.096.326-.158.392-.232.061-.296.185-.229.441.062.239.014.356-.148.356-.686 0-.891.42-.589 1.208.351.92.351.987.011.987-.191 0-.246.103-.184.342.07.267-.036.394-.486.582-.527.22-.561.277-.407.682.254.668.23.707-.634 1.027-.441.164-.822.31-.846.326-.025.016.068.298.205.627.236.565.231.604-.085.687-.335.087-.335.089 0 .941.31.786.315.866.057 1.01-.253.141-.23.293.244 1.608l.523 1.451-.83.295c-.908.323-.955.434-.569 1.357.239.572.237.642-.021.831-.155.113-.238.322-.184.463.056.144-.021.324-.173.409-.158.089-.23.265-.171.418.066.171-.012.302-.218.368-.206.065-.284.196-.219.367.059.154-.013.33-.174.42-.249.139-.235.26.148 1.278.37.982.391 1.142.165 1.268-.406.227-.311.635.148.635.543 0 1.131 1.486.686 1.735a.379.379 0 00-.172.433c.07.221-.101.354-.752.585-.9.32-.932.368-.681 1.03.128.334.104.461-.106.578-.344.193-.086 1.099.337 1.181.328.063.372-.33.096-.847-.173-.322-.001-.63.357-.64.08-.003.673 1.528.673 1.737 0 .049-.385.218-.855.374-.624.207-.83.352-.76.534.052.138.096.283.096.323 0 .04.268-.04.597-.177.583-.244.601-.239.76.178.228.599.202.911-.075.911-.15 0-.207.118-.154.319.115.443-.284.648-.551.283-.617-.845-.706-.023-.156 1.453.502 1.349.521 1.47.242 1.543-.214.056-.276.185-.211.436.067.254.015.356-.179.356-.301 0-.34.141-.131.471.076.119.255.171.398.116.155-.059.304.014.367.179.072.188.003.306-.212.362-.215.056-.291.188-.235.405.051.192-.019.36-.174.42-.23.088-.225.2.046.986.277.805.28.902.037 1.056-.245.154-.243.236.019.921.351.919.353.994.034.994-.319 0-.319.193 0 .955.32.767.32 1.071 0 1.071-.311 0-.317-.081.073.929.18.464.39.831.468.815.077-.016.347-.081.6-.145.331-.083.487-.044.556.138.056.143.229.218.401.173.182-.048.347.034.412.203.074.195.004.31-.228.37-.254.067-.298.155-.181.365.112.2.072.322-.147.445-.436.244.369 2.511.839 2.362.241-.077.388.16.804 1.305.422 1.157.568 1.392.848 1.361.789-.088.832 1.212.045 1.384-.593.131-.559.779.038.716.596-.062.559.504-.043.636-.6.132-.719.268-.518.592.117.191.23.197.587.034.59-.268.764-.254.764.065 0 .163.114.242.296.204.184-.039.281-.195.258-.416-.048-.468.564-.656.681-.209.052.2-.027.347-.222.408-.192.061-.273.209-.222.405.047.181-.028.35-.181.409-.225.086-.177.337.335 1.751.712 1.966.608 1.839 1.321 1.62.501-.153.586-.137.656.131.12.456-.89.795-1.181.396-.255-.349-.764-.19-.617.192.063.163.229.241.412.193.23-.06.354.062.495.489.143.433.274.56.549.531.228-.024.384.071.423.257.039.189-.041.296-.224.296-.202 0-.26.098-.197.338.053.203-.015.396-.171.483-.143.08-.223.251-.178.38.045.128-.053.31-.218.403-.437.247.013 1.342.49 1.191.247-.079.35.019.475.452.127.436.238.541.532.499.618-.088.493.59-.135.728-.568.125-.58.16-.321.903.147.421.242.499.46.377.216-.121.322-.044.49.358.279.661.272.81-.038.81-.317 0-.316.031.037 1.025.217.612.369.807.606.782.232-.025.394.169.606.726.224.587.369.752.636.724.269-.028.39.115.551.651.113.378.246.793.296.922.054.142-.018.236-.181.236-.319 0-.332.113-.092.8.133.382.26.493.493.431.253-.066.376.089.621.778.235.662.37.838.589.769.399-.127.593.268.255.516-.394.288-.049 1.332.401 1.214.239-.062.384.149.715 1.042.33.889.482 1.112.743 1.085.27-.028.418.223.826 1.401.405 1.172.552 1.422.796 1.358.216-.056.366.082.54.497.22.528.277.562.682.408.667-.254.707-.23 1.031.621.271.709.275.805.038.954-.4.253-.043 1.341.394 1.202.198-.063.348.002.417.18.063.167.229.247.41.199.238-.062.37.101.602.747.317.882.943 1.211.861.452-.084-.777.469-.513.789.378.243.675.369.835.584.744.883-.374 1.545-.038.775.393-.356.199-.143.701.253.598.248-.065.381.114.67.905.677 1.849.695 1.881 1.02 1.796.243-.064.365.097.594.785.235.708.344.848.599.767.254-.081.369.061.618.761.244.69.368.845.619.779.208-.054.342.024.396.23.075.289.124.294.675.064.326-.137.611-.225.633-.196.022.028.261.683.53 1.453.411 1.172.543 1.389.805 1.32.208-.054.342.024.397.231.075.288.135.295.721.089l.638-.226.158.534c.122.411.244.525.527.494.238-.026.369.053.369.222 0 .173.126.244.373.209.306-.043.424.084.656.707.196.528.379.76.598.76.173 0 .367.127.431.282.076.185.236.251.464.191.25-.065.348-.01.348.194 0 .208.091.255.342.176.274-.087.379-.005.524.41.134.386.285.52.586.52.256 0 .406.097.406.264 0 .184.098.234.323.162.443-.14.646.247.272.52-.372.272-.224.746.198.635.226-.059.362.063.51.457.155.411.281.517.533.451.226-.059.356.014.412.23.077.295.124.299.678.068l.595-.249.196.595c.151.457.267.572.499.498.19-.06.342.008.409.182.068.177.228.246.442.189.218-.056.336-.004.336.15 0 .139.17.238.409.238.319 0 .433.114.523.521.091.413.184.504.446.436.196-.052.369.011.423.153.051.132.243.24.427.24.217 0 .402.18.529.516.144.382.276.494.51.433.212-.055.344.024.4.24.067.253.151.288.391.159.259-.138.337-.07.506.441.154.466.272.586.515.523.238-.062.365.058.524.496.136.377.29.547.442.489.841-.323 1.002-.289 1.19.249.131.375.275.515.485.472.208-.043.358.096.489.451.13.356.289.502.517.478.236-.025.388.128.537.54.15.415.282.547.474.473.153-.059.33.01.414.162.09.159.281.228.486.175.242-.064.338-.006.338.204 0 .212.095.268.348.202.219-.058.384.003.445.162.056.146.228.22.405.174.231-.061.354.063.498.499.147.444.263.558.494.484.19-.06.342.008.409.182.064.167.229.245.417.196.232-.061.362.063.517.495.175.482.268.556.575.458.706-.225.854-.151 1.12.556.351.934.364.942 1.072.647.873-.365 1.073-.323 1.278.266.2.574.619.59.599.022-.016-.46.544-.62.657-.188.127.485 1.236-.005 1.16-.512-.039-.258.038-.35.295-.35.204 0 .348.109.348.264 0 .188.098.234.339.157.227-.071.373-.018.442.163.064.165.219.233.401.175.183-.058.338.01.402.176.065.172.217.234.416.17.245-.077.349.022.476.453.127.428.247.543.532.512.243-.027.369.052.369.231 0 .189.104.244.342.181.267-.069.394.036.58.482.23.55.259.564.778.383.45-.156.564-.143.691.083.084.151.264.227.408.172.144-.056.353.033.476.201.121.165.303.249.404.187.101-.063.255.013.342.169.101.179.265.242.449.172.202-.078.316-.011.377.223.069.264.151.3.395.169.24-.128.33-.094.409.156.069.216.208.292.43.234.256-.066.292-.151.166-.387-.139-.26.241-.672.429-.467.43.467.676 1.819.331 1.819-.282 0-.316.146-.11.47.076.119.257.171.404.115.193-.074.324.056.474.469.142.394.31.569.538.561.243-.008.408.193.615.749.188.503.384.759.58.759.163.001.352.09.42.2.068.109.266.185.44.169.214-.021.377.138.504.493.12.333.274.493.426.441.132-.045.335.05.453.211.118.161.301.24.406.175.106-.065.283.007.394.159.185.253.266.254.939.017.97-.343.969-.343 1.182.267.143.41.258.507.523.437.221-.057.339-.006.339.149 0 .139.17.238.409.238.319 0 .434.114.523.521.091.413.184.504.446.436.196-.052.369.011.424.153.05.132.238.24.417.24.178 0 .367.11.418.243.053.138.206.199.357.141.149-.057.354.023.472.185.179.245.276.256.67.077.395-.18.49-.169.674.082.117.16.327.248.466.194.147-.056.298.021.36.184.069.178.211.241.389.173.154-.06.342-.011.418.109.205.324.171.47-.111.47-.145 0-.253.152-.253.357 0 .275.078.337.338.269.206-.054.397.016.488.179.136.243.221.24.924-.028.938-.358 1.016-.318 1.289.658.173.617.274.749.517.672a.382.382 0 01.461.187c.148.265.212.263.949-.018.894-.341 1.504-.117.898.331-.356.263-.22.796.165.648.148-.056.326.018.413.174.12.214.245.238.581.11.622-.236.681-.214.913.344.246.595.204.587 1.201.229.797-.285 1.085-1.063.302-.815-.642.204-.886-.975-.252-1.216.709-.27.775-.265.775.049 0 .195.102.246.356.18.257-.067.38-.003.441.229.066.253.15.288.391.159.258-.138.337-.07.506.441.158.48.266.585.519.506l.657-.204c.248-.076.338-.026.338.189 0 .211.096.268.342.203.267-.07.394.037.584.492l.243.581.582-.243c.541-.226.587-.22.666.08.058.224.173.289.374.212a.338.338 0 01.442.161c.192.343.708.175.57-.186-.055-.143-.002-.322.117-.398.324-.205.47-.171.47.111 0 .297.388.329.869.071.27-.145.385-.122.556.112.129.177.325.252.492.187.18-.069.278-.019.278.142 0 .287.306.316.909.087.353-.135.441-.106.529.168.082.26.17.295.412.166.244-.131.326-.095.397.177.085.323.122.328.686.092.554-.231.605-.227.695.059.063.198.209.279.407.228.178-.047.35.026.406.173.061.159.226.22.445.163.246-.065.348-.011.348.182 0 .317.147.337.77.1.365-.139.494-.117.661.11.113.156.295.228.402.162.111-.068.242 0 .302.156.103.268.406.263 1.142-.02.182-.069.269-.009.269.187 0 .286.3.282 1.065-.011.177-.068.31.08.448.496.143.435.267.566.463.491.154-.059.357.019.477.183.179.245.276.256.67.077.395-.18.49-.169.675.084.204.279.26.276 1.064-.04.921-.363 1.431-.081.755.418-.571.422-.009.671.792.351.858-.344 1.02-.346 1.02-.012 0 .185.099.233.326.162.209-.067.381-.003.483.179.087.155.263.247.392.204.129-.044.32.036.424.177.167.227.313.211 1.254-.132.998-.364 1.078-.37 1.277-.098.123.168.299.237.418.163.12-.074.3.002.434.185.361.494.657.079.423-.593-.213-.61.213-.981.512-.446.099.176.278.25.463.191.243-.077.344.055.517.672.261.931.383 1.021 1.028.754.361-.15.474-.29.407-.503-.193-.607.427-.534.684.081l.243.582.698-.246c.974-.343 1.104-.316 1.311.277.159.456.141.534-.133.606-.215.056-.288.187-.229.41.058.225.181.298.39.232a.373.373 0 01.454.172c.135.241.273.225 1.315-.154.641-.232 1.176-.407 1.19-.388.014.019.101.262.194.541.125.376.261.496.529.466.236-.026.361.054.361.231 0 .193.104.244.357.178s.38-.003.438.218c.075.287.127.293.651.074.71-.297.75-.296.75.015 0 .297.387.329.869.071.271-.145.385-.121.561.12.193.264.281.275.697.085.412-.187.504-.178.685.069.172.236.298.254.721.107.418-.146.54-.13.662.086.081.146.253.23.382.187.129-.044.318.034.42.172.151.206.285.217.734.06.486-.169.559-.155.633.128.077.295.127.302.653.082.716-.299.75-.298.75.035 0 .194.102.246.356.179.254-.066.38-.003.438.221.076.289.133.295.741.081.571-.202.66-.2.66.013 0 .284.307.313.903.086.325-.123.441-.1.519.104.061.159.228.23.422.179.214-.056.348.018.402.223.057.217.184.28.436.214.261-.068.357-.015.357.198 0 .197.087.258.269.188.721-.277 1.039-.287 1.135-.036.083.216.191.228.647.069.454-.158.575-.146.712.071.134.211.264.228.669.087.399-.139.541-.123.688.078.125.171.296.211.523.122.538-.21.929-.175.929.082 0 .156.118.207.342.148.237-.062.313-.182.247-.392-.136-.427.259-.616.526-.251.123.168.332.257.476.201.144-.055.324.021.41.174.088.158.264.23.417.171.171-.066.302.012.367.215.091.287.152.296.642.096 1.089-.446 1.3-.473 1.3-.169 0 .206.098.259.357.191.256-.067.38-.002.44.228.079.301.124.305.678.074.729-.305.72-.305.72.005 0 .272.382.312.929.098.227-.089.398-.049.523.122.15.205.286.218.715.069.438-.153.555-.138.68.085.087.155.263.226.416.168.169-.065.302.01.363.204.092.29.159.284 1.228-.103 1.018-.37 1.149-.384 1.325-.143.156.212.29.232.65.095.622-.237.77-.218.77.099 0 .179.091.236.269.168.724-.278 1.039-.287 1.137-.033.142.371.656.143.535-.238-.077-.243.372-.662.502-.468.017.025.127.288.245.584.229.576.786.612.636.041-.107-.41.379-.575.641-.217.123.169.32.241.485.177.18-.069.277-.019.277.142 0 .152.164.248.422.248.263 0 .423.095.423.253 0 .31-.009.31.721.005.554-.231.598-.226.677.074.06.231.184.295.44.228.259-.067.357-.015.357.191 0 .306.21.277 1.324-.179.523-.213.572-.206.652.1.081.308.125.314.666.088.507-.212.593-.211.676.005.152.396.737.312.69-.1-.06-.513.993-.964 1.143-.49.099.309.144.306 1.229-.103 1.01-.38 1.148-.397 1.321-.159.172.235.374.199 1.838-.331 1.877-.679 1.942-.69 1.942-.331 0 .283.232.249 1.301-.188.491-.201.551-.192.643.1.1.315.118.315.964-.006.803-.305.877-.308 1.069-.045.179.245.272.254.683.067.412-.188.505-.179.684.066.114.156.307.25.429.209.122-.041.304.037.405.174.289.393 1.184.035 1.114-.446-.088-.612.592-.479.729.142.128.586.145.59 1.097.254.895-.316 1.013-.316 1.013 0 0 .303-.019.301.664.063.403-.141.525-.271.466-.496-.107-.411.377-.578.639-.22.255.349.656.143.545-.28-.051-.195.03-.333.225-.384.207-.054.335.035.401.281.221.828.292.834 2.043.178 1.546-.579 1.673-.602 1.873-.329.123.169.3.238.419.165.118-.074.293-.008.412.155.191.26.317.242 1.6-.231 1.248-.46 1.413-.486 1.588-.246.176.241.307.227 1.326-.143 1.065-.387 1.135-.393 1.226-.105.091.286.164.279 1.222-.119.996-.375 1.147-.394 1.315-.165.294.403 1.934-.149 1.884-.634-.047-.467 1.52-1.11 1.681-.689.058.15-.034.359-.217.494-.241.178-.27.281-.12.433.25.253.563.066.563-.337 0-.44.465-.574.593-.171.097.303.145.31.677.088.525-.22.58-.214.67.069.136.427.753.263.64-.17-.125-.479.994-.926 1.173-.469.113.29.169.296.699.074.527-.22.589-.215.722.064.207.435 2.515-.383 2.328-.825-.331-.78-.279-.964.318-1.147.569-.175.591-.164.737.347.084.29.263.527.399.527.235 0 .261-.197.131-1.006-.096-.597.449-.487.674.135l.208.575 2.305-.843c2.04-.746 2.328-.813 2.499-.58.299.409 1.774-.149 1.774-.672 0-.411 1.025-.782 1.147-.416.035.105.216.19.402.19.222 0 .405.177.533.516.141.375.278.494.502.435.19-.05.352.034.424.219.17.437 6.614-1.903 6.495-2.359-.111-.424.299-.61.559-.254.119.163.316.263.438.222.122-.041.305.037.406.174.274.373 1.184.038 1.12-.413-.07-.486 2.067-1.253 2.377-.853.303.392 5.42-1.465 5.3-1.923-.044-.168.031-.343.169-.396.359-.137.347-.148.553.478.211.639.893.723.727.09-.05-.191.019-.361.17-.419.141-.054.219-.228.177-.392-.052-.197.069-.361.364-.496.642-.292.717-.261.929.381.204.618.678.677.678.084 0-.171.095-.372.211-.446.116-.074.211-.276.211-.448 0-.49 2.618-1.413 2.902-1.024.11.151.3.241.422.2.122-.041.305.038.407.176.246.333 2.491-.416 2.349-.785-.322-.839-.286-.996.266-1.189.301-.105.562-.171.58-.147.018.023.17.409.338.857.245.653.367.795.615.718l.648-.201c.248-.077.338-.027.338.187 0 .302.739.247 1.074-.08.275-.269-.376-1.835-.725-1.744-.433.114-.615-.262-.254-.526.171-.124.254-.329.196-.481-.144-.377.381-.53.633-.184.17.232.296.25.724.101.667-.233 1.206.659.646 1.068-.197.144-.25.3-.157.459.223.379 2.467-.483 2.335-.897-.135-.427.925-.8 1.201-.422.28.383 1.302.015 1.164-.42-.078-.247.088-.373.881-.663 1.81-.662 1.924-.723 1.868-1.003-.034-.168-.191-.253-.41-.223-.195.027-.397-.062-.449-.197-.133-.346.393-.505.624-.189.29.397 1.859-.152 1.74-.608-.062-.235.061-.364.497-.521.417-.151.565-.299.531-.53-.037-.255.183-.406 1.074-.737.906-.336 1.105-.474 1.04-.723-.061-.233.066-.356.527-.508.491-.162.577-.253.451-.478-.123-.219-.048-.323.356-.493.667-.28.811-.271.811.051 0 .163.113.242.296.204.185-.038.275-.184.242-.392-.146-.91-.124-.953.644-1.241.585-.22.749-.362.714-.619-.038-.274.16-.404 1.109-.727.926-.316 1.153-.461 1.143-.734-.009-.266.209-.419 1.002-.705 1.036-.374 1.169-.577.858-1.304-.181-.425.881-.825 1.164-.439.291.398 1.27.035 1.22-.453-.025-.243.112-.378.5-.493l.534-.157-.225-.639c-.207-.586-.2-.646.088-.721.223-.059.287-.185.22-.439-.111-.427.353-.504.582-.096.253.452.725.126.537-.37-.251-.659-.195-.815.361-1.026.402-.151.498-.27.419-.518-.081-.255.013-.355.45-.482.427-.124.541-.24.502-.516-.039-.278.064-.382.464-.47.395-.087.515-.205.515-.508 0-.217.095-.426.21-.464.116-.039.211-.214.211-.389.001-.222.23-.405.761-.604.565-.212.751-.368.725-.607-.024-.227.133-.383.532-.527.423-.153.546-.283.485-.514-.047-.18.026-.351.173-.407.16-.062.22-.227.163-.446-.066-.252-.011-.348.2-.348.197 0 .257-.087.188-.269-.339-.883-.309-1.036.246-1.229.456-.159.577-.144.748.089.238.326.662.146.521-.221-.063-.166.103-.328.51-.498.461-.193.576-.321.487-.54a40.04 40.04 0 01-.424-1.164l-.308-.877.585-.194c.448-.148.563-.263.489-.495-.059-.188.007-.342.174-.406.176-.068.234-.217.167-.427-.081-.258.018-.363.487-.518.539-.178.576-.231.429-.617-.232-.611-.198-.907.104-.907.188 0 .233-.098.157-.339-.072-.227-.018-.373.162-.442.168-.064.234-.218.174-.406-.073-.232.041-.347.484-.494.437-.144.56-.267.5-.498-.049-.185.03-.35.198-.414.176-.068.243-.22.182-.412-.074-.232.041-.354.483-.514l.58-.21-.241-.577-.241-.577.843-.3c.879-.312.949-.428.685-1.124-.121-.318-.1-.441.084-.512a.422.422 0 00.244-.37c0-.272-.312-.265-1.062.022-.402.154-.726-.955-.357-1.224.154-.112.236-.317.183-.456-.068-.176.081-.31.497-.447.424-.14.565-.269.494-.454-.054-.141.022-.346.17-.454.245-.179.239-.276-.06-1.062-.315-.829-.316-.869-.023-.945.209-.055.277-.186.216-.42-.071-.271.016-.362.433-.454.408-.089.522-.204.522-.523 0-.259.097-.409.265-.409.188 0 .233-.098.157-.338-.072-.228-.018-.373.167-.444.158-.061.234-.213.178-.358-.054-.14.022-.341.169-.448.218-.16.232-.284.077-.691-.155-.408-.141-.532.078-.691.146-.107.222-.309.169-.448a.272.272 0 01.166-.354c.431-.165.315-.618-.16-.618-.603 0-.539-.483.093-.703.591-.206.64-.764.06-.684-.266.036-.388-.09-.529-.549-.149-.487-.139-.597.055-.597.14 0 .237-.171.237-.422 0-.27.095-.422.265-.422.19 0 .233-.097.154-.347-.088-.278-.007-.385.411-.543.365-.138.521-.308.521-.569 0-.275.131-.4.506-.482.559-.123.586-.193.334-.855-.137-.36-.117-.494.095-.649.219-.16.233-.284.078-.692-.156-.409-.141-.531.081-.693.245-.18.241-.273-.053-1.046-.316-.833-.316-.851-.003-.933.311-.082.311-.105-.022-.949-.391-.992-.396-1.022-.183-1.022.087 0 .347-.072.578-.16l.421-.16-.276-.863c-.289-.904.023-1.684.336-.839.079.214.216.292.393.224.264-.102.258-.408-.023-1.141-.069-.18-.01-.269.18-.269.181 0 .262-.107.223-.295-.04-.191-.195-.282-.435-.256-.6.065-.483-.559.146-.779.416-.145.498-.249.411-.523-.077-.244-.033-.342.156-.342.152 0 .265-.144.265-.338 0-.404-.112-.415-.903-.084-.333.139-.722.253-.865.253-.338 0-.335-.488.005-.618a.271.271 0 00.166-.354c-.054-.139.02-.339.164-.444.381-.278.027-1.283-.411-1.169-.4.105-.595-.395-.234-.598.157-.087.23-.264.171-.416-.073-.192.061-.318.492-.46.415-.137.565-.271.498-.446a1.737 1.737 0 01-.096-.305c0-.03-.142-.018-.315.027-.193.051-.356-.026-.422-.2-.075-.194-.005-.31.224-.369.313-.082.318-.123.085-.681-.304-.729-.304-.721.006-.721.157 0 .253-.159.253-.422 0-.25.097-.422.237-.422.196 0 .204-.11.047-.621-.146-.478-.143-.636.016-.689.114-.038.207-.252.207-.477 0-.25.098-.408.253-.408.318 0 .319.011-.078-.997-.33-.836-.33-.842-.001-.947.258-.081.296-.172.17-.406-.138-.26-.035-.344.746-.61l.907-.308-.517-1.448a47.958 47.958 0 00-.546-1.486c-.146-.203-1.108.426-1.041.681.099.38-.375.599-.583.269-.098-.156-.057-.304.123-.438.149-.112.228-.317.174-.456-.06-.157.026-.292.226-.355.317-.101.317-.119-.014-.957-.303-.769-.31-.874-.073-1.048.385-.281.031-1.286-.411-1.17-.465.122-.995-1.455-.589-1.752.151-.11.221-.286.156-.391-.065-.106.008-.284.162-.397.403-.294-.512-2.896-1.019-2.896-.464 0-.811-.933-.452-1.217.277-.22.302-.138-1.726-5.645-.659-1.786-.836-2.121-1.092-2.054-.252.066-.685-.602-.685-1.058 0-.025.258-.131.573-.235.56-.185.569-.202.393-.775-.141-.46-.247-.565-.492-.487-.239.076-.37-.038-.558-.49-.182-.436-.326-.567-.556-.507-.237.062-.353-.06-.494-.522-.152-.492-.142-.602.052-.602.277 0 .303-.312.077-.907-.147-.387-.11-.44.434-.619.415-.137.565-.272.498-.447a1.71 1.71 0 01-.096-.304c0-.031-.142-.018-.316.027-.237.062-.362-.049-.498-.438-.209-.598-.248-.607-1.212-.267-.395.139-.739.253-.765.253-.042 0-.417-.998-.417-1.109 0-.026.258-.131.573-.236.438-.144.554-.263.491-.505-.075-.287-.139-.296-.7-.101l-.617.214-.619-1.706c-.544-1.499-.588-1.731-.362-1.907.367-.287.06-1.154-.404-1.14-.287.009-.524-.503-1.6-3.461-1.148-3.155-1.297-3.467-1.63-3.419-.275.039-.366-.035-.366-.296 0-.197.11-.348.253-.348.286 0 .316-.146.101-.486-.086-.135-.237-.177-.361-.101-.129.08-.299.015-.43-.164-.261-.356-.638-.178-.526.249.051.195-.031.333-.228.384-.217.057-.28.185-.214.437.153.585-.449.443-.677-.159-.141-.375-.278-.494-.502-.435-.408.106-.575-.36-.222-.62.375-.274.009-1.371-.399-1.197-.863.367-.96.309-1.333-.795-.427-1.264-.433-1.334-.106-1.334.303 0 .302.019.063-.664-.142-.408-.269-.526-.501-.465-.446.117-1.105-1.576-.703-1.805.178-.102.308-.063.413.126.157.281.644.386.644.139 0-.411-.736-2.227-.902-2.225-.558.006-.955.232-.955.543 0 .258.082.316.348.247.414-.109.665.349.311.568a.582.582 0 00-.236.445c-.003.67-.522.398-.82-.431-.237-.656-.364-.814-.609-.75-.235.061-.357-.064-.509-.524-.17-.516-.245-.581-.512-.438-.394.211-.565-.323-.194-.606.398-.303-.221-1.988-.646-1.76-.399.213-.659-.324-.264-.545.4-.224.315-.635-.131-.635-.329 0-.452-.175-.783-1.111-.327-.927-.444-1.095-.706-1.013l-.621.193c-.427.134-.794-.971-.404-1.217.406-.256.036-1.175-.445-1.105-.246.036-.364-.037-.364-.223 0-.174-.11-.254-.296-.215-.179.037-.282.195-.261.4.043.426-.943.877-1.163.532-.179-.282-.171-.462.02-.462.481 0 1.01-.347.914-.599-.1-.258-.41-.255-1.1.009-.154.06-.328-.193-.535-.775-.245-.691-.369-.847-.621-.781-.183.048-.354-.023-.411-.172-.058-.151-.228-.219-.418-.169-.214.055-.348-.019-.402-.224-.053-.201-.188-.279-.394-.225-.258.067-.386-.12-.714-1.037-.421-1.177-.459-1.2-1.42-.831-.153.059-.28-.031-.334-.238-.06-.229.012-.358.232-.416.214-.056.284-.174.212-.362-.061-.158-.214-.237-.354-.183-.867.332-1.025.3-1.141-.231-.089-.4-.206-.52-.51-.52-.323 0-.445-.151-.67-.827-.218-.657-.338-.81-.584-.745-.252.066-.384-.127-.71-1.042-.416-1.168-.498-1.22-1.354-.858-.221.093-.337-.06-.565-.747-.301-.905-.907-1.195-.792-.378.036.257-.035.375-.223.375-.173 0-.255.111-.218.296.039.197.184.278.435.243.284-.04.375.032.375.295 0 .394-.422.475-.562.108-.055-.141-.228-.205-.422-.154-.264.069-.373-.044-.54-.561a35.015 35.015 0 00-.528-1.466c-.313-.801-.312-.818.003-.901.221-.057.295-.187.236-.412-.061-.234-.179-.298-.412-.224-.253.08-.37-.013-.523-.417-.124-.329-.314-.521-.515-.521-.222 0-.287.081-.215.269.34.886.308 1.035-.257 1.232-.462.162-.578.15-.701-.07-.093-.166-.269-.226-.473-.161-.226.072-.325.023-.325-.161 0-.167-.15-.265-.402-.265-.275 0-.435-.121-.505-.38-.157-.586-.126-.802.115-.802.555 0 .81-.403.613-.968l-.189-.543-.583.243c-.645.27-1.1-.119-.52-.444.237-.133.152-.925-.14-1.295-.023-.028-.308.06-.634.196-.555.232-.599.227-.679-.075-.056-.216-.175-.288-.358-.218-.167.064-.238.219-.181.399.145.455-1.632 1.116-1.803.67-.079-.205-.229-.273-.465-.211-.244.063-.348.01-.348-.18 0-.18-.126-.258-.373-.231-.614.066-.59-.498.026-.633.402-.089.516-.204.516-.522 0-.25.098-.409.252-.409.156 0 .236-.136.211-.361-.065-.581.376-.576.596.006.229.607.903.774.75.186-.054-.205.015-.397.175-.486a.34.34 0 00.162-.413c-.065-.169.01-.301.206-.363.296-.094.295-.132-.023-.996l-.331-.897-1.421.516c-1.217.442-1.421.572-1.421.902 0 .224-.102.386-.243.386-.394 0-.508-.371-.187-.606.163-.119.263-.316.222-.438-.041-.122.037-.305.174-.406.22-.161.22-.272.001-.928-.275-.827-.811-1.131-.811-.461 0 .33-.171.455-1.055.772-1.25.449-1.309.454-1.309.126 0-.305-.18-.318-.755-.056-.369.168-.468.149-.672-.127-.365-.494-.733-.075-.46.524.265.58.279.549-.391.829-.418.174-.56.323-.488.509.071.185-.066.334-.464.501l-.565.237-.34-.881-.339-.881-.562.164c-.427.126-.541.239-.479.477.049.19-.038.376-.222.475-.238.127-.323.092-.389-.16-.06-.233-.184-.297-.44-.23-.259.068-.357.015-.357-.191 0-.204-.092-.255-.325-.181-.209.066-.381.002-.483-.18-.087-.155-.264-.247-.393-.203-.129.043-.317-.035-.419-.173-.152-.205-.285-.216-.734-.06-.491.171-.559.156-.636-.139-.068-.261-.151-.296-.394-.166-.242.129-.33.094-.412-.164-.068-.213-.198-.293-.37-.227a.34.34 0 01-.413-.162c-.089-.16-.281-.229-.486-.175-.235.061-.338.005-.338-.185 0-.326-.171-.341-.768-.07-.381.174-.47.161-.611-.091-.108-.193-.278-.26-.491-.192-.233.074-.325.022-.325-.182 0-.206-.098-.258-.356-.191-.252.066-.38.004-.437-.214-.053-.204-.188-.279-.401-.223-.191.05-.361-.019-.419-.17-.056-.145-.228-.219-.403-.174-.225.059-.355-.062-.493-.46-.147-.42-.264-.522-.523-.454-.224.059-.365-.013-.431-.221-.09-.283-.145-.289-.671-.07-.531.222-.58.216-.676-.087-.067-.211-.198-.291-.369-.225-.154.059-.33-.013-.418-.171-.086-.152-.265-.229-.41-.173-.143.055-.352-.033-.473-.198-.176-.24-.283-.26-.572-.105-.545.292-.676.236-.9-.381-.206-.571-.207-.571-.774-.334-.504.211-.58.207-.672-.032-.1-.262-.409-.255-1.139.026-.178.068-.269.01-.269-.168 0-.177-.147-.272-.422-.272-.259 0-.422-.096-.422-.248 0-.161-.098-.21-.278-.141-.168.064-.364-.012-.495-.191-.12-.164-.304-.245-.409-.18-.106.065-.284-.007-.397-.162-.17-.232-.288-.248-.701-.091s-.531.142-.701-.091c-.113-.154-.291-.227-.396-.162-.106.065-.284-.008-.397-.162-.17-.233-.288-.248-.701-.091-.413.156-.531.141-.701-.092-.113-.154-.291-.227-.396-.162-.106.065-.289-.015-.408-.177-.183-.251-.298-.267-.756-.108-.448.157-.557.144-.64-.071-.096-.251-.415-.241-1.136.036-.181.07-.268.009-.268-.188 0-.213-.096-.266-.357-.198-.253.067-.38.003-.438-.218-.075-.286-.127-.292-.651-.074-.71.297-.75.296-.75-.015 0-.299-.388-.328-.88-.065-.281.151-.381.134-.503-.084a.594.594 0 00-.468-.273c-.174 0-.346-.093-.384-.206-.053-.159-.211-.163-.69-.016-.511.157-.62.149-.62-.047 0-.277-.313-.303-.909-.076-.35.133-.442.106-.525-.157-.094-.297-.142-.302-.698-.069-.562.234-.602.23-.684-.081-.08-.307-.126-.314-.656-.093-.71.297-.75.297-.75-.015 0-.298-.154-.314-.769-.08-.368.14-.495.117-.668-.12-.184-.252-.279-.263-.674-.083-.396.18-.491.168-.676-.085-.187-.256-.277-.266-.691-.077-.412.188-.504.178-.684-.069-.176-.24-.295-.255-.75-.096-.678.236-.659.238-.659-.065 0-.298-.155-.315-.77-.081-.359.137-.495.118-.647-.091-.174-.238-.264-.238-.929-.003-.92.324-1.031.324-1.031-.005 0-.185-.099-.234-.326-.162-.205.065-.38.005-.475-.165-.121-.217-.24-.234-.614-.092-.626.238-.78.223-.78-.077 0-.139-.029-.253-.064-.253-.034 0-.386.114-.781.253-.894.316-1.182.32-1.182.016 0-.194-.109-.204-.603-.052-.482.148-.632.138-.747-.048-.115-.186-.266-.196-.748-.048-.494.152-.603.142-.603-.052 0-.277-.312-.303-.909-.076-.347.132-.442.105-.522-.147-.092-.291-.157-.286-1.227.103-1.022.371-1.149.384-1.327.141-.179-.245-.274-.239-1.04.063-.81.319-.849.32-.99.026-.139-.287-.237-.272-1.612.241-1.385.517-1.468.53-1.548.226-.11-.423-1.239-.022-1.163.413.07.396-.319.556-.558.23-.166-.228-.295-.249-.66-.111-.62.236-.77.218-.77-.092 0-.314.178-.363-3.333.926-2.391.878-2.673.947-2.776.682-.101-.26-1.174.092-9.192 3.009-7.735 2.813-9.103 3.264-9.241 3.045-.249-.395-1.347-.028-1.232.412.107.41-.349.591-.617.244-.18-.233-.429-.18-2.206.47-1.82.666-2.011.706-2.083.43-.053-.2-.188-.274-.401-.219-.19.05-.36-.018-.418-.169-.058-.151-.227-.22-.419-.17-.299.078-.304.125-.078.667.243.581.242.583-.299.811-.593.249-.799.202-.799-.18 0-.194-.072-.211-.327-.075-.262.141-.346.113-.428-.145-.066-.208-.209-.292-.41-.24-.181.048-.35-.028-.41-.183-.142-.371-.67-.14-.568.249.109.415-.38.573-.646.208-.183-.25-.279-.262-.674-.082-.393.18-.49.169-.669-.076-.125-.171-.322-.243-.487-.18-.18.07-.278.02-.278-.141 0-.314-.28-.313-1.187.007-.397.14-.735.235-.751.211a20.83 20.83 0 01-.325-.846c-.344-.927-.263-.901-1.411-.464-1.049.399-1.391.423-1.391.1 0-.154-.118-.206-.336-.15-.206.054-.373-.01-.433-.166-.055-.144-.228-.219-.401-.174-.181.047-.346-.033-.41-.199-.073-.189-.216-.244-.446-.171-.247.078-.338.031-.338-.177 0-.206-.098-.259-.356-.191-.252.066-.38.003-.437-.214-.054-.205-.188-.279-.402-.223-.193.05-.36-.02-.421-.178a.27.27 0 00-.361-.162c-.15.058-.327-.021-.42-.187-.104-.186-.276-.25-.486-.184-.233.074-.325.023-.325-.181 0-.205-.098-.258-.352-.192-.278.072-.4-.026-.587-.472-.183-.44-.311-.545-.577-.475-.243.064-.341.007-.341-.194 0-.194-.115-.267-.365-.231-.277.04-.404-.068-.529-.454-.218-.667-.169-.645-.842-.364l-.589.246-.156-.532c-.115-.395-.251-.528-.526-.518-.204.007-.37-.088-.37-.211 0-.124-.181-.225-.404-.225-.223 0-.447-.111-.5-.247-.083-.217-.168-.218-.675-.006-.542.227-.586.221-.666-.088-.082-.31-.123-.315-.682-.082l-.595.249-.198-.6c-.144-.437-.27-.572-.463-.498-.146.056-.327.004-.402-.115-.209-.328-.171-.47.122-.47.164 0 .243-.113.205-.295-.04-.191-.195-.282-.435-.256-.246.027-.373-.051-.373-.231 0-.192-.103-.244-.356-.177-.252.066-.38.003-.437-.214-.053-.205-.187-.279-.401-.223-.194.05-.361-.02-.422-.178a.272.272 0 00-.348-.167c-.136.052-.344-.038-.463-.201-.176-.24-.284-.26-.572-.106-.549.294-.718.233-.915-.33-.134-.385-.262-.499-.491-.439-.199.051-.346-.029-.407-.222-.064-.203-.206-.274-.43-.216-.258.068-.376-.034-.522-.454-.14-.402-.268-.52-.499-.459-.202.053-.345-.03-.412-.239-.079-.251-.169-.285-.409-.156-.244.131-.326.095-.396-.172-.088-.337-.09-.337-.953.004-.771.303-.875.311-.967.074-.06-.158-.228-.234-.41-.186-.197.051-.344-.03-.405-.222-.064-.202-.207-.275-.426-.217-.202.053-.368-.014-.429-.173-.081-.211-.195-.226-.606-.083-.35.122-.561.123-.682.002-.25-.25-.041-.5.522-.623.391-.086.635-.764.276-.764-.401 0-1.103.437-1.103.686 0 .583-1.074.906-1.228.37a6.809 6.809 0 00-.207-.591c-.086-.21-.042-.296.15-.296.158 0 .271-.14.271-.336 0-.245-.099-.325-.373-.295-.24.026-.394-.065-.434-.255-.038-.183.04-.296.204-.296.294 0 .331-.142.123-.471-.107-.167-.25-.175-.626-.032-.508.193-.92-.087-.92-.627 0-.123-.187-.221-.422-.221-.25 0-.422-.096-.422-.237 0-.157-.118-.207-.347-.147-.242.064-.312.174-.232.364.259.611.265.988.018 1.083-.189.072-.36-.19-.675-1.031-.349-.936-.482-1.122-.774-1.089-.219.025-.354-.056-.354-.211 0-.3-.119-.31-.816-.067-.44.153-.502.237-.367.489.133.247.087.324-.24.406a7.714 7.714 0 00-.672.204c-.182.07-.269.009-.269-.187 0-.209-.096-.266-.341-.202-.268.07-.394-.036-.583-.488l-.241-.577-1.401.511c-1.24.452-1.423.481-1.591.25-.151-.205-.287-.223-.645-.087-.601.228-.77.217-.77-.049 0-.671-.414-.855-1.27-.564-.99.338-.925.338-.925.006 0-.191-.102-.246-.341-.184-.266.07-.394-.035-.578-.475-.186-.446-.309-.544-.587-.472-.256.067-.351.013-.351-.2 0-.21-.096-.268-.338-.205-.204.054-.396-.015-.485-.173-.12-.215-.241-.229-.672-.079-.433.152-.552.137-.675-.084-.126-.225-.239-.237-.706-.074-.306.107-.568.175-.584.151a11.826 11.826 0 01-.241-.58c-.148-.373-.293-.507-.472-.439-.146.056-.325-.019-.41-.17-.125-.223-.241-.238-.68-.085-.441.154-.564.137-.735-.097-.114-.155-.32-.238-.459-.185-.146.056-.298-.019-.359-.177-.071-.185-.216-.24-.444-.168-.24.077-.338.031-.338-.157 0-.309-.15-.327-.77-.092-.36.137-.494.117-.649-.095-.177-.241-.308-.227-1.326.143-1.064.386-1.136.392-1.227.106-.083-.261-.169-.278-.621-.121-.552.193-.979-.104-.979-.68 0-.157-.117-.21-.338-.152-.205.054-.397-.015-.486-.175-.202-.362-.692-.151-.587.253.064.244-.052.357-.51.498-.573.176-.597.166-.7-.304-.136-.622-.281-.702-.863-.481-.383.146-.512.129-.671-.09-.18-.245-.274-.24-1.055.057-.837.318-.86.318-.958.008-.094-.294-.143-.299-.688-.072-.588.246-.911-.026-.911-.767 0-.211-.232-.199-.755.039-.362.165-.467.151-.644-.091-.197-.27-.285-.261-1.333.133-.983.37-1.134.39-1.223.157-.062-.163-.227-.232-.428-.18-.252.066-.35-.025-.433-.401-.144-.654-.264-.699-1.097-.405-.944.333-.949.332-1.153-.254-.209-.599-.701-.687-.701-.125m-24.872 3.387c-.396.156-.457.257-.368.615.164.668.333.739 1.122.476.844-.281 1.11-.807.407-.807-.273 0-.434-.094-.434-.253 0-.288-.068-.291-.727-.031m5.391.759c.174-.03.328.063.36.217.053.254-1.062.827-1.611.827-.298 0-.252-.499.058-.618a.27.27 0 00.163-.361c-.143-.372.289-.594.529-.273a.57.57 0 00.501.208m-7.324 1.951c-.383.223-.615-.261-.254-.531.243-.181.306-.168.397.084.065.182.009.358-.143.447m-1.73 1.701a.46.46 0 01-.184.356c-.238.148-.564-.178-.416-.416.165-.268.6-.225.6.06m65.428.275c0 .13-.133.262-.295.293-.291.056-.412-.302-.18-.534.177-.177.475-.026.475.241m-66.61.233c0 .124-.108.267-.24.317-.303.117-.518-.407-.238-.58.257-.159.478-.037.478.263m-2.739 1.629c.065.338-.99.737-1.176.445-.205-.323-.171-.383.327-.579.563-.222.787-.186.849.134m232.091 16.561c-.321.155-.343.236-.185.689.143.411.128.551-.075.699-.319.234-.146.769.203.626.139-.056.253-.248.253-.426 0-.208.185-.387.522-.506.512-.181.517-.195.295-.733-.239-.577-.416-.638-1.013-.349m-1.281.44c-.329.067-.36.179-.145.52.095.15.235.179.398.084.331-.193.127-.681-.253-.604m4.975 2.88c-.316.2-.076.68.292.584.206-.054.28-.187.223-.404-.093-.354-.188-.387-.515-.18m-12.703.555c.007.284-.649.254-.724-.033-.051-.195.021-.331.196-.368.257-.054.522.148.528.401m11.485 2.556c-.233.104-.442.2-.466.214-.023.013.043.268.147.566.221.635.776.681.688.057-.036-.257.034-.376.223-.376.167 0 .255-.111.222-.282-.071-.365-.293-.414-.814-.179m-2.786 1.476c0 .362-.491.31-.562-.059-.044-.226.025-.295.251-.251.171.032.311.172.311.31m4.411.639c-.046.074-.02.237.057.363.19.307.704.095.576-.238-.105-.275-.493-.351-.633-.125m-3.837.735c.236.677.242.65-.136.65-.318 0-.774-.874-.565-1.083.238-.238.53-.059.701.433m15.044 10.106c0 .254.088.345.295.305.163-.031.296-.169.296-.305 0-.137-.133-.275-.296-.306-.207-.04-.295.051-.295.306m-287.155 9.456c-.347.14-.257 1.357.1 1.347.27-.007.549-.321.441-.496-.069-.111.007-.294.173-.415.568-.415.038-.739-.714-.436m-2.588 3.207c0 .255.089.346.296.306.162-.031.295-.169.295-.306 0-.136-.133-.274-.295-.305-.207-.04-.296.051-.296.305m306.014 5.847c-.135.055-.101.314.114.873.31.806.906 1.047 1.39.562.239-.238-.037-.57-.396-.476-.235.062-.357-.058-.5-.492-.189-.572-.246-.616-.608-.467M40.491 199.705c-.031.162-.169.295-.305.295-.137 0-.275-.133-.306-.295-.04-.208.051-.296.306-.296.254 0 .345.088.305.296m.099 3.855c.14.365.143.358-.221.453-.359.094-.629-.476-.292-.615.333-.136.407-.113.513.162m2.023-.008c.128.333-.386.545-.576.238-.077-.126-.103-.289-.057-.363.14-.226.528-.15.633.125m-.126 2.305c-.419.234-.337.644.129.644.222 0 .447.112.5.25a.264.264 0 00.339.157c.323-.124.536.246.284.494-.152.149-.254.122-.43-.116-.127-.172-.316-.259-.422-.194-.105.065-.289-.016-.409-.18-.123-.169-.33-.254-.478-.197-.16.061-.293-.01-.343-.184a6.733 6.733 0 00-.201-.572c-.17-.411.93-.892 1.157-.506.101.17.061.299-.126.404m4.031 5.036c0 .362-.491.31-.562-.06-.044-.226.025-.294.251-.251.171.033.311.173.311.311m-3.124.41c0 .352-.35.515-.523.242-.229-.361-.181-.485.185-.485.186 0 .338.109.338.243m319.075 3.653c.189.501.175.528-.395.766-.468.196-.568.315-.485.578.08.252.026.331-.226.331-.452 0-.606-.461-.197-.591.266-.084.294-.175.16-.526-.235-.618-.199-.874.135-.961.642-.168.819-.098 1.008.403m2.096 2.532c-.28.112-.374.256-.315.481.057.217-.019.349-.233.405-.314.082-.082 1.167.245 1.142.631-.047.955-.259.955-.623 0-.259.098-.404.272-.404.192 0 .236-.086.149-.296a7.15 7.15 0 01-.206-.591c-.094-.327-.275-.351-.867-.114m-1.871 19.399c-.307.19-.096.704.238.576.274-.105.351-.493.125-.633-.075-.046-.238-.02-.363.057m-3.124 1.372c.174.281-.217.604-.45.371-.195-.195-.073-.555.188-.555.082 0 .2.083.262.184M57.892 244.34c-.342.217-.435.186-.53-.177-.057-.216.009-.35.191-.388.372-.079.643.372.339.565m300.311 4.751c.247.587.205.803-.155.803-.333 0-.665-1.034-.389-1.21.3-.19.29-.198.544.407M66.294 274.006c-.046.074-.02.237.057.362.19.307.704.096.576-.238-.105-.274-.493-.351-.633-.124m13.529 3.02c-.334.088-.369.344-.133.965.157.415.179.42.747.183l.585-.245.279.841c.233.701.348.842.688.842.263 0 .409.097.409.271 0 .192.086.236.295.15.163-.067.429-.16.591-.207.343-.098.358-.198.124-.813-.122-.321-.262-.429-.481-.371-.231.06-.361-.065-.517-.495-.159-.439-.281-.553-.512-.479-.192.061-.344-.006-.411-.181-.068-.177-.228-.246-.442-.19-.218.057-.336.004-.336-.149 0-.234-.3-.275-.886-.122m-8.18.33c-.302.123-.063.567.304.567.353 0 .365-.023.217-.408-.106-.276-.178-.298-.521-.159m12.992 1.3c-.606.177-.626.224-.376.881.136.358.117.494-.09.646-.474.346-.009 1.314.532 1.108.697-.265.813-.194 1.125.684l.3.844.576-.241c.53-.222.585-.216.675.067.063.198.209.28.406.228.182-.047.351.028.41.184.12.313.621.175.621-.171 0-.138-.174-.235-.422-.235-.255 0-.422-.096-.422-.243 0-.386.369-.511.595-.202.285.39.81.186.587-.229-.126-.237-.089-.321.173-.389.228-.06.3-.176.228-.366-.061-.158-.214-.238-.355-.184-.761.292-1.06.294-1.06.007 0-.208-.096-.266-.338-.202-.204.053-.396-.016-.484-.174-.122-.218-.239-.229-.703-.068-.305.107-.57.175-.587.151-.314-.422-.361-1.137-.08-1.226.434-.137.234-.59-.262-.59-.215 0-.416-.099-.446-.22-.041-.166-.188-.18-.603-.06m-10.306.423c-.119.076-.171.255-.116.398a.27.27 0 01-.164.361c-.321.123-.343.429-.038.546.616.236 1.109-.22.916-.848-.195-.634-.251-.677-.598-.457m16.089 2.81c-.824.322-1.006.461-.973.748.025.217-.056.352-.211.352-.316 0-.314.094.02 1.073.214.63.333.776.571.7.187-.059.34.009.406.182.068.178.228.246.442.19.218-.057.336-.004.336.15 0 .141.172.237.422.237.261 0 .422.096.422.252 0 .158.137.236.37.211.298-.033.427.108.657.719.23.609.358.75.643.707.242-.036.356.038.356.231 0 .201.099.258.338.195.203-.053.396.015.484.171.114.204.249.225.632.097.637-.212.761-.725.176-.725-.368 0-.466-.139-.789-1.109-.277-.83-.432-1.085-.621-1.013-.766.294-1.064.297-1.064.01 0-.209-.096-.266-.338-.203-.205.053-.396-.016-.486-.175-.083-.148-.261-.22-.407-.164-.328.125-.552-.391-.252-.58.134-.085.297-.029.428.146.167.224.307.248.674.12.58-.204.758-.8.214-.718-.52.079-1.023-1.027-.527-1.157.216-.057.29-.187.231-.411-.06-.231-.179-.298-.403-.227-.202.064-.354.005-.419-.164-.125-.325-.095-.329-1.332.155m12.357.196c-.232.232-.111.59.18.534.162-.032.295-.164.295-.294 0-.267-.298-.417-.475-.24m5.731 3.233c-.046.074-.02.237.057.363.19.307.704.095.576-.238-.105-.275-.493-.351-.633-.125m3.125.862c-.334.21-.021.677.362.539.252-.091.265-.154.084-.396-.141-.19-.295-.239-.446-.143m-15.441 1.645c-.232.232-.111.591.18.535.162-.032.295-.164.295-.294 0-.267-.298-.418-.475-.241m.897 1.242c0 .254.089.346.296.306.162-.032.295-.169.295-.306 0-.137-.133-.274-.295-.305-.207-.04-.296.051-.296.305m1.4.169c.054.205-.015.397-.175.486-.382.214-.147.692.285.579.249-.066.348-.011.348.193 0 .204.092.255.325.181.21-.067.382-.002.486.184.093.167.269.244.422.186.421-.162-.232-1.73-.713-1.711-.193.007-.351-.088-.351-.211 0-.124-.161-.225-.358-.225-.274 0-.337.079-.269.338m4.516 3.396c-.532.212-.539.221-.421.529.057.149.228.225.403.179.18-.047.346.034.41.2.072.188.216.243.445.171.248-.079.339-.031.339.177 0 .206.098.258.356.191.257-.067.38-.003.441.229.068.261.147.289.408.15.178-.096.272-.257.209-.36-.063-.102.012-.278.167-.392.334-.244.194-.778-.168-.639-.136.052-.342-.034-.457-.192-.182-.249-.274-.258-.686-.07-.413.188-.504.178-.687-.072-.24-.328-.204-.323-.759-.101m3.453 1.504c-.111.181.201 1.328.43 1.577.221.241 1.849-.379 1.74-.662-.051-.134-.239-.243-.418-.243s-.37-.116-.424-.258c-.063-.164-.216-.221-.418-.158-.203.065-.355.006-.42-.163-.116-.304-.334-.345-.49-.093m204.891 6.033c.005.116-.131.211-.301.211-.436 0-.798-1.136-.39-1.224.266-.058.674.54.691 1.013m-208.29-.865c-.323.132-.069.709.273.62.202-.053.275-.188.219-.403-.086-.329-.15-.357-.492-.217m165.833 10.869c0 .137-.133.274-.296.306-.207.04-.295-.052-.295-.306s.088-.345.295-.305c.163.031.296.168.296.305" fill-rule="evenodd"/></svg>