<svg id="svg" xmlns="http://www.w3.org/2000/svg" xmlns:xlink="http://www.w3.org/1999/xlink" width="400" height="388.0118193330519" fillColor="#0036f6" viewBox="0, 0, 400,388.0118193330519"><g id="svgg"><path id="path0" d="M113.413 105.977 C 113.174 106.216,113.309 106.543,113.647 106.543 C 113.883 106.543,113.979 106.451,113.942 106.261 C 113.882 105.951,113.594 105.796,113.413 105.977 M115.323 106.249 C 115.323 106.798,113.853 107.351,113.538 106.920 C 113.362 106.679,113.268 106.671,112.858 106.857 C 112.445 107.046,112.354 107.036,112.169 106.784 C 111.968 106.509,111.913 106.510,111.165 106.795 C 110.426 107.078,110.359 107.079,110.166 106.815 C 109.990 106.574,109.892 106.563,109.499 106.742 C 109.104 106.922,109.008 106.910,108.825 106.660 C 108.557 106.293,108.071 106.453,108.180 106.872 C 108.243 107.113,108.084 107.244,107.444 107.479 C 106.995 107.644,106.363 107.885,106.040 108.013 C 105.518 108.220,105.429 108.215,105.248 107.968 C 105.136 107.815,104.945 107.723,104.823 107.764 C 104.701 107.805,104.518 107.726,104.416 107.587 C 104.266 107.384,104.129 107.372,103.701 107.521 C 103.263 107.673,103.146 107.659,103.021 107.436 C 102.817 107.072,102.324 107.275,102.430 107.679 C 102.547 108.129,100.885 108.687,100.654 108.274 C 100.451 107.912,99.961 108.123,100.067 108.527 C 100.131 108.772,100.014 108.885,99.547 109.028 C 99.054 109.179,98.945 109.170,98.945 108.975 C 98.945 108.699,98.633 108.672,98.040 108.897 C 97.740 109.012,97.645 109.149,97.705 109.381 C 97.762 109.597,97.687 109.734,97.481 109.793 C 97.311 109.842,97.046 109.933,96.892 109.997 C 96.678 110.085,96.586 109.991,96.499 109.596 C 96.345 108.894,96.257 108.870,95.256 109.250 C 94.518 109.530,94.386 109.542,94.386 109.328 C 94.386 109.057,94.186 109.021,93.584 109.182 C 93.329 109.250,93.204 109.412,93.204 109.673 C 93.204 109.969,93.081 110.089,92.689 110.175 C 92.289 110.263,92.186 110.367,92.225 110.645 C 92.297 111.157,90.742 111.769,90.435 111.350 C 90.275 111.130,90.150 111.116,89.749 111.268 C 89.344 111.422,89.232 111.408,89.108 111.186 C 89.017 111.025,88.836 110.957,88.652 111.015 C 88.465 111.074,88.309 111.012,88.248 110.853 C 88.141 110.575,87.632 110.492,87.632 110.753 C 87.632 110.840,87.711 111.120,87.808 111.375 C 87.951 111.750,87.933 111.868,87.717 111.990 C 87.556 112.080,87.487 112.262,87.545 112.444 C 87.612 112.656,87.537 112.776,87.299 112.838 C 87.075 112.897,86.957 112.845,86.957 112.690 C 86.957 112.414,86.644 112.387,86.052 112.612 C 85.739 112.731,85.656 112.860,85.723 113.119 C 85.829 113.525,85.317 113.622,85.165 113.225 C 85.072 112.981,84.966 113.001,83.458 113.545 C 83.301 113.602,83.310 113.756,83.497 114.203 C 83.740 114.785,83.739 114.787,83.213 114.970 C 82.512 115.214,82.398 115.203,82.398 114.889 C 82.398 114.607,82.166 114.641,81.094 115.079 C 80.574 115.292,80.559 115.325,80.737 115.837 C 80.955 116.461,80.627 116.857,80.283 116.386 C 79.973 115.962,77.333 116.937,77.333 117.476 C 77.332 117.699,77.229 117.856,77.081 117.856 C 76.924 117.856,76.845 117.992,76.870 118.217 C 76.934 118.796,76.502 118.789,76.299 118.209 C 76.087 117.599,75.368 117.421,75.560 118.025 C 75.632 118.255,75.577 118.398,75.388 118.471 C 75.223 118.534,75.142 118.700,75.189 118.881 C 75.234 119.052,75.160 119.226,75.020 119.280 C 74.662 119.417,74.674 119.428,74.468 118.802 C 74.323 118.365,74.204 118.248,73.963 118.311 C 73.670 118.388,73.665 118.435,73.896 118.987 C 74.032 119.314,74.120 119.599,74.092 119.622 C 73.724 119.912,72.930 119.999,72.798 119.763 C 72.674 119.541,72.557 119.528,72.112 119.683 C 71.668 119.838,71.559 119.825,71.476 119.609 C 71.414 119.448,71.249 119.381,71.043 119.435 C 70.812 119.495,70.684 119.423,70.626 119.201 C 70.548 118.902,70.500 118.897,69.962 119.122 C 69.455 119.334,69.370 119.333,69.286 119.116 C 69.234 118.980,69.045 118.869,68.866 118.869 C 68.688 118.869,68.500 118.760,68.448 118.626 C 68.395 118.488,68.242 118.427,68.092 118.485 C 67.940 118.543,67.735 118.459,67.610 118.288 C 67.491 118.125,67.307 118.044,67.201 118.109 C 67.096 118.174,66.918 118.101,66.805 117.947 C 66.637 117.717,66.514 117.700,66.120 117.849 C 65.725 118.000,65.603 117.982,65.433 117.749 C 65.314 117.586,65.139 117.520,65.021 117.593 C 64.902 117.667,64.728 117.602,64.610 117.440 C 64.442 117.210,64.319 117.193,63.925 117.343 C 63.530 117.493,63.408 117.475,63.237 117.241 C 63.113 117.072,62.917 117.000,62.751 117.063 C 62.571 117.132,62.474 117.082,62.474 116.922 C 62.474 116.636,62.168 116.606,61.570 116.833 C 61.245 116.957,61.129 116.934,61.051 116.729 C 60.990 116.570,60.823 116.500,60.629 116.551 C 60.413 116.607,60.281 116.531,60.225 116.318 C 60.148 116.023,60.102 116.019,59.546 116.251 C 58.990 116.484,58.942 116.479,58.848 116.182 C 58.783 115.976,58.639 115.893,58.439 115.945 C 58.261 115.991,58.089 115.918,58.033 115.772 C 57.972 115.612,57.806 115.552,57.587 115.609 C 57.342 115.673,57.239 115.620,57.239 115.427 C 57.239 115.089,57.105 115.087,56.337 115.407 C 55.571 115.727,55.213 115.729,55.213 115.413 C 55.213 115.252,55.115 115.202,54.935 115.271 C 54.768 115.336,54.571 115.260,54.440 115.080 C 54.320 114.916,54.136 114.836,54.031 114.901 C 53.926 114.966,53.748 114.893,53.635 114.739 C 53.465 114.506,53.346 114.491,52.934 114.648 C 52.521 114.804,52.403 114.789,52.232 114.556 C 52.120 114.402,51.941 114.329,51.836 114.394 C 51.731 114.459,51.544 114.375,51.421 114.207 C 51.226 113.939,51.139 113.928,50.722 114.118 C 50.311 114.305,50.218 114.296,50.039 114.051 C 49.925 113.896,49.732 113.802,49.610 113.843 C 49.488 113.884,49.305 113.804,49.203 113.666 C 49.054 113.464,48.914 113.450,48.498 113.596 C 48.073 113.744,47.961 113.730,47.879 113.518 C 47.819 113.362,47.652 113.292,47.459 113.342 C 47.242 113.399,47.111 113.323,47.054 113.108 C 46.997 112.888,46.881 112.823,46.681 112.900 C 46.501 112.969,46.334 112.910,46.240 112.742 C 46.116 112.519,45.998 112.504,45.564 112.655 C 45.133 112.805,45.012 112.791,44.892 112.577 C 44.804 112.419,44.611 112.350,44.407 112.403 C 44.172 112.465,44.069 112.409,44.069 112.219 C 44.069 111.895,43.898 111.878,43.315 112.143 C 42.952 112.309,42.847 112.293,42.668 112.049 C 42.489 111.804,42.375 111.788,41.959 111.946 C 41.551 112.101,41.427 112.087,41.267 111.868 C 41.112 111.656,40.978 111.637,40.618 111.773 C 39.956 112.025,39.886 111.998,39.764 111.439 C 39.646 110.904,39.376 110.812,38.810 111.115 C 38.539 111.260,38.425 111.236,38.249 110.995 C 38.056 110.731,37.968 110.720,37.552 110.910 C 37.140 111.097,37.048 111.088,36.869 110.843 C 36.755 110.687,36.562 110.594,36.440 110.635 C 36.318 110.676,36.134 110.596,36.033 110.458 C 35.881 110.252,35.747 110.241,35.298 110.398 C 34.812 110.567,34.740 110.553,34.666 110.270 C 34.589 109.975,34.539 109.968,34.015 110.187 C 33.509 110.399,33.431 110.394,33.292 110.146 C 33.201 109.983,33.025 109.910,32.870 109.970 C 32.701 110.034,32.569 109.958,32.506 109.760 C 32.439 109.550,32.299 109.476,32.077 109.534 C 31.875 109.587,31.709 109.520,31.648 109.361 C 31.567 109.149,31.455 109.135,31.029 109.283 C 30.596 109.434,30.474 109.416,30.296 109.172 C 30.127 108.940,30.012 108.918,29.742 109.062 C 29.255 109.323,28.873 109.287,28.873 108.980 C 28.873 108.792,28.775 108.746,28.534 108.823 C 28.308 108.894,28.162 108.841,28.092 108.660 C 28.029 108.495,27.874 108.427,27.691 108.485 C 27.508 108.543,27.353 108.475,27.290 108.309 C 27.220 108.128,27.074 108.075,26.848 108.147 C 26.607 108.223,26.509 108.177,26.509 107.989 C 26.509 107.822,26.359 107.725,26.101 107.725 C 25.877 107.725,25.662 107.632,25.624 107.518 C 25.571 107.359,25.413 107.356,24.935 107.503 C 24.424 107.660,24.314 107.651,24.314 107.456 C 24.314 107.108,24.021 107.156,22.266 107.792 C 20.896 108.289,20.691 108.413,20.737 108.720 C 20.772 108.958,20.698 109.076,20.514 109.076 C 20.319 109.076,20.269 109.171,20.342 109.401 C 20.407 109.604,20.347 109.781,20.183 109.873 C 19.947 110.005,19.949 110.101,20.201 110.840 C 20.448 111.567,20.451 111.682,20.227 111.846 C 19.905 112.081,20.079 112.537,20.491 112.537 C 20.720 112.537,20.909 112.812,21.188 113.550 C 21.489 114.348,21.641 114.556,21.902 114.528 C 22.160 114.500,22.287 114.668,22.480 115.288 C 22.663 115.879,22.811 116.083,23.056 116.083 C 23.517 116.083,23.757 116.509,23.407 116.706 C 22.998 116.934,23.069 117.349,23.517 117.349 C 23.792 117.349,23.958 117.497,24.097 117.866 C 24.231 118.219,24.388 118.366,24.595 118.330 C 24.832 118.289,24.986 118.525,25.300 119.412 C 25.626 120.334,25.764 120.540,26.038 120.510 C 26.307 120.480,26.446 120.674,26.737 121.486 C 27.014 122.259,27.188 122.511,27.470 122.552 C 27.760 122.593,27.918 122.841,28.206 123.706 C 28.516 124.637,28.624 124.795,28.902 124.722 C 29.083 124.675,29.262 124.725,29.300 124.834 C 29.927 126.651,30.078 126.936,30.380 126.857 C 30.638 126.789,30.758 126.971,31.063 127.887 C 31.372 128.817,31.495 129.000,31.812 129.000 C 32.116 129.000,32.240 129.158,32.441 129.802 C 32.640 130.435,32.762 130.594,33.024 130.557 C 33.261 130.524,33.412 130.662,33.556 131.043 C 33.706 131.442,33.836 131.554,34.077 131.491 C 34.340 131.423,34.448 131.568,34.678 132.297 C 34.908 133.029,35.016 133.172,35.280 133.103 C 35.540 133.035,35.659 133.181,35.904 133.871 C 36.133 134.515,36.284 134.715,36.524 134.690 C 36.755 134.665,36.924 134.862,37.146 135.416 C 37.370 135.971,37.538 136.166,37.771 136.142 C 38.023 136.115,38.171 136.350,38.486 137.275 C 38.811 138.229,38.945 138.436,39.220 138.407 C 39.455 138.381,39.612 138.522,39.744 138.877 C 39.861 139.192,40.052 139.384,40.248 139.384 C 40.466 139.384,40.657 139.620,40.863 140.144 C 41.085 140.709,41.242 140.892,41.477 140.857 C 41.719 140.822,41.863 141.011,42.096 141.668 C 42.344 142.364,42.459 142.505,42.713 142.425 C 42.968 142.344,43.077 142.482,43.309 143.183 C 43.542 143.884,43.651 144.022,43.906 143.941 C 44.160 143.860,44.275 144.001,44.522 144.698 C 44.756 145.354,44.900 145.543,45.142 145.508 C 45.377 145.474,45.534 145.657,45.756 146.222 C 45.962 146.745,46.153 146.982,46.371 146.982 C 46.602 146.982,46.787 147.252,47.063 147.995 C 47.510 149.194,47.531 149.430,47.193 149.430 C 46.883 149.430,46.883 149.422,47.188 150.151 C 47.422 150.711,47.416 150.749,47.095 150.833 C 46.773 150.917,46.768 150.955,47.004 151.519 C 47.235 152.073,47.231 152.124,46.945 152.214 C 46.747 152.277,46.666 152.423,46.718 152.623 C 46.778 152.854,46.661 152.981,46.258 153.122 C 45.845 153.266,45.737 153.387,45.802 153.635 C 45.859 153.853,45.786 153.986,45.580 154.040 C 45.363 154.097,45.300 154.225,45.366 154.477 C 45.434 154.735,45.381 154.833,45.175 154.833 C 44.967 154.833,44.920 154.924,44.998 155.172 C 45.070 155.398,45.016 155.545,44.836 155.614 C 44.667 155.678,44.602 155.832,44.662 156.022 C 44.736 156.255,44.618 156.377,44.156 156.544 C 43.723 156.701,43.583 156.834,43.658 157.022 C 44.312 158.661,44.584 159.620,44.436 159.768 C 44.192 160.012,43.942 159.798,43.820 159.240 C 43.717 158.773,43.691 158.761,43.131 158.933 C 42.448 159.142,42.272 159.790,42.923 159.698 C 43.228 159.655,43.348 159.783,43.582 160.405 C 43.795 160.972,43.954 161.162,44.210 161.153 C 44.406 161.146,44.586 161.272,44.633 161.448 C 44.682 161.638,44.622 161.756,44.476 161.756 C 44.199 161.756,44.173 162.068,44.399 162.665 C 44.534 163.018,44.505 163.106,44.231 163.194 C 43.971 163.276,43.936 163.364,44.065 163.606 C 44.195 163.848,44.161 163.932,43.907 163.998 C 43.675 164.059,43.611 164.183,43.678 164.439 C 43.740 164.678,43.692 164.795,43.530 164.795 C 42.844 164.795,42.639 165.215,42.941 166.003 C 43.292 166.923,43.292 166.990,42.952 166.990 C 42.761 166.990,42.706 167.093,42.768 167.332 C 42.838 167.599,42.732 167.726,42.282 167.914 C 41.755 168.134,41.721 168.191,41.875 168.596 C 42.129 169.264,42.105 169.303,41.241 169.623 C 40.800 169.787,40.419 169.933,40.395 169.949 C 40.370 169.965,40.463 170.247,40.600 170.576 C 40.836 171.141,40.831 171.180,40.515 171.263 C 40.180 171.350,40.180 171.352,40.515 172.204 C 40.825 172.990,40.830 173.070,40.572 173.214 C 40.319 173.355,40.342 173.507,40.816 174.822 L 41.339 176.273 40.509 176.568 C 39.601 176.891,39.554 177.002,39.940 177.925 C 40.179 178.497,40.177 178.567,39.919 178.756 C 39.764 178.869,39.681 179.078,39.735 179.219 C 39.791 179.363,39.714 179.543,39.562 179.628 C 39.404 179.717,39.332 179.893,39.391 180.046 C 39.457 180.217,39.379 180.348,39.173 180.414 C 38.967 180.479,38.889 180.610,38.954 180.781 C 39.013 180.935,38.941 181.111,38.780 181.201 C 38.531 181.340,38.545 181.461,38.928 182.479 C 39.298 183.461,39.319 183.621,39.093 183.747 C 38.687 183.974,38.782 184.382,39.241 184.382 C 39.784 184.382,40.372 185.868,39.927 186.117 C 39.779 186.200,39.704 186.389,39.755 186.550 C 39.825 186.771,39.654 186.904,39.003 187.135 C 38.103 187.455,38.071 187.503,38.322 188.165 C 38.450 188.499,38.426 188.626,38.216 188.743 C 37.872 188.936,38.130 189.842,38.553 189.924 C 38.881 189.987,38.925 189.594,38.649 189.077 C 38.476 188.755,38.648 188.447,39.006 188.437 C 39.086 188.434,39.679 189.965,39.679 190.174 C 39.679 190.223,39.294 190.392,38.824 190.548 C 38.200 190.755,37.994 190.900,38.064 191.082 C 38.116 191.220,38.160 191.365,38.160 191.405 C 38.160 191.445,38.428 191.365,38.757 191.228 C 39.340 190.984,39.358 190.989,39.517 191.406 C 39.745 192.005,39.719 192.317,39.442 192.317 C 39.292 192.317,39.235 192.435,39.288 192.636 C 39.403 193.079,39.004 193.284,38.737 192.919 C 38.120 192.074,38.031 192.896,38.581 194.372 C 39.083 195.721,39.102 195.842,38.823 195.915 C 38.609 195.971,38.547 196.100,38.612 196.351 C 38.679 196.605,38.627 196.707,38.433 196.707 C 38.132 196.707,38.093 196.848,38.302 197.178 C 38.378 197.297,38.557 197.349,38.700 197.294 C 38.855 197.235,39.004 197.308,39.067 197.473 C 39.139 197.661,39.070 197.779,38.855 197.835 C 38.640 197.891,38.564 198.023,38.620 198.240 C 38.671 198.432,38.601 198.600,38.446 198.660 C 38.216 198.748,38.221 198.860,38.492 199.646 C 38.769 200.451,38.772 200.548,38.529 200.702 C 38.284 200.856,38.286 200.938,38.548 201.623 C 38.899 202.542,38.901 202.617,38.582 202.617 C 38.263 202.617,38.263 202.810,38.582 203.572 C 38.902 204.339,38.902 204.643,38.582 204.643 C 38.271 204.643,38.265 204.562,38.655 205.572 C 38.835 206.036,39.045 206.403,39.123 206.387 C 39.200 206.371,39.470 206.306,39.723 206.242 C 40.054 206.159,40.210 206.198,40.279 206.380 C 40.335 206.523,40.508 206.598,40.680 206.553 C 40.862 206.505,41.027 206.587,41.092 206.756 C 41.166 206.951,41.096 207.066,40.864 207.126 C 40.610 207.193,40.566 207.281,40.683 207.491 C 40.795 207.691,40.755 207.813,40.536 207.936 C 40.100 208.180,40.905 210.447,41.375 210.298 C 41.616 210.221,41.763 210.458,42.179 211.603 C 42.601 212.760,42.747 212.995,43.027 212.964 C 43.816 212.876,43.859 214.176,43.072 214.348 C 42.479 214.479,42.513 215.127,43.110 215.064 C 43.706 215.002,43.669 215.568,43.067 215.700 C 42.467 215.832,42.348 215.968,42.549 216.292 C 42.666 216.483,42.779 216.489,43.136 216.326 C 43.726 216.058,43.900 216.072,43.900 216.391 C 43.900 216.554,44.014 216.633,44.196 216.595 C 44.380 216.556,44.477 216.400,44.454 216.179 C 44.406 215.711,45.018 215.523,45.135 215.970 C 45.187 216.170,45.108 216.317,44.913 216.378 C 44.721 216.439,44.640 216.587,44.691 216.783 C 44.738 216.964,44.663 217.133,44.510 217.192 C 44.285 217.278,44.333 217.529,44.845 218.943 C 45.557 220.909,45.453 220.782,46.166 220.563 C 46.667 220.410,46.752 220.426,46.822 220.694 C 46.942 221.150,45.932 221.489,45.641 221.090 C 45.386 220.741,44.877 220.900,45.024 221.282 C 45.087 221.445,45.253 221.523,45.436 221.475 C 45.666 221.415,45.790 221.537,45.931 221.964 C 46.074 222.397,46.205 222.524,46.480 222.495 C 46.708 222.471,46.864 222.566,46.903 222.752 C 46.942 222.941,46.862 223.048,46.679 223.048 C 46.477 223.048,46.419 223.146,46.482 223.386 C 46.535 223.589,46.467 223.782,46.311 223.869 C 46.168 223.949,46.088 224.120,46.133 224.249 C 46.178 224.377,46.080 224.559,45.915 224.652 C 45.478 224.899,45.928 225.994,46.405 225.843 C 46.652 225.764,46.755 225.862,46.880 226.295 C 47.007 226.731,47.118 226.836,47.412 226.794 C 48.030 226.706,47.905 227.384,47.277 227.522 C 46.709 227.647,46.697 227.682,46.956 228.425 C 47.103 228.846,47.198 228.924,47.416 228.802 C 47.632 228.681,47.738 228.758,47.906 229.160 C 48.185 229.821,48.178 229.970,47.868 229.970 C 47.551 229.970,47.552 230.001,47.905 230.995 C 48.122 231.607,48.274 231.802,48.511 231.777 C 48.743 231.752,48.905 231.946,49.117 232.503 C 49.341 233.090,49.486 233.255,49.753 233.227 C 50.022 233.199,50.143 233.342,50.304 233.878 C 50.417 234.256,50.550 234.671,50.600 234.800 C 50.654 234.942,50.582 235.036,50.419 235.036 C 50.100 235.036,50.087 235.149,50.327 235.836 C 50.460 236.218,50.587 236.329,50.820 236.267 C 51.073 236.201,51.196 236.356,51.441 237.045 C 51.676 237.707,51.811 237.883,52.030 237.814 C 52.429 237.687,52.623 238.082,52.285 238.330 C 51.891 238.618,52.236 239.662,52.686 239.544 C 52.925 239.482,53.070 239.693,53.401 240.586 C 53.731 241.475,53.883 241.698,54.144 241.671 C 54.414 241.643,54.562 241.894,54.970 243.072 C 55.375 244.244,55.522 244.494,55.766 244.430 C 55.982 244.374,56.132 244.512,56.306 244.927 C 56.526 245.455,56.583 245.489,56.988 245.335 C 57.655 245.081,57.695 245.105,58.019 245.956 C 58.290 246.665,58.294 246.761,58.057 246.910 C 57.657 247.163,58.014 248.251,58.451 248.112 C 58.649 248.049,58.799 248.114,58.868 248.292 C 58.931 248.459,59.097 248.539,59.278 248.491 C 59.516 248.429,59.648 248.592,59.880 249.238 C 60.197 250.120,60.823 250.449,60.741 249.690 C 60.657 248.913,61.210 249.177,61.530 250.068 C 61.773 250.743,61.899 250.903,62.114 250.812 C 62.997 250.438,63.659 250.774,62.889 251.205 C 62.533 251.404,62.746 251.906,63.142 251.803 C 63.390 251.738,63.523 251.917,63.812 252.708 C 64.489 254.557,64.507 254.589,64.832 254.504 C 65.075 254.440,65.197 254.601,65.426 255.289 C 65.661 255.997,65.770 256.137,66.025 256.056 C 66.279 255.975,66.394 256.117,66.643 256.817 C 66.887 257.507,67.011 257.662,67.262 257.596 C 67.470 257.542,67.604 257.620,67.658 257.826 C 67.733 258.115,67.782 258.120,68.333 257.890 C 68.659 257.753,68.944 257.665,68.966 257.694 C 68.988 257.722,69.227 258.377,69.496 259.147 C 69.907 260.319,70.039 260.536,70.301 260.467 C 70.509 260.413,70.643 260.491,70.698 260.698 C 70.773 260.986,70.833 260.993,71.419 260.787 L 72.057 260.561 72.215 261.095 C 72.337 261.506,72.459 261.620,72.742 261.589 C 72.980 261.563,73.111 261.642,73.111 261.811 C 73.111 261.984,73.237 262.055,73.484 262.020 C 73.790 261.977,73.908 262.104,74.140 262.727 C 74.336 263.255,74.519 263.487,74.738 263.487 C 74.911 263.487,75.105 263.614,75.169 263.769 C 75.245 263.954,75.405 264.020,75.633 263.960 C 75.883 263.895,75.981 263.950,75.981 264.154 C 75.981 264.362,76.072 264.409,76.323 264.330 C 76.597 264.243,76.702 264.325,76.847 264.740 C 76.981 265.126,77.132 265.260,77.433 265.260 C 77.689 265.260,77.839 265.357,77.839 265.524 C 77.839 265.708,77.937 265.758,78.162 265.686 C 78.605 265.546,78.808 265.933,78.434 266.206 C 78.062 266.478,78.210 266.952,78.632 266.841 C 78.858 266.782,78.994 266.904,79.142 267.298 C 79.297 267.709,79.423 267.815,79.675 267.749 C 79.901 267.690,80.031 267.763,80.087 267.979 C 80.164 268.274,80.211 268.278,80.765 268.047 L 81.360 267.798 81.556 268.393 C 81.707 268.850,81.823 268.965,82.055 268.891 C 82.245 268.831,82.397 268.899,82.464 269.073 C 82.532 269.250,82.692 269.319,82.906 269.262 C 83.124 269.206,83.242 269.258,83.242 269.412 C 83.242 269.551,83.412 269.650,83.651 269.650 C 83.970 269.650,84.084 269.764,84.174 270.171 C 84.265 270.584,84.358 270.675,84.620 270.607 C 84.816 270.555,84.989 270.618,85.043 270.760 C 85.094 270.892,85.286 271.000,85.470 271.000 C 85.687 271.000,85.872 271.180,85.999 271.516 C 86.143 271.898,86.275 272.010,86.509 271.949 C 86.721 271.894,86.853 271.973,86.909 272.189 C 86.976 272.442,87.060 272.477,87.300 272.348 C 87.559 272.210,87.637 272.278,87.806 272.789 C 87.960 273.255,88.078 273.375,88.321 273.312 C 88.559 273.250,88.686 273.370,88.845 273.808 C 88.981 274.185,89.135 274.355,89.287 274.297 C 90.128 273.974,90.289 274.008,90.477 274.546 C 90.608 274.921,90.752 275.061,90.962 275.018 C 91.170 274.975,91.320 275.114,91.451 275.469 C 91.581 275.825,91.740 275.971,91.968 275.947 C 92.204 275.922,92.356 276.075,92.505 276.487 C 92.655 276.902,92.787 277.034,92.979 276.960 C 93.132 276.901,93.309 276.970,93.393 277.122 C 93.483 277.281,93.674 277.350,93.879 277.297 C 94.121 277.233,94.217 277.291,94.217 277.501 C 94.217 277.713,94.312 277.769,94.565 277.703 C 94.784 277.645,94.949 277.706,95.010 277.865 C 95.066 278.011,95.238 278.085,95.415 278.039 C 95.646 277.978,95.769 278.102,95.913 278.538 C 96.060 278.982,96.176 279.096,96.407 279.022 C 96.597 278.962,96.749 279.030,96.816 279.204 C 96.880 279.371,97.045 279.449,97.233 279.400 C 97.465 279.339,97.595 279.463,97.750 279.895 C 97.925 280.377,98.018 280.451,98.325 280.353 C 99.031 280.128,99.179 280.202,99.445 280.909 C 99.796 281.843,99.809 281.851,100.517 281.556 C 101.390 281.191,101.590 281.233,101.795 281.822 C 101.995 282.396,102.414 282.412,102.394 281.844 C 102.378 281.384,102.938 281.224,103.051 281.656 C 103.178 282.141,104.287 281.651,104.211 281.144 C 104.172 280.886,104.249 280.794,104.506 280.794 C 104.710 280.794,104.854 280.903,104.854 281.058 C 104.854 281.246,104.952 281.292,105.193 281.215 C 105.420 281.144,105.566 281.197,105.635 281.378 C 105.699 281.543,105.854 281.611,106.036 281.553 C 106.219 281.495,106.374 281.563,106.438 281.729 C 106.503 281.901,106.655 281.963,106.854 281.899 C 107.099 281.822,107.203 281.921,107.330 282.352 C 107.457 282.780,107.577 282.895,107.862 282.864 C 108.105 282.837,108.231 282.916,108.231 283.095 C 108.231 283.284,108.335 283.339,108.573 283.276 C 108.840 283.207,108.967 283.312,109.153 283.758 C 109.383 284.308,109.412 284.322,109.931 284.141 C 110.381 283.985,110.495 283.998,110.622 284.224 C 110.706 284.375,110.886 284.451,111.030 284.396 C 111.174 284.340,111.383 284.429,111.506 284.597 C 111.627 284.762,111.809 284.846,111.910 284.784 C 112.011 284.721,112.165 284.797,112.252 284.953 C 112.353 285.132,112.517 285.195,112.701 285.125 C 112.903 285.047,113.017 285.114,113.078 285.348 C 113.147 285.612,113.229 285.648,113.473 285.517 C 113.713 285.389,113.803 285.423,113.882 285.673 C 113.951 285.889,114.090 285.965,114.312 285.907 C 114.568 285.841,114.604 285.756,114.478 285.520 C 114.339 285.260,114.719 284.848,114.907 285.053 C 115.337 285.520,115.583 286.872,115.238 286.872 C 114.956 286.872,114.922 287.018,115.128 287.342 C 115.204 287.461,115.385 287.513,115.532 287.457 C 115.725 287.383,115.856 287.513,116.006 287.926 C 116.148 288.320,116.316 288.495,116.544 288.487 C 116.787 288.479,116.952 288.680,117.159 289.236 C 117.347 289.739,117.543 289.995,117.739 289.995 C 117.902 289.996,118.091 290.085,118.159 290.195 C 118.227 290.304,118.425 290.380,118.599 290.364 C 118.813 290.343,118.976 290.502,119.103 290.857 C 119.223 291.190,119.377 291.350,119.529 291.298 C 119.661 291.253,119.864 291.348,119.982 291.509 C 120.100 291.670,120.283 291.749,120.388 291.684 C 120.494 291.619,120.671 291.691,120.782 291.843 C 120.967 292.096,121.048 292.097,121.721 291.860 C 122.691 291.517,122.690 291.517,122.903 292.127 C 123.046 292.537,123.161 292.634,123.426 292.564 C 123.647 292.507,123.765 292.558,123.765 292.713 C 123.765 292.852,123.935 292.951,124.174 292.951 C 124.493 292.951,124.608 293.065,124.697 293.472 C 124.788 293.885,124.881 293.976,125.143 293.908 C 125.339 293.856,125.512 293.919,125.567 294.061 C 125.617 294.193,125.805 294.301,125.984 294.301 C 126.162 294.301,126.351 294.411,126.402 294.544 C 126.455 294.682,126.608 294.743,126.759 294.685 C 126.908 294.628,127.113 294.708,127.231 294.870 C 127.410 295.115,127.507 295.126,127.901 294.947 C 128.296 294.767,128.391 294.778,128.575 295.029 C 128.692 295.189,128.902 295.277,129.041 295.223 C 129.188 295.167,129.339 295.244,129.401 295.407 C 129.470 295.585,129.612 295.648,129.790 295.580 C 129.944 295.520,130.132 295.569,130.208 295.689 C 130.413 296.013,130.379 296.159,130.097 296.159 C 129.952 296.159,129.844 296.311,129.844 296.516 C 129.844 296.791,129.922 296.853,130.182 296.785 C 130.388 296.731,130.579 296.801,130.670 296.964 C 130.806 297.207,130.891 297.204,131.594 296.936 C 132.532 296.578,132.610 296.618,132.883 297.594 C 133.056 298.211,133.157 298.343,133.400 298.266 C 133.584 298.208,133.764 298.281,133.861 298.453 C 134.009 298.718,134.073 298.716,134.810 298.435 C 135.704 298.094,136.314 298.318,135.708 298.766 C 135.352 299.029,135.488 299.562,135.873 299.414 C 136.021 299.358,136.199 299.432,136.286 299.588 C 136.406 299.802,136.531 299.826,136.867 299.698 C 137.489 299.462,137.548 299.484,137.780 300.042 C 138.026 300.637,137.984 300.629,138.981 300.271 C 139.778 299.986,140.066 299.208,139.283 299.456 C 138.641 299.660,138.397 298.481,139.031 298.240 C 139.740 297.970,139.806 297.975,139.806 298.289 C 139.806 298.484,139.908 298.535,140.162 298.469 C 140.419 298.402,140.542 298.466,140.603 298.698 C 140.669 298.951,140.753 298.986,140.994 298.857 C 141.252 298.719,141.331 298.787,141.500 299.298 C 141.658 299.778,141.766 299.883,142.019 299.804 C 142.195 299.749,142.491 299.658,142.676 299.600 C 142.924 299.524,143.014 299.574,143.014 299.789 C 143.014 300.000,143.110 300.057,143.356 299.992 C 143.623 299.922,143.750 300.029,143.940 300.484 L 144.183 301.065 144.765 300.822 C 145.306 300.596,145.352 300.602,145.431 300.902 C 145.489 301.126,145.604 301.191,145.805 301.114 C 145.986 301.045,146.152 301.105,146.247 301.275 C 146.439 301.618,146.955 301.450,146.817 301.089 C 146.762 300.946,146.815 300.767,146.934 300.691 C 147.258 300.486,147.404 300.520,147.404 300.802 C 147.404 301.099,147.792 301.131,148.273 300.873 C 148.543 300.728,148.658 300.751,148.829 300.985 C 148.958 301.162,149.154 301.237,149.321 301.172 C 149.501 301.103,149.599 301.153,149.599 301.314 C 149.599 301.601,149.905 301.630,150.508 301.401 C 150.861 301.266,150.949 301.295,151.037 301.569 C 151.119 301.829,151.207 301.864,151.449 301.735 C 151.693 301.604,151.775 301.640,151.846 301.912 C 151.931 302.235,151.968 302.240,152.532 302.004 C 153.086 301.773,153.137 301.777,153.227 302.063 C 153.290 302.261,153.436 302.342,153.634 302.291 C 153.812 302.244,153.984 302.317,154.040 302.464 C 154.101 302.623,154.266 302.684,154.485 302.627 C 154.731 302.562,154.833 302.616,154.833 302.809 C 154.833 303.126,154.980 303.146,155.603 302.909 C 155.968 302.770,156.097 302.792,156.264 303.019 C 156.377 303.175,156.559 303.247,156.666 303.181 C 156.777 303.113,156.908 303.181,156.968 303.337 C 157.071 303.605,157.374 303.600,158.110 303.317 C 158.292 303.248,158.379 303.308,158.379 303.504 C 158.379 303.790,158.679 303.786,159.444 303.493 C 159.621 303.425,159.754 303.573,159.892 303.989 C 160.035 304.424,160.159 304.555,160.355 304.480 C 160.509 304.421,160.712 304.499,160.832 304.663 C 161.011 304.908,161.108 304.919,161.502 304.740 C 161.897 304.560,161.992 304.571,162.177 304.824 C 162.381 305.103,162.437 305.100,163.241 304.784 C 164.162 304.421,164.672 304.703,163.996 305.202 C 163.425 305.624,163.987 305.873,164.788 305.553 C 165.646 305.209,165.808 305.207,165.808 305.541 C 165.808 305.726,165.907 305.774,166.134 305.703 C 166.343 305.636,166.515 305.700,166.617 305.882 C 166.704 306.037,166.880 306.129,167.009 306.086 C 167.138 306.042,167.329 306.122,167.433 306.263 C 167.600 306.490,167.746 306.474,168.687 306.131 C 169.685 305.767,169.765 305.761,169.964 306.033 C 170.087 306.201,170.263 306.270,170.382 306.196 C 170.502 306.122,170.682 306.198,170.816 306.381 C 171.177 306.875,171.473 306.460,171.239 305.788 C 171.026 305.178,171.452 304.807,171.751 305.342 C 171.850 305.518,172.029 305.592,172.214 305.533 C 172.457 305.456,172.558 305.588,172.731 306.205 C 172.992 307.136,173.114 307.226,173.759 306.959 C 174.120 306.809,174.233 306.669,174.166 306.456 C 173.973 305.849,174.593 305.922,174.850 306.537 L 175.093 307.119 175.791 306.873 C 176.765 306.530,176.895 306.557,177.102 307.150 C 177.261 307.606,177.243 307.684,176.969 307.756 C 176.754 307.812,176.681 307.943,176.740 308.166 C 176.798 308.391,176.921 308.464,177.130 308.398 C 177.312 308.339,177.494 308.408,177.584 308.570 C 177.719 308.811,177.857 308.795,178.899 308.416 C 179.540 308.184,180.075 308.009,180.089 308.028 C 180.103 308.047,180.190 308.290,180.283 308.569 C 180.408 308.945,180.544 309.065,180.812 309.035 C 181.048 309.009,181.173 309.089,181.173 309.266 C 181.173 309.459,181.277 309.510,181.530 309.444 C 181.783 309.378,181.910 309.441,181.968 309.662 C 182.043 309.949,182.095 309.955,182.619 309.736 C 183.329 309.439,183.369 309.440,183.369 309.751 C 183.369 310.048,183.756 310.080,184.238 309.822 C 184.509 309.677,184.623 309.701,184.799 309.942 C 184.992 310.206,185.080 310.217,185.496 310.027 C 185.908 309.840,186.000 309.849,186.181 310.096 C 186.353 310.332,186.479 310.350,186.902 310.203 C 187.320 310.057,187.442 310.073,187.564 310.289 C 187.645 310.435,187.817 310.519,187.946 310.476 C 188.075 310.432,188.264 310.510,188.366 310.648 C 188.517 310.854,188.651 310.865,189.100 310.708 C 189.586 310.539,189.659 310.553,189.733 310.836 C 189.810 311.131,189.860 311.138,190.386 310.918 C 191.102 310.619,191.136 310.620,191.136 310.953 C 191.136 311.147,191.238 311.199,191.492 311.132 C 191.746 311.066,191.872 311.129,191.930 311.353 C 192.006 311.642,192.063 311.648,192.671 311.434 C 193.242 311.232,193.331 311.234,193.331 311.447 C 193.331 311.731,193.638 311.760,194.234 311.533 C 194.559 311.410,194.675 311.433,194.753 311.637 C 194.814 311.796,194.981 311.867,195.175 311.816 C 195.389 311.760,195.523 311.834,195.577 312.039 C 195.634 312.256,195.761 312.319,196.013 312.253 C 196.274 312.185,196.370 312.238,196.370 312.451 C 196.370 312.648,196.457 312.709,196.639 312.639 C 197.360 312.362,197.678 312.352,197.774 312.603 C 197.857 312.819,197.965 312.831,198.421 312.672 C 198.875 312.514,198.996 312.526,199.133 312.743 C 199.267 312.954,199.397 312.971,199.802 312.830 C 200.201 312.691,200.343 312.707,200.490 312.908 C 200.615 313.079,200.786 313.119,201.013 313.030 C 201.551 312.820,201.942 312.855,201.942 313.112 C 201.942 313.268,202.060 313.319,202.284 313.260 C 202.521 313.198,202.597 313.078,202.531 312.868 C 202.395 312.441,202.790 312.252,203.057 312.617 C 203.180 312.785,203.389 312.874,203.533 312.818 C 203.677 312.763,203.857 312.839,203.943 312.992 C 204.031 313.150,204.207 313.222,204.360 313.163 C 204.531 313.097,204.662 313.175,204.727 313.378 C 204.818 313.665,204.879 313.674,205.369 313.474 C 206.458 313.028,206.669 313.001,206.669 313.305 C 206.669 313.511,206.767 313.564,207.026 313.496 C 207.282 313.429,207.406 313.494,207.466 313.724 C 207.545 314.025,207.590 314.029,208.144 313.798 C 208.873 313.493,208.864 313.493,208.864 313.803 C 208.864 314.075,209.246 314.115,209.793 313.901 C 210.020 313.812,210.191 313.852,210.316 314.023 C 210.466 314.228,210.602 314.241,211.031 314.092 C 211.469 313.939,211.586 313.954,211.711 314.177 C 211.798 314.332,211.974 314.403,212.127 314.345 C 212.296 314.280,212.429 314.355,212.490 314.549 C 212.582 314.839,212.649 314.833,213.718 314.446 C 214.736 314.076,214.867 314.062,215.043 314.303 C 215.199 314.515,215.333 314.535,215.693 314.398 C 216.315 314.161,216.463 314.180,216.463 314.497 C 216.463 314.676,216.554 314.733,216.732 314.665 C 217.456 314.387,217.771 314.378,217.869 314.632 C 218.011 315.003,218.525 314.775,218.404 314.394 C 218.327 314.151,218.776 313.732,218.906 313.926 C 218.923 313.951,219.033 314.214,219.151 314.510 C 219.380 315.086,219.937 315.122,219.787 314.551 C 219.680 314.141,220.166 313.976,220.428 314.334 C 220.551 314.503,220.748 314.575,220.913 314.511 C 221.093 314.442,221.190 314.492,221.190 314.653 C 221.190 314.805,221.354 314.901,221.612 314.901 C 221.875 314.901,222.035 314.996,222.035 315.154 C 222.035 315.464,222.026 315.464,222.756 315.159 C 223.310 314.928,223.354 314.933,223.433 315.233 C 223.493 315.464,223.617 315.528,223.873 315.461 C 224.132 315.394,224.230 315.446,224.230 315.652 C 224.230 315.958,224.440 315.929,225.554 315.473 C 226.077 315.260,226.126 315.267,226.206 315.573 C 226.287 315.881,226.331 315.887,226.872 315.661 C 227.379 315.449,227.465 315.450,227.548 315.666 C 227.700 316.062,228.285 315.978,228.238 315.566 C 228.178 315.053,229.231 314.602,229.381 315.076 C 229.480 315.385,229.525 315.382,230.610 314.973 C 231.620 314.593,231.758 314.576,231.931 314.814 C 232.103 315.049,232.305 315.013,233.769 314.483 C 235.646 313.804,235.711 313.793,235.711 314.152 C 235.711 314.435,235.943 314.401,237.012 313.964 C 237.503 313.763,237.563 313.772,237.655 314.064 C 237.755 314.379,237.773 314.379,238.619 314.058 C 239.422 313.753,239.496 313.750,239.688 314.013 C 239.867 314.258,239.960 314.267,240.371 314.080 C 240.783 313.892,240.876 313.901,241.055 314.146 C 241.169 314.302,241.362 314.396,241.484 314.355 C 241.606 314.314,241.788 314.392,241.889 314.529 C 242.178 314.922,243.073 314.564,243.003 314.083 C 242.915 313.471,243.595 313.604,243.732 314.225 C 243.860 314.811,243.877 314.815,244.829 314.479 C 245.724 314.163,245.842 314.163,245.842 314.479 C 245.842 314.782,245.823 314.780,246.506 314.542 C 246.909 314.401,247.031 314.271,246.972 314.046 C 246.865 313.635,247.349 313.468,247.611 313.826 C 247.866 314.175,248.267 313.969,248.156 313.546 C 248.105 313.351,248.186 313.213,248.381 313.162 C 248.588 313.108,248.716 313.197,248.782 313.443 C 249.003 314.271,249.074 314.277,250.825 313.621 C 252.371 313.042,252.498 313.019,252.698 313.292 C 252.821 313.461,252.998 313.530,253.117 313.457 C 253.235 313.383,253.410 313.449,253.529 313.612 C 253.720 313.872,253.846 313.854,255.129 313.381 C 256.377 312.921,256.542 312.895,256.717 313.135 C 256.893 313.376,257.024 313.362,258.043 312.992 C 259.108 312.605,259.178 312.599,259.269 312.887 C 259.360 313.173,259.433 313.166,260.491 312.768 C 261.487 312.393,261.638 312.374,261.806 312.603 C 262.100 313.006,263.740 312.454,263.690 311.969 C 263.643 311.502,265.210 310.859,265.371 311.280 C 265.429 311.430,265.337 311.639,265.154 311.774 C 264.913 311.952,264.884 312.055,265.034 312.207 C 265.284 312.460,265.597 312.273,265.597 311.870 C 265.597 311.430,266.062 311.296,266.190 311.699 C 266.287 312.002,266.335 312.009,266.867 311.787 C 267.392 311.567,267.447 311.573,267.537 311.856 C 267.673 312.283,268.290 312.119,268.177 311.686 C 268.052 311.207,269.171 310.760,269.350 311.217 C 269.463 311.507,269.519 311.513,270.049 311.291 C 270.576 311.071,270.638 311.076,270.771 311.355 C 270.978 311.790,273.286 310.972,273.099 310.530 C 272.768 309.750,272.820 309.566,273.417 309.383 C 273.986 309.208,274.008 309.219,274.154 309.730 C 274.238 310.020,274.417 310.257,274.553 310.257 C 274.788 310.257,274.814 310.060,274.684 309.251 C 274.588 308.654,275.133 308.764,275.358 309.386 L 275.566 309.961 277.871 309.118 C 279.911 308.372,280.199 308.305,280.370 308.538 C 280.669 308.947,282.144 308.389,282.144 307.866 C 282.144 307.455,283.169 307.084,283.291 307.450 C 283.326 307.555,283.507 307.640,283.693 307.640 C 283.915 307.640,284.098 307.817,284.226 308.156 C 284.367 308.531,284.504 308.650,284.728 308.591 C 284.918 308.541,285.080 308.625,285.152 308.810 C 285.322 309.247,291.766 306.907,291.647 306.451 C 291.536 306.027,291.946 305.841,292.206 306.197 C 292.325 306.360,292.522 306.460,292.644 306.419 C 292.766 306.378,292.949 306.456,293.050 306.593 C 293.324 306.966,294.234 306.631,294.170 306.180 C 294.100 305.694,296.237 304.927,296.547 305.327 C 296.850 305.719,301.967 303.862,301.847 303.404 C 301.803 303.236,301.878 303.061,302.016 303.008 C 302.375 302.871,302.363 302.860,302.569 303.486 C 302.780 304.125,303.462 304.209,303.296 303.576 C 303.246 303.385,303.315 303.215,303.466 303.157 C 303.607 303.103,303.685 302.929,303.643 302.765 C 303.591 302.568,303.712 302.404,304.007 302.269 C 304.649 301.977,304.724 302.008,304.936 302.650 C 305.140 303.268,305.614 303.327,305.614 302.734 C 305.614 302.563,305.709 302.362,305.825 302.288 C 305.941 302.214,306.036 302.012,306.036 301.840 C 306.036 301.350,308.654 300.427,308.938 300.816 C 309.048 300.967,309.238 301.057,309.360 301.016 C 309.482 300.975,309.665 301.054,309.767 301.192 C 310.013 301.525,312.258 300.776,312.116 300.407 C 311.794 299.568,311.830 299.411,312.382 299.218 C 312.683 299.113,312.944 299.047,312.962 299.071 C 312.980 299.094,313.132 299.480,313.300 299.928 C 313.545 300.581,313.667 300.723,313.915 300.646 C 314.086 300.592,314.377 300.502,314.563 300.445 C 314.811 300.368,314.901 300.418,314.901 300.632 C 314.901 300.934,315.640 300.879,315.975 300.552 C 316.250 300.283,315.599 298.717,315.250 298.808 C 314.817 298.922,314.635 298.546,314.996 298.282 C 315.167 298.158,315.250 297.953,315.192 297.801 C 315.048 297.424,315.573 297.271,315.825 297.617 C 315.995 297.849,316.121 297.867,316.549 297.718 C 317.216 297.485,317.755 298.377,317.195 298.786 C 316.998 298.930,316.945 299.086,317.038 299.245 C 317.261 299.624,319.505 298.762,319.373 298.348 C 319.238 297.921,320.298 297.548,320.574 297.926 C 320.854 298.309,321.876 297.941,321.738 297.506 C 321.660 297.259,321.826 297.133,322.619 296.843 C 324.429 296.181,324.543 296.120,324.487 295.840 C 324.453 295.672,324.296 295.587,324.077 295.617 C 323.882 295.644,323.680 295.555,323.628 295.420 C 323.495 295.074,324.021 294.915,324.252 295.231 C 324.542 295.628,326.111 295.079,325.992 294.623 C 325.930 294.388,326.053 294.259,326.489 294.102 C 326.906 293.951,327.054 293.803,327.020 293.572 C 326.983 293.317,327.203 293.166,328.094 292.835 C 329.000 292.499,329.199 292.361,329.134 292.112 C 329.073 291.879,329.200 291.756,329.661 291.604 C 330.152 291.442,330.238 291.351,330.112 291.126 C 329.989 290.907,330.064 290.803,330.468 290.633 C 331.135 290.353,331.279 290.362,331.279 290.684 C 331.279 290.847,331.392 290.926,331.575 290.888 C 331.760 290.850,331.850 290.704,331.817 290.496 C 331.671 289.586,331.693 289.543,332.461 289.255 C 333.046 289.035,333.210 288.893,333.175 288.636 C 333.137 288.362,333.335 288.232,334.284 287.909 C 335.210 287.593,335.437 287.448,335.427 287.175 C 335.418 286.909,335.636 286.756,336.429 286.470 C 337.465 286.096,337.598 285.893,337.287 285.166 C 337.106 284.741,338.168 284.341,338.451 284.727 C 338.742 285.125,339.721 284.762,339.671 284.274 C 339.646 284.031,339.783 283.896,340.171 283.781 L 340.705 283.624 340.480 282.985 C 340.273 282.399,340.280 282.339,340.568 282.264 C 340.791 282.205,340.855 282.079,340.788 281.825 C 340.677 281.398,341.141 281.321,341.370 281.729 C 341.623 282.181,342.095 281.855,341.907 281.359 C 341.656 280.700,341.712 280.544,342.268 280.333 C 342.670 280.182,342.766 280.063,342.687 279.815 C 342.606 279.560,342.700 279.460,343.137 279.333 C 343.564 279.209,343.678 279.093,343.639 278.817 C 343.600 278.539,343.703 278.435,344.103 278.347 C 344.498 278.260,344.618 278.142,344.618 277.839 C 344.618 277.622,344.713 277.413,344.828 277.375 C 344.944 277.336,345.039 277.161,345.039 276.986 C 345.040 276.764,345.269 276.581,345.800 276.382 C 346.365 276.170,346.551 276.014,346.525 275.775 C 346.501 275.548,346.658 275.392,347.057 275.248 C 347.480 275.095,347.603 274.965,347.542 274.734 C 347.495 274.554,347.568 274.383,347.715 274.327 C 347.875 274.265,347.935 274.100,347.878 273.881 C 347.812 273.629,347.867 273.533,348.078 273.533 C 348.275 273.533,348.335 273.446,348.266 273.264 C 347.927 272.381,347.957 272.228,348.512 272.035 C 348.968 271.876,349.089 271.891,349.260 272.124 C 349.498 272.450,349.922 272.270,349.781 271.903 C 349.718 271.737,349.884 271.575,350.291 271.405 C 350.752 271.212,350.867 271.084,350.778 270.865 C 350.714 270.707,350.523 270.183,350.354 269.701 L 350.046 268.824 350.631 268.630 C 351.079 268.482,351.194 268.367,351.120 268.135 C 351.061 267.947,351.127 267.793,351.294 267.729 C 351.470 267.661,351.528 267.512,351.461 267.302 C 351.380 267.044,351.479 266.939,351.948 266.784 C 352.487 266.606,352.524 266.553,352.377 266.167 C 352.145 265.556,352.179 265.260,352.481 265.260 C 352.669 265.260,352.714 265.162,352.638 264.921 C 352.566 264.694,352.620 264.548,352.800 264.479 C 352.968 264.415,353.034 264.261,352.974 264.073 C 352.901 263.841,353.015 263.726,353.458 263.579 C 353.895 263.435,354.018 263.312,353.958 263.081 C 353.909 262.896,353.988 262.731,354.156 262.667 C 354.332 262.599,354.399 262.447,354.338 262.255 C 354.264 262.023,354.379 261.901,354.821 261.741 L 355.401 261.531 355.160 260.954 L 354.919 260.377 355.762 260.077 C 356.641 259.765,356.711 259.649,356.447 258.953 C 356.326 258.635,356.347 258.512,356.531 258.441 C 356.665 258.390,356.775 258.223,356.775 258.071 C 356.775 257.799,356.463 257.806,355.713 258.093 C 355.311 258.247,354.987 257.138,355.356 256.869 C 355.510 256.757,355.592 256.552,355.539 256.413 C 355.471 256.237,355.620 256.103,356.036 255.966 C 356.460 255.826,356.601 255.697,356.530 255.512 C 356.476 255.371,356.552 255.166,356.700 255.058 C 356.945 254.879,356.939 254.782,356.640 253.996 C 356.325 253.167,356.324 253.127,356.617 253.051 C 356.826 252.996,356.894 252.865,356.833 252.631 C 356.762 252.360,356.849 252.269,357.266 252.177 C 357.674 252.088,357.788 251.973,357.788 251.654 C 357.788 251.395,357.885 251.245,358.053 251.245 C 358.241 251.245,358.286 251.147,358.210 250.907 C 358.138 250.679,358.192 250.534,358.377 250.463 C 358.535 250.402,358.611 250.250,358.555 250.105 C 358.501 249.965,358.577 249.764,358.724 249.657 C 358.942 249.497,358.956 249.373,358.801 248.966 C 358.646 248.558,358.660 248.434,358.879 248.275 C 359.025 248.168,359.101 247.966,359.048 247.827 C 358.993 247.684,359.065 247.530,359.214 247.473 C 359.645 247.308,359.529 246.855,359.054 246.855 C 358.451 246.855,358.515 246.372,359.147 246.152 C 359.738 245.946,359.787 245.388,359.207 245.468 C 358.941 245.504,358.819 245.378,358.678 244.919 C 358.529 244.432,358.539 244.322,358.733 244.322 C 358.873 244.322,358.970 244.151,358.970 243.900 C 358.970 243.630,359.065 243.478,359.235 243.478 C 359.425 243.478,359.468 243.381,359.389 243.131 C 359.301 242.853,359.382 242.746,359.800 242.588 C 360.165 242.450,360.321 242.280,360.321 242.019 C 360.321 241.744,360.452 241.619,360.827 241.537 C 361.386 241.414,361.413 241.344,361.161 240.682 C 361.024 240.322,361.044 240.188,361.256 240.033 C 361.475 239.873,361.489 239.749,361.334 239.341 C 361.178 238.932,361.193 238.810,361.415 238.648 C 361.660 238.468,361.656 238.375,361.362 237.602 C 361.046 236.769,361.046 236.751,361.359 236.669 C 361.670 236.587,361.670 236.564,361.337 235.720 C 360.946 234.728,360.941 234.698,361.154 234.698 C 361.241 234.698,361.501 234.626,361.732 234.538 L 362.153 234.378 361.877 233.515 C 361.588 232.611,361.900 231.831,362.213 232.676 C 362.292 232.890,362.429 232.968,362.606 232.900 C 362.870 232.798,362.864 232.492,362.583 231.759 C 362.514 231.579,362.573 231.490,362.763 231.490 C 362.944 231.490,363.025 231.383,362.986 231.195 C 362.946 231.004,362.791 230.913,362.551 230.939 C 361.951 231.004,362.068 230.380,362.697 230.160 C 363.113 230.015,363.195 229.911,363.108 229.637 C 363.031 229.393,363.075 229.295,363.264 229.295 C 363.416 229.295,363.529 229.151,363.529 228.957 C 363.529 228.553,363.417 228.542,362.626 228.873 C 362.293 229.012,361.904 229.126,361.761 229.126 C 361.423 229.126,361.426 228.638,361.766 228.508 C 361.915 228.451,361.987 228.298,361.932 228.154 C 361.878 228.015,361.952 227.815,362.096 227.710 C 362.477 227.432,362.123 226.427,361.685 226.541 C 361.285 226.646,361.090 226.146,361.451 225.943 C 361.608 225.856,361.681 225.679,361.622 225.527 C 361.549 225.335,361.683 225.209,362.114 225.067 C 362.529 224.930,362.679 224.796,362.612 224.621 C 362.559 224.483,362.516 224.346,362.516 224.316 C 362.516 224.286,362.374 224.298,362.201 224.343 C 362.008 224.394,361.845 224.317,361.779 224.143 C 361.704 223.949,361.774 223.833,362.003 223.774 C 362.316 223.692,362.321 223.651,362.088 223.093 C 361.784 222.364,361.784 222.372,362.094 222.372 C 362.251 222.372,362.347 222.213,362.347 221.950 C 362.347 221.700,362.444 221.528,362.584 221.528 C 362.780 221.528,362.788 221.418,362.631 220.907 C 362.485 220.429,362.488 220.271,362.647 220.218 C 362.761 220.180,362.854 219.966,362.854 219.741 C 362.854 219.491,362.952 219.333,363.107 219.333 C 363.425 219.333,363.426 219.344,363.029 218.336 C 362.699 217.500,362.699 217.494,363.028 217.389 C 363.286 217.308,363.324 217.217,363.198 216.983 C 363.060 216.723,363.163 216.639,363.944 216.373 L 364.851 216.065 364.334 214.617 C 364.049 213.821,363.804 213.152,363.788 213.131 C 363.642 212.928,362.680 213.557,362.747 213.812 C 362.846 214.192,362.372 214.411,362.164 214.081 C 362.066 213.925,362.107 213.777,362.287 213.643 C 362.436 213.531,362.515 213.326,362.461 213.187 C 362.401 213.030,362.487 212.895,362.687 212.832 C 363.004 212.731,363.004 212.713,362.673 211.875 C 362.370 211.106,362.363 211.001,362.600 210.827 C 362.985 210.546,362.631 209.541,362.189 209.657 C 361.724 209.779,361.194 208.202,361.600 207.905 C 361.751 207.795,361.821 207.619,361.756 207.514 C 361.691 207.408,361.764 207.230,361.918 207.117 C 362.321 206.823,361.406 204.221,360.899 204.221 C 360.435 204.221,360.088 203.288,360.447 203.004 C 360.724 202.784,360.749 202.866,358.721 197.359 C 358.062 195.573,357.885 195.238,357.629 195.305 C 357.377 195.371,356.944 194.703,356.944 194.247 C 356.944 194.222,357.202 194.116,357.517 194.012 C 358.077 193.827,358.086 193.810,357.910 193.237 C 357.769 192.777,357.663 192.672,357.418 192.750 C 357.179 192.826,357.048 192.712,356.860 192.260 C 356.678 191.824,356.534 191.693,356.304 191.753 C 356.067 191.815,355.951 191.693,355.810 191.231 C 355.658 190.739,355.668 190.629,355.862 190.629 C 356.139 190.629,356.165 190.317,355.939 189.722 C 355.792 189.335,355.829 189.282,356.373 189.103 C 356.788 188.966,356.938 188.831,356.871 188.656 C 356.818 188.519,356.775 188.382,356.775 188.352 C 356.775 188.321,356.633 188.334,356.459 188.379 C 356.222 188.441,356.097 188.330,355.961 187.941 C 355.752 187.343,355.713 187.334,354.749 187.674 C 354.354 187.813,354.010 187.927,353.984 187.927 C 353.942 187.927,353.567 186.929,353.567 186.818 C 353.567 186.792,353.825 186.687,354.140 186.582 C 354.578 186.438,354.694 186.319,354.631 186.077 C 354.556 185.790,354.492 185.781,353.931 185.976 L 353.314 186.190 352.695 184.484 C 352.151 182.985,352.107 182.753,352.333 182.577 C 352.700 182.290,352.393 181.423,351.929 181.437 C 351.642 181.446,351.405 180.934,350.329 177.976 C 349.181 174.821,349.032 174.509,348.699 174.557 C 348.424 174.596,348.333 174.522,348.333 174.261 C 348.333 174.064,348.443 173.913,348.586 173.913 C 348.872 173.913,348.902 173.767,348.687 173.427 C 348.601 173.292,348.450 173.250,348.326 173.326 C 348.197 173.406,348.027 173.341,347.896 173.162 C 347.635 172.806,347.258 172.984,347.370 173.411 C 347.421 173.606,347.339 173.744,347.142 173.795 C 346.925 173.852,346.862 173.980,346.928 174.232 C 347.081 174.817,346.479 174.675,346.251 174.073 C 346.110 173.698,345.973 173.579,345.749 173.638 C 345.341 173.744,345.174 173.278,345.527 173.018 C 345.902 172.744,345.536 171.647,345.128 171.821 C 344.265 172.188,344.168 172.130,343.795 171.026 C 343.368 169.762,343.362 169.692,343.689 169.692 C 343.992 169.692,343.991 169.711,343.752 169.028 C 343.610 168.620,343.483 168.502,343.251 168.563 C 342.805 168.680,342.146 166.987,342.548 166.758 C 342.726 166.656,342.856 166.695,342.961 166.884 C 343.118 167.165,343.605 167.270,343.605 167.023 C 343.605 166.612,342.869 164.796,342.703 164.798 C 342.145 164.804,341.748 165.030,341.748 165.341 C 341.748 165.599,341.830 165.657,342.096 165.588 C 342.510 165.479,342.761 165.937,342.407 166.156 C 342.278 166.236,342.172 166.436,342.171 166.601 C 342.168 167.271,341.649 166.999,341.351 166.170 C 341.114 165.514,340.987 165.356,340.742 165.420 C 340.507 165.481,340.385 165.356,340.233 164.896 C 340.063 164.380,339.988 164.315,339.721 164.458 C 339.327 164.669,339.156 164.135,339.527 163.852 C 339.925 163.549,339.306 161.864,338.881 162.092 C 338.482 162.305,338.222 161.768,338.617 161.547 C 339.017 161.323,338.932 160.912,338.486 160.912 C 338.157 160.912,338.034 160.737,337.703 159.801 C 337.376 158.874,337.259 158.706,336.997 158.788 C 336.824 158.841,336.545 158.929,336.376 158.981 C 335.949 159.115,335.582 158.010,335.972 157.764 C 336.378 157.508,336.008 156.589,335.527 156.659 C 335.281 156.695,335.163 156.622,335.163 156.436 C 335.163 156.262,335.053 156.182,334.867 156.221 C 334.688 156.258,334.585 156.416,334.606 156.621 C 334.649 157.047,333.663 157.498,333.443 157.153 C 333.264 156.871,333.272 156.691,333.463 156.691 C 333.944 156.691,334.473 156.344,334.377 156.092 C 334.277 155.834,333.967 155.837,333.277 156.101 C 333.123 156.161,332.949 155.908,332.742 155.326 C 332.497 154.635,332.373 154.479,332.121 154.545 C 331.938 154.593,331.767 154.522,331.710 154.373 C 331.652 154.222,331.482 154.154,331.292 154.204 C 331.078 154.259,330.944 154.185,330.890 153.980 C 330.837 153.779,330.702 153.701,330.496 153.755 C 330.238 153.822,330.110 153.635,329.782 152.718 C 329.361 151.541,329.323 151.518,328.362 151.887 C 328.209 151.946,328.082 151.856,328.028 151.649 C 327.968 151.420,328.040 151.291,328.260 151.233 C 328.474 151.177,328.544 151.059,328.472 150.871 C 328.411 150.713,328.258 150.634,328.118 150.688 C 327.251 151.020,327.093 150.988,326.977 150.457 C 326.888 150.057,326.771 149.937,326.467 149.937 C 326.144 149.937,326.022 149.786,325.797 149.110 C 325.579 148.453,325.459 148.300,325.213 148.365 C 324.961 148.431,324.829 148.238,324.503 147.323 C 324.087 146.155,324.005 146.103,323.149 146.465 C 322.928 146.558,322.812 146.405,322.584 145.718 C 322.283 144.813,321.677 144.523,321.792 145.340 C 321.828 145.597,321.757 145.715,321.569 145.715 C 321.396 145.715,321.314 145.826,321.351 146.011 C 321.390 146.208,321.535 146.289,321.786 146.254 C 322.070 146.214,322.161 146.286,322.161 146.549 C 322.161 146.943,321.739 147.024,321.599 146.657 C 321.544 146.516,321.371 146.452,321.177 146.503 C 320.913 146.572,320.804 146.459,320.637 145.942 C 320.521 145.585,320.283 144.926,320.109 144.476 C 319.796 143.675,319.797 143.658,320.112 143.575 C 320.333 143.518,320.407 143.388,320.348 143.163 C 320.287 142.929,320.169 142.865,319.936 142.939 C 319.683 143.019,319.566 142.926,319.413 142.522 C 319.289 142.193,319.099 142.001,318.898 142.001 C 318.676 142.001,318.611 142.082,318.683 142.270 C 319.023 143.156,318.991 143.305,318.426 143.502 C 317.964 143.664,317.848 143.652,317.725 143.432 C 317.632 143.266,317.456 143.206,317.252 143.271 C 317.026 143.343,316.927 143.294,316.927 143.110 C 316.927 142.943,316.777 142.845,316.525 142.845 C 316.250 142.845,316.090 142.724,316.020 142.465 C 315.863 141.879,315.894 141.663,316.135 141.663 C 316.690 141.663,316.945 141.260,316.748 140.695 L 316.559 140.152 315.976 140.395 C 315.331 140.665,314.876 140.276,315.456 139.951 C 315.693 139.818,315.608 139.026,315.316 138.656 C 315.293 138.628,315.008 138.716,314.682 138.852 C 314.127 139.084,314.083 139.079,314.003 138.777 C 313.947 138.561,313.828 138.489,313.645 138.559 C 313.478 138.623,313.407 138.778,313.464 138.958 C 313.609 139.413,311.832 140.074,311.661 139.628 C 311.582 139.423,311.432 139.355,311.196 139.417 C 310.952 139.480,310.848 139.427,310.848 139.237 C 310.848 139.057,310.722 138.979,310.475 139.006 C 309.861 139.072,309.885 138.508,310.501 138.373 C 310.903 138.284,311.017 138.169,311.017 137.851 C 311.017 137.601,311.115 137.442,311.269 137.442 C 311.425 137.442,311.505 137.306,311.480 137.081 C 311.415 136.500,311.856 136.505,312.076 137.087 C 312.305 137.694,312.979 137.861,312.826 137.273 C 312.772 137.068,312.841 136.876,313.001 136.787 C 313.152 136.703,313.221 136.526,313.163 136.374 C 313.098 136.205,313.173 136.073,313.369 136.011 C 313.665 135.917,313.664 135.879,313.346 135.015 L 313.015 134.118 311.594 134.634 C 310.377 135.076,310.173 135.206,310.173 135.536 C 310.173 135.760,310.071 135.922,309.930 135.922 C 309.536 135.922,309.422 135.551,309.743 135.316 C 309.906 135.197,310.006 135.000,309.965 134.878 C 309.924 134.756,310.002 134.573,310.139 134.472 C 310.359 134.311,310.359 134.200,310.140 133.544 C 309.865 132.717,309.329 132.413,309.329 133.083 C 309.329 133.413,309.158 133.538,308.274 133.855 C 307.024 134.304,306.965 134.309,306.965 133.981 C 306.965 133.676,306.785 133.663,306.210 133.925 C 305.841 134.093,305.742 134.074,305.538 133.798 C 305.173 133.304,304.805 133.723,305.078 134.322 C 305.343 134.902,305.357 134.871,304.687 135.151 C 304.269 135.325,304.127 135.474,304.199 135.660 C 304.270 135.845,304.133 135.994,303.735 136.161 L 303.170 136.398 302.830 135.517 L 302.491 134.636 301.929 134.800 C 301.502 134.926,301.388 135.039,301.450 135.277 C 301.499 135.467,301.412 135.653,301.228 135.752 C 300.990 135.879,300.905 135.844,300.839 135.592 C 300.779 135.359,300.655 135.295,300.399 135.362 C 300.140 135.430,300.042 135.377,300.042 135.171 C 300.042 134.967,299.950 134.916,299.717 134.990 C 299.508 135.056,299.336 134.992,299.234 134.810 C 299.147 134.655,298.970 134.563,298.841 134.607 C 298.712 134.650,298.524 134.572,298.422 134.434 C 298.270 134.229,298.137 134.218,297.688 134.374 C 297.197 134.545,297.129 134.530,297.052 134.235 C 296.984 133.974,296.901 133.939,296.658 134.069 C 296.416 134.198,296.328 134.163,296.246 133.905 C 296.178 133.692,296.048 133.612,295.876 133.678 C 295.724 133.736,295.547 133.667,295.463 133.516 C 295.374 133.356,295.182 133.287,294.977 133.341 C 294.742 133.402,294.639 133.346,294.639 133.156 C 294.639 132.830,294.468 132.815,293.871 133.086 C 293.490 133.260,293.401 133.247,293.260 132.995 C 293.152 132.802,292.982 132.735,292.769 132.803 C 292.536 132.877,292.444 132.825,292.444 132.621 C 292.444 132.415,292.346 132.363,292.088 132.430 C 291.836 132.496,291.708 132.434,291.651 132.216 C 291.598 132.012,291.463 131.937,291.250 131.993 C 291.059 132.043,290.889 131.974,290.831 131.823 C 290.775 131.678,290.603 131.604,290.428 131.649 C 290.203 131.708,290.073 131.587,289.935 131.189 C 289.788 130.769,289.671 130.667,289.412 130.735 C 289.188 130.794,289.047 130.722,288.981 130.514 C 288.891 130.231,288.836 130.225,288.310 130.444 C 287.779 130.666,287.730 130.660,287.634 130.357 C 287.567 130.146,287.436 130.066,287.265 130.132 C 287.111 130.191,286.935 130.119,286.847 129.961 C 286.761 129.809,286.582 129.732,286.437 129.788 C 286.294 129.843,286.085 129.755,285.964 129.590 C 285.788 129.350,285.681 129.330,285.392 129.485 C 284.847 129.777,284.716 129.721,284.492 129.104 C 284.286 128.533,284.285 128.533,283.718 128.770 C 283.214 128.981,283.138 128.977,283.046 128.738 C 282.946 128.476,282.637 128.483,281.907 128.764 C 281.729 128.832,281.638 128.774,281.638 128.596 C 281.638 128.419,281.491 128.324,281.216 128.324 C 280.957 128.324,280.794 128.228,280.794 128.076 C 280.794 127.915,280.696 127.866,280.516 127.935 C 280.348 127.999,280.152 127.923,280.021 127.744 C 279.901 127.580,279.717 127.499,279.612 127.564 C 279.506 127.629,279.328 127.557,279.215 127.402 C 279.045 127.170,278.927 127.154,278.514 127.311 C 278.101 127.468,277.983 127.453,277.813 127.220 C 277.700 127.066,277.522 126.993,277.417 127.058 C 277.311 127.123,277.133 127.050,277.020 126.896 C 276.850 126.663,276.732 126.648,276.319 126.805 C 275.906 126.961,275.788 126.946,275.618 126.713 C 275.505 126.559,275.327 126.486,275.222 126.551 C 275.116 126.616,274.933 126.536,274.814 126.374 C 274.631 126.123,274.516 126.107,274.058 126.266 C 273.610 126.423,273.501 126.410,273.418 126.195 C 273.322 125.944,273.003 125.954,272.282 126.231 C 272.101 126.301,272.014 126.240,272.014 126.043 C 272.014 125.830,271.918 125.777,271.657 125.845 C 271.404 125.912,271.277 125.848,271.219 125.627 C 271.144 125.341,271.092 125.335,270.568 125.553 C 269.858 125.850,269.818 125.849,269.818 125.538 C 269.818 125.239,269.430 125.210,268.938 125.473 C 268.657 125.624,268.557 125.607,268.435 125.389 C 268.351 125.239,268.140 125.116,267.967 125.116 C 267.793 125.116,267.621 125.023,267.583 124.910 C 267.530 124.751,267.372 124.747,266.893 124.894 C 266.382 125.051,266.273 125.043,266.273 124.847 C 266.273 124.570,265.960 124.544,265.364 124.771 C 265.014 124.904,264.922 124.877,264.839 124.614 C 264.745 124.317,264.697 124.312,264.141 124.545 C 263.579 124.779,263.539 124.775,263.457 124.464 C 263.377 124.157,263.331 124.150,262.801 124.371 C 262.091 124.668,262.051 124.668,262.051 124.356 C 262.051 124.058,261.897 124.042,261.282 124.276 C 260.914 124.416,260.787 124.393,260.614 124.156 C 260.430 123.904,260.335 123.893,259.940 124.073 C 259.544 124.253,259.449 124.241,259.264 123.988 C 259.077 123.732,258.987 123.722,258.573 123.911 C 258.161 124.099,258.069 124.089,257.889 123.842 C 257.713 123.602,257.594 123.587,257.139 123.746 C 256.461 123.982,256.480 123.984,256.480 123.681 C 256.480 123.383,256.325 123.366,255.710 123.600 C 255.351 123.737,255.215 123.718,255.063 123.509 C 254.889 123.271,254.799 123.271,254.134 123.506 C 253.214 123.830,253.103 123.830,253.103 123.501 C 253.103 123.316,253.004 123.267,252.777 123.339 C 252.572 123.404,252.397 123.344,252.302 123.174 C 252.181 122.957,252.062 122.940,251.688 123.082 C 251.062 123.320,250.908 123.305,250.908 123.005 C 250.908 122.866,250.879 122.752,250.844 122.752 C 250.810 122.752,250.458 122.866,250.063 123.005 C 249.169 123.321,248.881 123.325,248.881 123.021 C 248.881 122.827,248.772 122.817,248.278 122.969 C 247.796 123.117,247.646 123.107,247.531 122.921 C 247.416 122.735,247.265 122.725,246.783 122.873 C 246.289 123.025,246.180 123.015,246.180 122.821 C 246.180 122.544,245.868 122.518,245.271 122.745 C 244.924 122.877,244.829 122.850,244.749 122.598 C 244.657 122.307,244.592 122.312,243.522 122.701 C 242.500 123.072,242.373 123.085,242.195 122.842 C 242.016 122.597,241.921 122.603,241.155 122.905 C 240.345 123.224,240.306 123.225,240.165 122.931 C 240.026 122.644,239.928 122.659,238.553 123.172 C 237.168 123.689,237.085 123.702,237.005 123.398 C 236.895 122.975,235.766 123.376,235.842 123.811 C 235.912 124.207,235.523 124.367,235.284 124.041 C 235.118 123.813,234.989 123.792,234.624 123.930 C 234.004 124.166,233.854 124.148,233.854 123.838 C 233.854 123.524,234.032 123.475,230.521 124.764 C 228.130 125.642,227.848 125.711,227.745 125.446 C 227.644 125.186,226.571 125.538,218.553 128.455 C 210.818 131.268,209.450 131.719,209.312 131.500 C 209.063 131.105,207.965 131.472,208.080 131.912 C 208.187 132.322,207.731 132.503,207.463 132.156 C 207.283 131.923,207.034 131.976,205.257 132.626 C 203.437 133.292,203.246 133.332,203.174 133.056 C 203.121 132.856,202.986 132.782,202.773 132.837 C 202.583 132.887,202.413 132.819,202.355 132.668 C 202.297 132.517,202.128 132.448,201.936 132.498 C 201.637 132.576,201.632 132.623,201.858 133.165 C 202.101 133.746,202.100 133.748,201.559 133.976 C 200.966 134.225,200.760 134.178,200.760 133.796 C 200.760 133.602,200.688 133.585,200.433 133.721 C 200.171 133.862,200.087 133.834,200.005 133.576 C 199.939 133.368,199.796 133.284,199.595 133.336 C 199.414 133.384,199.245 133.308,199.185 133.153 C 199.043 132.782,198.515 133.013,198.617 133.402 C 198.726 133.817,198.237 133.975,197.971 133.610 C 197.788 133.360,197.692 133.348,197.297 133.528 C 196.904 133.708,196.807 133.697,196.628 133.452 C 196.503 133.281,196.306 133.209,196.141 133.272 C 195.961 133.342,195.863 133.292,195.863 133.131 C 195.863 132.817,195.583 132.818,194.676 133.138 C 194.279 133.278,193.941 133.373,193.925 133.349 C 193.910 133.325,193.763 132.944,193.600 132.503 C 193.256 131.576,193.337 131.602,192.189 132.039 C 191.140 132.438,190.798 132.462,190.798 132.139 C 190.798 131.985,190.680 131.933,190.462 131.989 C 190.256 132.043,190.089 131.979,190.029 131.823 C 189.974 131.679,189.801 131.604,189.628 131.649 C 189.447 131.696,189.282 131.616,189.218 131.450 C 189.145 131.261,189.002 131.206,188.772 131.279 C 188.525 131.357,188.434 131.310,188.434 131.102 C 188.434 130.896,188.336 130.843,188.078 130.911 C 187.826 130.977,187.698 130.914,187.641 130.697 C 187.587 130.492,187.453 130.418,187.239 130.474 C 187.046 130.524,186.879 130.454,186.818 130.296 C 186.760 130.144,186.608 130.076,186.457 130.134 C 186.307 130.192,186.130 130.113,186.037 129.947 C 185.933 129.761,185.761 129.697,185.551 129.763 C 185.318 129.837,185.226 129.786,185.226 129.582 C 185.226 129.377,185.128 129.324,184.874 129.390 C 184.596 129.462,184.474 129.364,184.287 128.918 C 184.104 128.478,183.976 128.373,183.710 128.443 C 183.467 128.507,183.369 128.450,183.369 128.249 C 183.369 128.055,183.254 127.982,183.004 128.018 C 182.727 128.058,182.600 127.950,182.475 127.564 C 182.257 126.897,182.306 126.919,181.633 127.200 L 181.044 127.446 180.888 126.914 C 180.773 126.519,180.637 126.386,180.362 126.396 C 180.158 126.403,179.992 126.308,179.992 126.185 C 179.992 126.061,179.811 125.960,179.588 125.960 C 179.365 125.960,179.141 125.849,179.088 125.713 C 179.005 125.496,178.920 125.495,178.413 125.707 C 177.871 125.934,177.827 125.928,177.747 125.619 C 177.665 125.309,177.624 125.304,177.065 125.537 L 176.470 125.786 176.272 125.186 C 176.128 124.749,176.002 124.614,175.809 124.688 C 175.663 124.744,175.482 124.692,175.407 124.573 C 175.198 124.245,175.236 124.103,175.529 124.103 C 175.693 124.103,175.772 123.990,175.734 123.808 C 175.694 123.617,175.539 123.526,175.299 123.552 C 175.053 123.579,174.926 123.501,174.926 123.321 C 174.926 123.129,174.823 123.077,174.570 123.144 C 174.318 123.210,174.190 123.147,174.133 122.930 C 174.080 122.725,173.946 122.651,173.732 122.707 C 173.538 122.757,173.371 122.687,173.310 122.529 C 173.255 122.384,173.099 122.309,172.962 122.362 C 172.826 122.414,172.618 122.324,172.499 122.161 C 172.323 121.921,172.215 121.901,171.927 122.055 C 171.378 122.349,171.209 122.288,171.012 121.725 C 170.878 121.340,170.750 121.226,170.521 121.286 C 170.322 121.337,170.175 121.257,170.114 121.064 C 170.050 120.861,169.908 120.790,169.684 120.848 C 169.426 120.916,169.308 120.814,169.162 120.394 C 169.022 119.992,168.894 119.874,168.663 119.935 C 168.461 119.988,168.318 119.905,168.251 119.696 C 168.172 119.445,168.082 119.411,167.842 119.540 C 167.598 119.671,167.516 119.635,167.446 119.368 C 167.358 119.031,167.356 119.031,166.493 119.372 C 165.722 119.675,165.618 119.683,165.526 119.446 C 165.466 119.288,165.298 119.212,165.116 119.260 C 164.919 119.311,164.772 119.230,164.711 119.038 C 164.647 118.836,164.504 118.763,164.285 118.821 C 164.083 118.874,163.917 118.807,163.856 118.648 C 163.775 118.437,163.661 118.422,163.250 118.565 C 162.900 118.687,162.689 118.688,162.568 118.567 C 162.318 118.317,162.527 118.067,163.090 117.944 C 163.481 117.858,163.725 117.180,163.366 117.180 C 162.965 117.180,162.263 117.617,162.263 117.866 C 162.263 118.449,161.189 118.772,161.035 118.236 C 160.988 118.073,160.895 117.807,160.828 117.645 C 160.742 117.435,160.786 117.349,160.978 117.349 C 161.136 117.349,161.249 117.209,161.249 117.013 C 161.249 116.768,161.150 116.688,160.876 116.718 C 160.636 116.744,160.482 116.653,160.442 116.463 C 160.404 116.280,160.482 116.167,160.646 116.167 C 160.940 116.167,160.977 116.025,160.769 115.696 C 160.662 115.529,160.519 115.521,160.143 115.664 C 159.635 115.857,159.223 115.577,159.223 115.037 C 159.223 114.914,159.036 114.816,158.801 114.816 C 158.551 114.816,158.379 114.720,158.379 114.579 C 158.379 114.422,158.261 114.372,158.032 114.432 C 157.790 114.496,157.720 114.606,157.800 114.796 C 158.059 115.407,158.065 115.784,157.818 115.879 C 157.629 115.951,157.458 115.689,157.143 114.848 C 156.794 113.912,156.661 113.726,156.369 113.759 C 156.150 113.784,156.015 113.703,156.015 113.548 C 156.015 113.248,155.896 113.238,155.199 113.481 C 154.759 113.634,154.697 113.718,154.832 113.970 C 154.965 114.217,154.919 114.294,154.592 114.376 C 154.371 114.432,154.068 114.524,153.920 114.580 C 153.738 114.650,153.651 114.589,153.651 114.393 C 153.651 114.184,153.555 114.127,153.310 114.191 C 153.042 114.261,152.916 114.155,152.727 113.703 L 152.486 113.126 151.085 113.637 C 149.845 114.089,149.662 114.118,149.494 113.887 C 149.343 113.682,149.207 113.664,148.849 113.800 C 148.248 114.028,148.079 114.017,148.079 113.751 C 148.079 113.080,147.665 112.896,146.809 113.187 C 145.819 113.525,145.884 113.525,145.884 113.193 C 145.884 113.002,145.782 112.947,145.543 113.009 C 145.277 113.079,145.149 112.974,144.965 112.534 C 144.779 112.088,144.656 111.990,144.378 112.062 C 144.122 112.129,144.027 112.075,144.027 111.862 C 144.027 111.652,143.931 111.594,143.689 111.657 C 143.485 111.711,143.293 111.642,143.204 111.484 C 143.084 111.269,142.963 111.255,142.532 111.405 C 142.099 111.557,141.980 111.542,141.857 111.321 C 141.731 111.096,141.618 111.084,141.151 111.247 C 140.845 111.354,140.583 111.422,140.567 111.398 C 140.552 111.374,140.443 111.113,140.326 110.818 C 140.178 110.445,140.033 110.311,139.854 110.379 C 139.708 110.435,139.529 110.360,139.444 110.209 C 139.319 109.986,139.203 109.971,138.764 110.124 C 138.323 110.278,138.200 110.261,138.029 110.027 C 137.915 109.872,137.709 109.789,137.570 109.842 C 137.424 109.898,137.272 109.823,137.211 109.665 C 137.140 109.480,136.995 109.425,136.767 109.497 C 136.527 109.574,136.429 109.528,136.429 109.340 C 136.429 109.031,136.279 109.013,135.659 109.248 C 135.299 109.385,135.165 109.365,135.010 109.153 C 134.833 108.912,134.702 108.926,133.684 109.296 C 132.620 109.682,132.548 109.688,132.457 109.402 C 132.374 109.141,132.288 109.124,131.836 109.281 C 131.284 109.474,130.857 109.177,130.857 108.601 C 130.857 108.444,130.740 108.391,130.519 108.449 C 130.314 108.503,130.122 108.434,130.033 108.274 C 129.831 107.912,129.341 108.123,129.446 108.527 C 129.510 108.771,129.394 108.884,128.936 109.025 C 128.363 109.201,128.339 109.191,128.236 108.721 C 128.100 108.099,127.955 108.019,127.373 108.240 C 126.990 108.386,126.861 108.369,126.702 108.150 C 126.522 107.905,126.428 107.910,125.647 108.207 C 124.810 108.525,124.787 108.525,124.689 108.215 C 124.595 107.921,124.546 107.916,124.001 108.143 C 123.413 108.389,123.090 108.117,123.090 107.376 C 123.090 107.165,122.858 107.177,122.335 107.415 C 121.973 107.580,121.868 107.566,121.691 107.324 C 121.494 107.054,121.406 107.063,120.358 107.457 C 119.375 107.827,119.224 107.847,119.135 107.614 C 119.073 107.451,118.908 107.382,118.707 107.434 C 118.455 107.500,118.357 107.409,118.274 107.033 C 118.130 106.379,118.010 106.334,117.177 106.628 C 116.233 106.961,116.228 106.960,116.024 106.374 C 115.815 105.775,115.323 105.687,115.323 106.249 M90.451 109.636 C 90.055 109.792,89.994 109.893,90.083 110.251 C 90.247 110.919,90.416 110.990,91.205 110.727 C 92.049 110.446,92.315 109.920,91.612 109.920 C 91.339 109.920,91.178 109.826,91.178 109.667 C 91.178 109.379,91.110 109.376,90.451 109.636 M95.842 110.395 C 96.016 110.365,96.170 110.458,96.202 110.612 C 96.255 110.866,95.140 111.439,94.591 111.439 C 94.293 111.439,94.339 110.940,94.649 110.821 C 94.802 110.763,94.870 110.612,94.812 110.460 C 94.669 110.088,95.101 109.866,95.341 110.187 C 95.449 110.331,95.674 110.424,95.842 110.395 M88.518 112.346 C 88.135 112.569,87.903 112.085,88.264 111.815 C 88.507 111.634,88.570 111.647,88.661 111.899 C 88.726 112.081,88.670 112.257,88.518 112.346 M86.788 114.047 C 86.788 114.180,86.705 114.341,86.604 114.403 C 86.366 114.551,86.040 114.225,86.188 113.987 C 86.353 113.719,86.788 113.762,86.788 114.047 M152.216 114.322 C 152.216 114.452,152.083 114.584,151.921 114.615 C 151.630 114.671,151.509 114.313,151.741 114.081 C 151.918 113.904,152.216 114.055,152.216 114.322 M85.606 114.555 C 85.606 114.679,85.498 114.822,85.366 114.872 C 85.063 114.989,84.848 114.465,85.128 114.292 C 85.385 114.133,85.606 114.255,85.606 114.555 M82.867 116.184 C 82.932 116.522,81.877 116.921,81.691 116.629 C 81.486 116.306,81.520 116.246,82.018 116.050 C 82.581 115.828,82.805 115.864,82.867 116.184 M314.958 132.745 C 314.637 132.900,314.615 132.981,314.773 133.434 C 314.916 133.845,314.901 133.985,314.698 134.133 C 314.379 134.367,314.552 134.902,314.901 134.759 C 315.040 134.703,315.154 134.511,315.154 134.333 C 315.154 134.125,315.339 133.946,315.676 133.827 C 316.188 133.646,316.193 133.632,315.971 133.094 C 315.732 132.517,315.555 132.456,314.958 132.745 M313.677 133.185 C 313.348 133.252,313.317 133.364,313.532 133.705 C 313.627 133.855,313.767 133.884,313.930 133.789 C 314.261 133.596,314.057 133.108,313.677 133.185 M318.652 136.065 C 318.336 136.265,318.576 136.745,318.944 136.649 C 319.150 136.595,319.224 136.462,319.167 136.245 C 319.074 135.891,318.979 135.858,318.652 136.065 M305.949 136.620 C 305.956 136.904,305.300 136.874,305.225 136.587 C 305.174 136.392,305.246 136.256,305.421 136.219 C 305.678 136.165,305.943 136.367,305.949 136.620 M317.434 139.176 C 317.201 139.280,316.992 139.376,316.968 139.390 C 316.945 139.403,317.011 139.658,317.115 139.956 C 317.336 140.591,317.891 140.637,317.803 140.013 C 317.767 139.756,317.837 139.637,318.026 139.637 C 318.193 139.637,318.281 139.526,318.248 139.355 C 318.177 138.990,317.955 138.941,317.434 139.176 M314.648 140.652 C 314.648 141.014,314.157 140.962,314.086 140.593 C 314.042 140.367,314.111 140.298,314.337 140.342 C 314.508 140.374,314.648 140.514,314.648 140.652 M319.059 141.291 C 319.013 141.365,319.039 141.528,319.116 141.654 C 319.306 141.961,319.820 141.749,319.692 141.416 C 319.587 141.141,319.199 141.065,319.059 141.291 M315.222 142.026 C 315.458 142.703,315.464 142.676,315.086 142.676 C 314.768 142.676,314.312 141.802,314.521 141.593 C 314.759 141.355,315.051 141.534,315.222 142.026 M330.266 152.132 C 330.266 152.386,330.354 152.477,330.561 152.437 C 330.724 152.406,330.857 152.268,330.857 152.132 C 330.857 151.995,330.724 151.857,330.561 151.826 C 330.354 151.786,330.266 151.877,330.266 152.132 M43.111 161.588 C 42.764 161.728,42.854 162.945,43.211 162.935 C 43.481 162.928,43.760 162.614,43.652 162.439 C 43.583 162.328,43.659 162.145,43.825 162.024 C 44.393 161.609,43.863 161.285,43.111 161.588 M40.523 164.795 C 40.523 165.050,40.612 165.141,40.819 165.101 C 40.981 165.070,41.114 164.932,41.114 164.795 C 41.114 164.659,40.981 164.521,40.819 164.490 C 40.612 164.450,40.523 164.541,40.523 164.795 M346.537 170.642 C 346.402 170.697,346.436 170.956,346.651 171.515 C 346.961 172.321,347.557 172.562,348.041 172.077 C 348.280 171.839,348.004 171.507,347.645 171.601 C 347.410 171.663,347.288 171.543,347.145 171.109 C 346.956 170.537,346.899 170.493,346.537 170.642 M40.491 199.705 C 40.460 199.867,40.322 200.000,40.186 200.000 C 40.049 200.000,39.911 199.867,39.880 199.705 C 39.840 199.497,39.931 199.409,40.186 199.409 C 40.440 199.409,40.531 199.497,40.491 199.705 M40.590 203.560 C 40.730 203.925,40.733 203.918,40.369 204.013 C 40.010 204.107,39.740 203.537,40.077 203.398 C 40.410 203.262,40.484 203.285,40.590 203.560 M42.613 203.552 C 42.741 203.885,42.227 204.097,42.037 203.790 C 41.960 203.664,41.934 203.501,41.980 203.427 C 42.120 203.201,42.508 203.277,42.613 203.552 M42.487 205.857 C 42.068 206.091,42.150 206.501,42.616 206.501 C 42.838 206.501,43.063 206.613,43.116 206.751 C 43.169 206.889,43.321 206.960,43.455 206.908 C 43.778 206.784,43.991 207.154,43.739 207.402 C 43.587 207.551,43.485 207.524,43.309 207.286 C 43.182 207.114,42.993 207.027,42.887 207.092 C 42.782 207.157,42.598 207.076,42.478 206.912 C 42.355 206.743,42.148 206.658,42.000 206.715 C 41.840 206.776,41.707 206.705,41.657 206.531 C 41.612 206.375,41.521 206.117,41.456 205.959 C 41.286 205.548,42.386 205.067,42.613 205.453 C 42.714 205.623,42.674 205.752,42.487 205.857 M46.518 210.893 C 46.518 211.255,46.027 211.203,45.956 210.833 C 45.912 210.607,45.981 210.539,46.207 210.582 C 46.378 210.615,46.518 210.755,46.518 210.893 M43.394 211.303 C 43.394 211.655,43.044 211.818,42.871 211.545 C 42.642 211.184,42.690 211.060,43.056 211.060 C 43.242 211.060,43.394 211.169,43.394 211.303 M362.469 214.956 C 362.658 215.457,362.644 215.484,362.074 215.722 C 361.606 215.918,361.506 216.037,361.589 216.300 C 361.669 216.552,361.615 216.631,361.363 216.631 C 360.911 216.631,360.757 216.170,361.166 216.040 C 361.432 215.956,361.460 215.865,361.326 215.514 C 361.091 214.896,361.127 214.640,361.461 214.553 C 362.103 214.385,362.280 214.455,362.469 214.956 M364.565 217.488 C 364.285 217.600,364.191 217.744,364.250 217.969 C 364.307 218.186,364.231 218.318,364.017 218.374 C 363.703 218.456,363.935 219.541,364.262 219.516 C 364.893 219.469,365.217 219.257,365.217 218.893 C 365.217 218.634,365.315 218.489,365.489 218.489 C 365.681 218.489,365.725 218.403,365.638 218.193 C 365.572 218.031,365.479 217.765,365.432 217.602 C 365.338 217.275,365.157 217.251,364.565 217.488 M362.694 236.887 C 362.387 237.077,362.598 237.591,362.932 237.463 C 363.206 237.358,363.283 236.970,363.057 236.830 C 362.982 236.784,362.819 236.810,362.694 236.887 M359.570 238.259 C 359.744 238.540,359.353 238.863,359.120 238.630 C 358.925 238.435,359.047 238.075,359.308 238.075 C 359.390 238.075,359.508 238.158,359.570 238.259 M57.892 244.340 C 57.550 244.557,57.457 244.526,57.362 244.163 C 57.305 243.947,57.371 243.813,57.553 243.775 C 57.925 243.696,58.196 244.147,57.892 244.340 M358.203 249.091 C 358.450 249.678,358.408 249.894,358.048 249.894 C 357.715 249.894,357.383 248.860,357.659 248.684 C 357.959 248.494,357.949 248.486,358.203 249.091 M66.294 274.006 C 66.248 274.080,66.274 274.243,66.351 274.368 C 66.541 274.675,67.055 274.464,66.927 274.130 C 66.822 273.856,66.434 273.779,66.294 274.006 M79.823 277.026 C 79.489 277.114,79.454 277.370,79.690 277.991 C 79.847 278.406,79.869 278.411,80.437 278.174 L 81.022 277.929 81.301 278.770 C 81.534 279.471,81.649 279.612,81.989 279.612 C 82.252 279.612,82.398 279.709,82.398 279.883 C 82.398 280.075,82.484 280.119,82.693 280.033 C 82.856 279.966,83.122 279.873,83.284 279.826 C 83.627 279.728,83.642 279.628,83.408 279.013 C 83.286 278.692,83.146 278.584,82.927 278.642 C 82.696 278.702,82.566 278.577,82.410 278.147 C 82.251 277.708,82.129 277.594,81.898 277.668 C 81.706 277.729,81.554 277.662,81.487 277.487 C 81.419 277.310,81.259 277.241,81.045 277.297 C 80.827 277.354,80.709 277.301,80.709 277.148 C 80.709 276.914,80.409 276.873,79.823 277.026 M71.643 277.356 C 71.341 277.479,71.580 277.923,71.947 277.923 C 72.300 277.923,72.312 277.900,72.164 277.515 C 72.058 277.239,71.986 277.217,71.643 277.356 M84.635 278.656 C 84.029 278.833,84.009 278.880,84.259 279.537 C 84.395 279.895,84.376 280.031,84.169 280.183 C 83.695 280.529,84.160 281.497,84.701 281.291 C 85.398 281.026,85.514 281.097,85.826 281.975 L 86.126 282.819 86.702 282.578 C 87.232 282.356,87.287 282.362,87.377 282.645 C 87.440 282.843,87.586 282.925,87.783 282.873 C 87.965 282.826,88.134 282.901,88.193 283.057 C 88.313 283.370,88.814 283.232,88.814 282.886 C 88.814 282.748,88.640 282.651,88.392 282.651 C 88.137 282.651,87.970 282.555,87.970 282.408 C 87.970 282.022,88.339 281.897,88.565 282.206 C 88.850 282.596,89.375 282.392,89.152 281.977 C 89.026 281.740,89.063 281.656,89.325 281.588 C 89.553 281.528,89.625 281.412,89.553 281.222 C 89.492 281.064,89.339 280.984,89.198 281.038 C 88.437 281.330,88.138 281.332,88.138 281.045 C 88.138 280.837,88.042 280.779,87.800 280.843 C 87.596 280.896,87.404 280.827,87.316 280.669 C 87.194 280.451,87.077 280.440,86.613 280.601 C 86.308 280.708,86.043 280.776,86.026 280.752 C 85.712 280.330,85.665 279.615,85.946 279.526 C 86.380 279.389,86.180 278.936,85.684 278.936 C 85.469 278.936,85.268 278.837,85.238 278.716 C 85.197 278.550,85.050 278.536,84.635 278.656 M74.329 279.079 C 74.210 279.155,74.158 279.334,74.213 279.477 C 74.271 279.628,74.202 279.779,74.049 279.838 C 73.728 279.961,73.706 280.267,74.011 280.384 C 74.627 280.620,75.120 280.164,74.927 279.536 C 74.732 278.902,74.676 278.859,74.329 279.079 M90.418 281.889 C 89.594 282.211,89.412 282.350,89.445 282.637 C 89.470 282.854,89.389 282.989,89.234 282.989 C 88.918 282.989,88.920 283.083,89.254 284.062 C 89.468 284.692,89.587 284.838,89.825 284.762 C 90.012 284.703,90.165 284.771,90.231 284.944 C 90.299 285.122,90.459 285.190,90.673 285.134 C 90.891 285.077,91.009 285.130,91.009 285.284 C 91.009 285.425,91.181 285.521,91.431 285.521 C 91.692 285.521,91.853 285.617,91.853 285.773 C 91.853 285.931,91.990 286.009,92.223 285.984 C 92.521 285.951,92.650 286.092,92.880 286.703 C 93.110 287.312,93.238 287.453,93.523 287.410 C 93.765 287.374,93.879 287.448,93.879 287.641 C 93.879 287.842,93.978 287.899,94.217 287.836 C 94.420 287.783,94.613 287.851,94.701 288.007 C 94.815 288.211,94.950 288.232,95.333 288.104 C 95.970 287.892,96.094 287.379,95.509 287.379 C 95.141 287.379,95.043 287.240,94.720 286.270 C 94.443 285.440,94.288 285.185,94.099 285.257 C 93.333 285.551,93.035 285.554,93.035 285.267 C 93.035 285.058,92.939 285.001,92.697 285.064 C 92.492 285.117,92.301 285.048,92.211 284.889 C 92.128 284.741,91.950 284.669,91.804 284.725 C 91.476 284.850,91.252 284.334,91.552 284.145 C 91.686 284.060,91.849 284.116,91.980 284.291 C 92.147 284.515,92.287 284.539,92.654 284.411 C 93.234 284.207,93.412 283.611,92.868 283.693 C 92.348 283.772,91.845 282.666,92.341 282.536 C 92.557 282.479,92.631 282.349,92.572 282.125 C 92.512 281.894,92.393 281.827,92.169 281.898 C 91.967 281.962,91.815 281.903,91.750 281.734 C 91.625 281.409,91.655 281.405,90.418 281.889 M102.775 282.085 C 102.543 282.317,102.664 282.675,102.955 282.619 C 103.117 282.587,103.250 282.455,103.250 282.325 C 103.250 282.058,102.952 281.908,102.775 282.085 M108.506 285.318 C 108.460 285.392,108.486 285.555,108.563 285.681 C 108.753 285.988,109.267 285.776,109.139 285.443 C 109.034 285.168,108.646 285.092,108.506 285.318 M111.631 286.180 C 111.297 286.390,111.610 286.857,111.993 286.719 C 112.245 286.628,112.258 286.565,112.077 286.323 C 111.936 286.133,111.782 286.084,111.631 286.180 M96.190 287.825 C 95.958 288.057,96.079 288.416,96.370 288.360 C 96.532 288.328,96.665 288.196,96.665 288.066 C 96.665 287.799,96.367 287.648,96.190 287.825 M97.087 289.067 C 97.087 289.321,97.176 289.413,97.383 289.373 C 97.545 289.341,97.678 289.204,97.678 289.067 C 97.678 288.930,97.545 288.793,97.383 288.762 C 97.176 288.722,97.087 288.813,97.087 289.067 M98.487 289.236 C 98.541 289.441,98.472 289.633,98.312 289.722 C 97.930 289.936,98.165 290.414,98.597 290.301 C 98.846 290.235,98.945 290.290,98.945 290.494 C 98.945 290.698,99.037 290.749,99.270 290.675 C 99.480 290.608,99.652 290.673,99.756 290.859 C 99.849 291.026,100.025 291.103,100.178 291.045 C 100.599 290.883,99.946 289.315,99.465 289.334 C 99.272 289.341,99.114 289.246,99.114 289.123 C 99.114 288.999,98.953 288.898,98.756 288.898 C 98.482 288.898,98.419 288.977,98.487 289.236 M103.003 292.632 C 102.471 292.844,102.464 292.853,102.582 293.161 C 102.639 293.310,102.810 293.386,102.985 293.340 C 103.165 293.293,103.331 293.374,103.395 293.540 C 103.467 293.728,103.611 293.783,103.840 293.711 C 104.088 293.632,104.179 293.680,104.179 293.888 C 104.179 294.094,104.277 294.146,104.535 294.079 C 104.792 294.012,104.915 294.076,104.976 294.308 C 105.044 294.569,105.123 294.597,105.384 294.458 C 105.562 294.362,105.656 294.201,105.593 294.098 C 105.530 293.996,105.605 293.820,105.760 293.706 C 106.094 293.462,105.954 292.928,105.592 293.067 C 105.456 293.119,105.250 293.033,105.135 292.875 C 104.953 292.626,104.861 292.617,104.449 292.805 C 104.036 292.993,103.945 292.983,103.762 292.733 C 103.522 292.405,103.558 292.410,103.003 292.632 M106.456 294.136 C 106.345 294.317,106.657 295.464,106.886 295.713 C 107.107 295.954,108.735 295.334,108.626 295.051 C 108.575 294.917,108.387 294.808,108.208 294.808 C 108.029 294.808,107.838 294.692,107.784 294.550 C 107.721 294.386,107.568 294.329,107.366 294.392 C 107.163 294.457,107.011 294.398,106.946 294.229 C 106.830 293.925,106.612 293.884,106.456 294.136 M311.347 300.169 C 311.352 300.285,311.216 300.380,311.046 300.380 C 310.610 300.380,310.248 299.244,310.656 299.156 C 310.922 299.098,311.330 299.696,311.347 300.169 M103.057 299.304 C 102.734 299.436,102.988 300.013,103.330 299.924 C 103.532 299.871,103.605 299.736,103.549 299.521 C 103.463 299.192,103.399 299.164,103.057 299.304 M268.890 310.173 C 268.890 310.310,268.757 310.447,268.594 310.479 C 268.387 310.519,268.299 310.427,268.299 310.173 C 268.299 309.919,268.387 309.828,268.594 309.868 C 268.757 309.899,268.890 310.036,268.890 310.173 " stroke="none" fill="#000000" fill-rule="evenodd"></path></g></svg>
