<svg version="1.1" id="Capa_1" xmlns="http://www.w3.org/2000/svg" x="0" y="0" viewBox="0 0 850.4 645" xml:space="preserve"><style>.st2{fill:#fff}</style><path d="M371.3 560.1l-3.6-3c-.4.4-1 1-1.6 1.5-1.8-.6-3.3-1-4.8-1.4-1.4-.4-4-1.3-4.3-.7-1.9 2.8-2.9-.4-4.3-.4-7-.3-13.9-.5-20.6-3-1.6-.7-4 1-7.1 1.8-.1-.1-1.1-.7-2-1.2-.6.5-1.1 1.2-1.8 1.9-.5-1.2-1-2.1-1.5-3.3-1.4-.1-2.8-.1-4.2-.1-.5-1.1-1-2-1.8-3.6-3.2.7-6.5 1.5-9.9 2.1-.8.2-1.8-.7-2.6-.6-8.3.3-15.2-5.3-23.5-5.4-1.4 0-2.7-2.4-5-4.6-8.8.4-17.4-2.5-21.7-13.1-.6.8-1 1.3-1.7 2.3-2-1.3-4-2.6-6.9-4.4-6.8.8-12.7-4.6-19.8-7.4-.1.9-.3 1.7-.5 2.9-1.7.8-3.8 1.5-6.2 2.5-.2-.5-.6-1.4-1.1-2.7-1.4-.1-3-.2-4.5-.3-.4-1-.7-1.8-1-2.8l-4.2.4c-.5-1.3-1-2.2-1.6-3.6-4.7 1.4-7-2.9-9.8-4.8l-3.7.3c-4.7-6.3-14.2-5.7-19-12.7l-3.8.3c-1.9-1.8-3.8-3.9-6.5-6.9-1.7-.4-4.7-.9-8.4-1.6-1.4-5.6-8.6-4.2-12.2-8.2l-.3-3.8c-2.5-.8-5.6-.1-7.7-2.7-1.4-1.9-3.2-3.3-5.6-5.9 0 0-.3-1.4-.5-2.9-5-2.8-9.9-5.6-14.9-8.4l-.7-8.5-6.8.6c-4.5-6.1-9.2-12.2-14.5-19.3l-.3-3.8c-6.6-1.7-6-7.3-6.4-11.3-1.9-3-3.1-5-4.2-6.7.5-3.9.8-7.1 1.4-11.9-1.8 1.6-2.2 2.1-3.1 2.9-1.3-1.6-2.7-3.2-3.9-4.7 1.1-.3 2.7-.6 5.9-1.4-2.6-.6-3.5-.8-4.8-1.2l-.3-4c-3.6-.1-4.5-3.1-6.1-5.2-.5-.6.3-2 .8-4.1-1.4-2.2-6.4-1.7-6.6-6.7.1-.1.6-1.1 1.1-1.9-3.4-3.1-3.4-3.1-7.3-3.7-.7-5-1.6-9.9-2.4-15.2 0 0 .8-.3 1.8-.6-.5-1.6-1-3.3-1.5-5-.5-1.6-1.1-3.1-1.7-4.9.5-.2 1.6-.6 2.5-1.1.2-.5.3-1 .4-1.6.4-2.7-1.8-4.8-2.2-7.1-.4-2.4.7-4.9 1-7.4.6-4.5-3.6-6.8-4.5-10.6-.8-3.3 4.5-5.8 1.3-9.4 1-.5 1.9-1 3-1.6-1.1-4.6-2.2-9.3-3.3-13.7 5.9-6.4 4.1-14.9 7.6-21.6-1.3-2.6-4.3-5.2-.7-8.3-1.2-.9-2.3-1.9-4-3.3 1.1-.6 1.7-1 3.1-1.7 1.4-3.9 3.1-8.6 4.7-13.3-3.9-2.7 3-6.5-1.1-8.4-2.9-2.4-5.6-4.5-8.9-7.2.7-4.2-3.4-6.9-5.7-10.8-.5-.9-2-1.7-2.9-1.7-4 .5-6-2-7.5-4.8-1.3-2.3-2.5-3.9-4.3-3.4-2.8-3.4-4.9-6.3-7.4-8.9-4.7-4.7-10.2-8.9-14.3-14-3-3.9-6.8-7.3-8-12.6-.5-2.1-2.4-3.7-3.9-5.7-1.6-.2-3.3-.3-4.9-.5-.9-1.4-1.8-2.9-2.9-4.9.9-2.1 2.1-4.6 3.4-7.4 6.6-1 13 .9 19 2.6 3.5 1 5.2 0 7.7-1.5 1.2.5 2.5 1.6 3.7 1.5 7.2-1 13.9 2.5 21 2.2 1.6 0 3.3 1.2 4.8.9 3.3-.6 6.2.4 9.2 1.1 5.4 1.4 11.1 1.4 16.6 2.2 10 1.3 20.2.6 29.9 3.8 6.6 2.2 10.2-3.1 14.7-6.1l7-4.4c.2-.5.2-1.1.4-1.6.1-.3 0-.6.2-1.6 2 .1 4 .3 6.6.4-.3-.8-.7-2.1-1.4-4.1 4-1.3 8.4-2.6 13.3-4.1.1-.3.1-1.1.3-2.5 2-.4 4.2-.7 6.2-1 .5-1.4.8-2.6 1.5-4.6 2.2 2.6 3.8 4.4 5.7 6.5.3-5.8 4.9-6.8 8.5-8.9.3-1 .5-2.2.8-3.1 1.4.6 2.6 1.2 4.1 1.9.4-1.5.7-2.7.9-3.7 6.3 2.7 11.1-.8 16.5-3.2 2.3 1.7 5 1.6 7.5 0 3.1-1.9 6.2-2.2 9.7-.7 1.5.6 3.6.5 5.1.1 3.9-1.2 7.9 1.2 11.8-.5 2.5 3.1 3.9-.5 6-.9 2 .8 4.2 1.8 6.6 2.9.3-1 .5-2.1 1-4.1.7 1.4 1.1 2.2 1.6 3.5 2.4 1.6 4.4.3 5.7-1.7 4.7.9 9 1.1 12.9 2.6 4.4 1.6 8.5.6 12.8.6.5 1.1 1 2 1.6 3.6 1.8-.7 3.8-1.3 5.8-1.9.4.9.9 1.8 1.4 3 .7-.8 1.3-1.4 1.8-2 .6.5 1.4 1.1 2.5 1.9 1-.8 2.1-1.6 3.7-2.8 3.1 2.7 6.5 2.4 9.2-1 1.5 2 2.6 3.6 4 5.3l6.2-.5c1.4 1.7 2.5 3.2 4.1 5.4 8.6-1.6 16.9 2.3 26 6.3-.1-.3.4.7 1 2.3 1.2-.5 2.3-1 3.3-1.4 2.4 2 5 4.2 6.4 5.5 7 0 11.6.9 16.3 3.8 3.8 2.5 8.1 4.9 13.2 4.8 1.8-.1 3.7.9 5.5 1.4 1.6.5 3.3 1.3 4.8 1.1 4.5-.8 8.3.8 12.1 2.7 4.4-2 8.6-4.1 13.4-5 6.2-1.2 12.1-4.3 18.3-5.8 7.4-1.8 13.1-7.8 20.9-8.1 3.3-5.3 10.6-3.5 14.2-8.3.9.5 1.8 1.1 3.8 2.4.6-1.9 1.3-3.5 1.2-3.4 5.3-2.1 8.9-3.6 12.5-5 2.5-1.9 6.3 0 8.4-3.3 1.8.7 3.6 1.6 5.4 2.4 2.5-1.7 5.1-2.4 8.3-1.2 1.8.7 4.2 1 5.8.3 1.7-.8 3.9-3 5.3-1.9 1.9 1.6 3.7-.8 4.5.2 1.7 2 3.4-2.8 4.6.4 4.8-1.2 9.6-2.4 15-3.9.3.3 1.4 1.3 2.7 2.6 2.7-.2 5.6-.9 8.6-.6 12 .9 24.2-.7 36.2 3.2 4.6 1.5 9.9 1.6 14.5 3.2 1.3.5 2.8.6 3.9 1.2 6.5 3.2 14 2.9 20.7 5.4 2.2.8 5.3-1.1 9.2-1.9 2.5.7 5.9 5.2 10.6.1 1.9 2.6 3.9 5.3 6.5 8.8 2.1-.6 5.2-1.5 8.5-2.3l.8 8.7c1.5-.9 2.6-1.5 4.1-2.5 2 1.6 4.2 3.4 6.5 5.3l.5-.9c3.5 1.6 6.9 3.3 10.5 5 .7-.6 1.4-1.3 2.7-2.5 1.2 1.7 2 3 2.9 4.3 1 1.3 2.2 2.5 4 4.6 2 .8 5 2.1 8.3 3.6-.7 1.1-1.2 1.7-1.7 2.5 3.1.8 6.1 1.7 8.8 2.3.4 1.3.6 2.1.9 2.9 2.2-.1 4.2-.2 7.1-.3-.7 2.4-1.1 4.4-2.2 8.1 2-1.8 2.6-2.3 3-2.8 3.8 1.1 4.2 6 8.6 6.6.3 1.9.5 3.9.8 5.5 4.4 3.3 9.3 5.5 10.1 11.8.2 1.3 2.9 2.3 5.6 4.1.5.9 1.7 3.1 3 5.3.7-1.5 1.4-2.8 2.4-5 3.1 3.5 4.7 6.6 4.5 11 1 .2 2 .4 3.5.6l.3 3.6c3.1 5.3 5.4 9.4 7.8 13.2.9.1 1.7.3 2.8.4-.6 1-1.1 1.6-2 2.8 1.8.1 3.4.2 5.3.3l.8 9.6c1.3.3 2.4.6 3.7.9l.5 6.1c1.1.5 2.8 1.2 4 1.7l.6 6.7 4.1 3.5.6 7.4c1.1.2 1.9.3 3.2.5l.9 10.2c3.6 5.3 6.5 9.6 9.6 14.1-1.8 1.7-3.1 2.9-3.9 3.7 0 5.2 1.5 9.7-.5 14.4-.8 1.9-.5 5.3.6 6.9 1.6 2.3.3 3.9.4 5.8.2 1.8 1.7 3.5 2 5.3.2 1.4-1.2 3.6-.6 4.4 1.5 1.7.6 2.8.4 4.5-.5 4.7.1 9.3.3 15.1-1.4 1-3.6 2.6-4.2 3.1-.4 13.7-.1 25.3-4.8 36.5 1.4.7 2.7 1.3 4.8 2.2-7.9 6.4-7.3 16.7-13 24l.4 4.8c-1.8 1.6-3.9 2.7-4.9 4.5-1 1.8-.3 4.7-1.5 6.3-2.6 3.6-5.8 6.7-9.4 10.7l.3 3.5c-1.3.5-2.2 1-3.7 1.6 0 1.2.1 2.7.1 4.7-1.3.2-2.7.4-4.7.7-.9 5.2-6.6 7-9.1 11.3-2.6 4.5-9 5.6-9.7 11.5l-12.6 8c.7.2 1.8.7 4 1.5-3.1.6-5.1 1-7.5 1.5-.1.7-.3 1.5-.4 2.4-5.7 3.4-5.7 3.4-11.6 1.8-.9 1.9-2 3.8-3.2 6-1.8-.7-3.6-1.3-5.7-2-8.8 8.1-21 9.8-30.9 17.6l-7 .6c-.2 1.1-.2 1.9-.4 3.2-2.7.4-5.4 1.7-8.2-.9-.9 1.7-1.8 3.5-2.8 5.3-3.4 1.1-7.1 2.2-10.8 3.3-.7-1.4-1.1-2.4-1.6-3.5-3.1 2.2-6 3.8-9.8 4.6-5.4 1-10.6 3.3-16 5.2 1.1 1 1.7 1.6 2.4 2.2-1.4.9-2.9 1.9-4.3 2.7-4.4-4.9-9.3 5.2-14-.2-1 2.2-5.3 1-4.5 4.9-.4.1-1.1.5-1.2.3-1.8-2-4-1.2-5.8-.6-3.1.9-6 3-9.2 3.7-3.6.7-7.4.4-11.5.6-.2.4-.7 1.7-1.2 3.3-1.4-.6-2.6-1.2-4.1-1.9-2.5 1.1-5.3 2.4-8.2 3.7-5.9-2-12.2 0-18.4.6-4 .4-7.8 2.5-12.1 4-.1-.1-.7-.5-1.4-1.1-.6.7-1.3 1.3-2 2.1-1.2-.5-2.4-.9-3.8-1.5-.1.9-.3 1.7-.3 2.6-.4.2-.8.9-1.2.8-3.9-.2-7.9-.4-11.9-.8-1.5-.1-3.8-1.2-4.3-.6-1.7 2.1-2.4-.3-3.5-.6-1.9-.6-2 2.7-4.3 1.4-1.2-.6-4.1-.2-4.8.3-2.2 2.1-3.4-2.2-5.3-.4-2.5 2.5-5.5.3-8.3.6-1.2.1-2.6-1.3-3.8-1.2-1.8.1-3.6.8-6.1 1.4-.4-.1-1.8-.7-3.1-.7-2.8-.3-5.2 2-8.4.9-2.5-.9-5.4 0-8.3-1-2.9-1-6.4.3-10.2.6-.4-.9-.8-1.8-1.2-3.1-2.3 1.2-4.6 3.2-7.3.6-2.4 2.2-5.5-1.4-7.1.3-2.8 2.9-5.3-1.6-7.6.6-.7-1.1-1.4-2.4-2.2-3.8-1.5.9-3 1.8-4.8 2.9-1.5-1.7-2.8-3.3-4.5-5.2-3.4-.4-7.6 1.8-11.4-1-2.9 3.3-7.9 1.6-13 2.9z" fill="#0136f5"/><path d="M145 212.4c.6-.4 1.2-.4 1.8-.4.5 0 .9.2 1.3.4s.7 0 1 .2.6.3.9.2c.3 0 .5.1.8.1.3.1.6.2.9.2.1 0 .2.1.4.1.4.1.7.3 1.1.2.1 0 .2.1.3.1.4.1.7.3 1.1.2.2 0 .3 0 .5.1.3.1.7.3 1 .2.1 0 .2.1.4.1.4.1.7.3 1.1.2.1 0 .2.1.3.1.4.1.7.3 1.1.2.2 0 .5.1.8.1 0-.2 0-.3-.1-.4l-1.5-3c-.6-1.1-1.1-2.1-1.8-3.2-.5-.8-.8-1.7-1.3-2.6-.4-.7-.8-1.4-1.2-2.2-.4-1-1.1-1.9-1.5-3.2 0-.3.1-.8.1-1.3 1-1 1.5-1.2 2.5-1.2.3.2.5.3.8.4v.1c.4.4.6.9.9 1.4.7 1.2 1.3 2.3 1.9 3.5.3.6.5 1.2.8 1.7.3.6.6 1.1.9 1.7.4.7.7 1.5 1.2 2.1.1.2.1.4.2.5.6.9 1 1.8 1.5 2.7.4.7.7 1.4 1 2.1.2.5.5 1 .8 1.6.1-.3.3-.6.3-.8 0-.4.2-.8.3-1.1.1-.4.2-.7.4-1s.3-.7.3-1.1c.1-.4.2-.7.4-1s.3-.8.4-1.2c.1-.4.3-.9.4-1.3h.2c.2-.5.3-1 .4-1.5.1-.3.2-.6.3-.8s.3-.4.4-.7c.1-.5.3-.9.4-1.3.1-.4.4-.7.5-1.1.1-.4.2-.7.4-1.1.1-.4.4-.6.8-.8.2-.1.3-.2.7-.4.4 0 1 .1 1.6.1.2.3.5.6.8.9.2.3-.1.7.2 1-.1.5-.3 1-.4 1.4-.2.6-.4 1.2-.6 1.7-.2.4-.3.8-.4 1.3-.1.3-.2.5-.2.8-.1.2-.4.3-.3.7-.3.7-.5 1.4-.7 2.2h-.2c-.1.5-.2 1-.4 1.4-.1.4-.2.8-.5 1.2-.2.3-.2.8-.3 1.1-.2.5-.5 1.1-.7 1.6-.1.3-.2.6-.3 1 .7 0 1.2-.6 1.9-.5.1-.1.2-.2.2-.3.4-.1.8-.1 1-.2.6-.4 1.3-.6 2-.8.5-.2 1.1-.4 1.7-.6.5-.2 1.1-.3 1.6-.6l1.5-.6c.2-.1.4-.2.7-.3.6-.1 1.2-.4 1.7-.6.9-.4 1.8-.7 2.8-1 .4-.1.8-.4 1.3-.3.3.1.5.1.8.2l.7.7c.1.4.1.7.2 1v1.1c-.1 0-.2.1-.2.2-.2.8-.9 1-1.5 1.3-.5.2-1 .4-1.6.6-.7.3-1.4.5-2.1.8-.7.2-1.4.4-2 .7-.8.4-1.7.6-2.5.9-.2.1-.4.1-.7.3.5.1.8.3 1.2.2.1 0 .2.1.3.1.3 0 .7.2 1 .2.2 0 .3.1.5.1.7.2 1.4.1 2 .5 1-.1 1.8.5 2.7.5.6.4 1.5.2 2.1.6.2.1.5 0 .8 0 .3.3.6.5.9.7.2.2.3.4.3.7.1.4 0 .7 0 1-.2.5-.4.9-.6 1.2-.2.4-.7.5-1.1.7h-.8c-.3 0-.5-.1-.8-.1-.3-.1-.6-.2-.9-.2-.1 0-.3-.1-.4-.1-.4 0-.7-.3-1-.2-.1 0-.2-.1-.4-.1-.4-.1-.7-.3-1.1-.2-.5.1-.9-.2-1.3-.3-.6-.2-1.2-.2-1.8-.4-.3-.1-.7-.1-1-.2-.6-.2-1.3-.1-1.8-.5-.7.1-1.3-.4-2-.3-.2 0-.4-.1-.6-.2-.6-.2-1.3-.1-1.8-.5-.9.1-1.7-.6-2.6-.3 0 .1 0 .3.1.4.5 1.1 1 2.3 1.6 3.4.5.9 1 1.7 1.4 2.6.9 1.6 1.7 3.2 2.5 4.9l.6 1.5c.4.7.8 1.4 1.2 2 .3.5.5 1 .7 1.5.1.4-.1.8-.1 1.1-.2.3-.6.5-.8.9-1 .5-1.4.4-2.7.1-.4-.8-.9-1.5-1.3-2.3-.5-.8-.9-1.7-1.3-2.6-.4-.8-.9-1.7-1.4-2.5-.3-.5-.4-1.1-.7-1.5-.5-.9-1-1.9-1.6-2.8-.3-.5-.5-1.1-.8-1.6-.2-.2-.1-.5-.2-.8-.4.4-.2.9-.5 1.3h-.1l-.1.1c0 .5-.3.9-.4 1.4-.1.3-.1.6-.3.8-.1.2-.3.4-.4.7-.1.4-.3.8-.4 1.2-.1.4-.4.6-.4 1 0 .3-.2.7-.3 1-.1.2-.1.4-.1.4-.2.4-.3.6-.5.9 0 0-.2 0-.2.1-.3.6-.9.6-1.4.7h-.9c-.1-.1-.3-.2-.4-.3-.8-.5-1.1-1.3-.8-2.3 0-.2 0-.4.1-.5h.2c.2-.8.4-1.7.9-2.5.2-.4.3-.8.4-1.3.1-.5.4-.9.6-1.4.3-.7.5-1.5.7-2.2h.2c.1-.4.1-.7.2-1.2-.6.4-1.3.4-1.9.7-.6.3-1.3.4-1.9.8-.4-.2-.7.3-1 .3-.4 0-.7.2-1.1.3-.4.1-.7.3-1.1.4-.4.1-.7.3-1.1.5-.8.4-1.7.6-2.5.9-.4.2-.9.3-1.3.5s-.8.4-1.3.5-.9.4-1.5.5c-.6.2-1.1.4-1.7.1-.2-.1-.4-.2-.6-.4-.1-.2-.2-.4-.4-.7-.1-.2.1-.6-.1-.9.1-.3.1-.6.2-1 0 0 .1 0 .2-.1.1-.2 0-.4.2-.6.1-.2.5-.1.5-.4 0-.1.3-.2.5-.2.2-.1.4-.1.6-.2.4-.1.7-.3 1.1-.4.9-.4 1.8-.7 2.8-1 .6-.2 1.2-.4 1.7-.7.4-.2.8-.3 1.2-.4.4-.2.8-.4 1.2-.4.5 0 .7-.3 1.1-.4.9-.3 1.7-.6 2.6-.9.7-.2 1.3-.5 2-.7.1 0 .2-.1.4-.3-.6 0-1-.3-1.4-.2-.1 0-.2-.1-.3-.1-.4 0-.7-.3-1-.2-.2 0-.3-.1-.4-.1l-1.5-.3c-.8-.1-1.6-.3-2.3-.5-.1 0-.2-.1-.3-.1-.4.1-.7-.1-1-.2-.6-.2-1.3-.1-1.8-.5-.7.1-1.3-.4-2-.3-.2 0-.4-.1-.6-.2-.6-.2-1.2-.1-1.8-.4-.3-.2-.7 0-1.1-.2-.4-.2-.9-.4-1.1-.9-.2-.5-.2-.8-.1-1.4.1-.6.4-1 .8-1.4.2 0 .2-.1.3-.1z" fill="#e95846"/><path class="st2" d="M189.3 252.1V250l3.7-.5 9.4-27.4h3.7l9.4 27.6 3.1.4v2.1h-13v-2.1l4-.5-2.2-6.7h-9.8l-2.2 6.5 3.9.6v2.1h-10zm13.2-24l-4.1 12.5h8.2l-4.1-12.5zM229 252.8c-1.8 0-3.3-.4-4.7-1.4-1.4-.9-2.4-2.2-3.2-3.8s-1.2-3.7-1.2-6c0-2.4.4-4.4 1.3-6.2.9-1.7 2.1-3.1 3.6-4.1 1.5-1 3.1-1.4 4.9-1.4 1.1 0 2.1.2 3.1.7 1 .4 1.9 1.2 2.9 2.2l4.1-2.9 1 .5-.1 6.1v20.2c0 1.2 0 2.4.1 3.5l3 .6v1.8h-12v-1.8l3.6-.7c0-1.2.1-2.3.1-3.5v-7c-.9 1.1-1.8 1.9-2.9 2.4-1.2.5-2.4.8-3.6.8zm-3.4-11.3c0 2.7.5 4.8 1.6 6.1 1 1.3 2.3 2 3.9 2 .8 0 1.5-.2 2.2-.5.7-.3 1.3-.8 1.9-1.5v-12.9c-.8-.6-1.4-1-2.1-1.3-.6-.2-1.3-.4-1.9-.4-1.6 0-2.9.7-4 2-1 1.5-1.6 3.6-1.6 6.5zM261.7 252.5l-.4-4c-2.2 2.8-4.7 4.2-7.6 4.2-1.9 0-3.4-.6-4.5-1.8-1.1-1.2-1.7-3.3-1.6-6.3l.2-11.1-2.9-.6v-1.8l7.9-.9.5.5-.3 6.3v7.5c0 1.7.3 2.9.8 3.5.5.7 1.3 1 2.3 1 .8 0 1.7-.2 2.6-.7.9-.5 1.7-1.1 2.5-1.8l.1-12.9-2.8-.6v-1.7l7.7-1 .6.5-.1 6.3v12.7l2.7.6v1.8l-7.7.3zM272 252.1v-1.8l3-.6v-3.6-5.5-3.1c0-.8-.1-1.7-.1-2.6l-3.2-.4v-1.7l8.1-2.8.7.5-.1 6.3v12.9l2.7.5v1.8H272zm3.5-26.1c.5-.9 1.1-1.8 1.6-2.7.6-.9 1.3-2.1 2.1-3.4.5-.9 1-1.5 1.4-1.8.5-.3 1-.5 1.5-.5s1 .2 1.4.5.7.9.7 1.6c0 .9-.7 1.9-2.2 3.1-1.1.9-2.1 1.7-2.9 2.4-.8.7-1.6 1.3-2.4 2l-1.2-1.2zM295.8 252.1v-1.8l3-.6v-3.6-22.7l-3.3-.5v-1.8l8.1-2 .7.4-.2 6.3v8.1c2.3-2.7 4.9-4 7.7-4 1.9 0 3.5.6 4.5 1.9 1.1 1.3 1.6 3.3 1.6 6.1V249.7l2.7.5v1.8h-11.1v-1.8l2.9-.6V246 238.3c0-1.8-.2-3-.7-3.7-.5-.7-1.3-1-2.4-1-1.7 0-3.4.9-5.2 2.6v13.4l2.7.5v1.8h-11zM340.4 252.7c-1.2 0-2.2-.3-2.9-.9-.8-.6-1.3-1.4-1.5-2.5-1.1 1.1-2.1 2-3 2.6s-2.1.9-3.5.9c-1.7 0-3.1-.5-4.3-1.5-1.2-1-1.7-2.4-1.7-4.2 0-1 .2-1.9.7-2.7s1.3-1.6 2.4-2.3c1.2-.7 2.8-1.4 5-2.1.6-.2 1.3-.4 2-.6.7-.2 1.5-.4 2.3-.6v-1.3c0-2.1-.3-3.5-.9-4.3-.6-.7-1.6-1.1-3.1-1.1h-.9c-.3 0-.6.1-1 .1l-.5 2.5c-.1 1.1-.4 1.9-.9 2.4s-1.1.8-1.9.8c-1.4 0-2.3-.7-2.5-2 .3-1.8 1.2-3.2 2.9-4.3s3.9-1.6 6.6-1.6c2.6 0 4.5.6 5.7 1.9 1.2 1.2 1.8 3.3 1.8 6.3v9.8c0 1.4.4 2 1.3 2 .6 0 1.1-.3 1.6-1l1 .9c-.5 1-1.2 1.7-1.9 2.2-.8.4-1.7.6-2.8.6zm-11.7-6.6c0 1.2.3 2 .9 2.5.6.5 1.4.8 2.3.8.5 0 1-.1 1.5-.4.5-.2 1.3-.7 2.4-1.5v-7.1l-1.8.6c-.6.2-1 .3-1.4.5-1.5.6-2.5 1.3-3.1 2.1-.5.9-.8 1.7-.8 2.5zM346.4 252.1v-1.8l2.9-.5c0-1.1.1-2.3.1-3.6v-22.7l-3.3-.4v-1.8l8.1-2 .7.4-.2 6.3v7.2c2-2.1 4.2-3.2 6.7-3.2 1.6 0 3.1.4 4.4 1.3 1.3.9 2.4 2.1 3.1 3.8.8 1.7 1.1 3.7 1.1 6.1 0 2.4-.4 4.4-1.3 6.2-.9 1.7-2 3.1-3.4 4-1.4.9-3 1.4-4.7 1.4-1.2 0-2.3-.2-3.3-.7-1-.5-1.9-1.2-2.8-2.2l-.6 2.8-7.5-.6zm12.8-19c-.7 0-1.4.2-2.1.5-.7.4-1.5.9-2.3 1.5v12.5c1.4 1.3 2.8 1.9 4.2 1.9 1.5 0 2.7-.7 3.7-2s1.5-3.4 1.5-6.2c0-2.8-.5-4.9-1.4-6.2-.8-1.3-2.1-2-3.6-2zM372.7 252.1v-1.8l3.1-.6c0-1.2.1-2.3.1-3.5v-22.8l-3.3-.5v-1.8l8.2-2 .7.4-.2 6.3v20.3c0 1.2 0 2.3.1 3.5l3.1.6v1.8h-11.8zM403.7 252.7c-1.2 0-2.2-.3-2.9-.9-.8-.6-1.3-1.4-1.5-2.5-1.1 1.1-2.1 2-3 2.6s-2.1.9-3.5.9c-1.7 0-3.1-.5-4.3-1.5-1.2-1-1.7-2.4-1.7-4.2 0-1 .2-1.9.7-2.7s1.3-1.6 2.4-2.3c1.2-.7 2.8-1.4 5-2.1.6-.2 1.3-.4 2-.6.7-.2 1.5-.4 2.3-.6v-1.3c0-2.1-.3-3.5-.9-4.3-.6-.7-1.6-1.1-3.1-1.1h-.9c-.3 0-.6.1-1 .1l-.5 2.5c-.1 1.1-.4 1.9-.9 2.4s-1.1.8-1.9.8c-1.4 0-2.3-.7-2.5-2 .3-1.8 1.2-3.2 2.9-4.3s3.9-1.6 6.6-1.6c2.6 0 4.5.6 5.7 1.9 1.2 1.2 1.8 3.3 1.8 6.3v9.8c0 1.4.4 2 1.3 2 .6 0 1.1-.3 1.6-1l1 .9c-.5 1-1.2 1.7-1.9 2.2-.8.4-1.7.6-2.8.6zm-11.7-6.6c0 1.2.3 2 .9 2.5.6.5 1.4.8 2.3.8.5 0 1-.1 1.5-.4.5-.2 1.3-.7 2.4-1.5v-7.1l-1.8.6c-.6.2-1 .3-1.4.5-1.5.6-2.5 1.3-3.1 2.1-.5.9-.8 1.7-.8 2.5zM409.8 252.1v-1.8l2.9-.6v-3.6-5.8-2.9c0-.7-.1-1.6-.1-2.5l-3.2-.4v-1.7l7.5-2.8.7.5.3 3.5c1.1-1.2 2.3-2.2 3.5-2.9 1.3-.7 2.6-1.1 4-1.1 2.9 0 4.8 1.4 5.6 4.1 1.2-1.4 2.4-2.5 3.7-3.1s2.6-1 4-1c2 0 3.6.6 4.6 1.9 1 1.3 1.5 3.3 1.5 6V249.7l2.7.5v1.8h-11v-1.8l2.8-.6V246v-7.5c0-1.9-.2-3.2-.7-3.8-.5-.7-1.3-1-2.5-1-1.6 0-3.2.8-5 2.3 0 .3.1.6.1.9v12.7l2.7.5v1.8h-11v-1.8l2.9-.6v-3.6-7.4c0-1.8-.2-3.1-.7-3.8-.5-.7-1.3-1.1-2.5-1.1-.8 0-1.7.2-2.5.6-.8.4-1.6 1-2.4 1.6v13.7l2.7.5v1.8h-10.6zM461.5 252.8c-2 0-3.9-.4-5.5-1.4-1.6-.9-2.9-2.2-3.9-3.9-1-1.7-1.4-3.8-1.4-6.1 0-2.4.5-4.5 1.5-6.2 1-1.7 2.3-3 4-3.9 1.6-.9 3.4-1.4 5.4-1.4s3.7.5 5.4 1.4c1.6.9 3 2.2 4 3.9 1 1.7 1.5 3.8 1.5 6.2 0 2.4-.5 4.4-1.5 6.1-1 1.7-2.3 3-3.9 3.9-1.8.9-3.6 1.4-5.6 1.4zm0-2.2c1.6 0 2.9-.7 3.7-2.2.9-1.5 1.3-3.8 1.3-6.9 0-6.2-1.7-9.3-5-9.3s-5 3.1-5 9.3c0 3.1.4 5.4 1.3 6.9.8 1.4 2.1 2.2 3.7 2.2zM483.1 252.8c-1.4 0-2.6-.2-3.8-.5-1.2-.3-2.3-.8-3.4-1.4v-5.2h3l.8 4.2c1.1.4 2.2.7 3.5.7 1.5 0 2.7-.3 3.4-.8s1.1-1.3 1.1-2.2c0-.8-.3-1.5-.9-2-.6-.5-1.6-1-3.1-1.5l-2.2-.8c-1.7-.5-3-1.3-4-2.4-1-1-1.5-2.4-1.5-4 0-1.3.3-2.4 1-3.4s1.6-1.9 2.9-2.5c1.3-.6 2.8-.9 4.7-.9 1.3 0 2.5.2 3.5.5 1.1.3 2.1.8 3.2 1.4l-.2 4.7h-3l-.8-3.8c-.8-.4-1.8-.5-2.8-.5-1.2 0-2.1.3-2.8.8-.7.5-1 1.2-1 2.1 0 .8.3 1.5.8 2s1.6 1 3.1 1.5l1.8.5c2.2.8 3.8 1.7 4.7 2.8.9 1.1 1.4 2.4 1.4 4 0 2-.8 3.7-2.5 5-1.5 1-3.9 1.7-6.9 1.7zM521.5 252.6l-.4-2.8c-.8 1-1.8 1.7-2.8 2.2s-2.2.8-3.5.8c-1.8 0-3.3-.4-4.7-1.4-1.4-.9-2.4-2.2-3.2-3.9-.8-1.7-1.2-3.7-1.2-6 0-2.4.4-4.4 1.3-6.2.9-1.7 2.1-3.1 3.6-4 1.5-.9 3.1-1.4 4.9-1.4 1.1 0 2.2.2 3.1.6.9.4 1.8 1.1 2.6 2.1v-9.3l-3.5-.5V221l8.2-2 .7.4-.2 6.3v23.9l2.9.5v1.8l-7.8.7zm-10-11.1c0 2.7.5 4.8 1.6 6.1 1 1.3 2.3 2 3.9 2 .8 0 1.5-.2 2.1-.5.6-.3 1.3-.8 1.8-1.4v-12.9c-1.3-1.1-2.6-1.7-3.9-1.7-1.5 0-2.8.7-3.9 2-1 1.4-1.6 3.5-1.6 6.4zM542.5 252.8c-2.1 0-3.9-.4-5.5-1.4-1.6-.9-2.8-2.2-3.7-3.9-.9-1.7-1.3-3.7-1.3-6.1 0-2.4.5-4.5 1.6-6.2 1-1.7 2.4-3 4-4 1.7-.9 3.4-1.4 5.3-1.4 1.8 0 3.3.4 4.6 1.1 1.3.8 2.3 1.8 3.1 3.1.7 1.4 1.1 2.9 1.1 4.8 0 1-.1 1.8-.3 2.5h-13.8c.1 2.6.8 4.5 2 5.8 1.2 1.3 2.8 1.9 4.7 1.9 1.3 0 2.4-.3 3.4-.8.9-.5 1.7-1.2 2.5-2l1.3 1.2c-.9 1.6-2.1 2.9-3.6 3.8-1.5 1.1-3.3 1.6-5.4 1.6zm0-20.7c-.7 0-1.4.2-2.1.7-.7.5-1.3 1.2-1.8 2.3-.5 1.1-.8 2.5-.9 4.3h6.2c1.1 0 1.8-.2 2.2-.7.4-.4.5-1.1.5-1.9 0-1.4-.4-2.5-1.2-3.4-.9-.9-1.8-1.3-2.9-1.3zM564.6 252.1v-1.8l3.1-.6c0-1.2.1-2.3.1-3.5v-22.8l-3.3-.5v-1.8l8.2-2 .7.4-.2 6.3v20.3c0 1.2 0 2.3.1 3.5l3.1.6v1.8h-11.8zM589.9 252.8c-2 0-3.9-.4-5.5-1.4-1.6-.9-2.9-2.2-3.9-3.9-1-1.7-1.4-3.8-1.4-6.1 0-2.4.5-4.5 1.5-6.2 1-1.7 2.3-3 4-3.9 1.6-.9 3.4-1.4 5.4-1.4s3.7.5 5.4 1.4c1.6.9 3 2.2 4 3.9 1 1.7 1.5 3.8 1.5 6.2 0 2.4-.5 4.4-1.5 6.1-1 1.7-2.3 3-3.9 3.9-1.7.9-3.6 1.4-5.6 1.4zm0-2.2c1.6 0 2.9-.7 3.7-2.2.9-1.5 1.3-3.8 1.3-6.9 0-6.2-1.7-9.3-5-9.3s-5 3.1-5 9.3c0 3.1.4 5.4 1.3 6.9.8 1.4 2.1 2.2 3.7 2.2zM611.5 252.8c-1.4 0-2.6-.2-3.8-.5-1.2-.3-2.3-.8-3.4-1.4v-5.2h3l.8 4.2c1.1.4 2.2.7 3.5.7 1.5 0 2.7-.3 3.4-.8s1.1-1.3 1.1-2.2c0-.8-.3-1.5-.9-2-.6-.5-1.6-1-3.1-1.5l-2.2-.8c-1.7-.5-3-1.3-4-2.4-1-1-1.5-2.4-1.5-4 0-1.3.3-2.4 1-3.4s1.6-1.9 2.9-2.5c1.3-.6 2.8-.9 4.7-.9 1.3 0 2.5.2 3.5.5 1.1.3 2.1.8 3.2 1.4l-.2 4.7h-3l-.8-3.8c-.8-.4-1.8-.5-2.8-.5-1.2 0-2.1.3-2.8.8-.7.5-1 1.2-1 2.1 0 .8.3 1.5.8 2s1.6 1 3.1 1.5l1.8.5c2.2.8 3.8 1.7 4.7 2.8.9 1.1 1.4 2.4 1.4 4 0 2-.8 3.7-2.5 5-1.5 1-3.8 1.7-6.9 1.7zM206.4 302.6l-.4-2.8c-.8 1-1.8 1.7-2.8 2.2s-2.2.8-3.5.8c-1.8 0-3.3-.4-4.7-1.4-1.4-.9-2.4-2.2-3.2-3.9-.8-1.7-1.2-3.7-1.2-6 0-2.4.4-4.4 1.3-6.2.9-1.7 2.1-3.1 3.6-4 1.5-.9 3.1-1.4 4.9-1.4 1.1 0 2.2.2 3.1.6.9.4 1.8 1.1 2.6 2.1v-9.3l-3.5-.5V271l8.2-2 .7.4-.2 6.3v23.9l2.9.5v1.8l-7.8.7zm-10-11.1c0 2.7.5 4.8 1.6 6.1 1 1.3 2.3 2 3.9 2 .8 0 1.5-.2 2.1-.5.6-.3 1.3-.8 1.8-1.4v-12.9c-1.3-1.1-2.6-1.7-3.9-1.7-1.5 0-2.8.7-3.9 2-1 1.4-1.6 3.5-1.6 6.4zM227.4 302.8c-2.1 0-3.9-.4-5.5-1.4-1.6-.9-2.8-2.2-3.7-3.9-.9-1.7-1.3-3.7-1.3-6.1 0-2.4.5-4.5 1.6-6.2 1-1.7 2.4-3 4-4 1.7-.9 3.4-1.4 5.3-1.4 1.8 0 3.3.4 4.6 1.1 1.3.8 2.3 1.8 3.1 3.1.7 1.4 1.1 2.9 1.1 4.8 0 1-.1 1.8-.3 2.5h-13.8c.1 2.6.8 4.5 2 5.8 1.2 1.3 2.8 1.9 4.7 1.9 1.3 0 2.4-.3 3.4-.8.9-.5 1.7-1.2 2.5-2l1.3 1.2c-.9 1.6-2.1 2.9-3.6 3.8-1.5 1.1-3.3 1.6-5.4 1.6zm0-20.7c-.7 0-1.4.2-2.1.7-.7.5-1.3 1.2-1.8 2.3-.5 1.1-.8 2.5-.9 4.3h6.2c1.1 0 1.8-.2 2.2-.7.4-.4.5-1.1.5-1.9 0-1.4-.4-2.5-1.2-3.4-.9-.9-1.8-1.3-2.9-1.3zM247.4 302.8c-1.4 0-2.6-.2-3.8-.5-1.2-.3-2.3-.8-3.4-1.4v-5.2h3l.8 4.2c1.1.4 2.2.7 3.5.7 1.5 0 2.7-.3 3.4-.8s1.1-1.3 1.1-2.2c0-.8-.3-1.5-.9-2-.6-.5-1.6-1-3.1-1.5l-2.2-.8c-1.7-.5-3-1.3-4-2.4-1-1-1.5-2.4-1.5-4 0-1.3.3-2.4 1-3.4s1.6-1.9 2.9-2.5c1.3-.6 2.8-.9 4.7-.9 1.3 0 2.5.2 3.5.5 1.1.3 2.1.8 3.2 1.4l-.2 4.7h-3l-.8-3.8c-.8-.4-1.8-.5-2.8-.5-1.2 0-2.1.3-2.8.8-.7.5-1 1.2-1 2.1 0 .8.3 1.5.8 2s1.6 1 3.1 1.5l1.8.5c2.2.8 3.8 1.7 4.7 2.8.9 1.1 1.4 2.4 1.4 4 0 2-.8 3.7-2.5 5-1.6 1-3.9 1.7-6.9 1.7zM276.7 302.7c-1.2 0-2.2-.3-2.9-.9-.8-.6-1.3-1.4-1.5-2.5-1.1 1.1-2.1 2-3 2.6s-2.1.9-3.5.9c-1.7 0-3.1-.5-4.3-1.5-1.2-1-1.7-2.4-1.7-4.2 0-1 .2-1.9.7-2.7s1.3-1.6 2.4-2.3c1.2-.7 2.8-1.4 5-2.1.6-.2 1.3-.4 2-.6.7-.2 1.5-.4 2.3-.6v-1.3c0-2.1-.3-3.5-.9-4.3-.6-.7-1.6-1.1-3.1-1.1h-.9c-.3 0-.6.1-1 .1l-.5 2.5c-.1 1.1-.4 1.9-.9 2.4s-1.1.8-1.9.8c-1.4 0-2.3-.7-2.5-2 .3-1.8 1.2-3.2 2.9-4.3s3.9-1.6 6.6-1.6c2.6 0 4.5.6 5.7 1.9 1.2 1.2 1.8 3.3 1.8 6.3v9.8c0 1.4.4 2 1.3 2 .6 0 1.1-.3 1.6-1l1 .9c-.5 1-1.2 1.7-1.9 2.2-.8.4-1.7.6-2.8.6zm-11.7-6.6c0 1.2.3 2 .9 2.5.6.5 1.4.8 2.3.8.5 0 1-.1 1.5-.4.5-.2 1.3-.7 2.4-1.5v-7.1l-1.8.6c-.6.2-1 .3-1.4.5-1.5.6-2.5 1.3-3.1 2.1-.5.9-.8 1.7-.8 2.5zM283 302.1v-1.8l3-.6c0-1.2.1-2.3.1-3.5v-12.9h-3.3V281l3.5-.5c.2-2.2.6-4 1.1-5.4.5-1.4 1.3-2.6 2.3-3.6 1-1 2.1-1.7 3.4-2.2 1.2-.4 2.4-.7 3.5-.7 1.2 0 2.2.2 3.1.6.9.4 1.5 1.2 1.7 2.2 0 .7-.3 1.3-.8 1.8s-1.2.7-2.1.7c-1.3 0-2.5-.7-3.6-2.2l-.8-.8-.3.3c-.8.8-1.4 2-1.8 3.4-.4 1.5-.5 3.5-.4 5.9h5.5v2.7h-5.4V296c0 1.2 0 2.3.1 3.5l3.8.7v1.8H283zM300.7 302.1v-1.8l3-.6v-3.6-5.5-3.1c0-.8-.1-1.7-.1-2.6l-3.2-.4v-1.7l8.1-2.8.7.5-.1 6.3v12.9l2.7.5v1.8h-11.1zm3.5-26.1c.5-.9 1.1-1.8 1.6-2.7.6-.9 1.3-2.1 2.1-3.4.5-.9 1-1.5 1.4-1.8.5-.3 1-.5 1.5-.5s1 .2 1.4.5.7.9.7 1.6c0 .9-.7 1.9-2.2 3.1-1.1.9-2.1 1.7-2.9 2.4-.8.7-1.6 1.3-2.4 2l-1.2-1.2zM325.6 302.8c-2 0-3.9-.4-5.5-1.4-1.6-.9-2.9-2.2-3.9-3.9-1-1.7-1.4-3.8-1.4-6.1 0-2.4.5-4.5 1.5-6.2 1-1.7 2.3-3 4-3.9 1.6-.9 3.4-1.4 5.4-1.4s3.7.5 5.4 1.4c1.6.9 3 2.2 4 3.9 1 1.7 1.5 3.8 1.5 6.2 0 2.4-.5 4.4-1.5 6.1-1 1.7-2.3 3-3.9 3.9-1.8.9-3.6 1.4-5.6 1.4zm0-2.2c1.6 0 2.9-.7 3.7-2.2.9-1.5 1.3-3.8 1.3-6.9 0-6.2-1.7-9.3-5-9.3s-5 3.1-5 9.3c0 3.1.4 5.4 1.3 6.9.8 1.4 2.1 2.2 3.7 2.2zM347.2 302.8c-1.4 0-2.6-.2-3.8-.5-1.2-.3-2.3-.8-3.4-1.4v-5.2h3l.8 4.2c1.1.4 2.2.7 3.5.7 1.5 0 2.7-.3 3.4-.8s1.1-1.3 1.1-2.2c0-.8-.3-1.5-.9-2-.6-.5-1.6-1-3.1-1.5l-2.2-.8c-1.7-.5-3-1.3-4-2.4-1-1-1.5-2.4-1.5-4 0-1.3.3-2.4 1-3.4s1.6-1.9 2.9-2.5c1.3-.6 2.8-.9 4.7-.9 1.3 0 2.5.2 3.5.5 1.1.3 2.1.8 3.2 1.4l-.2 4.7h-3l-.8-3.8c-.8-.4-1.8-.5-2.8-.5-1.2 0-2.1.3-2.8.8-.7.5-1 1.2-1 2.1 0 .8.3 1.5.8 2s1.6 1 3.1 1.5l1.8.5c2.2.8 3.8 1.7 4.7 2.8.9 1.1 1.4 2.4 1.4 4 0 2-.8 3.7-2.5 5-1.5 1-3.9 1.7-6.9 1.7zM378.9 302.8c-1.8 0-3.3-.4-4.7-1.4-1.4-.9-2.4-2.2-3.2-3.8s-1.2-3.7-1.2-6c0-2.4.4-4.4 1.3-6.2.9-1.7 2.1-3.1 3.6-4.1 1.5-1 3.1-1.4 4.9-1.4 1.1 0 2.1.2 3.1.7 1 .4 1.9 1.2 2.9 2.2l4.1-2.9 1 .5-.1 6.1v20.2c0 1.2 0 2.4.1 3.5l3 .6v1.8h-12v-1.8l3.6-.7c0-1.2.1-2.3.1-3.5v-7c-.9 1.1-1.8 1.9-2.9 2.4-1.1.5-2.3.8-3.6.8zm-3.3-11.3c0 2.7.5 4.8 1.6 6.1 1 1.3 2.3 2 3.9 2 .8 0 1.5-.2 2.2-.5.7-.3 1.3-.8 1.9-1.5v-12.9c-.8-.6-1.4-1-2.1-1.3-.6-.2-1.3-.4-1.9-.4-1.6 0-2.9.7-4 2-1 1.5-1.6 3.6-1.6 6.5zM411.7 302.5l-.4-4c-2.2 2.8-4.7 4.2-7.6 4.2-1.9 0-3.4-.6-4.5-1.8-1.1-1.2-1.7-3.3-1.6-6.3l.2-11.1-2.9-.6v-1.8l7.9-.9.5.5-.3 6.3v7.5c0 1.7.3 2.9.8 3.5.5.7 1.3 1 2.3 1 .8 0 1.7-.2 2.6-.7.9-.5 1.7-1.1 2.5-1.8l.1-12.9-2.8-.6v-1.7l7.7-1 .6.5-.1 6.3v12.7l2.7.6v1.8l-7.7.3zM432.6 302.8c-2.1 0-3.9-.4-5.5-1.4-1.6-.9-2.8-2.2-3.7-3.9-.9-1.7-1.3-3.7-1.3-6.1 0-2.4.5-4.5 1.6-6.2 1-1.7 2.4-3 4-4 1.7-.9 3.4-1.4 5.3-1.4 1.8 0 3.3.4 4.6 1.1 1.3.8 2.3 1.8 3.1 3.1.7 1.4 1.1 2.9 1.1 4.8 0 1-.1 1.8-.3 2.5h-13.8c.1 2.6.8 4.5 2 5.8 1.2 1.3 2.8 1.9 4.7 1.9 1.3 0 2.4-.3 3.4-.8.9-.5 1.7-1.2 2.5-2l1.3 1.2c-.9 1.6-2.1 2.9-3.6 3.8-1.5 1.1-3.3 1.6-5.4 1.6zm0-20.7c-.7 0-1.4.2-2.1.7-.7.5-1.3 1.2-1.8 2.3-.5 1.1-.8 2.5-.9 4.3h6.2c1.1 0 1.8-.2 2.2-.7.4-.4.5-1.1.5-1.9 0-1.4-.4-2.5-1.2-3.4-.9-.9-1.8-1.3-2.9-1.3zM465.8 302.8c-2.1 0-3.9-.4-5.5-1.4-1.6-.9-2.8-2.2-3.7-3.9-.9-1.7-1.3-3.7-1.3-6.1 0-2.4.5-4.5 1.6-6.2 1-1.7 2.4-3 4-4 1.7-.9 3.4-1.4 5.3-1.4 1.8 0 3.3.4 4.6 1.1 1.3.8 2.3 1.8 3.1 3.1.7 1.4 1.1 2.9 1.1 4.8 0 1-.1 1.8-.3 2.5h-13.8c.1 2.6.8 4.5 2 5.8 1.2 1.3 2.8 1.9 4.7 1.9 1.3 0 2.4-.3 3.4-.8.9-.5 1.7-1.2 2.5-2l1.3 1.2c-.9 1.6-2.1 2.9-3.6 3.8-1.5 1.1-3.3 1.6-5.4 1.6zm0-20.7c-.7 0-1.4.2-2.1.7-.7.5-1.3 1.2-1.8 2.3-.5 1.1-.8 2.5-.9 4.3h6.2c1.1 0 1.8-.2 2.2-.7.4-.4.5-1.1.5-1.9 0-1.4-.4-2.5-1.2-3.4-.8-.9-1.8-1.3-2.9-1.3zM478.3 302.1v-1.8l2.9-.6v-3.6-5.8-2.9c0-.7-.1-1.6-.1-2.5l-3.2-.4v-1.7l7.5-2.8.7.5.3 3.5c2.3-2.6 4.9-3.9 7.7-3.9 2 0 3.5.6 4.5 1.9 1.1 1.3 1.6 3.3 1.6 6.1V299.9l2.7.5v1.8h-11.1v-1.8l2.9-.6v-3.6V288.5c0-1.8-.2-3-.7-3.7-.5-.7-1.3-1-2.4-1-1.6 0-3.3.7-5 2.2V299.8l2.7.5v1.8h-11zM505.7 302.1v-1.8l3-.6c0-1.2.1-2.3.1-3.5v-12.9h-3.3V281l3.5-.5c.2-2.2.6-4 1.1-5.4.5-1.4 1.3-2.6 2.3-3.6 1-1 2.1-1.7 3.4-2.2 1.2-.4 2.4-.7 3.5-.7 1.2 0 2.2.2 3.1.6.9.4 1.5 1.2 1.7 2.2 0 .7-.3 1.3-.8 1.8s-1.2.7-2.1.7c-1.3 0-2.5-.7-3.6-2.2l-.8-.8-.3.3c-.8.8-1.4 2-1.8 3.4-.4 1.5-.5 3.5-.4 5.9h5.5v2.7h-5.4V296c0 1.2 0 2.3.1 3.5l3.8.7v1.8h-12.6z"/><path class="st2" d="M521.9 302.1v-1.8l2.9-.5v-3.7-5.8-2.9c0-.7-.1-1.6-.1-2.5l-3.2-.4v-1.7l7.5-2.8.7.5.5 5.3c.7-1.9 1.6-3.3 2.8-4.3 1.2-1 2.3-1.5 3.5-1.5.8 0 1.6.2 2.2.6.7.4 1.1 1 1.3 1.8 0 1.1-.3 2-.8 2.6-.5.6-1.2.9-2.1.9-1.1 0-2.1-.5-3.1-1.6l-.4-.4c-1.6 1.3-2.7 3.2-3.4 5.6v10.2l3.7.7v1.8h-12zM551.9 302.8c-2.1 0-3.9-.4-5.5-1.4-1.6-.9-2.8-2.2-3.7-3.9-.9-1.7-1.3-3.7-1.3-6.1 0-2.4.5-4.5 1.6-6.2 1-1.7 2.4-3 4-4 1.7-.9 3.4-1.4 5.3-1.4 1.8 0 3.3.4 4.6 1.1 1.3.8 2.3 1.8 3.1 3.1.7 1.4 1.1 2.9 1.1 4.8 0 1-.1 1.8-.3 2.5H547c.1 2.6.8 4.5 2 5.8 1.2 1.3 2.8 1.9 4.7 1.9 1.3 0 2.4-.3 3.4-.8.9-.5 1.7-1.2 2.5-2l1.3 1.2c-.9 1.6-2.1 2.9-3.6 3.8-1.5 1.1-3.3 1.6-5.4 1.6zm0-20.7c-.7 0-1.4.2-2.1.7-.7.5-1.3 1.2-1.8 2.3-.5 1.1-.8 2.5-.9 4.3h6.2c1.1 0 1.8-.2 2.2-.7.4-.4.5-1.1.5-1.9 0-1.4-.4-2.5-1.2-3.4-.8-.9-1.8-1.3-2.9-1.3zM564.3 302.1v-1.8l2.9-.6v-3.6-5.8-2.9c0-.7-.1-1.6-.1-2.5l-3.2-.4v-1.7l7.5-2.8.7.5.3 3.5c2.3-2.6 4.9-3.9 7.7-3.9 2 0 3.5.6 4.5 1.9 1.1 1.3 1.6 3.3 1.6 6.1V299.9l2.7.5v1.8H578v-1.8l2.9-.6v-3.6V288.5c0-1.8-.2-3-.7-3.7-.5-.7-1.3-1-2.4-1-1.6 0-3.3.7-5 2.2V299.8l2.7.5v1.8h-11.2zM599.6 302.8c-1.8 0-3.2-.4-4.2-1.4-1-.9-1.5-2.3-1.5-4.3v-2-11.8h-3.3V281l3.6-.5 1.7-6.2h3.6l-.2 6.2h5.4v2.7h-5.4v13.3c0 1.1.2 1.9.7 2.4.4.5 1 .8 1.7.8.8 0 1.7-.4 2.7-1.1l1.1 1.1c-.6.9-1.3 1.7-2.3 2.2-1 .6-2.2.9-3.6.9zM624.1 302.7c-1.2 0-2.2-.3-2.9-.9-.8-.6-1.3-1.4-1.5-2.5-1.1 1.1-2.1 2-3 2.6s-2.1.9-3.5.9c-1.7 0-3.1-.5-4.3-1.5-1.2-1-1.7-2.4-1.7-4.2 0-1 .2-1.9.7-2.7s1.3-1.6 2.4-2.3c1.2-.7 2.8-1.4 5-2.1.6-.2 1.3-.4 2-.6.7-.2 1.5-.4 2.3-.6v-1.3c0-2.1-.3-3.5-.9-4.3-.6-.7-1.6-1.1-3.1-1.1h-.9c-.3 0-.6.1-1 .1l-.5 2.5c-.1 1.1-.4 1.9-.9 2.4s-1.1.8-1.9.8c-1.4 0-2.3-.7-2.5-2 .3-1.8 1.2-3.2 2.9-4.3s3.9-1.6 6.6-1.6c2.6 0 4.5.6 5.7 1.9 1.2 1.2 1.8 3.3 1.8 6.3v9.8c0 1.4.4 2 1.3 2 .6 0 1.1-.3 1.6-1l1 .9c-.5 1-1.2 1.7-1.9 2.2-.8.4-1.7.6-2.8.6zm-11.7-6.6c0 1.2.3 2 .9 2.5.6.5 1.4.8 2.3.8.5 0 1-.1 1.5-.4.5-.2 1.3-.7 2.4-1.5v-7.1l-1.8.6c-.6.2-1 .3-1.4.5-1.5.6-2.5 1.3-3.1 2.1-.5.9-.8 1.7-.8 2.5zM630.2 302.1v-1.8l2.9-.6v-3.6-5.8-2.9c0-.7-.1-1.6-.1-2.5l-3.2-.4v-1.7l7.5-2.8.7.5.3 3.5c1.1-1.2 2.3-2.2 3.5-2.9 1.3-.7 2.6-1.1 4-1.1 2.9 0 4.8 1.4 5.6 4.1 1.2-1.4 2.4-2.5 3.7-3.1s2.6-1 4-1c2 0 3.6.6 4.6 1.9 1 1.3 1.5 3.3 1.5 6V299.7l2.7.5v1.8h-11v-1.8l2.8-.6V296v-7.5c0-1.9-.2-3.2-.7-3.8-.5-.7-1.3-1-2.5-1-1.6 0-3.2.8-5 2.3 0 .3.1.6.1.9v12.7l2.7.5v1.8h-11v-1.8l2.9-.6v-3.6-7.4c0-1.8-.2-3.1-.7-3.8-.5-.7-1.3-1.1-2.5-1.1-.8 0-1.7.2-2.5.6-.8.4-1.6 1-2.4 1.6v13.7l2.7.5v1.8h-10.6zM681.9 302.8c-2 0-3.9-.4-5.5-1.4-1.6-.9-2.9-2.2-3.9-3.9-1-1.7-1.4-3.8-1.4-6.1 0-2.4.5-4.5 1.5-6.2 1-1.7 2.3-3 4-3.9 1.6-.9 3.4-1.4 5.4-1.4s3.7.5 5.4 1.4c1.6.9 3 2.2 4 3.9 1 1.7 1.5 3.8 1.5 6.2 0 2.4-.5 4.4-1.5 6.1-1 1.7-2.3 3-3.9 3.9-1.7.9-3.6 1.4-5.6 1.4zm0-2.2c1.6 0 2.9-.7 3.7-2.2.9-1.5 1.3-3.8 1.3-6.9 0-6.2-1.7-9.3-5-9.3s-5 3.1-5 9.3c0 3.1.4 5.4 1.3 6.9.8 1.4 2.1 2.2 3.7 2.2zM703.5 302.8c-1.4 0-2.6-.2-3.8-.5-1.2-.3-2.3-.8-3.4-1.4v-5.2h3l.8 4.2c1.1.4 2.2.7 3.5.7 1.5 0 2.7-.3 3.4-.8s1.1-1.3 1.1-2.2c0-.8-.3-1.5-.9-2-.6-.5-1.6-1-3.1-1.5l-2.2-.8c-1.7-.5-3-1.3-4-2.4-1-1-1.5-2.4-1.5-4 0-1.3.3-2.4 1-3.4s1.6-1.9 2.9-2.5c1.3-.6 2.8-.9 4.7-.9 1.3 0 2.5.2 3.5.5 1.1.3 2.1.8 3.2 1.4l-.2 4.7h-3l-.8-3.8c-.8-.4-1.8-.5-2.8-.5-1.2 0-2.1.3-2.8.8-.7.5-1 1.2-1 2.1 0 .8.3 1.5.8 2s1.6 1 3.1 1.5l1.8.5c2.2.8 3.8 1.7 4.7 2.8.9 1.1 1.4 2.4 1.4 4 0 2-.8 3.7-2.5 5-1.5 1-3.8 1.7-6.9 1.7zM201.2 352.8c-2 0-3.9-.4-5.5-1.3s-2.9-2.2-3.8-3.9c-.9-1.7-1.4-3.7-1.4-6.1 0-2.4.5-4.5 1.6-6.2 1-1.7 2.4-3 4.1-3.9 1.7-.9 3.6-1.3 5.6-1.3 1.5 0 2.8.3 4 .8 1.2.6 2.1 1.3 2.9 2.2.7.9 1.2 2 1.3 3.1-.4 1.3-1.2 2-2.6 2-1.7 0-2.7-1-2.9-3.1l-.6-2.7c-.3-.1-.5-.1-.8-.1h-.8c-1.1 0-2.1.3-3 .9-.9.6-1.7 1.6-2.2 2.9-.6 1.3-.9 2.9-.9 4.9 0 2.7.6 4.8 1.9 6.3 1.2 1.4 2.9 2.2 4.9 2.2 1.2 0 2.3-.3 3.2-.8 1-.5 1.8-1.3 2.4-2.2l1.3 1c-.8 1.8-1.9 3.2-3.4 4.2-1.3.6-3.1 1.1-5.3 1.1zM223.8 352.8c-2 0-3.9-.4-5.5-1.3s-2.9-2.2-3.9-3.9c-1-1.7-1.4-3.8-1.4-6.1 0-2.4.5-4.5 1.5-6.2 1-1.7 2.3-3 4-3.9 1.6-.9 3.4-1.3 5.4-1.3s3.7.5 5.4 1.3c1.6.9 3 2.2 4 3.9 1 1.7 1.5 3.8 1.5 6.2 0 2.4-.5 4.4-1.5 6.1-1 1.7-2.3 3-3.9 3.9-1.7.8-3.5 1.3-5.6 1.3zm0-2.2c1.6 0 2.9-.7 3.7-2.2.9-1.5 1.3-3.8 1.3-6.9 0-6.2-1.7-9.3-5-9.3s-5 3.1-5 9.3c0 3.1.4 5.4 1.3 6.9.9 1.4 2.1 2.2 3.7 2.2zM237.9 352.1v-1.8l2.9-.6v-3.6-5.8-2.9c0-.7-.1-1.6-.1-2.5l-3.2-.4v-1.7l7.5-2.8.7.5.3 3.5c1.1-1.2 2.3-2.2 3.5-2.9 1.3-.7 2.6-1.1 4-1.1 2.9 0 4.8 1.4 5.6 4.1 1.2-1.4 2.4-2.5 3.7-3.1s2.6-1 4-1c2 0 3.6.6 4.6 1.9 1 1.3 1.5 3.3 1.5 6V349.7l2.7.5v1.8h-11v-1.8l2.8-.6V346v-7.5c0-1.9-.2-3.2-.7-3.8-.5-.7-1.3-1-2.5-1-1.6 0-3.2.8-5 2.3 0 .3.1.6.1.9v12.7l2.7.5v1.8h-11v-1.8l2.9-.6v-3.6-7.4c0-1.8-.2-3.1-.7-3.8-.5-.7-1.3-1.1-2.5-1.1-.8 0-1.7.2-2.5.6s-1.6 1-2.4 1.6v13.7l2.7.5v1.8h-10.6zM289.6 352.8c-2 0-3.9-.4-5.5-1.3s-2.9-2.2-3.9-3.9c-1-1.7-1.4-3.8-1.4-6.1 0-2.4.5-4.5 1.5-6.2 1-1.7 2.3-3 4-3.9 1.6-.9 3.4-1.3 5.4-1.3s3.7.5 5.4 1.3c1.6.9 3 2.2 4 3.9 1 1.7 1.5 3.8 1.5 6.2 0 2.4-.5 4.4-1.5 6.1-1 1.7-2.3 3-3.9 3.9-1.7.8-3.6 1.3-5.6 1.3zm0-2.2c1.6 0 2.9-.7 3.7-2.2.9-1.5 1.3-3.8 1.3-6.9 0-6.2-1.7-9.3-5-9.3s-5 3.1-5 9.3c0 3.1.4 5.4 1.3 6.9.8 1.4 2.1 2.2 3.7 2.2zM324.7 352.8c-2 0-3.9-.4-5.5-1.3s-2.9-2.2-3.9-3.9c-1-1.7-1.4-3.8-1.4-6.1 0-2.4.5-4.5 1.5-6.2 1-1.7 2.3-3 4-3.9 1.6-.9 3.4-1.3 5.4-1.3s3.7.5 5.4 1.3c1.6.9 3 2.2 4 3.9 1 1.7 1.5 3.8 1.5 6.2 0 2.4-.5 4.4-1.5 6.1-1 1.7-2.3 3-3.9 3.9-1.7.8-3.5 1.3-5.6 1.3zm0-2.2c1.6 0 2.9-.7 3.7-2.2.9-1.5 1.3-3.8 1.3-6.9 0-6.2-1.7-9.3-5-9.3s-5 3.1-5 9.3c0 3.1.4 5.4 1.3 6.9.9 1.4 2.1 2.2 3.7 2.2zM338.8 352.1v-1.8l2.9-.5v-3.7-5.8-2.9c0-.7-.1-1.6-.1-2.5l-3.2-.4v-1.7l7.5-2.8.7.5.5 5.3c.7-1.9 1.6-3.3 2.8-4.3 1.2-1 2.3-1.5 3.5-1.5.8 0 1.6.2 2.2.6.7.4 1.1 1 1.3 1.8 0 1.1-.3 2-.8 2.6-.5.6-1.2.9-2.1.9-1.1 0-2.1-.5-3.1-1.6l-.4-.5c-1.6 1.3-2.7 3.2-3.4 5.6v10.2l3.7.7v1.8h-12zM367.5 344.6c-1.3 0-2.6-.2-3.7-.5-.6.8-.9 1.6-.9 2.5 0 .6.2 1 .6 1.3s1.1.5 2 .5h5.6c2.9 0 5 .6 6.3 1.7s1.9 2.6 1.9 4.5c0 1.4-.5 2.7-1.4 4-.9 1.2-2.3 2.2-4 3-1.8.8-4 1.1-6.7 1.1-2.3 0-4.2-.2-5.6-.7-1.4-.5-2.4-1.1-3-1.9-.6-.8-.9-1.7-.9-2.7 0-1 .3-1.8.9-2.6.6-.8 1.7-1.5 3.1-2.2-.9-.3-1.6-.8-2.1-1.4-.5-.6-.7-1.3-.7-2.1 0-.9.3-1.7.8-2.6.5-.9 1.3-1.8 2.5-2.8-2.4-1.2-3.6-3.3-3.6-6.2 0-2.2.8-4 2.3-5.3 1.6-1.3 3.7-2 6.4-2s4.9.6 6.4 1.9l5.1-1.9.7.5v3.1h-4.4c.6 1 .9 2.3.9 3.8 0 2.2-.8 4-2.3 5.3s-3.4 1.7-6.2 1.7zm-5.7 11.7c0 1.4.5 2.4 1.5 3 1 .6 2.5.9 4.4.9 2.4 0 4.2-.4 5.4-1.2 1.2-.8 1.8-1.7 1.8-2.8 0-.8-.3-1.6-.9-2.2-.6-.6-1.6-.9-3-.9h-5c-1.1 0-2.1-.1-3-.3-.8 1.2-1.2 2.3-1.2 3.5zm5.6-13.7c1.3 0 2.2-.5 2.9-1.5s1-2.3 1-4c0-1.6-.3-2.9-1-3.8-.6-.9-1.6-1.4-2.8-1.4-1.2 0-2.1.5-2.8 1.5-.7 1-1 2.3-1 3.9s.3 2.9.9 3.9c.7.9 1.6 1.4 2.8 1.4zM398.3 352.7c-1.2 0-2.2-.3-2.9-.9-.8-.6-1.3-1.4-1.5-2.5-1.1 1.1-2.1 2-3 2.6s-2.1.9-3.5.9c-1.7 0-3.1-.5-4.3-1.5-1.2-1-1.7-2.4-1.7-4.2 0-1 .2-1.9.7-2.7s1.3-1.6 2.4-2.3c1.2-.7 2.8-1.4 5-2.1.6-.2 1.3-.4 2-.6.7-.2 1.5-.4 2.3-.6v-1.3c0-2.1-.3-3.5-.9-4.3-.6-.7-1.6-1.1-3.1-1.1h-.9c-.3 0-.6.1-1 .1l-.5 2.5c-.1 1.1-.4 1.9-.9 2.4s-1.1.8-1.9.8c-1.4 0-2.3-.7-2.5-2 .3-1.8 1.2-3.2 2.9-4.3s3.9-1.6 6.6-1.6c2.6 0 4.5.6 5.7 1.9 1.2 1.2 1.8 3.3 1.8 6.3v9.8c0 1.3.4 2 1.3 2 .6 0 1.1-.3 1.6-1l1 .9c-.5 1-1.2 1.7-1.9 2.2-.8.4-1.7.6-2.8.6zm-11.7-6.6c0 1.2.3 2 .9 2.5.6.5 1.4.8 2.3.8.5 0 1-.1 1.5-.4.5-.2 1.3-.7 2.4-1.5v-7.1l-1.8.6c-.6.2-1 .3-1.4.5-1.5.6-2.5 1.3-3.1 2.1-.5.9-.8 1.7-.8 2.5zM404.4 352.1v-1.8l2.9-.6v-3.6-5.8-2.9c0-.7-.1-1.6-.1-2.5l-3.2-.4v-1.7l7.5-2.8.7.5.3 3.5c2.3-2.6 4.9-3.9 7.7-3.9 2 0 3.5.6 4.5 1.9 1.1 1.3 1.6 3.3 1.6 6.1V349.9l2.7.5v1.8h-11.1v-1.8l2.9-.6v-3.6V338.5c0-1.8-.2-3-.7-3.7-.5-.7-1.3-1-2.4-1-1.6 0-3.3.7-5 2.2V349.8l2.7.5v1.8h-11zM431.8 352.1v-1.8l3-.6v-3.6-5.5-3.1c0-.8-.1-1.7-.1-2.6l-3.2-.4v-1.7l8.1-2.8.7.5-.1 6.3v13l2.7.5v1.8h-11.1zm5.7-26.3c-1 0-1.8-.3-2.4-.9-.7-.6-1-1.4-1-2.3 0-1 .3-1.7 1-2.3s1.5-.9 2.4-.9c1 0 1.8.3 2.4.9.6.6 1 1.4 1 2.3 0 .9-.3 1.7-1 2.3-.7.6-1.5.9-2.4.9zM445.3 352.1v-1.7l12.1-17.9h-7.6l-1.2 5-3-.2.4-6.8h17.5v1.7l-11.9 17.9h8.2l1.3-5.4h3l-.5 7.4h-18.3zM483.6 352.7c-1.2 0-2.2-.3-2.9-.9-.8-.6-1.3-1.4-1.5-2.5-1.1 1.1-2.1 2-3 2.6s-2.1.9-3.5.9c-1.7 0-3.1-.5-4.3-1.5-1.2-1-1.7-2.4-1.7-4.2 0-1 .2-1.9.7-2.7s1.3-1.6 2.4-2.3c1.2-.7 2.8-1.4 5-2.1.6-.2 1.3-.4 2-.6.7-.2 1.5-.4 2.3-.6v-1.3c0-2.1-.3-3.5-.9-4.3-.6-.7-1.6-1.1-3.1-1.1h-.9c-.3 0-.6.1-1 .1l-.5 2.5c-.1 1.1-.4 1.9-.9 2.4s-1.1.8-1.9.8c-1.4 0-2.3-.7-2.5-2 .3-1.8 1.2-3.2 2.9-4.3s3.9-1.6 6.6-1.6c2.6 0 4.5.6 5.7 1.9 1.2 1.2 1.8 3.3 1.8 6.3v9.8c0 1.3.4 2 1.3 2 .6 0 1.1-.3 1.6-1l1 .9c-.5 1-1.2 1.7-1.9 2.2-.8.4-1.8.6-2.8.6zm-11.7-6.6c0 1.2.3 2 .9 2.5.6.5 1.4.8 2.3.8.5 0 1-.1 1.5-.4.5-.2 1.3-.7 2.4-1.5v-7.1l-1.8.6c-.6.2-1 .3-1.4.5-1.5.6-2.5 1.3-3.1 2.1-.6.9-.8 1.7-.8 2.5zM500.5 352.8c-2 0-3.9-.4-5.5-1.3s-2.9-2.2-3.8-3.9c-.9-1.7-1.4-3.7-1.4-6.1 0-2.4.5-4.5 1.6-6.2 1-1.7 2.4-3 4.1-3.9 1.7-.9 3.6-1.3 5.6-1.3 1.5 0 2.8.3 4 .8 1.2.6 2.1 1.3 2.9 2.2.7.9 1.2 2 1.3 3.1-.4 1.3-1.2 2-2.6 2-1.7 0-2.7-1-2.9-3.1l-.6-2.7c-.3-.1-.5-.1-.8-.1h-.8c-1.1 0-2.1.3-3 .9-.9.6-1.7 1.6-2.2 2.9-.6 1.3-.9 2.9-.9 4.9 0 2.7.6 4.8 1.9 6.3 1.2 1.4 2.9 2.2 4.9 2.2 1.2 0 2.3-.3 3.2-.8 1-.5 1.8-1.3 2.4-2.2l1.3 1c-.8 1.8-1.9 3.2-3.4 4.2-1.3.6-3.1 1.1-5.3 1.1zM512.2 352.1v-1.8l3-.6v-3.6-5.5-3.1c0-.8-.1-1.7-.1-2.6l-3.2-.4v-1.7l8.1-2.8.7.5-.1 6.3v13l2.7.5v1.8h-11.1zm5.7-26.3c-1 0-1.8-.3-2.4-.9-.7-.6-1-1.4-1-2.3 0-1 .3-1.7 1-2.3s1.5-.9 2.4-.9c1 0 1.8.3 2.4.9.6.6 1 1.4 1 2.3 0 .9-.3 1.7-1 2.3-.6.6-1.4.9-2.4.9zM537.1 352.8c-2 0-3.9-.4-5.5-1.3s-2.9-2.2-3.9-3.9c-1-1.7-1.4-3.8-1.4-6.1 0-2.4.5-4.5 1.5-6.2 1-1.7 2.3-3 4-3.9 1.6-.9 3.4-1.3 5.4-1.3s3.7.5 5.4 1.3c1.6.9 3 2.2 4 3.9 1 1.7 1.5 3.8 1.5 6.2 0 2.4-.5 4.4-1.5 6.1-1 1.7-2.3 3-3.9 3.9-1.7.8-3.5 1.3-5.6 1.3zm0-2.2c1.6 0 2.9-.7 3.7-2.2.9-1.5 1.3-3.8 1.3-6.9 0-6.2-1.7-9.3-5-9.3s-5 3.1-5 9.3c0 3.1.4 5.4 1.3 6.9.9 1.4 2.1 2.2 3.7 2.2zM551.2 352.1v-1.8l2.9-.6v-3.6-5.8-2.9c0-.7-.1-1.6-.1-2.5l-3.2-.4v-1.7l7.5-2.8.7.5.3 3.5c2.3-2.6 4.9-3.9 7.7-3.9 2 0 3.5.6 4.5 1.9 1.1 1.3 1.6 3.3 1.6 6.1V349.9l2.7.5v1.8h-11.1v-1.8l2.9-.6v-3.6V338.5c0-1.8-.2-3-.7-3.7-.5-.7-1.3-1-2.4-1-1.6 0-3.3.7-5 2.2V349.8l2.7.5v1.8h-11zM589.5 352.8c-2.1 0-3.9-.4-5.5-1.3s-2.8-2.2-3.7-3.9c-.9-1.7-1.3-3.7-1.3-6.1 0-2.4.5-4.5 1.6-6.2 1-1.7 2.4-3 4-4s3.4-1.4 5.3-1.4c1.8 0 3.3.4 4.6 1.1 1.3.8 2.3 1.8 3.1 3.2s1.1 2.9 1.1 4.8c0 1-.1 1.8-.3 2.5h-13.8c.1 2.6.8 4.5 2 5.8 1.2 1.3 2.8 1.9 4.7 1.9 1.3 0 2.4-.3 3.4-.8.9-.5 1.7-1.2 2.5-2l1.3 1.2c-.9 1.6-2.1 2.9-3.6 3.8s-3.4 1.4-5.4 1.4zm0-20.7c-.7 0-1.4.2-2.1.7-.7.5-1.3 1.2-1.8 2.3-.5 1.1-.8 2.5-.9 4.3h6.2c1.1 0 1.8-.2 2.2-.7.4-.5.5-1.1.5-1.9 0-1.4-.4-2.5-1.2-3.4-.9-.9-1.8-1.3-2.9-1.3zM609.4 352.8c-1.4 0-2.6-.2-3.8-.5s-2.3-.8-3.4-1.4v-5.2h3l.8 4.2c1.1.4 2.2.7 3.5.7 1.5 0 2.7-.3 3.4-.8s1.1-1.3 1.1-2.2c0-.8-.3-1.5-.9-2-.6-.5-1.6-1-3.1-1.5l-2.2-.8c-1.7-.5-3-1.3-4-2.4-1-1.1-1.5-2.4-1.5-4 0-1.3.3-2.4 1-3.4s1.6-1.9 2.9-2.5c1.3-.6 2.8-.9 4.7-.9 1.3 0 2.5.2 3.5.5 1.1.3 2.1.8 3.2 1.4l-.2 4.7h-3l-.8-3.8c-.8-.4-1.8-.5-2.8-.5-1.2 0-2.1.3-2.8.8-.7.5-1 1.2-1 2.1 0 .8.3 1.5.8 2 .6.5 1.6 1 3.1 1.5l1.8.5c2.2.8 3.8 1.7 4.7 2.8.9 1.1 1.4 2.4 1.4 4 0 2-.8 3.7-2.5 5-1.5 1-3.8 1.7-6.9 1.7zM645.2 332.4v-1.8h8.6v1.8l-2.5.5-7.7 20.1c-1.3 3.5-2.6 6-3.9 7.6-1.3 1.7-3 2.5-4.9 2.5-1.2 0-2.2-.3-3-.9-.9-.6-1.3-1.4-1.4-2.2.2-.8.6-1.4 1.2-1.8.6-.4 1.4-.6 2.1-.6.6 0 1.2.1 1.8.4.6.3 1.2.8 1.8 1.5l.3.4c.8-.8 1.5-1.7 2.1-2.7.6-1 1.1-2.1 1.5-3.2l.1-.3-8.5-20.8-2.3-.4v-1.8h11.8v1.8l-3.6.5 5 13.8 4.9-13.7-3.4-.7zM190.2 402.1v-1.8l3.1-.6c0-1.2.1-2.3.1-3.5v-22.8l-3.3-.4v-1.8l8.2-2 .7.4-.2 6.3v20.3c0 1.2 0 2.3.1 3.5l3.1.6v1.8h-11.8zM204.4 402.1v-1.8l3-.6v-3.6-5.5-3.1c0-.8-.1-1.7-.1-2.6l-3.2-.4v-1.7l8.1-2.8.7.5-.1 6.3v12.9l2.7.5v1.8h-11.1zm3.5-26.1c.5-.9 1.1-1.8 1.6-2.7.6-.9 1.3-2.1 2.1-3.4.5-.9 1-1.5 1.4-1.8.5-.3 1-.5 1.5-.5s1 .2 1.4.5.7.9.7 1.6c0 .9-.7 1.9-2.2 3.1-1.1.9-2.1 1.7-2.9 2.4-.8.7-1.6 1.3-2.4 2l-1.2-1.2zM234.2 402.6l-.4-2.8c-.8 1-1.8 1.7-2.8 2.2s-2.2.8-3.5.8c-1.8 0-3.3-.4-4.7-1.3-1.4-.9-2.4-2.2-3.2-3.9s-1.2-3.7-1.2-6c0-2.4.4-4.4 1.3-6.2s2.1-3.1 3.6-4c1.5-.9 3.1-1.4 4.9-1.4 1.1 0 2.2.2 3.1.6.9.4 1.8 1.1 2.6 2.1v-9.3l-3.5-.4v-1.8l8.2-2 .7.4-.2 6.3v23.9l2.9.5v1.8l-7.8.5zm-10-11.1c0 2.7.5 4.8 1.6 6.1 1 1.3 2.3 2 3.9 2 .8 0 1.5-.2 2.1-.5.6-.3 1.3-.8 1.8-1.4v-12.9c-1.3-1.1-2.6-1.7-3.9-1.7-1.5 0-2.8.7-3.9 2-1.1 1.4-1.6 3.5-1.6 6.4zM255.1 402.8c-2.1 0-3.9-.4-5.5-1.3s-2.8-2.2-3.7-3.9c-.9-1.7-1.3-3.7-1.3-6.1 0-2.4.5-4.5 1.6-6.2 1-1.7 2.4-3 4-4s3.4-1.4 5.3-1.4c1.8 0 3.3.4 4.6 1.1 1.3.8 2.3 1.8 3.1 3.2s1.1 2.9 1.1 4.8c0 1-.1 1.8-.3 2.5h-13.8c.1 2.6.8 4.5 2 5.8 1.2 1.3 2.8 1.9 4.7 1.9 1.3 0 2.4-.3 3.4-.8.9-.5 1.7-1.2 2.5-2l1.3 1.2c-.9 1.6-2.1 2.9-3.6 3.8s-3.3 1.4-5.4 1.4zm0-20.7c-.7 0-1.4.2-2.1.7-.7.5-1.3 1.2-1.8 2.3-.5 1.1-.8 2.5-.9 4.3h6.2c1.1 0 1.8-.2 2.2-.7.4-.5.5-1.1.5-1.9 0-1.4-.4-2.5-1.2-3.4-.8-.9-1.7-1.3-2.9-1.3zM267.6 402.1v-1.8l2.9-.5v-3.7-5.8-2.9c0-.7-.1-1.6-.1-2.5l-3.2-.4v-1.7l7.5-2.8.7.5.5 5.3c.7-1.9 1.6-3.3 2.8-4.3 1.2-1 2.3-1.5 3.5-1.5.8 0 1.6.2 2.2.6.7.4 1.1 1 1.3 1.8 0 1.1-.3 2-.8 2.6-.5.6-1.2.9-2.1.9-1.1 0-2.1-.5-3.1-1.6l-.4-.5c-1.6 1.3-2.7 3.2-3.4 5.6v10.2l3.7.7v1.8h-12zM297.6 402.8c-2.1 0-3.9-.4-5.5-1.3s-2.8-2.2-3.7-3.9c-.9-1.7-1.3-3.7-1.3-6.1 0-2.4.5-4.5 1.6-6.2 1-1.7 2.4-3 4-4s3.4-1.4 5.3-1.4c1.8 0 3.3.4 4.6 1.1 1.3.8 2.3 1.8 3.1 3.2s1.1 2.9 1.1 4.8c0 1-.1 1.8-.3 2.5h-13.8c.1 2.6.8 4.5 2 5.8 1.2 1.3 2.8 1.9 4.7 1.9 1.3 0 2.4-.3 3.4-.8.9-.5 1.7-1.2 2.5-2l1.3 1.2c-.9 1.6-2.1 2.9-3.6 3.8s-3.3 1.4-5.4 1.4zm0-20.7c-.7 0-1.4.2-2.1.7-.7.5-1.3 1.2-1.8 2.3-.5 1.1-.8 2.5-.9 4.3h6.2c1.1 0 1.8-.2 2.2-.7.4-.5.5-1.1.5-1.9 0-1.4-.4-2.5-1.2-3.4-.8-.9-1.8-1.3-2.9-1.3zM317.6 402.8c-1.4 0-2.6-.2-3.8-.5s-2.3-.8-3.4-1.4v-5.2h3l.8 4.2c1.1.4 2.2.7 3.5.7 1.5 0 2.7-.3 3.4-.8s1.1-1.3 1.1-2.2c0-.8-.3-1.5-.9-2-.6-.5-1.6-1-3.1-1.5l-2.2-.8c-1.7-.5-3-1.3-4-2.4-1-1.1-1.5-2.4-1.5-4 0-1.3.3-2.4 1-3.4s1.6-1.9 2.9-2.5c1.3-.6 2.8-.9 4.7-.9 1.3 0 2.5.2 3.5.5 1.1.3 2.1.8 3.2 1.4l-.2 4.7h-3l-.8-3.8c-.8-.4-1.8-.5-2.8-.5-1.2 0-2.1.3-2.8.8-.7.5-1 1.2-1 2.1 0 .8.3 1.5.8 2 .6.5 1.6 1 3.1 1.5l1.8.5c2.2.8 3.8 1.7 4.7 2.8.9 1.1 1.4 2.4 1.4 4 0 2-.8 3.7-2.5 5-1.5 1-3.9 1.7-6.9 1.7zM356 402.6l-.4-2.8c-.8 1-1.8 1.7-2.8 2.2s-2.2.8-3.5.8c-1.8 0-3.3-.4-4.7-1.3-1.4-.9-2.4-2.2-3.2-3.9s-1.2-3.7-1.2-6c0-2.4.4-4.4 1.3-6.2s2.1-3.1 3.6-4c1.5-.9 3.1-1.4 4.9-1.4 1.1 0 2.2.2 3.1.6.9.4 1.8 1.1 2.6 2.1v-9.3l-3.5-.4v-1.8l8.2-2 .7.4-.2 6.3v23.9l2.9.5v1.8l-7.8.5zm-10-11.1c0 2.7.5 4.8 1.6 6.1 1 1.3 2.3 2 3.9 2 .8 0 1.5-.2 2.1-.5.6-.3 1.3-.8 1.8-1.4v-12.9c-1.3-1.1-2.6-1.7-3.9-1.7-1.5 0-2.8.7-3.9 2-1.1 1.4-1.6 3.5-1.6 6.4zM377 402.8c-2.1 0-3.9-.4-5.5-1.3s-2.8-2.2-3.7-3.9c-.9-1.7-1.3-3.7-1.3-6.1 0-2.4.5-4.5 1.6-6.2 1-1.7 2.4-3 4-4s3.4-1.4 5.3-1.4c1.8 0 3.3.4 4.6 1.1 1.3.8 2.3 1.8 3.1 3.2s1.1 2.9 1.1 4.8c0 1-.1 1.8-.3 2.5h-13.8c.1 2.6.8 4.5 2 5.8 1.2 1.3 2.8 1.9 4.7 1.9 1.3 0 2.4-.3 3.4-.8.9-.5 1.7-1.2 2.5-2l1.3 1.2c-.9 1.6-2.1 2.9-3.6 3.8s-3.3 1.4-5.4 1.4zm0-20.7c-.7 0-1.4.2-2.1.7-.7.5-1.3 1.2-1.8 2.3-.5 1.1-.8 2.5-.9 4.3h6.2c1.1 0 1.8-.2 2.2-.7.4-.5.5-1.1.5-1.9 0-1.4-.4-2.5-1.2-3.4-.9-.9-1.8-1.3-2.9-1.3zM399.1 402.1v-1.8l3.1-.6c0-1.2.1-2.3.1-3.5v-22.8l-3.3-.4v-1.8l8.2-2 .7.4-.2 6.3v20.3c0 1.2 0 2.3.1 3.5l3.1.6v1.8h-11.8zM430.1 402.7c-1.2 0-2.2-.3-2.9-.9-.8-.6-1.3-1.4-1.5-2.5-1.1 1.1-2.1 2-3 2.6s-2.1.9-3.5.9c-1.7 0-3.1-.5-4.3-1.5-1.2-1-1.7-2.4-1.7-4.2 0-1 .2-1.9.7-2.7s1.3-1.6 2.4-2.3c1.2-.7 2.8-1.4 5-2.1.6-.2 1.3-.4 2-.6.7-.2 1.5-.4 2.3-.6v-1.3c0-2.1-.3-3.5-.9-4.3-.6-.7-1.6-1.1-3.1-1.1h-.9c-.3 0-.6.1-1 .1l-.5 2.5c-.1 1.1-.4 1.9-.9 2.4s-1.1.8-1.9.8c-1.4 0-2.3-.7-2.5-2 .3-1.8 1.2-3.2 2.9-4.3s3.9-1.6 6.6-1.6c2.6 0 4.5.6 5.7 1.9 1.2 1.2 1.8 3.3 1.8 6.3v9.8c0 1.3.4 2 1.3 2 .6 0 1.1-.3 1.6-1l1 .9c-.5 1-1.2 1.7-1.9 2.2-.8.4-1.7.6-2.8.6zm-11.7-6.6c0 1.2.3 2 .9 2.5.6.5 1.4.8 2.3.8.5 0 1-.1 1.5-.4.5-.2 1.3-.7 2.4-1.5v-7.1l-1.8.6c-.6.2-1 .3-1.4.5-1.5.6-2.5 1.3-3.1 2.1-.5.9-.8 1.7-.8 2.5zM454 402.8c-1.4 0-2.6-.2-3.8-.5s-2.3-.8-3.4-1.4v-5.2h3l.8 4.2c1.1.4 2.2.7 3.5.7 1.5 0 2.7-.3 3.4-.8s1.1-1.3 1.1-2.2c0-.8-.3-1.5-.9-2-.6-.5-1.6-1-3.1-1.5l-2.2-.8c-1.7-.5-3-1.3-4-2.4-1-1.1-1.5-2.4-1.5-4 0-1.3.3-2.4 1-3.4s1.6-1.9 2.9-2.5c1.3-.6 2.8-.9 4.7-.9 1.3 0 2.5.2 3.5.5 1.1.3 2.1.8 3.2 1.4l-.2 4.7h-3l-.8-3.8c-.8-.4-1.8-.5-2.8-.5-1.2 0-2.1.3-2.8.8-.7.5-1 1.2-1 2.1 0 .8.3 1.5.8 2 .6.5 1.6 1 3.1 1.5l1.8.5c2.2.8 3.8 1.7 4.7 2.8.9 1.1 1.4 2.4 1.4 4 0 2-.8 3.7-2.5 5-1.5 1-3.9 1.7-6.9 1.7zM477.4 402.8c-2 0-3.9-.4-5.5-1.3s-2.9-2.2-3.9-3.9c-1-1.7-1.4-3.8-1.4-6.1 0-2.4.5-4.5 1.5-6.2 1-1.7 2.3-3 4-3.9 1.6-.9 3.4-1.3 5.4-1.3s3.7.5 5.4 1.3c1.6.9 3 2.2 4 3.9 1 1.7 1.5 3.8 1.5 6.2 0 2.4-.5 4.4-1.5 6.1-1 1.7-2.3 3-3.9 3.9-1.7.8-3.6 1.3-5.6 1.3zm0-2.2c1.6 0 2.9-.7 3.7-2.2.9-1.5 1.3-3.8 1.3-6.9 0-6.2-1.7-9.3-5-9.3s-5 3.1-5 9.3c0 3.1.4 5.4 1.3 6.9.9 1.4 2.1 2.2 3.7 2.2zM502.4 402.8c-2 0-3.9-.4-5.5-1.3s-2.9-2.2-3.8-3.9c-.9-1.7-1.4-3.7-1.4-6.1 0-2.4.5-4.5 1.6-6.2 1-1.7 2.4-3 4.1-3.9 1.7-.9 3.6-1.3 5.6-1.3 1.5 0 2.8.3 4 .8 1.2.6 2.1 1.3 2.9 2.2.7.9 1.2 2 1.3 3.1-.4 1.3-1.2 2-2.6 2-1.7 0-2.7-1-2.9-3.1l-.6-2.7c-.3-.1-.5-.1-.8-.1h-.8c-1.1 0-2.1.3-3 .9-.9.6-1.7 1.6-2.2 2.9-.6 1.3-.9 2.9-.9 4.9 0 2.7.6 4.8 1.9 6.3 1.2 1.4 2.9 2.2 4.9 2.2 1.2 0 2.3-.3 3.2-.8 1-.5 1.8-1.3 2.4-2.2l1.3 1c-.8 1.8-1.9 3.2-3.4 4.2-1.4.6-3.2 1.1-5.3 1.1zM514.1 402.1v-1.8l3-.6v-3.6-5.5-3.1c0-.8-.1-1.7-.1-2.6l-3.2-.4v-1.7l8.1-2.8.7.5-.1 6.3v13l2.7.5v1.8h-11.1zm5.6-26.3c-1 0-1.8-.3-2.4-.9-.7-.6-1-1.4-1-2.3 0-1 .3-1.7 1-2.3s1.5-.9 2.4-.9c1 0 1.8.3 2.4.9.6.6 1 1.4 1 2.3 0 .9-.3 1.7-1 2.3-.6.6-1.4.9-2.4.9zM538.7 402.8c-2.1 0-3.9-.4-5.5-1.3s-2.8-2.2-3.7-3.9c-.9-1.7-1.3-3.7-1.3-6.1 0-2.4.5-4.5 1.6-6.2 1-1.7 2.4-3 4-4s3.4-1.4 5.3-1.4c1.8 0 3.3.4 4.6 1.1 1.3.8 2.3 1.8 3.1 3.2s1.1 2.9 1.1 4.8c0 1-.1 1.8-.3 2.5h-13.8c.1 2.6.8 4.5 2 5.8 1.2 1.3 2.8 1.9 4.7 1.9 1.3 0 2.4-.3 3.4-.8.9-.5 1.7-1.2 2.5-2l1.3 1.2c-.9 1.6-2.1 2.9-3.6 3.8s-3.3 1.4-5.4 1.4zm0-20.7c-.7 0-1.4.2-2.1.7-.7.5-1.3 1.2-1.8 2.3-.5 1.1-.8 2.5-.9 4.3h6.2c1.1 0 1.8-.2 2.2-.7.4-.5.5-1.1.5-1.9 0-1.4-.4-2.5-1.2-3.4-.8-.9-1.8-1.3-2.9-1.3zM567 402.6l-.4-2.8c-.8 1-1.8 1.7-2.8 2.2s-2.2.8-3.5.8c-1.8 0-3.3-.4-4.7-1.3-1.4-.9-2.4-2.2-3.2-3.9s-1.2-3.7-1.2-6c0-2.4.4-4.4 1.3-6.2s2.1-3.1 3.6-4c1.5-.9 3.1-1.4 4.9-1.4 1.1 0 2.2.2 3.1.6.9.4 1.8 1.1 2.6 2.1v-9.3l-3.5-.4v-1.8l8.2-2 .7.4-.2 6.3v23.9l2.9.5v1.8l-7.8.5zm-9.9-11.1c0 2.7.5 4.8 1.6 6.1 1 1.3 2.3 2 3.9 2 .8 0 1.5-.2 2.1-.5.6-.3 1.3-.8 1.8-1.4v-12.9c-1.3-1.1-2.6-1.7-3.9-1.7-1.5 0-2.8.7-3.9 2-1.1 1.4-1.6 3.5-1.6 6.4zM594 402.7c-1.2 0-2.2-.3-2.9-.9-.8-.6-1.3-1.4-1.5-2.5-1.1 1.1-2.1 2-3 2.6s-2.1.9-3.5.9c-1.7 0-3.1-.5-4.3-1.5-1.2-1-1.7-2.4-1.7-4.2 0-1 .2-1.9.7-2.7s1.3-1.6 2.4-2.3c1.2-.7 2.8-1.4 5-2.1.6-.2 1.3-.4 2-.6.7-.2 1.5-.4 2.3-.6v-1.3c0-2.1-.3-3.5-.9-4.3-.6-.7-1.6-1.1-3.1-1.1h-.9c-.3 0-.6.1-1 .1l-.5 2.5c-.1 1.1-.4 1.9-.9 2.4s-1.1.8-1.9.8c-1.4 0-2.3-.7-2.5-2 .3-1.8 1.2-3.2 2.9-4.3s3.9-1.6 6.6-1.6c2.6 0 4.5.6 5.7 1.9 1.2 1.2 1.8 3.3 1.8 6.3v9.8c0 1.3.4 2 1.3 2 .6 0 1.1-.3 1.6-1l1 .9c-.5 1-1.2 1.7-1.9 2.2-.9.4-1.8.6-2.8.6zm-11.8-6.6c0 1.2.3 2 .9 2.5.6.5 1.4.8 2.3.8.5 0 1-.1 1.5-.4.5-.2 1.3-.7 2.4-1.5v-7.1l-1.8.6c-.6.2-1 .3-1.4.5-1.5.6-2.5 1.3-3.1 2.1-.5.9-.8 1.7-.8 2.5zM616.1 402.6l-.4-2.8c-.8 1-1.8 1.7-2.8 2.2s-2.2.8-3.5.8c-1.8 0-3.3-.4-4.7-1.3-1.4-.9-2.4-2.2-3.2-3.9s-1.2-3.7-1.2-6c0-2.4.4-4.4 1.3-6.2s2.1-3.1 3.6-4c1.5-.9 3.1-1.4 4.9-1.4 1.1 0 2.2.2 3.1.6.9.4 1.8 1.1 2.6 2.1v-9.3l-3.5-.4v-1.8l8.2-2 .7.4-.2 6.3v23.9l2.9.5v1.8l-7.8.5zm-10-11.1c0 2.7.5 4.8 1.6 6.1 1 1.3 2.3 2 3.9 2 .8 0 1.5-.2 2.1-.5.6-.3 1.3-.8 1.8-1.4v-12.9c-1.3-1.1-2.6-1.7-3.9-1.7-1.5 0-2.8.7-3.9 2-1.1 1.4-1.6 3.5-1.6 6.4zM647.1 402.8c-2 0-3.9-.4-5.5-1.3s-2.9-2.2-3.8-3.9c-.9-1.7-1.4-3.7-1.4-6.1 0-2.4.5-4.5 1.6-6.2 1-1.7 2.4-3 4.1-3.9 1.7-.9 3.6-1.3 5.6-1.3 1.5 0 2.8.3 4 .8 1.2.6 2.1 1.3 2.9 2.2.7.9 1.2 2 1.3 3.1-.4 1.3-1.2 2-2.6 2-1.7 0-2.7-1-2.9-3.1l-.6-2.7c-.3-.1-.5-.1-.8-.1h-.8c-1.1 0-2.1.3-3 .9-.9.6-1.7 1.6-2.2 2.9-.6 1.3-.9 2.9-.9 4.9 0 2.7.6 4.8 1.9 6.3 1.2 1.4 2.9 2.2 4.9 2.2 1.2 0 2.3-.3 3.2-.8 1-.5 1.8-1.3 2.4-2.2l1.3 1c-.8 1.8-1.9 3.2-3.4 4.2-1.4.6-3.2 1.1-5.3 1.1zM658.8 402.1v-1.8l3-.6v-3.6-5.5-3.1c0-.8-.1-1.7-.1-2.6l-3.2-.4v-1.7l8.1-2.8.7.5-.1 6.3v13l2.7.5v1.8h-11.1zm5.7-26.3c-1 0-1.8-.3-2.4-.9-.7-.6-1-1.4-1-2.3 0-1 .3-1.7 1-2.3s1.5-.9 2.4-.9c1 0 1.8.3 2.4.9.6.6 1 1.4 1 2.3 0 .9-.3 1.7-1 2.3-.7.6-1.5.9-2.4.9zM685 382.5v-1.9h8.6v1.9l-2.6.5-7.4 19.3H681l-8.1-19.4-2.3-.4v-1.9h11.8v1.9l-3.5.5 4.9 13 4.5-13-3.3-.5zM695.3 402.1v-1.8l3-.6v-3.6-5.5-3.1c0-.8-.1-1.7-.1-2.6l-3.2-.4v-1.7l8.1-2.8.7.5-.1 6.3v13l2.7.5v1.8h-11.1zm5.7-26.3c-1 0-1.8-.3-2.4-.9-.7-.6-1-1.4-1-2.3 0-1 .3-1.7 1-2.3s1.5-.9 2.4-.9c1 0 1.8.3 2.4.9.6.6 1 1.4 1 2.3 0 .9-.3 1.7-1 2.3-.6.6-1.4.9-2.4.9zM708.9 402.1v-1.8l3.1-.6c0-1.2.1-2.3.1-3.5v-22.8l-3.3-.4v-1.8l8.2-2 .7.4-.2 6.3v20.3c0 1.2 0 2.3.1 3.5l3.1.6v1.8h-11.8zM201.3 452.8c-2.1 0-3.9-.4-5.5-1.3s-2.8-2.2-3.7-3.9c-.9-1.7-1.3-3.7-1.3-6.1 0-2.4.5-4.5 1.6-6.2 1-1.7 2.4-3 4-4s3.4-1.4 5.3-1.4c1.8 0 3.3.4 4.6 1.1 1.3.8 2.3 1.8 3.1 3.2s1.1 2.9 1.1 4.8c0 1-.1 1.8-.3 2.5h-13.8c.1 2.6.8 4.5 2 5.8 1.2 1.3 2.8 1.9 4.7 1.9 1.3 0 2.4-.3 3.4-.8.9-.5 1.7-1.2 2.5-2l1.3 1.2c-.9 1.6-2.1 2.9-3.6 3.8s-3.3 1.4-5.4 1.4zm0-20.7c-.7 0-1.4.2-2.1.7-.7.5-1.3 1.2-1.8 2.3-.5 1.1-.8 2.5-.9 4.3h6.2c1.1 0 1.8-.2 2.2-.7.4-.5.5-1.1.5-1.9 0-1.4-.4-2.5-1.2-3.4-.9-.9-1.8-1.3-2.9-1.3zM213.7 452.1v-1.8l2.9-.6v-3.6-5.8-2.9c0-.7-.1-1.6-.1-2.5l-3.2-.4v-1.7l7.5-2.8.7.5.3 3.5c2.3-2.6 4.9-3.9 7.7-3.9 2 0 3.5.6 4.5 1.9 1.1 1.3 1.6 3.3 1.6 6.1V449.9l2.7.5v1.8h-11.1v-1.8l2.9-.6v-3.6V438.5c0-1.8-.2-3-.7-3.7-.5-.7-1.3-1-2.4-1-1.6 0-3.3.7-5 2.2V449.8l2.7.5v1.8h-11zM250.1 452.1V450l3.7-.5 9.4-27.4h3.7l9.4 27.6 3.1.4v2.1h-13v-2.1l4-.5-2.2-6.7h-9.8l-2.2 6.5 3.9.6v2.1h-10zm13.1-24l-4.1 12.5h8.2l-4.1-12.5zM281.4 452.1v-1.8l2.9-.6v-3.6-5.8-2.9c0-.7-.1-1.6-.1-2.5l-3.2-.4v-1.7l7.5-2.8.7.5.3 3.5c1.1-1.2 2.3-2.2 3.5-2.9 1.3-.7 2.6-1.1 4-1.1 2.9 0 4.8 1.4 5.6 4.1 1.2-1.4 2.4-2.5 3.7-3.1s2.6-1 4-1c2 0 3.6.6 4.6 1.9 1 1.3 1.5 3.3 1.5 6V449.7l2.7.5v1.8h-11v-1.8l2.8-.6V446v-7.5c0-1.9-.2-3.2-.7-3.8-.5-.7-1.3-1-2.5-1-1.6 0-3.2.8-5 2.3 0 .3.1.6.1.9v12.7l2.7.5v1.8h-11v-1.8l2.9-.6v-3.6-7.4c0-1.8-.2-3.1-.7-3.8-.5-.7-1.3-1.1-2.5-1.1-.8 0-1.7.2-2.5.6s-1.6 1-2.4 1.6v13.7l2.7.5v1.8h-10.6zM332.8 452.8c-2.1 0-3.9-.4-5.5-1.3s-2.8-2.2-3.7-3.9c-.9-1.7-1.3-3.7-1.3-6.1 0-2.4.5-4.5 1.6-6.2 1-1.7 2.4-3 4-4s3.4-1.4 5.3-1.4c1.8 0 3.3.4 4.6 1.1 1.3.8 2.3 1.8 3.1 3.2s1.1 2.9 1.1 4.8c0 1-.1 1.8-.3 2.5h-13.8c.1 2.6.8 4.5 2 5.8 1.2 1.3 2.8 1.9 4.7 1.9 1.3 0 2.4-.3 3.4-.8.9-.5 1.7-1.2 2.5-2l1.3 1.2c-.9 1.6-2.1 2.9-3.6 3.8s-3.3 1.4-5.4 1.4zm0-20.7c-.7 0-1.4.2-2.1.7-.7.5-1.3 1.2-1.8 2.3-.5 1.1-.8 2.5-.9 4.3h6.2c1.1 0 1.8-.2 2.2-.7.4-.5.5-1.1.5-1.9 0-1.4-.4-2.5-1.2-3.4-.8-.9-1.8-1.3-2.9-1.3zM345.3 452.1v-1.8l2.9-.5v-3.7-5.8-2.9c0-.7-.1-1.6-.1-2.5l-3.2-.4v-1.7l7.5-2.8.7.5.5 5.3c.7-1.9 1.6-3.3 2.8-4.3 1.2-1 2.3-1.5 3.5-1.5.8 0 1.6.2 2.2.6.7.4 1.1 1 1.3 1.8 0 1.1-.3 2-.8 2.6-.5.6-1.2.9-2.1.9-1.1 0-2.1-.5-3.1-1.6l-.4-.5c-1.6 1.3-2.7 3.2-3.4 5.6v10.2l3.7.7v1.8h-12zM365.1 452.1v-1.8l3-.6v-3.6-5.5-3.1c0-.8-.1-1.7-.1-2.6l-3.2-.4v-1.7l8.1-2.8.7.5-.1 6.3v13l2.7.5v1.8h-11.1zm5.7-26.3c-1 0-1.8-.3-2.4-.9-.7-.6-1-1.4-1-2.3 0-1 .3-1.7 1-2.3s1.5-.9 2.4-.9c1 0 1.8.3 2.4.9.6.6 1 1.4 1 2.3 0 .9-.3 1.7-1 2.3-.7.6-1.5.9-2.4.9zM389.7 452.8c-2 0-3.9-.4-5.5-1.3s-2.9-2.2-3.8-3.9c-.9-1.7-1.4-3.7-1.4-6.1 0-2.4.5-4.5 1.6-6.2 1-1.7 2.4-3 4.1-3.9 1.7-.9 3.6-1.3 5.6-1.3 1.5 0 2.8.3 4 .8 1.2.6 2.1 1.3 2.9 2.2.7.9 1.2 2 1.3 3.1-.4 1.3-1.2 2-2.6 2-1.7 0-2.7-1-2.9-3.1l-.6-2.7c-.3-.1-.5-.1-.8-.1h-.8c-1.1 0-2.1.3-3 .9-.9.6-1.7 1.6-2.2 2.9-.6 1.3-.9 2.9-.9 4.9 0 2.7.6 4.8 1.9 6.3 1.2 1.4 2.9 2.2 4.9 2.2 1.2 0 2.3-.3 3.2-.8 1-.5 1.8-1.3 2.4-2.2l1.3 1c-.8 1.8-1.9 3.2-3.4 4.2-1.4.6-3.2 1.1-5.3 1.1zM418.5 452.7c-1.2 0-2.2-.3-2.9-.9-.8-.6-1.3-1.4-1.5-2.5-1.1 1.1-2.1 2-3 2.6s-2.1.9-3.5.9c-1.7 0-3.1-.5-4.3-1.5-1.2-1-1.7-2.4-1.7-4.2 0-1 .2-1.9.7-2.7s1.3-1.6 2.4-2.3c1.2-.7 2.8-1.4 5-2.1.6-.2 1.3-.4 2-.6.7-.2 1.5-.4 2.3-.6v-1.3c0-2.1-.3-3.5-.9-4.3-.6-.7-1.6-1.1-3.1-1.1h-.9c-.3 0-.6.1-1 .1l-.5 2.5c-.1 1.1-.4 1.9-.9 2.4s-1.1.8-1.9.8c-1.4 0-2.3-.7-2.5-2 .3-1.8 1.2-3.2 2.9-4.3s3.9-1.6 6.6-1.6c2.6 0 4.5.6 5.7 1.9 1.2 1.2 1.8 3.3 1.8 6.3v9.8c0 1.3.4 2 1.3 2 .6 0 1.1-.3 1.6-1l1 .9c-.5 1-1.2 1.7-1.9 2.2-.9.4-1.8.6-2.8.6zm-11.7-6.6c0 1.2.3 2 .9 2.5.6.5 1.4.8 2.3.8.5 0 1-.1 1.5-.4.5-.2 1.3-.7 2.4-1.5v-7.1l-1.8.6c-.6.2-1 .3-1.4.5-1.5.6-2.5 1.3-3.1 2.1-.6.9-.8 1.7-.8 2.5zM435 424.4v-2.1h13.7v2.1l-4 .5c0 1.9-.1 3.7-.1 5.6V444c0 1.8 0 3.7.1 5.6h9.1l1.3-6.2h3.1l-.4 8.6H435v-2l3.8-.4c.1-1.9.1-3.8.1-5.6V436.3v-5.8c0-1.9 0-3.8-.1-5.6l-3.8-.5zM478.4 452.7c-1.2 0-2.2-.3-2.9-.9-.8-.6-1.3-1.4-1.5-2.5-1.1 1.1-2.1 2-3 2.6s-2.1.9-3.5.9c-1.7 0-3.1-.5-4.3-1.5-1.2-1-1.7-2.4-1.7-4.2 0-1 .2-1.9.7-2.7s1.3-1.6 2.4-2.3c1.2-.7 2.8-1.4 5-2.1.6-.2 1.3-.4 2-.6.7-.2 1.5-.4 2.3-.6v-1.3c0-2.1-.3-3.5-.9-4.3-.6-.7-1.6-1.1-3.1-1.1h-.9c-.3 0-.6.1-1 .1l-.5 2.5c-.1 1.1-.4 1.9-.9 2.4s-1.1.8-1.9.8c-1.4 0-2.3-.7-2.5-2 .3-1.8 1.2-3.2 2.9-4.3s3.9-1.6 6.6-1.6c2.6 0 4.5.6 5.7 1.9 1.2 1.2 1.8 3.3 1.8 6.3v9.8c0 1.3.4 2 1.3 2 .6 0 1.1-.3 1.6-1l1 .9c-.5 1-1.2 1.7-1.9 2.2-.8.4-1.7.6-2.8.6zm-11.7-6.6c0 1.2.3 2 .9 2.5.6.5 1.4.8 2.3.8.5 0 1-.1 1.5-.4.5-.2 1.3-.7 2.4-1.5v-7.1l-1.8.6c-.6.2-1 .3-1.4.5-1.5.6-2.5 1.3-3.1 2.1-.5.9-.8 1.7-.8 2.5zM492.7 452.8c-1.8 0-3.2-.4-4.2-1.3s-1.5-2.3-1.5-4.3v-2-11.8h-3.3V431l3.6-.5 1.7-6.2h3.6l-.2 6.2h5.4v2.7h-5.4v13.3c0 1.1.2 1.9.7 2.4.4.5 1 .8 1.7.8.8 0 1.7-.4 2.7-1.1l1.1 1.1c-.6.9-1.3 1.7-2.3 2.2-1 .6-2.2.9-3.6.9zM499.9 452.1v-1.8l3-.6v-3.6-5.5-3.1c0-.8-.1-1.7-.1-2.6l-3.2-.4v-1.7l8.1-2.8.7.5-.1 6.3v13l2.7.5v1.8h-11.1zm5.7-26.3c-1 0-1.8-.3-2.4-.9-.7-.6-1-1.4-1-2.3 0-1 .3-1.7 1-2.3s1.5-.9 2.4-.9c1 0 1.8.3 2.4.9.6.6 1 1.4 1 2.3 0 .9-.3 1.7-1 2.3-.6.6-1.4.9-2.4.9zM513.9 452.1v-1.8l2.9-.6v-3.6-5.8-2.9c0-.7-.1-1.6-.1-2.5l-3.2-.4v-1.7l7.5-2.8.7.5.3 3.5c2.3-2.6 4.9-3.9 7.7-3.9 2 0 3.5.6 4.5 1.9 1.1 1.3 1.6 3.3 1.6 6.1V449.9l2.7.5v1.8h-11.1v-1.8l2.9-.6v-3.6V438.5c0-1.8-.2-3-.7-3.7-.5-.7-1.3-1-2.4-1-1.6 0-3.3.7-5 2.2V449.8l2.7.5v1.8h-11zM558.3 452.7c-1.2 0-2.2-.3-2.9-.9-.8-.6-1.3-1.4-1.5-2.5-1.1 1.1-2.1 2-3 2.6s-2.1.9-3.5.9c-1.7 0-3.1-.5-4.3-1.5-1.2-1-1.7-2.4-1.7-4.2 0-1 .2-1.9.7-2.7s1.3-1.6 2.4-2.3c1.2-.7 2.8-1.4 5-2.1.6-.2 1.3-.4 2-.6.7-.2 1.5-.4 2.3-.6v-1.3c0-2.1-.3-3.5-.9-4.3-.6-.7-1.6-1.1-3.1-1.1h-.9c-.3 0-.6.1-1 .1l-.5 2.5c-.1 1.1-.4 1.9-.9 2.4s-1.1.8-1.9.8c-1.4 0-2.3-.7-2.5-2 .3-1.8 1.2-3.2 2.9-4.3s3.9-1.6 6.6-1.6c2.6 0 4.5.6 5.7 1.9 1.2 1.2 1.8 3.3 1.8 6.3v9.8c0 1.3.4 2 1.3 2 .6 0 1.1-.3 1.6-1l1 .9c-.5 1-1.2 1.7-1.9 2.2-.8.4-1.7.6-2.8.6zm-11.7-6.6c0 1.2.3 2 .9 2.5.6.5 1.4.8 2.3.8.5 0 1-.1 1.5-.4.5-.2 1.3-.7 2.4-1.5v-7.1l-1.8.6c-.6.2-1 .3-1.4.5-1.5.6-2.5 1.3-3.1 2.1-.5.9-.8 1.7-.8 2.5zM569.8 452.8c-1 0-1.9-.4-2.6-1.1-.7-.7-1-1.5-1-2.5s.3-1.9 1-2.6c.7-.7 1.5-1.1 2.6-1.1 1 0 1.9.4 2.6 1.1.7.7 1 1.6 1 2.6s-.3 1.8-1 2.5-1.6 1.1-2.6 1.1z"/></svg>