<?xml version="1.0" encoding="utf-8"?>
<!-- Generator: Adobe Illustrator 25.2.3, SVG Export Plug-In . SVG Version: 6.00 Build 0)  -->
<svg version="1.1" id="Layer_1" xmlns="http://www.w3.org/2000/svg" xmlns:xlink="http://www.w3.org/1999/xlink" x="0px" y="0px"
	 viewBox="0 0 1190.6 1133.9" style="enable-background:new 0 0 1190.6 1133.9;" xml:space="preserve">
<style type="text/css">
	.st0{fill:#0136F5;}
	.st1{enable-background:new    ;}
	.st2{fill:#FFFFFF;}
	.st3{fill:#E95846;}
	.st4{display:none;}
</style>
<g>
	<path class="st0" d="M137.1,985.8c-0.5-2.2-0.8-3.8-1-4.8c-5.7-2.8-11.2-5.6-19.2-9.6c-1.9,0.3-6.8,1.1-11.2,1.7
		c-9.1-2.1-18.4-4.3-29.8-6.9c-3.9-10.6-23.6-3.6-27.4-19.9c-13.5,3.2-21.9-9.2-34.2-10.9c-0.4-3.5-0.7-6.3-1-9.1
		c-2.2-0.9-4.3-1.7-6.3-2.5c-0.4-2.9-0.7-5.8-1.1-9.4c-2,1.2-3.6,2.1-5.9,3.3c0-271.9,0-543.4,0-816.4c7.2,1,13.8,1.9,23.4,3.1
		c-0.9,0.6,1-0.6,3.2-2c8.7,2,17.9,4,28.4,6.4c0.7-0.5,2.5-1.9,4.9-3.7c4.1,2.1,8.6,4.4,15,7.6c2.5,0,7.3,0.1,12,0
		c11.1-0.4,21.3,2.3,32,5.3c18.2,5.2,35.2,13.9,53.6,18.5c5.9,1.5,10,1.9,12.4-2c9.4,3.1,17.3,5.8,25.5,8.5
		c3,3.6,5.9,10.4,10.5,11.8c9.1,2.9,18.6,7.5,28.5,3.4c7.1,16.2,29.3,12,36.8,29.1c11,3.6,24.5,6.1,36.2,12.2
		c23.7,12.5,23.3,13.3,39.2,13.3c2.1,2.1,4.2,4.2,6.8,6.7c1.6-1,3.3-2.1,6.1-3.8c2.7,2.3,5.8,4.9,9.1,7.7
		c11.8,1.6,23.5-1.6,34.6-6.2c6-2.4,12.1,0,18.6-3c10.5-4.9,22.7-5.9,34.2-8.6c0.6-0.1,1.4,0.2,1.8-0.1c20-13.6,44.7-13.6,66.2-22.7
		c4.1-1.8,7.8-1.7,11.6-2.3c9.5-1.6,19.1-3.2,28.6-5c1-0.2,1.8-1.4,2.7-2.2c12.5,4.8,30.4,5,42.3,0.6c3.6,4.7,7.3,9.4,11,14.2
		c7.4-1.5,14-8.5,21.2-1.2c6.8-1.4,13.1,5.7,20.2,0.9c1.7-1.1,5.3-1.1,7,0c8.7,5.3,18.3,3.7,27.4,3.2c10.1-0.6,19.5,2.3,29.2,3.8
		c8.9,1.3,17.4,3.8,25.9,6.9c7.9,2.9,16.6,3.5,23.3,4.8c11,11.7,26,13.9,38.3,19.9c12.7,6.2,28.1,7.1,43.4,10.5
		c1.4-2.1,3.5-5.3,6.3-9.4c4,0,9.2,0,14.5,0c1.6,4.6,3.2,9.3,5.1,14.8c-0.8,1.1-2.1,2.9-3.9,5.4c6.8,1.9,13.2,3.7,21.2,6
		c1.3,2.8,3.3,7.3,5.5,12c10.5,4.4,21.9,7.3,31.5,14.8c4.1,3.2,10.5,3.5,16.9,5.5c2.2,3.4,6,7.7,8,12.8c1.9,4.9,10.4,3.2,9,10.3
		c7.5,0.2,7.8,10.4,14.9,10.9c7.6,0.5,6,12.4,14.8,11.7c0.6-0.1,1.6,3.8,2.3,5.8c3,0.4,5.9,0.7,8.2,1c7.3,16.6,12.2,34.2,30.2,43.2
		c0,5.4,0,10.6,0,13.4c5.6,5.5,9.7,9.4,13.7,13.4c1.5-1.5,3.7-3.6,6.6-6.5c3,7.9,4.5,16.4,9,22.7c5,7.1,0,18.4,10.5,22.6
		c-1,9.2,6.7,15.1,8.6,23.1c2.9,0,5.3,0,7.7,0c0.6,1,1.8,2.1,1.7,2.9c-2.5,10.2,3.9,19.1,3.8,28.9c0,1.5,1,3.6,2.3,4.3
		c6.5,3.9,4.3,10.3,5,15.8c2.2,2.2,4.3,4.3,7.1,7c0,4.6,0,9.8,0,14.7c2.7,1,4.8,1.8,7.2,2.7c0.5,15.4-2.5,31.3,7.5,44.4
		c-2.7,6.9-5.1,13.1-7.5,19.5c1.2,1.7,2.4,3.6,2.8,4.1c-1,6.7-2.4,12.2-2.6,17.7c-0.3,13.7,0.1,27.4-0.2,41.1
		c-0.1,3.8-1.8,7.5-3,12.2c1.4,3.4,6,7.5,1.9,12.9c-3.7,4.8-3.4,9.3,2.4,14.2c-4.4,0-7.2,0-9.5,0c-1.1,1.6-2.4,2.6-2.3,3.4
		c1.1,8.4-3.5,15.3-5.9,22.7c-1.9,5.8-2.6,11.1,1.8,16.2c-2.5,3.2-5.4,6.9-10.2,13c0.5,1.6,1.8,6.3,3.2,11.2
		c-3.2,3.6-11.6,2.9-10.5,11.3c2.2,1.1,4.7,2.2,7.7,3.6c-4.6,7.8-9.1,15.4-13.5,22.9c-1.5,0.4-3.2,0.8-4.9,1.2c0,2.8,0,5.1,0,8.7
		c-3.5,2.9-7.6,6.3-11.1,9.2c0,5.8,0,10.6,0,16.1c-2.9,0-5.7,0-8.2,0c-4.1,11.7-10,19.1-24.3,35.1c-7.2,8-13.6,16.8-20.4,25.4
		c-1-0.6-3.3-1.9-7-4c-0.7,4.6-1.2,7.8-1.8,11.7c-2.7,0-5.5,0-7.1,0c-13.6,15.8-32.5,23.8-43.6,39.6c-4.7,0.3-8.7,0.5-14,0.8
		c1.5,2,2.4,3.2,3.5,4.7c-7.3,3-14.6,6.1-22,9.2c-5.1-1.3-10.4-2.8-15.5-4.1c-1.2,3.3-2,5.4-2.9,7.8c-5-1.5-9.7-2.9-14.9-4.5
		c-2.5,3.8-4.7,7-7.5,11.2c-3.4,0-8.1,0-12.3,0c-13,6.3-25.3,12.8-38.1,18.1c-4.1,1.7-9.5,0.3-14.1,0.3c-2.2,2.2-4.4,4.3-7.1,7.1
		c-4.6,0-9.8,0-11.2,0c-10.8,4.4-18,7.3-25.5,10.3c-3.1-2.3-6.8-5.1-11.6-8.7c-4.3,2.2-10.5,5.4-18,9.2c-8.1,0-17.7,0-28,0
		c-2,2.9-4.2,6.1-7.5,10.8c-10.4-2.4-22.1,7.3-34.9-1.3c-2.4,3.5-4.4,6.4-6.2,9c-23.1-3.3-44.8,9-67.3,0.6c-0.4,1.1-1.1,3.2-2.2,6.3
		c-8.6-1.7-18.2,3.3-26.7-3.6c-1.1-0.9-3.6-0.4-5.3-0.1c-5.5,1.1-11,2.5-16.5,3.5c-5.6,1-11.4-1.5-16.9,3c-2.5,2.1-8.1,0.2-12.2,0.7
		c-5.6,0.6-12.1-2.7-16.5,3.5c-8.5-1.2-17.9-0.7-25.1-4.3c-5.4-2.7-10.1-2.6-15.1-2.7c-18.5-0.4-37.2,1.6-54.8-6.9
		c-2.7-1.3-7.4,1.6-12.2,2.8c-1.9-0.7-5-3-8.1-2.9c-17.5,0.5-33.6-4.1-50-9.8c-13.5-4.7-28.3-7-43.4-3.8c-2.5-3.1-4.7-5.9-6.3-8
		c-4.8,0-8.4,0-12.1,0c-2.1-2.1-4.2-4.2-6.8-6.8c-23.6-2.8-47.7-5.6-73.8-8.7c-0.9-1.1-3.1-3.9-5.2-6.5c-10.4,2.5-19.1-1.3-27.4-4.7
		c-9.8-4-19.6-6.3-30.2-5.5C145.7,986,141.6,985.8,137.1,985.8z"/>
</g>
<g class="st1">
	<path class="st2" d="M281.3,357.8v-3.6h39l0.5,13.6h-5.4l-1.6-9.5h-15.7c-0.1,3.3-0.1,6.5-0.1,9.7c0,3.2,0,6.3,0,9.1h10l1-6.7h4
		v17.5h-4l-0.9-6.7h-10.1c0,3.7,0,7.2,0,10.5c0,3.3,0.1,6.5,0.1,9.7h17.3l1.6-9.5h5.4l-0.5,13.6h-40.6v-3.6l6.5-0.7
		c0.1-3.2,0.2-6.5,0.2-9.8s0-6.6,0-9.9v-3.3c0-3.3,0-6.5,0-9.8s-0.1-6.6-0.2-9.9L281.3,357.8z"/>
	<path class="st2" d="M327.3,405.6v-3.2l5-1c0.1-1.9,0.1-4,0.1-6.2c0-2.2,0-4.2,0-5.8v-4.1c0-2.1,0-3.8,0-5.1c0-1.3-0.1-2.7-0.2-4.2
		l-5.4-0.7v-2.9l12.9-4.9l1.2,0.8l0.5,6c4-4.5,8.4-6.7,13.2-6.7c3.4,0,6,1.1,7.8,3.3c1.8,2.2,2.8,5.7,2.8,10.5v8.1c0,1.8,0,3.7,0,6
		c0,2.2,0,4.3,0.1,6.2l4.7,0.9v3.2h-19.1v-3.2l5-1c0.1-1.9,0.1-4,0.1-6.2s0-4.2,0-5.9v-7.4c0-3-0.4-5.2-1.2-6.3
		c-0.8-1.2-2.2-1.7-4.2-1.7c-2.7,0-5.6,1.3-8.7,3.8v11.6c0,1.7,0,3.7,0,5.9c0,2.2,0,4.3,0.1,6.3l4.6,0.9v3.2L327.3,405.6
		L327.3,405.6z"/>
	<path class="st2" d="M392.3,357.8v-3.6H416v3.6l-6.8,0.8c-0.1,3.2-0.1,6.4-0.1,9.7c0,3.3,0,6.6,0,9.9v4.7c0,2.7,0,5.7,0,8.8
		c0,3.2,0.1,6.4,0.1,9.6h15.6l2.2-10.7h5.4l-0.8,14.9h-39.3v-3.6l6.5-0.7c0.1-3.3,0.2-6.5,0.2-9.6c0-3.2,0-6.2,0-9.2v-4.2
		c0-3.4,0-6.7,0-10c0-3.3-0.1-6.5-0.2-9.7L392.3,357.8z"/>
	<path class="st2" d="M467.1,406.5c-2.1,0-3.7-0.5-5-1.5c-1.3-1-2.2-2.5-2.6-4.3c-1.9,2-3.6,3.4-5.2,4.5c-1.5,1-3.6,1.5-6,1.5
		c-2.9,0-5.3-0.8-7.3-2.5c-2-1.7-3-4.1-3-7.2c0-1.7,0.4-3.2,1.2-4.6c0.8-1.4,2.2-2.7,4.1-4c2-1.2,4.8-2.5,8.6-3.6
		c1-0.4,2.2-0.7,3.5-1.1c1.3-0.4,2.6-0.7,4-1.1v-2.2c0-3.6-0.5-6.1-1.5-7.3c-1-1.3-2.8-1.9-5.3-1.9c-0.5,0-1,0-1.5,0.1
		c-0.5,0.1-1.1,0.1-1.7,0.2l-0.9,4.3c-0.2,1.9-0.7,3.2-1.6,4.1c-0.9,0.9-2,1.3-3.3,1.3c-2.5,0-3.9-1.2-4.3-3.5
		c0.5-3.1,2.1-5.6,5-7.4c2.9-1.9,6.6-2.8,11.3-2.8c4.5,0,7.8,1.1,9.8,3.2c2.1,2.1,3.1,5.7,3.1,10.8v16.9c0,2.3,0.7,3.5,2.2,3.5
		c1,0,1.9-0.6,2.7-1.7l1.8,1.5c-0.9,1.8-2,3-3.3,3.8S468.9,406.5,467.1,406.5z M446.9,395.3c0,2,0.5,3.5,1.6,4.4
		c1.1,0.9,2.4,1.4,3.9,1.4c0.9,0,1.8-0.2,2.6-0.6c0.9-0.4,2.2-1.3,4.1-2.6v-12.2c-1.1,0.4-2.1,0.7-3.1,1c-1,0.3-1.8,0.6-2.4,0.9
		c-2.6,1-4.4,2.2-5.3,3.6C447.4,392.3,446.9,393.8,446.9,395.3z"/>
	<path class="st2" d="M511.3,406.9c-2.9,0-5.8-0.4-8.6-1.1c-2.8-0.7-5.3-1.7-7.3-3l0.5-11.2h6l1.5,9.4c1.2,0.5,2.4,0.9,3.6,1.2
		c1.2,0.3,2.6,0.4,4.2,0.4c3.2,0,5.7-0.8,7.6-2.3c1.8-1.5,2.8-3.5,2.8-6.1c0-2.3-0.6-4.1-1.9-5.3c-1.3-1.3-3.4-2.5-6.2-3.6l-3.2-1.3
		c-4.2-1.8-7.6-4-10.1-6.5c-2.5-2.5-3.8-5.8-3.8-9.9c0-3,0.8-5.7,2.3-7.9c1.5-2.2,3.7-3.9,6.5-5c2.8-1.2,6-1.7,9.6-1.7
		c2.7,0,5.2,0.4,7.5,1.1s4.4,1.7,6.1,2.9l-0.5,10.5h-5.9l-1.5-9c-1.8-0.8-3.7-1.2-5.8-1.2c-2.6,0-4.8,0.7-6.6,2.1
		c-1.8,1.4-2.7,3.3-2.7,5.8c0,2.2,0.7,4,2.1,5.4c1.4,1.4,3.4,2.6,5.9,3.6l3.3,1.4c5.1,2.1,8.7,4.4,10.8,6.8c2.1,2.4,3.2,5.6,3.2,9.4
		c0,4.5-1.7,8.2-5.2,11C522,405.5,517.3,406.9,511.3,406.9z"/>
	<path class="st2" d="M554.9,406.6c-3.5,0-6.7-0.8-9.5-2.3c-2.8-1.5-5-3.8-6.7-6.7c-1.7-2.9-2.5-6.5-2.5-10.5
		c0-4.1,0.9-7.7,2.6-10.6c1.7-2.9,4-5.2,6.9-6.7c2.8-1.5,5.9-2.3,9.2-2.3c3.3,0,6.4,0.8,9.2,2.3c2.8,1.5,5.1,3.8,6.9,6.7
		c1.8,2.9,2.6,6.5,2.6,10.7c0,4.1-0.8,7.7-2.5,10.6c-1.7,2.9-3.9,5.2-6.7,6.7C561.5,405.9,558.4,406.6,554.9,406.6z M554.9,402.8
		c2.8,0,4.9-1.3,6.4-3.9c1.5-2.6,2.2-6.5,2.2-11.9c0-10.6-2.9-16-8.6-16c-5.7,0-8.5,5.3-8.5,16c0,5.3,0.7,9.3,2.2,11.9
		C549.9,401.6,552.1,402.8,554.9,402.8z"/>
	<path class="st2" d="M578.2,405.6v-3.2l5-0.9c0.1-1.9,0.1-4,0.1-6.2c0-2.2,0-4.2,0-5.9V356l-5.7-0.7v-3l13.9-3.5l1.2,0.7l-0.3,10.9
		v12.5c3.5-3.7,7.3-5.5,11.5-5.5c2.8,0,5.3,0.8,7.6,2.2c2.3,1.5,4.1,3.7,5.4,6.5c1.3,2.9,2,6.4,2,10.5c0,4.1-0.7,7.6-2.2,10.6
		s-3.4,5.3-5.8,6.9s-5.1,2.4-8.1,2.4c-2,0-3.9-0.4-5.6-1.2s-3.3-2.1-4.8-3.9l-1,4.9L578.2,405.6z M600.3,372.9
		c-1.2,0-2.4,0.3-3.7,0.9c-1.3,0.6-2.6,1.5-3.9,2.6v21.5c2.4,2.2,4.8,3.3,7.3,3.3c2.5,0,4.7-1.2,6.4-3.5c1.8-2.3,2.6-5.9,2.6-10.6
		c0-4.8-0.8-8.4-2.4-10.7C605,374,602.9,372.9,600.3,372.9z"/>
	<path class="st2" d="M624.6,405.6v-3.2l5-0.9c0.1-2,0.1-4.1,0.1-6.3c0-2.2,0-4.2,0-5.8v-4.1c0-2.1,0-3.8,0-5.1
		c0-1.3-0.1-2.7-0.2-4.2l-5.4-0.7v-2.9l12.9-4.9l1.2,0.8l0.8,9.1c1.2-3.2,2.8-5.7,4.8-7.4c2-1.7,4-2.6,6-2.6c1.4,0,2.7,0.4,3.8,1.1
		c1.2,0.7,1.9,1.8,2.3,3.1c-0.1,1.9-0.5,3.4-1.4,4.5c-0.9,1.1-2.1,1.6-3.6,1.6c-1.9,0-3.6-0.9-5.3-2.8l-0.7-0.8
		c-2.7,2.3-4.7,5.5-5.9,9.6v5.7c0,1.6,0,3.5,0,5.7c0,2.2,0,4.2,0.1,6.2l6.4,1.2v3.2L624.6,405.6L624.6,405.6z"/>
	<path class="st2" d="M676.3,406.6c-3.6,0-6.8-0.8-9.5-2.3c-2.7-1.5-4.9-3.8-6.4-6.7c-1.5-2.9-2.3-6.4-2.3-10.4
		c0-4.1,0.9-7.7,2.7-10.7c1.8-3,4.1-5.2,7-6.8c2.9-1.6,5.9-2.4,9.2-2.4c3,0,5.7,0.6,8,1.9c2.3,1.3,4,3.1,5.3,5.4
		c1.3,2.3,1.9,5.1,1.9,8.2c0,1.7-0.2,3.1-0.5,4.3h-23.7c0.2,4.4,1.4,7.8,3.5,10c2.1,2.2,4.8,3.3,8.1,3.3c2.3,0,4.2-0.5,5.8-1.4
		c1.6-0.9,3-2.1,4.3-3.5l2.2,2c-1.5,2.8-3.6,5-6.2,6.6C683,405.9,679.9,406.6,676.3,406.6z M676.3,371.1c-1.2,0-2.5,0.4-3.7,1.2
		c-1.2,0.8-2.2,2.1-3.1,3.9c-0.9,1.8-1.4,4.3-1.6,7.4h10.6c1.9,0,3.1-0.4,3.7-1.2c0.6-0.8,0.9-1.9,0.9-3.3c0-2.4-0.7-4.3-2-5.8
		C679.8,371.8,678.2,371.1,676.3,371.1z"/>
	<path class="st2" d="M697.7,405.6v-3.2l5-1c0-1.9,0.1-4,0.1-6.2c0-2.2,0-4.2,0-5.8v-4.1c0-2.1,0-3.8,0-5.1c0-1.3-0.1-2.7-0.2-4.2
		l-5.4-0.7v-2.9l12.9-4.9l1.2,0.8l0.5,6c1.9-2.1,3.9-3.8,6.1-5c2.2-1.2,4.5-1.8,6.9-1.8c5,0,8.2,2.4,9.7,7c2.1-2.5,4.2-4.3,6.4-5.4
		c2.2-1.1,4.5-1.7,6.9-1.7c3.5,0,6.1,1.1,7.9,3.3c1.8,2.2,2.6,5.6,2.6,10.4v8.3c0,1.8,0,3.7,0,5.9s0,4.3,0.1,6.2l4.7,0.9v3.2h-18.9
		v-3.2l4.8-1c0.1-1.9,0.1-4,0.1-6.2s0-4.2,0-5.9v-7.1c0-3.3-0.4-5.4-1.3-6.6c-0.9-1.1-2.3-1.7-4.2-1.7c-2.7,0-5.6,1.3-8.5,4
		c0.1,0.5,0.1,1.1,0.1,1.6c0,0.6,0,1.2,0,1.8v8.1c0,1.8,0,3.7,0,5.9s0,4.3,0.1,6.2l4.6,0.9v3.2h-19v-3.2l5-1c0-1.9,0.1-4,0.1-6.2
		s0-4.2,0-5.9v-7c0-3.1-0.4-5.3-1.2-6.6s-2.2-1.9-4.2-1.9c-1.4,0-2.9,0.4-4.3,1c-1.4,0.7-2.8,1.6-4.1,2.8v11.5c0,1.7,0,3.7,0,5.9
		c0,2.2,0,4.3,0.1,6.3l4.6,0.9v3.2L697.7,405.6L697.7,405.6z"/>
	<path class="st2" d="M786.2,406.6c-3.6,0-6.8-0.8-9.5-2.3s-4.9-3.8-6.4-6.7c-1.5-2.9-2.3-6.4-2.3-10.4c0-4.1,0.9-7.7,2.7-10.7
		s4.1-5.2,7-6.8c2.9-1.6,5.9-2.4,9.2-2.4c3,0,5.7,0.6,8,1.9c2.3,1.3,4,3.1,5.3,5.4c1.3,2.3,1.9,5.1,1.9,8.2c0,1.7-0.2,3.1-0.5,4.3
		h-23.7c0.2,4.4,1.4,7.8,3.5,10c2.1,2.2,4.8,3.3,8.1,3.3c2.3,0,4.2-0.5,5.8-1.4c1.6-0.9,3-2.1,4.3-3.5l2.2,2c-1.5,2.8-3.6,5-6.2,6.6
		C793,405.9,789.8,406.6,786.2,406.6z M786.2,371.1c-1.2,0-2.5,0.4-3.7,1.2c-1.2,0.8-2.2,2.1-3.1,3.9c-0.9,1.8-1.4,4.3-1.6,7.4h10.6
		c1.9,0,3.1-0.4,3.7-1.2c0.6-0.8,0.9-1.9,0.9-3.3c0-2.4-0.7-4.3-2-5.8C789.8,371.8,788.1,371.1,786.2,371.1z"/>
	<path class="st2" d="M820.6,406.6c-2.4,0-4.6-0.3-6.5-0.8c-2-0.5-4-1.4-5.9-2.4l-0.1-9h5.2l1.4,7.2c1.9,0.8,3.9,1.2,6,1.2
		c2.6,0,4.6-0.5,5.9-1.4c1.3-0.9,1.9-2.2,1.9-3.9c0-1.4-0.5-2.6-1.5-3.5c-1-0.9-2.8-1.8-5.3-2.6l-3.9-1.3c-2.9-0.9-5.2-2.3-6.9-4.1
		c-1.7-1.8-2.5-4.1-2.5-6.8c0-2.2,0.6-4.1,1.7-5.9c1.1-1.8,2.8-3.2,5-4.3c2.2-1.1,4.9-1.6,8-1.6c2.2,0,4.2,0.3,6.1,0.8
		s3.7,1.3,5.5,2.4l-0.4,8.1h-5.1l-1.4-6.5c-1.4-0.6-3-0.9-4.8-0.9c-2.1,0-3.7,0.4-4.8,1.3c-1.1,0.9-1.7,2.1-1.7,3.6
		c0,1.4,0.5,2.5,1.4,3.4c1,0.9,2.8,1.7,5.4,2.6l3.1,0.9c3.8,1.3,6.5,2.9,8.1,4.8c1.6,1.9,2.4,4.2,2.4,6.9c0,3.5-1.4,6.3-4.2,8.6
		C829.9,405.5,825.8,406.6,820.6,406.6z"/>
	<path class="st2" d="M871.2,406.5c-2.1,0-3.7-0.5-5-1.5c-1.3-1-2.2-2.5-2.6-4.3c-1.9,2-3.6,3.4-5.2,4.5c-1.5,1-3.6,1.5-6,1.5
		c-2.9,0-5.3-0.8-7.3-2.5c-2-1.7-3-4.1-3-7.2c0-1.7,0.4-3.2,1.2-4.6c0.8-1.4,2.2-2.7,4.1-4c2-1.2,4.8-2.5,8.6-3.6
		c1-0.4,2.2-0.7,3.5-1.1c1.3-0.4,2.6-0.7,4-1.1v-2.2c0-3.6-0.5-6.1-1.5-7.3c-1-1.3-2.8-1.9-5.3-1.9c-0.5,0-1,0-1.5,0.1
		c-0.5,0.1-1.1,0.1-1.7,0.2l-0.9,4.3c-0.2,1.9-0.7,3.2-1.6,4.1c-0.9,0.9-2,1.3-3.3,1.3c-2.5,0-3.9-1.2-4.3-3.5
		c0.5-3.1,2.1-5.6,5-7.4c2.9-1.9,6.6-2.8,11.3-2.8c4.5,0,7.8,1.1,9.8,3.2c2.1,2.1,3.1,5.7,3.1,10.8v16.9c0,2.3,0.7,3.5,2.2,3.5
		c1,0,1.9-0.6,2.7-1.7l1.8,1.5c-0.9,1.8-2,3-3.3,3.8S873.1,406.5,871.2,406.5z M851.1,395.3c0,2,0.5,3.5,1.6,4.4
		c1.1,0.9,2.4,1.4,3.9,1.4c0.9,0,1.8-0.2,2.6-0.6c0.9-0.4,2.2-1.3,4.1-2.6v-12.2c-1.1,0.4-2.1,0.7-3.1,1c-1,0.3-1.8,0.6-2.4,0.9
		c-2.6,1-4.4,2.2-5.3,3.6C851.5,392.3,851.1,393.8,851.1,395.3z"/>
	<path class="st2" d="M896.8,402.3c0,3.3-0.8,6.3-2.3,9c-1.5,2.7-3.5,4.9-5.8,6.8c-2.4,1.8-4.8,3.2-7.2,4l-1.1-2.9
		c2.6-1.3,4.8-2.9,6.7-4.8c1.9-1.8,3.3-4,4.2-6.5l-2.8-1.9c-1.3-0.8-2.2-1.8-2.8-2.8c-0.6-1.1-0.9-2.1-0.9-3.1c0-1.7,0.5-3,1.6-4.1
		c1.1-1.1,2.5-1.7,4.2-1.7c0.9,0,1.7,0.2,2.6,0.5s1.7,0.9,2.7,1.8c0.4,1,0.7,2,0.8,2.9C896.7,400.3,896.8,401.3,896.8,402.3z"/>
</g>
<g class="st1">
	<path class="st2" d="M285.5,456.9v-3.3h14.7v3.3l-4.3,0.9l-12.7,33.2h-4.6l-14-33.5l-4-0.7v-3.3h20.4v3.3l-6,0.9l8.5,22.5l7.7-22.4
		L285.5,456.9z"/>
	<path class="st2" d="M331.4,491.7c-2.1,0-3.7-0.5-5-1.5c-1.3-1-2.2-2.5-2.6-4.3c-1.9,2-3.6,3.4-5.2,4.5c-1.5,1-3.6,1.5-6,1.5
		c-2.9,0-5.3-0.8-7.3-2.5c-2-1.7-3-4.1-3-7.2c0-1.7,0.4-3.2,1.2-4.6c0.8-1.4,2.2-2.7,4.1-4c2-1.2,4.8-2.5,8.6-3.6
		c1-0.4,2.2-0.7,3.5-1.1c1.3-0.4,2.6-0.7,4-1.1v-2.2c0-3.6-0.5-6.1-1.5-7.3c-1-1.3-2.8-1.9-5.3-1.9c-0.5,0-1,0-1.5,0.1
		c-0.5,0.1-1.1,0.1-1.7,0.2l-0.9,4.3c-0.2,1.9-0.8,3.2-1.6,4.1c-0.9,0.9-2,1.3-3.3,1.3c-2.5,0-3.9-1.2-4.3-3.5
		c0.5-3.1,2.1-5.6,5-7.4c2.9-1.9,6.6-2.8,11.3-2.8c4.5,0,7.8,1.1,9.8,3.2c2.1,2.1,3.1,5.7,3.1,10.8v16.9c0,2.3,0.7,3.5,2.2,3.5
		c1,0,1.9-0.6,2.7-1.7l1.8,1.5c-0.9,1.8-2,3-3.3,3.8C334.8,491.3,333.2,491.7,331.4,491.7z M311.2,480.5c0,2,0.5,3.5,1.6,4.4
		c1.1,0.9,2.4,1.4,3.9,1.4c0.9,0,1.8-0.2,2.6-0.6c0.9-0.4,2.2-1.3,4.1-2.6v-12.2c-1.1,0.4-2.1,0.7-3.1,1c-1,0.3-1.8,0.6-2.4,0.9
		c-2.6,1-4.4,2.2-5.3,3.6C311.7,477.5,311.2,479,311.2,480.5z"/>
	<path class="st2" d="M355.2,491.9c-2.4,0-4.6-0.3-6.5-0.8c-2-0.5-4-1.4-5.9-2.4l-0.1-9h5.2l1.4,7.2c1.9,0.8,3.9,1.2,6,1.2
		c2.6,0,4.6-0.5,5.9-1.4c1.3-0.9,1.9-2.2,1.9-3.9c0-1.4-0.5-2.6-1.5-3.5c-1-0.9-2.8-1.8-5.3-2.6l-3.9-1.3c-2.9-0.9-5.2-2.3-6.9-4.1
		c-1.7-1.8-2.5-4.1-2.5-6.8c0-2.2,0.6-4.1,1.7-5.9c1.1-1.8,2.8-3.2,5-4.3c2.2-1.1,4.9-1.6,8-1.6c2.2,0,4.2,0.3,6.1,0.8
		c1.8,0.5,3.7,1.3,5.5,2.4l-0.4,8.1h-5.1l-1.4-6.5c-1.4-0.6-3-0.9-4.8-0.9c-2.1,0-3.7,0.4-4.8,1.3c-1.1,0.9-1.7,2.1-1.7,3.6
		c0,1.4,0.5,2.5,1.4,3.4c1,0.9,2.8,1.7,5.4,2.6l3.1,0.9c3.8,1.3,6.5,2.9,8.1,4.8c1.6,1.9,2.4,4.2,2.4,6.9c0,3.5-1.4,6.3-4.2,8.6
		C364.4,490.7,360.4,491.9,355.2,491.9z"/>
	<path class="st2" d="M423.4,491.7c-2.1,0-3.7-0.5-5-1.5c-1.3-1-2.2-2.5-2.6-4.3c-1.9,2-3.6,3.4-5.2,4.5c-1.5,1-3.6,1.5-6,1.5
		c-2.9,0-5.3-0.8-7.3-2.5c-2-1.7-3-4.1-3-7.2c0-1.7,0.4-3.2,1.2-4.6c0.8-1.4,2.2-2.7,4.1-4c2-1.2,4.8-2.5,8.6-3.6
		c1-0.4,2.2-0.7,3.5-1.1c1.3-0.4,2.6-0.7,4-1.1v-2.2c0-3.6-0.5-6.1-1.5-7.3c-1-1.3-2.8-1.9-5.3-1.9c-0.5,0-1,0-1.5,0.1
		c-0.5,0.1-1.1,0.1-1.7,0.2l-0.9,4.3c-0.2,1.9-0.8,3.2-1.6,4.1c-0.9,0.9-2,1.3-3.3,1.3c-2.5,0-3.9-1.2-4.3-3.5
		c0.5-3.1,2.1-5.6,5-7.4c2.9-1.9,6.6-2.8,11.3-2.8c4.5,0,7.8,1.1,9.8,3.2c2.1,2.1,3.1,5.7,3.1,10.8v16.9c0,2.3,0.7,3.5,2.2,3.5
		c1,0,1.9-0.6,2.7-1.7l1.8,1.5c-0.9,1.8-2,3-3.3,3.8C426.8,491.3,425.3,491.7,423.4,491.7z M403.3,480.5c0,2,0.5,3.5,1.6,4.4
		c1.1,0.9,2.4,1.4,3.9,1.4c0.9,0,1.8-0.2,2.6-0.6c0.9-0.4,2.2-1.3,4.1-2.6v-12.2c-1.1,0.4-2.1,0.7-3.1,1c-1,0.3-1.8,0.6-2.4,0.9
		c-2.6,1-4.4,2.2-5.3,3.6C403.7,477.5,403.3,479,403.3,480.5z"/>
	<path class="st2" d="M470,491.9c-3.6,0-6.8-0.8-9.5-2.3s-4.9-3.8-6.4-6.7c-1.5-2.9-2.3-6.4-2.3-10.4c0-4.1,0.9-7.7,2.7-10.7
		c1.8-3,4.1-5.2,7-6.8c2.9-1.6,5.9-2.4,9.2-2.4c3,0,5.7,0.6,8,1.9c2.3,1.3,4,3.1,5.3,5.4c1.3,2.3,1.9,5.1,1.9,8.2
		c0,1.7-0.2,3.1-0.5,4.3h-23.7c0.2,4.4,1.4,7.8,3.5,10c2.1,2.2,4.8,3.3,8.1,3.3c2.3,0,4.2-0.5,5.8-1.4c1.6-0.9,3-2.1,4.3-3.5l2.2,2
		c-1.5,2.8-3.6,5-6.2,6.6C476.8,491.1,473.6,491.9,470,491.9z M470,456.3c-1.2,0-2.5,0.4-3.7,1.2c-1.2,0.8-2.2,2.1-3.1,3.9
		c-0.9,1.8-1.4,4.3-1.6,7.4h10.6c1.9,0,3.1-0.4,3.7-1.2c0.6-0.8,0.9-1.9,0.9-3.3c0-2.4-0.7-4.3-2-5.8
		C473.6,457,471.9,456.3,470,456.3z"/>
	<path class="st2" d="M491.4,490.8v-3.2l5-1c0.1-1.9,0.1-4,0.1-6.2c0-2.2,0-4.2,0-5.8v-4.1c0-2.1,0-3.8,0-5.1c0-1.3-0.1-2.7-0.2-4.2
		l-5.4-0.7v-2.9l12.9-4.9l1.2,0.8l0.5,6c4-4.5,8.4-6.7,13.2-6.7c3.4,0,6,1.1,7.8,3.3c1.8,2.2,2.8,5.7,2.8,10.5v8.1c0,1.8,0,3.7,0,6
		c0,2.2,0,4.3,0.1,6.2l4.7,0.9v3.2H515v-3.2l5-1c0-1.9,0.1-4,0.1-6.2c0-2.2,0-4.2,0-5.9v-7.4c0-3-0.4-5.2-1.2-6.3
		c-0.8-1.2-2.2-1.7-4.2-1.7c-2.7,0-5.6,1.3-8.7,3.8v11.6c0,1.7,0,3.7,0,5.9c0,2.2,0,4.3,0.1,6.3l4.6,0.9v3.2L491.4,490.8
		L491.4,490.8z"/>
	<path class="st2" d="M557.2,491.9c-3.5,0-6.7-0.8-9.5-2.3c-2.8-1.5-5-3.7-6.5-6.7c-1.6-2.9-2.4-6.4-2.4-10.6
		c0-4.2,0.9-7.7,2.7-10.7c1.8-2.9,4.1-5.2,7.1-6.7c2.9-1.5,6.1-2.3,9.6-2.3c2.5,0,4.8,0.5,6.9,1.4s3.7,2.2,5,3.8
		c1.3,1.6,2,3.4,2.3,5.4c-0.6,2.3-2.1,3.4-4.4,3.4c-2.9,0-4.6-1.8-5-5.4l-1-4.6c-0.5-0.1-0.9-0.2-1.4-0.2c-0.5,0-0.9-0.1-1.4-0.1
		c-1.9,0-3.6,0.5-5.2,1.6c-1.6,1.1-2.9,2.7-3.8,4.9c-1,2.2-1.5,5-1.5,8.4c0,4.7,1.1,8.3,3.2,10.8c2.1,2.5,4.9,3.7,8.4,3.7
		c2.1,0,3.9-0.5,5.6-1.4c1.7-0.9,3-2.2,4.2-3.8l2.3,1.7c-1.3,3.1-3.2,5.5-5.8,7.2C564,491,560.8,491.9,557.2,491.9z"/>
	<path class="st2" d="M596.1,491.9c-3.5,0-6.7-0.8-9.5-2.3c-2.8-1.5-5-3.8-6.7-6.7c-1.7-2.9-2.5-6.5-2.5-10.5
		c0-4.1,0.9-7.7,2.6-10.6c1.7-2.9,4-5.2,6.9-6.7c2.8-1.5,5.9-2.3,9.2-2.3c3.3,0,6.4,0.8,9.2,2.3c2.8,1.5,5.1,3.8,6.9,6.7
		c1.8,2.9,2.6,6.5,2.6,10.7c0,4.1-0.8,7.7-2.5,10.6c-1.7,2.9-3.9,5.2-6.7,6.7C602.7,491.1,599.6,491.9,596.1,491.9z M596.1,488.1
		c2.8,0,4.9-1.3,6.4-3.9c1.5-2.6,2.2-6.5,2.2-11.9c0-10.6-2.9-16-8.6-16c-5.7,0-8.5,5.3-8.5,16c0,5.3,0.7,9.3,2.2,11.9
		C591.2,486.8,593.3,488.1,596.1,488.1z"/>
	<path class="st2" d="M620.3,490.8v-3.2l5-1c0.1-1.9,0.1-4,0.1-6.2c0-2.2,0-4.2,0-5.8v-4.1c0-2.1,0-3.8,0-5.1c0-1.3-0.1-2.7-0.2-4.2
		l-5.4-0.7v-2.9l12.9-4.9l1.2,0.8l0.5,6c4-4.5,8.4-6.7,13.2-6.7c3.4,0,6,1.1,7.8,3.3c1.8,2.2,2.8,5.7,2.8,10.5v8.1c0,1.8,0,3.7,0,6
		c0,2.2,0,4.3,0.1,6.2l4.7,0.9v3.2h-19.1v-3.2l5-1c0-1.9,0.1-4,0.1-6.2c0-2.2,0-4.2,0-5.9v-7.4c0-3-0.4-5.2-1.2-6.3
		c-0.8-1.2-2.2-1.7-4.2-1.7c-2.7,0-5.6,1.3-8.7,3.8v11.6c0,1.7,0,3.7,0,5.9c0,2.2,0,4.3,0.1,6.3l4.6,0.9v3.2L620.3,490.8
		L620.3,490.8z"/>
	<path class="st2" d="M681,491.9c-3.1,0-5.5-0.8-7.3-2.3c-1.8-1.5-2.6-4-2.6-7.4c0-1.2,0-2.3,0-3.4c0-1.1,0-2.3,0-3.8v-16.5h-5.7v-4
		l6.3-0.8l2.9-10.6h6.3l-0.3,10.7h9.3v4.7h-9.4v22.9c0,1.9,0.4,3.3,1.1,4.2c0.7,0.9,1.7,1.3,3,1.3c1.4,0,3-0.6,4.7-1.9l1.9,1.9
		c-1,1.6-2.3,2.9-4,3.8C685.5,491.4,683.4,491.9,681,491.9z"/>
	<path class="st2" d="M693.7,490.8v-3.2l5-0.9c0.1-2,0.1-4.1,0.1-6.3c0-2.2,0-4.2,0-5.8v-4.1c0-2.1,0-3.8,0-5.1
		c0-1.3-0.1-2.7-0.2-4.2l-5.4-0.7v-2.9l12.9-4.9l1.2,0.8l0.8,9.1c1.2-3.2,2.8-5.7,4.8-7.4c2-1.7,4-2.6,6-2.6c1.4,0,2.7,0.4,3.8,1.1
		c1.2,0.7,1.9,1.8,2.3,3.1c-0.1,1.9-0.5,3.4-1.4,4.5c-0.9,1.1-2.1,1.6-3.6,1.6c-1.9,0-3.6-0.9-5.3-2.8l-0.7-0.8
		c-2.7,2.3-4.7,5.5-5.9,9.6v5.7c0,1.6,0,3.5,0,5.7c0,2.2,0,4.2,0.1,6.2l6.4,1.2v3.2L693.7,490.8L693.7,490.8z"/>
	<path class="st2" d="M756.2,491.7c-2.1,0-3.7-0.5-5-1.5c-1.3-1-2.2-2.5-2.6-4.3c-1.9,2-3.6,3.4-5.2,4.5c-1.5,1-3.6,1.5-6,1.5
		c-2.9,0-5.3-0.8-7.3-2.5c-2-1.7-3-4.1-3-7.2c0-1.7,0.4-3.2,1.2-4.6c0.8-1.4,2.2-2.7,4.1-4c2-1.2,4.8-2.5,8.6-3.6
		c1-0.4,2.2-0.7,3.5-1.1c1.3-0.4,2.6-0.7,4-1.1v-2.2c0-3.6-0.5-6.1-1.5-7.3c-1-1.3-2.8-1.9-5.3-1.9c-0.5,0-1,0-1.5,0.1
		c-0.5,0.1-1.1,0.1-1.7,0.2l-0.9,4.3c-0.2,1.9-0.8,3.2-1.6,4.1c-0.9,0.9-2,1.3-3.3,1.3c-2.5,0-3.9-1.2-4.3-3.5
		c0.5-3.1,2.1-5.6,5-7.4c2.9-1.9,6.6-2.8,11.3-2.8c4.5,0,7.8,1.1,9.8,3.2c2.1,2.1,3.1,5.7,3.1,10.8v16.9c0,2.3,0.7,3.5,2.2,3.5
		c1,0,1.9-0.6,2.7-1.7l1.8,1.5c-0.9,1.8-2,3-3.3,3.8C759.6,491.3,758,491.7,756.2,491.7z M736,480.5c0,2,0.5,3.5,1.6,4.4
		c1.1,0.9,2.4,1.4,3.9,1.4c0.9,0,1.8-0.2,2.6-0.6c0.9-0.4,2.2-1.3,4.1-2.6v-12.2c-1.1,0.4-2.1,0.7-3.1,1s-1.8,0.6-2.4,0.9
		c-2.6,1-4.4,2.2-5.3,3.6C736.5,477.5,736,479,736,480.5z"/>
	<path class="st2" d="M766.8,490.8v-3.2l5-0.9c0-2,0.1-4.1,0.1-6.3c0-2.2,0-4.2,0-5.8v-4.1c0-2.1,0-3.8,0-5.1c0-1.3-0.1-2.7-0.2-4.2
		l-5.4-0.7v-2.9l12.9-4.9l1.2,0.8l0.8,9.1c1.2-3.2,2.8-5.7,4.8-7.4s4-2.6,6-2.6c1.4,0,2.7,0.4,3.8,1.1c1.2,0.7,1.9,1.8,2.3,3.1
		c-0.1,1.9-0.5,3.4-1.4,4.5c-0.9,1.1-2.1,1.6-3.6,1.6c-1.9,0-3.6-0.9-5.3-2.8l-0.7-0.8c-2.7,2.3-4.7,5.5-5.9,9.6v5.7
		c0,1.6,0,3.5,0,5.7c0,2.2,0,4.2,0.1,6.2l6.4,1.2v3.2L766.8,490.8L766.8,490.8z"/>
	<path class="st2" d="M846.5,491.5l-0.6-6.8c-3.8,4.8-8.2,7.2-13.2,7.2c-3.2,0-5.8-1-7.7-3.1c-1.9-2.1-2.9-5.7-2.8-10.8l0.3-19.1
		l-5-1.1v-3L831,453l0.9,0.9l-0.4,10.8v12.9c0,2.9,0.5,4.9,1.4,6.1c0.9,1.2,2.2,1.7,3.9,1.7c1.4,0,2.9-0.4,4.5-1.2s3-1.9,4.4-3.2
		l0.2-22.2l-4.9-1.1v-2.9l13.2-1.8l1,0.9l-0.2,10.8v21.8l4.7,1v3.2L846.5,491.5z"/>
	<path class="st2" d="M864.5,490.8v-3.2l5-1c0-1.9,0.1-4,0.1-6.2c0-2.2,0-4.2,0-5.8v-4.1c0-2.1,0-3.8,0-5.1c0-1.3-0.1-2.7-0.2-4.2
		l-5.4-0.7v-2.9l12.9-4.9l1.2,0.8l0.5,6c4-4.5,8.4-6.7,13.2-6.7c3.4,0,6,1.1,7.8,3.3c1.8,2.2,2.7,5.7,2.7,10.5v8.1c0,1.8,0,3.7,0,6
		c0,2.2,0,4.3,0.1,6.2l4.7,0.9v3.2H888v-3.2l5-1c0.1-1.9,0.1-4,0.1-6.2c0-2.2,0-4.2,0-5.9v-7.4c0-3-0.4-5.2-1.2-6.3
		s-2.2-1.7-4.2-1.7c-2.7,0-5.6,1.3-8.7,3.8v11.6c0,1.7,0,3.7,0,5.9c0,2.2,0,4.3,0.1,6.3l4.6,0.9v3.2L864.5,490.8L864.5,490.8z"/>
</g>
<g class="st1">
	<path class="st2" d="M282,577.1c-3.6,0-6.8-0.8-9.5-2.3c-2.7-1.5-4.9-3.8-6.4-6.7c-1.5-2.9-2.3-6.4-2.3-10.4
		c0-4.1,0.9-7.7,2.7-10.7c1.8-3,4.1-5.2,7-6.8c2.9-1.6,5.9-2.4,9.2-2.4c3,0,5.7,0.6,8,1.9c2.3,1.3,4,3.1,5.3,5.4
		c1.3,2.3,1.9,5.1,1.9,8.2c0,1.7-0.2,3.1-0.5,4.3h-23.7c0.2,4.4,1.4,7.8,3.5,10c2.1,2.2,4.8,3.3,8.1,3.3c2.3,0,4.2-0.5,5.8-1.4
		c1.6-0.9,3-2.1,4.3-3.5l2.2,2c-1.5,2.8-3.6,5-6.2,6.6C288.8,576.3,285.6,577.1,282,577.1z M282,541.5c-1.2,0-2.5,0.4-3.7,1.2
		c-1.2,0.8-2.2,2.1-3.1,3.9c-0.9,1.8-1.4,4.3-1.6,7.4h10.6c1.9,0,3.1-0.4,3.7-1.2c0.6-0.8,0.9-1.9,0.9-3.3c0-2.4-0.7-4.3-2-5.8
		C285.6,542.3,283.9,541.5,282,541.5z"/>
	<path class="st2" d="M316.4,577.1c-2.4,0-4.6-0.3-6.5-0.8c-2-0.5-4-1.4-5.9-2.4l-0.1-9h5.2l1.4,7.2c1.9,0.8,3.9,1.2,6,1.2
		c2.6,0,4.6-0.5,5.9-1.4c1.3-0.9,1.9-2.2,1.9-3.9c0-1.4-0.5-2.6-1.5-3.5c-1-0.9-2.8-1.8-5.3-2.6l-3.9-1.3c-2.9-0.9-5.2-2.3-6.9-4.1
		c-1.7-1.8-2.5-4.1-2.5-6.8c0-2.2,0.6-4.1,1.7-5.9c1.1-1.8,2.8-3.2,5-4.3c2.2-1.1,4.9-1.6,8-1.6c2.2,0,4.2,0.3,6.1,0.8
		c1.8,0.5,3.7,1.3,5.5,2.4l-0.4,8.1H325l-1.4-6.5c-1.4-0.6-3-0.9-4.8-0.9c-2.1,0-3.7,0.4-4.8,1.3c-1.1,0.9-1.7,2.1-1.7,3.6
		c0,1.4,0.5,2.5,1.4,3.4c1,0.9,2.8,1.7,5.4,2.6l3.1,0.9c3.8,1.3,6.5,2.9,8.1,4.8c1.6,1.9,2.4,4.2,2.4,6.9c0,3.5-1.4,6.3-4.2,8.6
		C325.6,575.9,321.6,577.1,316.4,577.1z"/>
	<path class="st2" d="M336.9,594v-3.2l5.3-1c0.1-2.3,0.1-4.5,0.1-6.5c0-2.1,0-4.1,0-6.1v-21.6c0-2.1,0-3.8,0-5.1
		c0-1.3-0.1-2.7-0.2-4.2l-5.4-0.7v-2.9l12.9-4.9l1.2,0.8l0.4,4.7c3.5-3.7,7.4-5.5,11.6-5.5c2.8,0,5.3,0.8,7.6,2.3
		c2.3,1.5,4.1,3.7,5.4,6.6c1.3,2.9,2,6.4,2,10.5c0,4.1-0.7,7.6-2.2,10.6c-1.5,3-3.4,5.3-5.8,6.9c-2.4,1.6-5.1,2.4-8.1,2.4
		c-1.9,0-3.7-0.4-5.3-1.1c-1.7-0.7-3.2-1.9-4.7-3.5v4.6c0,1.9,0,3.9,0,6c0,2.1,0.1,4.3,0.1,6.5l6,1.2v3.2L336.9,594L336.9,594z
		 M359.1,543.3c-1.2,0-2.4,0.3-3.6,0.9c-1.2,0.6-2.5,1.4-3.8,2.5v21.9c2.2,2,4.5,3,6.9,3c2.6,0,4.8-1.1,6.5-3.4
		c1.8-2.2,2.7-5.8,2.7-10.6c0-4.8-0.8-8.3-2.4-10.8C363.8,544.5,361.7,543.3,359.1,543.3z"/>
	<path class="st2" d="M412.4,576.9c-2.1,0-3.7-0.5-5-1.5c-1.3-1-2.2-2.5-2.6-4.3c-1.9,2-3.6,3.4-5.2,4.5c-1.5,1-3.6,1.5-6,1.5
		c-2.9,0-5.3-0.8-7.3-2.5c-2-1.7-3-4.1-3-7.2c0-1.7,0.4-3.2,1.2-4.6c0.8-1.4,2.2-2.7,4.1-4c2-1.2,4.8-2.5,8.6-3.6
		c1-0.4,2.2-0.7,3.5-1.1c1.3-0.4,2.6-0.7,4-1.1v-2.2c0-3.6-0.5-6.1-1.5-7.3c-1-1.3-2.8-1.9-5.3-1.9c-0.5,0-1,0-1.5,0.1
		c-0.5,0.1-1.1,0.1-1.7,0.2l-0.9,4.3c-0.2,1.9-0.8,3.2-1.6,4.1c-0.9,0.9-2,1.3-3.3,1.3c-2.5,0-3.9-1.2-4.3-3.5
		c0.5-3.1,2.1-5.6,5-7.4c2.9-1.9,6.6-2.8,11.3-2.8c4.5,0,7.8,1.1,9.8,3.2c2.1,2.1,3.1,5.7,3.1,10.8v16.9c0,2.3,0.7,3.5,2.2,3.5
		c1,0,1.9-0.6,2.7-1.7l1.8,1.5c-0.9,1.8-2,3-3.3,3.8C415.8,576.5,414.3,576.9,412.4,576.9z M392.3,565.7c0,2,0.5,3.5,1.6,4.4
		c1.1,0.9,2.4,1.4,3.9,1.4c0.9,0,1.8-0.2,2.6-0.6c0.9-0.4,2.2-1.3,4.1-2.6V556c-1.1,0.4-2.1,0.7-3.1,1c-1,0.3-1.8,0.6-2.4,0.9
		c-2.6,1-4.4,2.2-5.3,3.6C392.7,562.8,392.3,564.2,392.3,565.7z"/>
	<path class="st2" d="M441.6,577.1c-3.5,0-6.7-0.8-9.5-2.3c-2.8-1.5-5-3.7-6.5-6.7c-1.6-2.9-2.4-6.4-2.4-10.6
		c0-4.2,0.9-7.7,2.7-10.7c1.8-2.9,4.1-5.2,7.1-6.7c2.9-1.5,6.1-2.3,9.6-2.3c2.5,0,4.8,0.5,6.9,1.4s3.7,2.2,5,3.8
		c1.3,1.6,2,3.4,2.3,5.4c-0.6,2.3-2.1,3.4-4.4,3.4c-2.9,0-4.6-1.8-5-5.4l-1-4.6c-0.5-0.1-0.9-0.2-1.4-0.2c-0.5,0-0.9-0.1-1.4-0.1
		c-1.9,0-3.6,0.5-5.1,1.6c-1.6,1.1-2.9,2.7-3.8,4.9c-1,2.2-1.5,5-1.5,8.4c0,4.7,1.1,8.3,3.2,10.8c2.1,2.5,4.9,3.7,8.4,3.7
		c2.1,0,3.9-0.5,5.6-1.4c1.7-0.9,3-2.2,4.2-3.8l2.3,1.7c-1.3,3.2-3.2,5.5-5.8,7.2C448.4,576.3,445.3,577.1,441.6,577.1z"/>
	<path class="st2" d="M461.7,576v-3.2l5.1-1c0-1.9,0.1-4,0.1-6.2c0-2.2,0-4.2,0-5.8v-3.6c0-2.1,0-3.9,0-5.3c0-1.4-0.1-2.9-0.2-4.5
		l-5.5-0.7v-2.9l13.9-4.9l1.2,0.8l-0.2,10.9v10.2c0,1.7,0,3.6,0,5.8c0,2.2,0,4.4,0.1,6.3l4.7,0.9v3.2L461.7,576L461.7,576z
		 M471.5,530.6c-1.7,0-3-0.5-4.2-1.5c-1.1-1-1.7-2.3-1.7-4c0-1.7,0.6-3,1.7-4c1.1-1,2.5-1.5,4.2-1.5c1.7,0,3,0.5,4.1,1.5
		c1.1,1,1.7,2.4,1.7,4c0,1.6-0.6,2.9-1.7,4C474.5,530.1,473.2,530.6,471.5,530.6z"/>
	<path class="st2" d="M504.6,577.1c-3.5,0-6.7-0.8-9.5-2.3c-2.8-1.5-5-3.8-6.7-6.7c-1.7-2.9-2.5-6.5-2.5-10.5
		c0-4.1,0.9-7.7,2.6-10.6c1.7-2.9,4-5.2,6.9-6.7c2.8-1.5,5.9-2.3,9.2-2.3c3.3,0,6.4,0.8,9.2,2.3c2.8,1.5,5.1,3.8,6.9,6.7
		c1.8,2.9,2.6,6.5,2.6,10.7c0,4.1-0.8,7.7-2.5,10.6c-1.7,2.9-3.9,5.2-6.7,6.7C511.3,576.3,508.1,577.1,504.6,577.1z M504.6,573.3
		c2.8,0,4.9-1.3,6.4-3.9c1.5-2.6,2.2-6.5,2.2-11.9c0-10.6-2.9-16-8.6-16c-5.7,0-8.5,5.3-8.5,16c0,5.3,0.7,9.3,2.2,11.9
		C499.7,572,501.8,573.3,504.6,573.3z"/>
	<path class="st2" d="M546,594v-3.2l5.3-1c0-2.3,0.1-4.5,0.1-6.5c0-2.1,0-4.1,0-6.1v-21.6c0-2.1,0-3.8,0-5.1c0-1.3-0.1-2.7-0.2-4.2
		l-5.4-0.7v-2.9l12.9-4.9l1.2,0.8l0.4,4.7c3.5-3.7,7.4-5.5,11.6-5.5c2.8,0,5.3,0.8,7.6,2.3c2.3,1.5,4.1,3.7,5.4,6.6
		c1.3,2.9,2,6.4,2,10.5c0,4.1-0.7,7.6-2.2,10.6c-1.5,3-3.4,5.3-5.8,6.9c-2.4,1.6-5.1,2.4-8.1,2.4c-1.9,0-3.7-0.4-5.3-1.1
		c-1.7-0.7-3.2-1.9-4.7-3.5v4.6c0,1.9,0,3.9,0,6c0,2.1,0.1,4.3,0.1,6.5l6,1.2v3.2L546,594L546,594z M568.3,543.3
		c-1.2,0-2.4,0.3-3.6,0.9c-1.2,0.6-2.5,1.4-3.8,2.5v21.9c2.2,2,4.5,3,6.9,3c2.6,0,4.8-1.1,6.5-3.4c1.8-2.2,2.7-5.8,2.7-10.6
		c0-4.8-0.8-8.3-2.4-10.8C572.9,544.5,570.8,543.3,568.3,543.3z"/>
	<path class="st2" d="M621.5,576.9c-2.1,0-3.7-0.5-5-1.5c-1.3-1-2.2-2.5-2.6-4.3c-1.9,2-3.6,3.4-5.2,4.5c-1.5,1-3.6,1.5-6,1.5
		c-2.9,0-5.3-0.8-7.3-2.5c-2-1.7-3-4.1-3-7.2c0-1.7,0.4-3.2,1.2-4.6c0.8-1.4,2.2-2.7,4.1-4c2-1.2,4.8-2.5,8.6-3.6
		c1-0.4,2.2-0.7,3.5-1.1c1.3-0.4,2.6-0.7,4-1.1v-2.2c0-3.6-0.5-6.1-1.5-7.3c-1-1.3-2.8-1.9-5.3-1.9c-0.5,0-1,0-1.5,0.1
		c-0.5,0.1-1.1,0.1-1.7,0.2l-0.9,4.3c-0.2,1.9-0.7,3.2-1.6,4.1c-0.9,0.9-2,1.3-3.3,1.3c-2.5,0-3.9-1.2-4.3-3.5
		c0.5-3.1,2.1-5.6,5-7.4c2.9-1.9,6.6-2.8,11.3-2.8c4.5,0,7.8,1.1,9.8,3.2c2.1,2.1,3.1,5.7,3.1,10.8v16.9c0,2.3,0.7,3.5,2.2,3.5
		c1,0,1.9-0.6,2.7-1.7l1.8,1.5c-0.9,1.8-2,3-3.3,3.8C625,576.5,623.4,576.9,621.5,576.9z M601.4,565.7c0,2,0.5,3.5,1.6,4.4
		c1.1,0.9,2.4,1.4,3.9,1.4c0.9,0,1.8-0.2,2.6-0.6c0.9-0.4,2.2-1.3,4.1-2.6V556c-1.1,0.4-2.1,0.7-3.1,1c-1,0.3-1.8,0.6-2.4,0.9
		c-2.6,1-4.4,2.2-5.3,3.6C601.9,562.8,601.4,564.2,601.4,565.7z"/>
	<path class="st2" d="M632.2,576v-3.2l5-0.9c0.1-2,0.1-4.1,0.1-6.3c0-2.2,0-4.2,0-5.8v-4.1c0-2.1,0-3.8,0-5.1c0-1.3-0.1-2.7-0.2-4.2
		l-5.4-0.7v-2.9l12.9-4.9l1.2,0.8l0.8,9.1c1.2-3.2,2.8-5.7,4.8-7.4c2-1.7,4-2.6,6-2.6c1.4,0,2.7,0.4,3.8,1.1
		c1.2,0.7,1.9,1.8,2.3,3.1c-0.1,1.9-0.5,3.4-1.4,4.5c-0.9,1.1-2.1,1.6-3.6,1.6c-1.9,0-3.6-0.9-5.3-2.8l-0.7-0.8
		c-2.7,2.3-4.7,5.5-5.9,9.6v5.7c0,1.6,0,3.5,0,5.7c0,2.2,0,4.2,0.1,6.2l6.4,1.2v3.2H632.2z"/>
	<path class="st2" d="M694.6,576.9c-2.1,0-3.7-0.5-5-1.5c-1.3-1-2.2-2.5-2.6-4.3c-1.9,2-3.6,3.4-5.2,4.5c-1.5,1-3.6,1.5-6,1.5
		c-2.9,0-5.3-0.8-7.3-2.5c-2-1.7-3-4.1-3-7.2c0-1.7,0.4-3.2,1.2-4.6c0.8-1.4,2.2-2.7,4.1-4c2-1.2,4.8-2.5,8.6-3.6
		c1-0.4,2.2-0.7,3.5-1.1c1.3-0.4,2.6-0.7,4-1.1v-2.2c0-3.6-0.5-6.1-1.5-7.3c-1-1.3-2.8-1.9-5.3-1.9c-0.5,0-1,0-1.5,0.1
		c-0.5,0.1-1.1,0.1-1.7,0.2l-0.9,4.3c-0.2,1.9-0.8,3.2-1.6,4.1c-0.9,0.9-2,1.3-3.3,1.3c-2.5,0-3.9-1.2-4.3-3.5
		c0.5-3.1,2.1-5.6,5-7.4c2.9-1.9,6.6-2.8,11.3-2.8c4.5,0,7.8,1.1,9.8,3.2c2.1,2.1,3.1,5.7,3.1,10.8v16.9c0,2.3,0.7,3.5,2.2,3.5
		c1,0,1.9-0.6,2.7-1.7l1.8,1.5c-0.9,1.8-2,3-3.3,3.8C698,576.5,696.5,576.9,694.6,576.9z M674.5,565.7c0,2,0.5,3.5,1.6,4.4
		c1.1,0.9,2.4,1.4,3.9,1.4c0.9,0,1.8-0.2,2.6-0.6c0.9-0.4,2.2-1.3,4.1-2.6V556c-1.1,0.4-2.1,0.7-3.1,1c-1,0.3-1.8,0.6-2.4,0.9
		c-2.6,1-4.4,2.2-5.3,3.6C674.9,562.8,674.5,564.2,674.5,565.7z"/>
</g>
<g class="st1">
	<path class="st2" d="M293,662.1c-2.1,0-3.7-0.5-5-1.5c-1.3-1-2.2-2.5-2.6-4.3c-1.9,2-3.6,3.4-5.2,4.5c-1.5,1-3.6,1.5-6,1.5
		c-2.9,0-5.3-0.8-7.3-2.5c-2-1.7-3-4.1-3-7.2c0-1.7,0.4-3.2,1.2-4.6c0.8-1.4,2.2-2.7,4.1-4c2-1.2,4.8-2.5,8.6-3.6
		c1-0.4,2.2-0.7,3.5-1.1c1.3-0.4,2.6-0.7,4-1.1v-2.2c0-3.6-0.5-6.1-1.5-7.3c-1-1.3-2.8-1.9-5.3-1.9c-0.5,0-1,0-1.5,0.1
		c-0.5,0.1-1.1,0.1-1.7,0.2l-0.9,4.3c-0.2,1.9-0.8,3.2-1.6,4.1c-0.9,0.9-2,1.3-3.3,1.3c-2.5,0-3.9-1.2-4.3-3.5
		c0.5-3.1,2.1-5.6,5-7.4c2.9-1.9,6.6-2.8,11.3-2.8c4.5,0,7.8,1.1,9.8,3.2c2.1,2.1,3.1,5.7,3.1,10.8v16.9c0,2.3,0.7,3.5,2.2,3.5
		c1,0,1.9-0.6,2.7-1.7l1.8,1.5c-0.9,1.8-2,3-3.3,3.8C296.4,661.7,294.9,662.1,293,662.1z M272.9,650.9c0,2,0.5,3.5,1.6,4.4
		c1.1,0.9,2.4,1.4,3.9,1.4c0.9,0,1.8-0.2,2.6-0.6c0.9-0.4,2.2-1.3,4.1-2.6v-12.2c-1.1,0.4-2.1,0.7-3.1,1c-1,0.3-1.8,0.6-2.4,0.9
		c-2.6,1-4.4,2.2-5.3,3.6C273.4,648,272.9,649.4,272.9,650.9z"/>
	<path class="st2" d="M302.1,679.2v-3.2l5.3-1c0.1-2.3,0.1-4.5,0.1-6.5c0-2.1,0-4.1,0-6.1v-21.6c0-2.1,0-3.8,0-5.1
		c0-1.3-0.1-2.7-0.2-4.2l-5.4-0.7v-2.9l12.9-4.9l1.2,0.8l0.4,4.7c3.5-3.7,7.4-5.5,11.6-5.5c2.8,0,5.3,0.8,7.6,2.3
		c2.3,1.5,4.1,3.7,5.4,6.6c1.3,2.9,2,6.4,2,10.5c0,4.1-0.7,7.6-2.2,10.6c-1.5,3-3.4,5.3-5.8,6.9c-2.4,1.6-5.1,2.4-8.1,2.4
		c-1.9,0-3.7-0.4-5.3-1.1c-1.7-0.7-3.2-1.9-4.7-3.5v4.6c0,1.9,0,3.9,0,6c0,2.1,0.1,4.3,0.1,6.5l6,1.2v3.2H302.1z M324.3,628.5
		c-1.2,0-2.4,0.3-3.6,0.9c-1.2,0.6-2.5,1.4-3.8,2.5v21.9c2.2,2,4.5,3,6.9,3c2.6,0,4.8-1.1,6.5-3.4c1.8-2.2,2.7-5.8,2.7-10.6
		c0-4.8-0.8-8.3-2.4-10.8C329,629.7,326.9,628.5,324.3,628.5z"/>
	<path class="st2" d="M348.5,661.2V658l5-0.9c0.1-2,0.1-4.1,0.1-6.3c0-2.2,0-4.2,0-5.8v-4.1c0-2.1,0-3.8,0-5.1
		c0-1.3-0.1-2.7-0.2-4.2l-5.4-0.7v-2.9l12.9-4.9l1.2,0.8l0.8,9.1c1.2-3.2,2.8-5.7,4.8-7.4c2-1.7,4-2.6,6-2.6c1.4,0,2.7,0.4,3.8,1.1
		c1.2,0.7,1.9,1.8,2.3,3.1c-0.1,1.9-0.5,3.4-1.4,4.5c-0.9,1.1-2.1,1.6-3.6,1.6c-1.9,0-3.6-0.9-5.3-2.8l-0.7-0.8
		c-2.7,2.3-4.7,5.5-5.9,9.6v5.7c0,1.6,0,3.5,0,5.7c0,2.2,0,4.2,0.1,6.2l6.4,1.2v3.2L348.5,661.2L348.5,661.2z"/>
	<path class="st2" d="M400.2,662.3c-3.6,0-6.8-0.8-9.5-2.3c-2.7-1.5-4.9-3.8-6.4-6.7c-1.5-2.9-2.3-6.4-2.3-10.4
		c0-4.1,0.9-7.7,2.7-10.7c1.8-3,4.1-5.2,7-6.8c2.9-1.6,5.9-2.4,9.2-2.4c3,0,5.7,0.6,8,1.9c2.3,1.3,4,3.1,5.3,5.4
		c1.3,2.3,1.9,5.1,1.9,8.2c0,1.7-0.2,3.1-0.5,4.3h-23.7c0.2,4.4,1.4,7.8,3.5,10c2.1,2.2,4.8,3.3,8.1,3.3c2.3,0,4.2-0.5,5.8-1.4
		c1.6-0.9,3-2.1,4.3-3.5l2.2,2c-1.5,2.8-3.6,5-6.2,6.6S403.8,662.3,400.2,662.3z M400.2,626.7c-1.2,0-2.5,0.4-3.7,1.2
		c-1.2,0.8-2.2,2.1-3.1,3.9c-0.9,1.8-1.4,4.3-1.6,7.4h10.6c1.9,0,3.1-0.4,3.7-1.2c0.6-0.8,0.9-1.9,0.9-3.3c0-2.4-0.7-4.3-2-5.8
		C403.7,627.5,402.1,626.7,400.2,626.7z"/>
	<path class="st2" d="M421.5,661.2V658l5-1c0-1.9,0.1-4,0.1-6.2c0-2.2,0-4.2,0-5.8v-4.1c0-2.1,0-3.8,0-5.1c0-1.3-0.1-2.7-0.2-4.2
		l-5.4-0.7v-2.9l12.9-4.9l1.2,0.8l0.5,6c4-4.5,8.4-6.7,13.2-6.7c3.4,0,6,1.1,7.8,3.3c1.8,2.2,2.7,5.7,2.7,10.5v8.1c0,1.8,0,3.7,0,6
		c0,2.2,0,4.3,0.1,6.2l4.7,0.9v3.2h-19.1V658l5-1c0.1-1.9,0.1-4,0.1-6.2s0-4.2,0-5.9v-7.4c0-3-0.4-5.2-1.2-6.3
		c-0.8-1.2-2.2-1.7-4.2-1.7c-2.7,0-5.6,1.3-8.7,3.8v11.6c0,1.7,0,3.7,0,5.9c0,2.2,0,4.3,0.1,6.3l4.6,0.9v3.2L421.5,661.2
		L421.5,661.2z"/>
	<path class="st2" d="M496.2,662l-0.6-4.9c-1.4,1.7-3,2.9-4.8,3.8c-1.8,0.9-3.8,1.3-6,1.3c-3,0-5.7-0.8-8.1-2.3
		c-2.4-1.5-4.2-3.8-5.5-6.7s-2-6.3-2-10.3c0-4.1,0.8-7.6,2.3-10.6c1.5-3,3.6-5.3,6.1-6.9c2.6-1.6,5.4-2.4,8.4-2.4
		c2,0,3.7,0.4,5.3,1.1c1.6,0.7,3.1,1.9,4.5,3.6v-16l-6-0.8v-3l14.2-3.5l1.2,0.7l-0.3,10.9v41.1l5,0.9v3.2L496.2,662z M479,642.8
		c0,4.7,0.9,8.2,2.7,10.5c1.8,2.3,4,3.4,6.8,3.4c1.3,0,2.6-0.3,3.7-0.8c1.1-0.5,2.2-1.3,3.1-2.4v-22.2c-2.3-2-4.5-2.9-6.7-2.9
		c-2.6,0-4.8,1.2-6.7,3.5C480,634.2,479,637.9,479,642.8z"/>
	<path class="st2" d="M532.3,662.3c-3.6,0-6.8-0.8-9.5-2.3c-2.7-1.5-4.9-3.8-6.4-6.7c-1.5-2.9-2.3-6.4-2.3-10.4
		c0-4.1,0.9-7.7,2.7-10.7s4.1-5.2,7-6.8c2.9-1.6,5.9-2.4,9.2-2.4c3,0,5.7,0.6,8,1.9c2.3,1.3,4,3.1,5.3,5.4c1.3,2.3,1.9,5.1,1.9,8.2
		c0,1.7-0.2,3.1-0.5,4.3h-23.7c0.2,4.4,1.4,7.8,3.5,10c2.1,2.2,4.8,3.3,8.1,3.3c2.3,0,4.2-0.5,5.8-1.4c1.6-0.9,3-2.1,4.3-3.5l2.2,2
		c-1.5,2.8-3.6,5-6.2,6.6S535.9,662.3,532.3,662.3z M532.3,626.7c-1.2,0-2.5,0.4-3.7,1.2c-1.2,0.8-2.2,2.1-3.1,3.9
		c-0.9,1.8-1.4,4.3-1.6,7.4h10.6c1.9,0,3.1-0.4,3.7-1.2c0.6-0.8,0.9-1.9,0.9-3.3c0-2.4-0.7-4.3-2-5.8
		C535.8,627.5,534.2,626.7,532.3,626.7z"/>
	<path class="st2" d="M553.8,661.2V658l5-0.9c0.1-2,0.1-4.1,0.1-6.3c0-2.2,0-4.2,0-5.8v-4.1c0-2.1,0-3.8,0-5.1
		c0-1.3-0.1-2.7-0.2-4.2l-5.4-0.7v-2.9l12.9-4.9l1.2,0.8l0.8,9.1c1.2-3.2,2.8-5.7,4.8-7.4c2-1.7,4-2.6,6-2.6c1.4,0,2.7,0.4,3.8,1.1
		c1.2,0.7,1.9,1.8,2.3,3.1c-0.1,1.9-0.5,3.4-1.4,4.5c-0.9,1.1-2.1,1.6-3.6,1.6c-1.9,0-3.6-0.9-5.3-2.8l-0.7-0.8
		c-2.7,2.3-4.7,5.5-5.9,9.6v5.7c0,1.6,0,3.5,0,5.7c0,2.2,0,4.2,0.1,6.2l6.4,1.2v3.2L553.8,661.2L553.8,661.2z"/>
	<path class="st2" d="M623.9,662.3c-3.6,0-6.8-0.8-9.5-2.3c-2.7-1.5-4.9-3.8-6.4-6.7c-1.5-2.9-2.3-6.4-2.3-10.4
		c0-4.1,0.9-7.7,2.7-10.7s4.1-5.2,7-6.8c2.9-1.6,5.9-2.4,9.2-2.4c3,0,5.7,0.6,8,1.9c2.3,1.3,4,3.1,5.3,5.4c1.3,2.3,1.9,5.1,1.9,8.2
		c0,1.7-0.2,3.1-0.5,4.3h-23.7c0.2,4.4,1.4,7.8,3.5,10c2.1,2.2,4.8,3.3,8.1,3.3c2.3,0,4.2-0.5,5.8-1.4c1.6-0.9,3-2.1,4.3-3.5l2.2,2
		c-1.5,2.8-3.6,5-6.2,6.6C630.6,661.5,627.5,662.3,623.9,662.3z M623.9,626.7c-1.2,0-2.5,0.4-3.7,1.2c-1.2,0.8-2.2,2.1-3.1,3.9
		c-0.9,1.8-1.4,4.3-1.6,7.4h10.6c1.9,0,3.1-0.4,3.7-1.2c0.6-0.8,0.9-1.9,0.9-3.3c0-2.4-0.7-4.3-2-5.8
		C627.4,627.5,625.8,626.7,623.9,626.7z"/>
	<path class="st2" d="M645.3,661.2V658l5-1c0-1.9,0.1-4,0.1-6.2c0-2.2,0-4.2,0-5.8v-4.1c0-2.1,0-3.8,0-5.1c0-1.3-0.1-2.7-0.2-4.2
		l-5.4-0.7v-2.9l12.9-4.9l1.2,0.8l0.5,6c4-4.5,8.4-6.7,13.2-6.7c3.4,0,6,1.1,7.8,3.3c1.8,2.2,2.7,5.7,2.7,10.5v8.1c0,1.8,0,3.7,0,6
		c0,2.2,0,4.3,0.1,6.2l4.7,0.9v3.2h-19.1V658l5-1c0.1-1.9,0.1-4,0.1-6.2s0-4.2,0-5.9v-7.4c0-3-0.4-5.2-1.2-6.3
		c-0.8-1.2-2.2-1.7-4.2-1.7c-2.7,0-5.6,1.3-8.7,3.8v11.6c0,1.7,0,3.7,0,5.9c0,2.2,0,4.3,0.1,6.3l4.6,0.9v3.2L645.3,661.2
		L645.3,661.2z"/>
	<path class="st2" d="M728.4,662.3c-3.5,0-6.7-0.8-9.5-2.3c-2.8-1.5-5-3.7-6.5-6.7c-1.6-2.9-2.4-6.4-2.4-10.6
		c0-4.2,0.9-7.7,2.7-10.7c1.8-2.9,4.1-5.2,7.1-6.7c2.9-1.5,6.1-2.3,9.6-2.3c2.5,0,4.8,0.5,6.9,1.4c2,1,3.7,2.2,5,3.8
		c1.3,1.6,2,3.4,2.3,5.4c-0.6,2.3-2.1,3.4-4.4,3.4c-2.9,0-4.6-1.8-5-5.4l-1-4.6c-0.5-0.1-0.9-0.2-1.4-0.2c-0.5,0-0.9-0.1-1.4-0.1
		c-1.9,0-3.6,0.5-5.2,1.6c-1.6,1.1-2.9,2.7-3.8,4.9c-1,2.2-1.5,5-1.5,8.4c0,4.7,1.1,8.3,3.2,10.8c2.1,2.5,4.9,3.7,8.4,3.7
		c2.1,0,3.9-0.5,5.6-1.4c1.7-0.9,3-2.2,4.2-3.8l2.3,1.7c-1.3,3.2-3.2,5.5-5.8,7.2C735.1,661.5,732,662.3,728.4,662.3z"/>
	<path class="st2" d="M767.3,662.3c-3.5,0-6.7-0.8-9.5-2.3c-2.8-1.5-5-3.8-6.7-6.7c-1.7-2.9-2.5-6.5-2.5-10.5
		c0-4.1,0.9-7.7,2.6-10.6c1.7-2.9,4-5.2,6.9-6.7c2.8-1.5,5.9-2.3,9.2-2.3s6.4,0.8,9.2,2.3s5.1,3.8,6.9,6.7c1.8,2.9,2.6,6.5,2.6,10.7
		c0,4.1-0.8,7.7-2.5,10.6c-1.7,2.9-3.9,5.2-6.7,6.7C773.9,661.5,770.8,662.3,767.3,662.3z M767.3,658.5c2.8,0,4.9-1.3,6.4-3.9
		c1.5-2.6,2.2-6.5,2.2-11.9c0-10.6-2.9-16-8.6-16c-5.7,0-8.5,5.3-8.5,16c0,5.3,0.7,9.3,2.2,11.9
		C762.3,657.2,764.5,658.5,767.3,658.5z"/>
	<path class="st2" d="M790.4,661.2V658l5.3-1c0-2,0.1-4,0.1-6c0-2,0-4,0-6v-33.2l-5.7-0.8v-3l14.1-3.5l1.2,0.7l-0.3,10.9v28.9
		c0,2,0,4,0,6c0,2,0.1,4,0.1,6l5.3,1v3.2L790.4,661.2L790.4,661.2z"/>
	<path class="st2" d="M833.6,662.3c-3.6,0-6.8-0.8-9.5-2.3c-2.7-1.5-4.9-3.8-6.4-6.7c-1.5-2.9-2.3-6.4-2.3-10.4
		c0-4.1,0.9-7.7,2.7-10.7c1.8-3,4.1-5.2,7-6.8c2.9-1.6,5.9-2.4,9.2-2.4c3,0,5.7,0.6,8,1.9c2.3,1.3,4,3.1,5.3,5.4
		c1.3,2.3,1.9,5.1,1.9,8.2c0,1.7-0.2,3.1-0.5,4.3h-23.7c0.2,4.4,1.4,7.8,3.5,10c2.1,2.2,4.8,3.3,8.1,3.3c2.3,0,4.2-0.5,5.8-1.4
		c1.6-0.9,3-2.1,4.3-3.5l2.2,2c-1.5,2.8-3.6,5-6.2,6.6C840.3,661.5,837.2,662.3,833.6,662.3z M833.6,626.7c-1.2,0-2.5,0.4-3.7,1.2
		s-2.2,2.1-3.1,3.9c-0.9,1.8-1.4,4.3-1.6,7.4h10.6c1.9,0,3.1-0.4,3.7-1.2c0.6-0.8,0.9-1.9,0.9-3.3c0-2.4-0.7-4.3-2-5.8
		C837.1,627.5,835.5,626.7,833.6,626.7z"/>
	<path class="st2" d="M873.4,662.3c-3.5,0-6.7-0.8-9.5-2.3c-2.8-1.5-5-3.7-6.5-6.7c-1.6-2.9-2.4-6.4-2.4-10.6
		c0-4.2,0.9-7.7,2.7-10.7c1.8-2.9,4.1-5.2,7.1-6.7c2.9-1.5,6.1-2.3,9.6-2.3c2.5,0,4.8,0.5,6.9,1.4c2,1,3.7,2.2,5,3.8
		c1.3,1.6,2,3.4,2.3,5.4c-0.6,2.3-2.1,3.4-4.4,3.4c-2.9,0-4.6-1.8-5-5.4l-1-4.6c-0.5-0.1-0.9-0.2-1.4-0.2c-0.5,0-0.9-0.1-1.4-0.1
		c-1.9,0-3.6,0.5-5.2,1.6c-1.6,1.1-2.9,2.7-3.8,4.9c-1,2.2-1.5,5-1.5,8.4c0,4.7,1.1,8.3,3.2,10.8c2.1,2.5,4.9,3.7,8.4,3.7
		c2.1,0,3.9-0.5,5.6-1.4c1.7-0.9,3-2.2,4.2-3.8l2.3,1.7c-1.3,3.2-3.2,5.5-5.8,7.2C880.2,661.5,877,662.3,873.4,662.3z"/>
	<path class="st2" d="M907.1,662.3c-3.1,0-5.5-0.8-7.3-2.3c-1.8-1.5-2.6-4-2.6-7.4c0-1.2,0-2.3,0-3.4c0-1.1,0-2.3,0-3.8v-16.5h-5.7
		v-4l6.3-0.8l2.9-10.6h6.3l-0.3,10.7h9.3v4.7h-9.4v22.9c0,1.9,0.4,3.3,1.1,4.2c0.7,0.9,1.7,1.3,3,1.3c1.4,0,3-0.6,4.7-1.9l1.9,1.9
		c-1,1.6-2.3,2.9-4,3.8C911.6,661.8,909.5,662.3,907.1,662.3z"/>
	<path class="st2" d="M919.6,661.2V658l5.1-1c0.1-1.9,0.1-4,0.1-6.2c0-2.2,0-4.2,0-5.8v-3.6c0-2.1,0-3.9,0-5.3
		c0-1.4-0.1-2.9-0.2-4.5l-5.5-0.7v-2.9L933,623l1.2,0.8l-0.2,10.9v10.2c0,1.7,0,3.6,0,5.8c0,2.2,0,4.4,0.1,6.3l4.7,0.9v3.2
		L919.6,661.2L919.6,661.2z M929.4,615.8c-1.7,0-3-0.5-4.2-1.5c-1.1-1-1.7-2.3-1.7-4c0-1.7,0.6-3,1.7-4c1.1-1,2.5-1.5,4.2-1.5
		s3,0.5,4.1,1.5c1.1,1,1.7,2.4,1.7,4c0,1.6-0.6,2.9-1.7,4C932.4,615.3,931,615.8,929.4,615.8z"/>
	<path class="st2" d="M964.7,627.3v-3.3h14.7v3.3l-4.3,0.9l-12.7,33.2h-4.6l-14-33.5l-4-0.7v-3.3h20.4v3.3l-6,0.9l8.5,22.5l7.7-22.4
		L964.7,627.3z"/>
	<path class="st2" d="M999.7,662.3c-3.5,0-6.7-0.8-9.5-2.3c-2.8-1.5-5-3.8-6.7-6.7c-1.7-2.9-2.5-6.5-2.5-10.5
		c0-4.1,0.9-7.7,2.6-10.6c1.7-2.9,4-5.2,6.9-6.7c2.8-1.5,5.9-2.3,9.2-2.3s6.4,0.8,9.2,2.3s5.1,3.8,6.9,6.7c1.8,2.9,2.6,6.5,2.6,10.7
		c0,4.1-0.8,7.7-2.5,10.6c-1.7,2.9-3.9,5.2-6.7,6.7C1006.4,661.5,1003.2,662.3,999.7,662.3z M999.7,658.5c2.8,0,4.9-1.3,6.4-3.9
		c1.5-2.6,2.2-6.5,2.2-11.9c0-10.6-2.9-16-8.6-16c-5.7,0-8.5,5.3-8.5,16c0,5.3,0.7,9.3,2.2,11.9
		C994.8,657.2,996.9,658.5,999.7,658.5z"/>
</g>
<g class="st1">
	<path class="st2" d="M281.9,747.5c-3.5,0-6.7-0.8-9.5-2.3c-2.8-1.5-5-3.7-6.5-6.7c-1.6-2.9-2.4-6.4-2.4-10.6
		c0-4.2,0.9-7.7,2.7-10.7c1.8-2.9,4.1-5.2,7.1-6.7c2.9-1.5,6.1-2.3,9.6-2.3c2.5,0,4.8,0.5,6.9,1.4c2,1,3.7,2.2,5,3.8
		c1.3,1.6,2,3.4,2.3,5.4c-0.6,2.3-2.1,3.4-4.4,3.4c-2.9,0-4.6-1.8-5-5.4l-1-4.6c-0.5-0.1-0.9-0.2-1.4-0.2c-0.5,0-0.9-0.1-1.4-0.1
		c-1.9,0-3.6,0.5-5.2,1.6c-1.6,1.1-2.9,2.7-3.8,4.9c-1,2.2-1.5,5-1.5,8.4c0,4.7,1.1,8.3,3.2,10.8c2.1,2.5,4.9,3.7,8.4,3.7
		c2.1,0,3.9-0.5,5.6-1.4c1.7-0.9,3-2.2,4.2-3.8l2.3,1.7c-1.3,3.2-3.2,5.5-5.8,7.2C288.7,746.7,285.6,747.5,281.9,747.5z"/>
	<path class="st2" d="M320.8,747.5c-3.5,0-6.7-0.8-9.5-2.3c-2.8-1.5-5-3.8-6.7-6.7c-1.7-2.9-2.5-6.5-2.5-10.5
		c0-4.1,0.9-7.7,2.6-10.6c1.7-2.9,4-5.2,6.9-6.7c2.8-1.5,5.9-2.3,9.2-2.3c3.3,0,6.4,0.8,9.2,2.3c2.8,1.5,5.1,3.8,6.9,6.7
		c1.8,2.9,2.6,6.5,2.6,10.7c0,4.1-0.8,7.7-2.5,10.6c-1.7,2.9-3.9,5.2-6.7,6.7C327.5,746.7,324.3,747.5,320.8,747.5z M320.8,743.7
		c2.8,0,4.9-1.3,6.4-3.9c1.5-2.6,2.2-6.5,2.2-11.9c0-10.6-2.9-16-8.6-16c-5.7,0-8.5,5.3-8.5,16c0,5.3,0.7,9.3,2.2,11.9
		C315.9,742.4,318,743.7,320.8,743.7z"/>
	<path class="st2" d="M345.1,746.4v-3.2l5-1c0.1-1.9,0.1-4,0.1-6.2c0-2.2,0-4.2,0-5.8V726c0-2.1,0-3.8,0-5.1c0-1.3-0.1-2.7-0.2-4.2
		l-5.4-0.7v-2.9l12.9-4.9l1.2,0.8l0.5,6c4-4.5,8.4-6.7,13.2-6.7c3.4,0,6,1.1,7.8,3.3c1.8,2.2,2.8,5.7,2.8,10.5v8.1c0,1.8,0,3.7,0,6
		c0,2.2,0,4.3,0.1,6.2l4.7,0.9v3.2h-19.1v-3.2l5-1c0.1-1.9,0.1-4,0.1-6.2s0-4.2,0-5.9v-7.4c0-3-0.4-5.2-1.2-6.3
		c-0.8-1.2-2.2-1.7-4.2-1.7c-2.7,0-5.6,1.3-8.7,3.8v11.6c0,1.7,0,3.7,0,5.9c0,2.2,0,4.3,0.1,6.3l4.6,0.9v3.2H345.1z"/>
	<path class="st2" d="M409.1,746.4v-3.2l5.3-1c0.1-2,0.1-4,0.1-6c0-2,0-4,0-6v-33.2l-5.7-0.8v-3l14.1-3.5l1.2,0.7l-0.3,10.9v28.9
		c0,2,0,4,0,6c0,2,0.1,4,0.1,6l5.3,1v3.2L409.1,746.4L409.1,746.4z"/>
	<path class="st2" d="M462.5,747.3c-2.1,0-3.7-0.5-5-1.5c-1.3-1-2.2-2.5-2.6-4.3c-1.9,2-3.6,3.4-5.2,4.5c-1.5,1-3.6,1.5-6,1.5
		c-2.9,0-5.3-0.8-7.3-2.5s-3-4.1-3-7.2c0-1.7,0.4-3.2,1.2-4.6c0.8-1.4,2.2-2.7,4.1-4c2-1.2,4.8-2.5,8.6-3.6c1-0.4,2.2-0.7,3.5-1.1
		c1.3-0.4,2.6-0.7,4-1.1v-2.2c0-3.6-0.5-6.1-1.5-7.3c-1-1.3-2.8-1.9-5.3-1.9c-0.5,0-1,0-1.5,0.1c-0.5,0.1-1.1,0.1-1.7,0.2l-0.9,4.3
		c-0.2,1.9-0.8,3.2-1.6,4.1c-0.9,0.9-2,1.3-3.3,1.3c-2.5,0-3.9-1.2-4.3-3.5c0.5-3.1,2.1-5.6,5-7.4c2.9-1.9,6.6-2.8,11.3-2.8
		c4.5,0,7.8,1.1,9.8,3.2c2.1,2.1,3.1,5.7,3.1,10.8v16.9c0,2.3,0.7,3.5,2.2,3.5c1,0,1.9-0.6,2.7-1.7l1.8,1.5c-0.9,1.8-2,3-3.3,3.8
		C465.9,747,464.4,747.3,462.5,747.3z M442.4,736.1c0,2,0.5,3.5,1.6,4.4c1.1,0.9,2.4,1.4,3.9,1.4c0.9,0,1.8-0.2,2.6-0.6
		c0.9-0.4,2.2-1.3,4.1-2.6v-12.2c-1.1,0.4-2.1,0.7-3.1,1s-1.8,0.6-2.4,0.9c-2.6,1-4.4,2.2-5.3,3.6
		C442.9,733.2,442.4,734.6,442.4,736.1z"/>
	<path class="st2" d="M503.6,747.5c-2.4,0-4.6-0.3-6.5-0.8c-2-0.5-4-1.4-5.9-2.4l-0.1-9h5.2l1.4,7.2c1.9,0.8,3.9,1.2,6,1.2
		c2.6,0,4.6-0.5,5.9-1.4c1.3-0.9,1.9-2.2,1.9-3.9c0-1.4-0.5-2.6-1.5-3.5c-1-0.9-2.8-1.8-5.3-2.6l-3.9-1.3c-2.9-0.9-5.2-2.3-6.9-4.1
		c-1.7-1.8-2.5-4.1-2.5-6.8c0-2.2,0.6-4.1,1.7-5.9c1.1-1.8,2.8-3.2,5-4.3c2.2-1.1,4.9-1.6,8-1.6c2.2,0,4.2,0.3,6.1,0.8
		c1.8,0.5,3.7,1.3,5.5,2.4l-0.4,8.1h-5.1l-1.4-6.5c-1.4-0.6-3-0.9-4.8-0.9c-2.1,0-3.7,0.4-4.8,1.3c-1.1,0.9-1.7,2.1-1.7,3.6
		c0,1.4,0.5,2.5,1.4,3.4c1,0.9,2.8,1.7,5.4,2.6l3.1,0.9c3.8,1.3,6.5,2.9,8.1,4.8c1.6,1.9,2.4,4.2,2.4,6.9c0,3.5-1.4,6.3-4.2,8.6
		C512.9,746.4,508.9,747.5,503.6,747.5z"/>
	<path class="st2" d="M543.9,747.5c-3.5,0-6.7-0.8-9.5-2.3c-2.8-1.5-5-3.8-6.7-6.7c-1.7-2.9-2.5-6.5-2.5-10.5
		c0-4.1,0.9-7.7,2.6-10.6c1.7-2.9,4-5.2,6.9-6.7c2.8-1.5,5.9-2.3,9.2-2.3c3.3,0,6.4,0.8,9.2,2.3c2.8,1.5,5.1,3.8,6.9,6.7
		c1.8,2.9,2.6,6.5,2.6,10.7c0,4.1-0.8,7.7-2.5,10.6c-1.7,2.9-3.9,5.2-6.7,6.7C550.6,746.7,547.4,747.5,543.9,747.5z M543.9,743.7
		c2.8,0,4.9-1.3,6.4-3.9c1.5-2.6,2.2-6.5,2.2-11.9c0-10.6-2.9-16-8.6-16c-5.7,0-8.5,5.3-8.5,16c0,5.3,0.7,9.3,2.2,11.9
		C539,742.4,541.1,743.7,543.9,743.7z"/>
	<path class="st2" d="M586.9,747.5c-3.5,0-6.7-0.8-9.5-2.3c-2.8-1.5-5-3.7-6.5-6.7c-1.6-2.9-2.4-6.4-2.4-10.6
		c0-4.2,0.9-7.7,2.7-10.7c1.8-2.9,4.1-5.2,7.1-6.7c2.9-1.5,6.1-2.3,9.6-2.3c2.5,0,4.8,0.5,6.9,1.4s3.7,2.2,5,3.8
		c1.3,1.6,2,3.4,2.3,5.4c-0.6,2.3-2.1,3.4-4.4,3.4c-2.9,0-4.6-1.8-5-5.4l-1-4.6c-0.5-0.1-0.9-0.2-1.4-0.2c-0.5,0-0.9-0.1-1.4-0.1
		c-1.9,0-3.6,0.5-5.2,1.6c-1.6,1.1-2.9,2.7-3.8,4.9c-1,2.2-1.5,5-1.5,8.4c0,4.7,1.1,8.3,3.2,10.8c2.1,2.5,4.9,3.7,8.4,3.7
		c2.1,0,3.9-0.5,5.6-1.4c1.7-0.9,3-2.2,4.2-3.8l2.3,1.7c-1.3,3.2-3.2,5.5-5.8,7.2C593.7,746.7,590.6,747.5,586.9,747.5z"/>
	<path class="st2" d="M607.1,746.4v-3.2l5.1-1c0-1.9,0.1-4,0.1-6.2c0-2.2,0-4.2,0-5.8v-3.6c0-2.1,0-3.9,0-5.3c0-1.4-0.1-2.9-0.2-4.5
		l-5.5-0.7v-2.9l13.9-4.9l1.2,0.8l-0.2,10.9v10.2c0,1.7,0,3.6,0,5.8c0,2.2,0,4.4,0.1,6.3l4.7,0.9v3.2L607.1,746.4L607.1,746.4z
		 M616.8,701c-1.7,0-3-0.5-4.2-1.5c-1.1-1-1.7-2.3-1.7-4c0-1.7,0.6-3,1.7-4c1.1-1,2.5-1.5,4.2-1.5c1.7,0,3,0.5,4.1,1.5
		c1.1,1,1.7,2.4,1.7,4c0,1.6-0.6,2.9-1.7,4S618.5,701,616.8,701z"/>
	<path class="st2" d="M649.5,747.5c-3.6,0-6.8-0.8-9.5-2.3s-4.9-3.8-6.4-6.7c-1.5-2.9-2.3-6.4-2.3-10.4c0-4.1,0.9-7.7,2.7-10.7
		s4.1-5.2,7-6.8c2.9-1.6,5.9-2.4,9.2-2.4c3,0,5.7,0.6,8,1.9c2.3,1.3,4,3.1,5.3,5.4c1.3,2.3,1.9,5.1,1.9,8.2c0,1.7-0.2,3.1-0.5,4.3
		h-23.7c0.2,4.4,1.4,7.8,3.5,10c2.1,2.2,4.8,3.3,8.1,3.3c2.3,0,4.2-0.5,5.8-1.4c1.6-0.9,3-2.1,4.3-3.5l2.2,2c-1.5,2.8-3.6,5-6.2,6.6
		C656.2,746.7,653.1,747.5,649.5,747.5z M649.5,711.9c-1.2,0-2.5,0.4-3.7,1.2c-1.2,0.8-2.2,2.1-3.1,3.9c-0.9,1.8-1.4,4.3-1.6,7.4
		h10.6c1.9,0,3.1-0.4,3.7-1.2c0.6-0.8,0.9-1.9,0.9-3.3c0-2.4-0.7-4.3-2-5.8C653,712.7,651.4,711.9,649.5,711.9z"/>
	<path class="st2" d="M698.2,747.3l-0.6-4.9c-1.4,1.7-3,2.9-4.8,3.8c-1.8,0.9-3.8,1.3-6,1.3c-3,0-5.7-0.8-8.1-2.3
		c-2.4-1.5-4.2-3.8-5.5-6.7c-1.3-2.9-2-6.3-2-10.3c0-4.1,0.8-7.6,2.3-10.6c1.5-3,3.6-5.3,6.1-6.9c2.6-1.6,5.4-2.4,8.4-2.4
		c2,0,3.7,0.4,5.3,1.1c1.6,0.7,3.1,1.9,4.5,3.6v-16l-6-0.8v-3l14.2-3.5l1.2,0.7l-0.3,10.9v41.1l5,0.9v3.2L698.2,747.3z M681,728
		c0,4.7,0.9,8.2,2.7,10.5c1.8,2.3,4,3.4,6.8,3.4c1.3,0,2.6-0.3,3.7-0.8c1.1-0.5,2.2-1.3,3.1-2.4v-22.2c-2.3-2-4.5-2.9-6.7-2.9
		c-2.6,0-4.8,1.2-6.7,3.5S681,723.1,681,728z"/>
	<path class="st2" d="M744.6,747.3c-2.1,0-3.7-0.5-5-1.5c-1.3-1-2.2-2.5-2.6-4.3c-1.9,2-3.6,3.4-5.2,4.5c-1.5,1-3.6,1.5-6,1.5
		c-2.9,0-5.3-0.8-7.3-2.5c-2-1.7-3-4.1-3-7.2c0-1.7,0.4-3.2,1.2-4.6c0.8-1.4,2.2-2.7,4.1-4c2-1.2,4.8-2.5,8.6-3.6
		c1-0.4,2.2-0.7,3.5-1.1c1.3-0.4,2.6-0.7,4-1.1v-2.2c0-3.6-0.5-6.1-1.5-7.3c-1-1.3-2.8-1.9-5.3-1.9c-0.5,0-1,0-1.5,0.1
		c-0.5,0.1-1.1,0.1-1.7,0.2l-0.9,4.3c-0.2,1.9-0.7,3.2-1.6,4.1c-0.9,0.9-2,1.3-3.3,1.3c-2.5,0-3.9-1.2-4.3-3.5
		c0.5-3.1,2.1-5.6,5-7.4c2.9-1.9,6.6-2.8,11.3-2.8c4.5,0,7.8,1.1,9.8,3.2c2.1,2.1,3.1,5.7,3.1,10.8v16.9c0,2.3,0.7,3.5,2.2,3.5
		c1,0,1.9-0.6,2.7-1.7l1.8,1.5c-0.9,1.8-2,3-3.3,3.8C748,747,746.4,747.3,744.6,747.3z M724.4,736.1c0,2,0.5,3.5,1.6,4.4
		c1.1,0.9,2.4,1.4,3.9,1.4c0.9,0,1.8-0.2,2.6-0.6c0.9-0.4,2.2-1.3,4.1-2.6v-12.2c-1.1,0.4-2.1,0.7-3.1,1c-1,0.3-1.8,0.6-2.4,0.9
		c-2.6,1-4.4,2.2-5.3,3.6C724.9,733.2,724.4,734.6,724.4,736.1z"/>
	<path class="st2" d="M782.7,747.3l-0.6-4.9c-1.4,1.7-3,2.9-4.8,3.8c-1.8,0.9-3.8,1.3-6,1.3c-3,0-5.7-0.8-8.1-2.3
		c-2.4-1.5-4.2-3.8-5.5-6.7c-1.3-2.9-2-6.3-2-10.3c0-4.1,0.8-7.6,2.3-10.6c1.5-3,3.6-5.3,6.1-6.9c2.6-1.6,5.4-2.4,8.4-2.4
		c2,0,3.7,0.4,5.3,1.1c1.6,0.7,3.1,1.9,4.5,3.6v-16l-6-0.8v-3l14.2-3.5l1.2,0.7l-0.3,10.9v41.1l5,0.9v3.2L782.7,747.3z M765.5,728
		c0,4.7,0.9,8.2,2.7,10.5c1.8,2.3,4,3.4,6.8,3.4c1.3,0,2.6-0.3,3.7-0.8c1.1-0.5,2.2-1.3,3.1-2.4v-22.2c-2.3-2-4.5-2.9-6.7-2.9
		c-2.6,0-4.8,1.2-6.7,3.5C766.4,719.4,765.5,723.1,765.5,728z"/>
	<path class="st2" d="M836,747.5c-3.5,0-6.7-0.8-9.5-2.3c-2.8-1.5-5-3.7-6.5-6.7c-1.6-2.9-2.4-6.4-2.4-10.6c0-4.2,0.9-7.7,2.7-10.7
		c1.8-2.9,4.1-5.2,7.1-6.7c2.9-1.5,6.1-2.3,9.6-2.3c2.5,0,4.8,0.5,6.9,1.4s3.7,2.2,5,3.8c1.3,1.6,2,3.4,2.3,5.4
		c-0.6,2.3-2.1,3.4-4.4,3.4c-2.9,0-4.6-1.8-5-5.4l-1-4.6c-0.5-0.1-0.9-0.2-1.4-0.2c-0.5,0-0.9-0.1-1.4-0.1c-1.9,0-3.6,0.5-5.2,1.6
		c-1.6,1.1-2.9,2.7-3.8,4.9c-1,2.2-1.5,5-1.5,8.4c0,4.7,1.1,8.3,3.2,10.8c2.1,2.5,4.9,3.7,8.4,3.7c2.1,0,3.9-0.5,5.6-1.4
		c1.7-0.9,3-2.2,4.2-3.8l2.3,1.7c-1.3,3.2-3.2,5.5-5.8,7.2C842.8,746.7,839.7,747.5,836,747.5z"/>
	<path class="st2" d="M856.2,746.4v-3.2l5.1-1c0-1.9,0.1-4,0.1-6.2c0-2.2,0-4.2,0-5.8v-3.6c0-2.1,0-3.9,0-5.3c0-1.4-0.1-2.9-0.2-4.5
		l-5.5-0.7v-2.9l13.9-4.9l1.2,0.8l-0.2,10.9v10.2c0,1.7,0,3.6,0,5.8c0,2.2,0,4.4,0.1,6.3l4.7,0.9v3.2L856.2,746.4L856.2,746.4z
		 M865.9,701c-1.7,0-3-0.5-4.2-1.5c-1.1-1-1.7-2.3-1.7-4c0-1.7,0.6-3,1.7-4c1.1-1,2.5-1.5,4.2-1.5c1.7,0,3,0.5,4.1,1.5
		c1.1,1,1.7,2.4,1.7,4c0,1.6-0.6,2.9-1.7,4C869,700.5,867.6,701,865.9,701z"/>
	<path class="st2" d="M901.3,712.5v-3.3H916v3.3l-4.3,0.9l-12.7,33.2h-4.6l-14-33.5l-4-0.7v-3.3h20.4v3.3l-6,0.9l8.5,22.5l7.7-22.4
		L901.3,712.5z"/>
	<path class="st2" d="M919.1,746.4v-3.2l5.1-1c0-1.9,0.1-4,0.1-6.2c0-2.2,0-4.2,0-5.8v-3.6c0-2.1,0-3.9,0-5.3c0-1.4-0.1-2.9-0.2-4.5
		l-5.5-0.7v-2.9l13.9-4.9l1.2,0.8l-0.2,10.9v10.2c0,1.7,0,3.6,0,5.8c0,2.2,0,4.4,0.1,6.3l4.7,0.9v3.2L919.1,746.4L919.1,746.4z
		 M928.8,701c-1.7,0-3-0.5-4.2-1.5c-1.1-1-1.7-2.3-1.7-4c0-1.7,0.6-3,1.7-4c1.1-1,2.5-1.5,4.2-1.5c1.7,0,3,0.5,4.1,1.5
		c1.1,1,1.7,2.4,1.7,4c0,1.6-0.6,2.9-1.7,4C931.9,700.5,930.5,701,928.8,701z"/>
	<path class="st2" d="M942.4,746.4v-3.2l5.3-1c0.1-2,0.1-4,0.1-6c0-2,0-4,0-6v-33.2l-5.7-0.8v-3l14.1-3.5l1.2,0.7l-0.3,10.9v28.9
		c0,2,0,4,0,6c0,2,0.1,4,0.1,6l5.3,1v3.2L942.4,746.4L942.4,746.4z"/>
</g>
<g class="st1">
	<path class="st2" d="M282,832.7c-3.6,0-6.8-0.8-9.5-2.3c-2.7-1.5-4.9-3.8-6.4-6.7c-1.5-2.9-2.3-6.4-2.3-10.4
		c0-4.1,0.9-7.7,2.7-10.7c1.8-3,4.1-5.2,7-6.8c2.9-1.6,5.9-2.4,9.2-2.4c3,0,5.7,0.6,8,1.9c2.3,1.3,4,3.1,5.3,5.4
		c1.3,2.3,1.9,5.1,1.9,8.2c0,1.7-0.2,3.1-0.5,4.3h-23.7c0.2,4.4,1.4,7.8,3.5,10c2.1,2.2,4.8,3.3,8.1,3.3c2.3,0,4.2-0.5,5.8-1.4
		c1.6-0.9,3-2.1,4.3-3.5l2.2,2c-1.5,2.8-3.6,5-6.2,6.6C288.8,831.9,285.6,832.7,282,832.7z M282,797.1c-1.2,0-2.5,0.4-3.7,1.2
		c-1.2,0.8-2.2,2.1-3.1,3.9c-0.9,1.8-1.4,4.3-1.6,7.4h10.6c1.9,0,3.1-0.4,3.7-1.2c0.6-0.8,0.9-1.9,0.9-3.3c0-2.4-0.7-4.3-2-5.8
		C285.6,797.9,283.9,797.1,282,797.1z"/>
	<path class="st2" d="M303.4,831.6v-3.2l5-1c0.1-1.9,0.1-4,0.1-6.2c0-2.2,0-4.2,0-5.8v-4.1c0-2.1,0-3.8,0-5.1c0-1.3-0.1-2.7-0.2-4.2
		l-5.4-0.7v-2.9l12.9-4.9l1.2,0.8l0.5,6c4-4.5,8.4-6.7,13.2-6.7c3.4,0,6,1.1,7.8,3.3c1.8,2.2,2.8,5.7,2.8,10.5v8.1c0,1.8,0,3.7,0,6
		c0,2.2,0,4.3,0.1,6.2l4.7,0.9v3.2H327v-3.2l5-1c0.1-1.9,0.1-4,0.1-6.2s0-4.2,0-5.9V808c0-3-0.4-5.2-1.2-6.3
		c-0.8-1.2-2.2-1.7-4.2-1.7c-2.7,0-5.6,1.3-8.7,3.8v11.6c0,1.7,0,3.7,0,5.9c0,2.2,0,4.3,0.1,6.3l4.6,0.9v3.2H303.4z"/>
	<path class="st2" d="M366,831.6V828l6.4-0.9l16.2-47.1h6.4l16.2,47.5l5.3,0.6v3.6H394V828l6.8-0.9l-3.7-11.5h-16.9l-3.7,11.2l6.7,1
		v3.6H366z M388.7,790.2l-7.1,21.5h14.2L388.7,790.2z"/>
	<path class="st2" d="M419.9,831.6v-3.2l5-1c0.1-1.9,0.1-4,0.1-6.2c0-2.2,0-4.2,0-5.8v-4.1c0-2.1,0-3.8,0-5.1c0-1.3-0.1-2.7-0.2-4.2
		l-5.4-0.7v-2.9l12.9-4.9l1.2,0.8l0.5,6c1.9-2.1,3.9-3.8,6.1-5c2.2-1.2,4.5-1.8,6.9-1.8c5,0,8.2,2.4,9.7,7c2.1-2.5,4.2-4.3,6.4-5.4
		c2.2-1.1,4.5-1.7,6.9-1.7c3.5,0,6.1,1.1,7.9,3.3c1.8,2.2,2.6,5.6,2.6,10.4v8.3c0,1.8,0,3.7,0,5.9s0,4.3,0.1,6.2l4.7,0.9v3.2h-18.9
		v-3.2l4.8-1c0-1.9,0.1-4,0.1-6.2s0-4.2,0-5.9v-7.1c0-3.3-0.4-5.4-1.3-6.6c-0.9-1.1-2.3-1.7-4.2-1.7c-2.7,0-5.6,1.3-8.5,4
		c0,0.5,0.1,1.1,0.1,1.6s0,1.2,0,1.8v8.1c0,1.8,0,3.7,0,5.9s0,4.3,0.1,6.2l4.6,0.9v3.2h-19v-3.2l5-1c0.1-1.9,0.1-4,0.1-6.2
		s0-4.2,0-5.9v-7c0-3.2-0.4-5.3-1.2-6.6c-0.8-1.2-2.2-1.9-4.2-1.9c-1.4,0-2.9,0.3-4.3,1c-1.4,0.7-2.8,1.6-4.1,2.8v11.5
		c0,1.7,0,3.7,0,5.9c0,2.2,0,4.3,0.1,6.3l4.6,0.9v3.2L419.9,831.6L419.9,831.6z"/>
	<path class="st2" d="M508.5,832.7c-3.6,0-6.8-0.8-9.5-2.3c-2.7-1.5-4.9-3.8-6.4-6.7c-1.5-2.9-2.3-6.4-2.3-10.4
		c0-4.1,0.9-7.7,2.7-10.7c1.8-3,4.1-5.2,7-6.8c2.9-1.6,5.9-2.4,9.2-2.4c3,0,5.7,0.6,8,1.9c2.3,1.3,4,3.1,5.3,5.4
		c1.3,2.3,1.9,5.1,1.9,8.2c0,1.7-0.2,3.1-0.5,4.3H500c0.2,4.4,1.4,7.8,3.5,10c2.1,2.2,4.8,3.3,8.1,3.3c2.3,0,4.2-0.5,5.8-1.4
		c1.6-0.9,3-2.1,4.3-3.5l2.2,2c-1.5,2.8-3.6,5-6.2,6.6S512.1,832.7,508.5,832.7z M508.5,797.1c-1.2,0-2.5,0.4-3.7,1.2
		c-1.2,0.8-2.2,2.1-3.1,3.9c-0.9,1.8-1.4,4.3-1.6,7.4h10.6c1.9,0,3.1-0.4,3.7-1.2c0.6-0.8,0.9-1.9,0.9-3.3c0-2.4-0.7-4.3-2-5.8
		C512,797.9,510.4,797.1,508.5,797.1z M504.4,786.7c0.9-1.5,1.8-3.1,2.8-4.7c1-1.6,2.2-3.5,3.7-5.8c0.9-1.5,1.7-2.5,2.5-3.1
		c0.8-0.6,1.7-0.9,2.6-0.9c0.9,0,1.7,0.3,2.4,0.9s1.1,1.5,1.1,2.7c0,1.5-1.2,3.3-3.7,5.3c-1.9,1.6-3.6,3-4.9,4.1
		c-1.4,1.2-2.7,2.3-4.1,3.4L504.4,786.7z"/>
	<path class="st2" d="M529.9,831.6v-3.2l5-0.9c0.1-2,0.1-4.1,0.1-6.3c0-2.2,0-4.2,0-5.8v-4.1c0-2.1,0-3.8,0-5.1
		c0-1.3-0.1-2.7-0.2-4.2l-5.4-0.7v-2.9l12.9-4.9l1.2,0.8l0.8,9.1c1.2-3.2,2.8-5.7,4.8-7.4c2-1.7,4-2.6,6-2.6c1.4,0,2.7,0.4,3.8,1.1
		c1.2,0.7,1.9,1.8,2.3,3.1c-0.1,1.9-0.5,3.4-1.4,4.5c-0.9,1.1-2.1,1.6-3.6,1.6c-1.9,0-3.6-0.9-5.3-2.8l-0.7-0.8
		c-2.7,2.3-4.7,5.5-5.9,9.6v5.7c0,1.6,0,3.5,0,5.7c0,2.2,0,4.2,0.1,6.2l6.4,1.2v3.2H529.9z"/>
	<path class="st2" d="M564,831.6v-3.2l5.1-1c0.1-1.9,0.1-4,0.1-6.2c0-2.2,0-4.2,0-5.8v-3.6c0-2.1,0-3.9,0-5.3c0-1.4-0.1-2.9-0.2-4.5
		l-5.5-0.7v-2.9l13.9-4.9l1.2,0.8l-0.2,10.9v10.2c0,1.7,0,3.6,0,5.8c0,2.2,0,4.4,0.1,6.3l4.7,0.9v3.2L564,831.6L564,831.6z
		 M573.8,786.2c-1.7,0-3-0.5-4.2-1.5c-1.1-1-1.7-2.3-1.7-4c0-1.7,0.6-3,1.7-4c1.1-1,2.5-1.5,4.2-1.5s3,0.5,4.1,1.5
		c1.1,1,1.7,2.4,1.7,4c0,1.6-0.6,2.9-1.7,4C576.8,785.7,575.4,786.2,573.8,786.2z"/>
	<path class="st2" d="M606.4,832.7c-3.5,0-6.7-0.8-9.5-2.3c-2.8-1.5-5-3.7-6.5-6.7c-1.6-2.9-2.4-6.4-2.4-10.6
		c0-4.2,0.9-7.7,2.7-10.7c1.8-2.9,4.1-5.2,7.1-6.7c2.9-1.5,6.1-2.3,9.6-2.3c2.5,0,4.8,0.5,6.9,1.4c2,1,3.7,2.2,5,3.8
		c1.3,1.6,2,3.4,2.3,5.4c-0.6,2.3-2.1,3.4-4.4,3.4c-2.9,0-4.6-1.8-5-5.4l-1-4.6c-0.5-0.1-0.9-0.2-1.4-0.2c-0.5,0-0.9-0.1-1.4-0.1
		c-1.9,0-3.6,0.5-5.2,1.6s-2.9,2.7-3.8,4.9c-1,2.2-1.5,5-1.5,8.4c0,4.7,1.1,8.3,3.2,10.8c2.1,2.5,4.9,3.7,8.4,3.7
		c2.1,0,3.9-0.5,5.6-1.4c1.7-0.9,3-2.2,4.2-3.8l2.3,1.7c-1.3,3.2-3.2,5.5-5.8,7.2C613.1,831.9,610,832.7,606.4,832.7z"/>
	<path class="st2" d="M655.9,832.5c-2.1,0-3.7-0.5-5-1.5c-1.3-1-2.2-2.5-2.6-4.3c-1.9,2-3.6,3.4-5.2,4.5c-1.5,1-3.6,1.5-6,1.5
		c-2.9,0-5.3-0.8-7.3-2.5c-2-1.7-3-4.1-3-7.2c0-1.7,0.4-3.2,1.2-4.6c0.8-1.4,2.2-2.7,4.1-4c2-1.2,4.8-2.5,8.6-3.6
		c1-0.4,2.2-0.7,3.5-1.1c1.3-0.4,2.6-0.7,4-1.1v-2.2c0-3.6-0.5-6.1-1.5-7.3c-1-1.3-2.8-1.9-5.3-1.9c-0.5,0-1,0-1.5,0.1
		c-0.5,0.1-1.1,0.1-1.7,0.2l-0.9,4.3c-0.2,1.9-0.8,3.2-1.6,4.1c-0.9,0.9-2,1.3-3.3,1.3c-2.5,0-3.9-1.2-4.3-3.5
		c0.5-3.1,2.1-5.6,5-7.4c2.9-1.9,6.6-2.8,11.3-2.8c4.5,0,7.8,1.1,9.8,3.2c2.1,2.1,3.1,5.7,3.1,10.8v16.9c0,2.3,0.7,3.5,2.2,3.5
		c1,0,1.9-0.6,2.7-1.7l1.8,1.5c-0.9,1.8-2,3-3.3,3.8C659.3,832.2,657.7,832.5,655.9,832.5z M635.7,821.3c0,2,0.5,3.5,1.6,4.4
		c1.1,0.9,2.4,1.4,3.9,1.4c0.9,0,1.8-0.2,2.6-0.6c0.9-0.4,2.2-1.3,4.1-2.6v-12.2c-1.1,0.4-2.1,0.7-3.1,1s-1.8,0.6-2.4,0.9
		c-2.6,1-4.4,2.2-5.3,3.6C636.2,818.4,635.7,819.8,635.7,821.3z"/>
	<path class="st2" d="M684.4,783.9v-3.6H708v3.6l-6.8,0.8c-0.1,3.2-0.1,6.4-0.1,9.7c0,3.3,0,6.6,0,9.9v4.7c0,2.7,0,5.7,0,8.8
		c0,3.2,0.1,6.4,0.1,9.6h15.6l2.2-10.7h5.4l-0.8,14.9h-39.3V828l6.5-0.7c0.1-3.3,0.2-6.5,0.2-9.6c0-3.2,0-6.2,0-9.2v-4.2
		c0-3.4,0-6.7,0-10c0-3.3-0.1-6.5-0.2-9.7L684.4,783.9z"/>
	<path class="st2" d="M759.1,832.5c-2.1,0-3.7-0.5-5-1.5c-1.3-1-2.2-2.5-2.6-4.3c-1.9,2-3.6,3.4-5.2,4.5c-1.5,1-3.6,1.5-6,1.5
		c-2.9,0-5.3-0.8-7.3-2.5c-2-1.7-3-4.1-3-7.2c0-1.7,0.4-3.2,1.2-4.6c0.8-1.4,2.2-2.7,4.1-4c2-1.2,4.8-2.5,8.6-3.6
		c1-0.4,2.2-0.7,3.5-1.1c1.3-0.4,2.6-0.7,4-1.1v-2.2c0-3.6-0.5-6.1-1.5-7.3c-1-1.3-2.8-1.9-5.3-1.9c-0.5,0-1,0-1.5,0.1
		c-0.5,0.1-1.1,0.1-1.7,0.2l-0.9,4.3c-0.2,1.9-0.8,3.2-1.6,4.1c-0.9,0.9-2,1.3-3.3,1.3c-2.5,0-3.9-1.2-4.3-3.5
		c0.5-3.1,2.1-5.6,5-7.4c2.9-1.9,6.6-2.8,11.3-2.8c4.5,0,7.8,1.1,9.8,3.2c2.1,2.1,3.1,5.7,3.1,10.8v16.9c0,2.3,0.7,3.5,2.2,3.5
		c1,0,1.9-0.6,2.7-1.7l1.8,1.5c-0.9,1.8-2,3-3.3,3.8C762.5,832.2,761,832.5,759.1,832.5z M739,821.3c0,2,0.5,3.5,1.6,4.4
		c1.1,0.9,2.4,1.4,3.9,1.4c0.9,0,1.8-0.2,2.6-0.6c0.9-0.4,2.2-1.3,4.1-2.6v-12.2c-1.1,0.4-2.1,0.7-3.1,1c-1,0.3-1.8,0.6-2.4,0.9
		c-2.6,1-4.4,2.2-5.3,3.6C739.5,818.4,739,819.8,739,821.3z"/>
	<path class="st2" d="M783.6,832.7c-3.1,0-5.5-0.8-7.3-2.3c-1.8-1.5-2.6-4-2.6-7.4c0-1.2,0-2.3,0-3.4c0-1.1,0-2.3,0-3.8v-16.5H768
		v-4l6.3-0.8l2.9-10.6h6.3l-0.3,10.7h9.3v4.7h-9.4v22.9c0,1.9,0.4,3.3,1.1,4.2c0.7,0.9,1.7,1.3,3,1.3c1.4,0,3-0.6,4.7-1.9l1.9,1.9
		c-1,1.6-2.3,2.9-4,3.8C788.1,832.2,786,832.7,783.6,832.7z"/>
	<path class="st2" d="M796.1,831.6v-3.2l5.1-1c0-1.9,0.1-4,0.1-6.2c0-2.2,0-4.2,0-5.8v-3.6c0-2.1,0-3.9,0-5.3c0-1.4-0.1-2.9-0.2-4.5
		l-5.5-0.7v-2.9l13.9-4.9l1.2,0.8l-0.2,10.9v10.2c0,1.7,0,3.6,0,5.8c0,2.2,0,4.4,0.1,6.3l4.7,0.9v3.2L796.1,831.6L796.1,831.6z
		 M805.9,786.2c-1.7,0-3-0.5-4.2-1.5c-1.1-1-1.7-2.3-1.7-4c0-1.7,0.6-3,1.7-4c1.1-1,2.5-1.5,4.2-1.5c1.7,0,3,0.5,4.1,1.5
		c1.1,1,1.7,2.4,1.7,4c0,1.6-0.6,2.9-1.7,4S807.6,786.2,805.9,786.2z"/>
	<path class="st2" d="M820.1,831.6v-3.2l5-1c0.1-1.9,0.1-4,0.1-6.2c0-2.2,0-4.2,0-5.8v-4.1c0-2.1,0-3.8,0-5.1c0-1.3-0.1-2.7-0.2-4.2
		l-5.4-0.7v-2.9l12.9-4.9l1.2,0.8l0.5,6c4-4.5,8.4-6.7,13.2-6.7c3.4,0,6,1.1,7.8,3.3c1.8,2.2,2.8,5.7,2.8,10.5v8.1c0,1.8,0,3.7,0,6
		c0,2.2,0,4.3,0.1,6.2l4.7,0.9v3.2h-19.1v-3.2l5-1c0-1.9,0.1-4,0.1-6.2s0-4.2,0-5.9V808c0-3-0.4-5.2-1.2-6.3
		c-0.8-1.2-2.2-1.7-4.2-1.7c-2.7,0-5.6,1.3-8.7,3.8v11.6c0,1.7,0,3.7,0,5.9c0,2.2,0,4.3,0.1,6.3l4.6,0.9v3.2H820.1z"/>
	<path class="st2" d="M896.6,832.5c-2.1,0-3.7-0.5-5-1.5c-1.3-1-2.2-2.5-2.6-4.3c-1.9,2-3.6,3.4-5.2,4.5c-1.5,1-3.6,1.5-6,1.5
		c-2.9,0-5.3-0.8-7.3-2.5c-2-1.7-3-4.1-3-7.2c0-1.7,0.4-3.2,1.2-4.6c0.8-1.4,2.2-2.7,4.1-4c2-1.2,4.8-2.5,8.6-3.6
		c1-0.4,2.2-0.7,3.5-1.1c1.3-0.4,2.6-0.7,4-1.1v-2.2c0-3.6-0.5-6.1-1.5-7.3c-1-1.3-2.8-1.9-5.3-1.9c-0.5,0-1,0-1.5,0.1
		c-0.5,0.1-1.1,0.1-1.7,0.2l-0.9,4.3c-0.2,1.9-0.7,3.2-1.6,4.1c-0.9,0.9-2,1.3-3.3,1.3c-2.5,0-3.9-1.2-4.3-3.5
		c0.5-3.1,2.1-5.6,5-7.4c2.9-1.9,6.6-2.8,11.3-2.8c4.5,0,7.8,1.1,9.8,3.2c2.1,2.1,3.1,5.7,3.1,10.8v16.9c0,2.3,0.7,3.5,2.2,3.5
		c1,0,1.9-0.6,2.7-1.7l1.8,1.5c-0.9,1.8-2,3-3.3,3.8C900,832.2,898.5,832.5,896.6,832.5z M876.5,821.3c0,2,0.5,3.5,1.6,4.4
		c1.1,0.9,2.4,1.4,3.9,1.4c0.9,0,1.8-0.2,2.6-0.6c0.9-0.4,2.2-1.3,4.1-2.6v-12.2c-1.1,0.4-2.1,0.7-3.1,1c-1,0.3-1.8,0.6-2.4,0.9
		c-2.6,1-4.4,2.2-5.3,3.6C877,818.4,876.5,819.8,876.5,821.3z"/>
	<path class="st2" d="M916.4,832.7c-1.8,0-3.2-0.6-4.4-1.8c-1.2-1.2-1.8-2.6-1.8-4.3c0-1.8,0.6-3.3,1.8-4.5c1.2-1.2,2.7-1.9,4.4-1.9
		c1.8,0,3.2,0.6,4.4,1.9c1.2,1.2,1.8,2.7,1.8,4.5c0,1.7-0.6,3.1-1.8,4.3C919.6,832.1,918.1,832.7,916.4,832.7z"/>
</g>
<g>
	<path class="st3" d="M230.6,347.5c-0.1-0.5-0.3-1.1-0.5-1.5c-0.9-1.3-1.6-2.7-2.1-4.2c-0.1-0.2-0.2-0.3-0.3-0.5
		c-1-1.6-1.8-3.3-2.7-4.9c-0.9-1.8-2.2-3.5-2.8-5.5c-0.4-1.2-1.2-2.2-1.8-3.4c-0.8-1.4-1.5-2.9-2.2-4.3c-0.7-1.4-1.4-2.9-2.2-4.5
		c0-1.1-0.2-2.5,0.9-3.5c1.7-1.4,2.8-2.1,4.8-1.9c0.1,0.1,0.2,0.5,0.5,0.6c1,0.4,1.5,1.2,2,2c0.9,1.7,1.9,3.5,2.9,5.1
		c0.8,1.3,1.3,2.8,1.9,4.3c0.9,2,1.8,4,2.9,5.9c1.5,2.5,2.8,5.1,4.3,7.6c1.1,2,2.2,4,3,6.2c0.4,1.2,1.1,2.3,1.7,3.4
		c0.1,0.2,0.3,0.3,0.6,0.6c0.2-0.7,0.5-1.1,0.5-1.6c0-1.2,0.9-2.2,1-3.4c0.9-1.1,1-2.4,1.4-3.7c0.5-1.4,1.2-2.7,1.5-4.1
		c0.2-0.8,0.4-1.5,0.6-2.2c0.2,0,0.3-0.1,0.3-0.1c0.4-1.4,0.9-2.7,1.2-4c0.2-0.8,0.8-1.3,0.9-2.2c0.1-0.8,0.6-1.6,0.7-2.4
		c0.1-0.6,0.6-1,0.8-1.6c0.2-0.5,0.2-1.1,0.5-1.5c0.3-0.5-0.1-1,0.4-1.4c0.4-0.3,0.6-1,1-1.3c0.6-0.4,1.3-0.8,1.9-1
		c0.8-0.2,1.7-0.3,2.5,0.1c0.2,0.1,0.4,0.1,0.8,0.1c0.2,0.2,0.5,0.5,0.8,0.9c0.3,0.4,0.5,0.7,0.8,1.1c0,0.6,0,1.3,0,1.9
		c0,0.3-0.1,0.6-0.2,0.9c-0.4,1-0.7,2-0.9,3.1c-0.2,1.1-0.9,1.9-1.2,3c-0.2,0.8-0.4,1.6-0.7,2.4c-0.2,0.7-0.8,1.2-0.9,2
		c-0.1,0.6-0.5,1.3-0.6,1.9c-0.2,0.8-0.5,1.5-0.7,2.3c-0.1,0-0.2,0.1-0.4,0.1c0,0.1-0.1,0.2-0.1,0.3c0.1,0.7-0.2,1.3-0.5,1.9
		c-0.4,1.1-0.6,2.3-1.3,3.3c-0.4,0.6-0.4,1.4-0.6,2.1c-0.3,1.1-0.9,2.2-1.3,3.2c-0.2,0.5-0.3,1.1-0.6,1.9c0.7-0.1,1.4-0.1,1.8-0.4
		c1.2-0.7,2.5-0.9,3.7-1.4c1.7-0.7,3.4-1.3,5.1-1.9c1.5-0.6,3.1-1,4.7-1.7c1.5-0.6,3.1-1.2,4.6-1.8c1.3-0.5,2.6-0.8,3.9-1.3
		c0.7-0.2,1.3-0.6,2-0.9c0.7-0.3,1.4-0.4,2.1-0.7c1.2-0.6,2.6-0.9,3.9-1.3c0.8-0.2,1.6,0,2.5,0.4c0.3,0.3,0.8,0.8,1.2,1.2
		c0.1,0.7,0.3,1.4,0.4,2.1c0.1,0.7,0,1.4,0,2.2c-0.2,0.1-0.4,0.3-0.6,0.4c0,0.4,0,0.7-0.1,1c-1.2,0.6-2.3,1.4-3.5,1.8
		c-1.6,0.5-3,1.3-4.6,1.8c-0.6,0.2-1.3,0.4-2,0.6c-1.3,0.4-2.7,1-4,1.5c-1.6,0.7-3.3,1.1-5,1.8c-0.4,0.2-0.8,0.3-1.3,0.5
		c0.9,0.3,1.6,0.6,2.5,0.5c0.2,0,0.4,0.2,0.5,0.2c0.7,0.1,1.3,0.5,2,0.4c0.3,0,0.6,0.2,0.8,0.2c0.7,0.1,1.4,0.5,2.2,0.4
		c0.3-0.1,0.7,0.2,1,0.2c0.7,0.1,1.3,0.4,2.1,0.4c0.8,0,1.7,0.3,2.4,0.7c0.7,0.4,1.5,0,2.1,0.3c0.6,0.2,1.3,0.6,2,0.6
		c0.5,0,1,0,1.5,0.3c0.3,0.2,0.7,0.3,1.1,0.3c0.4,0.1,0.8,0,1.2,0c0.6,0.4,1.1,0.7,1.5,1.2c0.4,0.4,0.6,1,0.9,1.6c0,0.8,0,1.6,0,2.4
		c-0.4,0.6-0.9,1.1-1.2,1.7c-0.6,1.2-1.6,1.6-2.8,1.6c-1.1,0-2.2-0.1-3.3-0.5c-1.1-0.3-2.2-0.6-3.3-0.8c-0.6-0.1-1.3-0.2-1.9-0.4
		c-1.5-0.4-3.1-0.5-4.6-1.2c-0.3-0.2-0.8,0-1.2-0.1c-0.4-0.1-0.8-0.2-1.1-0.3c-1.2-0.2-2.4-0.5-3.6-0.8c-1.1-0.3-2.2-0.5-3.3-0.8
		c-0.6-0.2-1.2-0.1-1.8-0.3c-1.2-0.5-2.7-0.2-3.9-1c-1.4,0.3-2.6-0.8-4-0.7c-0.5,0-1-0.1-1.4-0.3c-0.8-0.4-1.6-0.3-2.4-0.3
		c-0.1,0.1-0.3,0.3-0.4,0.4c0,0.1,0.1,0.1,0.1,0.2c1.3,2.4,2.4,4.9,3.7,7.3c0.7,1.4,1.6,2.7,2.4,4.1c0.2,0.4,0.4,0.8,0.6,1.2
		c1.7,3,3.3,6.1,4.8,9.2c0.3,0.7,0.5,1.5,0.9,2.2c1.1,2.1,2.3,4.1,3.3,6.2c1,1.9,0.9,1.9,0.9,3.8c-0.5,0.7-1.1,1.4-1.7,2.2
		c-1.3,1.1-2.8,0.7-4.3,0.8c-1-0.4-1.4-1.2-2-2.1c-1-1.5-1.6-3.3-2.7-4.8c-0.6-0.8-0.8-2-1.3-2.9c-1-1.9-2-3.7-3.1-5.5
		c-0.9-1.6-1.7-3.2-2.4-4.9c-0.4-1-1-2.1-1.6-3c-0.7-1.1-1.1-2.3-1.9-3.4c-0.2-0.3-0.4-0.6-0.7-1.1c0-0.1,0-0.5,0-1
		c-0.9,0.8-0.5,1.9-1.1,2.6c-0.1,0-0.2,0-0.3,0c-0.1,0.1-0.2,0.2-0.2,0.2c0.1,0.7-0.3,1.3-0.4,1.9c-0.1,0.6-0.6,1.2-0.5,1.8
		c0,0.1,0,0.3-0.1,0.4c-1.1,1.2-1.1,2.9-1.7,4.4c-0.4,0.9-1.1,1.8-1.1,2.9c0,0.3-0.1,0.6-0.2,0.8c-0.3,0.6-0.2,1.3-0.7,1.8
		c-0.2,0.2-0.2,0.5-0.3,0.9c-0.4,0.1-0.8,0.4-0.9,0.9c-0.5,0.2-0.9,0.4-1.5,0.7c-0.8,0-1.7,0-2.8,0c-0.1-0.2-0.3-0.5-0.4-0.6
		c-0.4,0-0.6,0-0.9,0c-0.5-0.8-1-1.7-1.4-2.6c-0.3-1,0.3-2,0.3-3.1c0.1,0,0.3-0.1,0.4-0.1c0.3-1,0.7-2.1,1-3.2
		c0.4-1.4,1.3-2.5,1.5-4c0.1-0.5,0.4-0.9,0.4-1.4c0-0.8,0.8-1.2,0.8-2c0-0.7,0.4-1.3,0.6-1.9c0.2-0.7,0.5-1.5,0.7-2.3
		c0.1,0,0.3-0.1,0.5-0.1c-0.3-0.7,0.5-1.3,0.2-2.1c-1.9,0.7-3.8,1.3-5.7,1.9c-0.8,0.3-1.7,0.7-2.4,1.1c-0.9,0.5-1.9,0.5-2.8,1
		c-0.8,0.4-1.7,0.6-2.7,0.8c-0.8,0.2-1.5,0.9-2.5,0.9c-0.7,1-2,0.8-3,1.2c-1.7,0.8-3.6,1.2-5.3,2c-1.4,0.7-3,1-4.4,1.5
		c-0.9,0.3-1.8,0.8-2.7,0.6c-0.5-0.1-1.1-0.3-1.7-0.4c0,0,0-0.3-0.1-0.3c-1-0.4-0.9-1.5-1.2-2.3c-0.2-0.5-0.4-1.2-0.2-1.5
		c0.3-0.6,0-1.1,0.3-1.7c0.1,0,0.3-0.1,0.5-0.1c0-0.2,0-0.5,0-0.7c0.9-1,2.1-1.7,3.4-2c1.4-0.3,2.6-1.1,4-1.5
		c0.6-0.2,1.2-0.4,1.8-0.6c1.2-0.3,2.2-1.2,3.5-1.1c0.7-0.9,1.9-0.6,2.8-1.3c0.4-0.3,0.9-0.3,1.4-0.5c2.3-0.8,4.5-1.5,6.7-2.5
		c1.3-0.6,2.8-0.9,4.2-1.4c1.2-0.4,2.4-0.9,3.9-1.5c-0.6-0.3-1-0.7-1.4-0.7c-1.1,0-2.1-0.3-3.1-0.6c-0.6-0.2-1.3-0.1-1.9-0.3
		c-1.2-0.5-2.7-0.2-3.9-1c-1.9,0.1-3.6-1-5.5-0.9c-1.3-0.8-2.9-0.4-4.3-1.2c-0.3-0.2-0.8,0-1.2-0.1c-0.4-0.1-0.8-0.2-1.1-0.3
		c-1.2-0.4-2.6-0.1-3.7-0.9c-1.5,0.3-2.7-0.8-4.2-0.7c-0.5,0-1-0.3-1.6-0.4c-0.1-0.6-0.7-0.6-1.3-1c-0.2-0.3-0.4-0.8-0.7-1.3
		c-0.3-1.1,0.1-2.2,0.4-3.2c0.4-1.1,1.5-1.7,2.2-2.6c0.6-0.1,1.2-0.4,1.8-0.3c1.2,0.2,2.5,0.3,3.7,0.7c0.5,0.1,0.9,0.1,1.3,0.2
		c0.4,0.1,0.9,0.2,1.3,0.3c0.5,0.2,0.9,0.4,1.5,0.3c0.4-0.1,0.7,0.2,1,0.3c0.7,0.1,1.3,0.6,2.1,0.4c0.4-0.1,0.8,0.1,1.1,0.3
		c0.6,0.3,1.3,0.2,1.9,0.4c0.3,0.1,0.6,0.2,0.8,0.3c0.7,0.1,1.3,0.5,2.1,0.4c0.2,0,0.5,0.1,0.7,0.2c0.7,0.1,1.4,0.6,2.2,0.4
		c0.4-0.1,0.8,0.1,1.2,0.3c0.6,0.3,1.3,0.2,1.9,0.4c0.5,0.1,1,0.1,1.4,0.3C228.5,347.5,229.5,347.6,230.6,347.5
		c-0.1,0-0.1,0-0.1,0.1c0.1,0.1,0.1,0.2,0.2,0.3c0,0,0.1-0.1,0.1-0.1C230.8,347.6,230.7,347.6,230.6,347.5z"/>
</g>
<g id="Capa_2" class="st4">
	
		<image style="display:inline;overflow:visible;opacity:0.49;enable-background:new    ;" width="1347" height="758" xlink:href="9FB1D147FE3C83EA.jpeg"  transform="matrix(2.1159 0 0 2.1159 -646.1699 -153.9467)">
	</image>
</g>
</svg>
