<svg version="1.1" id="Capa_1" xmlns="http://www.w3.org/2000/svg" x="0" y="0" viewBox="0 0 850.4 645" xml:space="preserve"><style>.st2{fill:#fff}</style><path d="M371.3 560.1l-3.6-3c-.4.4-1 1-1.6 1.5-1.8-.6-3.3-1-4.8-1.4-1.4-.4-4-1.3-4.3-.7-1.9 2.8-2.9-.4-4.3-.4-7-.3-13.9-.5-20.6-3-1.6-.7-4 1-7.1 1.8-.1-.1-1.1-.7-2-1.2-.6.5-1.1 1.2-1.8 1.9-.5-1.2-1-2.1-1.5-3.3-1.4-.1-2.8-.1-4.2-.1-.5-1.1-1-2-1.8-3.6-3.2.7-6.5 1.5-9.9 2.1-.8.2-1.8-.7-2.6-.6-8.3.3-15.2-5.3-23.5-5.4-1.4 0-2.7-2.4-5-4.6-8.8.4-17.4-2.5-21.7-13.1-.6.8-1 1.3-1.7 2.3-2-1.3-4-2.6-6.9-4.4-6.8.8-12.7-4.6-19.8-7.4-.1.9-.3 1.7-.5 2.9-1.7.8-3.8 1.5-6.2 2.5-.2-.5-.6-1.4-1.1-2.7-1.4-.1-3-.2-4.5-.3-.4-1-.7-1.8-1-2.8l-4.2.4c-.5-1.3-1-2.2-1.6-3.6-4.7 1.4-7-2.9-9.8-4.8l-3.7.3c-4.7-6.3-14.2-5.7-19-12.7l-3.8.3c-1.9-1.8-3.8-3.9-6.5-6.9-1.7-.4-4.7-.9-8.4-1.6-1.4-5.6-8.6-4.2-12.2-8.2l-.3-3.8c-2.5-.8-5.6-.1-7.7-2.7-1.4-1.9-3.2-3.3-5.6-5.9 0 0-.3-1.4-.5-2.9-5-2.8-9.9-5.6-14.9-8.4l-.7-8.5-6.8.6c-4.5-6.1-9.2-12.2-14.5-19.3l-.3-3.8c-6.6-1.7-6-7.3-6.4-11.3-1.9-3-3.1-5-4.2-6.7.5-3.9.8-7.1 1.4-11.9-1.8 1.6-2.2 2.1-3.1 2.9-1.3-1.6-2.7-3.2-3.9-4.7 1.1-.3 2.7-.6 5.9-1.4-2.6-.6-3.5-.8-4.8-1.2l-.3-4c-3.6-.1-4.5-3.1-6.1-5.2-.5-.6.3-2 .8-4.1-1.4-2.2-6.4-1.7-6.6-6.7.1-.1.6-1.1 1.1-1.9-3.4-3.1-3.4-3.1-7.3-3.7-.7-5-1.6-9.9-2.4-15.2 0 0 .8-.3 1.8-.6-.5-1.6-1-3.3-1.5-5-.5-1.6-1.1-3.1-1.7-4.9.5-.2 1.6-.6 2.5-1.1.2-.5.3-1 .4-1.6.4-2.7-1.8-4.8-2.2-7.1-.4-2.4.7-4.9 1-7.4.6-4.5-3.6-6.8-4.5-10.6-.8-3.3 4.5-5.8 1.3-9.4 1-.5 1.9-1 3-1.6-1.1-4.6-2.2-9.3-3.3-13.7 5.9-6.4 4.1-14.9 7.6-21.6-1.3-2.6-4.3-5.2-.7-8.3-1.2-.9-2.3-1.9-4-3.3 1.1-.6 1.7-1 3.1-1.7 1.4-3.9 3.1-8.6 4.7-13.3-3.9-2.7 3-6.5-1.1-8.4-2.9-2.4-5.6-4.5-8.9-7.2.7-4.2-3.4-6.9-5.7-10.8-.5-.9-2-1.7-2.9-1.7-4 .5-6-2-7.5-4.8-1.3-2.3-2.5-3.9-4.3-3.4-2.8-3.4-4.9-6.3-7.4-8.9-4.7-4.7-10.2-8.9-14.3-14-3-3.9-6.8-7.3-8-12.6-.5-2.1-2.4-3.7-3.9-5.7-1.6-.2-3.3-.3-4.9-.5-.9-1.4-1.8-2.9-2.9-4.9.9-2.1 2.1-4.6 3.4-7.4 6.6-1 13 .9 19 2.6 3.5 1 5.2 0 7.7-1.5 1.2.5 2.5 1.6 3.7 1.5 7.2-1 13.9 2.5 21 2.2 1.6 0 3.3 1.2 4.8.9 3.3-.6 6.2.4 9.2 1.1 5.4 1.4 11.1 1.4 16.6 2.2 10 1.3 20.2.6 29.9 3.8 6.6 2.2 10.2-3.1 14.7-6.1l7-4.4c.2-.5.2-1.1.4-1.6.1-.3 0-.6.2-1.6 2 .1 4 .3 6.6.4-.3-.8-.7-2.1-1.4-4.1 4-1.3 8.4-2.6 13.3-4.1.1-.3.1-1.1.3-2.5 2-.4 4.2-.7 6.2-1 .5-1.4.8-2.6 1.5-4.6 2.2 2.6 3.8 4.4 5.7 6.5.3-5.8 4.9-6.8 8.5-8.9.3-1 .5-2.2.8-3.1 1.4.6 2.6 1.2 4.1 1.9.4-1.5.7-2.7.9-3.7 6.3 2.7 11.1-.8 16.5-3.2 2.3 1.7 5 1.6 7.5 0 3.1-1.9 6.2-2.2 9.7-.7 1.5.6 3.6.5 5.1.1 3.9-1.2 7.9 1.2 11.8-.5 2.5 3.1 3.9-.5 6-.9 2 .8 4.2 1.8 6.6 2.9.3-1 .5-2.1 1-4.1.7 1.4 1.1 2.2 1.6 3.5 2.4 1.6 4.4.3 5.7-1.7 4.7.9 9 1.1 12.9 2.6 4.4 1.6 8.5.6 12.8.6.5 1.1 1 2 1.6 3.6 1.8-.7 3.8-1.3 5.8-1.9.4.9.9 1.8 1.4 3 .7-.8 1.3-1.4 1.8-2 .6.5 1.4 1.1 2.5 1.9 1-.8 2.1-1.6 3.7-2.8 3.1 2.7 6.5 2.4 9.2-1 1.5 2 2.6 3.6 4 5.3l6.2-.5c1.4 1.7 2.5 3.2 4.1 5.4 8.6-1.6 16.9 2.3 26 6.3-.1-.3.4.7 1 2.3 1.2-.5 2.3-1 3.3-1.4 2.4 2 5 4.2 6.4 5.5 7 0 11.6.9 16.3 3.8 3.8 2.5 8.1 4.9 13.2 4.8 1.8-.1 3.7.9 5.5 1.4 1.6.5 3.3 1.3 4.8 1.1 4.5-.8 8.3.8 12.1 2.7 4.4-2 8.6-4.1 13.4-5 6.2-1.2 12.1-4.3 18.3-5.8 7.4-1.8 13.1-7.8 20.9-8.1 3.3-5.3 10.6-3.5 14.2-8.3.9.5 1.8 1.1 3.8 2.4.6-1.9 1.3-3.5 1.2-3.4 5.3-2.1 8.9-3.6 12.5-5 2.5-1.9 6.3 0 8.4-3.3 1.8.7 3.6 1.6 5.4 2.4 2.5-1.7 5.1-2.4 8.3-1.2 1.8.7 4.2 1 5.8.3 1.7-.8 3.9-3 5.3-1.9 1.9 1.6 3.7-.8 4.5.2 1.7 2 3.4-2.8 4.6.4 4.8-1.2 9.6-2.4 15-3.9.3.3 1.4 1.3 2.7 2.6 2.7-.2 5.6-.9 8.6-.6 12 .9 24.2-.7 36.2 3.2 4.6 1.5 9.9 1.6 14.5 3.2 1.3.5 2.8.6 3.9 1.2 6.5 3.2 14 2.9 20.7 5.4 2.2.8 5.3-1.1 9.2-1.9 2.5.7 5.9 5.2 10.6.1 1.9 2.6 3.9 5.3 6.5 8.8 2.1-.6 5.2-1.5 8.5-2.3l.8 8.7c1.5-.9 2.6-1.5 4.1-2.5 2 1.6 4.2 3.4 6.5 5.3l.5-.9c3.5 1.6 6.9 3.3 10.5 5 .7-.6 1.4-1.3 2.7-2.5 1.2 1.7 2 3 2.9 4.3 1 1.3 2.2 2.5 4 4.6 2 .8 5 2.1 8.3 3.6-.7 1.1-1.2 1.7-1.7 2.5 3.1.8 6.1 1.7 8.8 2.3.4 1.3.6 2.1.9 2.9 2.2-.1 4.2-.2 7.1-.3-.7 2.4-1.1 4.4-2.2 8.1 2-1.8 2.6-2.3 3-2.8 3.8 1.1 4.2 6 8.6 6.6.3 1.9.5 3.9.8 5.5 4.4 3.3 9.3 5.5 10.1 11.8.2 1.3 2.9 2.3 5.6 4.1.5.9 1.7 3.1 3 5.3.7-1.5 1.4-2.8 2.4-5 3.1 3.5 4.7 6.6 4.5 11 1 .2 2 .4 3.5.6l.3 3.6c3.1 5.3 5.4 9.4 7.8 13.2.9.1 1.7.3 2.8.4-.6 1-1.1 1.6-2 2.8 1.8.1 3.4.2 5.3.3l.8 9.6c1.3.3 2.4.6 3.7.9l.5 6.1c1.1.5 2.8 1.2 4 1.7l.6 6.7 4.1 3.5.6 7.4c1.1.2 1.9.3 3.2.5l.9 10.2c3.6 5.3 6.5 9.6 9.6 14.1-1.8 1.7-3.1 2.9-3.9 3.7 0 5.2 1.5 9.7-.5 14.4-.8 1.9-.5 5.3.6 6.9 1.6 2.3.3 3.9.4 5.8.2 1.8 1.7 3.5 2 5.3.2 1.4-1.2 3.6-.6 4.4 1.5 1.7.6 2.8.4 4.5-.5 4.7.1 9.3.3 15.1-1.4 1-3.6 2.6-4.2 3.1-.4 13.7-.1 25.3-4.8 36.5 1.4.7 2.7 1.3 4.8 2.2-7.9 6.4-7.3 16.7-13 24l.4 4.8c-1.8 1.6-3.9 2.7-4.9 4.5s-.3 4.7-1.5 6.3c-2.6 3.6-5.8 6.7-9.4 10.7l.3 3.5c-1.3.5-2.2 1-3.7 1.6 0 1.2.1 2.7.1 4.7-1.3.2-2.7.4-4.7.7-.9 5.2-6.6 7-9.1 11.3-2.6 4.5-9 5.6-9.7 11.5l-12.6 8c.7.2 1.8.7 4 1.5-3.1.6-5.1 1-7.5 1.5-.1.7-.3 1.5-.4 2.4-5.7 3.4-5.7 3.4-11.6 1.8-.9 1.9-2 3.8-3.2 6-1.8-.7-3.6-1.3-5.7-2-8.8 8.1-21 9.8-30.9 17.6l-7 .6c-.2 1.1-.2 1.9-.4 3.2-2.7.4-5.4 1.7-8.2-.9-.9 1.7-1.8 3.5-2.8 5.3-3.4 1.1-7.1 2.2-10.8 3.3-.7-1.4-1.1-2.4-1.6-3.5-3.1 2.2-6 3.8-9.8 4.6-5.4 1-10.6 3.3-16 5.2 1.1 1 1.7 1.6 2.4 2.2-1.4.9-2.9 1.9-4.3 2.7-4.4-4.9-9.3 5.2-14-.2-1 2.2-5.3 1-4.5 4.9-.4.1-1.1.5-1.2.3-1.8-2-4-1.2-5.8-.6-3.1.9-6 3-9.2 3.7-3.6.7-7.4.4-11.5.6-.2.4-.7 1.7-1.2 3.3-1.4-.6-2.6-1.2-4.1-1.9-2.5 1.1-5.3 2.4-8.2 3.7-5.9-2-12.2 0-18.4.6-4 .4-7.8 2.5-12.1 4-.1-.1-.7-.5-1.4-1.1-.6.7-1.3 1.3-2 2.1-1.2-.5-2.4-.9-3.8-1.5-.1.9-.3 1.7-.3 2.6-.4.2-.8.9-1.2.8-3.9-.2-7.9-.4-11.9-.8-1.5-.1-3.8-1.2-4.3-.6-1.7 2.1-2.4-.3-3.5-.6-1.9-.6-2 2.7-4.3 1.4-1.2-.6-4.1-.2-4.8.3-2.2 2.1-3.4-2.2-5.3-.4-2.5 2.5-5.5.3-8.3.6-1.2.1-2.6-1.3-3.8-1.2-1.8.1-3.6.8-6.1 1.4-.4-.1-1.8-.7-3.1-.7-2.8-.3-5.2 2-8.4.9-2.5-.9-5.4 0-8.3-1s-6.4.3-10.2.6c-.4-.9-.8-1.8-1.2-3.1-2.3 1.2-4.6 3.2-7.3.6-2.4 2.2-5.5-1.4-7.1.3-2.8 2.9-5.3-1.6-7.6.6-.7-1.1-1.4-2.4-2.2-3.8-1.5.9-3 1.8-4.8 2.9-1.5-1.7-2.8-3.3-4.5-5.2-3.4-.4-7.6 1.8-11.4-1-2.9 3.3-7.9 1.6-13 2.9z" fill="#0136f5"/><path d="M153 212.4c.6-.4 1.2-.4 1.8-.4.5 0 .9.2 1.3.4s.7 0 1 .2.6.3.9.2c.3 0 .5.1.8.1.3.1.6.2.9.2.1 0 .2.1.4.1.4.1.7.3 1.1.2.1 0 .2.1.3.1.4.1.7.3 1.1.2.2 0 .3 0 .5.1.3.1.7.3 1 .2.1 0 .2.1.4.1.4.1.7.3 1.1.2.1 0 .2.1.3.1.4.1.7.3 1.1.2.2 0 .5.1.8.1 0-.2 0-.3-.1-.4l-1.5-3c-.6-1.1-1.1-2.1-1.8-3.2-.5-.8-.8-1.7-1.3-2.6-.4-.7-.8-1.4-1.2-2.2-.4-1-1.1-1.9-1.5-3.2 0-.3.1-.8.1-1.3 1-1 1.5-1.2 2.5-1.2.3.2.5.3.8.4v.1c.4.4.6.9.9 1.4.7 1.2 1.3 2.3 1.9 3.5.3.6.5 1.2.8 1.7.3.6.6 1.1.9 1.7.4.7.7 1.5 1.2 2.1.1.2.1.4.2.5.6.9 1 1.8 1.5 2.7.4.7.7 1.4 1 2.1.2.5.5 1 .8 1.6.1-.3.3-.6.3-.8 0-.4.2-.8.3-1.1.1-.4.2-.7.4-1s.3-.7.3-1.1c.1-.4.2-.7.4-1s.3-.8.4-1.2c.1-.4.3-.9.4-1.3h.2c.2-.5.3-1 .4-1.5.1-.3.2-.6.3-.8s.3-.4.4-.7c.1-.5.3-.9.4-1.3.1-.4.4-.7.5-1.1.1-.4.2-.7.4-1.1.1-.4.4-.6.8-.8.2-.1.3-.2.7-.4.4 0 1 .1 1.6.1.2.3.5.6.8.9.2.3-.1.7.2 1-.1.5-.3 1-.4 1.4-.2.6-.4 1.2-.6 1.7-.2.4-.3.8-.4 1.3-.1.3-.2.5-.2.8-.1.2-.4.3-.3.7-.3.7-.5 1.4-.7 2.2h-.2c-.1.5-.2 1-.4 1.4-.1.4-.2.8-.5 1.2-.2.3-.2.8-.3 1.1-.2.5-.5 1.1-.7 1.6-.1.3-.2.6-.3 1 .7 0 1.2-.6 1.9-.5.1-.1.2-.2.2-.3.4-.1.8-.1 1-.2.6-.4 1.3-.6 2-.8.5-.2 1.1-.4 1.7-.6.5-.2 1.1-.3 1.6-.6l1.5-.6c.2-.1.4-.2.7-.3.6-.1 1.2-.4 1.7-.6.9-.4 1.8-.7 2.8-1 .4-.1.8-.4 1.3-.3.3.1.5.1.8.2l.7.7c.1.4.1.7.2 1v1.1c-.1 0-.2.1-.2.2-.2.8-.9 1-1.5 1.3-.5.2-1 .4-1.6.6-.7.3-1.4.5-2.1.8-.7.2-1.4.4-2 .7-.8.4-1.7.6-2.5.9-.2.1-.4.1-.7.3.5.1.8.3 1.2.2.1 0 .2.1.3.1.3 0 .7.2 1 .2.2 0 .3.1.5.1.7.2 1.4.1 2 .5 1-.1 1.8.5 2.7.5.6.4 1.5.2 2.1.6.2.1.5 0 .8 0 .3.3.6.5.9.7.2.2.3.4.3.7.1.4 0 .7 0 1-.2.5-.4.9-.6 1.2-.2.4-.7.5-1.1.7h-.8c-.3 0-.5-.1-.8-.1-.3-.1-.6-.2-.9-.2-.1 0-.3-.1-.4-.1-.4 0-.7-.3-1-.2-.1 0-.2-.1-.4-.1-.4-.1-.7-.3-1.1-.2-.5.1-.9-.2-1.3-.3-.6-.2-1.2-.2-1.8-.4-.3-.1-.7-.1-1-.2-.6-.2-1.3-.1-1.8-.5-.7.1-1.3-.4-2-.3-.2 0-.4-.1-.6-.2-.6-.2-1.3-.1-1.8-.5-.9.1-1.7-.6-2.6-.3 0 .1 0 .3.1.4.5 1.1 1 2.3 1.6 3.4.5.9 1 1.7 1.4 2.6.9 1.6 1.7 3.2 2.5 4.9l.6 1.5c.4.7.8 1.4 1.2 2 .3.5.5 1 .7 1.5.1.4-.1.8-.1 1.1-.2.3-.6.5-.8.9-1 .5-1.4.4-2.7.1-.4-.8-.9-1.5-1.3-2.3-.5-.8-.9-1.7-1.3-2.6-.4-.8-.9-1.7-1.4-2.5-.3-.5-.4-1.1-.7-1.5-.5-.9-1-1.9-1.6-2.8-.3-.5-.5-1.1-.8-1.6-.2-.2-.1-.5-.2-.8-.4.4-.2.9-.5 1.3h-.1l-.1.1c0 .5-.3.9-.4 1.4-.1.3-.1.6-.3.8-.1.2-.3.4-.4.7-.1.4-.3.8-.4 1.2-.1.4-.4.6-.4 1 0 .3-.2.7-.3 1-.1.2-.1.4-.1.4-.2.4-.3.6-.5.9 0 0-.2 0-.2.1-.3.6-.9.6-1.4.7h-.9c-.1-.1-.3-.2-.4-.3-.8-.5-1.1-1.3-.8-2.3 0-.2 0-.4.1-.5h.2c.2-.8.4-1.7.9-2.5.2-.4.3-.8.4-1.3.1-.5.4-.9.6-1.4.3-.7.5-1.5.7-2.2h.2c.1-.4.1-.7.2-1.2-.6.4-1.3.4-1.9.7-.6.3-1.3.4-1.9.8-.4-.2-.7.3-1 .3-.4 0-.7.2-1.1.3-.4.1-.7.3-1.1.4-.4.1-.7.3-1.1.5-.8.4-1.7.6-2.5.9-.4.2-.9.3-1.3.5s-.8.4-1.3.5-.9.4-1.5.5c-.6.2-1.1.4-1.7.1-.2-.1-.4-.2-.6-.4-.1-.2-.2-.4-.4-.7-.1-.2.1-.6-.1-.9.1-.3.1-.6.2-1 0 0 .1 0 .2-.1.1-.2 0-.4.2-.6.1-.2.5-.1.5-.4 0-.1.3-.2.5-.2.2-.1.4-.1.6-.2.4-.1.7-.3 1.1-.4.9-.4 1.8-.7 2.8-1 .6-.2 1.2-.4 1.7-.7.4-.2.8-.3 1.2-.4.4-.2.8-.4 1.2-.4.5 0 .7-.3 1.1-.4.9-.3 1.7-.6 2.6-.9.7-.2 1.3-.5 2-.7.1 0 .2-.1.4-.3-.6 0-1-.3-1.4-.2-.1 0-.2-.1-.3-.1-.4 0-.7-.3-1-.2-.2 0-.3-.1-.4-.1l-1.5-.3c-.8-.1-1.6-.3-2.3-.5-.1 0-.2-.1-.3-.1-.4.1-.7-.1-1-.2-.6-.2-1.3-.1-1.8-.5-.7.1-1.3-.4-2-.3-.2 0-.4-.1-.6-.2-.6-.2-1.2-.1-1.8-.4-.3-.2-.7 0-1.1-.2-.4-.2-.9-.4-1.1-.9-.2-.5-.2-.8-.1-1.4.1-.6.4-1 .8-1.4.2 0 .2-.1.3-.1z" fill="#e95846"/><path class="st2" d="M213.7 229.7l.3-8.6h26.6l.2 8.6h-3.2l-1-6.1h-6.2c0 2-.1 4-.1 6v14c0 2 0 4 .1 5.9l4.4.5v2.2h-15.1V250l4.4-.5c.1-1.9.1-3.9.1-5.9v-8-6c0-2 0-4-.1-6H218l-1 6.1h-3.3zM251.4 253c-2.1 0-4-.5-5.8-1.4-1.7-.9-3.1-2.3-4.1-4.1-1-1.8-1.5-3.9-1.5-6.4 0-2.5.5-4.7 1.6-6.4 1-1.8 2.4-3.1 4.2-4.1 1.7-.9 3.6-1.4 5.6-1.4 2 0 3.9.5 5.6 1.4 1.7.9 3.1 2.3 4.2 4.1 1.1 1.8 1.6 3.9 1.6 6.5 0 2.5-.5 4.6-1.5 6.4-1 1.8-2.4 3.1-4.1 4.1-1.8.8-3.7 1.3-5.8 1.3zm0-2.3c1.7 0 3-.8 3.9-2.4.9-1.6 1.3-4 1.3-7.2 0-6.5-1.7-9.7-5.2-9.7-3.4 0-5.2 3.2-5.2 9.7 0 3.2.4 5.6 1.3 7.2.9 1.6 2.2 2.4 3.9 2.4zM275.9 244.4a16 16 0 01-3.9-.5c-.6.8-.9 1.7-.9 2.6 0 .6.2 1.1.6 1.4.4.3 1.1.5 2.1.5h5.9c3.1 0 5.3.6 6.6 1.7 1.3 1.2 2 2.7 2 4.7 0 1.5-.5 2.9-1.4 4.1-1 1.3-2.4 2.3-4.2 3.1-1.9.8-4.2 1.2-7 1.2-2.4 0-4.3-.3-5.8-.8s-2.5-1.2-3.1-2c-.6-.8-1-1.8-1-2.8 0-1 .3-1.9 1-2.8s1.7-1.6 3.2-2.3c-1-.3-1.7-.8-2.2-1.5-.5-.6-.7-1.4-.7-2.2 0-.9.3-1.8.8-2.7.5-.9 1.4-1.9 2.6-2.9-2.5-1.3-3.7-3.4-3.7-6.4 0-2.3.8-4.2 2.4-5.6 1.6-1.4 3.9-2.1 6.7-2.1 2.9 0 5.1.7 6.7 2l5.3-2 .7.5v3.3H284c.7 1.1 1 2.4 1 3.9 0 2.3-.8 4.1-2.4 5.5-1.5 1.5-3.8 2.1-6.7 2.1zm-6 12.3c0 1.4.5 2.5 1.6 3.1 1.1.7 2.6 1 4.6 1 2.5 0 4.3-.4 5.6-1.2 1.3-.8 1.9-1.8 1.9-3 0-.9-.3-1.6-.9-2.3-.6-.6-1.7-.9-3.2-.9h-5.2c-1.2 0-2.2-.1-3.1-.3-.9 1.2-1.3 2.4-1.3 3.6zm5.9-14.3c1.3 0 2.3-.5 3-1.6.7-1 1-2.4 1-4.1 0-1.7-.3-3-1-4s-1.6-1.5-2.9-1.5c-1.3 0-2.2.5-2.9 1.5-.7 1-1.1 2.4-1.1 4.1 0 1.7.3 3 1 4s1.7 1.6 2.9 1.6zM301.6 253c-2.2 0-4.1-.5-5.8-1.4-1.7-.9-3-2.3-3.9-4.1-.9-1.8-1.4-3.9-1.4-6.3 0-2.5.5-4.7 1.6-6.5s2.5-3.2 4.2-4.1c1.7-1 3.6-1.4 5.6-1.4 1.8 0 3.5.4 4.8 1.2 1.4.8 2.5 1.9 3.2 3.3.8 1.4 1.2 3.1 1.2 5 0 1-.1 1.9-.3 2.6h-14.4c.1 2.7.8 4.7 2.1 6.1 1.3 1.3 2.9 2 4.9 2 1.4 0 2.5-.3 3.5-.8s1.8-1.3 2.6-2.1l1.4 1.2c-.9 1.7-2.2 3.1-3.7 4-1.5.8-3.4 1.3-5.6 1.3zm0-21.6c-.8 0-1.5.2-2.2.7-.7.5-1.4 1.3-1.9 2.4-.5 1.1-.8 2.6-1 4.5h6.4c1.1 0 1.9-.2 2.3-.7.4-.5.6-1.1.6-2 0-1.4-.4-2.6-1.2-3.5-.9-.9-1.8-1.4-3-1.4zM322.9 253c-1.9 0-3.4-.5-4.4-1.4-1.1-.9-1.6-2.4-1.6-4.5v-2-12.3h-3.5v-2.4l3.8-.5 1.8-6.4h3.8l-.2 6.5h5.6v2.9h-5.7v13.9c0 1.2.2 2 .7 2.5.5.5 1.1.8 1.8.8.8 0 1.8-.4 2.9-1.2l1.1 1.2c-.6 1-1.4 1.7-2.4 2.3-1 .3-2.2.6-3.7.6zM330.4 252.3v-1.9l3.1-.6V246v-23.7l-3.4-.5V220l8.4-2.1.7.4-.2 6.6v8.4c2.4-2.8 5.1-4.2 8-4.2 2 0 3.6.7 4.7 2s1.7 3.5 1.7 6.4v12.3l2.9.6v1.9h-11.6v-1.9l3-.6v-3.7-8.1c0-1.8-.2-3.1-.7-3.8-.5-.7-1.3-1.1-2.5-1.1-1.8 0-3.6.9-5.5 2.7V249.9l2.8.6v1.9h-11.4zM370.4 253c-2.2 0-4.1-.5-5.8-1.4-1.7-.9-3-2.3-3.9-4.1-.9-1.8-1.4-3.9-1.4-6.3 0-2.5.5-4.7 1.6-6.5s2.5-3.2 4.2-4.1c1.7-1 3.6-1.4 5.6-1.4 1.8 0 3.5.4 4.8 1.2 1.4.8 2.5 1.9 3.2 3.3.8 1.4 1.2 3.1 1.2 5 0 1-.1 1.9-.3 2.6h-14.4c.1 2.7.8 4.7 2.1 6.1 1.3 1.3 2.9 2 4.9 2 1.4 0 2.5-.3 3.5-.8s1.8-1.3 2.6-2.1l1.4 1.2c-.9 1.7-2.2 3.1-3.7 4-1.5.8-3.4 1.3-5.6 1.3zm0-21.6c-.8 0-1.5.2-2.2.7-.7.5-1.4 1.3-1.9 2.4-.5 1.1-.8 2.6-1 4.5h6.4c1.1 0 1.9-.2 2.3-.7.4-.5.6-1.1.6-2 0-1.4-.4-2.6-1.2-3.5-.8-.9-1.8-1.4-3-1.4zM383.5 252.3v-1.9l3-.6V246v-6-3.1c0-.8-.1-1.6-.1-2.6l-3.3-.4v-1.8l7.8-3 .8.5.5 5.5c.7-1.9 1.7-3.4 2.9-4.5 1.2-1 2.4-1.6 3.7-1.6.8 0 1.6.2 2.3.7s1.2 1.1 1.4 1.9c0 1.2-.3 2.1-.8 2.7-.5.6-1.3 1-2.2 1-1.1 0-2.2-.6-3.2-1.7l-.4-.5c-1.7 1.4-2.9 3.3-3.6 5.8V249.5l3.9.8v1.9h-12.7zM408.7 250.4c0 2-.5 3.8-1.4 5.5s-2.1 3-3.5 4.1c-1.4 1.1-2.9 1.9-4.4 2.4l-.7-1.8c1.6-.8 2.9-1.8 4-2.9 1.1-1.1 2-2.4 2.5-4l-1.7-1.1c-.8-.5-1.3-1.1-1.7-1.7-.3-.6-.5-1.3-.5-1.9 0-1 .3-1.8 1-2.5s1.5-1 2.6-1c.5 0 1.1.1 1.6.3.5.2 1.1.5 1.6 1.1.3.6.4 1.2.5 1.8 0 .4.1 1 .1 1.7zM450.2 231.8v-2h8.6v2l-2.6.5-7 20.3h-2.6l-5.7-15.9-5.8 15.9h-2.6l-7.5-20.4-2.4-.4v-2H434v2l-3.2.5 4.3 13.3 4.7-13.3-3.1-.5v-2h10.9v2l-3.1.5 4.7 13.1 4.1-13.1-3.1-.5zM470.9 253c-2.2 0-4.1-.5-5.8-1.4-1.7-.9-3-2.3-3.9-4.1-.9-1.8-1.4-3.9-1.4-6.3 0-2.5.5-4.7 1.6-6.5s2.5-3.2 4.2-4.1c1.7-1 3.6-1.4 5.6-1.4 1.8 0 3.5.4 4.8 1.2s2.5 1.9 3.2 3.3c.8 1.4 1.2 3.1 1.2 5 0 1-.1 1.9-.3 2.6h-14.4c.1 2.7.8 4.7 2.1 6.1 1.3 1.3 2.9 2 4.9 2 1.4 0 2.5-.3 3.5-.8s1.8-1.3 2.6-2.1l1.4 1.2c-.9 1.7-2.2 3.1-3.7 4s-3.4 1.3-5.6 1.3zm0-21.6c-.8 0-1.5.2-2.2.7-.7.5-1.4 1.3-1.9 2.4-.5 1.1-.8 2.6-1 4.5h6.4c1.1 0 1.9-.2 2.3-.7.4-.5.6-1.1.6-2 0-1.4-.4-2.6-1.2-3.5-.9-.9-1.9-1.4-3-1.4zM502.7 253c-1.9 0-3.4-.5-4.4-1.4-1.1-.9-1.6-2.4-1.6-4.5v-2-12.3h-3.5v-2.4l3.8-.5 1.8-6.4h3.8l-.2 6.5h5.6v2.9h-5.7v13.9c0 1.2.2 2 .7 2.5.5.5 1.1.8 1.8.8.8 0 1.8-.4 2.9-1.2l1.1 1.2c-.6 1-1.4 1.7-2.4 2.3s-2.2.6-3.7.6zM528.3 252.9c-1.3 0-2.3-.3-3.1-.9-.8-.6-1.3-1.5-1.6-2.6-1.2 1.2-2.2 2.1-3.1 2.7-.9.6-2.2.9-3.7.9-1.8 0-3.2-.5-4.4-1.5-1.2-1-1.8-2.5-1.8-4.4 0-1 .2-1.9.7-2.8.5-.9 1.3-1.7 2.5-2.4 1.2-.8 2.9-1.5 5.2-2.2.6-.2 1.3-.4 2.1-.7.8-.2 1.6-.4 2.4-.7V237c0-2.2-.3-3.7-.9-4.4-.6-.8-1.7-1.2-3.2-1.2h-.9c-.3 0-.7.1-1 .1l-.6 2.6c-.1 1.1-.5 2-1 2.5s-1.2.8-2 .8c-1.5 0-2.4-.7-2.6-2.1.3-1.9 1.3-3.4 3-4.5s4-1.7 6.9-1.7c2.7 0 4.7.7 6 2 1.3 1.3 1.9 3.5 1.9 6.6v10.2c0 1.4.5 2.1 1.4 2.1.6 0 1.1-.3 1.6-1l1.1.9c-.6 1.1-1.2 1.8-2 2.3-.8.5-1.8.7-2.9.7zm-12.2-6.8c0 1.2.3 2.1 1 2.7.6.5 1.4.8 2.4.8.5 0 1.1-.1 1.6-.4.5-.2 1.4-.8 2.5-1.6v-7.4c-.7.2-1.3.4-1.9.6-.6.2-1.1.4-1.5.5-1.6.6-2.6 1.3-3.2 2.2-.6.8-.9 1.7-.9 2.6zM534.5 252.3v-1.9l3.2-.6c0-1.2.1-2.4.1-3.7v-23.9l-3.4-.5V220l8.6-2.1.7.4-.2 6.6v21.2c0 1.2 0 2.4.1 3.7l3.2.6v1.9h-12.3zM549 252.3v-1.9l3.2-.6c0-1.2.1-2.4.1-3.8v-23.8l-3.4-.5V220l8.6-2.1.7.4-.2 6.6v15.5l7.8-7.9-3.5-.7v-2h11.1v2l-4.3.6-4.7 4.6 7.2 12.7 3.1.7v1.9h-7.9l-6.3-11.5-2.4 2.4v3.3c0 1.1 0 2.2.1 3.3l3.1.6v1.9H549zM604.7 252.9c-1.3 0-2.3-.3-3.1-.9-.8-.6-1.3-1.5-1.6-2.6-1.2 1.2-2.2 2.1-3.1 2.7-.9.6-2.2.9-3.7.9-1.8 0-3.2-.5-4.4-1.5-1.2-1-1.8-2.5-1.8-4.4 0-1 .2-1.9.7-2.8.5-.9 1.3-1.7 2.5-2.4 1.2-.8 2.9-1.5 5.2-2.2.6-.2 1.3-.4 2.1-.7.8-.2 1.6-.4 2.4-.7V237c0-2.2-.3-3.7-.9-4.4-.6-.8-1.7-1.2-3.2-1.2h-.9c-.3 0-.7.1-1 .1l-.6 2.6c-.1 1.1-.5 2-1 2.5s-1.2.8-2 .8c-1.5 0-2.4-.7-2.6-2.1.3-1.9 1.3-3.4 3-4.5s4-1.7 6.9-1.7c2.7 0 4.7.7 6 2 1.3 1.3 1.9 3.5 1.9 6.6v10.2c0 1.4.5 2.1 1.4 2.1.6 0 1.1-.3 1.6-1l1.1.9c-.6 1.1-1.2 1.8-2 2.3-.8.5-1.7.7-2.9.7zm-12.2-6.8c0 1.2.3 2.1 1 2.7.6.5 1.4.8 2.4.8.5 0 1.1-.1 1.6-.4.5-.2 1.4-.8 2.5-1.6v-7.4c-.7.2-1.3.4-1.9.6-.6.2-1.1.4-1.5.5-1.6.6-2.6 1.3-3.2 2.2-.6.8-.9 1.7-.9 2.6zM611 252.3v-1.9l3.1-.6c0-1.2.1-2.4.1-3.8v-23.8l-3.4-.4V220l8.4-2.1.7.4-.2 6.6v7.6c2.1-2.2 4.4-3.3 7-3.3 1.7 0 3.2.5 4.6 1.4 1.4.9 2.5 2.2 3.3 4 .8 1.7 1.2 3.9 1.2 6.4 0 2.5-.4 4.6-1.3 6.4-.9 1.8-2.1 3.2-3.5 4.2-1.5 1-3.1 1.5-4.9 1.5-1.2 0-2.4-.2-3.4-.7s-2-1.3-2.9-2.4l-.6 3-8.2-.7zm13.4-19.8c-.7 0-1.5.2-2.2.6-.8.4-1.6.9-2.4 1.6v13c1.4 1.3 2.9 2 4.4 2 1.5 0 2.8-.7 3.9-2.1s1.6-3.6 1.6-6.4c0-2.9-.5-5.1-1.5-6.5-.9-1.5-2.2-2.2-3.8-2.2zM650.8 253c-2.1 0-4.1-.5-5.8-1.4-1.7-.9-3.1-2.3-4.1-4.1-1-1.8-1.5-3.9-1.5-6.4 0-2.5.5-4.7 1.6-6.4s2.4-3.1 4.2-4.1c1.7-.9 3.6-1.4 5.6-1.4 2 0 3.9.5 5.6 1.4 1.7.9 3.1 2.3 4.2 4.1s1.6 3.9 1.6 6.5c0 2.5-.5 4.6-1.5 6.4-1 1.8-2.4 3.1-4.1 4.1s-3.7 1.3-5.8 1.3zm0-2.3c1.7 0 3-.8 3.9-2.4.9-1.6 1.3-4 1.3-7.2 0-6.5-1.7-9.7-5.2-9.7-3.4 0-5.2 3.2-5.2 9.7 0 3.2.4 5.6 1.3 7.2.9 1.6 2.2 2.4 3.9 2.4zM682.3 252.8l-.4-4.1c-2.3 2.9-5 4.4-8 4.4-1.9 0-3.5-.6-4.7-1.9-1.2-1.3-1.7-3.5-1.7-6.6l.2-11.6-3.1-.7v-1.8l8.2-1 .6.5-.2 6.6v7.8c0 1.8.3 3 .8 3.7s1.3 1.1 2.4 1.1c.9 0 1.8-.2 2.7-.8.9-.5 1.8-1.1 2.7-1.9l.1-13.5-3-.7v-1.7l8-1.1.6.5-.1 6.6v13.3l2.9.6v1.9l-8 .4zM701.5 253c-1.9 0-3.4-.5-4.4-1.4-1.1-.9-1.6-2.4-1.6-4.5v-2-12.3H692v-2.4l3.8-.5 1.8-6.4h3.8l-.2 6.5h5.6v2.9h-5.7v13.9c0 1.2.2 2 .7 2.5.5.5 1.1.8 1.8.8.8 0 1.8-.4 2.9-1.2l1.1 1.2c-.6 1-1.4 1.7-2.4 2.3s-2.2.6-3.7.6zM222.7 305c-1.9 0-3.4-.5-4.4-1.4-1.1-.9-1.6-2.4-1.6-4.5v-2-12.3h-3.5v-2.4l3.8-.5 1.8-6.4h3.8l-.2 6.5h5.6v2.9h-5.7v13.9c0 1.2.2 2 .7 2.5.5.5 1.1.8 1.8.8.8 0 1.8-.4 2.9-1.2l1.1 1.2c-.6 1-1.4 1.7-2.4 2.3-1 .3-2.2.6-3.7.6zM230.2 304.3v-1.9l3.1-.6V298v-23.7l-3.4-.5V272l8.4-2.1.7.4-.2 6.6v8.4c2.4-2.8 5.1-4.2 8-4.2 2 0 3.6.7 4.7 2s1.7 3.5 1.7 6.4v12.3l2.9.6v1.9h-11.6v-1.9l3-.6v-3.7-8.1c0-1.8-.2-3.1-.7-3.8-.5-.7-1.3-1.1-2.5-1.1-1.8 0-3.6.9-5.5 2.7V301.9l2.8.6v1.9h-11.4zM270.2 305c-2.2 0-4.1-.5-5.8-1.4-1.7-.9-3-2.3-3.9-4.1-.9-1.8-1.4-3.9-1.4-6.3 0-2.5.5-4.7 1.6-6.5s2.5-3.2 4.2-4.1c1.7-1 3.6-1.4 5.6-1.4 1.8 0 3.5.4 4.8 1.2 1.4.8 2.5 1.9 3.2 3.3.8 1.4 1.2 3.1 1.2 5 0 1-.1 1.9-.3 2.6H265c.1 2.7.8 4.7 2.1 6.1 1.3 1.3 2.9 2 4.9 2 1.4 0 2.5-.3 3.5-.8s1.8-1.3 2.6-2.1l1.4 1.2c-.9 1.7-2.2 3.1-3.7 4-1.5.8-3.4 1.3-5.6 1.3zm0-21.6c-.8 0-1.5.2-2.2.7-.7.5-1.4 1.3-1.9 2.4-.5 1.1-.8 2.6-1 4.5h6.4c1.1 0 1.9-.2 2.3-.7.4-.5.6-1.1.6-2 0-1.4-.4-2.6-1.2-3.5-.8-.9-1.8-1.4-3-1.4zM304.9 305c-2.1 0-4-.5-5.7-1.4-1.7-.9-3-2.3-4-4-1-1.8-1.4-3.9-1.4-6.4 0-2.5.5-4.7 1.6-6.5s2.5-3.1 4.3-4.1c1.8-.9 3.7-1.4 5.8-1.4 1.5 0 2.9.3 4.2.9 1.2.6 2.2 1.4 3 2.3.8 1 1.2 2.1 1.4 3.3-.4 1.4-1.3 2.1-2.7 2.1-1.8 0-2.8-1.1-3.1-3.3l-.6-2.8c-.3-.1-.6-.1-.8-.1h-.8c-1.1 0-2.2.3-3.1 1-1 .6-1.7 1.6-2.3 3-.6 1.3-.9 3.1-.9 5.1 0 2.9.6 5 2 6.5 1.3 1.5 3 2.3 5.1 2.3 1.3 0 2.4-.3 3.4-.8 1-.6 1.8-1.3 2.5-2.3l1.4 1c-.8 1.9-2 3.4-3.5 4.3-1.7.8-3.5 1.3-5.8 1.3zM316.2 304.3v-1.9l3.1-.6V298v-23.7l-3.4-.5V272l8.4-2.1.7.4-.2 6.6v8.4c2.4-2.8 5.1-4.2 8-4.2 2 0 3.6.7 4.7 2s1.7 3.5 1.7 6.4v12.3l2.9.6v1.9h-11.6v-1.9l3-.6v-3.7-8.1c0-1.8-.2-3.1-.7-3.8-.5-.7-1.3-1.1-2.5-1.1-1.8 0-3.6.9-5.5 2.7V301.9l2.8.6v1.9h-11.4zM362.8 304.9c-1.3 0-2.3-.3-3.1-.9-.8-.6-1.3-1.5-1.6-2.6-1.2 1.2-2.2 2.1-3.1 2.7-.9.6-2.2.9-3.7.9-1.8 0-3.2-.5-4.4-1.5-1.2-1-1.8-2.5-1.8-4.4 0-1 .2-1.9.7-2.8.5-.9 1.3-1.7 2.5-2.4 1.2-.8 2.9-1.5 5.2-2.2.6-.2 1.3-.4 2.1-.7.8-.2 1.6-.4 2.4-.7V289c0-2.2-.3-3.7-.9-4.4-.6-.8-1.7-1.2-3.2-1.2h-.9c-.3 0-.7.1-1 .1l-.6 2.6c-.1 1.1-.5 2-1 2.5s-1.2.8-2 .8c-1.5 0-2.4-.7-2.6-2.1.3-1.9 1.3-3.4 3-4.5s4-1.7 6.9-1.7c2.7 0 4.7.7 6 2 1.3 1.3 1.9 3.5 1.9 6.6v10.2c0 1.4.5 2.1 1.4 2.1.6 0 1.1-.3 1.6-1l1.1.9c-.6 1.1-1.2 1.8-2 2.3-.8.5-1.8.7-2.9.7zm-12.2-6.8c0 1.2.3 2.1 1 2.7.6.5 1.4.8 2.4.8.5 0 1.1-.1 1.6-.4.5-.2 1.4-.8 2.5-1.6v-7.4c-.7.2-1.3.4-1.9.6-.6.2-1.1.4-1.5.5-1.6.6-2.6 1.3-3.2 2.2-.6.8-.9 1.7-.9 2.6zM368.9 304.3v-1.9l3.2-.6c0-1.2.1-2.4.1-3.7v-23.9l-3.4-.5V272l8.6-2.1.7.4-.2 6.6v21.2c0 1.2 0 2.4.1 3.7l3.2.6v1.9h-12.3zM383.5 304.3v-1.9l3.2-.6c0-1.2.1-2.4.1-3.7v-23.9l-3.4-.5V272l8.6-2.1.7.4-.2 6.6v21.2c0 1.2 0 2.4.1 3.7l3.2.6v1.9h-12.3zM409.7 305c-2.2 0-4.1-.5-5.8-1.4-1.7-.9-3-2.3-3.9-4.1-.9-1.8-1.4-3.9-1.4-6.3 0-2.5.5-4.7 1.6-6.5s2.5-3.2 4.2-4.1c1.7-1 3.6-1.4 5.6-1.4 1.8 0 3.5.4 4.8 1.2s2.5 1.9 3.2 3.3c.8 1.4 1.2 3.1 1.2 5 0 1-.1 1.9-.3 2.6h-14.4c.1 2.7.8 4.7 2.1 6.1 1.3 1.3 2.9 2 4.9 2 1.4 0 2.5-.3 3.5-.8s1.8-1.3 2.6-2.1l1.4 1.2c-.9 1.7-2.2 3.1-3.7 4s-3.4 1.3-5.6 1.3zm0-21.6c-.8 0-1.5.2-2.2.7-.7.5-1.4 1.3-1.9 2.4-.5 1.1-.8 2.6-1 4.5h6.4c1.1 0 1.9-.2 2.3-.7.4-.5.6-1.1.6-2 0-1.4-.4-2.6-1.2-3.5-.9-.9-1.9-1.4-3-1.4zM422.7 304.3v-1.9l3.1-.6V298v-6-3.1c0-.8-.1-1.6-.1-2.6l-3.3-.4v-1.8l7.8-3 .8.5.3 3.6c2.4-2.7 5.1-4.1 8-4.1 2 0 3.6.7 4.7 2s1.7 3.5 1.7 6.4v12.3l2.9.6v1.9H437v-1.9l3-.6v-3.7-8.1c0-1.8-.3-3.1-.8-3.8-.5-.7-1.3-1.1-2.5-1.1-1.7 0-3.4.8-5.3 2.3V301.8l2.8.6v1.9h-11.5zM461.2 296.4a16 16 0 01-3.9-.5c-.6.8-.9 1.7-.9 2.6 0 .6.2 1.1.6 1.4.4.3 1.1.5 2.1.5h5.9c3.1 0 5.3.6 6.6 1.7 1.3 1.2 2 2.7 2 4.7 0 1.5-.5 2.9-1.4 4.1-1 1.3-2.4 2.3-4.2 3.1-1.9.8-4.2 1.2-7 1.2-2.4 0-4.3-.3-5.8-.8s-2.5-1.2-3.1-2c-.6-.8-1-1.8-1-2.8 0-1 .3-1.9 1-2.8s1.7-1.6 3.2-2.3c-1-.3-1.7-.8-2.2-1.5s-.7-1.4-.7-2.2c0-.9.3-1.8.8-2.7.5-.9 1.4-1.9 2.6-2.9-2.5-1.3-3.7-3.4-3.7-6.4 0-2.3.8-4.2 2.4-5.6 1.6-1.4 3.9-2.1 6.7-2.1 2.9 0 5.1.7 6.7 2l5.3-2 .7.5v3.3h-4.6c.7 1.1 1 2.4 1 3.9 0 2.3-.8 4.1-2.4 5.5-1.6 1.5-3.8 2.1-6.7 2.1zm-6 12.3c0 1.4.5 2.5 1.6 3.1 1.1.7 2.6 1 4.6 1 2.5 0 4.3-.4 5.6-1.2 1.3-.8 1.9-1.8 1.9-3 0-.9-.3-1.6-.9-2.3-.6-.6-1.7-.9-3.2-.9h-5.2c-1.2 0-2.2-.1-3.1-.3-.9 1.2-1.3 2.4-1.3 3.6zm5.9-14.3c1.3 0 2.3-.5 3-1.6.7-1 1-2.4 1-4.1 0-1.7-.3-3-1-4s-1.6-1.5-2.9-1.5-2.2.5-2.9 1.5-1.1 2.4-1.1 4.1c0 1.7.3 3 1 4s1.7 1.6 2.9 1.6zM486.9 305c-2.2 0-4.1-.5-5.8-1.4-1.7-.9-3-2.3-3.9-4.1-.9-1.8-1.4-3.9-1.4-6.3 0-2.5.5-4.7 1.6-6.5s2.5-3.2 4.2-4.1c1.7-1 3.6-1.4 5.6-1.4 1.8 0 3.5.4 4.8 1.2s2.5 1.9 3.2 3.3c.8 1.4 1.2 3.1 1.2 5 0 1-.1 1.9-.3 2.6h-14.4c.1 2.7.8 4.7 2.1 6.1 1.3 1.3 2.9 2 4.9 2 1.4 0 2.5-.3 3.5-.8s1.8-1.3 2.6-2.1l1.4 1.2c-.9 1.7-2.2 3.1-3.7 4s-3.4 1.3-5.6 1.3zm0-21.6c-.8 0-1.5.2-2.2.7-.7.5-1.4 1.3-1.9 2.4-.5 1.1-.8 2.6-1 4.5h6.4c1.1 0 1.9-.2 2.3-.7.4-.5.6-1.1.6-2 0-1.4-.4-2.6-1.2-3.5-.9-.9-1.9-1.4-3-1.4zM507.7 305c-1.4 0-2.8-.2-4-.5-1.2-.3-2.4-.8-3.6-1.5v-5.5h3.1l.8 4.4c1.1.5 2.3.7 3.7.7 1.6 0 2.8-.3 3.6-.8.8-.6 1.2-1.3 1.2-2.3 0-.9-.3-1.6-.9-2.1-.6-.5-1.7-1.1-3.2-1.6l-2.4-.8c-1.8-.6-3.1-1.4-4.2-2.5-1-1.1-1.5-2.5-1.5-4.1 0-1.3.3-2.5 1-3.6s1.7-1.9 3-2.6c1.3-.6 3-1 4.9-1 1.3 0 2.6.2 3.7.5s2.2.8 3.3 1.4l-.2 4.9h-3.1l-.8-3.9c-.9-.4-1.8-.6-2.9-.6-1.3 0-2.2.3-2.9.8-.7.5-1 1.3-1 2.2 0 .8.3 1.5.9 2s1.7 1 3.3 1.6l1.9.6c2.3.8 3.9 1.8 4.9 2.9 1 1.2 1.5 2.6 1.5 4.2 0 2.1-.9 3.8-2.6 5.2-1.9 1.3-4.3 2-7.5 2zM557.1 283.8v-2h8.6v2l-2.6.5-7 20.3h-2.6l-5.7-15.9-5.8 15.9h-2.6l-7.5-20.4-2.4-.4v-2H541v2l-3.2.5 4.3 13.3 4.7-13.3-3.1-.5v-2h10.9v2l-3.1.5 4.7 13.1 4.1-13.1-3.2-.5zM577.8 305c-2.2 0-4.1-.5-5.8-1.4-1.7-.9-3-2.3-3.9-4.1-.9-1.8-1.4-3.9-1.4-6.3 0-2.5.5-4.7 1.6-6.5s2.5-3.2 4.2-4.1c1.7-1 3.6-1.4 5.6-1.4 1.8 0 3.5.4 4.8 1.2s2.5 1.9 3.2 3.3c.8 1.4 1.2 3.1 1.2 5 0 1-.1 1.9-.3 2.6h-14.4c.1 2.7.8 4.7 2.1 6.1 1.3 1.3 2.9 2 4.9 2 1.4 0 2.5-.3 3.5-.8s1.8-1.3 2.6-2.1l1.4 1.2c-.9 1.7-2.2 3.1-3.7 4s-3.4 1.3-5.6 1.3zm0-21.6c-.8 0-1.5.2-2.2.7-.7.5-1.4 1.3-1.9 2.4-.5 1.1-.8 2.6-1 4.5h6.4c1.1 0 1.9-.2 2.3-.7.4-.5.6-1.1.6-2 0-1.4-.4-2.6-1.2-3.5-.8-.9-1.8-1.4-3-1.4zM601.3 304.3v-1.9l3.1-.6c0-1.2.1-2.4.1-3.7v-13.5H601v-2.4l3.6-.5c.3-2.3.6-4.2 1.2-5.6.5-1.4 1.3-2.7 2.4-3.8 1.1-1.1 2.2-1.8 3.5-2.3 1.3-.5 2.5-.7 3.7-.7 1.2 0 2.3.2 3.3.7 1 .4 1.6 1.2 1.8 2.3 0 .7-.3 1.3-.9 1.8-.5.5-1.3.8-2.2.8-1.3 0-2.6-.8-3.8-2.3l-.8-.8-.3.3c-.8.8-1.5 2-1.8 3.6s-.5 3.6-.5 6.2h5.8v2.9h-5.7v13.4c0 1.2 0 2.4.1 3.6l3.9.7v1.9h-13zM636 304.9c-1.3 0-2.3-.3-3.1-.9-.8-.6-1.3-1.5-1.6-2.6-1.2 1.2-2.2 2.1-3.1 2.7-.9.6-2.2.9-3.7.9-1.8 0-3.2-.5-4.4-1.5-1.2-1-1.8-2.5-1.8-4.4 0-1 .2-1.9.7-2.8.5-.9 1.3-1.7 2.5-2.4 1.2-.8 2.9-1.5 5.2-2.2.6-.2 1.3-.4 2.1-.7.8-.2 1.6-.4 2.4-.7V289c0-2.2-.3-3.7-.9-4.4-.6-.8-1.7-1.2-3.2-1.2h-.9c-.3 0-.7.1-1 .1l-.6 2.6c-.1 1.1-.5 2-1 2.5s-1.2.8-2 .8c-1.5 0-2.4-.7-2.6-2.1.3-1.9 1.3-3.4 3-4.5s4-1.7 6.9-1.7c2.7 0 4.7.7 6 2 1.3 1.3 1.9 3.5 1.9 6.6v10.2c0 1.4.5 2.1 1.4 2.1.6 0 1.1-.3 1.6-1l1.1.9c-.6 1.1-1.2 1.8-2 2.3-.8.5-1.7.7-2.9.7zm-12.2-6.8c0 1.2.3 2.1 1 2.7.6.5 1.4.8 2.4.8.5 0 1.1-.1 1.6-.4.5-.2 1.4-.8 2.5-1.6v-7.4c-.7.2-1.3.4-1.9.6-.6.2-1.1.4-1.5.5-1.6.6-2.6 1.3-3.2 2.2-.6.8-.9 1.7-.9 2.6zM653.8 305c-2.1 0-4-.5-5.7-1.4-1.7-.9-3-2.3-4-4-1-1.8-1.4-3.9-1.4-6.4 0-2.5.5-4.7 1.6-6.5s2.5-3.1 4.3-4.1c1.8-.9 3.7-1.4 5.8-1.4 1.5 0 2.9.3 4.2.9 1.2.6 2.2 1.4 3 2.3.8 1 1.2 2.1 1.4 3.3-.4 1.4-1.3 2.1-2.7 2.1-1.8 0-2.8-1.1-3.1-3.3l-.6-2.8c-.3-.1-.6-.1-.8-.1h-.8c-1.1 0-2.2.3-3.1 1s-1.7 1.6-2.3 3c-.6 1.3-.9 3.1-.9 5.1 0 2.9.6 5 2 6.5 1.3 1.5 3 2.3 5.1 2.3 1.3 0 2.4-.3 3.4-.8 1-.6 1.8-1.3 2.5-2.3l1.4 1c-.8 1.9-2 3.4-3.5 4.3-1.7.8-3.6 1.3-5.8 1.3zM677.1 305c-2.2 0-4.1-.5-5.8-1.4-1.7-.9-3-2.3-3.9-4.1-.9-1.8-1.4-3.9-1.4-6.3 0-2.5.5-4.7 1.6-6.5s2.5-3.2 4.2-4.1c1.7-1 3.6-1.4 5.6-1.4 1.8 0 3.5.4 4.8 1.2s2.5 1.9 3.2 3.3c.8 1.4 1.2 3.1 1.2 5 0 1-.1 1.9-.3 2.6H672c.1 2.7.8 4.7 2.1 6.1 1.3 1.3 2.9 2 4.9 2 1.4 0 2.5-.3 3.5-.8s1.8-1.3 2.6-2.1l1.4 1.2c-.9 1.7-2.2 3.1-3.7 4s-3.5 1.3-5.7 1.3zm0-21.6c-.8 0-1.5.2-2.2.7-.7.5-1.4 1.3-1.9 2.4-.5 1.1-.8 2.6-1 4.5h6.4c1.1 0 1.9-.2 2.3-.7.4-.5.6-1.1.6-2 0-1.4-.4-2.6-1.2-3.5-.8-.9-1.8-1.4-3-1.4zM232.3 356.9c-1.3 0-2.3-.3-3.1-.9-.8-.6-1.3-1.5-1.6-2.6-1.2 1.2-2.2 2.1-3.1 2.7-.9.6-2.2.9-3.7.9-1.8 0-3.2-.5-4.4-1.5-1.2-1-1.8-2.5-1.8-4.4 0-1 .2-1.9.7-2.8.5-.9 1.3-1.7 2.5-2.4 1.2-.8 2.9-1.5 5.2-2.2.6-.2 1.3-.4 2.1-.7.8-.2 1.6-.4 2.4-.7V341c0-2.2-.3-3.7-.9-4.4-.6-.8-1.7-1.2-3.2-1.2h-.9c-.3 0-.7.1-1 .1l-.6 2.6c-.1 1.1-.5 2-1 2.5s-1.2.8-2 .8c-1.5 0-2.4-.7-2.6-2.1.3-1.9 1.3-3.4 3-4.5s4-1.7 6.9-1.7c2.7 0 4.7.7 6 2 1.3 1.3 1.9 3.5 1.9 6.6v10.2c0 1.4.5 2.1 1.4 2.1.6 0 1.1-.3 1.6-1l1.1.9c-.6 1.1-1.2 1.8-2 2.3-.9.5-1.8.7-2.9.7zm-12.3-6.8c0 1.2.3 2.1 1 2.7.6.5 1.4.8 2.4.8.5 0 1.1-.1 1.6-.4.5-.2 1.4-.8 2.5-1.6v-7.4c-.7.2-1.3.4-1.9.6-.6.2-1.1.4-1.5.5-1.6.6-2.6 1.3-3.2 2.2-.6.8-.9 1.7-.9 2.6zM246.7 357c-1.4 0-2.8-.2-4-.5-1.2-.3-2.4-.8-3.6-1.5v-5.5h3.1l.8 4.4c1.1.5 2.4.7 3.7.7 1.6 0 2.8-.3 3.6-.8.8-.6 1.2-1.3 1.2-2.3 0-.9-.3-1.6-.9-2.1-.6-.5-1.7-1.1-3.2-1.6l-2.4-.8c-1.8-.6-3.1-1.4-4.2-2.5-1-1.1-1.5-2.5-1.5-4.1 0-1.3.3-2.5 1-3.6s1.7-1.9 3-2.6c1.3-.6 3-1 4.9-1 1.3 0 2.6.2 3.7.5s2.2.8 3.3 1.4l-.2 4.9h-3.1l-.8-3.9c-.9-.4-1.8-.6-2.9-.6-1.3 0-2.2.3-2.9.8-.7.5-1 1.3-1 2.2 0 .8.3 1.5.9 2 .6.5 1.7 1 3.3 1.6l1.9.6c2.3.8 3.9 1.8 4.9 2.9 1 1.2 1.5 2.6 1.5 4.2 0 2.1-.9 3.8-2.6 5.2-1.9 1.3-4.3 2-7.5 2zM281.7 357c-2.1 0-4-.5-5.8-1.4-1.7-.9-3.1-2.3-4.1-4.1-1-1.8-1.5-3.9-1.5-6.4 0-2.5.5-4.7 1.6-6.4 1-1.8 2.4-3.1 4.2-4.1 1.7-.9 3.6-1.4 5.6-1.4 2 0 3.9.5 5.6 1.4 1.7.9 3.1 2.3 4.2 4.1 1.1 1.8 1.6 3.9 1.6 6.5 0 2.5-.5 4.6-1.5 6.4-1 1.8-2.4 3.1-4.1 4.1-1.8.8-3.7 1.3-5.8 1.3zm0-2.3c1.7 0 3-.8 3.9-2.4.9-1.6 1.3-4 1.3-7.2 0-6.5-1.7-9.7-5.2-9.7-3.4 0-5.2 3.2-5.2 9.7 0 3.2.4 5.6 1.3 7.2.9 1.6 2.2 2.4 3.9 2.4zM296.4 356.3v-1.9l3-.6V350v-6-3.1c0-.8-.1-1.6-.1-2.6l-3.3-.4v-1.8l7.8-3 .8.5.5 5.5c.7-1.9 1.7-3.4 2.9-4.5 1.2-1 2.4-1.6 3.7-1.6.8 0 1.6.2 2.3.7s1.2 1.1 1.4 1.9c0 1.2-.3 2.1-.8 2.7-.5.6-1.3 1-2.2 1-1.1 0-2.2-.6-3.2-1.7l-.4-.5c-1.7 1.4-2.9 3.3-3.6 5.8V353.5l3.9.8v1.9h-12.7zM326.4 348.4a16 16 0 01-3.9-.5c-.6.8-.9 1.7-.9 2.6 0 .6.2 1.1.6 1.4.4.3 1.1.5 2.1.5h5.9c3.1 0 5.3.6 6.6 1.7 1.3 1.2 2 2.7 2 4.7 0 1.5-.5 2.9-1.4 4.1-1 1.3-2.4 2.3-4.2 3.1-1.9.8-4.2 1.2-7 1.2-2.4 0-4.3-.3-5.8-.8s-2.5-1.2-3.1-2c-.6-.8-1-1.8-1-2.8 0-1 .3-1.9 1-2.8s1.7-1.6 3.2-2.3c-1-.3-1.7-.8-2.2-1.5-.5-.6-.7-1.4-.7-2.2 0-.9.3-1.8.8-2.7.5-.9 1.4-1.9 2.6-2.9-2.5-1.3-3.7-3.4-3.7-6.4 0-2.3.8-4.2 2.4-5.6 1.6-1.4 3.9-2.1 6.7-2.1 2.9 0 5.1.7 6.7 2l5.3-2 .7.5v3.3h-4.6c.7 1.1 1 2.4 1 3.9 0 2.3-.8 4.1-2.4 5.5-1.6 1.5-3.9 2.1-6.7 2.1zm-6.1 12.3c0 1.4.5 2.5 1.6 3.1 1.1.7 2.6 1 4.6 1 2.5 0 4.3-.4 5.6-1.2 1.3-.8 1.9-1.8 1.9-3 0-.9-.3-1.6-.9-2.3-.6-.6-1.7-.9-3.2-.9h-5.2c-1.2 0-2.2-.1-3.1-.3-.8 1.2-1.3 2.4-1.3 3.6zm6-14.3c1.3 0 2.3-.5 3-1.6.7-1 1-2.4 1-4.1 0-1.7-.3-3-1-4s-1.6-1.5-2.9-1.5c-1.3 0-2.2.5-2.9 1.5-.7 1-1.1 2.4-1.1 4.1 0 1.7.3 3 1 4s1.6 1.6 2.9 1.6zM358.5 356.9c-1.3 0-2.3-.3-3.1-.9-.8-.6-1.3-1.5-1.6-2.6-1.2 1.2-2.2 2.1-3.1 2.7-.9.6-2.2.9-3.7.9-1.8 0-3.2-.5-4.4-1.5-1.2-1-1.8-2.5-1.8-4.4 0-1 .2-1.9.7-2.8.5-.9 1.3-1.7 2.5-2.4 1.2-.8 2.9-1.5 5.2-2.2.6-.2 1.3-.4 2.1-.7.8-.2 1.6-.4 2.4-.7V341c0-2.2-.3-3.7-.9-4.4-.6-.8-1.7-1.2-3.2-1.2h-.9c-.3 0-.7.1-1 .1l-.6 2.6c-.1 1.1-.5 2-1 2.5s-1.2.8-2 .8c-1.5 0-2.4-.7-2.6-2.1.3-1.9 1.3-3.4 3-4.5s4-1.7 6.9-1.7c2.7 0 4.7.7 6 2 1.3 1.3 1.9 3.5 1.9 6.6v10.2c0 1.4.5 2.1 1.4 2.1.6 0 1.1-.3 1.6-1l1.1.9c-.6 1.1-1.2 1.8-2 2.3-.8.5-1.8.7-2.9.7zm-12.2-6.8c0 1.2.3 2.1 1 2.7.6.5 1.4.8 2.4.8.5 0 1.1-.1 1.6-.4.5-.2 1.4-.8 2.5-1.6v-7.4c-.7.2-1.3.4-1.9.6-.6.2-1.1.4-1.5.5-1.6.6-2.6 1.3-3.2 2.2-.6.8-.9 1.7-.9 2.6zM364.9 356.3v-1.9l3.1-.6V350v-6-3.1c0-.8-.1-1.6-.1-2.6l-3.3-.4v-1.8l7.8-3 .8.5.3 3.6c2.4-2.7 5.1-4.1 8-4.1 2 0 3.6.7 4.7 2s1.7 3.5 1.7 6.4v12.3l2.9.6v1.9h-11.6v-1.9l3-.6v-3.7-8.1c0-1.8-.3-3.1-.8-3.8-.5-.7-1.3-1.1-2.5-1.1-1.7 0-3.4.8-5.3 2.3V353.8l2.8.6v1.9h-11.5zM393.5 356.3v-1.9l3.1-.6V350v-5.7-3.2c0-.9-.1-1.8-.1-2.7l-3.3-.4v-1.8l8.5-3 .8.5-.1 6.6v13.5l2.9.6v1.9h-11.8zm5.9-27.5c-1 0-1.8-.3-2.5-.9-.7-.6-1-1.4-1-2.4s.3-1.8 1-2.4c.7-.6 1.5-.9 2.5-.9s1.8.3 2.5.9c.7.6 1 1.4 1 2.4s-.3 1.8-1 2.4c-.6.6-1.5.9-2.5.9zM407.6 356.3v-1.7l12.6-18.7h-8l-1.3 5.2-3.1-.2.4-7.1h18.3v1.7L414 354.2h8.6l1.4-5.7h3.1l-.5 7.8h-19zM447.6 356.9c-1.3 0-2.3-.3-3.1-.9-.8-.6-1.3-1.5-1.6-2.6-1.2 1.2-2.2 2.1-3.1 2.7-.9.6-2.2.9-3.7.9-1.8 0-3.2-.5-4.4-1.5-1.2-1-1.8-2.5-1.8-4.4 0-1 .2-1.9.7-2.8.5-.9 1.3-1.7 2.5-2.4 1.2-.8 2.9-1.5 5.2-2.2.6-.2 1.3-.4 2.1-.7.8-.2 1.6-.4 2.4-.7V341c0-2.2-.3-3.7-.9-4.4-.6-.8-1.7-1.2-3.2-1.2h-.9c-.3 0-.7.1-1 .1l-.6 2.6c-.1 1.1-.5 2-1 2.5s-1.2.8-2 .8c-1.5 0-2.4-.7-2.6-2.1.3-1.9 1.3-3.4 3-4.5s4-1.7 6.9-1.7c2.7 0 4.7.7 6 2 1.3 1.3 1.9 3.5 1.9 6.6v10.2c0 1.4.5 2.1 1.4 2.1.6 0 1.1-.3 1.6-1l1.1.9c-.6 1.1-1.2 1.8-2 2.3-.9.5-1.8.7-2.9.7zm-12.2-6.8c0 1.2.3 2.1 1 2.7.6.5 1.4.8 2.4.8.5 0 1.1-.1 1.6-.4.5-.2 1.4-.8 2.5-1.6v-7.4c-.7.2-1.3.4-1.9.6-.6.2-1.1.4-1.5.5-1.6.6-2.6 1.3-3.2 2.2-.7.8-.9 1.7-.9 2.6zM462.4 357c-1.9 0-3.4-.5-4.4-1.4-1.1-.9-1.6-2.4-1.6-4.5v-2-12.3H453v-2.4l3.8-.5 1.8-6.4h3.8l-.2 6.5h5.6v2.9h-5.7v13.9c0 1.2.2 2 .7 2.5.5.5 1.1.8 1.8.8.8 0 1.8-.4 2.9-1.2l1.1 1.2c-.6 1-1.4 1.7-2.4 2.3s-2.3.6-3.8.6zM470 356.3v-1.9l3.1-.6V350v-5.7-3.2c0-.9-.1-1.8-.1-2.7l-3.3-.4v-1.8l8.5-3 .8.5-.1 6.6v13.5l2.9.6v1.9H470zm6-27.5c-1 0-1.8-.3-2.5-.9-.7-.6-1-1.4-1-2.4s.3-1.8 1-2.4c.7-.6 1.5-.9 2.5-.9s1.8.3 2.5.9c.7.6 1 1.4 1 2.4s-.3 1.8-1 2.4c-.7.6-1.5.9-2.5.9zM496 357c-2.1 0-4.1-.5-5.8-1.4-1.7-.9-3.1-2.3-4.1-4.1-1-1.8-1.5-3.9-1.5-6.4 0-2.5.5-4.7 1.6-6.4s2.4-3.1 4.2-4.1c1.7-.9 3.6-1.4 5.6-1.4 2 0 3.9.5 5.6 1.4 1.7.9 3.1 2.3 4.2 4.1s1.6 3.9 1.6 6.5c0 2.5-.5 4.6-1.5 6.4-1 1.8-2.4 3.1-4.1 4.1s-3.6 1.3-5.8 1.3zm0-2.3c1.7 0 3-.8 3.9-2.4.9-1.6 1.3-4 1.3-7.2 0-6.5-1.7-9.7-5.2-9.7-3.4 0-5.2 3.2-5.2 9.7 0 3.2.4 5.6 1.3 7.2.9 1.6 2.2 2.4 3.9 2.4zM510.7 356.3v-1.9l3.1-.6V350v-6-3.1c0-.8-.1-1.6-.1-2.6l-3.3-.4v-1.8l7.8-3 .8.5.3 3.6c2.4-2.7 5.1-4.1 8-4.1 2 0 3.6.7 4.7 2s1.7 3.5 1.7 6.4v12.3l2.9.6v1.9H525v-1.9l3-.6v-3.7-8.1c0-1.8-.3-3.1-.8-3.8-.5-.7-1.3-1.1-2.5-1.1-1.7 0-3.4.8-5.3 2.3V353.8l2.8.6v1.9h-11.5zM547.4 357c-1.4 0-2.8-.2-4-.5-1.2-.3-2.4-.8-3.6-1.5v-5.5h3.1l.8 4.4c1.1.5 2.3.7 3.7.7 1.6 0 2.8-.3 3.6-.8.8-.6 1.2-1.3 1.2-2.3 0-.9-.3-1.6-.9-2.1-.6-.5-1.7-1.1-3.2-1.6l-2.4-.8c-1.8-.6-3.1-1.4-4.2-2.5-1-1.1-1.5-2.5-1.5-4.1 0-1.3.3-2.5 1-3.6s1.7-1.9 3-2.6c1.3-.6 3-1 4.9-1 1.3 0 2.6.2 3.7.5s2.2.8 3.3 1.4l-.2 4.9h-3.1l-.8-3.9c-.9-.4-1.8-.6-2.9-.6-1.3 0-2.2.3-2.9.8-.7.5-1 1.3-1 2.2 0 .8.3 1.5.9 2s1.7 1 3.3 1.6l1.9.6c2.3.8 3.9 1.8 4.9 2.9 1 1.2 1.5 2.6 1.5 4.2 0 2.1-.9 3.8-2.6 5.2-1.9 1.3-4.4 2-7.5 2zM588.8 356.9c-1.3 0-2.3-.3-3.1-.9-.8-.6-1.3-1.5-1.6-2.6-1.2 1.2-2.2 2.1-3.1 2.7-.9.6-2.2.9-3.7.9-1.8 0-3.2-.5-4.4-1.5-1.2-1-1.8-2.5-1.8-4.4 0-1 .2-1.9.7-2.8.5-.9 1.3-1.7 2.5-2.4 1.2-.8 2.9-1.5 5.2-2.2.6-.2 1.3-.4 2.1-.7.8-.2 1.6-.4 2.4-.7V341c0-2.2-.3-3.7-.9-4.4-.6-.8-1.7-1.2-3.2-1.2h-.9c-.3 0-.7.1-1 .1l-.6 2.6c-.1 1.1-.5 2-1 2.5s-1.2.8-2 .8c-1.5 0-2.4-.7-2.6-2.1.3-1.9 1.3-3.4 3-4.5s4-1.7 6.9-1.7c2.7 0 4.7.7 6 2 1.3 1.3 1.9 3.5 1.9 6.6v10.2c0 1.4.5 2.1 1.4 2.1.6 0 1.1-.3 1.6-1l1.1.9c-.6 1.1-1.2 1.8-2 2.3-.9.5-1.8.7-2.9.7zm-12.3-6.8c0 1.2.3 2.1 1 2.7.6.5 1.4.8 2.4.8.5 0 1.1-.1 1.6-.4.5-.2 1.4-.8 2.5-1.6v-7.4c-.7.2-1.3.4-1.9.6-.6.2-1.1.4-1.5.5-1.6.6-2.6 1.3-3.2 2.2-.6.8-.9 1.7-.9 2.6zM595.1 356.3v-1.9l3.1-.6V350v-6-3.1c0-.8-.1-1.6-.1-2.6l-3.3-.4v-1.8l7.8-3 .8.5.3 3.6c2.4-2.7 5.1-4.1 8-4.1 2 0 3.6.7 4.7 2s1.7 3.5 1.7 6.4v12.3l2.9.6v1.9h-11.6v-1.9l3-.6v-3.7-8.1c0-1.8-.3-3.1-.8-3.8-.5-.7-1.3-1.1-2.5-1.1-1.7 0-3.4.8-5.3 2.3V353.8l2.8.6v1.9h-11.5zM640.5 356.9l-.4-3c-.9 1-1.8 1.8-2.9 2.3-1.1.5-2.3.8-3.7.8-1.8 0-3.5-.5-4.9-1.4s-2.5-2.3-3.4-4c-.8-1.8-1.2-3.8-1.2-6.3s.5-4.6 1.4-6.4c.9-1.8 2.2-3.2 3.7-4.2 1.6-1 3.2-1.5 5.1-1.5 1.2 0 2.3.2 3.2.7s1.9 1.2 2.7 2.2v-9.7l-3.7-.5V324l8.6-2.1.7.4-.2 6.6v25l3.1.5v1.9l-8.1.6zM630 345.2c0 2.9.5 5 1.6 6.4 1.1 1.4 2.5 2.1 4.1 2.1.8 0 1.6-.2 2.2-.5.7-.3 1.3-.8 1.9-1.4v-13.5c-1.4-1.2-2.7-1.8-4.1-1.8-1.6 0-2.9.7-4.1 2.1-1 1.4-1.6 3.6-1.6 6.6zM225.5 409c-2.1 0-4-.5-5.7-1.4-1.7-.9-3-2.3-4-4-1-1.8-1.4-3.9-1.4-6.4 0-2.5.5-4.7 1.6-6.5s2.5-3.1 4.3-4.1c1.8-.9 3.7-1.4 5.8-1.4 1.5 0 2.9.3 4.2.9 1.2.6 2.2 1.4 3 2.3.8 1 1.2 2.1 1.4 3.3-.4 1.4-1.3 2.1-2.7 2.1-1.8 0-2.8-1.1-3.1-3.3l-.6-2.8c-.3-.1-.6-.1-.8-.1h-.8c-1.1 0-2.2.3-3.1 1-1 .6-1.7 1.6-2.3 3-.6 1.3-.9 3.1-.9 5.1 0 2.9.6 5 2 6.5 1.3 1.5 3 2.3 5.1 2.3 1.3 0 2.4-.3 3.4-.8 1-.6 1.8-1.3 2.5-2.3l1.4 1c-.8 1.9-2 3.4-3.5 4.3-1.6.8-3.5 1.3-5.8 1.3zM237.8 408.3v-1.9l3.1-.6V402v-5.7-3.2c0-.9-.1-1.8-.1-2.7l-3.3-.4v-1.8l8.5-3 .8.5-.1 6.6v13.5l2.9.6v1.9h-11.8zm5.9-27.5c-1 0-1.8-.3-2.5-.9-.7-.6-1-1.4-1-2.4s.3-1.8 1-2.4c.7-.6 1.5-.9 2.5-.9s1.8.3 2.5.9c.7.6 1 1.4 1 2.4s-.3 1.8-1 2.4c-.7.6-1.5.9-2.5.9zM265.1 387.8v-2h8.9v2l-2.6.6-7.7 20.2h-2.8l-8.5-20.3-2.4-.4v-2h12.4v2l-3.6.6 5.2 13.6 4.7-13.6-3.6-.7zM275.9 408.3v-1.9l3.1-.6V402v-5.7-3.2c0-.9-.1-1.8-.1-2.7l-3.3-.4v-1.8l8.5-3 .8.5-.1 6.6v13.5l2.9.6v1.9h-11.8zm6-27.5c-1 0-1.8-.3-2.5-.9-.7-.6-1-1.4-1-2.4s.3-1.8 1-2.4c.7-.6 1.5-.9 2.5-.9s1.8.3 2.5.9c.7.6 1 1.4 1 2.4s-.3 1.8-1 2.4c-.7.6-1.5.9-2.5.9zM290.1 408.3v-1.9l3.2-.6c0-1.2.1-2.4.1-3.7v-23.9l-3.4-.5V376l8.6-2.1.7.4-.2 6.6v21.2c0 1.2 0 2.4.1 3.7l3.2.6v1.9h-12.3zM323.4 409c-1.4 0-2.8-.2-4-.5-1.2-.3-2.4-.8-3.6-1.5v-5.5h3.1l.8 4.4c1.1.5 2.4.7 3.7.7 1.6 0 2.8-.3 3.6-.8.8-.6 1.2-1.3 1.2-2.3 0-.9-.3-1.6-.9-2.1-.6-.5-1.7-1.1-3.2-1.6l-2.4-.8c-1.8-.6-3.1-1.4-4.2-2.5-1-1.1-1.5-2.5-1.5-4.1 0-1.3.3-2.5 1-3.6s1.7-1.9 3-2.6c1.3-.6 3-1 4.9-1 1.3 0 2.6.2 3.7.5s2.2.8 3.3 1.4l-.2 4.9h-3.1l-.8-3.9c-.9-.4-1.8-.6-2.9-.6-1.3 0-2.2.3-2.9.8-.7.5-1 1.3-1 2.2 0 .8.3 1.5.9 2 .6.5 1.7 1 3.3 1.6l1.9.6c2.3.8 3.9 1.8 4.9 2.9 1 1.2 1.5 2.6 1.5 4.2 0 2.1-.9 3.8-2.6 5.2-1.9 1.3-4.3 2-7.5 2zM347.9 409c-2.1 0-4-.5-5.8-1.4-1.7-.9-3.1-2.3-4.1-4.1-1-1.8-1.5-3.9-1.5-6.4 0-2.5.5-4.7 1.6-6.4 1-1.8 2.4-3.1 4.2-4.1 1.7-.9 3.6-1.4 5.6-1.4 2 0 3.9.5 5.6 1.4 1.7.9 3.1 2.3 4.2 4.1 1.1 1.8 1.6 3.9 1.6 6.5 0 2.5-.5 4.6-1.5 6.4-1 1.8-2.4 3.1-4.1 4.1-1.8.8-3.7 1.3-5.8 1.3zm0-2.3c1.7 0 3-.8 3.9-2.4.9-1.6 1.3-4 1.3-7.2 0-6.5-1.7-9.7-5.2-9.7-3.4 0-5.2 3.2-5.2 9.7 0 3.2.4 5.6 1.3 7.2.9 1.6 2.2 2.4 3.9 2.4zM374 409c-2.1 0-4-.5-5.7-1.4-1.7-.9-3-2.3-4-4-1-1.8-1.4-3.9-1.4-6.4 0-2.5.5-4.7 1.6-6.5s2.5-3.1 4.3-4.1c1.8-.9 3.7-1.4 5.8-1.4 1.5 0 2.9.3 4.2.9 1.2.6 2.2 1.4 3 2.3.8 1 1.2 2.1 1.4 3.3-.4 1.4-1.3 2.1-2.7 2.1-1.8 0-2.8-1.1-3.1-3.3l-.6-2.8c-.3-.1-.6-.1-.8-.1h-.8c-1.1 0-2.2.3-3.1 1-1 .6-1.7 1.6-2.3 3-.6 1.3-.9 3.1-.9 5.1 0 2.9.6 5 2 6.5 1.3 1.5 3 2.3 5.1 2.3 1.3 0 2.4-.3 3.4-.8 1-.6 1.8-1.3 2.5-2.3l1.4 1c-.8 1.9-2 3.4-3.5 4.3-1.7.8-3.6 1.3-5.8 1.3zM386.2 408.3v-1.9l3.1-.6V402v-5.7-3.2c0-.9-.1-1.8-.1-2.7l-3.3-.4v-1.8l8.5-3 .8.5-.1 6.6v13.5l2.9.6v1.9h-11.8zm5.9-27.5c-1 0-1.8-.3-2.5-.9-.7-.6-1-1.4-1-2.4s.3-1.8 1-2.4c.7-.6 1.5-.9 2.5-.9s1.8.3 2.5.9c.7.6 1 1.4 1 2.4s-.3 1.8-1 2.4c-.6.6-1.5.9-2.5.9zM411.9 409c-2.2 0-4.1-.5-5.8-1.4-1.7-.9-3-2.3-3.9-4.1-.9-1.8-1.4-3.9-1.4-6.3 0-2.5.5-4.7 1.6-6.5s2.5-3.2 4.2-4.1c1.7-1 3.6-1.4 5.6-1.4 1.8 0 3.5.4 4.8 1.2s2.5 1.9 3.2 3.3c.8 1.4 1.2 3.1 1.2 5 0 1-.1 1.9-.3 2.6h-14.4c.1 2.7.8 4.7 2.1 6.1 1.3 1.3 2.9 2 4.9 2 1.4 0 2.5-.3 3.5-.8s1.8-1.3 2.6-2.1l1.4 1.2c-.9 1.7-2.2 3.1-3.7 4s-3.4 1.3-5.6 1.3zm0-21.6c-.8 0-1.5.2-2.2.7-.7.5-1.4 1.3-1.9 2.4-.5 1.1-.8 2.6-1 4.5h6.4c1.1 0 1.9-.2 2.3-.7.4-.5.6-1.1.6-2 0-1.4-.4-2.6-1.2-3.5-.8-.9-1.8-1.4-3-1.4zM433.2 409c-1.9 0-3.4-.5-4.4-1.4-1.1-.9-1.6-2.4-1.6-4.5v-2-12.3h-3.5v-2.4l3.8-.5 1.8-6.4h3.8l-.2 6.5h5.6v2.9H433v13.9c0 1.2.2 2 .7 2.5.5.5 1.1.8 1.8.8.8 0 1.8-.4 2.9-1.2l1.1 1.2c-.6 1-1.4 1.7-2.4 2.3s-2.4.6-3.9.6z"/><path class="st2" d="M454.8 387.7v-1.9h9v1.9l-2.6.5-8 21c-1.3 3.6-2.7 6.3-4.1 8-1.4 1.7-3.1 2.6-5.1 2.6-1.2 0-2.3-.3-3.2-.9-.9-.6-1.4-1.4-1.4-2.4.2-.8.6-1.5 1.3-1.9.7-.4 1.4-.6 2.2-.6.6 0 1.2.1 1.9.4.6.3 1.2.8 1.9 1.6l.3.4c.8-.8 1.6-1.7 2.2-2.8s1.1-2.2 1.6-3.4l.1-.3-8.9-21.8-2.4-.4v-1.9h12.3v1.9l-3.7.5 5.3 14.4 5.1-14.3-3.8-.6zM475.7 408.3v-1.9l3.2-.6c0-1.2.1-2.4.1-3.7v-23.9l-3.4-.5V376l8.6-2.1.7.4-.2 6.6v21.2c0 1.2 0 2.4.1 3.7l3.2.6v1.9h-12.3zM501.9 409c-2.2 0-4.1-.5-5.8-1.4-1.7-.9-3-2.3-3.9-4.1-.9-1.8-1.4-3.9-1.4-6.3 0-2.5.5-4.7 1.6-6.5s2.5-3.2 4.2-4.1c1.7-1 3.6-1.4 5.6-1.4 1.8 0 3.5.4 4.8 1.2s2.5 1.9 3.2 3.3c.8 1.4 1.2 3.1 1.2 5 0 1-.1 1.9-.3 2.6h-14.4c.1 2.7.8 4.7 2.1 6.1 1.3 1.3 2.9 2 4.9 2 1.4 0 2.5-.3 3.5-.8s1.8-1.3 2.6-2.1l1.4 1.2c-.9 1.7-2.2 3.1-3.7 4s-3.5 1.3-5.6 1.3zm0-21.6c-.8 0-1.5.2-2.2.7-.7.5-1.4 1.3-1.9 2.4-.5 1.1-.8 2.6-1 4.5h6.4c1.1 0 1.9-.2 2.3-.7.4-.5.6-1.1.6-2 0-1.4-.4-2.6-1.2-3.5-.9-.9-1.9-1.4-3-1.4zM532.5 408.9c-1.3 0-2.3-.3-3.1-.9-.8-.6-1.3-1.5-1.6-2.6-1.2 1.2-2.2 2.1-3.1 2.7-.9.6-2.2.9-3.7.9-1.8 0-3.2-.5-4.4-1.5-1.2-1-1.8-2.5-1.8-4.4 0-1 .2-1.9.7-2.8.5-.9 1.3-1.7 2.5-2.4 1.2-.8 2.9-1.5 5.2-2.2.6-.2 1.3-.4 2.1-.7.8-.2 1.6-.4 2.4-.7V393c0-2.2-.3-3.7-.9-4.4-.6-.8-1.7-1.2-3.2-1.2h-.9c-.3 0-.7.1-1 .1l-.6 2.6c-.1 1.1-.5 2-1 2.5s-1.2.8-2 .8c-1.5 0-2.4-.7-2.6-2.1.3-1.9 1.3-3.4 3-4.5s4-1.7 6.9-1.7c2.7 0 4.7.7 6 2 1.3 1.3 1.9 3.5 1.9 6.6v10.2c0 1.4.5 2.1 1.4 2.1.6 0 1.1-.3 1.6-1l1.1.9c-.6 1.1-1.2 1.8-2 2.3-.9.5-1.8.7-2.9.7zm-12.3-6.8c0 1.2.3 2.1 1 2.7.6.5 1.4.8 2.4.8.5 0 1.1-.1 1.6-.4.5-.2 1.4-.8 2.5-1.6v-7.4c-.7.2-1.3.4-1.9.6-.6.2-1.1.4-1.5.5-1.6.6-2.6 1.3-3.2 2.2-.6.8-.9 1.7-.9 2.6zM555.6 408.9l-.4-3c-.9 1-1.8 1.8-2.9 2.3-1.1.5-2.3.8-3.7.8-1.8 0-3.5-.5-4.9-1.4s-2.5-2.3-3.4-4c-.8-1.8-1.2-3.8-1.2-6.3s.5-4.6 1.4-6.4c.9-1.8 2.2-3.2 3.7-4.2 1.6-1 3.2-1.5 5.1-1.5 1.2 0 2.3.2 3.2.7s1.9 1.2 2.7 2.2v-9.7l-3.7-.5V376l8.6-2.1.7.4-.2 6.6v25l3.1.5v1.9l-8.1.6zm-10.5-11.7c0 2.9.5 5 1.6 6.4 1.1 1.4 2.5 2.1 4.1 2.1.8 0 1.6-.2 2.2-.5.7-.3 1.3-.8 1.9-1.4v-13.5c-1.4-1.2-2.7-1.8-4.1-1.8-1.6 0-2.9.7-4.1 2.1-1 1.4-1.6 3.6-1.6 6.6zM577.5 409c-2.2 0-4.1-.5-5.8-1.4-1.7-.9-3-2.3-3.9-4.1-.9-1.8-1.4-3.9-1.4-6.3 0-2.5.5-4.7 1.6-6.5s2.5-3.2 4.2-4.1c1.7-1 3.6-1.4 5.6-1.4 1.8 0 3.5.4 4.8 1.2s2.5 1.9 3.2 3.3c.8 1.4 1.2 3.1 1.2 5 0 1-.1 1.9-.3 2.6h-14.4c.1 2.7.8 4.7 2.1 6.1 1.3 1.3 2.9 2 4.9 2 1.4 0 2.5-.3 3.5-.8s1.8-1.3 2.6-2.1l1.4 1.2c-.9 1.7-2.2 3.1-3.7 4s-3.4 1.3-5.6 1.3zm0-21.6c-.8 0-1.5.2-2.2.7-.7.5-1.4 1.3-1.9 2.4-.5 1.1-.8 2.6-1 4.5h6.4c1.1 0 1.9-.2 2.3-.7.4-.5.6-1.1.6-2 0-1.4-.4-2.6-1.2-3.5-.9-.9-1.9-1.4-3-1.4zM590.5 408.3v-1.9l3-.6V402v-6-3.1c0-.8-.1-1.6-.1-2.6l-3.3-.4v-1.8l7.8-3 .8.5.5 5.5c.7-1.9 1.7-3.4 2.9-4.5s2.4-1.6 3.7-1.6c.8 0 1.6.2 2.3.7s1.2 1.1 1.4 1.9c0 1.2-.3 2.1-.8 2.7-.5.6-1.3 1-2.2 1-1.1 0-2.2-.6-3.2-1.7l-.4-.5c-1.7 1.4-2.9 3.3-3.6 5.8V405.5l3.9.8v1.9h-12.7zM618.7 409c-1.4 0-2.8-.2-4-.5-1.2-.3-2.4-.8-3.6-1.5v-5.5h3.1l.8 4.4c1.1.5 2.3.7 3.7.7 1.6 0 2.8-.3 3.6-.8.8-.6 1.2-1.3 1.2-2.3 0-.9-.3-1.6-.9-2.1-.6-.5-1.7-1.1-3.2-1.6l-2.4-.8c-1.8-.6-3.1-1.4-4.2-2.5-1-1.1-1.5-2.5-1.5-4.1 0-1.3.3-2.5 1-3.6s1.7-1.9 3-2.6c1.3-.6 3-1 4.9-1 1.3 0 2.6.2 3.7.5s2.2.8 3.3 1.4l-.2 4.9h-3.1l-.8-3.9c-.9-.4-1.8-.6-2.9-.6-1.3 0-2.2.3-2.9.8-.7.5-1 1.3-1 2.2 0 .8.3 1.5.9 2s1.7 1 3.3 1.6l1.9.6c2.3.8 3.9 1.8 4.9 2.9 1 1.2 1.5 2.6 1.5 4.2 0 2.1-.9 3.8-2.6 5.2-1.9 1.3-4.3 2-7.5 2zM642.1 408.3v-1.9l3.1-.6V402v-5.7-3.2c0-.9-.1-1.8-.1-2.7l-3.3-.4v-1.8l8.5-3 .8.5-.1 6.6v13.5l2.9.6v1.9h-11.8zm5.9-27.5c-1 0-1.8-.3-2.5-.9-.7-.6-1-1.4-1-2.4s.3-1.8 1-2.4c.7-.6 1.5-.9 2.5-.9s1.8.3 2.5.9c.7.6 1 1.4 1 2.4s-.3 1.8-1 2.4c-.6.6-1.5.9-2.5.9zM656.6 408.3v-1.9l3.1-.6V402v-6-3.1c0-.8-.1-1.6-.1-2.6l-3.3-.4v-1.8l7.8-3 .8.5.3 3.6c2.4-2.7 5.1-4.1 8-4.1 2 0 3.6.7 4.7 2s1.7 3.5 1.7 6.4v12.3l2.9.6v1.9h-11.6v-1.9l3-.6v-3.7-8.1c0-1.8-.3-3.1-.8-3.8-.5-.7-1.3-1.1-2.5-1.1-1.7 0-3.4.8-5.3 2.3V405.8l2.8.6v1.9h-11.5zM214.6 431.4v-2.2h14.3v2.2l-4.1.5c0 1.9-.1 3.9-.1 5.9v14.3c0 1.9 0 3.9.1 5.8h9.5l1.3-6.5h3.3l-.5 9h-23.8v-2.2l3.9-.4c.1-2 .1-3.9.1-5.9v-8.1-6c0-2 0-4-.1-5.9l-3.9-.5zM259.9 460.9c-1.3 0-2.3-.3-3.1-.9-.8-.6-1.3-1.5-1.6-2.6-1.2 1.2-2.2 2.1-3.1 2.7-.9.6-2.2.9-3.7.9-1.8 0-3.2-.5-4.4-1.5-1.2-1-1.8-2.5-1.8-4.4 0-1 .2-1.9.7-2.8.5-.9 1.3-1.7 2.5-2.4 1.2-.8 2.9-1.5 5.2-2.2.6-.2 1.3-.4 2.1-.7.8-.2 1.6-.4 2.4-.7V445c0-2.2-.3-3.7-.9-4.4-.6-.8-1.7-1.2-3.2-1.2h-.9c-.3 0-.7.1-1 .1l-.6 2.6c-.1 1.1-.5 2-1 2.5s-1.2.8-2 .8c-1.5 0-2.4-.7-2.6-2.1.3-1.9 1.3-3.4 3-4.5s4-1.7 6.9-1.7c2.7 0 4.7.7 6 2 1.3 1.3 1.9 3.5 1.9 6.6v10.2c0 1.4.5 2.1 1.4 2.1.6 0 1.1-.3 1.6-1l1.1.9c-.6 1.1-1.2 1.8-2 2.3-.8.5-1.7.7-2.9.7zm-12.2-6.8c0 1.2.3 2.1 1 2.7.6.5 1.4.8 2.4.8.5 0 1.1-.1 1.6-.4.5-.2 1.4-.8 2.5-1.6v-7.4c-.7.2-1.3.4-1.9.6-.6.2-1.1.4-1.5.5-1.6.6-2.6 1.3-3.2 2.2-.6.8-.9 1.7-.9 2.6zM274.8 461c-1.9 0-3.4-.5-4.4-1.4-1.1-.9-1.6-2.4-1.6-4.5v-2-12.3h-3.5v-2.4l3.8-.5 1.8-6.4h3.8l-.2 6.5h5.6v2.9h-5.7v13.9c0 1.2.2 2 .7 2.5.5.5 1.1.8 1.8.8.8 0 1.8-.4 2.9-1.2l1.1 1.2c-.6 1-1.4 1.7-2.4 2.3-1 .3-2.2.6-3.7.6zM282.4 460.3v-1.9l3.1-.6V454v-5.7-3.2c0-.9-.1-1.8-.1-2.7l-3.3-.4v-1.8l8.5-3 .8.5-.1 6.6v13.5l2.9.6v1.9h-11.8zm5.9-27.5c-1 0-1.8-.3-2.5-.9-.7-.6-1-1.4-1-2.4s.3-1.8 1-2.4c.7-.6 1.5-.9 2.5-.9s1.8.3 2.5.9c.7.6 1 1.4 1 2.4s-.3 1.8-1 2.4c-.6.6-1.5.9-2.5.9zM296.9 460.3v-1.9l3.1-.6V454v-6-3.1c0-.8-.1-1.6-.1-2.6l-3.3-.4v-1.8l7.8-3 .8.5.3 3.6c2.4-2.7 5.1-4.1 8-4.1 2 0 3.6.7 4.7 2s1.7 3.5 1.7 6.4v12.3l2.9.6v1.9h-11.6v-1.9l3-.6v-3.7-8.1c0-1.8-.3-3.1-.8-3.8-.5-.7-1.3-1.1-2.5-1.1-1.7 0-3.4.8-5.3 2.3V457.8l2.8.6v1.9h-11.5zM334.9 460.3v-2.2l3.9-.6 9.8-28.6h3.9l9.8 28.8 3.2.4v2.2h-13.6v-2.2l4.1-.5-2.3-7h-10.2l-2.3 6.8 4.1.6v2.2h-10.4zm13.8-25.1l-4.3 13h8.6l-4.3-13zM367.6 460.3v-1.9l3.1-.6V454v-6-3.1c0-.8-.1-1.6-.1-2.6l-3.3-.4v-1.8l7.8-3 .8.5.3 3.7c1.1-1.3 2.4-2.3 3.7-3 1.3-.7 2.7-1.1 4.2-1.1 3 0 5 1.4 5.9 4.3 1.3-1.5 2.6-2.6 3.9-3.3 1.3-.7 2.7-1 4.2-1 2.1 0 3.7.7 4.8 2 1.1 1.3 1.6 3.4 1.6 6.3V457.9l2.9.6v1.9h-11.5v-1.9l2.9-.6v-3.7-7.9c0-2-.3-3.3-.8-4-.5-.7-1.4-1-2.6-1-1.7 0-3.4.8-5.2 2.4 0 .3.1.6.1 1V458.1l2.8.6v1.9h-11.5v-1.9l3-.6v-3.7V446.6c0-1.9-.2-3.2-.7-4s-1.3-1.1-2.6-1.1c-.9 0-1.7.2-2.6.6-.9.4-1.7 1-2.5 1.7V458.2l2.8.6v1.9h-11.4zM421.3 461c-2.2 0-4.1-.5-5.8-1.4-1.7-.9-3-2.3-3.9-4.1-.9-1.8-1.4-3.9-1.4-6.3 0-2.5.5-4.7 1.6-6.5s2.5-3.2 4.2-4.1c1.7-1 3.6-1.4 5.6-1.4 1.8 0 3.5.4 4.8 1.2s2.5 1.9 3.2 3.3c.8 1.4 1.2 3.1 1.2 5 0 1-.1 1.9-.3 2.6h-14.4c.1 2.7.8 4.7 2.1 6.1 1.3 1.3 2.9 2 4.9 2 1.4 0 2.5-.3 3.5-.8s1.8-1.3 2.6-2.1l1.4 1.2c-.9 1.7-2.2 3.1-3.7 4s-3.4 1.3-5.6 1.3zm0-21.6c-.8 0-1.5.2-2.2.7-.7.5-1.4 1.3-1.9 2.4-.5 1.1-.8 2.6-1 4.5h6.4c1.1 0 1.9-.2 2.3-.7.4-.5.6-1.1.6-2 0-1.4-.4-2.6-1.2-3.5-.8-.9-1.8-1.4-3-1.4zM434.4 460.3v-1.9l3-.6V454v-6-3.1c0-.8-.1-1.6-.1-2.6l-3.3-.4v-1.8l7.8-3 .8.5.5 5.5c.7-1.9 1.7-3.4 2.9-4.5s2.4-1.6 3.7-1.6c.8 0 1.6.2 2.3.7s1.2 1.1 1.4 1.9c0 1.2-.3 2.1-.8 2.7-.5.6-1.3 1-2.2 1-1.1 0-2.2-.6-3.2-1.7l-.4-.5c-1.7 1.4-2.9 3.3-3.6 5.8V457.5l3.9.8v1.9h-12.7zM455 460.3v-1.9l3.1-.6V454v-5.7-3.2c0-.9-.1-1.8-.1-2.7l-3.3-.4v-1.8l8.5-3 .8.5-.1 6.6v13.5l2.9.6v1.9H455zm6-27.5c-1 0-1.8-.3-2.5-.9-.7-.6-1-1.4-1-2.4s.3-1.8 1-2.4c.7-.6 1.5-.9 2.5-.9s1.8.3 2.5.9c.7.6 1 1.4 1 2.4s-.3 1.8-1 2.4c-.7.6-1.5.9-2.5.9zM480.8 461c-2.1 0-4-.5-5.7-1.4-1.7-.9-3-2.3-4-4-1-1.8-1.4-3.9-1.4-6.4 0-2.5.5-4.7 1.6-6.5s2.5-3.1 4.3-4.1c1.8-.9 3.7-1.4 5.8-1.4 1.5 0 2.9.3 4.2.9 1.2.6 2.2 1.4 3 2.3.8 1 1.2 2.1 1.4 3.3-.4 1.4-1.3 2.1-2.7 2.1-1.8 0-2.8-1.1-3.1-3.3l-.6-2.8c-.3-.1-.6-.1-.8-.1h-.8c-1.1 0-2.2.3-3.1 1s-1.7 1.6-2.3 3c-.6 1.3-.9 3.1-.9 5.1 0 2.9.6 5 2 6.5 1.3 1.5 3 2.3 5.1 2.3 1.3 0 2.4-.3 3.4-.8 1-.6 1.8-1.3 2.5-2.3l1.4 1c-.8 1.9-2 3.4-3.5 4.3-1.7.8-3.6 1.3-5.8 1.3zM510.8 460.9c-1.3 0-2.3-.3-3.1-.9-.8-.6-1.3-1.5-1.6-2.6-1.2 1.2-2.2 2.1-3.1 2.7-.9.6-2.2.9-3.7.9-1.8 0-3.2-.5-4.4-1.5-1.2-1-1.8-2.5-1.8-4.4 0-1 .2-1.9.7-2.8.5-.9 1.3-1.7 2.5-2.4 1.2-.8 2.9-1.5 5.2-2.2.6-.2 1.3-.4 2.1-.7.8-.2 1.6-.4 2.4-.7V445c0-2.2-.3-3.7-.9-4.4-.6-.8-1.7-1.2-3.2-1.2h-.9c-.3 0-.7.1-1 .1l-.6 2.6c-.1 1.1-.5 2-1 2.5s-1.2.8-2 .8c-1.5 0-2.4-.7-2.6-2.1.3-1.9 1.3-3.4 3-4.5s4-1.7 6.9-1.7c2.7 0 4.7.7 6 2 1.3 1.3 1.9 3.5 1.9 6.6v10.2c0 1.4.5 2.1 1.4 2.1.6 0 1.1-.3 1.6-1l1.1.9c-.6 1.1-1.2 1.8-2 2.3-.8.5-1.8.7-2.9.7zm-12.2-6.8c0 1.2.3 2.1 1 2.7.6.5 1.4.8 2.4.8.5 0 1.1-.1 1.6-.4.5-.2 1.4-.8 2.5-1.6v-7.4c-.7.2-1.3.4-1.9.6-.6.2-1.1.4-1.5.5-1.6.6-2.6 1.3-3.2 2.2-.6.8-.9 1.7-.9 2.6zM522.8 461c-1.1 0-2-.4-2.7-1.1-.7-.7-1.1-1.6-1.1-2.6 0-1.1.4-2 1.1-2.7.7-.8 1.6-1.1 2.7-1.1s2 .4 2.7 1.1 1.1 1.7 1.1 2.7c0 1-.4 1.9-1.1 2.6-.8.7-1.7 1.1-2.7 1.1z"/></svg>