<svg version="1.1" id="Layer_1" xmlns="http://www.w3.org/2000/svg" x="0" y="0" viewBox="0 0 1190.6 1133.9" xml:space="preserve"><style>.st3{enable-background:new}.st4{fill:#fff}</style><path d="M137.1 985.8c-.5-2.2-.8-3.8-1-4.8-5.7-2.8-11.2-5.6-19.2-9.6-1.9.3-6.8 1.1-11.2 1.7-9.1-2.1-18.4-4.3-29.8-6.9-3.9-10.6-23.6-3.6-27.4-19.9-13.5 3.2-21.9-9.2-34.2-10.9-.4-3.5-.7-6.3-1-9.1-2.2-.9-4.3-1.7-6.3-2.5-.4-2.9-.7-5.8-1.1-9.4-2 1.2-3.6 2.1-5.9 3.3V101.3c7.2 1 13.8 1.9 23.4 3.1-.9.6 1-.6 3.2-2 8.7 2 17.9 4 28.4 6.4.7-.5 2.5-1.9 4.9-3.7 4.1 2.1 8.6 4.4 15 7.6 2.5 0 7.3.1 12 0 11.1-.4 21.3 2.3 32 5.3 18.2 5.2 35.2 13.9 53.6 18.5 5.9 1.5 10 1.9 12.4-2 9.4 3.1 17.3 5.8 25.5 8.5 3 3.6 5.9 10.4 10.5 11.8 9.1 2.9 18.6 7.5 28.5 3.4 7.1 16.2 29.3 12 36.8 29.1 11 3.6 24.5 6.1 36.2 12.2 23.7 12.5 23.3 13.3 39.2 13.3 2.1 2.1 4.2 4.2 6.8 6.7 1.6-1 3.3-2.1 6.1-3.8 2.7 2.3 5.8 4.9 9.1 7.7 11.8 1.6 23.5-1.6 34.6-6.2 6-2.4 12.1 0 18.6-3 10.5-4.9 22.7-5.9 34.2-8.6.6-.1 1.4.2 1.8-.1 20-13.6 44.7-13.6 66.2-22.7 4.1-1.8 7.8-1.7 11.6-2.3 9.5-1.6 19.1-3.2 28.6-5 1-.2 1.8-1.4 2.7-2.2 12.5 4.8 30.4 5 42.3.6 3.6 4.7 7.3 9.4 11 14.2 7.4-1.5 14-8.5 21.2-1.2 6.8-1.4 13.1 5.7 20.2.9 1.7-1.1 5.3-1.1 7 0 8.7 5.3 18.3 3.7 27.4 3.2 10.1-.6 19.5 2.3 29.2 3.8 8.9 1.3 17.4 3.8 25.9 6.9 7.9 2.9 16.6 3.5 23.3 4.8 11 11.7 26 13.9 38.3 19.9 12.7 6.2 28.1 7.1 43.4 10.5 1.4-2.1 3.5-5.3 6.3-9.4h14.5c1.6 4.6 3.2 9.3 5.1 14.8-.8 1.1-2.1 2.9-3.9 5.4 6.8 1.9 13.2 3.7 21.2 6 1.3 2.8 3.3 7.3 5.5 12 10.5 4.4 21.9 7.3 31.5 14.8 4.1 3.2 10.5 3.5 16.9 5.5 2.2 3.4 6 7.7 8 12.8 1.9 4.9 10.4 3.2 9 10.3 7.5.2 7.8 10.4 14.9 10.9 7.6.5 6 12.4 14.8 11.7.6-.1 1.6 3.8 2.3 5.8 3 .4 5.9.7 8.2 1 7.3 16.6 12.2 34.2 30.2 43.2v13.4c5.6 5.5 9.7 9.4 13.7 13.4 1.5-1.5 3.7-3.6 6.6-6.5 3 7.9 4.5 16.4 9 22.7 5 7.1 0 18.4 10.5 22.6-1 9.2 6.7 15.1 8.6 23.1h7.7c.6 1 1.8 2.1 1.7 2.9-2.5 10.2 3.9 19.1 3.8 28.9 0 1.5 1 3.6 2.3 4.3 6.5 3.9 4.3 10.3 5 15.8 2.2 2.2 4.3 4.3 7.1 7V544c2.7 1 4.8 1.8 7.2 2.7.5 15.4-2.5 31.3 7.5 44.4-2.7 6.9-5.1 13.1-7.5 19.5 1.2 1.7 2.4 3.6 2.8 4.1-1 6.7-2.4 12.2-2.6 17.7-.3 13.7.1 27.4-.2 41.1-.1 3.8-1.8 7.5-3 12.2 1.4 3.4 6 7.5 1.9 12.9-3.7 4.8-3.4 9.3 2.4 14.2h-9.5c-1.1 1.6-2.4 2.6-2.3 3.4 1.1 8.4-3.5 15.3-5.9 22.7-1.9 5.8-2.6 11.1 1.8 16.2-2.5 3.2-5.4 6.9-10.2 13 .5 1.6 1.8 6.3 3.2 11.2-3.2 3.6-11.6 2.9-10.5 11.3 2.2 1.1 4.7 2.2 7.7 3.6-4.6 7.8-9.1 15.4-13.5 22.9-1.5.4-3.2.8-4.9 1.2v8.7l-11.1 9.2v16.1h-8.2c-4.1 11.7-10 19.1-24.3 35.1-7.2 8-13.6 16.8-20.4 25.4-1-.6-3.3-1.9-7-4-.7 4.6-1.2 7.8-1.8 11.7h-7.1c-13.6 15.8-32.5 23.8-43.6 39.6-4.7.3-8.7.5-14 .8 1.5 2 2.4 3.2 3.5 4.7-7.3 3-14.6 6.1-22 9.2-5.1-1.3-10.4-2.8-15.5-4.1-1.2 3.3-2 5.4-2.9 7.8-5-1.5-9.7-2.9-14.9-4.5-2.5 3.8-4.7 7-7.5 11.2h-12.3c-13 6.3-25.3 12.8-38.1 18.1-4.1 1.7-9.5.3-14.1.3-2.2 2.2-4.4 4.3-7.1 7.1h-11.2c-10.8 4.4-18 7.3-25.5 10.3-3.1-2.3-6.8-5.1-11.6-8.7-4.3 2.2-10.5 5.4-18 9.2h-28c-2 2.9-4.2 6.1-7.5 10.8-10.4-2.4-22.1 7.3-34.9-1.3-2.4 3.5-4.4 6.4-6.2 9-23.1-3.3-44.8 9-67.3.6-.4 1.1-1.1 3.2-2.2 6.3-8.6-1.7-18.2 3.3-26.7-3.6-1.1-.9-3.6-.4-5.3-.1-5.5 1.1-11 2.5-16.5 3.5-5.6 1-11.4-1.5-16.9 3-2.5 2.1-8.1.2-12.2.7-5.6.6-12.1-2.7-16.5 3.5-8.5-1.2-17.9-.7-25.1-4.3-5.4-2.7-10.1-2.6-15.1-2.7-18.5-.4-37.2 1.6-54.8-6.9-2.7-1.3-7.4 1.6-12.2 2.8-1.9-.7-5-3-8.1-2.9-17.5.5-33.6-4.1-50-9.8-13.5-4.7-28.3-7-43.4-3.8-2.5-3.1-4.7-5.9-6.3-8H294l-6.8-6.8c-23.6-2.8-47.7-5.6-73.8-8.7-.9-1.1-3.1-3.9-5.2-6.5-10.4 2.5-19.1-1.3-27.4-4.7-9.8-4-19.6-6.3-30.2-5.5-4.9-.1-9-.3-13.5-.3z" fill="#0136f5"/><path d="M143.9 356.4c-.1-.5-.3-1.1-.5-1.5-.9-1.3-1.6-2.7-2.1-4.2-.1-.2-.2-.3-.3-.5-1-1.6-1.8-3.3-2.7-4.9-.9-1.8-2.2-3.5-2.8-5.5-.4-1.2-1.2-2.2-1.8-3.4-.8-1.4-1.5-2.9-2.2-4.3s-1.4-2.9-2.2-4.5c0-1.1-.2-2.5.9-3.5 1.7-1.4 2.8-2.1 4.8-1.9.1.1.2.5.5.6 1 .4 1.5 1.2 2 2 .9 1.7 1.9 3.5 2.9 5.1.8 1.3 1.3 2.8 1.9 4.3.9 2 1.8 4 2.9 5.9 1.5 2.5 2.8 5.1 4.3 7.6 1.1 2 2.2 4 3 6.2.4 1.2 1.1 2.3 1.7 3.4.1.2.3.3.6.6.2-.7.5-1.1.5-1.6 0-1.2.9-2.2 1-3.4.9-1.1 1-2.4 1.4-3.7.5-1.4 1.2-2.7 1.5-4.1.2-.8.4-1.5.6-2.2.2 0 .3-.1.3-.1.4-1.4.9-2.7 1.2-4 .2-.8.8-1.3.9-2.2.1-.8.6-1.6.7-2.4.1-.6.6-1 .8-1.6.2-.5.2-1.1.5-1.5.3-.5-.1-1 .4-1.4.4-.3.6-1 1-1.3.6-.4 1.3-.8 1.9-1 .8-.2 1.7-.3 2.5.1.2.1.4.1.8.1.2.2.5.5.8.9s.5.7.8 1.1v1.9c0 .3-.1.6-.2.9-.4 1-.7 2-.9 3.1s-.9 1.9-1.2 3c-.2.8-.4 1.6-.7 2.4-.2.7-.8 1.2-.9 2-.1.6-.5 1.3-.6 1.9-.2.8-.5 1.5-.7 2.3-.1 0-.2.1-.4.1 0 .1-.1.2-.1.3.1.7-.2 1.3-.5 1.9-.4 1.1-.6 2.3-1.3 3.3-.4.6-.4 1.4-.6 2.1-.3 1.1-.9 2.2-1.3 3.2-.2.5-.3 1.1-.6 1.9.7-.1 1.4-.1 1.8-.4 1.2-.7 2.5-.9 3.7-1.4 1.7-.7 3.4-1.3 5.1-1.9 1.5-.6 3.1-1 4.7-1.7 1.5-.6 3.1-1.2 4.6-1.8 1.3-.5 2.6-.8 3.9-1.3.7-.2 1.3-.6 2-.9s1.4-.4 2.1-.7c1.2-.6 2.6-.9 3.9-1.3.8-.2 1.6 0 2.5.4l1.2 1.2c.1.7.3 1.4.4 2.1s0 1.4 0 2.2c-.2.1-.4.3-.6.4 0 .4 0 .7-.1 1-1.2.6-2.3 1.4-3.5 1.8-1.6.5-3 1.3-4.6 1.8-.6.2-1.3.4-2 .6-1.3.4-2.7 1-4 1.5-1.6.7-3.3 1.1-5 1.8-.4.2-.8.3-1.3.5.9.3 1.6.6 2.5.5.2 0 .4.2.5.2.7.1 1.3.5 2 .4.3 0 .6.2.8.2.7.1 1.4.5 2.2.4.3-.1.7.2 1 .2.7.1 1.3.4 2.1.4s1.7.3 2.4.7c.7.4 1.5 0 2.1.3.6.2 1.3.6 2 .6.5 0 1 0 1.5.3.3.2.7.3 1.1.3.4.1.8 0 1.2 0 .6.4 1.1.7 1.5 1.2.4.4.6 1 .9 1.6v2.4c-.4.6-.9 1.1-1.2 1.7-.6 1.2-1.6 1.6-2.8 1.6-1.1 0-2.2-.1-3.3-.5-1.1-.3-2.2-.6-3.3-.8-.6-.1-1.3-.2-1.9-.4-1.5-.4-3.1-.5-4.6-1.2-.3-.2-.8 0-1.2-.1s-.8-.2-1.1-.3c-1.2-.2-2.4-.5-3.6-.8-1.1-.3-2.2-.5-3.3-.8-.6-.2-1.2-.1-1.8-.3-1.2-.5-2.7-.2-3.9-1-1.4.3-2.6-.8-4-.7-.5 0-1-.1-1.4-.3-.8-.4-1.6-.3-2.4-.3l-.4.4c0 .1.1.1.1.2 1.3 2.4 2.4 4.9 3.7 7.3.7 1.4 1.6 2.7 2.4 4.1l.6 1.2c1.7 3 3.3 6.1 4.8 9.2.3.7.5 1.5.9 2.2 1.1 2.1 2.3 4.1 3.3 6.2 1 1.9.9 1.9.9 3.8-.5.7-1.1 1.4-1.7 2.2-1.3 1.1-2.8.7-4.3.8-1-.4-1.4-1.2-2-2.1-1-1.5-1.6-3.3-2.7-4.8-.6-.8-.8-2-1.3-2.9-1-1.9-2-3.7-3.1-5.5-.9-1.6-1.7-3.2-2.4-4.9-.4-1-1-2.1-1.6-3-.7-1.1-1.1-2.3-1.9-3.4-.2-.3-.4-.6-.7-1.1v-1c-.9.8-.5 1.9-1.1 2.6h-.3l-.2.2c.1.7-.3 1.3-.4 1.9-.1.6-.6 1.2-.5 1.8 0 .1 0 .3-.1.4-1.1 1.2-1.1 2.9-1.7 4.4-.4.9-1.1 1.8-1.1 2.9 0 .3-.1.6-.2.8-.3.6-.2 1.3-.7 1.8-.2.2-.2.5-.3.9-.4.1-.8.4-.9.9-.5.2-.9.4-1.5.7H144c-.1-.2-.3-.5-.4-.6h-.9c-.5-.8-1-1.7-1.4-2.6-.3-1 .3-2 .3-3.1.1 0 .3-.1.4-.1.3-1 .7-2.1 1-3.2.4-1.4 1.3-2.5 1.5-4 .1-.5.4-.9.4-1.4 0-.8.8-1.2.8-2 0-.7.4-1.3.6-1.9.2-.7.5-1.5.7-2.3.1 0 .3-.1.5-.1-.3-.7.5-1.3.2-2.1-1.9.7-3.8 1.3-5.7 1.9-.8.3-1.7.7-2.4 1.1-.9.5-1.9.5-2.8 1-.8.4-1.7.6-2.7.8-.8.2-1.5.9-2.5.9-.7 1-2 .8-3 1.2-1.7.8-3.6 1.2-5.3 2-1.4.7-3 1-4.4 1.5-.9.3-1.8.8-2.7.6-.5-.1-1.1-.3-1.7-.4 0 0 0-.3-.1-.3-1-.4-.9-1.5-1.2-2.3-.2-.5-.4-1.2-.2-1.5.3-.6 0-1.1.3-1.7.1 0 .3-.1.5-.1v-.7c.9-1 2.1-1.7 3.4-2 1.4-.3 2.6-1.1 4-1.5l1.8-.6c1.2-.3 2.2-1.2 3.5-1.1.7-.9 1.9-.6 2.8-1.3.4-.3.9-.3 1.4-.5 2.3-.8 4.5-1.5 6.7-2.5 1.3-.6 2.8-.9 4.2-1.4 1.2-.4 2.4-.9 3.9-1.5-.6-.3-1-.7-1.4-.7-1.1 0-2.1-.3-3.1-.6-.6-.2-1.3-.1-1.9-.3-1.2-.5-2.7-.2-3.9-1-1.9.1-3.6-1-5.5-.9-1.3-.8-2.9-.4-4.3-1.2-.3-.2-.8 0-1.2-.1s-.8-.2-1.1-.3c-1.2-.4-2.6-.1-3.7-.9-1.5.3-2.7-.8-4.2-.7-.5 0-1-.3-1.6-.4-.1-.6-.7-.6-1.3-1-.2-.3-.4-.8-.7-1.3-.3-1.1.1-2.2.4-3.2.4-1.1 1.5-1.7 2.2-2.6.6-.1 1.2-.4 1.8-.3 1.2.2 2.5.3 3.7.7.5.1.9.1 1.3.2s.9.2 1.3.3c.5.2.9.4 1.5.3.4-.1.7.2 1 .3.7.1 1.3.6 2.1.4.4-.1.8.1 1.1.3.6.3 1.3.2 1.9.4.3.1.6.2.8.3.7.1 1.3.5 2.1.4.2 0 .5.1.7.2.7.1 1.4.6 2.2.4.4-.1.8.1 1.2.3.6.3 1.3.2 1.9.4.5.1 1 .1 1.4.3 1.6 1 2.6 1.1 3.7 1-.1 0-.1 0-.1.1.1.1.1.2.2.3l.1-.1c0-.2-.1-.2-.2-.3z" fill="#e95846"/><path fill="none" d="M210.3 345.3h805.1v548.2H210.3z"/><g class="st3"><path class="st4" d="M212 375.4l.5-15.5h48.2l.4 15.5h-5.9l-1.8-11h-11.2c-.1 3.6-.1 7.2-.1 10.8v25.5c0 3.6.1 7.2.1 10.8l8 .8v4h-27.4v-4l8-.8c.1-3.5.2-7.1.2-10.7v-14.5-10.9c0-3.7-.1-7.3-.2-10.9h-11.1l-1.8 11H212zM280.2 417.5c-3.9 0-7.3-.9-10.4-2.6-3.1-1.7-5.5-4.2-7.4-7.4-1.8-3.2-2.7-7.1-2.7-11.6s.9-8.4 2.8-11.6c1.9-3.2 4.4-5.7 7.5-7.4 3.1-1.7 6.5-2.5 10.1-2.5 3.6 0 7 .9 10.1 2.5 3.1 1.7 5.6 4.2 7.6 7.4 1.9 3.2 2.9 7.1 2.9 11.7 0 4.5-.9 8.4-2.8 11.6-1.8 3.2-4.3 5.7-7.4 7.4-3 1.6-6.5 2.5-10.3 2.5zm0-4.2c3.1 0 5.4-1.4 7-4.2 1.6-2.8 2.4-7.2 2.4-13 0-11.7-3.1-17.5-9.4-17.5-6.2 0-9.4 5.8-9.4 17.5 0 5.8.8 10.2 2.4 13 1.6 2.8 3.9 4.2 7 4.2zM324.5 402c-2.5 0-4.9-.3-7.1-.9-1.1 1.5-1.6 3-1.6 4.7 0 1.1.4 1.9 1.1 2.5.7.6 2 .9 3.9.9h10.6c5.6 0 9.5 1 11.9 3.1 2.4 2.1 3.6 4.9 3.6 8.5 0 2.7-.9 5.2-2.6 7.5-1.7 2.3-4.3 4.2-7.6 5.6-3.4 1.4-7.6 2.1-12.6 2.1-4.4 0-7.9-.5-10.5-1.4-2.6-.9-4.5-2.1-5.7-3.7-1.2-1.5-1.7-3.2-1.7-5.1 0-1.8.6-3.5 1.8-5 1.2-1.5 3.1-2.9 5.9-4.2-1.8-.6-3.1-1.5-3.9-2.7-.9-1.2-1.3-2.5-1.3-4 0-1.6.5-3.3 1.5-4.9 1-1.6 2.5-3.4 4.6-5.3-4.5-2.3-6.7-6.1-6.7-11.6 0-4.2 1.5-7.6 4.4-10.1 2.9-2.5 7-3.8 12.2-3.8 5.2 0 9.2 1.2 12.1 3.6l9.6-3.7 1.3.9v5.9h-8.2c1.2 1.9 1.8 4.3 1.8 7.1 0 4.1-1.4 7.5-4.3 10-3.2 2.7-7.2 4-12.5 4zm-10.8 22.2c0 2.6 1 4.5 2.9 5.7 1.9 1.2 4.7 1.8 8.2 1.8 4.5 0 7.9-.7 10.2-2.2 2.3-1.5 3.4-3.3 3.4-5.4 0-1.6-.6-2.9-1.7-4.1-1.1-1.1-3-1.7-5.7-1.7h-9.4c-2.1 0-4-.2-5.6-.5-1.6 2.1-2.3 4.2-2.3 6.4zm10.7-25.9c2.4 0 4.2-.9 5.4-2.8 1.2-1.9 1.9-4.4 1.9-7.5 0-3-.6-5.4-1.8-7.2-1.2-1.8-3-2.7-5.2-2.7-2.3 0-4 .9-5.3 2.8-1.3 1.8-1.9 4.3-1.9 7.4 0 3.1.6 5.5 1.8 7.3 1.1 1.8 2.8 2.7 5.1 2.7zM370.9 417.5c-4 0-7.5-.9-10.5-2.6-3-1.7-5.4-4.2-7.1-7.4-1.7-3.2-2.5-7-2.5-11.4 0-4.5 1-8.4 2.9-11.7s4.5-5.8 7.6-7.5c3.1-1.7 6.5-2.6 10.1-2.6 3.3 0 6.3.7 8.8 2.1 2.5 1.4 4.4 3.4 5.8 6 1.4 2.5 2.1 5.6 2.1 9 0 1.8-.2 3.4-.5 4.7h-26c.2 4.9 1.5 8.5 3.9 11 2.4 2.4 5.3 3.7 8.9 3.7 2.5 0 4.6-.5 6.3-1.5 1.7-1 3.3-2.3 4.7-3.9l2.5 2.2c-1.6 3.1-3.9 5.5-6.8 7.3-2.8 1.7-6.2 2.6-10.2 2.6zm0-39c-1.4 0-2.7.4-4 1.3-1.3.9-2.5 2.3-3.4 4.3-.9 2-1.5 4.7-1.7 8.1h11.6c2 0 3.4-.4 4.1-1.3s1-2 1-3.6c0-2.6-.7-4.7-2.2-6.4-1.5-1.6-3.3-2.4-5.4-2.4zM409.5 417.5c-3.4 0-6.1-.9-8-2.6-1.9-1.7-2.9-4.4-2.9-8.2V403v-22.3h-6.3v-4.4l6.9-.8 3.2-11.6h6.9l-.3 11.7h10.2v5.2h-10.3v25.1c0 2.1.4 3.6 1.2 4.6.8 1 1.9 1.4 3.3 1.4 1.5 0 3.3-.7 5.2-2.1l2 2.1c-1.1 1.8-2.5 3.1-4.4 4.1-1.8 1-4.1 1.5-6.7 1.5zM423 416.3v-3.5l5.6-1.1c.1-2.1.1-4.4.1-6.8V362l-6.2-.8v-3.3l15.2-3.8 1.3.8-.3 12v15.2c4.4-5 9.2-7.6 14.5-7.6 3.7 0 6.5 1.2 8.6 3.7 2 2.4 3.1 6.3 3.1 11.6v15.3c0 2.4 0 4.7.1 6.8l5.2 1v3.5h-21v-3.5l5.4-1.1c.1-2.1.1-4.3.1-6.8v-14.6c0-3.3-.4-5.7-1.3-6.9-.9-1.3-2.4-1.9-4.5-1.9-3.2 0-6.5 1.6-9.9 4.8V405c0 2.5 0 4.7.1 6.9l5 1v3.5H423zM495.5 417.5c-4 0-7.5-.9-10.5-2.6-3-1.7-5.4-4.2-7.1-7.4-1.7-3.2-2.5-7-2.5-11.4 0-4.5 1-8.4 2.9-11.7s4.5-5.8 7.6-7.5c3.1-1.7 6.5-2.6 10.1-2.6 3.3 0 6.3.7 8.8 2.1 2.5 1.4 4.4 3.4 5.8 6 1.4 2.5 2.1 5.6 2.1 9 0 1.8-.2 3.4-.5 4.7h-26c.2 4.9 1.5 8.5 3.9 11 2.4 2.4 5.3 3.7 8.9 3.7 2.5 0 4.6-.5 6.3-1.5 1.7-1 3.3-2.3 4.7-3.9l2.5 2.2c-1.6 3.1-3.9 5.5-6.8 7.3-2.8 1.7-6.3 2.6-10.2 2.6zm0-39c-1.4 0-2.7.4-4 1.3-1.3.9-2.5 2.3-3.4 4.3-.9 2-1.5 4.7-1.7 8.1H498c2 0 3.4-.4 4.1-1.3s1-2 1-3.6c0-2.6-.7-4.7-2.2-6.4-1.5-1.6-3.3-2.4-5.4-2.4zM519 416.3v-3.5l5.4-1c.1-2.2.1-4.5.1-6.9V394v-5.6c0-1.4-.1-2.9-.2-4.6l-6-.8v-3.2l14.2-5.4 1.4.9.9 10c1.3-3.5 3.1-6.2 5.3-8.1 2.2-1.9 4.4-2.8 6.6-2.8 1.5 0 2.9.4 4.2 1.2 1.3.8 2.1 1.9 2.5 3.4-.1 2.1-.6 3.7-1.5 4.9-1 1.2-2.3 1.7-4 1.7-2 0-4-1-5.8-3.1l-.8-.8c-3 2.5-5.2 6-6.5 10.5v12.4c0 2.4 0 4.7.1 6.8l7 1.4v3.5H519zM564.6 412.7c0 3.6-.9 6.9-2.5 9.9-1.7 2.9-3.8 5.4-6.4 7.4-2.6 2-5.2 3.5-7.9 4.4l-1.2-3.2c2.8-1.5 5.3-3.2 7.3-5.2s3.6-4.4 4.6-7.2l-3.1-2c-1.4-.9-2.4-1.9-3.1-3.1-.6-1.2-.9-2.3-.9-3.4 0-1.8.6-3.3 1.7-4.5 1.2-1.2 2.7-1.8 4.6-1.8 1 0 1.9.2 2.8.5.9.3 1.9 1 2.9 2 .5 1.1.8 2.2.9 3.2.2.8.3 1.9.3 3zM639.7 379.1v-3.6h15.6v3.6l-4.7.8-12.7 36.6h-4.8l-10.4-28.8-10.5 28.8h-4.7L594 379.7l-4.4-.7v-3.6h20.8v3.6l-5.8.8 7.8 24 8.5-24-5.7-.8v-3.6H635v3.6l-5.5.9 8.4 23.6 7.4-23.6-5.6-.8zM677.1 417.5c-4 0-7.5-.9-10.5-2.6-3-1.7-5.4-4.2-7.1-7.4-1.7-3.2-2.5-7-2.5-11.4 0-4.5 1-8.4 2.9-11.7s4.5-5.8 7.7-7.5c3.1-1.7 6.5-2.6 10.1-2.6 3.3 0 6.3.7 8.8 2.1 2.5 1.4 4.4 3.4 5.8 6s2.1 5.6 2.1 9c0 1.8-.2 3.4-.5 4.7h-26c.2 4.9 1.5 8.5 3.9 11 2.4 2.4 5.3 3.7 8.9 3.7 2.5 0 4.6-.5 6.3-1.5 1.7-1 3.3-2.3 4.7-3.9l2.5 2.2c-1.6 3.1-3.9 5.5-6.8 7.3-2.9 1.7-6.3 2.6-10.3 2.6zm0-39c-1.4 0-2.7.4-4 1.3-1.3.9-2.5 2.3-3.4 4.3-.9 2-1.5 4.7-1.7 8.1h11.6c2 0 3.4-.4 4.1-1.3.7-.8 1-2 1-3.6 0-2.6-.7-4.7-2.2-6.4-1.5-1.6-3.3-2.4-5.4-2.4zM734.7 417.5c-3.4 0-6.1-.9-8-2.6-1.9-1.7-2.9-4.4-2.9-8.2V403v-22.3h-6.3v-4.4l6.9-.8 3.2-11.6h6.9l-.3 11.7h10.2v5.2h-10.3v25.1c0 2.1.4 3.6 1.2 4.6.8 1 1.9 1.4 3.3 1.4 1.5 0 3.3-.7 5.2-2.1l2 2.1c-1.1 1.8-2.5 3.1-4.4 4.1-1.8 1-4.1 1.5-6.7 1.5zM781 417.3c-2.3 0-4.1-.6-5.5-1.7-1.4-1.1-2.4-2.7-2.9-4.7-2.1 2.2-4 3.8-5.7 4.9-1.7 1.1-3.9 1.7-6.6 1.7-3.2 0-5.9-.9-8-2.8-2.2-1.8-3.3-4.5-3.3-7.9 0-1.8.4-3.5 1.3-5.1s2.4-3 4.5-4.4c2.2-1.4 5.3-2.7 9.4-4 1.1-.4 2.4-.8 3.8-1.2 1.4-.4 2.9-.8 4.3-1.2v-2.4c0-4-.6-6.6-1.7-8-1.1-1.4-3-2.1-5.8-2.1-.5 0-1.1 0-1.7.1-.6.1-1.2.1-1.8.3l-1 4.7c-.2 2-.8 3.5-1.8 4.5s-2.2 1.4-3.6 1.4c-2.7 0-4.3-1.3-4.8-3.8.5-3.4 2.3-6.1 5.5-8.2 3.1-2 7.3-3.1 12.5-3.1 4.9 0 8.5 1.2 10.8 3.5 2.3 2.4 3.4 6.3 3.4 11.9v18.5c0 2.5.8 3.8 2.5 3.8 1.1 0 2.1-.6 3-1.9l2 1.7c-1 1.9-2.2 3.3-3.6 4.1-1.5 1-3.2 1.4-5.2 1.4zM758.9 405c0 2.2.6 3.8 1.7 4.8 1.2 1 2.6 1.5 4.3 1.5 1 0 1.9-.2 2.9-.7 1-.5 2.5-1.4 4.5-2.8v-13.4c-1.2.4-2.3.8-3.4 1.1-1 .3-1.9.7-2.7.9-2.8 1.1-4.8 2.4-5.8 3.9s-1.5 3-1.5 4.7zM792.1 416.3v-3.5l5.8-1.1c.1-2.2.1-4.4.1-6.6V362l-6.2-.8v-3.3l15.5-3.8 1.3.8-.3 12v38.3c0 2.2.1 4.4.1 6.6l5.8 1.1v3.5h-22.1zM818.5 416.3v-3.5l5.8-1.1c.1-2.2.1-4.4.1-6.8V362l-6.2-.8v-3.3l15.5-3.8 1.3.8-.3 12v28l14.1-14.3-6.4-1.3.1-3.6h20.1v3.6l-7.7 1.1-8.6 8.3 13.1 23 5.5 1.2v3.5h-14.4L839 395.5l-4.4 4.3v6c0 2.1.1 4 .1 5.9l5.7 1v3.5h-21.9z"/></g><g class="st3"><path class="st4" d="M245.6 507.3c-2.3 0-4.1-.6-5.5-1.7-1.4-1.1-2.4-2.7-2.9-4.7-2.1 2.2-4 3.8-5.7 4.9-1.7 1.1-3.9 1.7-6.6 1.7-3.2 0-5.9-.9-8-2.8-2.2-1.8-3.3-4.5-3.3-7.9 0-1.8.4-3.5 1.3-5.1s2.4-3 4.5-4.4c2.2-1.4 5.3-2.7 9.4-4 1.1-.4 2.4-.8 3.8-1.2 1.4-.4 2.9-.8 4.3-1.2v-2.4c0-4-.6-6.6-1.7-8-1.1-1.4-3-2.1-5.8-2.1-.5 0-1.1 0-1.7.1-.6.1-1.2.1-1.8.3l-1 4.7c-.2 2-.8 3.5-1.8 4.5s-2.2 1.4-3.6 1.4c-2.7 0-4.3-1.3-4.8-3.8.5-3.4 2.3-6.1 5.5-8.2s7.3-3.1 12.5-3.1c4.9 0 8.5 1.2 10.8 3.5 2.3 2.4 3.4 6.3 3.4 11.9v18.5c0 2.5.8 3.8 2.5 3.8 1.1 0 2.1-.6 3-1.9l2 1.7c-1 1.9-2.2 3.3-3.6 4.1-1.5 1-3.2 1.4-5.2 1.4zM223.5 495c0 2.2.6 3.8 1.7 4.8 1.2 1 2.6 1.5 4.3 1.5 1 0 1.9-.2 2.9-.7 1-.5 2.5-1.4 4.5-2.8v-13.4c-1.2.4-2.3.8-3.4 1.1-1 .3-1.9.7-2.7.9-2.8 1.1-4.8 2.4-5.8 3.9s-1.5 3-1.5 4.7zM257 506.3v-3.5l5.5-1c.1-2.1.1-4.4.1-6.8v-43.1l-6.2-.8v-3.3l15.2-3.8 1.3.8-.3 12v13.7c3.8-4 8-6 12.7-6 3.1 0 5.8.8 8.3 2.5 2.5 1.6 4.5 4 5.9 7.2 1.4 3.1 2.2 7 2.2 11.5s-.8 8.4-2.4 11.6c-1.6 3.3-3.8 5.8-6.4 7.6-2.7 1.8-5.6 2.7-8.9 2.7-2.2 0-4.3-.4-6.2-1.3-1.9-.8-3.7-2.3-5.3-4.2l-1.1 5.4-14.4-1.2zm24.2-35.9c-1.3 0-2.6.3-4 1s-2.8 1.6-4.3 2.9v23.5c2.6 2.4 5.3 3.7 8 3.7 2.8 0 5.1-1.3 7.1-3.8 1.9-2.5 2.9-6.4 2.9-11.6 0-5.3-.9-9.2-2.7-11.8-1.9-2.6-4.2-3.9-7-3.9zM328.9 507.5c-3.9 0-7.3-.9-10.4-2.6-3.1-1.7-5.5-4.2-7.4-7.4-1.8-3.2-2.7-7.1-2.7-11.6s.9-8.4 2.8-11.6c1.9-3.2 4.4-5.7 7.5-7.4 3.1-1.7 6.5-2.5 10.1-2.5 3.6 0 7 .9 10.1 2.5 3.1 1.7 5.6 4.2 7.6 7.4 1.9 3.2 2.9 7.1 2.9 11.7 0 4.5-.9 8.4-2.8 11.6-1.8 3.2-4.3 5.7-7.4 7.4-3 1.6-6.5 2.5-10.3 2.5zm0-4.2c3.1 0 5.4-1.4 7-4.2 1.6-2.8 2.4-7.2 2.4-13 0-11.7-3.1-17.5-9.4-17.5-6.2 0-9.4 5.8-9.4 17.5 0 5.8.8 10.2 2.4 13 1.6 2.8 3.9 4.2 7 4.2zM385.8 507.1l-.7-7.5c-4.1 5.3-9 7.9-14.4 7.9-3.5 0-6.3-1.1-8.5-3.4-2.1-2.3-3.2-6.2-3.1-11.9l.3-21-5.5-1.2v-3.3l14.9-1.8 1 .9-.4 11.9v14.1c0 3.2.5 5.4 1.5 6.7 1 1.3 2.4 1.9 4.3 1.9 1.6 0 3.2-.5 4.9-1.4 1.7-.9 3.3-2.1 4.8-3.5l.3-24.4-5.4-1.2v-3.1l14.5-2 1.1.9-.3 11.9v24l5.2 1.1v3.5l-14.5.9zM420.6 507.5c-3.4 0-6.1-.9-8-2.6-1.9-1.7-2.9-4.4-2.9-8.2V493v-22.3h-6.3v-4.4l6.9-.8 3.2-11.6h6.9l-.3 11.7h10.2v5.2H420v25.1c0 2.1.4 3.6 1.2 4.6.8 1 1.9 1.4 3.3 1.4 1.5 0 3.3-.7 5.2-2.1l2 2.1c-1.1 1.8-2.5 3.1-4.4 4.1-1.8 1-4.1 1.5-6.7 1.5zM468.6 507.5c-3.4 0-6.1-.9-8-2.6-1.9-1.7-2.9-4.4-2.9-8.2V493v-22.3h-6.3v-4.4l6.9-.8 3.2-11.6h6.9l-.3 11.7h10.2v5.2H468v25.1c0 2.1.4 3.6 1.2 4.6.8 1 1.9 1.4 3.3 1.4 1.5 0 3.3-.7 5.2-2.1l2 2.1c-1.1 1.8-2.5 3.1-4.4 4.1-1.8 1-4 1.5-6.7 1.5zM482.1 506.3v-3.5l5.6-1.1c.1-2.1.1-4.4.1-6.8V452l-6.2-.8v-3.3l15.2-3.8 1.3.8-.3 12v15.2c4.4-5 9.2-7.6 14.5-7.6 3.7 0 6.5 1.2 8.6 3.7 2 2.4 3.1 6.3 3.1 11.6v15.3c0 2.4 0 4.7.1 6.8l5.2 1v3.5h-21v-3.5l5.4-1.1c.1-2.1.1-4.3.1-6.8v-14.6c0-3.3-.4-5.7-1.3-6.9-.9-1.3-2.4-1.9-4.5-1.9-3.2 0-6.5 1.6-9.9 4.8V495c0 2.5 0 4.7.1 6.9l5 1v3.5h-21.1zM554.6 507.5c-4 0-7.5-.9-10.5-2.6-3-1.7-5.4-4.2-7.1-7.4-1.7-3.2-2.5-7-2.5-11.4 0-4.5 1-8.4 2.9-11.7s4.5-5.8 7.6-7.5c3.1-1.7 6.5-2.6 10.1-2.6 3.3 0 6.3.7 8.8 2.1 2.5 1.4 4.4 3.4 5.8 6 1.4 2.5 2.1 5.6 2.1 9 0 1.8-.2 3.4-.5 4.7h-26c.2 4.9 1.5 8.5 3.9 11 2.4 2.4 5.3 3.7 8.9 3.7 2.5 0 4.6-.5 6.3-1.5 1.7-1 3.3-2.3 4.7-3.9l2.5 2.2c-1.6 3.1-3.9 5.5-6.8 7.3-2.8 1.7-6.2 2.6-10.2 2.6zm0-39c-1.4 0-2.7.4-4 1.3-1.3.9-2.5 2.3-3.4 4.3-.9 2-1.5 4.7-1.7 8.1h11.6c2 0 3.4-.4 4.1-1.3s1-2 1-3.6c0-2.6-.7-4.7-2.2-6.4-1.5-1.6-3.3-2.4-5.4-2.4zM617.4 507.5c-3.9 0-7.3-.8-10.4-2.5-3.1-1.7-5.5-4.1-7.2-7.3-1.7-3.2-2.6-7.1-2.6-11.6 0-4.6 1-8.5 2.9-11.7 2-3.2 4.5-5.7 7.8-7.4 3.2-1.7 6.7-2.5 10.5-2.5 2.8 0 5.3.5 7.5 1.6 2.2 1 4.1 2.5 5.4 4.2 1.4 1.8 2.2 3.7 2.5 6-.7 2.5-2.3 3.7-4.8 3.7-3.2 0-5-2-5.5-6l-1.1-5.1-1.5-.3c-.5-.1-1-.1-1.5-.1-2 0-3.9.6-5.7 1.7-1.7 1.2-3.1 3-4.2 5.4-1.1 2.4-1.6 5.5-1.6 9.3 0 5.2 1.2 9.1 3.5 11.8 2.4 2.7 5.4 4.1 9.2 4.1 2.3 0 4.3-.5 6.1-1.5 1.8-1 3.3-2.4 4.6-4.2l2.5 1.9c-1.4 3.5-3.5 6.1-6.3 7.9s-6.1 2.6-10.1 2.6zM637.8 506.3v-3.5l5.6-1.1c.1-2.1.1-4.4.1-6.8V452l-6.2-.8v-3.3l15.2-3.8 1.3.8-.3 12v15.2c4.4-5 9.2-7.6 14.5-7.6 3.7 0 6.5 1.2 8.6 3.7 2 2.4 3.1 6.3 3.1 11.6v15.3c0 2.4 0 4.7.1 6.8l5.2 1v3.5h-21v-3.5l5.4-1.1c.1-2.1.1-4.3.1-6.8v-14.6c0-3.3-.4-5.7-1.3-6.9-.9-1.3-2.4-1.9-4.5-1.9-3.2 0-6.5 1.6-9.9 4.8V495c0 2.5 0 4.7.1 6.9l5 1v3.5h-21.1zM722 507.3c-2.3 0-4.1-.6-5.5-1.7-1.4-1.1-2.4-2.7-2.9-4.7-2.1 2.2-4 3.8-5.7 4.9-1.7 1.1-3.9 1.7-6.6 1.7-3.2 0-5.9-.9-8-2.8-2.2-1.8-3.3-4.5-3.3-7.9 0-1.8.4-3.5 1.3-5.1.8-1.6 2.4-3 4.5-4.4 2.2-1.4 5.3-2.7 9.4-4 1.1-.4 2.4-.8 3.8-1.2 1.4-.4 2.9-.8 4.3-1.2v-2.4c0-4-.6-6.6-1.7-8s-3-2.1-5.8-2.1c-.5 0-1.1 0-1.7.1-.6.1-1.2.1-1.8.3l-1 4.7c-.2 2-.8 3.5-1.8 4.5s-2.2 1.4-3.6 1.4c-2.7 0-4.3-1.3-4.8-3.8.5-3.4 2.3-6.1 5.5-8.2 3.1-2 7.3-3.1 12.5-3.1 4.9 0 8.5 1.2 10.8 3.5 2.3 2.4 3.4 6.3 3.4 11.9v18.5c0 2.5.8 3.8 2.5 3.8 1.1 0 2.1-.6 3-1.9l2 1.7c-1 1.9-2.2 3.3-3.6 4.1-1.5 1-3.2 1.4-5.2 1.4zM699.9 495c0 2.2.6 3.8 1.7 4.8 1.2 1 2.6 1.5 4.3 1.5 1 0 1.9-.2 2.9-.7 1-.5 2.5-1.4 4.5-2.8v-13.4c-1.2.4-2.3.8-3.4 1.1-1 .3-1.9.7-2.7.9-2.8 1.1-4.8 2.4-5.8 3.9s-1.5 3-1.5 4.7zM733.1 506.3v-3.5l5.8-1.1c.1-2.2.1-4.4.1-6.6V452l-6.2-.8v-3.3l15.5-3.8 1.3.8-.3 12v38.3c0 2.2.1 4.4.1 6.6l5.8 1.1v3.5h-22.1zM759.5 506.3v-3.5l5.8-1.1c.1-2.2.1-4.4.1-6.6V452l-6.2-.8v-3.3l15.5-3.8 1.3.8-.3 12v38.3c0 2.2.1 4.4.1 6.6l5.8 1.1v3.5h-22.1zM806.8 507.5c-4 0-7.5-.9-10.5-2.6-3-1.7-5.4-4.2-7.1-7.4-1.7-3.2-2.6-7-2.6-11.4 0-4.5 1-8.4 2.9-11.7s4.5-5.8 7.7-7.5c3.1-1.7 6.5-2.6 10.1-2.6 3.3 0 6.3.7 8.8 2.1 2.5 1.4 4.4 3.4 5.8 6 1.4 2.5 2.1 5.6 2.1 9 0 1.8-.2 3.4-.5 4.7h-26c.2 4.9 1.5 8.5 3.9 11 2.4 2.4 5.3 3.7 8.9 3.7 2.5 0 4.6-.5 6.3-1.5 1.7-1 3.3-2.3 4.7-3.9l2.5 2.2c-1.6 3.1-3.9 5.5-6.8 7.3-2.8 1.7-6.2 2.6-10.2 2.6zm0-39c-1.4 0-2.7.4-4 1.3-1.3.9-2.5 2.3-3.4 4.3-.9 2-1.5 4.7-1.7 8.1h11.6c2 0 3.4-.4 4.1-1.3s1-2 1-3.6c0-2.6-.7-4.7-2.2-6.4-1.5-1.6-3.3-2.4-5.4-2.4zM830.3 506.3v-3.5l5.5-1.1c.1-2.1.1-4.4.1-6.8V484v-5.6c0-1.4-.1-2.9-.2-4.6l-6-.8v-3.2l14.2-5.4 1.4.9.6 6.5c4.4-4.9 9.2-7.4 14.4-7.4 3.7 0 6.5 1.2 8.5 3.7 2 2.4 3 6.3 3 11.6V495c0 2.4 0 4.7.1 6.8l5.2 1v3.5h-21v-3.5l5.4-1.1c.1-2.1.1-4.3.1-6.8v-14.6c0-3.3-.5-5.7-1.4-6.9s-2.4-1.9-4.6-1.9c-3 0-6.2 1.4-9.5 4.2V495c0 2.5 0 4.7.1 6.9l5 1v3.5h-20.9zM900 492c-2.5 0-4.9-.3-7.1-.9-1.1 1.5-1.6 3-1.6 4.7 0 1.1.4 1.9 1.1 2.5.7.6 2 .9 3.9.9h10.6c5.6 0 9.5 1 11.9 3.1 2.4 2.1 3.6 4.9 3.6 8.5 0 2.7-.9 5.2-2.6 7.5-1.7 2.3-4.3 4.2-7.7 5.6-3.4 1.4-7.6 2.1-12.6 2.1-4.4 0-7.9-.5-10.5-1.4-2.6-.9-4.5-2.1-5.7-3.7-1.2-1.5-1.7-3.2-1.7-5.1 0-1.8.6-3.5 1.8-5 1.2-1.5 3.1-2.9 5.9-4.2-1.8-.6-3.1-1.5-3.9-2.7-.9-1.2-1.3-2.5-1.3-4 0-1.6.5-3.3 1.5-4.9 1-1.6 2.5-3.4 4.6-5.3-4.5-2.3-6.7-6.1-6.7-11.6 0-4.2 1.5-7.6 4.4-10.1 2.9-2.5 7-3.8 12.2-3.8 5.2 0 9.2 1.2 12.1 3.6l9.6-3.7 1.3.9v5.9h-8.2c1.2 1.9 1.8 4.3 1.8 7.1 0 4.1-1.4 7.5-4.3 10-3.2 2.7-7.2 4-12.4 4zm-10.9 22.2c0 2.6 1 4.5 2.9 5.7 1.9 1.2 4.7 1.8 8.2 1.8 4.5 0 7.9-.7 10.2-2.2 2.3-1.5 3.4-3.3 3.4-5.4 0-1.6-.6-2.9-1.7-4.1-1.1-1.1-3-1.7-5.7-1.7H897c-2.1 0-4-.2-5.6-.5-1.5 2.1-2.3 4.2-2.3 6.4zm10.7-25.9c2.4 0 4.2-.9 5.4-2.8 1.2-1.9 1.9-4.4 1.9-7.5 0-3-.6-5.4-1.8-7.2-1.2-1.8-3-2.7-5.2-2.7-2.3 0-4 .9-5.3 2.8-1.3 1.8-1.9 4.3-1.9 7.4 0 3.1.6 5.5 1.8 7.3 1.1 1.8 2.8 2.7 5.1 2.7zM946.4 507.5c-4 0-7.5-.9-10.5-2.6-3-1.7-5.4-4.2-7.1-7.4-1.7-3.2-2.6-7-2.6-11.4 0-4.5 1-8.4 2.9-11.7s4.5-5.8 7.7-7.5c3.1-1.7 6.5-2.6 10.1-2.6 3.3 0 6.3.7 8.8 2.1 2.5 1.4 4.4 3.4 5.8 6 1.4 2.5 2.1 5.6 2.1 9 0 1.8-.2 3.4-.5 4.7h-26c.2 4.9 1.5 8.5 3.9 11 2.4 2.4 5.3 3.7 8.9 3.7 2.5 0 4.6-.5 6.3-1.5 1.7-1 3.3-2.3 4.7-3.9l2.5 2.2c-1.6 3.1-3.9 5.5-6.8 7.3-2.8 1.7-6.2 2.6-10.2 2.6zm0-39c-1.4 0-2.7.4-4 1.3-1.3.9-2.5 2.3-3.4 4.3-.9 2-1.5 4.7-1.7 8.1h11.6c2 0 3.4-.4 4.1-1.3s1-2 1-3.6c0-2.6-.7-4.7-2.2-6.4-1.5-1.6-3.3-2.4-5.4-2.4zM984.1 507.5c-2.6 0-5-.3-7.2-.9-2.2-.6-4.3-1.5-6.5-2.7l-.1-9.9h5.7l1.5 7.9c2 .8 4.2 1.3 6.6 1.3 2.9 0 5-.5 6.5-1.5 1.4-1 2.1-2.4 2.1-4.2 0-1.6-.6-2.9-1.7-3.9s-3.1-1.9-5.8-2.8l-4.2-1.4c-3.2-1-5.7-2.5-7.5-4.5-1.8-2-2.8-4.5-2.8-7.5 0-2.4.6-4.5 1.9-6.5 1.2-2 3.1-3.5 5.5-4.7 2.4-1.2 5.3-1.7 8.8-1.7 2.4 0 4.7.3 6.7.9 2 .6 4 1.5 6 2.6l-.4 8.9h-5.6l-1.5-7.1c-1.6-.7-3.3-1-5.3-1-2.3 0-4 .5-5.3 1.4-1.2 1-1.9 2.3-1.9 3.9 0 1.5.5 2.8 1.6 3.7 1 .9 3 1.9 5.9 2.8l3.4 1c4.1 1.4 7.1 3.2 8.8 5.3 1.8 2.1 2.6 4.6 2.6 7.6 0 3.8-1.5 6.9-4.6 9.4-3 2.3-7.4 3.6-13.2 3.6z"/></g><g class="st3"><path class="st4" d="M260 559.1v-3.6h15.6v3.6l-4.7.8-12.7 36.6h-4.8L243 567.7l-10.5 28.8h-4.7l-13.5-36.8-4.4-.7v-3.6h20.8v3.6l-5.7 1 7.8 24 8.5-24-5.7-.8v-3.6h19.7v3.6l-5.5.9 8.4 23.6 7.4-23.6-5.6-1zM297.4 597.5c-4 0-7.5-.9-10.5-2.6-3-1.7-5.4-4.2-7.1-7.4-1.7-3.2-2.5-7-2.5-11.4 0-4.5 1-8.4 2.9-11.7s4.5-5.8 7.6-7.5c3.1-1.7 6.5-2.6 10.1-2.6 3.3 0 6.3.7 8.8 2.1 2.5 1.4 4.4 3.4 5.8 6 1.4 2.5 2.1 5.6 2.1 9 0 1.8-.2 3.4-.5 4.7h-26c.2 4.9 1.5 8.5 3.9 11 2.4 2.4 5.3 3.7 8.9 3.7 2.5 0 4.6-.5 6.3-1.5 1.7-1 3.3-2.3 4.7-3.9l2.5 2.2c-1.6 3.1-3.9 5.5-6.8 7.3-2.8 1.7-6.2 2.6-10.2 2.6zm0-39c-1.4 0-2.7.4-4 1.3-1.3.9-2.5 2.3-3.4 4.3-.9 2-1.5 4.7-1.7 8.1h11.6c2 0 3.4-.4 4.1-1.3s1-2 1-3.6c0-2.6-.7-4.7-2.2-6.4-1.5-1.6-3.3-2.4-5.4-2.4zM339.8 596.3v-3.5l5.7-1.1c.1-2.2.1-4.4.1-6.6V560.8h-6.3v-4.4l6.5-.8c.5-4.2 1.1-7.6 2.1-10.2.9-2.6 2.4-4.9 4.4-6.8 1.9-1.9 4-3.3 6.3-4.1 2.3-.8 4.5-1.2 6.7-1.2s4.2.4 5.9 1.2c1.7.8 2.8 2.2 3.3 4.2-.1 1.3-.6 2.4-1.6 3.3-1 .9-2.3 1.4-4 1.4-2.4 0-4.7-1.4-6.9-4.2l-1.5-1.5c-.2.1-.4.3-.6.5-1.5 1.5-2.6 3.7-3.3 6.5-.7 2.8-1 6.5-.8 11.2h10.5v5.2H356v24.2c0 2.2.1 4.4.1 6.6l7.1 1.3v3.5h-23.4zM402.7 597.3c-2.3 0-4.1-.6-5.5-1.7-1.4-1.1-2.4-2.7-2.9-4.7-2.1 2.2-4 3.8-5.7 4.9-1.7 1.1-3.9 1.7-6.6 1.7-3.2 0-5.9-.9-8-2.8-2.2-1.8-3.3-4.5-3.3-7.9 0-1.8.4-3.5 1.3-5.1s2.4-3 4.5-4.4c2.2-1.4 5.3-2.7 9.4-4 1.1-.4 2.4-.8 3.8-1.2 1.4-.4 2.9-.8 4.3-1.2v-2.4c0-4-.6-6.6-1.7-8-1.1-1.4-3-2.1-5.8-2.1-.5 0-1.1 0-1.7.1-.6.1-1.2.1-1.8.3l-1 4.7c-.2 2-.8 3.5-1.8 4.5s-2.2 1.4-3.6 1.4c-2.7 0-4.3-1.3-4.8-3.8.5-3.4 2.3-6.1 5.5-8.2s7.3-3.1 12.5-3.1c4.9 0 8.5 1.2 10.8 3.5 2.3 2.4 3.4 6.3 3.4 11.9v18.5c0 2.5.8 3.8 2.5 3.8 1.1 0 2.1-.6 3-1.9l2 1.7c-1 1.9-2.2 3.3-3.6 4.1-1.4 1-3.1 1.4-5.2 1.4zM380.6 585c0 2.2.6 3.8 1.7 4.8 1.2 1 2.6 1.5 4.3 1.5 1 0 1.9-.2 2.9-.7 1-.5 2.5-1.4 4.5-2.8v-13.4c-1.2.4-2.3.8-3.4 1.1-1 .3-1.9.7-2.7.9-2.8 1.1-4.8 2.4-5.8 3.9-.9 1.5-1.5 3-1.5 4.7zM434.8 597.5c-3.9 0-7.3-.8-10.4-2.5s-5.5-4.1-7.2-7.3c-1.7-3.2-2.6-7.1-2.6-11.6 0-4.6 1-8.5 2.9-11.7 2-3.2 4.5-5.7 7.8-7.4 3.2-1.7 6.7-2.5 10.5-2.5 2.8 0 5.3.5 7.5 1.6 2.2 1 4.1 2.5 5.4 4.2 1.4 1.8 2.2 3.7 2.5 6-.7 2.5-2.3 3.7-4.8 3.7-3.2 0-5-2-5.5-6l-1.1-5.1-1.5-.3c-.5-.1-1-.1-1.5-.1-2 0-3.9.6-5.7 1.7-1.7 1.2-3.1 3-4.2 5.4-1.1 2.4-1.6 5.5-1.6 9.3 0 5.2 1.2 9.1 3.5 11.8 2.4 2.7 5.4 4.1 9.2 4.1 2.3 0 4.3-.5 6.1-1.5 1.8-1 3.3-2.4 4.6-4.2l2.5 1.9c-1.4 3.5-3.5 6.1-6.3 7.9-2.7 1.7-6.1 2.6-10.1 2.6zM477 597.5c-4 0-7.5-.9-10.5-2.6-3-1.7-5.4-4.2-7.1-7.4-1.7-3.2-2.5-7-2.5-11.4 0-4.5 1-8.4 2.9-11.7s4.5-5.8 7.6-7.5c3.1-1.7 6.5-2.6 10.1-2.6 3.3 0 6.3.7 8.8 2.1 2.5 1.4 4.4 3.4 5.8 6 1.4 2.5 2.1 5.6 2.1 9 0 1.8-.2 3.4-.5 4.7h-26c.2 4.9 1.5 8.5 3.9 11 2.4 2.4 5.3 3.7 8.9 3.7 2.5 0 4.6-.5 6.3-1.5 1.7-1 3.3-2.3 4.7-3.9l2.5 2.2c-1.6 3.1-3.9 5.5-6.8 7.3-2.8 1.7-6.2 2.6-10.2 2.6zm0-39c-1.4 0-2.7.4-4 1.3-1.3.9-2.5 2.3-3.4 4.3-.9 2-1.5 4.7-1.7 8.1h11.6c2 0 3.4-.4 4.1-1.3s1-2 1-3.6c0-2.6-.7-4.7-2.2-6.4-1.5-1.6-3.3-2.4-5.4-2.4zM551.9 597.3c-2.3 0-4.1-.6-5.5-1.7-1.4-1.1-2.4-2.7-2.9-4.7-2.1 2.2-4 3.8-5.7 4.9-1.7 1.1-3.9 1.7-6.6 1.7-3.2 0-5.9-.9-8-2.8-2.2-1.8-3.3-4.5-3.3-7.9 0-1.8.4-3.5 1.3-5.1s2.4-3 4.5-4.4c2.2-1.4 5.3-2.7 9.4-4 1.1-.4 2.4-.8 3.8-1.2 1.4-.4 2.9-.8 4.3-1.2v-2.4c0-4-.6-6.6-1.7-8-1.1-1.4-3-2.1-5.8-2.1-.5 0-1.1 0-1.7.1-.6.1-1.2.1-1.8.3l-1 4.7c-.2 2-.8 3.5-1.8 4.5s-2.2 1.4-3.6 1.4c-2.7 0-4.3-1.3-4.8-3.8.5-3.4 2.3-6.1 5.5-8.2s7.3-3.1 12.5-3.1c4.9 0 8.5 1.2 10.8 3.5 2.3 2.4 3.4 6.3 3.4 11.9v18.5c0 2.5.8 3.8 2.5 3.8 1.1 0 2.1-.6 3-1.9l2 1.7c-1 1.9-2.2 3.3-3.6 4.1-1.4 1-3.1 1.4-5.2 1.4zM529.8 585c0 2.2.6 3.8 1.7 4.8 1.2 1 2.6 1.5 4.3 1.5 1 0 1.9-.2 2.9-.7 1-.5 2.5-1.4 4.5-2.8v-13.4c-1.2.4-2.3.8-3.4 1.1-1 .3-1.9.7-2.7.9-2.8 1.1-4.8 2.4-5.8 3.9s-1.5 3-1.5 4.7zM578 597.5c-2.6 0-5-.3-7.2-.9-2.2-.6-4.3-1.5-6.5-2.7l-.1-9.9h5.7l1.5 7.9c2 .8 4.2 1.3 6.6 1.3 2.9 0 5-.5 6.5-1.5 1.4-1 2.1-2.4 2.1-4.2 0-1.6-.6-2.9-1.7-3.9s-3.1-1.9-5.8-2.8l-4.2-1.4c-3.2-1-5.7-2.5-7.5-4.5-1.8-2-2.8-4.5-2.8-7.5 0-2.4.6-4.5 1.9-6.5 1.2-2 3.1-3.5 5.5-4.7 2.4-1.2 5.3-1.7 8.8-1.7 2.4 0 4.7.3 6.7.9 2 .6 4 1.5 6 2.6l-.4 8.9h-5.6l-1.5-7.1c-1.6-.7-3.3-1-5.3-1-2.3 0-4 .5-5.3 1.4-1.2 1-1.9 2.3-1.9 3.9 0 1.5.5 2.8 1.6 3.7 1 .9 3 1.9 5.9 2.8l3.4 1c4.1 1.4 7.1 3.2 8.8 5.3 1.8 2.1 2.6 4.6 2.6 7.6 0 3.8-1.5 6.9-4.6 9.4-3.1 2.3-7.5 3.6-13.2 3.6z"/></g><g class="st3"><path class="st4" d="M233.9 687.5c-3.9 0-7.3-.9-10.4-2.6-3.1-1.7-5.5-4.2-7.4-7.4-1.8-3.2-2.7-7.1-2.7-11.6s.9-8.4 2.8-11.6c1.9-3.2 4.4-5.7 7.5-7.4 3.1-1.7 6.5-2.5 10.1-2.5 3.6 0 7 .9 10.1 2.5 3.1 1.7 5.6 4.2 7.6 7.4 1.9 3.2 2.9 7.1 2.9 11.7 0 4.5-.9 8.4-2.8 11.6-1.8 3.2-4.3 5.7-7.4 7.4-2.9 1.6-6.4 2.5-10.3 2.5zm0-4.2c3.1 0 5.4-1.4 7-4.2 1.6-2.8 2.4-7.2 2.4-13 0-11.7-3.1-17.5-9.4-17.5-6.2 0-9.4 5.8-9.4 17.5 0 5.8.8 10.2 2.4 13 1.6 2.8 4 4.2 7 4.2zM260.6 686.3v-3.5l5.4-1c.1-2.2.1-4.5.1-6.9V664v-5.6c0-1.4-.1-2.9-.2-4.6l-6-.8v-3.2l14.2-5.4 1.4.9.9 10c1.3-3.5 3.1-6.2 5.3-8.1 2.2-1.9 4.4-2.8 6.6-2.8 1.5 0 2.9.4 4.2 1.2 1.3.8 2.1 1.9 2.5 3.4-.1 2.1-.6 3.7-1.5 4.9-1 1.2-2.3 1.7-4 1.7-2 0-4-1-5.8-3.1l-.8-.8c-3 2.5-5.2 6-6.5 10.5v12.4c0 2.4 0 4.7.1 6.8l7 1.4v3.5h-22.9zM314.8 672c-2.5 0-4.9-.3-7.1-.9-1.1 1.5-1.6 3-1.6 4.7 0 1.1.4 1.9 1.1 2.5.7.6 2 .9 3.9.9h10.6c5.6 0 9.5 1 11.9 3.1 2.4 2.1 3.6 4.9 3.6 8.5 0 2.7-.9 5.2-2.6 7.5-1.7 2.3-4.3 4.2-7.6 5.6-3.4 1.4-7.6 2.1-12.6 2.1-4.4 0-7.9-.5-10.5-1.4-2.6-.9-4.5-2.1-5.7-3.7-1.2-1.5-1.7-3.2-1.7-5.1 0-1.8.6-3.5 1.8-5 1.2-1.5 3.1-2.9 5.9-4.2-1.8-.6-3.1-1.5-3.9-2.7-.9-1.2-1.3-2.5-1.3-4 0-1.6.5-3.3 1.5-4.9 1-1.6 2.5-3.4 4.6-5.3-4.5-2.3-6.7-6.1-6.7-11.6 0-4.2 1.5-7.6 4.4-10.1 2.9-2.5 7-3.8 12.2-3.8 5.2 0 9.2 1.2 12.1 3.6l9.6-3.7 1.3.9v5.9h-8.2c1.2 1.9 1.8 4.3 1.8 7.1 0 4.1-1.4 7.5-4.3 10-3.3 2.7-7.3 4-12.5 4zm-10.9 22.2c0 2.6 1 4.5 2.9 5.7 1.9 1.2 4.7 1.8 8.2 1.8 4.5 0 7.9-.7 10.2-2.2 2.3-1.5 3.4-3.3 3.4-5.4 0-1.6-.6-2.9-1.7-4.1-1.1-1.1-3-1.7-5.7-1.7h-9.4c-2.1 0-4-.2-5.6-.5-1.6 2.1-2.3 4.2-2.3 6.4zm10.7-25.9c2.4 0 4.2-.9 5.4-2.8 1.2-1.9 1.9-4.4 1.9-7.5 0-3-.6-5.4-1.8-7.2-1.2-1.8-3-2.7-5.2-2.7-2.3 0-4 .9-5.3 2.8-1.3 1.8-1.9 4.3-1.9 7.4 0 3.1.6 5.5 1.8 7.3 1.1 1.8 2.8 2.7 5.1 2.7zM372.9 687.3c-2.3 0-4.1-.6-5.5-1.7-1.4-1.1-2.4-2.7-2.9-4.7-2.1 2.2-4 3.8-5.7 4.9-1.7 1.1-3.9 1.7-6.6 1.7-3.2 0-5.9-.9-8-2.8-2.2-1.8-3.3-4.5-3.3-7.9 0-1.8.4-3.5 1.3-5.1s2.4-3 4.5-4.4c2.2-1.4 5.3-2.7 9.4-4 1.1-.4 2.4-.8 3.8-1.2 1.4-.4 2.9-.8 4.3-1.2v-2.4c0-4-.6-6.6-1.7-8-1.1-1.4-3-2.1-5.8-2.1-.5 0-1.1 0-1.7.1-.6.1-1.2.1-1.8.3l-1 4.7c-.2 2-.8 3.5-1.8 4.5s-2.2 1.4-3.6 1.4c-2.7 0-4.3-1.3-4.8-3.8.5-3.4 2.3-6.1 5.5-8.2s7.3-3.1 12.5-3.1c4.9 0 8.5 1.2 10.8 3.5 2.3 2.4 3.4 6.3 3.4 11.9v18.5c0 2.5.8 3.8 2.5 3.8 1.1 0 2.1-.6 3-1.9l2 1.7c-1 1.9-2.2 3.3-3.6 4.1-1.4 1-3.2 1.4-5.2 1.4zM350.8 675c0 2.2.6 3.8 1.7 4.8 1.2 1 2.6 1.5 4.3 1.5 1 0 1.9-.2 2.9-.7 1-.5 2.5-1.4 4.5-2.8v-13.4c-1.2.4-2.3.8-3.4 1.1-1 .3-1.9.7-2.7.9-2.8 1.1-4.8 2.4-5.8 3.9s-1.5 3-1.5 4.7zM384.5 686.3v-3.5l5.5-1.1c.1-2.1.1-4.4.1-6.8V664v-5.6c0-1.4-.1-2.9-.2-4.6l-6-.8v-3.2l14.2-5.4 1.4.9.6 6.5c4.4-4.9 9.2-7.4 14.5-7.4 3.7 0 6.5 1.2 8.5 3.7 2 2.4 3 6.3 3 11.6V675c0 2.4 0 4.7.1 6.8l5.2 1v3.5h-21v-3.5l5.4-1.1c.1-2.1.1-4.3.1-6.8v-14.6c0-3.3-.5-5.7-1.4-6.9-.9-1.3-2.4-1.9-4.6-1.9-3 0-6.2 1.4-9.5 4.2V675c0 2.5 0 4.7.1 6.9l5 1v3.5h-21zM436.2 686.3v-3.5l5.6-1.1c.1-2.1.1-4.4.1-6.8v-10.4-5.8c0-1.6-.1-3.2-.2-4.9l-6-.8v-3.2l15.3-5.4 1.4.9-.3 12v17.6c0 2.4 0 4.8.1 6.9l5.2 1v3.5h-21.2zm10.7-49.8c-1.8 0-3.3-.6-4.6-1.7-1.2-1.1-1.9-2.6-1.9-4.3 0-1.8.6-3.3 1.9-4.4 1.2-1.1 2.8-1.7 4.6-1.7 1.8 0 3.3.6 4.5 1.7 1.2 1.1 1.8 2.6 1.8 4.4 0 1.8-.6 3.2-1.8 4.3-1.1 1.1-2.6 1.7-4.5 1.7zM461.6 686.3v-3.1l22.9-33.8h-14.4l-2.3 9.4-5.6-.3.7-12.8H496v3.1l-22.5 33.8H489l2.5-10.3h5.6l-.9 14h-34.6zM534 687.3c-2.3 0-4.1-.6-5.5-1.7-1.4-1.1-2.4-2.7-2.9-4.7-2.1 2.2-4 3.8-5.7 4.9-1.7 1.1-3.9 1.7-6.6 1.7-3.2 0-5.9-.9-8-2.8-2.2-1.8-3.3-4.5-3.3-7.9 0-1.8.4-3.5 1.3-5.1s2.4-3 4.5-4.4c2.2-1.4 5.3-2.7 9.4-4 1.1-.4 2.4-.8 3.8-1.2 1.4-.4 2.9-.8 4.3-1.2v-2.4c0-4-.6-6.6-1.7-8-1.1-1.4-3-2.1-5.8-2.1-.5 0-1.1 0-1.7.1-.6.1-1.2.1-1.8.3l-1 4.7c-.2 2-.8 3.5-1.8 4.5s-2.2 1.4-3.6 1.4c-2.7 0-4.3-1.3-4.8-3.8.5-3.4 2.3-6.1 5.5-8.2s7.3-3.1 12.5-3.1c4.9 0 8.5 1.2 10.8 3.5 2.3 2.4 3.4 6.3 3.4 11.9v18.5c0 2.5.8 3.8 2.5 3.8 1.1 0 2.1-.6 3-1.9l2 1.7c-1 1.9-2.2 3.3-3.6 4.1-1.5 1-3.2 1.4-5.2 1.4zM511.9 675c0 2.2.6 3.8 1.7 4.8 1.2 1 2.6 1.5 4.3 1.5 1 0 1.9-.2 2.9-.7 1-.5 2.5-1.4 4.5-2.8v-13.4c-1.2.4-2.3.8-3.4 1.1-1 .3-1.9.7-2.7.9-2.8 1.1-4.8 2.4-5.8 3.9s-1.5 3-1.5 4.7zM560.8 687.5c-3.4 0-6.1-.9-8-2.6-1.9-1.7-2.9-4.4-2.9-8.2V673v-22.3h-6.3v-4.4l6.9-.8 3.2-11.6h6.9l-.3 11.7h10.2v5.2h-10.3v25.1c0 2.1.4 3.6 1.2 4.6.8 1 1.9 1.4 3.3 1.4 1.5 0 3.3-.7 5.2-2.1l2 2.1c-1.1 1.8-2.5 3.1-4.4 4.1-1.7 1-4 1.5-6.7 1.5zM574.6 686.3v-3.5l5.6-1.1c.1-2.1.1-4.4.1-6.8v-10.4-5.8c0-1.6-.1-3.2-.2-4.9l-6-.8v-3.2l15.3-5.4 1.4.9-.3 12v17.6c0 2.4 0 4.8.1 6.9l5.2 1v3.5h-21.2zm10.7-49.8c-1.8 0-3.3-.6-4.6-1.7-1.2-1.1-1.9-2.6-1.9-4.3 0-1.8.6-3.3 1.9-4.4 1.2-1.1 2.8-1.7 4.6-1.7 1.8 0 3.3.6 4.5 1.7 1.2 1.1 1.8 2.6 1.8 4.4 0 1.8-.6 3.2-1.8 4.3-1.2 1.1-2.7 1.7-4.5 1.7zM621.6 687.5c-3.9 0-7.3-.9-10.4-2.6-3.1-1.7-5.5-4.2-7.4-7.4-1.8-3.2-2.7-7.1-2.7-11.6s.9-8.4 2.8-11.6c1.9-3.2 4.4-5.7 7.5-7.4 3.1-1.7 6.5-2.5 10.1-2.5 3.6 0 7 .9 10.1 2.5 3.1 1.7 5.6 4.2 7.6 7.4 1.9 3.2 2.9 7.1 2.9 11.7 0 4.5-.9 8.4-2.8 11.6-1.8 3.2-4.3 5.7-7.4 7.4-3 1.6-6.4 2.5-10.3 2.5zm0-4.2c3.1 0 5.4-1.4 7-4.2 1.6-2.8 2.4-7.2 2.4-13 0-11.7-3.1-17.5-9.4-17.5-6.2 0-9.3 5.8-9.3 17.5 0 5.8.8 10.2 2.4 13 1.5 2.8 3.8 4.2 6.9 4.2zM648.2 686.3v-3.5l5.5-1.1c.1-2.1.1-4.4.1-6.8V664v-5.6c0-1.4-.1-2.9-.2-4.6l-6-.8v-3.2l14.2-5.4 1.4.9.6 6.5c4.4-4.9 9.2-7.4 14.5-7.4 3.7 0 6.5 1.2 8.5 3.7 2 2.4 3 6.3 3 11.6V675c0 2.4 0 4.7.1 6.8l5.2 1v3.5h-21v-3.5l5.4-1.1c.1-2.1.1-4.3.1-6.8v-14.6c0-3.3-.5-5.7-1.4-6.9-.9-1.3-2.4-1.9-4.6-1.9-3 0-6.2 1.4-9.5 4.2V675c0 2.5 0 4.7.1 6.9l5 1v3.5h-21zM714.4 687.5c-2.6 0-5-.3-7.2-.9-2.2-.6-4.3-1.5-6.5-2.7l-.1-9.9h5.7l1.5 7.9c2 .8 4.2 1.3 6.6 1.3 2.9 0 5-.5 6.5-1.5 1.4-1 2.1-2.4 2.1-4.2 0-1.6-.6-2.9-1.7-3.9s-3.1-1.9-5.8-2.8l-4.2-1.4c-3.2-1-5.7-2.5-7.5-4.5-1.8-2-2.8-4.5-2.8-7.5 0-2.4.6-4.5 1.9-6.5 1.2-2 3.1-3.5 5.5-4.7 2.4-1.2 5.3-1.7 8.8-1.7 2.4 0 4.7.3 6.7.9 2 .6 4 1.5 6 2.6l-.4 8.9h-5.6l-1.5-7.1c-1.6-.7-3.3-1-5.3-1-2.3 0-4 .5-5.3 1.4-1.2 1-1.9 2.3-1.9 3.9 0 1.5.5 2.8 1.6 3.7 1 .9 3 1.9 5.9 2.8l3.4 1c4.1 1.4 7.1 3.2 8.8 5.3 1.8 2.1 2.6 4.6 2.6 7.6 0 3.8-1.5 6.9-4.6 9.4-3 2.3-7.4 3.6-13.2 3.6zM789.3 687.3c-2.3 0-4.1-.6-5.5-1.7-1.4-1.1-2.4-2.7-2.9-4.7-2.1 2.2-4 3.8-5.7 4.9-1.7 1.1-3.9 1.7-6.6 1.7-3.2 0-5.9-.9-8-2.8-2.2-1.8-3.3-4.5-3.3-7.9 0-1.8.4-3.5 1.3-5.1.9-1.6 2.4-3 4.5-4.4 2.2-1.4 5.3-2.7 9.4-4 1.1-.4 2.4-.8 3.8-1.2 1.4-.4 2.9-.8 4.3-1.2v-2.4c0-4-.6-6.6-1.7-8-1.1-1.4-3-2.1-5.8-2.1-.5 0-1.1 0-1.7.1-.6.1-1.2.1-1.8.3l-1 4.7c-.2 2-.8 3.5-1.8 4.5s-2.2 1.4-3.6 1.4c-2.7 0-4.3-1.3-4.8-3.8.5-3.4 2.3-6.1 5.5-8.2 3.1-2 7.3-3.1 12.5-3.1 4.9 0 8.5 1.2 10.8 3.5 2.3 2.4 3.4 6.3 3.4 11.9v18.5c0 2.5.8 3.8 2.5 3.8 1.1 0 2.1-.6 3-1.9l2 1.7c-1 1.9-2.2 3.3-3.6 4.1-1.4 1-3.1 1.4-5.2 1.4zM767.2 675c0 2.2.6 3.8 1.7 4.8 1.2 1 2.6 1.5 4.3 1.5 1 0 1.9-.2 2.9-.7 1-.5 2.5-1.4 4.5-2.8v-13.4c-1.2.4-2.3.8-3.4 1.1-1 .3-1.9.7-2.7.9-2.8 1.1-4.8 2.4-5.8 3.9s-1.5 3-1.5 4.7zM800.9 686.3v-3.5l5.5-1.1c.1-2.1.1-4.4.1-6.8V664v-5.6c0-1.4-.1-2.9-.2-4.6l-6-.8v-3.2l14.2-5.4 1.4.9.6 6.5c4.4-4.9 9.2-7.4 14.4-7.4 3.7 0 6.5 1.2 8.5 3.7 2 2.4 3 6.3 3 11.6V675c0 2.4 0 4.7.1 6.8l5.2 1v3.5h-21v-3.5l5.4-1.1c.1-2.1.1-4.3.1-6.8v-14.6c0-3.3-.5-5.7-1.4-6.9s-2.4-1.9-4.6-1.9c-3 0-6.2 1.4-9.5 4.2V675c0 2.5 0 4.7.1 6.9l5 1v3.5h-20.9zM882.8 687.2l-.7-5.4c-1.6 1.8-3.3 3.2-5.3 4.2-1.9 1-4.1 1.4-6.6 1.4-3.3 0-6.3-.9-8.9-2.6-2.6-1.7-4.6-4.1-6.1-7.3s-2.2-6.9-2.2-11.3c0-4.5.8-8.4 2.5-11.6 1.7-3.3 3.9-5.8 6.7-7.6 2.8-1.8 5.9-2.7 9.2-2.7 2.2 0 4.1.4 5.8 1.2 1.7.8 3.4 2.1 4.9 3.9V632l-6.6-.8v-3.3l15.6-3.8 1.3.8-.3 12V682l5.5.9v3.5l-14.8.8zm-18.9-21.1c0 5.2 1 9 2.9 11.5 2 2.5 4.4 3.8 7.4 3.8 1.5 0 2.8-.3 4-.9 1.2-.6 2.4-1.5 3.4-2.6v-24.4c-2.5-2.2-5-3.2-7.4-3.2-2.8 0-5.3 1.3-7.4 3.8-1.8 2.6-2.9 6.6-2.9 12z"/></g><g class="st3"><path class="st4" d="M233.4 777.5c-3.9 0-7.3-.8-10.4-2.5s-5.5-4.1-7.2-7.3c-1.7-3.2-2.6-7.1-2.6-11.6 0-4.6 1-8.5 2.9-11.7 2-3.2 4.5-5.7 7.8-7.4 3.2-1.7 6.7-2.5 10.5-2.5 2.8 0 5.3.5 7.5 1.6 2.2 1 4.1 2.5 5.4 4.2 1.4 1.8 2.2 3.7 2.5 6-.7 2.5-2.3 3.7-4.8 3.7-3.2 0-5-2-5.5-6l-1.1-5.1-1.5-.3c-.5-.1-1-.1-1.5-.1-2 0-3.9.6-5.7 1.7-1.7 1.2-3.1 3-4.2 5.4-1.1 2.4-1.6 5.5-1.6 9.3 0 5.2 1.2 9.1 3.5 11.8 2.4 2.7 5.4 4.1 9.2 4.1 2.3 0 4.3-.5 6.1-1.5 1.8-1 3.3-2.4 4.6-4.2l2.5 1.9c-1.4 3.5-3.5 6.1-6.3 7.9-2.6 1.7-6.1 2.6-10.1 2.6zM255.5 776.3v-3.5l5.6-1.1c.1-2.1.1-4.4.1-6.8v-10.4-5.8c0-1.6-.1-3.2-.2-4.9l-6-.8v-3.2l15.3-5.4 1.4.9-.3 12v17.6c0 2.4 0 4.8.1 6.9l5.2 1v3.5h-21.2zm10.7-49.8c-1.8 0-3.3-.6-4.6-1.7-1.2-1.1-1.9-2.6-1.9-4.3 0-1.8.6-3.3 1.9-4.4 1.2-1.1 2.8-1.7 4.6-1.7 1.8 0 3.3.6 4.5 1.7 1.2 1.1 1.8 2.6 1.8 4.4 0 1.8-.6 3.2-1.8 4.3-1.1 1.1-2.7 1.7-4.5 1.7zM305 739.1v-3.6h16.2v3.6l-4.8 1-13.9 36.5h-5L282 739.9l-4.4-.8v-3.6H300v3.6l-6.5 1 9.3 24.7 8.4-24.6-6.2-1.1zM324.5 776.3v-3.5l5.6-1.1c.1-2.1.1-4.4.1-6.8v-10.4-5.8c0-1.6-.1-3.2-.2-4.9l-6-.8v-3.2l15.3-5.4 1.4.9-.3 12v17.6c0 2.4 0 4.8.1 6.9l5.2 1v3.5h-21.2zm10.7-49.8c-1.8 0-3.3-.6-4.6-1.7-1.2-1.1-1.9-2.6-1.9-4.3 0-1.8.6-3.3 1.9-4.4 1.2-1.1 2.8-1.7 4.6-1.7 1.8 0 3.3.6 4.5 1.7 1.2 1.1 1.8 2.6 1.8 4.4 0 1.8-.6 3.2-1.8 4.3-1.1 1.1-2.6 1.7-4.5 1.7zM350.1 776.3v-3.5l5.8-1.1c.1-2.2.1-4.4.1-6.6V722l-6.2-.8v-3.3l15.5-3.8 1.3.8-.3 12v38.3c0 2.2.1 4.4.1 6.6l5.8 1.1v3.5h-22.1zM410.5 777.5c-2.6 0-5-.3-7.2-.9-2.2-.6-4.3-1.5-6.5-2.7l-.1-9.9h5.7l1.5 7.9c2 .8 4.2 1.3 6.6 1.3 2.9 0 5-.5 6.5-1.5 1.4-1 2.1-2.4 2.1-4.2 0-1.6-.6-2.9-1.7-3.9s-3.1-1.9-5.8-2.8l-4.2-1.4c-3.2-1-5.7-2.5-7.5-4.5-1.8-2-2.8-4.5-2.8-7.5 0-2.4.6-4.5 1.9-6.5 1.2-2 3.1-3.5 5.5-4.7 2.4-1.2 5.3-1.7 8.8-1.7 2.4 0 4.7.3 6.7.9 2 .6 4 1.5 6 2.6l-.4 8.9H420l-1.5-7.1c-1.6-.7-3.3-1-5.3-1-2.3 0-4 .5-5.3 1.4-1.2 1-1.9 2.3-1.9 3.9 0 1.5.5 2.8 1.6 3.7 1 .9 3 1.9 5.9 2.8l3.4 1c4.1 1.4 7.1 3.2 8.8 5.3 1.8 2.1 2.6 4.6 2.6 7.6 0 3.8-1.5 6.9-4.6 9.4-3.1 2.3-7.5 3.6-13.2 3.6zM454.7 777.5c-3.9 0-7.3-.9-10.4-2.6-3.1-1.7-5.5-4.2-7.4-7.4-1.8-3.2-2.7-7.1-2.7-11.6s.9-8.4 2.8-11.6c1.9-3.2 4.4-5.7 7.5-7.4 3.1-1.7 6.5-2.5 10.1-2.5 3.6 0 7 .9 10.1 2.5 3.1 1.7 5.6 4.2 7.6 7.4 1.9 3.2 2.9 7.1 2.9 11.7 0 4.5-.9 8.4-2.8 11.6-1.8 3.2-4.3 5.7-7.4 7.4-3 1.6-6.5 2.5-10.3 2.5zm0-4.2c3.1 0 5.4-1.4 7-4.2 1.6-2.8 2.4-7.2 2.4-13 0-11.7-3.1-17.5-9.4-17.5-6.2 0-9.4 5.8-9.4 17.5 0 5.8.8 10.2 2.4 13 1.6 2.8 3.9 4.2 7 4.2zM501.8 777.5c-3.9 0-7.3-.8-10.4-2.5s-5.5-4.1-7.2-7.3c-1.7-3.2-2.6-7.1-2.6-11.6 0-4.6 1-8.5 2.9-11.7 2-3.2 4.5-5.7 7.8-7.4 3.2-1.7 6.7-2.5 10.5-2.5 2.8 0 5.3.5 7.5 1.6 2.2 1 4.1 2.5 5.4 4.2 1.4 1.8 2.2 3.7 2.5 6-.7 2.5-2.3 3.7-4.8 3.7-3.2 0-5-2-5.5-6l-1.1-5.1-1.5-.3c-.5-.1-1-.1-1.5-.1-2 0-3.9.6-5.7 1.7-1.7 1.2-3.1 3-4.2 5.4-1.1 2.4-1.6 5.5-1.6 9.3 0 5.2 1.2 9.1 3.5 11.8 2.4 2.7 5.4 4.1 9.2 4.1 2.3 0 4.3-.5 6.1-1.5 1.8-1 3.3-2.4 4.6-4.2l2.5 1.9c-1.4 3.5-3.5 6.1-6.3 7.9-2.6 1.7-6 2.6-10.1 2.6zM523.9 776.3v-3.5l5.6-1.1c.1-2.1.1-4.4.1-6.8v-10.4-5.8c0-1.6-.1-3.2-.2-4.9l-6-.8v-3.2l15.3-5.4 1.4.9-.3 12v17.6c0 2.4 0 4.8.1 6.9l5.2 1v3.5h-21.2zm10.8-49.8c-1.8 0-3.3-.6-4.6-1.7-1.2-1.1-1.9-2.6-1.9-4.3 0-1.8.6-3.3 1.9-4.4 1.2-1.1 2.8-1.7 4.6-1.7 1.8 0 3.3.6 4.5 1.7 1.2 1.1 1.8 2.6 1.8 4.4 0 1.8-.6 3.2-1.8 4.3-1.2 1.1-2.7 1.7-4.5 1.7zM570.5 777.5c-4 0-7.5-.9-10.5-2.6-3-1.7-5.4-4.2-7.1-7.4-1.7-3.2-2.5-7-2.5-11.4 0-4.5 1-8.4 2.9-11.7s4.5-5.8 7.6-7.5c3.1-1.7 6.5-2.6 10.1-2.6 3.3 0 6.3.7 8.8 2.1 2.5 1.4 4.4 3.4 5.8 6 1.4 2.5 2.1 5.6 2.1 9 0 1.8-.2 3.4-.5 4.7h-26c.2 4.9 1.5 8.5 3.9 11 2.4 2.4 5.3 3.7 8.9 3.7 2.5 0 4.6-.5 6.3-1.5 1.7-1 3.3-2.3 4.7-3.9l2.5 2.2c-1.6 3.1-3.9 5.5-6.8 7.3-2.8 1.7-6.2 2.6-10.2 2.6zm0-39c-1.4 0-2.7.4-4 1.3-1.3.9-2.5 2.3-3.4 4.3-.9 2-1.5 4.7-1.7 8.1H573c2 0 3.4-.4 4.1-1.3s1-2 1-3.6c0-2.6-.7-4.7-2.2-6.4-1.5-1.6-3.3-2.4-5.4-2.4zM609 777.5c-3.4 0-6.1-.9-8-2.6-1.9-1.7-2.9-4.4-2.9-8.2V763v-22.3h-6.3v-4.4l6.9-.8 3.2-11.6h6.9l-.3 11.7h10.2v5.2h-10.3v25.1c0 2.1.4 3.6 1.2 4.6.8 1 1.9 1.4 3.3 1.4 1.5 0 3.3-.7 5.2-2.1l2 2.1c-1.1 1.8-2.5 3.1-4.4 4.1-1.7 1-4 1.5-6.7 1.5z"/><path class="st4" d="M648 739v-3.4h16.3v3.4l-4.8.9-14.5 37.9c-2.4 6.5-4.9 11.3-7.4 14.5-2.5 3.1-5.6 4.7-9.3 4.7-2.2 0-4.1-.6-5.7-1.7-1.6-1.1-2.5-2.5-2.6-4.2.3-1.5 1.1-2.7 2.3-3.4 1.2-.8 2.6-1.1 4-1.1 1.1 0 2.3.2 3.4.7 1.1.5 2.2 1.4 3.4 2.8l.5.7c1.5-1.5 2.9-3.2 4-5.1 1.1-1.9 2.1-3.9 2.8-6.1l.2-.5-16.2-39.4-4.3-.7v-3.4h22.3v3.4l-6.7.9 9.5 26 9.3-25.9-6.5-1zM685.8 776.3v-3.5l5.8-1.1c.1-2.2.1-4.4.1-6.6V722l-6.2-.8v-3.3L701 714l1.3.8-.3 12v38.3c0 2.2.1 4.4.1 6.6l5.8 1.1v3.5h-22.1zM733.1 777.5c-4 0-7.5-.9-10.5-2.6-3-1.7-5.4-4.2-7.1-7.4-1.7-3.2-2.5-7-2.5-11.4 0-4.5 1-8.4 2.9-11.7s4.5-5.8 7.7-7.5c3.1-1.7 6.5-2.6 10.1-2.6 3.3 0 6.3.7 8.8 2.1 2.5 1.4 4.4 3.4 5.8 6s2.1 5.6 2.1 9c0 1.8-.2 3.4-.5 4.7h-26c.2 4.9 1.5 8.5 3.9 11 2.4 2.4 5.3 3.7 8.9 3.7 2.5 0 4.6-.5 6.3-1.5 1.7-1 3.3-2.3 4.7-3.9l2.5 2.2c-1.6 3.1-3.9 5.5-6.8 7.3-2.9 1.7-6.3 2.6-10.3 2.6zm0-39c-1.4 0-2.7.4-4 1.3-1.3.9-2.5 2.3-3.4 4.3-.9 2-1.5 4.7-1.7 8.1h11.6c2 0 3.4-.4 4.1-1.3.7-.8 1-2 1-3.6 0-2.6-.7-4.7-2.2-6.4-1.5-1.6-3.3-2.4-5.4-2.4zM788.5 777.3c-2.3 0-4.1-.6-5.5-1.7-1.4-1.1-2.4-2.7-2.9-4.7-2.1 2.2-4 3.8-5.7 4.9-1.7 1.1-3.9 1.7-6.6 1.7-3.2 0-5.9-.9-8-2.8-2.2-1.8-3.3-4.5-3.3-7.9 0-1.8.4-3.5 1.3-5.1.9-1.6 2.4-3 4.5-4.4 2.2-1.4 5.3-2.7 9.4-4 1.1-.4 2.4-.8 3.8-1.2 1.4-.4 2.9-.8 4.3-1.2v-2.4c0-4-.6-6.6-1.7-8-1.1-1.4-3-2.1-5.8-2.1-.5 0-1.1 0-1.7.1-.6.1-1.2.1-1.8.3l-1 4.7c-.2 2-.8 3.5-1.8 4.5s-2.2 1.4-3.6 1.4c-2.7 0-4.3-1.3-4.8-3.8.5-3.4 2.3-6.1 5.5-8.2 3.1-2 7.3-3.1 12.5-3.1 4.9 0 8.5 1.2 10.8 3.5 2.3 2.4 3.4 6.3 3.4 11.9v18.5c0 2.5.8 3.8 2.5 3.8 1.1 0 2.1-.6 3-1.9l2 1.7c-1 1.9-2.2 3.3-3.6 4.1-1.5 1-3.2 1.4-5.2 1.4zM766.4 765c0 2.2.6 3.8 1.7 4.8 1.2 1 2.6 1.5 4.3 1.5 1 0 1.9-.2 2.9-.7 1-.5 2.5-1.4 4.5-2.8v-13.4c-1.2.4-2.3.8-3.4 1.1-1 .3-1.9.7-2.7.9-2.8 1.1-4.8 2.4-5.8 3.9s-1.5 3-1.5 4.7zM830.3 777.2l-.7-5.4c-1.6 1.8-3.3 3.2-5.3 4.2-1.9 1-4.1 1.4-6.6 1.4-3.3 0-6.3-.9-8.9-2.6-2.6-1.7-4.6-4.1-6.1-7.3s-2.2-6.9-2.2-11.3c0-4.5.8-8.4 2.5-11.6 1.7-3.3 3.9-5.8 6.7-7.6 2.8-1.8 5.9-2.7 9.2-2.7 2.2 0 4.1.4 5.8 1.2 1.7.8 3.4 2.1 4.9 3.9V722l-6.6-.8v-3.3l15.6-3.8 1.3.8-.3 12V772l5.5.9v3.5l-14.8.8zm-18.9-21.1c0 5.2 1 9 2.9 11.5 2 2.5 4.4 3.8 7.4 3.8 1.5 0 2.8-.3 4-.9 1.2-.6 2.4-1.5 3.4-2.6v-24.4c-2.5-2.2-5-3.2-7.4-3.2-2.8 0-5.3 1.3-7.4 3.8-1.9 2.6-2.9 6.6-2.9 12zM869.9 777.5c-4 0-7.5-.9-10.5-2.6-3-1.7-5.4-4.2-7.1-7.4-1.7-3.2-2.6-7-2.6-11.4 0-4.5 1-8.4 2.9-11.7s4.5-5.8 7.7-7.5c3.1-1.7 6.5-2.6 10.1-2.6 3.3 0 6.3.7 8.8 2.1 2.5 1.4 4.4 3.4 5.8 6 1.4 2.5 2.1 5.6 2.1 9 0 1.8-.2 3.4-.5 4.7h-26c.2 4.9 1.5 8.5 3.9 11 2.4 2.4 5.3 3.7 8.9 3.7 2.5 0 4.6-.5 6.3-1.5 1.7-1 3.3-2.3 4.7-3.9l2.5 2.2c-1.6 3.1-3.9 5.5-6.8 7.3-2.8 1.7-6.2 2.6-10.2 2.6zm0-39c-1.4 0-2.7.4-4 1.3-1.3.9-2.5 2.3-3.4 4.3-.9 2-1.5 4.7-1.7 8.1h11.6c2 0 3.4-.4 4.1-1.3s1-2 1-3.6c0-2.6-.7-4.7-2.2-6.4-1.5-1.6-3.3-2.4-5.4-2.4zM893.4 776.3v-3.5l5.4-1c.1-2.2.1-4.5.1-6.9V754v-5.6c0-1.4-.1-2.9-.2-4.6l-6-.8v-3.2l14.2-5.4 1.4.9.9 10c1.3-3.5 3.1-6.2 5.3-8.1 2.2-1.9 4.4-2.8 6.6-2.8 1.5 0 2.9.4 4.2 1.2 1.3.8 2.1 1.9 2.5 3.4-.1 2.1-.6 3.7-1.5 4.9-1 1.2-2.3 1.7-4 1.7-2 0-4-1-5.8-3.1l-.8-.8c-3 2.5-5.2 6-6.5 10.5v12.4c0 2.4 0 4.7.1 6.8l7 1.4v3.5h-22.9zM944.4 777.5c-2.6 0-5-.3-7.2-.9-2.2-.6-4.3-1.5-6.5-2.7l-.1-9.9h5.7l1.5 7.9c2 .8 4.2 1.3 6.6 1.3 2.9 0 5-.5 6.5-1.5 1.4-1 2.1-2.4 2.1-4.2 0-1.6-.6-2.9-1.7-3.9s-3.1-1.9-5.8-2.8l-4.2-1.4c-3.2-1-5.7-2.5-7.5-4.5-1.8-2-2.8-4.5-2.8-7.5 0-2.4.6-4.5 1.9-6.5 1.2-2 3.1-3.5 5.5-4.7 2.4-1.2 5.3-1.7 8.8-1.7 2.4 0 4.7.3 6.7.9 2 .6 4 1.5 6 2.6l-.4 8.9h-5.6l-1.5-7.1c-1.6-.7-3.3-1-5.3-1-2.3 0-4 .5-5.3 1.4-1.2 1-1.9 2.3-1.9 3.9 0 1.5.5 2.8 1.6 3.7 1 .9 3 1.9 5.9 2.8l3.4 1c4.1 1.4 7.1 3.2 8.8 5.3 1.8 2.1 2.6 4.6 2.6 7.6 0 3.8-1.5 6.9-4.6 9.4-3 2.3-7.4 3.6-13.2 3.6z"/></g><g class="st3"><path class="st4" d="M213 866.3v-3.5l5.6-1.1c.1-2.1.1-4.4.1-6.8v-10.4-5.8c0-1.6-.1-3.2-.2-4.9l-6-.8v-3.2l15.3-5.4 1.4.9-.3 12v17.6c0 2.4 0 4.8.1 6.9l5.2 1v3.5H213zm10.7-49.8c-1.8 0-3.3-.6-4.6-1.7-1.2-1.1-1.9-2.6-1.9-4.3 0-1.8.6-3.3 1.9-4.4 1.2-1.1 2.8-1.7 4.6-1.7 1.8 0 3.3.6 4.5 1.7 1.2 1.1 1.8 2.6 1.8 4.4 0 1.8-.6 3.2-1.8 4.3-1.1 1.1-2.7 1.7-4.5 1.7zM239.3 866.3v-3.5l5.5-1.1c.1-2.1.1-4.4.1-6.8V844v-5.6c0-1.4-.1-2.9-.2-4.6l-6-.8v-3.2l14.2-5.4 1.4.9.6 6.5c4.4-4.9 9.2-7.4 14.5-7.4 3.7 0 6.5 1.2 8.5 3.7 2 2.4 3 6.3 3 11.6V855c0 2.4 0 4.7.1 6.8l5.2 1v3.5h-21v-3.5l5.4-1.1c.1-2.1.1-4.3.1-6.8v-14.6c0-3.3-.5-5.7-1.4-6.9-.9-1.3-2.4-1.9-4.6-1.9-3 0-6.2 1.4-9.5 4.2V855c0 2.5 0 4.7.1 6.9l5 1v3.5h-21zM310.7 813.9v-4h25.9v4l-7.5.9c-.1 3.5-.1 7.1-.1 10.7v25.7c0 3.5.1 7 .1 10.5h17.2l2.4-11.7h5.9l-.8 16.3h-43.1v-4l7.1-.8c.1-3.6.2-7.1.2-10.6v-14.7-10.9c0-3.6-.1-7.2-.2-10.7l-7.1-.7zM392.7 867.3c-2.3 0-4.1-.6-5.5-1.7-1.4-1.1-2.4-2.7-2.9-4.7-2.1 2.2-4 3.8-5.7 4.9-1.7 1.1-3.9 1.7-6.6 1.7-3.2 0-5.9-.9-8-2.8-2.2-1.8-3.3-4.5-3.3-7.9 0-1.8.4-3.5 1.3-5.1s2.4-3 4.5-4.4c2.2-1.4 5.3-2.7 9.4-4 1.1-.4 2.4-.8 3.8-1.2 1.4-.4 2.9-.8 4.3-1.2v-2.4c0-4-.6-6.6-1.7-8-1.1-1.4-3-2.1-5.8-2.1-.5 0-1.1 0-1.7.1-.6.1-1.2.1-1.8.3l-1 4.7c-.2 2-.8 3.5-1.8 4.5s-2.2 1.4-3.6 1.4c-2.7 0-4.3-1.3-4.8-3.8.5-3.4 2.3-6.1 5.5-8.2s7.3-3.1 12.5-3.1c4.9 0 8.5 1.2 10.8 3.5 2.3 2.4 3.4 6.3 3.4 11.9v18.5c0 2.5.8 3.8 2.5 3.8 1.1 0 2.1-.6 3-1.9l2 1.7c-1 1.9-2.2 3.3-3.6 4.1-1.4 1-3.2 1.4-5.2 1.4zM370.6 855c0 2.2.6 3.8 1.7 4.8 1.2 1 2.6 1.5 4.3 1.5 1 0 1.9-.2 2.9-.7 1-.5 2.5-1.4 4.5-2.8v-13.4c-1.2.4-2.3.8-3.4 1.1-1 .3-1.9.7-2.7.9-2.8 1.1-4.8 2.4-5.8 3.9s-1.5 3-1.5 4.7zM419.6 867.5c-3.4 0-6.1-.9-8-2.6-1.9-1.7-2.9-4.4-2.9-8.2V853v-22.3h-6.3v-4.4l6.9-.8 3.2-11.6h6.9l-.3 11.7h10.2v5.2H419v25.1c0 2.1.4 3.6 1.2 4.6.8 1 1.9 1.4 3.3 1.4 1.5 0 3.3-.7 5.2-2.1l2 2.1c-1.1 1.8-2.5 3.1-4.4 4.1-1.8 1-4.1 1.5-6.7 1.5zM433.3 866.3v-3.5l5.6-1.1c.1-2.1.1-4.4.1-6.8v-10.4-5.8c0-1.6-.1-3.2-.2-4.9l-6-.8v-3.2l15.3-5.4 1.4.9-.3 12v17.6c0 2.4 0 4.8.1 6.9l5.2 1v3.5h-21.2zm10.7-49.8c-1.8 0-3.3-.6-4.6-1.7-1.2-1.1-1.9-2.6-1.9-4.3 0-1.8.6-3.3 1.9-4.4 1.2-1.1 2.8-1.7 4.6-1.7 1.8 0 3.3.6 4.5 1.7 1.2 1.1 1.8 2.6 1.8 4.4 0 1.8-.6 3.2-1.8 4.3-1.1 1.1-2.6 1.7-4.5 1.7zM459.6 866.3v-3.5l5.5-1.1c.1-2.1.1-4.4.1-6.8V844v-5.6c0-1.4-.1-2.9-.2-4.6l-6-.8v-3.2l14.2-5.4 1.4.9.6 6.5c4.4-4.9 9.2-7.4 14.5-7.4 3.7 0 6.5 1.2 8.5 3.7 2 2.4 3 6.3 3 11.6V855c0 2.4 0 4.7.1 6.8l5.2 1v3.5h-21v-3.5l5.4-1.1c.1-2.1.1-4.3.1-6.8v-14.6c0-3.3-.5-5.7-1.4-6.9-.9-1.3-2.4-1.9-4.6-1.9-3 0-6.2 1.4-9.5 4.2V855c0 2.5 0 4.7.1 6.9l5 1v3.5h-21zM528.3 866.3v-4l7-1 17.8-51.7h7l17.8 52.1 5.8.7v3.9H559v-3.9l7.5-.9-4.1-12.6h-18.5l-4.1 12.3 7.4 1.1v4h-18.9zm24.9-45.4l-7.8 23.5H561l-7.8-23.5zM587.4 866.3v-3.5l5.5-1.1c.1-2.1.1-4.4.1-6.8V844v-5.6c0-1.4-.1-2.9-.2-4.6l-6-.8v-3.2l14.2-5.4 1.4.9.6 6.6c2-2.3 4.3-4.2 6.7-5.5 2.4-1.3 4.9-2 7.5-2 5.5 0 9 2.6 10.6 7.7 2.3-2.7 4.6-4.7 7.1-5.9 2.4-1.2 5-1.8 7.6-1.8 3.9 0 6.7 1.2 8.7 3.6 1.9 2.4 2.9 6.2 2.9 11.4V855c0 2.4 0 4.7.1 6.8l5.2 1v3.5h-20.7v-3.5l5.3-1.1c.1-2.1.1-4.3.1-6.8v-14.3c0-3.6-.5-6-1.4-7.2-.9-1.2-2.5-1.9-4.6-1.9-3 0-6.1 1.4-9.3 4.3.1.6.1 1.2.1 1.8v17.3c0 2.4 0 4.7.1 6.8l5.1 1v3.5H613v-3.5l5.4-1.1c.1-2.1.1-4.3.1-6.8v-14.2c0-3.5-.4-5.9-1.3-7.2-.9-1.4-2.4-2-4.6-2-1.6 0-3.2.4-4.7 1.1-1.6.8-3.1 1.8-4.5 3.1v19.2c0 2.5 0 4.7.1 6.9l5 1v3.5h-21.1zM684.6 867.5c-4 0-7.5-.9-10.5-2.6-3-1.7-5.4-4.2-7.1-7.4-1.7-3.2-2.5-7-2.5-11.4 0-4.5 1-8.4 2.9-11.7s4.5-5.8 7.7-7.5c3.1-1.7 6.5-2.6 10.1-2.6 3.3 0 6.3.7 8.8 2.1 2.5 1.4 4.4 3.4 5.8 6s2.1 5.6 2.1 9c0 1.8-.2 3.4-.5 4.7h-26c.2 4.9 1.5 8.5 3.9 11 2.4 2.4 5.3 3.7 8.9 3.7 2.5 0 4.6-.5 6.3-1.5 1.7-1 3.3-2.3 4.7-3.9l2.5 2.2c-1.6 3.1-3.9 5.5-6.8 7.3-2.9 1.7-6.3 2.6-10.3 2.6zm0-39c-1.4 0-2.7.4-4 1.3-1.3.9-2.5 2.3-3.4 4.3-.9 2-1.5 4.7-1.7 8.1h11.6c2 0 3.4-.4 4.1-1.3.7-.8 1-2 1-3.6 0-2.6-.7-4.7-2.2-6.4-1.5-1.6-3.3-2.4-5.4-2.4zM708.1 866.3v-3.5l5.4-1c.1-2.2.1-4.5.1-6.9V844v-5.6c0-1.4-.1-2.9-.2-4.6l-6-.8v-3.2l14.2-5.4 1.4.9.8 10c1.3-3.5 3.1-6.2 5.3-8.1 2.2-1.9 4.4-2.8 6.6-2.8 1.5 0 2.9.4 4.2 1.2 1.3.8 2.1 1.9 2.5 3.4-.1 2.1-.6 3.7-1.5 4.9-1 1.2-2.3 1.7-4 1.7-2 0-4-1-5.8-3.1l-.8-.8c-3 2.5-5.2 6-6.5 10.5v12.4c0 2.4 0 4.7.1 6.8l7 1.4v3.5h-22.8zM745.5 866.3v-3.5l5.6-1.1c.1-2.1.1-4.4.1-6.8v-10.4-5.8c0-1.6-.1-3.2-.2-4.9l-6-.8v-3.2l15.3-5.4 1.4.9-.3 12v17.6c0 2.4 0 4.8.1 6.9l5.2 1v3.5h-21.2zm10.7-49.8c-1.8 0-3.3-.6-4.6-1.7-1.2-1.1-1.9-2.6-1.9-4.3 0-1.8.6-3.3 1.9-4.4 1.2-1.1 2.8-1.7 4.6-1.7 1.8 0 3.3.6 4.5 1.7 1.2 1.1 1.8 2.6 1.8 4.4 0 1.8-.6 3.2-1.8 4.3-1.1 1.1-2.6 1.7-4.5 1.7zM792 867.5c-3.9 0-7.3-.8-10.4-2.5s-5.5-4.1-7.2-7.3c-1.7-3.2-2.6-7.1-2.6-11.6 0-4.6 1-8.5 2.9-11.7 2-3.2 4.5-5.7 7.8-7.4 3.2-1.7 6.7-2.5 10.5-2.5 2.8 0 5.3.5 7.5 1.6 2.2 1 4.1 2.5 5.4 4.2 1.4 1.8 2.2 3.7 2.5 6-.7 2.5-2.3 3.7-4.8 3.7-3.2 0-5-2-5.5-6l-1.1-5.1-1.5-.3c-.5-.1-1-.1-1.5-.1-2 0-3.9.6-5.7 1.7-1.7 1.2-3.1 3-4.2 5.4-1.1 2.4-1.6 5.5-1.6 9.3 0 5.2 1.2 9.1 3.5 11.8 2.4 2.7 5.4 4.1 9.2 4.1 2.3 0 4.3-.5 6.1-1.5 1.8-1 3.3-2.4 4.6-4.2l2.6 1.9c-1.4 3.5-3.5 6.1-6.3 7.9-2.7 1.7-6.1 2.6-10.2 2.6zM846.3 867.3c-2.3 0-4.1-.6-5.5-1.7-1.4-1.1-2.4-2.7-2.9-4.7-2.1 2.2-4 3.8-5.7 4.9-1.7 1.1-3.9 1.7-6.6 1.7-3.2 0-5.9-.9-8-2.8-2.2-1.8-3.3-4.5-3.3-7.9 0-1.8.4-3.5 1.3-5.1.9-1.6 2.4-3 4.5-4.4 2.2-1.4 5.3-2.7 9.4-4 1.1-.4 2.4-.8 3.8-1.2 1.4-.4 2.9-.8 4.3-1.2v-2.4c0-4-.6-6.6-1.7-8-1.1-1.4-3-2.1-5.8-2.1-.5 0-1.1 0-1.7.1-.6.1-1.2.1-1.8.3l-1 4.7c-.2 2-.8 3.5-1.8 4.5s-2.2 1.4-3.6 1.4c-2.7 0-4.3-1.3-4.8-3.8.5-3.4 2.3-6.1 5.5-8.2 3.1-2 7.3-3.1 12.5-3.1 4.9 0 8.5 1.2 10.8 3.5 2.3 2.4 3.4 6.3 3.4 11.9v18.5c0 2.5.8 3.8 2.5 3.8 1.1 0 2.1-.6 3-1.9l2 1.7c-1 1.9-2.2 3.3-3.6 4.1-1.4 1-3.1 1.4-5.2 1.4zM824.2 855c0 2.2.6 3.8 1.7 4.8 1.2 1 2.6 1.5 4.3 1.5 1 0 1.9-.2 2.9-.7 1-.5 2.5-1.4 4.5-2.8v-13.4c-1.2.4-2.3.8-3.4 1.1-1 .3-1.9.7-2.7.9-2.8 1.1-4.8 2.4-5.8 3.9-.9 1.5-1.5 3-1.5 4.7zM868 867.5c-1.9 0-3.5-.7-4.8-2-1.3-1.3-2-2.9-2-4.7 0-1.9.7-3.6 2-4.9 1.3-1.4 2.9-2 4.8-2s3.5.7 4.8 2c1.3 1.4 2 3 2 4.9 0 1.8-.7 3.4-2 4.7-1.2 1.3-2.9 2-4.8 2z"/></g></svg>