<svg xmlns="http://www.w3.org/2000/svg" width="345.672" height="210.05" viewBox="0 0 345.672 210.05"><defs><style>.cls-1{fill:#0036f6;fill-rule:evenodd;}</style></defs><g id="Layer_2" data-name="Layer 2"><g id="svg"><g id="svgg"><path id="path0" class="cls-1" d="M93.4.105a.317.317,0,0,0,.234.566c.236,0,.332-.092.3-.282-.06-.31-.348-.465-.529-.284m1.91.272c0,.549-1.47,1.1-1.785.671-.176-.241-.27-.249-.68-.063s-.5.179-.689-.073c-.2-.275-.256-.274-1,.011s-.806.284-1,.02C89.981.7,89.883.691,89.49.87S89,1.038,88.816.788c-.268-.367-.754-.207-.645.212.063.241-.1.372-.736.607-.449.165-1.081.406-1.4.534-.522.207-.611.2-.792-.045a.442.442,0,0,0-.425-.2.409.409,0,0,1-.407-.177c-.15-.2-.287-.215-.715-.066s-.555.138-.68-.085a.32.32,0,0,0-.591.243c.117.45-1.545,1.008-1.776.6a.32.32,0,0,0-.587.253c.064.245-.053.358-.52.5-.493.151-.6.142-.6-.053,0-.276-.312-.3-.905-.078-.3.115-.4.252-.335.484a.3.3,0,0,1-.224.412c-.17.049-.435.14-.589.2-.214.088-.306-.006-.393-.4-.154-.7-.242-.726-1.243-.346-.738.28-.87.292-.87.078,0-.271-.2-.307-.8-.146a.462.462,0,0,0-.38.491c0,.3-.123.416-.515.5s-.5.192-.464.47c.072.512-1.483,1.124-1.79.705-.16-.22-.285-.234-.686-.082s-.517.14-.641-.082a.377.377,0,0,0-.456-.171.3.3,0,0,1-.4-.162c-.107-.278-.616-.361-.616-.1A2.8,2.8,0,0,0,67.8,5.5c.143.375.125.493-.091.615a.375.375,0,0,0-.172.454c.067.212-.008.332-.246.394s-.342.007-.342-.148c0-.276-.313-.3-.9-.078-.313.119-.4.248-.329.507.106.406-.406.5-.558.106-.093-.244-.2-.224-1.707.32-.157.057-.148.211.039.658.243.582.242.584-.284.767-.7.244-.815.233-.815-.081,0-.282-.232-.248-1.3.19-.52.213-.535.246-.357.758.218.624-.11,1.02-.454.549-.31-.424-2.95.551-2.95,1.09,0,.223-.1.38-.252.38s-.236.136-.211.361c.064.579-.368.572-.571-.008-.212-.61-.931-.788-.739-.184.072.23.017.373-.172.446a.331.331,0,0,0-.2.41.329.329,0,0,1-.169.4c-.358.137-.346.148-.552-.478-.145-.437-.264-.554-.505-.491-.293.077-.3.124-.067.676a1.891,1.891,0,0,1,.2.635c-.368.29-1.162.377-1.294.141s-.241-.235-.686-.08-.553.142-.636-.074a.333.333,0,0,0-.433-.174c-.231.06-.359-.012-.417-.234-.078-.3-.126-.3-.664-.079-.507.212-.592.211-.676-.006a.468.468,0,0,0-.42-.247.467.467,0,0,1-.418-.243.265.265,0,0,0-.356-.141.446.446,0,0,1-.482-.2c-.119-.163-.3-.244-.409-.179s-.283-.008-.4-.162c-.168-.23-.291-.247-.685-.1s-.517.133-.687-.1c-.119-.163-.294-.229-.412-.156s-.293.009-.411-.153c-.168-.23-.291-.247-.685-.1s-.517.132-.688-.1a.427.427,0,0,0-.486-.178c-.18.069-.277.019-.277-.141,0-.286-.306-.316-.9-.089-.325.124-.441.1-.519-.1a.33.33,0,0,0-.422-.178.29.29,0,0,1-.4-.233c-.077-.295-.123-.3-.679-.067s-.6.228-.7-.069a.311.311,0,0,0-.409-.237.33.33,0,0,1-.406-.173c-.061-.16-.227-.22-.446-.163-.245.064-.348.011-.348-.182,0-.338-.134-.34-.9-.02s-1.124.322-1.124.006c0-.161-.1-.211-.278-.142a.432.432,0,0,1-.5-.191c-.12-.164-.3-.244-.409-.179s-.283-.008-.4-.162c-.17-.233-.289-.248-.7-.091s-.531.141-.7-.092c-.112-.154-.291-.227-.4-.162s-.292-.019-.415-.187c-.2-.268-.282-.279-.7-.089s-.5.178-.683-.067a.45.45,0,0,0-.429-.208.411.411,0,0,1-.407-.177c-.149-.2-.289-.216-.7-.07s-.537.134-.619-.078a.331.331,0,0,0-.42-.176.29.29,0,0,1-.4-.234c-.057-.22-.173-.285-.373-.208a.337.337,0,0,1-.441-.158c-.124-.223-.242-.238-.676-.087s-.552.136-.672-.078a.416.416,0,0,0-.485-.174c-.235.062-.338.006-.338-.184,0-.324-.171-.341-.754-.076-.363.166-.468.15-.647-.094s-.293-.261-.709-.1-.532.141-.692-.078-.289-.231-.649-.1c-.662.252-.732.225-.854-.334-.118-.535-.388-.627-.954-.324-.271.145-.385.121-.561-.12-.193-.264-.281-.275-.7-.085s-.5.178-.683-.067a.448.448,0,0,0-.429-.208.41.41,0,0,1-.407-.177c-.152-.206-.286-.217-.735-.06-.486.169-.558.155-.632-.128s-.127-.3-.651-.083c-.506.212-.584.207-.723-.041a.345.345,0,0,0-.422-.176c-.169.064-.3-.012-.364-.21a.311.311,0,0,0-.429-.226.331.331,0,0,1-.429-.173c-.081-.212-.193-.226-.619-.078s-.555.133-.733-.111S10,3.046,9.733,3.19c-.487.261-.869.225-.869-.082,0-.188-.1-.234-.339-.157s-.372.018-.442-.163a.3.3,0,0,0-.4-.175.3.3,0,0,1-.4-.176c-.07-.181-.216-.234-.442-.162-.241.076-.339.03-.339-.158,0-.167-.15-.264-.408-.264-.224,0-.439-.093-.477-.207-.053-.159-.211-.162-.689-.015-.511.157-.621.148-.621-.047,0-.348-.293-.3-2.048.336-1.37.5-1.575.621-1.529.928C.763,3.086.689,3.2.505,3.2S.26,3.3.333,3.529A.374.374,0,0,1,.174,4c-.236.132-.234.228.018.967s.25.842.026,1.006a.381.381,0,0,0,.264.691c.229,0,.418.275.7,1.013.3.8.453,1.006.714.978s.385.14.578.76c.183.591.331.8.576.8.461,0,.7.426.351.623-.409.228-.338.643.11.643.275,0,.441.148.58.517.134.353.291.5.5.464.237-.041.391.2.705,1.082.326.922.464,1.128.738,1.1s.408.164.7.976c.277.773.451,1.025.733,1.066s.448.289.736,1.154c.31.931.418,1.089.7,1.016.181-.047.36,0,.4.112.627,1.817.778,2.1,1.08,2.023.258-.068.378.114.683,1.03s.432,1.113.749,1.113.428.158.629.8.321.792.583.755c.237-.033.388.105.532.486.15.4.28.511.521.448.263-.068.371.077.6.806s.338.875.6.806.379.078.624.768c.229.644.38.844.62.819s.4.172.622.726.392.75.625.726c.252-.027.4.208.715,1.133.325.954.459,1.161.734,1.132.235-.026.392.115.524.47.117.315.308.507.5.507.218,0,.409.236.615.76.222.565.379.748.614.713s.386.154.619.811c.248.7.363.837.617.757s.364.057.6.758.342.839.6.758.369.06.616.757c.234.656.378.845.62.81s.392.149.614.714c.206.523.4.76.615.76s.416.27.692,1.013c.447,1.2.468,1.435.13,1.435-.31,0-.31-.008-.005.721.234.56.228.6-.093.682s-.327.122-.091.686.227.605-.059.7a.309.309,0,0,0-.227.409c.06.231-.057.358-.46.5s-.521.265-.456.513a.288.288,0,0,1-.222.405c-.217.057-.28.185-.214.437s.015.356-.191.356-.255.091-.177.339q.108.339-.162.442a.3.3,0,0,0-.174.408c.074.233-.044.355-.506.522-.433.157-.573.29-.5.478.654,1.639.926,2.6.778,2.746-.244.244-.494.03-.616-.528-.1-.467-.129-.479-.689-.307-.683.209-.859.857-.208.765.3-.043.425.085.659.707.213.567.372.757.628.748a.421.421,0,0,1,.423.3c.049.19-.011.308-.157.308-.277,0-.3.312-.077.909.135.353.106.441-.168.529s-.3.17-.166.412.1.326-.158.392c-.232.061-.3.185-.229.441.062.239.014.356-.148.356-.686,0-.891.42-.589,1.208.351.92.351.987.011.987-.191,0-.246.1-.184.342.07.267-.036.394-.486.582-.527.22-.561.277-.407.682.254.668.23.707-.634,1.027-.441.164-.822.31-.846.326a2.172,2.172,0,0,0,.205.627c.236.565.231.6-.085.687-.335.087-.335.089,0,.941.31.786.315.866.057,1.01s-.23.293.244,1.608L21.33,70.4l-.83.3c-.908.323-.955.434-.569,1.357.239.572.237.642-.021.831a.441.441,0,0,0-.184.463.346.346,0,0,1-.173.409.344.344,0,0,0-.171.418c.066.171-.012.3-.218.368s-.284.2-.219.367a.345.345,0,0,1-.174.42c-.249.139-.235.26.148,1.278.37.982.391,1.142.165,1.268-.406.227-.311.635.148.635.543,0,1.131,1.486.686,1.735a.379.379,0,0,0-.172.433c.07.221-.1.354-.752.585-.9.32-.932.368-.681,1.03.128.334.1.461-.106.578-.344.193-.086,1.1.337,1.181.328.063.372-.33.1-.847a.406.406,0,0,1,.357-.64A7.644,7.644,0,0,1,19.67,84.3a2.771,2.771,0,0,1-.855.374c-.624.207-.83.352-.76.534a1.63,1.63,0,0,1,.1.323c0,.04.268-.04.6-.177.583-.244.6-.239.76.178.228.6.2.911-.075.911-.15,0-.207.118-.154.319.115.443-.284.648-.551.283-.617-.845-.706-.023-.156,1.453.5,1.349.521,1.47.242,1.543-.214.056-.276.185-.211.436s.015.356-.179.356c-.3,0-.34.141-.131.471a.343.343,0,0,0,.4.116.275.275,0,0,1,.367.179c.072.188,0,.306-.212.362a.291.291,0,0,0-.235.405.33.33,0,0,1-.174.42c-.23.088-.225.2.046.986.277.8.28.9.037,1.056s-.243.236.019.921c.351.919.353.994.034.994s-.319.193,0,.955.32,1.071,0,1.071-.317-.081.073.929c.18.464.39.831.468.815s.347-.081.6-.145c.331-.083.487-.044.556.138a.331.331,0,0,0,.4.173.332.332,0,0,1,.412.2c.074.195,0,.31-.228.37-.254.067-.3.155-.181.365s.072.322-.147.445c-.436.244.369,2.511.839,2.362.241-.077.388.16.8,1.3s.568,1.392.848,1.361c.789-.088.832,1.212.045,1.384-.593.131-.559.779.038.716s.559.5-.043.636-.719.268-.518.592c.117.191.23.2.587.034.59-.268.764-.254.764.065,0,.163.114.242.3.2a.344.344,0,0,0,.258-.416c-.048-.468.564-.656.681-.209a.307.307,0,0,1-.222.408.308.308,0,0,0-.222.405.33.33,0,0,1-.181.409c-.225.086-.177.337.335,1.751.712,1.966.608,1.839,1.321,1.62.5-.153.586-.137.656.131.12.456-.89.8-1.181.4-.255-.349-.764-.19-.617.192a.33.33,0,0,0,.412.193c.23-.06.354.062.5.489s.274.56.549.531a.345.345,0,0,1,.423.257c.039.189-.041.3-.224.3-.2,0-.26.1-.2.338A.414.414,0,0,1,26.3,118a.342.342,0,0,0-.178.38.382.382,0,0,1-.218.4c-.437.247.013,1.342.49,1.191.247-.079.35.019.475.452s.238.541.532.5c.618-.088.493.59-.135.728-.568.125-.58.16-.321.9.147.421.242.5.46.377s.322-.044.49.358c.279.661.272.81-.038.81s-.316.031.037,1.025c.217.612.369.807.606.782s.394.169.606.726c.224.587.369.752.636.724s.39.115.551.651c.113.378.246.793.3.922s-.018.236-.181.236c-.319,0-.332.113-.092.8.133.382.26.493.493.431.253-.066.376.089.621.778.235.662.37.838.589.769.4-.127.593.268.255.516-.394.288-.049,1.332.4,1.214.239-.062.384.149.715,1.042s.482,1.112.743,1.085.418.223.826,1.4.552,1.422.8,1.358c.216-.056.366.082.54.5.22.528.277.562.682.408.667-.254.707-.23,1.031.621.271.709.275.805.038.954-.4.253-.043,1.341.394,1.2a.3.3,0,0,1,.417.18.328.328,0,0,0,.41.2c.238-.062.37.1.6.747.317.882.943,1.211.861.452-.084-.777.469-.513.789.378.243.675.369.835.584.744.883-.374,1.545-.038.775.393a.325.325,0,0,0,.253.6c.248-.065.381.114.67.905.677,1.849.7,1.881,1.02,1.8.243-.064.365.1.594.785.235.708.344.848.6.767s.369.061.618.761.368.845.619.779a.288.288,0,0,1,.4.23c.075.289.124.294.675.064a1.834,1.834,0,0,1,.633-.2c.022.028.261.683.53,1.453.411,1.172.543,1.389.8,1.32a.289.289,0,0,1,.4.231c.075.288.135.3.721.089l.638-.226.158.534c.122.411.244.525.527.494.238-.026.369.053.369.222s.126.244.373.209c.306-.043.424.084.656.707.2.528.379.76.6.76a.5.5,0,0,1,.431.282.347.347,0,0,0,.464.191c.25-.065.348-.01.348.194s.091.255.342.176c.274-.087.379,0,.524.41.134.386.285.52.586.52.256,0,.406.1.406.264,0,.184.1.234.323.162.443-.14.646.247.272.52s-.224.746.2.635c.226-.059.362.063.51.457.155.411.281.517.533.451a.29.29,0,0,1,.412.23c.077.295.124.3.678.068l.595-.249.2.595c.151.457.267.572.5.5a.3.3,0,0,1,.409.182.333.333,0,0,0,.442.189c.218-.056.336,0,.336.15s.17.238.409.238c.319,0,.433.114.523.521s.184.5.446.436a.333.333,0,0,1,.423.153.475.475,0,0,0,.427.24c.217,0,.4.18.529.516.144.382.276.494.51.433a.291.291,0,0,1,.4.24c.067.253.151.288.391.159.259-.138.337-.07.506.441.154.466.272.586.515.523s.365.058.524.5c.136.377.29.547.442.489.841-.323,1-.289,1.19.249.131.375.275.515.485.472s.358.1.489.451.289.5.517.478.388.128.537.54.282.547.474.473a.339.339,0,0,1,.414.162.417.417,0,0,0,.486.175c.242-.064.338-.006.338.2s.095.268.348.2c.219-.058.384,0,.445.162a.33.33,0,0,0,.405.174c.231-.061.354.063.5.5s.263.558.494.484a.3.3,0,0,1,.409.182.331.331,0,0,0,.417.2c.232-.061.362.063.517.5.175.482.268.556.575.458.706-.225.854-.151,1.12.556.351.934.364.942,1.072.647.873-.365,1.073-.323,1.278.266s.619.59.6.022c-.016-.46.544-.62.657-.188.127.485,1.236,0,1.16-.512-.039-.258.038-.35.3-.35.2,0,.348.109.348.264,0,.188.1.234.339.157s.373-.018.442.163a.3.3,0,0,0,.4.175.3.3,0,0,1,.4.176.3.3,0,0,0,.416.17c.245-.077.349.022.476.453s.247.543.532.512c.243-.027.369.052.369.231s.1.244.342.181c.267-.069.394.036.58.482.23.55.259.564.778.383.45-.156.564-.143.691.083a.346.346,0,0,0,.408.172.452.452,0,0,1,.476.2c.121.165.3.249.4.187s.255.013.342.169a.343.343,0,0,0,.449.172c.2-.078.316-.011.377.223.069.264.151.3.395.169s.33-.094.409.156a.313.313,0,0,0,.43.234c.256-.066.292-.151.166-.387-.139-.26.241-.672.429-.467.43.467.676,1.819.331,1.819-.282,0-.316.146-.11.47a.348.348,0,0,0,.4.115c.193-.074.324.056.474.469.142.394.31.569.538.561.243-.008.408.193.615.749.188.5.384.759.58.759a.542.542,0,0,1,.42.2.5.5,0,0,0,.44.169c.214-.021.377.138.5.493.12.333.274.493.426.441a.464.464,0,0,1,.453.211c.118.161.3.24.406.175s.283.007.394.159c.185.253.266.254.939.017.97-.343.969-.343,1.182.267.143.41.258.507.523.437.221-.057.339-.006.339.149,0,.139.17.238.409.238.319,0,.434.114.523.521s.184.5.446.436a.335.335,0,0,1,.424.153.463.463,0,0,0,.417.24.468.468,0,0,1,.418.243.266.266,0,0,0,.357.141.437.437,0,0,1,.472.185c.179.245.276.256.67.077s.49-.169.674.082a.448.448,0,0,0,.466.194.277.277,0,0,1,.36.184.275.275,0,0,0,.389.173.357.357,0,0,1,.418.109c.2.324.171.47-.111.47-.145,0-.253.152-.253.357,0,.275.078.337.338.269a.415.415,0,0,1,.488.179c.136.243.221.24.924-.028.938-.358,1.016-.318,1.289.658.173.617.274.749.517.672a.382.382,0,0,1,.461.187c.148.265.212.263.949-.018.894-.341,1.5-.117.9.331-.356.263-.22.8.165.648a.346.346,0,0,1,.413.174c.12.214.245.238.581.11.622-.236.681-.214.913.344.246.595.2.587,1.2.229.8-.285,1.085-1.063.3-.815-.642.2-.886-.975-.252-1.216.709-.27.775-.265.775.049,0,.195.1.246.356.18s.38,0,.441.229c.066.253.15.288.391.159.258-.138.337-.07.506.441.158.48.266.585.519.506l.657-.2c.248-.076.338-.026.338.189s.1.268.342.2c.267-.07.394.037.584.492l.243.581.582-.243c.541-.226.587-.22.666.08.058.224.173.289.374.212a.338.338,0,0,1,.442.161c.192.343.708.175.57-.186a.343.343,0,0,1,.117-.4c.324-.2.47-.171.47.111s.388.329.869.071c.27-.145.385-.122.556.112a.429.429,0,0,0,.492.187c.18-.069.278-.019.278.142,0,.287.306.316.909.087.353-.135.441-.106.529.168s.17.295.412.166.326-.095.4.177c.085.323.122.328.686.092s.6-.227.695.059a.309.309,0,0,0,.407.228.329.329,0,0,1,.406.173c.061.159.226.22.445.163.246-.065.348-.011.348.182,0,.317.147.337.77.1.365-.139.494-.117.661.11.113.156.3.228.4.162s.242,0,.3.156c.1.268.406.263,1.142-.02.182-.069.269-.009.269.187,0,.286.3.282,1.065-.011.177-.068.31.08.448.5.143.435.267.566.463.491a.435.435,0,0,1,.477.183c.179.245.276.256.67.077s.49-.169.675.084c.2.279.26.276,1.064-.04.921-.363,1.431-.081.755.418-.571.422-.009.671.792.351.858-.344,1.02-.346,1.02-.012,0,.185.1.233.326.162a.377.377,0,0,1,.483.179.368.368,0,0,0,.392.2.422.422,0,0,1,.424.177c.167.227.313.211,1.254-.132,1-.364,1.078-.37,1.277-.1.123.168.3.237.418.163s.3,0,.434.185c.361.494.657.079.423-.593-.213-.61.213-.981.512-.446a.381.381,0,0,0,.463.191c.243-.077.344.055.517.672.261.931.383,1.021,1.028.754.361-.15.474-.29.407-.5-.193-.607.427-.534.684.081l.243.582.7-.246c.974-.343,1.1-.316,1.311.277.159.456.141.534-.133.606a.289.289,0,0,0-.229.41c.058.225.181.3.39.232a.373.373,0,0,1,.454.172c.135.241.273.225,1.315-.154a9.884,9.884,0,0,1,1.19-.388c.014.019.1.262.194.541.125.376.261.5.529.466.236-.026.361.054.361.231,0,.193.1.244.357.178s.38,0,.438.218c.075.287.127.293.651.074.71-.3.75-.3.75.015s.387.329.869.071c.271-.145.385-.121.561.12.193.264.281.275.7.085s.5-.178.685.069.3.254.721.107.54-.13.662.086a.35.35,0,0,0,.382.187.416.416,0,0,1,.42.172c.151.206.285.217.734.06.486-.169.559-.155.633.128s.127.3.653.082c.716-.3.75-.3.75.035,0,.194.1.246.356.179s.38,0,.438.221c.076.289.133.3.741.081.571-.2.66-.2.66.013,0,.284.307.313.9.086.325-.123.441-.1.519.1a.331.331,0,0,0,.422.179.288.288,0,0,1,.4.223c.057.217.184.28.436.214s.357-.015.357.2c0,.2.087.258.269.188.721-.277,1.039-.287,1.135-.036.083.216.191.228.647.069s.575-.146.712.071.264.228.669.087.541-.123.688.078a.4.4,0,0,0,.523.122c.538-.21.929-.175.929.082,0,.156.118.207.342.148s.313-.182.247-.392c-.136-.427.259-.616.526-.251a.452.452,0,0,0,.476.2.348.348,0,0,1,.41.174.342.342,0,0,0,.417.171c.171-.066.3.012.367.215.091.287.152.3.642.1,1.089-.446,1.3-.473,1.3-.169,0,.206.1.259.357.191s.38,0,.44.228c.079.3.124.305.678.074.729-.3.72-.3.72.005,0,.272.382.312.929.1a.4.4,0,0,1,.523.122c.15.2.286.218.715.069s.555-.138.68.085a.343.343,0,0,0,.416.168c.169-.065.3.01.363.2.092.29.159.284,1.228-.1,1.018-.37,1.149-.384,1.325-.143.156.212.29.232.65.095.622-.237.77-.218.77.1,0,.179.091.236.269.168.724-.278,1.039-.287,1.137-.033.142.371.656.143.535-.238-.077-.243.372-.662.5-.468.017.025.127.288.245.584.229.576.786.612.636.041-.107-.41.379-.575.641-.217a.424.424,0,0,0,.485.177c.18-.069.277-.019.277.142s.164.248.422.248.423.095.423.253c0,.31-.009.31.721,0,.554-.231.6-.226.677.074.06.231.184.3.44.228s.357-.015.357.191c0,.306.21.277,1.324-.179.523-.213.572-.206.652.1s.125.314.666.088c.507-.212.593-.211.676.005.152.4.737.312.69-.1-.06-.513.993-.964,1.143-.49.1.309.144.306,1.229-.1,1.01-.38,1.148-.4,1.321-.159s.374.2,1.838-.331c1.877-.679,1.942-.69,1.942-.331,0,.283.232.249,1.3-.188.491-.2.551-.192.643.1.1.315.118.315.964-.006.8-.305.877-.308,1.069-.045.179.245.272.254.683.067s.5-.179.684.066a.449.449,0,0,0,.429.209.407.407,0,0,1,.405.174c.289.393,1.184.035,1.114-.446-.088-.612.592-.479.729.142.128.586.145.59,1.1.254.9-.316,1.013-.316,1.013,0s-.019.3.664.063c.4-.141.525-.271.466-.5-.107-.411.377-.578.639-.22s.656.143.545-.28a.285.285,0,0,1,.225-.384c.207-.054.335.035.4.281.221.828.292.834,2.043.178,1.546-.579,1.673-.6,1.873-.329.123.169.3.238.419.165s.293-.008.412.155c.191.26.317.242,1.6-.231,1.248-.46,1.413-.486,1.588-.246s.307.227,1.326-.143c1.065-.387,1.135-.393,1.226-.105s.164.279,1.222-.119c1-.375,1.147-.394,1.315-.165.294.4,1.934-.149,1.884-.634-.047-.467,1.52-1.11,1.681-.689a.466.466,0,0,1-.217.494c-.241.178-.27.281-.12.433.25.253.563.066.563-.337,0-.44.465-.574.593-.171.1.3.145.31.677.088s.58-.214.67.069a.331.331,0,1,0,.64-.17c-.125-.479.994-.926,1.173-.469.113.29.169.3.7.074s.589-.215.722.064c.207.435,2.515-.383,2.328-.825-.331-.78-.279-.964.318-1.147.569-.175.591-.164.737.347.084.29.263.527.4.527.235,0,.261-.2.131-1.006-.1-.6.449-.487.674.135l.208.575,2.305-.843c2.04-.746,2.328-.813,2.5-.58.3.409,1.774-.149,1.774-.672,0-.411,1.025-.782,1.147-.416.035.1.216.19.4.19.222,0,.4.177.533.516.141.375.278.494.5.435a.338.338,0,0,1,.424.219c.17.437,6.614-1.9,6.5-2.359-.111-.424.3-.61.559-.254a.466.466,0,0,0,.438.222.408.408,0,0,1,.406.174c.274.373,1.184.038,1.12-.413-.07-.486,2.067-1.253,2.377-.853s5.42-1.465,5.3-1.923a.33.33,0,0,1,.169-.4c.359-.137.347-.148.553.478s.893.723.727.09a.331.331,0,0,1,.17-.419.33.33,0,0,0,.177-.392c-.052-.2.069-.361.364-.5.642-.292.717-.261.929.381.2.618.678.677.678.084a.58.58,0,0,1,.211-.446.583.583,0,0,0,.211-.448c0-.49,2.618-1.413,2.9-1.024a.436.436,0,0,0,.422.2.41.41,0,0,1,.407.176c.246.333,2.491-.416,2.349-.785-.322-.839-.286-1,.266-1.189a1.847,1.847,0,0,1,.58-.147c.018.023.17.409.338.857.245.653.367.795.615.718l.648-.2c.248-.077.338-.027.338.187,0,.3.739.247,1.074-.08.275-.269-.376-1.835-.725-1.744-.433.114-.615-.262-.254-.526a.443.443,0,0,0,.2-.481c-.144-.377.381-.53.633-.184.17.232.3.25.724.1.667-.233,1.206.659.646,1.068-.2.144-.25.3-.157.459.223.379,2.467-.483,2.335-.9s.925-.8,1.2-.422,1.3.015,1.164-.42c-.078-.247.088-.373.881-.663,1.81-.662,1.924-.723,1.868-1-.034-.168-.191-.253-.41-.223a.425.425,0,0,1-.449-.2c-.133-.346.393-.5.624-.189.29.4,1.859-.152,1.74-.608-.062-.235.061-.364.5-.521.417-.151.565-.3.531-.53-.037-.255.183-.406,1.074-.737.906-.336,1.105-.474,1.04-.723-.061-.233.066-.356.527-.508.491-.162.577-.253.451-.478s-.048-.323.356-.493c.667-.28.811-.271.811.051,0,.163.113.242.3.2a.309.309,0,0,0,.242-.392c-.146-.91-.124-.953.644-1.241.585-.22.749-.362.714-.619-.038-.274.16-.4,1.109-.727.926-.316,1.153-.461,1.143-.734s.209-.419,1-.7c1.036-.374,1.169-.577.858-1.3-.181-.425.881-.825,1.164-.439s1.27.035,1.22-.453c-.025-.243.112-.378.5-.493l.534-.157-.225-.639c-.207-.586-.2-.646.088-.721.223-.059.287-.185.22-.439-.111-.427.353-.5.582-.1.253.452.725.126.537-.37-.251-.659-.2-.815.361-1.026.4-.151.5-.27.419-.518s.013-.355.45-.482.541-.24.5-.516.064-.382.464-.47.515-.2.515-.508c0-.217.1-.426.21-.464a.419.419,0,0,0,.211-.389c0-.222.23-.405.761-.6.565-.212.751-.368.725-.607s.133-.383.532-.527c.423-.153.546-.283.485-.514a.329.329,0,0,1,.173-.407c.16-.062.22-.227.163-.446-.066-.252-.011-.348.2-.348s.257-.087.188-.269c-.339-.883-.309-1.036.246-1.229.456-.159.577-.144.748.089.238.326.662.146.521-.221-.063-.166.1-.328.51-.5.461-.193.576-.321.487-.54-.064-.158-.255-.682-.424-1.164l-.308-.877.585-.194c.448-.148.563-.263.489-.5a.3.3,0,0,1,.174-.406c.176-.068.234-.217.167-.427-.081-.258.018-.363.487-.518.539-.178.576-.231.429-.617-.232-.611-.2-.907.1-.907.188,0,.233-.1.157-.339s-.018-.373.162-.442a.3.3,0,0,0,.174-.406c-.073-.232.041-.347.484-.494s.56-.267.5-.5a.329.329,0,0,1,.2-.414.3.3,0,0,0,.182-.412c-.074-.232.041-.354.483-.514l.58-.21-.241-.577-.241-.577.843-.3c.879-.312.949-.428.685-1.124-.121-.318-.1-.441.084-.512a.422.422,0,0,0,.244-.37c0-.272-.312-.265-1.062.022-.4.154-.726-.955-.357-1.224a.434.434,0,0,0,.183-.456c-.068-.176.081-.31.5-.447s.565-.269.494-.454a.427.427,0,0,1,.17-.454c.245-.179.239-.276-.06-1.062-.315-.829-.316-.869-.023-.945.209-.055.277-.186.216-.42-.071-.271.016-.362.433-.454s.522-.2.522-.523c0-.259.1-.409.265-.409.188,0,.233-.1.157-.338s-.018-.373.167-.444a.275.275,0,0,0,.178-.358.419.419,0,0,1,.169-.448c.218-.16.232-.284.077-.691s-.141-.532.078-.691a.423.423,0,0,0,.169-.448.272.272,0,0,1,.166-.354c.431-.165.315-.618-.16-.618-.6,0-.539-.483.093-.7.591-.206.64-.764.06-.684-.266.036-.388-.09-.529-.549-.149-.487-.139-.6.055-.6.14,0,.237-.171.237-.422,0-.27.095-.422.265-.422.19,0,.233-.1.154-.347-.088-.278-.007-.385.411-.543.365-.138.521-.308.521-.569s.131-.4.506-.482c.559-.123.586-.193.334-.855-.137-.36-.117-.494.1-.649s.233-.284.078-.692-.141-.531.081-.693c.245-.18.241-.273-.053-1.046-.316-.833-.316-.851,0-.933s.311-.1-.022-.949c-.391-.992-.4-1.022-.183-1.022a2.487,2.487,0,0,0,.578-.16l.421-.16-.276-.863c-.289-.9.023-1.684.336-.839.079.214.216.292.393.224.264-.1.258-.408-.023-1.141-.069-.18-.01-.269.18-.269s.262-.107.223-.3-.195-.282-.435-.256c-.6.065-.483-.559.146-.779.416-.145.5-.249.411-.523-.077-.244-.033-.342.156-.342.152,0,.265-.144.265-.338,0-.4-.112-.415-.9-.084a3.283,3.283,0,0,1-.865.253c-.338,0-.335-.488,0-.618a.271.271,0,0,0,.166-.354.414.414,0,0,1,.164-.444c.381-.278.027-1.283-.411-1.169a.321.321,0,0,1-.234-.6.342.342,0,0,0,.171-.416c-.073-.192.061-.318.492-.46.415-.137.565-.271.5-.446a1.737,1.737,0,0,1-.1-.3c0-.03-.142-.018-.315.027a.33.33,0,0,1-.422-.2c-.075-.194,0-.31.224-.369.313-.082.318-.123.085-.681-.3-.729-.3-.721.006-.721.157,0,.253-.159.253-.422s.1-.422.237-.422c.2,0,.2-.11.047-.621-.146-.478-.143-.636.016-.689.114-.038.207-.252.207-.477,0-.25.1-.408.253-.408.318,0,.319.011-.078-1-.33-.836-.33-.842,0-.947.258-.081.3-.172.17-.406-.138-.26-.035-.344.746-.61l.907-.308-.517-1.448c-.285-.8-.53-1.465-.546-1.486-.146-.2-1.108.426-1.041.681a.323.323,0,0,1-.583.269c-.1-.156-.057-.3.123-.438a.434.434,0,0,0,.174-.456c-.06-.157.026-.292.226-.355.317-.1.317-.119-.014-.957-.3-.769-.31-.874-.073-1.048.385-.281.031-1.286-.411-1.17-.465.122-1-1.455-.589-1.752.151-.11.221-.286.156-.391s.008-.284.162-.4c.4-.294-.512-2.9-1.019-2.9-.464,0-.811-.933-.452-1.217.277-.22.3-.138-1.726-5.645-.659-1.786-.836-2.121-1.092-2.054s-.685-.6-.685-1.058a2.348,2.348,0,0,1,.573-.235c.56-.185.569-.2.393-.775-.141-.46-.247-.565-.492-.487s-.37-.038-.558-.49c-.182-.436-.326-.567-.556-.507s-.353-.06-.494-.522c-.152-.492-.142-.6.052-.6.277,0,.3-.312.077-.907-.147-.387-.11-.44.434-.619.415-.137.565-.272.5-.447a1.711,1.711,0,0,1-.1-.3c0-.031-.142-.018-.316.027-.237.062-.362-.049-.5-.438-.209-.6-.248-.607-1.212-.267-.395.139-.739.253-.765.253a5.966,5.966,0,0,1-.417-1.109,2.328,2.328,0,0,1,.573-.236c.438-.144.554-.263.491-.5-.075-.287-.139-.3-.7-.1l-.617.214-.619-1.706c-.544-1.5-.588-1.731-.362-1.907.367-.287.06-1.154-.4-1.14-.287.009-.524-.5-1.6-3.461-1.148-3.155-1.3-3.467-1.63-3.419-.275.039-.366-.035-.366-.3,0-.2.11-.348.253-.348.286,0,.316-.146.1-.486a.259.259,0,0,0-.361-.1c-.129.08-.3.015-.43-.164-.261-.356-.638-.178-.526.249a.286.286,0,0,1-.228.384c-.217.057-.28.185-.214.437.153.585-.449.443-.677-.159-.141-.375-.278-.494-.5-.435-.408.106-.575-.36-.222-.62.375-.274.009-1.371-.4-1.2-.863.367-.96.309-1.333-.8-.427-1.264-.433-1.334-.106-1.334.3,0,.3.019.063-.664-.142-.408-.269-.526-.5-.465-.446.117-1.105-1.576-.7-1.8a.264.264,0,0,1,.413.126c.157.281.644.386.644.139a6.215,6.215,0,0,0-.9-2.225c-.558.006-.955.232-.955.543,0,.258.082.316.348.247.414-.109.665.349.311.568a.582.582,0,0,0-.236.445c0,.67-.522.4-.82-.431-.237-.656-.364-.814-.609-.75s-.357-.064-.509-.524c-.17-.516-.245-.581-.512-.438-.394.211-.565-.323-.194-.606.4-.3-.221-1.988-.646-1.76-.4.213-.659-.324-.264-.545s.315-.635-.131-.635c-.329,0-.452-.175-.783-1.111s-.444-1.095-.706-1.013l-.621.193c-.427.134-.794-.971-.4-1.217.406-.256.036-1.175-.445-1.105-.246.036-.364-.037-.364-.223s-.11-.254-.3-.215a.341.341,0,0,0-.261.4c.043.426-.943.877-1.163.532-.179-.282-.171-.462.02-.462.481,0,1.01-.347.914-.6s-.41-.255-1.1.009c-.154.06-.328-.193-.535-.775-.245-.691-.369-.847-.621-.781a.329.329,0,0,1-.411-.172.33.33,0,0,0-.418-.169.289.289,0,0,1-.4-.224.287.287,0,0,0-.394-.225c-.258.067-.386-.12-.714-1.037-.421-1.177-.459-1.2-1.42-.831-.153.059-.28-.031-.334-.238-.06-.229.012-.358.232-.416s.284-.174.212-.362a.277.277,0,0,0-.354-.183c-.867.332-1.025.3-1.141-.231-.089-.4-.206-.52-.51-.52-.323,0-.445-.151-.67-.827-.218-.657-.338-.81-.584-.745s-.384-.127-.71-1.042c-.416-1.168-.5-1.22-1.354-.858-.221.093-.337-.06-.565-.747-.3-.9-.907-1.195-.792-.378.036.257-.035.375-.223.375s-.255.111-.218.3.184.278.435.243c.284-.04.375.032.375.3,0,.394-.422.475-.562.108a.335.335,0,0,0-.422-.154c-.264.069-.373-.044-.54-.561-.116-.357-.354-1.016-.528-1.466-.313-.8-.312-.818,0-.9a.291.291,0,0,0,.236-.412c-.061-.234-.179-.3-.412-.224-.253.08-.37-.013-.523-.417-.124-.329-.314-.521-.515-.521-.222,0-.287.081-.215.269.34.886.308,1.035-.257,1.232-.462.162-.578.15-.7-.07a.374.374,0,0,0-.473-.161c-.226.072-.325.023-.325-.161,0-.167-.15-.265-.4-.265a.465.465,0,0,1-.5-.38c-.157-.586-.126-.8.115-.8.555,0,.81-.4.613-.968l-.189-.543-.583.243c-.645.27-1.1-.119-.52-.444.237-.133.152-.925-.14-1.3a1.883,1.883,0,0,0-.634.2c-.555.232-.6.227-.679-.075-.056-.216-.175-.288-.358-.218a.3.3,0,0,0-.181.4c.145.455-1.632,1.116-1.8.67a.34.34,0,0,0-.465-.211c-.244.063-.348.01-.348-.18s-.126-.258-.373-.231c-.614.066-.59-.5.026-.633.4-.089.516-.2.516-.522,0-.25.1-.409.252-.409s.236-.136.211-.361c-.065-.581.376-.576.6.006.229.607.9.774.75.186a.414.414,0,0,1,.175-.486.34.34,0,0,0,.162-.413c-.065-.169.01-.3.206-.363.3-.094.295-.132-.023-1l-.331-.9-1.421.516c-1.217.442-1.421.572-1.421.9,0,.224-.1.386-.243.386-.394,0-.508-.371-.187-.606a.466.466,0,0,0,.222-.438.408.408,0,0,1,.174-.406c.22-.161.22-.272,0-.928-.275-.827-.811-1.131-.811-.461,0,.33-.171.455-1.055.772-1.25.449-1.309.454-1.309.126,0-.305-.18-.318-.755-.056-.369.168-.468.149-.672-.127-.365-.494-.733-.075-.46.524.265.58.279.549-.391.829-.418.174-.56.323-.488.509s-.066.334-.464.5l-.565.237-.34-.881-.339-.881-.562.164c-.427.126-.541.239-.479.477a.414.414,0,0,1-.222.475c-.238.127-.323.092-.389-.16-.06-.233-.184-.3-.44-.23s-.357.015-.357-.191-.092-.255-.325-.181a.379.379,0,0,1-.483-.18.367.367,0,0,0-.393-.2.417.417,0,0,1-.419-.173c-.152-.205-.285-.216-.734-.06-.491.171-.559.156-.636-.139-.068-.261-.151-.3-.394-.166s-.33.094-.412-.164c-.068-.213-.2-.293-.37-.227a.34.34,0,0,1-.413-.162.414.414,0,0,0-.486-.175c-.235.061-.338,0-.338-.185,0-.326-.171-.341-.768-.07-.381.174-.47.161-.611-.091a.382.382,0,0,0-.491-.192c-.233.074-.325.022-.325-.182s-.1-.258-.356-.191-.38,0-.437-.214a.287.287,0,0,0-.4-.223.331.331,0,0,1-.419-.17.331.331,0,0,0-.4-.174c-.225.059-.355-.062-.493-.46-.147-.42-.264-.522-.523-.454a.31.31,0,0,1-.431-.221c-.09-.283-.145-.289-.671-.07s-.58.216-.676-.087c-.067-.211-.2-.291-.369-.225a.343.343,0,0,1-.418-.171.347.347,0,0,0-.41-.173.451.451,0,0,1-.473-.2c-.176-.24-.283-.26-.572-.105-.545.292-.676.236-.9-.381-.206-.571-.207-.571-.774-.334-.5.211-.58.207-.672-.032-.1-.262-.409-.255-1.139.026-.178.068-.269.01-.269-.168s-.147-.272-.422-.272c-.259,0-.422-.1-.422-.248s-.1-.21-.278-.141a.434.434,0,0,1-.5-.191c-.12-.164-.3-.245-.409-.18s-.284-.007-.4-.162c-.17-.232-.288-.248-.7-.091s-.531.142-.7-.091c-.113-.154-.291-.227-.4-.162s-.284-.008-.4-.162c-.17-.233-.288-.248-.7-.091s-.531.141-.7-.092c-.113-.154-.291-.227-.4-.162s-.289-.015-.408-.177c-.183-.251-.3-.267-.756-.108s-.557.144-.64-.071c-.1-.251-.415-.241-1.136.036-.181.07-.268.009-.268-.188,0-.213-.1-.266-.357-.2s-.38,0-.438-.218c-.075-.286-.127-.292-.651-.074-.71.3-.75.3-.75-.015s-.388-.328-.88-.065c-.281.151-.381.134-.5-.084a.594.594,0,0,0-.468-.273.413.413,0,0,1-.384-.206c-.053-.159-.211-.163-.69-.016-.511.157-.62.149-.62-.047,0-.277-.313-.3-.909-.076-.35.133-.442.106-.525-.157-.094-.3-.142-.3-.7-.069s-.6.23-.684-.081-.126-.314-.656-.093c-.71.3-.75.3-.75-.015s-.154-.314-.769-.08c-.368.14-.5.117-.668-.12s-.279-.263-.674-.083-.491.168-.676-.085-.277-.266-.691-.077-.5.178-.684-.069-.295-.255-.75-.1c-.678.236-.659.238-.659-.065s-.155-.315-.77-.081c-.359.137-.5.118-.647-.091-.174-.238-.264-.238-.929,0-.92.324-1.031.324-1.031,0,0-.185-.1-.234-.326-.162a.375.375,0,0,1-.475-.165c-.121-.217-.24-.234-.614-.092-.626.238-.78.223-.78-.077,0-.139-.029-.253-.064-.253s-.386.114-.781.253c-.894.316-1.182.32-1.182.016,0-.194-.109-.2-.6-.052s-.632.138-.747-.048-.266-.2-.748-.048-.6.142-.6-.052c0-.277-.312-.3-.909-.076-.347.132-.442.105-.522-.147-.092-.291-.157-.286-1.227.1-1.022.371-1.149.384-1.327.141s-.274-.239-1.04.063c-.81.319-.849.32-.99.026s-.237-.272-1.612.241-1.468.53-1.548.226c-.11-.423-1.239-.022-1.163.413.07.4-.319.556-.558.23-.166-.228-.3-.249-.66-.111-.62.236-.77.218-.77-.092s.178-.363-3.333.926c-2.391.878-2.673.947-2.776.682s-1.174.092-9.192,3.009c-7.735,2.813-9.1,3.264-9.241,3.045-.249-.395-1.347-.028-1.232.412.107.41-.349.591-.617.244-.18-.233-.429-.18-2.206.47-1.82.666-2.011.706-2.083.43a.288.288,0,0,0-.4-.219.33.33,0,0,1-.418-.169.331.331,0,0,0-.419-.17c-.3.078-.3.125-.078.667.243.581.242.583-.3.811-.593.249-.8.2-.8-.18,0-.194-.072-.211-.327-.075s-.346.113-.428-.145a.312.312,0,0,0-.41-.24.33.33,0,0,1-.41-.183c-.142-.371-.67-.14-.568.249.109.415-.38.573-.646.208-.183-.25-.279-.262-.674-.082s-.49.169-.669-.076a.428.428,0,0,0-.487-.18c-.18.07-.278.02-.278-.141,0-.314-.28-.313-1.187.007a3.135,3.135,0,0,1-.751.211c-.015-.024-.162-.405-.325-.846-.344-.927-.263-.9-1.411-.464-1.049.4-1.391.423-1.391.1,0-.154-.118-.206-.336-.15a.333.333,0,0,1-.433-.166.33.33,0,0,0-.4-.174.331.331,0,0,1-.41-.2c-.073-.189-.216-.244-.446-.171-.247.078-.338.031-.338-.177s-.1-.259-.356-.191-.38,0-.437-.214a.288.288,0,0,0-.4-.223.331.331,0,0,1-.421-.178.27.27,0,0,0-.361-.162.351.351,0,0,1-.42-.187.381.381,0,0,0-.486-.184c-.233.074-.325.023-.325-.181s-.1-.258-.352-.192c-.278.072-.4-.026-.587-.472s-.311-.545-.577-.475c-.243.064-.341.007-.341-.194s-.115-.267-.365-.231c-.277.04-.4-.068-.529-.454-.218-.667-.169-.645-.842-.364l-.589.246-.156-.532c-.115-.4-.251-.528-.526-.518-.2.007-.37-.088-.37-.211s-.181-.225-.4-.225a.556.556,0,0,1-.5-.247c-.083-.217-.168-.218-.675-.006-.542.227-.586.221-.666-.088s-.123-.315-.682-.082l-.595.249-.2-.6c-.144-.437-.27-.572-.463-.5a.345.345,0,0,1-.4-.115c-.209-.328-.171-.47.122-.47.164,0,.243-.113.2-.3s-.195-.282-.435-.256-.373-.051-.373-.231-.1-.244-.356-.177-.38,0-.437-.214a.286.286,0,0,0-.4-.223.332.332,0,0,1-.422-.178.272.272,0,0,0-.348-.167.451.451,0,0,1-.463-.2c-.176-.24-.284-.26-.572-.106-.549.294-.718.233-.915-.33-.134-.385-.262-.5-.491-.439a.308.308,0,0,1-.407-.222.31.31,0,0,0-.43-.216c-.258.068-.376-.034-.522-.454-.14-.4-.268-.52-.5-.459a.312.312,0,0,1-.412-.239c-.079-.251-.169-.285-.409-.156s-.326.1-.4-.172c-.088-.337-.09-.337-.953,0-.771.3-.875.311-.967.074a.328.328,0,0,0-.41-.186.308.308,0,0,1-.405-.222.309.309,0,0,0-.426-.217.331.331,0,0,1-.429-.173c-.081-.211-.2-.226-.606-.083-.35.122-.561.123-.682,0-.25-.25-.041-.5.522-.623.391-.086.635-.764.276-.764-.4,0-1.1.437-1.1.686,0,.583-1.074.906-1.228.37-.047-.163-.14-.429-.207-.591-.086-.21-.042-.3.15-.3.158,0,.271-.14.271-.336,0-.245-.1-.325-.373-.295-.24.026-.394-.065-.434-.255s.04-.3.2-.3c.294,0,.331-.142.123-.471-.107-.167-.25-.175-.626-.032a.631.631,0,0,1-.92-.627c0-.123-.187-.221-.422-.221-.25,0-.422-.1-.422-.237,0-.157-.118-.207-.347-.147s-.312.174-.232.364c.259.611.265.988.018,1.083-.189.072-.36-.19-.675-1.031-.349-.936-.482-1.122-.774-1.089-.219.025-.354-.056-.354-.211,0-.3-.119-.31-.816-.067-.44.153-.5.237-.367.489s.087.324-.24.406c-.221.056-.524.148-.672.2-.182.07-.269.009-.269-.187s-.1-.266-.341-.2c-.268.07-.394-.036-.583-.488l-.241-.577-1.4.511c-1.24.452-1.423.481-1.591.25-.151-.205-.287-.223-.645-.087-.6.228-.77.217-.77-.049,0-.671-.414-.855-1.27-.564-.99.338-.925.338-.925.006,0-.191-.1-.246-.341-.184-.266.07-.394-.035-.578-.475s-.309-.544-.587-.472c-.256.067-.351.013-.351-.2s-.1-.268-.338-.205a.415.415,0,0,1-.485-.173c-.12-.215-.241-.229-.672-.079s-.552.137-.675-.084-.239-.237-.706-.074a1.91,1.91,0,0,1-.584.151c-.015-.024-.124-.285-.241-.58-.148-.373-.293-.507-.472-.439a.346.346,0,0,1-.41-.17c-.125-.223-.241-.238-.68-.085s-.564.137-.735-.1a.439.439,0,0,0-.459-.185.276.276,0,0,1-.359-.177c-.071-.185-.216-.24-.444-.168s-.338.031-.338-.157c0-.309-.15-.327-.77-.092-.36.137-.494.117-.649-.095-.177-.241-.308-.227-1.326.143-1.064.386-1.136.392-1.227.106-.083-.261-.169-.278-.621-.121a.678.678,0,0,1-.979-.68c0-.157-.117-.21-.338-.152a.414.414,0,0,1-.486-.175.32.32,0,0,0-.587.253c.064.244-.052.357-.51.5-.573.176-.6.166-.7-.3-.136-.622-.281-.7-.863-.481-.383.146-.512.129-.671-.09-.18-.245-.274-.24-1.055.057-.837.318-.86.318-.958.008-.094-.294-.143-.3-.688-.072-.588.246-.911-.026-.911-.767,0-.211-.232-.2-.755.039-.362.165-.467.151-.644-.091-.2-.27-.285-.261-1.333.133-.983.37-1.134.39-1.223.157a.331.331,0,0,0-.428-.18c-.252.066-.35-.025-.433-.4-.144-.654-.264-.7-1.1-.4-.944.333-.949.332-1.153-.254s-.7-.687-.7-.125M70.442,3.764c-.4.156-.457.257-.368.615.164.668.333.739,1.122.476.844-.281,1.11-.807.407-.807-.273,0-.434-.094-.434-.253,0-.288-.068-.291-.727-.031m5.391.759a.3.3,0,0,1,.36.217c.053.254-1.062.827-1.611.827-.3,0-.252-.5.058-.618a.27.27,0,0,0,.163-.361c-.143-.372.289-.594.529-.273a.571.571,0,0,0,.5.208M68.509,6.474c-.383.223-.615-.261-.254-.531.243-.181.306-.168.4.084a.356.356,0,0,1-.143.447m-1.73,1.7a.46.46,0,0,1-.184.356.314.314,0,0,1-.416-.416c.165-.268.6-.225.6.06m65.428.275a.345.345,0,0,1-.295.293c-.291.056-.412-.3-.18-.534a.288.288,0,0,1,.475.241M65.6,8.683a.379.379,0,0,1-.24.317c-.3.117-.518-.407-.238-.58.257-.159.478-.037.478.263m-2.739,1.629c.065.338-.99.737-1.176.445-.205-.323-.171-.383.327-.579.563-.222.787-.186.849.134M294.949,26.873c-.321.155-.343.236-.185.689.143.411.128.551-.075.7-.319.234-.146.769.2.626a.483.483,0,0,0,.253-.426c0-.208.185-.387.522-.506.512-.181.517-.195.3-.733-.239-.577-.416-.638-1.013-.349m-1.281.44c-.329.067-.36.179-.145.52a.265.265,0,0,0,.4.084.331.331,0,0,0-.253-.6m4.975,2.88a.33.33,0,0,0,.292.584.288.288,0,0,0,.223-.4c-.093-.354-.188-.387-.515-.18m-12.7.555c.007.284-.649.254-.724-.033-.051-.2.021-.331.2-.368a.444.444,0,0,1,.528.4M297.425,33.3c-.233.1-.442.2-.466.214a1.89,1.89,0,0,0,.147.566c.221.635.776.681.688.057-.036-.257.034-.376.223-.376a.213.213,0,0,0,.222-.282c-.071-.365-.293-.414-.814-.179m-2.786,1.476c0,.362-.491.31-.562-.059-.044-.226.025-.295.251-.251a.363.363,0,0,1,.311.31m4.411.639a.411.411,0,0,0,.057.363c.19.307.7.1.576-.238a.371.371,0,0,0-.633-.125m-3.837.735c.236.677.242.65-.136.65-.318,0-.774-.874-.565-1.083.238-.238.53-.059.7.433M310.257,46.26c0,.254.088.345.3.3a.306.306,0,0,0,0-.611c-.207-.04-.3.051-.3.306M23.1,55.716c-.347.14-.257,1.357.1,1.347.27-.007.549-.321.441-.5-.069-.111.007-.294.173-.415.568-.415.038-.739-.714-.436m-2.588,3.207c0,.255.089.346.3.306a.306.306,0,0,0,0-.611c-.207-.04-.3.051-.3.3M326.528,64.77c-.135.055-.1.314.114.873.31.806.906,1.047,1.39.562.239-.238-.037-.57-.4-.476-.235.062-.357-.058-.5-.492-.189-.572-.246-.616-.608-.467M20.482,93.833a.306.306,0,0,1-.611,0c-.04-.208.051-.3.306-.3s.345.088.3.3m.1,3.855c.14.365.143.358-.221.453s-.629-.476-.292-.615.407-.113.513.162M22.6,97.68c.128.333-.386.545-.576.238a.411.411,0,0,1-.057-.363.371.371,0,0,1,.633.125m-.126,2.3c-.419.234-.337.644.129.644a.554.554,0,0,1,.5.25.264.264,0,0,0,.339.157c.323-.124.536.246.284.494-.152.149-.254.122-.43-.116-.127-.172-.316-.259-.422-.194s-.289-.016-.409-.18a.446.446,0,0,0-.478-.2.243.243,0,0,1-.343-.184c-.045-.156-.136-.414-.2-.572-.17-.411.93-.892,1.157-.506.1.17.061.3-.126.4m4.031,5.036c0,.362-.491.31-.562-.06-.044-.226.025-.294.251-.251a.365.365,0,0,1,.311.311m-3.124.41c0,.352-.35.515-.523.242-.229-.361-.181-.485.185-.485.186,0,.338.109.338.243m319.075,3.653c.189.5.175.528-.395.766-.468.2-.568.315-.485.578s.026.331-.226.331c-.452,0-.606-.461-.2-.591.266-.084.294-.175.16-.526-.235-.618-.2-.874.135-.961.642-.168.819-.1,1.008.4m2.1,2.532c-.28.112-.374.256-.315.481a.29.29,0,0,1-.233.405c-.314.082-.082,1.167.245,1.142.631-.047.955-.259.955-.623,0-.259.1-.4.272-.4.192,0,.236-.086.149-.3-.066-.162-.159-.428-.206-.591-.094-.327-.275-.351-.867-.114m-1.871,19.4c-.307.19-.1.7.238.576a.372.372,0,0,0,.125-.633.41.41,0,0,0-.363.057m-3.124,1.372a.3.3,0,0,1-.45.371.324.324,0,0,1,.188-.555.377.377,0,0,1,.262.184M37.883,138.468c-.342.217-.435.186-.53-.177-.057-.216.009-.35.191-.388.372-.079.643.372.339.565m300.311,4.751c.247.587.2.8-.155.8-.333,0-.665-1.034-.389-1.21.3-.19.29-.2.544.407M46.285,168.134a.408.408,0,0,0,.057.362c.19.307.7.1.576-.238a.371.371,0,0,0-.633-.124m13.529,3.02c-.334.088-.369.344-.133.965.157.415.179.42.747.183l.585-.245.279.841c.233.7.348.842.688.842.263,0,.409.1.409.271,0,.192.086.236.295.15.163-.067.429-.16.591-.207.343-.1.358-.2.124-.813-.122-.321-.262-.429-.481-.371s-.361-.065-.517-.5-.281-.553-.512-.479a.3.3,0,0,1-.411-.181.334.334,0,0,0-.442-.19c-.218.057-.336,0-.336-.149,0-.234-.3-.275-.886-.122m-8.18.33c-.3.123-.063.567.3.567s.365-.023.217-.408c-.106-.276-.178-.3-.521-.159m12.992,1.3c-.606.177-.626.224-.376.881.136.358.117.494-.09.646-.474.346-.009,1.314.532,1.108.7-.265.813-.194,1.125.684l.3.844.576-.241c.53-.222.585-.216.675.067a.308.308,0,0,0,.406.228.329.329,0,0,1,.41.184c.12.313.621.175.621-.171,0-.138-.174-.235-.422-.235s-.422-.1-.422-.243c0-.386.369-.511.595-.2.285.39.81.186.587-.229-.126-.237-.089-.321.173-.389.228-.06.3-.176.228-.366a.279.279,0,0,0-.355-.184c-.761.292-1.06.294-1.06.007,0-.208-.1-.266-.338-.2a.415.415,0,0,1-.484-.174c-.122-.218-.239-.229-.7-.068a1.905,1.905,0,0,1-.587.151c-.314-.422-.361-1.137-.08-1.226.434-.137.234-.59-.262-.59-.215,0-.416-.1-.446-.22-.041-.166-.188-.18-.6-.06m-10.306.423a.343.343,0,0,0-.116.4.271.271,0,0,1-.164.361c-.321.123-.343.429-.038.546a.661.661,0,0,0,.916-.848c-.2-.634-.251-.677-.6-.457m16.089,2.81c-.824.322-1.006.461-.973.748.025.217-.056.352-.211.352-.316,0-.314.094.02,1.073.214.63.333.776.571.7a.3.3,0,0,1,.406.182.333.333,0,0,0,.442.19c.218-.057.336,0,.336.15s.172.237.422.237.422.1.422.252.137.236.37.211c.3-.033.427.108.657.719s.358.75.643.707c.242-.036.356.038.356.231s.1.258.338.195a.416.416,0,0,1,.484.171c.114.2.249.225.632.1.637-.212.761-.725.176-.725-.368,0-.466-.139-.789-1.109-.277-.83-.432-1.085-.621-1.013-.766.294-1.064.3-1.064.01,0-.209-.1-.266-.338-.2a.417.417,0,0,1-.486-.175.341.341,0,0,0-.407-.164c-.328.125-.552-.391-.252-.58.134-.085.3-.029.428.146.167.224.307.248.674.12.58-.2.758-.8.214-.718-.52.079-1.023-1.027-.527-1.157a.291.291,0,0,0,.231-.411c-.06-.231-.179-.3-.4-.227a.3.3,0,0,1-.419-.164c-.125-.325-.095-.329-1.332.155m12.357.2c-.232.232-.111.59.18.534a.347.347,0,0,0,.3-.294.287.287,0,0,0-.475-.24m5.731,3.233a.411.411,0,0,0,.057.363c.19.307.7.095.576-.238a.371.371,0,0,0-.633-.125m3.125.862c-.334.21-.021.677.362.539.252-.091.265-.154.084-.4-.141-.19-.3-.239-.446-.143m-15.441,1.645c-.232.232-.111.591.18.535a.347.347,0,0,0,.3-.294.288.288,0,0,0-.475-.241m.9,1.242c0,.254.089.346.3.306a.306.306,0,0,0,0-.611c-.207-.04-.3.051-.3.305m1.4.169a.414.414,0,0,1-.175.486c-.382.214-.147.692.285.579.249-.066.348-.011.348.193s.092.255.325.181a.38.38,0,0,1,.486.184.35.35,0,0,0,.422.186c.421-.162-.232-1.73-.713-1.711-.193.007-.351-.088-.351-.211s-.161-.225-.358-.225c-.274,0-.337.079-.269.338m4.516,3.4c-.532.212-.539.221-.421.529a.329.329,0,0,0,.4.179.332.332,0,0,1,.41.2c.072.188.216.243.445.171.248-.079.339-.031.339.177s.1.258.356.191.38,0,.441.229c.068.261.147.289.408.15.178-.1.272-.257.209-.36s.012-.278.167-.392c.334-.244.194-.778-.168-.639a.441.441,0,0,1-.457-.192c-.182-.249-.274-.258-.686-.07s-.5.178-.687-.072c-.24-.328-.2-.323-.759-.1m3.453,1.5a2.916,2.916,0,0,0,.43,1.577c.221.241,1.849-.379,1.74-.662a.465.465,0,0,0-.418-.243.475.475,0,0,1-.424-.258c-.063-.164-.216-.221-.418-.158a.3.3,0,0,1-.42-.163c-.116-.3-.334-.345-.49-.093M291.338,194.3c0,.116-.131.211-.3.211-.436,0-.8-1.136-.39-1.224.266-.058.674.54.691,1.013m-208.29-.865c-.323.132-.069.709.273.62a.288.288,0,0,0,.219-.4c-.086-.329-.15-.357-.492-.217M248.881,204.3a.352.352,0,0,1-.3.306c-.207.04-.3-.052-.3-.306s.088-.345.3-.3a.35.35,0,0,1,.3.3"/></g></g></g></svg>