<?xml version="1.0" encoding="utf-8"?>
<!-- Generator: Adobe Illustrator 25.2.3, SVG Export Plug-In . SVG Version: 6.00 Build 0)  -->
<svg version="1.1" id="Capa_1" xmlns="http://www.w3.org/2000/svg" xmlns:xlink="http://www.w3.org/1999/xlink" x="0px" y="0px"
	 viewBox="0 0 850.4 645" style="enable-background:new 0 0 850.4 645;" xml:space="preserve">
<style type="text/css">
	.st0{fill:#0136F5;}
	.st1{fill:#E95846;}
	.st2{fill:#FFFFFF;}
</style>
<path class="st0" d="M371.3,560.1l-3.6-3c-0.4,0.4-1,1-1.6,1.5c-1.8-0.6-3.3-1-4.8-1.4c-1.4-0.4-4-1.3-4.3-0.7
	c-1.9,2.8-2.9-0.4-4.3-0.4c-7-0.3-13.9-0.5-20.6-3c-1.6-0.7-4,1-7.1,1.8c-0.1-0.1-1.1-0.7-2-1.2c-0.6,0.5-1.1,1.2-1.8,1.9
	c-0.5-1.2-1-2.1-1.5-3.3c-1.4-0.1-2.8-0.1-4.2-0.1c-0.5-1.1-1-2-1.8-3.6c-3.2,0.7-6.5,1.5-9.9,2.1c-0.8,0.2-1.8-0.7-2.6-0.6
	c-8.3,0.3-15.2-5.3-23.5-5.4c-1.4,0-2.7-2.4-5-4.6c-8.8,0.4-17.4-2.5-21.7-13.1c-0.6,0.8-1,1.3-1.7,2.3c-2-1.3-4-2.6-6.9-4.4
	c-6.8,0.8-12.7-4.6-19.8-7.4c-0.1,0.9-0.3,1.7-0.5,2.9c-1.7,0.8-3.8,1.5-6.2,2.5c-0.2-0.5-0.6-1.4-1.1-2.7c-1.4-0.1-3-0.2-4.5-0.3
	c-0.4-1-0.7-1.8-1-2.8l-4.2,0.4c-0.5-1.3-1-2.2-1.6-3.6c-4.7,1.4-7-2.9-9.8-4.8l-3.7,0.3c-4.7-6.3-14.2-5.7-19-12.7l-3.8,0.3
	c-1.9-1.8-3.8-3.9-6.5-6.9c-1.7-0.4-4.7-0.9-8.4-1.6c-1.4-5.6-8.6-4.2-12.2-8.2l-0.3-3.8c-2.5-0.8-5.6-0.1-7.7-2.7
	c-1.4-1.9-3.2-3.3-5.6-5.9c0,0-0.3-1.4-0.5-2.9c-5-2.8-9.9-5.6-14.9-8.4l-0.7-8.5l-6.8,0.6c-4.5-6.1-9.2-12.2-14.5-19.3l-0.3-3.8
	c-6.6-1.7-6-7.3-6.4-11.3c-1.9-3-3.1-5-4.2-6.7c0.5-3.9,0.8-7.1,1.4-11.9c-1.8,1.6-2.2,2.1-3.1,2.9c-1.3-1.6-2.7-3.2-3.9-4.7
	c1.1-0.3,2.7-0.6,5.9-1.4c-2.6-0.6-3.5-0.8-4.8-1.2l-0.3-4c-3.6-0.1-4.5-3.1-6.1-5.2c-0.5-0.6,0.3-2,0.8-4.1
	c-1.4-2.2-6.4-1.7-6.6-6.7c0.1-0.1,0.6-1.1,1.1-1.9c-3.4-3.1-3.4-3.1-7.3-3.7c-0.7-5-1.6-9.9-2.4-15.2c0,0,0.8-0.3,1.8-0.6
	c-0.5-1.6-1-3.3-1.5-5c-0.5-1.6-1.1-3.1-1.7-4.9c0.5-0.2,1.6-0.6,2.5-1.1c0.2-0.5,0.3-1,0.4-1.6c0.4-2.7-1.8-4.8-2.2-7.1
	c-0.4-2.4,0.7-4.9,1-7.4c0.6-4.5-3.6-6.8-4.5-10.6c-0.8-3.3,4.5-5.8,1.3-9.4c1-0.5,1.9-1,3-1.6c-1.1-4.6-2.2-9.3-3.3-13.7
	c5.9-6.4,4.1-14.9,7.6-21.6c-1.3-2.6-4.3-5.2-0.7-8.3c-1.2-0.9-2.3-1.9-4-3.3c1.1-0.6,1.7-1,3.1-1.7c1.4-3.9,3.1-8.6,4.7-13.3
	c-3.9-2.7,3-6.5-1.1-8.4c-2.9-2.4-5.6-4.5-8.9-7.2c0.7-4.2-3.4-6.9-5.7-10.8c-0.5-0.9-2-1.7-2.9-1.7c-4,0.5-6-2-7.5-4.8
	c-1.3-2.3-2.5-3.9-4.3-3.4c-2.8-3.4-4.9-6.3-7.4-8.9c-4.7-4.7-10.2-8.9-14.3-14c-3-3.9-6.8-7.3-8-12.6c-0.5-2.1-2.4-3.7-3.9-5.7
	c-1.6-0.2-3.3-0.3-4.9-0.5c-0.9-1.4-1.8-2.9-2.9-4.9c0.9-2.1,2.1-4.6,3.4-7.4c6.6-1,13,0.9,19,2.6c3.5,1,5.2,0,7.7-1.5
	c1.2,0.5,2.5,1.6,3.7,1.5c7.2-1,13.9,2.5,21,2.2c1.6,0,3.3,1.2,4.8,0.9c3.3-0.6,6.2,0.4,9.2,1.1c5.4,1.4,11.1,1.4,16.6,2.2
	c10,1.3,20.2,0.6,29.9,3.8c6.6,2.2,10.2-3.1,14.7-6.1l7-4.4c0.2-0.5,0.2-1.1,0.4-1.6c0.1-0.3,0-0.6,0.2-1.6c2,0.1,4,0.3,6.6,0.4
	c-0.3-0.8-0.7-2.1-1.4-4.1c4-1.3,8.4-2.6,13.3-4.1c0.1-0.3,0.1-1.1,0.3-2.5c2-0.4,4.2-0.7,6.2-1c0.5-1.4,0.8-2.6,1.5-4.6
	c2.2,2.6,3.8,4.4,5.7,6.5c0.3-5.8,4.9-6.8,8.5-8.9c0.3-1,0.5-2.2,0.8-3.1c1.4,0.6,2.6,1.2,4.1,1.9c0.4-1.5,0.7-2.7,0.9-3.7
	c6.3,2.7,11.1-0.8,16.5-3.2c2.3,1.7,5,1.6,7.5,0c3.1-1.9,6.2-2.2,9.7-0.7c1.5,0.6,3.6,0.5,5.1,0.1c3.9-1.2,7.9,1.2,11.8-0.5
	c2.5,3.1,3.9-0.5,6-0.9c2,0.8,4.2,1.8,6.6,2.9c0.3-1,0.5-2.1,1-4.1c0.7,1.4,1.1,2.2,1.6,3.5c2.4,1.6,4.4,0.3,5.7-1.7
	c4.7,0.9,9,1.1,12.9,2.6c4.4,1.6,8.5,0.6,12.8,0.6c0.5,1.1,1,2,1.6,3.6c1.8-0.7,3.8-1.3,5.8-1.9c0.4,0.9,0.9,1.8,1.4,3
	c0.7-0.8,1.3-1.4,1.8-2c0.6,0.5,1.4,1.1,2.5,1.9c1-0.8,2.1-1.6,3.7-2.8c3.1,2.7,6.5,2.4,9.2-1c1.5,2,2.6,3.6,4,5.3l6.2-0.5
	c1.4,1.7,2.5,3.2,4.1,5.4c8.6-1.6,16.9,2.3,26,6.3c-0.1-0.3,0.4,0.7,1,2.3c1.2-0.5,2.3-1,3.3-1.4c2.4,2,5,4.2,6.4,5.5
	c7,0,11.6,0.9,16.3,3.8c3.8,2.5,8.1,4.9,13.2,4.8c1.8-0.1,3.7,0.9,5.5,1.4c1.6,0.5,3.3,1.3,4.8,1.1c4.5-0.8,8.3,0.8,12.1,2.7
	c4.4-2,8.6-4.1,13.4-5c6.2-1.2,12.1-4.3,18.3-5.8c7.4-1.8,13.1-7.8,20.9-8.1c3.3-5.3,10.6-3.5,14.2-8.3c0.9,0.5,1.8,1.1,3.8,2.4
	c0.6-1.9,1.3-3.5,1.2-3.4c5.3-2.1,8.9-3.6,12.5-5c2.5-1.9,6.3,0,8.4-3.3c1.8,0.7,3.6,1.6,5.4,2.4c2.5-1.7,5.1-2.4,8.3-1.2
	c1.8,0.7,4.2,1,5.8,0.3c1.7-0.8,3.9-3,5.3-1.9c1.9,1.6,3.7-0.8,4.5,0.2c1.7,2,3.4-2.8,4.6,0.4c4.8-1.2,9.6-2.4,15-3.9
	c0.3,0.3,1.4,1.3,2.7,2.6c2.7-0.2,5.6-0.9,8.6-0.6c12,0.9,24.2-0.7,36.2,3.2c4.6,1.5,9.9,1.6,14.5,3.2c1.3,0.5,2.8,0.6,3.9,1.2
	c6.5,3.2,14,2.9,20.7,5.4c2.2,0.8,5.3-1.1,9.2-1.9c2.5,0.7,5.9,5.2,10.6,0.1c1.9,2.6,3.9,5.3,6.5,8.8c2.1-0.6,5.2-1.5,8.5-2.3
	l0.8,8.7c1.5-0.9,2.6-1.5,4.1-2.5c2,1.6,4.2,3.4,6.5,5.3l0.5-0.9c3.5,1.6,6.9,3.3,10.5,5c0.7-0.6,1.4-1.3,2.7-2.5
	c1.2,1.7,2,3,2.9,4.3c1,1.3,2.2,2.5,4,4.6c2,0.8,5,2.1,8.3,3.6c-0.7,1.1-1.2,1.7-1.7,2.5c3.1,0.8,6.1,1.7,8.8,2.3
	c0.4,1.3,0.6,2.1,0.9,2.9c2.2-0.1,4.2-0.2,7.1-0.3c-0.7,2.4-1.1,4.4-2.2,8.1c2-1.8,2.6-2.3,3-2.8c3.8,1.1,4.2,6,8.6,6.6
	c0.3,1.9,0.5,3.9,0.8,5.5c4.4,3.3,9.3,5.5,10.1,11.8c0.2,1.3,2.9,2.3,5.6,4.1c0.5,0.9,1.7,3.1,3,5.3c0.7-1.5,1.4-2.8,2.4-5
	c3.1,3.5,4.7,6.6,4.5,11c1,0.2,2,0.4,3.5,0.6l0.3,3.6c3.1,5.3,5.4,9.4,7.8,13.2c0.9,0.1,1.7,0.3,2.8,0.4c-0.6,1-1.1,1.6-2,2.8
	c1.8,0.1,3.4,0.2,5.3,0.3l0.8,9.6c1.3,0.3,2.4,0.6,3.7,0.9l0.5,6.1c1.1,0.5,2.8,1.2,4,1.7l0.6,6.7l4.1,3.5l0.6,7.4
	c1.1,0.2,1.9,0.3,3.2,0.5l0.9,10.2c3.6,5.3,6.5,9.6,9.6,14.1c-1.8,1.7-3.1,2.9-3.9,3.7c0,5.2,1.5,9.7-0.5,14.4
	c-0.8,1.9-0.5,5.3,0.6,6.9c1.6,2.3,0.3,3.9,0.4,5.8c0.2,1.8,1.7,3.5,2,5.3c0.2,1.4-1.2,3.6-0.6,4.4c1.5,1.7,0.6,2.8,0.4,4.5
	c-0.5,4.7,0.1,9.3,0.3,15.1c-1.4,1-3.6,2.6-4.2,3.1c-0.4,13.7-0.1,25.3-4.8,36.5c1.4,0.7,2.7,1.3,4.8,2.2c-7.9,6.4-7.3,16.7-13,24
	l0.4,4.8c-1.8,1.6-3.9,2.7-4.9,4.5c-1,1.8-0.3,4.7-1.5,6.3c-2.6,3.6-5.8,6.7-9.4,10.7l0.3,3.5c-1.3,0.5-2.2,1-3.7,1.6
	c0,1.2,0.1,2.7,0.1,4.7c-1.3,0.2-2.7,0.4-4.7,0.7c-0.9,5.2-6.6,7-9.1,11.3c-2.6,4.5-9,5.6-9.7,11.5l-12.6,8c0.7,0.2,1.8,0.7,4,1.5
	c-3.1,0.6-5.1,1-7.5,1.5c-0.1,0.7-0.3,1.5-0.4,2.4c-5.7,3.4-5.7,3.4-11.6,1.8c-0.9,1.9-2,3.8-3.2,6c-1.8-0.7-3.6-1.3-5.7-2
	c-8.8,8.1-21,9.8-30.9,17.6l-7,0.6c-0.2,1.1-0.2,1.9-0.4,3.2c-2.7,0.4-5.4,1.7-8.2-0.9c-0.9,1.7-1.8,3.5-2.8,5.3
	c-3.4,1.1-7.1,2.2-10.8,3.3c-0.7-1.4-1.1-2.4-1.6-3.5c-3.1,2.2-6,3.8-9.8,4.6c-5.4,1-10.6,3.3-16,5.2c1.1,1,1.7,1.6,2.4,2.2
	c-1.4,0.9-2.9,1.9-4.3,2.7c-4.4-4.9-9.3,5.2-14-0.2c-1,2.2-5.3,1-4.5,4.9c-0.4,0.1-1.1,0.5-1.2,0.3c-1.8-2-4-1.2-5.8-0.6
	c-3.1,0.9-6,3-9.2,3.7c-3.6,0.7-7.4,0.4-11.5,0.6c-0.2,0.4-0.7,1.7-1.2,3.3c-1.4-0.6-2.6-1.2-4.1-1.9c-2.5,1.1-5.3,2.4-8.2,3.7
	c-5.9-2-12.2,0-18.4,0.6c-4,0.4-7.8,2.5-12.1,4c-0.1-0.1-0.7-0.5-1.4-1.1c-0.6,0.7-1.3,1.3-2,2.1c-1.2-0.5-2.4-0.9-3.8-1.5
	c-0.1,0.9-0.3,1.7-0.3,2.6c-0.4,0.2-0.8,0.9-1.2,0.8c-3.9-0.2-7.9-0.4-11.9-0.8c-1.5-0.1-3.8-1.2-4.3-0.6c-1.7,2.1-2.4-0.3-3.5-0.6
	c-1.9-0.6-2,2.7-4.3,1.4c-1.2-0.6-4.1-0.2-4.8,0.3c-2.2,2.1-3.4-2.2-5.3-0.4c-2.5,2.5-5.5,0.3-8.3,0.6c-1.2,0.1-2.6-1.3-3.8-1.2
	c-1.8,0.1-3.6,0.8-6.1,1.4c-0.4-0.1-1.8-0.7-3.1-0.7c-2.8-0.3-5.2,2-8.4,0.9c-2.5-0.9-5.4,0-8.3-1c-2.9-1-6.4,0.3-10.2,0.6
	c-0.4-0.9-0.8-1.8-1.2-3.1c-2.3,1.2-4.6,3.2-7.3,0.6c-2.4,2.2-5.5-1.4-7.1,0.3c-2.8,2.9-5.3-1.6-7.6,0.6c-0.7-1.1-1.4-2.4-2.2-3.8
	c-1.5,0.9-3,1.8-4.8,2.9c-1.5-1.7-2.8-3.3-4.5-5.2c-3.4-0.4-7.6,1.8-11.4-1C381.4,560.5,376.4,558.8,371.3,560.1L371.3,560.1z"/>
<path class="st1" d="M145,212.4c0.6-0.4,1.2-0.4,1.8-0.4c0.5,0,0.9,0.2,1.3,0.4s0.7,0,1,0.2s0.6,0.3,0.9,0.2c0.3,0,0.5,0.1,0.8,0.1
	c0.3,0.1,0.6,0.2,0.9,0.2c0.1,0,0.2,0.1,0.4,0.1c0.4,0.1,0.7,0.3,1.1,0.2c0.1,0,0.2,0.1,0.3,0.1c0.4,0.1,0.7,0.3,1.1,0.2
	c0.2,0,0.3,0,0.5,0.1c0.3,0.1,0.7,0.3,1,0.2c0.1,0,0.2,0.1,0.4,0.1c0.4,0.1,0.7,0.3,1.1,0.2c0.1,0,0.2,0.1,0.3,0.1
	c0.4,0.1,0.7,0.3,1.1,0.2c0.2,0,0.5,0.1,0.8,0.1c0-0.2,0-0.3-0.1-0.4l-1.5-3c-0.6-1.1-1.1-2.1-1.8-3.2c-0.5-0.8-0.8-1.7-1.3-2.6
	c-0.4-0.7-0.8-1.4-1.2-2.2c-0.4-1-1.1-1.9-1.5-3.2c0-0.3,0.1-0.8,0.1-1.3c1-1,1.5-1.2,2.5-1.2c0.3,0.2,0.5,0.3,0.8,0.4v0.1
	c0.4,0.4,0.6,0.9,0.9,1.4c0.7,1.2,1.3,2.3,1.9,3.5c0.3,0.6,0.5,1.2,0.8,1.7c0.3,0.6,0.6,1.1,0.9,1.7c0.4,0.7,0.7,1.5,1.2,2.1
	c0.1,0.2,0.1,0.4,0.2,0.5c0.6,0.9,1,1.8,1.5,2.7c0.4,0.7,0.7,1.4,1,2.1c0.2,0.5,0.5,1,0.8,1.6c0.1-0.3,0.3-0.6,0.3-0.8
	c0-0.4,0.2-0.8,0.3-1.1c0.1-0.4,0.2-0.7,0.4-1s0.3-0.7,0.3-1.1c0.1-0.4,0.2-0.7,0.4-1s0.3-0.8,0.4-1.2c0.1-0.4,0.3-0.9,0.4-1.3h0.2
	c0.2-0.5,0.3-1,0.4-1.5c0.1-0.3,0.2-0.6,0.3-0.8s0.3-0.4,0.4-0.7c0.1-0.5,0.3-0.9,0.4-1.3c0.1-0.4,0.4-0.7,0.5-1.1
	c0.1-0.4,0.2-0.7,0.4-1.1c0.1-0.4,0.4-0.6,0.8-0.8c0.2-0.1,0.3-0.2,0.7-0.4c0.4,0,1,0.1,1.6,0.1c0.2,0.3,0.5,0.6,0.8,0.9
	c0.2,0.3-0.1,0.7,0.2,1c-0.1,0.5-0.3,1-0.4,1.4c-0.2,0.6-0.4,1.2-0.6,1.7c-0.2,0.4-0.3,0.8-0.4,1.3c-0.1,0.3-0.2,0.5-0.2,0.8
	c-0.1,0.2-0.4,0.3-0.3,0.7c-0.3,0.7-0.5,1.4-0.7,2.2h-0.2c-0.1,0.5-0.2,1-0.4,1.4c-0.1,0.4-0.2,0.8-0.5,1.2
	c-0.2,0.3-0.2,0.8-0.3,1.1c-0.2,0.5-0.5,1.1-0.7,1.6c-0.1,0.3-0.2,0.6-0.3,1c0.7,0,1.2-0.6,1.9-0.5c0.1-0.1,0.2-0.2,0.2-0.3
	c0.4-0.1,0.8-0.1,1-0.2c0.6-0.4,1.3-0.6,2-0.8c0.5-0.2,1.1-0.4,1.7-0.6c0.5-0.2,1.1-0.3,1.6-0.6l1.5-0.6c0.2-0.1,0.4-0.2,0.7-0.3
	c0.6-0.1,1.2-0.4,1.7-0.6c0.9-0.4,1.8-0.7,2.8-1c0.4-0.1,0.8-0.4,1.3-0.3c0.3,0.1,0.5,0.1,0.8,0.2l0.7,0.7c0.1,0.4,0.1,0.7,0.2,1
	v1.1c-0.1,0-0.2,0.1-0.2,0.2c-0.2,0.8-0.9,1-1.5,1.3c-0.5,0.2-1,0.4-1.6,0.6c-0.7,0.3-1.4,0.5-2.1,0.8c-0.7,0.2-1.4,0.4-2,0.7
	c-0.8,0.4-1.7,0.6-2.5,0.9c-0.2,0.1-0.4,0.1-0.7,0.3c0.5,0.1,0.8,0.3,1.2,0.2c0.1,0,0.2,0.1,0.3,0.1c0.3,0,0.7,0.2,1,0.2
	c0.2,0,0.3,0.1,0.5,0.1c0.7,0.2,1.4,0.1,2,0.5c1-0.1,1.8,0.5,2.7,0.5c0.6,0.4,1.5,0.2,2.1,0.6c0.2,0.1,0.5,0,0.8,0
	c0.3,0.3,0.6,0.5,0.9,0.7c0.2,0.2,0.3,0.4,0.3,0.7c0.1,0.4,0,0.7,0,1c-0.2,0.5-0.4,0.9-0.6,1.2c-0.2,0.4-0.7,0.5-1.1,0.7H186
	c-0.3,0-0.5-0.1-0.8-0.1c-0.3-0.1-0.6-0.2-0.9-0.2c-0.1,0-0.3-0.1-0.4-0.1c-0.4,0-0.7-0.3-1-0.2c-0.1,0-0.2-0.1-0.4-0.1
	c-0.4-0.1-0.7-0.3-1.1-0.2c-0.5,0.1-0.9-0.2-1.3-0.3c-0.6-0.2-1.2-0.2-1.8-0.4c-0.3-0.1-0.7-0.1-1-0.2c-0.6-0.2-1.3-0.1-1.8-0.5
	c-0.7,0.1-1.3-0.4-2-0.3c-0.2,0-0.4-0.1-0.6-0.2c-0.6-0.2-1.3-0.1-1.8-0.5c-0.9,0.1-1.7-0.6-2.6-0.3c0,0.1,0,0.3,0.1,0.4
	c0.5,1.1,1,2.3,1.6,3.4c0.5,0.9,1,1.7,1.4,2.6c0.9,1.6,1.7,3.2,2.5,4.9l0.6,1.5c0.4,0.7,0.8,1.4,1.2,2c0.3,0.5,0.5,1,0.7,1.5
	c0.1,0.4-0.1,0.8-0.1,1.1c-0.2,0.3-0.6,0.5-0.8,0.9c-1,0.5-1.4,0.4-2.7,0.1c-0.4-0.8-0.9-1.5-1.3-2.3c-0.5-0.8-0.9-1.7-1.3-2.6
	c-0.4-0.8-0.9-1.7-1.4-2.5c-0.3-0.5-0.4-1.1-0.7-1.5c-0.5-0.9-1-1.9-1.6-2.8c-0.3-0.5-0.5-1.1-0.8-1.6c-0.2-0.2-0.1-0.5-0.2-0.8
	c-0.4,0.4-0.2,0.9-0.5,1.3h-0.1l-0.1,0.1c0,0.5-0.3,0.9-0.4,1.4c-0.1,0.3-0.1,0.6-0.3,0.8c-0.1,0.2-0.3,0.4-0.4,0.7
	c-0.1,0.4-0.3,0.8-0.4,1.2c-0.1,0.4-0.4,0.6-0.4,1c0,0.3-0.2,0.7-0.3,1c-0.1,0.2-0.1,0.4-0.1,0.4c-0.2,0.4-0.3,0.6-0.5,0.9
	c0,0-0.2,0-0.2,0.1c-0.3,0.6-0.9,0.6-1.4,0.7h-0.9c-0.1-0.1-0.3-0.2-0.4-0.3c-0.8-0.5-1.1-1.3-0.8-2.3c0-0.2,0-0.4,0.1-0.5h0.2
	c0.2-0.8,0.4-1.7,0.9-2.5c0.2-0.4,0.3-0.8,0.4-1.3c0.1-0.5,0.4-0.9,0.6-1.4c0.3-0.7,0.5-1.5,0.7-2.2h0.2c0.1-0.4,0.1-0.7,0.2-1.2
	c-0.6,0.4-1.3,0.4-1.9,0.7c-0.6,0.3-1.3,0.4-1.9,0.8c-0.4-0.2-0.7,0.3-1,0.3c-0.4,0-0.7,0.2-1.1,0.3c-0.4,0.1-0.7,0.3-1.1,0.4
	c-0.4,0.1-0.7,0.3-1.1,0.5c-0.8,0.4-1.7,0.6-2.5,0.9c-0.4,0.2-0.9,0.3-1.3,0.5s-0.8,0.4-1.3,0.5s-0.9,0.4-1.5,0.5
	c-0.6,0.2-1.1,0.4-1.7,0.1c-0.2-0.1-0.4-0.2-0.6-0.4c-0.1-0.2-0.2-0.4-0.4-0.7c-0.1-0.2,0.1-0.6-0.1-0.9c0.1-0.3,0.1-0.6,0.2-1
	c0,0,0.1,0,0.2-0.1c0.1-0.2,0-0.4,0.2-0.6c0.1-0.2,0.5-0.1,0.5-0.4c0-0.1,0.3-0.2,0.5-0.2c0.2-0.1,0.4-0.1,0.6-0.2
	c0.4-0.1,0.7-0.3,1.1-0.4c0.9-0.4,1.8-0.7,2.8-1c0.6-0.2,1.2-0.4,1.7-0.7c0.4-0.2,0.8-0.3,1.2-0.4c0.4-0.2,0.8-0.4,1.2-0.4
	c0.5,0,0.7-0.3,1.1-0.4c0.9-0.3,1.7-0.6,2.6-0.9c0.7-0.2,1.3-0.5,2-0.7c0.1,0,0.2-0.1,0.4-0.3c-0.6,0-1-0.3-1.4-0.2
	c-0.1,0-0.2-0.1-0.3-0.1c-0.4,0-0.7-0.3-1-0.2c-0.2,0-0.3-0.1-0.4-0.1l-1.5-0.3c-0.8-0.1-1.6-0.3-2.3-0.5c-0.1,0-0.2-0.1-0.3-0.1
	c-0.4,0.1-0.7-0.1-1-0.2c-0.6-0.2-1.3-0.1-1.8-0.5c-0.7,0.1-1.3-0.4-2-0.3c-0.2,0-0.4-0.1-0.6-0.2c-0.6-0.2-1.2-0.1-1.8-0.4
	c-0.3-0.2-0.7,0-1.1-0.2c-0.4-0.2-0.9-0.4-1.1-0.9c-0.2-0.5-0.2-0.8-0.1-1.4c0.1-0.6,0.4-1,0.8-1.4
	C144.9,212.5,144.9,212.4,145,212.4L145,212.4z"/>
<g>
	<path class="st2" d="M189.3,252.1V250l3.7-0.5l9.4-27.4h3.7l9.4,27.6l3.1,0.4v2.1h-13v-2.1l4-0.5l-2.2-6.7h-9.8l-2.2,6.5l3.9,0.6
		v2.1H189.3z M202.5,228.1l-4.1,12.5h8.2L202.5,228.1z"/>
	<path class="st2" d="M229,252.8c-1.8,0-3.3-0.4-4.7-1.4c-1.4-0.9-2.4-2.2-3.2-3.8s-1.2-3.7-1.2-6c0-2.4,0.4-4.4,1.3-6.2
		c0.9-1.7,2.1-3.1,3.6-4.1c1.5-1,3.1-1.4,4.9-1.4c1.1,0,2.1,0.2,3.1,0.7c1,0.4,1.9,1.2,2.9,2.2l4.1-2.9l1,0.5l-0.1,6.1v16.7
		c0,1.2,0,2.3,0,3.5c0,1.2,0,2.4,0.1,3.5l3,0.6v1.8h-12v-1.8l3.6-0.7c0-1.2,0.1-2.3,0.1-3.5c0-1.2,0-2.3,0-3.5v-3.5
		c-0.9,1.1-1.8,1.9-2.9,2.4C231.4,252.5,230.2,252.8,229,252.8z M225.6,241.5c0,2.7,0.5,4.8,1.6,6.1c1,1.3,2.3,2,3.9,2
		c0.8,0,1.5-0.2,2.2-0.5c0.7-0.3,1.3-0.8,1.9-1.5v-12.9c-0.8-0.6-1.4-1-2.1-1.3c-0.6-0.2-1.3-0.4-1.9-0.4c-1.6,0-2.9,0.7-4,2
		C226.2,236.5,225.6,238.6,225.6,241.5z"/>
	<path class="st2" d="M261.7,252.5l-0.4-4c-2.2,2.8-4.7,4.2-7.6,4.2c-1.9,0-3.4-0.6-4.5-1.8c-1.1-1.2-1.7-3.3-1.6-6.3l0.2-11.1
		l-2.9-0.6v-1.8l7.9-0.9l0.5,0.5L253,237v7.5c0,1.7,0.3,2.9,0.8,3.5c0.5,0.7,1.3,1,2.3,1c0.8,0,1.7-0.2,2.6-0.7
		c0.9-0.5,1.7-1.1,2.5-1.8l0.1-12.9l-2.8-0.6v-1.7l7.7-1l0.6,0.5l-0.1,6.3v12.7l2.7,0.6v1.8L261.7,252.5z"/>
	<path class="st2" d="M272,252.1v-1.8l3-0.6c0-1.1,0-2.3,0-3.6c0-1.3,0-2.4,0-3.4v-2.1c0-1.2,0-2.3,0-3.1c0-0.8-0.1-1.7-0.1-2.6
		l-3.2-0.4v-1.7l8.1-2.8l0.7,0.5l-0.1,6.3v5.9c0,1,0,2.1,0,3.4c0,1.3,0,2.5,0,3.6l2.7,0.5v1.8H272z M275.5,226
		c0.5-0.9,1.1-1.8,1.6-2.7c0.6-0.9,1.3-2.1,2.1-3.4c0.5-0.9,1-1.5,1.4-1.8c0.5-0.3,1-0.5,1.5-0.5c0.5,0,1,0.2,1.4,0.5
		s0.7,0.9,0.7,1.6c0,0.9-0.7,1.9-2.2,3.1c-1.1,0.9-2.1,1.7-2.9,2.4c-0.8,0.7-1.6,1.3-2.4,2L275.5,226z"/>
	<path class="st2" d="M295.8,252.1v-1.8l3-0.6c0-1.1,0-2.3,0-3.6c0-1.3,0-2.4,0-3.4v-19.3l-3.3-0.5v-1.8l8.1-2l0.7,0.4l-0.2,6.3v8.1
		c2.3-2.7,4.9-4,7.7-4c1.9,0,3.5,0.6,4.5,1.9c1.1,1.3,1.6,3.3,1.6,6.1v4.7c0,1,0,2.2,0,3.5c0,1.3,0,2.5,0,3.6l2.7,0.5v1.8h-11.1
		v-1.8l2.9-0.6c0-1.1,0-2.3,0-3.6c0-1.3,0-2.4,0-3.4v-4.3c0-1.8-0.2-3-0.7-3.7c-0.5-0.7-1.3-1-2.4-1c-1.7,0-3.4,0.9-5.2,2.6v6.4
		c0,1,0,2.1,0,3.4c0,1.3,0,2.5,0,3.6l2.7,0.5v1.8H295.8z"/>
	<path class="st2" d="M340.4,252.7c-1.2,0-2.2-0.3-2.9-0.9c-0.8-0.6-1.3-1.4-1.5-2.5c-1.1,1.1-2.1,2-3,2.6s-2.1,0.9-3.5,0.9
		c-1.7,0-3.1-0.5-4.3-1.5c-1.2-1-1.7-2.4-1.7-4.2c0-1,0.2-1.9,0.7-2.7s1.3-1.6,2.4-2.3c1.2-0.7,2.8-1.4,5-2.1c0.6-0.2,1.3-0.4,2-0.6
		c0.7-0.2,1.5-0.4,2.3-0.6v-1.3c0-2.1-0.3-3.5-0.9-4.3c-0.6-0.7-1.6-1.1-3.1-1.1c-0.3,0-0.6,0-0.9,0c-0.3,0-0.6,0.1-1,0.1l-0.5,2.5
		c-0.1,1.1-0.4,1.9-0.9,2.4c-0.5,0.5-1.1,0.8-1.9,0.8c-1.4,0-2.3-0.7-2.5-2c0.3-1.8,1.2-3.2,2.9-4.3s3.9-1.6,6.6-1.6
		c2.6,0,4.5,0.6,5.7,1.9c1.2,1.2,1.8,3.3,1.8,6.3v9.8c0,1.4,0.4,2,1.3,2c0.6,0,1.1-0.3,1.6-1l1,0.9c-0.5,1-1.2,1.7-1.9,2.2
		C342.4,252.5,341.5,252.7,340.4,252.7z M328.7,246.1c0,1.2,0.3,2,0.9,2.5c0.6,0.5,1.4,0.8,2.3,0.8c0.5,0,1-0.1,1.5-0.4
		c0.5-0.2,1.3-0.7,2.4-1.5v-7.1c-0.6,0.2-1.2,0.4-1.8,0.6c-0.6,0.2-1,0.3-1.4,0.5c-1.5,0.6-2.5,1.3-3.1,2.1
		C329,244.5,328.7,245.3,328.7,246.1z"/>
	<path class="st2" d="M346.4,252.1v-1.8l2.9-0.5c0-1.1,0.1-2.3,0.1-3.6c0-1.3,0-2.5,0-3.4v-19.3l-3.3-0.4v-1.8l8.1-2l0.7,0.4
		l-0.2,6.3v7.2c2-2.1,4.2-3.2,6.7-3.2c1.6,0,3.1,0.4,4.4,1.3c1.3,0.9,2.4,2.1,3.1,3.8c0.8,1.7,1.1,3.7,1.1,6.1
		c0,2.4-0.4,4.4-1.3,6.2c-0.9,1.7-2,3.1-3.4,4c-1.4,0.9-3,1.4-4.7,1.4c-1.2,0-2.3-0.2-3.3-0.7c-1-0.5-1.9-1.2-2.8-2.2l-0.6,2.8
		L346.4,252.1z M359.2,233.1c-0.7,0-1.4,0.2-2.1,0.5c-0.7,0.4-1.5,0.9-2.3,1.5v12.5c1.4,1.3,2.8,1.9,4.2,1.9c1.5,0,2.7-0.7,3.7-2
		s1.5-3.4,1.5-6.2c0-2.8-0.5-4.9-1.4-6.2C362,233.8,360.7,233.1,359.2,233.1z"/>
	<path class="st2" d="M372.7,252.1v-1.8l3.1-0.6c0-1.2,0.1-2.3,0.1-3.5c0-1.2,0-2.3,0-3.5v-19.3l-3.3-0.5v-1.8l8.2-2l0.7,0.4
		l-0.2,6.3v16.8c0,1.2,0,2.3,0,3.5c0,1.2,0,2.3,0.1,3.5l3.1,0.6v1.8H372.7z"/>
	<path class="st2" d="M403.7,252.7c-1.2,0-2.2-0.3-2.9-0.9c-0.8-0.6-1.3-1.4-1.5-2.5c-1.1,1.1-2.1,2-3,2.6s-2.1,0.9-3.5,0.9
		c-1.7,0-3.1-0.5-4.3-1.5c-1.2-1-1.7-2.4-1.7-4.2c0-1,0.2-1.9,0.7-2.7s1.3-1.6,2.4-2.3c1.2-0.7,2.8-1.4,5-2.1c0.6-0.2,1.3-0.4,2-0.6
		c0.7-0.2,1.5-0.4,2.3-0.6v-1.3c0-2.1-0.3-3.5-0.9-4.3c-0.6-0.7-1.6-1.1-3.1-1.1c-0.3,0-0.6,0-0.9,0c-0.3,0-0.6,0.1-1,0.1l-0.5,2.5
		c-0.1,1.1-0.4,1.9-0.9,2.4c-0.5,0.5-1.1,0.8-1.9,0.8c-1.4,0-2.3-0.7-2.5-2c0.3-1.8,1.2-3.2,2.9-4.3s3.9-1.6,6.6-1.6
		c2.6,0,4.5,0.6,5.7,1.9c1.2,1.2,1.8,3.3,1.8,6.3v9.8c0,1.4,0.4,2,1.3,2c0.6,0,1.1-0.3,1.6-1l1,0.9c-0.5,1-1.2,1.7-1.9,2.2
		C405.7,252.5,404.8,252.7,403.7,252.7z M392,246.1c0,1.2,0.3,2,0.9,2.5c0.6,0.5,1.4,0.8,2.3,0.8c0.5,0,1-0.1,1.5-0.4
		c0.5-0.2,1.3-0.7,2.4-1.5v-7.1c-0.6,0.2-1.2,0.4-1.8,0.6c-0.6,0.2-1,0.3-1.4,0.5c-1.5,0.6-2.5,1.3-3.1,2.1
		C392.3,244.5,392,245.3,392,246.1z"/>
	<path class="st2" d="M409.8,252.1v-1.8l2.9-0.6c0-1.1,0-2.3,0-3.6c0-1.3,0-2.4,0-3.4v-2.4c0-1.2,0-2.2,0-2.9c0-0.7-0.1-1.6-0.1-2.5
		l-3.2-0.4v-1.7l7.5-2.8l0.7,0.5l0.3,3.5c1.1-1.2,2.3-2.2,3.5-2.9c1.3-0.7,2.6-1.1,4-1.1c2.9,0,4.8,1.4,5.6,4.1
		c1.2-1.4,2.4-2.5,3.7-3.1s2.6-1,4-1c2,0,3.6,0.6,4.6,1.9c1,1.3,1.5,3.3,1.5,6v4.8c0,1,0,2.2,0,3.4c0,1.3,0,2.5,0,3.6l2.7,0.5v1.8
		h-11v-1.8l2.8-0.6c0-1.1,0-2.3,0-3.6c0-1.3,0-2.4,0-3.4v-4.1c0-1.9-0.2-3.2-0.7-3.8c-0.5-0.7-1.3-1-2.5-1c-1.6,0-3.2,0.8-5,2.3
		c0,0.3,0.1,0.6,0.1,0.9c0,0.3,0,0.7,0,1v4.7c0,1,0,2.2,0,3.4c0,1.3,0,2.5,0,3.6l2.7,0.5v1.8h-11v-1.8l2.9-0.6c0-1.1,0-2.3,0-3.6
		c0-1.3,0-2.4,0-3.4v-4c0-1.8-0.2-3.1-0.7-3.8c-0.5-0.7-1.3-1.1-2.5-1.1c-0.8,0-1.7,0.2-2.5,0.6c-0.8,0.4-1.6,1-2.4,1.6v6.7
		c0,1,0,2.1,0,3.4c0,1.3,0,2.5,0,3.6l2.7,0.5v1.8H409.8z"/>
	<path class="st2" d="M461.5,252.8c-2,0-3.9-0.4-5.5-1.4c-1.6-0.9-2.9-2.2-3.9-3.9c-1-1.7-1.4-3.8-1.4-6.1c0-2.4,0.5-4.5,1.5-6.2
		c1-1.7,2.3-3,4-3.9c1.6-0.9,3.4-1.4,5.4-1.4s3.7,0.5,5.4,1.4c1.6,0.9,3,2.2,4,3.9c1,1.7,1.5,3.8,1.5,6.2c0,2.4-0.5,4.4-1.5,6.1
		c-1,1.7-2.3,3-3.9,3.9C465.3,252.3,463.5,252.8,461.5,252.8z M461.5,250.6c1.6,0,2.9-0.7,3.7-2.2c0.9-1.5,1.3-3.8,1.3-6.9
		c0-6.2-1.7-9.3-5-9.3c-3.3,0-5,3.1-5,9.3c0,3.1,0.4,5.4,1.3,6.9C458.6,249.8,459.9,250.6,461.5,250.6z"/>
	<path class="st2" d="M483.1,252.8c-1.4,0-2.6-0.2-3.8-0.5c-1.2-0.3-2.3-0.8-3.4-1.4l0-5.2h3l0.8,4.2c1.1,0.4,2.2,0.7,3.5,0.7
		c1.5,0,2.7-0.3,3.4-0.8s1.1-1.3,1.1-2.2c0-0.8-0.3-1.5-0.9-2c-0.6-0.5-1.6-1-3.1-1.5l-2.2-0.8c-1.7-0.5-3-1.3-4-2.4
		c-1-1-1.5-2.4-1.5-4c0-1.3,0.3-2.4,1-3.4c0.7-1,1.6-1.9,2.9-2.5c1.3-0.6,2.8-0.9,4.7-0.9c1.3,0,2.5,0.2,3.5,0.5
		c1.1,0.3,2.1,0.8,3.2,1.4l-0.2,4.7h-3l-0.8-3.8c-0.8-0.4-1.8-0.5-2.8-0.5c-1.2,0-2.1,0.3-2.8,0.8c-0.7,0.5-1,1.2-1,2.1
		c0,0.8,0.3,1.5,0.8,2s1.6,1,3.1,1.5l1.8,0.5c2.2,0.8,3.8,1.7,4.7,2.8c0.9,1.1,1.4,2.4,1.4,4c0,2-0.8,3.7-2.5,5
		C488.5,252.1,486.1,252.8,483.1,252.8z"/>
	<path class="st2" d="M521.5,252.6l-0.4-2.8c-0.8,1-1.8,1.7-2.8,2.2s-2.2,0.8-3.5,0.8c-1.8,0-3.3-0.4-4.7-1.4
		c-1.4-0.9-2.4-2.2-3.2-3.9c-0.8-1.7-1.2-3.7-1.2-6c0-2.4,0.4-4.4,1.3-6.2c0.9-1.7,2.1-3.1,3.6-4c1.5-0.9,3.1-1.4,4.9-1.4
		c1.1,0,2.2,0.2,3.1,0.6c0.9,0.4,1.8,1.1,2.6,2.1v-9.3l-3.5-0.5v-1.8l8.2-2l0.7,0.4l-0.2,6.3v23.9l2.9,0.5v1.8L521.5,252.6z
		 M511.5,241.5c0,2.7,0.5,4.8,1.6,6.1c1,1.3,2.3,2,3.9,2c0.8,0,1.5-0.2,2.1-0.5c0.6-0.3,1.3-0.8,1.8-1.4v-12.9
		c-1.3-1.1-2.6-1.7-3.9-1.7c-1.5,0-2.8,0.7-3.9,2C512.1,236.5,511.5,238.6,511.5,241.5z"/>
	<path class="st2" d="M542.5,252.8c-2.1,0-3.9-0.4-5.5-1.4c-1.6-0.9-2.8-2.2-3.7-3.9c-0.9-1.7-1.3-3.7-1.3-6.1
		c0-2.4,0.5-4.5,1.6-6.2c1-1.7,2.4-3,4-4c1.7-0.9,3.4-1.4,5.3-1.4c1.8,0,3.3,0.4,4.6,1.1c1.3,0.8,2.3,1.8,3.1,3.1
		c0.7,1.4,1.1,2.9,1.1,4.8c0,1-0.1,1.8-0.3,2.5h-13.8c0.1,2.6,0.8,4.5,2,5.8c1.2,1.3,2.8,1.9,4.7,1.9c1.3,0,2.4-0.3,3.4-0.8
		c0.9-0.5,1.7-1.2,2.5-2l1.3,1.2c-0.9,1.6-2.1,2.9-3.6,3.8C546.4,252.3,544.6,252.8,542.5,252.8z M542.5,232.1
		c-0.7,0-1.4,0.2-2.1,0.7c-0.7,0.5-1.3,1.2-1.8,2.3c-0.5,1.1-0.8,2.5-0.9,4.3h6.2c1.1,0,1.8-0.2,2.2-0.7c0.4-0.4,0.5-1.1,0.5-1.9
		c0-1.4-0.4-2.5-1.2-3.4C544.5,232.5,543.6,232.1,542.5,232.1z"/>
	<path class="st2" d="M564.6,252.1v-1.8l3.1-0.6c0-1.2,0.1-2.3,0.1-3.5c0-1.2,0-2.3,0-3.5v-19.3l-3.3-0.5v-1.8l8.2-2l0.7,0.4
		l-0.2,6.3v16.8c0,1.2,0,2.3,0,3.5c0,1.2,0,2.3,0.1,3.5l3.1,0.6v1.8H564.6z"/>
	<path class="st2" d="M589.9,252.8c-2,0-3.9-0.4-5.5-1.4c-1.6-0.9-2.9-2.2-3.9-3.9c-1-1.7-1.4-3.8-1.4-6.1c0-2.4,0.5-4.5,1.5-6.2
		c1-1.7,2.3-3,4-3.9c1.6-0.9,3.4-1.4,5.4-1.4s3.7,0.5,5.4,1.4c1.6,0.9,3,2.2,4,3.9c1,1.7,1.5,3.8,1.5,6.2c0,2.4-0.5,4.4-1.5,6.1
		c-1,1.7-2.3,3-3.9,3.9C593.8,252.3,591.9,252.8,589.9,252.8z M589.9,250.6c1.6,0,2.9-0.7,3.7-2.2c0.9-1.5,1.3-3.8,1.3-6.9
		c0-6.2-1.7-9.3-5-9.3c-3.3,0-5,3.1-5,9.3c0,3.1,0.4,5.4,1.3,6.9C587,249.8,588.3,250.6,589.9,250.6z"/>
	<path class="st2" d="M611.5,252.8c-1.4,0-2.6-0.2-3.8-0.5c-1.2-0.3-2.3-0.8-3.4-1.4l0-5.2h3l0.8,4.2c1.1,0.4,2.2,0.7,3.5,0.7
		c1.5,0,2.7-0.3,3.4-0.8s1.1-1.3,1.1-2.2c0-0.8-0.3-1.5-0.9-2c-0.6-0.5-1.6-1-3.1-1.5l-2.2-0.8c-1.7-0.5-3-1.3-4-2.4
		c-1-1-1.5-2.4-1.5-4c0-1.3,0.3-2.4,1-3.4c0.7-1,1.6-1.9,2.9-2.5c1.3-0.6,2.8-0.9,4.7-0.9c1.3,0,2.5,0.2,3.5,0.5
		c1.1,0.3,2.1,0.8,3.2,1.4l-0.2,4.7h-3l-0.8-3.8c-0.8-0.4-1.8-0.5-2.8-0.5c-1.2,0-2.1,0.3-2.8,0.8c-0.7,0.5-1,1.2-1,2.1
		c0,0.8,0.3,1.5,0.8,2s1.6,1,3.1,1.5l1.8,0.5c2.2,0.8,3.8,1.7,4.7,2.8c0.9,1.1,1.4,2.4,1.4,4c0,2-0.8,3.7-2.5,5
		C616.9,252.1,614.6,252.8,611.5,252.8z"/>
	<path class="st2" d="M206.4,302.6l-0.4-2.8c-0.8,1-1.8,1.7-2.8,2.2s-2.2,0.8-3.5,0.8c-1.8,0-3.3-0.4-4.7-1.4
		c-1.4-0.9-2.4-2.2-3.2-3.9c-0.8-1.7-1.2-3.7-1.2-6c0-2.4,0.4-4.4,1.3-6.2c0.9-1.7,2.1-3.1,3.6-4c1.5-0.9,3.1-1.4,4.9-1.4
		c1.1,0,2.2,0.2,3.1,0.6c0.9,0.4,1.8,1.1,2.6,2.1v-9.3l-3.5-0.5v-1.8l8.2-2l0.7,0.4l-0.2,6.3v23.9l2.9,0.5v1.8L206.4,302.6z
		 M196.4,291.5c0,2.7,0.5,4.8,1.6,6.1c1,1.3,2.3,2,3.9,2c0.8,0,1.5-0.2,2.1-0.5c0.6-0.3,1.3-0.8,1.8-1.4v-12.9
		c-1.3-1.1-2.6-1.7-3.9-1.7c-1.5,0-2.8,0.7-3.9,2C197,286.5,196.4,288.6,196.4,291.5z"/>
	<path class="st2" d="M227.4,302.8c-2.1,0-3.9-0.4-5.5-1.4c-1.6-0.9-2.8-2.2-3.7-3.9c-0.9-1.7-1.3-3.7-1.3-6.1
		c0-2.4,0.5-4.5,1.6-6.2c1-1.7,2.4-3,4-4c1.7-0.9,3.4-1.4,5.3-1.4c1.8,0,3.3,0.4,4.6,1.1c1.3,0.8,2.3,1.8,3.1,3.1
		c0.7,1.4,1.1,2.9,1.1,4.8c0,1-0.1,1.8-0.3,2.5h-13.8c0.1,2.6,0.8,4.5,2,5.8c1.2,1.3,2.8,1.9,4.7,1.9c1.3,0,2.4-0.3,3.4-0.8
		c0.9-0.5,1.7-1.2,2.5-2l1.3,1.2c-0.9,1.6-2.1,2.9-3.6,3.8C231.3,302.3,229.5,302.8,227.4,302.8z M227.4,282.1
		c-0.7,0-1.4,0.2-2.1,0.7c-0.7,0.5-1.3,1.2-1.8,2.3c-0.5,1.1-0.8,2.5-0.9,4.3h6.2c1.1,0,1.8-0.2,2.2-0.7c0.4-0.4,0.5-1.1,0.5-1.9
		c0-1.4-0.4-2.5-1.2-3.4C229.4,282.5,228.5,282.1,227.4,282.1z"/>
	<path class="st2" d="M247.4,302.8c-1.4,0-2.6-0.2-3.8-0.5c-1.2-0.3-2.3-0.8-3.4-1.4l0-5.2h3l0.8,4.2c1.1,0.4,2.2,0.7,3.5,0.7
		c1.5,0,2.7-0.3,3.4-0.8s1.1-1.3,1.1-2.2c0-0.8-0.3-1.5-0.9-2c-0.6-0.5-1.6-1-3.1-1.5l-2.2-0.8c-1.7-0.5-3-1.3-4-2.4
		c-1-1-1.5-2.4-1.5-4c0-1.3,0.3-2.4,1-3.4c0.7-1,1.6-1.9,2.9-2.5c1.3-0.6,2.8-0.9,4.7-0.9c1.3,0,2.5,0.2,3.5,0.5
		c1.1,0.3,2.1,0.8,3.2,1.4l-0.2,4.7h-3l-0.8-3.8c-0.8-0.4-1.8-0.5-2.8-0.5c-1.2,0-2.1,0.3-2.8,0.8c-0.7,0.5-1,1.2-1,2.1
		c0,0.8,0.3,1.5,0.8,2s1.6,1,3.1,1.5l1.8,0.5c2.2,0.8,3.8,1.7,4.7,2.8c0.9,1.1,1.4,2.4,1.4,4c0,2-0.8,3.7-2.5,5
		C252.7,302.1,250.4,302.8,247.4,302.8z"/>
	<path class="st2" d="M276.7,302.7c-1.2,0-2.2-0.3-2.9-0.9c-0.8-0.6-1.3-1.4-1.5-2.5c-1.1,1.1-2.1,2-3,2.6s-2.1,0.9-3.5,0.9
		c-1.7,0-3.1-0.5-4.3-1.5c-1.2-1-1.7-2.4-1.7-4.2c0-1,0.2-1.9,0.7-2.7s1.3-1.6,2.4-2.3c1.2-0.7,2.8-1.4,5-2.1c0.6-0.2,1.3-0.4,2-0.6
		c0.7-0.2,1.5-0.4,2.3-0.6v-1.3c0-2.1-0.3-3.5-0.9-4.3c-0.6-0.7-1.6-1.1-3.1-1.1c-0.3,0-0.6,0-0.9,0c-0.3,0-0.6,0.1-1,0.1l-0.5,2.5
		c-0.1,1.1-0.4,1.9-0.9,2.4c-0.5,0.5-1.1,0.8-1.9,0.8c-1.4,0-2.3-0.7-2.5-2c0.3-1.8,1.2-3.2,2.9-4.3s3.9-1.6,6.6-1.6
		c2.6,0,4.5,0.6,5.7,1.9c1.2,1.2,1.8,3.3,1.8,6.3v9.8c0,1.4,0.4,2,1.3,2c0.6,0,1.1-0.3,1.6-1l1,0.9c-0.5,1-1.2,1.7-1.9,2.2
		C278.7,302.5,277.8,302.7,276.7,302.7z M265,296.1c0,1.2,0.3,2,0.9,2.5c0.6,0.5,1.4,0.8,2.3,0.8c0.5,0,1-0.1,1.5-0.4
		c0.5-0.2,1.3-0.7,2.4-1.5v-7.1c-0.6,0.2-1.2,0.4-1.8,0.6c-0.6,0.2-1,0.3-1.4,0.5c-1.5,0.6-2.5,1.3-3.1,2.1
		C265.3,294.5,265,295.3,265,296.1z"/>
	<path class="st2" d="M283,302.1v-1.8l3-0.6c0-1.2,0.1-2.3,0.1-3.5c0-1.2,0-2.3,0-3.5v-9.4h-3.3V281l3.5-0.5c0.2-2.2,0.6-4,1.1-5.4
		c0.5-1.4,1.3-2.6,2.3-3.6c1-1,2.1-1.7,3.4-2.2c1.2-0.4,2.4-0.7,3.5-0.7c1.2,0,2.2,0.2,3.1,0.6c0.9,0.4,1.5,1.2,1.7,2.2
		c0,0.7-0.3,1.3-0.8,1.8c-0.5,0.5-1.2,0.7-2.1,0.7c-1.3,0-2.5-0.7-3.6-2.2l-0.8-0.8c-0.1,0.1-0.2,0.2-0.3,0.3
		c-0.8,0.8-1.4,2-1.8,3.4c-0.4,1.5-0.5,3.5-0.4,5.9h5.5v2.7h-5.4v9.4c0,1.1,0,2.3,0,3.4c0,1.2,0,2.3,0.1,3.5l3.8,0.7v1.8H283z"/>
	<path class="st2" d="M300.7,302.1v-1.8l3-0.6c0-1.1,0-2.3,0-3.6c0-1.3,0-2.4,0-3.4v-2.1c0-1.2,0-2.3,0-3.1c0-0.8-0.1-1.7-0.1-2.6
		l-3.2-0.4v-1.7l8.1-2.8l0.7,0.5l-0.1,6.3v5.9c0,1,0,2.1,0,3.4c0,1.3,0,2.5,0,3.6l2.7,0.5v1.8H300.7z M304.2,276
		c0.5-0.9,1.1-1.8,1.6-2.7c0.6-0.9,1.3-2.1,2.1-3.4c0.5-0.9,1-1.5,1.4-1.8c0.5-0.3,1-0.5,1.5-0.5c0.5,0,1,0.2,1.4,0.5
		s0.7,0.9,0.7,1.6c0,0.9-0.7,1.9-2.2,3.1c-1.1,0.9-2.1,1.7-2.9,2.4c-0.8,0.7-1.6,1.3-2.4,2L304.2,276z"/>
	<path class="st2" d="M325.6,302.8c-2,0-3.9-0.4-5.5-1.4c-1.6-0.9-2.9-2.2-3.9-3.9c-1-1.7-1.4-3.8-1.4-6.1c0-2.4,0.5-4.5,1.5-6.2
		c1-1.7,2.3-3,4-3.9c1.6-0.9,3.4-1.4,5.4-1.4s3.7,0.5,5.4,1.4c1.6,0.9,3,2.2,4,3.9c1,1.7,1.5,3.8,1.5,6.2c0,2.4-0.5,4.4-1.5,6.1
		c-1,1.7-2.3,3-3.9,3.9C329.4,302.3,327.6,302.8,325.6,302.8z M325.6,300.6c1.6,0,2.9-0.7,3.7-2.2c0.9-1.5,1.3-3.8,1.3-6.9
		c0-6.2-1.7-9.3-5-9.3c-3.3,0-5,3.1-5,9.3c0,3.1,0.4,5.4,1.3,6.9C322.7,299.8,324,300.6,325.6,300.6z"/>
	<path class="st2" d="M347.2,302.8c-1.4,0-2.6-0.2-3.8-0.5c-1.2-0.3-2.3-0.8-3.4-1.4l0-5.2h3l0.8,4.2c1.1,0.4,2.2,0.7,3.5,0.7
		c1.5,0,2.7-0.3,3.4-0.8s1.1-1.3,1.1-2.2c0-0.8-0.3-1.5-0.9-2c-0.6-0.5-1.6-1-3.1-1.5l-2.2-0.8c-1.7-0.5-3-1.3-4-2.4
		c-1-1-1.5-2.4-1.5-4c0-1.3,0.3-2.4,1-3.4c0.7-1,1.6-1.9,2.9-2.5c1.3-0.6,2.8-0.9,4.7-0.9c1.3,0,2.5,0.2,3.5,0.5
		c1.1,0.3,2.1,0.8,3.2,1.4l-0.2,4.7h-3l-0.8-3.8c-0.8-0.4-1.8-0.5-2.8-0.5c-1.2,0-2.1,0.3-2.8,0.8c-0.7,0.5-1,1.2-1,2.1
		c0,0.8,0.3,1.5,0.8,2s1.6,1,3.1,1.5l1.8,0.5c2.2,0.8,3.8,1.7,4.7,2.8c0.9,1.1,1.4,2.4,1.4,4c0,2-0.8,3.7-2.5,5
		C352.6,302.1,350.2,302.8,347.2,302.8z"/>
	<path class="st2" d="M378.9,302.8c-1.8,0-3.3-0.4-4.7-1.4c-1.4-0.9-2.4-2.2-3.2-3.8s-1.2-3.7-1.2-6c0-2.4,0.4-4.4,1.3-6.2
		c0.9-1.7,2.1-3.1,3.6-4.1c1.5-1,3.1-1.4,4.9-1.4c1.1,0,2.1,0.2,3.1,0.7c1,0.4,1.9,1.2,2.9,2.2l4.1-2.9l1,0.5l-0.1,6.1v16.7
		c0,1.2,0,2.3,0,3.5c0,1.2,0,2.4,0.1,3.5l3,0.6v1.8h-12v-1.8l3.6-0.7c0-1.2,0.1-2.3,0.1-3.5c0-1.2,0-2.3,0-3.5v-3.5
		c-0.9,1.1-1.8,1.9-2.9,2.4C381.4,302.5,380.2,302.8,378.9,302.8z M375.6,291.5c0,2.7,0.5,4.8,1.6,6.1c1,1.3,2.3,2,3.9,2
		c0.8,0,1.5-0.2,2.2-0.5c0.7-0.3,1.3-0.8,1.9-1.5v-12.9c-0.8-0.6-1.4-1-2.1-1.3c-0.6-0.2-1.3-0.4-1.9-0.4c-1.6,0-2.9,0.7-4,2
		C376.2,286.5,375.6,288.6,375.6,291.5z"/>
	<path class="st2" d="M411.7,302.5l-0.4-4c-2.2,2.8-4.7,4.2-7.6,4.2c-1.9,0-3.4-0.6-4.5-1.8c-1.1-1.2-1.7-3.3-1.6-6.3l0.2-11.1
		l-2.9-0.6v-1.8l7.9-0.9l0.5,0.5L403,287v7.5c0,1.7,0.3,2.9,0.8,3.5c0.5,0.7,1.3,1,2.3,1c0.8,0,1.7-0.2,2.6-0.7
		c0.9-0.5,1.7-1.1,2.5-1.8l0.1-12.9l-2.8-0.6v-1.7l7.7-1l0.6,0.5l-0.1,6.3v12.7l2.7,0.6v1.8L411.7,302.5z"/>
	<path class="st2" d="M432.6,302.8c-2.1,0-3.9-0.4-5.5-1.4c-1.6-0.9-2.8-2.2-3.7-3.9c-0.9-1.7-1.3-3.7-1.3-6.1
		c0-2.4,0.5-4.5,1.6-6.2c1-1.7,2.4-3,4-4c1.7-0.9,3.4-1.4,5.3-1.4c1.8,0,3.3,0.4,4.6,1.1c1.3,0.8,2.3,1.8,3.1,3.1
		c0.7,1.4,1.1,2.9,1.1,4.8c0,1-0.1,1.8-0.3,2.5h-13.8c0.1,2.6,0.8,4.5,2,5.8c1.2,1.3,2.8,1.9,4.7,1.9c1.3,0,2.4-0.3,3.4-0.8
		c0.9-0.5,1.7-1.2,2.5-2l1.3,1.2c-0.9,1.6-2.1,2.9-3.6,3.8C436.5,302.3,434.7,302.8,432.6,302.8z M432.6,282.1
		c-0.7,0-1.4,0.2-2.1,0.7c-0.7,0.5-1.3,1.2-1.8,2.3c-0.5,1.1-0.8,2.5-0.9,4.3h6.2c1.1,0,1.8-0.2,2.2-0.7c0.4-0.4,0.5-1.1,0.5-1.9
		c0-1.4-0.4-2.5-1.2-3.4C434.6,282.5,433.7,282.1,432.6,282.1z"/>
	<path class="st2" d="M465.8,302.8c-2.1,0-3.9-0.4-5.5-1.4c-1.6-0.9-2.8-2.2-3.7-3.9c-0.9-1.7-1.3-3.7-1.3-6.1
		c0-2.4,0.5-4.5,1.6-6.2c1-1.7,2.4-3,4-4c1.7-0.9,3.4-1.4,5.3-1.4c1.8,0,3.3,0.4,4.6,1.1c1.3,0.8,2.3,1.8,3.1,3.1
		c0.7,1.4,1.1,2.9,1.1,4.8c0,1-0.1,1.8-0.3,2.5h-13.8c0.1,2.6,0.8,4.5,2,5.8c1.2,1.3,2.8,1.9,4.7,1.9c1.3,0,2.4-0.3,3.4-0.8
		c0.9-0.5,1.7-1.2,2.5-2l1.3,1.2c-0.9,1.6-2.1,2.9-3.6,3.8C469.7,302.3,467.9,302.8,465.8,302.8z M465.8,282.1
		c-0.7,0-1.4,0.2-2.1,0.7c-0.7,0.5-1.3,1.2-1.8,2.3c-0.5,1.1-0.8,2.5-0.9,4.3h6.2c1.1,0,1.8-0.2,2.2-0.7c0.4-0.4,0.5-1.1,0.5-1.9
		c0-1.4-0.4-2.5-1.2-3.4C467.9,282.5,466.9,282.1,465.8,282.1z"/>
	<path class="st2" d="M478.3,302.1v-1.8l2.9-0.6c0-1.1,0-2.3,0-3.6c0-1.3,0-2.4,0-3.4v-2.4c0-1.2,0-2.2,0-2.9c0-0.7-0.1-1.6-0.1-2.5
		l-3.2-0.4v-1.7l7.5-2.8l0.7,0.5l0.3,3.5c2.3-2.6,4.9-3.9,7.7-3.9c2,0,3.5,0.6,4.5,1.9c1.1,1.3,1.6,3.3,1.6,6.1v4.7c0,1,0,2.2,0,3.5
		c0,1.3,0,2.5,0,3.6l2.7,0.5v1.8h-11.1v-1.8l2.9-0.6c0-1.1,0-2.3,0-3.6c0-1.3,0-2.4,0-3.4v-4.3c0-1.8-0.2-3-0.7-3.7
		c-0.5-0.7-1.3-1-2.4-1c-1.6,0-3.3,0.7-5,2.2v6.8c0,1,0,2.1,0,3.4c0,1.3,0,2.5,0,3.6l2.7,0.5v1.8H478.3z"/>
	<path class="st2" d="M505.7,302.1v-1.8l3-0.6c0-1.2,0.1-2.3,0.1-3.5c0-1.2,0-2.3,0-3.5v-9.4h-3.3V281l3.5-0.5
		c0.2-2.2,0.6-4,1.1-5.4c0.5-1.4,1.3-2.6,2.3-3.6c1-1,2.1-1.7,3.4-2.2c1.2-0.4,2.4-0.7,3.5-0.7c1.2,0,2.2,0.2,3.1,0.6
		c0.9,0.4,1.5,1.2,1.7,2.2c0,0.7-0.3,1.3-0.8,1.8c-0.5,0.5-1.2,0.7-2.1,0.7c-1.3,0-2.5-0.7-3.6-2.2l-0.8-0.8
		c-0.1,0.1-0.2,0.2-0.3,0.3c-0.8,0.8-1.4,2-1.8,3.4c-0.4,1.5-0.5,3.5-0.4,5.9h5.5v2.7h-5.4v9.4c0,1.1,0,2.3,0,3.4
		c0,1.2,0,2.3,0.1,3.5l3.8,0.7v1.8H505.7z"/>
	<path class="st2" d="M521.9,302.1v-1.8l2.9-0.5c0-1.1,0-2.4,0-3.7c0-1.3,0-2.4,0-3.4v-2.4c0-1.2,0-2.2,0-2.9c0-0.7-0.1-1.6-0.1-2.5
		l-3.2-0.4v-1.7l7.5-2.8l0.7,0.5l0.5,5.3c0.7-1.9,1.6-3.3,2.8-4.3c1.2-1,2.3-1.5,3.5-1.5c0.8,0,1.6,0.2,2.2,0.6
		c0.7,0.4,1.1,1,1.3,1.8c0,1.1-0.3,2-0.8,2.6c-0.5,0.6-1.2,0.9-2.1,0.9c-1.1,0-2.1-0.5-3.1-1.6l-0.4-0.4c-1.6,1.3-2.7,3.2-3.4,5.6
		v3.3c0,0.9,0,2,0,3.3c0,1.3,0,2.5,0,3.6l3.7,0.7v1.8H521.9z"/>
	<path class="st2" d="M551.9,302.8c-2.1,0-3.9-0.4-5.5-1.4c-1.6-0.9-2.8-2.2-3.7-3.9c-0.9-1.7-1.3-3.7-1.3-6.1
		c0-2.4,0.5-4.5,1.6-6.2c1-1.7,2.4-3,4-4c1.7-0.9,3.4-1.4,5.3-1.4c1.8,0,3.3,0.4,4.6,1.1c1.3,0.8,2.3,1.8,3.1,3.1
		c0.7,1.4,1.1,2.9,1.1,4.8c0,1-0.1,1.8-0.3,2.5H547c0.1,2.6,0.8,4.5,2,5.8c1.2,1.3,2.8,1.9,4.7,1.9c1.3,0,2.4-0.3,3.4-0.8
		c0.9-0.5,1.7-1.2,2.5-2l1.3,1.2c-0.9,1.6-2.1,2.9-3.6,3.8C555.8,302.3,554,302.8,551.9,302.8z M551.9,282.1c-0.7,0-1.4,0.2-2.1,0.7
		c-0.7,0.5-1.3,1.2-1.8,2.3c-0.5,1.1-0.8,2.5-0.9,4.3h6.2c1.1,0,1.8-0.2,2.2-0.7c0.4-0.4,0.5-1.1,0.5-1.9c0-1.4-0.4-2.5-1.2-3.4
		C554,282.5,553,282.1,551.9,282.1z"/>
	<path class="st2" d="M564.3,302.1v-1.8l2.9-0.6c0-1.1,0-2.3,0-3.6c0-1.3,0-2.4,0-3.4v-2.4c0-1.2,0-2.2,0-2.9c0-0.7-0.1-1.6-0.1-2.5
		l-3.2-0.4v-1.7l7.5-2.8l0.7,0.5l0.3,3.5c2.3-2.6,4.9-3.9,7.7-3.9c2,0,3.5,0.6,4.5,1.9c1.1,1.3,1.6,3.3,1.6,6.1v4.7c0,1,0,2.2,0,3.5
		c0,1.3,0,2.5,0,3.6l2.7,0.5v1.8H578v-1.8l2.9-0.6c0-1.1,0-2.3,0-3.6c0-1.3,0-2.4,0-3.4v-4.3c0-1.8-0.2-3-0.7-3.7
		c-0.5-0.7-1.3-1-2.4-1c-1.6,0-3.3,0.7-5,2.2v6.8c0,1,0,2.1,0,3.4c0,1.3,0,2.5,0,3.6l2.7,0.5v1.8H564.3z"/>
	<path class="st2" d="M599.6,302.8c-1.8,0-3.2-0.4-4.2-1.4c-1-0.9-1.5-2.3-1.5-4.3c0-0.7,0-1.3,0-2c0-0.6,0-1.4,0-2.2v-9.6h-3.3V281
		l3.6-0.5l1.7-6.2h3.6l-0.2,6.2h5.4v2.7h-5.4v13.3c0,1.1,0.2,1.9,0.7,2.4c0.4,0.5,1,0.8,1.7,0.8c0.8,0,1.7-0.4,2.7-1.1l1.1,1.1
		c-0.6,0.9-1.3,1.7-2.3,2.2C602.2,302.5,601,302.8,599.6,302.8z"/>
	<path class="st2" d="M624.1,302.7c-1.2,0-2.2-0.3-2.9-0.9c-0.8-0.6-1.3-1.4-1.5-2.5c-1.1,1.1-2.1,2-3,2.6s-2.1,0.9-3.5,0.9
		c-1.7,0-3.1-0.5-4.3-1.5c-1.2-1-1.7-2.4-1.7-4.2c0-1,0.2-1.9,0.7-2.7s1.3-1.6,2.4-2.3c1.2-0.7,2.8-1.4,5-2.1c0.6-0.2,1.3-0.4,2-0.6
		c0.7-0.2,1.5-0.4,2.3-0.6v-1.3c0-2.1-0.3-3.5-0.9-4.3c-0.6-0.7-1.6-1.1-3.1-1.1c-0.3,0-0.6,0-0.9,0c-0.3,0-0.6,0.1-1,0.1l-0.5,2.5
		c-0.1,1.1-0.4,1.9-0.9,2.4c-0.5,0.5-1.1,0.8-1.9,0.8c-1.4,0-2.3-0.7-2.5-2c0.3-1.8,1.2-3.2,2.9-4.3s3.9-1.6,6.6-1.6
		c2.6,0,4.5,0.6,5.7,1.9c1.2,1.2,1.8,3.3,1.8,6.3v9.8c0,1.4,0.4,2,1.3,2c0.6,0,1.1-0.3,1.6-1l1,0.9c-0.5,1-1.2,1.7-1.9,2.2
		C626.1,302.5,625.2,302.7,624.1,302.7z M612.4,296.1c0,1.2,0.3,2,0.9,2.5c0.6,0.5,1.4,0.8,2.3,0.8c0.5,0,1-0.1,1.5-0.4
		c0.5-0.2,1.3-0.7,2.4-1.5v-7.1c-0.6,0.2-1.2,0.4-1.8,0.6c-0.6,0.2-1,0.3-1.4,0.5c-1.5,0.6-2.5,1.3-3.1,2.1
		C612.7,294.5,612.4,295.3,612.4,296.1z"/>
	<path class="st2" d="M630.2,302.1v-1.8l2.9-0.6c0-1.1,0-2.3,0-3.6c0-1.3,0-2.4,0-3.4v-2.4c0-1.2,0-2.2,0-2.9c0-0.7-0.1-1.6-0.1-2.5
		l-3.2-0.4v-1.7l7.5-2.8l0.7,0.5l0.3,3.5c1.1-1.2,2.3-2.2,3.5-2.9c1.3-0.7,2.6-1.1,4-1.1c2.9,0,4.8,1.4,5.6,4.1
		c1.2-1.4,2.4-2.5,3.7-3.1s2.6-1,4-1c2,0,3.6,0.6,4.6,1.9c1,1.3,1.5,3.3,1.5,6v4.8c0,1,0,2.2,0,3.4c0,1.3,0,2.5,0,3.6l2.7,0.5v1.8
		h-11v-1.8l2.8-0.6c0-1.1,0-2.3,0-3.6c0-1.3,0-2.4,0-3.4v-4.1c0-1.9-0.2-3.2-0.7-3.8c-0.5-0.7-1.3-1-2.5-1c-1.6,0-3.2,0.8-5,2.3
		c0,0.3,0.1,0.6,0.1,0.9c0,0.3,0,0.7,0,1v4.7c0,1,0,2.2,0,3.4c0,1.3,0,2.5,0,3.6l2.7,0.5v1.8h-11v-1.8l2.9-0.6c0-1.1,0-2.3,0-3.6
		c0-1.3,0-2.4,0-3.4v-4c0-1.8-0.2-3.1-0.7-3.8c-0.5-0.7-1.3-1.1-2.5-1.1c-0.8,0-1.7,0.2-2.5,0.6c-0.8,0.4-1.6,1-2.4,1.6v6.7
		c0,1,0,2.1,0,3.4c0,1.3,0,2.5,0,3.6l2.7,0.5v1.8H630.2z"/>
	<path class="st2" d="M681.9,302.8c-2,0-3.9-0.4-5.5-1.4c-1.6-0.9-2.9-2.2-3.9-3.9c-1-1.7-1.4-3.8-1.4-6.1c0-2.4,0.5-4.5,1.5-6.2
		c1-1.7,2.3-3,4-3.9c1.6-0.9,3.4-1.4,5.4-1.4s3.7,0.5,5.4,1.4c1.6,0.9,3,2.2,4,3.9c1,1.7,1.5,3.8,1.5,6.2c0,2.4-0.5,4.4-1.5,6.1
		c-1,1.7-2.3,3-3.9,3.9C685.8,302.3,683.9,302.8,681.9,302.8z M681.9,300.6c1.6,0,2.9-0.7,3.7-2.2c0.9-1.5,1.3-3.8,1.3-6.9
		c0-6.2-1.7-9.3-5-9.3c-3.3,0-5,3.1-5,9.3c0,3.1,0.4,5.4,1.3,6.9C679,299.8,680.3,300.6,681.9,300.6z"/>
	<path class="st2" d="M703.5,302.8c-1.4,0-2.6-0.2-3.8-0.5c-1.2-0.3-2.3-0.8-3.4-1.4l0-5.2h3l0.8,4.2c1.1,0.4,2.2,0.7,3.5,0.7
		c1.5,0,2.7-0.3,3.4-0.8s1.1-1.3,1.1-2.2c0-0.8-0.3-1.5-0.9-2c-0.6-0.5-1.6-1-3.1-1.5l-2.2-0.8c-1.7-0.5-3-1.3-4-2.4
		c-1-1-1.5-2.4-1.5-4c0-1.3,0.3-2.4,1-3.4c0.7-1,1.6-1.9,2.9-2.5c1.3-0.6,2.8-0.9,4.7-0.9c1.3,0,2.5,0.2,3.5,0.5
		c1.1,0.3,2.1,0.8,3.2,1.4l-0.2,4.7h-3l-0.8-3.8c-0.8-0.4-1.8-0.5-2.8-0.5c-1.2,0-2.1,0.3-2.8,0.8c-0.7,0.5-1,1.2-1,2.1
		c0,0.8,0.3,1.5,0.8,2s1.6,1,3.1,1.5l1.8,0.5c2.2,0.8,3.8,1.7,4.7,2.8c0.9,1.1,1.4,2.4,1.4,4c0,2-0.8,3.7-2.5,5
		C708.9,302.1,706.6,302.8,703.5,302.8z"/>
	<path class="st2" d="M201.2,352.8c-2,0-3.9-0.4-5.5-1.3c-1.6-0.9-2.9-2.2-3.8-3.9c-0.9-1.7-1.4-3.7-1.4-6.1c0-2.4,0.5-4.5,1.6-6.2
		c1-1.7,2.4-3,4.1-3.9c1.7-0.9,3.6-1.3,5.6-1.3c1.5,0,2.8,0.3,4,0.8c1.2,0.6,2.1,1.3,2.9,2.2c0.7,0.9,1.2,2,1.3,3.1
		c-0.4,1.3-1.2,2-2.6,2c-1.7,0-2.7-1-2.9-3.1l-0.6-2.7c-0.3-0.1-0.5-0.1-0.8-0.1c-0.3,0-0.5,0-0.8,0c-1.1,0-2.1,0.3-3,0.9
		c-0.9,0.6-1.7,1.6-2.2,2.9c-0.6,1.3-0.9,2.9-0.9,4.9c0,2.7,0.6,4.8,1.9,6.3c1.2,1.4,2.9,2.2,4.9,2.2c1.2,0,2.3-0.3,3.2-0.8
		c1-0.5,1.8-1.3,2.4-2.2l1.3,1c-0.8,1.8-1.9,3.2-3.4,4.2C205.2,352.3,203.4,352.8,201.2,352.8z"/>
	<path class="st2" d="M223.8,352.8c-2,0-3.9-0.4-5.5-1.3s-2.9-2.2-3.9-3.9c-1-1.7-1.4-3.8-1.4-6.1c0-2.4,0.5-4.5,1.5-6.2
		c1-1.7,2.3-3,4-3.9c1.6-0.9,3.4-1.3,5.4-1.3s3.7,0.5,5.4,1.3c1.6,0.9,3,2.2,4,3.9c1,1.7,1.5,3.8,1.5,6.2c0,2.4-0.5,4.4-1.5,6.1
		c-1,1.7-2.3,3-3.9,3.9C227.7,352.3,225.9,352.8,223.8,352.8z M223.8,350.6c1.6,0,2.9-0.7,3.7-2.2c0.9-1.5,1.3-3.8,1.3-6.9
		c0-6.2-1.7-9.3-5-9.3c-3.3,0-5,3.1-5,9.3c0,3.1,0.4,5.4,1.3,6.9C221,349.8,222.2,350.6,223.8,350.6z"/>
	<path class="st2" d="M237.9,352.1v-1.8l2.9-0.6c0-1.1,0-2.3,0-3.6s0-2.4,0-3.4v-2.4c0-1.2,0-2.2,0-2.9c0-0.7-0.1-1.6-0.1-2.5
		l-3.2-0.4v-1.7l7.5-2.8l0.7,0.5l0.3,3.5c1.1-1.2,2.3-2.2,3.5-2.9c1.3-0.7,2.6-1.1,4-1.1c2.9,0,4.8,1.4,5.6,4.1
		c1.2-1.4,2.4-2.5,3.7-3.1s2.6-1,4-1c2,0,3.6,0.6,4.6,1.9c1,1.3,1.5,3.3,1.5,6v4.8c0,1,0,2.2,0,3.4s0,2.5,0,3.6l2.7,0.5v1.8h-11
		v-1.8l2.8-0.6c0-1.1,0-2.3,0-3.6s0-2.4,0-3.4v-4.1c0-1.9-0.2-3.2-0.7-3.8c-0.5-0.7-1.3-1-2.5-1c-1.6,0-3.2,0.8-5,2.3
		c0,0.3,0.1,0.6,0.1,0.9c0,0.3,0,0.7,0,1v4.7c0,1,0,2.2,0,3.4s0,2.5,0,3.6l2.7,0.5v1.8h-11v-1.8l2.9-0.6c0-1.1,0-2.3,0-3.6
		s0-2.4,0-3.4v-4c0-1.8-0.2-3.1-0.7-3.8c-0.5-0.7-1.3-1.1-2.5-1.1c-0.8,0-1.7,0.2-2.5,0.6s-1.6,1-2.4,1.6v6.7c0,1,0,2.1,0,3.4
		s0,2.5,0,3.6l2.7,0.5v1.8H237.9z"/>
	<path class="st2" d="M289.6,352.8c-2,0-3.9-0.4-5.5-1.3s-2.9-2.2-3.9-3.9c-1-1.7-1.4-3.8-1.4-6.1c0-2.4,0.5-4.5,1.5-6.2
		c1-1.7,2.3-3,4-3.9c1.6-0.9,3.4-1.3,5.4-1.3s3.7,0.5,5.4,1.3c1.6,0.9,3,2.2,4,3.9c1,1.7,1.5,3.8,1.5,6.2c0,2.4-0.5,4.4-1.5,6.1
		c-1,1.7-2.3,3-3.9,3.9C293.5,352.3,291.6,352.8,289.6,352.8z M289.6,350.6c1.6,0,2.9-0.7,3.7-2.2c0.9-1.5,1.3-3.8,1.3-6.9
		c0-6.2-1.7-9.3-5-9.3c-3.3,0-5,3.1-5,9.3c0,3.1,0.4,5.4,1.3,6.9C286.7,349.8,288,350.6,289.6,350.6z"/>
	<path class="st2" d="M324.7,352.8c-2,0-3.9-0.4-5.5-1.3s-2.9-2.2-3.9-3.9c-1-1.7-1.4-3.8-1.4-6.1c0-2.4,0.5-4.5,1.5-6.2
		c1-1.7,2.3-3,4-3.9c1.6-0.9,3.4-1.3,5.4-1.3s3.7,0.5,5.4,1.3c1.6,0.9,3,2.2,4,3.9c1,1.7,1.5,3.8,1.5,6.2c0,2.4-0.5,4.4-1.5,6.1
		c-1,1.7-2.3,3-3.9,3.9C328.6,352.3,326.8,352.8,324.7,352.8z M324.7,350.6c1.6,0,2.9-0.7,3.7-2.2c0.9-1.5,1.3-3.8,1.3-6.9
		c0-6.2-1.7-9.3-5-9.3c-3.3,0-5,3.1-5,9.3c0,3.1,0.4,5.4,1.3,6.9C321.9,349.8,323.1,350.6,324.7,350.6z"/>
	<path class="st2" d="M338.8,352.1v-1.8l2.9-0.5c0-1.1,0-2.4,0-3.7s0-2.4,0-3.4v-2.4c0-1.2,0-2.2,0-2.9c0-0.7-0.1-1.6-0.1-2.5
		l-3.2-0.4v-1.7l7.5-2.8l0.7,0.5l0.5,5.3c0.7-1.9,1.6-3.3,2.8-4.3c1.2-1,2.3-1.5,3.5-1.5c0.8,0,1.6,0.2,2.2,0.6
		c0.7,0.4,1.1,1,1.3,1.8c0,1.1-0.3,2-0.8,2.6c-0.5,0.6-1.2,0.9-2.1,0.9c-1.1,0-2.1-0.5-3.1-1.6l-0.4-0.5c-1.6,1.3-2.7,3.2-3.4,5.6
		v3.3c0,0.9,0,2,0,3.3s0,2.5,0,3.6l3.7,0.7v1.8H338.8z"/>
	<path class="st2" d="M367.5,344.6c-1.3,0-2.6-0.2-3.7-0.5c-0.6,0.8-0.9,1.6-0.9,2.5c0,0.6,0.2,1,0.6,1.3s1.1,0.5,2,0.5h5.6
		c2.9,0,5,0.6,6.3,1.7s1.9,2.6,1.9,4.5c0,1.4-0.5,2.7-1.4,4c-0.9,1.2-2.3,2.2-4,3c-1.8,0.8-4,1.1-6.7,1.1c-2.3,0-4.2-0.2-5.6-0.7
		c-1.4-0.5-2.4-1.1-3-1.9c-0.6-0.8-0.9-1.7-0.9-2.7c0-1,0.3-1.8,0.9-2.6c0.6-0.8,1.7-1.5,3.1-2.2c-0.9-0.3-1.6-0.8-2.1-1.4
		c-0.5-0.6-0.7-1.3-0.7-2.1c0-0.9,0.3-1.7,0.8-2.6c0.5-0.9,1.3-1.8,2.5-2.8c-2.4-1.2-3.6-3.3-3.6-6.2c0-2.2,0.8-4,2.3-5.3
		c1.6-1.3,3.7-2,6.4-2s4.9,0.6,6.4,1.9l5.1-1.9l0.7,0.5v3.1h-4.4c0.6,1,0.9,2.3,0.9,3.8c0,2.2-0.8,4-2.3,5.3
		S370.3,344.6,367.5,344.6z M361.8,356.3c0,1.4,0.5,2.4,1.5,3c1,0.6,2.5,0.9,4.4,0.9c2.4,0,4.2-0.4,5.4-1.2c1.2-0.8,1.8-1.7,1.8-2.8
		c0-0.8-0.3-1.6-0.9-2.2c-0.6-0.6-1.6-0.9-3-0.9h-5c-1.1,0-2.1-0.1-3-0.3C362.2,354,361.8,355.1,361.8,356.3z M367.4,342.6
		c1.3,0,2.2-0.5,2.9-1.5s1-2.3,1-4c0-1.6-0.3-2.9-1-3.8c-0.6-0.9-1.6-1.4-2.8-1.4c-1.2,0-2.1,0.5-2.8,1.5c-0.7,1-1,2.3-1,3.9
		s0.3,2.9,0.9,3.9C365.3,342.1,366.2,342.6,367.4,342.6z"/>
	<path class="st2" d="M398.3,352.7c-1.2,0-2.2-0.3-2.9-0.9c-0.8-0.6-1.3-1.4-1.5-2.5c-1.1,1.1-2.1,2-3,2.6s-2.1,0.9-3.5,0.9
		c-1.7,0-3.1-0.5-4.3-1.5c-1.2-1-1.7-2.4-1.7-4.2c0-1,0.2-1.9,0.7-2.7s1.3-1.6,2.4-2.3c1.2-0.7,2.8-1.4,5-2.1c0.6-0.2,1.3-0.4,2-0.6
		c0.7-0.2,1.5-0.4,2.3-0.6v-1.3c0-2.1-0.3-3.5-0.9-4.3c-0.6-0.7-1.6-1.1-3.1-1.1c-0.3,0-0.6,0-0.9,0c-0.3,0-0.6,0.1-1,0.1l-0.5,2.5
		c-0.1,1.1-0.4,1.9-0.9,2.4c-0.5,0.5-1.1,0.8-1.9,0.8c-1.4,0-2.3-0.7-2.5-2c0.3-1.8,1.2-3.2,2.9-4.3s3.9-1.6,6.6-1.6
		c2.6,0,4.5,0.6,5.7,1.9c1.2,1.2,1.8,3.3,1.8,6.3v9.8c0,1.3,0.4,2,1.3,2c0.6,0,1.1-0.3,1.6-1l1,0.9c-0.5,1-1.2,1.7-1.9,2.2
		C400.3,352.5,399.4,352.7,398.3,352.7z M386.6,346.1c0,1.2,0.3,2,0.9,2.5c0.6,0.5,1.4,0.8,2.3,0.8c0.5,0,1-0.1,1.5-0.4
		c0.5-0.2,1.3-0.7,2.4-1.5v-7.1c-0.6,0.2-1.2,0.4-1.8,0.6c-0.6,0.2-1,0.3-1.4,0.5c-1.5,0.6-2.5,1.3-3.1,2.1
		C386.9,344.5,386.6,345.3,386.6,346.1z"/>
	<path class="st2" d="M404.4,352.1v-1.8l2.9-0.6c0-1.1,0-2.3,0-3.6s0-2.4,0-3.4v-2.4c0-1.2,0-2.2,0-2.9c0-0.7-0.1-1.6-0.1-2.5
		l-3.2-0.4v-1.7l7.5-2.8l0.7,0.5l0.3,3.5c2.3-2.6,4.9-3.9,7.7-3.9c2,0,3.5,0.6,4.5,1.9c1.1,1.3,1.6,3.3,1.6,6.1v4.7c0,1,0,2.2,0,3.5
		s0,2.5,0,3.6l2.7,0.5v1.8h-11.1v-1.8l2.9-0.6c0-1.1,0-2.3,0-3.6s0-2.4,0-3.4v-4.3c0-1.8-0.2-3-0.7-3.7c-0.5-0.7-1.3-1-2.4-1
		c-1.6,0-3.3,0.7-5,2.2v6.8c0,1,0,2.1,0,3.4s0,2.5,0,3.6l2.7,0.5v1.8H404.4z"/>
	<path class="st2" d="M431.8,352.1v-1.8l3-0.6c0-1.1,0-2.3,0-3.6s0-2.4,0-3.4v-2.1c0-1.2,0-2.3,0-3.1c0-0.8-0.1-1.7-0.1-2.6
		l-3.2-0.4v-1.7l8.1-2.8l0.7,0.5l-0.1,6.3v5.9c0,1,0,2.1,0,3.4s0,2.5,0,3.7l2.7,0.5v1.8H431.8z M437.5,325.8c-1,0-1.8-0.3-2.4-0.9
		c-0.7-0.6-1-1.4-1-2.3c0-1,0.3-1.7,1-2.3s1.5-0.9,2.4-0.9c1,0,1.8,0.3,2.4,0.9c0.6,0.6,1,1.4,1,2.3c0,0.9-0.3,1.7-1,2.3
		C439.2,325.5,438.4,325.8,437.5,325.8z"/>
	<path class="st2" d="M445.3,352.1v-1.7l12.1-17.9h-7.6l-1.2,5l-3-0.2l0.4-6.8h17.5v1.7l-11.9,17.9h8.2l1.3-5.4h3l-0.5,7.4H445.3z"
		/>
	<path class="st2" d="M483.6,352.7c-1.2,0-2.2-0.3-2.9-0.9c-0.8-0.6-1.3-1.4-1.5-2.5c-1.1,1.1-2.1,2-3,2.6s-2.1,0.9-3.5,0.9
		c-1.7,0-3.1-0.5-4.3-1.5c-1.2-1-1.7-2.4-1.7-4.2c0-1,0.2-1.9,0.7-2.7s1.3-1.6,2.4-2.3c1.2-0.7,2.8-1.4,5-2.1c0.6-0.2,1.3-0.4,2-0.6
		c0.7-0.2,1.5-0.4,2.3-0.6v-1.3c0-2.1-0.3-3.5-0.9-4.3c-0.6-0.7-1.6-1.1-3.1-1.1c-0.3,0-0.6,0-0.9,0c-0.3,0-0.6,0.1-1,0.1l-0.5,2.5
		c-0.1,1.1-0.4,1.9-0.9,2.4c-0.5,0.5-1.1,0.8-1.9,0.8c-1.4,0-2.3-0.7-2.5-2c0.3-1.8,1.2-3.2,2.9-4.3s3.9-1.6,6.6-1.6
		c2.6,0,4.5,0.6,5.7,1.9c1.2,1.2,1.8,3.3,1.8,6.3v9.8c0,1.3,0.4,2,1.3,2c0.6,0,1.1-0.3,1.6-1l1,0.9c-0.5,1-1.2,1.7-1.9,2.2
		C485.6,352.5,484.6,352.7,483.6,352.7z M471.9,346.1c0,1.2,0.3,2,0.9,2.5c0.6,0.5,1.4,0.8,2.3,0.8c0.5,0,1-0.1,1.5-0.4
		c0.5-0.2,1.3-0.7,2.4-1.5v-7.1c-0.6,0.2-1.2,0.4-1.8,0.6c-0.6,0.2-1,0.3-1.4,0.5c-1.5,0.6-2.5,1.3-3.1,2.1
		C472.1,344.5,471.9,345.3,471.9,346.1z"/>
	<path class="st2" d="M500.5,352.8c-2,0-3.9-0.4-5.5-1.3c-1.6-0.9-2.9-2.2-3.8-3.9c-0.9-1.7-1.4-3.7-1.4-6.1c0-2.4,0.5-4.5,1.6-6.2
		c1-1.7,2.4-3,4.1-3.9c1.7-0.9,3.6-1.3,5.6-1.3c1.5,0,2.8,0.3,4,0.8c1.2,0.6,2.1,1.3,2.9,2.2c0.7,0.9,1.2,2,1.3,3.1
		c-0.4,1.3-1.2,2-2.6,2c-1.7,0-2.7-1-2.9-3.1l-0.6-2.7c-0.3-0.1-0.5-0.1-0.8-0.1c-0.3,0-0.5,0-0.8,0c-1.1,0-2.1,0.3-3,0.9
		c-0.9,0.6-1.7,1.6-2.2,2.9c-0.6,1.3-0.9,2.9-0.9,4.9c0,2.7,0.6,4.8,1.9,6.3c1.2,1.4,2.9,2.2,4.9,2.2c1.2,0,2.3-0.3,3.2-0.8
		c1-0.5,1.8-1.3,2.4-2.2l1.3,1c-0.8,1.8-1.9,3.2-3.4,4.2C504.5,352.3,502.7,352.8,500.5,352.8z"/>
	<path class="st2" d="M512.2,352.1v-1.8l3-0.6c0-1.1,0-2.3,0-3.6s0-2.4,0-3.4v-2.1c0-1.2,0-2.3,0-3.1c0-0.8-0.1-1.7-0.1-2.6
		l-3.2-0.4v-1.7l8.1-2.8l0.7,0.5l-0.1,6.3v5.9c0,1,0,2.1,0,3.4s0,2.5,0,3.7l2.7,0.5v1.8H512.2z M517.9,325.8c-1,0-1.8-0.3-2.4-0.9
		c-0.7-0.6-1-1.4-1-2.3c0-1,0.3-1.7,1-2.3s1.5-0.9,2.4-0.9c1,0,1.8,0.3,2.4,0.9c0.6,0.6,1,1.4,1,2.3c0,0.9-0.3,1.7-1,2.3
		C519.7,325.5,518.9,325.8,517.9,325.8z"/>
	<path class="st2" d="M537.1,352.8c-2,0-3.9-0.4-5.5-1.3s-2.9-2.2-3.9-3.9c-1-1.7-1.4-3.8-1.4-6.1c0-2.4,0.5-4.5,1.5-6.2
		c1-1.7,2.3-3,4-3.9c1.6-0.9,3.4-1.3,5.4-1.3s3.7,0.5,5.4,1.3c1.6,0.9,3,2.2,4,3.9c1,1.7,1.5,3.8,1.5,6.2c0,2.4-0.5,4.4-1.5,6.1
		c-1,1.7-2.3,3-3.9,3.9C541,352.3,539.2,352.8,537.1,352.8z M537.1,350.6c1.6,0,2.9-0.7,3.7-2.2c0.9-1.5,1.3-3.8,1.3-6.9
		c0-6.2-1.7-9.3-5-9.3c-3.3,0-5,3.1-5,9.3c0,3.1,0.4,5.4,1.3,6.9C534.3,349.8,535.5,350.6,537.1,350.6z"/>
	<path class="st2" d="M551.2,352.1v-1.8l2.9-0.6c0-1.1,0-2.3,0-3.6s0-2.4,0-3.4v-2.4c0-1.2,0-2.2,0-2.9c0-0.7-0.1-1.6-0.1-2.5
		l-3.2-0.4v-1.7l7.5-2.8l0.7,0.5l0.3,3.5c2.3-2.6,4.9-3.9,7.7-3.9c2,0,3.5,0.6,4.5,1.9c1.1,1.3,1.6,3.3,1.6,6.1v4.7c0,1,0,2.2,0,3.5
		s0,2.5,0,3.6l2.7,0.5v1.8h-11.1v-1.8l2.9-0.6c0-1.1,0-2.3,0-3.6s0-2.4,0-3.4v-4.3c0-1.8-0.2-3-0.7-3.7c-0.5-0.7-1.3-1-2.4-1
		c-1.6,0-3.3,0.7-5,2.2v6.8c0,1,0,2.1,0,3.4s0,2.5,0,3.6l2.7,0.5v1.8H551.2z"/>
	<path class="st2" d="M589.5,352.8c-2.1,0-3.9-0.4-5.5-1.3c-1.6-0.9-2.8-2.2-3.7-3.9c-0.9-1.7-1.3-3.7-1.3-6.1
		c0-2.4,0.5-4.5,1.6-6.2c1-1.7,2.4-3,4-4s3.4-1.4,5.3-1.4c1.8,0,3.3,0.4,4.6,1.1c1.3,0.8,2.3,1.8,3.1,3.2s1.1,2.9,1.1,4.8
		c0,1-0.1,1.8-0.3,2.5h-13.8c0.1,2.6,0.8,4.5,2,5.8c1.2,1.3,2.8,1.9,4.7,1.9c1.3,0,2.4-0.3,3.4-0.8c0.9-0.5,1.7-1.2,2.5-2l1.3,1.2
		c-0.9,1.6-2.1,2.9-3.6,3.8S591.5,352.8,589.5,352.8z M589.5,332.1c-0.7,0-1.4,0.2-2.1,0.7c-0.7,0.5-1.3,1.2-1.8,2.3
		c-0.5,1.1-0.8,2.5-0.9,4.3h6.2c1.1,0,1.8-0.2,2.2-0.7c0.4-0.5,0.5-1.1,0.5-1.9c0-1.4-0.4-2.5-1.2-3.4
		C591.5,332.5,590.6,332.1,589.5,332.1z"/>
	<path class="st2" d="M609.4,352.8c-1.4,0-2.6-0.2-3.8-0.5s-2.3-0.8-3.4-1.4l0-5.2h3l0.8,4.2c1.1,0.4,2.2,0.7,3.5,0.7
		c1.5,0,2.7-0.3,3.4-0.8s1.1-1.3,1.1-2.2c0-0.8-0.3-1.5-0.9-2c-0.6-0.5-1.6-1-3.1-1.5l-2.2-0.8c-1.7-0.5-3-1.3-4-2.4
		c-1-1.1-1.5-2.4-1.5-4c0-1.3,0.3-2.4,1-3.4c0.7-1,1.6-1.9,2.9-2.5c1.3-0.6,2.8-0.9,4.7-0.9c1.3,0,2.5,0.2,3.5,0.5
		c1.1,0.3,2.1,0.8,3.2,1.4l-0.2,4.7h-3l-0.8-3.8c-0.8-0.4-1.8-0.5-2.8-0.5c-1.2,0-2.1,0.3-2.8,0.8c-0.7,0.5-1,1.2-1,2.1
		c0,0.8,0.3,1.5,0.8,2c0.6,0.5,1.6,1,3.1,1.5l1.8,0.5c2.2,0.8,3.8,1.7,4.7,2.8c0.9,1.1,1.4,2.4,1.4,4c0,2-0.8,3.7-2.5,5
		C614.8,352.1,612.5,352.8,609.4,352.8z"/>
	<path class="st2" d="M645.2,332.4v-1.8h8.6v1.8l-2.5,0.5l-7.7,20.1c-1.3,3.5-2.6,6-3.9,7.6c-1.3,1.7-3,2.5-4.9,2.5
		c-1.2,0-2.2-0.3-3-0.9c-0.9-0.6-1.3-1.4-1.4-2.2c0.2-0.8,0.6-1.4,1.2-1.8c0.6-0.4,1.4-0.6,2.1-0.6c0.6,0,1.2,0.1,1.8,0.4
		c0.6,0.3,1.2,0.8,1.8,1.5l0.3,0.4c0.8-0.8,1.5-1.7,2.1-2.7c0.6-1,1.1-2.1,1.5-3.2l0.1-0.3l-8.5-20.8l-2.3-0.4v-1.8h11.8v1.8
		l-3.6,0.5l5,13.8l4.9-13.7L645.2,332.4z"/>
	<path class="st2" d="M190.2,402.1v-1.8l3.1-0.6c0-1.2,0.1-2.3,0.1-3.5c0-1.2,0-2.3,0-3.5v-19.3l-3.3-0.4v-1.8l8.2-2l0.7,0.4
		l-0.2,6.3v16.8c0,1.2,0,2.3,0,3.5c0,1.2,0,2.3,0.1,3.5l3.1,0.6v1.8H190.2z"/>
	<path class="st2" d="M204.4,402.1v-1.8l3-0.6c0-1.1,0-2.3,0-3.6s0-2.4,0-3.4v-2.1c0-1.2,0-2.3,0-3.1c0-0.8-0.1-1.7-0.1-2.6
		l-3.2-0.4v-1.7l8.1-2.8l0.7,0.5l-0.1,6.3v5.9c0,1,0,2.1,0,3.4s0,2.5,0,3.6l2.7,0.5v1.8H204.4z M207.9,376c0.5-0.9,1.1-1.8,1.6-2.7
		c0.6-0.9,1.3-2.1,2.1-3.4c0.5-0.9,1-1.5,1.4-1.8c0.5-0.3,1-0.5,1.5-0.5c0.5,0,1,0.2,1.4,0.5s0.7,0.9,0.7,1.6c0,0.9-0.7,1.9-2.2,3.1
		c-1.1,0.9-2.1,1.7-2.9,2.4c-0.8,0.7-1.6,1.3-2.4,2L207.9,376z"/>
	<path class="st2" d="M234.2,402.6l-0.4-2.8c-0.8,1-1.8,1.7-2.8,2.2s-2.2,0.8-3.5,0.8c-1.8,0-3.3-0.4-4.7-1.3
		c-1.4-0.9-2.4-2.2-3.2-3.9s-1.2-3.7-1.2-6c0-2.4,0.4-4.4,1.3-6.2s2.1-3.1,3.6-4c1.5-0.9,3.1-1.4,4.9-1.4c1.1,0,2.2,0.2,3.1,0.6
		c0.9,0.4,1.8,1.1,2.6,2.1v-9.3l-3.5-0.4v-1.8l8.2-2l0.7,0.4l-0.2,6.3v23.9l2.9,0.5v1.8L234.2,402.6z M224.2,391.5
		c0,2.7,0.5,4.8,1.6,6.1c1,1.3,2.3,2,3.9,2c0.8,0,1.5-0.2,2.1-0.5c0.6-0.3,1.3-0.8,1.8-1.4v-12.9c-1.3-1.1-2.6-1.7-3.9-1.7
		c-1.5,0-2.8,0.7-3.9,2C224.7,386.5,224.2,388.6,224.2,391.5z"/>
	<path class="st2" d="M255.1,402.8c-2.1,0-3.9-0.4-5.5-1.3c-1.6-0.9-2.8-2.2-3.7-3.9c-0.9-1.7-1.3-3.7-1.3-6.1
		c0-2.4,0.5-4.5,1.6-6.2c1-1.7,2.4-3,4-4s3.4-1.4,5.3-1.4c1.8,0,3.3,0.4,4.6,1.1c1.3,0.8,2.3,1.8,3.1,3.2s1.1,2.9,1.1,4.8
		c0,1-0.1,1.8-0.3,2.5h-13.8c0.1,2.6,0.8,4.5,2,5.8c1.2,1.3,2.8,1.9,4.7,1.9c1.3,0,2.4-0.3,3.4-0.8c0.9-0.5,1.7-1.2,2.5-2l1.3,1.2
		c-0.9,1.6-2.1,2.9-3.6,3.8S257.2,402.8,255.1,402.8z M255.1,382.1c-0.7,0-1.4,0.2-2.1,0.7c-0.7,0.5-1.3,1.2-1.8,2.3
		c-0.5,1.1-0.8,2.5-0.9,4.3h6.2c1.1,0,1.8-0.2,2.2-0.7c0.4-0.5,0.5-1.1,0.5-1.9c0-1.4-0.4-2.5-1.2-3.4
		C257.2,382.5,256.3,382.1,255.1,382.1z"/>
	<path class="st2" d="M267.6,402.1v-1.8l2.9-0.5c0-1.1,0-2.4,0-3.7s0-2.4,0-3.4v-2.4c0-1.2,0-2.2,0-2.9c0-0.7-0.1-1.6-0.1-2.5
		l-3.2-0.4v-1.7l7.5-2.8l0.7,0.5l0.5,5.3c0.7-1.9,1.6-3.3,2.8-4.3c1.2-1,2.3-1.5,3.5-1.5c0.8,0,1.6,0.2,2.2,0.6
		c0.7,0.4,1.1,1,1.3,1.8c0,1.1-0.3,2-0.8,2.6c-0.5,0.6-1.2,0.9-2.1,0.9c-1.1,0-2.1-0.5-3.1-1.6l-0.4-0.5c-1.6,1.3-2.7,3.2-3.4,5.6
		v3.3c0,0.9,0,2,0,3.3s0,2.5,0,3.6l3.7,0.7v1.8H267.6z"/>
	<path class="st2" d="M297.6,402.8c-2.1,0-3.9-0.4-5.5-1.3c-1.6-0.9-2.8-2.2-3.7-3.9c-0.9-1.7-1.3-3.7-1.3-6.1
		c0-2.4,0.5-4.5,1.6-6.2c1-1.7,2.4-3,4-4s3.4-1.4,5.3-1.4c1.8,0,3.3,0.4,4.6,1.1c1.3,0.8,2.3,1.8,3.1,3.2s1.1,2.9,1.1,4.8
		c0,1-0.1,1.8-0.3,2.5h-13.8c0.1,2.6,0.8,4.5,2,5.8c1.2,1.3,2.8,1.9,4.7,1.9c1.3,0,2.4-0.3,3.4-0.8c0.9-0.5,1.7-1.2,2.5-2l1.3,1.2
		c-0.9,1.6-2.1,2.9-3.6,3.8S299.7,402.8,297.6,402.8z M297.6,382.1c-0.7,0-1.4,0.2-2.1,0.7c-0.7,0.5-1.3,1.2-1.8,2.3
		c-0.5,1.1-0.8,2.5-0.9,4.3h6.2c1.1,0,1.8-0.2,2.2-0.7c0.4-0.5,0.5-1.1,0.5-1.9c0-1.4-0.4-2.5-1.2-3.4
		C299.7,382.5,298.7,382.1,297.6,382.1z"/>
	<path class="st2" d="M317.6,402.8c-1.4,0-2.6-0.2-3.8-0.5s-2.3-0.8-3.4-1.4l0-5.2h3l0.8,4.2c1.1,0.4,2.2,0.7,3.5,0.7
		c1.5,0,2.7-0.3,3.4-0.8s1.1-1.3,1.1-2.2c0-0.8-0.3-1.5-0.9-2c-0.6-0.5-1.6-1-3.1-1.5l-2.2-0.8c-1.7-0.5-3-1.3-4-2.4
		c-1-1.1-1.5-2.4-1.5-4c0-1.3,0.3-2.4,1-3.4c0.7-1,1.6-1.9,2.9-2.5c1.3-0.6,2.8-0.9,4.7-0.9c1.3,0,2.5,0.2,3.5,0.5
		c1.1,0.3,2.1,0.8,3.2,1.4l-0.2,4.7h-3l-0.8-3.8c-0.8-0.4-1.8-0.5-2.8-0.5c-1.2,0-2.1,0.3-2.8,0.8c-0.7,0.5-1,1.2-1,2.1
		c0,0.8,0.3,1.5,0.8,2c0.6,0.5,1.6,1,3.1,1.5l1.8,0.5c2.2,0.8,3.8,1.7,4.7,2.8c0.9,1.1,1.4,2.4,1.4,4c0,2-0.8,3.7-2.5,5
		C323,402.1,320.6,402.8,317.6,402.8z"/>
	<path class="st2" d="M356,402.6l-0.4-2.8c-0.8,1-1.8,1.7-2.8,2.2s-2.2,0.8-3.5,0.8c-1.8,0-3.3-0.4-4.7-1.3
		c-1.4-0.9-2.4-2.2-3.2-3.9s-1.2-3.7-1.2-6c0-2.4,0.4-4.4,1.3-6.2s2.1-3.1,3.6-4c1.5-0.9,3.1-1.4,4.9-1.4c1.1,0,2.2,0.2,3.1,0.6
		c0.9,0.4,1.8,1.1,2.6,2.1v-9.3l-3.5-0.4v-1.8l8.2-2l0.7,0.4l-0.2,6.3v23.9l2.9,0.5v1.8L356,402.6z M346,391.5
		c0,2.7,0.5,4.8,1.6,6.1c1,1.3,2.3,2,3.9,2c0.8,0,1.5-0.2,2.1-0.5c0.6-0.3,1.3-0.8,1.8-1.4v-12.9c-1.3-1.1-2.6-1.7-3.9-1.7
		c-1.5,0-2.8,0.7-3.9,2C346.5,386.5,346,388.6,346,391.5z"/>
	<path class="st2" d="M377,402.8c-2.1,0-3.9-0.4-5.5-1.3c-1.6-0.9-2.8-2.2-3.7-3.9c-0.9-1.7-1.3-3.7-1.3-6.1c0-2.4,0.5-4.5,1.6-6.2
		c1-1.7,2.4-3,4-4s3.4-1.4,5.3-1.4c1.8,0,3.3,0.4,4.6,1.1c1.3,0.8,2.3,1.8,3.1,3.2s1.1,2.9,1.1,4.8c0,1-0.1,1.8-0.3,2.5h-13.8
		c0.1,2.6,0.8,4.5,2,5.8c1.2,1.3,2.8,1.9,4.7,1.9c1.3,0,2.4-0.3,3.4-0.8c0.9-0.5,1.7-1.2,2.5-2l1.3,1.2c-0.9,1.6-2.1,2.9-3.6,3.8
		S379.1,402.8,377,402.8z M377,382.1c-0.7,0-1.4,0.2-2.1,0.7c-0.7,0.5-1.3,1.2-1.8,2.3c-0.5,1.1-0.8,2.5-0.9,4.3h6.2
		c1.1,0,1.8-0.2,2.2-0.7c0.4-0.5,0.5-1.1,0.5-1.9c0-1.4-0.4-2.5-1.2-3.4C379,382.5,378.1,382.1,377,382.1z"/>
	<path class="st2" d="M399.1,402.1v-1.8l3.1-0.6c0-1.2,0.1-2.3,0.1-3.5c0-1.2,0-2.3,0-3.5v-19.3l-3.3-0.4v-1.8l8.2-2l0.7,0.4
		l-0.2,6.3v16.8c0,1.2,0,2.3,0,3.5c0,1.2,0,2.3,0.1,3.5l3.1,0.6v1.8H399.1z"/>
	<path class="st2" d="M430.1,402.7c-1.2,0-2.2-0.3-2.9-0.9c-0.8-0.6-1.3-1.4-1.5-2.5c-1.1,1.1-2.1,2-3,2.6s-2.1,0.9-3.5,0.9
		c-1.7,0-3.1-0.5-4.3-1.5c-1.2-1-1.7-2.4-1.7-4.2c0-1,0.2-1.9,0.7-2.7s1.3-1.6,2.4-2.3c1.2-0.7,2.8-1.4,5-2.1c0.6-0.2,1.3-0.4,2-0.6
		c0.7-0.2,1.5-0.4,2.3-0.6v-1.3c0-2.1-0.3-3.5-0.9-4.3c-0.6-0.7-1.6-1.1-3.1-1.1c-0.3,0-0.6,0-0.9,0c-0.3,0-0.6,0.1-1,0.1l-0.5,2.5
		c-0.1,1.1-0.4,1.9-0.9,2.4c-0.5,0.5-1.1,0.8-1.9,0.8c-1.4,0-2.3-0.7-2.5-2c0.3-1.8,1.2-3.2,2.9-4.3s3.9-1.6,6.6-1.6
		c2.6,0,4.5,0.6,5.7,1.9c1.2,1.2,1.8,3.3,1.8,6.3v9.8c0,1.3,0.4,2,1.3,2c0.6,0,1.1-0.3,1.6-1l1,0.9c-0.5,1-1.2,1.7-1.9,2.2
		C432.1,402.5,431.2,402.7,430.1,402.7z M418.4,396.1c0,1.2,0.3,2,0.9,2.5c0.6,0.5,1.4,0.8,2.3,0.8c0.5,0,1-0.1,1.5-0.4
		c0.5-0.2,1.3-0.7,2.4-1.5v-7.1c-0.6,0.2-1.2,0.4-1.8,0.6c-0.6,0.2-1,0.3-1.4,0.5c-1.5,0.6-2.5,1.3-3.1,2.1
		C418.7,394.5,418.4,395.3,418.4,396.1z"/>
	<path class="st2" d="M454,402.8c-1.4,0-2.6-0.2-3.8-0.5s-2.3-0.8-3.4-1.4l0-5.2h3l0.8,4.2c1.1,0.4,2.2,0.7,3.5,0.7
		c1.5,0,2.7-0.3,3.4-0.8s1.1-1.3,1.1-2.2c0-0.8-0.3-1.5-0.9-2c-0.6-0.5-1.6-1-3.1-1.5l-2.2-0.8c-1.7-0.5-3-1.3-4-2.4
		c-1-1.1-1.5-2.4-1.5-4c0-1.3,0.3-2.4,1-3.4c0.7-1,1.6-1.9,2.9-2.5c1.3-0.6,2.8-0.9,4.7-0.9c1.3,0,2.5,0.2,3.5,0.5
		c1.1,0.3,2.1,0.8,3.2,1.4l-0.2,4.7h-3l-0.8-3.8c-0.8-0.4-1.8-0.5-2.8-0.5c-1.2,0-2.1,0.3-2.8,0.8c-0.7,0.5-1,1.2-1,2.1
		c0,0.8,0.3,1.5,0.8,2c0.6,0.5,1.6,1,3.1,1.5l1.8,0.5c2.2,0.8,3.8,1.7,4.7,2.8c0.9,1.1,1.4,2.4,1.4,4c0,2-0.8,3.7-2.5,5
		C459.4,402.1,457,402.8,454,402.8z"/>
	<path class="st2" d="M477.4,402.8c-2,0-3.9-0.4-5.5-1.3s-2.9-2.2-3.9-3.9c-1-1.7-1.4-3.8-1.4-6.1c0-2.4,0.5-4.5,1.5-6.2
		c1-1.7,2.3-3,4-3.9c1.6-0.9,3.4-1.3,5.4-1.3s3.7,0.5,5.4,1.3c1.6,0.9,3,2.2,4,3.9c1,1.7,1.5,3.8,1.5,6.2c0,2.4-0.5,4.4-1.5,6.1
		c-1,1.7-2.3,3-3.9,3.9C481.3,402.3,479.4,402.8,477.4,402.8z M477.4,400.6c1.6,0,2.9-0.7,3.7-2.2c0.9-1.5,1.3-3.8,1.3-6.9
		c0-6.2-1.7-9.3-5-9.3c-3.3,0-5,3.1-5,9.3c0,3.1,0.4,5.4,1.3,6.9C474.6,399.8,475.8,400.6,477.4,400.6z"/>
	<path class="st2" d="M502.4,402.8c-2,0-3.9-0.4-5.5-1.3c-1.6-0.9-2.9-2.2-3.8-3.9c-0.9-1.7-1.4-3.7-1.4-6.1c0-2.4,0.5-4.5,1.6-6.2
		c1-1.7,2.4-3,4.1-3.9c1.7-0.9,3.6-1.3,5.6-1.3c1.5,0,2.8,0.3,4,0.8c1.2,0.6,2.1,1.3,2.9,2.2c0.7,0.9,1.2,2,1.3,3.1
		c-0.4,1.3-1.2,2-2.6,2c-1.7,0-2.7-1-2.9-3.1l-0.6-2.7c-0.3-0.1-0.5-0.1-0.8-0.1c-0.3,0-0.5,0-0.8,0c-1.1,0-2.1,0.3-3,0.9
		c-0.9,0.6-1.7,1.6-2.2,2.9c-0.6,1.3-0.9,2.9-0.9,4.9c0,2.7,0.6,4.8,1.9,6.3c1.2,1.4,2.9,2.2,4.9,2.2c1.2,0,2.3-0.3,3.2-0.8
		c1-0.5,1.8-1.3,2.4-2.2l1.3,1c-0.8,1.8-1.9,3.2-3.4,4.2C506.3,402.3,504.5,402.8,502.4,402.8z"/>
	<path class="st2" d="M514.1,402.1v-1.8l3-0.6c0-1.1,0-2.3,0-3.6s0-2.4,0-3.4v-2.1c0-1.2,0-2.3,0-3.1c0-0.8-0.1-1.7-0.1-2.6
		l-3.2-0.4v-1.7l8.1-2.8l0.7,0.5l-0.1,6.3v5.9c0,1,0,2.1,0,3.4s0,2.5,0,3.7l2.7,0.5v1.8H514.1z M519.7,375.8c-1,0-1.8-0.3-2.4-0.9
		c-0.7-0.6-1-1.4-1-2.3c0-1,0.3-1.7,1-2.3s1.5-0.9,2.4-0.9c1,0,1.8,0.3,2.4,0.9c0.6,0.6,1,1.4,1,2.3c0,0.9-0.3,1.7-1,2.3
		C521.5,375.5,520.7,375.8,519.7,375.8z"/>
	<path class="st2" d="M538.7,402.8c-2.1,0-3.9-0.4-5.5-1.3c-1.6-0.9-2.8-2.2-3.7-3.9c-0.9-1.7-1.3-3.7-1.3-6.1
		c0-2.4,0.5-4.5,1.6-6.2c1-1.7,2.4-3,4-4s3.4-1.4,5.3-1.4c1.8,0,3.3,0.4,4.6,1.1c1.3,0.8,2.3,1.8,3.1,3.2s1.1,2.9,1.1,4.8
		c0,1-0.1,1.8-0.3,2.5h-13.8c0.1,2.6,0.8,4.5,2,5.8c1.2,1.3,2.8,1.9,4.7,1.9c1.3,0,2.4-0.3,3.4-0.8c0.9-0.5,1.7-1.2,2.5-2l1.3,1.2
		c-0.9,1.6-2.1,2.9-3.6,3.8S540.8,402.8,538.7,402.8z M538.7,382.1c-0.7,0-1.4,0.2-2.1,0.7c-0.7,0.5-1.3,1.2-1.8,2.3
		c-0.5,1.1-0.8,2.5-0.9,4.3h6.2c1.1,0,1.8-0.2,2.2-0.7c0.4-0.5,0.5-1.1,0.5-1.9c0-1.4-0.4-2.5-1.2-3.4
		C540.8,382.5,539.8,382.1,538.7,382.1z"/>
	<path class="st2" d="M567,402.6l-0.4-2.8c-0.8,1-1.8,1.7-2.8,2.2s-2.2,0.8-3.5,0.8c-1.8,0-3.3-0.4-4.7-1.3
		c-1.4-0.9-2.4-2.2-3.2-3.9s-1.2-3.7-1.2-6c0-2.4,0.4-4.4,1.3-6.2s2.1-3.1,3.6-4c1.5-0.9,3.1-1.4,4.9-1.4c1.1,0,2.2,0.2,3.1,0.6
		c0.9,0.4,1.8,1.1,2.6,2.1v-9.3l-3.5-0.4v-1.8l8.2-2l0.7,0.4l-0.2,6.3v23.9l2.9,0.5v1.8L567,402.6z M557.1,391.5
		c0,2.7,0.5,4.8,1.6,6.1c1,1.3,2.3,2,3.9,2c0.8,0,1.5-0.2,2.1-0.5c0.6-0.3,1.3-0.8,1.8-1.4v-12.9c-1.3-1.1-2.6-1.7-3.9-1.7
		c-1.5,0-2.8,0.7-3.9,2C557.6,386.5,557.1,388.6,557.1,391.5z"/>
	<path class="st2" d="M594,402.7c-1.2,0-2.2-0.3-2.9-0.9c-0.8-0.6-1.3-1.4-1.5-2.5c-1.1,1.1-2.1,2-3,2.6s-2.1,0.9-3.5,0.9
		c-1.7,0-3.1-0.5-4.3-1.5c-1.2-1-1.7-2.4-1.7-4.2c0-1,0.2-1.9,0.7-2.7s1.3-1.6,2.4-2.3c1.2-0.7,2.8-1.4,5-2.1c0.6-0.2,1.3-0.4,2-0.6
		c0.7-0.2,1.5-0.4,2.3-0.6v-1.3c0-2.1-0.3-3.5-0.9-4.3c-0.6-0.7-1.6-1.1-3.1-1.1c-0.3,0-0.6,0-0.9,0c-0.3,0-0.6,0.1-1,0.1l-0.5,2.5
		c-0.1,1.1-0.4,1.9-0.9,2.4c-0.5,0.5-1.1,0.8-1.9,0.8c-1.4,0-2.3-0.7-2.5-2c0.3-1.8,1.2-3.2,2.9-4.3s3.9-1.6,6.6-1.6
		c2.6,0,4.5,0.6,5.7,1.9c1.2,1.2,1.8,3.3,1.8,6.3v9.8c0,1.3,0.4,2,1.3,2c0.6,0,1.1-0.3,1.6-1l1,0.9c-0.5,1-1.2,1.7-1.9,2.2
		C595.9,402.5,595,402.7,594,402.7z M582.2,396.1c0,1.2,0.3,2,0.9,2.5c0.6,0.5,1.4,0.8,2.3,0.8c0.5,0,1-0.1,1.5-0.4
		c0.5-0.2,1.3-0.7,2.4-1.5v-7.1c-0.6,0.2-1.2,0.4-1.8,0.6c-0.6,0.2-1,0.3-1.4,0.5c-1.5,0.6-2.5,1.3-3.1,2.1
		C582.5,394.5,582.2,395.3,582.2,396.1z"/>
	<path class="st2" d="M616.1,402.6l-0.4-2.8c-0.8,1-1.8,1.7-2.8,2.2s-2.2,0.8-3.5,0.8c-1.8,0-3.3-0.4-4.7-1.3
		c-1.4-0.9-2.4-2.2-3.2-3.9s-1.2-3.7-1.2-6c0-2.4,0.4-4.4,1.3-6.2s2.1-3.1,3.6-4c1.5-0.9,3.1-1.4,4.9-1.4c1.1,0,2.2,0.2,3.1,0.6
		c0.9,0.4,1.8,1.1,2.6,2.1v-9.3l-3.5-0.4v-1.8l8.2-2l0.7,0.4l-0.2,6.3v23.9l2.9,0.5v1.8L616.1,402.6z M606.1,391.5
		c0,2.7,0.5,4.8,1.6,6.1c1,1.3,2.3,2,3.9,2c0.8,0,1.5-0.2,2.1-0.5c0.6-0.3,1.3-0.8,1.8-1.4v-12.9c-1.3-1.1-2.6-1.7-3.9-1.7
		c-1.5,0-2.8,0.7-3.9,2C606.6,386.5,606.1,388.6,606.1,391.5z"/>
	<path class="st2" d="M647.1,402.8c-2,0-3.9-0.4-5.5-1.3c-1.6-0.9-2.9-2.2-3.8-3.9c-0.9-1.7-1.4-3.7-1.4-6.1c0-2.4,0.5-4.5,1.6-6.2
		c1-1.7,2.4-3,4.1-3.9c1.7-0.9,3.6-1.3,5.6-1.3c1.5,0,2.8,0.3,4,0.8c1.2,0.6,2.1,1.3,2.9,2.2c0.7,0.9,1.2,2,1.3,3.1
		c-0.4,1.3-1.2,2-2.6,2c-1.7,0-2.7-1-2.9-3.1l-0.6-2.7c-0.3-0.1-0.5-0.1-0.8-0.1c-0.3,0-0.5,0-0.8,0c-1.1,0-2.1,0.3-3,0.9
		c-0.9,0.6-1.7,1.6-2.2,2.9c-0.6,1.3-0.9,2.9-0.9,4.9c0,2.7,0.6,4.8,1.9,6.3c1.2,1.4,2.9,2.2,4.9,2.2c1.2,0,2.3-0.3,3.2-0.8
		c1-0.5,1.8-1.3,2.4-2.2l1.3,1c-0.8,1.8-1.9,3.2-3.4,4.2C651,402.3,649.2,402.8,647.1,402.8z"/>
	<path class="st2" d="M658.8,402.1v-1.8l3-0.6c0-1.1,0-2.3,0-3.6s0-2.4,0-3.4v-2.1c0-1.2,0-2.3,0-3.1c0-0.8-0.1-1.7-0.1-2.6
		l-3.2-0.4v-1.7l8.1-2.8l0.7,0.5l-0.1,6.3v5.9c0,1,0,2.1,0,3.4s0,2.5,0,3.7l2.7,0.5v1.8H658.8z M664.5,375.8c-1,0-1.8-0.3-2.4-0.9
		c-0.7-0.6-1-1.4-1-2.3c0-1,0.3-1.7,1-2.3s1.5-0.9,2.4-0.9c1,0,1.8,0.3,2.4,0.9c0.6,0.6,1,1.4,1,2.3c0,0.9-0.3,1.7-1,2.3
		C666.2,375.5,665.4,375.8,664.5,375.8z"/>
	<path class="st2" d="M685,382.5v-1.9h8.6v1.9L691,383l-7.4,19.3H681l-8.1-19.4l-2.3-0.4v-1.9h11.8v1.9l-3.5,0.5l4.9,13l4.5-13
		L685,382.5z"/>
	<path class="st2" d="M695.3,402.1v-1.8l3-0.6c0-1.1,0-2.3,0-3.6s0-2.4,0-3.4v-2.1c0-1.2,0-2.3,0-3.1c0-0.8-0.1-1.7-0.1-2.6
		l-3.2-0.4v-1.7l8.1-2.8l0.7,0.5l-0.1,6.3v5.9c0,1,0,2.1,0,3.4s0,2.5,0,3.7l2.7,0.5v1.8H695.3z M701,375.8c-1,0-1.8-0.3-2.4-0.9
		c-0.7-0.6-1-1.4-1-2.3c0-1,0.3-1.7,1-2.3s1.5-0.9,2.4-0.9c1,0,1.8,0.3,2.4,0.9c0.6,0.6,1,1.4,1,2.3c0,0.9-0.3,1.7-1,2.3
		C702.8,375.5,702,375.8,701,375.8z"/>
	<path class="st2" d="M708.9,402.1v-1.8l3.1-0.6c0-1.2,0.1-2.3,0.1-3.5c0-1.2,0-2.3,0-3.5v-19.3l-3.3-0.4v-1.8l8.2-2l0.7,0.4
		l-0.2,6.3v16.8c0,1.2,0,2.3,0,3.5c0,1.2,0,2.3,0.1,3.5l3.1,0.6v1.8H708.9z"/>
	<path class="st2" d="M201.3,452.8c-2.1,0-3.9-0.4-5.5-1.3c-1.6-0.9-2.8-2.2-3.7-3.9c-0.9-1.7-1.3-3.7-1.3-6.1
		c0-2.4,0.5-4.5,1.6-6.2c1-1.7,2.4-3,4-4s3.4-1.4,5.3-1.4c1.8,0,3.3,0.4,4.6,1.1c1.3,0.8,2.3,1.8,3.1,3.2s1.1,2.9,1.1,4.8
		c0,1-0.1,1.8-0.3,2.5h-13.8c0.1,2.6,0.8,4.5,2,5.8c1.2,1.3,2.8,1.9,4.7,1.9c1.3,0,2.4-0.3,3.4-0.8c0.9-0.5,1.7-1.2,2.5-2l1.3,1.2
		c-0.9,1.6-2.1,2.9-3.6,3.8S203.4,452.8,201.3,452.8z M201.3,432.1c-0.7,0-1.4,0.2-2.1,0.7c-0.7,0.5-1.3,1.2-1.8,2.3
		c-0.5,1.1-0.8,2.5-0.9,4.3h6.2c1.1,0,1.8-0.2,2.2-0.7c0.4-0.5,0.5-1.1,0.5-1.9c0-1.4-0.4-2.5-1.2-3.4
		C203.3,432.5,202.4,432.1,201.3,432.1z"/>
	<path class="st2" d="M213.7,452.1v-1.8l2.9-0.6c0-1.1,0-2.3,0-3.6s0-2.4,0-3.4v-2.4c0-1.2,0-2.2,0-2.9c0-0.7-0.1-1.6-0.1-2.5
		l-3.2-0.4v-1.7l7.5-2.8l0.7,0.5l0.3,3.5c2.3-2.6,4.9-3.9,7.7-3.9c2,0,3.5,0.6,4.5,1.9c1.1,1.3,1.6,3.3,1.6,6.1v4.7c0,1,0,2.2,0,3.5
		s0,2.5,0,3.6l2.7,0.5v1.8h-11.1v-1.8l2.9-0.6c0-1.1,0-2.3,0-3.6s0-2.4,0-3.4v-4.3c0-1.8-0.2-3-0.7-3.7c-0.5-0.7-1.3-1-2.4-1
		c-1.6,0-3.3,0.7-5,2.2v6.8c0,1,0,2.1,0,3.4s0,2.5,0,3.6l2.7,0.5v1.8H213.7z"/>
	<path class="st2" d="M250.1,452.1V450l3.7-0.5l9.4-27.4h3.7l9.4,27.6l3.1,0.4v2.1h-13v-2.1l4-0.5l-2.2-6.7h-9.8l-2.2,6.5l3.9,0.6
		v2.1H250.1z M263.2,428.1l-4.1,12.5h8.2L263.2,428.1z"/>
	<path class="st2" d="M281.4,452.1v-1.8l2.9-0.6c0-1.1,0-2.3,0-3.6s0-2.4,0-3.4v-2.4c0-1.2,0-2.2,0-2.9c0-0.7-0.1-1.6-0.1-2.5
		l-3.2-0.4v-1.7l7.5-2.8l0.7,0.5l0.3,3.5c1.1-1.2,2.3-2.2,3.5-2.9c1.3-0.7,2.6-1.1,4-1.1c2.9,0,4.8,1.4,5.6,4.1
		c1.2-1.4,2.4-2.5,3.7-3.1s2.6-1,4-1c2,0,3.6,0.6,4.6,1.9c1,1.3,1.5,3.3,1.5,6v4.8c0,1,0,2.2,0,3.4s0,2.5,0,3.6l2.7,0.5v1.8h-11
		v-1.8l2.8-0.6c0-1.1,0-2.3,0-3.6s0-2.4,0-3.4v-4.1c0-1.9-0.2-3.2-0.7-3.8c-0.5-0.7-1.3-1-2.5-1c-1.6,0-3.2,0.8-5,2.3
		c0,0.3,0.1,0.6,0.1,0.9c0,0.3,0,0.7,0,1v4.7c0,1,0,2.2,0,3.4s0,2.5,0,3.6l2.7,0.5v1.8h-11v-1.8l2.9-0.6c0-1.1,0-2.3,0-3.6
		s0-2.4,0-3.4v-4c0-1.8-0.2-3.1-0.7-3.8c-0.5-0.7-1.3-1.1-2.5-1.1c-0.8,0-1.7,0.2-2.5,0.6s-1.6,1-2.4,1.6v6.7c0,1,0,2.1,0,3.4
		s0,2.5,0,3.6l2.7,0.5v1.8H281.4z"/>
	<path class="st2" d="M332.8,452.8c-2.1,0-3.9-0.4-5.5-1.3c-1.6-0.9-2.8-2.2-3.7-3.9c-0.9-1.7-1.3-3.7-1.3-6.1
		c0-2.4,0.5-4.5,1.6-6.2c1-1.7,2.4-3,4-4s3.4-1.4,5.3-1.4c1.8,0,3.3,0.4,4.6,1.1c1.3,0.8,2.3,1.8,3.1,3.2s1.1,2.9,1.1,4.8
		c0,1-0.1,1.8-0.3,2.5h-13.8c0.1,2.6,0.8,4.5,2,5.8c1.2,1.3,2.8,1.9,4.7,1.9c1.3,0,2.4-0.3,3.4-0.8c0.9-0.5,1.7-1.2,2.5-2l1.3,1.2
		c-0.9,1.6-2.1,2.9-3.6,3.8S334.9,452.8,332.8,452.8z M332.8,432.1c-0.7,0-1.4,0.2-2.1,0.7c-0.7,0.5-1.3,1.2-1.8,2.3
		c-0.5,1.1-0.8,2.5-0.9,4.3h6.2c1.1,0,1.8-0.2,2.2-0.7c0.4-0.5,0.5-1.1,0.5-1.9c0-1.4-0.4-2.5-1.2-3.4
		C334.9,432.5,333.9,432.1,332.8,432.1z"/>
	<path class="st2" d="M345.3,452.1v-1.8l2.9-0.5c0-1.1,0-2.4,0-3.7s0-2.4,0-3.4v-2.4c0-1.2,0-2.2,0-2.9c0-0.7-0.1-1.6-0.1-2.5
		l-3.2-0.4v-1.7l7.5-2.8l0.7,0.5l0.5,5.3c0.7-1.9,1.6-3.3,2.8-4.3c1.2-1,2.3-1.5,3.5-1.5c0.8,0,1.6,0.2,2.2,0.6
		c0.7,0.4,1.1,1,1.3,1.8c0,1.1-0.3,2-0.8,2.6c-0.5,0.6-1.2,0.9-2.1,0.9c-1.1,0-2.1-0.5-3.1-1.6l-0.4-0.5c-1.6,1.3-2.7,3.2-3.4,5.6
		v3.3c0,0.9,0,2,0,3.3s0,2.5,0,3.6l3.7,0.7v1.8H345.3z"/>
	<path class="st2" d="M365.1,452.1v-1.8l3-0.6c0-1.1,0-2.3,0-3.6s0-2.4,0-3.4v-2.1c0-1.2,0-2.3,0-3.1c0-0.8-0.1-1.7-0.1-2.6
		l-3.2-0.4v-1.7l8.1-2.8l0.7,0.5l-0.1,6.3v5.9c0,1,0,2.1,0,3.4s0,2.5,0,3.7l2.7,0.5v1.8H365.1z M370.8,425.8c-1,0-1.8-0.3-2.4-0.9
		c-0.7-0.6-1-1.4-1-2.3c0-1,0.3-1.7,1-2.3s1.5-0.9,2.4-0.9c1,0,1.8,0.3,2.4,0.9c0.6,0.6,1,1.4,1,2.3c0,0.9-0.3,1.7-1,2.3
		C372.5,425.5,371.7,425.8,370.8,425.8z"/>
	<path class="st2" d="M389.7,452.8c-2,0-3.9-0.4-5.5-1.3c-1.6-0.9-2.9-2.2-3.8-3.9c-0.9-1.7-1.4-3.7-1.4-6.1c0-2.4,0.5-4.5,1.6-6.2
		c1-1.7,2.4-3,4.1-3.9c1.7-0.9,3.6-1.3,5.6-1.3c1.5,0,2.8,0.3,4,0.8c1.2,0.6,2.1,1.3,2.9,2.2c0.7,0.9,1.2,2,1.3,3.1
		c-0.4,1.3-1.2,2-2.6,2c-1.7,0-2.7-1-2.9-3.1l-0.6-2.7c-0.3-0.1-0.5-0.1-0.8-0.1c-0.3,0-0.5,0-0.8,0c-1.1,0-2.1,0.3-3,0.9
		c-0.9,0.6-1.7,1.6-2.2,2.9c-0.6,1.3-0.9,2.9-0.9,4.9c0,2.7,0.6,4.8,1.9,6.3c1.2,1.4,2.9,2.2,4.9,2.2c1.2,0,2.3-0.3,3.2-0.8
		c1-0.5,1.8-1.3,2.4-2.2l1.3,1c-0.8,1.8-1.9,3.2-3.4,4.2C393.6,452.3,391.8,452.8,389.7,452.8z"/>
	<path class="st2" d="M418.5,452.7c-1.2,0-2.2-0.3-2.9-0.9c-0.8-0.6-1.3-1.4-1.5-2.5c-1.1,1.1-2.1,2-3,2.6s-2.1,0.9-3.5,0.9
		c-1.7,0-3.1-0.5-4.3-1.5c-1.2-1-1.7-2.4-1.7-4.2c0-1,0.2-1.9,0.7-2.7s1.3-1.6,2.4-2.3c1.2-0.7,2.8-1.4,5-2.1c0.6-0.2,1.3-0.4,2-0.6
		c0.7-0.2,1.5-0.4,2.3-0.6v-1.3c0-2.1-0.3-3.5-0.9-4.3c-0.6-0.7-1.6-1.1-3.1-1.1c-0.3,0-0.6,0-0.9,0c-0.3,0-0.6,0.1-1,0.1l-0.5,2.5
		c-0.1,1.1-0.4,1.9-0.9,2.4c-0.5,0.5-1.1,0.8-1.9,0.8c-1.4,0-2.3-0.7-2.5-2c0.3-1.8,1.2-3.2,2.9-4.3s3.9-1.6,6.6-1.6
		c2.6,0,4.5,0.6,5.7,1.9c1.2,1.2,1.8,3.3,1.8,6.3v9.8c0,1.3,0.4,2,1.3,2c0.6,0,1.1-0.3,1.6-1l1,0.9c-0.5,1-1.2,1.7-1.9,2.2
		C420.4,452.5,419.5,452.7,418.5,452.7z M406.8,446.1c0,1.2,0.3,2,0.9,2.5c0.6,0.5,1.4,0.8,2.3,0.8c0.5,0,1-0.1,1.5-0.4
		c0.5-0.2,1.3-0.7,2.4-1.5v-7.1c-0.6,0.2-1.2,0.4-1.8,0.6c-0.6,0.2-1,0.3-1.4,0.5c-1.5,0.6-2.5,1.3-3.1,2.1
		C407,444.5,406.8,445.3,406.8,446.1z"/>
	<path class="st2" d="M435,424.4v-2.1h13.7v2.1l-4,0.5c0,1.9-0.1,3.7-0.1,5.6c0,1.9,0,3.8,0,5.7v2.7c0,1.6,0,3.3,0,5.1
		s0,3.7,0.1,5.6h9.1l1.3-6.2h3.1l-0.4,8.6H435V450l3.8-0.4c0.1-1.9,0.1-3.8,0.1-5.6c0-1.8,0-3.6,0-5.3v-2.4c0-2,0-3.9,0-5.8
		c0-1.9,0-3.8-0.1-5.6L435,424.4z"/>
	<path class="st2" d="M478.4,452.7c-1.2,0-2.2-0.3-2.9-0.9c-0.8-0.6-1.3-1.4-1.5-2.5c-1.1,1.1-2.1,2-3,2.6s-2.1,0.9-3.5,0.9
		c-1.7,0-3.1-0.5-4.3-1.5c-1.2-1-1.7-2.4-1.7-4.2c0-1,0.2-1.9,0.7-2.7s1.3-1.6,2.4-2.3c1.2-0.7,2.8-1.4,5-2.1c0.6-0.2,1.3-0.4,2-0.6
		c0.7-0.2,1.5-0.4,2.3-0.6v-1.3c0-2.1-0.3-3.5-0.9-4.3c-0.6-0.7-1.6-1.1-3.1-1.1c-0.3,0-0.6,0-0.9,0c-0.3,0-0.6,0.1-1,0.1l-0.5,2.5
		c-0.1,1.1-0.4,1.9-0.9,2.4c-0.5,0.5-1.1,0.8-1.9,0.8c-1.4,0-2.3-0.7-2.5-2c0.3-1.8,1.2-3.2,2.9-4.3s3.9-1.6,6.6-1.6
		c2.6,0,4.5,0.6,5.7,1.9c1.2,1.2,1.8,3.3,1.8,6.3v9.8c0,1.3,0.4,2,1.3,2c0.6,0,1.1-0.3,1.6-1l1,0.9c-0.5,1-1.2,1.7-1.9,2.2
		C480.4,452.5,479.5,452.7,478.4,452.7z M466.7,446.1c0,1.2,0.3,2,0.9,2.5c0.6,0.5,1.4,0.8,2.3,0.8c0.5,0,1-0.1,1.5-0.4
		c0.5-0.2,1.3-0.7,2.4-1.5v-7.1c-0.6,0.2-1.2,0.4-1.8,0.6c-0.6,0.2-1,0.3-1.4,0.5c-1.5,0.6-2.5,1.3-3.1,2.1
		C467,444.5,466.7,445.3,466.7,446.1z"/>
	<path class="st2" d="M492.7,452.8c-1.8,0-3.2-0.4-4.2-1.3s-1.5-2.3-1.5-4.3c0-0.7,0-1.3,0-2c0-0.6,0-1.4,0-2.2v-9.6h-3.3V431
		l3.6-0.5l1.7-6.2h3.6l-0.2,6.2h5.4v2.7h-5.4v13.3c0,1.1,0.2,1.9,0.7,2.4c0.4,0.5,1,0.8,1.7,0.8c0.8,0,1.7-0.4,2.7-1.1l1.1,1.1
		c-0.6,0.9-1.3,1.7-2.3,2.2C495.3,452.5,494.1,452.8,492.7,452.8z"/>
	<path class="st2" d="M499.9,452.1v-1.8l3-0.6c0-1.1,0-2.3,0-3.6s0-2.4,0-3.4v-2.1c0-1.2,0-2.3,0-3.1c0-0.8-0.1-1.7-0.1-2.6
		l-3.2-0.4v-1.7l8.1-2.8l0.7,0.5l-0.1,6.3v5.9c0,1,0,2.1,0,3.4s0,2.5,0,3.7l2.7,0.5v1.8H499.9z M505.6,425.8c-1,0-1.8-0.3-2.4-0.9
		c-0.7-0.6-1-1.4-1-2.3c0-1,0.3-1.7,1-2.3s1.5-0.9,2.4-0.9c1,0,1.8,0.3,2.4,0.9c0.6,0.6,1,1.4,1,2.3c0,0.9-0.3,1.7-1,2.3
		C507.4,425.5,506.6,425.8,505.6,425.8z"/>
	<path class="st2" d="M513.9,452.1v-1.8l2.9-0.6c0-1.1,0-2.3,0-3.6s0-2.4,0-3.4v-2.4c0-1.2,0-2.2,0-2.9c0-0.7-0.1-1.6-0.1-2.5
		l-3.2-0.4v-1.7l7.5-2.8l0.7,0.5l0.3,3.5c2.3-2.6,4.9-3.9,7.7-3.9c2,0,3.5,0.6,4.5,1.9c1.1,1.3,1.6,3.3,1.6,6.1v4.7c0,1,0,2.2,0,3.5
		s0,2.5,0,3.6l2.7,0.5v1.8h-11.1v-1.8l2.9-0.6c0-1.1,0-2.3,0-3.6s0-2.4,0-3.4v-4.3c0-1.8-0.2-3-0.7-3.7c-0.5-0.7-1.3-1-2.4-1
		c-1.6,0-3.3,0.7-5,2.2v6.8c0,1,0,2.1,0,3.4s0,2.5,0,3.6l2.7,0.5v1.8H513.9z"/>
	<path class="st2" d="M558.3,452.7c-1.2,0-2.2-0.3-2.9-0.9c-0.8-0.6-1.3-1.4-1.5-2.5c-1.1,1.1-2.1,2-3,2.6s-2.1,0.9-3.5,0.9
		c-1.7,0-3.1-0.5-4.3-1.5c-1.2-1-1.7-2.4-1.7-4.2c0-1,0.2-1.9,0.7-2.7s1.3-1.6,2.4-2.3c1.2-0.7,2.8-1.4,5-2.1c0.6-0.2,1.3-0.4,2-0.6
		c0.7-0.2,1.5-0.4,2.3-0.6v-1.3c0-2.1-0.3-3.5-0.9-4.3c-0.6-0.7-1.6-1.1-3.1-1.1c-0.3,0-0.6,0-0.9,0c-0.3,0-0.6,0.1-1,0.1l-0.5,2.5
		c-0.1,1.1-0.4,1.9-0.9,2.4c-0.5,0.5-1.1,0.8-1.9,0.8c-1.4,0-2.3-0.7-2.5-2c0.3-1.8,1.2-3.2,2.9-4.3s3.9-1.6,6.6-1.6
		c2.6,0,4.5,0.6,5.7,1.9c1.2,1.2,1.8,3.3,1.8,6.3v9.8c0,1.3,0.4,2,1.3,2c0.6,0,1.1-0.3,1.6-1l1,0.9c-0.5,1-1.2,1.7-1.9,2.2
		C560.3,452.5,559.4,452.7,558.3,452.7z M546.6,446.1c0,1.2,0.3,2,0.9,2.5c0.6,0.5,1.4,0.8,2.3,0.8c0.5,0,1-0.1,1.5-0.4
		c0.5-0.2,1.3-0.7,2.4-1.5v-7.1c-0.6,0.2-1.2,0.4-1.8,0.6c-0.6,0.2-1,0.3-1.4,0.5c-1.5,0.6-2.5,1.3-3.1,2.1
		C546.9,444.5,546.6,445.3,546.6,446.1z"/>
	<path class="st2" d="M569.8,452.8c-1,0-1.9-0.4-2.6-1.1c-0.7-0.7-1-1.5-1-2.5c0-1,0.3-1.9,1-2.6c0.7-0.7,1.5-1.1,2.6-1.1
		c1,0,1.9,0.4,2.6,1.1c0.7,0.7,1,1.6,1,2.6c0,1-0.3,1.8-1,2.5C571.7,452.4,570.8,452.8,569.8,452.8z"/>
</g>
</svg>
