<svg version="1.1" id="Layer_1" xmlns="http://www.w3.org/2000/svg" x="0" y="0" viewBox="0 0 1190.6 1133.9" xml:space="preserve"><style>.st3{enable-background:new}.st4{fill:#fff}</style><path d="M137.1 985.8c-.5-2.2-.8-3.8-1-4.8-5.7-2.8-11.2-5.6-19.2-9.6-1.9.3-6.8 1.1-11.2 1.7-9.1-2.1-18.4-4.3-29.8-6.9-3.9-10.6-23.6-3.6-27.4-19.9-13.5 3.2-21.9-9.2-34.2-10.9-.4-3.5-.7-6.3-1-9.1-2.2-.9-4.3-1.7-6.3-2.5-.4-2.9-.7-5.8-1.1-9.4-2 1.2-3.6 2.1-5.9 3.3V101.3c7.2 1 13.8 1.9 23.4 3.1-.9.6 1-.6 3.2-2 8.7 2 17.9 4 28.4 6.4.7-.5 2.5-1.9 4.9-3.7 4.1 2.1 8.6 4.4 15 7.6 2.5 0 7.3.1 12 0 11.1-.4 21.3 2.3 32 5.3 18.2 5.2 35.2 13.9 53.6 18.5 5.9 1.5 10 1.9 12.4-2 9.4 3.1 17.3 5.8 25.5 8.5 3 3.6 5.9 10.4 10.5 11.8 9.1 2.9 18.6 7.5 28.5 3.4 7.1 16.2 29.3 12 36.8 29.1 11 3.6 24.5 6.1 36.2 12.2 23.7 12.5 23.3 13.3 39.2 13.3 2.1 2.1 4.2 4.2 6.8 6.7 1.6-1 3.3-2.1 6.1-3.8 2.7 2.3 5.8 4.9 9.1 7.7 11.8 1.6 23.5-1.6 34.6-6.2 6-2.4 12.1 0 18.6-3 10.5-4.9 22.7-5.9 34.2-8.6.6-.1 1.4.2 1.8-.1 20-13.6 44.7-13.6 66.2-22.7 4.1-1.8 7.8-1.7 11.6-2.3 9.5-1.6 19.1-3.2 28.6-5 1-.2 1.8-1.4 2.7-2.2 12.5 4.8 30.4 5 42.3.6 3.6 4.7 7.3 9.4 11 14.2 7.4-1.5 14-8.5 21.2-1.2 6.8-1.4 13.1 5.7 20.2.9 1.7-1.1 5.3-1.1 7 0 8.7 5.3 18.3 3.7 27.4 3.2 10.1-.6 19.5 2.3 29.2 3.8 8.9 1.3 17.4 3.8 25.9 6.9 7.9 2.9 16.6 3.5 23.3 4.8 11 11.7 26 13.9 38.3 19.9 12.7 6.2 28.1 7.1 43.4 10.5 1.4-2.1 3.5-5.3 6.3-9.4h14.5c1.6 4.6 3.2 9.3 5.1 14.8-.8 1.1-2.1 2.9-3.9 5.4 6.8 1.9 13.2 3.7 21.2 6 1.3 2.8 3.3 7.3 5.5 12 10.5 4.4 21.9 7.3 31.5 14.8 4.1 3.2 10.5 3.5 16.9 5.5 2.2 3.4 6 7.7 8 12.8 1.9 4.9 10.4 3.2 9 10.3 7.5.2 7.8 10.4 14.9 10.9 7.6.5 6 12.4 14.8 11.7.6-.1 1.6 3.8 2.3 5.8 3 .4 5.9.7 8.2 1 7.3 16.6 12.2 34.2 30.2 43.2v13.4c5.6 5.5 9.7 9.4 13.7 13.4 1.5-1.5 3.7-3.6 6.6-6.5 3 7.9 4.5 16.4 9 22.7 5 7.1 0 18.4 10.5 22.6-1 9.2 6.7 15.1 8.6 23.1h7.7c.6 1 1.8 2.1 1.7 2.9-2.5 10.2 3.9 19.1 3.8 28.9 0 1.5 1 3.6 2.3 4.3 6.5 3.9 4.3 10.3 5 15.8 2.2 2.2 4.3 4.3 7.1 7V544c2.7 1 4.8 1.8 7.2 2.7.5 15.4-2.5 31.3 7.5 44.4-2.7 6.9-5.1 13.1-7.5 19.5 1.2 1.7 2.4 3.6 2.8 4.1-1 6.7-2.4 12.2-2.6 17.7-.3 13.7.1 27.4-.2 41.1-.1 3.8-1.8 7.5-3 12.2 1.4 3.4 6 7.5 1.9 12.9-3.7 4.8-3.4 9.3 2.4 14.2h-9.5c-1.1 1.6-2.4 2.6-2.3 3.4 1.1 8.4-3.5 15.3-5.9 22.7-1.9 5.8-2.6 11.1 1.8 16.2-2.5 3.2-5.4 6.9-10.2 13 .5 1.6 1.8 6.3 3.2 11.2-3.2 3.6-11.6 2.9-10.5 11.3 2.2 1.1 4.7 2.2 7.7 3.6-4.6 7.8-9.1 15.4-13.5 22.9-1.5.4-3.2.8-4.9 1.2v8.7l-11.1 9.2v16.1h-8.2c-4.1 11.7-10 19.1-24.3 35.1-7.2 8-13.6 16.8-20.4 25.4-1-.6-3.3-1.9-7-4-.7 4.6-1.2 7.8-1.8 11.7h-7.1c-13.6 15.8-32.5 23.8-43.6 39.6-4.7.3-8.7.5-14 .8 1.5 2 2.4 3.2 3.5 4.7-7.3 3-14.6 6.1-22 9.2-5.1-1.3-10.4-2.8-15.5-4.1-1.2 3.3-2 5.4-2.9 7.8-5-1.5-9.7-2.9-14.9-4.5-2.5 3.8-4.7 7-7.5 11.2h-12.3c-13 6.3-25.3 12.8-38.1 18.1-4.1 1.7-9.5.3-14.1.3-2.2 2.2-4.4 4.3-7.1 7.1h-11.2c-10.8 4.4-18 7.3-25.5 10.3-3.1-2.3-6.8-5.1-11.6-8.7-4.3 2.2-10.5 5.4-18 9.2h-28c-2 2.9-4.2 6.1-7.5 10.8-10.4-2.4-22.1 7.3-34.9-1.3-2.4 3.5-4.4 6.4-6.2 9-23.1-3.3-44.8 9-67.3.6-.4 1.1-1.1 3.2-2.2 6.3-8.6-1.7-18.2 3.3-26.7-3.6-1.1-.9-3.6-.4-5.3-.1-5.5 1.1-11 2.5-16.5 3.5-5.6 1-11.4-1.5-16.9 3-2.5 2.1-8.1.2-12.2.7-5.6.6-12.1-2.7-16.5 3.5-8.5-1.2-17.9-.7-25.1-4.3-5.4-2.7-10.1-2.6-15.1-2.7-18.5-.4-37.2 1.6-54.8-6.9-2.7-1.3-7.4 1.6-12.2 2.8-1.9-.7-5-3-8.1-2.9-17.5.5-33.6-4.1-50-9.8-13.5-4.7-28.3-7-43.4-3.8-2.5-3.1-4.7-5.9-6.3-8H294l-6.8-6.8c-23.6-2.8-47.7-5.6-73.8-8.7-.9-1.1-3.1-3.9-5.2-6.5-10.4 2.5-19.1-1.3-27.4-4.7-9.8-4-19.6-6.3-30.2-5.5-4.9-.1-9-.3-13.5-.3z" fill="#0136f5"/><path d="M205.6 324.6c-.1-.5-.3-1.1-.5-1.5-.9-1.3-1.6-2.7-2.1-4.2-.1-.2-.2-.3-.3-.5-1-1.6-1.8-3.3-2.7-4.9-.9-1.8-2.2-3.5-2.8-5.5-.4-1.2-1.2-2.2-1.8-3.4-.8-1.4-1.5-2.9-2.2-4.3s-1.4-2.9-2.2-4.5c0-1.1-.2-2.5.9-3.5 1.7-1.4 2.8-2.1 4.8-1.9.1.1.2.5.5.6 1 .4 1.5 1.2 2 2 .9 1.7 1.9 3.5 2.9 5.1.8 1.3 1.3 2.8 1.9 4.3.9 2 1.8 4 2.9 5.9 1.5 2.5 2.8 5.1 4.3 7.6 1.1 2 2.2 4 3 6.2.4 1.2 1.1 2.3 1.7 3.4.1.2.3.3.6.6.2-.7.5-1.1.5-1.6 0-1.2.9-2.2 1-3.4.9-1.1 1-2.4 1.4-3.7.5-1.4 1.2-2.7 1.5-4.1.2-.8.4-1.5.6-2.2.2 0 .3-.1.3-.1.4-1.4.9-2.7 1.2-4 .2-.8.8-1.3.9-2.2.1-.8.6-1.6.7-2.4.1-.6.6-1 .8-1.6.2-.5.2-1.1.5-1.5.3-.5-.1-1 .4-1.4.4-.3.6-1 1-1.3.6-.4 1.3-.8 1.9-1 .8-.2 1.7-.3 2.5.1.2.1.4.1.8.1.2.2.5.5.8.9s.5.7.8 1.1v1.9c0 .3-.1.6-.2.9-.4 1-.7 2-.9 3.1s-.9 1.9-1.2 3c-.2.8-.4 1.6-.7 2.4-.2.7-.8 1.2-.9 2-.1.6-.5 1.3-.6 1.9-.2.8-.5 1.5-.7 2.3-.1 0-.2.1-.4.1 0 .1-.1.2-.1.3.1.7-.2 1.3-.5 1.9-.4 1.1-.6 2.3-1.3 3.3-.4.6-.4 1.4-.6 2.1-.3 1.1-.9 2.2-1.3 3.2-.2.5-.3 1.1-.6 1.9.7-.1 1.4-.1 1.8-.4 1.2-.7 2.5-.9 3.7-1.4 1.7-.7 3.4-1.3 5.1-1.9 1.5-.6 3.1-1 4.7-1.7 1.5-.6 3.1-1.2 4.6-1.8 1.3-.5 2.6-.8 3.9-1.3.7-.2 1.3-.6 2-.9s1.4-.4 2.1-.7c1.2-.6 2.6-.9 3.9-1.3.8-.2 1.6 0 2.5.4l1.2 1.2c.1.7.3 1.4.4 2.1s0 1.4 0 2.2c-.2.1-.4.3-.6.4 0 .4 0 .7-.1 1-1.2.6-2.3 1.4-3.5 1.8-1.6.5-3 1.3-4.6 1.8-.6.2-1.3.4-2 .6-1.3.4-2.7 1-4 1.5-1.6.7-3.3 1.1-5 1.8-.4.2-.8.3-1.3.5.9.3 1.6.6 2.5.5.2 0 .4.2.5.2.7.1 1.3.5 2 .4.3 0 .6.2.8.2.7.1 1.4.5 2.2.4.3-.1.7.2 1 .2.7.1 1.3.4 2.1.4s1.7.3 2.4.7c.7.4 1.5 0 2.1.3.6.2 1.3.6 2 .6.5 0 1 0 1.5.3.3.2.7.3 1.1.3.4.1.8 0 1.2 0 .6.4 1.1.7 1.5 1.2.4.4.6 1 .9 1.6v2.4c-.4.6-.9 1.1-1.2 1.7-.6 1.2-1.6 1.6-2.8 1.6-1.1 0-2.2-.1-3.3-.5-1.1-.3-2.2-.6-3.3-.8-.6-.1-1.3-.2-1.9-.4-1.5-.4-3.1-.5-4.6-1.2-.3-.2-.8 0-1.2-.1s-.8-.2-1.1-.3c-1.2-.2-2.4-.5-3.6-.8-1.1-.3-2.2-.5-3.3-.8-.6-.2-1.2-.1-1.8-.3-1.2-.5-2.7-.2-3.9-1-1.4.3-2.6-.8-4-.7-.5 0-1-.1-1.4-.3-.8-.4-1.6-.3-2.4-.3l-.4.4c0 .1.1.1.1.2 1.3 2.4 2.4 4.9 3.7 7.3.7 1.4 1.6 2.7 2.4 4.1l.6 1.2c1.7 3 3.3 6.1 4.8 9.2.3.7.5 1.5.9 2.2 1.1 2.1 2.3 4.1 3.3 6.2 1 1.9.9 1.9.9 3.8-.5.7-1.1 1.4-1.7 2.2-1.3 1.1-2.8.7-4.3.8-1-.4-1.4-1.2-2-2.1-1-1.5-1.6-3.3-2.7-4.8-.6-.8-.8-2-1.3-2.9-1-1.9-2-3.7-3.1-5.5-.9-1.6-1.7-3.2-2.4-4.9-.4-1-1-2.1-1.6-3-.7-1.1-1.1-2.3-1.9-3.4-.2-.3-.4-.6-.7-1.1v-1c-.9.8-.5 1.9-1.1 2.6h-.3l-.2.2c.1.7-.3 1.3-.4 1.9-.1.6-.6 1.2-.5 1.8 0 .1 0 .3-.1.4-1.1 1.2-1.1 2.9-1.7 4.4-.4.9-1.1 1.8-1.1 2.9 0 .3-.1.6-.2.8-.3.6-.2 1.3-.7 1.8-.2.2-.2.5-.3.9-.4.1-.8.4-.9.9-.5.2-.9.4-1.5.7h-2.8c-.1-.2-.3-.5-.4-.6h-.9c-.5-.8-1-1.7-1.4-2.6-.3-1 .3-2 .3-3.1.1 0 .3-.1.4-.1.3-1 .7-2.1 1-3.2.4-1.4 1.3-2.5 1.5-4 .1-.5.4-.9.4-1.4 0-.8.8-1.2.8-2 0-.7.4-1.3.6-1.9.2-.7.5-1.5.7-2.3.1 0 .3-.1.5-.1-.3-.7.5-1.3.2-2.1-1.9.7-3.8 1.3-5.7 1.9-.8.3-1.7.7-2.4 1.1-.9.5-1.9.5-2.8 1-.8.4-1.7.6-2.7.8-.8.2-1.5.9-2.5.9-.7 1-2 .8-3 1.2-1.7.8-3.6 1.2-5.3 2-1.4.7-3 1-4.4 1.5-.9.3-1.8.8-2.7.6-.5-.1-1.1-.3-1.7-.4 0 0 0-.3-.1-.3-1-.4-.9-1.5-1.2-2.3-.2-.5-.4-1.2-.2-1.5.3-.6 0-1.1.3-1.7.1 0 .3-.1.5-.1v-.7c.9-1 2.1-1.7 3.4-2 1.4-.3 2.6-1.1 4-1.5l1.8-.6c1.2-.3 2.2-1.2 3.5-1.1.7-.9 1.9-.6 2.8-1.3.4-.3.9-.3 1.4-.5 2.3-.8 4.5-1.5 6.7-2.5 1.3-.6 2.8-.9 4.2-1.4 1.2-.4 2.4-.9 3.9-1.5-.6-.3-1-.7-1.4-.7-1.1 0-2.1-.3-3.1-.6-.6-.2-1.3-.1-1.9-.3-1.2-.5-2.7-.2-3.9-1-1.9.1-3.6-1-5.5-.9-1.3-.8-2.9-.4-4.3-1.2-.3-.2-.8 0-1.2-.1s-.8-.2-1.1-.3c-1.2-.4-2.6-.1-3.7-.9-1.5.3-2.7-.8-4.2-.7-.5 0-1-.3-1.6-.4-.1-.6-.7-.6-1.3-1-.2-.3-.4-.8-.7-1.3-.3-1.1.1-2.2.4-3.2.4-1.1 1.5-1.7 2.2-2.6.6-.1 1.2-.4 1.8-.3 1.2.2 2.5.3 3.7.7.5.1.9.1 1.3.2s.9.2 1.3.3c.5.2.9.4 1.5.3.4-.1.7.2 1 .3.7.1 1.3.6 2.1.4.4-.1.8.1 1.1.3.6.3 1.3.2 1.9.4.3.1.6.2.8.3.7.1 1.3.5 2.1.4.2 0 .5.1.7.2.7.1 1.4.6 2.2.4.4-.1.8.1 1.2.3.6.3 1.3.2 1.9.4.5.1 1 .1 1.4.3 1.6 1 2.6 1.1 3.7 1-.1 0-.1 0-.1.1.1.1.1.2.2.3l.1-.1c0-.2-.1-.2-.2-.3z" fill="#e95846"/><path fill="none" d="M241.8 324.8h691v617.9h-691z"/><g class="st3"><path class="st4" d="M242.4 383.4v-3.8l6.6-1 16.7-48.6h6.6l16.7 49 5.4.6v3.7h-23.1v-3.7l7-.9-3.8-11.8H257l-3.8 11.6 7 1v3.8h-17.8zm23.4-42.7l-7.4 22.2H273l-7.2-22.2zM312.8 384.6c-3.1 0-5.9-.8-8.4-2.4-2.4-1.6-4.3-3.9-5.7-6.8-1.4-3-2.1-6.5-2.1-10.6 0-4.2.8-7.9 2.4-11 1.6-3.1 3.7-5.5 6.3-7.2 2.6-1.7 5.6-2.6 8.8-2.6 1.9 0 3.7.4 5.5 1.2 1.7.8 3.4 2.1 5.1 4l7.4-5.1 1.8.8-.2 10.8v35.9c0 2.1.1 4.2.1 6.3l5.3 1v3.3h-21.3v-3.3l6.3-1.2c.1-2.1.1-4.2.1-6.2V379c-1.5 1.9-3.3 3.3-5.1 4.2-1.9.9-4 1.4-6.3 1.4zm-5.9-20c0 4.9.9 8.5 2.8 10.8 1.8 2.3 4.2 3.5 7 3.5 1.4 0 2.7-.3 3.8-.9 1.2-.6 2.3-1.5 3.4-2.6v-22.9c-1.3-1.1-2.6-1.8-3.7-2.2-1.1-.4-2.3-.6-3.4-.6-2.8 0-5.1 1.2-7 3.6-1.9 2.4-2.9 6.1-2.9 11.3zM371 384.2l-.6-7c-3.9 5-8.4 7.4-13.6 7.4-3.3 0-6-1.1-8-3.2s-3-5.9-2.9-11.2l.3-19.8-5.2-1.1v-3.1l14-1.7 1 .9-.4 11.2v13.3c0 3 .5 5.1 1.4 6.3.9 1.2 2.3 1.8 4 1.8 1.5 0 3-.4 4.6-1.3 1.6-.9 3.1-1.9 4.5-3.3l.2-23-5-1.1v-3l13.7-1.8 1 .9-.2 11.2v22.6l4.9 1v3.3l-13.7.7zM389.4 383.4v-3.3l5.3-1c.1-2 .1-4.1.1-6.4v-9.8-5.5c0-1.5-.1-3-.2-4.6l-5.7-.7v-3l14.5-5 1.3.8-.2 11.3v16.7c0 2.3 0 4.5.1 6.5l4.8 1v3.3h-20zm6.2-46.4c.9-1.5 1.9-3.2 2.9-4.8 1-1.7 2.3-3.7 3.8-6 .9-1.5 1.8-2.6 2.6-3.2.8-.6 1.7-.9 2.7-.9.9 0 1.7.3 2.5 1 .8.6 1.2 1.6 1.2 2.8 0 1.5-1.3 3.4-3.8 5.4-2 1.7-3.7 3.1-5.1 4.3-1.4 1.2-2.8 2.4-4.2 3.5l-2.6-2.1zM431.6 383.4v-3.3l5.3-1c.1-2 .1-4.1.1-6.4v-40.3l-5.8-.8v-3.1l14.3-3.6 1.2.7-.3 11.3v14.3c4.1-4.7 8.7-7.1 13.7-7.1 3.5 0 6.2 1.1 8.1 3.4 1.9 2.3 2.9 5.9 2.9 10.9v14.5c0 2.3 0 4.4.1 6.4l4.9 1v3.3h-19.8v-3.3l5.1-1c.1-2 .1-4.1.1-6.4V359c0-3.1-.4-5.3-1.2-6.5-.8-1.2-2.3-1.8-4.3-1.8-3 0-6.1 1.5-9.3 4.6v17.5c0 2.3 0 4.5.1 6.5l4.7 1v3.3h-19.9zM510.9 384.4c-2.1 0-3.9-.5-5.2-1.6-1.3-1.1-2.2-2.5-2.7-4.4-2 2-3.8 3.6-5.4 4.6s-3.7 1.6-6.2 1.6c-3 0-5.5-.9-7.6-2.6-2.1-1.7-3.1-4.2-3.1-7.5 0-1.7.4-3.3 1.2-4.8.8-1.5 2.2-2.8 4.3-4.1 2.1-1.3 5-2.5 8.8-3.8 1.1-.4 2.3-.7 3.6-1.1 1.3-.4 2.7-.7 4.1-1.1v-2.2c0-3.7-.5-6.3-1.6-7.6-1-1.3-2.9-2-5.5-2-.5 0-1 0-1.6.1-.6.1-1.1.1-1.7.2l-1 4.4c-.2 1.9-.8 3.3-1.7 4.2-.9.9-2 1.4-3.4 1.4-2.6 0-4.1-1.2-4.5-3.6.5-3.2 2.2-5.8 5.2-7.7 3-1.9 6.9-2.9 11.7-2.9 4.6 0 8 1.1 10.2 3.3 2.1 2.2 3.2 5.9 3.2 11.2v17.4c0 2.4.8 3.6 2.3 3.6 1 0 1.9-.6 2.8-1.8l1.8 1.6c-1 1.8-2.1 3.1-3.4 3.9-1.1.9-2.7 1.3-4.6 1.3zm-20.8-11.6c0 2.1.5 3.6 1.6 4.5 1.1.9 2.4 1.4 4 1.4.9 0 1.8-.2 2.7-.6.9-.4 2.3-1.3 4.2-2.6v-12.6c-1.1.4-2.2.7-3.2 1-1 .3-1.8.6-2.5.9-2.7 1.1-4.5 2.3-5.5 3.7-.8 1.3-1.3 2.7-1.3 4.3zM521.6 383.4v-3.3l5.2-1c.1-2 .1-4.1.1-6.4v-40.5l-5.8-.7v-3.1l14.3-3.6 1.2.7-.3 11.3v12.9c3.6-3.8 7.5-5.7 11.9-5.7 2.9 0 5.5.8 7.8 2.3 2.3 1.5 4.2 3.8 5.6 6.8 1.4 3 2 6.6 2 10.8 0 4.2-.8 7.9-2.3 11-1.5 3.1-3.5 5.5-6 7.2-2.5 1.7-5.3 2.5-8.4 2.5-2.1 0-4-.4-5.8-1.2-1.8-.8-3.5-2.1-5-4l-1 5-13.5-1zm22.8-33.7c-1.2 0-2.5.3-3.8 1-1.3.6-2.7 1.5-4 2.7v22.2c2.5 2.3 5 3.4 7.5 3.4 2.6 0 4.8-1.2 6.6-3.6 1.8-2.4 2.7-6.1 2.7-11 0-5-.8-8.7-2.5-11.1-1.6-2.4-3.8-3.6-6.5-3.6zM568.4 383.4v-3.3l5.4-1c.1-2.1.1-4.2.1-6.2v-40.5l-5.8-.8v-3.1l14.6-3.6 1.2.7-.3 11.3v36c0 2.1.1 4.2.1 6.2l5.4 1v3.3h-20.7zM623.5 384.4c-2.1 0-3.9-.5-5.2-1.6-1.3-1.1-2.2-2.5-2.7-4.4-2 2-3.8 3.6-5.4 4.6-1.6 1-3.7 1.6-6.2 1.6-3 0-5.5-.9-7.6-2.6-2.1-1.7-3.1-4.2-3.1-7.5 0-1.7.4-3.3 1.2-4.8.8-1.5 2.2-2.8 4.3-4.1 2.1-1.3 5-2.5 8.8-3.8 1.1-.4 2.3-.7 3.6-1.1s2.7-.7 4.1-1.1v-2.2c0-3.7-.5-6.3-1.6-7.6-1-1.3-2.9-2-5.5-2-.5 0-1 0-1.6.1-.6.1-1.1.1-1.7.2l-1 4.4c-.2 1.9-.8 3.3-1.7 4.2-.9.9-2 1.4-3.4 1.4-2.6 0-4.1-1.2-4.5-3.6.5-3.2 2.2-5.8 5.2-7.7 3-1.9 6.9-2.9 11.7-2.9 4.6 0 8 1.1 10.2 3.3 2.1 2.2 3.2 5.9 3.2 11.2v17.4c0 2.4.8 3.6 2.3 3.6 1 0 1.9-.6 2.8-1.8l1.8 1.6c-1 1.8-2.1 3.1-3.4 3.9-1.1.9-2.7 1.3-4.6 1.3zm-20.8-11.6c0 2.1.5 3.6 1.6 4.5 1.1.9 2.4 1.4 4 1.4.9 0 1.8-.2 2.7-.6.9-.4 2.3-1.3 4.2-2.6v-12.6c-1.1.4-2.2.7-3.2 1-1 .3-1.8.6-2.5.9-2.7 1.1-4.5 2.3-5.5 3.7-.8 1.3-1.3 2.7-1.3 4.3zM634.4 383.4v-3.3l5.2-1c.1-2 .1-4.1.1-6.4v-10.2-5.2c0-1.3-.1-2.8-.2-4.4l-5.6-.7v-3l13.4-5 1.3.8.6 6.2c1.9-2.2 4-3.9 6.3-5.2 2.3-1.3 4.6-1.9 7.1-1.9 5.2 0 8.5 2.4 10 7.3 2.1-2.6 4.3-4.4 6.6-5.6 2.3-1.1 4.7-1.7 7.1-1.7 3.6 0 6.3 1.1 8.2 3.4 1.8 2.2 2.7 5.8 2.7 10.7v14.7c0 2.3 0 4.4.1 6.4l4.9 1v3.3h-19.5v-3.3l5-1c.1-2 .1-4.1.1-6.4v-13.5c0-3.4-.4-5.6-1.3-6.8-.9-1.2-2.3-1.8-4.4-1.8-2.8 0-5.8 1.4-8.8 4.1.1.5.1 1.1.1 1.7V372.8c0 2.3 0 4.4.1 6.4l4.8 1v3.3h-19.6v-3.3l5.1-1c.1-2 .1-4.1.1-6.4v-13.3c0-3.3-.4-5.5-1.2-6.8s-2.3-1.9-4.4-1.9c-1.5 0-3 .4-4.4 1.1-1.5.7-2.9 1.7-4.3 2.9v18c0 2.3 0 4.5.1 6.5l4.7 1v3.3h-20zM726.2 384.6c-3.6 0-6.9-.8-9.8-2.4-2.9-1.6-5.2-3.9-6.9-7-1.7-3-2.6-6.7-2.6-10.9 0-4.3.9-7.9 2.7-11 1.8-3 4.1-5.4 7.1-7 2.9-1.6 6.1-2.4 9.5-2.4 3.4 0 6.6.8 9.5 2.4 2.9 1.6 5.3 3.9 7.1 6.9 1.8 3 2.7 6.7 2.7 11s-.9 7.9-2.6 10.9c-1.7 3-4.1 5.3-7 6.9-2.8 1.8-6.1 2.6-9.7 2.6zm0-4c2.9 0 5.1-1.3 6.6-4s2.3-6.7 2.3-12.2c0-11-3-16.5-8.9-16.5s-8.8 5.5-8.8 16.5c0 5.5.7 9.6 2.2 12.2 1.5 2.7 3.7 4 6.6 4zM764.7 384.6c-2.5 0-4.7-.3-6.8-.8-2.1-.6-4.1-1.4-6.1-2.5l-.1-9.3h5.4l1.4 7.4c1.9.8 4 1.2 6.2 1.2 2.7 0 4.7-.5 6.1-1.4 1.3-1 2-2.3 2-4 0-1.5-.5-2.7-1.6-3.6-1.1-.9-2.9-1.8-5.4-2.7l-4-1.4c-3-1-5.3-2.4-7.1-4.2-1.7-1.9-2.6-4.2-2.6-7 0-2.2.6-4.3 1.8-6.1 1.2-1.8 2.9-3.3 5.2-4.4 2.3-1.1 5-1.6 8.3-1.6 2.3 0 4.4.3 6.3.8 1.9.6 3.8 1.4 5.6 2.4l-.4 8.4h-5.3l-1.4-6.7c-1.5-.6-3.1-1-5-1-2.1 0-3.8.5-5 1.4-1.2.9-1.8 2.1-1.8 3.7 0 1.4.5 2.6 1.5 3.5 1 .9 2.8 1.8 5.6 2.7l3.2 1c3.9 1.3 6.7 3 8.3 5 1.7 2 2.5 4.3 2.5 7.1 0 3.6-1.5 6.5-4.4 8.8-2.9 2.1-7 3.3-12.4 3.3zM832.9 384.3l-.6-5c-1.5 1.7-3.1 3-5 3.9-1.8.9-3.9 1.4-6.2 1.4-3.1 0-5.9-.8-8.4-2.4-2.4-1.6-4.3-3.9-5.7-6.9-1.4-3-2.1-6.5-2.1-10.6 0-4.2.8-7.9 2.4-11 1.6-3.1 3.7-5.5 6.3-7.2 2.6-1.7 5.5-2.5 8.7-2.5 2 0 3.9.4 5.5 1.1 1.6.7 3.2 2 4.6 3.7v-16.5l-6.2-.8v-3.1l14.6-3.6 1.2.7-.3 11.3v42.5l5.2.9v3.3l-14 .8zm-17.7-19.8c0 4.9.9 8.5 2.8 10.8 1.8 2.4 4.2 3.6 7 3.6 1.4 0 2.7-.3 3.8-.8 1.1-.6 2.2-1.4 3.2-2.4v-23c-2.3-2-4.7-3-7-3-2.7 0-5 1.2-6.9 3.6-2 2.3-2.9 6.1-2.9 11.2zM870.2 384.6c-3.7 0-7-.8-9.8-2.4-2.8-1.6-5-3.9-6.6-6.9-1.6-3-2.4-6.6-2.4-10.8 0-4.3.9-7.9 2.8-11 1.8-3.1 4.2-5.4 7.2-7 3-1.6 6.1-2.4 9.5-2.4 3.1 0 5.9.7 8.2 2 2.3 1.3 4.2 3.2 5.5 5.6 1.3 2.4 2 5.2 2 8.5 0 1.7-.2 3.2-.5 4.4h-24.5c.2 4.6 1.4 8 3.6 10.3 2.2 2.3 5 3.4 8.4 3.4 2.3 0 4.3-.5 6-1.4 1.6-.9 3.1-2.1 4.4-3.6l2.3 2.1a16.8 16.8 0 01-6.4 6.8c-2.8 1.5-6 2.4-9.7 2.4zm0-36.8c-1.3 0-2.5.4-3.8 1.2-1.3.8-2.3 2.2-3.2 4-.9 1.9-1.4 4.4-1.6 7.6h11c1.9 0 3.2-.4 3.8-1.2s1-1.9 1-3.4c0-2.5-.7-4.5-2.1-6-1.5-1.4-3.1-2.2-5.1-2.2z"/></g><g class="st3"><path class="st4" d="M243.9 468.4v-3.3l5.4-1c.1-2.1.1-4.2.1-6.2v-40.5l-5.8-.8v-3.1l14.6-3.6 1.2.7-.3 11.3v36c0 2.1.1 4.2.1 6.2l5.4 1v3.3h-20.7zM288.8 469.6c-3.6 0-6.9-.8-9.8-2.4-2.9-1.6-5.2-3.9-6.9-7-1.7-3-2.6-6.7-2.6-10.9 0-4.3.9-7.9 2.7-11 1.8-3 4.1-5.4 7.1-7 2.9-1.6 6.1-2.4 9.5-2.4 3.4 0 6.6.8 9.5 2.4 2.9 1.6 5.3 3.9 7.1 6.9 1.8 3 2.7 6.7 2.7 11s-.9 7.9-2.6 10.9c-1.7 3-4.1 5.3-7 6.9-2.8 1.8-6 2.6-9.7 2.6zm0-4c2.9 0 5.1-1.3 6.6-4s2.3-6.7 2.3-12.2c0-11-3-16.5-8.9-16.5s-8.8 5.5-8.8 16.5c0 5.5.7 9.6 2.2 12.2 1.6 2.7 3.8 4 6.6 4zM327.3 469.6c-2.5 0-4.7-.3-6.8-.8-2.1-.6-4.1-1.4-6.1-2.5l-.1-9.3h5.4l1.4 7.4c1.9.8 4 1.2 6.2 1.2 2.7 0 4.7-.5 6.1-1.4 1.3-1 2-2.3 2-4 0-1.5-.5-2.7-1.6-3.6-1.1-.9-2.9-1.8-5.4-2.7l-4-1.4c-3-1-5.3-2.4-7.1-4.2-1.7-1.9-2.6-4.2-2.6-7 0-2.2.6-4.3 1.8-6.1 1.2-1.8 2.9-3.3 5.2-4.4 2.3-1.1 5-1.6 8.3-1.6 2.3 0 4.4.3 6.3.8 1.9.6 3.8 1.4 5.6 2.4l-.4 8.4h-5.3l-1.4-6.7c-1.5-.6-3.1-1-5-1-2.1 0-3.8.5-5 1.4-1.2.9-1.8 2.1-1.8 3.7 0 1.4.5 2.6 1.5 3.5 1 .9 2.8 1.8 5.6 2.7l3.2 1c3.9 1.3 6.7 3 8.3 5 1.7 2 2.5 4.3 2.5 7.1 0 3.6-1.5 6.5-4.4 8.8-2.8 2.1-7 3.3-12.4 3.3zM395.6 469.3l-.6-5c-1.5 1.7-3.1 3-5 3.9-1.8.9-3.9 1.4-6.2 1.4-3.1 0-5.9-.8-8.4-2.4-2.4-1.6-4.3-3.9-5.7-6.9-1.4-3-2.1-6.5-2.1-10.6 0-4.2.8-7.9 2.4-11 1.6-3.1 3.7-5.5 6.3-7.2 2.6-1.7 5.5-2.5 8.7-2.5 2 0 3.9.4 5.5 1.1 1.6.7 3.2 2 4.6 3.7v-16.5l-6.2-.8v-3.1l14.6-3.6 1.2.7-.3 11.3v42.5l5.2.9v3.3l-14 .8zm-17.8-19.8c0 4.9.9 8.5 2.8 10.8 1.8 2.4 4.2 3.6 7 3.6 1.4 0 2.7-.3 3.8-.8 1.1-.6 2.2-1.4 3.2-2.4v-23c-2.3-2-4.7-3-7-3-2.7 0-5 1.2-6.9 3.6-1.9 2.3-2.9 6.1-2.9 11.2zM432.8 469.6c-3.7 0-7-.8-9.8-2.4-2.8-1.6-5-3.9-6.6-6.9-1.6-3-2.4-6.6-2.4-10.8 0-4.3.9-7.9 2.8-11 1.8-3.1 4.2-5.4 7.2-7 3-1.6 6.1-2.4 9.5-2.4 3.1 0 5.9.7 8.2 2 2.3 1.3 4.2 3.2 5.5 5.6 1.3 2.4 2 5.2 2 8.5 0 1.7-.2 3.2-.5 4.4h-24.5c.2 4.6 1.4 8 3.6 10.3 2.2 2.3 5 3.4 8.4 3.4 2.3 0 4.3-.5 6-1.4 1.6-.9 3.1-2.1 4.4-3.6l2.3 2.1a16.8 16.8 0 01-6.4 6.8c-2.7 1.5-5.9 2.4-9.7 2.4zm0-36.8c-1.3 0-2.5.4-3.8 1.2-1.3.8-2.3 2.2-3.2 4-.9 1.9-1.4 4.4-1.6 7.6h11c1.9 0 3.2-.4 3.8-1.2s1-1.9 1-3.4c0-2.5-.7-4.5-2.1-6-1.4-1.4-3.1-2.2-5.1-2.2zM468.4 469.6c-2.5 0-4.7-.3-6.8-.8-2.1-.6-4.1-1.4-6.1-2.5l-.1-9.3h5.4l1.4 7.4c1.9.8 4 1.2 6.2 1.2 2.7 0 4.7-.5 6.1-1.4 1.3-1 2-2.3 2-4 0-1.5-.5-2.7-1.6-3.6-1.1-.9-2.9-1.8-5.4-2.7l-4-1.4c-3-1-5.3-2.4-7.1-4.2-1.7-1.9-2.6-4.2-2.6-7 0-2.2.6-4.3 1.8-6.1 1.2-1.8 2.9-3.3 5.2-4.4 2.3-1.1 5-1.6 8.3-1.6 2.3 0 4.4.3 6.3.8 1.9.6 3.8 1.4 5.6 2.4l-.4 8.4h-5.3l-1.4-6.7c-1.5-.6-3.1-1-5-1-2.1 0-3.8.5-5 1.4-1.2.9-1.8 2.1-1.8 3.7 0 1.4.5 2.6 1.5 3.5 1 .9 2.8 1.8 5.6 2.7l3.2 1c3.9 1.3 6.7 3 8.3 5 1.7 2 2.5 4.3 2.5 7.1 0 3.6-1.5 6.5-4.4 8.8-2.9 2.1-7.1 3.3-12.4 3.3zM520.6 469.4c-2.1 0-3.9-.5-5.2-1.6-1.3-1.1-2.2-2.5-2.7-4.4-2 2-3.8 3.6-5.4 4.6s-3.7 1.6-6.2 1.6c-3 0-5.5-.9-7.6-2.6-2.1-1.7-3.1-4.2-3.1-7.5 0-1.7.4-3.3 1.2-4.8.8-1.5 2.2-2.8 4.3-4.1 2.1-1.3 5-2.5 8.8-3.8 1.1-.4 2.3-.7 3.6-1.1 1.3-.4 2.7-.7 4.1-1.1v-2.2c0-3.7-.5-6.3-1.6-7.6-1-1.3-2.9-2-5.5-2-.5 0-1 0-1.6.1-.6.1-1.1.1-1.7.2l-1 4.4c-.2 1.9-.8 3.3-1.7 4.2-.9.9-2 1.4-3.4 1.4-2.6 0-4.1-1.2-4.5-3.6.5-3.2 2.2-5.8 5.2-7.7 3-1.9 6.9-2.9 11.7-2.9 4.6 0 8 1.1 10.2 3.3 2.1 2.2 3.2 5.9 3.2 11.2v17.4c0 2.4.8 3.6 2.3 3.6 1 0 1.9-.6 2.8-1.8l1.8 1.6c-1 1.8-2.1 3.1-3.4 3.9-1.1.9-2.7 1.3-4.6 1.3zm-20.8-11.6c0 2.1.5 3.6 1.6 4.5 1.1.9 2.4 1.4 4 1.4.9 0 1.8-.2 2.7-.6.9-.4 2.3-1.3 4.2-2.6v-12.6c-1.1.4-2.2.7-3.2 1-1 .3-1.8.6-2.5.9-2.7 1.1-4.5 2.3-5.5 3.7-.8 1.3-1.3 2.7-1.3 4.3zM531.6 468.4v-3.3l5.4-1c.1-2.1.1-4.2.1-6.2V435h-5.9v-4.2l6.2-.8c.4-3.9 1.1-7.1 2-9.6.9-2.4 2.3-4.6 4.1-6.4 1.8-1.8 3.8-3.1 6-3.9 2.2-.8 4.3-1.2 6.3-1.2 2.1 0 3.9.4 5.6 1.1 1.6.7 2.7 2.1 3.1 3.9-.1 1.2-.5 2.3-1.5 3.1-.9.9-2.2 1.3-3.8 1.3-2.3 0-4.5-1.3-6.5-4l-1.4-1.4c-.2.1-.3.3-.6.5-1.4 1.4-2.5 3.5-3.1 6.1-.6 2.6-.9 6.1-.8 10.6h9.8v4.9h-9.7V457.7c0 2.1.1 4.1.1 6.2l6.7 1.2v3.3h-22.1zM563.2 468.4v-3.3l5.3-1c.1-2 .1-4.1.1-6.4v-9.8-5.5c0-1.5-.1-3-.2-4.6l-5.7-.7v-3l14.5-5 1.3.8-.2 11.3v16.7c0 2.3 0 4.5.1 6.5l4.8 1v3.3h-20zm6.2-46.4c.9-1.5 1.9-3.2 2.9-4.8 1-1.7 2.3-3.7 3.8-6 .9-1.5 1.8-2.6 2.6-3.2.8-.6 1.7-.9 2.7-.9.9 0 1.7.3 2.5 1 .8.6 1.2 1.6 1.2 2.8 0 1.5-1.3 3.4-3.8 5.4-2 1.7-3.7 3.1-5.1 4.3-1.4 1.2-2.8 2.4-4.2 3.5l-2.6-2.1zM607.4 469.6c-3.6 0-6.9-.8-9.8-2.4-2.9-1.6-5.2-3.9-6.9-7-1.7-3-2.6-6.7-2.6-10.9 0-4.3.9-7.9 2.7-11 1.8-3 4.1-5.4 7.1-7 2.9-1.6 6.1-2.4 9.5-2.4 3.4 0 6.6.8 9.5 2.4 2.9 1.6 5.3 3.9 7.1 6.9 1.8 3 2.7 6.7 2.7 11s-.9 7.9-2.6 10.9c-1.7 3-4.1 5.3-7 6.9-2.8 1.8-6.1 2.6-9.7 2.6zm0-4c2.9 0 5.1-1.3 6.6-4s2.3-6.7 2.3-12.2c0-11-3-16.5-8.9-16.5s-8.8 5.5-8.8 16.5c0 5.5.7 9.6 2.2 12.2 1.5 2.7 3.7 4 6.6 4zM645.9 469.6c-2.5 0-4.7-.3-6.8-.8-2.1-.6-4.1-1.4-6.1-2.5l-.1-9.3h5.4l1.4 7.4c1.9.8 4 1.2 6.2 1.2 2.7 0 4.7-.5 6.1-1.4 1.3-1 2-2.3 2-4 0-1.5-.5-2.7-1.6-3.6-1.1-.9-2.9-1.8-5.4-2.7l-4-1.4c-3-1-5.3-2.4-7.1-4.2-1.7-1.9-2.6-4.2-2.6-7 0-2.2.6-4.3 1.8-6.1 1.2-1.8 2.9-3.3 5.2-4.4 2.3-1.1 5-1.6 8.3-1.6 2.3 0 4.4.3 6.3.8 1.9.6 3.8 1.4 5.6 2.4l-.4 8.4h-5.3l-1.4-6.7c-1.5-.6-3.1-1-5-1-2.1 0-3.8.5-5 1.4-1.2.9-1.8 2.1-1.8 3.7 0 1.4.5 2.6 1.5 3.5 1 .9 2.8 1.8 5.6 2.7l3.2 1c3.9 1.3 6.7 3 8.3 5 1.7 2 2.5 4.3 2.5 7.1 0 3.6-1.5 6.5-4.4 8.8-2.9 2.1-7 3.3-12.4 3.3zM702.3 469.6c-3.1 0-5.9-.8-8.4-2.4-2.4-1.6-4.3-3.9-5.7-6.8-1.4-3-2.1-6.5-2.1-10.6 0-4.2.8-7.9 2.4-11 1.6-3.1 3.7-5.5 6.3-7.2 2.6-1.7 5.6-2.6 8.8-2.6 1.9 0 3.7.4 5.5 1.2 1.7.8 3.4 2.1 5.1 4l7.4-5.1 1.8.8-.2 10.8v35.9c0 2.1.1 4.2.1 6.3l5.3 1v3.3h-21.3v-3.3l6.3-1.2c.1-2.1.1-4.2.1-6.2V464c-1.5 1.9-3.3 3.3-5.1 4.2-2 .9-4 1.4-6.3 1.4zm-6-20c0 4.9.9 8.5 2.8 10.8 1.8 2.3 4.2 3.5 7 3.5 1.4 0 2.7-.3 3.8-.9 1.2-.6 2.3-1.5 3.4-2.6v-22.9c-1.3-1.1-2.6-1.8-3.7-2.2-1.1-.4-2.3-.6-3.4-.6-2.8 0-5.1 1.2-7 3.6-1.9 2.4-2.9 6.1-2.9 11.3zM760.4 469.2l-.6-7c-3.9 5-8.4 7.4-13.6 7.4-3.3 0-6-1.1-8-3.2s-3-5.9-2.9-11.2l.3-19.8-5.2-1.1v-3.1l14-1.7 1 .9-.4 11.2v13.3c0 3 .5 5.1 1.4 6.3.9 1.2 2.3 1.8 4 1.8 1.5 0 3-.4 4.6-1.3 1.6-.9 3.1-1.9 4.5-3.3l.2-23-5-1.1v-3l13.7-1.8 1 .9-.2 11.2v22.6l4.9 1v3.3l-13.7.7zM797.6 469.6c-3.7 0-7-.8-9.8-2.4-2.8-1.6-5-3.9-6.6-6.9-1.6-3-2.4-6.6-2.4-10.8 0-4.3.9-7.9 2.8-11 1.8-3.1 4.2-5.4 7.2-7 3-1.6 6.1-2.4 9.5-2.4 3.1 0 5.9.7 8.2 2 2.3 1.3 4.2 3.2 5.5 5.6 1.3 2.4 2 5.2 2 8.5 0 1.7-.2 3.2-.5 4.4H789c.2 4.6 1.4 8 3.6 10.3 2.2 2.3 5 3.4 8.4 3.4 2.3 0 4.3-.5 6-1.4 1.6-.9 3.1-2.1 4.4-3.6l2.3 2.1a16.8 16.8 0 01-6.4 6.8c-2.7 1.5-5.9 2.4-9.7 2.4zm0-36.8c-1.3 0-2.5.4-3.8 1.2-1.3.8-2.3 2.2-3.2 4-.9 1.9-1.4 4.4-1.6 7.6h11c1.9 0 3.2-.4 3.8-1.2s1-1.9 1-3.4c0-2.5-.7-4.5-2.1-6-1.4-1.4-3.1-2.2-5.1-2.2z"/></g><g class="st3"><path class="st4" d="M263.6 554.6c-3.7 0-7-.8-9.8-2.4-2.8-1.6-5-3.9-6.6-6.9-1.6-3-2.4-6.6-2.4-10.8 0-4.3.9-7.9 2.8-11 1.8-3.1 4.2-5.4 7.2-7 3-1.6 6.1-2.4 9.5-2.4 3.1 0 5.9.7 8.2 2 2.3 1.3 4.2 3.2 5.5 5.6 1.3 2.4 2 5.2 2 8.5 0 1.7-.2 3.2-.5 4.4H255c.2 4.6 1.4 8 3.6 10.3 2.2 2.3 5 3.4 8.4 3.4 2.3 0 4.3-.5 6-1.4 1.6-.9 3.1-2.1 4.4-3.6l2.3 2.1a16.8 16.8 0 01-6.4 6.8c-2.7 1.5-5.9 2.4-9.7 2.4zm0-36.8c-1.3 0-2.5.4-3.8 1.2-1.3.8-2.3 2.2-3.2 4-.9 1.9-1.4 4.4-1.6 7.6h11c1.9 0 3.2-.4 3.8-1.2s1-1.9 1-3.4c0-2.5-.7-4.5-2.1-6-1.4-1.4-3.1-2.2-5.1-2.2zM285.7 553.4v-3.3l5.2-1c.1-2 .1-4.1.1-6.4v-10.2-5.2c0-1.3-.1-2.8-.2-4.4l-5.6-.7v-3l13.4-5 1.3.8.6 6.2c4.1-4.6 8.6-7 13.6-7 3.5 0 6.1 1.1 8 3.4 1.9 2.3 2.8 5.9 2.8 10.9V543c0 2.3 0 4.4.1 6.4l4.9 1v3.3H310v-3.3l5.1-1c.1-2 .1-4.1.1-6.4v-14c0-3.1-.4-5.3-1.3-6.5-.9-1.2-2.3-1.8-4.3-1.8-2.8 0-5.8 1.3-9 3.9v18.1c0 2.3 0 4.5.1 6.5l4.7 1v3.3h-19.7zM334.5 553.4v-3.3l5.4-1c.1-2.1.1-4.2.1-6.2V520h-5.9v-4.2l6.2-.8c.4-3.9 1.1-7.1 2-9.6.9-2.4 2.3-4.6 4.1-6.4 1.8-1.8 3.8-3.1 6-3.9 2.2-.8 4.3-1.2 6.3-1.2 2.1 0 3.9.4 5.6 1.1 1.6.7 2.7 2.1 3.1 3.9-.1 1.2-.5 2.3-1.5 3.1-.9.9-2.2 1.3-3.8 1.3-2.3 0-4.5-1.3-6.5-4L354 498c-.2.1-.3.3-.6.5-1.4 1.4-2.5 3.5-3.1 6.1-.6 2.6-.9 6.1-.8 10.6h9.8v4.9h-9.7V542.8c0 2.1.1 4.1.1 6.2l6.7 1.2v3.3h-21.9z"/><path class="st4" d="M363.3 553.4v-3.3l5.1-1c.1-2 .1-4.2.1-6.5v-10.2-5.2c0-1.3-.1-2.8-.2-4.4l-5.6-.7v-3l13.4-5 1.3.8.8 9.4c1.2-3.3 2.9-5.8 5-7.6s4.2-2.6 6.2-2.6c1.4 0 2.8.4 4 1.1 1.2.7 2 1.8 2.4 3.2-.1 2-.5 3.5-1.4 4.6-.9 1.1-2.2 1.6-3.8 1.6-1.9 0-3.7-1-5.4-2.9l-.7-.8c-2.8 2.3-4.9 5.7-6.1 9.9v11.7c0 2.3 0 4.4.1 6.4l6.6 1.3v3.3h-21.8zM416.7 554.6c-3.7 0-7-.8-9.8-2.4-2.8-1.6-5-3.9-6.6-6.9-1.6-3-2.4-6.6-2.4-10.8 0-4.3.9-7.9 2.8-11 1.8-3.1 4.2-5.4 7.2-7 3-1.6 6.1-2.4 9.5-2.4 3.1 0 5.9.7 8.2 2 2.3 1.3 4.2 3.2 5.5 5.6 1.3 2.4 2 5.2 2 8.5 0 1.7-.2 3.2-.5 4.4H408c.2 4.6 1.4 8 3.6 10.3 2.2 2.3 5 3.4 8.4 3.4 2.3 0 4.3-.5 6-1.4 1.6-.9 3.1-2.1 4.4-3.6l2.3 2.1a16.8 16.8 0 01-6.4 6.8c-2.7 1.5-5.9 2.4-9.6 2.4zm0-36.8c-1.3 0-2.5.4-3.8 1.2-1.3.8-2.3 2.2-3.2 4-.9 1.9-1.4 4.4-1.6 7.6h11c1.9 0 3.2-.4 3.8-1.2s1-1.9 1-3.4c0-2.5-.7-4.5-2.1-6-1.5-1.4-3.2-2.2-5.1-2.2zM438.8 553.4v-3.3l5.2-1c.1-2 .1-4.1.1-6.4v-10.2-5.2c0-1.3-.1-2.8-.2-4.4l-5.6-.7v-3l13.4-5 1.3.8.6 6.2c4.1-4.6 8.6-7 13.6-7 3.5 0 6.1 1.1 8 3.4 1.9 2.3 2.8 5.9 2.8 10.9V543c0 2.3 0 4.4.1 6.4l4.9 1v3.3h-19.8v-3.3l5.1-1c.1-2 .1-4.1.1-6.4v-14c0-3.1-.4-5.3-1.3-6.5-.9-1.2-2.3-1.8-4.3-1.8-2.8 0-5.8 1.3-9 3.9v18.1c0 2.3 0 4.5.1 6.5l4.7 1v3.3h-19.8zM501.4 554.6c-3.2 0-5.7-.8-7.5-2.4-1.8-1.6-2.7-4.2-2.7-7.7V541v-21h-5.9v-4.2l6.5-.8 3-11h6.5l-.3 11h9.6v4.9h-9.7v23.6c0 2 .4 3.4 1.2 4.3.8.9 1.8 1.4 3.1 1.4 1.4 0 3.1-.7 4.9-2l1.9 2c-1 1.7-2.4 2.9-4.2 3.9-1.8 1-3.9 1.5-6.4 1.5zM545 554.4c-2.1 0-3.9-.5-5.2-1.6-1.3-1.1-2.2-2.5-2.7-4.4-2 2-3.8 3.6-5.4 4.6s-3.7 1.6-6.2 1.6c-3 0-5.5-.9-7.6-2.6-2.1-1.7-3.1-4.2-3.1-7.5 0-1.7.4-3.3 1.2-4.8.8-1.5 2.2-2.8 4.3-4.1 2.1-1.3 5-2.5 8.8-3.8 1.1-.4 2.3-.7 3.6-1.1 1.3-.4 2.7-.7 4.1-1.1v-2.2c0-3.7-.5-6.3-1.6-7.6-1-1.3-2.9-2-5.5-2-.5 0-1 0-1.6.1-.6.1-1.1.1-1.7.2l-1 4.4c-.2 1.9-.8 3.3-1.7 4.2-.9.9-2 1.4-3.4 1.4-2.6 0-4.1-1.2-4.5-3.6.5-3.2 2.2-5.8 5.2-7.7 3-1.9 6.9-2.9 11.7-2.9 4.6 0 8 1.1 10.2 3.3 2.1 2.2 3.2 5.9 3.2 11.2v17.4c0 2.4.8 3.6 2.3 3.6 1 0 1.9-.6 2.8-1.8l1.8 1.6c-1 1.8-2.1 3.1-3.4 3.9-1.1.9-2.7 1.3-4.6 1.3zm-20.8-11.6c0 2.1.5 3.6 1.6 4.5 1.1.9 2.4 1.4 4 1.4.9 0 1.8-.2 2.7-.6.9-.4 2.3-1.3 4.2-2.6v-12.6c-1.1.4-2.2.7-3.2 1-1 .3-1.8.6-2.5.9-2.7 1.1-4.5 2.3-5.5 3.7-.8 1.3-1.3 2.7-1.3 4.3zM555.9 553.4v-3.3l5.2-1c.1-2 .1-4.1.1-6.4v-10.2-5.2c0-1.3-.1-2.8-.2-4.4l-5.6-.7v-3l13.4-5 1.3.8.6 6.2c1.9-2.2 4-3.9 6.3-5.2 2.3-1.3 4.6-1.9 7.1-1.9 5.2 0 8.5 2.4 10 7.3 2.1-2.6 4.3-4.4 6.6-5.6 2.3-1.1 4.7-1.7 7.1-1.7 3.6 0 6.3 1.1 8.2 3.4 1.8 2.2 2.7 5.8 2.7 10.7v14.7c0 2.3 0 4.4.1 6.4l4.9 1v3.3H604v-3.3l5-1c.1-2 .1-4.1.1-6.4v-13.5c0-3.4-.4-5.6-1.3-6.8-.9-1.2-2.3-1.8-4.4-1.8-2.8 0-5.8 1.4-8.8 4.1.1.5.1 1.1.1 1.7V542.8c0 2.3 0 4.4.1 6.4l4.8 1v3.3H580v-3.3l5.1-1c.1-2 .1-4.1.1-6.4v-13.3c0-3.3-.4-5.5-1.2-6.8-.8-1.3-2.3-1.9-4.4-1.9-1.5 0-3 .4-4.4 1.1-1.5.7-2.9 1.7-4.3 2.9v18c0 2.3 0 4.5.1 6.5l4.7 1v3.3h-19.8zM647.7 554.6c-3.6 0-6.9-.8-9.8-2.4-2.9-1.6-5.2-3.9-6.9-7-1.7-3-2.6-6.7-2.6-10.9 0-4.3.9-7.9 2.7-11 1.8-3 4.1-5.4 7.1-7 2.9-1.6 6.1-2.4 9.5-2.4 3.4 0 6.6.8 9.5 2.4 2.9 1.6 5.3 3.9 7.1 6.9 1.8 3 2.7 6.7 2.7 11s-.9 7.9-2.6 10.9c-1.7 3-4.1 5.3-7 6.9-2.8 1.8-6.1 2.6-9.7 2.6zm0-4c2.9 0 5.1-1.3 6.6-4s2.3-6.7 2.3-12.2c0-11-3-16.5-8.9-16.5s-8.8 5.5-8.8 16.5c0 5.5.7 9.6 2.2 12.2 1.5 2.7 3.7 4 6.6 4zM686.2 554.6c-2.5 0-4.7-.3-6.8-.8-2.1-.6-4.1-1.4-6.1-2.5l-.1-9.3h5.4l1.4 7.4c1.9.8 4 1.2 6.2 1.2 2.7 0 4.7-.5 6.1-1.4 1.3-1 2-2.3 2-4 0-1.5-.5-2.7-1.6-3.6-1.1-.9-2.9-1.8-5.4-2.7l-4-1.4c-3-1-5.3-2.4-7.1-4.2-1.7-1.9-2.6-4.2-2.6-7 0-2.2.6-4.3 1.8-6.1 1.2-1.8 2.9-3.3 5.2-4.4 2.3-1.1 5-1.6 8.3-1.6 2.3 0 4.4.3 6.3.8 1.9.6 3.8 1.4 5.6 2.4l-.4 8.4h-5.3l-1.4-6.7c-1.5-.6-3.1-1-5-1-2.1 0-3.8.5-5 1.4-1.2.9-1.8 2.1-1.8 3.7 0 1.4.5 2.6 1.5 3.5 1 .9 2.8 1.8 5.6 2.7l3.2 1c3.9 1.3 6.7 3 8.3 5 1.7 2 2.5 4.3 2.5 7.1 0 3.6-1.5 6.5-4.4 8.8-2.9 2.1-7 3.3-12.4 3.3zM745.2 554.6c-3.6 0-6.9-.8-9.8-2.4s-5.1-3.9-6.8-6.9c-1.6-3-2.4-6.7-2.4-10.9 0-4.3.9-8 2.8-11s4.3-5.4 7.3-7 6.3-2.4 9.9-2.4c2.6 0 5 .5 7.1 1.5 2.1 1 3.8 2.3 5.1 4 1.3 1.7 2.1 3.5 2.4 5.6-.6 2.3-2.2 3.5-4.6 3.5-3 0-4.7-1.9-5.2-5.6l-1-4.8c-.5-.1-1-.2-1.4-.2-.5-.1-1-.1-1.4-.1-1.9 0-3.7.5-5.3 1.6-1.6 1.1-2.9 2.8-4 5.1-1 2.3-1.5 5.2-1.5 8.7 0 4.9 1.1 8.6 3.3 11.1 2.2 2.6 5.1 3.8 8.7 3.8 2.1 0 4.1-.5 5.8-1.4 1.7-1 3.1-2.3 4.3-3.9l2.4 1.8c-1.3 3.3-3.3 5.7-6 7.4-2.7 1.6-5.9 2.5-9.7 2.5zM785.4 554.6c-3.6 0-6.9-.8-9.8-2.4-2.9-1.6-5.2-3.9-6.9-7-1.7-3-2.6-6.7-2.6-10.9 0-4.3.9-7.9 2.7-11 1.8-3 4.1-5.4 7.1-7 2.9-1.6 6.1-2.4 9.5-2.4 3.4 0 6.6.8 9.5 2.4 2.9 1.6 5.3 3.9 7.1 6.9 1.8 3 2.7 6.7 2.7 11s-.9 7.9-2.6 10.9c-1.7 3-4.1 5.3-7 6.9-2.8 1.8-6.1 2.6-9.7 2.6zm0-4c2.9 0 5.1-1.3 6.6-4s2.3-6.7 2.3-12.2c0-11-3-16.5-8.9-16.5s-8.8 5.5-8.8 16.5c0 5.5.7 9.6 2.2 12.2 1.5 2.7 3.7 4 6.6 4zM810.4 553.4v-3.3l5.2-1c.1-2 .1-4.1.1-6.4v-10.2-5.2c0-1.3-.1-2.8-.2-4.4l-5.6-.7v-3l13.4-5 1.3.8.6 6.2c1.9-2.2 4-3.9 6.3-5.2 2.3-1.3 4.6-1.9 7.1-1.9 5.2 0 8.5 2.4 10 7.3 2.1-2.6 4.3-4.4 6.6-5.6 2.3-1.1 4.7-1.7 7.1-1.7 3.6 0 6.3 1.1 8.2 3.4 1.8 2.2 2.7 5.8 2.7 10.7v14.7c0 2.3 0 4.4.1 6.4l4.9 1v3.3h-19.5v-3.3l5-1c.1-2 .1-4.1.1-6.4v-13.5c0-3.4-.4-5.6-1.3-6.8-.9-1.2-2.3-1.8-4.4-1.8-2.8 0-5.8 1.4-8.8 4.1.1.5.1 1.1.1 1.7V542.8c0 2.3 0 4.4.1 6.4l4.8 1v3.3h-19.6v-3.3l5.1-1c.1-2 .1-4.1.1-6.4v-13.3c0-3.3-.4-5.5-1.2-6.8-.8-1.3-2.3-1.9-4.4-1.9-1.5 0-3 .4-4.4 1.1-1.5.7-2.9 1.7-4.3 2.9v18c0 2.3 0 4.5.1 6.5l4.7 1v3.3h-20zM902.3 554.6c-3.6 0-6.9-.8-9.8-2.4-2.9-1.6-5.2-3.9-6.9-7s-2.6-6.7-2.6-10.9c0-4.3.9-7.9 2.7-11 1.8-3 4.1-5.4 7.1-7 2.9-1.6 6.1-2.4 9.5-2.4 3.4 0 6.6.8 9.5 2.4 2.9 1.6 5.3 3.9 7.1 6.9 1.8 3 2.7 6.7 2.7 11s-.9 7.9-2.6 10.9c-1.7 3-4.1 5.3-7 6.9-2.8 1.8-6.1 2.6-9.7 2.6zm0-4c2.9 0 5.1-1.3 6.6-4s2.3-6.7 2.3-12.2c0-11-3-16.5-8.9-16.5s-8.8 5.5-8.8 16.5c0 5.5.7 9.6 2.2 12.2 1.5 2.7 3.7 4 6.6 4z"/></g><g class="st3"><path class="st4" d="M264 639.6c-3.6 0-6.9-.8-9.8-2.4-2.9-1.6-5.2-3.9-6.9-7-1.7-3-2.6-6.7-2.6-10.9 0-4.3.9-7.9 2.7-11 1.8-3 4.1-5.4 7.1-7 2.9-1.6 6.1-2.4 9.5-2.4 3.4 0 6.6.8 9.5 2.4 2.9 1.6 5.3 3.9 7.1 6.9 1.8 3 2.7 6.7 2.7 11s-.9 7.9-2.6 10.9c-1.7 3-4.1 5.3-7 6.9-2.8 1.8-6 2.6-9.7 2.6zm0-4c2.9 0 5.1-1.3 6.6-4s2.3-6.7 2.3-12.2c0-11-3-16.5-8.9-16.5s-8.8 5.5-8.8 16.5c0 5.5.7 9.6 2.2 12.2 1.6 2.7 3.8 4 6.6 4zM289.2 638.4v-3.3l5.1-1c.1-2 .1-4.2.1-6.5v-10.2-5.2c0-1.3-.1-2.8-.2-4.4l-5.6-.7v-3l13.4-5 1.3.8.8 9.4c1.2-3.3 2.9-5.8 5-7.6s4.2-2.6 6.2-2.6c1.4 0 2.8.4 4 1.1 1.2.7 2 1.8 2.4 3.2-.1 2-.5 3.5-1.4 4.6-.9 1.1-2.2 1.6-3.8 1.6-1.9 0-3.7-1-5.4-2.9l-.7-.8c-2.8 2.3-4.9 5.7-6.1 9.9v11.7c0 2.3 0 4.4.1 6.4l6.6 1.3v3.3h-21.8zM340.1 625c-2.4 0-4.6-.3-6.6-.9-1 1.4-1.5 2.9-1.5 4.4 0 1 .3 1.8 1 2.4.7.6 1.9.9 3.6.9h10c5.2 0 9 1 11.2 3 2.2 2 3.4 4.6 3.4 8 0 2.5-.8 4.9-2.4 7-1.6 2.2-4 3.9-7.2 5.3-3.2 1.3-7.1 2-11.9 2-4.1 0-7.4-.4-9.9-1.3s-4.3-2-5.4-3.4c-1.1-1.4-1.6-3-1.6-4.8 0-1.7.6-3.3 1.7-4.7 1.1-1.4 3-2.7 5.5-4-1.7-.6-2.9-1.4-3.7-2.5-.8-1.1-1.2-2.4-1.2-3.8 0-1.5.5-3.1 1.4-4.6.9-1.5 2.4-3.2 4.4-5-4.2-2.1-6.3-5.8-6.3-11 0-3.9 1.4-7.1 4.2-9.5 2.8-2.4 6.6-3.6 11.4-3.6 4.9 0 8.6 1.1 11.4 3.4l9-3.4 1.2.8v5.6H354c1.1 1.8 1.7 4.1 1.7 6.7 0 3.9-1.4 7-4.1 9.4-2.8 2.4-6.6 3.6-11.5 3.6zm-10.2 20.9c0 2.5.9 4.2 2.7 5.4 1.8 1.1 4.4 1.7 7.8 1.7 4.2 0 7.4-.7 9.6-2.1 2.2-1.4 3.2-3.1 3.2-5 0-1.5-.5-2.8-1.6-3.8-1-1.1-2.8-1.6-5.4-1.6h-8.9c-2 0-3.7-.2-5.3-.5-1.4 1.8-2.1 3.8-2.1 5.9zm10.1-24.4c2.2 0 3.9-.9 5.1-2.6 1.2-1.8 1.8-4.1 1.8-7 0-2.8-.6-5.1-1.7-6.8-1.1-1.7-2.8-2.5-4.9-2.5-2.1 0-3.8.9-5 2.6-1.2 1.7-1.8 4-1.8 6.9 0 2.9.6 5.2 1.7 6.9s2.6 2.5 4.8 2.5zM394.8 639.4c-2.1 0-3.9-.5-5.2-1.6-1.3-1.1-2.2-2.5-2.7-4.4-2 2-3.8 3.6-5.4 4.6s-3.7 1.6-6.2 1.6c-3 0-5.5-.9-7.6-2.6-2.1-1.7-3.1-4.2-3.1-7.5 0-1.7.4-3.3 1.2-4.8.8-1.5 2.2-2.8 4.3-4.1 2.1-1.3 5-2.5 8.8-3.8 1.1-.4 2.3-.7 3.6-1.1 1.3-.4 2.7-.7 4.1-1.1v-2.2c0-3.7-.5-6.3-1.6-7.6-1-1.3-2.9-2-5.5-2-.5 0-1 0-1.6.1-.6.1-1.1.1-1.7.2l-1 4.4c-.2 1.9-.8 3.3-1.7 4.2-.9.9-2 1.4-3.4 1.4-2.6 0-4.1-1.2-4.5-3.6.5-3.2 2.2-5.8 5.2-7.7 3-1.9 6.9-2.9 11.7-2.9 4.6 0 8 1.1 10.2 3.3 2.1 2.2 3.2 5.9 3.2 11.2v17.4c0 2.4.8 3.6 2.3 3.6 1 0 1.9-.6 2.8-1.8l1.8 1.6c-1 1.8-2.1 3.1-3.4 3.9-1 .9-2.6 1.3-4.6 1.3zM374 627.8c0 2.1.5 3.6 1.6 4.5 1.1.9 2.4 1.4 4 1.4.9 0 1.8-.2 2.7-.6.9-.4 2.3-1.3 4.2-2.6v-12.6c-1.1.4-2.2.7-3.2 1-1 .3-1.8.6-2.5.9-2.7 1.1-4.5 2.3-5.5 3.7-.8 1.3-1.3 2.7-1.3 4.3zM405.7 638.4v-3.3l5.2-1c.1-2 .1-4.1.1-6.4v-10.2-5.2c0-1.3-.1-2.8-.2-4.4l-5.6-.7v-3l13.4-5 1.3.8.6 6.2c4.1-4.6 8.6-7 13.6-7 3.5 0 6.1 1.1 8 3.4 1.9 2.3 2.8 5.9 2.8 10.9V628c0 2.3 0 4.4.1 6.4l4.9 1v3.3H430v-3.3l5.1-1c.1-2 .1-4.1.1-6.4v-14c0-3.1-.4-5.3-1.3-6.5-.9-1.2-2.3-1.8-4.3-1.8-2.8 0-5.8 1.3-9 3.9v18.1c0 2.3 0 4.5.1 6.5l4.7 1v3.3h-19.7zM454.4 638.4v-3.3l5.3-1c.1-2 .1-4.1.1-6.4v-9.8-5.5c0-1.5-.1-3-.2-4.6l-5.7-.7v-3l14.4-5 1.3.8-.2 11.3v16.6c0 2.3 0 4.5.1 6.5l4.9 1v3.3h-20zm10.1-46.8c-1.7 0-3.1-.5-4.3-1.6-1.2-1.1-1.8-2.4-1.8-4.1 0-1.7.6-3.1 1.8-4.2 1.2-1.1 2.6-1.6 4.3-1.6 1.7 0 3.1.5 4.3 1.6 1.1 1.1 1.7 2.5 1.7 4.2 0 1.7-.6 3-1.7 4.1-1.1 1-2.6 1.6-4.3 1.6zM478.4 638.4v-3l21.5-31.8h-13.6l-2.2 8.9-5.3-.3.6-12.1h31.2v3l-21.2 31.8H504l2.3-9.7h5.3l-.8 13.2h-32.4zM546.4 639.4c-2.1 0-3.9-.5-5.2-1.6-1.3-1.1-2.2-2.5-2.7-4.4-2 2-3.8 3.6-5.4 4.6s-3.7 1.6-6.2 1.6c-3 0-5.5-.9-7.6-2.6-2.1-1.7-3.1-4.2-3.1-7.5 0-1.7.4-3.3 1.2-4.8.8-1.5 2.2-2.8 4.3-4.1 2.1-1.3 5-2.5 8.8-3.8 1.1-.4 2.3-.7 3.6-1.1 1.3-.4 2.7-.7 4.1-1.1v-2.2c0-3.7-.5-6.3-1.6-7.6-1-1.3-2.9-2-5.5-2-.5 0-1 0-1.6.1-.6.1-1.1.1-1.7.2l-1 4.4c-.2 1.9-.8 3.3-1.7 4.2-.9.9-2 1.4-3.4 1.4-2.6 0-4.1-1.2-4.5-3.6.5-3.2 2.2-5.8 5.2-7.7 3-1.9 6.9-2.9 11.7-2.9 4.6 0 8 1.1 10.2 3.3 2.1 2.2 3.2 5.9 3.2 11.2v17.4c0 2.4.8 3.6 2.3 3.6 1 0 1.9-.6 2.8-1.8l1.8 1.6c-1 1.8-2.1 3.1-3.4 3.9-1 .9-2.6 1.3-4.6 1.3zm-20.8-11.6c0 2.1.5 3.6 1.6 4.5 1.1.9 2.4 1.4 4 1.4.9 0 1.8-.2 2.7-.6.9-.4 2.3-1.3 4.2-2.6v-12.6c-1.1.4-2.2.7-3.2 1-1 .3-1.8.6-2.5.9-2.7 1.1-4.5 2.3-5.5 3.7-.8 1.3-1.3 2.7-1.3 4.3zM576.6 639.6c-3.6 0-6.9-.8-9.8-2.4s-5.1-3.9-6.8-6.9c-1.6-3-2.4-6.7-2.4-10.9 0-4.3.9-8 2.8-11s4.3-5.4 7.3-7 6.3-2.4 9.9-2.4c2.6 0 5 .5 7.1 1.5 2.1 1 3.8 2.3 5.1 4 1.3 1.7 2.1 3.5 2.4 5.6-.6 2.3-2.2 3.5-4.6 3.5-3 0-4.7-1.9-5.2-5.6l-1-4.8c-.5-.1-1-.2-1.4-.2-.5-.1-1-.1-1.4-.1-1.9 0-3.7.5-5.3 1.6-1.6 1.1-2.9 2.8-4 5.1-1 2.3-1.5 5.2-1.5 8.7 0 4.9 1.1 8.6 3.3 11.1 2.2 2.6 5.1 3.8 8.7 3.8 2.1 0 4.1-.5 5.8-1.4 1.7-1 3.1-2.3 4.3-3.9l2.4 1.8c-1.3 3.3-3.3 5.7-6 7.4-2.7 1.6-5.9 2.5-9.7 2.5zM597.4 638.4v-3.3l5.3-1c.1-2 .1-4.1.1-6.4v-9.8-5.5c0-1.5-.1-3-.2-4.6l-5.7-.7v-3l14.4-5 1.3.8-.2 11.3v16.6c0 2.3 0 4.5.1 6.5l4.9 1v3.3h-20zm10.1-46.8c-1.7 0-3.1-.5-4.3-1.6-1.2-1.1-1.8-2.4-1.8-4.1 0-1.7.6-3.1 1.8-4.2 1.2-1.1 2.6-1.6 4.3-1.6 1.7 0 3.1.5 4.3 1.6 1.1 1.1 1.7 2.5 1.7 4.2 0 1.7-.6 3-1.7 4.1-1.2 1-2.6 1.6-4.3 1.6zM641.6 639.6c-3.6 0-6.9-.8-9.8-2.4-2.9-1.6-5.2-3.9-6.9-7-1.7-3-2.6-6.7-2.6-10.9 0-4.3.9-7.9 2.7-11 1.8-3 4.1-5.4 7.1-7 2.9-1.6 6.1-2.4 9.5-2.4 3.4 0 6.6.8 9.5 2.4 2.9 1.6 5.3 3.9 7.1 6.9 1.8 3 2.7 6.7 2.7 11s-.9 7.9-2.6 10.9c-1.7 3-4.1 5.3-7 6.9-2.8 1.8-6 2.6-9.7 2.6zm0-4c2.9 0 5.1-1.3 6.6-4s2.3-6.7 2.3-12.2c0-11-3-16.5-8.9-16.5s-8.8 5.5-8.8 16.5c0 5.5.7 9.6 2.2 12.2 1.6 2.7 3.8 4 6.6 4zM666.7 638.4v-3.3l5.2-1c.1-2 .1-4.1.1-6.4v-10.2-5.2c0-1.3-.1-2.8-.2-4.4l-5.6-.7v-3l13.4-5 1.3.8.6 6.2c4.1-4.6 8.6-7 13.6-7 3.5 0 6.1 1.1 8 3.4 1.9 2.3 2.8 5.9 2.8 10.9V628c0 2.3 0 4.4.1 6.4l4.9 1v3.3H691v-3.3l5.1-1c.1-2 .1-4.1.1-6.4v-14c0-3.1-.4-5.3-1.3-6.5-.9-1.2-2.3-1.8-4.3-1.8-2.8 0-5.8 1.3-9 3.9v18.1c0 2.3 0 4.5.1 6.5l4.7 1v3.3h-19.7zM734.7 639.6c-3.7 0-7-.8-9.8-2.4-2.8-1.6-5-3.9-6.6-6.9-1.6-3-2.4-6.6-2.4-10.8 0-4.3.9-7.9 2.8-11 1.8-3.1 4.2-5.4 7.2-7 3-1.6 6.1-2.4 9.5-2.4 3.1 0 5.9.7 8.2 2 2.3 1.3 4.2 3.2 5.5 5.6 1.3 2.4 2 5.2 2 8.5 0 1.7-.2 3.2-.5 4.4H726c.2 4.6 1.4 8 3.6 10.3s5 3.4 8.4 3.4c2.3 0 4.3-.5 6-1.4 1.6-.9 3.1-2.1 4.4-3.6l2.3 2.1a16.8 16.8 0 01-6.4 6.8c-2.7 1.5-5.9 2.4-9.6 2.4zm0-36.8c-1.3 0-2.5.4-3.8 1.2-1.3.8-2.3 2.2-3.2 4-.9 1.9-1.4 4.4-1.6 7.6h11c1.9 0 3.2-.4 3.8-1.2.6-.8 1-1.9 1-3.4 0-2.5-.7-4.5-2.1-6-1.5-1.4-3.2-2.2-5.1-2.2zM770.2 639.6c-2.5 0-4.7-.3-6.8-.8-2.1-.6-4.1-1.4-6.1-2.5l-.1-9.3h5.4l1.4 7.4c1.9.8 4 1.2 6.2 1.2 2.7 0 4.7-.5 6.1-1.4 1.3-1 2-2.3 2-4 0-1.5-.5-2.7-1.6-3.6-1.1-.9-2.9-1.8-5.4-2.7l-4-1.4c-3-1-5.3-2.4-7.1-4.2-1.7-1.9-2.6-4.2-2.6-7 0-2.2.6-4.3 1.8-6.1 1.2-1.8 2.9-3.3 5.2-4.4 2.3-1.1 5-1.6 8.3-1.6 2.3 0 4.4.3 6.3.8 1.9.6 3.8 1.4 5.6 2.4l-.4 8.4h-5.3l-1.4-6.7c-1.5-.6-3.1-1-5-1-2.1 0-3.8.5-5 1.4-1.2.9-1.8 2.1-1.8 3.7 0 1.4.5 2.6 1.5 3.5 1 .9 2.8 1.8 5.6 2.7l3.2 1c3.9 1.3 6.7 3 8.3 5 1.7 2 2.5 4.3 2.5 7.1 0 3.6-1.5 6.5-4.4 8.8-2.9 2.1-7 3.3-12.4 3.3zM833.8 603.3v-3.2h15.4v3.2l-4.5.9-13.7 35.7c-2.3 6.1-4.6 10.7-7 13.6-2.3 2.9-5.3 4.4-8.7 4.4-2.1 0-3.9-.5-5.4-1.6-1.5-1.1-2.3-2.4-2.4-4 .3-1.4 1.1-2.5 2.2-3.2 1.1-.7 2.4-1.1 3.8-1.1 1.1 0 2.1.2 3.2.7 1 .5 2.1 1.3 3.2 2.7l.5.6c1.4-1.4 2.7-3 3.8-4.8 1.1-1.8 1.9-3.7 2.6-5.7l.2-.5-15.2-37-4.1-.6v-3.2h21v3.2l-6.3.9 9 24.5 8.7-24.4-6.3-1.1z"/></g><g class="st3"><path class="st4" d="M243.9 723.4v-3.3l5.4-1c.1-2.1.1-4.2.1-6.2v-40.5l-5.8-.8v-3.1l14.6-3.6 1.2.7-.3 11.3v36c0 2.1.1 4.2.1 6.2l5.4 1v3.3h-20.7zM269.2 723.4v-3.3l5.3-1c.1-2 .1-4.1.1-6.4v-9.8-5.5c0-1.5-.1-3-.2-4.6l-5.7-.7v-3l14.5-5 1.3.8-.2 11.3v16.7c0 2.3 0 4.5.1 6.5l4.8 1v3.3h-20zm6.2-46.4c.9-1.5 1.9-3.2 2.9-4.8 1-1.7 2.3-3.7 3.8-6 .9-1.5 1.8-2.6 2.6-3.2.8-.6 1.7-.9 2.7-.9.9 0 1.7.3 2.5 1 .8.6 1.2 1.6 1.2 2.8 0 1.5-1.3 3.4-3.8 5.4-2 1.7-3.7 3.1-5.1 4.3-1.4 1.2-2.8 2.4-4.2 3.5l-2.6-2.1zM322.1 724.3l-.6-5c-1.5 1.7-3.1 3-5 3.9-1.8.9-3.9 1.4-6.2 1.4-3.1 0-5.9-.8-8.4-2.4-2.4-1.6-4.3-3.9-5.7-6.9-1.4-3-2.1-6.5-2.1-10.6 0-4.2.8-7.9 2.4-11 1.6-3.1 3.7-5.5 6.3-7.2 2.6-1.7 5.5-2.5 8.7-2.5 2 0 3.9.4 5.5 1.1 1.6.7 3.2 2 4.6 3.7v-16.5l-6.2-.8v-3.1l14.6-3.6 1.2.7-.3 11.3v42.5l5.2.9v3.3l-14 .8zm-17.7-19.8c0 4.9.9 8.5 2.8 10.8 1.8 2.4 4.2 3.6 7 3.6 1.4 0 2.7-.3 3.8-.8 1.1-.6 2.2-1.4 3.2-2.4v-23c-2.3-2-4.7-3-7-3-2.7 0-5 1.2-6.9 3.6-2 2.3-2.9 6.1-2.9 11.2zM359.4 724.6c-3.7 0-7-.8-9.8-2.4-2.8-1.6-5-3.9-6.6-6.9-1.6-3-2.4-6.6-2.4-10.8 0-4.3.9-7.9 2.8-11 1.8-3.1 4.2-5.4 7.2-7 3-1.6 6.1-2.4 9.5-2.4 3.1 0 5.9.7 8.2 2 2.3 1.3 4.2 3.2 5.5 5.6 1.3 2.4 2 5.2 2 8.5 0 1.7-.2 3.2-.5 4.4h-24.5c.2 4.6 1.4 8 3.6 10.3 2.2 2.3 5 3.4 8.4 3.4 2.3 0 4.3-.5 6-1.4 1.6-.9 3.1-2.1 4.4-3.6l2.3 2.1a16.8 16.8 0 01-6.4 6.8c-2.8 1.5-6 2.4-9.7 2.4zm0-36.8c-1.3 0-2.5.4-3.8 1.2-1.3.8-2.3 2.2-3.2 4-.9 1.9-1.4 4.4-1.6 7.6h11c1.9 0 3.2-.4 3.8-1.2s1-1.9 1-3.4c0-2.5-.7-4.5-2.1-6-1.5-1.4-3.1-2.2-5.1-2.2zM381.6 723.4v-3.3l5.1-1c.1-2 .1-4.2.1-6.5v-10.2-5.2c0-1.3-.1-2.8-.2-4.4l-5.6-.7v-3l13.4-5 1.3.8.8 9.4c1.2-3.3 2.9-5.8 5-7.6s4.2-2.6 6.2-2.6c1.4 0 2.8.4 4 1.1 1.2.7 2 1.8 2.4 3.2-.1 2-.5 3.5-1.4 4.6-.9 1.1-2.2 1.6-3.8 1.6-1.9 0-3.7-1-5.4-2.9l-.7-.8c-2.8 2.3-4.9 5.7-6.1 9.9v11.7c0 2.3 0 4.4.1 6.4l6.6 1.3v3.3h-21.8zM434.9 724.6c-3.7 0-7-.8-9.8-2.4-2.8-1.6-5-3.9-6.6-6.9-1.6-3-2.4-6.6-2.4-10.8 0-4.3.9-7.9 2.8-11 1.8-3.1 4.2-5.4 7.2-7 3-1.6 6.1-2.4 9.5-2.4 3.1 0 5.9.7 8.2 2 2.3 1.3 4.2 3.2 5.5 5.6 1.3 2.4 2 5.2 2 8.5 0 1.7-.2 3.2-.5 4.4h-24.5c.2 4.6 1.4 8 3.6 10.3 2.2 2.3 5 3.4 8.4 3.4 2.3 0 4.3-.5 6-1.4 1.6-.9 3.1-2.1 4.4-3.6l2.3 2.1a16.8 16.8 0 01-6.4 6.8c-2.7 1.5-6 2.4-9.7 2.4zm0-36.8c-1.3 0-2.5.4-3.8 1.2-1.3.8-2.3 2.2-3.2 4-.9 1.9-1.4 4.4-1.6 7.6h11c1.9 0 3.2-.4 3.8-1.2s1-1.9 1-3.4c0-2.5-.7-4.5-2.1-6-1.4-1.4-3.1-2.2-5.1-2.2zM470.4 724.6c-2.5 0-4.7-.3-6.8-.8-2.1-.6-4.1-1.4-6.1-2.5l-.1-9.3h5.4l1.4 7.4c1.9.8 4 1.2 6.2 1.2 2.7 0 4.7-.5 6.1-1.4 1.3-1 2-2.3 2-4 0-1.5-.5-2.7-1.6-3.6-1.1-.9-2.9-1.8-5.4-2.7l-4-1.4c-3-1-5.3-2.4-7.1-4.2-1.7-1.9-2.6-4.2-2.6-7 0-2.2.6-4.3 1.8-6.1 1.2-1.8 2.9-3.3 5.2-4.4 2.3-1.1 5-1.6 8.3-1.6 2.3 0 4.4.3 6.3.8 1.9.6 3.8 1.4 5.6 2.4l-.4 8.4h-5.3l-1.4-6.7c-1.5-.6-3.1-1-5-1-2.1 0-3.8.5-5 1.4-1.2.9-1.8 2.1-1.8 3.7 0 1.4.5 2.6 1.5 3.5 1 .9 2.8 1.8 5.6 2.7l3.2 1c3.9 1.3 6.7 3 8.3 5 1.7 2 2.5 4.3 2.5 7.1 0 3.6-1.5 6.5-4.4 8.8-2.8 2.1-7 3.3-12.4 3.3zM538.7 724.3l-.6-5c-1.5 1.7-3.1 3-5 3.9-1.8.9-3.9 1.4-6.2 1.4-3.1 0-5.9-.8-8.4-2.4-2.4-1.6-4.3-3.9-5.7-6.9-1.4-3-2.1-6.5-2.1-10.6 0-4.2.8-7.9 2.4-11 1.6-3.1 3.7-5.5 6.3-7.2 2.6-1.7 5.5-2.5 8.7-2.5 2 0 3.9.4 5.5 1.1 1.6.7 3.2 2 4.6 3.7v-16.5l-6.2-.8v-3.1l14.6-3.6 1.2.7-.3 11.3v42.5l5.2.9v3.3l-14 .8zm-17.8-19.8c0 4.9.9 8.5 2.8 10.8 1.8 2.4 4.2 3.6 7 3.6 1.4 0 2.7-.3 3.8-.8 1.1-.6 2.2-1.4 3.2-2.4v-23c-2.3-2-4.7-3-7-3-2.7 0-5 1.2-6.9 3.6-1.9 2.3-2.9 6.1-2.9 11.2zM576 724.6c-3.7 0-7-.8-9.8-2.4-2.8-1.6-5-3.9-6.6-6.9-1.6-3-2.4-6.6-2.4-10.8 0-4.3.9-7.9 2.8-11 1.8-3.1 4.2-5.4 7.2-7 3-1.6 6.1-2.4 9.5-2.4 3.1 0 5.9.7 8.2 2 2.3 1.3 4.2 3.2 5.5 5.6 1.3 2.4 2 5.2 2 8.5 0 1.7-.2 3.2-.5 4.4h-24.5c.2 4.6 1.4 8 3.6 10.3 2.2 2.3 5 3.4 8.4 3.4 2.3 0 4.3-.5 6-1.4 1.6-.9 3.1-2.1 4.4-3.6l2.3 2.1a16.8 16.8 0 01-6.4 6.8c-2.8 1.5-6 2.4-9.7 2.4zm0-36.8c-1.3 0-2.5.4-3.8 1.2-1.3.8-2.3 2.2-3.2 4-.9 1.9-1.4 4.4-1.6 7.6h11c1.9 0 3.2-.4 3.8-1.2s1-1.9 1-3.4c0-2.5-.7-4.5-2.1-6-1.5-1.4-3.2-2.2-5.1-2.2zM615.3 723.4v-3.3l5.4-1c.1-2.1.1-4.2.1-6.2v-40.5l-5.8-.8v-3.1l14.6-3.6 1.2.7-.3 11.3v36c0 2.1.1 4.2.1 6.2l5.4 1v3.3h-20.7zM670.4 724.4c-2.1 0-3.9-.5-5.2-1.6-1.3-1.1-2.2-2.5-2.7-4.4-2 2-3.8 3.6-5.4 4.6-1.6 1-3.7 1.6-6.2 1.6-3 0-5.5-.9-7.6-2.6-2.1-1.7-3.1-4.2-3.1-7.5 0-1.7.4-3.3 1.2-4.8s2.2-2.8 4.3-4.1c2.1-1.3 5-2.5 8.8-3.8 1.1-.4 2.3-.7 3.6-1.1s2.7-.7 4.1-1.1v-2.2c0-3.7-.5-6.3-1.6-7.6-1-1.3-2.9-2-5.5-2-.5 0-1 0-1.6.1-.6.1-1.1.1-1.7.2l-1 4.4c-.2 1.9-.8 3.3-1.7 4.2-.9.9-2 1.4-3.4 1.4-2.6 0-4.1-1.2-4.5-3.6.5-3.2 2.2-5.8 5.2-7.7 3-1.9 6.9-2.9 11.7-2.9 4.6 0 8 1.1 10.2 3.3 2.1 2.2 3.2 5.9 3.2 11.2v17.4c0 2.4.8 3.6 2.3 3.6 1 0 1.9-.6 2.8-1.8l1.8 1.6c-1 1.8-2.1 3.1-3.4 3.9-1 .9-2.6 1.3-4.6 1.3zm-20.8-11.6c0 2.1.5 3.6 1.6 4.5 1.1.9 2.4 1.4 4 1.4.9 0 1.8-.2 2.7-.6.9-.4 2.3-1.3 4.2-2.6v-12.6c-1.1.4-2.2.7-3.2 1-1 .3-1.8.6-2.5.9-2.7 1.1-4.5 2.3-5.5 3.7-.8 1.3-1.3 2.7-1.3 4.3z"/></g><g class="st3"><path class="st4" d="M258 809.6c-2.5 0-4.7-.3-6.8-.8-2.1-.6-4.1-1.4-6.1-2.5l-.1-9.3h5.4l1.4 7.4c1.9.8 4 1.2 6.2 1.2 2.7 0 4.7-.5 6.1-1.4 1.3-1 2-2.3 2-4 0-1.5-.5-2.7-1.6-3.6-1.1-.9-2.9-1.8-5.4-2.7l-4-1.4c-3-1-5.3-2.4-7.1-4.2-1.7-1.9-2.6-4.2-2.6-7 0-2.2.6-4.3 1.8-6.1 1.2-1.8 2.9-3.3 5.2-4.4 2.3-1.1 5-1.6 8.3-1.6 2.3 0 4.4.3 6.3.8 1.9.6 3.8 1.4 5.6 2.4l-.4 8.4h-5.3l-1.4-6.7c-1.5-.6-3.1-1-5-1-2.1 0-3.8.5-5 1.4-1.2.9-1.8 2.1-1.8 3.7 0 1.4.5 2.6 1.5 3.5 1 .9 2.8 1.8 5.6 2.7l3.2 1c3.9 1.3 6.7 3 8.3 5 1.7 2 2.5 4.3 2.5 7.1 0 3.6-1.5 6.5-4.4 8.8-2.9 2.1-7.1 3.3-12.4 3.3zM299.6 809.6c-3.6 0-6.9-.8-9.8-2.4-2.9-1.6-5.2-3.9-6.9-7-1.7-3-2.6-6.7-2.6-10.9 0-4.3.9-7.9 2.7-11 1.8-3 4.1-5.4 7.1-7 2.9-1.6 6.1-2.4 9.5-2.4 3.4 0 6.6.8 9.5 2.4 2.9 1.6 5.3 3.9 7.1 6.9 1.8 3 2.7 6.7 2.7 11s-.9 7.9-2.6 10.9c-1.7 3-4.1 5.3-7 6.9-2.9 1.8-6.1 2.6-9.7 2.6zm0-4c2.9 0 5.1-1.3 6.6-4s2.3-6.7 2.3-12.2c0-11-3-16.5-8.9-16.5s-8.8 5.5-8.8 16.5c0 5.5.7 9.6 2.2 12.2 1.5 2.7 3.7 4 6.6 4zM344 809.6c-3.6 0-6.9-.8-9.8-2.4s-5.1-3.9-6.8-6.9c-1.6-3-2.4-6.7-2.4-10.9 0-4.3.9-8 2.8-11s4.3-5.4 7.3-7 6.3-2.4 9.9-2.4c2.6 0 5 .5 7.1 1.5 2.1 1 3.8 2.3 5.1 4 1.3 1.7 2.1 3.5 2.4 5.6-.6 2.3-2.2 3.5-4.6 3.5-3 0-4.7-1.9-5.2-5.6l-1-4.8c-.5-.1-1-.2-1.4-.2-.5-.1-1-.1-1.4-.1-1.9 0-3.7.5-5.3 1.6-1.6 1.1-2.9 2.8-4 5.1-1 2.3-1.5 5.2-1.5 8.7 0 4.9 1.1 8.6 3.3 11.1 2.2 2.6 5.1 3.8 8.7 3.8 2.1 0 4.1-.5 5.8-1.4 1.7-1 3.1-2.3 4.3-3.9l2.4 1.8c-1.3 3.3-3.3 5.7-6 7.4-2.7 1.6-6 2.5-9.7 2.5zM364.8 808.4v-3.3l5.3-1c.1-2 .1-4.1.1-6.4v-9.8-5.5c0-1.5-.1-3-.2-4.6l-5.7-.7v-3l14.4-5 1.3.8-.2 11.3v16.6c0 2.3 0 4.5.1 6.5l4.9 1v3.3h-20zm10-46.8c-1.7 0-3.1-.5-4.3-1.6-1.2-1.1-1.8-2.4-1.8-4.1 0-1.7.6-3.1 1.8-4.2 1.2-1.1 2.6-1.6 4.3-1.6 1.7 0 3.1.5 4.3 1.6 1.1 1.1 1.7 2.5 1.7 4.2 0 1.7-.6 3-1.7 4.1-1.1 1-2.6 1.6-4.3 1.6zM408.6 809.6c-3.7 0-7-.8-9.8-2.4-2.8-1.6-5-3.9-6.6-6.9-1.6-3-2.4-6.6-2.4-10.8 0-4.3.9-7.9 2.8-11 1.8-3.1 4.2-5.4 7.2-7 3-1.6 6.1-2.4 9.5-2.4 3.1 0 5.9.7 8.2 2 2.3 1.3 4.2 3.2 5.5 5.6 1.3 2.4 2 5.2 2 8.5 0 1.7-.2 3.2-.5 4.4H400c.2 4.6 1.4 8 3.6 10.3 2.2 2.3 5 3.4 8.4 3.4 2.3 0 4.3-.5 6-1.4 1.6-.9 3.1-2.1 4.4-3.6l2.3 2.1a16.8 16.8 0 01-6.4 6.8c-2.8 1.5-6 2.4-9.7 2.4zm0-36.8c-1.3 0-2.5.4-3.8 1.2-1.3.8-2.3 2.2-3.2 4-.9 1.9-1.4 4.4-1.6 7.6h11c1.9 0 3.2-.4 3.8-1.2s1-1.9 1-3.4c0-2.5-.7-4.5-2.1-6-1.5-1.4-3.1-2.2-5.1-2.2zM458.9 809.3l-.6-5c-1.5 1.7-3.1 3-5 3.9-1.8.9-3.9 1.4-6.2 1.4-3.1 0-5.9-.8-8.4-2.4-2.4-1.6-4.3-3.9-5.7-6.9-1.4-3-2.1-6.5-2.1-10.6 0-4.2.8-7.9 2.4-11 1.6-3.1 3.7-5.5 6.3-7.2 2.6-1.7 5.5-2.5 8.7-2.5 2 0 3.9.4 5.5 1.1 1.6.7 3.2 2 4.6 3.7v-16.5l-6.2-.8v-3.1l14.6-3.6 1.2.7-.3 11.3v42.5l5.2.9v3.3l-14 .8zm-17.7-19.8c0 4.9.9 8.5 2.8 10.8 1.8 2.4 4.2 3.6 7 3.6 1.4 0 2.7-.3 3.8-.8 1.1-.6 2.2-1.4 3.2-2.4v-23c-2.3-2-4.7-3-7-3-2.7 0-5 1.2-6.9 3.6-2 2.3-2.9 6.1-2.9 11.2zM506.8 809.4c-2.1 0-3.9-.5-5.2-1.6-1.3-1.1-2.2-2.5-2.7-4.4-2 2-3.8 3.6-5.4 4.6s-3.7 1.6-6.2 1.6c-3 0-5.5-.9-7.6-2.6-2.1-1.7-3.1-4.2-3.1-7.5 0-1.7.4-3.3 1.2-4.8.8-1.5 2.2-2.8 4.3-4.1 2.1-1.3 5-2.5 8.8-3.8 1.1-.4 2.3-.7 3.6-1.1 1.3-.4 2.7-.7 4.1-1.1v-2.2c0-3.7-.5-6.3-1.6-7.6-1-1.3-2.9-2-5.5-2-.5 0-1 0-1.6.1-.6.1-1.1.1-1.7.2l-1 4.4c-.2 1.9-.8 3.3-1.7 4.2-.9.9-2 1.4-3.4 1.4-2.6 0-4.1-1.2-4.5-3.6.5-3.2 2.2-5.8 5.2-7.7 3-1.9 6.9-2.9 11.7-2.9 4.6 0 8 1.1 10.2 3.3 2.1 2.2 3.2 5.9 3.2 11.2v17.4c0 2.4.8 3.6 2.3 3.6 1 0 1.9-.6 2.8-1.8l1.8 1.6c-1 1.8-2.1 3.1-3.4 3.9-1.1.9-2.7 1.3-4.6 1.3zM486 797.8c0 2.1.5 3.6 1.6 4.5 1.1.9 2.4 1.4 4 1.4.9 0 1.8-.2 2.7-.6.9-.4 2.3-1.3 4.2-2.6v-12.6c-1.1.4-2.2.7-3.2 1-1 .3-1.8.6-2.5.9-2.7 1.1-4.5 2.3-5.5 3.7-.9 1.3-1.3 2.7-1.3 4.3zM546.1 809.3l-.6-5c-1.5 1.7-3.1 3-5 3.9-1.8.9-3.9 1.4-6.2 1.4-3.1 0-5.9-.8-8.4-2.4-2.4-1.6-4.3-3.9-5.7-6.9-1.4-3-2.1-6.5-2.1-10.6 0-4.2.8-7.9 2.4-11 1.6-3.1 3.7-5.5 6.3-7.2 2.6-1.7 5.5-2.5 8.7-2.5 2 0 3.9.4 5.5 1.1 1.6.7 3.2 2 4.6 3.7v-16.5l-6.2-.8v-3.1l14.6-3.6 1.2.7-.3 11.3v42.5l5.2.9v3.3l-14 .8zm-17.7-19.8c0 4.9.9 8.5 2.8 10.8 1.8 2.4 4.2 3.6 7 3.6 1.4 0 2.7-.3 3.8-.8 1.1-.6 2.2-1.4 3.2-2.4v-23c-2.3-2-4.7-3-7-3-2.7 0-5 1.2-6.9 3.6-2 2.3-2.9 6.1-2.9 11.2zM601.2 809.6c-3.6 0-6.9-.8-9.8-2.4s-5.1-3.9-6.8-6.9c-1.6-3-2.4-6.7-2.4-10.9 0-4.3.9-8 2.8-11s4.3-5.4 7.3-7 6.3-2.4 9.9-2.4c2.6 0 5 .5 7.1 1.5 2.1 1 3.8 2.3 5.1 4 1.3 1.7 2.1 3.5 2.4 5.6-.6 2.3-2.2 3.5-4.6 3.5-3 0-4.7-1.9-5.2-5.6l-1-4.8c-.5-.1-1-.2-1.4-.2-.5-.1-1-.1-1.4-.1-1.9 0-3.7.5-5.3 1.6-1.6 1.1-2.9 2.8-4 5.1-1 2.3-1.5 5.2-1.5 8.7 0 4.9 1.1 8.6 3.3 11.1 2.2 2.6 5.1 3.8 8.7 3.8 2.1 0 4.1-.5 5.8-1.4 1.7-1 3.1-2.3 4.3-3.9l2.4 1.8c-1.3 3.3-3.3 5.7-6 7.4-2.7 1.6-5.9 2.5-9.7 2.5zM622 808.4v-3.3l5.3-1c.1-2 .1-4.1.1-6.4v-9.8-5.5c0-1.5-.1-3-.2-4.6l-5.7-.7v-3l14.4-5 1.3.8-.2 11.3v16.6c0 2.3 0 4.5.1 6.5l4.9 1v3.3h-20zm10.1-46.8c-1.7 0-3.1-.5-4.3-1.6-1.2-1.1-1.8-2.4-1.8-4.1 0-1.7.6-3.1 1.8-4.2 1.2-1.1 2.6-1.6 4.3-1.6 1.7 0 3.1.5 4.3 1.6 1.1 1.1 1.7 2.5 1.7 4.2 0 1.7-.6 3-1.7 4.1-1.2 1-2.6 1.6-4.3 1.6zM668.6 773.5v-3.4h15.2v3.4l-4.5 1-13.1 34.3h-4.7L647 774.2l-4.2-.7v-3.4h21v3.4l-6.2 1 8.8 23.2 7.9-23.1-5.7-1.1zM687 808.4v-3.3l5.3-1c.1-2 .1-4.1.1-6.4v-9.8-5.5c0-1.5-.1-3-.2-4.6l-5.7-.7v-3l14.4-5 1.3.8-.2 11.3v16.6c0 2.3 0 4.5.1 6.5l4.9 1v3.3h-20zm10.1-46.8c-1.7 0-3.1-.5-4.3-1.6-1.2-1.1-1.8-2.4-1.8-4.1 0-1.7.6-3.1 1.8-4.2 1.2-1.1 2.6-1.6 4.3-1.6 1.7 0 3.1.5 4.3 1.6 1.1 1.1 1.7 2.5 1.7 4.2 0 1.7-.6 3-1.7 4.1-1.2 1-2.6 1.6-4.3 1.6zM711.1 808.4v-3.3l5.4-1c.1-2.1.1-4.2.1-6.2v-40.5l-5.8-.8v-3.1l14.6-3.6 1.2.7-.3 11.3v36c0 2.1.1 4.2.1 6.2l5.4 1v3.3h-20.7zM773.6 809.6c-3.7 0-7-.8-9.8-2.4-2.8-1.6-5-3.9-6.6-6.9-1.6-3-2.4-6.6-2.4-10.8 0-4.3.9-7.9 2.8-11 1.8-3.1 4.2-5.4 7.2-7 3-1.6 6.1-2.4 9.5-2.4 3.1 0 5.9.7 8.2 2 2.3 1.3 4.2 3.2 5.5 5.6 1.3 2.4 2 5.2 2 8.5 0 1.7-.2 3.2-.5 4.4H765c.2 4.6 1.4 8 3.6 10.3s5 3.4 8.4 3.4c2.3 0 4.3-.5 6-1.4 1.6-.9 3.1-2.1 4.4-3.6l2.3 2.1a16.8 16.8 0 01-6.4 6.8c-2.8 1.5-6 2.4-9.7 2.4zm0-36.8c-1.3 0-2.5.4-3.8 1.2-1.3.8-2.3 2.2-3.2 4-.9 1.9-1.4 4.4-1.6 7.6h11c1.9 0 3.2-.4 3.8-1.2.6-.8 1-1.9 1-3.4 0-2.5-.7-4.5-2.1-6-1.5-1.4-3.2-2.2-5.1-2.2zM795.6 808.4v-3.3l5.2-1c.1-2 .1-4.1.1-6.4v-10.2-5.2c0-1.3-.1-2.8-.2-4.4l-5.6-.7v-3l13.4-5 1.3.8.6 6.2c4.1-4.6 8.6-7 13.6-7 3.5 0 6.1 1.1 8 3.4 1.9 2.3 2.8 5.9 2.8 10.9V798c0 2.3 0 4.4.1 6.4l4.9 1v3.3H820v-3.3l5.1-1c.1-2 .1-4.1.1-6.4v-14c0-3.1-.4-5.3-1.3-6.5-.9-1.2-2.3-1.8-4.3-1.8-2.8 0-5.8 1.3-9 3.9v18.1c0 2.3 0 4.5.1 6.5l4.7 1v3.3h-19.8z"/></g><g class="st3"><path class="st4" d="M242.4 893.4v-3.8l6.6-1 16.7-48.6h6.6l16.7 49 5.4.6v3.7h-23.1v-3.7l7-.9-3.8-11.8H257l-3.8 11.6 7 1v3.8h-17.8zm23.4-42.7l-7.4 22.2H273l-7.2-22.2zM298 893.4v-3.3l5.2-1c.1-2 .1-4.1.1-6.4v-10.2-5.2c0-1.3-.1-2.8-.2-4.4l-5.6-.7v-3l13.4-5 1.3.8.6 6.2c1.9-2.2 4-3.9 6.3-5.2 2.3-1.3 4.6-1.9 7.1-1.9 5.2 0 8.5 2.4 10 7.3 2.1-2.6 4.3-4.4 6.6-5.6 2.3-1.1 4.7-1.7 7.1-1.7 3.6 0 6.3 1.1 8.2 3.4 1.8 2.2 2.7 5.8 2.7 10.7v14.7c0 2.3 0 4.4.1 6.4l4.9 1v3.3h-19.5v-3.3l5-1c.1-2 .1-4.1.1-6.4v-13.5c0-3.4-.4-5.6-1.3-6.8-.9-1.2-2.3-1.8-4.4-1.8-2.8 0-5.8 1.4-8.8 4.1.1.5.1 1.1.1 1.7V882.8c0 2.3 0 4.4.1 6.4l4.8 1v3.3h-19.6v-3.3l5.1-1c.1-2 .1-4.1.1-6.4v-13.3c0-3.3-.4-5.5-1.2-6.8-.8-1.3-2.3-1.9-4.4-1.9-1.5 0-3 .4-4.4 1.1-1.5.7-2.9 1.7-4.3 2.9v18c0 2.3 0 4.5.1 6.5l4.7 1v3.3h-20zM389.5 894.6c-3.7 0-7-.8-9.8-2.4-2.8-1.6-5-3.9-6.6-6.9-1.6-3-2.4-6.6-2.4-10.8 0-4.3.9-7.9 2.8-11 1.8-3.1 4.2-5.4 7.2-7 3-1.6 6.1-2.4 9.5-2.4 3.1 0 5.9.7 8.2 2 2.3 1.3 4.2 3.2 5.5 5.6 1.3 2.4 2 5.2 2 8.5 0 1.7-.2 3.2-.5 4.4h-24.5c.2 4.6 1.4 8 3.6 10.3 2.2 2.3 5 3.4 8.4 3.4 2.3 0 4.3-.5 6-1.4 1.6-.9 3.1-2.1 4.4-3.6l2.3 2.1a16.8 16.8 0 01-6.4 6.8c-2.8 1.5-6 2.4-9.7 2.4zm0-36.8c-1.3 0-2.5.4-3.8 1.2-1.3.8-2.3 2.2-3.2 4-.9 1.9-1.4 4.4-1.6 7.6h11c1.9 0 3.2-.4 3.8-1.2s1-1.9 1-3.4c0-2.5-.7-4.5-2.1-6-1.5-1.4-3.1-2.2-5.1-2.2zM411.6 893.4v-3.3l5.1-1c.1-2 .1-4.2.1-6.5v-10.2-5.2c0-1.3-.1-2.8-.2-4.4l-5.6-.7v-3l13.4-5 1.3.8.8 9.4c1.2-3.3 2.9-5.8 5-7.6s4.2-2.6 6.2-2.6c1.4 0 2.8.4 4 1.1 1.2.7 2 1.8 2.4 3.2-.1 2-.5 3.5-1.4 4.6-.9 1.1-2.2 1.6-3.8 1.6-1.9 0-3.7-1-5.4-2.9l-.7-.8c-2.8 2.3-4.9 5.7-6.1 9.9v11.7c0 2.3 0 4.4.1 6.4l6.6 1.3v3.3h-21.8zM446.8 893.4v-3.3l5.3-1c.1-2 .1-4.1.1-6.4v-9.8-5.5c0-1.5-.1-3-.2-4.6l-5.7-.7v-3l14.4-5 1.3.8-.2 11.3v16.6c0 2.3 0 4.5.1 6.5l4.9 1v3.3h-20zm10.1-46.8c-1.7 0-3.1-.5-4.3-1.6-1.2-1.1-1.8-2.4-1.8-4.1 0-1.7.6-3.1 1.8-4.2 1.2-1.1 2.6-1.6 4.3-1.6 1.7 0 3.1.5 4.3 1.6 1.1 1.1 1.7 2.5 1.7 4.2 0 1.7-.6 3-1.7 4.1-1.2 1-2.6 1.6-4.3 1.6zM490.6 894.6c-3.6 0-6.9-.8-9.8-2.4s-5.1-3.9-6.8-6.9c-1.6-3-2.4-6.7-2.4-10.9 0-4.3.9-8 2.8-11s4.3-5.4 7.3-7 6.3-2.4 9.9-2.4c2.6 0 5 .5 7.1 1.5 2.1 1 3.8 2.3 5.1 4 1.3 1.7 2.1 3.5 2.4 5.6-.6 2.3-2.2 3.5-4.6 3.5-3 0-4.7-1.9-5.2-5.6l-1-4.8c-.5-.1-1-.2-1.4-.2-.5-.1-1-.1-1.4-.1-1.9 0-3.7.5-5.3 1.6-1.6 1.1-2.9 2.8-4 5.1-1 2.3-1.5 5.2-1.5 8.7 0 4.9 1.1 8.6 3.3 11.1 2.2 2.6 5.1 3.8 8.7 3.8 2.1 0 4.1-.5 5.8-1.4 1.7-1 3.1-2.3 4.3-3.9l2.4 1.8c-1.3 3.3-3.3 5.7-6 7.4-2.7 1.6-5.9 2.5-9.7 2.5zM541.7 894.4c-2.1 0-3.9-.5-5.2-1.6-1.3-1.1-2.2-2.5-2.7-4.4-2 2-3.8 3.6-5.4 4.6s-3.7 1.6-6.2 1.6c-3 0-5.5-.9-7.6-2.6-2.1-1.7-3.1-4.2-3.1-7.5 0-1.7.4-3.3 1.2-4.8.8-1.5 2.2-2.8 4.3-4.1 2.1-1.3 5-2.5 8.8-3.8 1.1-.4 2.3-.7 3.6-1.1 1.3-.4 2.7-.7 4.1-1.1v-2.2c0-3.7-.5-6.3-1.6-7.6-1-1.3-2.9-2-5.5-2-.5 0-1 0-1.6.1-.6.1-1.1.1-1.7.2l-1 4.4c-.2 1.9-.8 3.3-1.7 4.2-.9.9-2 1.4-3.4 1.4-2.6 0-4.1-1.2-4.5-3.6.5-3.2 2.2-5.8 5.2-7.7 3-1.9 6.9-2.9 11.7-2.9 4.6 0 8 1.1 10.2 3.3 2.1 2.2 3.2 5.9 3.2 11.2v17.4c0 2.4.8 3.6 2.3 3.6 1 0 1.9-.6 2.8-1.8l1.8 1.6c-1 1.8-2.1 3.1-3.4 3.9-1.1.9-2.7 1.3-4.6 1.3zm-20.8-11.6c0 2.1.5 3.6 1.6 4.5 1.1.9 2.4 1.4 4 1.4.9 0 1.8-.2 2.7-.6.9-.4 2.3-1.3 4.2-2.6v-12.6c-1.1.4-2.2.7-3.2 1-1 .3-1.8.6-2.5.9-2.7 1.1-4.5 2.3-5.5 3.7-.8 1.3-1.3 2.7-1.3 4.3zM571.2 844.2v-3.8h24.4v3.8l-7 .8c-.1 3.3-.1 6.7-.1 10v24.2c0 3.3.1 6.6.1 9.9h16.2l2.2-11h5.6l-.8 15.4h-40.6v-3.8l6.7-.7c.1-3.4.2-6.7.2-10v-13.8-10.3c0-3.4-.1-6.7-.2-10l-6.7-.7zM648.4 894.4c-2.1 0-3.9-.5-5.2-1.6-1.3-1.1-2.2-2.5-2.7-4.4-2 2-3.8 3.6-5.4 4.6-1.6 1-3.7 1.6-6.2 1.6-3 0-5.5-.9-7.6-2.6-2.1-1.7-3.1-4.2-3.1-7.5 0-1.7.4-3.3 1.2-4.8s2.2-2.8 4.3-4.1c2.1-1.3 5-2.5 8.8-3.8 1.1-.4 2.3-.7 3.6-1.1s2.7-.7 4.1-1.1v-2.2c0-3.7-.5-6.3-1.6-7.6-1-1.3-2.9-2-5.5-2-.5 0-1 0-1.6.1-.6.1-1.1.1-1.7.2l-1 4.4c-.2 1.9-.8 3.3-1.7 4.2-.9.9-2 1.4-3.4 1.4-2.6 0-4.1-1.2-4.5-3.6.5-3.2 2.2-5.8 5.2-7.7 3-1.9 6.9-2.9 11.7-2.9 4.6 0 8 1.1 10.2 3.3 2.1 2.2 3.2 5.9 3.2 11.2v17.4c0 2.4.8 3.6 2.3 3.6 1 0 1.9-.6 2.8-1.8l1.8 1.6c-1 1.8-2.1 3.1-3.4 3.9-1.1.9-2.7 1.3-4.6 1.3zm-20.8-11.6c0 2.1.5 3.6 1.6 4.5 1.1.9 2.4 1.4 4 1.4.9 0 1.8-.2 2.7-.6.9-.4 2.3-1.3 4.2-2.6v-12.6c-1.1.4-2.2.7-3.2 1-1 .3-1.8.6-2.5.9-2.7 1.1-4.5 2.3-5.5 3.7-.9 1.3-1.3 2.7-1.3 4.3zM673.6 894.6c-3.2 0-5.7-.8-7.5-2.4-1.8-1.6-2.7-4.2-2.7-7.7V881v-21h-5.9v-4.2l6.5-.8 3-11h6.5l-.3 11h9.6v4.9h-9.7v23.6c0 2 .4 3.4 1.2 4.3.8.9 1.8 1.4 3.1 1.4 1.4 0 3.1-.7 4.9-2l1.9 2c-1 1.7-2.4 2.9-4.2 3.9s-3.9 1.5-6.4 1.5zM686.6 893.4v-3.3l5.3-1c.1-2 .1-4.1.1-6.4v-9.8-5.5c0-1.5-.1-3-.2-4.6l-5.7-.7v-3l14.4-5 1.3.8-.2 11.3v16.6c0 2.3 0 4.5.1 6.5l4.9 1v3.3h-20zm10.1-46.8c-1.7 0-3.1-.5-4.3-1.6-1.2-1.1-1.8-2.4-1.8-4.1 0-1.7.6-3.1 1.8-4.2 1.2-1.1 2.6-1.6 4.3-1.6 1.7 0 3.1.5 4.3 1.6 1.1 1.1 1.7 2.5 1.7 4.2 0 1.7-.6 3-1.7 4.1-1.2 1-2.6 1.6-4.3 1.6zM711.3 893.4v-3.3l5.2-1c.1-2 .1-4.1.1-6.4v-10.2-5.2c0-1.3-.1-2.8-.2-4.4l-5.6-.7v-3l13.4-5 1.3.8.6 6.2c4.1-4.6 8.6-7 13.6-7 3.5 0 6.1 1.1 8 3.4 1.9 2.3 2.8 5.9 2.8 10.9V883c0 2.3 0 4.4.1 6.4l4.9 1v3.3h-19.8v-3.3l5.1-1c.1-2 .1-4.1.1-6.4v-14c0-3.1-.4-5.3-1.3-6.5-.9-1.2-2.3-1.8-4.3-1.8-2.8 0-5.8 1.3-9 3.9v18.1c0 2.3 0 4.5.1 6.5l4.7 1v3.3h-19.8zM790.4 894.4c-2.1 0-3.9-.5-5.2-1.6-1.3-1.1-2.2-2.5-2.7-4.4-2 2-3.8 3.6-5.4 4.6-1.6 1-3.7 1.6-6.2 1.6-3 0-5.5-.9-7.6-2.6-2.1-1.7-3.1-4.2-3.1-7.5 0-1.7.4-3.3 1.2-4.8s2.2-2.8 4.3-4.1c2.1-1.3 5-2.5 8.8-3.8 1.1-.4 2.3-.7 3.6-1.1s2.7-.7 4.1-1.1v-2.2c0-3.7-.5-6.3-1.6-7.6-1-1.3-2.9-2-5.5-2-.5 0-1 0-1.6.1-.6.1-1.1.1-1.7.2l-1 4.4c-.2 1.9-.8 3.3-1.7 4.2-.9.9-2 1.4-3.4 1.4-2.6 0-4.1-1.2-4.5-3.6.5-3.2 2.2-5.8 5.2-7.7 3-1.9 6.9-2.9 11.7-2.9 4.6 0 8 1.1 10.2 3.3 2.1 2.2 3.2 5.9 3.2 11.2v17.4c0 2.4.8 3.6 2.3 3.6 1 0 1.9-.6 2.8-1.8l1.8 1.6c-1 1.8-2.1 3.1-3.4 3.9-1.1.9-2.7 1.3-4.6 1.3zm-20.8-11.6c0 2.1.5 3.6 1.6 4.5 1.1.9 2.4 1.4 4 1.4.9 0 1.8-.2 2.7-.6.9-.4 2.3-1.3 4.2-2.6v-12.6c-1.1.4-2.2.7-3.2 1-1 .3-1.8.6-2.5.9-2.7 1.1-4.5 2.3-5.5 3.7-.9 1.3-1.3 2.7-1.3 4.3zM810.8 894.6c-1.8 0-3.3-.6-4.6-1.9-1.2-1.3-1.8-2.7-1.8-4.4 0-1.8.6-3.4 1.8-4.6 1.2-1.3 2.7-1.9 4.6-1.9 1.8 0 3.3.6 4.6 1.9 1.2 1.3 1.8 2.8 1.8 4.6 0 1.7-.6 3.2-1.8 4.4-1.3 1.2-2.8 1.9-4.6 1.9z"/></g></svg>