<?xml version="1.0" encoding="utf-8"?>
<!-- Generator: Adobe Illustrator 25.2.3, SVG Export Plug-In . SVG Version: 6.00 Build 0)  -->
<svg version="1.1" id="Capa_1" xmlns="http://www.w3.org/2000/svg" xmlns:xlink="http://www.w3.org/1999/xlink" x="0px" y="0px"
	 viewBox="0 0 850.4 645" style="enable-background:new 0 0 850.4 645;" xml:space="preserve">
<style type="text/css">
	.st0{fill:#0136F5;}
	.st1{enable-background:new    ;}
	.st2{fill:#FFFFFF;}
	.st3{fill:#E95846;}
</style>
<g>
	<path class="st0" d="M378.3,566.5c-1-1-2.2-2.2-3.3-3.3c-0.4,0.4-1.1,0.9-1.7,1.4c-1.7-0.7-3.2-1.3-4.7-1.8
		c-1.4-0.5-3.9-1.6-4.2-1.1c-2.1,2.6-2.9-0.7-4.2-0.8c-6.9-0.9-13.8-1.7-20.3-4.8c-1.5-0.8-4.1,0.6-7.2,1.2c-0.1-0.1-1-0.8-1.9-1.4
		c-0.6,0.5-1.2,1.1-2,1.7c-0.4-1.2-0.8-2.2-1.2-3.4c-1.4-0.2-2.8-0.3-4.2-0.5c-0.4-1.1-0.8-2.1-1.5-3.7c-3.2,0.4-6.6,0.9-10,1.2
		c-0.8,0.1-1.7-0.8-2.5-0.8c-8.3-0.4-14.7-6.6-22.9-7.4c-1.4-0.1-2.5-2.6-4.6-5c-8.8-0.4-17.1-4-20.5-14.9c-0.7,0.7-1.1,1.2-1.9,2.1
		c-1.9-1.5-3.8-2.9-6.5-5c-6.8,0.2-12.3-5.7-19.1-9.1c-0.2,0.9-0.4,1.7-0.7,2.8c-1.8,0.6-3.9,1.2-6.4,2c-0.2-0.5-0.5-1.4-0.9-2.8
		c-1.4-0.2-3-0.5-4.5-0.7c-0.3-1-0.5-1.8-0.8-2.9c-1.3,0-2.7,0-4.2,0c-0.4-1.3-0.8-2.3-1.3-3.7c-4.8,1-6.7-3.5-9.4-5.6
		c-1.5,0-2.4,0-3.7,0c-4.1-6.7-13.7-6.9-17.8-14.3c-1.1,0-2.3,0-3.8,0c-1.7-2-3.4-4.2-5.9-7.4c-1.7-0.5-4.6-1.3-8.2-2.3
		c-0.9-5.7-8.2-4.9-11.4-9.2c0-1.1,0-2.3,0-3.8c-2.4-1-5.6-0.6-7.4-3.4c-1.2-2-2.9-3.6-5.1-6.4c0,0-0.2-1.4-0.3-2.9
		c-4.7-3.2-9.4-6.4-14.1-9.7c0-3,0-5.5,0-8.5c-2.3,0-4.3,0-6.8,0c-4-6.5-8.1-12.9-12.8-20.5c0-0.2,0-2,0-3.8
		c-6.4-2.3-5.3-7.8-5.4-11.8c-1.6-3.1-2.7-5.3-3.6-7c0.8-3.8,1.4-7,2.4-11.7c-1.9,1.4-2.4,1.9-3.3,2.6c-1.2-1.7-2.4-3.4-3.5-5
		c1.1-0.2,2.7-0.4,6-0.9c-2.5-0.8-3.4-1.1-4.7-1.6c0-1.1,0-2.5,0-4c-3.6-0.4-4.2-3.5-5.6-5.7c-0.4-0.6,0.5-2,1.2-4
		c-1.2-2.3-6.2-2.2-6-7.2c0.1-0.1,0.7-1,1.3-1.8c-3.1-3.4-3.1-3.4-7-4.3c-0.3-5-0.7-10-1.1-15.4c0,0,0.8-0.2,1.8-0.4
		c-0.4-1.6-0.7-3.4-1.1-5.1c-0.4-1.6-0.8-3.2-1.3-5c0.5-0.2,1.6-0.5,2.6-0.9c0.2-0.5,0.4-1,0.5-1.6c0.6-2.7-1.4-4.9-1.6-7.3
		c-0.2-2.4,1.1-4.8,1.6-7.3c1-4.4-3-7.1-3.6-11c-0.5-3.4,5-5.4,2.1-9.3c1-0.4,2-0.8,3.1-1.3c-0.7-4.7-1.4-9.5-2.1-13.9
		c6.4-5.9,5.4-14.5,9.4-20.9c-1.1-2.7-3.8-5.5,0-8.3c-1.1-1-2.1-2.1-3.7-3.6c1.1-0.5,1.8-0.8,3.2-1.4c1.7-3.8,3.8-8.3,5.8-12.8
		c-3.7-3,3.5-6.2-0.4-8.5c-2.7-2.6-5.2-5-8.2-7.9c1.1-4.1-2.8-7.2-4.7-11.2c-0.4-0.9-1.8-1.9-2.7-1.9c-4,0.2-5.8-2.5-7.1-5.4
		c-1.1-2.4-2.2-4.1-4-3.8c-2.5-3.6-4.3-6.7-6.6-9.5c-4.3-5.1-9.4-9.7-13-15.2c-2.7-4.1-6.1-7.9-6.9-13.2c-0.3-2.1-2.1-3.9-3.4-6
		c-1.6-0.3-3.3-0.6-4.8-0.9c-0.8-1.5-1.5-3-2.5-5.1c1.1-2,2.5-4.4,4-7.1c6.7-0.4,12.9,2,18.7,4.2c3.4,1.3,5.2,0.5,7.8-0.8
		c1.2,0.6,2.4,1.8,3.6,1.8c7.3-0.4,13.6,3.7,20.7,4c1.6,0.1,3.2,1.5,4.7,1.3c3.3-0.3,6.1,0.9,9.1,1.9c5.3,1.9,10.9,2.4,16.4,3.6
		c9.8,2.2,20.1,2.3,29.5,6.4c6.4,2.8,10.4-2.2,15.2-4.8c0,0,7.4-3.8,7.4-3.8c0.2-0.5,0.3-1.1,0.5-1.6c0.1-0.3,0.1-0.6,0.3-1.6
		c2,0.3,4,0.6,6.5,1c-0.2-0.8-0.5-2.2-1-4.2c4.1-0.9,8.6-1.9,13.6-2.9c0.1-0.3,0.2-1.1,0.5-2.5c2-0.2,4.2-0.3,6.3-0.5
		c0.6-1.4,1-2.5,1.9-4.5c2,2.8,3.4,4.7,5.1,7c0.8-5.8,5.5-6.3,9.2-8.1c0.4-1,0.7-2.1,1.1-3c1.3,0.7,2.5,1.4,3.9,2.2
		c0.5-1.5,0.9-2.6,1.2-3.6c6,3.2,11.1,0.2,16.7-1.8c2.1,1.9,4.8,2,7.5,0.7c3.3-1.6,6.4-1.7,9.7,0.1c1.4,0.7,3.5,0.8,5.1,0.5
		c4-0.9,7.8,1.9,11.8,0.5c2.2,3.3,3.9-0.2,6.1-0.4c1.9,1,4,2.2,6.3,3.5c0.4-1,0.7-2,1.4-4c0.6,1.5,0.9,2.3,1.3,3.6
		c2.3,1.8,4.4,0.7,5.8-1.2c4.6,1.3,8.9,1.9,12.6,3.7c4.2,2,8.4,1.3,12.7,1.7c0.4,1.1,0.8,2.1,1.3,3.7c1.9-0.5,3.9-1,5.9-1.4
		c0.3,0.9,0.7,1.9,1.1,3.1c0.8-0.7,1.4-1.3,2-1.8c0.6,0.6,1.3,1.2,2.3,2.1c1.1-0.7,2.2-1.4,3.9-2.5c2.9,3,6.3,3,9.3-0.2
		c1.3,2.1,2.3,3.8,3.5,5.6c2,0,4,0,6.2,0c1.2,1.8,2.2,3.4,3.6,5.7c8.7-0.9,16.6,3.7,25.4,8.5c-0.1-0.3,0.3,0.7,0.8,2.4
		c1.2-0.4,2.4-0.8,3.4-1.1c2.2,2.2,4.6,4.6,5.9,6c7,0.6,11.5,1.9,15.9,5.2c3.6,2.8,7.6,5.6,12.7,5.9c1.8,0.1,3.6,1.2,5.4,1.9
		c1.6,0.6,3.2,1.6,4.7,1.5c4.6-0.4,8.2,1.5,11.8,3.7c4.6-1.6,8.9-3.3,13.8-3.8c6.3-0.7,12.4-3.2,18.7-4.2c7.5-1.2,13.7-6.6,21.5-6.3
		c3.7-5,10.9-2.6,14.9-7c0.9,0.6,1.7,1.3,3.6,2.7c0.8-1.8,1.6-3.4,1.5-3.3c5.5-1.6,9.2-2.8,12.9-3.9c2.7-1.7,6.3,0.5,8.7-2.6
		c1.7,0.9,3.4,1.9,5.2,2.9c2.6-1.5,5.3-1.9,8.4-0.5c1.7,0.8,4.1,1.4,5.8,0.8c1.8-0.6,4.1-2.7,5.4-1.4c1.8,1.8,3.8-0.5,4.5,0.6
		c1.5,2.1,3.6-2.5,4.5,0.8c4.9-0.8,9.8-1.6,15.3-2.6c0.3,0.3,1.3,1.4,2.5,2.8c2.7,0,5.7-0.4,8.6,0.1c11.9,1.9,24.2,1.4,35.8,6.3
		c4.5,1.9,9.7,2.4,14.2,4.4c1.3,0.6,2.7,0.8,3.8,1.5c6.2,3.8,13.7,4.1,20.2,7.2c2.1,1,5.4-0.6,9.3-1.1c2.4,0.9,5.4,5.7,10.6,1
		c1.7,2.8,3.4,5.6,5.7,9.3c2.1-0.4,5.3-1,8.7-1.6c0,2.6,0,5.2,0,8.7c1.6-0.8,2.7-1.3,4.3-2.1c1.9,1.8,3.9,3.8,6,5.8
		c0.2-0.3,0.4-0.6,0.6-0.9c3.3,1.9,6.6,3.9,10,5.9c0.7-0.5,1.5-1.2,2.9-2.3c1,1.8,1.7,3.2,2.5,4.5c0.9,1.4,2,2.7,3.6,4.9
		c1.9,1,4.8,2.5,8,4.3c-0.8,1-1.3,1.6-1.9,2.3c3,1.1,5.9,2.2,8.6,3.1c0.3,1.3,0.4,2.1,0.6,3c2.2,0.1,4.2,0.2,7.1,0.3
		c-0.9,2.3-1.5,4.3-2.9,7.9c2.1-1.6,2.8-2.1,3.2-2.5c3.7,1.4,3.7,6.3,8,7.3c0.1,1.9,0.2,3.9,0.3,5.5c4.1,3.7,8.8,6.3,9,12.6
		c0.1,1.3,2.7,2.5,5.2,4.6c0.4,0.9,1.4,3.2,2.5,5.5c0.8-1.4,1.6-2.7,2.8-4.8c2.8,3.8,4.1,7,3.5,11.3c1,0.3,2,0.6,3.4,0.9
		c0,1.6,0,3.3,0,3.6c2.6,5.5,4.6,9.8,6.6,13.8c0.9,0.2,1.7,0.4,2.8,0.6c-0.7,0.9-1.2,1.5-2.2,2.6c1.8,0.3,3.4,0.5,5.3,0.8
		c0,3.1,0,6.3,0,9.6c1.3,0.4,2.3,0.8,3.6,1.2c0,1.6,0,3.3,0,6.1c1.1,0.6,2.7,1.4,3.8,2c0,3,0,5,0,6.7c1.4,1.4,2.4,2.4,3.8,3.8
		c0,2.3,0,4.9,0,7.4c1.1,0.3,1.9,0.5,3.1,0.8c0,3.7,0,7.5,0,10.2c3.1,5.6,5.6,10.1,8.3,14.9c-1.9,1.5-3.3,2.6-4.2,3.3
		c-0.5,5.2,0.7,9.8-1.7,14.3c-1,1.8-1,5.2,0,6.9c1.4,2.4,0,3.9-0.1,5.8c0,1.8,1.4,3.6,1.5,5.5c0.1,1.4-1.5,3.5-1,4.3
		c1.3,1.8,0.4,2.8,0,4.5c-0.9,4.6-0.7,9.3-1,15.1c-1.5,0.9-3.8,2.3-4.5,2.7c-1.6,13.6-2.3,25.2-7.9,36c1.3,0.8,2.6,1.5,4.6,2.6
		c-8.4,5.7-8.7,16-15,22.8c0,1.5,0,3.2,0,4.8c-1.9,1.4-4.1,2.4-5.3,4.1c-1.2,1.7-0.7,4.7-2,6.2c-2.9,3.4-6.4,6.2-10.3,9.8
		c0,0.6,0,2,0,3.5c-1.3,0.4-2.3,0.8-3.8,1.3c-0.1,1.2-0.1,2.7-0.3,4.7c-1.3,0.1-2.7,0.2-4.7,0.3c-1.3,5.1-7.2,6.4-10,10.5
		c-3,4.3-9.4,4.8-10.7,10.6c-4.4,2.3-8.8,4.6-13.2,6.9c0.7,0.3,1.7,0.8,3.9,1.8c-3.1,0.3-5.2,0.6-7.6,0.8c-0.2,0.7-0.4,1.5-0.6,2.4
		c-6,2.9-6,2.9-11.7,0.8c-1.1,1.8-2.3,3.6-3.7,5.7c-1.7-0.8-3.5-1.6-5.5-2.5c-9.5,7.3-21.8,7.9-32.3,14.9c-1.8,0-4.4,0-7,0
		c-0.3,1.1-0.4,1.9-0.7,3.2c-2.7,0.2-5.5,1.2-8.1-1.6c-1,1.6-2.1,3.3-3.2,5c-3.5,0.8-7.3,1.6-11,2.4c-0.6-1.5-0.9-2.5-1.3-3.6
		c-3.3,1.9-6.3,3.3-10.2,3.7c-5.5,0.5-10.8,2.4-16.4,3.8c1,1.1,1.6,1.7,2.2,2.4c-1.5,0.8-3,1.6-4.5,2.3c-4-5.3-9.7,4.4-13.9-1.4
		c-1.2,2.1-5.4,0.5-4.9,4.5c-0.4,0.1-1.1,0.4-1.2,0.2c-1.6-2.1-3.9-1.5-5.7-1.1c-3.2,0.6-6.2,2.5-9.5,2.9c-3.6,0.4-7.4-0.2-11.5-0.4
		c-0.2,0.4-0.8,1.6-1.5,3.2c-1.3-0.7-2.5-1.4-3.9-2.2c-2.6,0.9-5.5,1.9-8.5,3c-5.7-2.5-12.2-1.1-18.4-1c-4,0.1-8,1.8-12.4,2.9
		c-0.1-0.1-0.7-0.6-1.3-1.2c-0.7,0.6-1.4,1.2-2.2,1.9c-1.2-0.6-2.3-1.1-3.7-1.8c-0.2,0.9-0.4,1.7-0.5,2.6c-0.4,0.2-0.9,0.8-1.3,0.7
		c-3.9-0.5-7.8-1.1-11.8-1.8c-1.5-0.2-3.7-1.5-4.2-1c-1.9,1.9-2.4-0.5-3.4-0.9c-1.8-0.8-2.2,2.5-4.4,1c-1.1-0.7-4.1-0.6-4.8-0.1
		c-2.4,1.9-3.2-2.5-5.2-0.9c-2.7,2.3-5.5-0.2-8.3-0.1c-1.2,0-2.5-1.5-3.7-1.5c-1.8-0.1-3.7,0.5-6.2,0.9c-0.4-0.1-1.7-0.8-3-1
		c-2.8-0.5-5.3,1.5-8.4,0.2c-2.4-1.1-5.4-0.5-8.2-1.7c-2.8-1.2-6.4-0.3-10.2-0.3c-0.3-0.9-0.6-1.9-0.9-3.2c-2.4,1-4.9,2.8-7.3,0
		c-2.6,2-5.4-1.9-7.1-0.3c-3,2.7-5.1-2-7.6-0.1c-0.6-1.2-1.2-2.5-1.9-4c-1.6,0.8-3.1,1.5-5,2.5c-1.3-1.8-2.5-3.5-4-5.6
		c-3.4-0.7-7.7,1.1-11.3-2C388.3,567.8,383.5,565.7,378.3,566.5z"/>
</g>
<g class="st1">
	<path class="st2" d="M256,216.4V214h25.4l0.4,8.8h-3.5l-1.1-6.2H267c0,2.1-0.1,4.2-0.1,6.3c0,2.1,0,4.1,0,5.9h6.5l0.7-4.4h2.6V236
		H274l-0.6-4.3h-6.6c0,2.4,0,4.7,0,6.8s0,4.2,0.1,6.3h11.2l1.1-6.2h3.5l-0.4,8.8H256v-2.4l4.2-0.5c0.1-2.1,0.1-4.2,0.1-6.4
		c0-2.2,0-4.3,0-6.5v-2.2c0-2.1,0-4.2,0-6.4c0-2.1,0-4.3-0.1-6.4L256,216.4z"/>
	<path class="st2" d="M286,247.5v-2.1l3.3-0.7c0-1.2,0-2.6,0-4.1s0-2.7,0-3.8v-2.7c0-1.4,0-2.5,0-3.3c0-0.8-0.1-1.7-0.1-2.7
		l-3.5-0.5v-1.9l8.4-3.2l0.8,0.5l0.4,3.9c2.6-2.9,5.4-4.4,8.6-4.4c2.2,0,3.9,0.7,5.1,2.2c1.2,1.4,1.8,3.7,1.8,6.9v5.2
		c0,1.1,0,2.4,0,3.9c0,1.4,0,2.8,0.1,4l3.1,0.6v2.1h-12.5v-2.1l3.2-0.7c0-1.2,0-2.6,0-4c0-1.4,0-2.7,0-3.9v-4.8c0-2-0.3-3.4-0.8-4.1
		c-0.5-0.8-1.4-1.1-2.7-1.1c-1.8,0-3.7,0.8-5.6,2.5v7.6c0,1.1,0,2.4,0,3.8c0,1.4,0,2.8,0,4.1l3,0.6v2.1L286,247.5L286,247.5z"/>
	<path class="st2" d="M328.3,216.4V214h15.4v2.4l-4.4,0.5c0,2.1-0.1,4.2-0.1,6.3c0,2.1,0,4.3,0,6.4v3.1c0,1.8,0,3.7,0,5.7
		c0,2.1,0,4.1,0.1,6.3h10.2l1.4-7h3.5l-0.5,9.7h-25.6v-2.4l4.2-0.5c0.1-2.1,0.1-4.2,0.1-6.3s0-4.1,0-6v-2.7c0-2.2,0-4.3,0-6.5
		c0-2.1,0-4.2-0.1-6.3L328.3,216.4z"/>
	<path class="st2" d="M377,248.1c-1.3,0-2.4-0.3-3.3-1c-0.8-0.7-1.4-1.6-1.7-2.8c-1.2,1.3-2.4,2.2-3.4,2.9s-2.3,1-3.9,1
		c-1.9,0-3.5-0.5-4.8-1.6c-1.3-1.1-1.9-2.7-1.9-4.7c0-1.1,0.3-2.1,0.8-3c0.5-0.9,1.4-1.8,2.7-2.6c1.3-0.8,3.2-1.6,5.6-2.4
		c0.7-0.2,1.4-0.5,2.3-0.7c0.8-0.2,1.7-0.5,2.6-0.7V231c0-2.4-0.3-3.9-1-4.8c-0.7-0.8-1.8-1.2-3.5-1.2c-0.3,0-0.6,0-1,0.1
		c-0.4,0-0.7,0.1-1.1,0.2l-0.6,2.8c-0.1,1.2-0.5,2.1-1.1,2.7c-0.6,0.6-1.3,0.9-2.1,0.9c-1.6,0-2.6-0.8-2.8-2.3
		c0.3-2,1.4-3.6,3.3-4.8c1.9-1.2,4.3-1.8,7.4-1.8c2.9,0,5.1,0.7,6.4,2.1c1.3,1.4,2,3.7,2,7v11c0,1.5,0.5,2.3,1.5,2.3
		c0.6,0,1.2-0.4,1.8-1.1l1.2,1c-0.6,1.1-1.3,2-2.1,2.4S378.2,248.1,377,248.1z M363.9,240.8c0,1.3,0.3,2.3,1,2.8
		c0.7,0.6,1.5,0.9,2.5,0.9c0.6,0,1.1-0.1,1.7-0.4c0.6-0.3,1.5-0.8,2.7-1.7v-8c-0.7,0.2-1.4,0.5-2,0.7c-0.6,0.2-1.2,0.4-1.6,0.6
		c-1.7,0.7-2.8,1.4-3.5,2.3C364.2,238.9,363.9,239.8,363.9,240.8z"/>
	<path class="st2" d="M405.8,248.3c-1.9,0-3.7-0.2-5.6-0.7s-3.4-1.1-4.7-2l0.3-7.3h3.9l1,6.1c0.8,0.3,1.6,0.6,2.4,0.8
		c0.8,0.2,1.7,0.3,2.7,0.3c2.1,0,3.7-0.5,4.9-1.5c1.2-1,1.8-2.3,1.8-4c0-1.5-0.4-2.6-1.3-3.5c-0.8-0.8-2.2-1.6-4-2.4l-2.1-0.9
		c-2.8-1.2-5-2.6-6.6-4.2c-1.6-1.6-2.4-3.8-2.4-6.5c0-2,0.5-3.7,1.5-5.1c1-1.4,2.4-2.5,4.2-3.3s3.9-1.1,6.2-1.1
		c1.7,0,3.4,0.2,4.9,0.7c1.5,0.5,2.8,1.1,4,1.9l-0.4,6.8h-3.8l-1-5.8c-1.2-0.5-2.4-0.8-3.8-0.8c-1.7,0-3.1,0.4-4.3,1.3
		c-1.2,0.9-1.8,2.2-1.8,3.8c0,1.4,0.5,2.6,1.4,3.5s2.2,1.7,3.8,2.4l2.2,0.9c3.3,1.4,5.6,2.9,7,4.4c1.4,1.6,2.1,3.6,2.1,6.1
		c0,3-1.1,5.3-3.4,7.2C412.7,247.4,409.7,248.3,405.8,248.3z"/>
	<path class="st2" d="M434.1,248.2c-2.3,0-4.3-0.5-6.2-1.5c-1.8-1-3.3-2.5-4.4-4.4c-1.1-1.9-1.6-4.2-1.6-6.9c0-2.7,0.6-5,1.7-6.9
		c1.1-1.9,2.6-3.4,4.5-4.4c1.8-1,3.8-1.5,6-1.5c2.1,0,4.1,0.5,6,1.5c1.8,1,3.3,2.5,4.5,4.4s1.7,4.2,1.7,6.9c0,2.7-0.5,5-1.6,6.9
		c-1.1,1.9-2.6,3.4-4.4,4.4S436.4,248.2,434.1,248.2z M434.1,245.7c1.8,0,3.2-0.8,4.2-2.5s1.4-4.3,1.4-7.7c0-6.9-1.9-10.4-5.6-10.4
		c-3.7,0-5.5,3.5-5.5,10.4c0,3.5,0.5,6,1.4,7.7C430.9,244.9,432.3,245.7,434.1,245.7z"/>
	<path class="st2" d="M449.3,247.5v-2.1l3.3-0.6c0-1.2,0.1-2.6,0.1-4.1s0-2.7,0-3.9v-21.7l-3.7-0.5v-2l9-2.3l0.8,0.5l-0.2,7.1v8.1
		c2.3-2.4,4.8-3.6,7.5-3.6c1.8,0,3.5,0.5,4.9,1.5c1.5,1,2.6,2.4,3.5,4.3s1.3,4.1,1.3,6.8c0,2.7-0.5,5-1.4,6.9
		c-1,1.9-2.2,3.5-3.8,4.5c-1.6,1.1-3.3,1.6-5.3,1.6c-1.3,0-2.5-0.3-3.7-0.8s-2.2-1.3-3.2-2.5l-0.7,3.2L449.3,247.5z M463.7,226.2
		c-0.8,0-1.6,0.2-2.4,0.6c-0.8,0.4-1.7,1-2.5,1.7v14c1.5,1.4,3.1,2.2,4.7,2.2c1.6,0,3-0.8,4.2-2.3c1.1-1.5,1.7-3.8,1.7-6.9
		c0-3.1-0.5-5.5-1.6-7C466.7,227,465.4,226.2,463.7,226.2z"/>
	<path class="st2" d="M479.5,247.5v-2.1l3.2-0.6c0-1.3,0-2.6,0-4.1c0-1.5,0-2.7,0-3.8v-2.7c0-1.4,0-2.5,0-3.3c0-0.8-0.1-1.7-0.1-2.7
		l-3.5-0.5v-1.9l8.4-3.2l0.8,0.5l0.5,5.9c0.8-2.1,1.8-3.7,3.1-4.8s2.6-1.7,3.9-1.7c0.9,0,1.7,0.2,2.5,0.7c0.8,0.5,1.3,1.1,1.5,2
		c0,1.2-0.3,2.2-0.9,2.9c-0.6,0.7-1.4,1-2.4,1c-1.2,0-2.4-0.6-3.4-1.8l-0.5-0.5c-1.8,1.5-3.1,3.6-3.8,6.3v3.7c0,1,0,2.3,0,3.7
		s0,2.8,0,4l4.1,0.8v2.1H479.5z"/>
	<path class="st2" d="M513.2,248.2c-2.4,0-4.4-0.5-6.2-1.5c-1.8-1-3.2-2.5-4.2-4.4c-1-1.9-1.5-4.2-1.5-6.8c0-2.7,0.6-5,1.7-6.9
		c1.2-1.9,2.7-3.4,4.5-4.4c1.9-1,3.9-1.5,6-1.5c2,0,3.7,0.4,5.2,1.3c1.5,0.8,2.6,2,3.5,3.5c0.8,1.5,1.2,3.3,1.2,5.3
		c0,1.1-0.1,2-0.3,2.8h-15.4c0.1,2.9,0.9,5.1,2.3,6.5c1.4,1.4,3.2,2.2,5.3,2.2c1.5,0,2.7-0.3,3.8-0.9c1-0.6,2-1.4,2.8-2.3l1.5,1.3
		c-1,1.8-2.3,3.3-4,4.3C517.5,247.7,515.5,248.2,513.2,248.2z M513.2,225c-0.8,0-1.6,0.3-2.4,0.8c-0.8,0.5-1.5,1.4-2,2.5
		c-0.6,1.2-0.9,2.8-1,4.8h6.9c1.2,0,2-0.3,2.4-0.8c0.4-0.5,0.6-1.2,0.6-2.1c0-1.5-0.4-2.8-1.3-3.8C515.5,225.5,514.4,225,513.2,225z
		"/>
	<path class="st2" d="M527.1,247.5v-2.1l3.3-0.7c0-1.2,0-2.6,0-4.1s0-2.7,0-3.8v-2.7c0-1.4,0-2.5,0-3.3c0-0.8-0.1-1.7-0.1-2.7
		l-3.5-0.5v-1.9l8.4-3.2l0.8,0.5l0.4,3.9c1.2-1.4,2.5-2.5,4-3.3s2.9-1.2,4.5-1.2c3.3,0,5.4,1.5,6.3,4.6c1.3-1.6,2.7-2.8,4.2-3.5
		c1.4-0.7,2.9-1.1,4.5-1.1c2.3,0,4,0.7,5.1,2.1s1.7,3.7,1.7,6.8v5.4c0,1.1,0,2.4,0,3.9c0,1.4,0,2.8,0,4.1l3.1,0.6v2.1h-12.3v-2.1
		l3.1-0.7c0-1.2,0.1-2.6,0.1-4c0-1.4,0-2.7,0-3.9v-4.6c0-2.1-0.3-3.5-0.8-4.3c-0.6-0.7-1.5-1.1-2.7-1.1c-1.8,0-3.6,0.9-5.5,2.6
		c0,0.3,0.1,0.7,0.1,1.1c0,0.4,0,0.8,0,1.2v5.2c0,1.1,0,2.4,0,3.9c0,1.4,0,2.8,0,4.1l3,0.6v2.1h-12.4v-2.1l3.2-0.7
		c0-1.2,0.1-2.6,0.1-4c0-1.4,0-2.7,0-3.9v-4.5c0-2.1-0.3-3.5-0.8-4.3s-1.4-1.2-2.7-1.2c-0.9,0-1.9,0.2-2.8,0.7
		c-0.9,0.5-1.8,1.1-2.7,1.8v7.5c0,1.1,0,2.4,0,3.8c0,1.4,0,2.8,0,4.1l3,0.6v2.1L527.1,247.5L527.1,247.5z"/>
	<path class="st2" d="M584.7,248.2c-2.4,0-4.4-0.5-6.2-1.5c-1.8-1-3.2-2.5-4.2-4.4c-1-1.9-1.5-4.2-1.5-6.8c0-2.7,0.6-5,1.7-6.9
		c1.2-1.9,2.7-3.4,4.5-4.4c1.9-1,3.9-1.5,6-1.5c2,0,3.7,0.4,5.2,1.3c1.5,0.8,2.6,2,3.5,3.5c0.8,1.5,1.2,3.3,1.2,5.3
		c0,1.1-0.1,2-0.3,2.8h-15.4c0.1,2.9,0.9,5.1,2.3,6.5c1.4,1.4,3.2,2.2,5.3,2.2c1.5,0,2.7-0.3,3.8-0.9c1-0.6,2-1.4,2.8-2.3l1.5,1.3
		c-1,1.8-2.3,3.3-4,4.3C589.1,247.7,587.1,248.2,584.7,248.2z M584.7,225c-0.8,0-1.6,0.3-2.4,0.8c-0.8,0.5-1.5,1.4-2,2.5
		c-0.6,1.2-0.9,2.8-1,4.8h6.9c1.2,0,2-0.3,2.4-0.8c0.4-0.5,0.6-1.2,0.6-2.1c0-1.5-0.4-2.8-1.3-3.8C587,225.5,586,225,584.7,225z"/>
	<path class="st2" d="M607.1,248.2c-1.5,0-3-0.2-4.3-0.5c-1.3-0.4-2.6-0.9-3.9-1.6l-0.1-5.8h3.4l0.9,4.7c1.2,0.5,2.5,0.8,3.9,0.8
		c1.7,0,3-0.3,3.8-0.9c0.8-0.6,1.3-1.4,1.3-2.5c0-0.9-0.3-1.7-1-2.3c-0.7-0.6-1.8-1.2-3.4-1.7l-2.5-0.9c-1.9-0.6-3.4-1.5-4.5-2.7
		c-1.1-1.2-1.6-2.7-1.6-4.4c0-1.4,0.4-2.7,1.1-3.9s1.8-2.1,3.3-2.8c1.4-0.7,3.2-1,5.2-1c1.4,0,2.8,0.2,4,0.5s2.4,0.9,3.6,1.5
		L616,230h-3.3l-0.9-4.2c-0.9-0.4-2-0.6-3.1-0.6c-1.3,0-2.4,0.3-3.1,0.9c-0.7,0.6-1.1,1.3-1.1,2.3c0,0.9,0.3,1.6,0.9,2.2
		s1.8,1.1,3.5,1.7l2,0.6c2.5,0.8,4.2,1.9,5.2,3.1c1,1.2,1.6,2.7,1.6,4.5c0,2.3-0.9,4.1-2.7,5.6C613.1,247.4,610.5,248.2,607.1,248.2
		z"/>
	<path class="st2" d="M640,248.1c-1.3,0-2.4-0.3-3.3-1c-0.8-0.7-1.4-1.6-1.7-2.8c-1.2,1.3-2.4,2.2-3.4,2.9c-1,0.7-2.3,1-3.9,1
		c-1.9,0-3.5-0.5-4.8-1.6c-1.3-1.1-1.9-2.7-1.9-4.7c0-1.1,0.3-2.1,0.8-3c0.5-0.9,1.4-1.8,2.7-2.6c1.3-0.8,3.2-1.6,5.6-2.4
		c0.7-0.2,1.4-0.5,2.3-0.7c0.8-0.2,1.7-0.5,2.6-0.7V231c0-2.4-0.3-3.9-1-4.8c-0.7-0.8-1.8-1.2-3.5-1.2c-0.3,0-0.6,0-1,0.1
		c-0.4,0-0.7,0.1-1.1,0.2l-0.6,2.8c-0.1,1.2-0.5,2.1-1.1,2.7c-0.6,0.6-1.3,0.9-2.1,0.9c-1.6,0-2.6-0.8-2.8-2.3
		c0.3-2,1.4-3.6,3.3-4.8c1.9-1.2,4.3-1.8,7.4-1.8c2.9,0,5.1,0.7,6.4,2.1s2,3.7,2,7v11c0,1.5,0.5,2.3,1.5,2.3c0.6,0,1.2-0.4,1.8-1.1
		l1.2,1c-0.6,1.1-1.3,2-2.1,2.4C642.2,247.8,641.2,248.1,640,248.1z M626.9,240.8c0,1.3,0.3,2.3,1,2.8c0.7,0.6,1.5,0.9,2.5,0.9
		c0.6,0,1.1-0.1,1.7-0.4c0.6-0.3,1.5-0.8,2.7-1.7v-8c-0.7,0.2-1.4,0.5-2,0.7s-1.2,0.4-1.6,0.6c-1.7,0.7-2.8,1.4-3.5,2.3
		C627.2,238.9,626.9,239.8,626.9,240.8z"/>
	<path class="st2" d="M656.7,245.4c0,2.2-0.5,4.1-1.5,5.8s-2.3,3.2-3.8,4.4s-3.1,2.1-4.7,2.6l-0.7-1.9c1.7-0.9,3.1-1.9,4.3-3.1
		s2.1-2.6,2.7-4.3l-1.8-1.2c-0.8-0.5-1.4-1.2-1.8-1.8c-0.4-0.7-0.6-1.4-0.6-2c0-1.1,0.3-2,1-2.7c0.7-0.7,1.6-1.1,2.7-1.1
		c0.6,0,1.1,0.1,1.7,0.3s1.1,0.6,1.7,1.2c0.3,0.7,0.4,1.3,0.5,1.9C656.6,244,656.7,244.7,656.7,245.4z"/>
</g>
<g class="st1">
	<path class="st2" d="M262.3,272v-2.1h9.6v2.1l-2.8,0.6l-8.3,21.6h-3l-9.1-21.8l-2.6-0.5v-2.1h13.3v2.1l-3.9,0.6l5.5,14.6l5-14.6
		L262.3,272z"/>
	<path class="st2" d="M292.1,294.6c-1.3,0-2.4-0.3-3.3-1c-0.8-0.7-1.4-1.6-1.7-2.8c-1.2,1.3-2.4,2.2-3.4,2.9s-2.3,1-3.9,1
		c-1.9,0-3.5-0.5-4.8-1.6s-1.9-2.7-1.9-4.7c0-1.1,0.3-2.1,0.8-3c0.5-0.9,1.4-1.8,2.7-2.6c1.3-0.8,3.2-1.6,5.6-2.4
		c0.7-0.2,1.4-0.5,2.3-0.7c0.8-0.2,1.7-0.5,2.6-0.7v-1.4c0-2.4-0.3-3.9-1-4.8c-0.7-0.8-1.8-1.2-3.5-1.2c-0.3,0-0.6,0-1,0
		c-0.4,0-0.7,0.1-1.1,0.2l-0.6,2.8c-0.1,1.2-0.5,2.1-1.1,2.7c-0.6,0.6-1.3,0.9-2.1,0.9c-1.6,0-2.6-0.8-2.8-2.3
		c0.3-2,1.4-3.6,3.3-4.8c1.9-1.2,4.3-1.8,7.4-1.8c2.9,0,5.1,0.7,6.4,2.1c1.3,1.4,2,3.7,2,7v11c0,1.5,0.5,2.3,1.5,2.3
		c0.6,0,1.2-0.4,1.8-1.1l1.2,1c-0.6,1.1-1.3,2-2.1,2.4S293.4,294.6,292.1,294.6z M279,287.3c0,1.3,0.3,2.3,1,2.8
		c0.7,0.6,1.5,0.9,2.5,0.9c0.6,0,1.1-0.1,1.7-0.4c0.6-0.3,1.5-0.8,2.7-1.7v-8c-0.7,0.2-1.4,0.5-2,0.7s-1.2,0.4-1.6,0.6
		c-1.7,0.7-2.8,1.4-3.5,2.3C279.3,285.4,279,286.3,279,287.3z"/>
	<path class="st2" d="M307.6,294.7c-1.5,0-3-0.2-4.3-0.5c-1.3-0.4-2.6-0.9-3.9-1.6l0-5.8h3.4l0.9,4.7c1.2,0.5,2.5,0.8,3.9,0.8
		c1.7,0,3-0.3,3.8-0.9c0.8-0.6,1.3-1.4,1.3-2.5c0-0.9-0.3-1.7-1-2.3c-0.7-0.6-1.8-1.2-3.4-1.7l-2.5-0.9c-1.9-0.6-3.4-1.5-4.5-2.7
		c-1.1-1.2-1.6-2.7-1.6-4.4c0-1.4,0.4-2.7,1.1-3.9s1.8-2.1,3.3-2.8c1.4-0.7,3.2-1,5.2-1c1.4,0,2.8,0.2,4,0.5
		c1.2,0.4,2.4,0.9,3.6,1.5l-0.3,5.3h-3.3l-0.9-4.2c-0.9-0.4-2-0.6-3.1-0.6c-1.3,0-2.4,0.3-3.1,0.9c-0.7,0.6-1.1,1.3-1.1,2.3
		c0,0.9,0.3,1.6,0.9,2.2c0.6,0.6,1.8,1.1,3.5,1.7l2,0.6c2.5,0.8,4.2,1.9,5.2,3.1c1,1.2,1.6,2.7,1.6,4.5c0,2.3-0.9,4.1-2.7,5.6
		C313.6,294,311,294.7,307.6,294.7z"/>
	<path class="st2" d="M352,294.6c-1.3,0-2.4-0.3-3.3-1c-0.8-0.7-1.4-1.6-1.7-2.8c-1.2,1.3-2.4,2.2-3.4,2.9s-2.3,1-3.9,1
		c-1.9,0-3.5-0.5-4.8-1.6s-1.9-2.7-1.9-4.7c0-1.1,0.3-2.1,0.8-3c0.5-0.9,1.4-1.8,2.7-2.6c1.3-0.8,3.2-1.6,5.6-2.4
		c0.7-0.2,1.4-0.5,2.3-0.7c0.8-0.2,1.7-0.5,2.6-0.7v-1.4c0-2.4-0.3-3.9-1-4.8c-0.7-0.8-1.8-1.2-3.5-1.2c-0.3,0-0.6,0-1,0
		c-0.4,0-0.7,0.1-1.1,0.2l-0.6,2.8c-0.1,1.2-0.5,2.1-1.1,2.7c-0.6,0.6-1.3,0.9-2.1,0.9c-1.6,0-2.6-0.8-2.8-2.3
		c0.3-2,1.4-3.6,3.3-4.8c1.9-1.2,4.3-1.8,7.4-1.8c2.9,0,5.1,0.7,6.4,2.1c1.3,1.4,2,3.7,2,7v11c0,1.5,0.5,2.3,1.5,2.3
		c0.6,0,1.2-0.4,1.8-1.1l1.2,1c-0.6,1.1-1.3,2-2.1,2.4S353.2,294.6,352,294.6z M338.9,287.3c0,1.3,0.3,2.3,1,2.8
		c0.7,0.6,1.5,0.9,2.5,0.9c0.6,0,1.1-0.1,1.7-0.4c0.6-0.3,1.5-0.8,2.7-1.7v-8c-0.7,0.2-1.4,0.5-2,0.7s-1.2,0.4-1.6,0.6
		c-1.7,0.7-2.8,1.4-3.5,2.3C339.2,285.4,338.9,286.3,338.9,287.3z"/>
	<path class="st2" d="M382.4,294.7c-2.4,0-4.4-0.5-6.2-1.5c-1.8-1-3.2-2.5-4.2-4.4s-1.5-4.2-1.5-6.8c0-2.7,0.6-5,1.7-6.9
		c1.2-1.9,2.7-3.4,4.5-4.4c1.9-1,3.9-1.5,6-1.5c2,0,3.7,0.4,5.2,1.3c1.5,0.8,2.6,2,3.5,3.5c0.8,1.5,1.2,3.3,1.2,5.3
		c0,1.1-0.1,2-0.3,2.8h-15.4c0.1,2.9,0.9,5.1,2.3,6.5c1.4,1.4,3.2,2.2,5.3,2.2c1.5,0,2.7-0.3,3.8-0.9c1-0.6,2-1.4,2.8-2.3l1.5,1.3
		c-1,1.8-2.3,3.3-4,4.3C386.8,294.2,384.7,294.7,382.4,294.7z M382.4,271.6c-0.8,0-1.6,0.3-2.4,0.8c-0.8,0.5-1.5,1.4-2,2.5
		c-0.6,1.2-0.9,2.8-1,4.8h6.9c1.2,0,2-0.3,2.4-0.8s0.6-1.2,0.6-2.1c0-1.5-0.4-2.8-1.3-3.8C384.7,272.1,383.6,271.6,382.4,271.6z"/>
	<path class="st2" d="M396.3,294v-2.1l3.3-0.7c0-1.2,0-2.6,0-4.1s0-2.7,0-3.8v-2.7c0-1.4,0-2.5,0-3.3c0-0.8-0.1-1.7-0.1-2.7
		l-3.5-0.5v-1.9l8.4-3.2l0.8,0.5l0.4,3.9c2.6-2.9,5.4-4.4,8.6-4.4c2.2,0,3.9,0.7,5.1,2.2c1.2,1.4,1.8,3.7,1.8,6.9v5.2
		c0,1.1,0,2.4,0,3.9c0,1.4,0,2.8,0.1,4l3.1,0.6v2.1h-12.5v-2.1l3.2-0.7c0-1.2,0-2.6,0-4c0-1.4,0-2.7,0-3.9v-4.8c0-2-0.3-3.4-0.8-4.1
		s-1.4-1.1-2.7-1.1c-1.8,0-3.7,0.8-5.6,2.5v7.6c0,1.1,0,2.4,0,3.8c0,1.4,0,2.8,0,4.1l3,0.6v2.1L396.3,294L396.3,294z"/>
	<path class="st2" d="M439.1,294.7c-2.3,0-4.3-0.5-6.2-1.5c-1.8-1-3.2-2.4-4.3-4.3c-1-1.9-1.5-4.2-1.5-6.9c0-2.7,0.6-5,1.7-7
		c1.2-1.9,2.7-3.4,4.6-4.4c1.9-1,4-1.5,6.3-1.5c1.6,0,3.1,0.3,4.5,0.9c1.3,0.6,2.4,1.5,3.2,2.5c0.8,1,1.3,2.2,1.5,3.5
		c-0.4,1.5-1.4,2.2-2.9,2.2c-1.9,0-3-1.2-3.3-3.5l-0.7-3c-0.3-0.1-0.6-0.1-0.9-0.2c-0.3,0-0.6,0-0.9,0c-1.2,0-2.3,0.3-3.4,1
		c-1,0.7-1.9,1.8-2.5,3.2c-0.6,1.4-1,3.3-1,5.5c0,3.1,0.7,5.4,2.1,7c1.4,1.6,3.2,2.4,5.5,2.4c1.3,0,2.6-0.3,3.6-0.9
		c1.1-0.6,2-1.4,2.7-2.5l1.5,1.1c-0.8,2.1-2.1,3.6-3.8,4.7C443.5,294.2,441.5,294.7,439.1,294.7z"/>
	<path class="st2" d="M464.4,294.7c-2.3,0-4.3-0.5-6.2-1.5c-1.8-1-3.3-2.5-4.4-4.4c-1.1-1.9-1.6-4.2-1.6-6.9c0-2.7,0.6-5,1.7-6.9
		c1.1-1.9,2.6-3.4,4.5-4.4c1.8-1,3.8-1.5,6-1.5c2.1,0,4.1,0.5,6,1.5c1.8,1,3.3,2.5,4.5,4.4s1.7,4.2,1.7,6.9c0,2.7-0.5,5-1.6,6.9
		c-1.1,1.9-2.6,3.4-4.4,4.4S466.7,294.7,464.4,294.7z M464.4,292.2c1.8,0,3.2-0.8,4.2-2.5s1.4-4.3,1.4-7.7c0-6.9-1.9-10.4-5.6-10.4
		c-3.7,0-5.5,3.5-5.5,10.4c0,3.5,0.5,6,1.4,7.7C461.2,291.4,462.6,292.2,464.4,292.2z"/>
	<path class="st2" d="M480.2,294v-2.1l3.3-0.7c0-1.2,0-2.6,0-4.1s0-2.7,0-3.8v-2.7c0-1.4,0-2.5,0-3.3c0-0.8-0.1-1.7-0.1-2.7
		l-3.5-0.5v-1.9l8.4-3.2l0.8,0.5l0.4,3.9c2.6-2.9,5.4-4.4,8.6-4.4c2.2,0,3.9,0.7,5.1,2.2c1.2,1.4,1.8,3.7,1.8,6.9v5.2
		c0,1.1,0,2.4,0,3.9c0,1.4,0,2.8,0.1,4l3.1,0.6v2.1h-12.5v-2.1l3.2-0.7c0-1.2,0-2.6,0-4c0-1.4,0-2.7,0-3.9v-4.8c0-2-0.3-3.4-0.8-4.1
		s-1.4-1.1-2.7-1.1c-1.8,0-3.7,0.8-5.6,2.5v7.6c0,1.1,0,2.4,0,3.8c0,1.4,0,2.8,0,4.1l3,0.6v2.1L480.2,294L480.2,294z"/>
	<path class="st2" d="M519.7,294.7c-2,0-3.6-0.5-4.7-1.5c-1.1-1-1.7-2.6-1.7-4.8c0-0.8,0-1.5,0-2.2s0-1.5,0-2.5v-10.7h-3.7v-2.6
		l4.1-0.5l1.9-6.9h4.1l-0.2,7h6.1v3.1h-6.1v14.9c0,1.2,0.2,2.2,0.7,2.7s1.1,0.9,1.9,0.9c0.9,0,1.9-0.4,3.1-1.3l1.2,1.3
		c-0.6,1-1.5,1.9-2.6,2.4C522.6,294.4,521.3,294.7,519.7,294.7z"/>
	<path class="st2" d="M528,294v-2.1l3.2-0.6c0-1.3,0-2.6,0-4.1s0-2.7,0-3.8v-2.7c0-1.4,0-2.5,0-3.3c0-0.8-0.1-1.7-0.1-2.7l-3.5-0.5
		v-1.9l8.4-3.2l0.8,0.5l0.5,6c0.8-2.1,1.8-3.7,3.1-4.8s2.6-1.7,3.9-1.7c0.9,0,1.7,0.2,2.5,0.7c0.8,0.5,1.3,1.1,1.5,2
		c0,1.2-0.3,2.2-0.9,2.9c-0.6,0.7-1.4,1-2.4,1c-1.2,0-2.4-0.6-3.4-1.8l-0.5-0.5c-1.8,1.5-3.1,3.6-3.8,6.3v3.7c0,1,0,2.3,0,3.7
		s0,2.8,0,4l4.1,0.8v2.1L528,294L528,294z"/>
	<path class="st2" d="M568.6,294.6c-1.3,0-2.4-0.3-3.3-1c-0.8-0.7-1.4-1.6-1.7-2.8c-1.2,1.3-2.4,2.2-3.4,2.9c-1,0.7-2.3,1-3.9,1
		c-1.9,0-3.5-0.5-4.8-1.6c-1.3-1.1-1.9-2.7-1.9-4.7c0-1.1,0.3-2.1,0.8-3c0.5-0.9,1.4-1.8,2.7-2.6c1.3-0.8,3.2-1.6,5.6-2.4
		c0.7-0.2,1.4-0.5,2.3-0.7c0.8-0.2,1.7-0.5,2.6-0.7v-1.4c0-2.4-0.3-3.9-1-4.8c-0.7-0.8-1.8-1.2-3.5-1.2c-0.3,0-0.6,0-1,0
		c-0.4,0-0.7,0.1-1.1,0.2l-0.6,2.8c-0.1,1.2-0.5,2.1-1.1,2.7c-0.6,0.6-1.3,0.9-2.1,0.9c-1.6,0-2.6-0.8-2.8-2.3
		c0.3-2,1.4-3.6,3.3-4.8c1.9-1.2,4.3-1.8,7.4-1.8c2.9,0,5.1,0.7,6.4,2.1s2,3.7,2,7v11c0,1.5,0.5,2.3,1.5,2.3c0.6,0,1.2-0.4,1.8-1.1
		l1.2,1c-0.6,1.1-1.3,2-2.1,2.4C570.9,294.4,569.9,294.6,568.6,294.6z M555.5,287.3c0,1.3,0.3,2.3,1,2.8c0.7,0.6,1.5,0.9,2.5,0.9
		c0.6,0,1.1-0.1,1.7-0.4c0.6-0.3,1.5-0.8,2.7-1.7v-8c-0.7,0.2-1.4,0.5-2,0.7s-1.2,0.4-1.6,0.6c-1.7,0.7-2.8,1.4-3.5,2.3
		C555.8,285.4,555.5,286.3,555.5,287.3z"/>
	<path class="st2" d="M575.6,294v-2.1l3.2-0.6c0-1.3,0-2.6,0-4.1s0-2.7,0-3.8v-2.7c0-1.4,0-2.5,0-3.3c0-0.8-0.1-1.7-0.1-2.7
		l-3.5-0.5v-1.9l8.4-3.2l0.8,0.5l0.5,6c0.8-2.1,1.8-3.7,3.1-4.8s2.6-1.7,3.9-1.7c0.9,0,1.7,0.2,2.5,0.7c0.8,0.5,1.3,1.1,1.5,2
		c0,1.2-0.3,2.2-0.9,2.9c-0.6,0.7-1.4,1-2.4,1c-1.2,0-2.4-0.6-3.4-1.8l-0.5-0.5c-1.8,1.5-3.1,3.6-3.8,6.3v3.7c0,1,0,2.3,0,3.7
		s0,2.8,0,4l4.1,0.8v2.1L575.6,294L575.6,294z"/>
	<path class="st2" d="M627.4,294.5L627,290c-2.5,3.1-5.3,4.7-8.6,4.7c-2.1,0-3.8-0.7-5-2c-1.3-1.4-1.9-3.7-1.8-7l0.2-12.5l-3.3-0.7
		v-2l8.8-1.1l0.6,0.6l-0.3,7.1v8.4c0,1.9,0.3,3.2,0.9,4s1.4,1.1,2.5,1.1c0.9,0,1.9-0.3,2.9-0.8c1-0.5,1.9-1.2,2.8-2.1l0.2-14.5
		l-3.2-0.7v-1.9l8.6-1.2l0.7,0.6l-0.2,7.1v14.2l3.1,0.7v2.1L627.4,294.5z"/>
	<path class="st2" d="M639.1,294v-2.1l3.3-0.7c0-1.2,0-2.6,0-4.1s0-2.7,0-3.8v-2.7c0-1.4,0-2.5,0-3.3c0-0.8-0.1-1.7-0.1-2.7
		l-3.5-0.5v-1.9l8.4-3.2l0.8,0.5l0.4,3.9c2.6-2.9,5.4-4.4,8.6-4.4c2.2,0,3.9,0.7,5.1,2.2c1.2,1.4,1.8,3.7,1.8,6.9v5.2
		c0,1.1,0,2.4,0,3.9c0,1.4,0,2.8,0.1,4l3.1,0.6v2.1h-12.5v-2.1l3.2-0.7c0-1.2,0-2.6,0-4c0-1.4,0-2.7,0-3.9v-4.8c0-2-0.3-3.4-0.8-4.1
		s-1.4-1.1-2.7-1.1c-1.8,0-3.7,0.8-5.6,2.5v7.6c0,1.1,0,2.4,0,3.8c0,1.4,0,2.8,0,4.1l3,0.6v2.1L639.1,294L639.1,294z"/>
</g>
<g class="st1">
	<path class="st2" d="M216,341.3c-2.4,0-4.4-0.5-6.2-1.5c-1.8-1-3.2-2.5-4.2-4.4s-1.5-4.2-1.5-6.8c0-2.7,0.6-5,1.7-6.9
		c1.2-1.9,2.7-3.4,4.5-4.4c1.9-1,3.9-1.5,6-1.5c2,0,3.7,0.4,5.2,1.3c1.5,0.8,2.6,2,3.5,3.5c0.8,1.5,1.2,3.3,1.2,5.3
		c0,1.1-0.1,2-0.3,2.8h-15.4c0.1,2.9,0.9,5.1,2.3,6.5c1.4,1.4,3.2,2.2,5.3,2.2c1.5,0,2.7-0.3,3.8-0.9c1-0.6,2-1.4,2.8-2.3l1.5,1.3
		c-1,1.8-2.3,3.3-4,4.3C220.3,340.7,218.3,341.3,216,341.3z M216,318.1c-0.8,0-1.6,0.3-2.4,0.8c-0.8,0.5-1.5,1.4-2,2.5
		c-0.6,1.2-0.9,2.8-1,4.8h6.9c1.2,0,2-0.3,2.4-0.8s0.6-1.2,0.6-2.1c0-1.5-0.4-2.8-1.3-3.8C218.3,318.6,217.2,318.1,216,318.1z"/>
	<path class="st2" d="M238.3,341.3c-1.5,0-3-0.2-4.3-0.5s-2.6-0.9-3.9-1.6l-0.1-5.8h3.4l0.9,4.7c1.2,0.5,2.5,0.8,3.9,0.8
		c1.7,0,3-0.3,3.8-0.9c0.8-0.6,1.3-1.4,1.3-2.5c0-0.9-0.3-1.7-1-2.3c-0.7-0.6-1.8-1.2-3.4-1.7l-2.5-0.9c-1.9-0.6-3.4-1.5-4.5-2.7
		c-1.1-1.2-1.6-2.7-1.6-4.4c0-1.4,0.4-2.7,1.1-3.9s1.8-2.1,3.3-2.8c1.4-0.7,3.2-1,5.2-1c1.4,0,2.8,0.2,4,0.5
		c1.2,0.4,2.4,0.9,3.6,1.5l-0.3,5.3h-3.3l-0.9-4.2c-0.9-0.4-2-0.6-3.1-0.6c-1.3,0-2.4,0.3-3.1,0.9c-0.7,0.6-1.1,1.3-1.1,2.3
		c0,0.9,0.3,1.6,0.9,2.2c0.6,0.6,1.8,1.1,3.5,1.7l2,0.6c2.5,0.8,4.2,1.9,5.2,3.1c1,1.2,1.6,2.7,1.6,4.5c0,2.3-0.9,4.1-2.7,5.6
		C244.4,340.5,241.7,341.3,238.3,341.3z"/>
	<path class="st2" d="M251.7,352.3v-2.1l3.4-0.7c0-1.5,0.1-2.9,0.1-4.3c0-1.4,0-2.7,0-4v-14.1c0-1.4,0-2.5,0-3.3
		c0-0.8-0.1-1.7-0.1-2.7l-3.5-0.5v-1.9l8.4-3.2l0.8,0.5l0.3,3.1c2.3-2.4,4.8-3.6,7.6-3.6c1.8,0,3.5,0.5,4.9,1.5
		c1.5,1,2.6,2.4,3.5,4.3c0.9,1.9,1.3,4.2,1.3,6.9c0,2.7-0.5,5-1.4,6.9c-1,1.9-2.2,3.4-3.8,4.5c-1.6,1-3.3,1.6-5.3,1.6
		c-1.2,0-2.4-0.2-3.5-0.7c-1.1-0.5-2.1-1.2-3.1-2.3v3c0,1.2,0,2.5,0,3.9c0,1.4,0,2.8,0.1,4.3l3.9,0.8v2.1H251.7z M266.1,319.3
		c-0.8,0-1.6,0.2-2.3,0.6s-1.6,0.9-2.5,1.6v14.3c1.4,1.3,2.9,2,4.5,2c1.7,0,3.1-0.7,4.3-2.2c1.2-1.5,1.7-3.8,1.7-6.9
		c0-3.1-0.5-5.4-1.6-7C269.2,320.1,267.8,319.3,266.1,319.3z"/>
	<path class="st2" d="M300.8,341.2c-1.3,0-2.4-0.3-3.3-1c-0.8-0.7-1.4-1.6-1.7-2.8c-1.2,1.3-2.4,2.2-3.4,2.9s-2.3,1-3.9,1
		c-1.9,0-3.5-0.5-4.8-1.6s-1.9-2.7-1.9-4.7c0-1.1,0.3-2.1,0.8-3c0.5-0.9,1.4-1.8,2.7-2.6c1.3-0.8,3.2-1.6,5.6-2.4
		c0.7-0.2,1.4-0.5,2.3-0.7c0.8-0.2,1.7-0.5,2.6-0.7v-1.4c0-2.4-0.3-3.9-1-4.8c-0.7-0.8-1.8-1.2-3.5-1.2c-0.3,0-0.6,0-1,0
		c-0.4,0-0.7,0.1-1.1,0.2l-0.6,2.8c-0.1,1.2-0.5,2.1-1.1,2.7c-0.6,0.6-1.3,0.9-2.1,0.9c-1.6,0-2.6-0.8-2.8-2.3
		c0.3-2,1.4-3.6,3.3-4.8c1.9-1.2,4.3-1.8,7.4-1.8c2.9,0,5.1,0.7,6.4,2.1c1.3,1.4,2,3.7,2,7v11c0,1.5,0.5,2.3,1.5,2.3
		c0.6,0,1.2-0.4,1.8-1.1l1.2,1c-0.6,1.1-1.3,2-2.1,2.4S302,341.2,300.8,341.2z M287.7,333.9c0,1.3,0.3,2.3,1,2.8
		c0.7,0.6,1.5,0.9,2.5,0.9c0.6,0,1.1-0.1,1.7-0.4c0.6-0.3,1.5-0.8,2.7-1.7v-8c-0.7,0.2-1.4,0.5-2,0.7s-1.2,0.4-1.6,0.6
		c-1.7,0.7-2.8,1.4-3.5,2.3C288,332,287.7,332.9,287.7,333.9z"/>
	<path class="st2" d="M319.8,341.3c-2.3,0-4.3-0.5-6.2-1.5s-3.2-2.4-4.3-4.3c-1-1.9-1.5-4.2-1.5-6.9c0-2.7,0.6-5,1.7-7
		s2.7-3.4,4.6-4.4c1.9-1,4-1.5,6.3-1.5c1.6,0,3.1,0.3,4.5,0.9c1.3,0.6,2.4,1.5,3.2,2.5c0.8,1,1.3,2.2,1.5,3.5
		c-0.4,1.5-1.4,2.2-2.9,2.2c-1.9,0-3-1.2-3.3-3.5l-0.7-3c-0.3-0.1-0.6-0.1-0.9-0.2c-0.3,0-0.6,0-0.9,0c-1.2,0-2.3,0.3-3.4,1
		c-1,0.7-1.9,1.8-2.5,3.2c-0.6,1.4-1,3.3-1,5.5c0,3.1,0.7,5.4,2.1,7c1.4,1.6,3.2,2.4,5.5,2.4c1.3,0,2.6-0.3,3.6-0.9
		c1.1-0.6,2-1.4,2.7-2.5l1.5,1.1c-0.8,2.1-2.1,3.6-3.8,4.7C324.2,340.7,322.2,341.3,319.8,341.3z"/>
	<path class="st2" d="M332.9,340.6v-2.1l3.3-0.7c0-1.2,0-2.6,0-4.1s0-2.7,0-3.8v-2.4c0-1.4,0-2.5,0-3.5c0-0.9-0.1-1.9-0.1-2.9
		l-3.6-0.5v-1.9l9.1-3.2l0.8,0.5l-0.2,7.1v6.7c0,1.1,0,2.3,0,3.8s0,2.8,0.1,4.1l3.1,0.6v2.1L332.9,340.6L332.9,340.6z M339.3,311
		c-1.1,0-2-0.3-2.7-1c-0.7-0.7-1.1-1.5-1.1-2.6c0-1.1,0.4-1.9,1.1-2.6c0.7-0.7,1.6-1,2.7-1c1.1,0,2,0.3,2.7,1s1.1,1.5,1.1,2.6
		c0,1-0.4,1.9-1.1,2.6C341.3,310.7,340.4,311,339.3,311z"/>
	<path class="st2" d="M360.8,341.3c-2.3,0-4.3-0.5-6.2-1.5c-1.8-1-3.3-2.5-4.4-4.4c-1.1-1.9-1.6-4.2-1.6-6.9c0-2.7,0.6-5,1.7-6.9
		c1.1-1.9,2.6-3.4,4.5-4.4c1.8-1,3.8-1.5,6-1.5s4.2,0.5,6,1.5s3.3,2.5,4.5,4.4c1.1,1.9,1.7,4.2,1.7,6.9c0,2.7-0.5,5-1.6,6.9
		c-1.1,1.9-2.6,3.4-4.4,4.4C365.2,340.8,363.1,341.3,360.8,341.3z M360.8,338.8c1.8,0,3.2-0.8,4.2-2.5s1.4-4.3,1.4-7.7
		c0-6.9-1.9-10.4-5.6-10.4c-3.7,0-5.5,3.5-5.5,10.4c0,3.5,0.5,6,1.4,7.7C357.6,338,359,338.8,360.8,338.8z"/>
	<path class="st2" d="M387.8,352.3v-2.1l3.4-0.7c0-1.5,0.1-2.9,0.1-4.3c0-1.4,0-2.7,0-4v-14.1c0-1.4,0-2.5,0-3.3
		c0-0.8-0.1-1.7-0.1-2.7l-3.5-0.5v-1.9l8.4-3.2l0.8,0.5l0.3,3.1c2.3-2.4,4.8-3.6,7.6-3.6c1.8,0,3.5,0.5,4.9,1.5
		c1.5,1,2.6,2.4,3.5,4.3c0.9,1.9,1.3,4.2,1.3,6.9c0,2.7-0.5,5-1.4,6.9c-1,1.9-2.2,3.4-3.8,4.5s-3.3,1.6-5.3,1.6
		c-1.2,0-2.4-0.2-3.5-0.7c-1.1-0.5-2.1-1.2-3.1-2.3v3c0,1.2,0,2.5,0,3.9c0,1.4,0,2.8,0.1,4.3l3.9,0.8v2.1H387.8z M402.3,319.3
		c-0.8,0-1.6,0.2-2.3,0.6s-1.6,0.9-2.5,1.6v14.3c1.4,1.3,2.9,2,4.5,2c1.7,0,3.1-0.7,4.3-2.2c1.2-1.5,1.7-3.8,1.7-6.9
		c0-3.1-0.5-5.4-1.6-7C405.3,320.1,403.9,319.3,402.3,319.3z"/>
	<path class="st2" d="M437,341.2c-1.3,0-2.4-0.3-3.3-1c-0.8-0.7-1.4-1.6-1.7-2.8c-1.2,1.3-2.4,2.2-3.4,2.9c-1,0.7-2.3,1-3.9,1
		c-1.9,0-3.5-0.5-4.8-1.6c-1.3-1.1-1.9-2.7-1.9-4.7c0-1.1,0.3-2.1,0.8-3c0.5-0.9,1.4-1.8,2.7-2.6c1.3-0.8,3.2-1.6,5.6-2.4
		c0.7-0.2,1.4-0.5,2.3-0.7c0.8-0.2,1.7-0.5,2.6-0.7v-1.4c0-2.4-0.3-3.9-1-4.8c-0.7-0.8-1.8-1.2-3.5-1.2c-0.3,0-0.6,0-1,0
		c-0.4,0-0.7,0.1-1.1,0.2l-0.6,2.8c-0.1,1.2-0.5,2.1-1.1,2.7c-0.6,0.6-1.3,0.9-2.1,0.9c-1.6,0-2.6-0.8-2.8-2.3
		c0.3-2,1.4-3.6,3.3-4.8c1.9-1.2,4.3-1.8,7.4-1.8c2.9,0,5.1,0.7,6.4,2.1c1.3,1.4,2,3.7,2,7v11c0,1.5,0.5,2.3,1.5,2.3
		c0.6,0,1.2-0.4,1.8-1.1l1.2,1c-0.6,1.1-1.3,2-2.1,2.4C439.2,340.9,438.2,341.2,437,341.2z M423.8,333.9c0,1.3,0.3,2.3,1,2.8
		c0.7,0.6,1.5,0.9,2.5,0.9c0.6,0,1.1-0.1,1.7-0.4c0.6-0.3,1.5-0.8,2.7-1.7v-8c-0.7,0.2-1.4,0.5-2,0.7s-1.2,0.4-1.6,0.6
		c-1.7,0.7-2.8,1.4-3.5,2.3C424.2,332,423.8,332.9,423.8,333.9z"/>
	<path class="st2" d="M443.9,340.6v-2.1l3.2-0.6c0-1.3,0-2.6,0-4.1s0-2.7,0-3.8v-2.7c0-1.4,0-2.5,0-3.3c0-0.8-0.1-1.7-0.1-2.7
		l-3.5-0.5v-1.9l8.4-3.2l0.8,0.5l0.5,6c0.8-2.1,1.8-3.7,3.1-4.8s2.6-1.7,3.9-1.7c0.9,0,1.7,0.2,2.5,0.7c0.8,0.5,1.3,1.1,1.5,2
		c0,1.2-0.3,2.2-0.9,2.9c-0.6,0.7-1.4,1-2.4,1c-1.2,0-2.4-0.6-3.4-1.8l-0.5-0.5c-1.8,1.5-3.1,3.6-3.8,6.3v3.7c0,1,0,2.3,0,3.7
		s0,2.8,0,4l4.1,0.8v2.1L443.9,340.6L443.9,340.6z"/>
	<path class="st2" d="M484.5,341.2c-1.3,0-2.4-0.3-3.3-1c-0.8-0.7-1.4-1.6-1.7-2.8c-1.2,1.3-2.4,2.2-3.4,2.9c-1,0.7-2.3,1-3.9,1
		c-1.9,0-3.5-0.5-4.8-1.6c-1.3-1.1-1.9-2.7-1.9-4.7c0-1.1,0.3-2.1,0.8-3c0.5-0.9,1.4-1.8,2.7-2.6c1.3-0.8,3.2-1.6,5.6-2.4
		c0.7-0.2,1.4-0.5,2.3-0.7c0.8-0.2,1.7-0.5,2.6-0.7v-1.4c0-2.4-0.3-3.9-1-4.8c-0.7-0.8-1.8-1.2-3.5-1.2c-0.3,0-0.6,0-1,0
		c-0.4,0-0.7,0.1-1.1,0.2l-0.6,2.8c-0.1,1.2-0.5,2.1-1.1,2.7c-0.6,0.6-1.3,0.9-2.1,0.9c-1.6,0-2.6-0.8-2.8-2.3
		c0.3-2,1.4-3.6,3.3-4.8c1.9-1.2,4.3-1.8,7.4-1.8c2.9,0,5.1,0.7,6.4,2.1c1.3,1.4,2,3.7,2,7v11c0,1.5,0.5,2.3,1.5,2.3
		c0.6,0,1.2-0.4,1.8-1.1l1.2,1c-0.6,1.1-1.3,2-2.1,2.4C486.7,340.9,485.7,341.2,484.5,341.2z M471.4,333.9c0,1.3,0.3,2.3,1,2.8
		c0.7,0.6,1.5,0.9,2.5,0.9c0.6,0,1.1-0.1,1.7-0.4c0.6-0.3,1.5-0.8,2.7-1.7v-8c-0.7,0.2-1.4,0.5-2,0.7s-1.2,0.4-1.6,0.6
		c-1.7,0.7-2.8,1.4-3.5,2.3C471.7,332,471.4,332.9,471.4,333.9z"/>
	<path class="st2" d="M522,341.2c-1.3,0-2.4-0.3-3.3-1c-0.8-0.7-1.4-1.6-1.7-2.8c-1.2,1.3-2.4,2.2-3.4,2.9c-1,0.7-2.3,1-3.9,1
		c-1.9,0-3.5-0.5-4.8-1.6c-1.3-1.1-1.9-2.7-1.9-4.7c0-1.1,0.3-2.1,0.8-3c0.5-0.9,1.4-1.8,2.7-2.6c1.3-0.8,3.2-1.6,5.6-2.4
		c0.7-0.2,1.4-0.5,2.3-0.7c0.8-0.2,1.7-0.5,2.6-0.7v-1.4c0-2.4-0.3-3.9-1-4.8c-0.7-0.8-1.8-1.2-3.5-1.2c-0.3,0-0.6,0-1,0
		c-0.4,0-0.7,0.1-1.1,0.2l-0.6,2.8c-0.1,1.2-0.5,2.1-1.1,2.7c-0.6,0.6-1.3,0.9-2.1,0.9c-1.6,0-2.6-0.8-2.8-2.3
		c0.3-2,1.4-3.6,3.3-4.8c1.9-1.2,4.3-1.8,7.4-1.8c2.9,0,5.1,0.7,6.4,2.1s2,3.7,2,7v11c0,1.5,0.5,2.3,1.5,2.3c0.6,0,1.2-0.4,1.8-1.1
		l1.2,1c-0.6,1.1-1.3,2-2.1,2.4C524.2,340.9,523.2,341.2,522,341.2z M508.9,333.9c0,1.3,0.3,2.3,1,2.8c0.7,0.6,1.5,0.9,2.5,0.9
		c0.6,0,1.1-0.1,1.7-0.4c0.6-0.3,1.5-0.8,2.7-1.7v-8c-0.7,0.2-1.4,0.5-2,0.7s-1.2,0.4-1.6,0.6c-1.7,0.7-2.8,1.4-3.5,2.3
		C509.2,332,508.9,332.9,508.9,333.9z"/>
	<path class="st2" d="M527.9,352.3v-2.1l3.4-0.7c0-1.5,0.1-2.9,0.1-4.3c0-1.4,0-2.7,0-4v-14.1c0-1.4,0-2.5,0-3.3
		c0-0.8-0.1-1.7-0.1-2.7l-3.5-0.5v-1.9l8.4-3.2l0.8,0.5l0.3,3.1c2.3-2.4,4.8-3.6,7.6-3.6c1.8,0,3.5,0.5,4.9,1.5
		c1.5,1,2.6,2.4,3.5,4.3c0.9,1.9,1.3,4.2,1.3,6.9c0,2.7-0.5,5-1.4,6.9c-1,1.9-2.2,3.4-3.8,4.5s-3.3,1.6-5.3,1.6
		c-1.2,0-2.4-0.2-3.5-0.7s-2.1-1.2-3.1-2.3v3c0,1.2,0,2.5,0,3.9c0,1.4,0,2.8,0.1,4.3l3.9,0.8v2.1H527.9z M542.4,319.3
		c-0.8,0-1.6,0.2-2.3,0.6c-0.8,0.4-1.6,0.9-2.5,1.6v14.3c1.4,1.3,2.9,2,4.5,2c1.7,0,3.1-0.7,4.3-2.2c1.2-1.5,1.7-3.8,1.7-6.9
		c0-3.1-0.5-5.4-1.6-7C545.4,320.1,544.1,319.3,542.4,319.3z"/>
	<path class="st2" d="M558.1,340.6v-2.1l3.2-0.6c0-1.3,0-2.6,0-4.1s0-2.7,0-3.8v-2.7c0-1.4,0-2.5,0-3.3c0-0.8-0.1-1.7-0.1-2.7
		l-3.5-0.5v-1.9l8.4-3.2l0.8,0.5l0.5,6c0.8-2.1,1.8-3.7,3.1-4.8s2.6-1.7,3.9-1.7c0.9,0,1.7,0.2,2.5,0.7c0.8,0.5,1.3,1.1,1.5,2
		c0,1.2-0.3,2.2-0.9,2.9c-0.6,0.7-1.4,1-2.4,1c-1.2,0-2.4-0.6-3.4-1.8l-0.5-0.5c-1.8,1.5-3.1,3.6-3.8,6.3v3.7c0,1,0,2.3,0,3.7
		s0,2.8,0,4l4.1,0.8v2.1L558.1,340.6L558.1,340.6z"/>
	<path class="st2" d="M591.7,341.3c-2.4,0-4.4-0.5-6.2-1.5c-1.8-1-3.2-2.5-4.2-4.4c-1-1.9-1.5-4.2-1.5-6.8c0-2.7,0.6-5,1.7-6.9
		c1.2-1.9,2.7-3.4,4.5-4.4c1.9-1,3.9-1.5,6-1.5c2,0,3.7,0.4,5.2,1.3c1.5,0.8,2.6,2,3.5,3.5c0.8,1.5,1.2,3.3,1.2,5.3
		c0,1.1-0.1,2-0.3,2.8h-15.4c0.1,2.9,0.9,5.1,2.3,6.5c1.4,1.4,3.2,2.2,5.3,2.2c1.5,0,2.7-0.3,3.8-0.9c1-0.6,2-1.4,2.8-2.3l1.5,1.3
		c-1,1.8-2.3,3.3-4,4.3C596.1,340.7,594.1,341.3,591.7,341.3z M591.7,318.1c-0.8,0-1.6,0.3-2.4,0.8c-0.8,0.5-1.5,1.4-2,2.5
		c-0.6,1.2-0.9,2.8-1,4.8h6.9c1.2,0,2-0.3,2.4-0.8c0.4-0.5,0.6-1.2,0.6-2.1c0-1.5-0.4-2.8-1.3-3.8C594,318.6,593,318.1,591.7,318.1z
		"/>
	<path class="st2" d="M605.7,340.6v-2.1l3.3-0.7c0-1.2,0-2.6,0-4.1s0-2.7,0-3.8v-2.7c0-1.4,0-2.5,0-3.3c0-0.8-0.1-1.7-0.1-2.7
		l-3.5-0.5v-1.9l8.4-3.2l0.8,0.5l0.4,3.9c2.6-2.9,5.4-4.4,8.6-4.4c2.2,0,3.9,0.7,5.1,2.2c1.2,1.4,1.8,3.7,1.8,6.9v5.2
		c0,1.1,0,2.4,0,3.9c0,1.4,0,2.8,0.1,4l3.1,0.6v2.1H621v-2.1l3.2-0.7c0-1.2,0-2.6,0-4c0-1.4,0-2.7,0-3.9v-4.8c0-2-0.3-3.4-0.8-4.1
		s-1.4-1.1-2.7-1.1c-1.8,0-3.7,0.8-5.6,2.5v7.6c0,1.1,0,2.4,0,3.8c0,1.4,0,2.8,0,4.1l3,0.6v2.1L605.7,340.6L605.7,340.6z"/>
	<path class="st2" d="M654.3,341.1l-0.4-3.2c-0.9,1.1-2,1.9-3.1,2.5s-2.5,0.9-3.9,0.9c-2,0-3.7-0.5-5.3-1.5s-2.7-2.5-3.6-4.3
		c-0.9-1.9-1.3-4.1-1.3-6.7c0-2.7,0.5-5,1.5-6.9c1-1.9,2.3-3.5,4-4.5c1.7-1.1,3.5-1.6,5.5-1.6c1.3,0,2.4,0.2,3.5,0.7
		c1,0.5,2,1.2,2.9,2.3v-10.4l-3.9-0.5v-2l9.2-2.3l0.8,0.5l-0.2,7.1v26.8l3.3,0.6v2.1L654.3,341.1z M643.1,328.6
		c0,3.1,0.6,5.3,1.7,6.8c1.2,1.5,2.6,2.2,4.4,2.2c0.9,0,1.7-0.2,2.4-0.5c0.7-0.4,1.4-0.9,2-1.5v-14.5c-1.5-1.3-2.9-1.9-4.4-1.9
		c-1.7,0-3.1,0.8-4.4,2.3C643.7,323,643.1,325.4,643.1,328.6z"/>
	<path class="st2" d="M677.8,341.3c-2.4,0-4.4-0.5-6.2-1.5c-1.8-1-3.2-2.5-4.2-4.4c-1-1.9-1.5-4.2-1.5-6.8c0-2.7,0.6-5,1.7-6.9
		c1.2-1.9,2.7-3.4,4.5-4.4c1.9-1,3.9-1.5,6-1.5c2,0,3.7,0.4,5.2,1.3c1.5,0.8,2.6,2,3.5,3.5c0.8,1.5,1.2,3.3,1.2,5.3
		c0,1.1-0.1,2-0.3,2.8h-15.4c0.1,2.9,0.9,5.1,2.3,6.5c1.4,1.4,3.2,2.2,5.3,2.2c1.5,0,2.7-0.3,3.8-0.9c1-0.6,2-1.4,2.8-2.3l1.5,1.3
		c-1,1.8-2.3,3.3-4,4.3C682.1,340.7,680.1,341.3,677.8,341.3z M677.8,318.1c-0.8,0-1.6,0.3-2.4,0.8c-0.8,0.5-1.5,1.4-2,2.5
		c-0.6,1.2-0.9,2.8-1,4.8h6.9c1.2,0,2-0.3,2.4-0.8c0.4-0.5,0.6-1.2,0.6-2.1c0-1.5-0.4-2.8-1.3-3.8
		C680.1,318.6,679,318.1,677.8,318.1z"/>
	<path class="st2" d="M691.7,340.6v-2.1l3.2-0.6c0-1.3,0-2.6,0-4.1s0-2.7,0-3.8v-2.7c0-1.4,0-2.5,0-3.3c0-0.8-0.1-1.7-0.1-2.7
		l-3.5-0.5v-1.9l8.4-3.2l0.8,0.5l0.5,6c0.8-2.1,1.8-3.7,3.1-4.8s2.6-1.7,3.9-1.7c0.9,0,1.7,0.2,2.5,0.7c0.8,0.5,1.3,1.1,1.5,2
		c0,1.2-0.3,2.2-0.9,2.9c-0.6,0.7-1.4,1-2.4,1c-1.2,0-2.4-0.6-3.4-1.8l-0.5-0.5c-1.8,1.5-3.1,3.6-3.8,6.3v3.7c0,1,0,2.3,0,3.7
		s0,2.8,0,4l4.1,0.8v2.1L691.7,340.6L691.7,340.6z"/>
</g>
<g class="st1">
	<path class="st2" d="M260.9,387.8c-2.4,0-4.4-0.5-6.2-1.5c-1.8-1-3.2-2.5-4.2-4.4s-1.5-4.2-1.5-6.8c0-2.7,0.6-5,1.7-6.9
		c1.2-1.9,2.7-3.4,4.5-4.4c1.9-1,3.9-1.5,6-1.5c2,0,3.7,0.4,5.2,1.3c1.5,0.8,2.6,2,3.5,3.5c0.8,1.5,1.2,3.3,1.2,5.3
		c0,1.1-0.1,2-0.3,2.8h-15.4c0.1,2.9,0.9,5.1,2.3,6.5c1.4,1.4,3.2,2.2,5.3,2.2c1.5,0,2.7-0.3,3.8-0.9c1-0.6,2-1.4,2.8-2.3l1.5,1.3
		c-1,1.8-2.3,3.3-4,4.3C265.2,387.3,263.2,387.8,260.9,387.8z M260.9,364.7c-0.8,0-1.6,0.3-2.4,0.8c-0.8,0.5-1.5,1.4-2,2.5
		c-0.6,1.2-0.9,2.8-1,4.8h6.9c1.2,0,2-0.3,2.4-0.8s0.6-1.2,0.6-2.1c0-1.5-0.4-2.8-1.3-3.8C263.2,365.1,262.1,364.7,260.9,364.7z"/>
	<path class="st2" d="M274.8,387.1V385l3.3-0.7c0-1.2,0-2.6,0-4.1s0-2.7,0-3.8v-2.7c0-1.4,0-2.5,0-3.3c0-0.8-0.1-1.7-0.1-2.7
		l-3.5-0.5v-1.9l8.4-3.2l0.8,0.5l0.4,3.9c2.6-2.9,5.4-4.4,8.6-4.4c2.2,0,3.9,0.7,5.1,2.2c1.2,1.4,1.8,3.7,1.8,6.9v5.2
		c0,1.1,0,2.4,0,3.9c0,1.4,0,2.8,0.1,4l3.1,0.6v2.1h-12.5V385l3.2-0.7c0-1.2,0-2.6,0-4c0-1.4,0-2.7,0-3.9v-4.8c0-2-0.3-3.4-0.8-4.1
		c-0.5-0.8-1.4-1.1-2.7-1.1c-1.8,0-3.7,0.8-5.6,2.5v7.6c0,1.1,0,2.4,0,3.8c0,1.4,0,2.8,0,4.1l3,0.6v2.1L274.8,387.1L274.8,387.1z"/>
	<path class="st2" d="M328.9,387.8c-2.3,0-4.3-0.5-6.2-1.5s-3.2-2.4-4.3-4.3c-1-1.9-1.5-4.2-1.5-6.9c0-2.7,0.6-5,1.7-7
		s2.7-3.4,4.6-4.4c1.9-1,4-1.5,6.3-1.5c1.6,0,3.1,0.3,4.5,0.9c1.3,0.6,2.4,1.5,3.2,2.5c0.8,1,1.3,2.2,1.5,3.5
		c-0.4,1.5-1.4,2.2-2.9,2.2c-1.9,0-3-1.2-3.3-3.5l-0.7-3c-0.3-0.1-0.6-0.1-0.9-0.2c-0.3,0-0.6,0-0.9,0c-1.2,0-2.3,0.3-3.4,1
		c-1,0.7-1.9,1.8-2.5,3.2c-0.6,1.4-1,3.3-1,5.5c0,3.1,0.7,5.4,2.1,7c1.4,1.6,3.2,2.4,5.5,2.4c1.3,0,2.6-0.3,3.6-0.9
		c1.1-0.6,2-1.4,2.7-2.5l1.5,1.1c-0.8,2.1-2.1,3.6-3.8,4.7C333.3,387.3,331.3,387.8,328.9,387.8z"/>
	<path class="st2" d="M354.2,387.8c-2.3,0-4.3-0.5-6.2-1.5c-1.8-1-3.3-2.5-4.4-4.4c-1.1-1.9-1.6-4.2-1.6-6.9c0-2.7,0.6-5,1.7-6.9
		c1.1-1.9,2.6-3.4,4.5-4.4c1.8-1,3.8-1.5,6-1.5s4.2,0.5,6,1.5s3.3,2.5,4.5,4.4c1.1,1.9,1.7,4.2,1.7,6.9c0,2.7-0.5,5-1.6,6.9
		c-1.1,1.9-2.6,3.4-4.4,4.4C358.5,387.3,356.5,387.8,354.2,387.8z M354.2,385.3c1.8,0,3.2-0.8,4.2-2.5s1.4-4.3,1.4-7.7
		c0-6.9-1.9-10.4-5.6-10.4c-3.7,0-5.5,3.5-5.5,10.4c0,3.5,0.5,6,1.4,7.7C351,384.5,352.4,385.3,354.2,385.3z"/>
	<path class="st2" d="M369.3,387.1V385l3.4-0.7c0-1.3,0.1-2.6,0.1-3.9c0-1.3,0-2.6,0-3.9v-21.6l-3.7-0.5v-2l9.2-2.3l0.8,0.5
		l-0.2,7.1v18.8c0,1.3,0,2.6,0,3.9s0,2.6,0.1,3.9l3.4,0.7v2.1H369.3z"/>
	<path class="st2" d="M397.3,387.8c-2.4,0-4.4-0.5-6.2-1.5c-1.8-1-3.2-2.5-4.2-4.4s-1.5-4.2-1.5-6.8c0-2.7,0.6-5,1.7-6.9
		c1.2-1.9,2.7-3.4,4.5-4.4c1.9-1,3.9-1.5,6-1.5c2,0,3.7,0.4,5.2,1.3c1.5,0.8,2.6,2,3.5,3.5c0.8,1.5,1.2,3.3,1.2,5.3
		c0,1.1-0.1,2-0.3,2.8h-15.4c0.1,2.9,0.9,5.1,2.3,6.5c1.4,1.4,3.2,2.2,5.3,2.2c1.5,0,2.7-0.3,3.8-0.9c1-0.6,2-1.4,2.8-2.3l1.5,1.3
		c-1,1.8-2.3,3.3-4,4.3C401.7,387.3,399.7,387.8,397.3,387.8z M397.3,364.7c-0.8,0-1.6,0.3-2.4,0.8c-0.8,0.5-1.5,1.4-2,2.5
		c-0.6,1.2-0.9,2.8-1,4.8h6.9c1.2,0,2-0.3,2.4-0.8s0.6-1.2,0.6-2.1c0-1.5-0.4-2.8-1.3-3.8C399.6,365.1,398.6,364.7,397.3,364.7z"/>
	<path class="st2" d="M423.3,387.8c-2.3,0-4.3-0.5-6.2-1.5c-1.8-1-3.2-2.4-4.3-4.3c-1-1.9-1.5-4.2-1.5-6.9c0-2.7,0.6-5,1.7-7
		c1.2-1.9,2.7-3.4,4.6-4.4c1.9-1,4-1.5,6.3-1.5c1.6,0,3.1,0.3,4.5,0.9c1.3,0.6,2.4,1.5,3.2,2.5c0.8,1,1.3,2.2,1.5,3.5
		c-0.4,1.5-1.4,2.2-2.9,2.2c-1.9,0-3-1.2-3.3-3.5l-0.7-3c-0.3-0.1-0.6-0.1-0.9-0.2c-0.3,0-0.6,0-0.9,0c-1.2,0-2.3,0.3-3.4,1
		c-1,0.7-1.9,1.8-2.5,3.2c-0.6,1.4-1,3.3-1,5.5c0,3.1,0.7,5.4,2.1,7c1.4,1.6,3.2,2.4,5.5,2.4c1.3,0,2.6-0.3,3.6-0.9
		c1.1-0.6,2-1.4,2.7-2.5l1.5,1.1c-0.8,2.1-2.1,3.6-3.8,4.7C427.7,387.3,425.6,387.8,423.3,387.8z"/>
	<path class="st2" d="M445.2,387.8c-2,0-3.6-0.5-4.7-1.5c-1.1-1-1.7-2.6-1.7-4.8c0-0.8,0-1.5,0-2.2s0-1.5,0-2.5V366h-3.7v-2.6
		l4.1-0.5l1.9-6.9h4.1l-0.2,7h6.1v3.1h-6.1v14.9c0,1.2,0.2,2.2,0.7,2.7s1.1,0.9,1.9,0.9c0.9,0,1.9-0.4,3.1-1.3l1.2,1.3
		c-0.6,1-1.5,1.9-2.6,2.4C448.1,387.5,446.8,387.8,445.2,387.8z"/>
	<path class="st2" d="M453.4,387.1V385l3.3-0.7c0-1.2,0.1-2.6,0.1-4.1s0-2.7,0-3.8v-2.4c0-1.4,0-2.5,0-3.5c0-0.9-0.1-1.9-0.1-2.9
		l-3.6-0.5v-1.9l9.1-3.2l0.8,0.5l-0.2,7.1v6.7c0,1.1,0,2.3,0,3.8s0,2.8,0,4.1l3.1,0.6v2.1L453.4,387.1L453.4,387.1z M459.7,357.6
		c-1.1,0-2-0.3-2.7-1c-0.7-0.7-1.1-1.5-1.1-2.6c0-1.1,0.4-1.9,1.1-2.6c0.7-0.7,1.6-1,2.7-1c1.1,0,2,0.3,2.7,1s1.1,1.5,1.1,2.6
		c0,1-0.4,1.9-1.1,2.6C461.7,357.2,460.8,357.6,459.7,357.6z"/>
	<path class="st2" d="M482.7,365.1v-2.1h9.6v2.1l-2.8,0.6l-8.3,21.6h-3l-9.1-21.8l-2.6-0.5v-2.1h13.3v2.1l-3.9,0.6l5.5,14.6l5-14.6
		L482.7,365.1z"/>
	<path class="st2" d="M505.5,387.8c-2.3,0-4.3-0.5-6.2-1.5c-1.8-1-3.3-2.5-4.4-4.4c-1.1-1.9-1.6-4.2-1.6-6.9c0-2.7,0.6-5,1.7-6.9
		c1.1-1.9,2.6-3.4,4.5-4.4c1.8-1,3.8-1.5,6-1.5c2.1,0,4.1,0.5,6,1.5c1.8,1,3.3,2.5,4.5,4.4s1.7,4.2,1.7,6.9c0,2.7-0.5,5-1.6,6.9
		c-1.1,1.9-2.6,3.4-4.4,4.4S507.8,387.8,505.5,387.8z M505.5,385.3c1.8,0,3.2-0.8,4.2-2.5s1.4-4.3,1.4-7.7c0-6.9-1.9-10.4-5.6-10.4
		c-3.7,0-5.5,3.5-5.5,10.4c0,3.5,0.5,6,1.4,7.7C502.3,384.5,503.7,385.3,505.5,385.3z"/>
	<path class="st2" d="M544.6,387.8c-2.3,0-4.3-0.5-6.2-1.5c-1.8-1-3.2-2.4-4.3-4.3c-1-1.9-1.5-4.2-1.5-6.9c0-2.7,0.6-5,1.7-7
		c1.2-1.9,2.7-3.4,4.6-4.4c1.9-1,4-1.5,6.3-1.5c1.6,0,3.1,0.3,4.5,0.9c1.3,0.6,2.4,1.5,3.2,2.5c0.8,1,1.3,2.2,1.5,3.5
		c-0.4,1.5-1.4,2.2-2.9,2.2c-1.9,0-3-1.2-3.3-3.5l-0.7-3c-0.3-0.1-0.6-0.1-0.9-0.2c-0.3,0-0.6,0-0.9,0c-1.2,0-2.3,0.3-3.4,1
		c-1,0.7-1.9,1.8-2.5,3.2c-0.6,1.4-1,3.3-1,5.5c0,3.1,0.7,5.4,2.1,7c1.4,1.6,3.2,2.4,5.5,2.4c1.3,0,2.6-0.3,3.6-0.9
		c1.1-0.6,2-1.4,2.7-2.5l1.5,1.1c-0.8,2.1-2.1,3.6-3.8,4.7C549,387.3,547,387.8,544.6,387.8z"/>
	<path class="st2" d="M569.9,387.8c-2.3,0-4.3-0.5-6.2-1.5c-1.8-1-3.3-2.5-4.4-4.4c-1.1-1.9-1.6-4.2-1.6-6.9c0-2.7,0.6-5,1.7-6.9
		c1.1-1.9,2.6-3.4,4.5-4.4c1.8-1,3.8-1.5,6-1.5c2.2,0,4.2,0.5,6,1.5c1.8,1,3.3,2.5,4.5,4.4s1.7,4.2,1.7,6.9c0,2.7-0.5,5-1.6,6.9
		c-1.1,1.9-2.6,3.4-4.4,4.4S572.2,387.8,569.9,387.8z M569.9,385.3c1.8,0,3.2-0.8,4.2-2.5s1.4-4.3,1.4-7.7c0-6.9-1.9-10.4-5.6-10.4
		c-3.7,0-5.5,3.5-5.5,10.4c0,3.5,0.5,6,1.4,7.7C566.7,384.5,568.1,385.3,569.9,385.3z"/>
	<path class="st2" d="M585.7,387.1V385l3.3-0.7c0-1.2,0-2.6,0-4.1s0-2.7,0-3.8v-2.7c0-1.4,0-2.5,0-3.3c0-0.8-0.1-1.7-0.1-2.7
		l-3.5-0.5v-1.9l8.4-3.2l0.8,0.5l0.4,3.9c2.6-2.9,5.4-4.4,8.6-4.4c2.2,0,3.9,0.7,5.1,2.2c1.2,1.4,1.8,3.7,1.8,6.9v5.2
		c0,1.1,0,2.4,0,3.9c0,1.4,0,2.8,0.1,4l3.1,0.6v2.1H601V385l3.2-0.7c0-1.2,0-2.6,0-4c0-1.4,0-2.7,0-3.9v-4.8c0-2-0.3-3.4-0.8-4.1
		s-1.4-1.1-2.7-1.1c-1.8,0-3.7,0.8-5.6,2.5v7.6c0,1.1,0,2.4,0,3.8c0,1.4,0,2.8,0,4.1l3,0.6v2.1L585.7,387.1L585.7,387.1z"/>
	<path class="st2" d="M627.4,387.1V385l3.4-0.7c0-1.3,0.1-2.6,0.1-3.9c0-1.3,0-2.6,0-3.9v-21.6l-3.7-0.5v-2l9.2-2.3l0.8,0.5
		l-0.2,7.1v18.8c0,1.3,0,2.6,0,3.9s0,2.6,0.1,3.9l3.4,0.7v2.1H627.4z"/>
	<path class="st2" d="M662.1,387.7c-1.3,0-2.4-0.3-3.3-1c-0.8-0.7-1.4-1.6-1.7-2.8c-1.2,1.3-2.4,2.2-3.4,2.9c-1,0.7-2.3,1-3.9,1
		c-1.9,0-3.5-0.5-4.8-1.6c-1.3-1.1-1.9-2.7-1.9-4.7c0-1.1,0.3-2.1,0.8-3c0.5-0.9,1.4-1.8,2.7-2.6c1.3-0.8,3.2-1.6,5.6-2.4
		c0.7-0.2,1.4-0.5,2.3-0.7c0.8-0.2,1.7-0.5,2.6-0.7v-1.4c0-2.4-0.3-3.9-1-4.8c-0.7-0.8-1.8-1.2-3.5-1.2c-0.3,0-0.6,0-1,0
		c-0.4,0-0.7,0.1-1.1,0.2l-0.6,2.8c-0.1,1.2-0.5,2.1-1.1,2.7c-0.6,0.6-1.3,0.9-2.1,0.9c-1.6,0-2.6-0.8-2.8-2.3
		c0.3-2,1.4-3.6,3.3-4.8c1.9-1.2,4.3-1.8,7.4-1.8c2.9,0,5.1,0.7,6.4,2.1s2,3.7,2,7v11c0,1.5,0.5,2.3,1.5,2.3c0.6,0,1.2-0.4,1.8-1.1
		l1.2,1c-0.6,1.1-1.3,2-2.1,2.4C664.3,387.5,663.3,387.7,662.1,387.7z M649,380.4c0,1.3,0.3,2.3,1,2.8c0.7,0.6,1.5,0.9,2.5,0.9
		c0.6,0,1.1-0.1,1.7-0.4c0.6-0.3,1.5-0.8,2.7-1.7v-8c-0.7,0.2-1.4,0.5-2,0.7s-1.2,0.4-1.6,0.6c-1.7,0.7-2.8,1.4-3.5,2.3
		C649.3,378.5,649,379.4,649,380.4z"/>
</g>
<g class="st1">
	<path class="st2" d="M278.4,434.4c-1.5,0-3-0.2-4.3-0.5c-1.3-0.4-2.6-0.9-3.9-1.6l0-5.8h3.4l0.9,4.7c1.2,0.5,2.5,0.8,3.9,0.8
		c1.7,0,3-0.3,3.8-0.9c0.8-0.6,1.3-1.4,1.3-2.5c0-0.9-0.3-1.7-1-2.3c-0.7-0.6-1.8-1.2-3.4-1.7l-2.5-0.9c-1.9-0.6-3.4-1.5-4.5-2.7
		c-1.1-1.2-1.6-2.7-1.6-4.4c0-1.4,0.4-2.7,1.1-3.9c0.7-1.2,1.8-2.1,3.3-2.8c1.4-0.7,3.2-1,5.2-1c1.4,0,2.8,0.2,4,0.5
		c1.2,0.4,2.4,0.9,3.6,1.5l-0.3,5.3H284l-0.9-4.2c-0.9-0.4-2-0.6-3.1-0.6c-1.3,0-2.4,0.3-3.1,0.9c-0.7,0.6-1.1,1.3-1.1,2.3
		c0,0.9,0.3,1.6,0.9,2.2c0.6,0.6,1.8,1.1,3.5,1.7l2,0.6c2.5,0.8,4.2,1.9,5.2,3.1c1,1.2,1.6,2.7,1.6,4.5c0,2.3-0.9,4.1-2.7,5.6
		C284.4,433.6,281.7,434.4,278.4,434.4z"/>
	<path class="st2" d="M304.6,434.4c-2.3,0-4.3-0.5-6.2-1.5c-1.8-1-3.3-2.5-4.4-4.4c-1.1-1.9-1.6-4.2-1.6-6.9c0-2.7,0.6-5,1.7-6.9
		c1.1-1.9,2.6-3.4,4.5-4.4c1.8-1,3.8-1.5,6-1.5s4.2,0.5,6,1.5c1.8,1,3.3,2.5,4.5,4.4c1.1,1.9,1.7,4.2,1.7,6.9c0,2.7-0.5,5-1.6,6.9
		c-1.1,1.9-2.6,3.4-4.4,4.4C308.9,433.8,306.9,434.4,304.6,434.4z M304.6,431.9c1.8,0,3.2-0.8,4.2-2.5c1-1.7,1.4-4.3,1.4-7.7
		c0-6.9-1.9-10.4-5.6-10.4c-3.7,0-5.5,3.5-5.5,10.4c0,3.5,0.5,6,1.4,7.7C301.4,431,302.8,431.9,304.6,431.9z"/>
	<path class="st2" d="M332.6,434.4c-2.3,0-4.3-0.5-6.2-1.5s-3.2-2.4-4.3-4.3c-1-1.9-1.5-4.2-1.5-6.9c0-2.7,0.6-5,1.7-7
		s2.7-3.4,4.6-4.4c1.9-1,4-1.5,6.3-1.5c1.6,0,3.1,0.3,4.5,0.9c1.3,0.6,2.4,1.5,3.2,2.5s1.3,2.2,1.5,3.5c-0.4,1.5-1.4,2.2-2.9,2.2
		c-1.9,0-3-1.2-3.3-3.5l-0.7-3c-0.3-0.1-0.6-0.1-0.9-0.2c-0.3,0-0.6-0.1-0.9-0.1c-1.2,0-2.3,0.3-3.4,1c-1,0.7-1.9,1.8-2.5,3.2
		c-0.6,1.4-1,3.3-1,5.5c0,3.1,0.7,5.4,2.1,7c1.4,1.6,3.2,2.4,5.5,2.4c1.3,0,2.6-0.3,3.6-0.9c1.1-0.6,2-1.4,2.7-2.5l1.5,1.1
		c-0.8,2-2.1,3.6-3.8,4.7C337,433.8,334.9,434.4,332.6,434.4z"/>
	<path class="st2" d="M345.7,433.6v-2.1l3.3-0.7c0-1.2,0-2.6,0-4.1c0-1.5,0-2.7,0-3.8v-2.4c0-1.4,0-2.5,0-3.5c0-0.9-0.1-1.9-0.1-2.9
		l-3.6-0.5V412l9.1-3.2l0.8,0.5l-0.2,7.1v6.7c0,1.1,0,2.3,0,3.8c0,1.5,0,2.8,0.1,4.1l3.1,0.6v2.1L345.7,433.6L345.7,433.6z
		 M352,404.1c-1.1,0-2-0.3-2.7-1c-0.7-0.7-1.1-1.5-1.1-2.6c0-1.1,0.4-1.9,1.1-2.6c0.7-0.7,1.6-1,2.7-1c1.1,0,2,0.3,2.7,1
		s1.1,1.5,1.1,2.6c0,1-0.4,1.9-1.1,2.6C354,403.8,353.1,404.1,352,404.1z"/>
	<path class="st2" d="M373.3,434.4c-2.4,0-4.4-0.5-6.2-1.5c-1.8-1-3.2-2.5-4.2-4.4c-1-1.9-1.5-4.2-1.5-6.8c0-2.7,0.6-5,1.7-6.9
		c1.2-1.9,2.7-3.4,4.5-4.4c1.9-1,3.9-1.5,6-1.5c2,0,3.7,0.4,5.2,1.3s2.6,2,3.5,3.5c0.8,1.5,1.2,3.3,1.2,5.3c0,1.1-0.1,2-0.3,2.8
		h-15.4c0.1,2.9,0.9,5.1,2.3,6.5c1.4,1.4,3.2,2.2,5.3,2.2c1.5,0,2.7-0.3,3.8-0.9c1-0.6,2-1.4,2.8-2.3l1.5,1.3c-1,1.8-2.3,3.3-4,4.3
		C377.7,433.8,375.6,434.4,373.3,434.4z M373.3,411.2c-0.8,0-1.6,0.3-2.4,0.8c-0.8,0.5-1.5,1.4-2,2.5s-0.9,2.8-1,4.8h6.9
		c1.2,0,2-0.3,2.4-0.8c0.4-0.5,0.6-1.2,0.6-2.1c0-1.5-0.4-2.8-1.3-3.8C375.6,411.7,374.5,411.2,373.3,411.2z"/>
	<path class="st2" d="M405,434.2l-0.4-3.2c-0.9,1.1-2,1.9-3.1,2.5c-1.1,0.6-2.5,0.9-3.9,0.9c-2,0-3.7-0.5-5.3-1.5
		c-1.5-1-2.7-2.5-3.6-4.3c-0.9-1.9-1.3-4.1-1.3-6.7c0-2.7,0.5-5,1.5-6.9c1-1.9,2.3-3.5,4-4.5s3.5-1.6,5.5-1.6c1.3,0,2.4,0.2,3.5,0.7
		c1,0.5,2,1.2,2.9,2.3v-10.4l-3.9-0.5v-2l9.2-2.3l0.8,0.5l-0.2,7.1V431l3.3,0.6v2.1L405,434.2z M393.8,421.7c0,3.1,0.6,5.3,1.7,6.8
		c1.2,1.5,2.6,2.2,4.4,2.2c0.9,0,1.7-0.2,2.4-0.5c0.7-0.4,1.4-0.9,2-1.5v-14.5c-1.5-1.3-2.9-1.9-4.4-1.9c-1.7,0-3.1,0.8-4.4,2.3
		S393.8,418.5,393.8,421.7z"/>
	<path class="st2" d="M435.2,434.2c-1.3,0-2.4-0.3-3.3-1c-0.8-0.7-1.4-1.6-1.7-2.8c-1.2,1.3-2.4,2.2-3.4,2.9c-1,0.7-2.3,1-3.9,1
		c-1.9,0-3.5-0.5-4.8-1.6c-1.3-1.1-1.9-2.7-1.9-4.7c0-1.1,0.3-2.1,0.8-3c0.5-0.9,1.4-1.8,2.7-2.6c1.3-0.8,3.2-1.6,5.6-2.4
		c0.7-0.2,1.4-0.5,2.3-0.7s1.7-0.5,2.6-0.7v-1.4c0-2.4-0.3-3.9-1-4.8c-0.7-0.8-1.8-1.2-3.5-1.2c-0.3,0-0.6,0-1,0.1s-0.7,0.1-1.1,0.2
		l-0.6,2.8c-0.1,1.2-0.5,2.1-1.1,2.7s-1.3,0.9-2.1,0.9c-1.6,0-2.6-0.8-2.8-2.3c0.3-2,1.4-3.6,3.3-4.8c1.9-1.2,4.3-1.8,7.4-1.8
		c2.9,0,5.1,0.7,6.4,2.1c1.3,1.4,2,3.7,2,7v11c0,1.5,0.5,2.3,1.5,2.3c0.6,0,1.2-0.4,1.8-1.1l1.2,1c-0.6,1.1-1.3,2-2.1,2.4
		C437.4,434,436.4,434.2,435.2,434.2z M422,426.9c0,1.3,0.3,2.3,1,2.8c0.7,0.6,1.5,0.9,2.5,0.9c0.6,0,1.1-0.1,1.7-0.4
		c0.6-0.3,1.5-0.8,2.7-1.7v-8c-0.7,0.2-1.4,0.5-2,0.7c-0.6,0.2-1.2,0.4-1.6,0.6c-1.7,0.7-2.8,1.4-3.5,2.3
		C422.4,425,422,426,422,426.9z"/>
	<path class="st2" d="M460,434.2l-0.4-3.2c-0.9,1.1-2,1.9-3.1,2.5s-2.5,0.9-3.9,0.9c-2,0-3.7-0.5-5.3-1.5s-2.7-2.5-3.6-4.3
		c-0.9-1.9-1.3-4.1-1.3-6.7c0-2.7,0.5-5,1.5-6.9c1-1.9,2.3-3.5,4-4.5c1.7-1.1,3.5-1.6,5.5-1.6c1.3,0,2.4,0.2,3.5,0.7s2,1.2,2.9,2.3
		v-10.4l-3.9-0.5v-2l9.2-2.3l0.8,0.5l-0.2,7.1V431l3.3,0.6v2.1L460,434.2z M448.8,421.7c0,3.1,0.6,5.3,1.7,6.8
		c1.2,1.5,2.6,2.2,4.4,2.2c0.9,0,1.7-0.2,2.4-0.5c0.7-0.4,1.4-0.9,2-1.5v-14.5c-1.5-1.3-2.9-1.9-4.4-1.9c-1.7,0-3.1,0.8-4.4,2.3
		C449.4,416.1,448.8,418.5,448.8,421.7z"/>
	<path class="st2" d="M494.7,434.4c-2.3,0-4.3-0.5-6.2-1.5c-1.8-1-3.2-2.4-4.3-4.3c-1-1.9-1.5-4.2-1.5-6.9c0-2.7,0.6-5,1.7-7
		c1.2-1.9,2.7-3.4,4.6-4.4c1.9-1,4-1.5,6.3-1.5c1.6,0,3.1,0.3,4.5,0.9s2.4,1.5,3.2,2.5c0.8,1,1.3,2.2,1.5,3.5
		c-0.4,1.5-1.4,2.2-2.9,2.2c-1.9,0-3-1.2-3.3-3.5l-0.7-3c-0.3-0.1-0.6-0.1-0.9-0.2s-0.6-0.1-0.9-0.1c-1.2,0-2.3,0.3-3.4,1
		c-1,0.7-1.9,1.8-2.5,3.2c-0.6,1.4-1,3.3-1,5.5c0,3.1,0.7,5.4,2.1,7c1.4,1.6,3.2,2.4,5.5,2.4c1.3,0,2.6-0.3,3.6-0.9
		c1.1-0.6,2-1.4,2.7-2.5l1.5,1.1c-0.8,2-2.1,3.6-3.8,4.7C499.1,433.8,497.1,434.4,494.7,434.4z"/>
	<path class="st2" d="M507.8,433.6v-2.1l3.3-0.7c0-1.2,0.1-2.6,0.1-4.1c0-1.5,0-2.7,0-3.8v-2.4c0-1.4,0-2.5,0-3.5
		c0-0.9-0.1-1.9-0.1-2.9l-3.6-0.5V412l9.1-3.2l0.8,0.5l-0.2,7.1v6.7c0,1.1,0,2.3,0,3.8c0,1.5,0,2.8,0,4.1l3.1,0.6v2.1L507.8,433.6
		L507.8,433.6z M514.2,404.1c-1.1,0-2-0.3-2.7-1c-0.7-0.7-1.1-1.5-1.1-2.6c0-1.1,0.4-1.9,1.1-2.6c0.7-0.7,1.6-1,2.7-1
		c1.1,0,2,0.3,2.7,1s1.1,1.5,1.1,2.6c0,1-0.4,1.9-1.1,2.6C516.1,403.8,515.2,404.1,514.2,404.1z"/>
	<path class="st2" d="M537.2,411.6v-2.1h9.6v2.1l-2.8,0.6l-8.3,21.6h-3l-9.1-21.8l-2.6-0.5v-2.1h13.3v2.1l-3.9,0.6l5.5,14.6l5-14.6
		L537.2,411.6z"/>
	<path class="st2" d="M548.8,433.6v-2.1l3.3-0.7c0-1.2,0.1-2.6,0.1-4.1c0-1.5,0-2.7,0-3.8v-2.4c0-1.4,0-2.5,0-3.5
		c0-0.9-0.1-1.9-0.1-2.9l-3.6-0.5V412l9.1-3.2l0.8,0.5l-0.2,7.1v6.7c0,1.1,0,2.3,0,3.8c0,1.5,0,2.8,0,4.1l3.1,0.6v2.1L548.8,433.6
		L548.8,433.6z M555.1,404.1c-1.1,0-2-0.3-2.7-1c-0.7-0.7-1.1-1.5-1.1-2.6c0-1.1,0.4-1.9,1.1-2.6c0.7-0.7,1.6-1,2.7-1
		c1.1,0,2,0.3,2.7,1s1.1,1.5,1.1,2.6c0,1-0.4,1.9-1.1,2.6C557.1,403.8,556.2,404.1,555.1,404.1z"/>
	<path class="st2" d="M563.9,433.6v-2.1l3.4-0.7c0-1.3,0.1-2.6,0.1-3.9c0-1.3,0-2.6,0-3.9v-21.6l-3.7-0.5v-2l9.2-2.3l0.8,0.5
		l-0.2,7.1v18.8c0,1.3,0,2.6,0,3.9c0,1.3,0,2.6,0.1,3.9l3.4,0.7v2.1L563.9,433.6L563.9,433.6z"/>
	<path class="st2" d="M603.3,434.4c-2.4,0-4.4-0.5-6.2-1.5c-1.8-1-3.2-2.5-4.2-4.4c-1-1.9-1.5-4.2-1.5-6.8c0-2.7,0.6-5,1.7-6.9
		c1.2-1.9,2.7-3.4,4.5-4.4c1.9-1,3.9-1.5,6-1.5c2,0,3.7,0.4,5.2,1.3s2.6,2,3.5,3.5c0.8,1.5,1.2,3.3,1.2,5.3c0,1.1-0.1,2-0.3,2.8
		h-15.4c0.1,2.9,0.9,5.1,2.3,6.5c1.4,1.4,3.2,2.2,5.3,2.2c1.5,0,2.7-0.3,3.8-0.9c1-0.6,2-1.4,2.8-2.3l1.5,1.3c-1,1.8-2.3,3.3-4,4.3
		C607.7,433.8,605.7,434.4,603.3,434.4z M603.3,411.2c-0.8,0-1.6,0.3-2.4,0.8c-0.8,0.5-1.5,1.4-2,2.5s-0.9,2.8-1,4.8h6.9
		c1.2,0,2-0.3,2.4-0.8c0.4-0.5,0.6-1.2,0.6-2.1c0-1.5-0.4-2.8-1.3-3.8C605.6,411.7,604.6,411.2,603.3,411.2z"/>
	<path class="st2" d="M617.2,433.6v-2.1l3.3-0.7c0-1.2,0-2.6,0-4.1c0-1.5,0-2.7,0-3.8v-2.7c0-1.4,0-2.5,0-3.3c0-0.8-0.1-1.7-0.1-2.7
		l-3.5-0.5V412l8.4-3.2l0.8,0.5l0.4,3.9c2.6-2.9,5.4-4.4,8.6-4.4c2.2,0,3.9,0.7,5.1,2.2s1.8,3.7,1.8,6.9v5.2c0,1.1,0,2.4,0,3.9
		s0,2.8,0.1,4l3.1,0.6v2.1h-12.5v-2.1l3.2-0.7c0-1.2,0-2.6,0-4c0-1.4,0-2.7,0-3.9v-4.8c0-2-0.3-3.4-0.8-4.1s-1.4-1.1-2.7-1.1
		c-1.8,0-3.7,0.8-5.6,2.5v7.6c0,1.1,0,2.4,0,3.8c0,1.4,0,2.8,0,4.1l3,0.6v2.1L617.2,433.6L617.2,433.6z"/>
</g>
<g class="st1">
	<path class="st2" d="M274.5,480.2v-2.4l4.1-0.6l10.5-30.7h4.1l10.5,30.9l3.4,0.4v2.3h-14.6v-2.3l4.4-0.6l-2.4-7.5h-11l-2.4,7.3
		l4.4,0.7v2.4H274.5z M289.3,453.3l-4.6,14h9.2L289.3,453.3z"/>
	<path class="st2" d="M309.6,480.2v-2.1l3.3-0.7c0-1.2,0-2.6,0-4.1c0-1.5,0-2.7,0-3.8v-2.7c0-1.4,0-2.5,0-3.3c0-0.8-0.1-1.7-0.1-2.7
		l-3.5-0.5v-1.9l8.4-3.2l0.8,0.5l0.4,3.9c1.2-1.4,2.5-2.5,4-3.3c1.4-0.8,2.9-1.2,4.5-1.2c3.3,0,5.4,1.5,6.3,4.6
		c1.3-1.6,2.7-2.8,4.2-3.5c1.4-0.7,2.9-1.1,4.5-1.1c2.3,0,4,0.7,5.1,2.1c1.1,1.4,1.7,3.7,1.7,6.8v5.4c0,1.1,0,2.4,0,3.9
		c0,1.4,0,2.8,0,4.1l3.1,0.6v2.1h-12.3v-2.1l3.1-0.7c0-1.2,0-2.6,0-4c0-1.4,0-2.7,0-3.9V465c0-2.1-0.3-3.5-0.8-4.3s-1.5-1.1-2.7-1.1
		c-1.8,0-3.6,0.9-5.5,2.6c0,0.3,0.1,0.7,0.1,1.1c0,0.4,0,0.8,0,1.2v5.2c0,1.1,0,2.4,0,3.9c0,1.4,0,2.8,0.1,4.1l3,0.6v2.1h-12.4v-2.1
		l3.2-0.7c0-1.2,0-2.6,0-4c0-1.4,0-2.7,0-3.9v-4.5c0-2.1-0.3-3.5-0.8-4.3c-0.5-0.8-1.4-1.2-2.7-1.2c-0.9,0-1.9,0.2-2.8,0.7
		c-0.9,0.5-1.8,1.1-2.7,1.8v7.5c0,1.1,0,2.4,0,3.8c0,1.4,0,2.8,0,4.1l3,0.6v2.1H309.6z"/>
	<path class="st2" d="M367.2,480.9c-2.4,0-4.4-0.5-6.2-1.5c-1.8-1-3.2-2.5-4.2-4.4c-1-1.9-1.5-4.2-1.5-6.8c0-2.7,0.6-5,1.7-6.9
		c1.2-1.9,2.7-3.4,4.5-4.4c1.9-1,3.9-1.5,6-1.5c2,0,3.7,0.4,5.2,1.3s2.6,2,3.5,3.5c0.8,1.5,1.2,3.3,1.2,5.3c0,1.1-0.1,2-0.3,2.8
		h-15.4c0.1,2.9,0.9,5.1,2.3,6.5c1.4,1.4,3.2,2.2,5.3,2.2c1.5,0,2.7-0.3,3.8-0.9c1-0.6,2-1.4,2.8-2.3l1.5,1.3c-1,1.8-2.3,3.3-4,4.3
		C371.6,480.4,369.6,480.9,367.2,480.9z M367.2,457.7c-0.8,0-1.6,0.3-2.4,0.8c-0.8,0.5-1.5,1.4-2,2.5s-0.9,2.8-1,4.8h6.9
		c1.2,0,2-0.3,2.4-0.8c0.4-0.5,0.6-1.2,0.6-2.1c0-1.5-0.4-2.8-1.3-3.8C369.5,458.2,368.5,457.7,367.2,457.7z M364.6,450.9
		c0.6-1,1.2-2,1.8-3.1c0.7-1.1,1.5-2.3,2.4-3.8c0.6-1,1.1-1.7,1.6-2c0.5-0.4,1.1-0.6,1.7-0.6c0.6,0,1.1,0.2,1.6,0.6s0.7,1,0.7,1.8
		c0,1-0.8,2.1-2.4,3.4c-1.2,1-2.3,1.9-3.2,2.7c-0.9,0.8-1.8,1.5-2.6,2.2L364.6,450.9z"/>
	<path class="st2" d="M381.2,480.2v-2.1l3.2-0.6c0-1.3,0-2.6,0-4.1c0-1.5,0-2.7,0-3.8v-2.7c0-1.4,0-2.5,0-3.3c0-0.8-0.1-1.7-0.1-2.7
		l-3.5-0.5v-1.9l8.4-3.2l0.8,0.5l0.5,6c0.8-2.1,1.8-3.7,3.1-4.8c1.3-1.1,2.6-1.7,3.9-1.7c0.9,0,1.7,0.2,2.5,0.7s1.3,1.1,1.5,2
		c0,1.2-0.3,2.2-0.9,2.9c-0.6,0.7-1.4,1-2.4,1c-1.2,0-2.4-0.6-3.4-1.8l-0.5-0.5c-1.8,1.5-3.1,3.6-3.8,6.3v3.7c0,1,0,2.3,0,3.7
		c0,1.4,0,2.8,0,4l4.1,0.8v2.1L381.2,480.2L381.2,480.2z"/>
	<path class="st2" d="M403.4,480.2v-2.1l3.3-0.7c0-1.2,0.1-2.6,0.1-4.1c0-1.5,0-2.7,0-3.8v-2.4c0-1.4,0-2.5,0-3.5
		c0-0.9-0.1-1.9-0.1-2.9l-3.6-0.5v-1.9l9.1-3.2l0.8,0.5l-0.2,7.1v6.7c0,1.1,0,2.3,0,3.8c0,1.5,0,2.8,0.1,4.1l3.1,0.6v2.1
		L403.4,480.2L403.4,480.2z M409.7,450.6c-1.1,0-2-0.3-2.7-1c-0.7-0.7-1.1-1.5-1.1-2.6c0-1.1,0.4-1.9,1.1-2.6c0.7-0.7,1.6-1,2.7-1
		s2,0.3,2.7,1c0.7,0.7,1.1,1.5,1.1,2.6c0,1-0.4,1.9-1.1,2.6C411.7,450.3,410.8,450.6,409.7,450.6z"/>
	<path class="st2" d="M431,480.9c-2.3,0-4.3-0.5-6.2-1.5c-1.8-1-3.2-2.4-4.3-4.3c-1-1.9-1.5-4.2-1.5-6.9c0-2.7,0.6-5,1.7-7
		c1.2-1.9,2.7-3.4,4.6-4.4c1.9-1,4-1.5,6.3-1.5c1.6,0,3.1,0.3,4.5,0.9s2.4,1.5,3.2,2.5c0.8,1,1.3,2.2,1.5,3.5
		c-0.4,1.5-1.4,2.2-2.9,2.2c-1.9,0-3-1.2-3.3-3.5l-0.7-3c-0.3-0.1-0.6-0.1-0.9-0.2s-0.6-0.1-0.9-0.1c-1.2,0-2.3,0.3-3.4,1
		c-1,0.7-1.9,1.8-2.5,3.2c-0.6,1.4-1,3.3-1,5.5c0,3.1,0.7,5.4,2.1,7c1.4,1.6,3.2,2.4,5.5,2.4c1.3,0,2.6-0.3,3.6-0.9
		c1.1-0.6,2-1.4,2.7-2.5l1.5,1.1c-0.8,2-2.1,3.6-3.8,4.7C435.4,480.4,433.4,480.9,431,480.9z"/>
	<path class="st2" d="M463.2,480.8c-1.3,0-2.4-0.3-3.3-1c-0.8-0.7-1.4-1.6-1.7-2.8c-1.2,1.3-2.4,2.2-3.4,2.9c-1,0.7-2.3,1-3.9,1
		c-1.9,0-3.5-0.5-4.8-1.6c-1.3-1.1-1.9-2.7-1.9-4.7c0-1.1,0.3-2.1,0.8-3c0.5-0.9,1.4-1.8,2.7-2.6c1.3-0.8,3.2-1.6,5.6-2.4
		c0.7-0.2,1.4-0.5,2.3-0.7s1.7-0.5,2.6-0.7v-1.4c0-2.4-0.3-3.9-1-4.8c-0.7-0.8-1.8-1.2-3.5-1.2c-0.3,0-0.6,0-1,0.1s-0.7,0.1-1.1,0.2
		l-0.6,2.8c-0.1,1.2-0.5,2.1-1.1,2.7s-1.3,0.9-2.1,0.9c-1.6,0-2.6-0.8-2.8-2.3c0.3-2,1.4-3.6,3.3-4.8c1.9-1.2,4.3-1.8,7.4-1.8
		c2.9,0,5.1,0.7,6.4,2.1c1.3,1.4,2,3.7,2,7v11c0,1.5,0.5,2.3,1.5,2.3c0.6,0,1.2-0.4,1.8-1.1l1.2,1c-0.6,1.1-1.3,2-2.1,2.4
		C465.4,480.5,464.4,480.8,463.2,480.8z M450.1,473.5c0,1.3,0.3,2.3,1,2.8c0.7,0.6,1.5,0.9,2.5,0.9c0.6,0,1.1-0.1,1.7-0.4
		c0.6-0.3,1.5-0.8,2.7-1.7v-8c-0.7,0.2-1.4,0.5-2,0.7c-0.6,0.2-1.2,0.4-1.6,0.6c-1.7,0.7-2.8,1.4-3.5,2.3
		C450.4,471.6,450.1,472.5,450.1,473.5z"/>
	<path class="st2" d="M481.8,449.1v-2.4h15.4v2.4l-4.4,0.5c0,2.1-0.1,4.2-0.1,6.3c0,2.1,0,4.3,0,6.4v3.1c0,1.8,0,3.7,0,5.7
		s0,4.1,0.1,6.3h10.2l1.4-7h3.5l-0.5,9.7h-25.6v-2.4l4.2-0.5c0.1-2.1,0.1-4.2,0.1-6.3c0-2.1,0-4.1,0-6v-2.7c0-2.2,0-4.3,0-6.5
		c0-2.1,0-4.2-0.1-6.3L481.8,449.1z"/>
	<path class="st2" d="M530.4,480.8c-1.3,0-2.4-0.3-3.3-1c-0.8-0.7-1.4-1.6-1.7-2.8c-1.2,1.3-2.4,2.2-3.4,2.9c-1,0.7-2.3,1-3.9,1
		c-1.9,0-3.5-0.5-4.8-1.6c-1.3-1.1-1.9-2.7-1.9-4.7c0-1.1,0.3-2.1,0.8-3c0.5-0.9,1.4-1.8,2.7-2.6c1.3-0.8,3.2-1.6,5.6-2.4
		c0.7-0.2,1.4-0.5,2.3-0.7s1.7-0.5,2.6-0.7v-1.4c0-2.4-0.3-3.9-1-4.8c-0.7-0.8-1.8-1.2-3.5-1.2c-0.3,0-0.6,0-1,0.1
		c-0.4,0-0.7,0.1-1.1,0.2l-0.6,2.8c-0.1,1.2-0.5,2.1-1.1,2.7s-1.3,0.9-2.1,0.9c-1.6,0-2.6-0.8-2.8-2.3c0.3-2,1.4-3.6,3.3-4.8
		c1.9-1.2,4.3-1.8,7.4-1.8c2.9,0,5.1,0.7,6.4,2.1c1.3,1.4,2,3.7,2,7v11c0,1.5,0.5,2.3,1.5,2.3c0.6,0,1.2-0.4,1.8-1.1l1.2,1
		c-0.6,1.1-1.3,2-2.1,2.4C532.6,480.5,531.6,480.8,530.4,480.8z M517.3,473.5c0,1.3,0.3,2.3,1,2.8c0.7,0.6,1.5,0.9,2.5,0.9
		c0.6,0,1.1-0.1,1.7-0.4c0.6-0.3,1.5-0.8,2.7-1.7v-8c-0.7,0.2-1.4,0.5-2,0.7c-0.6,0.2-1.2,0.4-1.6,0.6c-1.7,0.7-2.8,1.4-3.5,2.3
		C517.6,471.6,517.3,472.5,517.3,473.5z"/>
	<path class="st2" d="M546.3,480.9c-2,0-3.6-0.5-4.7-1.5c-1.1-1-1.7-2.6-1.7-4.8c0-0.8,0-1.5,0-2.2c0-0.7,0-1.5,0-2.5v-10.7h-3.7
		v-2.6l4.1-0.5l1.9-6.9h4.1l-0.2,7h6.1v3.1H546V474c0,1.2,0.2,2.2,0.7,2.7c0.5,0.6,1.1,0.9,1.9,0.9c0.9,0,1.9-0.4,3.1-1.3l1.2,1.3
		c-0.6,1-1.5,1.9-2.6,2.4S547.9,480.9,546.3,480.9z"/>
	<path class="st2" d="M554.5,480.2v-2.1l3.3-0.7c0-1.2,0.1-2.6,0.1-4.1c0-1.5,0-2.7,0-3.8v-2.4c0-1.4,0-2.5,0-3.5
		c0-0.9-0.1-1.9-0.1-2.9l-3.6-0.5v-1.9l9.1-3.2l0.8,0.5l-0.2,7.1v6.7c0,1.1,0,2.3,0,3.8c0,1.5,0,2.8,0,4.1l3.1,0.6v2.1L554.5,480.2
		L554.5,480.2z M560.9,450.6c-1.1,0-2-0.3-2.7-1c-0.7-0.7-1.1-1.5-1.1-2.6c0-1.1,0.4-1.9,1.1-2.6c0.7-0.7,1.6-1,2.7-1
		c1.1,0,2,0.3,2.7,1c0.7,0.7,1.1,1.5,1.1,2.6c0,1-0.4,1.9-1.1,2.6C562.8,450.3,561.9,450.6,560.9,450.6z"/>
	<path class="st2" d="M570.1,480.2v-2.1l3.3-0.7c0-1.2,0-2.6,0-4.1c0-1.5,0-2.7,0-3.8v-2.7c0-1.4,0-2.5,0-3.3c0-0.8-0.1-1.7-0.1-2.7
		l-3.5-0.5v-1.9l8.4-3.2l0.8,0.5l0.4,3.9c2.6-2.9,5.4-4.4,8.6-4.4c2.2,0,3.9,0.7,5.1,2.2s1.8,3.7,1.8,6.9v5.2c0,1.1,0,2.4,0,3.9
		s0,2.8,0.1,4l3.1,0.6v2.1h-12.5v-2.1l3.2-0.7c0-1.2,0-2.6,0-4c0-1.4,0-2.7,0-3.9v-4.8c0-2-0.3-3.4-0.8-4.1s-1.4-1.1-2.7-1.1
		c-1.8,0-3.7,0.8-5.6,2.5v7.6c0,1.1,0,2.4,0,3.8c0,1.4,0,2.8,0,4.1l3,0.6v2.1L570.1,480.2L570.1,480.2z"/>
	<path class="st2" d="M619.9,480.8c-1.3,0-2.4-0.3-3.3-1c-0.8-0.7-1.4-1.6-1.7-2.8c-1.2,1.3-2.4,2.2-3.4,2.9c-1,0.7-2.3,1-3.9,1
		c-1.9,0-3.5-0.5-4.8-1.6c-1.3-1.1-1.9-2.7-1.9-4.7c0-1.1,0.3-2.1,0.8-3c0.5-0.9,1.4-1.8,2.7-2.6c1.3-0.8,3.2-1.6,5.6-2.4
		c0.7-0.2,1.4-0.5,2.3-0.7s1.7-0.5,2.6-0.7v-1.4c0-2.4-0.3-3.9-1-4.8c-0.7-0.8-1.8-1.2-3.5-1.2c-0.3,0-0.6,0-1,0.1
		c-0.4,0-0.7,0.1-1.1,0.2l-0.6,2.8c-0.1,1.2-0.5,2.1-1.1,2.7s-1.3,0.9-2.1,0.9c-1.6,0-2.6-0.8-2.8-2.3c0.3-2,1.4-3.6,3.3-4.8
		c1.9-1.2,4.3-1.8,7.4-1.8c2.9,0,5.1,0.7,6.4,2.1c1.3,1.4,2,3.7,2,7v11c0,1.5,0.5,2.3,1.5,2.3c0.6,0,1.2-0.4,1.8-1.1l1.2,1
		c-0.6,1.1-1.3,2-2.1,2.4C622.1,480.5,621.1,480.8,619.9,480.8z M606.8,473.5c0,1.3,0.3,2.3,1,2.8c0.7,0.6,1.5,0.9,2.5,0.9
		c0.6,0,1.1-0.1,1.7-0.4c0.6-0.3,1.5-0.8,2.7-1.7v-8c-0.7,0.2-1.4,0.5-2,0.7c-0.6,0.2-1.2,0.4-1.6,0.6c-1.7,0.7-2.8,1.4-3.5,2.3
		C607.1,471.6,606.8,472.5,606.8,473.5z"/>
	<path class="st2" d="M632.8,480.9c-1.1,0-2.1-0.4-2.9-1.2c-0.8-0.8-1.2-1.7-1.2-2.8c0-1.1,0.4-2.1,1.2-2.9c0.8-0.8,1.7-1.2,2.9-1.2
		c1.1,0,2.1,0.4,2.9,1.2c0.8,0.8,1.2,1.8,1.2,2.9c0,1.1-0.4,2-1.2,2.8C634.9,480.5,633.9,480.9,632.8,480.9z"/>
</g>
<g>
	<path class="st3" d="M213.2,209.3c0.6-0.4,1.2-0.4,1.8-0.4c0.5,0,0.9,0.2,1.3,0.4c0.4,0.2,0.7,0,1,0.2c0.3,0.2,0.6,0.3,0.9,0.2
		c0.3,0,0.5,0.1,0.8,0.1c0.3,0.1,0.6,0.2,0.9,0.2c0.1,0,0.2,0.1,0.4,0.1c0.4,0.1,0.7,0.3,1.1,0.2c0.1,0,0.2,0.1,0.3,0.1
		c0.4,0.1,0.7,0.3,1.1,0.2c0.2,0,0.3,0,0.5,0.1c0.3,0.1,0.7,0.3,1,0.2c0.1,0,0.2,0.1,0.4,0.1c0.4,0.1,0.7,0.3,1.1,0.2
		c0.1,0,0.2,0.1,0.3,0.1c0.4,0.1,0.7,0.3,1.1,0.2c0.2,0,0.5,0.1,0.8,0.1c0-0.2,0-0.3-0.1-0.4c-0.5-1-1-2-1.5-3
		c-0.6-1.1-1.1-2.1-1.8-3.2c-0.5-0.8-0.8-1.7-1.3-2.6c-0.4-0.7-0.8-1.4-1.2-2.2c-0.4-1-1.1-1.9-1.5-3.2c0-0.3,0.1-0.8,0.1-1.3
		c1-1,1.5-1.2,2.5-1.2c0.3,0.2,0.5,0.3,0.8,0.4c0,0,0,0.1,0,0.1c0.4,0.4,0.6,0.9,0.9,1.4c0.7,1.2,1.3,2.3,1.9,3.5
		c0.3,0.6,0.5,1.2,0.8,1.7c0.3,0.6,0.6,1.1,0.9,1.7c0.4,0.7,0.7,1.5,1.2,2.1c0.1,0.2,0.1,0.4,0.2,0.5c0.6,0.9,1,1.8,1.5,2.7
		c0.4,0.7,0.7,1.4,1,2.1c0.2,0.5,0.5,1,0.8,1.6c0.1-0.3,0.3-0.6,0.3-0.8c0-0.4,0.2-0.8,0.3-1.1c0.1-0.4,0.2-0.7,0.4-1
		c0.2-0.3,0.3-0.7,0.3-1.1c0.1-0.4,0.2-0.7,0.4-1c0.2-0.3,0.3-0.8,0.4-1.2c0.1-0.4,0.3-0.9,0.4-1.3c0.1,0,0.2,0,0.2,0
		c0.2-0.5,0.3-1,0.4-1.5c0.1-0.3,0.2-0.6,0.3-0.8c0.1-0.2,0.3-0.4,0.4-0.7c0.1-0.5,0.3-0.9,0.4-1.3c0.1-0.4,0.4-0.7,0.5-1.1
		c0.1-0.4,0.2-0.7,0.4-1.1c0.1-0.4,0.4-0.6,0.8-0.8c0.2-0.1,0.3-0.2,0.7-0.4c0.4,0,1,0.1,1.6,0.1c0.2,0.3,0.5,0.6,0.8,0.9
		c0.2,0.3-0.1,0.7,0.2,1c-0.1,0.5-0.3,1-0.4,1.4c-0.2,0.6-0.4,1.2-0.6,1.7c-0.2,0.4-0.3,0.8-0.4,1.3c-0.1,0.3-0.2,0.5-0.2,0.8
		c-0.1,0.2-0.4,0.3-0.3,0.7c-0.3,0.7-0.5,1.4-0.7,2.2c-0.1,0-0.1,0-0.2,0c-0.1,0.5-0.2,1-0.4,1.4c-0.1,0.4-0.2,0.8-0.5,1.2
		c-0.2,0.3-0.2,0.8-0.3,1.1c-0.2,0.5-0.5,1.1-0.7,1.6c-0.1,0.3-0.2,0.6-0.3,1c0.7,0,1.2-0.6,1.9-0.5c0.1-0.1,0.2-0.2,0.2-0.3
		c0.4-0.1,0.8-0.1,1-0.2c0.6-0.4,1.3-0.6,2-0.8c0.5-0.2,1.1-0.4,1.7-0.6c0.5-0.2,1.1-0.3,1.6-0.6c0.5-0.2,1-0.4,1.5-0.6
		c0.2-0.1,0.4-0.2,0.7-0.3c0.6-0.1,1.2-0.4,1.7-0.6c0.9-0.4,1.8-0.7,2.8-1c0.4-0.1,0.8-0.4,1.3-0.3c0.3,0.1,0.5,0.1,0.8,0.2
		c0.2,0.2,0.4,0.4,0.7,0.7c0.1,0.4,0.1,0.7,0.2,1c0,0.3,0,0.7,0,1.1c-0.1,0-0.2,0.1-0.2,0.2c-0.2,0.8-0.9,1-1.5,1.3
		c-0.5,0.2-1,0.4-1.6,0.6c-0.7,0.3-1.4,0.5-2.1,0.8c-0.7,0.2-1.4,0.4-2,0.7c-0.8,0.4-1.7,0.6-2.5,0.9c-0.2,0.1-0.4,0.1-0.7,0.3
		c0.5,0.1,0.8,0.3,1.2,0.2c0.1,0,0.2,0.1,0.3,0.1c0.3,0,0.7,0.2,1,0.2c0.2,0,0.3,0.1,0.5,0.1c0.7,0.2,1.4,0.1,2,0.5
		c1-0.1,1.8,0.5,2.7,0.5c0.6,0.4,1.5,0.2,2.1,0.6c0.2,0.1,0.5,0,0.8,0c0.3,0.3,0.6,0.5,0.9,0.7c0.2,0.2,0.3,0.4,0.3,0.7
		c0.1,0.4,0,0.7,0,1c-0.2,0.5-0.4,0.9-0.6,1.2c-0.2,0.4-0.7,0.5-1.1,0.7c-0.2,0-0.5,0-0.8,0c-0.3,0-0.5-0.1-0.8-0.1
		c-0.3-0.1-0.6-0.2-0.9-0.2c-0.1,0-0.3-0.1-0.4-0.1c-0.4,0-0.7-0.3-1-0.2c-0.1,0-0.2-0.1-0.4-0.1c-0.4-0.1-0.7-0.3-1.1-0.2
		c-0.5,0.1-0.9-0.2-1.3-0.3c-0.6-0.2-1.2-0.2-1.8-0.4c-0.3-0.1-0.7-0.1-1-0.2c-0.6-0.2-1.3-0.1-1.8-0.5c-0.7,0.1-1.3-0.4-2-0.3
		c-0.2,0-0.4-0.1-0.6-0.2c-0.6-0.2-1.3-0.1-1.8-0.5c-0.9,0.1-1.7-0.6-2.6-0.3c0,0.1,0,0.3,0.1,0.4c0.5,1.1,1,2.3,1.6,3.4
		c0.5,0.9,1,1.7,1.4,2.6c0.9,1.6,1.7,3.2,2.5,4.9c0.2,0.5,0.4,1,0.6,1.5c0.4,0.7,0.8,1.4,1.2,2c0.3,0.5,0.5,1,0.7,1.5
		c0.1,0.4-0.1,0.8-0.1,1.1c-0.2,0.3-0.6,0.5-0.8,0.9c-1,0.5-1.4,0.4-2.7,0.1c-0.4-0.8-0.9-1.5-1.3-2.3c-0.5-0.8-0.9-1.7-1.3-2.6
		c-0.4-0.8-0.9-1.7-1.4-2.5c-0.3-0.5-0.4-1.1-0.7-1.5c-0.5-0.9-1-1.9-1.6-2.8c-0.3-0.5-0.5-1.1-0.8-1.6c-0.2-0.2-0.1-0.5-0.2-0.8
		c-0.4,0.4-0.2,0.9-0.5,1.3c0,0-0.1,0-0.1,0c0,0-0.1,0.1-0.1,0.1c0,0.5-0.3,0.9-0.4,1.4c-0.1,0.3-0.1,0.6-0.3,0.8
		c-0.1,0.2-0.3,0.4-0.4,0.7c-0.1,0.4-0.3,0.8-0.4,1.2c-0.1,0.4-0.4,0.6-0.4,1c0,0.3-0.2,0.7-0.3,1c-0.1,0.2-0.1,0.4-0.1,0.4
		c-0.2,0.4-0.3,0.6-0.5,0.9c0,0-0.2,0-0.2,0.1c-0.3,0.6-0.9,0.6-1.4,0.7c-0.3,0-0.6,0-0.9,0c-0.1-0.1-0.3-0.2-0.4-0.3
		c-0.8-0.5-1.1-1.3-0.8-2.3c0-0.2,0-0.4,0.1-0.5c0.1,0,0.2,0,0.2,0c0.2-0.8,0.4-1.7,0.9-2.5c0.2-0.4,0.3-0.8,0.4-1.3
		c0.1-0.5,0.4-0.9,0.6-1.4c0.3-0.7,0.5-1.5,0.7-2.2c0.1,0,0.1,0,0.2,0c0.1-0.4,0.1-0.7,0.2-1.2c-0.6,0.4-1.3,0.4-1.9,0.7
		c-0.6,0.3-1.3,0.4-1.9,0.8c-0.4-0.2-0.7,0.3-1,0.3c-0.4,0-0.7,0.2-1.1,0.3c-0.4,0.1-0.7,0.3-1.1,0.4c-0.4,0.1-0.7,0.3-1.1,0.5
		c-0.8,0.4-1.7,0.6-2.5,0.9c-0.4,0.2-0.9,0.3-1.3,0.5c-0.4,0.2-0.8,0.4-1.3,0.5c-0.5,0.1-0.9,0.4-1.5,0.5c-0.6,0.2-1.1,0.4-1.7,0.1
		c-0.2-0.1-0.4-0.2-0.6-0.4c-0.1-0.2-0.2-0.4-0.4-0.7c-0.1-0.2,0.1-0.6-0.1-0.9c0.1-0.3,0.1-0.6,0.2-1c0,0,0.1,0,0.2-0.1
		c0.1-0.2,0-0.4,0.2-0.6c0.1-0.2,0.5-0.1,0.5-0.4c0-0.1,0.3-0.2,0.5-0.2c0.2-0.1,0.4-0.1,0.6-0.2c0.4-0.1,0.7-0.3,1.1-0.4
		c0.9-0.4,1.8-0.7,2.8-1c0.6-0.2,1.2-0.4,1.7-0.7c0.4-0.2,0.8-0.3,1.2-0.4c0.4-0.2,0.8-0.4,1.2-0.4c0.5,0,0.7-0.3,1.1-0.4
		c0.9-0.3,1.7-0.6,2.6-0.9c0.7-0.2,1.3-0.5,2-0.7c0.1,0,0.2-0.1,0.4-0.3c-0.6,0-1-0.3-1.4-0.2c-0.1,0-0.2-0.1-0.3-0.1
		c-0.4,0-0.7-0.3-1-0.2c-0.2,0-0.3-0.1-0.4-0.1c-0.5-0.1-1-0.2-1.5-0.3c-0.8-0.1-1.6-0.3-2.3-0.5c-0.1,0-0.2-0.1-0.3-0.1
		c-0.4,0.1-0.7-0.1-1-0.2c-0.6-0.2-1.3-0.1-1.8-0.5c-0.7,0.1-1.3-0.4-2-0.3c-0.2,0-0.4-0.1-0.6-0.2c-0.6-0.2-1.2-0.1-1.8-0.4
		c-0.3-0.2-0.7,0-1.1-0.2c-0.4-0.2-0.9-0.4-1.1-0.9c-0.2-0.5-0.2-0.8-0.1-1.4c0.1-0.6,0.4-1,0.8-1.4
		C213.1,209.4,213.1,209.3,213.2,209.3z"/>
</g>
</svg>
