<?xml version="1.0" encoding="utf-8"?>
<!-- Generator: Adobe Illustrator 25.3.1, SVG Export Plug-In . SVG Version: 6.00 Build 0)  -->
<svg version="1.1" id="Layer_1" xmlns="http://www.w3.org/2000/svg" xmlns:xlink="http://www.w3.org/1999/xlink" x="0px" y="0px"
	 viewBox="0 0 1190.6 1133.9" style="enable-background:new 0 0 1190.6 1133.9;" xml:space="preserve">
<style type="text/css">
	.st0{fill:#0136F5;}
	.st1{fill:#E95846;}
	.st2{fill:none;}
	.st3{enable-background:new    ;}
	.st4{fill:#FFFFFF;}
</style>
<path class="st0" d="M137.1,985.8c-0.5-2.2-0.8-3.8-1-4.8c-5.7-2.8-11.2-5.6-19.2-9.6c-1.9,0.3-6.8,1.1-11.2,1.7
	c-9.1-2.1-18.4-4.3-29.8-6.9c-3.9-10.6-23.6-3.6-27.4-19.9c-13.5,3.2-21.9-9.2-34.2-10.9c-0.4-3.5-0.7-6.3-1-9.1
	c-2.2-0.9-4.3-1.7-6.3-2.5c-0.4-2.9-0.7-5.8-1.1-9.4c-2,1.2-3.6,2.1-5.9,3.3V101.3c7.2,1,13.8,1.9,23.4,3.1c-0.9,0.6,1-0.6,3.2-2
	c8.7,2,17.9,4,28.4,6.4c0.7-0.5,2.5-1.9,4.9-3.7c4.1,2.1,8.6,4.4,15,7.6c2.5,0,7.3,0.1,12,0c11.1-0.4,21.3,2.3,32,5.3
	c18.2,5.2,35.2,13.9,53.6,18.5c5.9,1.5,10,1.9,12.4-2c9.4,3.1,17.3,5.8,25.5,8.5c3,3.6,5.9,10.4,10.5,11.8
	c9.1,2.9,18.6,7.5,28.5,3.4c7.1,16.2,29.3,12,36.8,29.1c11,3.6,24.5,6.1,36.2,12.2c23.7,12.5,23.3,13.3,39.2,13.3
	c2.1,2.1,4.2,4.2,6.8,6.7c1.6-1,3.3-2.1,6.1-3.8c2.7,2.3,5.8,4.9,9.1,7.7c11.8,1.6,23.5-1.6,34.6-6.2c6-2.4,12.1,0,18.6-3
	c10.5-4.9,22.7-5.9,34.2-8.6c0.6-0.1,1.4,0.2,1.8-0.1c20-13.6,44.7-13.6,66.2-22.7c4.1-1.8,7.8-1.7,11.6-2.3
	c9.5-1.6,19.1-3.2,28.6-5c1-0.2,1.8-1.4,2.7-2.2c12.5,4.8,30.4,5,42.3,0.6c3.6,4.7,7.3,9.4,11,14.2c7.4-1.5,14-8.5,21.2-1.2
	c6.8-1.4,13.1,5.7,20.2,0.9c1.7-1.1,5.3-1.1,7,0c8.7,5.3,18.3,3.7,27.4,3.2c10.1-0.6,19.5,2.3,29.2,3.8c8.9,1.3,17.4,3.8,25.9,6.9
	c7.9,2.9,16.6,3.5,23.3,4.8c11,11.7,26,13.9,38.3,19.9c12.7,6.2,28.1,7.1,43.4,10.5c1.4-2.1,3.5-5.3,6.3-9.4h14.5
	c1.6,4.6,3.2,9.3,5.1,14.8c-0.8,1.1-2.1,2.9-3.9,5.4c6.8,1.9,13.2,3.7,21.2,6c1.3,2.8,3.3,7.3,5.5,12c10.5,4.4,21.9,7.3,31.5,14.8
	c4.1,3.2,10.5,3.5,16.9,5.5c2.2,3.4,6,7.7,8,12.8c1.9,4.9,10.4,3.2,9,10.3c7.5,0.2,7.8,10.4,14.9,10.9c7.6,0.5,6,12.4,14.8,11.7
	c0.6-0.1,1.6,3.8,2.3,5.8c3,0.4,5.9,0.7,8.2,1c7.3,16.6,12.2,34.2,30.2,43.2v13.4c5.6,5.5,9.7,9.4,13.7,13.4
	c1.5-1.5,3.7-3.6,6.6-6.5c3,7.9,4.5,16.4,9,22.7c5,7.1,0,18.4,10.5,22.6c-1,9.2,6.7,15.1,8.6,23.1h7.7c0.6,1,1.8,2.1,1.7,2.9
	c-2.5,10.2,3.9,19.1,3.8,28.9c0,1.5,1,3.6,2.3,4.3c6.5,3.9,4.3,10.3,5,15.8c2.2,2.2,4.3,4.3,7.1,7V544c2.7,1,4.8,1.8,7.2,2.7
	c0.5,15.4-2.5,31.3,7.5,44.4c-2.7,6.9-5.1,13.1-7.5,19.5c1.2,1.7,2.4,3.6,2.8,4.1c-1,6.7-2.4,12.2-2.6,17.7
	c-0.3,13.7,0.1,27.4-0.2,41.1c-0.1,3.8-1.8,7.5-3,12.2c1.4,3.4,6,7.5,1.9,12.9c-3.7,4.8-3.4,9.3,2.4,14.2h-9.5
	c-1.1,1.6-2.4,2.6-2.3,3.4c1.1,8.4-3.5,15.3-5.9,22.7c-1.9,5.8-2.6,11.1,1.8,16.2c-2.5,3.2-5.4,6.9-10.2,13
	c0.5,1.6,1.8,6.3,3.2,11.2c-3.2,3.6-11.6,2.9-10.5,11.3c2.2,1.1,4.7,2.2,7.7,3.6c-4.6,7.8-9.1,15.4-13.5,22.9
	c-1.5,0.4-3.2,0.8-4.9,1.2v8.7l-11.1,9.2v16.1h-8.2c-4.1,11.7-10,19.1-24.3,35.1c-7.2,8-13.6,16.8-20.4,25.4c-1-0.6-3.3-1.9-7-4
	c-0.7,4.6-1.2,7.8-1.8,11.7h-7.1c-13.6,15.8-32.5,23.8-43.6,39.6c-4.7,0.3-8.7,0.5-14,0.8c1.5,2,2.4,3.2,3.5,4.7
	c-7.3,3-14.6,6.1-22,9.2c-5.1-1.3-10.4-2.8-15.5-4.1c-1.2,3.3-2,5.4-2.9,7.8c-5-1.5-9.7-2.9-14.9-4.5c-2.5,3.8-4.7,7-7.5,11.2h-12.3
	c-13,6.3-25.3,12.8-38.1,18.1c-4.1,1.7-9.5,0.3-14.1,0.3c-2.2,2.2-4.4,4.3-7.1,7.1h-11.2c-10.8,4.4-18,7.3-25.5,10.3
	c-3.1-2.3-6.8-5.1-11.6-8.7c-4.3,2.2-10.5,5.4-18,9.2h-28c-2,2.9-4.2,6.1-7.5,10.8c-10.4-2.4-22.1,7.3-34.9-1.3
	c-2.4,3.5-4.4,6.4-6.2,9c-23.1-3.3-44.8,9-67.3,0.6c-0.4,1.1-1.1,3.2-2.2,6.3c-8.6-1.7-18.2,3.3-26.7-3.6c-1.1-0.9-3.6-0.4-5.3-0.1
	c-5.5,1.1-11,2.5-16.5,3.5c-5.6,1-11.4-1.5-16.9,3c-2.5,2.1-8.1,0.2-12.2,0.7c-5.6,0.6-12.1-2.7-16.5,3.5
	c-8.5-1.2-17.9-0.7-25.1-4.3c-5.4-2.7-10.1-2.6-15.1-2.7c-18.5-0.4-37.2,1.6-54.8-6.9c-2.7-1.3-7.4,1.6-12.2,2.8
	c-1.9-0.7-5-3-8.1-2.9c-17.5,0.5-33.6-4.1-50-9.8c-13.5-4.7-28.3-7-43.4-3.8c-2.5-3.1-4.7-5.9-6.3-8H294l-6.8-6.8
	c-23.6-2.8-47.7-5.6-73.8-8.7c-0.9-1.1-3.1-3.9-5.2-6.5c-10.4,2.5-19.1-1.3-27.4-4.7c-9.8-4-19.6-6.3-30.2-5.5
	C145.7,986,141.6,985.8,137.1,985.8L137.1,985.8z"/>
<path class="st1" d="M143.9,356.4c-0.1-0.5-0.3-1.1-0.5-1.5c-0.9-1.3-1.6-2.7-2.1-4.2c-0.1-0.2-0.2-0.3-0.3-0.5
	c-1-1.6-1.8-3.3-2.7-4.9c-0.9-1.8-2.2-3.5-2.8-5.5c-0.4-1.2-1.2-2.2-1.8-3.4c-0.8-1.4-1.5-2.9-2.2-4.3s-1.4-2.9-2.2-4.5
	c0-1.1-0.2-2.5,0.9-3.5c1.7-1.4,2.8-2.1,4.8-1.9c0.1,0.1,0.2,0.5,0.5,0.6c1,0.4,1.5,1.2,2,2c0.9,1.7,1.9,3.5,2.9,5.1
	c0.8,1.3,1.3,2.8,1.9,4.3c0.9,2,1.8,4,2.9,5.9c1.5,2.5,2.8,5.1,4.3,7.6c1.1,2,2.2,4,3,6.2c0.4,1.2,1.1,2.3,1.7,3.4
	c0.1,0.2,0.3,0.3,0.6,0.6c0.2-0.7,0.5-1.1,0.5-1.6c0-1.2,0.9-2.2,1-3.4c0.9-1.1,1-2.4,1.4-3.7c0.5-1.4,1.2-2.7,1.5-4.1
	c0.2-0.8,0.4-1.5,0.6-2.2c0.2,0,0.3-0.1,0.3-0.1c0.4-1.4,0.9-2.7,1.2-4c0.2-0.8,0.8-1.3,0.9-2.2c0.1-0.8,0.6-1.6,0.7-2.4
	c0.1-0.6,0.6-1,0.8-1.6c0.2-0.5,0.2-1.1,0.5-1.5c0.3-0.5-0.1-1,0.4-1.4c0.4-0.3,0.6-1,1-1.3c0.6-0.4,1.3-0.8,1.9-1
	c0.8-0.2,1.7-0.3,2.5,0.1c0.2,0.1,0.4,0.1,0.8,0.1c0.2,0.2,0.5,0.5,0.8,0.9s0.5,0.7,0.8,1.1v1.9c0,0.3-0.1,0.6-0.2,0.9
	c-0.4,1-0.7,2-0.9,3.1s-0.9,1.9-1.2,3c-0.2,0.8-0.4,1.6-0.7,2.4c-0.2,0.7-0.8,1.2-0.9,2c-0.1,0.6-0.5,1.3-0.6,1.9
	c-0.2,0.8-0.5,1.5-0.7,2.3c-0.1,0-0.2,0.1-0.4,0.1c0,0.1-0.1,0.2-0.1,0.3c0.1,0.7-0.2,1.3-0.5,1.9c-0.4,1.1-0.6,2.3-1.3,3.3
	c-0.4,0.6-0.4,1.4-0.6,2.1c-0.3,1.1-0.9,2.2-1.3,3.2c-0.2,0.5-0.3,1.1-0.6,1.9c0.7-0.1,1.4-0.1,1.8-0.4c1.2-0.7,2.5-0.9,3.7-1.4
	c1.7-0.7,3.4-1.3,5.1-1.9c1.5-0.6,3.1-1,4.7-1.7c1.5-0.6,3.1-1.2,4.6-1.8c1.3-0.5,2.6-0.8,3.9-1.3c0.7-0.2,1.3-0.6,2-0.9
	s1.4-0.4,2.1-0.7c1.2-0.6,2.6-0.9,3.9-1.3c0.8-0.2,1.6,0,2.5,0.4l1.2,1.2c0.1,0.7,0.3,1.4,0.4,2.1s0,1.4,0,2.2
	c-0.2,0.1-0.4,0.3-0.6,0.4c0,0.4,0,0.7-0.1,1c-1.2,0.6-2.3,1.4-3.5,1.8c-1.6,0.5-3,1.3-4.6,1.8c-0.6,0.2-1.3,0.4-2,0.6
	c-1.3,0.4-2.7,1-4,1.5c-1.6,0.7-3.3,1.1-5,1.8c-0.4,0.2-0.8,0.3-1.3,0.5c0.9,0.3,1.6,0.6,2.5,0.5c0.2,0,0.4,0.2,0.5,0.2
	c0.7,0.1,1.3,0.5,2,0.4c0.3,0,0.6,0.2,0.8,0.2c0.7,0.1,1.4,0.5,2.2,0.4c0.3-0.1,0.7,0.2,1,0.2c0.7,0.1,1.3,0.4,2.1,0.4
	s1.7,0.3,2.4,0.7c0.7,0.4,1.5,0,2.1,0.3c0.6,0.2,1.3,0.6,2,0.6c0.5,0,1,0,1.5,0.3c0.3,0.2,0.7,0.3,1.1,0.3c0.4,0.1,0.8,0,1.2,0
	c0.6,0.4,1.1,0.7,1.5,1.2c0.4,0.4,0.6,1,0.9,1.6v2.4c-0.4,0.6-0.9,1.1-1.2,1.7c-0.6,1.2-1.6,1.6-2.8,1.6c-1.1,0-2.2-0.1-3.3-0.5
	c-1.1-0.3-2.2-0.6-3.3-0.8c-0.6-0.1-1.3-0.2-1.9-0.4c-1.5-0.4-3.1-0.5-4.6-1.2c-0.3-0.2-0.8,0-1.2-0.1s-0.8-0.2-1.1-0.3
	c-1.2-0.2-2.4-0.5-3.6-0.8c-1.1-0.3-2.2-0.5-3.3-0.8c-0.6-0.2-1.2-0.1-1.8-0.3c-1.2-0.5-2.7-0.2-3.9-1c-1.4,0.3-2.6-0.8-4-0.7
	c-0.5,0-1-0.1-1.4-0.3c-0.8-0.4-1.6-0.3-2.4-0.3l-0.4,0.4c0,0.1,0.1,0.1,0.1,0.2c1.3,2.4,2.4,4.9,3.7,7.3c0.7,1.4,1.6,2.7,2.4,4.1
	l0.6,1.2c1.7,3,3.3,6.1,4.8,9.2c0.3,0.7,0.5,1.5,0.9,2.2c1.1,2.1,2.3,4.1,3.3,6.2c1,1.9,0.9,1.9,0.9,3.8c-0.5,0.7-1.1,1.4-1.7,2.2
	c-1.3,1.1-2.8,0.7-4.3,0.8c-1-0.4-1.4-1.2-2-2.1c-1-1.5-1.6-3.3-2.7-4.8c-0.6-0.8-0.8-2-1.3-2.9c-1-1.9-2-3.7-3.1-5.5
	c-0.9-1.6-1.7-3.2-2.4-4.9c-0.4-1-1-2.1-1.6-3c-0.7-1.1-1.1-2.3-1.9-3.4c-0.2-0.3-0.4-0.6-0.7-1.1v-1c-0.9,0.8-0.5,1.9-1.1,2.6h-0.3
	l-0.2,0.2c0.1,0.7-0.3,1.3-0.4,1.9c-0.1,0.6-0.6,1.2-0.5,1.8c0,0.1,0,0.3-0.1,0.4c-1.1,1.2-1.1,2.9-1.7,4.4
	c-0.4,0.9-1.1,1.8-1.1,2.9c0,0.3-0.1,0.6-0.2,0.8c-0.3,0.6-0.2,1.3-0.7,1.8c-0.2,0.2-0.2,0.5-0.3,0.9c-0.4,0.1-0.8,0.4-0.9,0.9
	c-0.5,0.2-0.9,0.4-1.5,0.7H144c-0.1-0.2-0.3-0.5-0.4-0.6h-0.9c-0.5-0.8-1-1.7-1.4-2.6c-0.3-1,0.3-2,0.3-3.1c0.1,0,0.3-0.1,0.4-0.1
	c0.3-1,0.7-2.1,1-3.2c0.4-1.4,1.3-2.5,1.5-4c0.1-0.5,0.4-0.9,0.4-1.4c0-0.8,0.8-1.2,0.8-2c0-0.7,0.4-1.3,0.6-1.9
	c0.2-0.7,0.5-1.5,0.7-2.3c0.1,0,0.3-0.1,0.5-0.1c-0.3-0.7,0.5-1.3,0.2-2.1c-1.9,0.7-3.8,1.3-5.7,1.9c-0.8,0.3-1.7,0.7-2.4,1.1
	c-0.9,0.5-1.9,0.5-2.8,1c-0.8,0.4-1.7,0.6-2.7,0.8c-0.8,0.2-1.5,0.9-2.5,0.9c-0.7,1-2,0.8-3,1.2c-1.7,0.8-3.6,1.2-5.3,2
	c-1.4,0.7-3,1-4.4,1.5c-0.9,0.3-1.8,0.8-2.7,0.6c-0.5-0.1-1.1-0.3-1.7-0.4c0,0,0-0.3-0.1-0.3c-1-0.4-0.9-1.5-1.2-2.3
	c-0.2-0.5-0.4-1.2-0.2-1.5c0.3-0.6,0-1.1,0.3-1.7c0.1,0,0.3-0.1,0.5-0.1v-0.7c0.9-1,2.1-1.7,3.4-2c1.4-0.3,2.6-1.1,4-1.5l1.8-0.6
	c1.2-0.3,2.2-1.2,3.5-1.1c0.7-0.9,1.9-0.6,2.8-1.3c0.4-0.3,0.9-0.3,1.4-0.5c2.3-0.8,4.5-1.5,6.7-2.5c1.3-0.6,2.8-0.9,4.2-1.4
	c1.2-0.4,2.4-0.9,3.9-1.5c-0.6-0.3-1-0.7-1.4-0.7c-1.1,0-2.1-0.3-3.1-0.6c-0.6-0.2-1.3-0.1-1.9-0.3c-1.2-0.5-2.7-0.2-3.9-1
	c-1.9,0.1-3.6-1-5.5-0.9c-1.3-0.8-2.9-0.4-4.3-1.2c-0.3-0.2-0.8,0-1.2-0.1s-0.8-0.2-1.1-0.3c-1.2-0.4-2.6-0.1-3.7-0.9
	c-1.5,0.3-2.7-0.8-4.2-0.7c-0.5,0-1-0.3-1.6-0.4c-0.1-0.6-0.7-0.6-1.3-1c-0.2-0.3-0.4-0.8-0.7-1.3c-0.3-1.1,0.1-2.2,0.4-3.2
	c0.4-1.1,1.5-1.7,2.2-2.6c0.6-0.1,1.2-0.4,1.8-0.3c1.2,0.2,2.5,0.3,3.7,0.7c0.5,0.1,0.9,0.1,1.3,0.2s0.9,0.2,1.3,0.3
	c0.5,0.2,0.9,0.4,1.5,0.3c0.4-0.1,0.7,0.2,1,0.3c0.7,0.1,1.3,0.6,2.1,0.4c0.4-0.1,0.8,0.1,1.1,0.3c0.6,0.3,1.3,0.2,1.9,0.4
	c0.3,0.1,0.6,0.2,0.8,0.3c0.7,0.1,1.3,0.5,2.1,0.4c0.2,0,0.5,0.1,0.7,0.2c0.7,0.1,1.4,0.6,2.2,0.4c0.4-0.1,0.8,0.1,1.2,0.3
	c0.6,0.3,1.3,0.2,1.9,0.4c0.5,0.1,1,0.1,1.4,0.3C141.8,356.4,142.8,356.5,143.9,356.4c-0.1,0-0.1,0-0.1,0.1c0.1,0.1,0.1,0.2,0.2,0.3
	l0.1-0.1C144.1,356.5,144,356.5,143.9,356.4L143.9,356.4z"/>
<rect x="210.3" y="345.3" class="st2" width="805.1" height="548.2"/>
<g class="st3">
	<path class="st4" d="M212,375.4l0.5-15.5h48.2l0.4,15.5h-5.9l-1.8-11h-11.2c-0.1,3.6-0.1,7.2-0.1,10.8c0,3.7,0,7.3,0,11v3.7
		c0,3.6,0,7.2,0,10.8c0,3.6,0.1,7.2,0.1,10.8l8,0.8v4h-27.4v-4l8-0.8c0.1-3.5,0.2-7.1,0.2-10.7c0-3.6,0-7.2,0-10.8v-3.7
		c0-3.6,0-7.3,0-10.9c0-3.7-0.1-7.3-0.2-10.9h-11.1l-1.8,11H212z"/>
	<path class="st4" d="M280.2,417.5c-3.9,0-7.3-0.9-10.4-2.6c-3.1-1.7-5.5-4.2-7.4-7.4c-1.8-3.2-2.7-7.1-2.7-11.6
		c0-4.5,0.9-8.4,2.8-11.6c1.9-3.2,4.4-5.7,7.5-7.4c3.1-1.7,6.5-2.5,10.1-2.5c3.6,0,7,0.9,10.1,2.5c3.1,1.7,5.6,4.2,7.6,7.4
		c1.9,3.2,2.9,7.1,2.9,11.7c0,4.5-0.9,8.4-2.8,11.6c-1.8,3.2-4.3,5.7-7.4,7.4C287.5,416.6,284,417.5,280.2,417.5z M280.2,413.3
		c3.1,0,5.4-1.4,7-4.2c1.6-2.8,2.4-7.2,2.4-13c0-11.7-3.1-17.5-9.4-17.5c-6.2,0-9.4,5.8-9.4,17.5c0,5.8,0.8,10.2,2.4,13
		C274.8,411.9,277.1,413.3,280.2,413.3z"/>
	<path class="st4" d="M324.5,402c-2.5,0-4.9-0.3-7.1-0.9c-1.1,1.5-1.6,3-1.6,4.7c0,1.1,0.4,1.9,1.1,2.5c0.7,0.6,2,0.9,3.9,0.9h10.6
		c5.6,0,9.5,1,11.9,3.1c2.4,2.1,3.6,4.9,3.6,8.5c0,2.7-0.9,5.2-2.6,7.5c-1.7,2.3-4.3,4.2-7.6,5.6c-3.4,1.4-7.6,2.1-12.6,2.1
		c-4.4,0-7.9-0.5-10.5-1.4c-2.6-0.9-4.5-2.1-5.7-3.7c-1.2-1.5-1.7-3.2-1.7-5.1c0-1.8,0.6-3.5,1.8-5c1.2-1.5,3.1-2.9,5.9-4.2
		c-1.8-0.6-3.1-1.5-3.9-2.7c-0.9-1.2-1.3-2.5-1.3-4c0-1.6,0.5-3.3,1.5-4.9c1-1.6,2.5-3.4,4.6-5.3c-4.5-2.3-6.7-6.1-6.7-11.6
		c0-4.2,1.5-7.6,4.4-10.1c2.9-2.5,7-3.8,12.2-3.8c5.2,0,9.2,1.2,12.1,3.6l9.6-3.7l1.3,0.9v5.9h-8.2c1.2,1.9,1.8,4.3,1.8,7.1
		c0,4.1-1.4,7.5-4.3,10C333.8,400.7,329.8,402,324.5,402z M313.7,424.2c0,2.6,1,4.5,2.9,5.7c1.9,1.2,4.7,1.8,8.2,1.8
		c4.5,0,7.9-0.7,10.2-2.2c2.3-1.5,3.4-3.3,3.4-5.4c0-1.6-0.6-2.9-1.7-4.1c-1.1-1.1-3-1.7-5.7-1.7h-9.4c-2.1,0-4-0.2-5.6-0.5
		C314.4,419.9,313.7,422,313.7,424.2z M324.4,398.3c2.4,0,4.2-0.9,5.4-2.8c1.2-1.9,1.9-4.4,1.9-7.5c0-3-0.6-5.4-1.8-7.2
		c-1.2-1.8-3-2.7-5.2-2.7c-2.3,0-4,0.9-5.3,2.8c-1.3,1.8-1.9,4.3-1.9,7.4c0,3.1,0.6,5.5,1.8,7.3
		C320.4,397.4,322.1,398.3,324.4,398.3z"/>
	<path class="st4" d="M370.9,417.5c-4,0-7.5-0.9-10.5-2.6c-3-1.7-5.4-4.2-7.1-7.4c-1.7-3.2-2.5-7-2.5-11.4c0-4.5,1-8.4,2.9-11.7
		s4.5-5.8,7.6-7.5c3.1-1.7,6.5-2.6,10.1-2.6c3.3,0,6.3,0.7,8.8,2.1c2.5,1.4,4.4,3.4,5.8,6c1.4,2.5,2.1,5.6,2.1,9
		c0,1.8-0.2,3.4-0.5,4.7h-26c0.2,4.9,1.5,8.5,3.9,11c2.4,2.4,5.3,3.7,8.9,3.7c2.5,0,4.6-0.5,6.3-1.5c1.7-1,3.3-2.3,4.7-3.9l2.5,2.2
		c-1.6,3.1-3.9,5.5-6.8,7.3C378.3,416.6,374.9,417.5,370.9,417.5z M370.9,378.5c-1.4,0-2.7,0.4-4,1.3c-1.3,0.9-2.5,2.3-3.4,4.3
		c-0.9,2-1.5,4.7-1.7,8.1h11.6c2,0,3.4-0.4,4.1-1.3s1-2,1-3.6c0-2.6-0.7-4.7-2.2-6.4C374.8,379.3,373,378.5,370.9,378.5z"/>
	<path class="st4" d="M409.5,417.5c-3.4,0-6.1-0.9-8-2.6c-1.9-1.7-2.9-4.4-2.9-8.2c0-1.3,0-2.5,0-3.7c0-1.2,0-2.6,0-4.2v-18.1h-6.3
		v-4.4l6.9-0.8l3.2-11.6h6.9l-0.3,11.7h10.2v5.2h-10.3v25.1c0,2.1,0.4,3.6,1.2,4.6c0.8,1,1.9,1.4,3.3,1.4c1.5,0,3.3-0.7,5.2-2.1
		l2,2.1c-1.1,1.8-2.5,3.1-4.4,4.1C414.4,417,412.1,417.5,409.5,417.5z"/>
	<path class="st4" d="M423,416.3v-3.5l5.6-1.1c0.1-2.1,0.1-4.4,0.1-6.8s0-4.6,0-6.4V362l-6.2-0.8v-3.3l15.2-3.8l1.3,0.8l-0.3,12
		v15.2c4.4-5,9.2-7.6,14.5-7.6c3.7,0,6.5,1.2,8.6,3.7c2,2.4,3.1,6.3,3.1,11.6v8.8c0,1.9,0,4.1,0,6.5s0,4.7,0.1,6.8l5.2,1v3.5h-21
		v-3.5l5.4-1.1c0.1-2.1,0.1-4.3,0.1-6.8c0-2.4,0-4.6,0-6.5v-8.1c0-3.3-0.4-5.7-1.3-6.9c-0.9-1.3-2.4-1.9-4.5-1.9
		c-3.2,0-6.5,1.6-9.9,4.8v12.1c0,1.9,0,4,0,6.5s0,4.7,0.1,6.9l5,1v3.5H423z"/>
	<path class="st4" d="M495.5,417.5c-4,0-7.5-0.9-10.5-2.6c-3-1.7-5.4-4.2-7.1-7.4c-1.7-3.2-2.5-7-2.5-11.4c0-4.5,1-8.4,2.9-11.7
		s4.5-5.8,7.6-7.5c3.1-1.7,6.5-2.6,10.1-2.6c3.3,0,6.3,0.7,8.8,2.1c2.5,1.4,4.4,3.4,5.8,6c1.4,2.5,2.1,5.6,2.1,9
		c0,1.8-0.2,3.4-0.5,4.7h-26c0.2,4.9,1.5,8.5,3.9,11c2.4,2.4,5.3,3.7,8.9,3.7c2.5,0,4.6-0.5,6.3-1.5c1.7-1,3.3-2.3,4.7-3.9l2.5,2.2
		c-1.6,3.1-3.9,5.5-6.8,7.3C502.9,416.6,499.4,417.5,495.5,417.5z M495.5,378.5c-1.4,0-2.7,0.4-4,1.3c-1.3,0.9-2.5,2.3-3.4,4.3
		c-0.9,2-1.5,4.7-1.7,8.1h11.6c2,0,3.4-0.4,4.1-1.3s1-2,1-3.6c0-2.6-0.7-4.7-2.2-6.4C499.4,379.3,497.6,378.5,495.5,378.5z"/>
	<path class="st4" d="M519,416.3v-3.5l5.4-1c0.1-2.2,0.1-4.5,0.1-6.9s0-4.6,0-6.4v-4.5c0-2.3,0-4.2,0-5.6c0-1.4-0.1-2.9-0.2-4.6
		l-6-0.8v-3.2l14.2-5.4l1.4,0.9l0.9,10c1.3-3.5,3.1-6.2,5.3-8.1c2.2-1.9,4.4-2.8,6.6-2.8c1.5,0,2.9,0.4,4.2,1.2
		c1.3,0.8,2.1,1.9,2.5,3.4c-0.1,2.1-0.6,3.7-1.5,4.9c-1,1.2-2.3,1.7-4,1.7c-2,0-4-1-5.8-3.1l-0.8-0.8c-3,2.5-5.2,6-6.5,10.5v6.2
		c0,1.8,0,3.8,0,6.2c0,2.4,0,4.7,0.1,6.8l7,1.4v3.5H519z"/>
	<path class="st4" d="M564.6,412.7c0,3.6-0.9,6.9-2.5,9.9c-1.7,2.9-3.8,5.4-6.4,7.4c-2.6,2-5.2,3.5-7.9,4.4l-1.2-3.2
		c2.8-1.5,5.3-3.2,7.3-5.2c2-2,3.6-4.4,4.6-7.2l-3.1-2c-1.4-0.9-2.4-1.9-3.1-3.1c-0.6-1.2-0.9-2.3-0.9-3.4c0-1.8,0.6-3.3,1.7-4.5
		c1.2-1.2,2.7-1.8,4.6-1.8c1,0,1.9,0.2,2.8,0.5c0.9,0.3,1.9,1,2.9,2c0.5,1.1,0.8,2.2,0.9,3.2C564.5,410.5,564.6,411.6,564.6,412.7z"
		/>
	<path class="st4" d="M639.7,379.1v-3.6h15.6v3.6l-4.7,0.8l-12.7,36.6h-4.8l-10.4-28.8l-10.5,28.8h-4.7l-13.5-36.8l-4.4-0.7v-3.6
		h20.8v3.6l-5.8,0.8l7.8,24l8.5-24l-5.7-0.8v-3.6H635v3.6l-5.5,0.9l8.4,23.6l7.4-23.6L639.7,379.1z"/>
	<path class="st4" d="M677.1,417.5c-4,0-7.5-0.9-10.5-2.6c-3-1.7-5.4-4.2-7.1-7.4c-1.7-3.2-2.5-7-2.5-11.4c0-4.5,1-8.4,2.9-11.7
		s4.5-5.8,7.7-7.5c3.1-1.7,6.5-2.6,10.1-2.6c3.3,0,6.3,0.7,8.8,2.1c2.5,1.4,4.4,3.4,5.8,6s2.1,5.6,2.1,9c0,1.8-0.2,3.4-0.5,4.7h-26
		c0.2,4.9,1.5,8.5,3.9,11c2.4,2.4,5.3,3.7,8.9,3.7c2.5,0,4.6-0.5,6.3-1.5c1.7-1,3.3-2.3,4.7-3.9l2.5,2.2c-1.6,3.1-3.9,5.5-6.8,7.3
		C684.5,416.6,681.1,417.5,677.1,417.5z M677.1,378.5c-1.4,0-2.7,0.4-4,1.3c-1.3,0.9-2.5,2.3-3.4,4.3c-0.9,2-1.5,4.7-1.7,8.1h11.6
		c2,0,3.4-0.4,4.1-1.3c0.7-0.8,1-2,1-3.6c0-2.6-0.7-4.7-2.2-6.4C681,379.3,679.2,378.5,677.1,378.5z"/>
	<path class="st4" d="M734.7,417.5c-3.4,0-6.1-0.9-8-2.6c-1.9-1.7-2.9-4.4-2.9-8.2c0-1.3,0-2.5,0-3.7c0-1.2,0-2.6,0-4.2v-18.1h-6.3
		v-4.4l6.9-0.8l3.2-11.6h6.9l-0.3,11.7h10.2v5.2h-10.3v25.1c0,2.1,0.4,3.6,1.2,4.6c0.8,1,1.9,1.4,3.3,1.4c1.5,0,3.3-0.7,5.2-2.1
		l2,2.1c-1.1,1.8-2.5,3.1-4.4,4.1C739.6,417,737.3,417.5,734.7,417.5z"/>
	<path class="st4" d="M781,417.3c-2.3,0-4.1-0.6-5.5-1.7c-1.4-1.1-2.4-2.7-2.9-4.7c-2.1,2.2-4,3.8-5.7,4.9c-1.7,1.1-3.9,1.7-6.6,1.7
		c-3.2,0-5.9-0.9-8-2.8c-2.2-1.8-3.3-4.5-3.3-7.9c0-1.8,0.4-3.5,1.3-5.1s2.4-3,4.5-4.4c2.2-1.4,5.3-2.7,9.4-4
		c1.1-0.4,2.4-0.8,3.8-1.2c1.4-0.4,2.9-0.8,4.3-1.2v-2.4c0-4-0.6-6.6-1.7-8c-1.1-1.4-3-2.1-5.8-2.1c-0.5,0-1.1,0-1.7,0.1
		c-0.6,0.1-1.2,0.1-1.8,0.3l-1,4.7c-0.2,2-0.8,3.5-1.8,4.5c-1,1-2.2,1.4-3.6,1.4c-2.7,0-4.3-1.3-4.8-3.8c0.5-3.4,2.3-6.1,5.5-8.2
		c3.1-2,7.3-3.1,12.5-3.1c4.9,0,8.5,1.2,10.8,3.5c2.3,2.4,3.4,6.3,3.4,11.9v18.5c0,2.5,0.8,3.8,2.5,3.8c1.1,0,2.1-0.6,3-1.9l2,1.7
		c-1,1.9-2.2,3.3-3.6,4.1C784.7,416.9,783,417.3,781,417.3z M758.9,405c0,2.2,0.6,3.8,1.7,4.8c1.2,1,2.6,1.5,4.3,1.5
		c1,0,1.9-0.2,2.9-0.7c1-0.5,2.5-1.4,4.5-2.8v-13.4c-1.2,0.4-2.3,0.8-3.4,1.1c-1,0.3-1.9,0.7-2.7,0.9c-2.8,1.1-4.8,2.4-5.8,3.9
		C759.4,401.8,758.9,403.3,758.9,405z"/>
	<path class="st4" d="M792.1,416.3v-3.5l5.8-1.1c0.1-2.2,0.1-4.4,0.1-6.6c0-2.2,0-4.4,0-6.6V362l-6.2-0.8v-3.3l15.5-3.8l1.3,0.8
		l-0.3,12v31.7c0,2.2,0,4.4,0,6.6c0,2.2,0.1,4.4,0.1,6.6l5.8,1.1v3.5H792.1z"/>
	<path class="st4" d="M818.5,416.3v-3.5l5.8-1.1c0.1-2.2,0.1-4.4,0.1-6.8c0-2.4,0-4.5,0-6.5V362l-6.2-0.8v-3.3l15.5-3.8l1.3,0.8
		l-0.3,12v28l14.1-14.3l-6.4-1.3l0.1-3.6h20.1v3.6l-7.7,1.1l-8.6,8.3l13.1,23l5.5,1.2v3.5h-14.4L839,395.5l-4.4,4.3c0,1.9,0,3.9,0,6
		c0,2.1,0.1,4,0.1,5.9l5.7,1v3.5H818.5z"/>
</g>
<g class="st3">
	<path class="st4" d="M245.6,507.3c-2.3,0-4.1-0.6-5.5-1.7c-1.4-1.1-2.4-2.7-2.9-4.7c-2.1,2.2-4,3.8-5.7,4.9
		c-1.7,1.1-3.9,1.7-6.6,1.7c-3.2,0-5.9-0.9-8-2.8c-2.2-1.8-3.3-4.5-3.3-7.9c0-1.8,0.4-3.5,1.3-5.1s2.4-3,4.5-4.4
		c2.2-1.4,5.3-2.7,9.4-4c1.1-0.4,2.4-0.8,3.8-1.2c1.4-0.4,2.9-0.8,4.3-1.2v-2.4c0-4-0.6-6.6-1.7-8c-1.1-1.4-3-2.1-5.8-2.1
		c-0.5,0-1.1,0-1.7,0.1c-0.6,0.1-1.2,0.1-1.8,0.3l-1,4.7c-0.2,2-0.8,3.5-1.8,4.5c-1,1-2.2,1.4-3.6,1.4c-2.7,0-4.3-1.3-4.8-3.8
		c0.5-3.4,2.3-6.1,5.5-8.2s7.3-3.1,12.5-3.1c4.9,0,8.5,1.2,10.8,3.5c2.3,2.4,3.4,6.3,3.4,11.9v18.5c0,2.5,0.8,3.8,2.5,3.8
		c1.1,0,2.1-0.6,3-1.9l2,1.7c-1,1.9-2.2,3.3-3.6,4.1C249.3,506.9,247.6,507.3,245.6,507.3z M223.5,495c0,2.2,0.6,3.8,1.7,4.8
		c1.2,1,2.6,1.5,4.3,1.5c1,0,1.9-0.2,2.9-0.7c1-0.5,2.5-1.4,4.5-2.8v-13.4c-1.2,0.4-2.3,0.8-3.4,1.1c-1,0.3-1.9,0.7-2.7,0.9
		c-2.8,1.1-4.8,2.4-5.8,3.9C224,491.8,223.5,493.3,223.5,495z"/>
	<path class="st4" d="M257,506.3v-3.5l5.5-1c0.1-2.1,0.1-4.4,0.1-6.8c0-2.5,0-4.6,0-6.5v-36.6l-6.2-0.8v-3.3l15.2-3.8l1.3,0.8
		l-0.3,12v13.7c3.8-4,8-6,12.7-6c3.1,0,5.8,0.8,8.3,2.5c2.5,1.6,4.5,4,5.9,7.2c1.4,3.1,2.2,7,2.2,11.5c0,4.5-0.8,8.4-2.4,11.6
		c-1.6,3.3-3.8,5.8-6.4,7.6c-2.7,1.8-5.6,2.7-8.9,2.7c-2.2,0-4.3-0.4-6.2-1.3c-1.9-0.8-3.7-2.3-5.3-4.2l-1.1,5.4L257,506.3z
		 M281.2,470.4c-1.3,0-2.6,0.3-4,1c-1.4,0.7-2.8,1.6-4.3,2.9v23.5c2.6,2.4,5.3,3.7,8,3.7c2.8,0,5.1-1.3,7.1-3.8
		c1.9-2.5,2.9-6.4,2.9-11.6c0-5.3-0.9-9.2-2.7-11.8C286.3,471.7,284,470.4,281.2,470.4z"/>
	<path class="st4" d="M328.9,507.5c-3.9,0-7.3-0.9-10.4-2.6c-3.1-1.7-5.5-4.2-7.4-7.4c-1.8-3.2-2.7-7.1-2.7-11.6
		c0-4.5,0.9-8.4,2.8-11.6c1.9-3.2,4.4-5.7,7.5-7.4c3.1-1.7,6.5-2.5,10.1-2.5c3.6,0,7,0.9,10.1,2.5c3.1,1.7,5.6,4.2,7.6,7.4
		c1.9,3.2,2.9,7.1,2.9,11.7c0,4.5-0.9,8.4-2.8,11.6c-1.8,3.2-4.3,5.7-7.4,7.4C336.2,506.6,332.7,507.5,328.9,507.5z M328.9,503.3
		c3.1,0,5.4-1.4,7-4.2c1.6-2.8,2.4-7.2,2.4-13c0-11.7-3.1-17.5-9.4-17.5c-6.2,0-9.4,5.8-9.4,17.5c0,5.8,0.8,10.2,2.4,13
		C323.5,501.9,325.8,503.3,328.9,503.3z"/>
	<path class="st4" d="M385.8,507.1l-0.7-7.5c-4.1,5.3-9,7.9-14.4,7.9c-3.5,0-6.3-1.1-8.5-3.4c-2.1-2.3-3.2-6.2-3.1-11.9l0.3-21
		l-5.5-1.2v-3.3l14.9-1.8l1,0.9l-0.4,11.9v14.1c0,3.2,0.5,5.4,1.5,6.7c1,1.3,2.4,1.9,4.3,1.9c1.6,0,3.2-0.5,4.9-1.4
		c1.7-0.9,3.3-2.1,4.8-3.5l0.3-24.4l-5.4-1.2v-3.1l14.5-2l1.1,0.9l-0.3,11.9v24l5.2,1.1v3.5L385.8,507.1z"/>
	<path class="st4" d="M420.6,507.5c-3.4,0-6.1-0.9-8-2.6c-1.9-1.7-2.9-4.4-2.9-8.2c0-1.3,0-2.5,0-3.7c0-1.2,0-2.6,0-4.2v-18.1h-6.3
		v-4.4l6.9-0.8l3.2-11.6h6.9l-0.3,11.7h10.2v5.2h-10.3v25.1c0,2.1,0.4,3.6,1.2,4.6c0.8,1,1.9,1.4,3.3,1.4c1.5,0,3.3-0.7,5.2-2.1
		l2,2.1c-1.1,1.8-2.5,3.1-4.4,4.1C425.5,507,423.2,507.5,420.6,507.5z"/>
	<path class="st4" d="M468.6,507.5c-3.4,0-6.1-0.9-8-2.6c-1.9-1.7-2.9-4.4-2.9-8.2c0-1.3,0-2.5,0-3.7c0-1.2,0-2.6,0-4.2v-18.1h-6.3
		v-4.4l6.9-0.8l3.2-11.6h6.9l-0.3,11.7h10.2v5.2h-10.3v25.1c0,2.1,0.4,3.6,1.2,4.6c0.8,1,1.9,1.4,3.3,1.4c1.5,0,3.3-0.7,5.2-2.1
		l2,2.1c-1.1,1.8-2.5,3.1-4.4,4.1C473.5,507,471.3,507.5,468.6,507.5z"/>
	<path class="st4" d="M482.1,506.3v-3.5l5.6-1.1c0.1-2.1,0.1-4.4,0.1-6.8s0-4.6,0-6.4V452l-6.2-0.8v-3.3l15.2-3.8l1.3,0.8l-0.3,12
		v15.2c4.4-5,9.2-7.6,14.5-7.6c3.7,0,6.5,1.2,8.6,3.7c2,2.4,3.1,6.3,3.1,11.6v8.8c0,1.9,0,4.1,0,6.5s0,4.7,0.1,6.8l5.2,1v3.5h-21
		v-3.5l5.4-1.1c0.1-2.1,0.1-4.3,0.1-6.8c0-2.4,0-4.6,0-6.5v-8.1c0-3.3-0.4-5.7-1.3-6.9c-0.9-1.3-2.4-1.9-4.5-1.9
		c-3.2,0-6.5,1.6-9.9,4.8v12.1c0,1.9,0,4,0,6.5s0,4.7,0.1,6.9l5,1v3.5H482.1z"/>
	<path class="st4" d="M554.6,507.5c-4,0-7.5-0.9-10.5-2.6c-3-1.7-5.4-4.2-7.1-7.4c-1.7-3.2-2.5-7-2.5-11.4c0-4.5,1-8.4,2.9-11.7
		s4.5-5.8,7.6-7.5c3.1-1.7,6.5-2.6,10.1-2.6c3.3,0,6.3,0.7,8.8,2.1c2.5,1.4,4.4,3.4,5.8,6c1.4,2.5,2.1,5.6,2.1,9
		c0,1.8-0.2,3.4-0.5,4.7h-26c0.2,4.9,1.5,8.5,3.9,11c2.4,2.4,5.3,3.7,8.9,3.7c2.5,0,4.6-0.5,6.3-1.5c1.7-1,3.3-2.3,4.7-3.9l2.5,2.2
		c-1.6,3.1-3.9,5.5-6.8,7.3C562,506.6,558.6,507.5,554.6,507.5z M554.6,468.5c-1.4,0-2.7,0.4-4,1.3c-1.3,0.9-2.5,2.3-3.4,4.3
		c-0.9,2-1.5,4.7-1.7,8.1h11.6c2,0,3.4-0.4,4.1-1.3s1-2,1-3.6c0-2.6-0.7-4.7-2.2-6.4C558.5,469.3,556.7,468.5,554.6,468.5z"/>
	<path class="st4" d="M617.4,507.5c-3.9,0-7.3-0.8-10.4-2.5c-3.1-1.7-5.5-4.1-7.2-7.3c-1.7-3.2-2.6-7.1-2.6-11.6
		c0-4.6,1-8.5,2.9-11.7c2-3.2,4.5-5.7,7.8-7.4c3.2-1.7,6.7-2.5,10.5-2.5c2.8,0,5.3,0.5,7.5,1.6c2.2,1,4.1,2.5,5.4,4.2
		c1.4,1.8,2.2,3.7,2.5,6c-0.7,2.5-2.3,3.7-4.8,3.7c-3.2,0-5-2-5.5-6l-1.1-5.1c-0.5-0.1-1-0.2-1.5-0.3c-0.5-0.1-1-0.1-1.5-0.1
		c-2,0-3.9,0.6-5.7,1.7c-1.7,1.2-3.1,3-4.2,5.4c-1.1,2.4-1.6,5.5-1.6,9.3c0,5.2,1.2,9.1,3.5,11.8c2.4,2.7,5.4,4.1,9.2,4.1
		c2.3,0,4.3-0.5,6.1-1.5c1.8-1,3.3-2.4,4.6-4.2l2.5,1.9c-1.4,3.5-3.5,6.1-6.3,7.9S621.4,507.5,617.4,507.5z"/>
	<path class="st4" d="M637.8,506.3v-3.5l5.6-1.1c0.1-2.1,0.1-4.4,0.1-6.8s0-4.6,0-6.4V452l-6.2-0.8v-3.3l15.2-3.8l1.3,0.8l-0.3,12
		v15.2c4.4-5,9.2-7.6,14.5-7.6c3.7,0,6.5,1.2,8.6,3.7c2,2.4,3.1,6.3,3.1,11.6v8.8c0,1.9,0,4.1,0,6.5s0,4.7,0.1,6.8l5.2,1v3.5h-21
		v-3.5l5.4-1.1c0.1-2.1,0.1-4.3,0.1-6.8c0-2.4,0-4.6,0-6.5v-8.1c0-3.3-0.4-5.7-1.3-6.9c-0.9-1.3-2.4-1.9-4.5-1.9
		c-3.2,0-6.5,1.6-9.9,4.8v12.1c0,1.9,0,4,0,6.5s0,4.7,0.1,6.9l5,1v3.5H637.8z"/>
	<path class="st4" d="M722,507.3c-2.3,0-4.1-0.6-5.5-1.7c-1.4-1.1-2.4-2.7-2.9-4.7c-2.1,2.2-4,3.8-5.7,4.9c-1.7,1.1-3.9,1.7-6.6,1.7
		c-3.2,0-5.9-0.9-8-2.8c-2.2-1.8-3.3-4.5-3.3-7.9c0-1.8,0.4-3.5,1.3-5.1c0.8-1.6,2.4-3,4.5-4.4c2.2-1.4,5.3-2.7,9.4-4
		c1.1-0.4,2.4-0.8,3.8-1.2c1.4-0.4,2.9-0.8,4.3-1.2v-2.4c0-4-0.6-6.6-1.7-8s-3-2.1-5.8-2.1c-0.5,0-1.1,0-1.7,0.1
		c-0.6,0.1-1.2,0.1-1.8,0.3l-1,4.7c-0.2,2-0.8,3.5-1.8,4.5c-1,1-2.2,1.4-3.6,1.4c-2.7,0-4.3-1.3-4.8-3.8c0.5-3.4,2.3-6.1,5.5-8.2
		c3.1-2,7.3-3.1,12.5-3.1c4.9,0,8.5,1.2,10.8,3.5c2.3,2.4,3.4,6.3,3.4,11.9v18.5c0,2.5,0.8,3.8,2.5,3.8c1.1,0,2.1-0.6,3-1.9l2,1.7
		c-1,1.9-2.2,3.3-3.6,4.1C725.7,506.9,724,507.3,722,507.3z M699.9,495c0,2.2,0.6,3.8,1.7,4.8c1.2,1,2.6,1.5,4.3,1.5
		c1,0,1.9-0.2,2.9-0.7c1-0.5,2.5-1.4,4.5-2.8v-13.4c-1.2,0.4-2.3,0.8-3.4,1.1c-1,0.3-1.9,0.7-2.7,0.9c-2.8,1.1-4.8,2.4-5.8,3.9
		C700.4,491.8,699.9,493.3,699.9,495z"/>
	<path class="st4" d="M733.1,506.3v-3.5l5.8-1.1c0.1-2.2,0.1-4.4,0.1-6.6c0-2.2,0-4.4,0-6.6V452l-6.2-0.8v-3.3l15.5-3.8l1.3,0.8
		l-0.3,12v31.7c0,2.2,0,4.4,0,6.6c0,2.2,0.1,4.4,0.1,6.6l5.8,1.1v3.5H733.1z"/>
	<path class="st4" d="M759.5,506.3v-3.5l5.8-1.1c0.1-2.2,0.1-4.4,0.1-6.6c0-2.2,0-4.4,0-6.6V452l-6.2-0.8v-3.3l15.5-3.8l1.3,0.8
		l-0.3,12v31.7c0,2.2,0,4.4,0,6.6c0,2.2,0.1,4.4,0.1,6.6l5.8,1.1v3.5H759.5z"/>
	<path class="st4" d="M806.8,507.5c-4,0-7.5-0.9-10.5-2.6c-3-1.7-5.4-4.2-7.1-7.4c-1.7-3.2-2.6-7-2.6-11.4c0-4.5,1-8.4,2.9-11.7
		s4.5-5.8,7.7-7.5c3.1-1.7,6.5-2.6,10.1-2.6c3.3,0,6.3,0.7,8.8,2.1c2.5,1.4,4.4,3.4,5.8,6c1.4,2.5,2.1,5.6,2.1,9
		c0,1.8-0.2,3.4-0.5,4.7h-26c0.2,4.9,1.5,8.5,3.9,11c2.4,2.4,5.3,3.7,8.9,3.7c2.5,0,4.6-0.5,6.3-1.5c1.7-1,3.3-2.3,4.7-3.9l2.5,2.2
		c-1.6,3.1-3.9,5.5-6.8,7.3C814.2,506.6,810.8,507.5,806.8,507.5z M806.8,468.5c-1.4,0-2.7,0.4-4,1.3c-1.3,0.9-2.5,2.3-3.4,4.3
		c-0.9,2-1.5,4.7-1.7,8.1h11.6c2,0,3.4-0.4,4.1-1.3s1-2,1-3.6c0-2.6-0.7-4.7-2.2-6.4C810.7,469.3,808.9,468.5,806.8,468.5z"/>
	<path class="st4" d="M830.3,506.3v-3.5l5.5-1.1c0.1-2.1,0.1-4.4,0.1-6.8s0-4.6,0-6.4v-4.5c0-2.3,0-4.2,0-5.6c0-1.4-0.1-2.9-0.2-4.6
		l-6-0.8v-3.2l14.2-5.4l1.4,0.9l0.6,6.5c4.4-4.9,9.2-7.4,14.4-7.4c3.7,0,6.5,1.2,8.5,3.7c2,2.4,3,6.3,3,11.6v8.8c0,1.9,0,4.1,0,6.5
		s0,4.7,0.1,6.8l5.2,1v3.5h-21v-3.5l5.4-1.1c0.1-2.1,0.1-4.3,0.1-6.8c0-2.4,0-4.6,0-6.5v-8.1c0-3.3-0.5-5.7-1.4-6.9
		s-2.4-1.9-4.6-1.9c-3,0-6.2,1.4-9.5,4.2v12.8c0,1.9,0,4,0,6.5s0,4.7,0.1,6.9l5,1v3.5H830.3z"/>
	<path class="st4" d="M900,492c-2.5,0-4.9-0.3-7.1-0.9c-1.1,1.5-1.6,3-1.6,4.7c0,1.1,0.4,1.9,1.1,2.5c0.7,0.6,2,0.9,3.9,0.9h10.6
		c5.6,0,9.5,1,11.9,3.1c2.4,2.1,3.6,4.9,3.6,8.5c0,2.7-0.9,5.2-2.6,7.5c-1.7,2.3-4.3,4.2-7.7,5.6c-3.4,1.4-7.6,2.1-12.6,2.1
		c-4.4,0-7.9-0.5-10.5-1.4c-2.6-0.9-4.5-2.1-5.7-3.7c-1.2-1.5-1.7-3.2-1.7-5.1c0-1.8,0.6-3.5,1.8-5c1.2-1.5,3.1-2.9,5.9-4.2
		c-1.8-0.6-3.1-1.5-3.9-2.7c-0.9-1.2-1.3-2.5-1.3-4c0-1.6,0.5-3.3,1.5-4.9c1-1.6,2.5-3.4,4.6-5.3c-4.5-2.3-6.7-6.1-6.7-11.6
		c0-4.2,1.5-7.6,4.4-10.1c2.9-2.5,7-3.8,12.2-3.8c5.2,0,9.2,1.2,12.1,3.6l9.6-3.7l1.3,0.9v5.9h-8.2c1.2,1.9,1.8,4.3,1.8,7.1
		c0,4.1-1.4,7.5-4.3,10C909.2,490.7,905.2,492,900,492z M889.1,514.2c0,2.6,1,4.5,2.9,5.7c1.9,1.2,4.7,1.8,8.2,1.8
		c4.5,0,7.9-0.7,10.2-2.2c2.3-1.5,3.4-3.3,3.4-5.4c0-1.6-0.6-2.9-1.7-4.1c-1.1-1.1-3-1.7-5.7-1.7H897c-2.1,0-4-0.2-5.6-0.5
		C889.9,509.9,889.1,512,889.1,514.2z M899.8,488.3c2.4,0,4.2-0.9,5.4-2.8c1.2-1.9,1.9-4.4,1.9-7.5c0-3-0.6-5.4-1.8-7.2
		c-1.2-1.8-3-2.7-5.2-2.7c-2.3,0-4,0.9-5.3,2.8c-1.3,1.8-1.9,4.3-1.9,7.4c0,3.1,0.6,5.5,1.8,7.3
		C895.8,487.4,897.5,488.3,899.8,488.3z"/>
	<path class="st4" d="M946.4,507.5c-4,0-7.5-0.9-10.5-2.6c-3-1.7-5.4-4.2-7.1-7.4c-1.7-3.2-2.6-7-2.6-11.4c0-4.5,1-8.4,2.9-11.7
		s4.5-5.8,7.7-7.5c3.1-1.7,6.5-2.6,10.1-2.6c3.3,0,6.3,0.7,8.8,2.1c2.5,1.4,4.4,3.4,5.8,6c1.4,2.5,2.1,5.6,2.1,9
		c0,1.8-0.2,3.4-0.5,4.7h-26c0.2,4.9,1.5,8.5,3.9,11c2.4,2.4,5.3,3.7,8.9,3.7c2.5,0,4.6-0.5,6.3-1.5c1.7-1,3.3-2.3,4.7-3.9l2.5,2.2
		c-1.6,3.1-3.9,5.5-6.8,7.3C953.8,506.6,950.4,507.5,946.4,507.5z M946.4,468.5c-1.4,0-2.7,0.4-4,1.3c-1.3,0.9-2.5,2.3-3.4,4.3
		c-0.9,2-1.5,4.7-1.7,8.1h11.6c2,0,3.4-0.4,4.1-1.3s1-2,1-3.6c0-2.6-0.7-4.7-2.2-6.4C950.3,469.3,948.5,468.5,946.4,468.5z"/>
	<path class="st4" d="M984.1,507.5c-2.6,0-5-0.3-7.2-0.9c-2.2-0.6-4.3-1.5-6.5-2.7l-0.1-9.9h5.7l1.5,7.9c2,0.8,4.2,1.3,6.6,1.3
		c2.9,0,5-0.5,6.5-1.5c1.4-1,2.1-2.4,2.1-4.2c0-1.6-0.6-2.9-1.7-3.9c-1.1-1-3.1-1.9-5.8-2.8l-4.2-1.4c-3.2-1-5.7-2.5-7.5-4.5
		c-1.8-2-2.8-4.5-2.8-7.5c0-2.4,0.6-4.5,1.9-6.5c1.2-2,3.1-3.5,5.5-4.7c2.4-1.2,5.3-1.7,8.8-1.7c2.4,0,4.7,0.3,6.7,0.9
		c2,0.6,4,1.5,6,2.6l-0.4,8.9h-5.6l-1.5-7.1c-1.6-0.7-3.3-1-5.3-1c-2.3,0-4,0.5-5.3,1.4c-1.2,1-1.9,2.3-1.9,3.9
		c0,1.5,0.5,2.8,1.6,3.7c1,0.9,3,1.9,5.9,2.8l3.4,1c4.1,1.4,7.1,3.2,8.8,5.3c1.8,2.1,2.6,4.6,2.6,7.6c0,3.8-1.5,6.9-4.6,9.4
		C994.3,506.2,989.9,507.5,984.1,507.5z"/>
</g>
<g class="st3">
	<path class="st4" d="M260,559.1v-3.6h15.6v3.6l-4.7,0.8l-12.7,36.6h-4.8l-10.4-28.8l-10.5,28.8h-4.7l-13.5-36.8l-4.4-0.7v-3.6h20.8
		v3.6L225,560l7.8,24l8.5-24l-5.7-0.8v-3.6h19.7v3.6l-5.5,0.9l8.4,23.6l7.4-23.6L260,559.1z"/>
	<path class="st4" d="M297.4,597.5c-4,0-7.5-0.9-10.5-2.6c-3-1.7-5.4-4.2-7.1-7.4c-1.7-3.2-2.5-7-2.5-11.4c0-4.5,1-8.4,2.9-11.7
		s4.5-5.8,7.6-7.5c3.1-1.7,6.5-2.6,10.1-2.6c3.3,0,6.3,0.7,8.8,2.1c2.5,1.4,4.4,3.4,5.8,6c1.4,2.5,2.1,5.6,2.1,9
		c0,1.8-0.2,3.4-0.5,4.7h-26c0.2,4.9,1.5,8.5,3.9,11c2.4,2.4,5.3,3.7,8.9,3.7c2.5,0,4.6-0.5,6.3-1.5c1.7-1,3.3-2.3,4.7-3.9l2.5,2.2
		c-1.6,3.1-3.9,5.5-6.8,7.3C304.8,596.6,301.4,597.5,297.4,597.5z M297.4,558.5c-1.4,0-2.7,0.4-4,1.3c-1.3,0.9-2.5,2.3-3.4,4.3
		c-0.9,2-1.5,4.7-1.7,8.1h11.6c2,0,3.4-0.4,4.1-1.3s1-2,1-3.6c0-2.6-0.7-4.7-2.2-6.4C301.3,559.3,299.5,558.5,297.4,558.5z"/>
	<path class="st4" d="M339.8,596.3v-3.5l5.7-1.1c0.1-2.2,0.1-4.4,0.1-6.6c0-2.2,0-4.4,0-6.6v-17.7h-6.3v-4.4l6.5-0.8
		c0.5-4.2,1.1-7.6,2.1-10.2c0.9-2.6,2.4-4.9,4.4-6.8c1.9-1.9,4-3.3,6.3-4.1c2.3-0.8,4.5-1.2,6.7-1.2c2.2,0,4.2,0.4,5.9,1.2
		c1.7,0.8,2.8,2.2,3.3,4.2c-0.1,1.3-0.6,2.4-1.6,3.3c-1,0.9-2.3,1.4-4,1.4c-2.4,0-4.7-1.4-6.9-4.2l-1.5-1.5
		c-0.2,0.1-0.4,0.3-0.6,0.5c-1.5,1.5-2.6,3.7-3.3,6.5c-0.7,2.8-1,6.5-0.8,11.2h10.5v5.2H356v17.7c0,2.2,0,4.3,0,6.5
		c0,2.2,0.1,4.4,0.1,6.6l7.1,1.3v3.5H339.8z"/>
	<path class="st4" d="M402.7,597.3c-2.3,0-4.1-0.6-5.5-1.7c-1.4-1.1-2.4-2.7-2.9-4.7c-2.1,2.2-4,3.8-5.7,4.9
		c-1.7,1.1-3.9,1.7-6.6,1.7c-3.2,0-5.9-0.9-8-2.8c-2.2-1.8-3.3-4.5-3.3-7.9c0-1.8,0.4-3.5,1.3-5.1s2.4-3,4.5-4.4
		c2.2-1.4,5.3-2.7,9.4-4c1.1-0.4,2.4-0.8,3.8-1.2c1.4-0.4,2.9-0.8,4.3-1.2v-2.4c0-4-0.6-6.6-1.7-8c-1.1-1.4-3-2.1-5.8-2.1
		c-0.5,0-1.1,0-1.7,0.1c-0.6,0.1-1.2,0.1-1.8,0.3l-1,4.7c-0.2,2-0.8,3.5-1.8,4.5c-1,1-2.2,1.4-3.6,1.4c-2.7,0-4.3-1.3-4.8-3.8
		c0.5-3.4,2.3-6.1,5.5-8.2s7.3-3.1,12.5-3.1c4.9,0,8.5,1.2,10.8,3.5c2.3,2.4,3.4,6.3,3.4,11.9v18.5c0,2.5,0.8,3.8,2.5,3.8
		c1.1,0,2.1-0.6,3-1.9l2,1.7c-1,1.9-2.2,3.3-3.6,4.1C406.5,596.9,404.8,597.3,402.7,597.3z M380.6,585c0,2.2,0.6,3.8,1.7,4.8
		c1.2,1,2.6,1.5,4.3,1.5c1,0,1.9-0.2,2.9-0.7c1-0.5,2.5-1.4,4.5-2.8v-13.4c-1.2,0.4-2.3,0.8-3.4,1.1c-1,0.3-1.9,0.7-2.7,0.9
		c-2.8,1.1-4.8,2.4-5.8,3.9C381.2,581.8,380.6,583.3,380.6,585z"/>
	<path class="st4" d="M434.8,597.5c-3.9,0-7.3-0.8-10.4-2.5s-5.5-4.1-7.2-7.3c-1.7-3.2-2.6-7.1-2.6-11.6c0-4.6,1-8.5,2.9-11.7
		c2-3.2,4.5-5.7,7.8-7.4c3.2-1.7,6.7-2.5,10.5-2.5c2.8,0,5.3,0.5,7.5,1.6c2.2,1,4.1,2.5,5.4,4.2c1.4,1.8,2.2,3.7,2.5,6
		c-0.7,2.5-2.3,3.7-4.8,3.7c-3.2,0-5-2-5.5-6l-1.1-5.1c-0.5-0.1-1-0.2-1.5-0.3c-0.5-0.1-1-0.1-1.5-0.1c-2,0-3.9,0.6-5.7,1.7
		c-1.7,1.2-3.1,3-4.2,5.4c-1.1,2.4-1.6,5.5-1.6,9.3c0,5.2,1.2,9.1,3.5,11.8c2.4,2.7,5.4,4.1,9.2,4.1c2.3,0,4.3-0.5,6.1-1.5
		c1.8-1,3.3-2.4,4.6-4.2l2.5,1.9c-1.4,3.5-3.5,6.1-6.3,7.9C442.2,596.6,438.8,597.5,434.8,597.5z"/>
	<path class="st4" d="M477,597.5c-4,0-7.5-0.9-10.5-2.6c-3-1.7-5.4-4.2-7.1-7.4c-1.7-3.2-2.5-7-2.5-11.4c0-4.5,1-8.4,2.9-11.7
		s4.5-5.8,7.6-7.5c3.1-1.7,6.5-2.6,10.1-2.6c3.3,0,6.3,0.7,8.8,2.1c2.5,1.4,4.4,3.4,5.8,6c1.4,2.5,2.1,5.6,2.1,9
		c0,1.8-0.2,3.4-0.5,4.7h-26c0.2,4.9,1.5,8.5,3.9,11c2.4,2.4,5.3,3.7,8.9,3.7c2.5,0,4.6-0.5,6.3-1.5c1.7-1,3.3-2.3,4.7-3.9l2.5,2.2
		c-1.6,3.1-3.9,5.5-6.8,7.3C484.4,596.6,481,597.5,477,597.5z M477,558.5c-1.4,0-2.7,0.4-4,1.3c-1.3,0.9-2.5,2.3-3.4,4.3
		c-0.9,2-1.5,4.7-1.7,8.1h11.6c2,0,3.4-0.4,4.1-1.3s1-2,1-3.6c0-2.6-0.7-4.7-2.2-6.4C480.9,559.3,479.1,558.5,477,558.5z"/>
	<path class="st4" d="M551.9,597.3c-2.3,0-4.1-0.6-5.5-1.7c-1.4-1.1-2.4-2.7-2.9-4.7c-2.1,2.2-4,3.8-5.7,4.9
		c-1.7,1.1-3.9,1.7-6.6,1.7c-3.2,0-5.9-0.9-8-2.8c-2.2-1.8-3.3-4.5-3.3-7.9c0-1.8,0.4-3.5,1.3-5.1s2.4-3,4.5-4.4
		c2.2-1.4,5.3-2.7,9.4-4c1.1-0.4,2.4-0.8,3.8-1.2c1.4-0.4,2.9-0.8,4.3-1.2v-2.4c0-4-0.6-6.6-1.7-8c-1.1-1.4-3-2.1-5.8-2.1
		c-0.5,0-1.1,0-1.7,0.1c-0.6,0.1-1.2,0.1-1.8,0.3l-1,4.7c-0.2,2-0.8,3.5-1.8,4.5c-1,1-2.2,1.4-3.6,1.4c-2.7,0-4.3-1.3-4.8-3.8
		c0.5-3.4,2.3-6.1,5.5-8.2s7.3-3.1,12.5-3.1c4.9,0,8.5,1.2,10.8,3.5c2.3,2.4,3.4,6.3,3.4,11.9v18.5c0,2.5,0.8,3.8,2.5,3.8
		c1.1,0,2.1-0.6,3-1.9l2,1.7c-1,1.9-2.2,3.3-3.6,4.1C555.7,596.9,554,597.3,551.9,597.3z M529.8,585c0,2.2,0.6,3.8,1.7,4.8
		c1.2,1,2.6,1.5,4.3,1.5c1,0,1.9-0.2,2.9-0.7c1-0.5,2.5-1.4,4.5-2.8v-13.4c-1.2,0.4-2.3,0.8-3.4,1.1c-1,0.3-1.9,0.7-2.7,0.9
		c-2.8,1.1-4.8,2.4-5.8,3.9C530.3,581.8,529.8,583.3,529.8,585z"/>
	<path class="st4" d="M578,597.5c-2.6,0-5-0.3-7.2-0.9c-2.2-0.6-4.3-1.5-6.5-2.7l-0.1-9.9h5.7l1.5,7.9c2,0.8,4.2,1.3,6.6,1.3
		c2.9,0,5-0.5,6.5-1.5c1.4-1,2.1-2.4,2.1-4.2c0-1.6-0.6-2.9-1.7-3.9c-1.1-1-3.1-1.9-5.8-2.8l-4.2-1.4c-3.2-1-5.7-2.5-7.5-4.5
		c-1.8-2-2.8-4.5-2.8-7.5c0-2.4,0.6-4.5,1.9-6.5c1.2-2,3.1-3.5,5.5-4.7c2.4-1.2,5.3-1.7,8.8-1.7c2.4,0,4.7,0.3,6.7,0.9
		c2,0.6,4,1.5,6,2.6l-0.4,8.9h-5.6l-1.5-7.1c-1.6-0.7-3.3-1-5.3-1c-2.3,0-4,0.5-5.3,1.4c-1.2,1-1.9,2.3-1.9,3.9
		c0,1.5,0.5,2.8,1.6,3.7c1,0.9,3,1.9,5.9,2.8l3.4,1c4.1,1.4,7.1,3.2,8.8,5.3c1.8,2.1,2.6,4.6,2.6,7.6c0,3.8-1.5,6.9-4.6,9.4
		C588.1,596.2,583.7,597.5,578,597.5z"/>
</g>
<g class="st3">
	<path class="st4" d="M233.9,687.5c-3.9,0-7.3-0.9-10.4-2.6c-3.1-1.7-5.5-4.2-7.4-7.4c-1.8-3.2-2.7-7.1-2.7-11.6
		c0-4.5,0.9-8.4,2.8-11.6c1.9-3.2,4.4-5.7,7.5-7.4c3.1-1.7,6.5-2.5,10.1-2.5c3.6,0,7,0.9,10.1,2.5c3.1,1.7,5.6,4.2,7.6,7.4
		c1.9,3.2,2.9,7.1,2.9,11.7c0,4.5-0.9,8.4-2.8,11.6c-1.8,3.2-4.3,5.7-7.4,7.4C241.3,686.6,237.8,687.5,233.9,687.5z M233.9,683.3
		c3.1,0,5.4-1.4,7-4.2c1.6-2.8,2.4-7.2,2.4-13c0-11.7-3.1-17.5-9.4-17.5c-6.2,0-9.4,5.8-9.4,17.5c0,5.8,0.8,10.2,2.4,13
		C228.5,681.9,230.9,683.3,233.9,683.3z"/>
	<path class="st4" d="M260.6,686.3v-3.5l5.4-1c0.1-2.2,0.1-4.5,0.1-6.9s0-4.6,0-6.4v-4.5c0-2.3,0-4.2,0-5.6c0-1.4-0.1-2.9-0.2-4.6
		l-6-0.8v-3.2l14.2-5.4l1.4,0.9l0.9,10c1.3-3.5,3.1-6.2,5.3-8.1c2.2-1.9,4.4-2.8,6.6-2.8c1.5,0,2.9,0.4,4.2,1.2
		c1.3,0.8,2.1,1.9,2.5,3.4c-0.1,2.1-0.6,3.7-1.5,4.9c-1,1.2-2.3,1.7-4,1.7c-2,0-4-1-5.8-3.1l-0.8-0.8c-3,2.5-5.2,6-6.5,10.5v6.2
		c0,1.8,0,3.8,0,6.2c0,2.4,0,4.7,0.1,6.8l7,1.4v3.5H260.6z"/>
	<path class="st4" d="M314.8,672c-2.5,0-4.9-0.3-7.1-0.9c-1.1,1.5-1.6,3-1.6,4.7c0,1.1,0.4,1.9,1.1,2.5c0.7,0.6,2,0.9,3.9,0.9h10.6
		c5.6,0,9.5,1,11.9,3.1c2.4,2.1,3.6,4.9,3.6,8.5c0,2.7-0.9,5.2-2.6,7.5c-1.7,2.3-4.3,4.2-7.6,5.6c-3.4,1.4-7.6,2.1-12.6,2.1
		c-4.4,0-7.9-0.5-10.5-1.4c-2.6-0.9-4.5-2.1-5.7-3.7c-1.2-1.5-1.7-3.2-1.7-5.1c0-1.8,0.6-3.5,1.8-5c1.2-1.5,3.1-2.9,5.9-4.2
		c-1.8-0.6-3.1-1.5-3.9-2.7c-0.9-1.2-1.3-2.5-1.3-4c0-1.6,0.5-3.3,1.5-4.9c1-1.6,2.5-3.4,4.6-5.3c-4.5-2.3-6.7-6.1-6.7-11.6
		c0-4.2,1.5-7.6,4.4-10.1c2.9-2.5,7-3.8,12.2-3.8c5.2,0,9.2,1.2,12.1,3.6l9.6-3.7l1.3,0.9v5.9h-8.2c1.2,1.9,1.8,4.3,1.8,7.1
		c0,4.1-1.4,7.5-4.3,10C324,670.7,320,672,314.8,672z M303.9,694.2c0,2.6,1,4.5,2.9,5.7c1.9,1.2,4.7,1.8,8.2,1.8
		c4.5,0,7.9-0.7,10.2-2.2c2.3-1.5,3.4-3.3,3.4-5.4c0-1.6-0.6-2.9-1.7-4.1c-1.1-1.1-3-1.7-5.7-1.7h-9.4c-2.1,0-4-0.2-5.6-0.5
		C304.6,689.9,303.9,692,303.9,694.2z M314.6,668.3c2.4,0,4.2-0.9,5.4-2.8c1.2-1.9,1.9-4.4,1.9-7.5c0-3-0.6-5.4-1.8-7.2
		c-1.2-1.8-3-2.7-5.2-2.7c-2.3,0-4,0.9-5.3,2.8c-1.3,1.8-1.9,4.3-1.9,7.4c0,3.1,0.6,5.5,1.8,7.3
		C310.6,667.4,312.3,668.3,314.6,668.3z"/>
	<path class="st4" d="M372.9,687.3c-2.3,0-4.1-0.6-5.5-1.7c-1.4-1.1-2.4-2.7-2.9-4.7c-2.1,2.2-4,3.8-5.7,4.9
		c-1.7,1.1-3.9,1.7-6.6,1.7c-3.2,0-5.9-0.9-8-2.8c-2.2-1.8-3.3-4.5-3.3-7.9c0-1.8,0.4-3.5,1.3-5.1s2.4-3,4.5-4.4
		c2.2-1.4,5.3-2.7,9.4-4c1.1-0.4,2.4-0.8,3.8-1.2c1.4-0.4,2.9-0.8,4.3-1.2v-2.4c0-4-0.6-6.6-1.7-8c-1.1-1.4-3-2.1-5.8-2.1
		c-0.5,0-1.1,0-1.7,0.1c-0.6,0.1-1.2,0.1-1.8,0.3l-1,4.7c-0.2,2-0.8,3.5-1.8,4.5c-1,1-2.2,1.4-3.6,1.4c-2.7,0-4.3-1.3-4.8-3.8
		c0.5-3.4,2.3-6.1,5.5-8.2s7.3-3.1,12.5-3.1c4.9,0,8.5,1.2,10.8,3.5c2.3,2.4,3.4,6.3,3.4,11.9v18.5c0,2.5,0.8,3.8,2.5,3.8
		c1.1,0,2.1-0.6,3-1.9l2,1.7c-1,1.9-2.2,3.3-3.6,4.1C376.7,686.9,374.9,687.3,372.9,687.3z M350.8,675c0,2.2,0.6,3.8,1.7,4.8
		c1.2,1,2.6,1.5,4.3,1.5c1,0,1.9-0.2,2.9-0.7c1-0.5,2.5-1.4,4.5-2.8v-13.4c-1.2,0.4-2.3,0.8-3.4,1.1c-1,0.3-1.9,0.7-2.7,0.9
		c-2.8,1.1-4.8,2.4-5.8,3.9C351.3,671.8,350.8,673.3,350.8,675z"/>
	<path class="st4" d="M384.5,686.3v-3.5l5.5-1.1c0.1-2.1,0.1-4.4,0.1-6.8s0-4.6,0-6.4v-4.5c0-2.3,0-4.2,0-5.6c0-1.4-0.1-2.9-0.2-4.6
		l-6-0.8v-3.2l14.2-5.4l1.4,0.9l0.6,6.5c4.4-4.9,9.2-7.4,14.5-7.4c3.7,0,6.5,1.2,8.5,3.7c2,2.4,3,6.3,3,11.6v8.8c0,1.9,0,4.1,0,6.5
		s0,4.7,0.1,6.8l5.2,1v3.5h-21v-3.5l5.4-1.1c0.1-2.1,0.1-4.3,0.1-6.8c0-2.4,0-4.6,0-6.5v-8.1c0-3.3-0.5-5.7-1.4-6.9
		c-0.9-1.3-2.4-1.9-4.6-1.9c-3,0-6.2,1.4-9.5,4.2v12.8c0,1.9,0,4,0,6.5s0,4.7,0.1,6.9l5,1v3.5H384.5z"/>
	<path class="st4" d="M436.2,686.3v-3.5l5.6-1.1c0.1-2.1,0.1-4.4,0.1-6.8s0-4.6,0-6.4v-4c0-2.3,0-4.3,0-5.8c0-1.6-0.1-3.2-0.2-4.9
		l-6-0.8v-3.2l15.3-5.4l1.4,0.9l-0.3,12v11.2c0,1.8,0,4,0,6.4s0,4.8,0.1,6.9l5.2,1v3.5H436.2z M446.9,636.5c-1.8,0-3.3-0.6-4.6-1.7
		c-1.2-1.1-1.9-2.6-1.9-4.3c0-1.8,0.6-3.3,1.9-4.4c1.2-1.1,2.8-1.7,4.6-1.7c1.8,0,3.3,0.6,4.5,1.7c1.2,1.1,1.8,2.6,1.8,4.4
		c0,1.8-0.6,3.2-1.8,4.3C450.3,635.9,448.8,636.5,446.9,636.5z"/>
	<path class="st4" d="M461.6,686.3v-3.1l22.9-33.8h-14.4l-2.3,9.4l-5.6-0.3l0.7-12.8H496v3.1l-22.5,33.8h15.5l2.5-10.3h5.6l-0.9,14
		H461.6z"/>
	<path class="st4" d="M534,687.3c-2.3,0-4.1-0.6-5.5-1.7c-1.4-1.1-2.4-2.7-2.9-4.7c-2.1,2.2-4,3.8-5.7,4.9c-1.7,1.1-3.9,1.7-6.6,1.7
		c-3.2,0-5.9-0.9-8-2.8c-2.2-1.8-3.3-4.5-3.3-7.9c0-1.8,0.4-3.5,1.3-5.1s2.4-3,4.5-4.4c2.2-1.4,5.3-2.7,9.4-4
		c1.1-0.4,2.4-0.8,3.8-1.2c1.4-0.4,2.9-0.8,4.3-1.2v-2.4c0-4-0.6-6.6-1.7-8c-1.1-1.4-3-2.1-5.8-2.1c-0.5,0-1.1,0-1.7,0.1
		c-0.6,0.1-1.2,0.1-1.8,0.3l-1,4.7c-0.2,2-0.8,3.5-1.8,4.5c-1,1-2.2,1.4-3.6,1.4c-2.7,0-4.3-1.3-4.8-3.8c0.5-3.4,2.3-6.1,5.5-8.2
		s7.3-3.1,12.5-3.1c4.9,0,8.5,1.2,10.8,3.5c2.3,2.4,3.4,6.3,3.4,11.9v18.5c0,2.5,0.8,3.8,2.5,3.8c1.1,0,2.1-0.6,3-1.9l2,1.7
		c-1,1.9-2.2,3.3-3.6,4.1C537.7,686.9,536,687.3,534,687.3z M511.9,675c0,2.2,0.6,3.8,1.7,4.8c1.2,1,2.6,1.5,4.3,1.5
		c1,0,1.9-0.2,2.9-0.7c1-0.5,2.5-1.4,4.5-2.8v-13.4c-1.2,0.4-2.3,0.8-3.4,1.1c-1,0.3-1.9,0.7-2.7,0.9c-2.8,1.1-4.8,2.4-5.8,3.9
		C512.4,671.8,511.9,673.3,511.9,675z"/>
	<path class="st4" d="M560.8,687.5c-3.4,0-6.1-0.9-8-2.6c-1.9-1.7-2.9-4.4-2.9-8.2c0-1.3,0-2.5,0-3.7c0-1.2,0-2.6,0-4.2v-18.1h-6.3
		v-4.4l6.9-0.8l3.2-11.6h6.9l-0.3,11.7h10.2v5.2h-10.3v25.1c0,2.1,0.4,3.6,1.2,4.6c0.8,1,1.9,1.4,3.3,1.4c1.5,0,3.3-0.7,5.2-2.1
		l2,2.1c-1.1,1.8-2.5,3.1-4.4,4.1C565.8,687,563.5,687.5,560.8,687.5z"/>
	<path class="st4" d="M574.6,686.3v-3.5l5.6-1.1c0.1-2.1,0.1-4.4,0.1-6.8s0-4.6,0-6.4v-4c0-2.3,0-4.3,0-5.8c0-1.6-0.1-3.2-0.2-4.9
		l-6-0.8v-3.2l15.3-5.4l1.4,0.9l-0.3,12v11.2c0,1.8,0,4,0,6.4s0,4.8,0.1,6.9l5.2,1v3.5H574.6z M585.3,636.5c-1.8,0-3.3-0.6-4.6-1.7
		c-1.2-1.1-1.9-2.6-1.9-4.3c0-1.8,0.6-3.3,1.9-4.4c1.2-1.1,2.8-1.7,4.6-1.7c1.8,0,3.3,0.6,4.5,1.7c1.2,1.1,1.8,2.6,1.8,4.4
		c0,1.8-0.6,3.2-1.8,4.3C588.6,635.9,587.1,636.5,585.3,636.5z"/>
	<path class="st4" d="M621.6,687.5c-3.9,0-7.3-0.9-10.4-2.6c-3.1-1.7-5.5-4.2-7.4-7.4c-1.8-3.2-2.7-7.1-2.7-11.6
		c0-4.5,0.9-8.4,2.8-11.6c1.9-3.2,4.4-5.7,7.5-7.4c3.1-1.7,6.5-2.5,10.1-2.5c3.6,0,7,0.9,10.1,2.5c3.1,1.7,5.6,4.2,7.6,7.4
		c1.9,3.2,2.9,7.1,2.9,11.7c0,4.5-0.9,8.4-2.8,11.6c-1.8,3.2-4.3,5.7-7.4,7.4C628.9,686.6,625.5,687.5,621.6,687.5z M621.6,683.3
		c3.1,0,5.4-1.4,7-4.2c1.6-2.8,2.4-7.2,2.4-13c0-11.7-3.1-17.5-9.4-17.5c-6.2,0-9.3,5.8-9.3,17.5c0,5.8,0.8,10.2,2.4,13
		C616.2,681.9,618.5,683.3,621.6,683.3z"/>
	<path class="st4" d="M648.2,686.3v-3.5l5.5-1.1c0.1-2.1,0.1-4.4,0.1-6.8s0-4.6,0-6.4v-4.5c0-2.3,0-4.2,0-5.6c0-1.4-0.1-2.9-0.2-4.6
		l-6-0.8v-3.2l14.2-5.4l1.4,0.9l0.6,6.5c4.4-4.9,9.2-7.4,14.5-7.4c3.7,0,6.5,1.2,8.5,3.7c2,2.4,3,6.3,3,11.6v8.8c0,1.9,0,4.1,0,6.5
		s0,4.7,0.1,6.8l5.2,1v3.5h-21v-3.5l5.4-1.1c0.1-2.1,0.1-4.3,0.1-6.8c0-2.4,0-4.6,0-6.5v-8.1c0-3.3-0.5-5.7-1.4-6.9
		c-0.9-1.3-2.4-1.9-4.6-1.9c-3,0-6.2,1.4-9.5,4.2v12.8c0,1.9,0,4,0,6.5s0,4.7,0.1,6.9l5,1v3.5H648.2z"/>
	<path class="st4" d="M714.4,687.5c-2.6,0-5-0.3-7.2-0.9c-2.2-0.6-4.3-1.5-6.5-2.7l-0.1-9.9h5.7l1.5,7.9c2,0.8,4.2,1.3,6.6,1.3
		c2.9,0,5-0.5,6.5-1.5c1.4-1,2.1-2.4,2.1-4.2c0-1.6-0.6-2.9-1.7-3.9c-1.1-1-3.1-1.9-5.8-2.8l-4.2-1.4c-3.2-1-5.7-2.5-7.5-4.5
		c-1.8-2-2.8-4.5-2.8-7.5c0-2.4,0.6-4.5,1.9-6.5c1.2-2,3.1-3.5,5.5-4.7c2.4-1.2,5.3-1.7,8.8-1.7c2.4,0,4.7,0.3,6.7,0.9
		c2,0.6,4,1.5,6,2.6l-0.4,8.9h-5.6l-1.5-7.1c-1.6-0.7-3.3-1-5.3-1c-2.3,0-4,0.5-5.3,1.4c-1.2,1-1.9,2.3-1.9,3.9
		c0,1.5,0.5,2.8,1.6,3.7c1,0.9,3,1.9,5.9,2.8l3.4,1c4.1,1.4,7.1,3.2,8.8,5.3c1.8,2.1,2.6,4.6,2.6,7.6c0,3.8-1.5,6.9-4.6,9.4
		C724.6,686.2,720.2,687.5,714.4,687.5z"/>
	<path class="st4" d="M789.3,687.3c-2.3,0-4.1-0.6-5.5-1.7c-1.4-1.1-2.4-2.7-2.9-4.7c-2.1,2.2-4,3.8-5.7,4.9
		c-1.7,1.1-3.9,1.7-6.6,1.7c-3.2,0-5.9-0.9-8-2.8c-2.2-1.8-3.3-4.5-3.3-7.9c0-1.8,0.4-3.5,1.3-5.1c0.9-1.6,2.4-3,4.5-4.4
		c2.2-1.4,5.3-2.7,9.4-4c1.1-0.4,2.4-0.8,3.8-1.2c1.4-0.4,2.9-0.8,4.3-1.2v-2.4c0-4-0.6-6.6-1.7-8c-1.1-1.4-3-2.1-5.8-2.1
		c-0.5,0-1.1,0-1.7,0.1c-0.6,0.1-1.2,0.1-1.8,0.3l-1,4.7c-0.2,2-0.8,3.5-1.8,4.5c-1,1-2.2,1.4-3.6,1.4c-2.7,0-4.3-1.3-4.8-3.8
		c0.5-3.4,2.3-6.1,5.5-8.2c3.1-2,7.3-3.1,12.5-3.1c4.9,0,8.5,1.2,10.8,3.5c2.3,2.4,3.4,6.3,3.4,11.9v18.5c0,2.5,0.8,3.8,2.5,3.8
		c1.1,0,2.1-0.6,3-1.9l2,1.7c-1,1.9-2.2,3.3-3.6,4.1C793.1,686.9,791.4,687.3,789.3,687.3z M767.2,675c0,2.2,0.6,3.8,1.7,4.8
		c1.2,1,2.6,1.5,4.3,1.5c1,0,1.9-0.2,2.9-0.7c1-0.5,2.5-1.4,4.5-2.8v-13.4c-1.2,0.4-2.3,0.8-3.4,1.1c-1,0.3-1.9,0.7-2.7,0.9
		c-2.8,1.1-4.8,2.4-5.8,3.9C767.7,671.8,767.2,673.3,767.2,675z"/>
	<path class="st4" d="M800.9,686.3v-3.5l5.5-1.1c0.1-2.1,0.1-4.4,0.1-6.8s0-4.6,0-6.4v-4.5c0-2.3,0-4.2,0-5.6c0-1.4-0.1-2.9-0.2-4.6
		l-6-0.8v-3.2l14.2-5.4l1.4,0.9l0.6,6.5c4.4-4.9,9.2-7.4,14.4-7.4c3.7,0,6.5,1.2,8.5,3.7c2,2.4,3,6.3,3,11.6v8.8c0,1.9,0,4.1,0,6.5
		s0,4.7,0.1,6.8l5.2,1v3.5h-21v-3.5l5.4-1.1c0.1-2.1,0.1-4.3,0.1-6.8c0-2.4,0-4.6,0-6.5v-8.1c0-3.3-0.5-5.7-1.4-6.9
		s-2.4-1.9-4.6-1.9c-3,0-6.2,1.4-9.5,4.2v12.8c0,1.9,0,4,0,6.5s0,4.7,0.1,6.9l5,1v3.5H800.9z"/>
	<path class="st4" d="M882.8,687.2l-0.7-5.4c-1.6,1.8-3.3,3.2-5.3,4.2c-1.9,1-4.1,1.4-6.6,1.4c-3.3,0-6.3-0.9-8.9-2.6
		c-2.6-1.7-4.6-4.1-6.1-7.3c-1.5-3.2-2.2-6.9-2.2-11.3c0-4.5,0.8-8.4,2.5-11.6c1.7-3.3,3.9-5.8,6.7-7.6c2.8-1.8,5.9-2.7,9.2-2.7
		c2.2,0,4.1,0.4,5.8,1.2c1.7,0.8,3.4,2.1,4.9,3.9V632l-6.6-0.8v-3.3l15.6-3.8l1.3,0.8l-0.3,12v45.1l5.5,0.9v3.5L882.8,687.2z
		 M863.9,666.1c0,5.2,1,9,2.9,11.5c2,2.5,4.4,3.8,7.4,3.8c1.5,0,2.8-0.3,4-0.9c1.2-0.6,2.4-1.5,3.4-2.6v-24.4
		c-2.5-2.2-5-3.2-7.4-3.2c-2.8,0-5.3,1.3-7.4,3.8C865,656.7,863.9,660.7,863.9,666.1z"/>
</g>
<g class="st3">
	<path class="st4" d="M233.4,777.5c-3.9,0-7.3-0.8-10.4-2.5s-5.5-4.1-7.2-7.3c-1.7-3.2-2.6-7.1-2.6-11.6c0-4.6,1-8.5,2.9-11.7
		c2-3.2,4.5-5.7,7.8-7.4c3.2-1.7,6.7-2.5,10.5-2.5c2.8,0,5.3,0.5,7.5,1.6c2.2,1,4.1,2.5,5.4,4.2c1.4,1.8,2.2,3.7,2.5,6
		c-0.7,2.5-2.3,3.7-4.8,3.7c-3.2,0-5-2-5.5-6l-1.1-5.1c-0.5-0.1-1-0.2-1.5-0.3c-0.5-0.1-1-0.1-1.5-0.1c-2,0-3.9,0.6-5.7,1.7
		c-1.7,1.2-3.1,3-4.2,5.4c-1.1,2.4-1.6,5.5-1.6,9.3c0,5.2,1.2,9.1,3.5,11.8c2.4,2.7,5.4,4.1,9.2,4.1c2.3,0,4.3-0.5,6.1-1.5
		c1.8-1,3.3-2.4,4.6-4.2l2.5,1.9c-1.4,3.5-3.5,6.1-6.3,7.9C240.9,776.6,237.4,777.5,233.4,777.5z"/>
	<path class="st4" d="M255.5,776.3v-3.5l5.6-1.1c0.1-2.1,0.1-4.4,0.1-6.8s0-4.6,0-6.4v-4c0-2.3,0-4.3,0-5.8c0-1.6-0.1-3.2-0.2-4.9
		l-6-0.8v-3.2l15.3-5.4l1.4,0.9l-0.3,12v11.2c0,1.8,0,4,0,6.4s0,4.8,0.1,6.9l5.2,1v3.5H255.5z M266.2,726.5c-1.8,0-3.3-0.6-4.6-1.7
		c-1.2-1.1-1.9-2.6-1.9-4.3c0-1.8,0.6-3.3,1.9-4.4c1.2-1.1,2.8-1.7,4.6-1.7c1.8,0,3.3,0.6,4.5,1.7c1.2,1.1,1.8,2.6,1.8,4.4
		c0,1.8-0.6,3.2-1.8,4.3C269.6,725.9,268,726.5,266.2,726.5z"/>
	<path class="st4" d="M305,739.1v-3.6h16.2v3.6l-4.8,1l-13.9,36.5h-5L282,739.9l-4.4-0.8v-3.6H300v3.6l-6.5,1l9.3,24.7l8.4-24.6
		L305,739.1z"/>
	<path class="st4" d="M324.5,776.3v-3.5l5.6-1.1c0.1-2.1,0.1-4.4,0.1-6.8s0-4.6,0-6.4v-4c0-2.3,0-4.3,0-5.8c0-1.6-0.1-3.2-0.2-4.9
		l-6-0.8v-3.2l15.3-5.4l1.4,0.9l-0.3,12v11.2c0,1.8,0,4,0,6.4s0,4.8,0.1,6.9l5.2,1v3.5H324.5z M335.2,726.5c-1.8,0-3.3-0.6-4.6-1.7
		c-1.2-1.1-1.9-2.6-1.9-4.3c0-1.8,0.6-3.3,1.9-4.4c1.2-1.1,2.8-1.7,4.6-1.7c1.8,0,3.3,0.6,4.5,1.7c1.2,1.1,1.8,2.6,1.8,4.4
		c0,1.8-0.6,3.2-1.8,4.3C338.6,725.9,337.1,726.5,335.2,726.5z"/>
	<path class="st4" d="M350.1,776.3v-3.5l5.8-1.1c0.1-2.2,0.1-4.4,0.1-6.6c0-2.2,0-4.4,0-6.6V722l-6.2-0.8v-3.3l15.5-3.8l1.3,0.8
		l-0.3,12v31.7c0,2.2,0,4.4,0,6.6c0,2.2,0.1,4.4,0.1,6.6l5.8,1.1v3.5H350.1z"/>
	<path class="st4" d="M410.5,777.5c-2.6,0-5-0.3-7.2-0.9c-2.2-0.6-4.3-1.5-6.5-2.7l-0.1-9.9h5.7l1.5,7.9c2,0.8,4.2,1.3,6.6,1.3
		c2.9,0,5-0.5,6.5-1.5c1.4-1,2.1-2.4,2.1-4.2c0-1.6-0.6-2.9-1.7-3.9c-1.1-1-3.1-1.9-5.8-2.8l-4.2-1.4c-3.2-1-5.7-2.5-7.5-4.5
		c-1.8-2-2.8-4.5-2.8-7.5c0-2.4,0.6-4.5,1.9-6.5c1.2-2,3.1-3.5,5.5-4.7c2.4-1.2,5.3-1.7,8.8-1.7c2.4,0,4.7,0.3,6.7,0.9
		c2,0.6,4,1.5,6,2.6l-0.4,8.9h-5.6l-1.5-7.1c-1.6-0.7-3.3-1-5.3-1c-2.3,0-4,0.5-5.3,1.4c-1.2,1-1.9,2.3-1.9,3.9
		c0,1.5,0.5,2.8,1.6,3.7c1,0.9,3,1.9,5.9,2.8l3.4,1c4.1,1.4,7.1,3.2,8.8,5.3c1.8,2.1,2.6,4.6,2.6,7.6c0,3.8-1.5,6.9-4.6,9.4
		C420.6,776.2,416.2,777.5,410.5,777.5z"/>
	<path class="st4" d="M454.7,777.5c-3.9,0-7.3-0.9-10.4-2.6c-3.1-1.7-5.5-4.2-7.4-7.4c-1.8-3.2-2.7-7.1-2.7-11.6
		c0-4.5,0.9-8.4,2.8-11.6c1.9-3.2,4.4-5.7,7.5-7.4c3.1-1.7,6.5-2.5,10.1-2.5c3.6,0,7,0.9,10.1,2.5c3.1,1.7,5.6,4.2,7.6,7.4
		c1.9,3.2,2.9,7.1,2.9,11.7c0,4.5-0.9,8.4-2.8,11.6c-1.8,3.2-4.3,5.7-7.4,7.4C462,776.6,458.5,777.5,454.7,777.5z M454.7,773.3
		c3.1,0,5.4-1.4,7-4.2c1.6-2.8,2.4-7.2,2.4-13c0-11.7-3.1-17.5-9.4-17.5c-6.2,0-9.4,5.8-9.4,17.5c0,5.8,0.8,10.2,2.4,13
		C449.3,771.9,451.6,773.3,454.7,773.3z"/>
	<path class="st4" d="M501.8,777.5c-3.9,0-7.3-0.8-10.4-2.5s-5.5-4.1-7.2-7.3c-1.7-3.2-2.6-7.1-2.6-11.6c0-4.6,1-8.5,2.9-11.7
		c2-3.2,4.5-5.7,7.8-7.4c3.2-1.7,6.7-2.5,10.5-2.5c2.8,0,5.3,0.5,7.5,1.6c2.2,1,4.1,2.5,5.4,4.2c1.4,1.8,2.2,3.7,2.5,6
		c-0.7,2.5-2.3,3.7-4.8,3.7c-3.2,0-5-2-5.5-6l-1.1-5.1c-0.5-0.1-1-0.2-1.5-0.3c-0.5-0.1-1-0.1-1.5-0.1c-2,0-3.9,0.6-5.7,1.7
		c-1.7,1.2-3.1,3-4.2,5.4c-1.1,2.4-1.6,5.5-1.6,9.3c0,5.2,1.2,9.1,3.5,11.8c2.4,2.7,5.4,4.1,9.2,4.1c2.3,0,4.3-0.5,6.1-1.5
		c1.8-1,3.3-2.4,4.6-4.2l2.5,1.9c-1.4,3.5-3.5,6.1-6.3,7.9C509.3,776.6,505.9,777.5,501.8,777.5z"/>
	<path class="st4" d="M523.9,776.3v-3.5l5.6-1.1c0.1-2.1,0.1-4.4,0.1-6.8s0-4.6,0-6.4v-4c0-2.3,0-4.3,0-5.8c0-1.6-0.1-3.2-0.2-4.9
		l-6-0.8v-3.2l15.3-5.4l1.4,0.9l-0.3,12v11.2c0,1.8,0,4,0,6.4s0,4.8,0.1,6.9l5.2,1v3.5H523.9z M534.7,726.5c-1.8,0-3.3-0.6-4.6-1.7
		c-1.2-1.1-1.9-2.6-1.9-4.3c0-1.8,0.6-3.3,1.9-4.4c1.2-1.1,2.8-1.7,4.6-1.7c1.8,0,3.3,0.6,4.5,1.7c1.2,1.1,1.8,2.6,1.8,4.4
		c0,1.8-0.6,3.2-1.8,4.3C538,725.9,536.5,726.5,534.7,726.5z"/>
	<path class="st4" d="M570.5,777.5c-4,0-7.5-0.9-10.5-2.6c-3-1.7-5.4-4.2-7.1-7.4c-1.7-3.2-2.5-7-2.5-11.4c0-4.5,1-8.4,2.9-11.7
		s4.5-5.8,7.6-7.5c3.1-1.7,6.5-2.6,10.1-2.6c3.3,0,6.3,0.7,8.8,2.1c2.5,1.4,4.4,3.4,5.8,6c1.4,2.5,2.1,5.6,2.1,9
		c0,1.8-0.2,3.4-0.5,4.7h-26c0.2,4.9,1.5,8.5,3.9,11c2.4,2.4,5.3,3.7,8.9,3.7c2.5,0,4.6-0.5,6.3-1.5c1.7-1,3.3-2.3,4.7-3.9l2.5,2.2
		c-1.6,3.1-3.9,5.5-6.8,7.3C577.9,776.6,574.5,777.5,570.5,777.5z M570.5,738.5c-1.4,0-2.7,0.4-4,1.3c-1.3,0.9-2.5,2.3-3.4,4.3
		c-0.9,2-1.5,4.7-1.7,8.1H573c2,0,3.4-0.4,4.1-1.3s1-2,1-3.6c0-2.6-0.7-4.7-2.2-6.4C574.4,739.3,572.6,738.5,570.5,738.5z"/>
	<path class="st4" d="M609,777.5c-3.4,0-6.1-0.9-8-2.6c-1.9-1.7-2.9-4.4-2.9-8.2c0-1.3,0-2.5,0-3.7c0-1.2,0-2.6,0-4.2v-18.1h-6.3
		v-4.4l6.9-0.8l3.2-11.6h6.9l-0.3,11.7h10.2v5.2h-10.3v25.1c0,2.1,0.4,3.6,1.2,4.6c0.8,1,1.9,1.4,3.3,1.4c1.5,0,3.3-0.7,5.2-2.1
		l2,2.1c-1.1,1.8-2.5,3.1-4.4,4.1C614,777,611.7,777.5,609,777.5z"/>
	<path class="st4" d="M648,739v-3.4h16.3v3.4l-4.8,0.9l-14.5,37.9c-2.4,6.5-4.9,11.3-7.4,14.5c-2.5,3.1-5.6,4.7-9.3,4.7
		c-2.2,0-4.1-0.6-5.7-1.7c-1.6-1.1-2.5-2.5-2.6-4.2c0.3-1.5,1.1-2.7,2.3-3.4c1.2-0.8,2.6-1.1,4-1.1c1.1,0,2.3,0.2,3.4,0.7
		c1.1,0.5,2.2,1.4,3.4,2.8l0.5,0.7c1.5-1.5,2.9-3.2,4-5.1c1.1-1.9,2.1-3.9,2.8-6.1l0.2-0.5l-16.2-39.4l-4.3-0.7v-3.4h22.3v3.4
		l-6.7,0.9l9.5,26l9.3-25.9L648,739z"/>
	<path class="st4" d="M685.8,776.3v-3.5l5.8-1.1c0.1-2.2,0.1-4.4,0.1-6.6c0-2.2,0-4.4,0-6.6V722l-6.2-0.8v-3.3L701,714l1.3,0.8
		l-0.3,12v31.7c0,2.2,0,4.4,0,6.6c0,2.2,0.1,4.4,0.1,6.6l5.8,1.1v3.5H685.8z"/>
	<path class="st4" d="M733.1,777.5c-4,0-7.5-0.9-10.5-2.6c-3-1.7-5.4-4.2-7.1-7.4c-1.7-3.2-2.5-7-2.5-11.4c0-4.5,1-8.4,2.9-11.7
		s4.5-5.8,7.7-7.5c3.1-1.7,6.5-2.6,10.1-2.6c3.3,0,6.3,0.7,8.8,2.1c2.5,1.4,4.4,3.4,5.8,6s2.1,5.6,2.1,9c0,1.8-0.2,3.4-0.5,4.7h-26
		c0.2,4.9,1.5,8.5,3.9,11c2.4,2.4,5.3,3.7,8.9,3.7c2.5,0,4.6-0.5,6.3-1.5c1.7-1,3.3-2.3,4.7-3.9l2.5,2.2c-1.6,3.1-3.9,5.5-6.8,7.3
		C740.5,776.6,737.1,777.5,733.1,777.5z M733.1,738.5c-1.4,0-2.7,0.4-4,1.3c-1.3,0.9-2.5,2.3-3.4,4.3c-0.9,2-1.5,4.7-1.7,8.1h11.6
		c2,0,3.4-0.4,4.1-1.3c0.7-0.8,1-2,1-3.6c0-2.6-0.7-4.7-2.2-6.4C737,739.3,735.2,738.5,733.1,738.5z"/>
	<path class="st4" d="M788.5,777.3c-2.3,0-4.1-0.6-5.5-1.7c-1.4-1.1-2.4-2.7-2.9-4.7c-2.1,2.2-4,3.8-5.7,4.9
		c-1.7,1.1-3.9,1.7-6.6,1.7c-3.2,0-5.9-0.9-8-2.8c-2.2-1.8-3.3-4.5-3.3-7.9c0-1.8,0.4-3.5,1.3-5.1c0.9-1.6,2.4-3,4.5-4.4
		c2.2-1.4,5.3-2.7,9.4-4c1.1-0.4,2.4-0.8,3.8-1.2c1.4-0.4,2.9-0.8,4.3-1.2v-2.4c0-4-0.6-6.6-1.7-8c-1.1-1.4-3-2.1-5.8-2.1
		c-0.5,0-1.1,0-1.7,0.1c-0.6,0.1-1.2,0.1-1.8,0.3l-1,4.7c-0.2,2-0.8,3.5-1.8,4.5c-1,1-2.2,1.4-3.6,1.4c-2.7,0-4.3-1.3-4.8-3.8
		c0.5-3.4,2.3-6.1,5.5-8.2c3.1-2,7.3-3.1,12.5-3.1c4.9,0,8.5,1.2,10.8,3.5c2.3,2.4,3.4,6.3,3.4,11.9v18.5c0,2.5,0.8,3.8,2.5,3.8
		c1.1,0,2.1-0.6,3-1.9l2,1.7c-1,1.9-2.2,3.3-3.6,4.1C792.2,776.9,790.5,777.3,788.5,777.3z M766.4,765c0,2.2,0.6,3.8,1.7,4.8
		c1.2,1,2.6,1.5,4.3,1.5c1,0,1.9-0.2,2.9-0.7c1-0.5,2.5-1.4,4.5-2.8v-13.4c-1.2,0.4-2.3,0.8-3.4,1.1c-1,0.3-1.9,0.7-2.7,0.9
		c-2.8,1.1-4.8,2.4-5.8,3.9C766.9,761.8,766.4,763.3,766.4,765z"/>
	<path class="st4" d="M830.3,777.2l-0.7-5.4c-1.6,1.8-3.3,3.2-5.3,4.2c-1.9,1-4.1,1.4-6.6,1.4c-3.3,0-6.3-0.9-8.9-2.6
		c-2.6-1.7-4.6-4.1-6.1-7.3c-1.5-3.2-2.2-6.9-2.2-11.3c0-4.5,0.8-8.4,2.5-11.6c1.7-3.3,3.9-5.8,6.7-7.6c2.8-1.8,5.9-2.7,9.2-2.7
		c2.2,0,4.1,0.4,5.8,1.2c1.7,0.8,3.4,2.1,4.9,3.9V722l-6.6-0.8v-3.3l15.6-3.8l1.3,0.8l-0.3,12v45.1l5.5,0.9v3.5L830.3,777.2z
		 M811.4,756.1c0,5.2,1,9,2.9,11.5c2,2.5,4.4,3.8,7.4,3.8c1.5,0,2.8-0.3,4-0.9c1.2-0.6,2.4-1.5,3.4-2.6v-24.4
		c-2.5-2.2-5-3.2-7.4-3.2c-2.8,0-5.3,1.3-7.4,3.8C812.4,746.7,811.4,750.7,811.4,756.1z"/>
	<path class="st4" d="M869.9,777.5c-4,0-7.5-0.9-10.5-2.6c-3-1.7-5.4-4.2-7.1-7.4c-1.7-3.2-2.6-7-2.6-11.4c0-4.5,1-8.4,2.9-11.7
		s4.5-5.8,7.7-7.5c3.1-1.7,6.5-2.6,10.1-2.6c3.3,0,6.3,0.7,8.8,2.1c2.5,1.4,4.4,3.4,5.8,6c1.4,2.5,2.1,5.6,2.1,9
		c0,1.8-0.2,3.4-0.5,4.7h-26c0.2,4.9,1.5,8.5,3.9,11c2.4,2.4,5.3,3.7,8.9,3.7c2.5,0,4.6-0.5,6.3-1.5c1.7-1,3.3-2.3,4.7-3.9l2.5,2.2
		c-1.6,3.1-3.9,5.5-6.8,7.3C877.3,776.6,873.9,777.5,869.9,777.5z M869.9,738.5c-1.4,0-2.7,0.4-4,1.3c-1.3,0.9-2.5,2.3-3.4,4.3
		c-0.9,2-1.5,4.7-1.7,8.1h11.6c2,0,3.4-0.4,4.1-1.3s1-2,1-3.6c0-2.6-0.7-4.7-2.2-6.4C873.8,739.3,872,738.5,869.9,738.5z"/>
	<path class="st4" d="M893.4,776.3v-3.5l5.4-1c0.1-2.2,0.1-4.5,0.1-6.9s0-4.6,0-6.4v-4.5c0-2.3,0-4.2,0-5.6c0-1.4-0.1-2.9-0.2-4.6
		l-6-0.8v-3.2l14.2-5.4l1.4,0.9l0.9,10c1.3-3.5,3.1-6.2,5.3-8.1c2.2-1.9,4.4-2.8,6.6-2.8c1.5,0,2.9,0.4,4.2,1.2
		c1.3,0.8,2.1,1.9,2.5,3.4c-0.1,2.1-0.6,3.7-1.5,4.9c-1,1.2-2.3,1.7-4,1.7c-2,0-4-1-5.8-3.1l-0.8-0.8c-3,2.5-5.2,6-6.5,10.5v6.2
		c0,1.8,0,3.8,0,6.2c0,2.4,0,4.7,0.1,6.8l7,1.4v3.5H893.4z"/>
	<path class="st4" d="M944.4,777.5c-2.6,0-5-0.3-7.2-0.9c-2.2-0.6-4.3-1.5-6.5-2.7l-0.1-9.9h5.7l1.5,7.9c2,0.8,4.2,1.3,6.6,1.3
		c2.9,0,5-0.5,6.5-1.5c1.4-1,2.1-2.4,2.1-4.2c0-1.6-0.6-2.9-1.7-3.9c-1.1-1-3.1-1.9-5.8-2.8l-4.2-1.4c-3.2-1-5.7-2.5-7.5-4.5
		c-1.8-2-2.8-4.5-2.8-7.5c0-2.4,0.6-4.5,1.9-6.5c1.2-2,3.1-3.5,5.5-4.7c2.4-1.2,5.3-1.7,8.8-1.7c2.4,0,4.7,0.3,6.7,0.9
		c2,0.6,4,1.5,6,2.6l-0.4,8.9h-5.6l-1.5-7.1c-1.6-0.7-3.3-1-5.3-1c-2.3,0-4,0.5-5.3,1.4c-1.2,1-1.9,2.3-1.9,3.9
		c0,1.5,0.5,2.8,1.6,3.7c1,0.9,3,1.9,5.9,2.8l3.4,1c4.1,1.4,7.1,3.2,8.8,5.3c1.8,2.1,2.6,4.6,2.6,7.6c0,3.8-1.5,6.9-4.6,9.4
		C954.6,776.2,950.2,777.5,944.4,777.5z"/>
</g>
<g class="st3">
	<path class="st4" d="M213,866.3v-3.5l5.6-1.1c0.1-2.1,0.1-4.4,0.1-6.8s0-4.6,0-6.4v-4c0-2.3,0-4.3,0-5.8c0-1.6-0.1-3.2-0.2-4.9
		l-6-0.8v-3.2l15.3-5.4l1.4,0.9l-0.3,12v11.2c0,1.8,0,4,0,6.4s0,4.8,0.1,6.9l5.2,1v3.5H213z M223.7,816.5c-1.8,0-3.3-0.6-4.6-1.7
		c-1.2-1.1-1.9-2.6-1.9-4.3c0-1.8,0.6-3.3,1.9-4.4c1.2-1.1,2.8-1.7,4.6-1.7c1.8,0,3.3,0.6,4.5,1.7c1.2,1.1,1.8,2.6,1.8,4.4
		c0,1.8-0.6,3.2-1.8,4.3C227.1,815.9,225.5,816.5,223.7,816.5z"/>
	<path class="st4" d="M239.3,866.3v-3.5l5.5-1.1c0.1-2.1,0.1-4.4,0.1-6.8s0-4.6,0-6.4v-4.5c0-2.3,0-4.2,0-5.6c0-1.4-0.1-2.9-0.2-4.6
		l-6-0.8v-3.2l14.2-5.4l1.4,0.9l0.6,6.5c4.4-4.9,9.2-7.4,14.5-7.4c3.7,0,6.5,1.2,8.5,3.7c2,2.4,3,6.3,3,11.6v8.8c0,1.9,0,4.1,0,6.5
		s0,4.7,0.1,6.8l5.2,1v3.5h-21v-3.5l5.4-1.1c0.1-2.1,0.1-4.3,0.1-6.8c0-2.4,0-4.6,0-6.5v-8.1c0-3.3-0.5-5.7-1.4-6.9
		c-0.9-1.3-2.4-1.9-4.6-1.9c-3,0-6.2,1.4-9.5,4.2v12.8c0,1.9,0,4,0,6.5s0,4.7,0.1,6.9l5,1v3.5H239.3z"/>
	<path class="st4" d="M310.7,813.9v-4h25.9v4l-7.5,0.9c-0.1,3.5-0.1,7.1-0.1,10.7c0,3.6,0,7.2,0,10.8v5.2c0,3,0,6.2,0,9.7
		c0,3.5,0.1,7,0.1,10.5h17.2l2.4-11.7h5.9l-0.8,16.3h-43.1v-4l7.1-0.8c0.1-3.6,0.2-7.1,0.2-10.6c0-3.5,0-6.8,0-10.1v-4.6
		c0-3.7,0-7.3,0-10.9c0-3.6-0.1-7.2-0.2-10.7L310.7,813.9z"/>
	<path class="st4" d="M392.7,867.3c-2.3,0-4.1-0.6-5.5-1.7c-1.4-1.1-2.4-2.7-2.9-4.7c-2.1,2.2-4,3.8-5.7,4.9
		c-1.7,1.1-3.9,1.7-6.6,1.7c-3.2,0-5.9-0.9-8-2.8c-2.2-1.8-3.3-4.5-3.3-7.9c0-1.8,0.4-3.5,1.3-5.1s2.4-3,4.5-4.4
		c2.2-1.4,5.3-2.7,9.4-4c1.1-0.4,2.4-0.8,3.8-1.2c1.4-0.4,2.9-0.8,4.3-1.2v-2.4c0-4-0.6-6.6-1.7-8c-1.1-1.4-3-2.1-5.8-2.1
		c-0.5,0-1.1,0-1.7,0.1c-0.6,0.1-1.2,0.1-1.8,0.3l-1,4.7c-0.2,2-0.8,3.5-1.8,4.5c-1,1-2.2,1.4-3.6,1.4c-2.7,0-4.3-1.3-4.8-3.8
		c0.5-3.4,2.3-6.1,5.5-8.2s7.3-3.1,12.5-3.1c4.9,0,8.5,1.2,10.8,3.5c2.3,2.4,3.4,6.3,3.4,11.9v18.5c0,2.5,0.8,3.8,2.5,3.8
		c1.1,0,2.1-0.6,3-1.9l2,1.7c-1,1.9-2.2,3.3-3.6,4.1C396.5,866.9,394.7,867.3,392.7,867.3z M370.6,855c0,2.2,0.6,3.8,1.7,4.8
		c1.2,1,2.6,1.5,4.3,1.5c1,0,1.9-0.2,2.9-0.7c1-0.5,2.5-1.4,4.5-2.8v-13.4c-1.2,0.4-2.3,0.8-3.4,1.1c-1,0.3-1.9,0.7-2.7,0.9
		c-2.8,1.1-4.8,2.4-5.8,3.9C371.1,851.8,370.6,853.3,370.6,855z"/>
	<path class="st4" d="M419.6,867.5c-3.4,0-6.1-0.9-8-2.6c-1.9-1.7-2.9-4.4-2.9-8.2c0-1.3,0-2.5,0-3.7c0-1.2,0-2.6,0-4.2v-18.1h-6.3
		v-4.4l6.9-0.8l3.2-11.6h6.9l-0.3,11.7h10.2v5.2h-10.3v25.1c0,2.1,0.4,3.6,1.2,4.6c0.8,1,1.9,1.4,3.3,1.4c1.5,0,3.3-0.7,5.2-2.1
		l2,2.1c-1.1,1.8-2.5,3.1-4.4,4.1C424.5,867,422.2,867.5,419.6,867.5z"/>
	<path class="st4" d="M433.3,866.3v-3.5l5.6-1.1c0.1-2.1,0.1-4.4,0.1-6.8s0-4.6,0-6.4v-4c0-2.3,0-4.3,0-5.8c0-1.6-0.1-3.2-0.2-4.9
		l-6-0.8v-3.2l15.3-5.4l1.4,0.9l-0.3,12v11.2c0,1.8,0,4,0,6.4s0,4.8,0.1,6.9l5.2,1v3.5H433.3z M444,816.5c-1.8,0-3.3-0.6-4.6-1.7
		c-1.2-1.1-1.9-2.6-1.9-4.3c0-1.8,0.6-3.3,1.9-4.4c1.2-1.1,2.8-1.7,4.6-1.7c1.8,0,3.3,0.6,4.5,1.7c1.2,1.1,1.8,2.6,1.8,4.4
		c0,1.8-0.6,3.2-1.8,4.3C447.4,815.9,445.9,816.5,444,816.5z"/>
	<path class="st4" d="M459.6,866.3v-3.5l5.5-1.1c0.1-2.1,0.1-4.4,0.1-6.8s0-4.6,0-6.4v-4.5c0-2.3,0-4.2,0-5.6c0-1.4-0.1-2.9-0.2-4.6
		l-6-0.8v-3.2l14.2-5.4l1.4,0.9l0.6,6.5c4.4-4.9,9.2-7.4,14.5-7.4c3.7,0,6.5,1.2,8.5,3.7c2,2.4,3,6.3,3,11.6v8.8c0,1.9,0,4.1,0,6.5
		s0,4.7,0.1,6.8l5.2,1v3.5h-21v-3.5l5.4-1.1c0.1-2.1,0.1-4.3,0.1-6.8c0-2.4,0-4.6,0-6.5v-8.1c0-3.3-0.5-5.7-1.4-6.9
		c-0.9-1.3-2.4-1.9-4.6-1.9c-3,0-6.2,1.4-9.5,4.2v12.8c0,1.9,0,4,0,6.5s0,4.7,0.1,6.9l5,1v3.5H459.6z"/>
	<path class="st4" d="M528.3,866.3v-4l7-1l17.8-51.7h7l17.8,52.1l5.8,0.7v3.9H559v-3.9l7.5-0.9l-4.1-12.6h-18.5l-4.1,12.3l7.4,1.1v4
		H528.3z M553.2,820.9l-7.8,23.5h15.6L553.2,820.9z"/>
	<path class="st4" d="M587.4,866.3v-3.5l5.5-1.1c0.1-2.1,0.1-4.4,0.1-6.8s0-4.6,0-6.4v-4.5c0-2.3,0-4.2,0-5.6c0-1.4-0.1-2.9-0.2-4.6
		l-6-0.8v-3.2l14.2-5.4l1.4,0.9l0.6,6.6c2-2.3,4.3-4.2,6.7-5.5c2.4-1.3,4.9-2,7.5-2c5.5,0,9,2.6,10.6,7.7c2.3-2.7,4.6-4.7,7.1-5.9
		c2.4-1.2,5-1.8,7.6-1.8c3.9,0,6.7,1.2,8.7,3.6c1.9,2.4,2.9,6.2,2.9,11.4v9.1c0,1.9,0,4.1,0,6.5c0,2.4,0,4.7,0.1,6.8l5.2,1v3.5
		h-20.7v-3.5l5.3-1.1c0.1-2.1,0.1-4.3,0.1-6.8c0-2.4,0-4.6,0-6.5v-7.8c0-3.6-0.5-6-1.4-7.2c-0.9-1.2-2.5-1.9-4.6-1.9
		c-3,0-6.1,1.4-9.3,4.3c0.1,0.6,0.1,1.2,0.1,1.8c0,0.6,0,1.3,0,2v8.8c0,1.9,0,4.1,0,6.5c0,2.4,0,4.7,0.1,6.8l5.1,1v3.5H613v-3.5
		l5.4-1.1c0.1-2.1,0.1-4.3,0.1-6.8c0-2.4,0-4.6,0-6.5v-7.7c0-3.5-0.4-5.9-1.3-7.2c-0.9-1.4-2.4-2-4.6-2c-1.6,0-3.2,0.4-4.7,1.1
		c-1.6,0.8-3.1,1.8-4.5,3.1v12.7c0,1.9,0,4,0,6.5s0,4.7,0.1,6.9l5,1v3.5H587.4z"/>
	<path class="st4" d="M684.6,867.5c-4,0-7.5-0.9-10.5-2.6c-3-1.7-5.4-4.2-7.1-7.4c-1.7-3.2-2.5-7-2.5-11.4c0-4.5,1-8.4,2.9-11.7
		s4.5-5.8,7.7-7.5c3.1-1.7,6.5-2.6,10.1-2.6c3.3,0,6.3,0.7,8.8,2.1c2.5,1.4,4.4,3.4,5.8,6s2.1,5.6,2.1,9c0,1.8-0.2,3.4-0.5,4.7h-26
		c0.2,4.9,1.5,8.5,3.9,11c2.4,2.4,5.3,3.7,8.9,3.7c2.5,0,4.6-0.5,6.3-1.5c1.7-1,3.3-2.3,4.7-3.9l2.5,2.2c-1.6,3.1-3.9,5.5-6.8,7.3
		C692,866.6,688.6,867.5,684.6,867.5z M684.6,828.5c-1.4,0-2.7,0.4-4,1.3c-1.3,0.9-2.5,2.3-3.4,4.3c-0.9,2-1.5,4.7-1.7,8.1h11.6
		c2,0,3.4-0.4,4.1-1.3c0.7-0.8,1-2,1-3.6c0-2.6-0.7-4.7-2.2-6.4C688.5,829.3,686.7,828.5,684.6,828.5z"/>
	<path class="st4" d="M708.1,866.3v-3.5l5.4-1c0.1-2.2,0.1-4.5,0.1-6.9s0-4.6,0-6.4v-4.5c0-2.3,0-4.2,0-5.6c0-1.4-0.1-2.9-0.2-4.6
		l-6-0.8v-3.2l14.2-5.4l1.4,0.9l0.8,10c1.3-3.5,3.1-6.2,5.3-8.1c2.2-1.9,4.4-2.8,6.6-2.8c1.5,0,2.9,0.4,4.2,1.2
		c1.3,0.8,2.1,1.9,2.5,3.4c-0.1,2.1-0.6,3.7-1.5,4.9c-1,1.2-2.3,1.7-4,1.7c-2,0-4-1-5.8-3.1l-0.8-0.8c-3,2.5-5.2,6-6.5,10.5v6.2
		c0,1.8,0,3.8,0,6.2c0,2.4,0,4.7,0.1,6.8l7,1.4v3.5H708.1z"/>
	<path class="st4" d="M745.5,866.3v-3.5l5.6-1.1c0.1-2.1,0.1-4.4,0.1-6.8s0-4.6,0-6.4v-4c0-2.3,0-4.3,0-5.8c0-1.6-0.1-3.2-0.2-4.9
		l-6-0.8v-3.2l15.3-5.4l1.4,0.9l-0.3,12v11.2c0,1.8,0,4,0,6.4s0,4.8,0.1,6.9l5.2,1v3.5H745.5z M756.2,816.5c-1.8,0-3.3-0.6-4.6-1.7
		c-1.2-1.1-1.9-2.6-1.9-4.3c0-1.8,0.6-3.3,1.9-4.4c1.2-1.1,2.8-1.7,4.6-1.7c1.8,0,3.3,0.6,4.5,1.7c1.2,1.1,1.8,2.6,1.8,4.4
		c0,1.8-0.6,3.2-1.8,4.3C759.6,815.9,758.1,816.5,756.2,816.5z"/>
	<path class="st4" d="M792,867.5c-3.9,0-7.3-0.8-10.4-2.5s-5.5-4.1-7.2-7.3c-1.7-3.2-2.6-7.1-2.6-11.6c0-4.6,1-8.5,2.9-11.7
		c2-3.2,4.5-5.7,7.8-7.4c3.2-1.7,6.7-2.5,10.5-2.5c2.8,0,5.3,0.5,7.5,1.6c2.2,1,4.1,2.5,5.4,4.2c1.4,1.8,2.2,3.7,2.5,6
		c-0.7,2.5-2.3,3.7-4.8,3.7c-3.2,0-5-2-5.5-6l-1.1-5.1c-0.5-0.1-1-0.2-1.5-0.3c-0.5-0.1-1-0.1-1.5-0.1c-2,0-3.9,0.6-5.7,1.7
		c-1.7,1.2-3.1,3-4.2,5.4c-1.1,2.4-1.6,5.5-1.6,9.3c0,5.2,1.2,9.1,3.5,11.8c2.4,2.7,5.4,4.1,9.2,4.1c2.3,0,4.3-0.5,6.1-1.5
		c1.8-1,3.3-2.4,4.6-4.2l2.6,1.9c-1.4,3.5-3.5,6.1-6.3,7.9C799.5,866.6,796.1,867.5,792,867.5z"/>
	<path class="st4" d="M846.3,867.3c-2.3,0-4.1-0.6-5.5-1.7c-1.4-1.1-2.4-2.7-2.9-4.7c-2.1,2.2-4,3.8-5.7,4.9
		c-1.7,1.1-3.9,1.7-6.6,1.7c-3.2,0-5.9-0.9-8-2.8c-2.2-1.8-3.3-4.5-3.3-7.9c0-1.8,0.4-3.5,1.3-5.1c0.9-1.6,2.4-3,4.5-4.4
		c2.2-1.4,5.3-2.7,9.4-4c1.1-0.4,2.4-0.8,3.8-1.2c1.4-0.4,2.9-0.8,4.3-1.2v-2.4c0-4-0.6-6.6-1.7-8c-1.1-1.4-3-2.1-5.8-2.1
		c-0.5,0-1.1,0-1.7,0.1c-0.6,0.1-1.2,0.1-1.8,0.3l-1,4.7c-0.2,2-0.8,3.5-1.8,4.5c-1,1-2.2,1.4-3.6,1.4c-2.7,0-4.3-1.3-4.8-3.8
		c0.5-3.4,2.3-6.1,5.5-8.2c3.1-2,7.3-3.1,12.5-3.1c4.9,0,8.5,1.2,10.8,3.5c2.3,2.4,3.4,6.3,3.4,11.9v18.5c0,2.5,0.8,3.8,2.5,3.8
		c1.1,0,2.1-0.6,3-1.9l2,1.7c-1,1.9-2.2,3.3-3.6,4.1C850.1,866.9,848.4,867.3,846.3,867.3z M824.2,855c0,2.2,0.6,3.8,1.7,4.8
		c1.2,1,2.6,1.5,4.3,1.5c1,0,1.9-0.2,2.9-0.7c1-0.5,2.5-1.4,4.5-2.8v-13.4c-1.2,0.4-2.3,0.8-3.4,1.1c-1,0.3-1.9,0.7-2.7,0.9
		c-2.8,1.1-4.8,2.4-5.8,3.9C824.8,851.8,824.2,853.3,824.2,855z"/>
	<path class="st4" d="M868,867.5c-1.9,0-3.5-0.7-4.8-2c-1.3-1.3-2-2.9-2-4.7c0-1.9,0.7-3.6,2-4.9c1.3-1.4,2.9-2,4.8-2
		c1.9,0,3.5,0.7,4.8,2c1.3,1.4,2,3,2,4.9c0,1.8-0.7,3.4-2,4.7C871.6,866.8,869.9,867.5,868,867.5z"/>
</g>
</svg>
