<?xml version="1.0" encoding="utf-8"?>
<!-- Generator: Adobe Illustrator 25.2.3, SVG Export Plug-In . SVG Version: 6.00 Build 0)  -->
<svg version="1.1" id="Layer_1" xmlns="http://www.w3.org/2000/svg" xmlns:xlink="http://www.w3.org/1999/xlink" x="0px" y="0px"
	 viewBox="0 0 1190.6 1133.9" style="enable-background:new 0 0 1190.6 1133.9;" xml:space="preserve">
<style type="text/css">
	.st0{fill:#0136F5;}
	.st1{fill:#E95846;}
	.st2{fill:none;}
	.st3{enable-background:new    ;}
	.st4{fill:#FFFFFF;}
</style>
<path class="st0" d="M137.1,985.8c-0.5-2.2-0.8-3.8-1-4.8c-5.7-2.8-11.2-5.6-19.2-9.6c-1.9,0.3-6.8,1.1-11.2,1.7
	c-9.1-2.1-18.4-4.3-29.8-6.9c-3.9-10.6-23.6-3.6-27.4-19.9c-13.5,3.2-21.9-9.2-34.2-10.9c-0.4-3.5-0.7-6.3-1-9.1
	c-2.2-0.9-4.3-1.7-6.3-2.5c-0.4-2.9-0.7-5.8-1.1-9.4c-2,1.2-3.6,2.1-5.9,3.3V101.3c7.2,1,13.8,1.9,23.4,3.1c-0.9,0.6,1-0.6,3.2-2
	c8.7,2,17.9,4,28.4,6.4c0.7-0.5,2.5-1.9,4.9-3.7c4.1,2.1,8.6,4.4,15,7.6c2.5,0,7.3,0.1,12,0c11.1-0.4,21.3,2.3,32,5.3
	c18.2,5.2,35.2,13.9,53.6,18.5c5.9,1.5,10,1.9,12.4-2c9.4,3.1,17.3,5.8,25.5,8.5c3,3.6,5.9,10.4,10.5,11.8
	c9.1,2.9,18.6,7.5,28.5,3.4c7.1,16.2,29.3,12,36.8,29.1c11,3.6,24.5,6.1,36.2,12.2c23.7,12.5,23.3,13.3,39.2,13.3
	c2.1,2.1,4.2,4.2,6.8,6.7c1.6-1,3.3-2.1,6.1-3.8c2.7,2.3,5.8,4.9,9.1,7.7c11.8,1.6,23.5-1.6,34.6-6.2c6-2.4,12.1,0,18.6-3
	c10.5-4.9,22.7-5.9,34.2-8.6c0.6-0.1,1.4,0.2,1.8-0.1c20-13.6,44.7-13.6,66.2-22.7c4.1-1.8,7.8-1.7,11.6-2.3
	c9.5-1.6,19.1-3.2,28.6-5c1-0.2,1.8-1.4,2.7-2.2c12.5,4.8,30.4,5,42.3,0.6c3.6,4.7,7.3,9.4,11,14.2c7.4-1.5,14-8.5,21.2-1.2
	c6.8-1.4,13.1,5.7,20.2,0.9c1.7-1.1,5.3-1.1,7,0c8.7,5.3,18.3,3.7,27.4,3.2c10.1-0.6,19.5,2.3,29.2,3.8c8.9,1.3,17.4,3.8,25.9,6.9
	c7.9,2.9,16.6,3.5,23.3,4.8c11,11.7,26,13.9,38.3,19.9c12.7,6.2,28.1,7.1,43.4,10.5c1.4-2.1,3.5-5.3,6.3-9.4h14.5
	c1.6,4.6,3.2,9.3,5.1,14.8c-0.8,1.1-2.1,2.9-3.9,5.4c6.8,1.9,13.2,3.7,21.2,6c1.3,2.8,3.3,7.3,5.5,12c10.5,4.4,21.9,7.3,31.5,14.8
	c4.1,3.2,10.5,3.5,16.9,5.5c2.2,3.4,6,7.7,8,12.8c1.9,4.9,10.4,3.2,9,10.3c7.5,0.2,7.8,10.4,14.9,10.9c7.6,0.5,6,12.4,14.8,11.7
	c0.6-0.1,1.6,3.8,2.3,5.8c3,0.4,5.9,0.7,8.2,1c7.3,16.6,12.2,34.2,30.2,43.2v13.4c5.6,5.5,9.7,9.4,13.7,13.4
	c1.5-1.5,3.7-3.6,6.6-6.5c3,7.9,4.5,16.4,9,22.7c5,7.1,0,18.4,10.5,22.6c-1,9.2,6.7,15.1,8.6,23.1h7.7c0.6,1,1.8,2.1,1.7,2.9
	c-2.5,10.2,3.9,19.1,3.8,28.9c0,1.5,1,3.6,2.3,4.3c6.5,3.9,4.3,10.3,5,15.8c2.2,2.2,4.3,4.3,7.1,7V544c2.7,1,4.8,1.8,7.2,2.7
	c0.5,15.4-2.5,31.3,7.5,44.4c-2.7,6.9-5.1,13.1-7.5,19.5c1.2,1.7,2.4,3.6,2.8,4.1c-1,6.7-2.4,12.2-2.6,17.7
	c-0.3,13.7,0.1,27.4-0.2,41.1c-0.1,3.8-1.8,7.5-3,12.2c1.4,3.4,6,7.5,1.9,12.9c-3.7,4.8-3.4,9.3,2.4,14.2h-9.5
	c-1.1,1.6-2.4,2.6-2.3,3.4c1.1,8.4-3.5,15.3-5.9,22.7c-1.9,5.8-2.6,11.1,1.8,16.2c-2.5,3.2-5.4,6.9-10.2,13
	c0.5,1.6,1.8,6.3,3.2,11.2c-3.2,3.6-11.6,2.9-10.5,11.3c2.2,1.1,4.7,2.2,7.7,3.6c-4.6,7.8-9.1,15.4-13.5,22.9
	c-1.5,0.4-3.2,0.8-4.9,1.2v8.7l-11.1,9.2v16.1h-8.2c-4.1,11.7-10,19.1-24.3,35.1c-7.2,8-13.6,16.8-20.4,25.4c-1-0.6-3.3-1.9-7-4
	c-0.7,4.6-1.2,7.8-1.8,11.7h-7.1c-13.6,15.8-32.5,23.8-43.6,39.6c-4.7,0.3-8.7,0.5-14,0.8c1.5,2,2.4,3.2,3.5,4.7
	c-7.3,3-14.6,6.1-22,9.2c-5.1-1.3-10.4-2.8-15.5-4.1c-1.2,3.3-2,5.4-2.9,7.8c-5-1.5-9.7-2.9-14.9-4.5c-2.5,3.8-4.7,7-7.5,11.2h-12.3
	c-13,6.3-25.3,12.8-38.1,18.1c-4.1,1.7-9.5,0.3-14.1,0.3c-2.2,2.2-4.4,4.3-7.1,7.1h-11.2c-10.8,4.4-18,7.3-25.5,10.3
	c-3.1-2.3-6.8-5.1-11.6-8.7c-4.3,2.2-10.5,5.4-18,9.2h-28c-2,2.9-4.2,6.1-7.5,10.8c-10.4-2.4-22.1,7.3-34.9-1.3
	c-2.4,3.5-4.4,6.4-6.2,9c-23.1-3.3-44.8,9-67.3,0.6c-0.4,1.1-1.1,3.2-2.2,6.3c-8.6-1.7-18.2,3.3-26.7-3.6c-1.1-0.9-3.6-0.4-5.3-0.1
	c-5.5,1.1-11,2.5-16.5,3.5c-5.6,1-11.4-1.5-16.9,3c-2.5,2.1-8.1,0.2-12.2,0.7c-5.6,0.6-12.1-2.7-16.5,3.5
	c-8.5-1.2-17.9-0.7-25.1-4.3c-5.4-2.7-10.1-2.6-15.1-2.7c-18.5-0.4-37.2,1.6-54.8-6.9c-2.7-1.3-7.4,1.6-12.2,2.8
	c-1.9-0.7-5-3-8.1-2.9c-17.5,0.5-33.6-4.1-50-9.8c-13.5-4.7-28.3-7-43.4-3.8c-2.5-3.1-4.7-5.9-6.3-8H294l-6.8-6.8
	c-23.6-2.8-47.7-5.6-73.8-8.7c-0.9-1.1-3.1-3.9-5.2-6.5c-10.4,2.5-19.1-1.3-27.4-4.7c-9.8-4-19.6-6.3-30.2-5.5
	C145.7,986,141.6,985.8,137.1,985.8L137.1,985.8z"/>
<path class="st1" d="M205.6,324.6c-0.1-0.5-0.3-1.1-0.5-1.5c-0.9-1.3-1.6-2.7-2.1-4.2c-0.1-0.2-0.2-0.3-0.3-0.5
	c-1-1.6-1.8-3.3-2.7-4.9c-0.9-1.8-2.2-3.5-2.8-5.5c-0.4-1.2-1.2-2.2-1.8-3.4c-0.8-1.4-1.5-2.9-2.2-4.3s-1.4-2.9-2.2-4.5
	c0-1.1-0.2-2.5,0.9-3.5c1.7-1.4,2.8-2.1,4.8-1.9c0.1,0.1,0.2,0.5,0.5,0.6c1,0.4,1.5,1.2,2,2c0.9,1.7,1.9,3.5,2.9,5.1
	c0.8,1.3,1.3,2.8,1.9,4.3c0.9,2,1.8,4,2.9,5.9c1.5,2.5,2.8,5.1,4.3,7.6c1.1,2,2.2,4,3,6.2c0.4,1.2,1.1,2.3,1.7,3.4
	c0.1,0.2,0.3,0.3,0.6,0.6c0.2-0.7,0.5-1.1,0.5-1.6c0-1.2,0.9-2.2,1-3.4c0.9-1.1,1-2.4,1.4-3.7c0.5-1.4,1.2-2.7,1.5-4.1
	c0.2-0.8,0.4-1.5,0.6-2.2c0.2,0,0.3-0.1,0.3-0.1c0.4-1.4,0.9-2.7,1.2-4c0.2-0.8,0.8-1.3,0.9-2.2c0.1-0.8,0.6-1.6,0.7-2.4
	c0.1-0.6,0.6-1,0.8-1.6c0.2-0.5,0.2-1.1,0.5-1.5c0.3-0.5-0.1-1,0.4-1.4c0.4-0.3,0.6-1,1-1.3c0.6-0.4,1.3-0.8,1.9-1
	c0.8-0.2,1.7-0.3,2.5,0.1c0.2,0.1,0.4,0.1,0.8,0.1c0.2,0.2,0.5,0.5,0.8,0.9s0.5,0.7,0.8,1.1v1.9c0,0.3-0.1,0.6-0.2,0.9
	c-0.4,1-0.7,2-0.9,3.1s-0.9,1.9-1.2,3c-0.2,0.8-0.4,1.6-0.7,2.4c-0.2,0.7-0.8,1.2-0.9,2c-0.1,0.6-0.5,1.3-0.6,1.9
	c-0.2,0.8-0.5,1.5-0.7,2.3c-0.1,0-0.2,0.1-0.4,0.1c0,0.1-0.1,0.2-0.1,0.3c0.1,0.7-0.2,1.3-0.5,1.9c-0.4,1.1-0.6,2.3-1.3,3.3
	c-0.4,0.6-0.4,1.4-0.6,2.1c-0.3,1.1-0.9,2.2-1.3,3.2c-0.2,0.5-0.3,1.1-0.6,1.9c0.7-0.1,1.4-0.1,1.8-0.4c1.2-0.7,2.5-0.9,3.7-1.4
	c1.7-0.7,3.4-1.3,5.1-1.9c1.5-0.6,3.1-1,4.7-1.7c1.5-0.6,3.1-1.2,4.6-1.8c1.3-0.5,2.6-0.8,3.9-1.3c0.7-0.2,1.3-0.6,2-0.9
	s1.4-0.4,2.1-0.7c1.2-0.6,2.6-0.9,3.9-1.3c0.8-0.2,1.6,0,2.5,0.4l1.2,1.2c0.1,0.7,0.3,1.4,0.4,2.1s0,1.4,0,2.2
	c-0.2,0.1-0.4,0.3-0.6,0.4c0,0.4,0,0.7-0.1,1c-1.2,0.6-2.3,1.4-3.5,1.8c-1.6,0.5-3,1.3-4.6,1.8c-0.6,0.2-1.3,0.4-2,0.6
	c-1.3,0.4-2.7,1-4,1.5c-1.6,0.7-3.3,1.1-5,1.8c-0.4,0.2-0.8,0.3-1.3,0.5c0.9,0.3,1.6,0.6,2.5,0.5c0.2,0,0.4,0.2,0.5,0.2
	c0.7,0.1,1.3,0.5,2,0.4c0.3,0,0.6,0.2,0.8,0.2c0.7,0.1,1.4,0.5,2.2,0.4c0.3-0.1,0.7,0.2,1,0.2c0.7,0.1,1.3,0.4,2.1,0.4
	s1.7,0.3,2.4,0.7c0.7,0.4,1.5,0,2.1,0.3c0.6,0.2,1.3,0.6,2,0.6c0.5,0,1,0,1.5,0.3c0.3,0.2,0.7,0.3,1.1,0.3c0.4,0.1,0.8,0,1.2,0
	c0.6,0.4,1.1,0.7,1.5,1.2c0.4,0.4,0.6,1,0.9,1.6v2.4c-0.4,0.6-0.9,1.1-1.2,1.7c-0.6,1.2-1.6,1.6-2.8,1.6c-1.1,0-2.2-0.1-3.3-0.5
	c-1.1-0.3-2.2-0.6-3.3-0.8c-0.6-0.1-1.3-0.2-1.9-0.4c-1.5-0.4-3.1-0.5-4.6-1.2c-0.3-0.2-0.8,0-1.2-0.1s-0.8-0.2-1.1-0.3
	c-1.2-0.2-2.4-0.5-3.6-0.8c-1.1-0.3-2.2-0.5-3.3-0.8c-0.6-0.2-1.2-0.1-1.8-0.3c-1.2-0.5-2.7-0.2-3.9-1c-1.4,0.3-2.6-0.8-4-0.7
	c-0.5,0-1-0.1-1.4-0.3c-0.8-0.4-1.6-0.3-2.4-0.3l-0.4,0.4c0,0.1,0.1,0.1,0.1,0.2c1.3,2.4,2.4,4.9,3.7,7.3c0.7,1.4,1.6,2.7,2.4,4.1
	l0.6,1.2c1.7,3,3.3,6.1,4.8,9.2c0.3,0.7,0.5,1.5,0.9,2.2c1.1,2.1,2.3,4.1,3.3,6.2c1,1.9,0.9,1.9,0.9,3.8c-0.5,0.7-1.1,1.4-1.7,2.2
	c-1.3,1.1-2.8,0.7-4.3,0.8c-1-0.4-1.4-1.2-2-2.1c-1-1.5-1.6-3.3-2.7-4.8c-0.6-0.8-0.8-2-1.3-2.9c-1-1.9-2-3.7-3.1-5.5
	c-0.9-1.6-1.7-3.2-2.4-4.9c-0.4-1-1-2.1-1.6-3c-0.7-1.1-1.1-2.3-1.9-3.4c-0.2-0.3-0.4-0.6-0.7-1.1v-1c-0.9,0.8-0.5,1.9-1.1,2.6h-0.3
	l-0.2,0.2c0.1,0.7-0.3,1.3-0.4,1.9c-0.1,0.6-0.6,1.2-0.5,1.8c0,0.1,0,0.3-0.1,0.4c-1.1,1.2-1.1,2.9-1.7,4.4
	c-0.4,0.9-1.1,1.8-1.1,2.9c0,0.3-0.1,0.6-0.2,0.8c-0.3,0.6-0.2,1.3-0.7,1.8c-0.2,0.2-0.2,0.5-0.3,0.9c-0.4,0.1-0.8,0.4-0.9,0.9
	c-0.5,0.2-0.9,0.4-1.5,0.7h-2.8c-0.1-0.2-0.3-0.5-0.4-0.6h-0.9c-0.5-0.8-1-1.7-1.4-2.6c-0.3-1,0.3-2,0.3-3.1c0.1,0,0.3-0.1,0.4-0.1
	c0.3-1,0.7-2.1,1-3.2c0.4-1.4,1.3-2.5,1.5-4c0.1-0.5,0.4-0.9,0.4-1.4c0-0.8,0.8-1.2,0.8-2c0-0.7,0.4-1.3,0.6-1.9
	c0.2-0.7,0.5-1.5,0.7-2.3c0.1,0,0.3-0.1,0.5-0.1c-0.3-0.7,0.5-1.3,0.2-2.1c-1.9,0.7-3.8,1.3-5.7,1.9c-0.8,0.3-1.7,0.7-2.4,1.1
	c-0.9,0.5-1.9,0.5-2.8,1c-0.8,0.4-1.7,0.6-2.7,0.8c-0.8,0.2-1.5,0.9-2.5,0.9c-0.7,1-2,0.8-3,1.2c-1.7,0.8-3.6,1.2-5.3,2
	c-1.4,0.7-3,1-4.4,1.5c-0.9,0.3-1.8,0.8-2.7,0.6c-0.5-0.1-1.1-0.3-1.7-0.4c0,0,0-0.3-0.1-0.3c-1-0.4-0.9-1.5-1.2-2.3
	c-0.2-0.5-0.4-1.2-0.2-1.5c0.3-0.6,0-1.1,0.3-1.7c0.1,0,0.3-0.1,0.5-0.1v-0.7c0.9-1,2.1-1.7,3.4-2c1.4-0.3,2.6-1.1,4-1.5l1.8-0.6
	c1.2-0.3,2.2-1.2,3.5-1.1c0.7-0.9,1.9-0.6,2.8-1.3c0.4-0.3,0.9-0.3,1.4-0.5c2.3-0.8,4.5-1.5,6.7-2.5c1.3-0.6,2.8-0.9,4.2-1.4
	c1.2-0.4,2.4-0.9,3.9-1.5c-0.6-0.3-1-0.7-1.4-0.7c-1.1,0-2.1-0.3-3.1-0.6c-0.6-0.2-1.3-0.1-1.9-0.3c-1.2-0.5-2.7-0.2-3.9-1
	c-1.9,0.1-3.6-1-5.5-0.9c-1.3-0.8-2.9-0.4-4.3-1.2c-0.3-0.2-0.8,0-1.2-0.1s-0.8-0.2-1.1-0.3c-1.2-0.4-2.6-0.1-3.7-0.9
	c-1.5,0.3-2.7-0.8-4.2-0.7c-0.5,0-1-0.3-1.6-0.4c-0.1-0.6-0.7-0.6-1.3-1c-0.2-0.3-0.4-0.8-0.7-1.3c-0.3-1.1,0.1-2.2,0.4-3.2
	c0.4-1.1,1.5-1.7,2.2-2.6c0.6-0.1,1.2-0.4,1.8-0.3c1.2,0.2,2.5,0.3,3.7,0.7c0.5,0.1,0.9,0.1,1.3,0.2s0.9,0.2,1.3,0.3
	c0.5,0.2,0.9,0.4,1.5,0.3c0.4-0.1,0.7,0.2,1,0.3c0.7,0.1,1.3,0.6,2.1,0.4c0.4-0.1,0.8,0.1,1.1,0.3c0.6,0.3,1.3,0.2,1.9,0.4
	c0.3,0.1,0.6,0.2,0.8,0.3c0.7,0.1,1.3,0.5,2.1,0.4c0.2,0,0.5,0.1,0.7,0.2c0.7,0.1,1.4,0.6,2.2,0.4c0.4-0.1,0.8,0.1,1.2,0.3
	c0.6,0.3,1.3,0.2,1.9,0.4c0.5,0.1,1,0.1,1.4,0.3C203.5,324.6,204.5,324.7,205.6,324.6c-0.1,0-0.1,0-0.1,0.1c0.1,0.1,0.1,0.2,0.2,0.3
	l0.1-0.1C205.8,324.7,205.7,324.7,205.6,324.6L205.6,324.6z"/>
<rect x="241.8" y="324.8" class="st2" width="691" height="617.9"/>
<g class="st3">
	<path class="st4" d="M242.4,383.4v-3.8l6.6-1l16.7-48.6h6.6l16.7,49l5.4,0.6v3.7h-23.1v-3.7l7-0.9l-3.8-11.8H257l-3.8,11.6l7,1v3.8
		H242.4z M265.8,340.7l-7.4,22.2h14.6L265.8,340.7z"/>
	<path class="st4" d="M312.8,384.6c-3.1,0-5.9-0.8-8.4-2.4c-2.4-1.6-4.3-3.9-5.7-6.8c-1.4-3-2.1-6.5-2.1-10.6c0-4.2,0.8-7.9,2.4-11
		c1.6-3.1,3.7-5.5,6.3-7.2c2.6-1.7,5.6-2.6,8.8-2.6c1.9,0,3.7,0.4,5.5,1.2c1.7,0.8,3.4,2.1,5.1,4l7.4-5.1l1.8,0.8l-0.2,10.8v29.6
		c0,2.1,0,4.2,0,6.3c0,2.1,0.1,4.2,0.1,6.3l5.3,1v3.3h-21.3v-3.3l6.3-1.2c0.1-2.1,0.1-4.2,0.1-6.2c0-2.1,0-4.1,0-6.2V379
		c-1.5,1.9-3.3,3.3-5.1,4.2C317.2,384.1,315.1,384.6,312.8,384.6z M306.9,364.6c0,4.9,0.9,8.5,2.8,10.8c1.8,2.3,4.2,3.5,7,3.5
		c1.4,0,2.7-0.3,3.8-0.9c1.2-0.6,2.3-1.5,3.4-2.6v-22.9c-1.3-1.1-2.6-1.8-3.7-2.2c-1.1-0.4-2.3-0.6-3.4-0.6c-2.8,0-5.1,1.2-7,3.6
		C307.9,355.7,306.9,359.4,306.9,364.6z"/>
	<path class="st4" d="M371,384.2l-0.6-7c-3.9,5-8.4,7.4-13.6,7.4c-3.3,0-6-1.1-8-3.2s-3-5.9-2.9-11.2l0.3-19.8l-5.2-1.1v-3.1l14-1.7
		l1,0.9l-0.4,11.2v13.3c0,3,0.5,5.1,1.4,6.3c0.9,1.2,2.3,1.8,4,1.8c1.5,0,3-0.4,4.6-1.3c1.6-0.9,3.1-1.9,4.5-3.3l0.2-23l-5-1.1v-3
		l13.7-1.8l1,0.9l-0.2,11.2v22.6l4.9,1v3.3L371,384.2z"/>
	<path class="st4" d="M389.4,383.4v-3.3l5.3-1c0.1-2,0.1-4.1,0.1-6.4c0-2.3,0-4.3,0-6v-3.8c0-2.2,0-4,0-5.5c0-1.5-0.1-3-0.2-4.6
		l-5.7-0.7v-3l14.5-5l1.3,0.8l-0.2,11.3v10.6c0,1.8,0,3.8,0,6.1c0,2.3,0,4.5,0.1,6.5l4.8,1v3.3H389.4z M395.6,337
		c0.9-1.5,1.9-3.2,2.9-4.8c1-1.7,2.3-3.7,3.8-6c0.9-1.5,1.8-2.6,2.6-3.2c0.8-0.6,1.7-0.9,2.7-0.9c0.9,0,1.7,0.3,2.5,1
		c0.8,0.6,1.2,1.6,1.2,2.8c0,1.5-1.3,3.4-3.8,5.4c-2,1.7-3.7,3.1-5.1,4.3c-1.4,1.2-2.8,2.4-4.2,3.5L395.6,337z"/>
	<path class="st4" d="M431.6,383.4v-3.3l5.3-1c0.1-2,0.1-4.1,0.1-6.4c0-2.3,0-4.3,0-6v-34.3l-5.8-0.8v-3.1l14.3-3.6l1.2,0.7
		l-0.3,11.3v14.3c4.1-4.7,8.7-7.1,13.7-7.1c3.5,0,6.2,1.1,8.1,3.4c1.9,2.3,2.9,5.9,2.9,10.9v8.3c0,1.8,0,3.9,0,6.2s0,4.4,0.1,6.4
		l4.9,1v3.3h-19.8v-3.3l5.1-1c0.1-2,0.1-4.1,0.1-6.4c0-2.3,0-4.3,0-6.1V359c0-3.1-0.4-5.3-1.2-6.5c-0.8-1.2-2.3-1.8-4.3-1.8
		c-3,0-6.1,1.5-9.3,4.6v11.4c0,1.8,0,3.8,0,6.1c0,2.3,0,4.5,0.1,6.5l4.7,1v3.3H431.6z"/>
	<path class="st4" d="M510.9,384.4c-2.1,0-3.9-0.5-5.2-1.6c-1.3-1.1-2.2-2.5-2.7-4.4c-2,2-3.8,3.6-5.4,4.6s-3.7,1.6-6.2,1.6
		c-3,0-5.5-0.9-7.6-2.6c-2.1-1.7-3.1-4.2-3.1-7.5c0-1.7,0.4-3.3,1.2-4.8c0.8-1.5,2.2-2.8,4.3-4.1c2.1-1.3,5-2.5,8.8-3.8
		c1.1-0.4,2.3-0.7,3.6-1.1c1.3-0.4,2.7-0.7,4.1-1.1v-2.2c0-3.7-0.5-6.3-1.6-7.6c-1-1.3-2.9-2-5.5-2c-0.5,0-1,0-1.6,0.1
		c-0.6,0.1-1.1,0.1-1.7,0.2l-1,4.4c-0.2,1.9-0.8,3.3-1.7,4.2c-0.9,0.9-2,1.4-3.4,1.4c-2.6,0-4.1-1.2-4.5-3.6
		c0.5-3.2,2.2-5.8,5.2-7.7c3-1.9,6.9-2.9,11.7-2.9c4.6,0,8,1.1,10.2,3.3c2.1,2.2,3.2,5.9,3.2,11.2v17.4c0,2.4,0.8,3.6,2.3,3.6
		c1,0,1.9-0.6,2.8-1.8l1.8,1.6c-1,1.8-2.1,3.1-3.4,3.9C514.4,384,512.8,384.4,510.9,384.4z M490.1,372.8c0,2.1,0.5,3.6,1.6,4.5
		c1.1,0.9,2.4,1.4,4,1.4c0.9,0,1.8-0.2,2.7-0.6c0.9-0.4,2.3-1.3,4.2-2.6v-12.6c-1.1,0.4-2.2,0.7-3.2,1c-1,0.3-1.8,0.6-2.5,0.9
		c-2.7,1.1-4.5,2.3-5.5,3.7C490.6,369.8,490.1,371.2,490.1,372.8z"/>
	<path class="st4" d="M521.6,383.4v-3.3l5.2-1c0.1-2,0.1-4.1,0.1-6.4c0-2.3,0-4.4,0-6.1v-34.4l-5.8-0.7v-3.1l14.3-3.6l1.2,0.7
		l-0.3,11.3v12.9c3.6-3.8,7.5-5.7,11.9-5.7c2.9,0,5.5,0.8,7.8,2.3c2.3,1.5,4.2,3.8,5.6,6.8c1.4,3,2,6.6,2,10.8c0,4.2-0.8,7.9-2.3,11
		c-1.5,3.1-3.5,5.5-6,7.2c-2.5,1.7-5.3,2.5-8.4,2.5c-2.1,0-4-0.4-5.8-1.2c-1.8-0.8-3.5-2.1-5-4l-1,5L521.6,383.4z M544.4,349.7
		c-1.2,0-2.5,0.3-3.8,1c-1.3,0.6-2.7,1.5-4,2.7v22.2c2.5,2.3,5,3.4,7.5,3.4c2.6,0,4.8-1.2,6.6-3.6c1.8-2.4,2.7-6.1,2.7-11
		c0-5-0.8-8.7-2.5-11.1C549.3,350.9,547.1,349.7,544.4,349.7z"/>
	<path class="st4" d="M568.4,383.4v-3.3l5.4-1c0.1-2.1,0.1-4.2,0.1-6.2c0-2.1,0-4.2,0-6.2v-34.3l-5.8-0.8v-3.1l14.6-3.6l1.2,0.7
		l-0.3,11.3v29.8c0,2.1,0,4.2,0,6.2c0,2.1,0.1,4.2,0.1,6.2l5.4,1v3.3H568.4z"/>
	<path class="st4" d="M623.5,384.4c-2.1,0-3.9-0.5-5.2-1.6c-1.3-1.1-2.2-2.5-2.7-4.4c-2,2-3.8,3.6-5.4,4.6c-1.6,1-3.7,1.6-6.2,1.6
		c-3,0-5.5-0.9-7.6-2.6c-2.1-1.7-3.1-4.2-3.1-7.5c0-1.7,0.4-3.3,1.2-4.8c0.8-1.5,2.2-2.8,4.3-4.1c2.1-1.3,5-2.5,8.8-3.8
		c1.1-0.4,2.3-0.7,3.6-1.1s2.7-0.7,4.1-1.1v-2.2c0-3.7-0.5-6.3-1.6-7.6c-1-1.3-2.9-2-5.5-2c-0.5,0-1,0-1.6,0.1
		c-0.6,0.1-1.1,0.1-1.7,0.2l-1,4.4c-0.2,1.9-0.8,3.3-1.7,4.2c-0.9,0.9-2,1.4-3.4,1.4c-2.6,0-4.1-1.2-4.5-3.6
		c0.5-3.2,2.2-5.8,5.2-7.7c3-1.9,6.9-2.9,11.7-2.9c4.6,0,8,1.1,10.2,3.3c2.1,2.2,3.2,5.9,3.2,11.2v17.4c0,2.4,0.8,3.6,2.3,3.6
		c1,0,1.9-0.6,2.8-1.8l1.8,1.6c-1,1.8-2.1,3.1-3.4,3.9C627,384,625.4,384.4,623.5,384.4z M602.7,372.8c0,2.1,0.5,3.6,1.6,4.5
		c1.1,0.9,2.4,1.4,4,1.4c0.9,0,1.8-0.2,2.7-0.6c0.9-0.4,2.3-1.3,4.2-2.6v-12.6c-1.1,0.4-2.2,0.7-3.2,1c-1,0.3-1.8,0.6-2.5,0.9
		c-2.7,1.1-4.5,2.3-5.5,3.7C603.2,369.8,602.7,371.2,602.7,372.8z"/>
	<path class="st4" d="M634.4,383.4v-3.3l5.2-1c0.1-2,0.1-4.1,0.1-6.4c0-2.3,0-4.3,0-6v-4.2c0-2.2,0-3.9,0-5.2c0-1.3-0.1-2.8-0.2-4.4
		l-5.6-0.7v-3l13.4-5l1.3,0.8l0.6,6.2c1.9-2.2,4-3.9,6.3-5.2c2.3-1.3,4.6-1.9,7.1-1.9c5.2,0,8.5,2.4,10,7.3c2.1-2.6,4.3-4.4,6.6-5.6
		c2.3-1.1,4.7-1.7,7.1-1.7c3.6,0,6.3,1.1,8.2,3.4c1.8,2.2,2.7,5.8,2.7,10.7v8.6c0,1.8,0,3.9,0,6.1c0,2.3,0,4.4,0.1,6.4l4.9,1v3.3
		h-19.5v-3.3l5-1c0.1-2,0.1-4.1,0.1-6.4c0-2.3,0-4.3,0-6.1v-7.4c0-3.4-0.4-5.6-1.3-6.8c-0.9-1.2-2.3-1.8-4.4-1.8
		c-2.8,0-5.8,1.4-8.8,4.1c0.1,0.5,0.1,1.1,0.1,1.7c0,0.6,0,1.2,0,1.8v8.3c0,1.8,0,3.9,0,6.1c0,2.3,0,4.4,0.1,6.4l4.8,1v3.3h-19.6
		v-3.3l5.1-1c0.1-2,0.1-4.1,0.1-6.4c0-2.3,0-4.3,0-6.1v-7.2c0-3.3-0.4-5.5-1.2-6.8s-2.3-1.9-4.4-1.9c-1.5,0-3,0.4-4.4,1.1
		c-1.5,0.7-2.9,1.7-4.3,2.9v11.9c0,1.8,0,3.8,0,6.1c0,2.3,0,4.5,0.1,6.5l4.7,1v3.3H634.4z"/>
	<path class="st4" d="M726.2,384.6c-3.6,0-6.9-0.8-9.8-2.4c-2.9-1.6-5.2-3.9-6.9-7c-1.7-3-2.6-6.7-2.6-10.9c0-4.3,0.9-7.9,2.7-11
		c1.8-3,4.1-5.4,7.1-7c2.9-1.6,6.1-2.4,9.5-2.4c3.4,0,6.6,0.8,9.5,2.4c2.9,1.6,5.3,3.9,7.1,6.9c1.8,3,2.7,6.7,2.7,11
		c0,4.3-0.9,7.9-2.6,10.9c-1.7,3-4.1,5.3-7,6.9C733.1,383.8,729.8,384.6,726.2,384.6z M726.2,380.6c2.9,0,5.1-1.3,6.6-4
		c1.5-2.7,2.3-6.7,2.3-12.2c0-11-3-16.5-8.9-16.5c-5.9,0-8.8,5.5-8.8,16.5c0,5.5,0.7,9.6,2.2,12.2
		C721.1,379.3,723.3,380.6,726.2,380.6z"/>
	<path class="st4" d="M764.7,384.6c-2.5,0-4.7-0.3-6.8-0.8c-2.1-0.6-4.1-1.4-6.1-2.5l-0.1-9.3h5.4l1.4,7.4c1.9,0.8,4,1.2,6.2,1.2
		c2.7,0,4.7-0.5,6.1-1.4c1.3-1,2-2.3,2-4c0-1.5-0.5-2.7-1.6-3.6c-1.1-0.9-2.9-1.8-5.4-2.7l-4-1.4c-3-1-5.3-2.4-7.1-4.2
		c-1.7-1.9-2.6-4.2-2.6-7c0-2.2,0.6-4.3,1.8-6.1c1.2-1.8,2.9-3.3,5.2-4.4c2.3-1.1,5-1.6,8.3-1.6c2.3,0,4.4,0.3,6.3,0.8
		c1.9,0.6,3.8,1.4,5.6,2.4l-0.4,8.4h-5.3l-1.4-6.7c-1.5-0.6-3.1-1-5-1c-2.1,0-3.8,0.5-5,1.4c-1.2,0.9-1.8,2.1-1.8,3.7
		c0,1.4,0.5,2.6,1.5,3.5c1,0.9,2.8,1.8,5.6,2.7l3.2,1c3.9,1.3,6.7,3,8.3,5c1.7,2,2.5,4.3,2.5,7.1c0,3.6-1.5,6.5-4.4,8.8
		C774.2,383.4,770.1,384.6,764.7,384.6z"/>
	<path class="st4" d="M832.9,384.3l-0.6-5c-1.5,1.7-3.1,3-5,3.9c-1.8,0.9-3.9,1.4-6.2,1.4c-3.1,0-5.9-0.8-8.4-2.4
		c-2.4-1.6-4.3-3.9-5.7-6.9c-1.4-3-2.1-6.5-2.1-10.6c0-4.2,0.8-7.9,2.4-11c1.6-3.1,3.7-5.5,6.3-7.2c2.6-1.7,5.5-2.5,8.7-2.5
		c2,0,3.9,0.4,5.5,1.1c1.6,0.7,3.2,2,4.6,3.7v-16.5l-6.2-0.8v-3.1l14.6-3.6l1.2,0.7l-0.3,11.3v42.5l5.2,0.9v3.3L832.9,384.3z
		 M815.2,364.5c0,4.9,0.9,8.5,2.8,10.8c1.8,2.4,4.2,3.6,7,3.6c1.4,0,2.7-0.3,3.8-0.8c1.1-0.6,2.2-1.4,3.2-2.4v-23c-2.3-2-4.7-3-7-3
		c-2.7,0-5,1.2-6.9,3.6C816.1,355.6,815.2,359.4,815.2,364.5z"/>
	<path class="st4" d="M870.2,384.6c-3.7,0-7-0.8-9.8-2.4c-2.8-1.6-5-3.9-6.6-6.9c-1.6-3-2.4-6.6-2.4-10.8c0-4.3,0.9-7.9,2.8-11
		c1.8-3.1,4.2-5.4,7.2-7c3-1.6,6.1-2.4,9.5-2.4c3.1,0,5.9,0.7,8.2,2c2.3,1.3,4.2,3.2,5.5,5.6c1.3,2.4,2,5.2,2,8.5
		c0,1.7-0.2,3.2-0.5,4.4h-24.5c0.2,4.6,1.4,8,3.6,10.3c2.2,2.3,5,3.4,8.4,3.4c2.3,0,4.3-0.5,6-1.4c1.6-0.9,3.1-2.1,4.4-3.6l2.3,2.1
		c-1.5,2.9-3.7,5.2-6.4,6.8C877.1,383.7,873.9,384.6,870.2,384.6z M870.2,347.8c-1.3,0-2.5,0.4-3.8,1.2c-1.3,0.8-2.3,2.2-3.2,4
		c-0.9,1.9-1.4,4.4-1.6,7.6h11c1.9,0,3.2-0.4,3.8-1.2s1-1.9,1-3.4c0-2.5-0.7-4.5-2.1-6C873.8,348.6,872.2,347.8,870.2,347.8z"/>
</g>
<g class="st3">
	<path class="st4" d="M243.9,468.4v-3.3l5.4-1c0.1-2.1,0.1-4.2,0.1-6.2c0-2.1,0-4.2,0-6.2v-34.3l-5.8-0.8v-3.1l14.6-3.6l1.2,0.7
		l-0.3,11.3v29.8c0,2.1,0,4.2,0,6.2c0,2.1,0.1,4.2,0.1,6.2l5.4,1v3.3H243.9z"/>
	<path class="st4" d="M288.8,469.6c-3.6,0-6.9-0.8-9.8-2.4c-2.9-1.6-5.2-3.9-6.9-7c-1.7-3-2.6-6.7-2.6-10.9c0-4.3,0.9-7.9,2.7-11
		c1.8-3,4.1-5.4,7.1-7c2.9-1.6,6.1-2.4,9.5-2.4c3.4,0,6.6,0.8,9.5,2.4c2.9,1.6,5.3,3.9,7.1,6.9c1.8,3,2.7,6.7,2.7,11
		c0,4.3-0.9,7.9-2.6,10.9c-1.7,3-4.1,5.3-7,6.9C295.7,468.8,292.5,469.6,288.8,469.6z M288.8,465.6c2.9,0,5.1-1.3,6.6-4
		c1.5-2.7,2.3-6.7,2.3-12.2c0-11-3-16.5-8.9-16.5c-5.9,0-8.8,5.5-8.8,16.5c0,5.5,0.7,9.6,2.2,12.2
		C283.8,464.3,286,465.6,288.8,465.6z"/>
	<path class="st4" d="M327.3,469.6c-2.5,0-4.7-0.3-6.8-0.8c-2.1-0.6-4.1-1.4-6.1-2.5l-0.1-9.3h5.4l1.4,7.4c1.9,0.8,4,1.2,6.2,1.2
		c2.7,0,4.7-0.5,6.1-1.4c1.3-1,2-2.3,2-4c0-1.5-0.5-2.7-1.6-3.6c-1.1-0.9-2.9-1.8-5.4-2.7l-4-1.4c-3-1-5.3-2.4-7.1-4.2
		c-1.7-1.9-2.6-4.2-2.6-7c0-2.2,0.6-4.3,1.8-6.1c1.2-1.8,2.9-3.3,5.2-4.4c2.3-1.1,5-1.6,8.3-1.6c2.3,0,4.4,0.3,6.3,0.8
		c1.9,0.6,3.8,1.4,5.6,2.4l-0.4,8.4h-5.3l-1.4-6.7c-1.5-0.6-3.1-1-5-1c-2.1,0-3.8,0.5-5,1.4c-1.2,0.9-1.8,2.1-1.8,3.7
		c0,1.4,0.5,2.6,1.5,3.5c1,0.9,2.8,1.8,5.6,2.7l3.2,1c3.9,1.3,6.7,3,8.3,5c1.7,2,2.5,4.3,2.5,7.1c0,3.6-1.5,6.5-4.4,8.8
		C336.9,468.4,332.7,469.6,327.3,469.6z"/>
	<path class="st4" d="M395.6,469.3l-0.6-5c-1.5,1.7-3.1,3-5,3.9c-1.8,0.9-3.9,1.4-6.2,1.4c-3.1,0-5.9-0.8-8.4-2.4
		c-2.4-1.6-4.3-3.9-5.7-6.9c-1.4-3-2.1-6.5-2.1-10.6c0-4.2,0.8-7.9,2.4-11c1.6-3.1,3.7-5.5,6.3-7.2c2.6-1.7,5.5-2.5,8.7-2.5
		c2,0,3.9,0.4,5.5,1.1c1.6,0.7,3.2,2,4.6,3.7v-16.5l-6.2-0.8v-3.1l14.6-3.6l1.2,0.7l-0.3,11.3v42.5l5.2,0.9v3.3L395.6,469.3z
		 M377.8,449.5c0,4.9,0.9,8.5,2.8,10.8c1.8,2.4,4.2,3.6,7,3.6c1.4,0,2.7-0.3,3.8-0.8c1.1-0.6,2.2-1.4,3.2-2.4v-23c-2.3-2-4.7-3-7-3
		c-2.7,0-5,1.2-6.9,3.6C378.8,440.6,377.8,444.4,377.8,449.5z"/>
	<path class="st4" d="M432.8,469.6c-3.7,0-7-0.8-9.8-2.4c-2.8-1.6-5-3.9-6.6-6.9c-1.6-3-2.4-6.6-2.4-10.8c0-4.3,0.9-7.9,2.8-11
		c1.8-3.1,4.2-5.4,7.2-7c3-1.6,6.1-2.4,9.5-2.4c3.1,0,5.9,0.7,8.2,2c2.3,1.3,4.2,3.2,5.5,5.6c1.3,2.4,2,5.2,2,8.5
		c0,1.7-0.2,3.2-0.5,4.4h-24.5c0.2,4.6,1.4,8,3.6,10.3c2.2,2.3,5,3.4,8.4,3.4c2.3,0,4.3-0.5,6-1.4c1.6-0.9,3.1-2.1,4.4-3.6l2.3,2.1
		c-1.5,2.9-3.7,5.2-6.4,6.8C439.8,468.7,436.6,469.6,432.8,469.6z M432.8,432.8c-1.3,0-2.5,0.4-3.8,1.2c-1.3,0.8-2.3,2.2-3.2,4
		c-0.9,1.9-1.4,4.4-1.6,7.6h11c1.9,0,3.2-0.4,3.8-1.2s1-1.9,1-3.4c0-2.5-0.7-4.5-2.1-6C436.5,433.6,434.8,432.8,432.8,432.8z"/>
	<path class="st4" d="M468.4,469.6c-2.5,0-4.7-0.3-6.8-0.8c-2.1-0.6-4.1-1.4-6.1-2.5l-0.1-9.3h5.4l1.4,7.4c1.9,0.8,4,1.2,6.2,1.2
		c2.7,0,4.7-0.5,6.1-1.4c1.3-1,2-2.3,2-4c0-1.5-0.5-2.7-1.6-3.6c-1.1-0.9-2.9-1.8-5.4-2.7l-4-1.4c-3-1-5.3-2.4-7.1-4.2
		c-1.7-1.9-2.6-4.2-2.6-7c0-2.2,0.6-4.3,1.8-6.1c1.2-1.8,2.9-3.3,5.2-4.4c2.3-1.1,5-1.6,8.3-1.6c2.3,0,4.4,0.3,6.3,0.8
		c1.9,0.6,3.8,1.4,5.6,2.4l-0.4,8.4h-5.3l-1.4-6.7c-1.5-0.6-3.1-1-5-1c-2.1,0-3.8,0.5-5,1.4c-1.2,0.9-1.8,2.1-1.8,3.7
		c0,1.4,0.5,2.6,1.5,3.5c1,0.9,2.8,1.8,5.6,2.7l3.2,1c3.9,1.3,6.7,3,8.3,5c1.7,2,2.5,4.3,2.5,7.1c0,3.6-1.5,6.5-4.4,8.8
		C477.9,468.4,473.7,469.6,468.4,469.6z"/>
	<path class="st4" d="M520.6,469.4c-2.1,0-3.9-0.5-5.2-1.6c-1.3-1.1-2.2-2.5-2.7-4.4c-2,2-3.8,3.6-5.4,4.6s-3.7,1.6-6.2,1.6
		c-3,0-5.5-0.9-7.6-2.6c-2.1-1.7-3.1-4.2-3.1-7.5c0-1.7,0.4-3.3,1.2-4.8c0.8-1.5,2.2-2.8,4.3-4.1c2.1-1.3,5-2.5,8.8-3.8
		c1.1-0.4,2.3-0.7,3.6-1.1c1.3-0.4,2.7-0.7,4.1-1.1v-2.2c0-3.7-0.5-6.3-1.6-7.6c-1-1.3-2.9-2-5.5-2c-0.5,0-1,0-1.6,0.1
		c-0.6,0.1-1.1,0.1-1.7,0.2l-1,4.4c-0.2,1.9-0.8,3.3-1.7,4.2c-0.9,0.9-2,1.4-3.4,1.4c-2.6,0-4.1-1.2-4.5-3.6
		c0.5-3.2,2.2-5.8,5.2-7.7c3-1.9,6.9-2.9,11.7-2.9c4.6,0,8,1.1,10.2,3.3c2.1,2.2,3.2,5.9,3.2,11.2v17.4c0,2.4,0.8,3.6,2.3,3.6
		c1,0,1.9-0.6,2.8-1.8l1.8,1.6c-1,1.8-2.1,3.1-3.4,3.9C524.1,469,522.5,469.4,520.6,469.4z M499.8,457.8c0,2.1,0.5,3.6,1.6,4.5
		c1.1,0.9,2.4,1.4,4,1.4c0.9,0,1.8-0.2,2.7-0.6c0.9-0.4,2.3-1.3,4.2-2.6v-12.6c-1.1,0.4-2.2,0.7-3.2,1c-1,0.3-1.8,0.6-2.5,0.9
		c-2.7,1.1-4.5,2.3-5.5,3.7C500.3,454.8,499.8,456.2,499.8,457.8z"/>
	<path class="st4" d="M531.6,468.4v-3.3l5.4-1c0.1-2.1,0.1-4.2,0.1-6.2c0-2.1,0-4.2,0-6.2V435h-5.9v-4.2l6.2-0.8
		c0.4-3.9,1.1-7.1,2-9.6c0.9-2.4,2.3-4.6,4.1-6.4c1.8-1.8,3.8-3.1,6-3.9c2.2-0.8,4.3-1.2,6.3-1.2c2.1,0,3.9,0.4,5.6,1.1
		c1.6,0.7,2.7,2.1,3.1,3.9c-0.1,1.2-0.5,2.3-1.5,3.1c-0.9,0.9-2.2,1.3-3.8,1.3c-2.3,0-4.5-1.3-6.5-4l-1.4-1.4
		c-0.2,0.1-0.3,0.3-0.6,0.5c-1.4,1.4-2.5,3.5-3.1,6.1c-0.6,2.6-0.9,6.1-0.8,10.6h9.8v4.9h-9.7v16.6c0,2,0,4.1,0,6.1
		c0,2.1,0.1,4.1,0.1,6.2l6.7,1.2v3.3H531.6z"/>
	<path class="st4" d="M563.2,468.4v-3.3l5.3-1c0.1-2,0.1-4.1,0.1-6.4c0-2.3,0-4.3,0-6v-3.8c0-2.2,0-4,0-5.5c0-1.5-0.1-3-0.2-4.6
		l-5.7-0.7v-3l14.5-5l1.3,0.8l-0.2,11.3v10.6c0,1.8,0,3.8,0,6.1c0,2.3,0,4.5,0.1,6.5l4.8,1v3.3H563.2z M569.4,422
		c0.9-1.5,1.9-3.2,2.9-4.8c1-1.7,2.3-3.7,3.8-6c0.9-1.5,1.8-2.6,2.6-3.2c0.8-0.6,1.7-0.9,2.7-0.9c0.9,0,1.7,0.3,2.5,1
		c0.8,0.6,1.2,1.6,1.2,2.8c0,1.5-1.3,3.4-3.8,5.4c-2,1.7-3.7,3.1-5.1,4.3c-1.4,1.2-2.8,2.4-4.2,3.5L569.4,422z"/>
	<path class="st4" d="M607.4,469.6c-3.6,0-6.9-0.8-9.8-2.4c-2.9-1.6-5.2-3.9-6.9-7c-1.7-3-2.6-6.7-2.6-10.9c0-4.3,0.9-7.9,2.7-11
		c1.8-3,4.1-5.4,7.1-7c2.9-1.6,6.1-2.4,9.5-2.4c3.4,0,6.6,0.8,9.5,2.4c2.9,1.6,5.3,3.9,7.1,6.9c1.8,3,2.7,6.7,2.7,11
		c0,4.3-0.9,7.9-2.6,10.9c-1.7,3-4.1,5.3-7,6.9C614.3,468.8,611,469.6,607.4,469.6z M607.4,465.6c2.9,0,5.1-1.3,6.6-4
		c1.5-2.7,2.3-6.7,2.3-12.2c0-11-3-16.5-8.9-16.5c-5.9,0-8.8,5.5-8.8,16.5c0,5.5,0.7,9.6,2.2,12.2
		C602.3,464.3,604.5,465.6,607.4,465.6z"/>
	<path class="st4" d="M645.9,469.6c-2.5,0-4.7-0.3-6.8-0.8c-2.1-0.6-4.1-1.4-6.1-2.5l-0.1-9.3h5.4l1.4,7.4c1.9,0.8,4,1.2,6.2,1.2
		c2.7,0,4.7-0.5,6.1-1.4c1.3-1,2-2.3,2-4c0-1.5-0.5-2.7-1.6-3.6c-1.1-0.9-2.9-1.8-5.4-2.7l-4-1.4c-3-1-5.3-2.4-7.1-4.2
		c-1.7-1.9-2.6-4.2-2.6-7c0-2.2,0.6-4.3,1.8-6.1c1.2-1.8,2.9-3.3,5.2-4.4c2.3-1.1,5-1.6,8.3-1.6c2.3,0,4.4,0.3,6.3,0.8
		c1.9,0.6,3.8,1.4,5.6,2.4l-0.4,8.4h-5.3l-1.4-6.7c-1.5-0.6-3.1-1-5-1c-2.1,0-3.8,0.5-5,1.4c-1.2,0.9-1.8,2.1-1.8,3.7
		c0,1.4,0.5,2.6,1.5,3.5c1,0.9,2.8,1.8,5.6,2.7l3.2,1c3.9,1.3,6.7,3,8.3,5c1.7,2,2.5,4.3,2.5,7.1c0,3.6-1.5,6.5-4.4,8.8
		C655.4,468.4,651.3,469.6,645.9,469.6z"/>
	<path class="st4" d="M702.3,469.6c-3.1,0-5.9-0.8-8.4-2.4c-2.4-1.6-4.3-3.9-5.7-6.8c-1.4-3-2.1-6.5-2.1-10.6c0-4.2,0.8-7.9,2.4-11
		c1.6-3.1,3.7-5.5,6.3-7.2c2.6-1.7,5.6-2.6,8.8-2.6c1.9,0,3.7,0.4,5.5,1.2c1.7,0.8,3.4,2.1,5.1,4l7.4-5.1l1.8,0.8l-0.2,10.8v29.6
		c0,2.1,0,4.2,0,6.3c0,2.1,0.1,4.2,0.1,6.3l5.3,1v3.3h-21.3v-3.3l6.3-1.2c0.1-2.1,0.1-4.2,0.1-6.2c0-2.1,0-4.1,0-6.2V464
		c-1.5,1.9-3.3,3.3-5.1,4.2C706.6,469.1,704.6,469.6,702.3,469.6z M696.3,449.6c0,4.9,0.9,8.5,2.8,10.8c1.8,2.3,4.2,3.5,7,3.5
		c1.4,0,2.7-0.3,3.8-0.9c1.2-0.6,2.3-1.5,3.4-2.6v-22.9c-1.3-1.1-2.6-1.8-3.7-2.2c-1.1-0.4-2.3-0.6-3.4-0.6c-2.8,0-5.1,1.2-7,3.6
		C697.3,440.7,696.3,444.4,696.3,449.6z"/>
	<path class="st4" d="M760.4,469.2l-0.6-7c-3.9,5-8.4,7.4-13.6,7.4c-3.3,0-6-1.1-8-3.2s-3-5.9-2.9-11.2l0.3-19.8l-5.2-1.1v-3.1
		l14-1.7l1,0.9l-0.4,11.2v13.3c0,3,0.5,5.1,1.4,6.3c0.9,1.2,2.3,1.8,4,1.8c1.5,0,3-0.4,4.6-1.3c1.6-0.9,3.1-1.9,4.5-3.3l0.2-23
		l-5-1.1v-3l13.7-1.8l1,0.9l-0.2,11.2v22.6l4.9,1v3.3L760.4,469.2z"/>
	<path class="st4" d="M797.6,469.6c-3.7,0-7-0.8-9.8-2.4c-2.8-1.6-5-3.9-6.6-6.9c-1.6-3-2.4-6.6-2.4-10.8c0-4.3,0.9-7.9,2.8-11
		c1.8-3.1,4.2-5.4,7.2-7c3-1.6,6.1-2.4,9.5-2.4c3.1,0,5.9,0.7,8.2,2c2.3,1.3,4.2,3.2,5.5,5.6c1.3,2.4,2,5.2,2,8.5
		c0,1.7-0.2,3.2-0.5,4.4h-24.5c0.2,4.6,1.4,8,3.6,10.3c2.2,2.3,5,3.4,8.4,3.4c2.3,0,4.3-0.5,6-1.4c1.6-0.9,3.1-2.1,4.4-3.6l2.3,2.1
		c-1.5,2.9-3.7,5.2-6.4,6.8C804.6,468.7,801.4,469.6,797.6,469.6z M797.6,432.8c-1.3,0-2.5,0.4-3.8,1.2c-1.3,0.8-2.3,2.2-3.2,4
		c-0.9,1.9-1.4,4.4-1.6,7.6h11c1.9,0,3.2-0.4,3.8-1.2s1-1.9,1-3.4c0-2.5-0.7-4.5-2.1-6C801.3,433.6,799.6,432.8,797.6,432.8z"/>
</g>
<g class="st3">
	<path class="st4" d="M263.6,554.6c-3.7,0-7-0.8-9.8-2.4c-2.8-1.6-5-3.9-6.6-6.9c-1.6-3-2.4-6.6-2.4-10.8c0-4.3,0.9-7.9,2.8-11
		c1.8-3.1,4.2-5.4,7.2-7c3-1.6,6.1-2.4,9.5-2.4c3.1,0,5.9,0.7,8.2,2c2.3,1.3,4.2,3.2,5.5,5.6c1.3,2.4,2,5.2,2,8.5
		c0,1.7-0.2,3.2-0.5,4.4h-24.5c0.2,4.6,1.4,8,3.6,10.3c2.2,2.3,5,3.4,8.4,3.4c2.3,0,4.3-0.5,6-1.4c1.6-0.9,3.1-2.1,4.4-3.6l2.3,2.1
		c-1.5,2.9-3.7,5.2-6.4,6.8C270.6,553.7,267.4,554.6,263.6,554.6z M263.6,517.8c-1.3,0-2.5,0.4-3.8,1.2c-1.3,0.8-2.3,2.2-3.2,4
		c-0.9,1.9-1.4,4.4-1.6,7.6h11c1.9,0,3.2-0.4,3.8-1.2s1-1.9,1-3.4c0-2.5-0.7-4.5-2.1-6C267.3,518.6,265.6,517.8,263.6,517.8z"/>
	<path class="st4" d="M285.7,553.4v-3.3l5.2-1c0.1-2,0.1-4.1,0.1-6.4c0-2.3,0-4.3,0-6v-4.2c0-2.2,0-3.9,0-5.2c0-1.3-0.1-2.8-0.2-4.4
		l-5.6-0.7v-3l13.4-5l1.3,0.8l0.6,6.2c4.1-4.6,8.6-7,13.6-7c3.5,0,6.1,1.1,8,3.4c1.9,2.3,2.8,5.9,2.8,10.9v8.3c0,1.8,0,3.9,0,6.2
		s0,4.4,0.1,6.4l4.9,1v3.3H310v-3.3l5.1-1c0.1-2,0.1-4.1,0.1-6.4c0-2.3,0-4.3,0-6.1V529c0-3.1-0.4-5.3-1.3-6.5
		c-0.9-1.2-2.3-1.8-4.3-1.8c-2.8,0-5.8,1.3-9,3.9v12c0,1.8,0,3.8,0,6.1c0,2.3,0,4.5,0.1,6.5l4.7,1v3.3H285.7z"/>
	<path class="st4" d="M334.5,553.4v-3.3l5.4-1c0.1-2.1,0.1-4.2,0.1-6.2c0-2.1,0-4.2,0-6.2V520h-5.9v-4.2l6.2-0.8
		c0.4-3.9,1.1-7.1,2-9.6c0.9-2.4,2.3-4.6,4.1-6.4c1.8-1.8,3.8-3.1,6-3.9c2.2-0.8,4.3-1.2,6.3-1.2c2.1,0,3.9,0.4,5.6,1.1
		c1.6,0.7,2.7,2.1,3.1,3.9c-0.1,1.2-0.5,2.3-1.5,3.1c-0.9,0.9-2.2,1.3-3.8,1.3c-2.3,0-4.5-1.3-6.5-4L354,498
		c-0.2,0.1-0.3,0.3-0.6,0.5c-1.4,1.4-2.5,3.5-3.1,6.1c-0.6,2.6-0.9,6.1-0.8,10.6h9.8v4.9h-9.7v16.6c0,2,0,4.1,0,6.1
		c0,2.1,0.1,4.1,0.1,6.2l6.7,1.2v3.3H334.5z"/>
	<path class="st4" d="M363.3,553.4v-3.3l5.1-1c0.1-2,0.1-4.2,0.1-6.5c0-2.3,0-4.3,0-6v-4.2c0-2.2,0-3.9,0-5.2c0-1.3-0.1-2.8-0.2-4.4
		l-5.6-0.7v-3l13.4-5l1.3,0.8l0.8,9.4c1.2-3.3,2.9-5.8,5-7.6s4.2-2.6,6.2-2.6c1.4,0,2.8,0.4,4,1.1c1.2,0.7,2,1.8,2.4,3.2
		c-0.1,2-0.5,3.5-1.4,4.6c-0.9,1.1-2.2,1.6-3.8,1.6c-1.9,0-3.7-1-5.4-2.9l-0.7-0.8c-2.8,2.3-4.9,5.7-6.1,9.9v5.8c0,1.7,0,3.6,0,5.9
		c0,2.3,0,4.4,0.1,6.4l6.6,1.3v3.3H363.3z"/>
	<path class="st4" d="M416.7,554.6c-3.7,0-7-0.8-9.8-2.4c-2.8-1.6-5-3.9-6.6-6.9c-1.6-3-2.4-6.6-2.4-10.8c0-4.3,0.9-7.9,2.8-11
		c1.8-3.1,4.2-5.4,7.2-7c3-1.6,6.1-2.4,9.5-2.4c3.1,0,5.9,0.7,8.2,2c2.3,1.3,4.2,3.2,5.5,5.6c1.3,2.4,2,5.2,2,8.5
		c0,1.7-0.2,3.2-0.5,4.4H408c0.2,4.6,1.4,8,3.6,10.3c2.2,2.3,5,3.4,8.4,3.4c2.3,0,4.3-0.5,6-1.4c1.6-0.9,3.1-2.1,4.4-3.6l2.3,2.1
		c-1.5,2.9-3.7,5.2-6.4,6.8C423.6,553.7,420.4,554.6,416.7,554.6z M416.7,517.8c-1.3,0-2.5,0.4-3.8,1.2c-1.3,0.8-2.3,2.2-3.2,4
		c-0.9,1.9-1.4,4.4-1.6,7.6h11c1.9,0,3.2-0.4,3.8-1.2s1-1.9,1-3.4c0-2.5-0.7-4.5-2.1-6C420.3,518.6,418.6,517.8,416.7,517.8z"/>
	<path class="st4" d="M438.8,553.4v-3.3l5.2-1c0.1-2,0.1-4.1,0.1-6.4c0-2.3,0-4.3,0-6v-4.2c0-2.2,0-3.9,0-5.2c0-1.3-0.1-2.8-0.2-4.4
		l-5.6-0.7v-3l13.4-5l1.3,0.8l0.6,6.2c4.1-4.6,8.6-7,13.6-7c3.5,0,6.1,1.1,8,3.4c1.9,2.3,2.8,5.9,2.8,10.9v8.3c0,1.8,0,3.9,0,6.2
		s0,4.4,0.1,6.4l4.9,1v3.3h-19.8v-3.3l5.1-1c0.1-2,0.1-4.1,0.1-6.4c0-2.3,0-4.3,0-6.1V529c0-3.1-0.4-5.3-1.3-6.5
		c-0.9-1.2-2.3-1.8-4.3-1.8c-2.8,0-5.8,1.3-9,3.9v12c0,1.8,0,3.8,0,6.1c0,2.3,0,4.5,0.1,6.5l4.7,1v3.3H438.8z"/>
	<path class="st4" d="M501.4,554.6c-3.2,0-5.7-0.8-7.5-2.4c-1.8-1.6-2.7-4.2-2.7-7.7c0-1.2,0-2.4,0-3.5c0-1.1,0-2.4,0-4v-17h-5.9
		v-4.2l6.5-0.8l3-11h6.5l-0.3,11h9.6v4.9h-9.7v23.6c0,2,0.4,3.4,1.2,4.3c0.8,0.9,1.8,1.4,3.1,1.4c1.4,0,3.1-0.7,4.9-2l1.9,2
		c-1,1.7-2.4,2.9-4.2,3.9C506,554.1,503.9,554.6,501.4,554.6z"/>
	<path class="st4" d="M545,554.4c-2.1,0-3.9-0.5-5.2-1.6c-1.3-1.1-2.2-2.5-2.7-4.4c-2,2-3.8,3.6-5.4,4.6s-3.7,1.6-6.2,1.6
		c-3,0-5.5-0.9-7.6-2.6c-2.1-1.7-3.1-4.2-3.1-7.5c0-1.7,0.4-3.3,1.2-4.8c0.8-1.5,2.2-2.8,4.3-4.1c2.1-1.3,5-2.5,8.8-3.8
		c1.1-0.4,2.3-0.7,3.6-1.1c1.3-0.4,2.7-0.7,4.1-1.1v-2.2c0-3.7-0.5-6.3-1.6-7.6c-1-1.3-2.9-2-5.5-2c-0.5,0-1,0-1.6,0.1
		c-0.6,0.1-1.1,0.1-1.7,0.2l-1,4.4c-0.2,1.9-0.8,3.3-1.7,4.2c-0.9,0.9-2,1.4-3.4,1.4c-2.6,0-4.1-1.2-4.5-3.6
		c0.5-3.2,2.2-5.8,5.2-7.7c3-1.9,6.9-2.9,11.7-2.9c4.6,0,8,1.1,10.2,3.3c2.1,2.2,3.2,5.9,3.2,11.2v17.4c0,2.4,0.8,3.6,2.3,3.6
		c1,0,1.9-0.6,2.8-1.8l1.8,1.6c-1,1.8-2.1,3.1-3.4,3.9C548.5,554,546.9,554.4,545,554.4z M524.2,542.8c0,2.1,0.5,3.6,1.6,4.5
		c1.1,0.9,2.4,1.4,4,1.4c0.9,0,1.8-0.2,2.7-0.6c0.9-0.4,2.3-1.3,4.2-2.6v-12.6c-1.1,0.4-2.2,0.7-3.2,1c-1,0.3-1.8,0.6-2.5,0.9
		c-2.7,1.1-4.5,2.3-5.5,3.7C524.7,539.8,524.2,541.2,524.2,542.8z"/>
	<path class="st4" d="M555.9,553.4v-3.3l5.2-1c0.1-2,0.1-4.1,0.1-6.4c0-2.3,0-4.3,0-6v-4.2c0-2.2,0-3.9,0-5.2c0-1.3-0.1-2.8-0.2-4.4
		l-5.6-0.7v-3l13.4-5l1.3,0.8l0.6,6.2c1.9-2.2,4-3.9,6.3-5.2c2.3-1.3,4.6-1.9,7.1-1.9c5.2,0,8.5,2.4,10,7.3c2.1-2.6,4.3-4.4,6.6-5.6
		c2.3-1.1,4.7-1.7,7.1-1.7c3.6,0,6.3,1.1,8.2,3.4c1.8,2.2,2.7,5.8,2.7,10.7v8.6c0,1.8,0,3.9,0,6.1c0,2.3,0,4.4,0.1,6.4l4.9,1v3.3
		H604v-3.3l5-1c0.1-2,0.1-4.1,0.1-6.4c0-2.3,0-4.3,0-6.1v-7.4c0-3.4-0.4-5.6-1.3-6.8c-0.9-1.2-2.3-1.8-4.4-1.8
		c-2.8,0-5.8,1.4-8.8,4.1c0.1,0.5,0.1,1.1,0.1,1.7c0,0.6,0,1.2,0,1.8v8.3c0,1.8,0,3.9,0,6.1c0,2.3,0,4.4,0.1,6.4l4.8,1v3.3H580v-3.3
		l5.1-1c0.1-2,0.1-4.1,0.1-6.4c0-2.3,0-4.3,0-6.1v-7.2c0-3.3-0.4-5.5-1.2-6.8c-0.8-1.3-2.3-1.9-4.4-1.9c-1.5,0-3,0.4-4.4,1.1
		c-1.5,0.7-2.9,1.7-4.3,2.9v11.9c0,1.8,0,3.8,0,6.1c0,2.3,0,4.5,0.1,6.5l4.7,1v3.3H555.9z"/>
	<path class="st4" d="M647.7,554.6c-3.6,0-6.9-0.8-9.8-2.4c-2.9-1.6-5.2-3.9-6.9-7c-1.7-3-2.6-6.7-2.6-10.9c0-4.3,0.9-7.9,2.7-11
		c1.8-3,4.1-5.4,7.1-7c2.9-1.6,6.1-2.4,9.5-2.4c3.4,0,6.6,0.8,9.5,2.4c2.9,1.6,5.3,3.9,7.1,6.9c1.8,3,2.7,6.7,2.7,11
		c0,4.3-0.9,7.9-2.6,10.9c-1.7,3-4.1,5.3-7,6.9C654.6,553.8,651.3,554.6,647.7,554.6z M647.7,550.6c2.9,0,5.1-1.3,6.6-4
		c1.5-2.7,2.3-6.7,2.3-12.2c0-11-3-16.5-8.9-16.5c-5.9,0-8.8,5.5-8.8,16.5c0,5.5,0.7,9.6,2.2,12.2
		C642.6,549.3,644.8,550.6,647.7,550.6z"/>
	<path class="st4" d="M686.2,554.6c-2.5,0-4.7-0.3-6.8-0.8c-2.1-0.6-4.1-1.4-6.1-2.5l-0.1-9.3h5.4l1.4,7.4c1.9,0.8,4,1.2,6.2,1.2
		c2.7,0,4.7-0.5,6.1-1.4c1.3-1,2-2.3,2-4c0-1.5-0.5-2.7-1.6-3.6c-1.1-0.9-2.9-1.8-5.4-2.7l-4-1.4c-3-1-5.3-2.4-7.1-4.2
		c-1.7-1.9-2.6-4.2-2.6-7c0-2.2,0.6-4.3,1.8-6.1c1.2-1.8,2.9-3.3,5.2-4.4c2.3-1.1,5-1.6,8.3-1.6c2.3,0,4.4,0.3,6.3,0.8
		c1.9,0.6,3.8,1.4,5.6,2.4l-0.4,8.4h-5.3l-1.4-6.7c-1.5-0.6-3.1-1-5-1c-2.1,0-3.8,0.5-5,1.4c-1.2,0.9-1.8,2.1-1.8,3.7
		c0,1.4,0.5,2.6,1.5,3.5c1,0.9,2.8,1.8,5.6,2.7l3.2,1c3.9,1.3,6.7,3,8.3,5c1.7,2,2.5,4.3,2.5,7.1c0,3.6-1.5,6.5-4.4,8.8
		C695.7,553.4,691.6,554.6,686.2,554.6z"/>
	<path class="st4" d="M745.2,554.6c-3.6,0-6.9-0.8-9.8-2.4s-5.1-3.9-6.8-6.9c-1.6-3-2.4-6.7-2.4-10.9c0-4.3,0.9-8,2.8-11
		s4.3-5.4,7.3-7s6.3-2.4,9.9-2.4c2.6,0,5,0.5,7.1,1.5c2.1,1,3.8,2.3,5.1,4c1.3,1.7,2.1,3.5,2.4,5.6c-0.6,2.3-2.2,3.5-4.6,3.5
		c-3,0-4.7-1.9-5.2-5.6l-1-4.8c-0.5-0.1-1-0.2-1.4-0.2c-0.5-0.1-1-0.1-1.4-0.1c-1.9,0-3.7,0.5-5.3,1.6c-1.6,1.1-2.9,2.8-4,5.1
		c-1,2.3-1.5,5.2-1.5,8.7c0,4.9,1.1,8.6,3.3,11.1c2.2,2.6,5.1,3.8,8.7,3.8c2.1,0,4.1-0.5,5.8-1.4c1.7-1,3.1-2.3,4.3-3.9l2.4,1.8
		c-1.3,3.3-3.3,5.7-6,7.4C752.2,553.7,749,554.6,745.2,554.6z"/>
	<path class="st4" d="M785.4,554.6c-3.6,0-6.9-0.8-9.8-2.4c-2.9-1.6-5.2-3.9-6.9-7c-1.7-3-2.6-6.7-2.6-10.9c0-4.3,0.9-7.9,2.7-11
		c1.8-3,4.1-5.4,7.1-7c2.9-1.6,6.1-2.4,9.5-2.4c3.4,0,6.6,0.8,9.5,2.4c2.9,1.6,5.3,3.9,7.1,6.9c1.8,3,2.7,6.7,2.7,11
		c0,4.3-0.9,7.9-2.6,10.9c-1.7,3-4.1,5.3-7,6.9C792.3,553.8,789,554.6,785.4,554.6z M785.4,550.6c2.9,0,5.1-1.3,6.6-4
		c1.5-2.7,2.3-6.7,2.3-12.2c0-11-3-16.5-8.9-16.5c-5.9,0-8.8,5.5-8.8,16.5c0,5.5,0.7,9.6,2.2,12.2
		C780.3,549.3,782.5,550.6,785.4,550.6z"/>
	<path class="st4" d="M810.4,553.4v-3.3l5.2-1c0.1-2,0.1-4.1,0.1-6.4c0-2.3,0-4.3,0-6v-4.2c0-2.2,0-3.9,0-5.2c0-1.3-0.1-2.8-0.2-4.4
		l-5.6-0.7v-3l13.4-5l1.3,0.8l0.6,6.2c1.9-2.2,4-3.9,6.3-5.2c2.3-1.3,4.6-1.9,7.1-1.9c5.2,0,8.5,2.4,10,7.3c2.1-2.6,4.3-4.4,6.6-5.6
		c2.3-1.1,4.7-1.7,7.1-1.7c3.6,0,6.3,1.1,8.2,3.4c1.8,2.2,2.7,5.8,2.7,10.7v8.6c0,1.8,0,3.9,0,6.1c0,2.3,0,4.4,0.1,6.4l4.9,1v3.3
		h-19.5v-3.3l5-1c0.1-2,0.1-4.1,0.1-6.4c0-2.3,0-4.3,0-6.1v-7.4c0-3.4-0.4-5.6-1.3-6.8c-0.9-1.2-2.3-1.8-4.4-1.8
		c-2.8,0-5.8,1.4-8.8,4.1c0.1,0.5,0.1,1.1,0.1,1.7c0,0.6,0,1.2,0,1.8v8.3c0,1.8,0,3.9,0,6.1c0,2.3,0,4.4,0.1,6.4l4.8,1v3.3h-19.6
		v-3.3l5.1-1c0.1-2,0.1-4.1,0.1-6.4c0-2.3,0-4.3,0-6.1v-7.2c0-3.3-0.4-5.5-1.2-6.8c-0.8-1.3-2.3-1.9-4.4-1.9c-1.5,0-3,0.4-4.4,1.1
		c-1.5,0.7-2.9,1.7-4.3,2.9v11.9c0,1.8,0,3.8,0,6.1c0,2.3,0,4.5,0.1,6.5l4.7,1v3.3H810.4z"/>
	<path class="st4" d="M902.3,554.6c-3.6,0-6.9-0.8-9.8-2.4c-2.9-1.6-5.2-3.9-6.9-7s-2.6-6.7-2.6-10.9c0-4.3,0.9-7.9,2.7-11
		c1.8-3,4.1-5.4,7.1-7c2.9-1.6,6.1-2.4,9.5-2.4c3.4,0,6.6,0.8,9.5,2.4c2.9,1.6,5.3,3.9,7.1,6.9c1.8,3,2.7,6.7,2.7,11
		c0,4.3-0.9,7.9-2.6,10.9c-1.7,3-4.1,5.3-7,6.9C909.2,553.8,905.9,554.6,902.3,554.6z M902.3,550.6c2.9,0,5.1-1.3,6.6-4
		c1.5-2.7,2.3-6.7,2.3-12.2c0-11-3-16.5-8.9-16.5c-5.9,0-8.8,5.5-8.8,16.5c0,5.5,0.7,9.6,2.2,12.2
		C897.2,549.3,899.4,550.6,902.3,550.6z"/>
</g>
<g class="st3">
	<path class="st4" d="M264,639.6c-3.6,0-6.9-0.8-9.8-2.4c-2.9-1.6-5.2-3.9-6.9-7c-1.7-3-2.6-6.7-2.6-10.9c0-4.3,0.9-7.9,2.7-11
		c1.8-3,4.1-5.4,7.1-7c2.9-1.6,6.1-2.4,9.5-2.4c3.4,0,6.6,0.8,9.5,2.4c2.9,1.6,5.3,3.9,7.1,6.9c1.8,3,2.7,6.7,2.7,11
		c0,4.3-0.9,7.9-2.6,10.9c-1.7,3-4.1,5.3-7,6.9C270.9,638.8,267.7,639.6,264,639.6z M264,635.6c2.9,0,5.1-1.3,6.6-4
		c1.5-2.7,2.3-6.7,2.3-12.2c0-11-3-16.5-8.9-16.5c-5.9,0-8.8,5.5-8.8,16.5c0,5.5,0.7,9.6,2.2,12.2C259,634.3,261.2,635.6,264,635.6z
		"/>
	<path class="st4" d="M289.2,638.4v-3.3l5.1-1c0.1-2,0.1-4.2,0.1-6.5c0-2.3,0-4.3,0-6v-4.2c0-2.2,0-3.9,0-5.2c0-1.3-0.1-2.8-0.2-4.4
		l-5.6-0.7v-3l13.4-5l1.3,0.8l0.8,9.4c1.2-3.3,2.9-5.8,5-7.6s4.2-2.6,6.2-2.6c1.4,0,2.8,0.4,4,1.1c1.2,0.7,2,1.8,2.4,3.2
		c-0.1,2-0.5,3.5-1.4,4.6c-0.9,1.1-2.2,1.6-3.8,1.6c-1.9,0-3.7-1-5.4-2.9l-0.7-0.8c-2.8,2.3-4.9,5.7-6.1,9.9v5.8c0,1.7,0,3.6,0,5.9
		c0,2.3,0,4.4,0.1,6.4l6.6,1.3v3.3H289.2z"/>
	<path class="st4" d="M340.1,625c-2.4,0-4.6-0.3-6.6-0.9c-1,1.4-1.5,2.9-1.5,4.4c0,1,0.3,1.8,1,2.4c0.7,0.6,1.9,0.9,3.6,0.9h10
		c5.2,0,9,1,11.2,3c2.2,2,3.4,4.6,3.4,8c0,2.5-0.8,4.9-2.4,7c-1.6,2.2-4,3.9-7.2,5.3c-3.2,1.3-7.1,2-11.9,2c-4.1,0-7.4-0.4-9.9-1.3
		c-2.5-0.9-4.3-2-5.4-3.4c-1.1-1.4-1.6-3-1.6-4.8c0-1.7,0.6-3.3,1.7-4.7c1.1-1.4,3-2.7,5.5-4c-1.7-0.6-2.9-1.4-3.7-2.5
		c-0.8-1.1-1.2-2.4-1.2-3.8c0-1.5,0.5-3.1,1.4-4.6c0.9-1.5,2.4-3.2,4.4-5c-4.2-2.1-6.3-5.8-6.3-11c0-3.9,1.4-7.1,4.2-9.5
		c2.8-2.4,6.6-3.6,11.4-3.6c4.9,0,8.6,1.1,11.4,3.4l9-3.4l1.2,0.8v5.6H354c1.1,1.8,1.7,4.1,1.7,6.7c0,3.9-1.4,7-4.1,9.4
		C348.8,623.8,345,625,340.1,625z M329.9,645.9c0,2.5,0.9,4.2,2.7,5.4c1.8,1.1,4.4,1.7,7.8,1.7c4.2,0,7.4-0.7,9.6-2.1
		c2.2-1.4,3.2-3.1,3.2-5c0-1.5-0.5-2.8-1.6-3.8c-1-1.1-2.8-1.6-5.4-1.6h-8.9c-2,0-3.7-0.2-5.3-0.5
		C330.6,641.8,329.9,643.8,329.9,645.9z M340,621.5c2.2,0,3.9-0.9,5.1-2.6c1.2-1.8,1.8-4.1,1.8-7c0-2.8-0.6-5.1-1.7-6.8
		c-1.1-1.7-2.8-2.5-4.9-2.5c-2.1,0-3.8,0.9-5,2.6c-1.2,1.7-1.8,4-1.8,6.9c0,2.9,0.6,5.2,1.7,6.9S337.8,621.5,340,621.5z"/>
	<path class="st4" d="M394.8,639.4c-2.1,0-3.9-0.5-5.2-1.6c-1.3-1.1-2.2-2.5-2.7-4.4c-2,2-3.8,3.6-5.4,4.6s-3.7,1.6-6.2,1.6
		c-3,0-5.5-0.9-7.6-2.6c-2.1-1.7-3.1-4.2-3.1-7.5c0-1.7,0.4-3.3,1.2-4.8c0.8-1.5,2.2-2.8,4.3-4.1c2.1-1.3,5-2.5,8.8-3.8
		c1.1-0.4,2.3-0.7,3.6-1.1c1.3-0.4,2.7-0.7,4.1-1.1v-2.2c0-3.7-0.5-6.3-1.6-7.6c-1-1.3-2.9-2-5.5-2c-0.5,0-1,0-1.6,0.1
		c-0.6,0.1-1.1,0.1-1.7,0.2l-1,4.4c-0.2,1.9-0.8,3.3-1.7,4.2c-0.9,0.9-2,1.4-3.4,1.4c-2.6,0-4.1-1.2-4.5-3.6
		c0.5-3.2,2.2-5.8,5.2-7.7c3-1.9,6.9-2.9,11.7-2.9c4.6,0,8,1.1,10.2,3.3c2.1,2.2,3.2,5.9,3.2,11.2v17.4c0,2.4,0.8,3.6,2.3,3.6
		c1,0,1.9-0.6,2.8-1.8l1.8,1.6c-1,1.8-2.1,3.1-3.4,3.9C398.4,639,396.8,639.4,394.8,639.4z M374,627.8c0,2.1,0.5,3.6,1.6,4.5
		c1.1,0.9,2.4,1.4,4,1.4c0.9,0,1.8-0.2,2.7-0.6c0.9-0.4,2.3-1.3,4.2-2.6v-12.6c-1.1,0.4-2.2,0.7-3.2,1c-1,0.3-1.8,0.6-2.5,0.9
		c-2.7,1.1-4.5,2.3-5.5,3.7C374.5,624.8,374,626.2,374,627.8z"/>
	<path class="st4" d="M405.7,638.4v-3.3l5.2-1c0.1-2,0.1-4.1,0.1-6.4c0-2.3,0-4.3,0-6v-4.2c0-2.2,0-3.9,0-5.2c0-1.3-0.1-2.8-0.2-4.4
		l-5.6-0.7v-3l13.4-5l1.3,0.8l0.6,6.2c4.1-4.6,8.6-7,13.6-7c3.5,0,6.1,1.1,8,3.4c1.9,2.3,2.8,5.9,2.8,10.9v8.3c0,1.8,0,3.9,0,6.2
		s0,4.4,0.1,6.4l4.9,1v3.3H430v-3.3l5.1-1c0.1-2,0.1-4.1,0.1-6.4c0-2.3,0-4.3,0-6.1V614c0-3.1-0.4-5.3-1.3-6.5
		c-0.9-1.2-2.3-1.8-4.3-1.8c-2.8,0-5.8,1.3-9,3.9v12c0,1.8,0,3.8,0,6.1c0,2.3,0,4.5,0.1,6.5l4.7,1v3.3H405.7z"/>
	<path class="st4" d="M454.4,638.4v-3.3l5.3-1c0.1-2,0.1-4.1,0.1-6.4c0-2.3,0-4.3,0-6v-3.8c0-2.2,0-4,0-5.5c0-1.5-0.1-3-0.2-4.6
		l-5.7-0.7v-3l14.4-5l1.3,0.8l-0.2,11.3v10.6c0,1.7,0,3.7,0,6c0,2.3,0,4.5,0.1,6.5l4.9,1v3.3H454.4z M464.5,591.6
		c-1.7,0-3.1-0.5-4.3-1.6c-1.2-1.1-1.8-2.4-1.8-4.1c0-1.7,0.6-3.1,1.8-4.2c1.2-1.1,2.6-1.6,4.3-1.6c1.7,0,3.1,0.5,4.3,1.6
		c1.1,1.1,1.7,2.5,1.7,4.2c0,1.7-0.6,3-1.7,4.1C467.7,591,466.2,591.6,464.5,591.6z"/>
	<path class="st4" d="M478.4,638.4v-3l21.5-31.8h-13.6l-2.2,8.9l-5.3-0.3l0.6-12.1h31.2v3l-21.2,31.8H504l2.3-9.7h5.3l-0.8,13.2
		H478.4z"/>
	<path class="st4" d="M546.4,639.4c-2.1,0-3.9-0.5-5.2-1.6c-1.3-1.1-2.2-2.5-2.7-4.4c-2,2-3.8,3.6-5.4,4.6s-3.7,1.6-6.2,1.6
		c-3,0-5.5-0.9-7.6-2.6c-2.1-1.7-3.1-4.2-3.1-7.5c0-1.7,0.4-3.3,1.2-4.8c0.8-1.5,2.2-2.8,4.3-4.1c2.1-1.3,5-2.5,8.8-3.8
		c1.1-0.4,2.3-0.7,3.6-1.1c1.3-0.4,2.7-0.7,4.1-1.1v-2.2c0-3.7-0.5-6.3-1.6-7.6c-1-1.3-2.9-2-5.5-2c-0.5,0-1,0-1.6,0.1
		c-0.6,0.1-1.1,0.1-1.7,0.2l-1,4.4c-0.2,1.9-0.8,3.3-1.7,4.2c-0.9,0.9-2,1.4-3.4,1.4c-2.6,0-4.1-1.2-4.5-3.6
		c0.5-3.2,2.2-5.8,5.2-7.7c3-1.9,6.9-2.9,11.7-2.9c4.6,0,8,1.1,10.2,3.3c2.1,2.2,3.2,5.9,3.2,11.2v17.4c0,2.4,0.8,3.6,2.3,3.6
		c1,0,1.9-0.6,2.8-1.8l1.8,1.6c-1,1.8-2.1,3.1-3.4,3.9C550,639,548.4,639.4,546.4,639.4z M525.6,627.8c0,2.1,0.5,3.6,1.6,4.5
		c1.1,0.9,2.4,1.4,4,1.4c0.9,0,1.8-0.2,2.7-0.6c0.9-0.4,2.3-1.3,4.2-2.6v-12.6c-1.1,0.4-2.2,0.7-3.2,1c-1,0.3-1.8,0.6-2.5,0.9
		c-2.7,1.1-4.5,2.3-5.5,3.7C526.1,624.8,525.6,626.2,525.6,627.8z"/>
	<path class="st4" d="M576.6,639.6c-3.6,0-6.9-0.8-9.8-2.4s-5.1-3.9-6.8-6.9c-1.6-3-2.4-6.7-2.4-10.9c0-4.3,0.9-8,2.8-11
		s4.3-5.4,7.3-7s6.3-2.4,9.9-2.4c2.6,0,5,0.5,7.1,1.5c2.1,1,3.8,2.3,5.1,4c1.3,1.7,2.1,3.5,2.4,5.6c-0.6,2.3-2.2,3.5-4.6,3.5
		c-3,0-4.7-1.9-5.2-5.6l-1-4.8c-0.5-0.1-1-0.2-1.4-0.2c-0.5-0.1-1-0.1-1.4-0.1c-1.9,0-3.7,0.5-5.3,1.6c-1.6,1.1-2.9,2.8-4,5.1
		c-1,2.3-1.5,5.2-1.5,8.7c0,4.9,1.1,8.6,3.3,11.1c2.2,2.6,5.1,3.8,8.7,3.8c2.1,0,4.1-0.5,5.8-1.4c1.7-1,3.1-2.3,4.3-3.9l2.4,1.8
		c-1.3,3.3-3.3,5.7-6,7.4C583.6,638.7,580.4,639.6,576.6,639.6z"/>
	<path class="st4" d="M597.4,638.4v-3.3l5.3-1c0.1-2,0.1-4.1,0.1-6.4c0-2.3,0-4.3,0-6v-3.8c0-2.2,0-4,0-5.5c0-1.5-0.1-3-0.2-4.6
		l-5.7-0.7v-3l14.4-5l1.3,0.8l-0.2,11.3v10.6c0,1.7,0,3.7,0,6c0,2.3,0,4.5,0.1,6.5l4.9,1v3.3H597.4z M607.5,591.6
		c-1.7,0-3.1-0.5-4.3-1.6c-1.2-1.1-1.8-2.4-1.8-4.1c0-1.7,0.6-3.1,1.8-4.2c1.2-1.1,2.6-1.6,4.3-1.6c1.7,0,3.1,0.5,4.3,1.6
		c1.1,1.1,1.7,2.5,1.7,4.2c0,1.7-0.6,3-1.7,4.1C610.6,591,609.2,591.6,607.5,591.6z"/>
	<path class="st4" d="M641.6,639.6c-3.6,0-6.9-0.8-9.8-2.4c-2.9-1.6-5.2-3.9-6.9-7c-1.7-3-2.6-6.7-2.6-10.9c0-4.3,0.9-7.9,2.7-11
		c1.8-3,4.1-5.4,7.1-7c2.9-1.6,6.1-2.4,9.5-2.4c3.4,0,6.6,0.8,9.5,2.4c2.9,1.6,5.3,3.9,7.1,6.9c1.8,3,2.7,6.7,2.7,11
		c0,4.3-0.9,7.9-2.6,10.9c-1.7,3-4.1,5.3-7,6.9C648.5,638.8,645.3,639.6,641.6,639.6z M641.6,635.6c2.9,0,5.1-1.3,6.6-4
		c1.5-2.7,2.3-6.7,2.3-12.2c0-11-3-16.5-8.9-16.5c-5.9,0-8.8,5.5-8.8,16.5c0,5.5,0.7,9.6,2.2,12.2
		C636.6,634.3,638.8,635.6,641.6,635.6z"/>
	<path class="st4" d="M666.7,638.4v-3.3l5.2-1c0.1-2,0.1-4.1,0.1-6.4c0-2.3,0-4.3,0-6v-4.2c0-2.2,0-3.9,0-5.2c0-1.3-0.1-2.8-0.2-4.4
		l-5.6-0.7v-3l13.4-5l1.3,0.8l0.6,6.2c4.1-4.6,8.6-7,13.6-7c3.5,0,6.1,1.1,8,3.4c1.9,2.3,2.8,5.9,2.8,10.9v8.3c0,1.8,0,3.9,0,6.2
		s0,4.4,0.1,6.4l4.9,1v3.3H691v-3.3l5.1-1c0.1-2,0.1-4.1,0.1-6.4c0-2.3,0-4.3,0-6.1V614c0-3.1-0.4-5.3-1.3-6.5
		c-0.9-1.2-2.3-1.8-4.3-1.8c-2.8,0-5.8,1.3-9,3.9v12c0,1.8,0,3.8,0,6.1c0,2.3,0,4.5,0.1,6.5l4.7,1v3.3H666.7z"/>
	<path class="st4" d="M734.7,639.6c-3.7,0-7-0.8-9.8-2.4c-2.8-1.6-5-3.9-6.6-6.9c-1.6-3-2.4-6.6-2.4-10.8c0-4.3,0.9-7.9,2.8-11
		c1.8-3.1,4.2-5.4,7.2-7c3-1.6,6.1-2.4,9.5-2.4c3.1,0,5.9,0.7,8.2,2c2.3,1.3,4.2,3.2,5.5,5.6c1.3,2.4,2,5.2,2,8.5
		c0,1.7-0.2,3.2-0.5,4.4H726c0.2,4.6,1.4,8,3.6,10.3s5,3.4,8.4,3.4c2.3,0,4.3-0.5,6-1.4c1.6-0.9,3.1-2.1,4.4-3.6l2.3,2.1
		c-1.5,2.9-3.7,5.2-6.4,6.8C741.6,638.7,738.4,639.6,734.7,639.6z M734.7,602.8c-1.3,0-2.5,0.4-3.8,1.2c-1.3,0.8-2.3,2.2-3.2,4
		c-0.9,1.9-1.4,4.4-1.6,7.6h11c1.9,0,3.2-0.4,3.8-1.2c0.6-0.8,1-1.9,1-3.4c0-2.5-0.7-4.5-2.1-6C738.3,603.6,736.6,602.8,734.7,602.8
		z"/>
	<path class="st4" d="M770.2,639.6c-2.5,0-4.7-0.3-6.8-0.8c-2.1-0.6-4.1-1.4-6.1-2.5l-0.1-9.3h5.4l1.4,7.4c1.9,0.8,4,1.2,6.2,1.2
		c2.7,0,4.7-0.5,6.1-1.4c1.3-1,2-2.3,2-4c0-1.5-0.5-2.7-1.6-3.6c-1.1-0.9-2.9-1.8-5.4-2.7l-4-1.4c-3-1-5.3-2.4-7.1-4.2
		c-1.7-1.9-2.6-4.2-2.6-7c0-2.2,0.6-4.3,1.8-6.1c1.2-1.8,2.9-3.3,5.2-4.4c2.3-1.1,5-1.6,8.3-1.6c2.3,0,4.4,0.3,6.3,0.8
		c1.9,0.6,3.8,1.4,5.6,2.4l-0.4,8.4h-5.3l-1.4-6.7c-1.5-0.6-3.1-1-5-1c-2.1,0-3.8,0.5-5,1.4c-1.2,0.9-1.8,2.1-1.8,3.7
		c0,1.4,0.5,2.6,1.5,3.5c1,0.9,2.8,1.8,5.6,2.7l3.2,1c3.9,1.3,6.7,3,8.3,5c1.7,2,2.5,4.3,2.5,7.1c0,3.6-1.5,6.5-4.4,8.8
		C779.7,638.4,775.6,639.6,770.2,639.6z"/>
	<path class="st4" d="M833.8,603.3v-3.2h15.4v3.2l-4.5,0.9L831,639.9c-2.3,6.1-4.6,10.7-7,13.6c-2.3,2.9-5.3,4.4-8.7,4.4
		c-2.1,0-3.9-0.5-5.4-1.6c-1.5-1.1-2.3-2.4-2.4-4c0.3-1.4,1.1-2.5,2.2-3.2c1.1-0.7,2.4-1.1,3.8-1.1c1.1,0,2.1,0.2,3.2,0.7
		c1,0.5,2.1,1.3,3.2,2.7l0.5,0.6c1.4-1.4,2.7-3,3.8-4.8c1.1-1.8,1.9-3.7,2.6-5.7l0.2-0.5l-15.2-37l-4.1-0.6v-3.2h21v3.2l-6.3,0.9
		l9,24.5l8.7-24.4L833.8,603.3z"/>
</g>
<g class="st3">
	<path class="st4" d="M243.9,723.4v-3.3l5.4-1c0.1-2.1,0.1-4.2,0.1-6.2c0-2.1,0-4.2,0-6.2v-34.3l-5.8-0.8v-3.1l14.6-3.6l1.2,0.7
		l-0.3,11.3v29.8c0,2.1,0,4.2,0,6.2c0,2.1,0.1,4.2,0.1,6.2l5.4,1v3.3H243.9z"/>
	<path class="st4" d="M269.2,723.4v-3.3l5.3-1c0.1-2,0.1-4.1,0.1-6.4c0-2.3,0-4.3,0-6v-3.8c0-2.2,0-4,0-5.5c0-1.5-0.1-3-0.2-4.6
		l-5.7-0.7v-3l14.5-5l1.3,0.8l-0.2,11.3v10.6c0,1.8,0,3.8,0,6.1c0,2.3,0,4.5,0.1,6.5l4.8,1v3.3H269.2z M275.4,677
		c0.9-1.5,1.9-3.2,2.9-4.8c1-1.7,2.3-3.7,3.8-6c0.9-1.5,1.8-2.6,2.6-3.2c0.8-0.6,1.7-0.9,2.7-0.9c0.9,0,1.7,0.3,2.5,1
		c0.8,0.6,1.2,1.6,1.2,2.8c0,1.5-1.3,3.4-3.8,5.4c-2,1.7-3.7,3.1-5.1,4.3c-1.4,1.2-2.8,2.4-4.2,3.5L275.4,677z"/>
	<path class="st4" d="M322.1,724.3l-0.6-5c-1.5,1.7-3.1,3-5,3.9c-1.8,0.9-3.9,1.4-6.2,1.4c-3.1,0-5.9-0.8-8.4-2.4
		c-2.4-1.6-4.3-3.9-5.7-6.9c-1.4-3-2.1-6.5-2.1-10.6c0-4.2,0.8-7.9,2.4-11c1.6-3.1,3.7-5.5,6.3-7.2c2.6-1.7,5.5-2.5,8.7-2.5
		c2,0,3.9,0.4,5.5,1.1c1.6,0.7,3.2,2,4.6,3.7v-16.5l-6.2-0.8v-3.1l14.6-3.6l1.2,0.7l-0.3,11.3v42.5l5.2,0.9v3.3L322.1,724.3z
		 M304.4,704.5c0,4.9,0.9,8.5,2.8,10.8c1.8,2.4,4.2,3.6,7,3.6c1.4,0,2.7-0.3,3.8-0.8c1.1-0.6,2.2-1.4,3.2-2.4v-23c-2.3-2-4.7-3-7-3
		c-2.7,0-5,1.2-6.9,3.6C305.3,695.6,304.4,699.4,304.4,704.5z"/>
	<path class="st4" d="M359.4,724.6c-3.7,0-7-0.8-9.8-2.4c-2.8-1.6-5-3.9-6.6-6.9c-1.6-3-2.4-6.6-2.4-10.8c0-4.3,0.9-7.9,2.8-11
		c1.8-3.1,4.2-5.4,7.2-7c3-1.6,6.1-2.4,9.5-2.4c3.1,0,5.9,0.7,8.2,2c2.3,1.3,4.2,3.2,5.5,5.6c1.3,2.4,2,5.2,2,8.5
		c0,1.7-0.2,3.2-0.5,4.4h-24.5c0.2,4.6,1.4,8,3.6,10.3c2.2,2.3,5,3.4,8.4,3.4c2.3,0,4.3-0.5,6-1.4c1.6-0.9,3.1-2.1,4.4-3.6l2.3,2.1
		c-1.5,2.9-3.7,5.2-6.4,6.8C366.3,723.7,363.1,724.6,359.4,724.6z M359.4,687.8c-1.3,0-2.5,0.4-3.8,1.2c-1.3,0.8-2.3,2.2-3.2,4
		c-0.9,1.9-1.4,4.4-1.6,7.6h11c1.9,0,3.2-0.4,3.8-1.2s1-1.9,1-3.4c0-2.5-0.7-4.5-2.1-6C363,688.6,361.4,687.8,359.4,687.8z"/>
	<path class="st4" d="M381.6,723.4v-3.3l5.1-1c0.1-2,0.1-4.2,0.1-6.5c0-2.3,0-4.3,0-6v-4.2c0-2.2,0-3.9,0-5.2c0-1.3-0.1-2.8-0.2-4.4
		l-5.6-0.7v-3l13.4-5l1.3,0.8l0.8,9.4c1.2-3.3,2.9-5.8,5-7.6s4.2-2.6,6.2-2.6c1.4,0,2.8,0.4,4,1.1c1.2,0.7,2,1.8,2.4,3.2
		c-0.1,2-0.5,3.5-1.4,4.6c-0.9,1.1-2.2,1.6-3.8,1.6c-1.9,0-3.7-1-5.4-2.9l-0.7-0.8c-2.8,2.3-4.9,5.7-6.1,9.9v5.8c0,1.7,0,3.6,0,5.9
		c0,2.3,0,4.4,0.1,6.4l6.6,1.3v3.3H381.6z"/>
	<path class="st4" d="M434.9,724.6c-3.7,0-7-0.8-9.8-2.4c-2.8-1.6-5-3.9-6.6-6.9c-1.6-3-2.4-6.6-2.4-10.8c0-4.3,0.9-7.9,2.8-11
		c1.8-3.1,4.2-5.4,7.2-7c3-1.6,6.1-2.4,9.5-2.4c3.1,0,5.9,0.7,8.2,2c2.3,1.3,4.2,3.2,5.5,5.6c1.3,2.4,2,5.2,2,8.5
		c0,1.7-0.2,3.2-0.5,4.4h-24.5c0.2,4.6,1.4,8,3.6,10.3c2.2,2.3,5,3.4,8.4,3.4c2.3,0,4.3-0.5,6-1.4c1.6-0.9,3.1-2.1,4.4-3.6l2.3,2.1
		c-1.5,2.9-3.7,5.2-6.4,6.8C441.9,723.7,438.6,724.6,434.9,724.6z M434.9,687.8c-1.3,0-2.5,0.4-3.8,1.2c-1.3,0.8-2.3,2.2-3.2,4
		c-0.9,1.9-1.4,4.4-1.6,7.6h11c1.9,0,3.2-0.4,3.8-1.2s1-1.9,1-3.4c0-2.5-0.7-4.5-2.1-6C438.6,688.6,436.9,687.8,434.9,687.8z"/>
	<path class="st4" d="M470.4,724.6c-2.5,0-4.7-0.3-6.8-0.8c-2.1-0.6-4.1-1.4-6.1-2.5l-0.1-9.3h5.4l1.4,7.4c1.9,0.8,4,1.2,6.2,1.2
		c2.7,0,4.7-0.5,6.1-1.4c1.3-1,2-2.3,2-4c0-1.5-0.5-2.7-1.6-3.6c-1.1-0.9-2.9-1.8-5.4-2.7l-4-1.4c-3-1-5.3-2.4-7.1-4.2
		c-1.7-1.9-2.6-4.2-2.6-7c0-2.2,0.6-4.3,1.8-6.1c1.2-1.8,2.9-3.3,5.2-4.4c2.3-1.1,5-1.6,8.3-1.6c2.3,0,4.4,0.3,6.3,0.8
		c1.9,0.6,3.8,1.4,5.6,2.4l-0.4,8.4h-5.3l-1.4-6.7c-1.5-0.6-3.1-1-5-1c-2.1,0-3.8,0.5-5,1.4c-1.2,0.9-1.8,2.1-1.8,3.7
		c0,1.4,0.5,2.6,1.5,3.5c1,0.9,2.8,1.8,5.6,2.7l3.2,1c3.9,1.3,6.7,3,8.3,5c1.7,2,2.5,4.3,2.5,7.1c0,3.6-1.5,6.5-4.4,8.8
		C480,723.4,475.8,724.6,470.4,724.6z"/>
	<path class="st4" d="M538.7,724.3l-0.6-5c-1.5,1.7-3.1,3-5,3.9c-1.8,0.9-3.9,1.4-6.2,1.4c-3.1,0-5.9-0.8-8.4-2.4
		c-2.4-1.6-4.3-3.9-5.7-6.9c-1.4-3-2.1-6.5-2.1-10.6c0-4.2,0.8-7.9,2.4-11c1.6-3.1,3.7-5.5,6.3-7.2c2.6-1.7,5.5-2.5,8.7-2.5
		c2,0,3.9,0.4,5.5,1.1c1.6,0.7,3.2,2,4.6,3.7v-16.5l-6.2-0.8v-3.1l14.6-3.6l1.2,0.7l-0.3,11.3v42.5l5.2,0.9v3.3L538.7,724.3z
		 M520.9,704.5c0,4.9,0.9,8.5,2.8,10.8c1.8,2.4,4.2,3.6,7,3.6c1.4,0,2.7-0.3,3.8-0.8c1.1-0.6,2.2-1.4,3.2-2.4v-23c-2.3-2-4.7-3-7-3
		c-2.7,0-5,1.2-6.9,3.6C521.9,695.6,520.9,699.4,520.9,704.5z"/>
	<path class="st4" d="M576,724.6c-3.7,0-7-0.8-9.8-2.4c-2.8-1.6-5-3.9-6.6-6.9c-1.6-3-2.4-6.6-2.4-10.8c0-4.3,0.9-7.9,2.8-11
		c1.8-3.1,4.2-5.4,7.2-7c3-1.6,6.1-2.4,9.5-2.4c3.1,0,5.9,0.7,8.2,2c2.3,1.3,4.2,3.2,5.5,5.6c1.3,2.4,2,5.2,2,8.5
		c0,1.7-0.2,3.2-0.5,4.4h-24.5c0.2,4.6,1.4,8,3.6,10.3c2.2,2.3,5,3.4,8.4,3.4c2.3,0,4.3-0.5,6-1.4c1.6-0.9,3.1-2.1,4.4-3.6l2.3,2.1
		c-1.5,2.9-3.7,5.2-6.4,6.8C582.9,723.7,579.7,724.6,576,724.6z M576,687.8c-1.3,0-2.5,0.4-3.8,1.2c-1.3,0.8-2.3,2.2-3.2,4
		c-0.9,1.9-1.4,4.4-1.6,7.6h11c1.9,0,3.2-0.4,3.8-1.2s1-1.9,1-3.4c0-2.5-0.7-4.5-2.1-6C579.6,688.6,577.9,687.8,576,687.8z"/>
	<path class="st4" d="M615.3,723.4v-3.3l5.4-1c0.1-2.1,0.1-4.2,0.1-6.2c0-2.1,0-4.2,0-6.2v-34.3l-5.8-0.8v-3.1l14.6-3.6l1.2,0.7
		l-0.3,11.3v29.8c0,2.1,0,4.2,0,6.2c0,2.1,0.1,4.2,0.1,6.2l5.4,1v3.3H615.3z"/>
	<path class="st4" d="M670.4,724.4c-2.1,0-3.9-0.5-5.2-1.6c-1.3-1.1-2.2-2.5-2.7-4.4c-2,2-3.8,3.6-5.4,4.6c-1.6,1-3.7,1.6-6.2,1.6
		c-3,0-5.5-0.9-7.6-2.6c-2.1-1.7-3.1-4.2-3.1-7.5c0-1.7,0.4-3.3,1.2-4.8s2.2-2.8,4.3-4.1c2.1-1.3,5-2.5,8.8-3.8
		c1.1-0.4,2.3-0.7,3.6-1.1s2.7-0.7,4.1-1.1v-2.2c0-3.7-0.5-6.3-1.6-7.6c-1-1.3-2.9-2-5.5-2c-0.5,0-1,0-1.6,0.1
		c-0.6,0.1-1.1,0.1-1.7,0.2l-1,4.4c-0.2,1.9-0.8,3.3-1.7,4.2c-0.9,0.9-2,1.4-3.4,1.4c-2.6,0-4.1-1.2-4.5-3.6
		c0.5-3.2,2.2-5.8,5.2-7.7c3-1.9,6.9-2.9,11.7-2.9c4.6,0,8,1.1,10.2,3.3c2.1,2.2,3.2,5.9,3.2,11.2v17.4c0,2.4,0.8,3.6,2.3,3.6
		c1,0,1.9-0.6,2.8-1.8l1.8,1.6c-1,1.8-2.1,3.1-3.4,3.9C674,724,672.4,724.4,670.4,724.4z M649.6,712.8c0,2.1,0.5,3.6,1.6,4.5
		c1.1,0.9,2.4,1.4,4,1.4c0.9,0,1.8-0.2,2.7-0.6c0.9-0.4,2.3-1.3,4.2-2.6v-12.6c-1.1,0.4-2.2,0.7-3.2,1c-1,0.3-1.8,0.6-2.5,0.9
		c-2.7,1.1-4.5,2.3-5.5,3.7C650.1,709.8,649.6,711.2,649.6,712.8z"/>
</g>
<g class="st3">
	<path class="st4" d="M258,809.6c-2.5,0-4.7-0.3-6.8-0.8c-2.1-0.6-4.1-1.4-6.1-2.5l-0.1-9.3h5.4l1.4,7.4c1.9,0.8,4,1.2,6.2,1.2
		c2.7,0,4.7-0.5,6.1-1.4c1.3-1,2-2.3,2-4c0-1.5-0.5-2.7-1.6-3.6c-1.1-0.9-2.9-1.8-5.4-2.7l-4-1.4c-3-1-5.3-2.4-7.1-4.2
		c-1.7-1.9-2.6-4.2-2.6-7c0-2.2,0.6-4.3,1.8-6.1c1.2-1.8,2.9-3.3,5.2-4.4c2.3-1.1,5-1.6,8.3-1.6c2.3,0,4.4,0.3,6.3,0.8
		c1.9,0.6,3.8,1.4,5.6,2.4l-0.4,8.4h-5.3l-1.4-6.7c-1.5-0.6-3.1-1-5-1c-2.1,0-3.8,0.5-5,1.4c-1.2,0.9-1.8,2.1-1.8,3.7
		c0,1.4,0.5,2.6,1.5,3.5c1,0.9,2.8,1.8,5.6,2.7l3.2,1c3.9,1.3,6.7,3,8.3,5c1.7,2,2.5,4.3,2.5,7.1c0,3.6-1.5,6.5-4.4,8.8
		C267.5,808.4,263.3,809.6,258,809.6z"/>
	<path class="st4" d="M299.6,809.6c-3.6,0-6.9-0.8-9.8-2.4c-2.9-1.6-5.2-3.9-6.9-7c-1.7-3-2.6-6.7-2.6-10.9c0-4.3,0.9-7.9,2.7-11
		c1.8-3,4.1-5.4,7.1-7c2.9-1.6,6.1-2.4,9.5-2.4c3.4,0,6.6,0.8,9.5,2.4c2.9,1.6,5.3,3.9,7.1,6.9c1.8,3,2.7,6.7,2.7,11
		c0,4.3-0.9,7.9-2.6,10.9c-1.7,3-4.1,5.3-7,6.9C306.4,808.8,303.2,809.6,299.6,809.6z M299.6,805.6c2.9,0,5.1-1.3,6.6-4
		c1.5-2.7,2.3-6.7,2.3-12.2c0-11-3-16.5-8.9-16.5c-5.9,0-8.8,5.5-8.8,16.5c0,5.5,0.7,9.6,2.2,12.2
		C294.5,804.3,296.7,805.6,299.6,805.6z"/>
	<path class="st4" d="M344,809.6c-3.6,0-6.9-0.8-9.8-2.4s-5.1-3.9-6.8-6.9c-1.6-3-2.4-6.7-2.4-10.9c0-4.3,0.9-8,2.8-11
		s4.3-5.4,7.3-7s6.3-2.4,9.9-2.4c2.6,0,5,0.5,7.1,1.5c2.1,1,3.8,2.3,5.1,4c1.3,1.7,2.1,3.5,2.4,5.6c-0.6,2.3-2.2,3.5-4.6,3.5
		c-3,0-4.7-1.9-5.2-5.6l-1-4.8c-0.5-0.1-1-0.2-1.4-0.2c-0.5-0.1-1-0.1-1.4-0.1c-1.9,0-3.7,0.5-5.3,1.6c-1.6,1.1-2.9,2.8-4,5.1
		c-1,2.3-1.5,5.2-1.5,8.7c0,4.9,1.1,8.6,3.3,11.1c2.2,2.6,5.1,3.8,8.7,3.8c2.1,0,4.1-0.5,5.8-1.4c1.7-1,3.1-2.3,4.3-3.9l2.4,1.8
		c-1.3,3.3-3.3,5.7-6,7.4C351,808.7,347.7,809.6,344,809.6z"/>
	<path class="st4" d="M364.8,808.4v-3.3l5.3-1c0.1-2,0.1-4.1,0.1-6.4c0-2.3,0-4.3,0-6v-3.8c0-2.2,0-4,0-5.5c0-1.5-0.1-3-0.2-4.6
		l-5.7-0.7v-3l14.4-5l1.3,0.8l-0.2,11.3v10.6c0,1.7,0,3.7,0,6c0,2.3,0,4.5,0.1,6.5l4.9,1v3.3H364.8z M374.8,761.6
		c-1.7,0-3.1-0.5-4.3-1.6c-1.2-1.1-1.8-2.4-1.8-4.1c0-1.7,0.6-3.1,1.8-4.2c1.2-1.1,2.6-1.6,4.3-1.6c1.7,0,3.1,0.5,4.3,1.6
		c1.1,1.1,1.7,2.5,1.7,4.2c0,1.7-0.6,3-1.7,4.1C378,761,376.5,761.6,374.8,761.6z"/>
	<path class="st4" d="M408.6,809.6c-3.7,0-7-0.8-9.8-2.4c-2.8-1.6-5-3.9-6.6-6.9c-1.6-3-2.4-6.6-2.4-10.8c0-4.3,0.9-7.9,2.8-11
		c1.8-3.1,4.2-5.4,7.2-7c3-1.6,6.1-2.4,9.5-2.4c3.1,0,5.9,0.7,8.2,2c2.3,1.3,4.2,3.2,5.5,5.6c1.3,2.4,2,5.2,2,8.5
		c0,1.7-0.2,3.2-0.5,4.4h-24.5c0.2,4.6,1.4,8,3.6,10.3c2.2,2.3,5,3.4,8.4,3.4c2.3,0,4.3-0.5,6-1.4c1.6-0.9,3.1-2.1,4.4-3.6l2.3,2.1
		c-1.5,2.9-3.7,5.2-6.4,6.8C415.5,808.7,412.3,809.6,408.6,809.6z M408.6,772.8c-1.3,0-2.5,0.4-3.8,1.2c-1.3,0.8-2.3,2.2-3.2,4
		c-0.9,1.9-1.4,4.4-1.6,7.6h11c1.9,0,3.2-0.4,3.8-1.2s1-1.9,1-3.4c0-2.5-0.7-4.5-2.1-6C412.2,773.6,410.6,772.8,408.6,772.8z"/>
	<path class="st4" d="M458.9,809.3l-0.6-5c-1.5,1.7-3.1,3-5,3.9c-1.8,0.9-3.9,1.4-6.2,1.4c-3.1,0-5.9-0.8-8.4-2.4
		c-2.4-1.6-4.3-3.9-5.7-6.9c-1.4-3-2.1-6.5-2.1-10.6c0-4.2,0.8-7.9,2.4-11c1.6-3.1,3.7-5.5,6.3-7.2c2.6-1.7,5.5-2.5,8.7-2.5
		c2,0,3.9,0.4,5.5,1.1c1.6,0.7,3.2,2,4.6,3.7v-16.5l-6.2-0.8v-3.1l14.6-3.6l1.2,0.7l-0.3,11.3v42.5l5.2,0.9v3.3L458.9,809.3z
		 M441.2,789.5c0,4.9,0.9,8.5,2.8,10.8c1.8,2.4,4.2,3.6,7,3.6c1.4,0,2.7-0.3,3.8-0.8c1.1-0.6,2.2-1.4,3.2-2.4v-23c-2.3-2-4.7-3-7-3
		c-2.7,0-5,1.2-6.9,3.6C442.1,780.6,441.2,784.4,441.2,789.5z"/>
	<path class="st4" d="M506.8,809.4c-2.1,0-3.9-0.5-5.2-1.6c-1.3-1.1-2.2-2.5-2.7-4.4c-2,2-3.8,3.6-5.4,4.6s-3.7,1.6-6.2,1.6
		c-3,0-5.5-0.9-7.6-2.6c-2.1-1.7-3.1-4.2-3.1-7.5c0-1.7,0.4-3.3,1.2-4.8c0.8-1.5,2.2-2.8,4.3-4.1c2.1-1.3,5-2.5,8.8-3.8
		c1.1-0.4,2.3-0.7,3.6-1.1c1.3-0.4,2.7-0.7,4.1-1.1v-2.2c0-3.7-0.5-6.3-1.6-7.6c-1-1.3-2.9-2-5.5-2c-0.5,0-1,0-1.6,0.1
		c-0.6,0.1-1.1,0.1-1.7,0.2l-1,4.4c-0.2,1.9-0.8,3.3-1.7,4.2c-0.9,0.9-2,1.4-3.4,1.4c-2.6,0-4.1-1.2-4.5-3.6
		c0.5-3.2,2.2-5.8,5.2-7.7c3-1.9,6.9-2.9,11.7-2.9c4.6,0,8,1.1,10.2,3.3c2.1,2.2,3.2,5.9,3.2,11.2v17.4c0,2.4,0.8,3.6,2.3,3.6
		c1,0,1.9-0.6,2.8-1.8l1.8,1.6c-1,1.8-2.1,3.1-3.4,3.9C510.3,809,508.7,809.4,506.8,809.4z M486,797.8c0,2.1,0.5,3.6,1.6,4.5
		c1.1,0.9,2.4,1.4,4,1.4c0.9,0,1.8-0.2,2.7-0.6c0.9-0.4,2.3-1.3,4.2-2.6v-12.6c-1.1,0.4-2.2,0.7-3.2,1c-1,0.3-1.8,0.6-2.5,0.9
		c-2.7,1.1-4.5,2.3-5.5,3.7C486.4,794.8,486,796.2,486,797.8z"/>
	<path class="st4" d="M546.1,809.3l-0.6-5c-1.5,1.7-3.1,3-5,3.9c-1.8,0.9-3.9,1.4-6.2,1.4c-3.1,0-5.9-0.8-8.4-2.4
		c-2.4-1.6-4.3-3.9-5.7-6.9c-1.4-3-2.1-6.5-2.1-10.6c0-4.2,0.8-7.9,2.4-11c1.6-3.1,3.7-5.5,6.3-7.2c2.6-1.7,5.5-2.5,8.7-2.5
		c2,0,3.9,0.4,5.5,1.1c1.6,0.7,3.2,2,4.6,3.7v-16.5l-6.2-0.8v-3.1l14.6-3.6l1.2,0.7l-0.3,11.3v42.5l5.2,0.9v3.3L546.1,809.3z
		 M528.4,789.5c0,4.9,0.9,8.5,2.8,10.8c1.8,2.4,4.2,3.6,7,3.6c1.4,0,2.7-0.3,3.8-0.8c1.1-0.6,2.2-1.4,3.2-2.4v-23c-2.3-2-4.7-3-7-3
		c-2.7,0-5,1.2-6.9,3.6C529.3,780.6,528.4,784.4,528.4,789.5z"/>
	<path class="st4" d="M601.2,809.6c-3.6,0-6.9-0.8-9.8-2.4s-5.1-3.9-6.8-6.9c-1.6-3-2.4-6.7-2.4-10.9c0-4.3,0.9-8,2.8-11
		s4.3-5.4,7.3-7s6.3-2.4,9.9-2.4c2.6,0,5,0.5,7.1,1.5c2.1,1,3.8,2.3,5.1,4c1.3,1.7,2.1,3.5,2.4,5.6c-0.6,2.3-2.2,3.5-4.6,3.5
		c-3,0-4.7-1.9-5.2-5.6l-1-4.8c-0.5-0.1-1-0.2-1.4-0.2c-0.5-0.1-1-0.1-1.4-0.1c-1.9,0-3.7,0.5-5.3,1.6c-1.6,1.1-2.9,2.8-4,5.1
		c-1,2.3-1.5,5.2-1.5,8.7c0,4.9,1.1,8.6,3.3,11.1c2.2,2.6,5.1,3.8,8.7,3.8c2.1,0,4.1-0.5,5.8-1.4c1.7-1,3.1-2.3,4.3-3.9l2.4,1.8
		c-1.3,3.3-3.3,5.7-6,7.4C608.2,808.7,605,809.6,601.2,809.6z"/>
	<path class="st4" d="M622,808.4v-3.3l5.3-1c0.1-2,0.1-4.1,0.1-6.4c0-2.3,0-4.3,0-6v-3.8c0-2.2,0-4,0-5.5c0-1.5-0.1-3-0.2-4.6
		l-5.7-0.7v-3l14.4-5l1.3,0.8l-0.2,11.3v10.6c0,1.7,0,3.7,0,6c0,2.3,0,4.5,0.1,6.5l4.9,1v3.3H622z M632.1,761.6
		c-1.7,0-3.1-0.5-4.3-1.6c-1.2-1.1-1.8-2.4-1.8-4.1c0-1.7,0.6-3.1,1.8-4.2c1.2-1.1,2.6-1.6,4.3-1.6c1.7,0,3.1,0.5,4.3,1.6
		c1.1,1.1,1.7,2.5,1.7,4.2c0,1.7-0.6,3-1.7,4.1C635.2,761,633.8,761.6,632.1,761.6z"/>
	<path class="st4" d="M668.6,773.5v-3.4h15.2v3.4l-4.5,1l-13.1,34.3h-4.7L647,774.2l-4.2-0.7v-3.4h21v3.4l-6.2,1l8.8,23.2l7.9-23.1
		L668.6,773.5z"/>
	<path class="st4" d="M687,808.4v-3.3l5.3-1c0.1-2,0.1-4.1,0.1-6.4c0-2.3,0-4.3,0-6v-3.8c0-2.2,0-4,0-5.5c0-1.5-0.1-3-0.2-4.6
		l-5.7-0.7v-3l14.4-5l1.3,0.8l-0.2,11.3v10.6c0,1.7,0,3.7,0,6c0,2.3,0,4.5,0.1,6.5l4.9,1v3.3H687z M697.1,761.6
		c-1.7,0-3.1-0.5-4.3-1.6c-1.2-1.1-1.8-2.4-1.8-4.1c0-1.7,0.6-3.1,1.8-4.2c1.2-1.1,2.6-1.6,4.3-1.6c1.7,0,3.1,0.5,4.3,1.6
		c1.1,1.1,1.7,2.5,1.7,4.2c0,1.7-0.6,3-1.7,4.1C700.2,761,698.8,761.6,697.1,761.6z"/>
	<path class="st4" d="M711.1,808.4v-3.3l5.4-1c0.1-2.1,0.1-4.2,0.1-6.2c0-2.1,0-4.2,0-6.2v-34.3l-5.8-0.8v-3.1l14.6-3.6l1.2,0.7
		l-0.3,11.3v29.8c0,2.1,0,4.2,0,6.2c0,2.1,0.1,4.2,0.1,6.2l5.4,1v3.3H711.1z"/>
	<path class="st4" d="M773.6,809.6c-3.7,0-7-0.8-9.8-2.4c-2.8-1.6-5-3.9-6.6-6.9c-1.6-3-2.4-6.6-2.4-10.8c0-4.3,0.9-7.9,2.8-11
		c1.8-3.1,4.2-5.4,7.2-7c3-1.6,6.1-2.4,9.5-2.4c3.1,0,5.9,0.7,8.2,2c2.3,1.3,4.2,3.2,5.5,5.6c1.3,2.4,2,5.2,2,8.5
		c0,1.7-0.2,3.2-0.5,4.4h-24.5c0.2,4.6,1.4,8,3.6,10.3s5,3.4,8.4,3.4c2.3,0,4.3-0.5,6-1.4c1.6-0.9,3.1-2.1,4.4-3.6l2.3,2.1
		c-1.5,2.9-3.7,5.2-6.4,6.8C780.5,808.7,777.3,809.6,773.6,809.6z M773.6,772.8c-1.3,0-2.5,0.4-3.8,1.2c-1.3,0.8-2.3,2.2-3.2,4
		c-0.9,1.9-1.4,4.4-1.6,7.6h11c1.9,0,3.2-0.4,3.8-1.2c0.6-0.8,1-1.9,1-3.4c0-2.5-0.7-4.5-2.1-6C777.2,773.6,775.5,772.8,773.6,772.8
		z"/>
	<path class="st4" d="M795.6,808.4v-3.3l5.2-1c0.1-2,0.1-4.1,0.1-6.4c0-2.3,0-4.3,0-6v-4.2c0-2.2,0-3.9,0-5.2c0-1.3-0.1-2.8-0.2-4.4
		l-5.6-0.7v-3l13.4-5l1.3,0.8l0.6,6.2c4.1-4.6,8.6-7,13.6-7c3.5,0,6.1,1.1,8,3.4c1.9,2.3,2.8,5.9,2.8,10.9v8.3c0,1.8,0,3.9,0,6.2
		s0,4.4,0.1,6.4l4.9,1v3.3H820v-3.3l5.1-1c0.1-2,0.1-4.1,0.1-6.4c0-2.3,0-4.3,0-6.1V784c0-3.1-0.4-5.3-1.3-6.5
		c-0.9-1.2-2.3-1.8-4.3-1.8c-2.8,0-5.8,1.3-9,3.9v12c0,1.8,0,3.8,0,6.1c0,2.3,0,4.5,0.1,6.5l4.7,1v3.3H795.6z"/>
</g>
<g class="st3">
	<path class="st4" d="M242.4,893.4v-3.8l6.6-1l16.7-48.6h6.6l16.7,49l5.4,0.6v3.7h-23.1v-3.7l7-0.9l-3.8-11.8H257l-3.8,11.6l7,1v3.8
		H242.4z M265.8,850.7l-7.4,22.2h14.6L265.8,850.7z"/>
	<path class="st4" d="M298,893.4v-3.3l5.2-1c0.1-2,0.1-4.1,0.1-6.4c0-2.3,0-4.3,0-6v-4.2c0-2.2,0-3.9,0-5.2c0-1.3-0.1-2.8-0.2-4.4
		l-5.6-0.7v-3l13.4-5l1.3,0.8l0.6,6.2c1.9-2.2,4-3.9,6.3-5.2c2.3-1.3,4.6-1.9,7.1-1.9c5.2,0,8.5,2.4,10,7.3c2.1-2.6,4.3-4.4,6.6-5.6
		c2.3-1.1,4.7-1.7,7.1-1.7c3.6,0,6.3,1.1,8.2,3.4c1.8,2.2,2.7,5.8,2.7,10.7v8.6c0,1.8,0,3.9,0,6.1c0,2.3,0,4.4,0.1,6.4l4.9,1v3.3
		h-19.5v-3.3l5-1c0.1-2,0.1-4.1,0.1-6.4c0-2.3,0-4.3,0-6.1v-7.4c0-3.4-0.4-5.6-1.3-6.8c-0.9-1.2-2.3-1.8-4.4-1.8
		c-2.8,0-5.8,1.4-8.8,4.1c0.1,0.5,0.1,1.1,0.1,1.7c0,0.6,0,1.2,0,1.8v8.3c0,1.8,0,3.9,0,6.1c0,2.3,0,4.4,0.1,6.4l4.8,1v3.3h-19.6
		v-3.3l5.1-1c0.1-2,0.1-4.1,0.1-6.4c0-2.3,0-4.3,0-6.1v-7.2c0-3.3-0.4-5.5-1.2-6.8c-0.8-1.3-2.3-1.9-4.4-1.9c-1.5,0-3,0.4-4.4,1.1
		c-1.5,0.7-2.9,1.7-4.3,2.9v11.9c0,1.8,0,3.8,0,6.1c0,2.3,0,4.5,0.1,6.5l4.7,1v3.3H298z"/>
	<path class="st4" d="M389.5,894.6c-3.7,0-7-0.8-9.8-2.4c-2.8-1.6-5-3.9-6.6-6.9c-1.6-3-2.4-6.6-2.4-10.8c0-4.3,0.9-7.9,2.8-11
		c1.8-3.1,4.2-5.4,7.2-7c3-1.6,6.1-2.4,9.5-2.4c3.1,0,5.9,0.7,8.2,2c2.3,1.3,4.2,3.2,5.5,5.6c1.3,2.4,2,5.2,2,8.5
		c0,1.7-0.2,3.2-0.5,4.4h-24.5c0.2,4.6,1.4,8,3.6,10.3c2.2,2.3,5,3.4,8.4,3.4c2.3,0,4.3-0.5,6-1.4c1.6-0.9,3.1-2.1,4.4-3.6l2.3,2.1
		c-1.5,2.9-3.7,5.2-6.4,6.8C396.4,893.7,393.2,894.6,389.5,894.6z M389.5,857.8c-1.3,0-2.5,0.4-3.8,1.2c-1.3,0.8-2.3,2.2-3.2,4
		c-0.9,1.9-1.4,4.4-1.6,7.6h11c1.9,0,3.2-0.4,3.8-1.2s1-1.9,1-3.4c0-2.5-0.7-4.5-2.1-6C393.1,858.6,391.5,857.8,389.5,857.8z"/>
	<path class="st4" d="M411.6,893.4v-3.3l5.1-1c0.1-2,0.1-4.2,0.1-6.5c0-2.3,0-4.3,0-6v-4.2c0-2.2,0-3.9,0-5.2c0-1.3-0.1-2.8-0.2-4.4
		l-5.6-0.7v-3l13.4-5l1.3,0.8l0.8,9.4c1.2-3.3,2.9-5.8,5-7.6s4.2-2.6,6.2-2.6c1.4,0,2.8,0.4,4,1.1c1.2,0.7,2,1.8,2.4,3.2
		c-0.1,2-0.5,3.5-1.4,4.6c-0.9,1.1-2.2,1.6-3.8,1.6c-1.9,0-3.7-1-5.4-2.9l-0.7-0.8c-2.8,2.3-4.9,5.7-6.1,9.9v5.8c0,1.7,0,3.6,0,5.9
		c0,2.3,0,4.4,0.1,6.4l6.6,1.3v3.3H411.6z"/>
	<path class="st4" d="M446.8,893.4v-3.3l5.3-1c0.1-2,0.1-4.1,0.1-6.4c0-2.3,0-4.3,0-6v-3.8c0-2.2,0-4,0-5.5c0-1.5-0.1-3-0.2-4.6
		l-5.7-0.7v-3l14.4-5l1.3,0.8l-0.2,11.3v10.6c0,1.7,0,3.7,0,6c0,2.3,0,4.5,0.1,6.5l4.9,1v3.3H446.8z M456.9,846.6
		c-1.7,0-3.1-0.5-4.3-1.6c-1.2-1.1-1.8-2.4-1.8-4.1c0-1.7,0.6-3.1,1.8-4.2c1.2-1.1,2.6-1.6,4.3-1.6c1.7,0,3.1,0.5,4.3,1.6
		c1.1,1.1,1.7,2.5,1.7,4.2c0,1.7-0.6,3-1.7,4.1C460,846,458.6,846.6,456.9,846.6z"/>
	<path class="st4" d="M490.6,894.6c-3.6,0-6.9-0.8-9.8-2.4s-5.1-3.9-6.8-6.9c-1.6-3-2.4-6.7-2.4-10.9c0-4.3,0.9-8,2.8-11
		s4.3-5.4,7.3-7s6.3-2.4,9.9-2.4c2.6,0,5,0.5,7.1,1.5c2.1,1,3.8,2.3,5.1,4c1.3,1.7,2.1,3.5,2.4,5.6c-0.6,2.3-2.2,3.5-4.6,3.5
		c-3,0-4.7-1.9-5.2-5.6l-1-4.8c-0.5-0.1-1-0.2-1.4-0.2c-0.5-0.1-1-0.1-1.4-0.1c-1.9,0-3.7,0.5-5.3,1.6c-1.6,1.1-2.9,2.8-4,5.1
		c-1,2.3-1.5,5.2-1.5,8.7c0,4.9,1.1,8.6,3.3,11.1c2.2,2.6,5.1,3.8,8.7,3.8c2.1,0,4.1-0.5,5.8-1.4c1.7-1,3.1-2.3,4.3-3.9l2.4,1.8
		c-1.3,3.3-3.3,5.7-6,7.4C497.6,893.7,494.4,894.6,490.6,894.6z"/>
	<path class="st4" d="M541.7,894.4c-2.1,0-3.9-0.5-5.2-1.6c-1.3-1.1-2.2-2.5-2.7-4.4c-2,2-3.8,3.6-5.4,4.6s-3.7,1.6-6.2,1.6
		c-3,0-5.5-0.9-7.6-2.6c-2.1-1.7-3.1-4.2-3.1-7.5c0-1.7,0.4-3.3,1.2-4.8c0.8-1.5,2.2-2.8,4.3-4.1c2.1-1.3,5-2.5,8.8-3.8
		c1.1-0.4,2.3-0.7,3.6-1.1c1.3-0.4,2.7-0.7,4.1-1.1v-2.2c0-3.7-0.5-6.3-1.6-7.6c-1-1.3-2.9-2-5.5-2c-0.5,0-1,0-1.6,0.1
		c-0.6,0.1-1.1,0.1-1.7,0.2l-1,4.4c-0.2,1.9-0.8,3.3-1.7,4.2c-0.9,0.9-2,1.4-3.4,1.4c-2.6,0-4.1-1.2-4.5-3.6
		c0.5-3.2,2.2-5.8,5.2-7.7c3-1.9,6.9-2.9,11.7-2.9c4.6,0,8,1.1,10.2,3.3c2.1,2.2,3.2,5.9,3.2,11.2v17.4c0,2.4,0.8,3.6,2.3,3.6
		c1,0,1.9-0.6,2.8-1.8l1.8,1.6c-1,1.8-2.1,3.1-3.4,3.9C545.2,894,543.6,894.4,541.7,894.4z M520.9,882.8c0,2.1,0.5,3.6,1.6,4.5
		c1.1,0.9,2.4,1.4,4,1.4c0.9,0,1.8-0.2,2.7-0.6c0.9-0.4,2.3-1.3,4.2-2.6v-12.6c-1.1,0.4-2.2,0.7-3.2,1c-1,0.3-1.8,0.6-2.5,0.9
		c-2.7,1.1-4.5,2.3-5.5,3.7C521.4,879.8,520.9,881.2,520.9,882.8z"/>
	<path class="st4" d="M571.2,844.2v-3.8h24.4v3.8l-7,0.8c-0.1,3.3-0.1,6.7-0.1,10c0,3.4,0,6.8,0,10.2v4.9c0,2.8,0,5.9,0,9.1
		c0,3.3,0.1,6.6,0.1,9.9h16.2l2.2-11h5.6l-0.8,15.4h-40.6v-3.8l6.7-0.7c0.1-3.4,0.2-6.7,0.2-10c0-3.3,0-6.4,0-9.5v-4.3
		c0-3.5,0-6.9,0-10.3s-0.1-6.7-0.2-10L571.2,844.2z"/>
	<path class="st4" d="M648.4,894.4c-2.1,0-3.9-0.5-5.2-1.6c-1.3-1.1-2.2-2.5-2.7-4.4c-2,2-3.8,3.6-5.4,4.6c-1.6,1-3.7,1.6-6.2,1.6
		c-3,0-5.5-0.9-7.6-2.6c-2.1-1.7-3.1-4.2-3.1-7.5c0-1.7,0.4-3.3,1.2-4.8s2.2-2.8,4.3-4.1c2.1-1.3,5-2.5,8.8-3.8
		c1.1-0.4,2.3-0.7,3.6-1.1s2.7-0.7,4.1-1.1v-2.2c0-3.7-0.5-6.3-1.6-7.6c-1-1.3-2.9-2-5.5-2c-0.5,0-1,0-1.6,0.1
		c-0.6,0.1-1.1,0.1-1.7,0.2l-1,4.4c-0.2,1.9-0.8,3.3-1.7,4.2c-0.9,0.9-2,1.4-3.4,1.4c-2.6,0-4.1-1.2-4.5-3.6
		c0.5-3.2,2.2-5.8,5.2-7.7c3-1.9,6.9-2.9,11.7-2.9c4.6,0,8,1.1,10.2,3.3c2.1,2.2,3.2,5.9,3.2,11.2v17.4c0,2.4,0.8,3.6,2.3,3.6
		c1,0,1.9-0.6,2.8-1.8l1.8,1.6c-1,1.8-2.1,3.1-3.4,3.9C651.9,894,650.3,894.4,648.4,894.4z M627.6,882.8c0,2.1,0.5,3.6,1.6,4.5
		c1.1,0.9,2.4,1.4,4,1.4c0.9,0,1.8-0.2,2.7-0.6c0.9-0.4,2.3-1.3,4.2-2.6v-12.6c-1.1,0.4-2.2,0.7-3.2,1c-1,0.3-1.8,0.6-2.5,0.9
		c-2.7,1.1-4.5,2.3-5.5,3.7C628,879.8,627.6,881.2,627.6,882.8z"/>
	<path class="st4" d="M673.6,894.6c-3.2,0-5.7-0.8-7.5-2.4c-1.8-1.6-2.7-4.2-2.7-7.7c0-1.2,0-2.4,0-3.5c0-1.1,0-2.4,0-4v-17h-5.9
		v-4.2l6.5-0.8l3-11h6.5l-0.3,11h9.6v4.9h-9.7v23.6c0,2,0.4,3.4,1.2,4.3c0.8,0.9,1.8,1.4,3.1,1.4c1.4,0,3.1-0.7,4.9-2l1.9,2
		c-1,1.7-2.4,2.9-4.2,3.9S676.1,894.6,673.6,894.6z"/>
	<path class="st4" d="M686.6,893.4v-3.3l5.3-1c0.1-2,0.1-4.1,0.1-6.4c0-2.3,0-4.3,0-6v-3.8c0-2.2,0-4,0-5.5c0-1.5-0.1-3-0.2-4.6
		l-5.7-0.7v-3l14.4-5l1.3,0.8l-0.2,11.3v10.6c0,1.7,0,3.7,0,6c0,2.3,0,4.5,0.1,6.5l4.9,1v3.3H686.6z M696.7,846.6
		c-1.7,0-3.1-0.5-4.3-1.6c-1.2-1.1-1.8-2.4-1.8-4.1c0-1.7,0.6-3.1,1.8-4.2c1.2-1.1,2.6-1.6,4.3-1.6c1.7,0,3.1,0.5,4.3,1.6
		c1.1,1.1,1.7,2.5,1.7,4.2c0,1.7-0.6,3-1.7,4.1C699.8,846,698.4,846.6,696.7,846.6z"/>
	<path class="st4" d="M711.3,893.4v-3.3l5.2-1c0.1-2,0.1-4.1,0.1-6.4c0-2.3,0-4.3,0-6v-4.2c0-2.2,0-3.9,0-5.2c0-1.3-0.1-2.8-0.2-4.4
		l-5.6-0.7v-3l13.4-5l1.3,0.8l0.6,6.2c4.1-4.6,8.6-7,13.6-7c3.5,0,6.1,1.1,8,3.4c1.9,2.3,2.8,5.9,2.8,10.9v8.3c0,1.8,0,3.9,0,6.2
		s0,4.4,0.1,6.4l4.9,1v3.3h-19.8v-3.3l5.1-1c0.1-2,0.1-4.1,0.1-6.4c0-2.3,0-4.3,0-6.1V869c0-3.1-0.4-5.3-1.3-6.5
		c-0.9-1.2-2.3-1.8-4.3-1.8c-2.8,0-5.8,1.3-9,3.9v12c0,1.8,0,3.8,0,6.1c0,2.3,0,4.5,0.1,6.5l4.7,1v3.3H711.3z"/>
	<path class="st4" d="M790.4,894.4c-2.1,0-3.9-0.5-5.2-1.6c-1.3-1.1-2.2-2.5-2.7-4.4c-2,2-3.8,3.6-5.4,4.6c-1.6,1-3.7,1.6-6.2,1.6
		c-3,0-5.5-0.9-7.6-2.6c-2.1-1.7-3.1-4.2-3.1-7.5c0-1.7,0.4-3.3,1.2-4.8s2.2-2.8,4.3-4.1c2.1-1.3,5-2.5,8.8-3.8
		c1.1-0.4,2.3-0.7,3.6-1.1s2.7-0.7,4.1-1.1v-2.2c0-3.7-0.5-6.3-1.6-7.6c-1-1.3-2.9-2-5.5-2c-0.5,0-1,0-1.6,0.1
		c-0.6,0.1-1.1,0.1-1.7,0.2l-1,4.4c-0.2,1.9-0.8,3.3-1.7,4.2c-0.9,0.9-2,1.4-3.4,1.4c-2.6,0-4.1-1.2-4.5-3.6
		c0.5-3.2,2.2-5.8,5.2-7.7c3-1.9,6.9-2.9,11.7-2.9c4.6,0,8,1.1,10.2,3.3c2.1,2.2,3.2,5.9,3.2,11.2v17.4c0,2.4,0.8,3.6,2.3,3.6
		c1,0,1.9-0.6,2.8-1.8l1.8,1.6c-1,1.8-2.1,3.1-3.4,3.9C793.9,894,792.3,894.4,790.4,894.4z M769.6,882.8c0,2.1,0.5,3.6,1.6,4.5
		c1.1,0.9,2.4,1.4,4,1.4c0.9,0,1.8-0.2,2.7-0.6c0.9-0.4,2.3-1.3,4.2-2.6v-12.6c-1.1,0.4-2.2,0.7-3.2,1c-1,0.3-1.8,0.6-2.5,0.9
		c-2.7,1.1-4.5,2.3-5.5,3.7C770,879.8,769.6,881.2,769.6,882.8z"/>
	<path class="st4" d="M810.8,894.6c-1.8,0-3.3-0.6-4.6-1.9c-1.2-1.3-1.8-2.7-1.8-4.4c0-1.8,0.6-3.4,1.8-4.6c1.2-1.3,2.7-1.9,4.6-1.9
		c1.8,0,3.3,0.6,4.6,1.9c1.2,1.3,1.8,2.8,1.8,4.6c0,1.7-0.6,3.2-1.8,4.4C814.1,893.9,812.6,894.6,810.8,894.6z"/>
</g>
</svg>
