<?xml version="1.0" encoding="utf-8"?>
<!-- Generator: Adobe Illustrator 25.3.1, SVG Export Plug-In . SVG Version: 6.00 Build 0)  -->
<svg version="1.1" id="Capa_1" xmlns="http://www.w3.org/2000/svg" xmlns:xlink="http://www.w3.org/1999/xlink" x="0px" y="0px"
	 viewBox="0 0 850.4 645" style="enable-background:new 0 0 850.4 645;" xml:space="preserve">
<style type="text/css">
	.st0{fill:#0136F5;}
	.st1{fill:#E95846;}
	.st2{fill:#FFFFFF;}
</style>
<path class="st0" d="M371.3,560.1l-3.6-3c-0.4,0.4-1,1-1.6,1.5c-1.8-0.6-3.3-1-4.8-1.4c-1.4-0.4-4-1.3-4.3-0.7
	c-1.9,2.8-2.9-0.4-4.3-0.4c-7-0.3-13.9-0.5-20.6-3c-1.6-0.7-4,1-7.1,1.8c-0.1-0.1-1.1-0.7-2-1.2c-0.6,0.5-1.1,1.2-1.8,1.9
	c-0.5-1.2-1-2.1-1.5-3.3c-1.4-0.1-2.8-0.1-4.2-0.1c-0.5-1.1-1-2-1.8-3.6c-3.2,0.7-6.5,1.5-9.9,2.1c-0.8,0.2-1.8-0.7-2.6-0.6
	c-8.3,0.3-15.2-5.3-23.5-5.4c-1.4,0-2.7-2.4-5-4.6c-8.8,0.4-17.4-2.5-21.7-13.1c-0.6,0.8-1,1.3-1.7,2.3c-2-1.3-4-2.6-6.9-4.4
	c-6.8,0.8-12.7-4.6-19.8-7.4c-0.1,0.9-0.3,1.7-0.5,2.9c-1.7,0.8-3.8,1.5-6.2,2.5c-0.2-0.5-0.6-1.4-1.1-2.7c-1.4-0.1-3-0.2-4.5-0.3
	c-0.4-1-0.7-1.8-1-2.8l-4.2,0.4c-0.5-1.3-1-2.2-1.6-3.6c-4.7,1.4-7-2.9-9.8-4.8l-3.7,0.3c-4.7-6.3-14.2-5.7-19-12.7l-3.8,0.3
	c-1.9-1.8-3.8-3.9-6.5-6.9c-1.7-0.4-4.7-0.9-8.4-1.6c-1.4-5.6-8.6-4.2-12.2-8.2l-0.3-3.8c-2.5-0.8-5.6-0.1-7.7-2.7
	c-1.4-1.9-3.2-3.3-5.6-5.9c0,0-0.3-1.4-0.5-2.9c-5-2.8-9.9-5.6-14.9-8.4l-0.7-8.5l-6.8,0.6c-4.5-6.1-9.2-12.2-14.5-19.3l-0.3-3.8
	c-6.6-1.7-6-7.3-6.4-11.3c-1.9-3-3.1-5-4.2-6.7c0.5-3.9,0.8-7.1,1.4-11.9c-1.8,1.6-2.2,2.1-3.1,2.9c-1.3-1.6-2.7-3.2-3.9-4.7
	c1.1-0.3,2.7-0.6,5.9-1.4c-2.6-0.6-3.5-0.8-4.8-1.2l-0.3-4c-3.6-0.1-4.5-3.1-6.1-5.2c-0.5-0.6,0.3-2,0.8-4.1
	c-1.4-2.2-6.4-1.7-6.6-6.7c0.1-0.1,0.6-1.1,1.1-1.9c-3.4-3.1-3.4-3.1-7.3-3.7c-0.7-5-1.6-9.9-2.4-15.2c0,0,0.8-0.3,1.8-0.6
	c-0.5-1.6-1-3.3-1.5-5c-0.5-1.6-1.1-3.1-1.7-4.9c0.5-0.2,1.6-0.6,2.5-1.1c0.2-0.5,0.3-1,0.4-1.6c0.4-2.7-1.8-4.8-2.2-7.1
	c-0.4-2.4,0.7-4.9,1-7.4c0.6-4.5-3.6-6.8-4.5-10.6c-0.8-3.3,4.5-5.8,1.3-9.4c1-0.5,1.9-1,3-1.6c-1.1-4.6-2.2-9.3-3.3-13.7
	c5.9-6.4,4.1-14.9,7.6-21.6c-1.3-2.6-4.3-5.2-0.7-8.3c-1.2-0.9-2.3-1.9-4-3.3c1.1-0.6,1.7-1,3.1-1.7c1.4-3.9,3.1-8.6,4.7-13.3
	c-3.9-2.7,3-6.5-1.1-8.4c-2.9-2.4-5.6-4.5-8.9-7.2c0.7-4.2-3.4-6.9-5.7-10.8c-0.5-0.9-2-1.7-2.9-1.7c-4,0.5-6-2-7.5-4.8
	c-1.3-2.3-2.5-3.9-4.3-3.4c-2.8-3.4-4.9-6.3-7.4-8.9c-4.7-4.7-10.2-8.9-14.3-14c-3-3.9-6.8-7.3-8-12.6c-0.5-2.1-2.4-3.7-3.9-5.7
	c-1.6-0.2-3.3-0.3-4.9-0.5c-0.9-1.4-1.8-2.9-2.9-4.9c0.9-2.1,2.1-4.6,3.4-7.4c6.6-1,13,0.9,19,2.6c3.5,1,5.2,0,7.7-1.5
	c1.2,0.5,2.5,1.6,3.7,1.5c7.2-1,13.9,2.5,21,2.2c1.6,0,3.3,1.2,4.8,0.9c3.3-0.6,6.2,0.4,9.2,1.1c5.4,1.4,11.1,1.4,16.6,2.2
	c10,1.3,20.2,0.6,29.9,3.8c6.6,2.2,10.2-3.1,14.7-6.1l7-4.4c0.2-0.5,0.2-1.1,0.4-1.6c0.1-0.3,0-0.6,0.2-1.6c2,0.1,4,0.3,6.6,0.4
	c-0.3-0.8-0.7-2.1-1.4-4.1c4-1.3,8.4-2.6,13.3-4.1c0.1-0.3,0.1-1.1,0.3-2.5c2-0.4,4.2-0.7,6.2-1c0.5-1.4,0.8-2.6,1.5-4.6
	c2.2,2.6,3.8,4.4,5.7,6.5c0.3-5.8,4.9-6.8,8.5-8.9c0.3-1,0.5-2.2,0.8-3.1c1.4,0.6,2.6,1.2,4.1,1.9c0.4-1.5,0.7-2.7,0.9-3.7
	c6.3,2.7,11.1-0.8,16.5-3.2c2.3,1.7,5,1.6,7.5,0c3.1-1.9,6.2-2.2,9.7-0.7c1.5,0.6,3.6,0.5,5.1,0.1c3.9-1.2,7.9,1.2,11.8-0.5
	c2.5,3.1,3.9-0.5,6-0.9c2,0.8,4.2,1.8,6.6,2.9c0.3-1,0.5-2.1,1-4.1c0.7,1.4,1.1,2.2,1.6,3.5c2.4,1.6,4.4,0.3,5.7-1.7
	c4.7,0.9,9,1.1,12.9,2.6c4.4,1.6,8.5,0.6,12.8,0.6c0.5,1.1,1,2,1.6,3.6c1.8-0.7,3.8-1.3,5.8-1.9c0.4,0.9,0.9,1.8,1.4,3
	c0.7-0.8,1.3-1.4,1.8-2c0.6,0.5,1.4,1.1,2.5,1.9c1-0.8,2.1-1.6,3.7-2.8c3.1,2.7,6.5,2.4,9.2-1c1.5,2,2.6,3.6,4,5.3l6.2-0.5
	c1.4,1.7,2.5,3.2,4.1,5.4c8.6-1.6,16.9,2.3,26,6.3c-0.1-0.3,0.4,0.7,1,2.3c1.2-0.5,2.3-1,3.3-1.4c2.4,2,5,4.2,6.4,5.5
	c7,0,11.6,0.9,16.3,3.8c3.8,2.5,8.1,4.9,13.2,4.8c1.8-0.1,3.7,0.9,5.5,1.4c1.6,0.5,3.3,1.3,4.8,1.1c4.5-0.8,8.3,0.8,12.1,2.7
	c4.4-2,8.6-4.1,13.4-5c6.2-1.2,12.1-4.3,18.3-5.8c7.4-1.8,13.1-7.8,20.9-8.1c3.3-5.3,10.6-3.5,14.2-8.3c0.9,0.5,1.8,1.1,3.8,2.4
	c0.6-1.9,1.3-3.5,1.2-3.4c5.3-2.1,8.9-3.6,12.5-5c2.5-1.9,6.3,0,8.4-3.3c1.8,0.7,3.6,1.6,5.4,2.4c2.5-1.7,5.1-2.4,8.3-1.2
	c1.8,0.7,4.2,1,5.8,0.3c1.7-0.8,3.9-3,5.3-1.9c1.9,1.6,3.7-0.8,4.5,0.2c1.7,2,3.4-2.8,4.6,0.4c4.8-1.2,9.6-2.4,15-3.9
	c0.3,0.3,1.4,1.3,2.7,2.6c2.7-0.2,5.6-0.9,8.6-0.6c12,0.9,24.2-0.7,36.2,3.2c4.6,1.5,9.9,1.6,14.5,3.2c1.3,0.5,2.8,0.6,3.9,1.2
	c6.5,3.2,14,2.9,20.7,5.4c2.2,0.8,5.3-1.1,9.2-1.9c2.5,0.7,5.9,5.2,10.6,0.1c1.9,2.6,3.9,5.3,6.5,8.8c2.1-0.6,5.2-1.5,8.5-2.3
	l0.8,8.7c1.5-0.9,2.6-1.5,4.1-2.5c2,1.6,4.2,3.4,6.5,5.3l0.5-0.9c3.5,1.6,6.9,3.3,10.5,5c0.7-0.6,1.4-1.3,2.7-2.5
	c1.2,1.7,2,3,2.9,4.3c1,1.3,2.2,2.5,4,4.6c2,0.8,5,2.1,8.3,3.6c-0.7,1.1-1.2,1.7-1.7,2.5c3.1,0.8,6.1,1.7,8.8,2.3
	c0.4,1.3,0.6,2.1,0.9,2.9c2.2-0.1,4.2-0.2,7.1-0.3c-0.7,2.4-1.1,4.4-2.2,8.1c2-1.8,2.6-2.3,3-2.8c3.8,1.1,4.2,6,8.6,6.6
	c0.3,1.9,0.5,3.9,0.8,5.5c4.4,3.3,9.3,5.5,10.1,11.8c0.2,1.3,2.9,2.3,5.6,4.1c0.5,0.9,1.7,3.1,3,5.3c0.7-1.5,1.4-2.8,2.4-5
	c3.1,3.5,4.7,6.6,4.5,11c1,0.2,2,0.4,3.5,0.6l0.3,3.6c3.1,5.3,5.4,9.4,7.8,13.2c0.9,0.1,1.7,0.3,2.8,0.4c-0.6,1-1.1,1.6-2,2.8
	c1.8,0.1,3.4,0.2,5.3,0.3l0.8,9.6c1.3,0.3,2.4,0.6,3.7,0.9l0.5,6.1c1.1,0.5,2.8,1.2,4,1.7l0.6,6.7l4.1,3.5l0.6,7.4
	c1.1,0.2,1.9,0.3,3.2,0.5l0.9,10.2c3.6,5.3,6.5,9.6,9.6,14.1c-1.8,1.7-3.1,2.9-3.9,3.7c0,5.2,1.5,9.7-0.5,14.4
	c-0.8,1.9-0.5,5.3,0.6,6.9c1.6,2.3,0.3,3.9,0.4,5.8c0.2,1.8,1.7,3.5,2,5.3c0.2,1.4-1.2,3.6-0.6,4.4c1.5,1.7,0.6,2.8,0.4,4.5
	c-0.5,4.7,0.1,9.3,0.3,15.1c-1.4,1-3.6,2.6-4.2,3.1c-0.4,13.7-0.1,25.3-4.8,36.5c1.4,0.7,2.7,1.3,4.8,2.2c-7.9,6.4-7.3,16.7-13,24
	l0.4,4.8c-1.8,1.6-3.9,2.7-4.9,4.5s-0.3,4.7-1.5,6.3c-2.6,3.6-5.8,6.7-9.4,10.7l0.3,3.5c-1.3,0.5-2.2,1-3.7,1.6
	c0,1.2,0.1,2.7,0.1,4.7c-1.3,0.2-2.7,0.4-4.7,0.7c-0.9,5.2-6.6,7-9.1,11.3c-2.6,4.5-9,5.6-9.7,11.5l-12.6,8c0.7,0.2,1.8,0.7,4,1.5
	c-3.1,0.6-5.1,1-7.5,1.5c-0.1,0.7-0.3,1.5-0.4,2.4c-5.7,3.4-5.7,3.4-11.6,1.8c-0.9,1.9-2,3.8-3.2,6c-1.8-0.7-3.6-1.3-5.7-2
	c-8.8,8.1-21,9.8-30.9,17.6l-7,0.6c-0.2,1.1-0.2,1.9-0.4,3.2c-2.7,0.4-5.4,1.7-8.2-0.9c-0.9,1.7-1.8,3.5-2.8,5.3
	c-3.4,1.1-7.1,2.2-10.8,3.3c-0.7-1.4-1.1-2.4-1.6-3.5c-3.1,2.2-6,3.8-9.8,4.6c-5.4,1-10.6,3.3-16,5.2c1.1,1,1.7,1.6,2.4,2.2
	c-1.4,0.9-2.9,1.9-4.3,2.7c-4.4-4.9-9.3,5.2-14-0.2c-1,2.2-5.3,1-4.5,4.9c-0.4,0.1-1.1,0.5-1.2,0.3c-1.8-2-4-1.2-5.8-0.6
	c-3.1,0.9-6,3-9.2,3.7c-3.6,0.7-7.4,0.4-11.5,0.6c-0.2,0.4-0.7,1.7-1.2,3.3c-1.4-0.6-2.6-1.2-4.1-1.9c-2.5,1.1-5.3,2.4-8.2,3.7
	c-5.9-2-12.2,0-18.4,0.6c-4,0.4-7.8,2.5-12.1,4c-0.1-0.1-0.7-0.5-1.4-1.1c-0.6,0.7-1.3,1.3-2,2.1c-1.2-0.5-2.4-0.9-3.8-1.5
	c-0.1,0.9-0.3,1.7-0.3,2.6c-0.4,0.2-0.8,0.9-1.2,0.8c-3.9-0.2-7.9-0.4-11.9-0.8c-1.5-0.1-3.8-1.2-4.3-0.6c-1.7,2.1-2.4-0.3-3.5-0.6
	c-1.9-0.6-2,2.7-4.3,1.4c-1.2-0.6-4.1-0.2-4.8,0.3c-2.2,2.1-3.4-2.2-5.3-0.4c-2.5,2.5-5.5,0.3-8.3,0.6c-1.2,0.1-2.6-1.3-3.8-1.2
	c-1.8,0.1-3.6,0.8-6.1,1.4c-0.4-0.1-1.8-0.7-3.1-0.7c-2.8-0.3-5.2,2-8.4,0.9c-2.5-0.9-5.4,0-8.3-1s-6.4,0.3-10.2,0.6
	c-0.4-0.9-0.8-1.8-1.2-3.1c-2.3,1.2-4.6,3.2-7.3,0.6c-2.4,2.2-5.5-1.4-7.1,0.3c-2.8,2.9-5.3-1.6-7.6,0.6c-0.7-1.1-1.4-2.4-2.2-3.8
	c-1.5,0.9-3,1.8-4.8,2.9c-1.5-1.7-2.8-3.3-4.5-5.2c-3.4-0.4-7.6,1.8-11.4-1C381.4,560.5,376.4,558.8,371.3,560.1L371.3,560.1z"/>
<path class="st1" d="M153,212.4c0.6-0.4,1.2-0.4,1.8-0.4c0.5,0,0.9,0.2,1.3,0.4s0.7,0,1,0.2s0.6,0.3,0.9,0.2c0.3,0,0.5,0.1,0.8,0.1
	c0.3,0.1,0.6,0.2,0.9,0.2c0.1,0,0.2,0.1,0.4,0.1c0.4,0.1,0.7,0.3,1.1,0.2c0.1,0,0.2,0.1,0.3,0.1c0.4,0.1,0.7,0.3,1.1,0.2
	c0.2,0,0.3,0,0.5,0.1c0.3,0.1,0.7,0.3,1,0.2c0.1,0,0.2,0.1,0.4,0.1c0.4,0.1,0.7,0.3,1.1,0.2c0.1,0,0.2,0.1,0.3,0.1
	c0.4,0.1,0.7,0.3,1.1,0.2c0.2,0,0.5,0.1,0.8,0.1c0-0.2,0-0.3-0.1-0.4l-1.5-3c-0.6-1.1-1.1-2.1-1.8-3.2c-0.5-0.8-0.8-1.7-1.3-2.6
	c-0.4-0.7-0.8-1.4-1.2-2.2c-0.4-1-1.1-1.9-1.5-3.2c0-0.3,0.1-0.8,0.1-1.3c1-1,1.5-1.2,2.5-1.2c0.3,0.2,0.5,0.3,0.8,0.4v0.1
	c0.4,0.4,0.6,0.9,0.9,1.4c0.7,1.2,1.3,2.3,1.9,3.5c0.3,0.6,0.5,1.2,0.8,1.7c0.3,0.6,0.6,1.1,0.9,1.7c0.4,0.7,0.7,1.5,1.2,2.1
	c0.1,0.2,0.1,0.4,0.2,0.5c0.6,0.9,1,1.8,1.5,2.7c0.4,0.7,0.7,1.4,1,2.1c0.2,0.5,0.5,1,0.8,1.6c0.1-0.3,0.3-0.6,0.3-0.8
	c0-0.4,0.2-0.8,0.3-1.1c0.1-0.4,0.2-0.7,0.4-1s0.3-0.7,0.3-1.1c0.1-0.4,0.2-0.7,0.4-1s0.3-0.8,0.4-1.2c0.1-0.4,0.3-0.9,0.4-1.3h0.2
	c0.2-0.5,0.3-1,0.4-1.5c0.1-0.3,0.2-0.6,0.3-0.8s0.3-0.4,0.4-0.7c0.1-0.5,0.3-0.9,0.4-1.3c0.1-0.4,0.4-0.7,0.5-1.1
	c0.1-0.4,0.2-0.7,0.4-1.1c0.1-0.4,0.4-0.6,0.8-0.8c0.2-0.1,0.3-0.2,0.7-0.4c0.4,0,1,0.1,1.6,0.1c0.2,0.3,0.5,0.6,0.8,0.9
	c0.2,0.3-0.1,0.7,0.2,1c-0.1,0.5-0.3,1-0.4,1.4c-0.2,0.6-0.4,1.2-0.6,1.7c-0.2,0.4-0.3,0.8-0.4,1.3c-0.1,0.3-0.2,0.5-0.2,0.8
	c-0.1,0.2-0.4,0.3-0.3,0.7c-0.3,0.7-0.5,1.4-0.7,2.2h-0.2c-0.1,0.5-0.2,1-0.4,1.4c-0.1,0.4-0.2,0.8-0.5,1.2
	c-0.2,0.3-0.2,0.8-0.3,1.1c-0.2,0.5-0.5,1.1-0.7,1.6c-0.1,0.3-0.2,0.6-0.3,1c0.7,0,1.2-0.6,1.9-0.5c0.1-0.1,0.2-0.2,0.2-0.3
	c0.4-0.1,0.8-0.1,1-0.2c0.6-0.4,1.3-0.6,2-0.8c0.5-0.2,1.1-0.4,1.7-0.6c0.5-0.2,1.1-0.3,1.6-0.6l1.5-0.6c0.2-0.1,0.4-0.2,0.7-0.3
	c0.6-0.1,1.2-0.4,1.7-0.6c0.9-0.4,1.8-0.7,2.8-1c0.4-0.1,0.8-0.4,1.3-0.3c0.3,0.1,0.5,0.1,0.8,0.2l0.7,0.7c0.1,0.4,0.1,0.7,0.2,1
	v1.1c-0.1,0-0.2,0.1-0.2,0.2c-0.2,0.8-0.9,1-1.5,1.3c-0.5,0.2-1,0.4-1.6,0.6c-0.7,0.3-1.4,0.5-2.1,0.8c-0.7,0.2-1.4,0.4-2,0.7
	c-0.8,0.4-1.7,0.6-2.5,0.9c-0.2,0.1-0.4,0.1-0.7,0.3c0.5,0.1,0.8,0.3,1.2,0.2c0.1,0,0.2,0.1,0.3,0.1c0.3,0,0.7,0.2,1,0.2
	c0.2,0,0.3,0.1,0.5,0.1c0.7,0.2,1.4,0.1,2,0.5c1-0.1,1.8,0.5,2.7,0.5c0.6,0.4,1.5,0.2,2.1,0.6c0.2,0.1,0.5,0,0.8,0
	c0.3,0.3,0.6,0.5,0.9,0.7c0.2,0.2,0.3,0.4,0.3,0.7c0.1,0.4,0,0.7,0,1c-0.2,0.5-0.4,0.9-0.6,1.2c-0.2,0.4-0.7,0.5-1.1,0.7H194
	c-0.3,0-0.5-0.1-0.8-0.1c-0.3-0.1-0.6-0.2-0.9-0.2c-0.1,0-0.3-0.1-0.4-0.1c-0.4,0-0.7-0.3-1-0.2c-0.1,0-0.2-0.1-0.4-0.1
	c-0.4-0.1-0.7-0.3-1.1-0.2c-0.5,0.1-0.9-0.2-1.3-0.3c-0.6-0.2-1.2-0.2-1.8-0.4c-0.3-0.1-0.7-0.1-1-0.2c-0.6-0.2-1.3-0.1-1.8-0.5
	c-0.7,0.1-1.3-0.4-2-0.3c-0.2,0-0.4-0.1-0.6-0.2c-0.6-0.2-1.3-0.1-1.8-0.5c-0.9,0.1-1.7-0.6-2.6-0.3c0,0.1,0,0.3,0.1,0.4
	c0.5,1.1,1,2.3,1.6,3.4c0.5,0.9,1,1.7,1.4,2.6c0.9,1.6,1.7,3.2,2.5,4.9l0.6,1.5c0.4,0.7,0.8,1.4,1.2,2c0.3,0.5,0.5,1,0.7,1.5
	c0.1,0.4-0.1,0.8-0.1,1.1c-0.2,0.3-0.6,0.5-0.8,0.9c-1,0.5-1.4,0.4-2.7,0.1c-0.4-0.8-0.9-1.5-1.3-2.3c-0.5-0.8-0.9-1.7-1.3-2.6
	c-0.4-0.8-0.9-1.7-1.4-2.5c-0.3-0.5-0.4-1.1-0.7-1.5c-0.5-0.9-1-1.9-1.6-2.8c-0.3-0.5-0.5-1.1-0.8-1.6c-0.2-0.2-0.1-0.5-0.2-0.8
	c-0.4,0.4-0.2,0.9-0.5,1.3h-0.1l-0.1,0.1c0,0.5-0.3,0.9-0.4,1.4c-0.1,0.3-0.1,0.6-0.3,0.8c-0.1,0.2-0.3,0.4-0.4,0.7
	c-0.1,0.4-0.3,0.8-0.4,1.2c-0.1,0.4-0.4,0.6-0.4,1c0,0.3-0.2,0.7-0.3,1c-0.1,0.2-0.1,0.4-0.1,0.4c-0.2,0.4-0.3,0.6-0.5,0.9
	c0,0-0.2,0-0.2,0.1c-0.3,0.6-0.9,0.6-1.4,0.7h-0.9c-0.1-0.1-0.3-0.2-0.4-0.3c-0.8-0.5-1.1-1.3-0.8-2.3c0-0.2,0-0.4,0.1-0.5h0.2
	c0.2-0.8,0.4-1.7,0.9-2.5c0.2-0.4,0.3-0.8,0.4-1.3c0.1-0.5,0.4-0.9,0.6-1.4c0.3-0.7,0.5-1.5,0.7-2.2h0.2c0.1-0.4,0.1-0.7,0.2-1.2
	c-0.6,0.4-1.3,0.4-1.9,0.7c-0.6,0.3-1.3,0.4-1.9,0.8c-0.4-0.2-0.7,0.3-1,0.3c-0.4,0-0.7,0.2-1.1,0.3c-0.4,0.1-0.7,0.3-1.1,0.4
	c-0.4,0.1-0.7,0.3-1.1,0.5c-0.8,0.4-1.7,0.6-2.5,0.9c-0.4,0.2-0.9,0.3-1.3,0.5s-0.8,0.4-1.3,0.5s-0.9,0.4-1.5,0.5
	c-0.6,0.2-1.1,0.4-1.7,0.1c-0.2-0.1-0.4-0.2-0.6-0.4c-0.1-0.2-0.2-0.4-0.4-0.7c-0.1-0.2,0.1-0.6-0.1-0.9c0.1-0.3,0.1-0.6,0.2-1
	c0,0,0.1,0,0.2-0.1c0.1-0.2,0-0.4,0.2-0.6c0.1-0.2,0.5-0.1,0.5-0.4c0-0.1,0.3-0.2,0.5-0.2c0.2-0.1,0.4-0.1,0.6-0.2
	c0.4-0.1,0.7-0.3,1.1-0.4c0.9-0.4,1.8-0.7,2.8-1c0.6-0.2,1.2-0.4,1.7-0.7c0.4-0.2,0.8-0.3,1.2-0.4c0.4-0.2,0.8-0.4,1.2-0.4
	c0.5,0,0.7-0.3,1.1-0.4c0.9-0.3,1.7-0.6,2.6-0.9c0.7-0.2,1.3-0.5,2-0.7c0.1,0,0.2-0.1,0.4-0.3c-0.6,0-1-0.3-1.4-0.2
	c-0.1,0-0.2-0.1-0.3-0.1c-0.4,0-0.7-0.3-1-0.2c-0.2,0-0.3-0.1-0.4-0.1l-1.5-0.3c-0.8-0.1-1.6-0.3-2.3-0.5c-0.1,0-0.2-0.1-0.3-0.1
	c-0.4,0.1-0.7-0.1-1-0.2c-0.6-0.2-1.3-0.1-1.8-0.5c-0.7,0.1-1.3-0.4-2-0.3c-0.2,0-0.4-0.1-0.6-0.2c-0.6-0.2-1.2-0.1-1.8-0.4
	c-0.3-0.2-0.7,0-1.1-0.2c-0.4-0.2-0.9-0.4-1.1-0.9c-0.2-0.5-0.2-0.8-0.1-1.4c0.1-0.6,0.4-1,0.8-1.4
	C152.9,212.5,152.9,212.4,153,212.4L153,212.4z"/>
<g>
	<path class="st2" d="M213.7,229.7l0.3-8.6h26.6l0.2,8.6h-3.2l-1-6.1h-6.2c0,2-0.1,4-0.1,6c0,2,0,4.1,0,6.1v2c0,2,0,4,0,5.9
		c0,2,0,4,0.1,5.9l4.4,0.5v2.2h-15.1v-2.2l4.4-0.5c0.1-1.9,0.1-3.9,0.1-5.9s0-4,0-6v-2c0-2,0-4,0-6c0-2,0-4-0.1-6H218l-1,6.1H213.7z
		"/>
	<path class="st2" d="M251.4,253c-2.1,0-4-0.5-5.8-1.4c-1.7-0.9-3.1-2.3-4.1-4.1c-1-1.8-1.5-3.9-1.5-6.4c0-2.5,0.5-4.7,1.6-6.4
		c1-1.8,2.4-3.1,4.2-4.1c1.7-0.9,3.6-1.4,5.6-1.4c2,0,3.9,0.5,5.6,1.4c1.7,0.9,3.1,2.3,4.2,4.1c1.1,1.8,1.6,3.9,1.6,6.5
		c0,2.5-0.5,4.6-1.5,6.4c-1,1.8-2.4,3.1-4.1,4.1C255.4,252.5,253.5,253,251.4,253z M251.4,250.7c1.7,0,3-0.8,3.9-2.4
		c0.9-1.6,1.3-4,1.3-7.2c0-6.5-1.7-9.7-5.2-9.7c-3.4,0-5.2,3.2-5.2,9.7c0,3.2,0.4,5.6,1.3,7.2C248.4,249.9,249.7,250.7,251.4,250.7z
		"/>
	<path class="st2" d="M275.9,244.4c-1.4,0-2.7-0.2-3.9-0.5c-0.6,0.8-0.9,1.7-0.9,2.6c0,0.6,0.2,1.1,0.6,1.4c0.4,0.3,1.1,0.5,2.1,0.5
		h5.9c3.1,0,5.3,0.6,6.6,1.7c1.3,1.2,2,2.7,2,4.7c0,1.5-0.5,2.9-1.4,4.1c-1,1.3-2.4,2.3-4.2,3.1c-1.9,0.8-4.2,1.2-7,1.2
		c-2.4,0-4.3-0.3-5.8-0.8c-1.5-0.5-2.5-1.2-3.1-2c-0.6-0.8-1-1.8-1-2.8c0-1,0.3-1.9,1-2.8s1.7-1.6,3.2-2.3c-1-0.3-1.7-0.8-2.2-1.5
		c-0.5-0.6-0.7-1.4-0.7-2.2c0-0.9,0.3-1.8,0.8-2.7c0.5-0.9,1.4-1.9,2.6-2.9c-2.5-1.3-3.7-3.4-3.7-6.4c0-2.3,0.8-4.2,2.4-5.6
		c1.6-1.4,3.9-2.1,6.7-2.1c2.9,0,5.1,0.7,6.7,2l5.3-2l0.7,0.5v3.3h-4.6c0.7,1.1,1,2.4,1,3.9c0,2.3-0.8,4.1-2.4,5.5
		C281.1,243.8,278.8,244.4,275.9,244.4z M269.9,256.7c0,1.4,0.5,2.5,1.6,3.1c1.1,0.7,2.6,1,4.6,1c2.5,0,4.3-0.4,5.6-1.2
		c1.3-0.8,1.9-1.8,1.9-3c0-0.9-0.3-1.6-0.9-2.3c-0.6-0.6-1.7-0.9-3.2-0.9h-5.2c-1.2,0-2.2-0.1-3.1-0.3
		C270.3,254.3,269.9,255.5,269.9,256.7z M275.8,242.4c1.3,0,2.3-0.5,3-1.6c0.7-1,1-2.4,1-4.1c0-1.7-0.3-3-1-4
		c-0.7-1-1.6-1.5-2.9-1.5c-1.3,0-2.2,0.5-2.9,1.5c-0.7,1-1.1,2.4-1.1,4.1c0,1.7,0.3,3,1,4S274.6,242.4,275.8,242.4z"/>
	<path class="st2" d="M301.6,253c-2.2,0-4.1-0.5-5.8-1.4c-1.7-0.9-3-2.3-3.9-4.1c-0.9-1.8-1.4-3.9-1.4-6.3c0-2.5,0.5-4.7,1.6-6.5
		s2.5-3.2,4.2-4.1c1.7-1,3.6-1.4,5.6-1.4c1.8,0,3.5,0.4,4.8,1.2c1.4,0.8,2.5,1.9,3.2,3.3c0.8,1.4,1.2,3.1,1.2,5c0,1-0.1,1.9-0.3,2.6
		h-14.4c0.1,2.7,0.8,4.7,2.1,6.1c1.3,1.3,2.9,2,4.9,2c1.4,0,2.5-0.3,3.5-0.8c1-0.5,1.8-1.3,2.6-2.1l1.4,1.2c-0.9,1.7-2.2,3.1-3.7,4
		C305.7,252.5,303.8,253,301.6,253z M301.6,231.4c-0.8,0-1.5,0.2-2.2,0.7c-0.7,0.5-1.4,1.3-1.9,2.4c-0.5,1.1-0.8,2.6-1,4.5h6.4
		c1.1,0,1.9-0.2,2.3-0.7c0.4-0.5,0.6-1.1,0.6-2c0-1.4-0.4-2.6-1.2-3.5C303.7,231.9,302.8,231.4,301.6,231.4z"/>
	<path class="st2" d="M322.9,253c-1.9,0-3.4-0.5-4.4-1.4c-1.1-0.9-1.6-2.4-1.6-4.5c0-0.7,0-1.4,0-2c0-0.6,0-1.4,0-2.3v-10h-3.5v-2.4
		l3.8-0.5l1.8-6.4h3.8l-0.2,6.5h5.6v2.9h-5.7v13.9c0,1.2,0.2,2,0.7,2.5c0.5,0.5,1.1,0.8,1.8,0.8c0.8,0,1.8-0.4,2.9-1.2l1.1,1.2
		c-0.6,1-1.4,1.7-2.4,2.3C325.6,252.7,324.4,253,322.9,253z"/>
	<path class="st2" d="M330.4,252.3v-1.9l3.1-0.6c0-1.2,0-2.4,0-3.8c0-1.4,0-2.5,0-3.5v-20.2l-3.4-0.5V220l8.4-2.1l0.7,0.4l-0.2,6.6
		v8.4c2.4-2.8,5.1-4.2,8-4.2c2,0,3.6,0.7,4.7,2c1.1,1.3,1.7,3.5,1.7,6.4v4.9c0,1.1,0,2.3,0,3.6c0,1.3,0,2.6,0,3.8l2.9,0.6v1.9h-11.6
		v-1.9l3-0.6c0-1.2,0-2.4,0-3.7c0-1.3,0-2.5,0-3.6V238c0-1.8-0.2-3.1-0.7-3.8c-0.5-0.7-1.3-1.1-2.5-1.1c-1.8,0-3.6,0.9-5.5,2.7v6.7
		c0,1,0,2.2,0,3.6c0,1.3,0,2.6,0,3.8l2.8,0.6v1.9H330.4z"/>
	<path class="st2" d="M370.4,253c-2.2,0-4.1-0.5-5.8-1.4c-1.7-0.9-3-2.3-3.9-4.1c-0.9-1.8-1.4-3.9-1.4-6.3c0-2.5,0.5-4.7,1.6-6.5
		s2.5-3.2,4.2-4.1c1.7-1,3.6-1.4,5.6-1.4c1.8,0,3.5,0.4,4.8,1.2c1.4,0.8,2.5,1.9,3.2,3.3c0.8,1.4,1.2,3.1,1.2,5c0,1-0.1,1.9-0.3,2.6
		h-14.4c0.1,2.7,0.8,4.7,2.1,6.1c1.3,1.3,2.9,2,4.9,2c1.4,0,2.5-0.3,3.5-0.8c1-0.5,1.8-1.3,2.6-2.1l1.4,1.2c-0.9,1.7-2.2,3.1-3.7,4
		C374.5,252.5,372.6,253,370.4,253z M370.4,231.4c-0.8,0-1.5,0.2-2.2,0.7c-0.7,0.5-1.4,1.3-1.9,2.4c-0.5,1.1-0.8,2.6-1,4.5h6.4
		c1.1,0,1.9-0.2,2.3-0.7c0.4-0.5,0.6-1.1,0.6-2c0-1.4-0.4-2.6-1.2-3.5C372.6,231.9,371.6,231.4,370.4,231.4z"/>
	<path class="st2" d="M383.5,252.3v-1.9l3-0.6c0-1.2,0-2.5,0-3.8c0-1.4,0-2.5,0-3.5V240c0-1.3,0-2.3,0-3.1c0-0.8-0.1-1.6-0.1-2.6
		l-3.3-0.4v-1.8l7.8-3l0.8,0.5l0.5,5.5c0.7-1.9,1.7-3.4,2.9-4.5c1.2-1,2.4-1.6,3.7-1.6c0.8,0,1.6,0.2,2.3,0.7s1.2,1.1,1.4,1.9
		c0,1.2-0.3,2.1-0.8,2.7c-0.5,0.6-1.3,1-2.2,1c-1.1,0-2.2-0.6-3.2-1.7l-0.4-0.5c-1.7,1.4-2.9,3.3-3.6,5.8v3.4c0,1,0,2.1,0,3.5
		s0,2.6,0,3.7l3.9,0.8v1.9H383.5z"/>
	<path class="st2" d="M408.7,250.4c0,2-0.5,3.8-1.4,5.5s-2.1,3-3.5,4.1c-1.4,1.1-2.9,1.9-4.4,2.4l-0.7-1.8c1.6-0.8,2.9-1.8,4-2.9
		c1.1-1.1,2-2.4,2.5-4l-1.7-1.1c-0.8-0.5-1.3-1.1-1.7-1.7c-0.3-0.6-0.5-1.3-0.5-1.9c0-1,0.3-1.8,1-2.5s1.5-1,2.6-1
		c0.5,0,1.1,0.1,1.6,0.3c0.5,0.2,1.1,0.5,1.6,1.1c0.3,0.6,0.4,1.2,0.5,1.8C408.6,249.1,408.7,249.7,408.7,250.4z"/>
	<path class="st2" d="M450.2,231.8v-2h8.6v2l-2.6,0.5l-7,20.3h-2.6l-5.7-15.9l-5.8,15.9h-2.6l-7.5-20.4l-2.4-0.4v-2H434v2l-3.2,0.5
		l4.3,13.3l4.7-13.3l-3.1-0.5v-2h10.9v2l-3.1,0.5l4.7,13.1l4.1-13.1L450.2,231.8z"/>
	<path class="st2" d="M470.9,253c-2.2,0-4.1-0.5-5.8-1.4c-1.7-0.9-3-2.3-3.9-4.1c-0.9-1.8-1.4-3.9-1.4-6.3c0-2.5,0.5-4.7,1.6-6.5
		s2.5-3.2,4.2-4.1c1.7-1,3.6-1.4,5.6-1.4c1.8,0,3.5,0.4,4.8,1.2s2.5,1.9,3.2,3.3c0.8,1.4,1.2,3.1,1.2,5c0,1-0.1,1.9-0.3,2.6h-14.4
		c0.1,2.7,0.8,4.7,2.1,6.1c1.3,1.3,2.9,2,4.9,2c1.4,0,2.5-0.3,3.5-0.8c1-0.5,1.8-1.3,2.6-2.1l1.4,1.2c-0.9,1.7-2.2,3.1-3.7,4
		S473.1,253,470.9,253z M470.9,231.4c-0.8,0-1.5,0.2-2.2,0.7c-0.7,0.5-1.4,1.3-1.9,2.4c-0.5,1.1-0.8,2.6-1,4.5h6.4
		c1.1,0,1.9-0.2,2.3-0.7c0.4-0.5,0.6-1.1,0.6-2c0-1.4-0.4-2.6-1.2-3.5C473,231.9,472,231.4,470.9,231.4z"/>
	<path class="st2" d="M502.7,253c-1.9,0-3.4-0.5-4.4-1.4c-1.1-0.9-1.6-2.4-1.6-4.5c0-0.7,0-1.4,0-2c0-0.6,0-1.4,0-2.3v-10h-3.5v-2.4
		l3.8-0.5l1.8-6.4h3.8l-0.2,6.5h5.6v2.9h-5.7v13.9c0,1.2,0.2,2,0.7,2.5c0.5,0.5,1.1,0.8,1.8,0.8c0.8,0,1.8-0.4,2.9-1.2l1.1,1.2
		c-0.6,1-1.4,1.7-2.4,2.3S504.2,253,502.7,253z"/>
	<path class="st2" d="M528.3,252.9c-1.3,0-2.3-0.3-3.1-0.9c-0.8-0.6-1.3-1.5-1.6-2.6c-1.2,1.2-2.2,2.1-3.1,2.7
		c-0.9,0.6-2.2,0.9-3.7,0.9c-1.8,0-3.2-0.5-4.4-1.5c-1.2-1-1.8-2.5-1.8-4.4c0-1,0.2-1.9,0.7-2.8c0.5-0.9,1.3-1.7,2.5-2.4
		c1.2-0.8,2.9-1.5,5.2-2.2c0.6-0.2,1.3-0.4,2.1-0.7c0.8-0.2,1.6-0.4,2.4-0.7V237c0-2.2-0.3-3.7-0.9-4.4c-0.6-0.8-1.7-1.2-3.2-1.2
		c-0.3,0-0.6,0-0.9,0c-0.3,0-0.7,0.1-1,0.1l-0.6,2.6c-0.1,1.1-0.5,2-1,2.5c-0.5,0.5-1.2,0.8-2,0.8c-1.5,0-2.4-0.7-2.6-2.1
		c0.3-1.9,1.3-3.4,3-4.5c1.7-1.1,4-1.7,6.9-1.7c2.7,0,4.7,0.7,6,2c1.3,1.3,1.9,3.5,1.9,6.6v10.2c0,1.4,0.5,2.1,1.4,2.1
		c0.6,0,1.1-0.3,1.6-1l1.1,0.9c-0.6,1.1-1.2,1.8-2,2.3C530.4,252.7,529.4,252.9,528.3,252.9z M516.1,246.1c0,1.2,0.3,2.1,1,2.7
		c0.6,0.5,1.4,0.8,2.4,0.8c0.5,0,1.1-0.1,1.6-0.4c0.5-0.2,1.4-0.8,2.5-1.6v-7.4c-0.7,0.2-1.3,0.4-1.9,0.6c-0.6,0.2-1.1,0.4-1.5,0.5
		c-1.6,0.6-2.6,1.3-3.2,2.2C516.4,244.3,516.1,245.2,516.1,246.1z"/>
	<path class="st2" d="M534.5,252.3v-1.9l3.2-0.6c0-1.2,0.1-2.4,0.1-3.7s0-2.4,0-3.7v-20.2l-3.4-0.5V220l8.6-2.1l0.7,0.4l-0.2,6.6
		v17.5c0,1.2,0,2.4,0,3.7c0,1.2,0,2.4,0.1,3.7l3.2,0.6v1.9H534.5z"/>
	<path class="st2" d="M549,252.3v-1.9l3.2-0.6c0-1.2,0.1-2.4,0.1-3.8c0-1.3,0-2.5,0-3.6v-20.2l-3.4-0.5V220l8.6-2.1l0.7,0.4
		l-0.2,6.6v15.5l7.8-7.9l-3.5-0.7l0-2h11.1v2l-4.3,0.6l-4.7,4.6l7.2,12.7l3.1,0.7v1.9h-7.9l-6.3-11.5l-2.4,2.4c0,1.1,0,2.2,0,3.3
		c0,1.1,0,2.2,0.1,3.3l3.1,0.6v1.9H549z"/>
	<path class="st2" d="M604.7,252.9c-1.3,0-2.3-0.3-3.1-0.9c-0.8-0.6-1.3-1.5-1.6-2.6c-1.2,1.2-2.2,2.1-3.1,2.7
		c-0.9,0.6-2.2,0.9-3.7,0.9c-1.8,0-3.2-0.5-4.4-1.5c-1.2-1-1.8-2.5-1.8-4.4c0-1,0.2-1.9,0.7-2.8c0.5-0.9,1.3-1.7,2.5-2.4
		c1.2-0.8,2.9-1.5,5.2-2.2c0.6-0.2,1.3-0.4,2.1-0.7c0.8-0.2,1.6-0.4,2.4-0.7V237c0-2.2-0.3-3.7-0.9-4.4c-0.6-0.8-1.7-1.2-3.2-1.2
		c-0.3,0-0.6,0-0.9,0c-0.3,0-0.7,0.1-1,0.1l-0.6,2.6c-0.1,1.1-0.5,2-1,2.5c-0.5,0.5-1.2,0.8-2,0.8c-1.5,0-2.4-0.7-2.6-2.1
		c0.3-1.9,1.3-3.4,3-4.5c1.7-1.1,4-1.7,6.9-1.7c2.7,0,4.7,0.7,6,2c1.3,1.3,1.9,3.5,1.9,6.6v10.2c0,1.4,0.5,2.1,1.4,2.1
		c0.6,0,1.1-0.3,1.6-1l1.1,0.9c-0.6,1.1-1.2,1.8-2,2.3C606.8,252.7,605.9,252.9,604.7,252.9z M592.5,246.1c0,1.2,0.3,2.1,1,2.7
		c0.6,0.5,1.4,0.8,2.4,0.8c0.5,0,1.1-0.1,1.6-0.4c0.5-0.2,1.4-0.8,2.5-1.6v-7.4c-0.7,0.2-1.3,0.4-1.9,0.6c-0.6,0.2-1.1,0.4-1.5,0.5
		c-1.6,0.6-2.6,1.3-3.2,2.2C592.8,244.3,592.5,245.2,592.5,246.1z"/>
	<path class="st2" d="M611,252.3v-1.9l3.1-0.6c0-1.2,0.1-2.4,0.1-3.8s0-2.6,0-3.6v-20.2l-3.4-0.4V220l8.4-2.1l0.7,0.4l-0.2,6.6v7.6
		c2.1-2.2,4.4-3.3,7-3.3c1.7,0,3.2,0.5,4.6,1.4c1.4,0.9,2.5,2.2,3.3,4c0.8,1.7,1.2,3.9,1.2,6.4c0,2.5-0.4,4.6-1.3,6.4
		c-0.9,1.8-2.1,3.2-3.5,4.2c-1.5,1-3.1,1.5-4.9,1.5c-1.2,0-2.4-0.2-3.4-0.7s-2-1.3-2.9-2.4l-0.6,3L611,252.3z M624.4,232.5
		c-0.7,0-1.5,0.2-2.2,0.6c-0.8,0.4-1.6,0.9-2.4,1.6v13c1.4,1.3,2.9,2,4.4,2c1.5,0,2.8-0.7,3.9-2.1s1.6-3.6,1.6-6.4
		c0-2.9-0.5-5.1-1.5-6.5C627.3,233.2,626,232.5,624.4,232.5z"/>
	<path class="st2" d="M650.8,253c-2.1,0-4.1-0.5-5.8-1.4c-1.7-0.9-3.1-2.3-4.1-4.1c-1-1.8-1.5-3.9-1.5-6.4c0-2.5,0.5-4.7,1.6-6.4
		s2.4-3.1,4.2-4.1c1.7-0.9,3.6-1.4,5.6-1.4c2,0,3.9,0.5,5.6,1.4c1.7,0.9,3.1,2.3,4.2,4.1s1.6,3.9,1.6,6.5c0,2.5-0.5,4.6-1.5,6.4
		c-1,1.8-2.4,3.1-4.1,4.1S652.9,253,650.8,253z M650.8,250.7c1.7,0,3-0.8,3.9-2.4c0.9-1.6,1.3-4,1.3-7.2c0-6.5-1.7-9.7-5.2-9.7
		c-3.4,0-5.2,3.2-5.2,9.7c0,3.2,0.4,5.6,1.3,7.2C647.8,249.9,649.1,250.7,650.8,250.7z"/>
	<path class="st2" d="M682.3,252.8l-0.4-4.1c-2.3,2.9-5,4.4-8,4.4c-1.9,0-3.5-0.6-4.7-1.9c-1.2-1.3-1.7-3.5-1.7-6.6l0.2-11.6
		l-3.1-0.7v-1.8l8.2-1l0.6,0.5l-0.2,6.6v7.8c0,1.8,0.3,3,0.8,3.7s1.3,1.1,2.4,1.1c0.9,0,1.8-0.2,2.7-0.8c0.9-0.5,1.8-1.1,2.7-1.9
		l0.1-13.5l-3-0.7v-1.7l8-1.1l0.6,0.5l-0.1,6.6v13.3l2.9,0.6v1.9L682.3,252.8z"/>
	<path class="st2" d="M701.5,253c-1.9,0-3.4-0.5-4.4-1.4c-1.1-0.9-1.6-2.4-1.6-4.5c0-0.7,0-1.4,0-2c0-0.6,0-1.4,0-2.3v-10h-3.5v-2.4
		l3.8-0.5l1.8-6.4h3.8l-0.2,6.5h5.6v2.9h-5.7v13.9c0,1.2,0.2,2,0.7,2.5c0.5,0.5,1.1,0.8,1.8,0.8c0.8,0,1.8-0.4,2.9-1.2l1.1,1.2
		c-0.6,1-1.4,1.7-2.4,2.3S703,253,701.5,253z"/>
	<path class="st2" d="M222.7,305c-1.9,0-3.4-0.5-4.4-1.4c-1.1-0.9-1.6-2.4-1.6-4.5c0-0.7,0-1.4,0-2c0-0.6,0-1.4,0-2.3v-10h-3.5v-2.4
		l3.8-0.5l1.8-6.4h3.8l-0.2,6.5h5.6v2.9h-5.7v13.9c0,1.2,0.2,2,0.7,2.5c0.5,0.5,1.1,0.8,1.8,0.8c0.8,0,1.8-0.4,2.9-1.2l1.1,1.2
		c-0.6,1-1.4,1.7-2.4,2.3C225.4,304.7,224.2,305,222.7,305z"/>
	<path class="st2" d="M230.2,304.3v-1.9l3.1-0.6c0-1.2,0-2.4,0-3.8c0-1.4,0-2.5,0-3.5v-20.2l-3.4-0.5V272l8.4-2.1l0.7,0.4l-0.2,6.6
		v8.4c2.4-2.8,5.1-4.2,8-4.2c2,0,3.6,0.7,4.7,2c1.1,1.3,1.7,3.5,1.7,6.4v4.9c0,1.1,0,2.3,0,3.6c0,1.3,0,2.6,0,3.8l2.9,0.6v1.9h-11.6
		v-1.9l3-0.6c0-1.2,0-2.4,0-3.7c0-1.3,0-2.5,0-3.6V290c0-1.8-0.2-3.1-0.7-3.8c-0.5-0.7-1.3-1.1-2.5-1.1c-1.8,0-3.6,0.9-5.5,2.7v6.7
		c0,1,0,2.2,0,3.6c0,1.3,0,2.6,0,3.8l2.8,0.6v1.9H230.2z"/>
	<path class="st2" d="M270.2,305c-2.2,0-4.1-0.5-5.8-1.4c-1.7-0.9-3-2.3-3.9-4.1c-0.9-1.8-1.4-3.9-1.4-6.3c0-2.5,0.5-4.7,1.6-6.5
		s2.5-3.2,4.2-4.1c1.7-1,3.6-1.4,5.6-1.4c1.8,0,3.5,0.4,4.8,1.2c1.4,0.8,2.5,1.9,3.2,3.3c0.8,1.4,1.2,3.1,1.2,5c0,1-0.1,1.9-0.3,2.6
		h-14.4c0.1,2.7,0.8,4.7,2.1,6.1c1.3,1.3,2.9,2,4.9,2c1.4,0,2.5-0.3,3.5-0.8c1-0.5,1.8-1.3,2.6-2.1l1.4,1.2c-0.9,1.7-2.2,3.1-3.7,4
		C274.3,304.5,272.4,305,270.2,305z M270.2,283.4c-0.8,0-1.5,0.2-2.2,0.7c-0.7,0.5-1.4,1.3-1.9,2.4c-0.5,1.1-0.8,2.6-1,4.5h6.4
		c1.1,0,1.9-0.2,2.3-0.7c0.4-0.5,0.6-1.1,0.6-2c0-1.4-0.4-2.6-1.2-3.5C272.4,283.9,271.4,283.4,270.2,283.4z"/>
	<path class="st2" d="M304.9,305c-2.1,0-4-0.5-5.7-1.4c-1.7-0.9-3-2.3-4-4c-1-1.8-1.4-3.9-1.4-6.4c0-2.5,0.5-4.7,1.6-6.5
		s2.5-3.1,4.3-4.1c1.8-0.9,3.7-1.4,5.8-1.4c1.5,0,2.9,0.3,4.2,0.9c1.2,0.6,2.2,1.4,3,2.3c0.8,1,1.2,2.1,1.4,3.3
		c-0.4,1.4-1.3,2.1-2.7,2.1c-1.8,0-2.8-1.1-3.1-3.3l-0.6-2.8c-0.3-0.1-0.6-0.1-0.8-0.1c-0.3,0-0.6,0-0.8,0c-1.1,0-2.2,0.3-3.1,1
		c-1,0.6-1.7,1.6-2.3,3c-0.6,1.3-0.9,3.1-0.9,5.1c0,2.9,0.6,5,2,6.5c1.3,1.5,3,2.3,5.1,2.3c1.3,0,2.4-0.3,3.4-0.8
		c1-0.6,1.8-1.3,2.5-2.3l1.4,1c-0.8,1.9-2,3.4-3.5,4.3C309,304.5,307.2,305,304.9,305z"/>
	<path class="st2" d="M316.2,304.3v-1.9l3.1-0.6c0-1.2,0-2.4,0-3.8c0-1.4,0-2.5,0-3.5v-20.2l-3.4-0.5V272l8.4-2.1l0.7,0.4l-0.2,6.6
		v8.4c2.4-2.8,5.1-4.2,8-4.2c2,0,3.6,0.7,4.7,2c1.1,1.3,1.7,3.5,1.7,6.4v4.9c0,1.1,0,2.3,0,3.6c0,1.3,0,2.6,0,3.8l2.9,0.6v1.9h-11.6
		v-1.9l3-0.6c0-1.2,0-2.4,0-3.7c0-1.3,0-2.5,0-3.6V290c0-1.8-0.2-3.1-0.7-3.8c-0.5-0.7-1.3-1.1-2.5-1.1c-1.8,0-3.6,0.9-5.5,2.7v6.7
		c0,1,0,2.2,0,3.6c0,1.3,0,2.6,0,3.8l2.8,0.6v1.9H316.2z"/>
	<path class="st2" d="M362.8,304.9c-1.3,0-2.3-0.3-3.1-0.9c-0.8-0.6-1.3-1.5-1.6-2.6c-1.2,1.2-2.2,2.1-3.1,2.7
		c-0.9,0.6-2.2,0.9-3.7,0.9c-1.8,0-3.2-0.5-4.4-1.5c-1.2-1-1.8-2.5-1.8-4.4c0-1,0.2-1.9,0.7-2.8c0.5-0.9,1.3-1.7,2.5-2.4
		c1.2-0.8,2.9-1.5,5.2-2.2c0.6-0.2,1.3-0.4,2.1-0.7c0.8-0.2,1.6-0.4,2.4-0.7V289c0-2.2-0.3-3.7-0.9-4.4c-0.6-0.8-1.7-1.2-3.2-1.2
		c-0.3,0-0.6,0-0.9,0c-0.3,0-0.7,0.1-1,0.1l-0.6,2.6c-0.1,1.1-0.5,2-1,2.5c-0.5,0.5-1.2,0.8-2,0.8c-1.5,0-2.4-0.7-2.6-2.1
		c0.3-1.9,1.3-3.4,3-4.5c1.7-1.1,4-1.7,6.9-1.7c2.7,0,4.7,0.7,6,2c1.3,1.3,1.9,3.5,1.9,6.6v10.2c0,1.4,0.5,2.1,1.4,2.1
		c0.6,0,1.1-0.3,1.6-1l1.1,0.9c-0.6,1.1-1.2,1.8-2,2.3C364.9,304.7,363.9,304.9,362.8,304.9z M350.6,298.1c0,1.2,0.3,2.1,1,2.7
		c0.6,0.5,1.4,0.8,2.4,0.8c0.5,0,1.1-0.1,1.6-0.4c0.5-0.2,1.4-0.8,2.5-1.6v-7.4c-0.7,0.2-1.3,0.4-1.9,0.6c-0.6,0.2-1.1,0.4-1.5,0.5
		c-1.6,0.6-2.6,1.3-3.2,2.2C350.9,296.3,350.6,297.2,350.6,298.1z"/>
	<path class="st2" d="M368.9,304.3v-1.9l3.2-0.6c0-1.2,0.1-2.4,0.1-3.7c0-1.2,0-2.4,0-3.7v-20.2l-3.4-0.5V272l8.6-2.1l0.7,0.4
		l-0.2,6.6v17.5c0,1.2,0,2.4,0,3.7c0,1.2,0,2.4,0.1,3.7l3.2,0.6v1.9H368.9z"/>
	<path class="st2" d="M383.5,304.3v-1.9l3.2-0.6c0-1.2,0.1-2.4,0.1-3.7c0-1.2,0-2.4,0-3.7v-20.2l-3.4-0.5V272l8.6-2.1l0.7,0.4
		l-0.2,6.6v17.5c0,1.2,0,2.4,0,3.7c0,1.2,0,2.4,0.1,3.7l3.2,0.6v1.9H383.5z"/>
	<path class="st2" d="M409.7,305c-2.2,0-4.1-0.5-5.8-1.4c-1.7-0.9-3-2.3-3.9-4.1c-0.9-1.8-1.4-3.9-1.4-6.3c0-2.5,0.5-4.7,1.6-6.5
		s2.5-3.2,4.2-4.1c1.7-1,3.6-1.4,5.6-1.4c1.8,0,3.5,0.4,4.8,1.2s2.5,1.9,3.2,3.3c0.8,1.4,1.2,3.1,1.2,5c0,1-0.1,1.9-0.3,2.6h-14.4
		c0.1,2.7,0.8,4.7,2.1,6.1c1.3,1.3,2.9,2,4.9,2c1.4,0,2.5-0.3,3.5-0.8c1-0.5,1.8-1.3,2.6-2.1l1.4,1.2c-0.9,1.7-2.2,3.1-3.7,4
		S411.9,305,409.7,305z M409.7,283.4c-0.8,0-1.5,0.2-2.2,0.7c-0.7,0.5-1.4,1.3-1.9,2.4c-0.5,1.1-0.8,2.6-1,4.5h6.4
		c1.1,0,1.9-0.2,2.3-0.7c0.4-0.5,0.6-1.1,0.6-2c0-1.4-0.4-2.6-1.2-3.5C411.8,283.9,410.8,283.4,409.7,283.4z"/>
	<path class="st2" d="M422.7,304.3v-1.9l3.1-0.6c0-1.2,0-2.4,0-3.8c0-1.4,0-2.5,0-3.5V292c0-1.3,0-2.3,0-3.1c0-0.8-0.1-1.6-0.1-2.6
		l-3.3-0.4v-1.8l7.8-3l0.8,0.5l0.3,3.6c2.4-2.7,5.1-4.1,8-4.1c2,0,3.6,0.7,4.7,2c1.1,1.3,1.7,3.5,1.7,6.4v4.9c0,1.1,0,2.3,0,3.6
		c0,1.3,0,2.6,0,3.8l2.9,0.6v1.9H437v-1.9l3-0.6c0-1.2,0-2.4,0-3.7c0-1.3,0-2.5,0-3.6V290c0-1.8-0.3-3.1-0.8-3.8
		c-0.5-0.7-1.3-1.1-2.5-1.1c-1.7,0-3.4,0.8-5.3,2.3v7c0,1,0,2.2,0,3.6c0,1.3,0,2.6,0,3.8l2.8,0.6v1.9H422.7z"/>
	<path class="st2" d="M461.2,296.4c-1.4,0-2.7-0.2-3.9-0.5c-0.6,0.8-0.9,1.7-0.9,2.6c0,0.6,0.2,1.1,0.6,1.4c0.4,0.3,1.1,0.5,2.1,0.5
		h5.9c3.1,0,5.3,0.6,6.6,1.7c1.3,1.2,2,2.7,2,4.7c0,1.5-0.5,2.9-1.4,4.1c-1,1.3-2.4,2.3-4.2,3.1c-1.9,0.8-4.2,1.2-7,1.2
		c-2.4,0-4.3-0.3-5.8-0.8c-1.5-0.5-2.5-1.2-3.1-2c-0.6-0.8-1-1.8-1-2.8c0-1,0.3-1.9,1-2.8s1.7-1.6,3.2-2.3c-1-0.3-1.7-0.8-2.2-1.5
		s-0.7-1.4-0.7-2.2c0-0.9,0.3-1.8,0.8-2.7c0.5-0.9,1.4-1.9,2.6-2.9c-2.5-1.3-3.7-3.4-3.7-6.4c0-2.3,0.8-4.2,2.4-5.6
		c1.6-1.4,3.9-2.1,6.7-2.1c2.9,0,5.1,0.7,6.7,2l5.3-2l0.7,0.5v3.3h-4.6c0.7,1.1,1,2.4,1,3.9c0,2.3-0.8,4.1-2.4,5.5
		C466.3,295.8,464.1,296.4,461.2,296.4z M455.2,308.7c0,1.4,0.5,2.5,1.6,3.1c1.1,0.7,2.6,1,4.6,1c2.5,0,4.3-0.4,5.6-1.2
		c1.3-0.8,1.9-1.8,1.9-3c0-0.9-0.3-1.6-0.9-2.3c-0.6-0.6-1.7-0.9-3.2-0.9h-5.2c-1.2,0-2.2-0.1-3.1-0.3
		C455.6,306.3,455.2,307.5,455.2,308.7z M461.1,294.4c1.3,0,2.3-0.5,3-1.6c0.7-1,1-2.4,1-4.1c0-1.7-0.3-3-1-4
		c-0.7-1-1.6-1.5-2.9-1.5s-2.2,0.5-2.9,1.5s-1.1,2.4-1.1,4.1c0,1.7,0.3,3,1,4S459.9,294.4,461.1,294.4z"/>
	<path class="st2" d="M486.9,305c-2.2,0-4.1-0.5-5.8-1.4c-1.7-0.9-3-2.3-3.9-4.1c-0.9-1.8-1.4-3.9-1.4-6.3c0-2.5,0.5-4.7,1.6-6.5
		s2.5-3.2,4.2-4.1c1.7-1,3.6-1.4,5.6-1.4c1.8,0,3.5,0.4,4.8,1.2s2.5,1.9,3.2,3.3c0.8,1.4,1.2,3.1,1.2,5c0,1-0.1,1.9-0.3,2.6h-14.4
		c0.1,2.7,0.8,4.7,2.1,6.1c1.3,1.3,2.9,2,4.9,2c1.4,0,2.5-0.3,3.5-0.8c1-0.5,1.8-1.3,2.6-2.1l1.4,1.2c-0.9,1.7-2.2,3.1-3.7,4
		S489.1,305,486.9,305z M486.9,283.4c-0.8,0-1.5,0.2-2.2,0.7c-0.7,0.5-1.4,1.3-1.9,2.4c-0.5,1.1-0.8,2.6-1,4.5h6.4
		c1.1,0,1.9-0.2,2.3-0.7c0.4-0.5,0.6-1.1,0.6-2c0-1.4-0.4-2.6-1.2-3.5C489,283.9,488,283.4,486.9,283.4z"/>
	<path class="st2" d="M507.7,305c-1.4,0-2.8-0.2-4-0.5c-1.2-0.3-2.4-0.8-3.6-1.5l0-5.5h3.1l0.8,4.4c1.1,0.5,2.3,0.7,3.7,0.7
		c1.6,0,2.8-0.3,3.6-0.8c0.8-0.6,1.2-1.3,1.2-2.3c0-0.9-0.3-1.6-0.9-2.1c-0.6-0.5-1.7-1.1-3.2-1.6l-2.4-0.8
		c-1.8-0.6-3.1-1.4-4.2-2.5c-1-1.1-1.5-2.5-1.5-4.1c0-1.3,0.3-2.5,1-3.6c0.7-1.1,1.7-1.9,3-2.6c1.3-0.6,3-1,4.9-1
		c1.3,0,2.6,0.2,3.7,0.5s2.2,0.8,3.3,1.4l-0.2,4.9h-3.1l-0.8-3.9c-0.9-0.4-1.8-0.6-2.9-0.6c-1.3,0-2.2,0.3-2.9,0.8
		c-0.7,0.5-1,1.3-1,2.2c0,0.8,0.3,1.5,0.9,2s1.7,1,3.3,1.6l1.9,0.6c2.3,0.8,3.9,1.8,4.9,2.9c1,1.2,1.5,2.6,1.5,4.2
		c0,2.1-0.9,3.8-2.6,5.2C513.3,304.3,510.9,305,507.7,305z"/>
	<path class="st2" d="M557.1,283.8v-2h8.6v2l-2.6,0.5l-7,20.3h-2.6l-5.7-15.9l-5.8,15.9h-2.6l-7.5-20.4l-2.4-0.4v-2H541v2l-3.2,0.5
		l4.3,13.3l4.7-13.3l-3.1-0.5v-2h10.9v2l-3.1,0.5l4.7,13.1l4.1-13.1L557.1,283.8z"/>
	<path class="st2" d="M577.8,305c-2.2,0-4.1-0.5-5.8-1.4c-1.7-0.9-3-2.3-3.9-4.1c-0.9-1.8-1.4-3.9-1.4-6.3c0-2.5,0.5-4.7,1.6-6.5
		s2.5-3.2,4.2-4.1c1.7-1,3.6-1.4,5.6-1.4c1.8,0,3.5,0.4,4.8,1.2s2.5,1.9,3.2,3.3c0.8,1.4,1.2,3.1,1.2,5c0,1-0.1,1.9-0.3,2.6h-14.4
		c0.1,2.7,0.8,4.7,2.1,6.1c1.3,1.3,2.9,2,4.9,2c1.4,0,2.5-0.3,3.5-0.8c1-0.5,1.8-1.3,2.6-2.1l1.4,1.2c-0.9,1.7-2.2,3.1-3.7,4
		S580,305,577.8,305z M577.8,283.4c-0.8,0-1.5,0.2-2.2,0.7c-0.7,0.5-1.4,1.3-1.9,2.4c-0.5,1.1-0.8,2.6-1,4.5h6.4
		c1.1,0,1.9-0.2,2.3-0.7c0.4-0.5,0.6-1.1,0.6-2c0-1.4-0.4-2.6-1.2-3.5C580,283.9,579,283.4,577.8,283.4z"/>
	<path class="st2" d="M601.3,304.3v-1.9l3.1-0.6c0-1.2,0.1-2.4,0.1-3.7c0-1.2,0-2.4,0-3.7v-9.8H601v-2.4l3.6-0.5
		c0.3-2.3,0.6-4.2,1.2-5.6c0.5-1.4,1.3-2.7,2.4-3.8c1.1-1.1,2.2-1.8,3.5-2.3c1.3-0.5,2.5-0.7,3.7-0.7c1.2,0,2.3,0.2,3.3,0.7
		c1,0.4,1.6,1.2,1.8,2.3c0,0.7-0.3,1.3-0.9,1.8c-0.5,0.5-1.3,0.8-2.2,0.8c-1.3,0-2.6-0.8-3.8-2.3l-0.8-0.8c-0.1,0.1-0.2,0.2-0.3,0.3
		c-0.8,0.8-1.5,2-1.8,3.6s-0.5,3.6-0.5,6.2h5.8v2.9h-5.7v9.8c0,1.2,0,2.4,0,3.6c0,1.2,0,2.4,0.1,3.6l3.9,0.7v1.9H601.3z"/>
	<path class="st2" d="M636,304.9c-1.3,0-2.3-0.3-3.1-0.9c-0.8-0.6-1.3-1.5-1.6-2.6c-1.2,1.2-2.2,2.1-3.1,2.7
		c-0.9,0.6-2.2,0.9-3.7,0.9c-1.8,0-3.2-0.5-4.4-1.5c-1.2-1-1.8-2.5-1.8-4.4c0-1,0.2-1.9,0.7-2.8c0.5-0.9,1.3-1.7,2.5-2.4
		c1.2-0.8,2.9-1.5,5.2-2.2c0.6-0.2,1.3-0.4,2.1-0.7c0.8-0.2,1.6-0.4,2.4-0.7V289c0-2.2-0.3-3.7-0.9-4.4c-0.6-0.8-1.7-1.2-3.2-1.2
		c-0.3,0-0.6,0-0.9,0c-0.3,0-0.7,0.1-1,0.1l-0.6,2.6c-0.1,1.1-0.5,2-1,2.5c-0.5,0.5-1.2,0.8-2,0.8c-1.5,0-2.4-0.7-2.6-2.1
		c0.3-1.9,1.3-3.4,3-4.5c1.7-1.1,4-1.7,6.9-1.7c2.7,0,4.7,0.7,6,2c1.3,1.3,1.9,3.5,1.9,6.6v10.2c0,1.4,0.5,2.1,1.4,2.1
		c0.6,0,1.1-0.3,1.6-1l1.1,0.9c-0.6,1.1-1.2,1.8-2,2.3C638.1,304.7,637.2,304.9,636,304.9z M623.8,298.1c0,1.2,0.3,2.1,1,2.7
		c0.6,0.5,1.4,0.8,2.4,0.8c0.5,0,1.1-0.1,1.6-0.4c0.5-0.2,1.4-0.8,2.5-1.6v-7.4c-0.7,0.2-1.3,0.4-1.9,0.6c-0.6,0.2-1.1,0.4-1.5,0.5
		c-1.6,0.6-2.6,1.3-3.2,2.2C624.1,296.3,623.8,297.2,623.8,298.1z"/>
	<path class="st2" d="M653.8,305c-2.1,0-4-0.5-5.7-1.4c-1.7-0.9-3-2.3-4-4c-1-1.8-1.4-3.9-1.4-6.4c0-2.5,0.5-4.7,1.6-6.5
		s2.5-3.1,4.3-4.1c1.8-0.9,3.7-1.4,5.8-1.4c1.5,0,2.9,0.3,4.2,0.9c1.2,0.6,2.2,1.4,3,2.3c0.8,1,1.2,2.1,1.4,3.3
		c-0.4,1.4-1.3,2.1-2.7,2.1c-1.8,0-2.8-1.1-3.1-3.3l-0.6-2.8c-0.3-0.1-0.6-0.1-0.8-0.1c-0.3,0-0.6,0-0.8,0c-1.1,0-2.2,0.3-3.1,1
		s-1.7,1.6-2.3,3c-0.6,1.3-0.9,3.1-0.9,5.1c0,2.9,0.6,5,2,6.5c1.3,1.5,3,2.3,5.1,2.3c1.3,0,2.4-0.3,3.4-0.8c1-0.6,1.8-1.3,2.5-2.3
		l1.4,1c-0.8,1.9-2,3.4-3.5,4.3C657.9,304.5,656,305,653.8,305z"/>
	<path class="st2" d="M677.1,305c-2.2,0-4.1-0.5-5.8-1.4c-1.7-0.9-3-2.3-3.9-4.1c-0.9-1.8-1.4-3.9-1.4-6.3c0-2.5,0.5-4.7,1.6-6.5
		s2.5-3.2,4.2-4.1c1.7-1,3.6-1.4,5.6-1.4c1.8,0,3.5,0.4,4.8,1.2s2.5,1.9,3.2,3.3c0.8,1.4,1.2,3.1,1.2,5c0,1-0.1,1.9-0.3,2.6H672
		c0.1,2.7,0.8,4.7,2.1,6.1c1.3,1.3,2.9,2,4.9,2c1.4,0,2.5-0.3,3.5-0.8c1-0.5,1.8-1.3,2.6-2.1l1.4,1.2c-0.9,1.7-2.2,3.1-3.7,4
		S679.3,305,677.1,305z M677.1,283.4c-0.8,0-1.5,0.2-2.2,0.7c-0.7,0.5-1.4,1.3-1.9,2.4c-0.5,1.1-0.8,2.6-1,4.5h6.4
		c1.1,0,1.9-0.2,2.3-0.7c0.4-0.5,0.6-1.1,0.6-2c0-1.4-0.4-2.6-1.2-3.5C679.3,283.9,678.3,283.4,677.1,283.4z"/>
	<path class="st2" d="M232.3,356.9c-1.3,0-2.3-0.3-3.1-0.9c-0.8-0.6-1.3-1.5-1.6-2.6c-1.2,1.2-2.2,2.1-3.1,2.7
		c-0.9,0.6-2.2,0.9-3.7,0.9c-1.8,0-3.2-0.5-4.4-1.5c-1.2-1-1.8-2.5-1.8-4.4c0-1,0.2-1.9,0.7-2.8c0.5-0.9,1.3-1.7,2.5-2.4
		c1.2-0.8,2.9-1.5,5.2-2.2c0.6-0.2,1.3-0.4,2.1-0.7c0.8-0.2,1.6-0.4,2.4-0.7V341c0-2.2-0.3-3.7-0.9-4.4c-0.6-0.8-1.7-1.2-3.2-1.2
		c-0.3,0-0.6,0-0.9,0c-0.3,0-0.7,0.1-1,0.1l-0.6,2.6c-0.1,1.1-0.5,2-1,2.5c-0.5,0.5-1.2,0.8-2,0.8c-1.5,0-2.4-0.7-2.6-2.1
		c0.3-1.9,1.3-3.4,3-4.5c1.7-1.1,4-1.7,6.9-1.7c2.7,0,4.7,0.7,6,2c1.3,1.3,1.9,3.5,1.9,6.6v10.2c0,1.4,0.5,2.1,1.4,2.1
		c0.6,0,1.1-0.3,1.6-1l1.1,0.9c-0.6,1.1-1.2,1.8-2,2.3C234.3,356.7,233.4,356.9,232.3,356.9z M220,350.1c0,1.2,0.3,2.1,1,2.7
		c0.6,0.5,1.4,0.8,2.4,0.8c0.5,0,1.1-0.1,1.6-0.4c0.5-0.2,1.4-0.8,2.5-1.6v-7.4c-0.7,0.2-1.3,0.4-1.9,0.6c-0.6,0.2-1.1,0.4-1.5,0.5
		c-1.6,0.6-2.6,1.3-3.2,2.2C220.3,348.3,220,349.2,220,350.1z"/>
	<path class="st2" d="M246.7,357c-1.4,0-2.8-0.2-4-0.5c-1.2-0.3-2.4-0.8-3.6-1.5l0-5.5h3.1l0.8,4.4c1.1,0.5,2.4,0.7,3.7,0.7
		c1.6,0,2.8-0.3,3.6-0.8c0.8-0.6,1.2-1.3,1.2-2.3c0-0.9-0.3-1.6-0.9-2.1c-0.6-0.5-1.7-1.1-3.2-1.6l-2.4-0.8
		c-1.8-0.6-3.1-1.4-4.2-2.5c-1-1.1-1.5-2.5-1.5-4.1c0-1.3,0.3-2.5,1-3.6c0.7-1.1,1.7-1.9,3-2.6c1.3-0.6,3-1,4.9-1
		c1.3,0,2.6,0.2,3.7,0.5c1.1,0.3,2.2,0.8,3.3,1.4L255,340h-3.1l-0.8-3.9c-0.9-0.4-1.8-0.6-2.9-0.6c-1.3,0-2.2,0.3-2.9,0.8
		c-0.7,0.5-1,1.3-1,2.2c0,0.8,0.3,1.5,0.9,2c0.6,0.5,1.7,1,3.3,1.6l1.9,0.6c2.3,0.8,3.9,1.8,4.9,2.9c1,1.2,1.5,2.6,1.5,4.2
		c0,2.1-0.9,3.8-2.6,5.2C252.3,356.3,249.9,357,246.7,357z"/>
	<path class="st2" d="M281.7,357c-2.1,0-4-0.5-5.8-1.4c-1.7-0.9-3.1-2.3-4.1-4.1c-1-1.8-1.5-3.9-1.5-6.4c0-2.5,0.5-4.7,1.6-6.4
		c1-1.8,2.4-3.1,4.2-4.1c1.7-0.9,3.6-1.4,5.6-1.4c2,0,3.9,0.5,5.6,1.4c1.7,0.9,3.1,2.3,4.2,4.1c1.1,1.8,1.6,3.9,1.6,6.5
		c0,2.5-0.5,4.6-1.5,6.4c-1,1.8-2.4,3.1-4.1,4.1C285.7,356.5,283.8,357,281.7,357z M281.7,354.7c1.7,0,3-0.8,3.9-2.4
		c0.9-1.6,1.3-4,1.3-7.2c0-6.5-1.7-9.7-5.2-9.7c-3.4,0-5.2,3.2-5.2,9.7c0,3.2,0.4,5.6,1.3,7.2C278.7,353.9,280,354.7,281.7,354.7z"
		/>
	<path class="st2" d="M296.4,356.3v-1.9l3-0.6c0-1.2,0-2.5,0-3.8c0-1.4,0-2.5,0-3.5V344c0-1.3,0-2.3,0-3.1c0-0.8-0.1-1.6-0.1-2.6
		l-3.3-0.4v-1.8l7.8-3l0.8,0.5l0.5,5.5c0.7-1.9,1.7-3.4,2.9-4.5c1.2-1,2.4-1.6,3.7-1.6c0.8,0,1.6,0.2,2.3,0.7s1.2,1.1,1.4,1.9
		c0,1.2-0.3,2.1-0.8,2.7c-0.5,0.6-1.3,1-2.2,1c-1.1,0-2.2-0.6-3.2-1.7l-0.4-0.5c-1.7,1.4-2.9,3.3-3.6,5.8v3.4c0,1,0,2.1,0,3.5
		s0,2.6,0,3.7l3.9,0.8v1.9H296.4z"/>
	<path class="st2" d="M326.4,348.4c-1.4,0-2.7-0.2-3.9-0.5c-0.6,0.8-0.9,1.7-0.9,2.6c0,0.6,0.2,1.1,0.6,1.4c0.4,0.3,1.1,0.5,2.1,0.5
		h5.9c3.1,0,5.3,0.6,6.6,1.7c1.3,1.2,2,2.7,2,4.7c0,1.5-0.5,2.9-1.4,4.1c-1,1.3-2.4,2.3-4.2,3.1c-1.9,0.8-4.2,1.2-7,1.2
		c-2.4,0-4.3-0.3-5.8-0.8c-1.5-0.5-2.5-1.2-3.1-2c-0.6-0.8-1-1.8-1-2.8c0-1,0.3-1.9,1-2.8s1.7-1.6,3.2-2.3c-1-0.3-1.7-0.8-2.2-1.5
		c-0.5-0.6-0.7-1.4-0.7-2.2c0-0.9,0.3-1.8,0.8-2.7c0.5-0.9,1.4-1.9,2.6-2.9c-2.5-1.3-3.7-3.4-3.7-6.4c0-2.3,0.8-4.2,2.4-5.6
		c1.6-1.4,3.9-2.1,6.7-2.1c2.9,0,5.1,0.7,6.7,2l5.3-2l0.7,0.5v3.3h-4.6c0.7,1.1,1,2.4,1,3.9c0,2.3-0.8,4.1-2.4,5.5
		C331.5,347.8,329.2,348.4,326.4,348.4z M320.3,360.7c0,1.4,0.5,2.5,1.6,3.1c1.1,0.7,2.6,1,4.6,1c2.5,0,4.3-0.4,5.6-1.2
		c1.3-0.8,1.9-1.8,1.9-3c0-0.9-0.3-1.6-0.9-2.3c-0.6-0.6-1.7-0.9-3.2-0.9h-5.2c-1.2,0-2.2-0.1-3.1-0.3
		C320.8,358.3,320.3,359.5,320.3,360.7z M326.3,346.4c1.3,0,2.3-0.5,3-1.6c0.7-1,1-2.4,1-4.1c0-1.7-0.3-3-1-4
		c-0.7-1-1.6-1.5-2.9-1.5c-1.3,0-2.2,0.5-2.9,1.5c-0.7,1-1.1,2.4-1.1,4.1c0,1.7,0.3,3,1,4S325,346.4,326.3,346.4z"/>
	<path class="st2" d="M358.5,356.9c-1.3,0-2.3-0.3-3.1-0.9c-0.8-0.6-1.3-1.5-1.6-2.6c-1.2,1.2-2.2,2.1-3.1,2.7
		c-0.9,0.6-2.2,0.9-3.7,0.9c-1.8,0-3.2-0.5-4.4-1.5c-1.2-1-1.8-2.5-1.8-4.4c0-1,0.2-1.9,0.7-2.8c0.5-0.9,1.3-1.7,2.5-2.4
		c1.2-0.8,2.9-1.5,5.2-2.2c0.6-0.2,1.3-0.4,2.1-0.7c0.8-0.2,1.6-0.4,2.4-0.7V341c0-2.2-0.3-3.7-0.9-4.4c-0.6-0.8-1.7-1.2-3.2-1.2
		c-0.3,0-0.6,0-0.9,0c-0.3,0-0.7,0.1-1,0.1l-0.6,2.6c-0.1,1.1-0.5,2-1,2.5c-0.5,0.5-1.2,0.8-2,0.8c-1.5,0-2.4-0.7-2.6-2.1
		c0.3-1.9,1.3-3.4,3-4.5c1.7-1.1,4-1.7,6.9-1.7c2.7,0,4.7,0.7,6,2c1.3,1.3,1.9,3.5,1.9,6.6v10.2c0,1.4,0.5,2.1,1.4,2.1
		c0.6,0,1.1-0.3,1.6-1l1.1,0.9c-0.6,1.1-1.2,1.8-2,2.3C360.6,356.7,359.6,356.9,358.5,356.9z M346.3,350.1c0,1.2,0.3,2.1,1,2.7
		c0.6,0.5,1.4,0.8,2.4,0.8c0.5,0,1.1-0.1,1.6-0.4c0.5-0.2,1.4-0.8,2.5-1.6v-7.4c-0.7,0.2-1.3,0.4-1.9,0.6c-0.6,0.2-1.1,0.4-1.5,0.5
		c-1.6,0.6-2.6,1.3-3.2,2.2C346.6,348.3,346.3,349.2,346.3,350.1z"/>
	<path class="st2" d="M364.9,356.3v-1.9l3.1-0.6c0-1.2,0-2.4,0-3.8c0-1.4,0-2.5,0-3.5V344c0-1.3,0-2.3,0-3.1c0-0.8-0.1-1.6-0.1-2.6
		l-3.3-0.4v-1.8l7.8-3l0.8,0.5l0.3,3.6c2.4-2.7,5.1-4.1,8-4.1c2,0,3.6,0.7,4.7,2c1.1,1.3,1.7,3.5,1.7,6.4v4.9c0,1.1,0,2.3,0,3.6
		c0,1.3,0,2.6,0,3.8l2.9,0.6v1.9h-11.6v-1.9l3-0.6c0-1.2,0-2.4,0-3.7c0-1.3,0-2.5,0-3.6V342c0-1.8-0.3-3.1-0.8-3.8
		c-0.5-0.7-1.3-1.1-2.5-1.1c-1.7,0-3.4,0.8-5.3,2.3v7c0,1,0,2.2,0,3.6c0,1.3,0,2.6,0,3.8l2.8,0.6v1.9H364.9z"/>
	<path class="st2" d="M393.5,356.3v-1.9l3.1-0.6c0-1.2,0-2.4,0-3.8c0-1.4,0-2.5,0-3.5v-2.2c0-1.3,0-2.4,0-3.2c0-0.9-0.1-1.8-0.1-2.7
		l-3.3-0.4v-1.8l8.5-3l0.8,0.5l-0.1,6.6v6.2c0,1,0,2.2,0,3.5c0,1.4,0,2.6,0,3.8l2.9,0.6v1.9H393.5z M399.4,328.8
		c-1,0-1.8-0.3-2.5-0.9c-0.7-0.6-1-1.4-1-2.4c0-1,0.3-1.8,1-2.4c0.7-0.6,1.5-0.9,2.5-0.9c1,0,1.8,0.3,2.5,0.9c0.7,0.6,1,1.4,1,2.4
		c0,1-0.3,1.8-1,2.4C401.3,328.5,400.4,328.8,399.4,328.8z"/>
	<path class="st2" d="M407.6,356.3v-1.7l12.6-18.7h-8l-1.3,5.2l-3.1-0.2l0.4-7.1h18.3v1.7l-12.5,18.7h8.6l1.4-5.7h3.1l-0.5,7.8
		H407.6z"/>
	<path class="st2" d="M447.6,356.9c-1.3,0-2.3-0.3-3.1-0.9c-0.8-0.6-1.3-1.5-1.6-2.6c-1.2,1.2-2.2,2.1-3.1,2.7
		c-0.9,0.6-2.2,0.9-3.7,0.9c-1.8,0-3.2-0.5-4.4-1.5c-1.2-1-1.8-2.5-1.8-4.4c0-1,0.2-1.9,0.7-2.8c0.5-0.9,1.3-1.7,2.5-2.4
		c1.2-0.8,2.9-1.5,5.2-2.2c0.6-0.2,1.3-0.4,2.1-0.7c0.8-0.2,1.6-0.4,2.4-0.7V341c0-2.2-0.3-3.7-0.9-4.4c-0.6-0.8-1.7-1.2-3.2-1.2
		c-0.3,0-0.6,0-0.9,0c-0.3,0-0.7,0.1-1,0.1l-0.6,2.6c-0.1,1.1-0.5,2-1,2.5c-0.5,0.5-1.2,0.8-2,0.8c-1.5,0-2.4-0.7-2.6-2.1
		c0.3-1.9,1.3-3.4,3-4.5c1.7-1.1,4-1.7,6.9-1.7c2.7,0,4.7,0.7,6,2c1.3,1.3,1.9,3.5,1.9,6.6v10.2c0,1.4,0.5,2.1,1.4,2.1
		c0.6,0,1.1-0.3,1.6-1l1.1,0.9c-0.6,1.1-1.2,1.8-2,2.3C449.6,356.7,448.7,356.9,447.6,356.9z M435.4,350.1c0,1.2,0.3,2.1,1,2.7
		c0.6,0.5,1.4,0.8,2.4,0.8c0.5,0,1.1-0.1,1.6-0.4c0.5-0.2,1.4-0.8,2.5-1.6v-7.4c-0.7,0.2-1.3,0.4-1.9,0.6c-0.6,0.2-1.1,0.4-1.5,0.5
		c-1.6,0.6-2.6,1.3-3.2,2.2C435.6,348.3,435.4,349.2,435.4,350.1z"/>
	<path class="st2" d="M462.4,357c-1.9,0-3.4-0.5-4.4-1.4c-1.1-0.9-1.6-2.4-1.6-4.5c0-0.7,0-1.4,0-2c0-0.6,0-1.4,0-2.3v-10H453v-2.4
		l3.8-0.5l1.8-6.4h3.8l-0.2,6.5h5.6v2.9h-5.7v13.9c0,1.2,0.2,2,0.7,2.5c0.5,0.5,1.1,0.8,1.8,0.8c0.8,0,1.8-0.4,2.9-1.2l1.1,1.2
		c-0.6,1-1.4,1.7-2.4,2.3S463.9,357,462.4,357z"/>
	<path class="st2" d="M470,356.3v-1.9l3.1-0.6c0-1.2,0-2.4,0-3.8c0-1.4,0-2.5,0-3.5v-2.2c0-1.3,0-2.4,0-3.2c0-0.9-0.1-1.8-0.1-2.7
		l-3.3-0.4v-1.8l8.5-3l0.8,0.5l-0.1,6.6v6.2c0,1,0,2.2,0,3.5c0,1.4,0,2.6,0,3.8l2.9,0.6v1.9H470z M476,328.8c-1,0-1.8-0.3-2.5-0.9
		c-0.7-0.6-1-1.4-1-2.4c0-1,0.3-1.8,1-2.4c0.7-0.6,1.5-0.9,2.5-0.9s1.8,0.3,2.5,0.9c0.7,0.6,1,1.4,1,2.4c0,1-0.3,1.8-1,2.4
		C477.8,328.5,477,328.8,476,328.8z"/>
	<path class="st2" d="M496,357c-2.1,0-4.1-0.5-5.8-1.4c-1.7-0.9-3.1-2.3-4.1-4.1c-1-1.8-1.5-3.9-1.5-6.4c0-2.5,0.5-4.7,1.6-6.4
		s2.4-3.1,4.2-4.1c1.7-0.9,3.6-1.4,5.6-1.4c2,0,3.9,0.5,5.6,1.4c1.7,0.9,3.1,2.3,4.2,4.1s1.6,3.9,1.6,6.5c0,2.5-0.5,4.6-1.5,6.4
		c-1,1.8-2.4,3.1-4.1,4.1S498.2,357,496,357z M496,354.7c1.7,0,3-0.8,3.9-2.4c0.9-1.6,1.3-4,1.3-7.2c0-6.5-1.7-9.7-5.2-9.7
		c-3.4,0-5.2,3.2-5.2,9.7c0,3.2,0.4,5.6,1.3,7.2C493,353.9,494.3,354.7,496,354.7z"/>
	<path class="st2" d="M510.7,356.3v-1.9l3.1-0.6c0-1.2,0-2.4,0-3.8c0-1.4,0-2.5,0-3.5V344c0-1.3,0-2.3,0-3.1c0-0.8-0.1-1.6-0.1-2.6
		l-3.3-0.4v-1.8l7.8-3l0.8,0.5l0.3,3.6c2.4-2.7,5.1-4.1,8-4.1c2,0,3.6,0.7,4.7,2c1.1,1.3,1.7,3.5,1.7,6.4v4.9c0,1.1,0,2.3,0,3.6
		c0,1.3,0,2.6,0,3.8l2.9,0.6v1.9H525v-1.9l3-0.6c0-1.2,0-2.4,0-3.7c0-1.3,0-2.5,0-3.6V342c0-1.8-0.3-3.1-0.8-3.8
		c-0.5-0.7-1.3-1.1-2.5-1.1c-1.7,0-3.4,0.8-5.3,2.3v7c0,1,0,2.2,0,3.6c0,1.3,0,2.6,0,3.8l2.8,0.6v1.9H510.7z"/>
	<path class="st2" d="M547.4,357c-1.4,0-2.8-0.2-4-0.5c-1.2-0.3-2.4-0.8-3.6-1.5l0-5.5h3.1l0.8,4.4c1.1,0.5,2.3,0.7,3.7,0.7
		c1.6,0,2.8-0.3,3.6-0.8c0.8-0.6,1.2-1.3,1.2-2.3c0-0.9-0.3-1.6-0.9-2.1c-0.6-0.5-1.7-1.1-3.2-1.6l-2.4-0.8
		c-1.8-0.6-3.1-1.4-4.2-2.5c-1-1.1-1.5-2.5-1.5-4.1c0-1.3,0.3-2.5,1-3.6c0.7-1.1,1.7-1.9,3-2.6c1.3-0.6,3-1,4.9-1
		c1.3,0,2.6,0.2,3.7,0.5s2.2,0.8,3.3,1.4l-0.2,4.9h-3.1l-0.8-3.9c-0.9-0.4-1.8-0.6-2.9-0.6c-1.3,0-2.2,0.3-2.9,0.8
		c-0.7,0.5-1,1.3-1,2.2c0,0.8,0.3,1.5,0.9,2s1.7,1,3.3,1.6l1.9,0.6c2.3,0.8,3.9,1.8,4.9,2.9c1,1.2,1.5,2.6,1.5,4.2
		c0,2.1-0.9,3.8-2.6,5.2C553,356.3,550.5,357,547.4,357z"/>
	<path class="st2" d="M588.8,356.9c-1.3,0-2.3-0.3-3.1-0.9c-0.8-0.6-1.3-1.5-1.6-2.6c-1.2,1.2-2.2,2.1-3.1,2.7
		c-0.9,0.6-2.2,0.9-3.7,0.9c-1.8,0-3.2-0.5-4.4-1.5c-1.2-1-1.8-2.5-1.8-4.4c0-1,0.2-1.9,0.7-2.8c0.5-0.9,1.3-1.7,2.5-2.4
		c1.2-0.8,2.9-1.5,5.2-2.2c0.6-0.2,1.3-0.4,2.1-0.7c0.8-0.2,1.6-0.4,2.4-0.7V341c0-2.2-0.3-3.7-0.9-4.4c-0.6-0.8-1.7-1.2-3.2-1.2
		c-0.3,0-0.6,0-0.9,0c-0.3,0-0.7,0.1-1,0.1l-0.6,2.6c-0.1,1.1-0.5,2-1,2.5c-0.5,0.5-1.2,0.8-2,0.8c-1.5,0-2.4-0.7-2.6-2.1
		c0.3-1.9,1.3-3.4,3-4.5c1.7-1.1,4-1.7,6.9-1.7c2.7,0,4.7,0.7,6,2c1.3,1.3,1.9,3.5,1.9,6.6v10.2c0,1.4,0.5,2.1,1.4,2.1
		c0.6,0,1.1-0.3,1.6-1l1.1,0.9c-0.6,1.1-1.2,1.8-2,2.3C590.8,356.7,589.9,356.9,588.8,356.9z M576.5,350.1c0,1.2,0.3,2.1,1,2.7
		c0.6,0.5,1.4,0.8,2.4,0.8c0.5,0,1.1-0.1,1.6-0.4c0.5-0.2,1.4-0.8,2.5-1.6v-7.4c-0.7,0.2-1.3,0.4-1.9,0.6c-0.6,0.2-1.1,0.4-1.5,0.5
		c-1.6,0.6-2.6,1.3-3.2,2.2C576.8,348.3,576.5,349.2,576.5,350.1z"/>
	<path class="st2" d="M595.1,356.3v-1.9l3.1-0.6c0-1.2,0-2.4,0-3.8c0-1.4,0-2.5,0-3.5V344c0-1.3,0-2.3,0-3.1c0-0.8-0.1-1.6-0.1-2.6
		l-3.3-0.4v-1.8l7.8-3l0.8,0.5l0.3,3.6c2.4-2.7,5.1-4.1,8-4.1c2,0,3.6,0.7,4.7,2c1.1,1.3,1.7,3.5,1.7,6.4v4.9c0,1.1,0,2.3,0,3.6
		c0,1.3,0,2.6,0,3.8l2.9,0.6v1.9h-11.6v-1.9l3-0.6c0-1.2,0-2.4,0-3.7c0-1.3,0-2.5,0-3.6V342c0-1.8-0.3-3.1-0.8-3.8
		c-0.5-0.7-1.3-1.1-2.5-1.1c-1.7,0-3.4,0.8-5.3,2.3v7c0,1,0,2.2,0,3.6c0,1.3,0,2.6,0,3.8l2.8,0.6v1.9H595.1z"/>
	<path class="st2" d="M640.5,356.9l-0.4-3c-0.9,1-1.8,1.8-2.9,2.3c-1.1,0.5-2.3,0.8-3.7,0.8c-1.8,0-3.5-0.5-4.9-1.4s-2.5-2.3-3.4-4
		c-0.8-1.8-1.2-3.8-1.2-6.3c0-2.5,0.5-4.6,1.4-6.4c0.9-1.8,2.2-3.2,3.7-4.2c1.6-1,3.2-1.5,5.1-1.5c1.2,0,2.3,0.2,3.2,0.7
		s1.9,1.2,2.7,2.2v-9.7l-3.7-0.5V324l8.6-2.1l0.7,0.4l-0.2,6.6v25l3.1,0.5v1.9L640.5,356.9z M630,345.2c0,2.9,0.5,5,1.6,6.4
		c1.1,1.4,2.5,2.1,4.1,2.1c0.8,0,1.6-0.2,2.2-0.5c0.7-0.3,1.3-0.8,1.9-1.4v-13.5c-1.4-1.2-2.7-1.8-4.1-1.8c-1.6,0-2.9,0.7-4.1,2.1
		C630.6,340,630,342.2,630,345.2z"/>
	<path class="st2" d="M225.5,409c-2.1,0-4-0.5-5.7-1.4c-1.7-0.9-3-2.3-4-4c-1-1.8-1.4-3.9-1.4-6.4c0-2.5,0.5-4.7,1.6-6.5
		s2.5-3.1,4.3-4.1c1.8-0.9,3.7-1.4,5.8-1.4c1.5,0,2.9,0.3,4.2,0.9c1.2,0.6,2.2,1.4,3,2.3c0.8,1,1.2,2.1,1.4,3.3
		c-0.4,1.4-1.3,2.1-2.7,2.1c-1.8,0-2.8-1.1-3.1-3.3l-0.6-2.8c-0.3-0.1-0.6-0.1-0.8-0.1c-0.3,0-0.6,0-0.8,0c-1.1,0-2.2,0.3-3.1,1
		c-1,0.6-1.7,1.6-2.3,3c-0.6,1.3-0.9,3.1-0.9,5.1c0,2.9,0.6,5,2,6.5c1.3,1.5,3,2.3,5.1,2.3c1.3,0,2.4-0.3,3.4-0.8
		c1-0.6,1.8-1.3,2.5-2.3l1.4,1c-0.8,1.9-2,3.4-3.5,4.3C229.7,408.5,227.8,409,225.5,409z"/>
	<path class="st2" d="M237.8,408.3v-1.9l3.1-0.6c0-1.2,0-2.4,0-3.8c0-1.4,0-2.5,0-3.5v-2.2c0-1.3,0-2.4,0-3.2c0-0.9-0.1-1.8-0.1-2.7
		l-3.3-0.4v-1.8l8.5-3l0.8,0.5l-0.1,6.6v6.2c0,1,0,2.2,0,3.5c0,1.4,0,2.6,0,3.8l2.9,0.6v1.9H237.8z M243.7,380.8
		c-1,0-1.8-0.3-2.5-0.9c-0.7-0.6-1-1.4-1-2.4c0-1,0.3-1.8,1-2.4c0.7-0.6,1.5-0.9,2.5-0.9c1,0,1.8,0.3,2.5,0.9c0.7,0.6,1,1.4,1,2.4
		c0,1-0.3,1.8-1,2.4C245.5,380.5,244.7,380.8,243.7,380.8z"/>
	<path class="st2" d="M265.1,387.8v-2h8.9v2l-2.6,0.6l-7.7,20.2h-2.8l-8.5-20.3l-2.4-0.4v-2h12.4v2l-3.6,0.6l5.2,13.6l4.7-13.6
		L265.1,387.8z"/>
	<path class="st2" d="M275.9,408.3v-1.9l3.1-0.6c0-1.2,0-2.4,0-3.8c0-1.4,0-2.5,0-3.5v-2.2c0-1.3,0-2.4,0-3.2c0-0.9-0.1-1.8-0.1-2.7
		l-3.3-0.4v-1.8l8.5-3l0.8,0.5l-0.1,6.6v6.2c0,1,0,2.2,0,3.5c0,1.4,0,2.6,0,3.8l2.9,0.6v1.9H275.9z M281.9,380.8
		c-1,0-1.8-0.3-2.5-0.9c-0.7-0.6-1-1.4-1-2.4c0-1,0.3-1.8,1-2.4c0.7-0.6,1.5-0.9,2.5-0.9c1,0,1.8,0.3,2.5,0.9c0.7,0.6,1,1.4,1,2.4
		c0,1-0.3,1.8-1,2.4C283.7,380.5,282.9,380.8,281.9,380.8z"/>
	<path class="st2" d="M290.1,408.3v-1.9l3.2-0.6c0-1.2,0.1-2.4,0.1-3.7c0-1.2,0-2.4,0-3.7v-20.2l-3.4-0.5V376l8.6-2.1l0.7,0.4
		l-0.2,6.6v17.5c0,1.2,0,2.4,0,3.7c0,1.2,0,2.4,0.1,3.7l3.2,0.6v1.9H290.1z"/>
	<path class="st2" d="M323.4,409c-1.4,0-2.8-0.2-4-0.5c-1.2-0.3-2.4-0.8-3.6-1.5l0-5.5h3.1l0.8,4.4c1.1,0.5,2.4,0.7,3.7,0.7
		c1.6,0,2.8-0.3,3.6-0.8c0.8-0.6,1.2-1.3,1.2-2.3c0-0.9-0.3-1.6-0.9-2.1c-0.6-0.5-1.7-1.1-3.2-1.6l-2.4-0.8
		c-1.8-0.6-3.1-1.4-4.2-2.5c-1-1.1-1.5-2.5-1.5-4.1c0-1.3,0.3-2.5,1-3.6c0.7-1.1,1.7-1.9,3-2.6c1.3-0.6,3-1,4.9-1
		c1.3,0,2.6,0.2,3.7,0.5c1.1,0.3,2.2,0.8,3.3,1.4l-0.2,4.9h-3.1l-0.8-3.9c-0.9-0.4-1.8-0.6-2.9-0.6c-1.3,0-2.2,0.3-2.9,0.8
		c-0.7,0.5-1,1.3-1,2.2c0,0.8,0.3,1.5,0.9,2c0.6,0.5,1.7,1,3.3,1.6l1.9,0.6c2.3,0.8,3.9,1.8,4.9,2.9c1,1.2,1.5,2.6,1.5,4.2
		c0,2.1-0.9,3.8-2.6,5.2C329,408.3,326.6,409,323.4,409z"/>
	<path class="st2" d="M347.9,409c-2.1,0-4-0.5-5.8-1.4c-1.7-0.9-3.1-2.3-4.1-4.1c-1-1.8-1.5-3.9-1.5-6.4c0-2.5,0.5-4.7,1.6-6.4
		c1-1.8,2.4-3.1,4.2-4.1c1.7-0.9,3.6-1.4,5.6-1.4c2,0,3.9,0.5,5.6,1.4c1.7,0.9,3.1,2.3,4.2,4.1c1.1,1.8,1.6,3.9,1.6,6.5
		c0,2.5-0.5,4.6-1.5,6.4c-1,1.8-2.4,3.1-4.1,4.1C351.9,408.5,350,409,347.9,409z M347.9,406.7c1.7,0,3-0.8,3.9-2.4
		c0.9-1.6,1.3-4,1.3-7.2c0-6.5-1.7-9.7-5.2-9.7c-3.4,0-5.2,3.2-5.2,9.7c0,3.2,0.4,5.6,1.3,7.2C344.9,405.9,346.2,406.7,347.9,406.7z
		"/>
	<path class="st2" d="M374,409c-2.1,0-4-0.5-5.7-1.4c-1.7-0.9-3-2.3-4-4c-1-1.8-1.4-3.9-1.4-6.4c0-2.5,0.5-4.7,1.6-6.5
		s2.5-3.1,4.3-4.1c1.8-0.9,3.7-1.4,5.8-1.4c1.5,0,2.9,0.3,4.2,0.9c1.2,0.6,2.2,1.4,3,2.3c0.8,1,1.2,2.1,1.4,3.3
		c-0.4,1.4-1.3,2.1-2.7,2.1c-1.8,0-2.8-1.1-3.1-3.3l-0.6-2.8c-0.3-0.1-0.6-0.1-0.8-0.1c-0.3,0-0.6,0-0.8,0c-1.1,0-2.2,0.3-3.1,1
		c-1,0.6-1.7,1.6-2.3,3c-0.6,1.3-0.9,3.1-0.9,5.1c0,2.9,0.6,5,2,6.5c1.3,1.5,3,2.3,5.1,2.3c1.3,0,2.4-0.3,3.4-0.8
		c1-0.6,1.8-1.3,2.5-2.3l1.4,1c-0.8,1.9-2,3.4-3.5,4.3C378.1,408.5,376.2,409,374,409z"/>
	<path class="st2" d="M386.2,408.3v-1.9l3.1-0.6c0-1.2,0-2.4,0-3.8c0-1.4,0-2.5,0-3.5v-2.2c0-1.3,0-2.4,0-3.2c0-0.9-0.1-1.8-0.1-2.7
		l-3.3-0.4v-1.8l8.5-3l0.8,0.5l-0.1,6.6v6.2c0,1,0,2.2,0,3.5c0,1.4,0,2.6,0,3.8l2.9,0.6v1.9H386.2z M392.1,380.8
		c-1,0-1.8-0.3-2.5-0.9c-0.7-0.6-1-1.4-1-2.4c0-1,0.3-1.8,1-2.4c0.7-0.6,1.5-0.9,2.5-0.9c1,0,1.8,0.3,2.5,0.9c0.7,0.6,1,1.4,1,2.4
		c0,1-0.3,1.8-1,2.4C394,380.5,393.1,380.8,392.1,380.8z"/>
	<path class="st2" d="M411.9,409c-2.2,0-4.1-0.5-5.8-1.4c-1.7-0.9-3-2.3-3.9-4.1c-0.9-1.8-1.4-3.9-1.4-6.3c0-2.5,0.5-4.7,1.6-6.5
		s2.5-3.2,4.2-4.1c1.7-1,3.6-1.4,5.6-1.4c1.8,0,3.5,0.4,4.8,1.2s2.5,1.9,3.2,3.3c0.8,1.4,1.2,3.1,1.2,5c0,1-0.1,1.9-0.3,2.6h-14.4
		c0.1,2.7,0.8,4.7,2.1,6.1c1.3,1.3,2.9,2,4.9,2c1.4,0,2.5-0.3,3.5-0.8c1-0.5,1.8-1.3,2.6-2.1l1.4,1.2c-0.9,1.7-2.2,3.1-3.7,4
		S414.1,409,411.9,409z M411.9,387.4c-0.8,0-1.5,0.2-2.2,0.7c-0.7,0.5-1.4,1.3-1.9,2.4c-0.5,1.1-0.8,2.6-1,4.5h6.4
		c1.1,0,1.9-0.2,2.3-0.7c0.4-0.5,0.6-1.1,0.6-2c0-1.4-0.4-2.6-1.2-3.5C414.1,387.9,413.1,387.4,411.9,387.4z"/>
	<path class="st2" d="M433.2,409c-1.9,0-3.4-0.5-4.4-1.4c-1.1-0.9-1.6-2.4-1.6-4.5c0-0.7,0-1.4,0-2c0-0.6,0-1.4,0-2.3v-10h-3.5v-2.4
		l3.8-0.5l1.8-6.4h3.8l-0.2,6.5h5.6v2.9H433v13.9c0,1.2,0.2,2,0.7,2.5c0.5,0.5,1.1,0.8,1.8,0.8c0.8,0,1.8-0.4,2.9-1.2l1.1,1.2
		c-0.6,1-1.4,1.7-2.4,2.3S434.7,409,433.2,409z"/>
	<path class="st2" d="M454.8,387.7v-1.9h9v1.9l-2.6,0.5l-8,21c-1.3,3.6-2.7,6.3-4.1,8c-1.4,1.7-3.1,2.6-5.1,2.6
		c-1.2,0-2.3-0.3-3.2-0.9c-0.9-0.6-1.4-1.4-1.4-2.4c0.2-0.8,0.6-1.5,1.3-1.9c0.7-0.4,1.4-0.6,2.2-0.6c0.6,0,1.2,0.1,1.9,0.4
		c0.6,0.3,1.2,0.8,1.9,1.6l0.3,0.4c0.8-0.8,1.6-1.7,2.2-2.8s1.1-2.2,1.6-3.4l0.1-0.3l-8.9-21.8l-2.4-0.4v-1.9h12.3v1.9l-3.7,0.5
		l5.3,14.4l5.1-14.3L454.8,387.7z"/>
	<path class="st2" d="M475.7,408.3v-1.9l3.2-0.6c0-1.2,0.1-2.4,0.1-3.7s0-2.4,0-3.7v-20.2l-3.4-0.5V376l8.6-2.1l0.7,0.4l-0.2,6.6
		v17.5c0,1.2,0,2.4,0,3.7c0,1.2,0,2.4,0.1,3.7l3.2,0.6v1.9H475.7z"/>
	<path class="st2" d="M501.9,409c-2.2,0-4.1-0.5-5.8-1.4c-1.7-0.9-3-2.3-3.9-4.1c-0.9-1.8-1.4-3.9-1.4-6.3c0-2.5,0.5-4.7,1.6-6.5
		s2.5-3.2,4.2-4.1c1.7-1,3.6-1.4,5.6-1.4c1.8,0,3.5,0.4,4.8,1.2s2.5,1.9,3.2,3.3c0.8,1.4,1.2,3.1,1.2,5c0,1-0.1,1.9-0.3,2.6h-14.4
		c0.1,2.7,0.8,4.7,2.1,6.1c1.3,1.3,2.9,2,4.9,2c1.4,0,2.5-0.3,3.5-0.8c1-0.5,1.8-1.3,2.6-2.1l1.4,1.2c-0.9,1.7-2.2,3.1-3.7,4
		S504,409,501.9,409z M501.9,387.4c-0.8,0-1.5,0.2-2.2,0.7c-0.7,0.5-1.4,1.3-1.9,2.4c-0.5,1.1-0.8,2.6-1,4.5h6.4
		c1.1,0,1.9-0.2,2.3-0.7c0.4-0.5,0.6-1.1,0.6-2c0-1.4-0.4-2.6-1.2-3.5C504,387.9,503,387.4,501.9,387.4z"/>
	<path class="st2" d="M532.5,408.9c-1.3,0-2.3-0.3-3.1-0.9c-0.8-0.6-1.3-1.5-1.6-2.6c-1.2,1.2-2.2,2.1-3.1,2.7
		c-0.9,0.6-2.2,0.9-3.7,0.9c-1.8,0-3.2-0.5-4.4-1.5c-1.2-1-1.8-2.5-1.8-4.4c0-1,0.2-1.9,0.7-2.8c0.5-0.9,1.3-1.7,2.5-2.4
		c1.2-0.8,2.9-1.5,5.2-2.2c0.6-0.2,1.3-0.4,2.1-0.7c0.8-0.2,1.6-0.4,2.4-0.7V393c0-2.2-0.3-3.7-0.9-4.4c-0.6-0.8-1.7-1.2-3.2-1.2
		c-0.3,0-0.6,0-0.9,0c-0.3,0-0.7,0.1-1,0.1l-0.6,2.6c-0.1,1.1-0.5,2-1,2.5c-0.5,0.5-1.2,0.8-2,0.8c-1.5,0-2.4-0.7-2.6-2.1
		c0.3-1.9,1.3-3.4,3-4.5c1.7-1.1,4-1.7,6.9-1.7c2.7,0,4.7,0.7,6,2c1.3,1.3,1.9,3.5,1.9,6.6v10.2c0,1.4,0.5,2.1,1.4,2.1
		c0.6,0,1.1-0.3,1.6-1l1.1,0.9c-0.6,1.1-1.2,1.8-2,2.3C534.5,408.7,533.6,408.9,532.5,408.9z M520.2,402.1c0,1.2,0.3,2.1,1,2.7
		c0.6,0.5,1.4,0.8,2.4,0.8c0.5,0,1.1-0.1,1.6-0.4c0.5-0.2,1.4-0.8,2.5-1.6v-7.4c-0.7,0.2-1.3,0.4-1.9,0.6c-0.6,0.2-1.1,0.4-1.5,0.5
		c-1.6,0.6-2.6,1.3-3.2,2.2C520.5,400.3,520.2,401.2,520.2,402.1z"/>
	<path class="st2" d="M555.6,408.9l-0.4-3c-0.9,1-1.8,1.8-2.9,2.3c-1.1,0.5-2.3,0.8-3.7,0.8c-1.8,0-3.5-0.5-4.9-1.4s-2.5-2.3-3.4-4
		c-0.8-1.8-1.2-3.8-1.2-6.3c0-2.5,0.5-4.6,1.4-6.4c0.9-1.8,2.2-3.2,3.7-4.2c1.6-1,3.2-1.5,5.1-1.5c1.2,0,2.3,0.2,3.2,0.7
		s1.9,1.2,2.7,2.2v-9.7l-3.7-0.5V376l8.6-2.1l0.7,0.4l-0.2,6.6v25l3.1,0.5v1.9L555.6,408.9z M545.1,397.2c0,2.9,0.5,5,1.6,6.4
		c1.1,1.4,2.5,2.1,4.1,2.1c0.8,0,1.6-0.2,2.2-0.5c0.7-0.3,1.3-0.8,1.9-1.4v-13.5c-1.4-1.2-2.7-1.8-4.1-1.8c-1.6,0-2.9,0.7-4.1,2.1
		C545.7,392,545.1,394.2,545.1,397.2z"/>
	<path class="st2" d="M577.5,409c-2.2,0-4.1-0.5-5.8-1.4c-1.7-0.9-3-2.3-3.9-4.1c-0.9-1.8-1.4-3.9-1.4-6.3c0-2.5,0.5-4.7,1.6-6.5
		s2.5-3.2,4.2-4.1c1.7-1,3.6-1.4,5.6-1.4c1.8,0,3.5,0.4,4.8,1.2s2.5,1.9,3.2,3.3c0.8,1.4,1.2,3.1,1.2,5c0,1-0.1,1.9-0.3,2.6h-14.4
		c0.1,2.7,0.8,4.7,2.1,6.1c1.3,1.3,2.9,2,4.9,2c1.4,0,2.5-0.3,3.5-0.8c1-0.5,1.8-1.3,2.6-2.1l1.4,1.2c-0.9,1.7-2.2,3.1-3.7,4
		S579.7,409,577.5,409z M577.5,387.4c-0.8,0-1.5,0.2-2.2,0.7c-0.7,0.5-1.4,1.3-1.9,2.4c-0.5,1.1-0.8,2.6-1,4.5h6.4
		c1.1,0,1.9-0.2,2.3-0.7c0.4-0.5,0.6-1.1,0.6-2c0-1.4-0.4-2.6-1.2-3.5C579.6,387.9,578.6,387.4,577.5,387.4z"/>
	<path class="st2" d="M590.5,408.3v-1.9l3-0.6c0-1.2,0-2.5,0-3.8c0-1.4,0-2.5,0-3.5V396c0-1.3,0-2.3,0-3.1c0-0.8-0.1-1.6-0.1-2.6
		l-3.3-0.4v-1.8l7.8-3l0.8,0.5l0.5,5.5c0.7-1.9,1.7-3.4,2.9-4.5s2.4-1.6,3.7-1.6c0.8,0,1.6,0.2,2.3,0.7s1.2,1.1,1.4,1.9
		c0,1.2-0.3,2.1-0.8,2.7c-0.5,0.6-1.3,1-2.2,1c-1.1,0-2.2-0.6-3.2-1.7l-0.4-0.5c-1.7,1.4-2.9,3.3-3.6,5.8v3.4c0,1,0,2.1,0,3.5
		s0,2.6,0,3.7l3.9,0.8v1.9H590.5z"/>
	<path class="st2" d="M618.7,409c-1.4,0-2.8-0.2-4-0.5c-1.2-0.3-2.4-0.8-3.6-1.5l0-5.5h3.1l0.8,4.4c1.1,0.5,2.3,0.7,3.7,0.7
		c1.6,0,2.8-0.3,3.6-0.8c0.8-0.6,1.2-1.3,1.2-2.3c0-0.9-0.3-1.6-0.9-2.1c-0.6-0.5-1.7-1.1-3.2-1.6l-2.4-0.8
		c-1.8-0.6-3.1-1.4-4.2-2.5c-1-1.1-1.5-2.5-1.5-4.1c0-1.3,0.3-2.5,1-3.6c0.7-1.1,1.7-1.9,3-2.6c1.3-0.6,3-1,4.9-1
		c1.3,0,2.6,0.2,3.7,0.5s2.2,0.8,3.3,1.4L627,392h-3.1l-0.8-3.9c-0.9-0.4-1.8-0.6-2.9-0.6c-1.3,0-2.2,0.3-2.9,0.8
		c-0.7,0.5-1,1.3-1,2.2c0,0.8,0.3,1.5,0.9,2s1.7,1,3.3,1.6l1.9,0.6c2.3,0.8,3.9,1.8,4.9,2.9c1,1.2,1.5,2.6,1.5,4.2
		c0,2.1-0.9,3.8-2.6,5.2C624.3,408.3,621.9,409,618.7,409z"/>
	<path class="st2" d="M642.1,408.3v-1.9l3.1-0.6c0-1.2,0-2.4,0-3.8c0-1.4,0-2.5,0-3.5v-2.2c0-1.3,0-2.4,0-3.2c0-0.9-0.1-1.8-0.1-2.7
		l-3.3-0.4v-1.8l8.5-3l0.8,0.5l-0.1,6.6v6.2c0,1,0,2.2,0,3.5c0,1.4,0,2.6,0,3.8l2.9,0.6v1.9H642.1z M648,380.8c-1,0-1.8-0.3-2.5-0.9
		c-0.7-0.6-1-1.4-1-2.4c0-1,0.3-1.8,1-2.4c0.7-0.6,1.5-0.9,2.5-0.9s1.8,0.3,2.5,0.9c0.7,0.6,1,1.4,1,2.4c0,1-0.3,1.8-1,2.4
		C649.9,380.5,649,380.8,648,380.8z"/>
	<path class="st2" d="M656.6,408.3v-1.9l3.1-0.6c0-1.2,0-2.4,0-3.8c0-1.4,0-2.5,0-3.5V396c0-1.3,0-2.3,0-3.1c0-0.8-0.1-1.6-0.1-2.6
		l-3.3-0.4v-1.8l7.8-3l0.8,0.5l0.3,3.6c2.4-2.7,5.1-4.1,8-4.1c2,0,3.6,0.7,4.7,2c1.1,1.3,1.7,3.5,1.7,6.4v4.9c0,1.1,0,2.3,0,3.6
		c0,1.3,0,2.6,0,3.8l2.9,0.6v1.9h-11.6v-1.9l3-0.6c0-1.2,0-2.4,0-3.7c0-1.3,0-2.5,0-3.6V394c0-1.8-0.3-3.1-0.8-3.8
		c-0.5-0.7-1.3-1.1-2.5-1.1c-1.7,0-3.4,0.8-5.3,2.3v7c0,1,0,2.2,0,3.6c0,1.3,0,2.6,0,3.8l2.8,0.6v1.9H656.6z"/>
	<path class="st2" d="M214.6,431.4v-2.2h14.3v2.2l-4.1,0.5c0,1.9-0.1,3.9-0.1,5.9c0,2,0,4,0,6v2.9c0,1.7,0,3.4,0,5.4
		c0,1.9,0,3.9,0.1,5.8h9.5l1.3-6.5h3.3l-0.5,9h-23.8v-2.2l3.9-0.4c0.1-2,0.1-3.9,0.1-5.9s0-3.8,0-5.6v-2.5c0-2,0-4,0-6
		c0-2,0-4-0.1-5.9L214.6,431.4z"/>
	<path class="st2" d="M259.9,460.9c-1.3,0-2.3-0.3-3.1-0.9c-0.8-0.6-1.3-1.5-1.6-2.6c-1.2,1.2-2.2,2.1-3.1,2.7
		c-0.9,0.6-2.2,0.9-3.7,0.9c-1.8,0-3.2-0.5-4.4-1.5c-1.2-1-1.8-2.5-1.8-4.4c0-1,0.2-1.9,0.7-2.8c0.5-0.9,1.3-1.7,2.5-2.4
		c1.2-0.8,2.9-1.5,5.2-2.2c0.6-0.2,1.3-0.4,2.1-0.7c0.8-0.2,1.6-0.4,2.4-0.7V445c0-2.2-0.3-3.7-0.9-4.4c-0.6-0.8-1.7-1.2-3.2-1.2
		c-0.3,0-0.6,0-0.9,0c-0.3,0-0.7,0.1-1,0.1l-0.6,2.6c-0.1,1.1-0.5,2-1,2.5c-0.5,0.5-1.2,0.8-2,0.8c-1.5,0-2.4-0.7-2.6-2.1
		c0.3-1.9,1.3-3.4,3-4.5c1.7-1.1,4-1.7,6.9-1.7c2.7,0,4.7,0.7,6,2c1.3,1.3,1.9,3.5,1.9,6.6v10.2c0,1.4,0.5,2.1,1.4,2.1
		c0.6,0,1.1-0.3,1.6-1l1.1,0.9c-0.6,1.1-1.2,1.8-2,2.3C262,460.7,261.1,460.9,259.9,460.9z M247.7,454.1c0,1.2,0.3,2.1,1,2.7
		c0.6,0.5,1.4,0.8,2.4,0.8c0.5,0,1.1-0.1,1.6-0.4c0.5-0.2,1.4-0.8,2.5-1.6v-7.4c-0.7,0.2-1.3,0.4-1.9,0.6c-0.6,0.2-1.1,0.4-1.5,0.5
		c-1.6,0.6-2.6,1.3-3.2,2.2C248,452.3,247.7,453.2,247.7,454.1z"/>
	<path class="st2" d="M274.8,461c-1.9,0-3.4-0.5-4.4-1.4c-1.1-0.9-1.6-2.4-1.6-4.5c0-0.7,0-1.4,0-2c0-0.6,0-1.4,0-2.3v-10h-3.5v-2.4
		l3.8-0.5l1.8-6.4h3.8l-0.2,6.5h5.6v2.9h-5.7v13.9c0,1.2,0.2,2,0.7,2.5c0.5,0.5,1.1,0.8,1.8,0.8c0.8,0,1.8-0.4,2.9-1.2l1.1,1.2
		c-0.6,1-1.4,1.7-2.4,2.3C277.5,460.7,276.3,461,274.8,461z"/>
	<path class="st2" d="M282.4,460.3v-1.9l3.1-0.6c0-1.2,0-2.4,0-3.8c0-1.4,0-2.5,0-3.5v-2.2c0-1.3,0-2.4,0-3.2c0-0.9-0.1-1.8-0.1-2.7
		l-3.3-0.4v-1.8l8.5-3l0.8,0.5l-0.1,6.6v6.2c0,1,0,2.2,0,3.5c0,1.4,0,2.6,0,3.8l2.9,0.6v1.9H282.4z M288.3,432.8
		c-1,0-1.8-0.3-2.5-0.9c-0.7-0.6-1-1.4-1-2.4c0-1,0.3-1.8,1-2.4c0.7-0.6,1.5-0.9,2.5-0.9c1,0,1.8,0.3,2.5,0.9c0.7,0.6,1,1.4,1,2.4
		c0,1-0.3,1.8-1,2.4C290.2,432.5,289.3,432.8,288.3,432.8z"/>
	<path class="st2" d="M296.9,460.3v-1.9l3.1-0.6c0-1.2,0-2.4,0-3.8c0-1.4,0-2.5,0-3.5V448c0-1.3,0-2.3,0-3.1c0-0.8-0.1-1.6-0.1-2.6
		l-3.3-0.4v-1.8l7.8-3l0.8,0.5l0.3,3.6c2.4-2.7,5.1-4.1,8-4.1c2,0,3.6,0.7,4.7,2c1.1,1.3,1.7,3.5,1.7,6.4v4.9c0,1.1,0,2.3,0,3.6
		c0,1.3,0,2.6,0,3.8l2.9,0.6v1.9h-11.6v-1.9l3-0.6c0-1.2,0-2.4,0-3.7c0-1.3,0-2.5,0-3.6V446c0-1.8-0.3-3.1-0.8-3.8
		c-0.5-0.7-1.3-1.1-2.5-1.1c-1.7,0-3.4,0.8-5.3,2.3v7c0,1,0,2.2,0,3.6c0,1.3,0,2.6,0,3.8l2.8,0.6v1.9H296.9z"/>
	<path class="st2" d="M334.9,460.3v-2.2l3.9-0.6l9.8-28.6h3.9l9.8,28.8l3.2,0.4v2.2h-13.6v-2.2l4.1-0.5l-2.3-7h-10.2l-2.3,6.8
		l4.1,0.6v2.2H334.9z M348.7,435.2l-4.3,13h8.6L348.7,435.2z"/>
	<path class="st2" d="M367.6,460.3v-1.9l3.1-0.6c0-1.2,0-2.4,0-3.8c0-1.4,0-2.5,0-3.5V448c0-1.3,0-2.3,0-3.1c0-0.8-0.1-1.6-0.1-2.6
		l-3.3-0.4v-1.8l7.8-3l0.8,0.5l0.3,3.7c1.1-1.3,2.4-2.3,3.7-3c1.3-0.7,2.7-1.1,4.2-1.1c3,0,5,1.4,5.9,4.3c1.3-1.5,2.6-2.6,3.9-3.3
		c1.3-0.7,2.7-1,4.2-1c2.1,0,3.7,0.7,4.8,2c1.1,1.3,1.6,3.4,1.6,6.3v5c0,1.1,0,2.3,0,3.6c0,1.3,0,2.6,0,3.8l2.9,0.6v1.9h-11.5v-1.9
		l2.9-0.6c0-1.2,0-2.4,0-3.7c0-1.3,0-2.5,0-3.6v-4.3c0-2-0.3-3.3-0.8-4c-0.5-0.7-1.4-1-2.6-1c-1.7,0-3.4,0.8-5.2,2.4
		c0,0.3,0.1,0.6,0.1,1c0,0.3,0,0.7,0,1.1v4.9c0,1.1,0,2.3,0,3.6c0,1.3,0,2.6,0,3.8l2.8,0.6v1.9h-11.5v-1.9l3-0.6c0-1.2,0-2.4,0-3.7
		c0-1.3,0-2.5,0-3.6v-4.2c0-1.9-0.2-3.2-0.7-4s-1.3-1.1-2.6-1.1c-0.9,0-1.7,0.2-2.6,0.6c-0.9,0.4-1.7,1-2.5,1.7v7c0,1,0,2.2,0,3.6
		c0,1.3,0,2.6,0,3.8l2.8,0.6v1.9H367.6z"/>
	<path class="st2" d="M421.3,461c-2.2,0-4.1-0.5-5.8-1.4c-1.7-0.9-3-2.3-3.9-4.1c-0.9-1.8-1.4-3.9-1.4-6.3c0-2.5,0.5-4.7,1.6-6.5
		s2.5-3.2,4.2-4.1c1.7-1,3.6-1.4,5.6-1.4c1.8,0,3.5,0.4,4.8,1.2s2.5,1.9,3.2,3.3c0.8,1.4,1.2,3.1,1.2,5c0,1-0.1,1.9-0.3,2.6h-14.4
		c0.1,2.7,0.8,4.7,2.1,6.1c1.3,1.3,2.9,2,4.9,2c1.4,0,2.5-0.3,3.5-0.8c1-0.5,1.8-1.3,2.6-2.1l1.4,1.2c-0.9,1.7-2.2,3.1-3.7,4
		S423.5,461,421.3,461z M421.3,439.4c-0.8,0-1.5,0.2-2.2,0.7c-0.7,0.5-1.4,1.3-1.9,2.4c-0.5,1.1-0.8,2.6-1,4.5h6.4
		c1.1,0,1.9-0.2,2.3-0.7c0.4-0.5,0.6-1.1,0.6-2c0-1.4-0.4-2.6-1.2-3.5C423.5,439.9,422.5,439.4,421.3,439.4z"/>
	<path class="st2" d="M434.4,460.3v-1.9l3-0.6c0-1.2,0-2.5,0-3.8c0-1.4,0-2.5,0-3.5V448c0-1.3,0-2.3,0-3.1c0-0.8-0.1-1.6-0.1-2.6
		l-3.3-0.4v-1.8l7.8-3l0.8,0.5l0.5,5.5c0.7-1.9,1.7-3.4,2.9-4.5s2.4-1.6,3.7-1.6c0.8,0,1.6,0.2,2.3,0.7s1.2,1.1,1.4,1.9
		c0,1.2-0.3,2.1-0.8,2.7c-0.5,0.6-1.3,1-2.2,1c-1.1,0-2.2-0.6-3.2-1.7l-0.4-0.5c-1.7,1.4-2.9,3.3-3.6,5.8v3.4c0,1,0,2.1,0,3.5
		s0,2.6,0,3.7l3.9,0.8v1.9H434.4z"/>
	<path class="st2" d="M455,460.3v-1.9l3.1-0.6c0-1.2,0-2.4,0-3.8c0-1.4,0-2.5,0-3.5v-2.2c0-1.3,0-2.4,0-3.2c0-0.9-0.1-1.8-0.1-2.7
		l-3.3-0.4v-1.8l8.5-3l0.8,0.5l-0.1,6.6v6.2c0,1,0,2.2,0,3.5c0,1.4,0,2.6,0,3.8l2.9,0.6v1.9H455z M461,432.8c-1,0-1.8-0.3-2.5-0.9
		c-0.7-0.6-1-1.4-1-2.4c0-1,0.3-1.8,1-2.4c0.7-0.6,1.5-0.9,2.5-0.9s1.8,0.3,2.5,0.9c0.7,0.6,1,1.4,1,2.4c0,1-0.3,1.8-1,2.4
		C462.8,432.5,462,432.8,461,432.8z"/>
	<path class="st2" d="M480.8,461c-2.1,0-4-0.5-5.7-1.4c-1.7-0.9-3-2.3-4-4c-1-1.8-1.4-3.9-1.4-6.4c0-2.5,0.5-4.7,1.6-6.5
		s2.5-3.1,4.3-4.1c1.8-0.9,3.7-1.4,5.8-1.4c1.5,0,2.9,0.3,4.2,0.9c1.2,0.6,2.2,1.4,3,2.3c0.8,1,1.2,2.1,1.4,3.3
		c-0.4,1.4-1.3,2.1-2.7,2.1c-1.8,0-2.8-1.1-3.1-3.3l-0.6-2.8c-0.3-0.1-0.6-0.1-0.8-0.1c-0.3,0-0.6,0-0.8,0c-1.1,0-2.2,0.3-3.1,1
		s-1.7,1.6-2.3,3c-0.6,1.3-0.9,3.1-0.9,5.1c0,2.9,0.6,5,2,6.5c1.3,1.5,3,2.3,5.1,2.3c1.3,0,2.4-0.3,3.4-0.8c1-0.6,1.8-1.3,2.5-2.3
		l1.4,1c-0.8,1.9-2,3.4-3.5,4.3C484.9,460.5,483,461,480.8,461z"/>
	<path class="st2" d="M510.8,460.9c-1.3,0-2.3-0.3-3.1-0.9c-0.8-0.6-1.3-1.5-1.6-2.6c-1.2,1.2-2.2,2.1-3.1,2.7
		c-0.9,0.6-2.2,0.9-3.7,0.9c-1.8,0-3.2-0.5-4.4-1.5c-1.2-1-1.8-2.5-1.8-4.4c0-1,0.2-1.9,0.7-2.8c0.5-0.9,1.3-1.7,2.5-2.4
		c1.2-0.8,2.9-1.5,5.2-2.2c0.6-0.2,1.3-0.4,2.1-0.7c0.8-0.2,1.6-0.4,2.4-0.7V445c0-2.2-0.3-3.7-0.9-4.4c-0.6-0.8-1.7-1.2-3.2-1.2
		c-0.3,0-0.6,0-0.9,0c-0.3,0-0.7,0.1-1,0.1l-0.6,2.6c-0.1,1.1-0.5,2-1,2.5c-0.5,0.5-1.2,0.8-2,0.8c-1.5,0-2.4-0.7-2.6-2.1
		c0.3-1.9,1.3-3.4,3-4.5c1.7-1.1,4-1.7,6.9-1.7c2.7,0,4.7,0.7,6,2c1.3,1.3,1.9,3.5,1.9,6.6v10.2c0,1.4,0.5,2.1,1.4,2.1
		c0.6,0,1.1-0.3,1.6-1l1.1,0.9c-0.6,1.1-1.2,1.8-2,2.3C512.9,460.7,511.9,460.9,510.8,460.9z M498.6,454.1c0,1.2,0.3,2.1,1,2.7
		c0.6,0.5,1.4,0.8,2.4,0.8c0.5,0,1.1-0.1,1.6-0.4c0.5-0.2,1.4-0.8,2.5-1.6v-7.4c-0.7,0.2-1.3,0.4-1.9,0.6c-0.6,0.2-1.1,0.4-1.5,0.5
		c-1.6,0.6-2.6,1.3-3.2,2.2C498.9,452.3,498.6,453.2,498.6,454.1z"/>
	<path class="st2" d="M522.8,461c-1.1,0-2-0.4-2.7-1.1c-0.7-0.7-1.1-1.6-1.1-2.6c0-1.1,0.4-2,1.1-2.7c0.7-0.8,1.6-1.1,2.7-1.1
		s2,0.4,2.7,1.1s1.1,1.7,1.1,2.7c0,1-0.4,1.9-1.1,2.6C524.7,460.6,523.8,461,522.8,461z"/>
</g>
</svg>
