<svg version="1.1" id="Capa_1" xmlns="http://www.w3.org/2000/svg" x="0" y="0" viewBox="0 0 850.4 645" xml:space="preserve"><style>.st1{enable-background:new}.st2{fill:#fff}</style><path d="M378.3 566.5l-3.3-3.3c-.4.4-1.1.9-1.7 1.4-1.7-.7-3.2-1.3-4.7-1.8-1.4-.5-3.9-1.6-4.2-1.1-2.1 2.6-2.9-.7-4.2-.8-6.9-.9-13.8-1.7-20.3-4.8-1.5-.8-4.1.6-7.2 1.2-.1-.1-1-.8-1.9-1.4-.6.5-1.2 1.1-2 1.7-.4-1.2-.8-2.2-1.2-3.4-1.4-.2-2.8-.3-4.2-.5-.4-1.1-.8-2.1-1.5-3.7-3.2.4-6.6.9-10 1.2-.8.1-1.7-.8-2.5-.8-8.3-.4-14.7-6.6-22.9-7.4-1.4-.1-2.5-2.6-4.6-5-8.8-.4-17.1-4-20.5-14.9-.7.7-1.1 1.2-1.9 2.1-1.9-1.5-3.8-2.9-6.5-5-6.8.2-12.3-5.7-19.1-9.1-.2.9-.4 1.7-.7 2.8-1.8.6-3.9 1.2-6.4 2-.2-.5-.5-1.4-.9-2.8-1.4-.2-3-.5-4.5-.7-.3-1-.5-1.8-.8-2.9h-4.2c-.4-1.3-.8-2.3-1.3-3.7-4.8 1-6.7-3.5-9.4-5.6H202c-4.1-6.7-13.7-6.9-17.8-14.3h-3.8c-1.7-2-3.4-4.2-5.9-7.4-1.7-.5-4.6-1.3-8.2-2.3-.9-5.7-8.2-4.9-11.4-9.2v-3.8c-2.4-1-5.6-.6-7.4-3.4-1.2-2-2.9-3.6-5.1-6.4 0 0-.2-1.4-.3-2.9-4.7-3.2-9.4-6.4-14.1-9.7v-8.5h-6.8c-4-6.5-8.1-12.9-12.8-20.5V408c-6.4-2.3-5.3-7.8-5.4-11.8-1.6-3.1-2.7-5.3-3.6-7 .8-3.8 1.4-7 2.4-11.7-1.9 1.4-2.4 1.9-3.3 2.6-1.2-1.7-2.4-3.4-3.5-5 1.1-.2 2.7-.4 6-.9-2.5-.8-3.4-1.1-4.7-1.6v-4c-3.6-.4-4.2-3.5-5.6-5.7-.4-.6.5-2 1.2-4-1.2-2.3-6.2-2.2-6-7.2.1-.1.7-1 1.3-1.8-3.1-3.4-3.1-3.4-7-4.3-.3-5-.7-10-1.1-15.4 0 0 .8-.2 1.8-.4-.4-1.6-.7-3.4-1.1-5.1-.4-1.6-.8-3.2-1.3-5 .5-.2 1.6-.5 2.6-.9.2-.5.4-1 .5-1.6.6-2.7-1.4-4.9-1.6-7.3-.2-2.4 1.1-4.8 1.6-7.3 1-4.4-3-7.1-3.6-11-.5-3.4 5-5.4 2.1-9.3 1-.4 2-.8 3.1-1.3-.7-4.7-1.4-9.5-2.1-13.9 6.4-5.9 5.4-14.5 9.4-20.9-1.1-2.7-3.8-5.5 0-8.3-1.1-1-2.1-2.1-3.7-3.6 1.1-.5 1.8-.8 3.2-1.4 1.7-3.8 3.8-8.3 5.8-12.8-3.7-3 3.5-6.2-.4-8.5-2.7-2.6-5.2-5-8.2-7.9 1.1-4.1-2.8-7.2-4.7-11.2-.4-.9-1.8-1.9-2.7-1.9-4 .2-5.8-2.5-7.1-5.4-1.1-2.4-2.2-4.1-4-3.8-2.5-3.6-4.3-6.7-6.6-9.5-4.3-5.1-9.4-9.7-13-15.2-2.7-4.1-6.1-7.9-6.9-13.2-.3-2.1-2.1-3.9-3.4-6-1.6-.3-3.3-.6-4.8-.9-.8-1.5-1.5-3-2.5-5.1 1.1-2 2.5-4.4 4-7.1 6.7-.4 12.9 2 18.7 4.2 3.4 1.3 5.2.5 7.8-.8 1.2.6 2.4 1.8 3.6 1.8 7.3-.4 13.6 3.7 20.7 4 1.6.1 3.2 1.5 4.7 1.3 3.3-.3 6.1.9 9.1 1.9 5.3 1.9 10.9 2.4 16.4 3.6 9.8 2.2 20.1 2.3 29.5 6.4 6.4 2.8 10.4-2.2 15.2-4.8l7.4-3.8c.2-.5.3-1.1.5-1.6.1-.3.1-.6.3-1.6 2 .3 4 .6 6.5 1-.2-.8-.5-2.2-1-4.2 4.1-.9 8.6-1.9 13.6-2.9.1-.3.2-1.1.5-2.5 2-.2 4.2-.3 6.3-.5.6-1.4 1-2.5 1.9-4.5 2 2.8 3.4 4.7 5.1 7 .8-5.8 5.5-6.3 9.2-8.1.4-1 .7-2.1 1.1-3 1.3.7 2.5 1.4 3.9 2.2.5-1.5.9-2.6 1.2-3.6 6 3.2 11.1.2 16.7-1.8 2.1 1.9 4.8 2 7.5.7 3.3-1.6 6.4-1.7 9.7.1 1.4.7 3.5.8 5.1.5 4-.9 7.8 1.9 11.8.5 2.2 3.3 3.9-.2 6.1-.4 1.9 1 4 2.2 6.3 3.5.4-1 .7-2 1.4-4 .6 1.5.9 2.3 1.3 3.6 2.3 1.8 4.4.7 5.8-1.2 4.6 1.3 8.9 1.9 12.6 3.7 4.2 2 8.4 1.3 12.7 1.7.4 1.1.8 2.1 1.3 3.7 1.9-.5 3.9-1 5.9-1.4.3.9.7 1.9 1.1 3.1.8-.7 1.4-1.3 2-1.8.6.6 1.3 1.2 2.3 2.1 1.1-.7 2.2-1.4 3.9-2.5 2.9 3 6.3 3 9.3-.2 1.3 2.1 2.3 3.8 3.5 5.6h6.2c1.2 1.8 2.2 3.4 3.6 5.7 8.7-.9 16.6 3.7 25.4 8.5-.1-.3.3.7.8 2.4 1.2-.4 2.4-.8 3.4-1.1 2.2 2.2 4.6 4.6 5.9 6 7 .6 11.5 1.9 15.9 5.2 3.6 2.8 7.6 5.6 12.7 5.9 1.8.1 3.6 1.2 5.4 1.9 1.6.6 3.2 1.6 4.7 1.5 4.6-.4 8.2 1.5 11.8 3.7 4.6-1.6 8.9-3.3 13.8-3.8 6.3-.7 12.4-3.2 18.7-4.2 7.5-1.2 13.7-6.6 21.5-6.3 3.7-5 10.9-2.6 14.9-7 .9.6 1.7 1.3 3.6 2.7.8-1.8 1.6-3.4 1.5-3.3 5.5-1.6 9.2-2.8 12.9-3.9 2.7-1.7 6.3.5 8.7-2.6 1.7.9 3.4 1.9 5.2 2.9 2.6-1.5 5.3-1.9 8.4-.5 1.7.8 4.1 1.4 5.8.8 1.8-.6 4.1-2.7 5.4-1.4 1.8 1.8 3.8-.5 4.5.6 1.5 2.1 3.6-2.5 4.5.8 4.9-.8 9.8-1.6 15.3-2.6.3.3 1.3 1.4 2.5 2.8 2.7 0 5.7-.4 8.6.1 11.9 1.9 24.2 1.4 35.8 6.3 4.5 1.9 9.7 2.4 14.2 4.4 1.3.6 2.7.8 3.8 1.5 6.2 3.8 13.7 4.1 20.2 7.2 2.1 1 5.4-.6 9.3-1.1 2.4.9 5.4 5.7 10.6 1 1.7 2.8 3.4 5.6 5.7 9.3 2.1-.4 5.3-1 8.7-1.6v8.7c1.6-.8 2.7-1.3 4.3-2.1 1.9 1.8 3.9 3.8 6 5.8l.6-.9c3.3 1.9 6.6 3.9 10 5.9.7-.5 1.5-1.2 2.9-2.3 1 1.8 1.7 3.2 2.5 4.5.9 1.4 2 2.7 3.6 4.9 1.9 1 4.8 2.5 8 4.3-.8 1-1.3 1.6-1.9 2.3 3 1.1 5.9 2.2 8.6 3.1.3 1.3.4 2.1.6 3 2.2.1 4.2.2 7.1.3-.9 2.3-1.5 4.3-2.9 7.9 2.1-1.6 2.8-2.1 3.2-2.5 3.7 1.4 3.7 6.3 8 7.3.1 1.9.2 3.9.3 5.5 4.1 3.7 8.8 6.3 9 12.6.1 1.3 2.7 2.5 5.2 4.6.4.9 1.4 3.2 2.5 5.5.8-1.4 1.6-2.7 2.8-4.8 2.8 3.8 4.1 7 3.5 11.3 1 .3 2 .6 3.4.9v3.6c2.6 5.5 4.6 9.8 6.6 13.8.9.2 1.7.4 2.8.6-.7.9-1.2 1.5-2.2 2.6 1.8.3 3.4.5 5.3.8v9.6c1.3.4 2.3.8 3.6 1.2v6.1c1.1.6 2.7 1.4 3.8 2v6.7l3.8 3.8v7.4c1.1.3 1.9.5 3.1.8v10.2c3.1 5.6 5.6 10.1 8.3 14.9-1.9 1.5-3.3 2.6-4.2 3.3-.5 5.2.7 9.8-1.7 14.3-1 1.8-1 5.2 0 6.9 1.4 2.4 0 3.9-.1 5.8 0 1.8 1.4 3.6 1.5 5.5.1 1.4-1.5 3.5-1 4.3 1.3 1.8.4 2.8 0 4.5-.9 4.6-.7 9.3-1 15.1-1.5.9-3.8 2.3-4.5 2.7-1.6 13.6-2.3 25.2-7.9 36 1.3.8 2.6 1.5 4.6 2.6-8.4 5.7-8.7 16-15 22.8v4.8c-1.9 1.4-4.1 2.4-5.3 4.1-1.2 1.7-.7 4.7-2 6.2-2.9 3.4-6.4 6.2-10.3 9.8v3.5c-1.3.4-2.3.8-3.8 1.3-.1 1.2-.1 2.7-.3 4.7-1.3.1-2.7.2-4.7.3-1.3 5.1-7.2 6.4-10 10.5-3 4.3-9.4 4.8-10.7 10.6l-13.2 6.9c.7.3 1.7.8 3.9 1.8-3.1.3-5.2.6-7.6.8-.2.7-.4 1.5-.6 2.4-6 2.9-6 2.9-11.7.8-1.1 1.8-2.3 3.6-3.7 5.7-1.7-.8-3.5-1.6-5.5-2.5-9.5 7.3-21.8 7.9-32.3 14.9h-7c-.3 1.1-.4 1.9-.7 3.2-2.7.2-5.5 1.2-8.1-1.6-1 1.6-2.1 3.3-3.2 5-3.5.8-7.3 1.6-11 2.4-.6-1.5-.9-2.5-1.3-3.6-3.3 1.9-6.3 3.3-10.2 3.7-5.5.5-10.8 2.4-16.4 3.8 1 1.1 1.6 1.7 2.2 2.4-1.5.8-3 1.6-4.5 2.3-4-5.3-9.7 4.4-13.9-1.4-1.2 2.1-5.4.5-4.9 4.5-.4.1-1.1.4-1.2.2-1.6-2.1-3.9-1.5-5.7-1.1-3.2.6-6.2 2.5-9.5 2.9-3.6.4-7.4-.2-11.5-.4-.2.4-.8 1.6-1.5 3.2-1.3-.7-2.5-1.4-3.9-2.2-2.6.9-5.5 1.9-8.5 3-5.7-2.5-12.2-1.1-18.4-1-4 .1-8 1.8-12.4 2.9-.1-.1-.7-.6-1.3-1.2-.7.6-1.4 1.2-2.2 1.9-1.2-.6-2.3-1.1-3.7-1.8-.2.9-.4 1.7-.5 2.6-.4.2-.9.8-1.3.7-3.9-.5-7.8-1.1-11.8-1.8-1.5-.2-3.7-1.5-4.2-1-1.9 1.9-2.4-.5-3.4-.9-1.8-.8-2.2 2.5-4.4 1-1.1-.7-4.1-.6-4.8-.1-2.4 1.9-3.2-2.5-5.2-.9-2.7 2.3-5.5-.2-8.3-.1-1.2 0-2.5-1.5-3.7-1.5-1.8-.1-3.7.5-6.2.9-.4-.1-1.7-.8-3-1-2.8-.5-5.3 1.5-8.4.2-2.4-1.1-5.4-.5-8.2-1.7-2.8-1.2-6.4-.3-10.2-.3-.3-.9-.6-1.9-.9-3.2-2.4 1-4.9 2.8-7.3 0-2.6 2-5.4-1.9-7.1-.3-3 2.7-5.1-2-7.6-.1-.6-1.2-1.2-2.5-1.9-4-1.6.8-3.1 1.5-5 2.5-1.3-1.8-2.5-3.5-4-5.6-3.4-.7-7.7 1.1-11.3-2-3.4 3.8-8.2 1.7-13.4 2.5z" fill="#0136f5"/><g class="st1"><path class="st2" d="M256 216.4V214h25.4l.4 8.8h-3.5l-1.1-6.2H267c0 2.1-.1 4.2-.1 6.3v5.9h6.5l.7-4.4h2.6V236H274l-.6-4.3h-6.6v6.8c0 2.1 0 4.2.1 6.3h11.2l1.1-6.2h3.5l-.4 8.8H256V245l4.2-.5c.1-2.1.1-4.2.1-6.4v-8.7-6.4c0-2.1 0-4.3-.1-6.4l-4.2-.2zM286 247.5v-2.1l3.3-.7v-4.1-6.5-3.3c0-.8-.1-1.7-.1-2.7l-3.5-.5v-1.9l8.4-3.2.8.5.4 3.9c2.6-2.9 5.4-4.4 8.6-4.4 2.2 0 3.9.7 5.1 2.2 1.2 1.4 1.8 3.7 1.8 6.9v9.1c0 1.4 0 2.8.1 4l3.1.6v2.1h-12.5v-2.1l3.2-.7v-4-8.7c0-2-.3-3.4-.8-4.1-.5-.8-1.4-1.1-2.7-1.1-1.8 0-3.7.8-5.6 2.5V244.7l3 .6v2.1l-12.6.1zM328.3 216.4V214h15.4v2.4l-4.4.5c0 2.1-.1 4.2-.1 6.3v15.2c0 2.1 0 4.1.1 6.3h10.2l1.4-7h3.5l-.5 9.7h-25.6V245l4.2-.5c.1-2.1.1-4.2.1-6.3v-8.7-6.5c0-2.1 0-4.2-.1-6.3l-4.2-.3zM377 248.1c-1.3 0-2.4-.3-3.3-1-.8-.7-1.4-1.6-1.7-2.8-1.2 1.3-2.4 2.2-3.4 2.9s-2.3 1-3.9 1c-1.9 0-3.5-.5-4.8-1.6-1.3-1.1-1.9-2.7-1.9-4.7 0-1.1.3-2.1.8-3 .5-.9 1.4-1.8 2.7-2.6 1.3-.8 3.2-1.6 5.6-2.4.7-.2 1.4-.5 2.3-.7.8-.2 1.7-.5 2.6-.7V231c0-2.4-.3-3.9-1-4.8-.7-.8-1.8-1.2-3.5-1.2-.3 0-.6 0-1 .1-.4 0-.7.1-1.1.2l-.6 2.8c-.1 1.2-.5 2.1-1.1 2.7-.6.6-1.3.9-2.1.9-1.6 0-2.6-.8-2.8-2.3.3-2 1.4-3.6 3.3-4.8 1.9-1.2 4.3-1.8 7.4-1.8 2.9 0 5.1.7 6.4 2.1 1.3 1.4 2 3.7 2 7v11c0 1.5.5 2.3 1.5 2.3.6 0 1.2-.4 1.8-1.1l1.2 1c-.6 1.1-1.3 2-2.1 2.4s-2.1.6-3.3.6zm-13.1-7.3c0 1.3.3 2.3 1 2.8.7.6 1.5.9 2.5.9.6 0 1.1-.1 1.7-.4.6-.3 1.5-.8 2.7-1.7v-8c-.7.2-1.4.5-2 .7-.6.2-1.2.4-1.6.6-1.7.7-2.8 1.4-3.5 2.3-.5.9-.8 1.8-.8 2.8zM405.8 248.3c-1.9 0-3.7-.2-5.6-.7s-3.4-1.1-4.7-2l.3-7.3h3.9l1 6.1c.8.3 1.6.6 2.4.8.8.2 1.7.3 2.7.3 2.1 0 3.7-.5 4.9-1.5 1.2-1 1.8-2.3 1.8-4 0-1.5-.4-2.6-1.3-3.5-.8-.8-2.2-1.6-4-2.4l-2.1-.9c-2.8-1.2-5-2.6-6.6-4.2-1.6-1.6-2.4-3.8-2.4-6.5 0-2 .5-3.7 1.5-5.1 1-1.4 2.4-2.5 4.2-3.3s3.9-1.1 6.2-1.1c1.7 0 3.4.2 4.9.7 1.5.5 2.8 1.1 4 1.9l-.4 6.8h-3.8l-1-5.8c-1.2-.5-2.4-.8-3.8-.8-1.7 0-3.1.4-4.3 1.3-1.2.9-1.8 2.2-1.8 3.8 0 1.4.5 2.6 1.4 3.5s2.2 1.7 3.8 2.4l2.2.9c3.3 1.4 5.6 2.9 7 4.4 1.4 1.6 2.1 3.6 2.1 6.1 0 3-1.1 5.3-3.4 7.2-2.2 2-5.2 2.9-9.1 2.9zM434.1 248.2c-2.3 0-4.3-.5-6.2-1.5-1.8-1-3.3-2.5-4.4-4.4-1.1-1.9-1.6-4.2-1.6-6.9s.6-5 1.7-6.9c1.1-1.9 2.6-3.4 4.5-4.4 1.8-1 3.8-1.5 6-1.5 2.1 0 4.1.5 6 1.5 1.8 1 3.3 2.5 4.5 4.4s1.7 4.2 1.7 6.9-.5 5-1.6 6.9c-1.1 1.9-2.6 3.4-4.4 4.4s-3.9 1.5-6.2 1.5zm0-2.5c1.8 0 3.2-.8 4.2-2.5s1.4-4.3 1.4-7.7c0-6.9-1.9-10.4-5.6-10.4-3.7 0-5.5 3.5-5.5 10.4 0 3.5.5 6 1.4 7.7.9 1.7 2.3 2.5 4.1 2.5zM449.3 247.5v-2.1l3.3-.6c0-1.2.1-2.6.1-4.1V215.1l-3.7-.5v-2l9-2.3.8.5-.2 7.1v8.1c2.3-2.4 4.8-3.6 7.5-3.6 1.8 0 3.5.5 4.9 1.5 1.5 1 2.6 2.4 3.5 4.3s1.3 4.1 1.3 6.8-.5 5-1.4 6.9c-1 1.9-2.2 3.5-3.8 4.5-1.6 1.1-3.3 1.6-5.3 1.6-1.3 0-2.5-.3-3.7-.8s-2.2-1.3-3.2-2.5l-.7 3.2-8.4-.4zm14.4-21.3c-.8 0-1.6.2-2.4.6-.8.4-1.7 1-2.5 1.7v14c1.5 1.4 3.1 2.2 4.7 2.2s3-.8 4.2-2.3c1.1-1.5 1.7-3.8 1.7-6.9 0-3.1-.5-5.5-1.6-7s-2.4-2.3-4.1-2.3zM479.5 247.5v-2.1l3.2-.6v-4.1-6.5-3.3c0-.8-.1-1.7-.1-2.7l-3.5-.5v-1.9l8.4-3.2.8.5.5 5.9c.8-2.1 1.8-3.7 3.1-4.8s2.6-1.7 3.9-1.7c.9 0 1.7.2 2.5.7.8.5 1.3 1.1 1.5 2 0 1.2-.3 2.2-.9 2.9-.6.7-1.4 1-2.4 1-1.2 0-2.4-.6-3.4-1.8l-.5-.5c-1.8 1.5-3.1 3.6-3.8 6.3v11.4l4.1.8v2.1h-13.4zM513.2 248.2c-2.4 0-4.4-.5-6.2-1.5-1.8-1-3.2-2.5-4.2-4.4-1-1.9-1.5-4.2-1.5-6.8 0-2.7.6-5 1.7-6.9 1.2-1.9 2.7-3.4 4.5-4.4 1.9-1 3.9-1.5 6-1.5 2 0 3.7.4 5.2 1.3 1.5.8 2.6 2 3.5 3.5.8 1.5 1.2 3.3 1.2 5.3 0 1.1-.1 2-.3 2.8h-15.4c.1 2.9.9 5.1 2.3 6.5 1.4 1.4 3.2 2.2 5.3 2.2 1.5 0 2.7-.3 3.8-.9 1-.6 2-1.4 2.8-2.3l1.5 1.3c-1 1.8-2.3 3.3-4 4.3-1.9 1-3.9 1.5-6.2 1.5zm0-23.2c-.8 0-1.6.3-2.4.8-.8.5-1.5 1.4-2 2.5-.6 1.2-.9 2.8-1 4.8h6.9c1.2 0 2-.3 2.4-.8.4-.5.6-1.2.6-2.1 0-1.5-.4-2.8-1.3-3.8-.9-.9-2-1.4-3.2-1.4zM527.1 247.5v-2.1l3.3-.7v-4.1-6.5-3.3c0-.8-.1-1.7-.1-2.7l-3.5-.5v-1.9l8.4-3.2.8.5.4 3.9c1.2-1.4 2.5-2.5 4-3.3s2.9-1.2 4.5-1.2c3.3 0 5.4 1.5 6.3 4.6 1.3-1.6 2.7-2.8 4.2-3.5 1.4-.7 2.9-1.1 4.5-1.1 2.3 0 4 .7 5.1 2.1s1.7 3.7 1.7 6.8v13.4l3.1.6v2.1h-12.3v-2.1l3.1-.7c0-1.2.1-2.6.1-4v-8.5c0-2.1-.3-3.5-.8-4.3-.6-.7-1.5-1.1-2.7-1.1-1.8 0-3.6.9-5.5 2.6 0 .3.1.7.1 1.1v14.4l3 .6v2.1h-12.4v-2.1l3.2-.7c0-1.2.1-2.6.1-4v-8.4c0-2.1-.3-3.5-.8-4.3s-1.4-1.2-2.7-1.2c-.9 0-1.9.2-2.8.7-.9.5-1.8 1.1-2.7 1.8v15.4l3 .6v2.1l-12.6.1zM584.7 248.2c-2.4 0-4.4-.5-6.2-1.5-1.8-1-3.2-2.5-4.2-4.4-1-1.9-1.5-4.2-1.5-6.8 0-2.7.6-5 1.7-6.9 1.2-1.9 2.7-3.4 4.5-4.4 1.9-1 3.9-1.5 6-1.5 2 0 3.7.4 5.2 1.3 1.5.8 2.6 2 3.5 3.5.8 1.5 1.2 3.3 1.2 5.3 0 1.1-.1 2-.3 2.8h-15.4c.1 2.9.9 5.1 2.3 6.5 1.4 1.4 3.2 2.2 5.3 2.2 1.5 0 2.7-.3 3.8-.9 1-.6 2-1.4 2.8-2.3l1.5 1.3c-1 1.8-2.3 3.3-4 4.3-1.8 1-3.8 1.5-6.2 1.5zm0-23.2c-.8 0-1.6.3-2.4.8-.8.5-1.5 1.4-2 2.5-.6 1.2-.9 2.8-1 4.8h6.9c1.2 0 2-.3 2.4-.8.4-.5.6-1.2.6-2.1 0-1.5-.4-2.8-1.3-3.8-.9-.9-1.9-1.4-3.2-1.4zM607.1 248.2c-1.5 0-3-.2-4.3-.5-1.3-.4-2.6-.9-3.9-1.6l-.1-5.8h3.4l.9 4.7c1.2.5 2.5.8 3.9.8 1.7 0 3-.3 3.8-.9.8-.6 1.3-1.4 1.3-2.5 0-.9-.3-1.7-1-2.3-.7-.6-1.8-1.2-3.4-1.7l-2.5-.9c-1.9-.6-3.4-1.5-4.5-2.7-1.1-1.2-1.6-2.7-1.6-4.4 0-1.4.4-2.7 1.1-3.9s1.8-2.1 3.3-2.8c1.4-.7 3.2-1 5.2-1 1.4 0 2.8.2 4 .5s2.4.9 3.6 1.5l-.3 5.3h-3.3l-.9-4.2c-.9-.4-2-.6-3.1-.6-1.3 0-2.4.3-3.1.9-.7.6-1.1 1.3-1.1 2.3 0 .9.3 1.6.9 2.2s1.8 1.1 3.5 1.7l2 .6c2.5.8 4.2 1.9 5.2 3.1 1 1.2 1.6 2.7 1.6 4.5 0 2.3-.9 4.1-2.7 5.6-1.9 1.3-4.5 2.1-7.9 2.1zM640 248.1c-1.3 0-2.4-.3-3.3-1-.8-.7-1.4-1.6-1.7-2.8-1.2 1.3-2.4 2.2-3.4 2.9-1 .7-2.3 1-3.9 1-1.9 0-3.5-.5-4.8-1.6-1.3-1.1-1.9-2.7-1.9-4.7 0-1.1.3-2.1.8-3 .5-.9 1.4-1.8 2.7-2.6 1.3-.8 3.2-1.6 5.6-2.4.7-.2 1.4-.5 2.3-.7.8-.2 1.7-.5 2.6-.7V231c0-2.4-.3-3.9-1-4.8-.7-.8-1.8-1.2-3.5-1.2-.3 0-.6 0-1 .1-.4 0-.7.1-1.1.2l-.6 2.8c-.1 1.2-.5 2.1-1.1 2.7-.6.6-1.3.9-2.1.9-1.6 0-2.6-.8-2.8-2.3.3-2 1.4-3.6 3.3-4.8 1.9-1.2 4.3-1.8 7.4-1.8 2.9 0 5.1.7 6.4 2.1s2 3.7 2 7v11c0 1.5.5 2.3 1.5 2.3.6 0 1.2-.4 1.8-1.1l1.2 1c-.6 1.1-1.3 2-2.1 2.4-1.1.3-2.1.6-3.3.6zm-13.1-7.3c0 1.3.3 2.3 1 2.8.7.6 1.5.9 2.5.9.6 0 1.1-.1 1.7-.4.6-.3 1.5-.8 2.7-1.7v-8c-.7.2-1.4.5-2 .7s-1.2.4-1.6.6c-1.7.7-2.8 1.4-3.5 2.3-.5.9-.8 1.8-.8 2.8zM656.7 245.4c0 2.2-.5 4.1-1.5 5.8s-2.3 3.2-3.8 4.4-3.1 2.1-4.7 2.6l-.7-1.9c1.7-.9 3.1-1.9 4.3-3.1s2.1-2.6 2.7-4.3l-1.8-1.2c-.8-.5-1.4-1.2-1.8-1.8-.4-.7-.6-1.4-.6-2 0-1.1.3-2 1-2.7.7-.7 1.6-1.1 2.7-1.1.6 0 1.1.1 1.7.3s1.1.6 1.7 1.2c.3.7.4 1.3.5 1.9.2.5.3 1.2.3 1.9z"/></g><g class="st1"><path class="st2" d="M262.3 272v-2.1h9.6v2.1l-2.8.6-8.3 21.6h-3l-9.1-21.8-2.6-.5v-2.1h13.3v2.1l-3.9.6 5.5 14.6 5-14.6-3.7-.5zM292.1 294.6c-1.3 0-2.4-.3-3.3-1-.8-.7-1.4-1.6-1.7-2.8-1.2 1.3-2.4 2.2-3.4 2.9s-2.3 1-3.9 1c-1.9 0-3.5-.5-4.8-1.6s-1.9-2.7-1.9-4.7c0-1.1.3-2.1.8-3 .5-.9 1.4-1.8 2.7-2.6 1.3-.8 3.2-1.6 5.6-2.4.7-.2 1.4-.5 2.3-.7.8-.2 1.7-.5 2.6-.7v-1.4c0-2.4-.3-3.9-1-4.8-.7-.8-1.8-1.2-3.5-1.2h-1c-.4 0-.7.1-1.1.2l-.6 2.8c-.1 1.2-.5 2.1-1.1 2.7-.6.6-1.3.9-2.1.9-1.6 0-2.6-.8-2.8-2.3.3-2 1.4-3.6 3.3-4.8 1.9-1.2 4.3-1.8 7.4-1.8 2.9 0 5.1.7 6.4 2.1 1.3 1.4 2 3.7 2 7v11c0 1.5.5 2.3 1.5 2.3.6 0 1.2-.4 1.8-1.1l1.2 1c-.6 1.1-1.3 2-2.1 2.4s-2 .6-3.3.6zm-13.1-7.3c0 1.3.3 2.3 1 2.8.7.6 1.5.9 2.5.9.6 0 1.1-.1 1.7-.4.6-.3 1.5-.8 2.7-1.7v-8c-.7.2-1.4.5-2 .7s-1.2.4-1.6.6c-1.7.7-2.8 1.4-3.5 2.3-.5.9-.8 1.8-.8 2.8zM307.6 294.7c-1.5 0-3-.2-4.3-.5-1.3-.4-2.6-.9-3.9-1.6v-5.8h3.4l.9 4.7c1.2.5 2.5.8 3.9.8 1.7 0 3-.3 3.8-.9.8-.6 1.3-1.4 1.3-2.5 0-.9-.3-1.7-1-2.3-.7-.6-1.8-1.2-3.4-1.7l-2.5-.9c-1.9-.6-3.4-1.5-4.5-2.7-1.1-1.2-1.6-2.7-1.6-4.4 0-1.4.4-2.7 1.1-3.9s1.8-2.1 3.3-2.8c1.4-.7 3.2-1 5.2-1 1.4 0 2.8.2 4 .5 1.2.4 2.4.9 3.6 1.5l-.3 5.3h-3.3l-.9-4.2c-.9-.4-2-.6-3.1-.6-1.3 0-2.4.3-3.1.9-.7.6-1.1 1.3-1.1 2.3 0 .9.3 1.6.9 2.2.6.6 1.8 1.1 3.5 1.7l2 .6c2.5.8 4.2 1.9 5.2 3.1 1 1.2 1.6 2.7 1.6 4.5 0 2.3-.9 4.1-2.7 5.6-2 1.4-4.6 2.1-8 2.1zM352 294.6c-1.3 0-2.4-.3-3.3-1-.8-.7-1.4-1.6-1.7-2.8-1.2 1.3-2.4 2.2-3.4 2.9s-2.3 1-3.9 1c-1.9 0-3.5-.5-4.8-1.6s-1.9-2.7-1.9-4.7c0-1.1.3-2.1.8-3 .5-.9 1.4-1.8 2.7-2.6 1.3-.8 3.2-1.6 5.6-2.4.7-.2 1.4-.5 2.3-.7.8-.2 1.7-.5 2.6-.7v-1.4c0-2.4-.3-3.9-1-4.8-.7-.8-1.8-1.2-3.5-1.2h-1c-.4 0-.7.1-1.1.2l-.6 2.8c-.1 1.2-.5 2.1-1.1 2.7-.6.6-1.3.9-2.1.9-1.6 0-2.6-.8-2.8-2.3.3-2 1.4-3.6 3.3-4.8 1.9-1.2 4.3-1.8 7.4-1.8 2.9 0 5.1.7 6.4 2.1 1.3 1.4 2 3.7 2 7v11c0 1.5.5 2.3 1.5 2.3.6 0 1.2-.4 1.8-1.1l1.2 1c-.6 1.1-1.3 2-2.1 2.4s-2.1.6-3.3.6zm-13.1-7.3c0 1.3.3 2.3 1 2.8.7.6 1.5.9 2.5.9.6 0 1.1-.1 1.7-.4.6-.3 1.5-.8 2.7-1.7v-8c-.7.2-1.4.5-2 .7s-1.2.4-1.6.6c-1.7.7-2.8 1.4-3.5 2.3-.5.9-.8 1.8-.8 2.8zM382.4 294.7c-2.4 0-4.4-.5-6.2-1.5-1.8-1-3.2-2.5-4.2-4.4s-1.5-4.2-1.5-6.8c0-2.7.6-5 1.7-6.9 1.2-1.9 2.7-3.4 4.5-4.4 1.9-1 3.9-1.5 6-1.5 2 0 3.7.4 5.2 1.3 1.5.8 2.6 2 3.5 3.5.8 1.5 1.2 3.3 1.2 5.3 0 1.1-.1 2-.3 2.8h-15.4c.1 2.9.9 5.1 2.3 6.5 1.4 1.4 3.2 2.2 5.3 2.2 1.5 0 2.7-.3 3.8-.9 1-.6 2-1.4 2.8-2.3l1.5 1.3c-1 1.8-2.3 3.3-4 4.3-1.8 1-3.9 1.5-6.2 1.5zm0-23.1c-.8 0-1.6.3-2.4.8-.8.5-1.5 1.4-2 2.5-.6 1.2-.9 2.8-1 4.8h6.9c1.2 0 2-.3 2.4-.8s.6-1.2.6-2.1c0-1.5-.4-2.8-1.3-3.8-.9-.9-2-1.4-3.2-1.4zM396.3 294v-2.1l3.3-.7v-4.1-6.5-3.3c0-.8-.1-1.7-.1-2.7l-3.5-.5v-1.9l8.4-3.2.8.5.4 3.9c2.6-2.9 5.4-4.4 8.6-4.4 2.2 0 3.9.7 5.1 2.2 1.2 1.4 1.8 3.7 1.8 6.9v9.1c0 1.4 0 2.8.1 4l3.1.6v2.1h-12.5v-2.1l3.2-.7v-4-8.7c0-2-.3-3.4-.8-4.1s-1.4-1.1-2.7-1.1c-1.8 0-3.7.8-5.6 2.5V291.2l3 .6v2.1l-12.6.1zM439.1 294.7c-2.3 0-4.3-.5-6.2-1.5-1.8-1-3.2-2.4-4.3-4.3-1-1.9-1.5-4.2-1.5-6.9s.6-5 1.7-7c1.2-1.9 2.7-3.4 4.6-4.4 1.9-1 4-1.5 6.3-1.5 1.6 0 3.1.3 4.5.9 1.3.6 2.4 1.5 3.2 2.5.8 1 1.3 2.2 1.5 3.5-.4 1.5-1.4 2.2-2.9 2.2-1.9 0-3-1.2-3.3-3.5l-.7-3c-.3-.1-.6-.1-.9-.2h-.9c-1.2 0-2.3.3-3.4 1-1 .7-1.9 1.8-2.5 3.2-.6 1.4-1 3.3-1 5.5 0 3.1.7 5.4 2.1 7 1.4 1.6 3.2 2.4 5.5 2.4 1.3 0 2.6-.3 3.6-.9 1.1-.6 2-1.4 2.7-2.5l1.5 1.1c-.8 2.1-2.1 3.6-3.8 4.7-1.4 1.2-3.4 1.7-5.8 1.7zM464.4 294.7c-2.3 0-4.3-.5-6.2-1.5-1.8-1-3.3-2.5-4.4-4.4-1.1-1.9-1.6-4.2-1.6-6.9s.6-5 1.7-6.9c1.1-1.9 2.6-3.4 4.5-4.4 1.8-1 3.8-1.5 6-1.5 2.1 0 4.1.5 6 1.5 1.8 1 3.3 2.5 4.5 4.4s1.7 4.2 1.7 6.9-.5 5-1.6 6.9c-1.1 1.9-2.6 3.4-4.4 4.4s-3.9 1.5-6.2 1.5zm0-2.5c1.8 0 3.2-.8 4.2-2.5s1.4-4.3 1.4-7.7c0-6.9-1.9-10.4-5.6-10.4-3.7 0-5.5 3.5-5.5 10.4 0 3.5.5 6 1.4 7.7.9 1.7 2.3 2.5 4.1 2.5zM480.2 294v-2.1l3.3-.7v-4.1-6.5-3.3c0-.8-.1-1.7-.1-2.7l-3.5-.5v-1.9l8.4-3.2.8.5.4 3.9c2.6-2.9 5.4-4.4 8.6-4.4 2.2 0 3.9.7 5.1 2.2 1.2 1.4 1.8 3.7 1.8 6.9v9.1c0 1.4 0 2.8.1 4l3.1.6v2.1h-12.5v-2.1l3.2-.7v-4-8.7c0-2-.3-3.4-.8-4.1s-1.4-1.1-2.7-1.1c-1.8 0-3.7.8-5.6 2.5V291.2l3 .6v2.1l-12.6.1zM519.7 294.7c-2 0-3.6-.5-4.7-1.5s-1.7-2.6-1.7-4.8v-2.2V273h-3.7v-2.6l4.1-.5 1.9-6.9h4.1l-.2 7h6.1v3.1h-6.1V288c0 1.2.2 2.2.7 2.7s1.1.9 1.9.9c.9 0 1.9-.4 3.1-1.3l1.2 1.3c-.6 1-1.5 1.9-2.6 2.4-1.2.4-2.5.7-4.1.7zM528 294v-2.1l3.2-.6v-4.1-6.5-3.3c0-.8-.1-1.7-.1-2.7l-3.5-.5v-1.9l8.4-3.2.8.5.5 6c.8-2.1 1.8-3.7 3.1-4.8s2.6-1.7 3.9-1.7c.9 0 1.7.2 2.5.7.8.5 1.3 1.1 1.5 2 0 1.2-.3 2.2-.9 2.9-.6.7-1.4 1-2.4 1-1.2 0-2.4-.6-3.4-1.8l-.5-.5c-1.8 1.5-3.1 3.6-3.8 6.3v11.4l4.1.8v2.1H528zM568.6 294.6c-1.3 0-2.4-.3-3.3-1-.8-.7-1.4-1.6-1.7-2.8-1.2 1.3-2.4 2.2-3.4 2.9-1 .7-2.3 1-3.9 1-1.9 0-3.5-.5-4.8-1.6-1.3-1.1-1.9-2.7-1.9-4.7 0-1.1.3-2.1.8-3 .5-.9 1.4-1.8 2.7-2.6 1.3-.8 3.2-1.6 5.6-2.4.7-.2 1.4-.5 2.3-.7.8-.2 1.7-.5 2.6-.7v-1.4c0-2.4-.3-3.9-1-4.8-.7-.8-1.8-1.2-3.5-1.2h-1c-.4 0-.7.1-1.1.2l-.6 2.8c-.1 1.2-.5 2.1-1.1 2.7-.6.6-1.3.9-2.1.9-1.6 0-2.6-.8-2.8-2.3.3-2 1.4-3.6 3.3-4.8 1.9-1.2 4.3-1.8 7.4-1.8 2.9 0 5.1.7 6.4 2.1s2 3.7 2 7v11c0 1.5.5 2.3 1.5 2.3.6 0 1.2-.4 1.8-1.1l1.2 1c-.6 1.1-1.3 2-2.1 2.4-1 .4-2 .6-3.3.6zm-13.1-7.3c0 1.3.3 2.3 1 2.8.7.6 1.5.9 2.5.9.6 0 1.1-.1 1.7-.4.6-.3 1.5-.8 2.7-1.7v-8c-.7.2-1.4.5-2 .7s-1.2.4-1.6.6c-1.7.7-2.8 1.4-3.5 2.3-.5.9-.8 1.8-.8 2.8zM575.6 294v-2.1l3.2-.6v-4.1-6.5-3.3c0-.8-.1-1.7-.1-2.7l-3.5-.5v-1.9l8.4-3.2.8.5.5 6c.8-2.1 1.8-3.7 3.1-4.8s2.6-1.7 3.9-1.7c.9 0 1.7.2 2.5.7.8.5 1.3 1.1 1.5 2 0 1.2-.3 2.2-.9 2.9-.6.7-1.4 1-2.4 1-1.2 0-2.4-.6-3.4-1.8l-.5-.5c-1.8 1.5-3.1 3.6-3.8 6.3v11.4l4.1.8v2.1h-13.4zM627.4 294.5l-.4-4.5c-2.5 3.1-5.3 4.7-8.6 4.7-2.1 0-3.8-.7-5-2-1.3-1.4-1.9-3.7-1.8-7l.2-12.5-3.3-.7v-2l8.8-1.1.6.6-.3 7.1v8.4c0 1.9.3 3.2.9 4s1.4 1.1 2.5 1.1c.9 0 1.9-.3 2.9-.8s1.9-1.2 2.8-2.1l.2-14.5-3.2-.7v-1.9l8.6-1.2.7.6-.2 7.1v14.2l3.1.7v2.1l-8.5.4zM639.1 294v-2.1l3.3-.7v-4.1-6.5-3.3c0-.8-.1-1.7-.1-2.7l-3.5-.5v-1.9l8.4-3.2.8.5.4 3.9c2.6-2.9 5.4-4.4 8.6-4.4 2.2 0 3.9.7 5.1 2.2 1.2 1.4 1.8 3.7 1.8 6.9v9.1c0 1.4 0 2.8.1 4l3.1.6v2.1h-12.5v-2.1l3.2-.7v-4-8.7c0-2-.3-3.4-.8-4.1s-1.4-1.1-2.7-1.1c-1.8 0-3.7.8-5.6 2.5V291.2l3 .6v2.1l-12.6.1z"/></g><g class="st1"><path class="st2" d="M216 341.3c-2.4 0-4.4-.5-6.2-1.5-1.8-1-3.2-2.5-4.2-4.4s-1.5-4.2-1.5-6.8c0-2.7.6-5 1.7-6.9 1.2-1.9 2.7-3.4 4.5-4.4 1.9-1 3.9-1.5 6-1.5 2 0 3.7.4 5.2 1.3 1.5.8 2.6 2 3.5 3.5.8 1.5 1.2 3.3 1.2 5.3 0 1.1-.1 2-.3 2.8h-15.4c.1 2.9.9 5.1 2.3 6.5 1.4 1.4 3.2 2.2 5.3 2.2 1.5 0 2.7-.3 3.8-.9 1-.6 2-1.4 2.8-2.3l1.5 1.3c-1 1.8-2.3 3.3-4 4.3-1.9.9-3.9 1.5-6.2 1.5zm0-23.2c-.8 0-1.6.3-2.4.8-.8.5-1.5 1.4-2 2.5-.6 1.2-.9 2.8-1 4.8h6.9c1.2 0 2-.3 2.4-.8s.6-1.2.6-2.1c0-1.5-.4-2.8-1.3-3.8-.9-.9-2-1.4-3.2-1.4zM238.3 341.3c-1.5 0-3-.2-4.3-.5s-2.6-.9-3.9-1.6l-.1-5.8h3.4l.9 4.7c1.2.5 2.5.8 3.9.8 1.7 0 3-.3 3.8-.9.8-.6 1.3-1.4 1.3-2.5 0-.9-.3-1.7-1-2.3-.7-.6-1.8-1.2-3.4-1.7l-2.5-.9c-1.9-.6-3.4-1.5-4.5-2.7-1.1-1.2-1.6-2.7-1.6-4.4 0-1.4.4-2.7 1.1-3.9s1.8-2.1 3.3-2.8c1.4-.7 3.2-1 5.2-1 1.4 0 2.8.2 4 .5 1.2.4 2.4.9 3.6 1.5l-.3 5.3h-3.3l-.9-4.2c-.9-.4-2-.6-3.1-.6-1.3 0-2.4.3-3.1.9-.7.6-1.1 1.3-1.1 2.3 0 .9.3 1.6.9 2.2.6.6 1.8 1.1 3.5 1.7l2 .6c2.5.8 4.2 1.9 5.2 3.1 1 1.2 1.6 2.7 1.6 4.5 0 2.3-.9 4.1-2.7 5.6-1.8 1.3-4.5 2.1-7.9 2.1zM251.7 352.3v-2.1l3.4-.7c0-1.5.1-2.9.1-4.3v-18.1-3.3c0-.8-.1-1.7-.1-2.7l-3.5-.5v-1.9l8.4-3.2.8.5.3 3.1c2.3-2.4 4.8-3.6 7.6-3.6 1.8 0 3.5.5 4.9 1.5 1.5 1 2.6 2.4 3.5 4.3.9 1.9 1.3 4.2 1.3 6.9s-.5 5-1.4 6.9c-1 1.9-2.2 3.4-3.8 4.5-1.6 1-3.3 1.6-5.3 1.6-1.2 0-2.4-.2-3.5-.7-1.1-.5-2.1-1.2-3.1-2.3v6.9c0 1.4 0 2.8.1 4.3l3.9.8v2.1h-13.6zm14.4-33c-.8 0-1.6.2-2.3.6s-1.6.9-2.5 1.6v14.3c1.4 1.3 2.9 2 4.5 2 1.7 0 3.1-.7 4.3-2.2 1.2-1.5 1.7-3.8 1.7-6.9 0-3.1-.5-5.4-1.6-7-1-1.6-2.4-2.4-4.1-2.4zM300.8 341.2c-1.3 0-2.4-.3-3.3-1-.8-.7-1.4-1.6-1.7-2.8-1.2 1.3-2.4 2.2-3.4 2.9s-2.3 1-3.9 1c-1.9 0-3.5-.5-4.8-1.6s-1.9-2.7-1.9-4.7c0-1.1.3-2.1.8-3 .5-.9 1.4-1.8 2.7-2.6 1.3-.8 3.2-1.6 5.6-2.4.7-.2 1.4-.5 2.3-.7.8-.2 1.7-.5 2.6-.7v-1.4c0-2.4-.3-3.9-1-4.8-.7-.8-1.8-1.2-3.5-1.2h-1c-.4 0-.7.1-1.1.2l-.6 2.8c-.1 1.2-.5 2.1-1.1 2.7-.6.6-1.3.9-2.1.9-1.6 0-2.6-.8-2.8-2.3.3-2 1.4-3.6 3.3-4.8 1.9-1.2 4.3-1.8 7.4-1.8 2.9 0 5.1.7 6.4 2.1 1.3 1.4 2 3.7 2 7v11c0 1.5.5 2.3 1.5 2.3.6 0 1.2-.4 1.8-1.1l1.2 1c-.6 1.1-1.3 2-2.1 2.4s-2.1.6-3.3.6zm-13.1-7.3c0 1.3.3 2.3 1 2.8.7.6 1.5.9 2.5.9.6 0 1.1-.1 1.7-.4.6-.3 1.5-.8 2.7-1.7v-8c-.7.2-1.4.5-2 .7s-1.2.4-1.6.6c-1.7.7-2.8 1.4-3.5 2.3-.5.9-.8 1.8-.8 2.8zM319.8 341.3c-2.3 0-4.3-.5-6.2-1.5s-3.2-2.4-4.3-4.3c-1-1.9-1.5-4.2-1.5-6.9s.6-5 1.7-7 2.7-3.4 4.6-4.4c1.9-1 4-1.5 6.3-1.5 1.6 0 3.1.3 4.5.9 1.3.6 2.4 1.5 3.2 2.5.8 1 1.3 2.2 1.5 3.5-.4 1.5-1.4 2.2-2.9 2.2-1.9 0-3-1.2-3.3-3.5l-.7-3c-.3-.1-.6-.1-.9-.2h-.9c-1.2 0-2.3.3-3.4 1-1 .7-1.9 1.8-2.5 3.2-.6 1.4-1 3.3-1 5.5 0 3.1.7 5.4 2.1 7 1.4 1.6 3.2 2.4 5.5 2.4 1.3 0 2.6-.3 3.6-.9 1.1-.6 2-1.4 2.7-2.5l1.5 1.1c-.8 2.1-2.1 3.6-3.8 4.7-1.4 1.1-3.4 1.7-5.8 1.7zM332.9 340.6v-2.1l3.3-.7v-4.1V327.5 324c0-.9-.1-1.9-.1-2.9l-3.6-.5v-1.9l9.1-3.2.8.5-.2 7.1v10.5c0 1.5 0 2.8.1 4.1l3.1.6v2.1l-12.5.2zm6.4-29.6c-1.1 0-2-.3-2.7-1-.7-.7-1.1-1.5-1.1-2.6s.4-1.9 1.1-2.6c.7-.7 1.6-1 2.7-1s2 .3 2.7 1 1.1 1.5 1.1 2.6c0 1-.4 1.9-1.1 2.6-.7.7-1.6 1-2.7 1zM360.8 341.3c-2.3 0-4.3-.5-6.2-1.5-1.8-1-3.3-2.5-4.4-4.4-1.1-1.9-1.6-4.2-1.6-6.9s.6-5 1.7-6.9c1.1-1.9 2.6-3.4 4.5-4.4 1.8-1 3.8-1.5 6-1.5s4.2.5 6 1.5 3.3 2.5 4.5 4.4c1.1 1.9 1.7 4.2 1.7 6.9s-.5 5-1.6 6.9c-1.1 1.9-2.6 3.4-4.4 4.4-1.8 1-3.9 1.5-6.2 1.5zm0-2.5c1.8 0 3.2-.8 4.2-2.5s1.4-4.3 1.4-7.7c0-6.9-1.9-10.4-5.6-10.4-3.7 0-5.5 3.5-5.5 10.4 0 3.5.5 6 1.4 7.7.9 1.7 2.3 2.5 4.1 2.5zM387.8 352.3v-2.1l3.4-.7c0-1.5.1-2.9.1-4.3v-18.1-3.3c0-.8-.1-1.7-.1-2.7l-3.5-.5v-1.9l8.4-3.2.8.5.3 3.1c2.3-2.4 4.8-3.6 7.6-3.6 1.8 0 3.5.5 4.9 1.5 1.5 1 2.6 2.4 3.5 4.3.9 1.9 1.3 4.2 1.3 6.9s-.5 5-1.4 6.9c-1 1.9-2.2 3.4-3.8 4.5s-3.3 1.6-5.3 1.6c-1.2 0-2.4-.2-3.5-.7-1.1-.5-2.1-1.2-3.1-2.3v6.9c0 1.4 0 2.8.1 4.3l3.9.8v2.1h-13.6zm14.5-33c-.8 0-1.6.2-2.3.6s-1.6.9-2.5 1.6v14.3c1.4 1.3 2.9 2 4.5 2 1.7 0 3.1-.7 4.3-2.2 1.2-1.5 1.7-3.8 1.7-6.9 0-3.1-.5-5.4-1.6-7-1.1-1.6-2.5-2.4-4.1-2.4zM437 341.2c-1.3 0-2.4-.3-3.3-1-.8-.7-1.4-1.6-1.7-2.8-1.2 1.3-2.4 2.2-3.4 2.9-1 .7-2.3 1-3.9 1-1.9 0-3.5-.5-4.8-1.6-1.3-1.1-1.9-2.7-1.9-4.7 0-1.1.3-2.1.8-3 .5-.9 1.4-1.8 2.7-2.6 1.3-.8 3.2-1.6 5.6-2.4.7-.2 1.4-.5 2.3-.7.8-.2 1.7-.5 2.6-.7v-1.4c0-2.4-.3-3.9-1-4.8-.7-.8-1.8-1.2-3.5-1.2h-1c-.4 0-.7.1-1.1.2l-.6 2.8c-.1 1.2-.5 2.1-1.1 2.7-.6.6-1.3.9-2.1.9-1.6 0-2.6-.8-2.8-2.3.3-2 1.4-3.6 3.3-4.8 1.9-1.2 4.3-1.8 7.4-1.8 2.9 0 5.1.7 6.4 2.1 1.3 1.4 2 3.7 2 7v11c0 1.5.5 2.3 1.5 2.3.6 0 1.2-.4 1.8-1.1l1.2 1c-.6 1.1-1.3 2-2.1 2.4-1.1.3-2.1.6-3.3.6zm-13.2-7.3c0 1.3.3 2.3 1 2.8.7.6 1.5.9 2.5.9.6 0 1.1-.1 1.7-.4.6-.3 1.5-.8 2.7-1.7v-8c-.7.2-1.4.5-2 .7s-1.2.4-1.6.6c-1.7.7-2.8 1.4-3.5 2.3-.4.9-.8 1.8-.8 2.8zM443.9 340.6v-2.1l3.2-.6v-4.1-6.5-3.3c0-.8-.1-1.7-.1-2.7l-3.5-.5v-1.9l8.4-3.2.8.5.5 6c.8-2.1 1.8-3.7 3.1-4.8s2.6-1.7 3.9-1.7c.9 0 1.7.2 2.5.7.8.5 1.3 1.1 1.5 2 0 1.2-.3 2.2-.9 2.9-.6.7-1.4 1-2.4 1-1.2 0-2.4-.6-3.4-1.8l-.5-.5c-1.8 1.5-3.1 3.6-3.8 6.3v11.4l4.1.8v2.1h-13.4zM484.5 341.2c-1.3 0-2.4-.3-3.3-1-.8-.7-1.4-1.6-1.7-2.8-1.2 1.3-2.4 2.2-3.4 2.9-1 .7-2.3 1-3.9 1-1.9 0-3.5-.5-4.8-1.6-1.3-1.1-1.9-2.7-1.9-4.7 0-1.1.3-2.1.8-3 .5-.9 1.4-1.8 2.7-2.6 1.3-.8 3.2-1.6 5.6-2.4.7-.2 1.4-.5 2.3-.7.8-.2 1.7-.5 2.6-.7v-1.4c0-2.4-.3-3.9-1-4.8-.7-.8-1.8-1.2-3.5-1.2h-1c-.4 0-.7.1-1.1.2l-.6 2.8c-.1 1.2-.5 2.1-1.1 2.7-.6.6-1.3.9-2.1.9-1.6 0-2.6-.8-2.8-2.3.3-2 1.4-3.6 3.3-4.8 1.9-1.2 4.3-1.8 7.4-1.8 2.9 0 5.1.7 6.4 2.1 1.3 1.4 2 3.7 2 7v11c0 1.5.5 2.3 1.5 2.3.6 0 1.2-.4 1.8-1.1l1.2 1c-.6 1.1-1.3 2-2.1 2.4-1.1.3-2.1.6-3.3.6zm-13.1-7.3c0 1.3.3 2.3 1 2.8.7.6 1.5.9 2.5.9.6 0 1.1-.1 1.7-.4.6-.3 1.5-.8 2.7-1.7v-8c-.7.2-1.4.5-2 .7s-1.2.4-1.6.6c-1.7.7-2.8 1.4-3.5 2.3-.5.9-.8 1.8-.8 2.8zM522 341.2c-1.3 0-2.4-.3-3.3-1-.8-.7-1.4-1.6-1.7-2.8-1.2 1.3-2.4 2.2-3.4 2.9-1 .7-2.3 1-3.9 1-1.9 0-3.5-.5-4.8-1.6-1.3-1.1-1.9-2.7-1.9-4.7 0-1.1.3-2.1.8-3 .5-.9 1.4-1.8 2.7-2.6 1.3-.8 3.2-1.6 5.6-2.4.7-.2 1.4-.5 2.3-.7.8-.2 1.7-.5 2.6-.7v-1.4c0-2.4-.3-3.9-1-4.8-.7-.8-1.8-1.2-3.5-1.2h-1c-.4 0-.7.1-1.1.2l-.6 2.8c-.1 1.2-.5 2.1-1.1 2.7-.6.6-1.3.9-2.1.9-1.6 0-2.6-.8-2.8-2.3.3-2 1.4-3.6 3.3-4.8 1.9-1.2 4.3-1.8 7.4-1.8 2.9 0 5.1.7 6.4 2.1s2 3.7 2 7v11c0 1.5.5 2.3 1.5 2.3.6 0 1.2-.4 1.8-1.1l1.2 1c-.6 1.1-1.3 2-2.1 2.4-1.1.3-2.1.6-3.3.6zm-13.1-7.3c0 1.3.3 2.3 1 2.8.7.6 1.5.9 2.5.9.6 0 1.1-.1 1.7-.4.6-.3 1.5-.8 2.7-1.7v-8c-.7.2-1.4.5-2 .7s-1.2.4-1.6.6c-1.7.7-2.8 1.4-3.5 2.3-.5.9-.8 1.8-.8 2.8zM527.9 352.3v-2.1l3.4-.7c0-1.5.1-2.9.1-4.3v-18.1-3.3c0-.8-.1-1.7-.1-2.7l-3.5-.5v-1.9l8.4-3.2.8.5.3 3.1c2.3-2.4 4.8-3.6 7.6-3.6 1.8 0 3.5.5 4.9 1.5 1.5 1 2.6 2.4 3.5 4.3.9 1.9 1.3 4.2 1.3 6.9s-.5 5-1.4 6.9c-1 1.9-2.2 3.4-3.8 4.5s-3.3 1.6-5.3 1.6c-1.2 0-2.4-.2-3.5-.7s-2.1-1.2-3.1-2.3v6.9c0 1.4 0 2.8.1 4.3l3.9.8v2.1h-13.6zm14.5-33c-.8 0-1.6.2-2.3.6-.8.4-1.6.9-2.5 1.6v14.3c1.4 1.3 2.9 2 4.5 2 1.7 0 3.1-.7 4.3-2.2 1.2-1.5 1.7-3.8 1.7-6.9 0-3.1-.5-5.4-1.6-7-1.1-1.6-2.4-2.4-4.1-2.4zM558.1 340.6v-2.1l3.2-.6v-4.1-6.5-3.3c0-.8-.1-1.7-.1-2.7l-3.5-.5v-1.9l8.4-3.2.8.5.5 6c.8-2.1 1.8-3.7 3.1-4.8s2.6-1.7 3.9-1.7c.9 0 1.7.2 2.5.7.8.5 1.3 1.1 1.5 2 0 1.2-.3 2.2-.9 2.9-.6.7-1.4 1-2.4 1-1.2 0-2.4-.6-3.4-1.8l-.5-.5c-1.8 1.5-3.1 3.6-3.8 6.3v11.4l4.1.8v2.1h-13.4zM591.7 341.3c-2.4 0-4.4-.5-6.2-1.5-1.8-1-3.2-2.5-4.2-4.4-1-1.9-1.5-4.2-1.5-6.8 0-2.7.6-5 1.7-6.9 1.2-1.9 2.7-3.4 4.5-4.4 1.9-1 3.9-1.5 6-1.5 2 0 3.7.4 5.2 1.3 1.5.8 2.6 2 3.5 3.5.8 1.5 1.2 3.3 1.2 5.3 0 1.1-.1 2-.3 2.8h-15.4c.1 2.9.9 5.1 2.3 6.5 1.4 1.4 3.2 2.2 5.3 2.2 1.5 0 2.7-.3 3.8-.9 1-.6 2-1.4 2.8-2.3l1.5 1.3c-1 1.8-2.3 3.3-4 4.3-1.8.9-3.8 1.5-6.2 1.5zm0-23.2c-.8 0-1.6.3-2.4.8-.8.5-1.5 1.4-2 2.5-.6 1.2-.9 2.8-1 4.8h6.9c1.2 0 2-.3 2.4-.8.4-.5.6-1.2.6-2.1 0-1.5-.4-2.8-1.3-3.8-.9-.9-1.9-1.4-3.2-1.4zM605.7 340.6v-2.1l3.3-.7v-4.1-6.5-3.3c0-.8-.1-1.7-.1-2.7l-3.5-.5v-1.9l8.4-3.2.8.5.4 3.9c2.6-2.9 5.4-4.4 8.6-4.4 2.2 0 3.9.7 5.1 2.2 1.2 1.4 1.8 3.7 1.8 6.9v9.1c0 1.4 0 2.8.1 4l3.1.6v2.1H621v-2.1l3.2-.7v-4-8.7c0-2-.3-3.4-.8-4.1s-1.4-1.1-2.7-1.1c-1.8 0-3.7.8-5.6 2.5V337.8l3 .6v2.1l-12.4.1zM654.3 341.1l-.4-3.2c-.9 1.1-2 1.9-3.1 2.5s-2.5.9-3.9.9c-2 0-3.7-.5-5.3-1.5s-2.7-2.5-3.6-4.3c-.9-1.9-1.3-4.1-1.3-6.7 0-2.7.5-5 1.5-6.9 1-1.9 2.3-3.5 4-4.5 1.7-1.1 3.5-1.6 5.5-1.6 1.3 0 2.4.2 3.5.7 1 .5 2 1.2 2.9 2.3v-10.4l-3.9-.5v-2l9.2-2.3.8.5-.2 7.1V338l3.3.6v2.1l-9 .4zm-11.2-12.5c0 3.1.6 5.3 1.7 6.8 1.2 1.5 2.6 2.2 4.4 2.2.9 0 1.7-.2 2.4-.5.7-.4 1.4-.9 2-1.5v-14.5c-1.5-1.3-2.9-1.9-4.4-1.9-1.7 0-3.1.8-4.4 2.3-1.1 1.5-1.7 3.9-1.7 7.1zM677.8 341.3c-2.4 0-4.4-.5-6.2-1.5-1.8-1-3.2-2.5-4.2-4.4-1-1.9-1.5-4.2-1.5-6.8 0-2.7.6-5 1.7-6.9 1.2-1.9 2.7-3.4 4.5-4.4 1.9-1 3.9-1.5 6-1.5 2 0 3.7.4 5.2 1.3 1.5.8 2.6 2 3.5 3.5.8 1.5 1.2 3.3 1.2 5.3 0 1.1-.1 2-.3 2.8h-15.4c.1 2.9.9 5.1 2.3 6.5 1.4 1.4 3.2 2.2 5.3 2.2 1.5 0 2.7-.3 3.8-.9 1-.6 2-1.4 2.8-2.3l1.5 1.3c-1 1.8-2.3 3.3-4 4.3-1.9.9-3.9 1.5-6.2 1.5zm0-23.2c-.8 0-1.6.3-2.4.8-.8.5-1.5 1.4-2 2.5-.6 1.2-.9 2.8-1 4.8h6.9c1.2 0 2-.3 2.4-.8.4-.5.6-1.2.6-2.1 0-1.5-.4-2.8-1.3-3.8-.9-.9-2-1.4-3.2-1.4zM691.7 340.6v-2.1l3.2-.6v-4.1-6.5-3.3c0-.8-.1-1.7-.1-2.7l-3.5-.5v-1.9l8.4-3.2.8.5.5 6c.8-2.1 1.8-3.7 3.1-4.8s2.6-1.7 3.9-1.7c.9 0 1.7.2 2.5.7.8.5 1.3 1.1 1.5 2 0 1.2-.3 2.2-.9 2.9-.6.7-1.4 1-2.4 1-1.2 0-2.4-.6-3.4-1.8l-.5-.5c-1.8 1.5-3.1 3.6-3.8 6.3v11.4l4.1.8v2.1h-13.4z"/></g><g class="st1"><path class="st2" d="M260.9 387.8c-2.4 0-4.4-.5-6.2-1.5-1.8-1-3.2-2.5-4.2-4.4s-1.5-4.2-1.5-6.8c0-2.7.6-5 1.7-6.9 1.2-1.9 2.7-3.4 4.5-4.4 1.9-1 3.9-1.5 6-1.5 2 0 3.7.4 5.2 1.3 1.5.8 2.6 2 3.5 3.5.8 1.5 1.2 3.3 1.2 5.3 0 1.1-.1 2-.3 2.8h-15.4c.1 2.9.9 5.1 2.3 6.5 1.4 1.4 3.2 2.2 5.3 2.2 1.5 0 2.7-.3 3.8-.9 1-.6 2-1.4 2.8-2.3l1.5 1.3c-1 1.8-2.3 3.3-4 4.3-1.9 1-3.9 1.5-6.2 1.5zm0-23.1c-.8 0-1.6.3-2.4.8-.8.5-1.5 1.4-2 2.5-.6 1.2-.9 2.8-1 4.8h6.9c1.2 0 2-.3 2.4-.8s.6-1.2.6-2.1c0-1.5-.4-2.8-1.3-3.8s-2-1.4-3.2-1.4zM274.8 387.1V385l3.3-.7v-4.1-6.5-3.3c0-.8-.1-1.7-.1-2.7l-3.5-.5v-1.9l8.4-3.2.8.5.4 3.9c2.6-2.9 5.4-4.4 8.6-4.4 2.2 0 3.9.7 5.1 2.2 1.2 1.4 1.8 3.7 1.8 6.9v9.1c0 1.4 0 2.8.1 4l3.1.6v2.1h-12.5v-2l3.2-.7v-4-8.7c0-2-.3-3.4-.8-4.1-.5-.8-1.4-1.1-2.7-1.1-1.8 0-3.7.8-5.6 2.5V384.4l3 .6v2.1h-12.6zM328.9 387.8c-2.3 0-4.3-.5-6.2-1.5s-3.2-2.4-4.3-4.3c-1-1.9-1.5-4.2-1.5-6.9s.6-5 1.7-7 2.7-3.4 4.6-4.4c1.9-1 4-1.5 6.3-1.5 1.6 0 3.1.3 4.5.9 1.3.6 2.4 1.5 3.2 2.5.8 1 1.3 2.2 1.5 3.5-.4 1.5-1.4 2.2-2.9 2.2-1.9 0-3-1.2-3.3-3.5l-.7-3c-.3-.1-.6-.1-.9-.2h-.9c-1.2 0-2.3.3-3.4 1-1 .7-1.9 1.8-2.5 3.2-.6 1.4-1 3.3-1 5.5 0 3.1.7 5.4 2.1 7 1.4 1.6 3.2 2.4 5.5 2.4 1.3 0 2.6-.3 3.6-.9 1.1-.6 2-1.4 2.7-2.5l1.5 1.1c-.8 2.1-2.1 3.6-3.8 4.7-1.4 1.2-3.4 1.7-5.8 1.7zM354.2 387.8c-2.3 0-4.3-.5-6.2-1.5-1.8-1-3.3-2.5-4.4-4.4-1.1-1.9-1.6-4.2-1.6-6.9s.6-5 1.7-6.9c1.1-1.9 2.6-3.4 4.5-4.4 1.8-1 3.8-1.5 6-1.5s4.2.5 6 1.5 3.3 2.5 4.5 4.4c1.1 1.9 1.7 4.2 1.7 6.9s-.5 5-1.6 6.9c-1.1 1.9-2.6 3.4-4.4 4.4-1.9 1-3.9 1.5-6.2 1.5zm0-2.5c1.8 0 3.2-.8 4.2-2.5s1.4-4.3 1.4-7.7c0-6.9-1.9-10.4-5.6-10.4-3.7 0-5.5 3.5-5.5 10.4 0 3.5.5 6 1.4 7.7.9 1.7 2.3 2.5 4.1 2.5zM369.3 387.1V385l3.4-.7c0-1.3.1-2.6.1-3.9v-25.5l-3.7-.5v-2l9.2-2.3.8.5-.2 7.1v22.7c0 1.3 0 2.6.1 3.9l3.4.7v2.1h-13.1zM397.3 387.8c-2.4 0-4.4-.5-6.2-1.5-1.8-1-3.2-2.5-4.2-4.4s-1.5-4.2-1.5-6.8c0-2.7.6-5 1.7-6.9 1.2-1.9 2.7-3.4 4.5-4.4 1.9-1 3.9-1.5 6-1.5 2 0 3.7.4 5.2 1.3 1.5.8 2.6 2 3.5 3.5.8 1.5 1.2 3.3 1.2 5.3 0 1.1-.1 2-.3 2.8h-15.4c.1 2.9.9 5.1 2.3 6.5 1.4 1.4 3.2 2.2 5.3 2.2 1.5 0 2.7-.3 3.8-.9 1-.6 2-1.4 2.8-2.3l1.5 1.3c-1 1.8-2.3 3.3-4 4.3-1.8 1-3.8 1.5-6.2 1.5zm0-23.1c-.8 0-1.6.3-2.4.8-.8.5-1.5 1.4-2 2.5-.6 1.2-.9 2.8-1 4.8h6.9c1.2 0 2-.3 2.4-.8s.6-1.2.6-2.1c0-1.5-.4-2.8-1.3-3.8s-1.9-1.4-3.2-1.4zM423.3 387.8c-2.3 0-4.3-.5-6.2-1.5-1.8-1-3.2-2.4-4.3-4.3-1-1.9-1.5-4.2-1.5-6.9s.6-5 1.7-7c1.2-1.9 2.7-3.4 4.6-4.4 1.9-1 4-1.5 6.3-1.5 1.6 0 3.1.3 4.5.9 1.3.6 2.4 1.5 3.2 2.5.8 1 1.3 2.2 1.5 3.5-.4 1.5-1.4 2.2-2.9 2.2-1.9 0-3-1.2-3.3-3.5l-.7-3c-.3-.1-.6-.1-.9-.2h-.9c-1.2 0-2.3.3-3.4 1-1 .7-1.9 1.8-2.5 3.2-.6 1.4-1 3.3-1 5.5 0 3.1.7 5.4 2.1 7 1.4 1.6 3.2 2.4 5.5 2.4 1.3 0 2.6-.3 3.6-.9 1.1-.6 2-1.4 2.7-2.5l1.5 1.1c-.8 2.1-2.1 3.6-3.8 4.7-1.4 1.2-3.5 1.7-5.8 1.7zM445.2 387.8c-2 0-3.6-.5-4.7-1.5s-1.7-2.6-1.7-4.8v-2.2V366h-3.7v-2.6l4.1-.5 1.9-6.9h4.1l-.2 7h6.1v3.1H445V381c0 1.2.2 2.2.7 2.7s1.1.9 1.9.9c.9 0 1.9-.4 3.1-1.3l1.2 1.3c-.6 1-1.5 1.9-2.6 2.4-1.2.5-2.5.8-4.1.8zM453.4 387.1V385l3.3-.7c0-1.2.1-2.6.1-4.1V374v-3.5c0-.9-.1-1.9-.1-2.9l-3.6-.5v-1.9l9.1-3.2.8.5-.2 7.1v14.6l3.1.6v2.1l-12.5.2zm6.3-29.5c-1.1 0-2-.3-2.7-1-.7-.7-1.1-1.5-1.1-2.6s.4-1.9 1.1-2.6c.7-.7 1.6-1 2.7-1s2 .3 2.7 1 1.1 1.5 1.1 2.6c0 1-.4 1.9-1.1 2.6-.7.6-1.6 1-2.7 1zM482.7 365.1V363h9.6v2.1l-2.8.6-8.3 21.6h-3l-9.1-21.8-2.6-.5v-2.1h13.3v2.1l-3.9.6 5.5 14.6 5-14.6-3.7-.5zM505.5 387.8c-2.3 0-4.3-.5-6.2-1.5-1.8-1-3.3-2.5-4.4-4.4-1.1-1.9-1.6-4.2-1.6-6.9s.6-5 1.7-6.9c1.1-1.9 2.6-3.4 4.5-4.4 1.8-1 3.8-1.5 6-1.5 2.1 0 4.1.5 6 1.5 1.8 1 3.3 2.5 4.5 4.4s1.7 4.2 1.7 6.9-.5 5-1.6 6.9c-1.1 1.9-2.6 3.4-4.4 4.4s-3.9 1.5-6.2 1.5zm0-2.5c1.8 0 3.2-.8 4.2-2.5s1.4-4.3 1.4-7.7c0-6.9-1.9-10.4-5.6-10.4-3.7 0-5.5 3.5-5.5 10.4 0 3.5.5 6 1.4 7.7.9 1.7 2.3 2.5 4.1 2.5zM544.6 387.8c-2.3 0-4.3-.5-6.2-1.5-1.8-1-3.2-2.4-4.3-4.3-1-1.9-1.5-4.2-1.5-6.9s.6-5 1.7-7c1.2-1.9 2.7-3.4 4.6-4.4 1.9-1 4-1.5 6.3-1.5 1.6 0 3.1.3 4.5.9 1.3.6 2.4 1.5 3.2 2.5.8 1 1.3 2.2 1.5 3.5-.4 1.5-1.4 2.2-2.9 2.2-1.9 0-3-1.2-3.3-3.5l-.7-3c-.3-.1-.6-.1-.9-.2h-.9c-1.2 0-2.3.3-3.4 1-1 .7-1.9 1.8-2.5 3.2-.6 1.4-1 3.3-1 5.5 0 3.1.7 5.4 2.1 7 1.4 1.6 3.2 2.4 5.5 2.4 1.3 0 2.6-.3 3.6-.9 1.1-.6 2-1.4 2.7-2.5l1.5 1.1c-.8 2.1-2.1 3.6-3.8 4.7-1.4 1.2-3.4 1.7-5.8 1.7zM569.9 387.8c-2.3 0-4.3-.5-6.2-1.5-1.8-1-3.3-2.5-4.4-4.4-1.1-1.9-1.6-4.2-1.6-6.9s.6-5 1.7-6.9c1.1-1.9 2.6-3.4 4.5-4.4 1.8-1 3.8-1.5 6-1.5s4.2.5 6 1.5c1.8 1 3.3 2.5 4.5 4.4s1.7 4.2 1.7 6.9-.5 5-1.6 6.9c-1.1 1.9-2.6 3.4-4.4 4.4s-3.9 1.5-6.2 1.5zm0-2.5c1.8 0 3.2-.8 4.2-2.5s1.4-4.3 1.4-7.7c0-6.9-1.9-10.4-5.6-10.4-3.7 0-5.5 3.5-5.5 10.4 0 3.5.5 6 1.4 7.7.9 1.7 2.3 2.5 4.1 2.5zM585.7 387.1V385l3.3-.7v-4.1-6.5-3.3c0-.8-.1-1.7-.1-2.7l-3.5-.5v-1.9l8.4-3.2.8.5.4 3.9c2.6-2.9 5.4-4.4 8.6-4.4 2.2 0 3.9.7 5.1 2.2 1.2 1.4 1.8 3.7 1.8 6.9v9.1c0 1.4 0 2.8.1 4l3.1.6v2.1H601v-2l3.2-.7v-4-8.7c0-2-.3-3.4-.8-4.1s-1.4-1.1-2.7-1.1c-1.8 0-3.7.8-5.6 2.5V384.4l3 .6v2.1h-12.4zM627.4 387.1V385l3.4-.7c0-1.3.1-2.6.1-3.9v-25.5l-3.7-.5v-2l9.2-2.3.8.5-.2 7.1v22.7c0 1.3 0 2.6.1 3.9l3.4.7v2.1h-13.1zM662.1 387.7c-1.3 0-2.4-.3-3.3-1-.8-.7-1.4-1.6-1.7-2.8-1.2 1.3-2.4 2.2-3.4 2.9-1 .7-2.3 1-3.9 1-1.9 0-3.5-.5-4.8-1.6-1.3-1.1-1.9-2.7-1.9-4.7 0-1.1.3-2.1.8-3 .5-.9 1.4-1.8 2.7-2.6 1.3-.8 3.2-1.6 5.6-2.4.7-.2 1.4-.5 2.3-.7.8-.2 1.7-.5 2.6-.7v-1.4c0-2.4-.3-3.9-1-4.8-.7-.8-1.8-1.2-3.5-1.2h-1c-.4 0-.7.1-1.1.2l-.6 2.8c-.1 1.2-.5 2.1-1.1 2.7-.6.6-1.3.9-2.1.9-1.6 0-2.6-.8-2.8-2.3.3-2 1.4-3.6 3.3-4.8 1.9-1.2 4.3-1.8 7.4-1.8 2.9 0 5.1.7 6.4 2.1s2 3.7 2 7v11c0 1.5.5 2.3 1.5 2.3.6 0 1.2-.4 1.8-1.1l1.2 1c-.6 1.1-1.3 2-2.1 2.4-1.1.4-2.1.6-3.3.6zm-13.1-7.3c0 1.3.3 2.3 1 2.8.7.6 1.5.9 2.5.9.6 0 1.1-.1 1.7-.4.6-.3 1.5-.8 2.7-1.7v-8c-.7.2-1.4.5-2 .7s-1.2.4-1.6.6c-1.7.7-2.8 1.4-3.5 2.3-.5.9-.8 1.8-.8 2.8z"/></g><g class="st1"><path class="st2" d="M278.4 434.4c-1.5 0-3-.2-4.3-.5-1.3-.4-2.6-.9-3.9-1.6v-5.8h3.4l.9 4.7c1.2.5 2.5.8 3.9.8 1.7 0 3-.3 3.8-.9.8-.6 1.3-1.4 1.3-2.5 0-.9-.3-1.7-1-2.3-.7-.6-1.8-1.2-3.4-1.7l-2.5-.9c-1.9-.6-3.4-1.5-4.5-2.7-1.1-1.2-1.6-2.7-1.6-4.4 0-1.4.4-2.7 1.1-3.9.7-1.2 1.8-2.1 3.3-2.8 1.4-.7 3.2-1 5.2-1 1.4 0 2.8.2 4 .5 1.2.4 2.4.9 3.6 1.5l-.3 5.3H284l-.9-4.2c-.9-.4-2-.6-3.1-.6-1.3 0-2.4.3-3.1.9-.7.6-1.1 1.3-1.1 2.3 0 .9.3 1.6.9 2.2.6.6 1.8 1.1 3.5 1.7l2 .6c2.5.8 4.2 1.9 5.2 3.1 1 1.2 1.6 2.7 1.6 4.5 0 2.3-.9 4.1-2.7 5.6-1.9 1.3-4.6 2.1-7.9 2.1zM304.6 434.4c-2.3 0-4.3-.5-6.2-1.5-1.8-1-3.3-2.5-4.4-4.4-1.1-1.9-1.6-4.2-1.6-6.9s.6-5 1.7-6.9c1.1-1.9 2.6-3.4 4.5-4.4 1.8-1 3.8-1.5 6-1.5s4.2.5 6 1.5c1.8 1 3.3 2.5 4.5 4.4 1.1 1.9 1.7 4.2 1.7 6.9s-.5 5-1.6 6.9c-1.1 1.9-2.6 3.4-4.4 4.4-1.9.9-3.9 1.5-6.2 1.5zm0-2.5c1.8 0 3.2-.8 4.2-2.5s1.4-4.3 1.4-7.7c0-6.9-1.9-10.4-5.6-10.4-3.7 0-5.5 3.5-5.5 10.4 0 3.5.5 6 1.4 7.7.9 1.6 2.3 2.5 4.1 2.5zM332.6 434.4c-2.3 0-4.3-.5-6.2-1.5s-3.2-2.4-4.3-4.3c-1-1.9-1.5-4.2-1.5-6.9s.6-5 1.7-7 2.7-3.4 4.6-4.4c1.9-1 4-1.5 6.3-1.5 1.6 0 3.1.3 4.5.9 1.3.6 2.4 1.5 3.2 2.5s1.3 2.2 1.5 3.5c-.4 1.5-1.4 2.2-2.9 2.2-1.9 0-3-1.2-3.3-3.5l-.7-3c-.3-.1-.6-.1-.9-.2-.3 0-.6-.1-.9-.1-1.2 0-2.3.3-3.4 1-1 .7-1.9 1.8-2.5 3.2-.6 1.4-1 3.3-1 5.5 0 3.1.7 5.4 2.1 7 1.4 1.6 3.2 2.4 5.5 2.4 1.3 0 2.6-.3 3.6-.9 1.1-.6 2-1.4 2.7-2.5l1.5 1.1c-.8 2-2.1 3.6-3.8 4.7-1.4 1.2-3.5 1.8-5.8 1.8zM345.7 433.6v-2.1l3.3-.7v-4.1V420.5 417c0-.9-.1-1.9-.1-2.9l-3.6-.5V412l9.1-3.2.8.5-.2 7.1v10.5c0 1.5 0 2.8.1 4.1l3.1.6v2.1l-12.5-.1zm6.3-29.5c-1.1 0-2-.3-2.7-1-.7-.7-1.1-1.5-1.1-2.6s.4-1.9 1.1-2.6c.7-.7 1.6-1 2.7-1s2 .3 2.7 1 1.1 1.5 1.1 2.6c0 1-.4 1.9-1.1 2.6-.7.7-1.6 1-2.7 1zM373.3 434.4c-2.4 0-4.4-.5-6.2-1.5-1.8-1-3.2-2.5-4.2-4.4-1-1.9-1.5-4.2-1.5-6.8 0-2.7.6-5 1.7-6.9 1.2-1.9 2.7-3.4 4.5-4.4 1.9-1 3.9-1.5 6-1.5 2 0 3.7.4 5.2 1.3s2.6 2 3.5 3.5c.8 1.5 1.2 3.3 1.2 5.3 0 1.1-.1 2-.3 2.8h-15.4c.1 2.9.9 5.1 2.3 6.5 1.4 1.4 3.2 2.2 5.3 2.2 1.5 0 2.7-.3 3.8-.9 1-.6 2-1.4 2.8-2.3l1.5 1.3c-1 1.8-2.3 3.3-4 4.3-1.8.9-3.9 1.5-6.2 1.5zm0-23.2c-.8 0-1.6.3-2.4.8-.8.5-1.5 1.4-2 2.5s-.9 2.8-1 4.8h6.9c1.2 0 2-.3 2.4-.8.4-.5.6-1.2.6-2.1 0-1.5-.4-2.8-1.3-3.8-.9-.9-2-1.4-3.2-1.4zM405 434.2l-.4-3.2c-.9 1.1-2 1.9-3.1 2.5-1.1.6-2.5.9-3.9.9-2 0-3.7-.5-5.3-1.5-1.5-1-2.7-2.5-3.6-4.3-.9-1.9-1.3-4.1-1.3-6.7 0-2.7.5-5 1.5-6.9 1-1.9 2.3-3.5 4-4.5s3.5-1.6 5.5-1.6c1.3 0 2.4.2 3.5.7 1 .5 2 1.2 2.9 2.3v-10.4l-3.9-.5v-2l9.2-2.3.8.5-.2 7.1V431l3.3.6v2.1l-9 .5zm-11.2-12.5c0 3.1.6 5.3 1.7 6.8 1.2 1.5 2.6 2.2 4.4 2.2.9 0 1.7-.2 2.4-.5.7-.4 1.4-.9 2-1.5v-14.5c-1.5-1.3-2.9-1.9-4.4-1.9-1.7 0-3.1.8-4.4 2.3s-1.7 3.9-1.7 7.1zM435.2 434.2c-1.3 0-2.4-.3-3.3-1-.8-.7-1.4-1.6-1.7-2.8-1.2 1.3-2.4 2.2-3.4 2.9-1 .7-2.3 1-3.9 1-1.9 0-3.5-.5-4.8-1.6-1.3-1.1-1.9-2.7-1.9-4.7 0-1.1.3-2.1.8-3 .5-.9 1.4-1.8 2.7-2.6 1.3-.8 3.2-1.6 5.6-2.4.7-.2 1.4-.5 2.3-.7s1.7-.5 2.6-.7v-1.4c0-2.4-.3-3.9-1-4.8-.7-.8-1.8-1.2-3.5-1.2-.3 0-.6 0-1 .1s-.7.1-1.1.2l-.6 2.8c-.1 1.2-.5 2.1-1.1 2.7s-1.3.9-2.1.9c-1.6 0-2.6-.8-2.8-2.3.3-2 1.4-3.6 3.3-4.8 1.9-1.2 4.3-1.8 7.4-1.8 2.9 0 5.1.7 6.4 2.1 1.3 1.4 2 3.7 2 7v11c0 1.5.5 2.3 1.5 2.3.6 0 1.2-.4 1.8-1.1l1.2 1c-.6 1.1-1.3 2-2.1 2.4-1.1.3-2.1.5-3.3.5zm-13.2-7.3c0 1.3.3 2.3 1 2.8.7.6 1.5.9 2.5.9.6 0 1.1-.1 1.7-.4.6-.3 1.5-.8 2.7-1.7v-8c-.7.2-1.4.5-2 .7-.6.2-1.2.4-1.6.6-1.7.7-2.8 1.4-3.5 2.3-.4.9-.8 1.9-.8 2.8zM460 434.2l-.4-3.2c-.9 1.1-2 1.9-3.1 2.5s-2.5.9-3.9.9c-2 0-3.7-.5-5.3-1.5s-2.7-2.5-3.6-4.3c-.9-1.9-1.3-4.1-1.3-6.7 0-2.7.5-5 1.5-6.9 1-1.9 2.3-3.5 4-4.5 1.7-1.1 3.5-1.6 5.5-1.6 1.3 0 2.4.2 3.5.7s2 1.2 2.9 2.3v-10.4l-3.9-.5v-2l9.2-2.3.8.5-.2 7.1V431l3.3.6v2.1l-9 .5zm-11.2-12.5c0 3.1.6 5.3 1.7 6.8 1.2 1.5 2.6 2.2 4.4 2.2.9 0 1.7-.2 2.4-.5.7-.4 1.4-.9 2-1.5v-14.5c-1.5-1.3-2.9-1.9-4.4-1.9-1.7 0-3.1.8-4.4 2.3-1.1 1.5-1.7 3.9-1.7 7.1zM494.7 434.4c-2.3 0-4.3-.5-6.2-1.5-1.8-1-3.2-2.4-4.3-4.3-1-1.9-1.5-4.2-1.5-6.9s.6-5 1.7-7c1.2-1.9 2.7-3.4 4.6-4.4 1.9-1 4-1.5 6.3-1.5 1.6 0 3.1.3 4.5.9s2.4 1.5 3.2 2.5c.8 1 1.3 2.2 1.5 3.5-.4 1.5-1.4 2.2-2.9 2.2-1.9 0-3-1.2-3.3-3.5l-.7-3c-.3-.1-.6-.1-.9-.2s-.6-.1-.9-.1c-1.2 0-2.3.3-3.4 1-1 .7-1.9 1.8-2.5 3.2-.6 1.4-1 3.3-1 5.5 0 3.1.7 5.4 2.1 7 1.4 1.6 3.2 2.4 5.5 2.4 1.3 0 2.6-.3 3.6-.9 1.1-.6 2-1.4 2.7-2.5l1.5 1.1c-.8 2-2.1 3.6-3.8 4.7-1.4 1.2-3.4 1.8-5.8 1.8zM507.8 433.6v-2.1l3.3-.7c0-1.2.1-2.6.1-4.1V420.5 417c0-.9-.1-1.9-.1-2.9l-3.6-.5V412l9.1-3.2.8.5-.2 7.1V431l3.1.6v2.1l-12.5-.1zm6.4-29.5c-1.1 0-2-.3-2.7-1-.7-.7-1.1-1.5-1.1-2.6s.4-1.9 1.1-2.6c.7-.7 1.6-1 2.7-1s2 .3 2.7 1 1.1 1.5 1.1 2.6c0 1-.4 1.9-1.1 2.6-.8.7-1.7 1-2.7 1zM537.2 411.6v-2.1h9.6v2.1l-2.8.6-8.3 21.6h-3l-9.1-21.8-2.6-.5v-2.1h13.3v2.1l-3.9.6 5.5 14.6 5-14.6-3.7-.5zM548.8 433.6v-2.1l3.3-.7c0-1.2.1-2.6.1-4.1V420.5 417c0-.9-.1-1.9-.1-2.9l-3.6-.5V412l9.1-3.2.8.5-.2 7.1V431l3.1.6v2.1l-12.5-.1zm6.3-29.5c-1.1 0-2-.3-2.7-1-.7-.7-1.1-1.5-1.1-2.6s.4-1.9 1.1-2.6c.7-.7 1.6-1 2.7-1s2 .3 2.7 1 1.1 1.5 1.1 2.6c0 1-.4 1.9-1.1 2.6-.7.7-1.6 1-2.7 1zM563.9 433.6v-2.1l3.4-.7c0-1.3.1-2.6.1-3.9v-25.5l-3.7-.5v-2l9.2-2.3.8.5-.2 7.1v22.7c0 1.3 0 2.6.1 3.9l3.4.7v2.1h-13.1zM603.3 434.4c-2.4 0-4.4-.5-6.2-1.5-1.8-1-3.2-2.5-4.2-4.4-1-1.9-1.5-4.2-1.5-6.8 0-2.7.6-5 1.7-6.9 1.2-1.9 2.7-3.4 4.5-4.4 1.9-1 3.9-1.5 6-1.5 2 0 3.7.4 5.2 1.3s2.6 2 3.5 3.5c.8 1.5 1.2 3.3 1.2 5.3 0 1.1-.1 2-.3 2.8h-15.4c.1 2.9.9 5.1 2.3 6.5 1.4 1.4 3.2 2.2 5.3 2.2 1.5 0 2.7-.3 3.8-.9 1-.6 2-1.4 2.8-2.3l1.5 1.3c-1 1.8-2.3 3.3-4 4.3-1.8.9-3.8 1.5-6.2 1.5zm0-23.2c-.8 0-1.6.3-2.4.8-.8.5-1.5 1.4-2 2.5s-.9 2.8-1 4.8h6.9c1.2 0 2-.3 2.4-.8.4-.5.6-1.2.6-2.1 0-1.5-.4-2.8-1.3-3.8-.9-.9-1.9-1.4-3.2-1.4zM617.2 433.6v-2.1l3.3-.7v-4.1-6.5-3.3c0-.8-.1-1.7-.1-2.7l-3.5-.5V412l8.4-3.2.8.5.4 3.9c2.6-2.9 5.4-4.4 8.6-4.4 2.2 0 3.9.7 5.1 2.2s1.8 3.7 1.8 6.9v9.1c0 1.5 0 2.8.1 4l3.1.6v2.1h-12.5v-2.1l3.2-.7v-4-8.7c0-2-.3-3.4-.8-4.1s-1.4-1.1-2.7-1.1c-1.8 0-3.7.8-5.6 2.5V431l3 .6v2.1l-12.6-.1z"/></g><g class="st1"><path class="st2" d="M274.5 480.2v-2.4l4.1-.6 10.5-30.7h4.1l10.5 30.9 3.4.4v2.3h-14.6v-2.3l4.4-.6-2.4-7.5h-11l-2.4 7.3 4.4.7v2.4h-11zm14.8-26.9l-4.6 14h9.2l-4.6-14zM309.6 480.2v-2.1l3.3-.7v-4.1-6.5-3.3c0-.8-.1-1.7-.1-2.7l-3.5-.5v-1.9l8.4-3.2.8.5.4 3.9c1.2-1.4 2.5-2.5 4-3.3 1.4-.8 2.9-1.2 4.5-1.2 3.3 0 5.4 1.5 6.3 4.6 1.3-1.6 2.7-2.8 4.2-3.5 1.4-.7 2.9-1.1 4.5-1.1 2.3 0 4 .7 5.1 2.1 1.1 1.4 1.7 3.7 1.7 6.8v13.4l3.1.6v2.1H340V478l3.1-.7v-4-8.3c0-2.1-.3-3.5-.8-4.3s-1.5-1.1-2.7-1.1c-1.8 0-3.6.9-5.5 2.6 0 .3.1.7.1 1.1v10.3c0 1.4 0 2.8.1 4.1l3 .6v2.1h-12.4v-2.1l3.2-.7v-4-8.4c0-2.1-.3-3.5-.8-4.3-.5-.8-1.4-1.2-2.7-1.2-.9 0-1.9.2-2.8.7-.9.5-1.8 1.1-2.7 1.8v15.4l3 .6v2.1h-12.5zM367.2 480.9c-2.4 0-4.4-.5-6.2-1.5-1.8-1-3.2-2.5-4.2-4.4-1-1.9-1.5-4.2-1.5-6.8 0-2.7.6-5 1.7-6.9 1.2-1.9 2.7-3.4 4.5-4.4 1.9-1 3.9-1.5 6-1.5 2 0 3.7.4 5.2 1.3s2.6 2 3.5 3.5c.8 1.5 1.2 3.3 1.2 5.3 0 1.1-.1 2-.3 2.8h-15.4c.1 2.9.9 5.1 2.3 6.5 1.4 1.4 3.2 2.2 5.3 2.2 1.5 0 2.7-.3 3.8-.9 1-.6 2-1.4 2.8-2.3l1.5 1.3c-1 1.8-2.3 3.3-4 4.3-1.8 1-3.8 1.5-6.2 1.5zm0-23.2c-.8 0-1.6.3-2.4.8-.8.5-1.5 1.4-2 2.5s-.9 2.8-1 4.8h6.9c1.2 0 2-.3 2.4-.8.4-.5.6-1.2.6-2.1 0-1.5-.4-2.8-1.3-3.8-.9-.9-1.9-1.4-3.2-1.4zm-2.6-6.8c.6-1 1.2-2 1.8-3.1.7-1.1 1.5-2.3 2.4-3.8.6-1 1.1-1.7 1.6-2 .5-.4 1.1-.6 1.7-.6.6 0 1.1.2 1.6.6s.7 1 .7 1.8c0 1-.8 2.1-2.4 3.4-1.2 1-2.3 1.9-3.2 2.7-.9.8-1.8 1.5-2.6 2.2l-1.6-1.2zM381.2 480.2v-2.1l3.2-.6v-4.1-6.5-3.3c0-.8-.1-1.7-.1-2.7l-3.5-.5v-1.9l8.4-3.2.8.5.5 6c.8-2.1 1.8-3.7 3.1-4.8 1.3-1.1 2.6-1.7 3.9-1.7.9 0 1.7.2 2.5.7s1.3 1.1 1.5 2c0 1.2-.3 2.2-.9 2.9-.6.7-1.4 1-2.4 1-1.2 0-2.4-.6-3.4-1.8l-.5-.5c-1.8 1.5-3.1 3.6-3.8 6.3v11.4l4.1.8v2.1h-13.4zM403.4 480.2v-2.1l3.3-.7c0-1.2.1-2.6.1-4.1V467.1v-3.5c0-.9-.1-1.9-.1-2.9l-3.6-.5v-1.9l9.1-3.2.8.5-.2 7.1v10.5c0 1.5 0 2.8.1 4.1l3.1.6v2.1l-12.6.2zm6.3-29.6c-1.1 0-2-.3-2.7-1-.7-.7-1.1-1.5-1.1-2.6s.4-1.9 1.1-2.6c.7-.7 1.6-1 2.7-1s2 .3 2.7 1c.7.7 1.1 1.5 1.1 2.6 0 1-.4 1.9-1.1 2.6-.7.7-1.6 1-2.7 1zM431 480.9c-2.3 0-4.3-.5-6.2-1.5-1.8-1-3.2-2.4-4.3-4.3-1-1.9-1.5-4.2-1.5-6.9s.6-5 1.7-7c1.2-1.9 2.7-3.4 4.6-4.4 1.9-1 4-1.5 6.3-1.5 1.6 0 3.1.3 4.5.9s2.4 1.5 3.2 2.5c.8 1 1.3 2.2 1.5 3.5-.4 1.5-1.4 2.2-2.9 2.2-1.9 0-3-1.2-3.3-3.5l-.7-3c-.3-.1-.6-.1-.9-.2s-.6-.1-.9-.1c-1.2 0-2.3.3-3.4 1-1 .7-1.9 1.8-2.5 3.2-.6 1.4-1 3.3-1 5.5 0 3.1.7 5.4 2.1 7 1.4 1.6 3.2 2.4 5.5 2.4 1.3 0 2.6-.3 3.6-.9 1.1-.6 2-1.4 2.7-2.5l1.5 1.1c-.8 2-2.1 3.6-3.8 4.7-1.4 1.3-3.4 1.8-5.8 1.8zM463.2 480.8c-1.3 0-2.4-.3-3.3-1-.8-.7-1.4-1.6-1.7-2.8-1.2 1.3-2.4 2.2-3.4 2.9-1 .7-2.3 1-3.9 1-1.9 0-3.5-.5-4.8-1.6-1.3-1.1-1.9-2.7-1.9-4.7 0-1.1.3-2.1.8-3 .5-.9 1.4-1.8 2.7-2.6 1.3-.8 3.2-1.6 5.6-2.4.7-.2 1.4-.5 2.3-.7s1.7-.5 2.6-.7v-1.4c0-2.4-.3-3.9-1-4.8-.7-.8-1.8-1.2-3.5-1.2-.3 0-.6 0-1 .1s-.7.1-1.1.2l-.6 2.8c-.1 1.2-.5 2.1-1.1 2.7s-1.3.9-2.1.9c-1.6 0-2.6-.8-2.8-2.3.3-2 1.4-3.6 3.3-4.8 1.9-1.2 4.3-1.8 7.4-1.8 2.9 0 5.1.7 6.4 2.1 1.3 1.4 2 3.7 2 7v11c0 1.5.5 2.3 1.5 2.3.6 0 1.2-.4 1.8-1.1l1.2 1c-.6 1.1-1.3 2-2.1 2.4-1.1.2-2.1.5-3.3.5zm-13.1-7.3c0 1.3.3 2.3 1 2.8.7.6 1.5.9 2.5.9.6 0 1.1-.1 1.7-.4.6-.3 1.5-.8 2.7-1.7v-8c-.7.2-1.4.5-2 .7-.6.2-1.2.4-1.6.6-1.7.7-2.8 1.4-3.5 2.3-.5.9-.8 1.8-.8 2.8zM481.8 449.1v-2.4h15.4v2.4l-4.4.5c0 2.1-.1 4.2-.1 6.3v15.2c0 2 0 4.1.1 6.3H503l1.4-7h3.5l-.5 9.7h-25.6v-2.4l4.2-.5c.1-2.1.1-4.2.1-6.3v-8.7-6.5c0-2.1 0-4.2-.1-6.3l-4.2-.3zM530.4 480.8c-1.3 0-2.4-.3-3.3-1-.8-.7-1.4-1.6-1.7-2.8-1.2 1.3-2.4 2.2-3.4 2.9-1 .7-2.3 1-3.9 1-1.9 0-3.5-.5-4.8-1.6-1.3-1.1-1.9-2.7-1.9-4.7 0-1.1.3-2.1.8-3 .5-.9 1.4-1.8 2.7-2.6 1.3-.8 3.2-1.6 5.6-2.4.7-.2 1.4-.5 2.3-.7s1.7-.5 2.6-.7v-1.4c0-2.4-.3-3.9-1-4.8-.7-.8-1.8-1.2-3.5-1.2-.3 0-.6 0-1 .1-.4 0-.7.1-1.1.2l-.6 2.8c-.1 1.2-.5 2.1-1.1 2.7s-1.3.9-2.1.9c-1.6 0-2.6-.8-2.8-2.3.3-2 1.4-3.6 3.3-4.8 1.9-1.2 4.3-1.8 7.4-1.8 2.9 0 5.1.7 6.4 2.1 1.3 1.4 2 3.7 2 7v11c0 1.5.5 2.3 1.5 2.3.6 0 1.2-.4 1.8-1.1l1.2 1c-.6 1.1-1.3 2-2.1 2.4-1.1.2-2.1.5-3.3.5zm-13.1-7.3c0 1.3.3 2.3 1 2.8.7.6 1.5.9 2.5.9.6 0 1.1-.1 1.7-.4.6-.3 1.5-.8 2.7-1.7v-8c-.7.2-1.4.5-2 .7-.6.2-1.2.4-1.6.6-1.7.7-2.8 1.4-3.5 2.3-.5.9-.8 1.8-.8 2.8zM546.3 480.9c-2 0-3.6-.5-4.7-1.5s-1.7-2.6-1.7-4.8v-2.2-13.2h-3.7v-2.6l4.1-.5 1.9-6.9h4.1l-.2 7h6.1v3.1H546V474c0 1.2.2 2.2.7 2.7.5.6 1.1.9 1.9.9.9 0 1.9-.4 3.1-1.3l1.2 1.3c-.6 1-1.5 1.9-2.6 2.4s-2.4.9-4 .9zM554.5 480.2v-2.1l3.3-.7c0-1.2.1-2.6.1-4.1V467.1v-3.5c0-.9-.1-1.9-.1-2.9l-3.6-.5v-1.9l9.1-3.2.8.5-.2 7.1v14.6l3.1.6v2.1l-12.5.2zm6.4-29.6c-1.1 0-2-.3-2.7-1-.7-.7-1.1-1.5-1.1-2.6s.4-1.9 1.1-2.6c.7-.7 1.6-1 2.7-1s2 .3 2.7 1c.7.7 1.1 1.5 1.1 2.6 0 1-.4 1.9-1.1 2.6-.8.7-1.7 1-2.7 1zM570.1 480.2v-2.1l3.3-.7v-4.1-6.5-3.3c0-.8-.1-1.7-.1-2.7l-3.5-.5v-1.9l8.4-3.2.8.5.4 3.9c2.6-2.9 5.4-4.4 8.6-4.4 2.2 0 3.9.7 5.1 2.2s1.8 3.7 1.8 6.9v9.1c0 1.5 0 2.8.1 4l3.1.6v2.1h-12.5V478l3.2-.7v-4-8.7c0-2-.3-3.4-.8-4.1s-1.4-1.1-2.7-1.1c-1.8 0-3.7.8-5.6 2.5V477.4l3 .6v2.1l-12.6.1zM619.9 480.8c-1.3 0-2.4-.3-3.3-1-.8-.7-1.4-1.6-1.7-2.8-1.2 1.3-2.4 2.2-3.4 2.9-1 .7-2.3 1-3.9 1-1.9 0-3.5-.5-4.8-1.6-1.3-1.1-1.9-2.7-1.9-4.7 0-1.1.3-2.1.8-3 .5-.9 1.4-1.8 2.7-2.6 1.3-.8 3.2-1.6 5.6-2.4.7-.2 1.4-.5 2.3-.7s1.7-.5 2.6-.7v-1.4c0-2.4-.3-3.9-1-4.8-.7-.8-1.8-1.2-3.5-1.2-.3 0-.6 0-1 .1-.4 0-.7.1-1.1.2l-.6 2.8c-.1 1.2-.5 2.1-1.1 2.7s-1.3.9-2.1.9c-1.6 0-2.6-.8-2.8-2.3.3-2 1.4-3.6 3.3-4.8 1.9-1.2 4.3-1.8 7.4-1.8 2.9 0 5.1.7 6.4 2.1 1.3 1.4 2 3.7 2 7v11c0 1.5.5 2.3 1.5 2.3.6 0 1.2-.4 1.8-1.1l1.2 1c-.6 1.1-1.3 2-2.1 2.4-1.1.2-2.1.5-3.3.5zm-13.1-7.3c0 1.3.3 2.3 1 2.8.7.6 1.5.9 2.5.9.6 0 1.1-.1 1.7-.4.6-.3 1.5-.8 2.7-1.7v-8c-.7.2-1.4.5-2 .7-.6.2-1.2.4-1.6.6-1.7.7-2.8 1.4-3.5 2.3-.5.9-.8 1.8-.8 2.8zM632.8 480.9c-1.1 0-2.1-.4-2.9-1.2-.8-.8-1.2-1.7-1.2-2.8 0-1.1.4-2.1 1.2-2.9.8-.8 1.7-1.2 2.9-1.2 1.1 0 2.1.4 2.9 1.2.8.8 1.2 1.8 1.2 2.9 0 1.1-.4 2-1.2 2.8-.8.8-1.8 1.2-2.9 1.2z"/></g><path d="M213.2 209.3c.6-.4 1.2-.4 1.8-.4.5 0 .9.2 1.3.4s.7 0 1 .2c.3.2.6.3.9.2.3 0 .5.1.8.1.3.1.6.2.9.2.1 0 .2.1.4.1.4.1.7.3 1.1.2.1 0 .2.1.3.1.4.1.7.3 1.1.2.2 0 .3 0 .5.1.3.1.7.3 1 .2.1 0 .2.1.4.1.4.1.7.3 1.1.2.1 0 .2.1.3.1.4.1.7.3 1.1.2.2 0 .5.1.8.1 0-.2 0-.3-.1-.4l-1.5-3c-.6-1.1-1.1-2.1-1.8-3.2-.5-.8-.8-1.7-1.3-2.6-.4-.7-.8-1.4-1.2-2.2-.4-1-1.1-1.9-1.5-3.2 0-.3.1-.8.1-1.3 1-1 1.5-1.2 2.5-1.2.3.2.5.3.8.4v.1c.4.4.6.9.9 1.4.7 1.2 1.3 2.3 1.9 3.5.3.6.5 1.2.8 1.7.3.6.6 1.1.9 1.7.4.7.7 1.5 1.2 2.1.1.2.1.4.2.5.6.9 1 1.8 1.5 2.7.4.7.7 1.4 1 2.1.2.5.5 1 .8 1.6.1-.3.3-.6.3-.8 0-.4.2-.8.3-1.1.1-.4.2-.7.4-1 .2-.3.3-.7.3-1.1.1-.4.2-.7.4-1 .2-.3.3-.8.4-1.2.1-.4.3-.9.4-1.3h.2c.2-.5.3-1 .4-1.5.1-.3.2-.6.3-.8.1-.2.3-.4.4-.7.1-.5.3-.9.4-1.3.1-.4.4-.7.5-1.1.1-.4.2-.7.4-1.1.1-.4.4-.6.8-.8.2-.1.3-.2.7-.4.4 0 1 .1 1.6.1.2.3.5.6.8.9.2.3-.1.7.2 1-.1.5-.3 1-.4 1.4-.2.6-.4 1.2-.6 1.7-.2.4-.3.8-.4 1.3-.1.3-.2.5-.2.8-.1.2-.4.3-.3.7-.3.7-.5 1.4-.7 2.2h-.2c-.1.5-.2 1-.4 1.4-.1.4-.2.8-.5 1.2-.2.3-.2.8-.3 1.1-.2.5-.5 1.1-.7 1.6-.1.3-.2.6-.3 1 .7 0 1.2-.6 1.9-.5.1-.1.2-.2.2-.3.4-.1.8-.1 1-.2.6-.4 1.3-.6 2-.8.5-.2 1.1-.4 1.7-.6.5-.2 1.1-.3 1.6-.6l1.5-.6c.2-.1.4-.2.7-.3.6-.1 1.2-.4 1.7-.6.9-.4 1.8-.7 2.8-1 .4-.1.8-.4 1.3-.3.3.1.5.1.8.2l.7.7c.1.4.1.7.2 1v1.1c-.1 0-.2.1-.2.2-.2.8-.9 1-1.5 1.3-.5.2-1 .4-1.6.6-.7.3-1.4.5-2.1.8-.7.2-1.4.4-2 .7-.8.4-1.7.6-2.5.9-.2.1-.4.1-.7.3.5.1.8.3 1.2.2.1 0 .2.1.3.1.3 0 .7.2 1 .2.2 0 .3.1.5.1.7.2 1.4.1 2 .5 1-.1 1.8.5 2.7.5.6.4 1.5.2 2.1.6.2.1.5 0 .8 0 .3.3.6.5.9.7.2.2.3.4.3.7.1.4 0 .7 0 1-.2.5-.4.9-.6 1.2-.2.4-.7.5-1.1.7h-.8c-.3 0-.5-.1-.8-.1-.3-.1-.6-.2-.9-.2-.1 0-.3-.1-.4-.1-.4 0-.7-.3-1-.2-.1 0-.2-.1-.4-.1-.4-.1-.7-.3-1.1-.2-.5.1-.9-.2-1.3-.3-.6-.2-1.2-.2-1.8-.4-.3-.1-.7-.1-1-.2-.6-.2-1.3-.1-1.8-.5-.7.1-1.3-.4-2-.3-.2 0-.4-.1-.6-.2-.6-.2-1.3-.1-1.8-.5-.9.1-1.7-.6-2.6-.3 0 .1 0 .3.1.4.5 1.1 1 2.3 1.6 3.4.5.9 1 1.7 1.4 2.6.9 1.6 1.7 3.2 2.5 4.9l.6 1.5c.4.7.8 1.4 1.2 2 .3.5.5 1 .7 1.5.1.4-.1.8-.1 1.1-.2.3-.6.5-.8.9-1 .5-1.4.4-2.7.1-.4-.8-.9-1.5-1.3-2.3-.5-.8-.9-1.7-1.3-2.6-.4-.8-.9-1.7-1.4-2.5-.3-.5-.4-1.1-.7-1.5-.5-.9-1-1.9-1.6-2.8-.3-.5-.5-1.1-.8-1.6-.2-.2-.1-.5-.2-.8-.4.4-.2.9-.5 1.3h-.1l-.1.1c0 .5-.3.9-.4 1.4-.1.3-.1.6-.3.8-.1.2-.3.4-.4.7-.1.4-.3.8-.4 1.2-.1.4-.4.6-.4 1 0 .3-.2.7-.3 1-.1.2-.1.4-.1.4-.2.4-.3.6-.5.9 0 0-.2 0-.2.1-.3.6-.9.6-1.4.7h-.9c-.1-.1-.3-.2-.4-.3-.8-.5-1.1-1.3-.8-2.3 0-.2 0-.4.1-.5h.2c.2-.8.4-1.7.9-2.5.2-.4.3-.8.4-1.3.1-.5.4-.9.6-1.4.3-.7.5-1.5.7-2.2h.2c.1-.4.1-.7.2-1.2-.6.4-1.3.4-1.9.7-.6.3-1.3.4-1.9.8-.4-.2-.7.3-1 .3-.4 0-.7.2-1.1.3-.4.1-.7.3-1.1.4-.4.1-.7.3-1.1.5-.8.4-1.7.6-2.5.9-.4.2-.9.3-1.3.5s-.8.4-1.3.5c-.5.1-.9.4-1.5.5-.6.2-1.1.4-1.7.1-.2-.1-.4-.2-.6-.4-.1-.2-.2-.4-.4-.7-.1-.2.1-.6-.1-.9.1-.3.1-.6.2-1 0 0 .1 0 .2-.1.1-.2 0-.4.2-.6.1-.2.5-.1.5-.4 0-.1.3-.2.5-.2.2-.1.4-.1.6-.2.4-.1.7-.3 1.1-.4.9-.4 1.8-.7 2.8-1 .6-.2 1.2-.4 1.7-.7.4-.2.8-.3 1.2-.4.4-.2.8-.4 1.2-.4.5 0 .7-.3 1.1-.4.9-.3 1.7-.6 2.6-.9.7-.2 1.3-.5 2-.7.1 0 .2-.1.4-.3-.6 0-1-.3-1.4-.2-.1 0-.2-.1-.3-.1-.4 0-.7-.3-1-.2-.2 0-.3-.1-.4-.1l-1.5-.3c-.8-.1-1.6-.3-2.3-.5-.1 0-.2-.1-.3-.1-.4.1-.7-.1-1-.2-.6-.2-1.3-.1-1.8-.5-.7.1-1.3-.4-2-.3-.2 0-.4-.1-.6-.2-.6-.2-1.2-.1-1.8-.4-.3-.2-.7 0-1.1-.2-.4-.2-.9-.4-1.1-.9-.2-.5-.2-.8-.1-1.4.1-.6.4-1 .8-1.4.2 0 .2-.1.3-.1z" fill="#e95846"/></svg>