<svg version="1.1" id="Layer_1" xmlns="http://www.w3.org/2000/svg" x="0" y="0" viewBox="0 0 1190.6 1133.9" xml:space="preserve"><style>.st1{enable-background:new}.st2{fill:#fff}</style><path d="M137.1 985.8c-.5-2.2-.8-3.8-1-4.8-5.7-2.8-11.2-5.6-19.2-9.6-1.9.3-6.8 1.1-11.2 1.7-9.1-2.1-18.4-4.3-29.8-6.9-3.9-10.6-23.6-3.6-27.4-19.9-13.5 3.2-21.9-9.2-34.2-10.9-.4-3.5-.7-6.3-1-9.1-2.2-.9-4.3-1.7-6.3-2.5-.4-2.9-.7-5.8-1.1-9.4-2 1.2-3.6 2.1-5.9 3.3V101.3c7.2 1 13.8 1.9 23.4 3.1-.9.6 1-.6 3.2-2 8.7 2 17.9 4 28.4 6.4.7-.5 2.5-1.9 4.9-3.7 4.1 2.1 8.6 4.4 15 7.6 2.5 0 7.3.1 12 0 11.1-.4 21.3 2.3 32 5.3 18.2 5.2 35.2 13.9 53.6 18.5 5.9 1.5 10 1.9 12.4-2 9.4 3.1 17.3 5.8 25.5 8.5 3 3.6 5.9 10.4 10.5 11.8 9.1 2.9 18.6 7.5 28.5 3.4 7.1 16.2 29.3 12 36.8 29.1 11 3.6 24.5 6.1 36.2 12.2 23.7 12.5 23.3 13.3 39.2 13.3 2.1 2.1 4.2 4.2 6.8 6.7 1.6-1 3.3-2.1 6.1-3.8 2.7 2.3 5.8 4.9 9.1 7.7 11.8 1.6 23.5-1.6 34.6-6.2 6-2.4 12.1 0 18.6-3 10.5-4.9 22.7-5.9 34.2-8.6.6-.1 1.4.2 1.8-.1 20-13.6 44.7-13.6 66.2-22.7 4.1-1.8 7.8-1.7 11.6-2.3 9.5-1.6 19.1-3.2 28.6-5 1-.2 1.8-1.4 2.7-2.2 12.5 4.8 30.4 5 42.3.6 3.6 4.7 7.3 9.4 11 14.2 7.4-1.5 14-8.5 21.2-1.2 6.8-1.4 13.1 5.7 20.2.9 1.7-1.1 5.3-1.1 7 0 8.7 5.3 18.3 3.7 27.4 3.2 10.1-.6 19.5 2.3 29.2 3.8 8.9 1.3 17.4 3.8 25.9 6.9 7.9 2.9 16.6 3.5 23.3 4.8 11 11.7 26 13.9 38.3 19.9 12.7 6.2 28.1 7.1 43.4 10.5 1.4-2.1 3.5-5.3 6.3-9.4h14.5c1.6 4.6 3.2 9.3 5.1 14.8-.8 1.1-2.1 2.9-3.9 5.4 6.8 1.9 13.2 3.7 21.2 6 1.3 2.8 3.3 7.3 5.5 12 10.5 4.4 21.9 7.3 31.5 14.8 4.1 3.2 10.5 3.5 16.9 5.5 2.2 3.4 6 7.7 8 12.8 1.9 4.9 10.4 3.2 9 10.3 7.5.2 7.8 10.4 14.9 10.9 7.6.5 6 12.4 14.8 11.7.6-.1 1.6 3.8 2.3 5.8 3 .4 5.9.7 8.2 1 7.3 16.6 12.2 34.2 30.2 43.2v13.4c5.6 5.5 9.7 9.4 13.7 13.4 1.5-1.5 3.7-3.6 6.6-6.5 3 7.9 4.5 16.4 9 22.7 5 7.1 0 18.4 10.5 22.6-1 9.2 6.7 15.1 8.6 23.1h7.7c.6 1 1.8 2.1 1.7 2.9-2.5 10.2 3.9 19.1 3.8 28.9 0 1.5 1 3.6 2.3 4.3 6.5 3.9 4.3 10.3 5 15.8 2.2 2.2 4.3 4.3 7.1 7V544c2.7 1 4.8 1.8 7.2 2.7.5 15.4-2.5 31.3 7.5 44.4-2.7 6.9-5.1 13.1-7.5 19.5 1.2 1.7 2.4 3.6 2.8 4.1-1 6.7-2.4 12.2-2.6 17.7-.3 13.7.1 27.4-.2 41.1-.1 3.8-1.8 7.5-3 12.2 1.4 3.4 6 7.5 1.9 12.9-3.7 4.8-3.4 9.3 2.4 14.2h-9.5c-1.1 1.6-2.4 2.6-2.3 3.4 1.1 8.4-3.5 15.3-5.9 22.7-1.9 5.8-2.6 11.1 1.8 16.2-2.5 3.2-5.4 6.9-10.2 13 .5 1.6 1.8 6.3 3.2 11.2-3.2 3.6-11.6 2.9-10.5 11.3 2.2 1.1 4.7 2.2 7.7 3.6-4.6 7.8-9.1 15.4-13.5 22.9-1.5.4-3.2.8-4.9 1.2v8.7l-11.1 9.2v16.1h-8.2c-4.1 11.7-10 19.1-24.3 35.1-7.2 8-13.6 16.8-20.4 25.4-1-.6-3.3-1.9-7-4-.7 4.6-1.2 7.8-1.8 11.7h-7.1c-13.6 15.8-32.5 23.8-43.6 39.6-4.7.3-8.7.5-14 .8 1.5 2 2.4 3.2 3.5 4.7-7.3 3-14.6 6.1-22 9.2-5.1-1.3-10.4-2.8-15.5-4.1-1.2 3.3-2 5.4-2.9 7.8-5-1.5-9.7-2.9-14.9-4.5-2.5 3.8-4.7 7-7.5 11.2h-12.3c-13 6.3-25.3 12.8-38.1 18.1-4.1 1.7-9.5.3-14.1.3-2.2 2.2-4.4 4.3-7.1 7.1h-11.2c-10.8 4.4-18 7.3-25.5 10.3-3.1-2.3-6.8-5.1-11.6-8.7-4.3 2.2-10.5 5.4-18 9.2h-28c-2 2.9-4.2 6.1-7.5 10.8-10.4-2.4-22.1 7.3-34.9-1.3-2.4 3.5-4.4 6.4-6.2 9-23.1-3.3-44.8 9-67.3.6-.4 1.1-1.1 3.2-2.2 6.3-8.6-1.7-18.2 3.3-26.7-3.6-1.1-.9-3.6-.4-5.3-.1-5.5 1.1-11 2.5-16.5 3.5-5.6 1-11.4-1.5-16.9 3-2.5 2.1-8.1.2-12.2.7-5.6.6-12.1-2.7-16.5 3.5-8.5-1.2-17.9-.7-25.1-4.3-5.4-2.7-10.1-2.6-15.1-2.7-18.5-.4-37.2 1.6-54.8-6.9-2.7-1.3-7.4 1.6-12.2 2.8-1.9-.7-5-3-8.1-2.9-17.5.5-33.6-4.1-50-9.8-13.5-4.7-28.3-7-43.4-3.8-2.5-3.1-4.7-5.9-6.3-8H294l-6.8-6.8c-23.6-2.8-47.7-5.6-73.8-8.7-.9-1.1-3.1-3.9-5.2-6.5-10.4 2.5-19.1-1.3-27.4-4.7-9.8-4-19.6-6.3-30.2-5.5-4.9-.1-9-.3-13.5-.3z" fill="#0136f5"/><g class="st1"><path class="st2" d="M281.3 357.8v-3.6h39l.5 13.6h-5.4l-1.6-9.5h-15.7c-.1 3.3-.1 6.5-.1 9.7v9.1h10l1-6.7h4v17.5h-4l-.9-6.7H298v10.5c0 3.3.1 6.5.1 9.7h17.3l1.6-9.5h5.4l-.5 13.6h-40.6v-3.6l6.5-.7c.1-3.2.2-6.5.2-9.8v-13.2-9.8c0-3.3-.1-6.6-.2-9.9l-6.5-.7zM327.3 405.6v-3.2l5-1c.1-1.9.1-4 .1-6.2V385.3v-5.1c0-1.3-.1-2.7-.2-4.2l-5.4-.7v-2.9l12.9-4.9 1.2.8.5 6c4-4.5 8.4-6.7 13.2-6.7 3.4 0 6 1.1 7.8 3.3 1.8 2.2 2.8 5.7 2.8 10.5v14.1c0 2.2 0 4.3.1 6.2l4.7.9v3.2h-19.1v-3.2l5-1c.1-1.9.1-4 .1-6.2v-13.3c0-3-.4-5.2-1.2-6.3-.8-1.2-2.2-1.7-4.2-1.7-2.7 0-5.6 1.3-8.7 3.8v17.5c0 2.2 0 4.3.1 6.3l4.6.9v3.2l-19.3-.2zM392.3 357.8v-3.6H416v3.6l-6.8.8c-.1 3.2-.1 6.4-.1 9.7V391.7c0 3.2.1 6.4.1 9.6h15.6l2.2-10.7h5.4l-.8 14.9h-39.3v-3.6l6.5-.7c.1-3.3.2-6.5.2-9.6V378.2v-10c0-3.3-.1-6.5-.2-9.7l-6.5-.7zM467.1 406.5c-2.1 0-3.7-.5-5-1.5-1.3-1-2.2-2.5-2.6-4.3-1.9 2-3.6 3.4-5.2 4.5-1.5 1-3.6 1.5-6 1.5-2.9 0-5.3-.8-7.3-2.5s-3-4.1-3-7.2c0-1.7.4-3.2 1.2-4.6.8-1.4 2.2-2.7 4.1-4 2-1.2 4.8-2.5 8.6-3.6 1-.4 2.2-.7 3.5-1.1 1.3-.4 2.6-.7 4-1.1v-2.2c0-3.6-.5-6.1-1.5-7.3-1-1.3-2.8-1.9-5.3-1.9-.5 0-1 0-1.5.1s-1.1.1-1.7.2l-.9 4.3c-.2 1.9-.7 3.2-1.6 4.1-.9.9-2 1.3-3.3 1.3-2.5 0-3.9-1.2-4.3-3.5.5-3.1 2.1-5.6 5-7.4 2.9-1.9 6.6-2.8 11.3-2.8 4.5 0 7.8 1.1 9.8 3.2 2.1 2.1 3.1 5.7 3.1 10.8v16.9c0 2.3.7 3.5 2.2 3.5 1 0 1.9-.6 2.7-1.7l1.8 1.5c-.9 1.8-2 3-3.3 3.8s-3 1-4.8 1zm-20.2-11.2c0 2 .5 3.5 1.6 4.4 1.1.9 2.4 1.4 3.9 1.4.9 0 1.8-.2 2.6-.6.9-.4 2.2-1.3 4.1-2.6v-12.2c-1.1.4-2.1.7-3.1 1-1 .3-1.8.6-2.4.9-2.6 1-4.4 2.2-5.3 3.6-.9 1.1-1.4 2.6-1.4 4.1zM511.3 406.9c-2.9 0-5.8-.4-8.6-1.1-2.8-.7-5.3-1.7-7.3-3l.5-11.2h6l1.5 9.4c1.2.5 2.4.9 3.6 1.2 1.2.3 2.6.4 4.2.4 3.2 0 5.7-.8 7.6-2.3 1.8-1.5 2.8-3.5 2.8-6.1 0-2.3-.6-4.1-1.9-5.3-1.3-1.3-3.4-2.5-6.2-3.6l-3.2-1.3c-4.2-1.8-7.6-4-10.1-6.5s-3.8-5.8-3.8-9.9c0-3 .8-5.7 2.3-7.9 1.5-2.2 3.7-3.9 6.5-5 2.8-1.2 6-1.7 9.6-1.7 2.7 0 5.2.4 7.5 1.1s4.4 1.7 6.1 2.9l-.5 10.5H522l-1.5-9c-1.8-.8-3.7-1.2-5.8-1.2-2.6 0-4.8.7-6.6 2.1-1.8 1.4-2.7 3.3-2.7 5.8 0 2.2.7 4 2.1 5.4 1.4 1.4 3.4 2.6 5.9 3.6l3.3 1.4c5.1 2.1 8.7 4.4 10.8 6.8 2.1 2.4 3.2 5.6 3.2 9.4 0 4.5-1.7 8.2-5.2 11-3.5 2.7-8.2 4.1-14.2 4.1zM554.9 406.6c-3.5 0-6.7-.8-9.5-2.3-2.8-1.5-5-3.8-6.7-6.7-1.7-2.9-2.5-6.5-2.5-10.5 0-4.1.9-7.7 2.6-10.6 1.7-2.9 4-5.2 6.9-6.7 2.8-1.5 5.9-2.3 9.2-2.3 3.3 0 6.4.8 9.2 2.3 2.8 1.5 5.1 3.8 6.9 6.7 1.8 2.9 2.6 6.5 2.6 10.7 0 4.1-.8 7.7-2.5 10.6-1.7 2.9-3.9 5.2-6.7 6.7-2.9 1.4-6 2.1-9.5 2.1zm0-3.8c2.8 0 4.9-1.3 6.4-3.9 1.5-2.6 2.2-6.5 2.2-11.9 0-10.6-2.9-16-8.6-16-5.7 0-8.5 5.3-8.5 16 0 5.3.7 9.3 2.2 11.9 1.3 2.7 3.5 3.9 6.3 3.9zM578.2 405.6v-3.2l5-.9c.1-1.9.1-4 .1-6.2V356l-5.7-.7v-3l13.9-3.5 1.2.7-.3 10.9v12.5c3.5-3.7 7.3-5.5 11.5-5.5 2.8 0 5.3.8 7.6 2.2 2.3 1.5 4.1 3.7 5.4 6.5 1.3 2.9 2 6.4 2 10.5s-.7 7.6-2.2 10.6-3.4 5.3-5.8 6.9-5.1 2.4-8.1 2.4c-2 0-3.9-.4-5.6-1.2s-3.3-2.1-4.8-3.9l-1 4.9-13.2-.7zm22.1-32.7c-1.2 0-2.4.3-3.7.9-1.3.6-2.6 1.5-3.9 2.6v21.5c2.4 2.2 4.8 3.3 7.3 3.3s4.7-1.2 6.4-3.5c1.8-2.3 2.6-5.9 2.6-10.6 0-4.8-.8-8.4-2.4-10.7-1.6-2.4-3.7-3.5-6.3-3.5zM624.6 405.6v-3.2l5-.9c.1-2 .1-4.1.1-6.3V385.3v-5.1c0-1.3-.1-2.7-.2-4.2l-5.4-.7v-2.9l12.9-4.9 1.2.8.8 9.1c1.2-3.2 2.8-5.7 4.8-7.4 2-1.7 4-2.6 6-2.6 1.4 0 2.7.4 3.8 1.1 1.2.7 1.9 1.8 2.3 3.1-.1 1.9-.5 3.4-1.4 4.5-.9 1.1-2.1 1.6-3.6 1.6-1.9 0-3.6-.9-5.3-2.8l-.7-.8c-2.7 2.3-4.7 5.5-5.9 9.6v11.4c0 2.2 0 4.2.1 6.2l6.4 1.2v3.2l-20.9-.1zM676.3 406.6c-3.6 0-6.8-.8-9.5-2.3-2.7-1.5-4.9-3.8-6.4-6.7-1.5-2.9-2.3-6.4-2.3-10.4 0-4.1.9-7.7 2.7-10.7 1.8-3 4.1-5.2 7-6.8 2.9-1.6 5.9-2.4 9.2-2.4 3 0 5.7.6 8 1.9 2.3 1.3 4 3.1 5.3 5.4 1.3 2.3 1.9 5.1 1.9 8.2 0 1.7-.2 3.1-.5 4.3H668c.2 4.4 1.4 7.8 3.5 10s4.8 3.3 8.1 3.3c2.3 0 4.2-.5 5.8-1.4 1.6-.9 3-2.1 4.3-3.5l2.2 2c-1.5 2.8-3.6 5-6.2 6.6-2.7 1.8-5.8 2.5-9.4 2.5zm0-35.5c-1.2 0-2.5.4-3.7 1.2-1.2.8-2.2 2.1-3.1 3.9-.9 1.8-1.4 4.3-1.6 7.4h10.6c1.9 0 3.1-.4 3.7-1.2.6-.8.9-1.9.9-3.3 0-2.4-.7-4.3-2-5.8s-2.9-2.2-4.8-2.2zM697.7 405.6v-3.2l5-1c0-1.9.1-4 .1-6.2V385.3v-5.1c0-1.3-.1-2.7-.2-4.2l-5.4-.7v-2.9l12.9-4.9 1.2.8.5 6c1.9-2.1 3.9-3.8 6.1-5 2.2-1.2 4.5-1.8 6.9-1.8 5 0 8.2 2.4 9.7 7 2.1-2.5 4.2-4.3 6.4-5.4 2.2-1.1 4.5-1.7 6.9-1.7 3.5 0 6.1 1.1 7.9 3.3 1.8 2.2 2.6 5.6 2.6 10.4V395.3c0 2.2 0 4.3.1 6.2l4.7.9v3.2h-18.9v-3.2l4.8-1c.1-1.9.1-4 .1-6.2v-13c0-3.3-.4-5.4-1.3-6.6-.9-1.1-2.3-1.7-4.2-1.7-2.7 0-5.6 1.3-8.5 4 .1.5.1 1.1.1 1.6v15.8c0 2.2 0 4.3.1 6.2l4.6.9v3.2h-19v-3.2l5-1c0-1.9.1-4 .1-6.2v-12.9c0-3.1-.4-5.3-1.2-6.6s-2.2-1.9-4.2-1.9c-1.4 0-2.9.4-4.3 1-1.4.7-2.8 1.6-4.1 2.8V395c0 2.2 0 4.3.1 6.3l4.6.9v3.2l-19.2.2zM786.2 406.6c-3.6 0-6.8-.8-9.5-2.3s-4.9-3.8-6.4-6.7c-1.5-2.9-2.3-6.4-2.3-10.4 0-4.1.9-7.7 2.7-10.7s4.1-5.2 7-6.8c2.9-1.6 5.9-2.4 9.2-2.4 3 0 5.7.6 8 1.9 2.3 1.3 4 3.1 5.3 5.4 1.3 2.3 1.9 5.1 1.9 8.2 0 1.7-.2 3.1-.5 4.3h-23.7c.2 4.4 1.4 7.8 3.5 10s4.8 3.3 8.1 3.3c2.3 0 4.2-.5 5.8-1.4 1.6-.9 3-2.1 4.3-3.5l2.2 2c-1.5 2.8-3.6 5-6.2 6.6-2.6 1.8-5.8 2.5-9.4 2.5zm0-35.5c-1.2 0-2.5.4-3.7 1.2-1.2.8-2.2 2.1-3.1 3.9-.9 1.8-1.4 4.3-1.6 7.4h10.6c1.9 0 3.1-.4 3.7-1.2.6-.8.9-1.9.9-3.3 0-2.4-.7-4.3-2-5.8-1.2-1.5-2.9-2.2-4.8-2.2zM820.6 406.6c-2.4 0-4.6-.3-6.5-.8-2-.5-4-1.4-5.9-2.4l-.1-9h5.2l1.4 7.2c1.9.8 3.9 1.2 6 1.2 2.6 0 4.6-.5 5.9-1.4 1.3-.9 1.9-2.2 1.9-3.9 0-1.4-.5-2.6-1.5-3.5-1-.9-2.8-1.8-5.3-2.6l-3.9-1.3c-2.9-.9-5.2-2.3-6.9-4.1-1.7-1.8-2.5-4.1-2.5-6.8 0-2.2.6-4.1 1.7-5.9 1.1-1.8 2.8-3.2 5-4.3 2.2-1.1 4.9-1.6 8-1.6 2.2 0 4.2.3 6.1.8s3.7 1.3 5.5 2.4l-.4 8.1h-5.1l-1.4-6.5c-1.4-.6-3-.9-4.8-.9-2.1 0-3.7.4-4.8 1.3-1.1.9-1.7 2.1-1.7 3.6 0 1.4.5 2.5 1.4 3.4 1 .9 2.8 1.7 5.4 2.6l3.1.9c3.8 1.3 6.5 2.9 8.1 4.8 1.6 1.9 2.4 4.2 2.4 6.9 0 3.5-1.4 6.3-4.2 8.6-2.8 2.1-6.9 3.2-12.1 3.2zM871.2 406.5c-2.1 0-3.7-.5-5-1.5-1.3-1-2.2-2.5-2.6-4.3-1.9 2-3.6 3.4-5.2 4.5-1.5 1-3.6 1.5-6 1.5-2.9 0-5.3-.8-7.3-2.5s-3-4.1-3-7.2c0-1.7.4-3.2 1.2-4.6.8-1.4 2.2-2.7 4.1-4 2-1.2 4.8-2.5 8.6-3.6 1-.4 2.2-.7 3.5-1.1 1.3-.4 2.6-.7 4-1.1v-2.2c0-3.6-.5-6.1-1.5-7.3-1-1.3-2.8-1.9-5.3-1.9-.5 0-1 0-1.5.1s-1.1.1-1.7.2l-.9 4.3c-.2 1.9-.7 3.2-1.6 4.1-.9.9-2 1.3-3.3 1.3-2.5 0-3.9-1.2-4.3-3.5.5-3.1 2.1-5.6 5-7.4 2.9-1.9 6.6-2.8 11.3-2.8 4.5 0 7.8 1.1 9.8 3.2 2.1 2.1 3.1 5.7 3.1 10.8v16.9c0 2.3.7 3.5 2.2 3.5 1 0 1.9-.6 2.7-1.7l1.8 1.5c-.9 1.8-2 3-3.3 3.8s-2.9 1-4.8 1zm-20.1-11.2c0 2 .5 3.5 1.6 4.4 1.1.9 2.4 1.4 3.9 1.4.9 0 1.8-.2 2.6-.6.9-.4 2.2-1.3 4.1-2.6v-12.2c-1.1.4-2.1.7-3.1 1-1 .3-1.8.6-2.4.9-2.6 1-4.4 2.2-5.3 3.6-1 1.1-1.4 2.6-1.4 4.1zM896.8 402.3c0 3.3-.8 6.3-2.3 9-1.5 2.7-3.5 4.9-5.8 6.8-2.4 1.8-4.8 3.2-7.2 4l-1.1-2.9c2.6-1.3 4.8-2.9 6.7-4.8 1.9-1.8 3.3-4 4.2-6.5l-2.8-1.9c-1.3-.8-2.2-1.8-2.8-2.8-.6-1.1-.9-2.1-.9-3.1 0-1.7.5-3 1.6-4.1 1.1-1.1 2.5-1.7 4.2-1.7.9 0 1.7.2 2.6.5s1.7.9 2.7 1.8c.4 1 .7 2 .8 2.9 0 .8.1 1.8.1 2.8z"/></g><g class="st1"><path class="st2" d="M285.5 456.9v-3.3h14.7v3.3l-4.3.9-12.7 33.2h-4.6l-14-33.5-4-.7v-3.3H281v3.3l-6 .9 8.5 22.5 7.7-22.4-5.7-.9zM331.4 491.7c-2.1 0-3.7-.5-5-1.5-1.3-1-2.2-2.5-2.6-4.3-1.9 2-3.6 3.4-5.2 4.5-1.5 1-3.6 1.5-6 1.5-2.9 0-5.3-.8-7.3-2.5s-3-4.1-3-7.2c0-1.7.4-3.2 1.2-4.6.8-1.4 2.2-2.7 4.1-4 2-1.2 4.8-2.5 8.6-3.6 1-.4 2.2-.7 3.5-1.1 1.3-.4 2.6-.7 4-1.1v-2.2c0-3.6-.5-6.1-1.5-7.3-1-1.3-2.8-1.9-5.3-1.9-.5 0-1 0-1.5.1s-1.1.1-1.7.2l-.9 4.3c-.2 1.9-.8 3.2-1.6 4.1-.9.9-2 1.3-3.3 1.3-2.5 0-3.9-1.2-4.3-3.5.5-3.1 2.1-5.6 5-7.4 2.9-1.9 6.6-2.8 11.3-2.8 4.5 0 7.8 1.1 9.8 3.2 2.1 2.1 3.1 5.7 3.1 10.8v16.9c0 2.3.7 3.5 2.2 3.5 1 0 1.9-.6 2.7-1.7l1.8 1.5c-.9 1.8-2 3-3.3 3.8-1.4.6-3 1-4.8 1zm-20.2-11.2c0 2 .5 3.5 1.6 4.4 1.1.9 2.4 1.4 3.9 1.4.9 0 1.8-.2 2.6-.6.9-.4 2.2-1.3 4.1-2.6v-12.2c-1.1.4-2.1.7-3.1 1-1 .3-1.8.6-2.4.9-2.6 1-4.4 2.2-5.3 3.6-.9 1.1-1.4 2.6-1.4 4.1zM355.2 491.9c-2.4 0-4.6-.3-6.5-.8-2-.5-4-1.4-5.9-2.4l-.1-9h5.2l1.4 7.2c1.9.8 3.9 1.2 6 1.2 2.6 0 4.6-.5 5.9-1.4 1.3-.9 1.9-2.2 1.9-3.9 0-1.4-.5-2.6-1.5-3.5-1-.9-2.8-1.8-5.3-2.6l-3.9-1.3c-2.9-.9-5.2-2.3-6.9-4.1-1.7-1.8-2.5-4.1-2.5-6.8 0-2.2.6-4.1 1.7-5.9 1.1-1.8 2.8-3.2 5-4.3 2.2-1.1 4.9-1.6 8-1.6 2.2 0 4.2.3 6.1.8 1.8.5 3.7 1.3 5.5 2.4l-.4 8.1h-5.1l-1.4-6.5c-1.4-.6-3-.9-4.8-.9-2.1 0-3.7.4-4.8 1.3-1.1.9-1.7 2.1-1.7 3.6 0 1.4.5 2.5 1.4 3.4 1 .9 2.8 1.7 5.4 2.6l3.1.9c3.8 1.3 6.5 2.9 8.1 4.8 1.6 1.9 2.4 4.2 2.4 6.9 0 3.5-1.4 6.3-4.2 8.6-2.9 2-6.9 3.2-12.1 3.2zM423.4 491.7c-2.1 0-3.7-.5-5-1.5-1.3-1-2.2-2.5-2.6-4.3-1.9 2-3.6 3.4-5.2 4.5-1.5 1-3.6 1.5-6 1.5-2.9 0-5.3-.8-7.3-2.5s-3-4.1-3-7.2c0-1.7.4-3.2 1.2-4.6.8-1.4 2.2-2.7 4.1-4 2-1.2 4.8-2.5 8.6-3.6 1-.4 2.2-.7 3.5-1.1 1.3-.4 2.6-.7 4-1.1v-2.2c0-3.6-.5-6.1-1.5-7.3-1-1.3-2.8-1.9-5.3-1.9-.5 0-1 0-1.5.1s-1.1.1-1.7.2l-.9 4.3c-.2 1.9-.8 3.2-1.6 4.1-.9.9-2 1.3-3.3 1.3-2.5 0-3.9-1.2-4.3-3.5.5-3.1 2.1-5.6 5-7.4 2.9-1.9 6.6-2.8 11.3-2.8 4.5 0 7.8 1.1 9.8 3.2 2.1 2.1 3.1 5.7 3.1 10.8v16.9c0 2.3.7 3.5 2.2 3.5 1 0 1.9-.6 2.7-1.7l1.8 1.5c-.9 1.8-2 3-3.3 3.8-1.4.6-2.9 1-4.8 1zm-20.1-11.2c0 2 .5 3.5 1.6 4.4 1.1.9 2.4 1.4 3.9 1.4.9 0 1.8-.2 2.6-.6.9-.4 2.2-1.3 4.1-2.6v-12.2c-1.1.4-2.1.7-3.1 1-1 .3-1.8.6-2.4.9-2.6 1-4.4 2.2-5.3 3.6-1 1.1-1.4 2.6-1.4 4.1zM470 491.9c-3.6 0-6.8-.8-9.5-2.3s-4.9-3.8-6.4-6.7c-1.5-2.9-2.3-6.4-2.3-10.4 0-4.1.9-7.7 2.7-10.7 1.8-3 4.1-5.2 7-6.8 2.9-1.6 5.9-2.4 9.2-2.4 3 0 5.7.6 8 1.9 2.3 1.3 4 3.1 5.3 5.4 1.3 2.3 1.9 5.1 1.9 8.2 0 1.7-.2 3.1-.5 4.3h-23.7c.2 4.4 1.4 7.8 3.5 10s4.8 3.3 8.1 3.3c2.3 0 4.2-.5 5.8-1.4 1.6-.9 3-2.1 4.3-3.5l2.2 2c-1.5 2.8-3.6 5-6.2 6.6-2.6 1.7-5.8 2.5-9.4 2.5zm0-35.6c-1.2 0-2.5.4-3.7 1.2-1.2.8-2.2 2.1-3.1 3.9-.9 1.8-1.4 4.3-1.6 7.4h10.6c1.9 0 3.1-.4 3.7-1.2.6-.8.9-1.9.9-3.3 0-2.4-.7-4.3-2-5.8-1.2-1.5-2.9-2.2-4.8-2.2zM491.4 490.8v-3.2l5-1c.1-1.9.1-4 .1-6.2V470.5v-5.1c0-1.3-.1-2.7-.2-4.2l-5.4-.7v-2.9l12.9-4.9 1.2.8.5 6c4-4.5 8.4-6.7 13.2-6.7 3.4 0 6 1.1 7.8 3.3 1.8 2.2 2.8 5.7 2.8 10.5v14.1c0 2.2 0 4.3.1 6.2l4.7.9v3.2H515v-3.2l5-1c0-1.9.1-4 .1-6.2v-13.3c0-3-.4-5.2-1.2-6.3-.8-1.2-2.2-1.7-4.2-1.7-2.7 0-5.6 1.3-8.7 3.8v17.5c0 2.2 0 4.3.1 6.3l4.6.9v3.2l-19.3-.2zM557.2 491.9c-3.5 0-6.7-.8-9.5-2.3-2.8-1.5-5-3.7-6.5-6.7-1.6-2.9-2.4-6.4-2.4-10.6 0-4.2.9-7.7 2.7-10.7 1.8-2.9 4.1-5.2 7.1-6.7 2.9-1.5 6.1-2.3 9.6-2.3 2.5 0 4.8.5 6.9 1.4s3.7 2.2 5 3.8c1.3 1.6 2 3.4 2.3 5.4-.6 2.3-2.1 3.4-4.4 3.4-2.9 0-4.6-1.8-5-5.4l-1-4.6c-.5-.1-.9-.2-1.4-.2-.5 0-.9-.1-1.4-.1-1.9 0-3.6.5-5.2 1.6s-2.9 2.7-3.8 4.9c-1 2.2-1.5 5-1.5 8.4 0 4.7 1.1 8.3 3.2 10.8s4.9 3.7 8.4 3.7c2.1 0 3.9-.5 5.6-1.4 1.7-.9 3-2.2 4.2-3.8l2.3 1.7c-1.3 3.1-3.2 5.5-5.8 7.2-2.6 1.6-5.8 2.5-9.4 2.5zM596.1 491.9c-3.5 0-6.7-.8-9.5-2.3-2.8-1.5-5-3.8-6.7-6.7-1.7-2.9-2.5-6.5-2.5-10.5 0-4.1.9-7.7 2.6-10.6 1.7-2.9 4-5.2 6.9-6.7 2.8-1.5 5.9-2.3 9.2-2.3 3.3 0 6.4.8 9.2 2.3 2.8 1.5 5.1 3.8 6.9 6.7 1.8 2.9 2.6 6.5 2.6 10.7 0 4.1-.8 7.7-2.5 10.6-1.7 2.9-3.9 5.2-6.7 6.7-2.9 1.3-6 2.1-9.5 2.1zm0-3.8c2.8 0 4.9-1.3 6.4-3.9 1.5-2.6 2.2-6.5 2.2-11.9 0-10.6-2.9-16-8.6-16-5.7 0-8.5 5.3-8.5 16 0 5.3.7 9.3 2.2 11.9 1.4 2.6 3.5 3.9 6.3 3.9zM620.3 490.8v-3.2l5-1c.1-1.9.1-4 .1-6.2V470.5v-5.1c0-1.3-.1-2.7-.2-4.2l-5.4-.7v-2.9l12.9-4.9 1.2.8.5 6c4-4.5 8.4-6.7 13.2-6.7 3.4 0 6 1.1 7.8 3.3 1.8 2.2 2.8 5.7 2.8 10.5v14.1c0 2.2 0 4.3.1 6.2l4.7.9v3.2h-19.1v-3.2l5-1c0-1.9.1-4 .1-6.2v-13.3c0-3-.4-5.2-1.2-6.3-.8-1.2-2.2-1.7-4.2-1.7-2.7 0-5.6 1.3-8.7 3.8v17.5c0 2.2 0 4.3.1 6.3l4.6.9v3.2l-19.3-.2zM681 491.9c-3.1 0-5.5-.8-7.3-2.3-1.8-1.5-2.6-4-2.6-7.4v-3.4-20.3h-5.7v-4l6.3-.8 2.9-10.6h6.3l-.3 10.7h9.3v4.7h-9.4v22.9c0 1.9.4 3.3 1.1 4.2.7.9 1.7 1.3 3 1.3 1.4 0 3-.6 4.7-1.9l1.9 1.9c-1 1.6-2.3 2.9-4 3.8-1.7.7-3.8 1.2-6.2 1.2zM693.7 490.8v-3.2l5-.9c.1-2 .1-4.1.1-6.3V470.5v-5.1c0-1.3-.1-2.7-.2-4.2l-5.4-.7v-2.9l12.9-4.9 1.2.8.8 9.1c1.2-3.2 2.8-5.7 4.8-7.4 2-1.7 4-2.6 6-2.6 1.4 0 2.7.4 3.8 1.1 1.2.7 1.9 1.8 2.3 3.1-.1 1.9-.5 3.4-1.4 4.5-.9 1.1-2.1 1.6-3.6 1.6-1.9 0-3.6-.9-5.3-2.8l-.7-.8c-2.7 2.3-4.7 5.5-5.9 9.6v11.4c0 2.2 0 4.2.1 6.2l6.4 1.2v3.2l-20.9-.1zM756.2 491.7c-2.1 0-3.7-.5-5-1.5-1.3-1-2.2-2.5-2.6-4.3-1.9 2-3.6 3.4-5.2 4.5-1.5 1-3.6 1.5-6 1.5-2.9 0-5.3-.8-7.3-2.5s-3-4.1-3-7.2c0-1.7.4-3.2 1.2-4.6.8-1.4 2.2-2.7 4.1-4 2-1.2 4.8-2.5 8.6-3.6 1-.4 2.2-.7 3.5-1.1 1.3-.4 2.6-.7 4-1.1v-2.2c0-3.6-.5-6.1-1.5-7.3-1-1.3-2.8-1.9-5.3-1.9-.5 0-1 0-1.5.1s-1.1.1-1.7.2l-.9 4.3c-.2 1.9-.8 3.2-1.6 4.1-.9.9-2 1.3-3.3 1.3-2.5 0-3.9-1.2-4.3-3.5.5-3.1 2.1-5.6 5-7.4 2.9-1.9 6.6-2.8 11.3-2.8 4.5 0 7.8 1.1 9.8 3.2 2.1 2.1 3.1 5.7 3.1 10.8v16.9c0 2.3.7 3.5 2.2 3.5 1 0 1.9-.6 2.7-1.7l1.8 1.5c-.9 1.8-2 3-3.3 3.8-1.4.6-3 1-4.8 1zM736 480.5c0 2 .5 3.5 1.6 4.4 1.1.9 2.4 1.4 3.9 1.4.9 0 1.8-.2 2.6-.6.9-.4 2.2-1.3 4.1-2.6v-12.2c-1.1.4-2.1.7-3.1 1s-1.8.6-2.4.9c-2.6 1-4.4 2.2-5.3 3.6-.9 1.1-1.4 2.6-1.4 4.1zM766.8 490.8v-3.2l5-.9c0-2 .1-4.1.1-6.3V470.5v-5.1c0-1.3-.1-2.7-.2-4.2l-5.4-.7v-2.9l12.9-4.9 1.2.8.8 9.1c1.2-3.2 2.8-5.7 4.8-7.4s4-2.6 6-2.6c1.4 0 2.7.4 3.8 1.1 1.2.7 1.9 1.8 2.3 3.1-.1 1.9-.5 3.4-1.4 4.5-.9 1.1-2.1 1.6-3.6 1.6-1.9 0-3.6-.9-5.3-2.8l-.7-.8c-2.7 2.3-4.7 5.5-5.9 9.6v11.4c0 2.2 0 4.2.1 6.2l6.4 1.2v3.2l-20.9-.1zM846.5 491.5l-.6-6.8c-3.8 4.8-8.2 7.2-13.2 7.2-3.2 0-5.8-1-7.7-3.1-1.9-2.1-2.9-5.7-2.8-10.8l.3-19.1-5-1.1v-3L831 453l.9.9-.4 10.8v12.9c0 2.9.5 4.9 1.4 6.1.9 1.2 2.2 1.7 3.9 1.7 1.4 0 2.9-.4 4.5-1.2s3-1.9 4.4-3.2l.2-22.2-4.9-1.1v-2.9l13.2-1.8 1 .9-.2 10.8v21.8l4.7 1v3.2l-13.2.8zM864.5 490.8v-3.2l5-1c0-1.9.1-4 .1-6.2V470.5v-5.1c0-1.3-.1-2.7-.2-4.2l-5.4-.7v-2.9l12.9-4.9 1.2.8.5 6c4-4.5 8.4-6.7 13.2-6.7 3.4 0 6 1.1 7.8 3.3 1.8 2.2 2.7 5.7 2.7 10.5v14.1c0 2.2 0 4.3.1 6.2l4.7.9v3.2H888v-3.2l5-1c.1-1.9.1-4 .1-6.2v-13.3c0-3-.4-5.2-1.2-6.3s-2.2-1.7-4.2-1.7c-2.7 0-5.6 1.3-8.7 3.8v17.5c0 2.2 0 4.3.1 6.3l4.6.9v3.2l-19.2-.2z"/></g><g class="st1"><path class="st2" d="M282 577.1c-3.6 0-6.8-.8-9.5-2.3-2.7-1.5-4.9-3.8-6.4-6.7-1.5-2.9-2.3-6.4-2.3-10.4 0-4.1.9-7.7 2.7-10.7 1.8-3 4.1-5.2 7-6.8 2.9-1.6 5.9-2.4 9.2-2.4 3 0 5.7.6 8 1.9 2.3 1.3 4 3.1 5.3 5.4 1.3 2.3 1.9 5.1 1.9 8.2 0 1.7-.2 3.1-.5 4.3h-23.7c.2 4.4 1.4 7.8 3.5 10s4.8 3.3 8.1 3.3c2.3 0 4.2-.5 5.8-1.4 1.6-.9 3-2.1 4.3-3.5l2.2 2c-1.5 2.8-3.6 5-6.2 6.6-2.6 1.7-5.8 2.5-9.4 2.5zm0-35.6c-1.2 0-2.5.4-3.7 1.2-1.2.8-2.2 2.1-3.1 3.9-.9 1.8-1.4 4.3-1.6 7.4h10.6c1.9 0 3.1-.4 3.7-1.2.6-.8.9-1.9.9-3.3 0-2.4-.7-4.3-2-5.8-1.2-1.4-2.9-2.2-4.8-2.2zM316.4 577.1c-2.4 0-4.6-.3-6.5-.8-2-.5-4-1.4-5.9-2.4l-.1-9h5.2l1.4 7.2c1.9.8 3.9 1.2 6 1.2 2.6 0 4.6-.5 5.9-1.4 1.3-.9 1.9-2.2 1.9-3.9 0-1.4-.5-2.6-1.5-3.5-1-.9-2.8-1.8-5.3-2.6l-3.9-1.3c-2.9-.9-5.2-2.3-6.9-4.1-1.7-1.8-2.5-4.1-2.5-6.8 0-2.2.6-4.1 1.7-5.9 1.1-1.8 2.8-3.2 5-4.3 2.2-1.1 4.9-1.6 8-1.6 2.2 0 4.2.3 6.1.8 1.8.5 3.7 1.3 5.5 2.4l-.4 8.1H325l-1.4-6.5c-1.4-.6-3-.9-4.8-.9-2.1 0-3.7.4-4.8 1.3-1.1.9-1.7 2.1-1.7 3.6 0 1.4.5 2.5 1.4 3.4 1 .9 2.8 1.7 5.4 2.6l3.1.9c3.8 1.3 6.5 2.9 8.1 4.8 1.6 1.9 2.4 4.2 2.4 6.9 0 3.5-1.4 6.3-4.2 8.6-2.9 2-6.9 3.2-12.1 3.2zM336.9 594v-3.2l5.3-1c.1-2.3.1-4.5.1-6.5V555.6v-5.1c0-1.3-.1-2.7-.2-4.2l-5.4-.7v-2.9l12.9-4.9 1.2.8.4 4.7c3.5-3.7 7.4-5.5 11.6-5.5 2.8 0 5.3.8 7.6 2.3 2.3 1.5 4.1 3.7 5.4 6.6 1.3 2.9 2 6.4 2 10.5s-.7 7.6-2.2 10.6c-1.5 3-3.4 5.3-5.8 6.9-2.4 1.6-5.1 2.4-8.1 2.4-1.9 0-3.7-.4-5.3-1.1-1.7-.7-3.2-1.9-4.7-3.5v10.6c0 2.1.1 4.3.1 6.5l6 1.2v3.2h-20.9zm22.2-50.7c-1.2 0-2.4.3-3.6.9-1.2.6-2.5 1.4-3.8 2.5v21.9c2.2 2 4.5 3 6.9 3 2.6 0 4.8-1.1 6.5-3.4 1.8-2.2 2.7-5.8 2.7-10.6s-.8-8.3-2.4-10.8c-1.6-2.3-3.7-3.5-6.3-3.5zM412.4 576.9c-2.1 0-3.7-.5-5-1.5-1.3-1-2.2-2.5-2.6-4.3-1.9 2-3.6 3.4-5.2 4.5-1.5 1-3.6 1.5-6 1.5-2.9 0-5.3-.8-7.3-2.5s-3-4.1-3-7.2c0-1.7.4-3.2 1.2-4.6.8-1.4 2.2-2.7 4.1-4 2-1.2 4.8-2.5 8.6-3.6 1-.4 2.2-.7 3.5-1.1 1.3-.4 2.6-.7 4-1.1v-2.2c0-3.6-.5-6.1-1.5-7.3-1-1.3-2.8-1.9-5.3-1.9-.5 0-1 0-1.5.1s-1.1.1-1.7.2l-.9 4.3c-.2 1.9-.8 3.2-1.6 4.1-.9.9-2 1.3-3.3 1.3-2.5 0-3.9-1.2-4.3-3.5.5-3.1 2.1-5.6 5-7.4 2.9-1.9 6.6-2.8 11.3-2.8 4.5 0 7.8 1.1 9.8 3.2 2.1 2.1 3.1 5.7 3.1 10.8v16.9c0 2.3.7 3.5 2.2 3.5 1 0 1.9-.6 2.7-1.7l1.8 1.5c-.9 1.8-2 3-3.3 3.8-1.4.6-2.9 1-4.8 1zm-20.1-11.2c0 2 .5 3.5 1.6 4.4 1.1.9 2.4 1.4 3.9 1.4.9 0 1.8-.2 2.6-.6.9-.4 2.2-1.3 4.1-2.6V556c-1.1.4-2.1.7-3.1 1-1 .3-1.8.6-2.4.9-2.6 1-4.4 2.2-5.3 3.6-1 1.3-1.4 2.7-1.4 4.2zM441.6 577.1c-3.5 0-6.7-.8-9.5-2.3-2.8-1.5-5-3.7-6.5-6.7-1.6-2.9-2.4-6.4-2.4-10.6 0-4.2.9-7.7 2.7-10.7 1.8-2.9 4.1-5.2 7.1-6.7 2.9-1.5 6.1-2.3 9.6-2.3 2.5 0 4.8.5 6.9 1.4s3.7 2.2 5 3.8c1.3 1.6 2 3.4 2.3 5.4-.6 2.3-2.1 3.4-4.4 3.4-2.9 0-4.6-1.8-5-5.4l-1-4.6c-.5-.1-.9-.2-1.4-.2-.5 0-.9-.1-1.4-.1-1.9 0-3.6.5-5.1 1.6-1.6 1.1-2.9 2.7-3.8 4.9-1 2.2-1.5 5-1.5 8.4 0 4.7 1.1 8.3 3.2 10.8s4.9 3.7 8.4 3.7c2.1 0 3.9-.5 5.6-1.4 1.7-.9 3-2.2 4.2-3.8l2.3 1.7c-1.3 3.2-3.2 5.5-5.8 7.2-2.7 1.7-5.8 2.5-9.5 2.5zM461.7 576v-3.2l5.1-1c0-1.9.1-4 .1-6.2v-9.4-5.3c0-1.4-.1-2.9-.2-4.5l-5.5-.7v-2.9l13.9-4.9 1.2.8-.2 10.9v16c0 2.2 0 4.4.1 6.3l4.7.9v3.2h-19.2zm9.8-45.4c-1.7 0-3-.5-4.2-1.5-1.1-1-1.7-2.3-1.7-4 0-1.7.6-3 1.7-4s2.5-1.5 4.2-1.5c1.7 0 3 .5 4.1 1.5 1.1 1 1.7 2.4 1.7 4s-.6 2.9-1.7 4c-1.1 1-2.4 1.5-4.1 1.5zM504.6 577.1c-3.5 0-6.7-.8-9.5-2.3-2.8-1.5-5-3.8-6.7-6.7-1.7-2.9-2.5-6.5-2.5-10.5 0-4.1.9-7.7 2.6-10.6 1.7-2.9 4-5.2 6.9-6.7 2.8-1.5 5.9-2.3 9.2-2.3 3.3 0 6.4.8 9.2 2.3 2.8 1.5 5.1 3.8 6.9 6.7 1.8 2.9 2.6 6.5 2.6 10.7 0 4.1-.8 7.7-2.5 10.6-1.7 2.9-3.9 5.2-6.7 6.7-2.8 1.3-6 2.1-9.5 2.1zm0-3.8c2.8 0 4.9-1.3 6.4-3.9 1.5-2.6 2.2-6.5 2.2-11.9 0-10.6-2.9-16-8.6-16-5.7 0-8.5 5.3-8.5 16 0 5.3.7 9.3 2.2 11.9 1.4 2.6 3.5 3.9 6.3 3.9zM546 594v-3.2l5.3-1c0-2.3.1-4.5.1-6.5V555.6v-5.1c0-1.3-.1-2.7-.2-4.2l-5.4-.7v-2.9l12.9-4.9 1.2.8.4 4.7c3.5-3.7 7.4-5.5 11.6-5.5 2.8 0 5.3.8 7.6 2.3 2.3 1.5 4.1 3.7 5.4 6.6 1.3 2.9 2 6.4 2 10.5s-.7 7.6-2.2 10.6c-1.5 3-3.4 5.3-5.8 6.9-2.4 1.6-5.1 2.4-8.1 2.4-1.9 0-3.7-.4-5.3-1.1-1.7-.7-3.2-1.9-4.7-3.5v10.6c0 2.1.1 4.3.1 6.5l6 1.2v3.2H546zm22.3-50.7c-1.2 0-2.4.3-3.6.9-1.2.6-2.5 1.4-3.8 2.5v21.9c2.2 2 4.5 3 6.9 3 2.6 0 4.8-1.1 6.5-3.4 1.8-2.2 2.7-5.8 2.7-10.6s-.8-8.3-2.4-10.8c-1.7-2.3-3.8-3.5-6.3-3.5zM621.5 576.9c-2.1 0-3.7-.5-5-1.5-1.3-1-2.2-2.5-2.6-4.3-1.9 2-3.6 3.4-5.2 4.5-1.5 1-3.6 1.5-6 1.5-2.9 0-5.3-.8-7.3-2.5s-3-4.1-3-7.2c0-1.7.4-3.2 1.2-4.6.8-1.4 2.2-2.7 4.1-4 2-1.2 4.8-2.5 8.6-3.6 1-.4 2.2-.7 3.5-1.1 1.3-.4 2.6-.7 4-1.1v-2.2c0-3.6-.5-6.1-1.5-7.3-1-1.3-2.8-1.9-5.3-1.9-.5 0-1 0-1.5.1s-1.1.1-1.7.2l-.9 4.3c-.2 1.9-.7 3.2-1.6 4.1-.9.9-2 1.3-3.3 1.3-2.5 0-3.9-1.2-4.3-3.5.5-3.1 2.1-5.6 5-7.4 2.9-1.9 6.6-2.8 11.3-2.8 4.5 0 7.8 1.1 9.8 3.2 2.1 2.1 3.1 5.7 3.1 10.8v16.9c0 2.3.7 3.5 2.2 3.5 1 0 1.9-.6 2.7-1.7l1.8 1.5c-.9 1.8-2 3-3.3 3.8-1.3.6-2.9 1-4.8 1zm-20.1-11.2c0 2 .5 3.5 1.6 4.4 1.1.9 2.4 1.4 3.9 1.4.9 0 1.8-.2 2.6-.6.9-.4 2.2-1.3 4.1-2.6V556c-1.1.4-2.1.7-3.1 1-1 .3-1.8.6-2.4.9-2.6 1-4.4 2.2-5.3 3.6-.9 1.3-1.4 2.7-1.4 4.2zM632.2 576v-3.2l5-.9c.1-2 .1-4.1.1-6.3V555.7v-5.1c0-1.3-.1-2.7-.2-4.2l-5.4-.7v-2.9l12.9-4.9 1.2.8.8 9.1c1.2-3.2 2.8-5.7 4.8-7.4 2-1.7 4-2.6 6-2.6 1.4 0 2.7.4 3.8 1.1 1.2.7 1.9 1.8 2.3 3.1-.1 1.9-.5 3.4-1.4 4.5-.9 1.1-2.1 1.6-3.6 1.6-1.9 0-3.6-.9-5.3-2.8l-.7-.8c-2.7 2.3-4.7 5.5-5.9 9.6v11.4c0 2.2 0 4.2.1 6.2l6.4 1.2v3.2h-20.9zM694.6 576.9c-2.1 0-3.7-.5-5-1.5-1.3-1-2.2-2.5-2.6-4.3-1.9 2-3.6 3.4-5.2 4.5-1.5 1-3.6 1.5-6 1.5-2.9 0-5.3-.8-7.3-2.5s-3-4.1-3-7.2c0-1.7.4-3.2 1.2-4.6.8-1.4 2.2-2.7 4.1-4 2-1.2 4.8-2.5 8.6-3.6 1-.4 2.2-.7 3.5-1.1 1.3-.4 2.6-.7 4-1.1v-2.2c0-3.6-.5-6.1-1.5-7.3-1-1.3-2.8-1.9-5.3-1.9-.5 0-1 0-1.5.1s-1.1.1-1.7.2l-.9 4.3c-.2 1.9-.8 3.2-1.6 4.1-.9.9-2 1.3-3.3 1.3-2.5 0-3.9-1.2-4.3-3.5.5-3.1 2.1-5.6 5-7.4 2.9-1.9 6.6-2.8 11.3-2.8 4.5 0 7.8 1.1 9.8 3.2 2.1 2.1 3.1 5.7 3.1 10.8v16.9c0 2.3.7 3.5 2.2 3.5 1 0 1.9-.6 2.7-1.7l1.8 1.5c-.9 1.8-2 3-3.3 3.8-1.4.6-2.9 1-4.8 1zm-20.1-11.2c0 2 .5 3.5 1.6 4.4 1.1.9 2.4 1.4 3.9 1.4.9 0 1.8-.2 2.6-.6.9-.4 2.2-1.3 4.1-2.6V556c-1.1.4-2.1.7-3.1 1-1 .3-1.8.6-2.4.9-2.6 1-4.4 2.2-5.3 3.6-1 1.3-1.4 2.7-1.4 4.2z"/></g><g class="st1"><path class="st2" d="M293 662.1c-2.1 0-3.7-.5-5-1.5-1.3-1-2.2-2.5-2.6-4.3-1.9 2-3.6 3.4-5.2 4.5-1.5 1-3.6 1.5-6 1.5-2.9 0-5.3-.8-7.3-2.5s-3-4.1-3-7.2c0-1.7.4-3.2 1.2-4.6.8-1.4 2.2-2.7 4.1-4 2-1.2 4.8-2.5 8.6-3.6 1-.4 2.2-.7 3.5-1.1 1.3-.4 2.6-.7 4-1.1V636c0-3.6-.5-6.1-1.5-7.3-1-1.3-2.8-1.9-5.3-1.9-.5 0-1 0-1.5.1s-1.1.1-1.7.2l-.9 4.3c-.2 1.9-.8 3.2-1.6 4.1-.9.9-2 1.3-3.3 1.3-2.5 0-3.9-1.2-4.3-3.5.5-3.1 2.1-5.6 5-7.4 2.9-1.9 6.6-2.8 11.3-2.8 4.5 0 7.8 1.1 9.8 3.2 2.1 2.1 3.1 5.7 3.1 10.8V654c0 2.3.7 3.5 2.2 3.5 1 0 1.9-.6 2.7-1.7l1.8 1.5c-.9 1.8-2 3-3.3 3.8-1.4.6-2.9 1-4.8 1zm-20.1-11.2c0 2 .5 3.5 1.6 4.4 1.1.9 2.4 1.4 3.9 1.4.9 0 1.8-.2 2.6-.6.9-.4 2.2-1.3 4.1-2.6v-12.2c-1.1.4-2.1.7-3.1 1-1 .3-1.8.6-2.4.9-2.6 1-4.4 2.2-5.3 3.6-.9 1.2-1.4 2.6-1.4 4.1zM302.1 679.2V676l5.3-1c.1-2.3.1-4.5.1-6.5V640.8v-5.1c0-1.3-.1-2.7-.2-4.2l-5.4-.7v-2.9l12.9-4.9 1.2.8.4 4.7c3.5-3.7 7.4-5.5 11.6-5.5 2.8 0 5.3.8 7.6 2.3 2.3 1.5 4.1 3.7 5.4 6.6 1.3 2.9 2 6.4 2 10.5s-.7 7.6-2.2 10.6c-1.5 3-3.4 5.3-5.8 6.9-2.4 1.6-5.1 2.4-8.1 2.4-1.9 0-3.7-.4-5.3-1.1-1.7-.7-3.2-1.9-4.7-3.5v10.6c0 2.1.1 4.3.1 6.5l6 1.2v3.2h-20.9zm22.2-50.7c-1.2 0-2.4.3-3.6.9-1.2.6-2.5 1.4-3.8 2.5v21.9c2.2 2 4.5 3 6.9 3 2.6 0 4.8-1.1 6.5-3.4 1.8-2.2 2.7-5.8 2.7-10.6s-.8-8.3-2.4-10.8c-1.6-2.3-3.7-3.5-6.3-3.5zM348.5 661.2V658l5-.9c.1-2 .1-4.1.1-6.3V640.9v-5.1c0-1.3-.1-2.7-.2-4.2l-5.4-.7V628l12.9-4.9 1.2.8.8 9.1c1.2-3.2 2.8-5.7 4.8-7.4 2-1.7 4-2.6 6-2.6 1.4 0 2.7.4 3.8 1.1 1.2.7 1.9 1.8 2.3 3.1-.1 1.9-.5 3.4-1.4 4.5-.9 1.1-2.1 1.6-3.6 1.6-1.9 0-3.6-.9-5.3-2.8l-.7-.8c-2.7 2.3-4.7 5.5-5.9 9.6v11.4c0 2.2 0 4.2.1 6.2l6.4 1.2v3.2l-20.9-.1zM400.2 662.3c-3.6 0-6.8-.8-9.5-2.3-2.7-1.5-4.9-3.8-6.4-6.7-1.5-2.9-2.3-6.4-2.3-10.4 0-4.1.9-7.7 2.7-10.7 1.8-3 4.1-5.2 7-6.8 2.9-1.6 5.9-2.4 9.2-2.4 3 0 5.7.6 8 1.9 2.3 1.3 4 3.1 5.3 5.4 1.3 2.3 1.9 5.1 1.9 8.2 0 1.7-.2 3.1-.5 4.3h-23.7c.2 4.4 1.4 7.8 3.5 10s4.8 3.3 8.1 3.3c2.3 0 4.2-.5 5.8-1.4 1.6-.9 3-2.1 4.3-3.5l2.2 2c-1.5 2.8-3.6 5-6.2 6.6s-5.8 2.5-9.4 2.5zm0-35.6c-1.2 0-2.5.4-3.7 1.2-1.2.8-2.2 2.1-3.1 3.9-.9 1.8-1.4 4.3-1.6 7.4h10.6c1.9 0 3.1-.4 3.7-1.2.6-.8.9-1.9.9-3.3 0-2.4-.7-4.3-2-5.8-1.3-1.4-2.9-2.2-4.8-2.2zM421.5 661.2V658l5-1c0-1.9.1-4 .1-6.2V640.9v-5.1c0-1.3-.1-2.7-.2-4.2l-5.4-.7V628l12.9-4.9 1.2.8.5 6c4-4.5 8.4-6.7 13.2-6.7 3.4 0 6 1.1 7.8 3.3 1.8 2.2 2.7 5.7 2.7 10.5v14.1c0 2.2 0 4.3.1 6.2l4.7.9v3.2H445V658l5-1c.1-1.9.1-4 .1-6.2v-13.3c0-3-.4-5.2-1.2-6.3-.8-1.2-2.2-1.7-4.2-1.7-2.7 0-5.6 1.3-8.7 3.8v17.5c0 2.2 0 4.3.1 6.3l4.6.9v3.2h-19.2zM496.2 662l-.6-4.9c-1.4 1.7-3 2.9-4.8 3.8-1.8.9-3.8 1.3-6 1.3-3 0-5.7-.8-8.1-2.3-2.4-1.5-4.2-3.8-5.5-6.7s-2-6.3-2-10.3c0-4.1.8-7.6 2.3-10.6 1.5-3 3.6-5.3 6.1-6.9 2.6-1.6 5.4-2.4 8.4-2.4 2 0 3.7.4 5.3 1.1 1.6.7 3.1 1.9 4.5 3.6v-16l-6-.8v-3l14.2-3.5 1.2.7-.3 10.9v41.1l5 .9v3.2l-13.7.8zM479 642.8c0 4.7.9 8.2 2.7 10.5 1.8 2.3 4 3.4 6.8 3.4 1.3 0 2.6-.3 3.7-.8s2.2-1.3 3.1-2.4v-22.2c-2.3-2-4.5-2.9-6.7-2.9-2.6 0-4.8 1.2-6.7 3.5-1.9 2.3-2.9 6-2.9 10.9zM532.3 662.3c-3.6 0-6.8-.8-9.5-2.3-2.7-1.5-4.9-3.8-6.4-6.7-1.5-2.9-2.3-6.4-2.3-10.4 0-4.1.9-7.7 2.7-10.7s4.1-5.2 7-6.8c2.9-1.6 5.9-2.4 9.2-2.4 3 0 5.7.6 8 1.9 2.3 1.3 4 3.1 5.3 5.4 1.3 2.3 1.9 5.1 1.9 8.2 0 1.7-.2 3.1-.5 4.3H524c.2 4.4 1.4 7.8 3.5 10s4.8 3.3 8.1 3.3c2.3 0 4.2-.5 5.8-1.4 1.6-.9 3-2.1 4.3-3.5l2.2 2c-1.5 2.8-3.6 5-6.2 6.6s-5.8 2.5-9.4 2.5zm0-35.6c-1.2 0-2.5.4-3.7 1.2-1.2.8-2.2 2.1-3.1 3.9-.9 1.8-1.4 4.3-1.6 7.4h10.6c1.9 0 3.1-.4 3.7-1.2.6-.8.9-1.9.9-3.3 0-2.4-.7-4.3-2-5.8-1.3-1.4-2.9-2.2-4.8-2.2zM553.8 661.2V658l5-.9c.1-2 .1-4.1.1-6.3V640.9v-5.1c0-1.3-.1-2.7-.2-4.2l-5.4-.7V628l12.9-4.9 1.2.8.8 9.1c1.2-3.2 2.8-5.7 4.8-7.4 2-1.7 4-2.6 6-2.6 1.4 0 2.7.4 3.8 1.1 1.2.7 1.9 1.8 2.3 3.1-.1 1.9-.5 3.4-1.4 4.5-.9 1.1-2.1 1.6-3.6 1.6-1.9 0-3.6-.9-5.3-2.8l-.7-.8c-2.7 2.3-4.7 5.5-5.9 9.6v11.4c0 2.2 0 4.2.1 6.2l6.4 1.2v3.2l-20.9-.1zM623.9 662.3c-3.6 0-6.8-.8-9.5-2.3-2.7-1.5-4.9-3.8-6.4-6.7-1.5-2.9-2.3-6.4-2.3-10.4 0-4.1.9-7.7 2.7-10.7s4.1-5.2 7-6.8c2.9-1.6 5.9-2.4 9.2-2.4 3 0 5.7.6 8 1.9 2.3 1.3 4 3.1 5.3 5.4 1.3 2.3 1.9 5.1 1.9 8.2 0 1.7-.2 3.1-.5 4.3h-23.7c.2 4.4 1.4 7.8 3.5 10s4.8 3.3 8.1 3.3c2.3 0 4.2-.5 5.8-1.4 1.6-.9 3-2.1 4.3-3.5l2.2 2c-1.5 2.8-3.6 5-6.2 6.6-2.7 1.7-5.8 2.5-9.4 2.5zm0-35.6c-1.2 0-2.5.4-3.7 1.2-1.2.8-2.2 2.1-3.1 3.9-.9 1.8-1.4 4.3-1.6 7.4h10.6c1.9 0 3.1-.4 3.7-1.2.6-.8.9-1.9.9-3.3 0-2.4-.7-4.3-2-5.8-1.3-1.4-2.9-2.2-4.8-2.2zM645.3 661.2V658l5-1c0-1.9.1-4 .1-6.2V640.9v-5.1c0-1.3-.1-2.7-.2-4.2l-5.4-.7V628l12.9-4.9 1.2.8.5 6c4-4.5 8.4-6.7 13.2-6.7 3.4 0 6 1.1 7.8 3.3 1.8 2.2 2.7 5.7 2.7 10.5v14.1c0 2.2 0 4.3.1 6.2l4.7.9v3.2h-19.1V658l5-1c.1-1.9.1-4 .1-6.2v-13.3c0-3-.4-5.2-1.2-6.3-.8-1.2-2.2-1.7-4.2-1.7-2.7 0-5.6 1.3-8.7 3.8v17.5c0 2.2 0 4.3.1 6.3l4.6.9v3.2h-19.2zM728.4 662.3c-3.5 0-6.7-.8-9.5-2.3-2.8-1.5-5-3.7-6.5-6.7-1.6-2.9-2.4-6.4-2.4-10.6 0-4.2.9-7.7 2.7-10.7 1.8-2.9 4.1-5.2 7.1-6.7 2.9-1.5 6.1-2.3 9.6-2.3 2.5 0 4.8.5 6.9 1.4 2 1 3.7 2.2 5 3.8 1.3 1.6 2 3.4 2.3 5.4-.6 2.3-2.1 3.4-4.4 3.4-2.9 0-4.6-1.8-5-5.4l-1-4.6c-.5-.1-.9-.2-1.4-.2-.5 0-.9-.1-1.4-.1-1.9 0-3.6.5-5.2 1.6s-2.9 2.7-3.8 4.9c-1 2.2-1.5 5-1.5 8.4 0 4.7 1.1 8.3 3.2 10.8s4.9 3.7 8.4 3.7c2.1 0 3.9-.5 5.6-1.4 1.7-.9 3-2.2 4.2-3.8l2.3 1.7c-1.3 3.2-3.2 5.5-5.8 7.2-2.7 1.7-5.8 2.5-9.4 2.5zM767.3 662.3c-3.5 0-6.7-.8-9.5-2.3-2.8-1.5-5-3.8-6.7-6.7-1.7-2.9-2.5-6.5-2.5-10.5 0-4.1.9-7.7 2.6-10.6 1.7-2.9 4-5.2 6.9-6.7 2.8-1.5 5.9-2.3 9.2-2.3s6.4.8 9.2 2.3 5.1 3.8 6.9 6.7c1.8 2.9 2.6 6.5 2.6 10.7 0 4.1-.8 7.7-2.5 10.6-1.7 2.9-3.9 5.2-6.7 6.7-2.9 1.3-6 2.1-9.5 2.1zm0-3.8c2.8 0 4.9-1.3 6.4-3.9 1.5-2.6 2.2-6.5 2.2-11.9 0-10.6-2.9-16-8.6-16-5.7 0-8.5 5.3-8.5 16 0 5.3.7 9.3 2.2 11.9 1.3 2.6 3.5 3.9 6.3 3.9zM790.4 661.2V658l5.3-1c0-2 .1-4 .1-6v-39.2l-5.7-.8v-3l14.1-3.5 1.2.7-.3 10.9V651c0 2 .1 4 .1 6l5.3 1v3.2h-20.1zM833.6 662.3c-3.6 0-6.8-.8-9.5-2.3-2.7-1.5-4.9-3.8-6.4-6.7-1.5-2.9-2.3-6.4-2.3-10.4 0-4.1.9-7.7 2.7-10.7 1.8-3 4.1-5.2 7-6.8 2.9-1.6 5.9-2.4 9.2-2.4 3 0 5.7.6 8 1.9 2.3 1.3 4 3.1 5.3 5.4 1.3 2.3 1.9 5.1 1.9 8.2 0 1.7-.2 3.1-.5 4.3h-23.7c.2 4.4 1.4 7.8 3.5 10s4.8 3.3 8.1 3.3c2.3 0 4.2-.5 5.8-1.4 1.6-.9 3-2.1 4.3-3.5l2.2 2c-1.5 2.8-3.6 5-6.2 6.6-2.7 1.7-5.8 2.5-9.4 2.5zm0-35.6c-1.2 0-2.5.4-3.7 1.2s-2.2 2.1-3.1 3.9c-.9 1.8-1.4 4.3-1.6 7.4h10.6c1.9 0 3.1-.4 3.7-1.2.6-.8.9-1.9.9-3.3 0-2.4-.7-4.3-2-5.8-1.3-1.4-2.9-2.2-4.8-2.2zM873.4 662.3c-3.5 0-6.7-.8-9.5-2.3-2.8-1.5-5-3.7-6.5-6.7-1.6-2.9-2.4-6.4-2.4-10.6 0-4.2.9-7.7 2.7-10.7 1.8-2.9 4.1-5.2 7.1-6.7 2.9-1.5 6.1-2.3 9.6-2.3 2.5 0 4.8.5 6.9 1.4 2 1 3.7 2.2 5 3.8 1.3 1.6 2 3.4 2.3 5.4-.6 2.3-2.1 3.4-4.4 3.4-2.9 0-4.6-1.8-5-5.4l-1-4.6c-.5-.1-.9-.2-1.4-.2-.5 0-.9-.1-1.4-.1-1.9 0-3.6.5-5.2 1.6s-2.9 2.7-3.8 4.9c-1 2.2-1.5 5-1.5 8.4 0 4.7 1.1 8.3 3.2 10.8s4.9 3.7 8.4 3.7c2.1 0 3.9-.5 5.6-1.4 1.7-.9 3-2.2 4.2-3.8l2.3 1.7c-1.3 3.2-3.2 5.5-5.8 7.2-2.6 1.7-5.8 2.5-9.4 2.5zM907.1 662.3c-3.1 0-5.5-.8-7.3-2.3-1.8-1.5-2.6-4-2.6-7.4v-3.4-20.3h-5.7v-4l6.3-.8 2.9-10.6h6.3l-.3 10.7h9.3v4.7h-9.4v22.9c0 1.9.4 3.3 1.1 4.2.7.9 1.7 1.3 3 1.3 1.4 0 3-.6 4.7-1.9l1.9 1.9c-1 1.6-2.3 2.9-4 3.8-1.7.7-3.8 1.2-6.2 1.2zM919.6 661.2V658l5.1-1c.1-1.9.1-4 .1-6.2v-9.4-5.3c0-1.4-.1-2.9-.2-4.5l-5.5-.7V628l13.9-5 1.2.8-.2 10.9v16c0 2.2 0 4.4.1 6.3l4.7.9v3.2l-19.2.1zm9.8-45.4c-1.7 0-3-.5-4.2-1.5-1.1-1-1.7-2.3-1.7-4 0-1.7.6-3 1.7-4s2.5-1.5 4.2-1.5 3 .5 4.1 1.5c1.1 1 1.7 2.4 1.7 4s-.6 2.9-1.7 4c-1.1 1-2.5 1.5-4.1 1.5zM964.7 627.3V624h14.7v3.3l-4.3.9-12.7 33.2h-4.6l-14-33.5-4-.7v-3.3h20.4v3.3l-6 .9 8.5 22.5 7.7-22.4-5.7-.9zM999.7 662.3c-3.5 0-6.7-.8-9.5-2.3-2.8-1.5-5-3.8-6.7-6.7-1.7-2.9-2.5-6.5-2.5-10.5 0-4.1.9-7.7 2.6-10.6 1.7-2.9 4-5.2 6.9-6.7 2.8-1.5 5.9-2.3 9.2-2.3s6.4.8 9.2 2.3 5.1 3.8 6.9 6.7c1.8 2.9 2.6 6.5 2.6 10.7 0 4.1-.8 7.7-2.5 10.6-1.7 2.9-3.9 5.2-6.7 6.7-2.8 1.3-6 2.1-9.5 2.1zm0-3.8c2.8 0 4.9-1.3 6.4-3.9 1.5-2.6 2.2-6.5 2.2-11.9 0-10.6-2.9-16-8.6-16-5.7 0-8.5 5.3-8.5 16 0 5.3.7 9.3 2.2 11.9 1.4 2.6 3.5 3.9 6.3 3.9z"/></g><g class="st1"><path class="st2" d="M281.9 747.5c-3.5 0-6.7-.8-9.5-2.3-2.8-1.5-5-3.7-6.5-6.7-1.6-2.9-2.4-6.4-2.4-10.6 0-4.2.9-7.7 2.7-10.7 1.8-2.9 4.1-5.2 7.1-6.7 2.9-1.5 6.1-2.3 9.6-2.3 2.5 0 4.8.5 6.9 1.4 2 1 3.7 2.2 5 3.8 1.3 1.6 2 3.4 2.3 5.4-.6 2.3-2.1 3.4-4.4 3.4-2.9 0-4.6-1.8-5-5.4l-1-4.6c-.5-.1-.9-.2-1.4-.2-.5 0-.9-.1-1.4-.1-1.9 0-3.6.5-5.2 1.6s-2.9 2.7-3.8 4.9c-1 2.2-1.5 5-1.5 8.4 0 4.7 1.1 8.3 3.2 10.8s4.9 3.7 8.4 3.7c2.1 0 3.9-.5 5.6-1.4 1.7-.9 3-2.2 4.2-3.8l2.3 1.7c-1.3 3.2-3.2 5.5-5.8 7.2-2.6 1.7-5.7 2.5-9.4 2.5zM320.8 747.5c-3.5 0-6.7-.8-9.5-2.3-2.8-1.5-5-3.8-6.7-6.7-1.7-2.9-2.5-6.5-2.5-10.5 0-4.1.9-7.7 2.6-10.6 1.7-2.9 4-5.2 6.9-6.7 2.8-1.5 5.9-2.3 9.2-2.3 3.3 0 6.4.8 9.2 2.3 2.8 1.5 5.1 3.8 6.9 6.7 1.8 2.9 2.6 6.5 2.6 10.7 0 4.1-.8 7.7-2.5 10.6-1.7 2.9-3.9 5.2-6.7 6.7-2.8 1.3-6 2.1-9.5 2.1zm0-3.8c2.8 0 4.9-1.3 6.4-3.9 1.5-2.6 2.2-6.5 2.2-11.9 0-10.6-2.9-16-8.6-16-5.7 0-8.5 5.3-8.5 16 0 5.3.7 9.3 2.2 11.9 1.4 2.6 3.5 3.9 6.3 3.9zM345.1 746.4v-3.2l5-1c.1-1.9.1-4 .1-6.2v-10-5.1c0-1.3-.1-2.7-.2-4.2l-5.4-.7v-2.9l12.9-4.9 1.2.8.5 6c4-4.5 8.4-6.7 13.2-6.7 3.4 0 6 1.1 7.8 3.3 1.8 2.2 2.8 5.7 2.8 10.5v14.1c0 2.2 0 4.3.1 6.2l4.7.9v3.2h-19.1v-3.2l5-1c.1-1.9.1-4 .1-6.2v-13.3c0-3-.4-5.2-1.2-6.3-.8-1.2-2.2-1.7-4.2-1.7-2.7 0-5.6 1.3-8.7 3.8v17.5c0 2.2 0 4.3.1 6.3l4.6.9v3.2h-19.3zM409.1 746.4v-3.2l5.3-1c.1-2 .1-4 .1-6V697l-5.7-.8v-3l14.1-3.5 1.2.7-.3 10.9v34.9c0 2 .1 4 .1 6l5.3 1v3.2h-20.1zM462.5 747.3c-2.1 0-3.7-.5-5-1.5-1.3-1-2.2-2.5-2.6-4.3-1.9 2-3.6 3.4-5.2 4.5-1.5 1-3.6 1.5-6 1.5-2.9 0-5.3-.8-7.3-2.5s-3-4.1-3-7.2c0-1.7.4-3.2 1.2-4.6.8-1.4 2.2-2.7 4.1-4 2-1.2 4.8-2.5 8.6-3.6 1-.4 2.2-.7 3.5-1.1 1.3-.4 2.6-.7 4-1.1v-2.2c0-3.6-.5-6.1-1.5-7.3-1-1.3-2.8-1.9-5.3-1.9-.5 0-1 0-1.5.1s-1.1.1-1.7.2l-.9 4.3c-.2 1.9-.8 3.2-1.6 4.1-.9.9-2 1.3-3.3 1.3-2.5 0-3.9-1.2-4.3-3.5.5-3.1 2.1-5.6 5-7.4 2.9-1.9 6.6-2.8 11.3-2.8 4.5 0 7.8 1.1 9.8 3.2 2.1 2.1 3.1 5.7 3.1 10.8v16.9c0 2.3.7 3.5 2.2 3.5 1 0 1.9-.6 2.7-1.7l1.8 1.5c-.9 1.8-2 3-3.3 3.8-1.4.7-2.9 1-4.8 1zm-20.1-11.2c0 2 .5 3.5 1.6 4.4 1.1.9 2.4 1.4 3.9 1.4.9 0 1.8-.2 2.6-.6.9-.4 2.2-1.3 4.1-2.6v-12.2c-1.1.4-2.1.7-3.1 1s-1.8.6-2.4.9c-2.6 1-4.4 2.2-5.3 3.6-.9 1.2-1.4 2.6-1.4 4.1zM503.6 747.5c-2.4 0-4.6-.3-6.5-.8-2-.5-4-1.4-5.9-2.4l-.1-9h5.2l1.4 7.2c1.9.8 3.9 1.2 6 1.2 2.6 0 4.6-.5 5.9-1.4 1.3-.9 1.9-2.2 1.9-3.9 0-1.4-.5-2.6-1.5-3.5-1-.9-2.8-1.8-5.3-2.6l-3.9-1.3c-2.9-.9-5.2-2.3-6.9-4.1-1.7-1.8-2.5-4.1-2.5-6.8 0-2.2.6-4.1 1.7-5.9 1.1-1.8 2.8-3.2 5-4.3 2.2-1.1 4.9-1.6 8-1.6 2.2 0 4.2.3 6.1.8 1.8.5 3.7 1.3 5.5 2.4l-.4 8.1h-5.1l-1.4-6.5c-1.4-.6-3-.9-4.8-.9-2.1 0-3.7.4-4.8 1.3-1.1.9-1.7 2.1-1.7 3.6 0 1.4.5 2.5 1.4 3.4 1 .9 2.8 1.7 5.4 2.6l3.1.9c3.8 1.3 6.5 2.9 8.1 4.8 1.6 1.9 2.4 4.2 2.4 6.9 0 3.5-1.4 6.3-4.2 8.6-2.8 2.1-6.8 3.2-12.1 3.2zM543.9 747.5c-3.5 0-6.7-.8-9.5-2.3-2.8-1.5-5-3.8-6.7-6.7-1.7-2.9-2.5-6.5-2.5-10.5 0-4.1.9-7.7 2.6-10.6 1.7-2.9 4-5.2 6.9-6.7 2.8-1.5 5.9-2.3 9.2-2.3 3.3 0 6.4.8 9.2 2.3 2.8 1.5 5.1 3.8 6.9 6.7 1.8 2.9 2.6 6.5 2.6 10.7 0 4.1-.8 7.7-2.5 10.6-1.7 2.9-3.9 5.2-6.7 6.7-2.8 1.3-6 2.1-9.5 2.1zm0-3.8c2.8 0 4.9-1.3 6.4-3.9 1.5-2.6 2.2-6.5 2.2-11.9 0-10.6-2.9-16-8.6-16-5.7 0-8.5 5.3-8.5 16 0 5.3.7 9.3 2.2 11.9 1.4 2.6 3.5 3.9 6.3 3.9zM586.9 747.5c-3.5 0-6.7-.8-9.5-2.3-2.8-1.5-5-3.7-6.5-6.7-1.6-2.9-2.4-6.4-2.4-10.6 0-4.2.9-7.7 2.7-10.7 1.8-2.9 4.1-5.2 7.1-6.7 2.9-1.5 6.1-2.3 9.6-2.3 2.5 0 4.8.5 6.9 1.4s3.7 2.2 5 3.8c1.3 1.6 2 3.4 2.3 5.4-.6 2.3-2.1 3.4-4.4 3.4-2.9 0-4.6-1.8-5-5.4l-1-4.6c-.5-.1-.9-.2-1.4-.2-.5 0-.9-.1-1.4-.1-1.9 0-3.6.5-5.2 1.6s-2.9 2.7-3.8 4.9c-1 2.2-1.5 5-1.5 8.4 0 4.7 1.1 8.3 3.2 10.8s4.9 3.7 8.4 3.7c2.1 0 3.9-.5 5.6-1.4 1.7-.9 3-2.2 4.2-3.8l2.3 1.7c-1.3 3.2-3.2 5.5-5.8 7.2-2.6 1.7-5.7 2.5-9.4 2.5zM607.1 746.4v-3.2l5.1-1c0-1.9.1-4 .1-6.2v-9.4-5.3c0-1.4-.1-2.9-.2-4.5l-5.5-.7v-2.9l13.9-4.9 1.2.8-.2 10.9v16c0 2.2 0 4.4.1 6.3l4.7.9v3.2h-19.2zm9.7-45.4c-1.7 0-3-.5-4.2-1.5-1.1-1-1.7-2.3-1.7-4 0-1.7.6-3 1.7-4s2.5-1.5 4.2-1.5c1.7 0 3 .5 4.1 1.5 1.1 1 1.7 2.4 1.7 4s-.6 2.9-1.7 4-2.4 1.5-4.1 1.5zM649.5 747.5c-3.6 0-6.8-.8-9.5-2.3s-4.9-3.8-6.4-6.7c-1.5-2.9-2.3-6.4-2.3-10.4 0-4.1.9-7.7 2.7-10.7s4.1-5.2 7-6.8c2.9-1.6 5.9-2.4 9.2-2.4 3 0 5.7.6 8 1.9 2.3 1.3 4 3.1 5.3 5.4 1.3 2.3 1.9 5.1 1.9 8.2 0 1.7-.2 3.1-.5 4.3h-23.7c.2 4.4 1.4 7.8 3.5 10s4.8 3.3 8.1 3.3c2.3 0 4.2-.5 5.8-1.4 1.6-.9 3-2.1 4.3-3.5l2.2 2c-1.5 2.8-3.6 5-6.2 6.6-2.7 1.7-5.8 2.5-9.4 2.5zm0-35.6c-1.2 0-2.5.4-3.7 1.2-1.2.8-2.2 2.1-3.1 3.9-.9 1.8-1.4 4.3-1.6 7.4h10.6c1.9 0 3.1-.4 3.7-1.2.6-.8.9-1.9.9-3.3 0-2.4-.7-4.3-2-5.8-1.3-1.4-2.9-2.2-4.8-2.2zM698.2 747.3l-.6-4.9c-1.4 1.7-3 2.9-4.8 3.8-1.8.9-3.8 1.3-6 1.3-3 0-5.7-.8-8.1-2.3-2.4-1.5-4.2-3.8-5.5-6.7-1.3-2.9-2-6.3-2-10.3 0-4.1.8-7.6 2.3-10.6 1.5-3 3.6-5.3 6.1-6.9 2.6-1.6 5.4-2.4 8.4-2.4 2 0 3.7.4 5.3 1.1 1.6.7 3.1 1.9 4.5 3.6v-16l-6-.8v-3l14.2-3.5 1.2.7-.3 10.9v41.1l5 .9v3.2l-13.7.8zM681 728c0 4.7.9 8.2 2.7 10.5 1.8 2.3 4 3.4 6.8 3.4 1.3 0 2.6-.3 3.7-.8s2.2-1.3 3.1-2.4v-22.2c-2.3-2-4.5-2.9-6.7-2.9-2.6 0-4.8 1.2-6.7 3.5s-2.9 6-2.9 10.9zM744.6 747.3c-2.1 0-3.7-.5-5-1.5-1.3-1-2.2-2.5-2.6-4.3-1.9 2-3.6 3.4-5.2 4.5-1.5 1-3.6 1.5-6 1.5-2.9 0-5.3-.8-7.3-2.5s-3-4.1-3-7.2c0-1.7.4-3.2 1.2-4.6.8-1.4 2.2-2.7 4.1-4 2-1.2 4.8-2.5 8.6-3.6 1-.4 2.2-.7 3.5-1.1 1.3-.4 2.6-.7 4-1.1v-2.2c0-3.6-.5-6.1-1.5-7.3-1-1.3-2.8-1.9-5.3-1.9-.5 0-1 0-1.5.1s-1.1.1-1.7.2l-.9 4.3c-.2 1.9-.7 3.2-1.6 4.1-.9.9-2 1.3-3.3 1.3-2.5 0-3.9-1.2-4.3-3.5.5-3.1 2.1-5.6 5-7.4 2.9-1.9 6.6-2.8 11.3-2.8 4.5 0 7.8 1.1 9.8 3.2 2.1 2.1 3.1 5.7 3.1 10.8v16.9c0 2.3.7 3.5 2.2 3.5 1 0 1.9-.6 2.7-1.7l1.8 1.5c-.9 1.8-2 3-3.3 3.8-1.4.7-3 1-4.8 1zm-20.2-11.2c0 2 .5 3.5 1.6 4.4 1.1.9 2.4 1.4 3.9 1.4.9 0 1.8-.2 2.6-.6.9-.4 2.2-1.3 4.1-2.6v-12.2c-1.1.4-2.1.7-3.1 1-1 .3-1.8.6-2.4.9-2.6 1-4.4 2.2-5.3 3.6-.9 1.2-1.4 2.6-1.4 4.1zM782.7 747.3l-.6-4.9c-1.4 1.7-3 2.9-4.8 3.8-1.8.9-3.8 1.3-6 1.3-3 0-5.7-.8-8.1-2.3-2.4-1.5-4.2-3.8-5.5-6.7-1.3-2.9-2-6.3-2-10.3 0-4.1.8-7.6 2.3-10.6 1.5-3 3.6-5.3 6.1-6.9 2.6-1.6 5.4-2.4 8.4-2.4 2 0 3.7.4 5.3 1.1 1.6.7 3.1 1.9 4.5 3.6v-16l-6-.8v-3l14.2-3.5 1.2.7-.3 10.9v41.1l5 .9v3.2l-13.7.8zM765.5 728c0 4.7.9 8.2 2.7 10.5 1.8 2.3 4 3.4 6.8 3.4 1.3 0 2.6-.3 3.7-.8s2.2-1.3 3.1-2.4v-22.2c-2.3-2-4.5-2.9-6.7-2.9-2.6 0-4.8 1.2-6.7 3.5-2 2.3-2.9 6-2.9 10.9zM836 747.5c-3.5 0-6.7-.8-9.5-2.3-2.8-1.5-5-3.7-6.5-6.7-1.6-2.9-2.4-6.4-2.4-10.6 0-4.2.9-7.7 2.7-10.7 1.8-2.9 4.1-5.2 7.1-6.7 2.9-1.5 6.1-2.3 9.6-2.3 2.5 0 4.8.5 6.9 1.4s3.7 2.2 5 3.8c1.3 1.6 2 3.4 2.3 5.4-.6 2.3-2.1 3.4-4.4 3.4-2.9 0-4.6-1.8-5-5.4l-1-4.6c-.5-.1-.9-.2-1.4-.2-.5 0-.9-.1-1.4-.1-1.9 0-3.6.5-5.2 1.6s-2.9 2.7-3.8 4.9c-1 2.2-1.5 5-1.5 8.4 0 4.7 1.1 8.3 3.2 10.8s4.9 3.7 8.4 3.7c2.1 0 3.9-.5 5.6-1.4 1.7-.9 3-2.2 4.2-3.8l2.3 1.7c-1.3 3.2-3.2 5.5-5.8 7.2-2.6 1.7-5.7 2.5-9.4 2.5zM856.2 746.4v-3.2l5.1-1c0-1.9.1-4 .1-6.2v-9.4-5.3c0-1.4-.1-2.9-.2-4.5l-5.5-.7v-2.9l13.9-4.9 1.2.8-.2 10.9v16c0 2.2 0 4.4.1 6.3l4.7.9v3.2h-19.2zm9.7-45.4c-1.7 0-3-.5-4.2-1.5-1.1-1-1.7-2.3-1.7-4 0-1.7.6-3 1.7-4s2.5-1.5 4.2-1.5c1.7 0 3 .5 4.1 1.5 1.1 1 1.7 2.4 1.7 4s-.6 2.9-1.7 4c-1 1-2.4 1.5-4.1 1.5zM901.3 712.5v-3.3H916v3.3l-4.3.9-12.7 33.2h-4.6l-14-33.5-4-.7v-3.3h20.4v3.3l-6 .9 8.5 22.5 7.7-22.4-5.7-.9zM919.1 746.4v-3.2l5.1-1c0-1.9.1-4 .1-6.2v-9.4-5.3c0-1.4-.1-2.9-.2-4.5l-5.5-.7v-2.9l13.9-4.9 1.2.8-.2 10.9v16c0 2.2 0 4.4.1 6.3l4.7.9v3.2h-19.2zm9.7-45.4c-1.7 0-3-.5-4.2-1.5-1.1-1-1.7-2.3-1.7-4 0-1.7.6-3 1.7-4s2.5-1.5 4.2-1.5c1.7 0 3 .5 4.1 1.5 1.1 1 1.7 2.4 1.7 4s-.6 2.9-1.7 4c-1 1-2.4 1.5-4.1 1.5zM942.4 746.4v-3.2l5.3-1c.1-2 .1-4 .1-6V697l-5.7-.8v-3l14.1-3.5 1.2.7-.3 10.9v34.9c0 2 .1 4 .1 6l5.3 1v3.2h-20.1z"/></g><g class="st1"><path class="st2" d="M282 832.7c-3.6 0-6.8-.8-9.5-2.3-2.7-1.5-4.9-3.8-6.4-6.7-1.5-2.9-2.3-6.4-2.3-10.4 0-4.1.9-7.7 2.7-10.7 1.8-3 4.1-5.2 7-6.8 2.9-1.6 5.9-2.4 9.2-2.4 3 0 5.7.6 8 1.9 2.3 1.3 4 3.1 5.3 5.4 1.3 2.3 1.9 5.1 1.9 8.2 0 1.7-.2 3.1-.5 4.3h-23.7c.2 4.4 1.4 7.8 3.5 10s4.8 3.3 8.1 3.3c2.3 0 4.2-.5 5.8-1.4 1.6-.9 3-2.1 4.3-3.5l2.2 2c-1.5 2.8-3.6 5-6.2 6.6-2.6 1.7-5.8 2.5-9.4 2.5zm0-35.6c-1.2 0-2.5.4-3.7 1.2-1.2.8-2.2 2.1-3.1 3.9-.9 1.8-1.4 4.3-1.6 7.4h10.6c1.9 0 3.1-.4 3.7-1.2.6-.8.9-1.9.9-3.3 0-2.4-.7-4.3-2-5.8-1.2-1.4-2.9-2.2-4.8-2.2zM303.4 831.6v-3.2l5-1c.1-1.9.1-4 .1-6.2V811.3v-5.1c0-1.3-.1-2.7-.2-4.2l-5.4-.7v-2.9l12.9-4.9 1.2.8.5 6c4-4.5 8.4-6.7 13.2-6.7 3.4 0 6 1.1 7.8 3.3 1.8 2.2 2.8 5.7 2.8 10.5v14.1c0 2.2 0 4.3.1 6.2l4.7.9v3.2H327v-3.2l5-1c.1-1.9.1-4 .1-6.2V808c0-3-.4-5.2-1.2-6.3-.8-1.2-2.2-1.7-4.2-1.7-2.7 0-5.6 1.3-8.7 3.8v17.5c0 2.2 0 4.3.1 6.3l4.6.9v3.2h-19.3zM366 831.6V828l6.4-.9 16.2-47.1h6.4l16.2 47.5 5.3.6v3.6H394V828l6.8-.9-3.7-11.5h-16.9l-3.7 11.2 6.7 1v3.6H366zm22.7-41.4l-7.1 21.5h14.2l-7.1-21.5zM419.9 831.6v-3.2l5-1c.1-1.9.1-4 .1-6.2V811.3v-5.1c0-1.3-.1-2.7-.2-4.2l-5.4-.7v-2.9l12.9-4.9 1.2.8.5 6c1.9-2.1 3.9-3.8 6.1-5 2.2-1.2 4.5-1.8 6.9-1.8 5 0 8.2 2.4 9.7 7 2.1-2.5 4.2-4.3 6.4-5.4 2.2-1.1 4.5-1.7 6.9-1.7 3.5 0 6.1 1.1 7.9 3.3 1.8 2.2 2.6 5.6 2.6 10.4V821.3c0 2.2 0 4.3.1 6.2l4.7.9v3.2h-18.9v-3.2l4.8-1c0-1.9.1-4 .1-6.2v-13c0-3.3-.4-5.4-1.3-6.6-.9-1.1-2.3-1.7-4.2-1.7-2.7 0-5.6 1.3-8.5 4 0 .5.1 1.1.1 1.6v15.8c0 2.2 0 4.3.1 6.2l4.6.9v3.2h-19v-3.2l5-1c.1-1.9.1-4 .1-6.2v-12.9c0-3.2-.4-5.3-1.2-6.6-.8-1.2-2.2-1.9-4.2-1.9-1.4 0-2.9.3-4.3 1s-2.8 1.6-4.1 2.8V821c0 2.2 0 4.3.1 6.3l4.6.9v3.2l-19.2.2zM508.5 832.7c-3.6 0-6.8-.8-9.5-2.3-2.7-1.5-4.9-3.8-6.4-6.7-1.5-2.9-2.3-6.4-2.3-10.4 0-4.1.9-7.7 2.7-10.7 1.8-3 4.1-5.2 7-6.8 2.9-1.6 5.9-2.4 9.2-2.4 3 0 5.7.6 8 1.9 2.3 1.3 4 3.1 5.3 5.4 1.3 2.3 1.9 5.1 1.9 8.2 0 1.7-.2 3.1-.5 4.3H500c.2 4.4 1.4 7.8 3.5 10s4.8 3.3 8.1 3.3c2.3 0 4.2-.5 5.8-1.4 1.6-.9 3-2.1 4.3-3.5l2.2 2c-1.5 2.8-3.6 5-6.2 6.6s-5.6 2.5-9.2 2.5zm0-35.6c-1.2 0-2.5.4-3.7 1.2-1.2.8-2.2 2.1-3.1 3.9-.9 1.8-1.4 4.3-1.6 7.4h10.6c1.9 0 3.1-.4 3.7-1.2.6-.8.9-1.9.9-3.3 0-2.4-.7-4.3-2-5.8-1.3-1.4-2.9-2.2-4.8-2.2zm-4.1-10.4c.9-1.5 1.8-3.1 2.8-4.7 1-1.6 2.2-3.5 3.7-5.8.9-1.5 1.7-2.5 2.5-3.1.8-.6 1.7-.9 2.6-.9.9 0 1.7.3 2.4.9s1.1 1.5 1.1 2.7c0 1.5-1.2 3.3-3.7 5.3-1.9 1.6-3.6 3-4.9 4.1-1.4 1.2-2.7 2.3-4.1 3.4l-2.4-1.9zM529.9 831.6v-3.2l5-.9c.1-2 .1-4.1.1-6.3V811.3v-5.1c0-1.3-.1-2.7-.2-4.2l-5.4-.7v-2.9l12.9-4.9 1.2.8.8 9.1c1.2-3.2 2.8-5.7 4.8-7.4 2-1.7 4-2.6 6-2.6 1.4 0 2.7.4 3.8 1.1 1.2.7 1.9 1.8 2.3 3.1-.1 1.9-.5 3.4-1.4 4.5-.9 1.1-2.1 1.6-3.6 1.6-1.9 0-3.6-.9-5.3-2.8l-.7-.8c-2.7 2.3-4.7 5.5-5.9 9.6v11.4c0 2.2 0 4.2.1 6.2l6.4 1.2v3.2h-20.9zM564 831.6v-3.2l5.1-1c.1-1.9.1-4 .1-6.2v-9.4-5.3c0-1.4-.1-2.9-.2-4.5l-5.5-.7v-2.9l13.9-4.9 1.2.8-.2 10.9v16c0 2.2 0 4.4.1 6.3l4.7.9v3.2H564zm9.8-45.4c-1.7 0-3-.5-4.2-1.5-1.1-1-1.7-2.3-1.7-4 0-1.7.6-3 1.7-4s2.5-1.5 4.2-1.5 3 .5 4.1 1.5c1.1 1 1.7 2.4 1.7 4s-.6 2.9-1.7 4c-1.1 1-2.5 1.5-4.1 1.5zM606.4 832.7c-3.5 0-6.7-.8-9.5-2.3-2.8-1.5-5-3.7-6.5-6.7-1.6-2.9-2.4-6.4-2.4-10.6 0-4.2.9-7.7 2.7-10.7 1.8-2.9 4.1-5.2 7.1-6.7 2.9-1.5 6.1-2.3 9.6-2.3 2.5 0 4.8.5 6.9 1.4 2 1 3.7 2.2 5 3.8 1.3 1.6 2 3.4 2.3 5.4-.6 2.3-2.1 3.4-4.4 3.4-2.9 0-4.6-1.8-5-5.4l-1-4.6c-.5-.1-.9-.2-1.4-.2-.5 0-.9-.1-1.4-.1-1.9 0-3.6.5-5.2 1.6s-2.9 2.7-3.8 4.9c-1 2.2-1.5 5-1.5 8.4 0 4.7 1.1 8.3 3.2 10.8s4.9 3.7 8.4 3.7c2.1 0 3.9-.5 5.6-1.4 1.7-.9 3-2.2 4.2-3.8l2.3 1.7c-1.3 3.2-3.2 5.5-5.8 7.2-2.7 1.7-5.8 2.5-9.4 2.5zM655.9 832.5c-2.1 0-3.7-.5-5-1.5-1.3-1-2.2-2.5-2.6-4.3-1.9 2-3.6 3.4-5.2 4.5-1.5 1-3.6 1.5-6 1.5-2.9 0-5.3-.8-7.3-2.5s-3-4.1-3-7.2c0-1.7.4-3.2 1.2-4.6.8-1.4 2.2-2.7 4.1-4 2-1.2 4.8-2.5 8.6-3.6 1-.4 2.2-.7 3.5-1.1 1.3-.4 2.6-.7 4-1.1v-2.2c0-3.6-.5-6.1-1.5-7.3-1-1.3-2.8-1.9-5.3-1.9-.5 0-1 0-1.5.1s-1.1.1-1.7.2l-.9 4.3c-.2 1.9-.8 3.2-1.6 4.1-.9.9-2 1.3-3.3 1.3-2.5 0-3.9-1.2-4.3-3.5.5-3.1 2.1-5.6 5-7.4 2.9-1.9 6.6-2.8 11.3-2.8 4.5 0 7.8 1.1 9.8 3.2 2.1 2.1 3.1 5.7 3.1 10.8v16.9c0 2.3.7 3.5 2.2 3.5 1 0 1.9-.6 2.7-1.7l1.8 1.5c-.9 1.8-2 3-3.3 3.8-1.4.7-3 1-4.8 1zm-20.2-11.2c0 2 .5 3.5 1.6 4.4 1.1.9 2.4 1.4 3.9 1.4.9 0 1.8-.2 2.6-.6.9-.4 2.2-1.3 4.1-2.6v-12.2c-1.1.4-2.1.7-3.1 1s-1.8.6-2.4.9c-2.6 1-4.4 2.2-5.3 3.6-.9 1.2-1.4 2.6-1.4 4.1zM684.4 783.9v-3.6H708v3.6l-6.8.8c-.1 3.2-.1 6.4-.1 9.7V817.8c0 3.2.1 6.4.1 9.6h15.6l2.2-10.7h5.4l-.8 14.9h-39.3V828l6.5-.7c.1-3.3.2-6.5.2-9.6V804.3v-10c0-3.3-.1-6.5-.2-9.7l-6.4-.7zM759.1 832.5c-2.1 0-3.7-.5-5-1.5-1.3-1-2.2-2.5-2.6-4.3-1.9 2-3.6 3.4-5.2 4.5-1.5 1-3.6 1.5-6 1.5-2.9 0-5.3-.8-7.3-2.5s-3-4.1-3-7.2c0-1.7.4-3.2 1.2-4.6.8-1.4 2.2-2.7 4.1-4 2-1.2 4.8-2.5 8.6-3.6 1-.4 2.2-.7 3.5-1.1 1.3-.4 2.6-.7 4-1.1v-2.2c0-3.6-.5-6.1-1.5-7.3-1-1.3-2.8-1.9-5.3-1.9-.5 0-1 0-1.5.1s-1.1.1-1.7.2l-.9 4.3c-.2 1.9-.8 3.2-1.6 4.1-.9.9-2 1.3-3.3 1.3-2.5 0-3.9-1.2-4.3-3.5.5-3.1 2.1-5.6 5-7.4 2.9-1.9 6.6-2.8 11.3-2.8 4.5 0 7.8 1.1 9.8 3.2 2.1 2.1 3.1 5.7 3.1 10.8v16.9c0 2.3.7 3.5 2.2 3.5 1 0 1.9-.6 2.7-1.7l1.8 1.5c-.9 1.8-2 3-3.3 3.8-1.4.7-2.9 1-4.8 1zM739 821.3c0 2 .5 3.5 1.6 4.4 1.1.9 2.4 1.4 3.9 1.4.9 0 1.8-.2 2.6-.6.9-.4 2.2-1.3 4.1-2.6v-12.2c-1.1.4-2.1.7-3.1 1-1 .3-1.8.6-2.4.9-2.6 1-4.4 2.2-5.3 3.6-.9 1.2-1.4 2.6-1.4 4.1zM783.6 832.7c-3.1 0-5.5-.8-7.3-2.3-1.8-1.5-2.6-4-2.6-7.4v-3.4-20.3H768v-4l6.3-.8 2.9-10.6h6.3l-.3 10.7h9.3v4.7h-9.4v22.9c0 1.9.4 3.3 1.1 4.2.7.9 1.7 1.3 3 1.3 1.4 0 3-.6 4.7-1.9l1.9 1.9c-1 1.6-2.3 2.9-4 3.8-1.7.7-3.8 1.2-6.2 1.2zM796.1 831.6v-3.2l5.1-1c0-1.9.1-4 .1-6.2v-9.4-5.3c0-1.4-.1-2.9-.2-4.5l-5.5-.7v-2.9l13.9-4.9 1.2.8-.2 10.9v16c0 2.2 0 4.4.1 6.3l4.7.9v3.2h-19.2zm9.8-45.4c-1.7 0-3-.5-4.2-1.5-1.1-1-1.7-2.3-1.7-4 0-1.7.6-3 1.7-4s2.5-1.5 4.2-1.5c1.7 0 3 .5 4.1 1.5 1.1 1 1.7 2.4 1.7 4s-.6 2.9-1.7 4-2.4 1.5-4.1 1.5zM820.1 831.6v-3.2l5-1c.1-1.9.1-4 .1-6.2V811.3v-5.1c0-1.3-.1-2.7-.2-4.2l-5.4-.7v-2.9l12.9-4.9 1.2.8.5 6c4-4.5 8.4-6.7 13.2-6.7 3.4 0 6 1.1 7.8 3.3 1.8 2.2 2.8 5.7 2.8 10.5v14.1c0 2.2 0 4.3.1 6.2l4.7.9v3.2h-19.1v-3.2l5-1c0-1.9.1-4 .1-6.2V808c0-3-.4-5.2-1.2-6.3-.8-1.2-2.2-1.7-4.2-1.7-2.7 0-5.6 1.3-8.7 3.8v17.5c0 2.2 0 4.3.1 6.3l4.6.9v3.2h-19.3zM896.6 832.5c-2.1 0-3.7-.5-5-1.5-1.3-1-2.2-2.5-2.6-4.3-1.9 2-3.6 3.4-5.2 4.5-1.5 1-3.6 1.5-6 1.5-2.9 0-5.3-.8-7.3-2.5s-3-4.1-3-7.2c0-1.7.4-3.2 1.2-4.6.8-1.4 2.2-2.7 4.1-4 2-1.2 4.8-2.5 8.6-3.6 1-.4 2.2-.7 3.5-1.1 1.3-.4 2.6-.7 4-1.1v-2.2c0-3.6-.5-6.1-1.5-7.3-1-1.3-2.8-1.9-5.3-1.9-.5 0-1 0-1.5.1s-1.1.1-1.7.2l-.9 4.3c-.2 1.9-.7 3.2-1.6 4.1-.9.9-2 1.3-3.3 1.3-2.5 0-3.9-1.2-4.3-3.5.5-3.1 2.1-5.6 5-7.4 2.9-1.9 6.6-2.8 11.3-2.8 4.5 0 7.8 1.1 9.8 3.2 2.1 2.1 3.1 5.7 3.1 10.8v16.9c0 2.3.7 3.5 2.2 3.5 1 0 1.9-.6 2.7-1.7l1.8 1.5c-.9 1.8-2 3-3.3 3.8-1.4.7-2.9 1-4.8 1zm-20.1-11.2c0 2 .5 3.5 1.6 4.4 1.1.9 2.4 1.4 3.9 1.4.9 0 1.8-.2 2.6-.6.9-.4 2.2-1.3 4.1-2.6v-12.2c-1.1.4-2.1.7-3.1 1-1 .3-1.8.6-2.4.9-2.6 1-4.4 2.2-5.3 3.6-.9 1.2-1.4 2.6-1.4 4.1zM916.4 832.7c-1.8 0-3.2-.6-4.4-1.8-1.2-1.2-1.8-2.6-1.8-4.3 0-1.8.6-3.3 1.8-4.5 1.2-1.2 2.7-1.9 4.4-1.9 1.8 0 3.2.6 4.4 1.9 1.2 1.2 1.8 2.7 1.8 4.5 0 1.7-.6 3.1-1.8 4.3-1.2 1.2-2.7 1.8-4.4 1.8z"/></g><path d="M230.6 347.5c-.1-.5-.3-1.1-.5-1.5-.9-1.3-1.6-2.7-2.1-4.2-.1-.2-.2-.3-.3-.5-1-1.6-1.8-3.3-2.7-4.9-.9-1.8-2.2-3.5-2.8-5.5-.4-1.2-1.2-2.2-1.8-3.4-.8-1.4-1.5-2.9-2.2-4.3-.7-1.4-1.4-2.9-2.2-4.5 0-1.1-.2-2.5.9-3.5 1.7-1.4 2.8-2.1 4.8-1.9.1.1.2.5.5.6 1 .4 1.5 1.2 2 2 .9 1.7 1.9 3.5 2.9 5.1.8 1.3 1.3 2.8 1.9 4.3.9 2 1.8 4 2.9 5.9 1.5 2.5 2.8 5.1 4.3 7.6 1.1 2 2.2 4 3 6.2.4 1.2 1.1 2.3 1.7 3.4.1.2.3.3.6.6.2-.7.5-1.1.5-1.6 0-1.2.9-2.2 1-3.4.9-1.1 1-2.4 1.4-3.7.5-1.4 1.2-2.7 1.5-4.1.2-.8.4-1.5.6-2.2.2 0 .3-.1.3-.1.4-1.4.9-2.7 1.2-4 .2-.8.8-1.3.9-2.2.1-.8.6-1.6.7-2.4.1-.6.6-1 .8-1.6.2-.5.2-1.1.5-1.5.3-.5-.1-1 .4-1.4.4-.3.6-1 1-1.3.6-.4 1.3-.8 1.9-1 .8-.2 1.7-.3 2.5.1.2.1.4.1.8.1.2.2.5.5.8.9.3.4.5.7.8 1.1v1.9c0 .3-.1.6-.2.9-.4 1-.7 2-.9 3.1-.2 1.1-.9 1.9-1.2 3-.2.8-.4 1.6-.7 2.4-.2.7-.8 1.2-.9 2-.1.6-.5 1.3-.6 1.9-.2.8-.5 1.5-.7 2.3-.1 0-.2.1-.4.1 0 .1-.1.2-.1.3.1.7-.2 1.3-.5 1.9-.4 1.1-.6 2.3-1.3 3.3-.4.6-.4 1.4-.6 2.1-.3 1.1-.9 2.2-1.3 3.2-.2.5-.3 1.1-.6 1.9.7-.1 1.4-.1 1.8-.4 1.2-.7 2.5-.9 3.7-1.4 1.7-.7 3.4-1.3 5.1-1.9 1.5-.6 3.1-1 4.7-1.7 1.5-.6 3.1-1.2 4.6-1.8 1.3-.5 2.6-.8 3.9-1.3.7-.2 1.3-.6 2-.9.7-.3 1.4-.4 2.1-.7 1.2-.6 2.6-.9 3.9-1.3.8-.2 1.6 0 2.5.4l1.2 1.2c.1.7.3 1.4.4 2.1.1.7 0 1.4 0 2.2-.2.1-.4.3-.6.4 0 .4 0 .7-.1 1-1.2.6-2.3 1.4-3.5 1.8-1.6.5-3 1.3-4.6 1.8-.6.2-1.3.4-2 .6-1.3.4-2.7 1-4 1.5-1.6.7-3.3 1.1-5 1.8-.4.2-.8.3-1.3.5.9.3 1.6.6 2.5.5.2 0 .4.2.5.2.7.1 1.3.5 2 .4.3 0 .6.2.8.2.7.1 1.4.5 2.2.4.3-.1.7.2 1 .2.7.1 1.3.4 2.1.4s1.7.3 2.4.7c.7.4 1.5 0 2.1.3.6.2 1.3.6 2 .6.5 0 1 0 1.5.3.3.2.7.3 1.1.3.4.1.8 0 1.2 0 .6.4 1.1.7 1.5 1.2.4.4.6 1 .9 1.6v2.4c-.4.6-.9 1.1-1.2 1.7-.6 1.2-1.6 1.6-2.8 1.6-1.1 0-2.2-.1-3.3-.5-1.1-.3-2.2-.6-3.3-.8-.6-.1-1.3-.2-1.9-.4-1.5-.4-3.1-.5-4.6-1.2-.3-.2-.8 0-1.2-.1-.4-.1-.8-.2-1.1-.3-1.2-.2-2.4-.5-3.6-.8-1.1-.3-2.2-.5-3.3-.8-.6-.2-1.2-.1-1.8-.3-1.2-.5-2.7-.2-3.9-1-1.4.3-2.6-.8-4-.7-.5 0-1-.1-1.4-.3-.8-.4-1.6-.3-2.4-.3l-.4.4c0 .1.1.1.1.2 1.3 2.4 2.4 4.9 3.7 7.3.7 1.4 1.6 2.7 2.4 4.1l.6 1.2c1.7 3 3.3 6.1 4.8 9.2.3.7.5 1.5.9 2.2 1.1 2.1 2.3 4.1 3.3 6.2 1 1.9.9 1.9.9 3.8-.5.7-1.1 1.4-1.7 2.2-1.3 1.1-2.8.7-4.3.8-1-.4-1.4-1.2-2-2.1-1-1.5-1.6-3.3-2.7-4.8-.6-.8-.8-2-1.3-2.9-1-1.9-2-3.7-3.1-5.5-.9-1.6-1.7-3.2-2.4-4.9-.4-1-1-2.1-1.6-3-.7-1.1-1.1-2.3-1.9-3.4-.2-.3-.4-.6-.7-1.1v-1c-.9.8-.5 1.9-1.1 2.6h-.3l-.2.2c.1.7-.3 1.3-.4 1.9-.1.6-.6 1.2-.5 1.8 0 .1 0 .3-.1.4-1.1 1.2-1.1 2.9-1.7 4.4-.4.9-1.1 1.8-1.1 2.9 0 .3-.1.6-.2.8-.3.6-.2 1.3-.7 1.8-.2.2-.2.5-.3.9-.4.1-.8.4-.9.9-.5.2-.9.4-1.5.7h-2.8c-.1-.2-.3-.5-.4-.6h-.9c-.5-.8-1-1.7-1.4-2.6-.3-1 .3-2 .3-3.1.1 0 .3-.1.4-.1.3-1 .7-2.1 1-3.2.4-1.4 1.3-2.5 1.5-4 .1-.5.4-.9.4-1.4 0-.8.8-1.2.8-2 0-.7.4-1.3.6-1.9.2-.7.5-1.5.7-2.3.1 0 .3-.1.5-.1-.3-.7.5-1.3.2-2.1-1.9.7-3.8 1.3-5.7 1.9-.8.3-1.7.7-2.4 1.1-.9.5-1.9.5-2.8 1-.8.4-1.7.6-2.7.8-.8.2-1.5.9-2.5.9-.7 1-2 .8-3 1.2-1.7.8-3.6 1.2-5.3 2-1.4.7-3 1-4.4 1.5-.9.3-1.8.8-2.7.6-.5-.1-1.1-.3-1.7-.4 0 0 0-.3-.1-.3-1-.4-.9-1.5-1.2-2.3-.2-.5-.4-1.2-.2-1.5.3-.6 0-1.1.3-1.7.1 0 .3-.1.5-.1v-.7c.9-1 2.1-1.7 3.4-2 1.4-.3 2.6-1.1 4-1.5l1.8-.6c1.2-.3 2.2-1.2 3.5-1.1.7-.9 1.9-.6 2.8-1.3.4-.3.9-.3 1.4-.5 2.3-.8 4.5-1.5 6.7-2.5 1.3-.6 2.8-.9 4.2-1.4 1.2-.4 2.4-.9 3.9-1.5-.6-.3-1-.7-1.4-.7-1.1 0-2.1-.3-3.1-.6-.6-.2-1.3-.1-1.9-.3-1.2-.5-2.7-.2-3.9-1-1.9.1-3.6-1-5.5-.9-1.3-.8-2.9-.4-4.3-1.2-.3-.2-.8 0-1.2-.1-.4-.1-.8-.2-1.1-.3-1.2-.4-2.6-.1-3.7-.9-1.5.3-2.7-.8-4.2-.7-.5 0-1-.3-1.6-.4-.1-.6-.7-.6-1.3-1-.2-.3-.4-.8-.7-1.3-.3-1.1.1-2.2.4-3.2.4-1.1 1.5-1.7 2.2-2.6.6-.1 1.2-.4 1.8-.3 1.2.2 2.5.3 3.7.7.5.1.9.1 1.3.2s.9.2 1.3.3c.5.2.9.4 1.5.3.4-.1.7.2 1 .3.7.1 1.3.6 2.1.4.4-.1.8.1 1.1.3.6.3 1.3.2 1.9.4.3.1.6.2.8.3.7.1 1.3.5 2.1.4.2 0 .5.1.7.2.7.1 1.4.6 2.2.4.4-.1.8.1 1.2.3.6.3 1.3.2 1.9.4.5.1 1 .1 1.4.3 1.6 1 2.6 1.1 3.7 1-.1 0-.1 0-.1.1.1.1.1.2.2.3l.1-.1c0-.2-.1-.2-.2-.3z" fill="#e95846"/></svg>