<svg version="1.1" id="Layer_1" xmlns="http://www.w3.org/2000/svg" x="0" y="0" viewBox="0 0 631.5 506.2" xml:space="preserve"><style>.st0{fill:#fef4e7}</style><g id="Capa_1"><path class="st0" d="M539.4 345.7h-2.2c-5.1 5.7-10.1 11.2-15 16.7v2.9c-3.6 3-6.7 5.6-9.5 8.1v5.5l-5.4 5.4h-3.4c.6 4-5.2 3.4-5.1 7.2-3.5.5-4.7 3.1-6.2 5.9-.8 1.5-3.4 2.1-5.5 2.6-4.4 3.9-8.6 7.8-15.3 7.7-2.3 0-4.8 2.5-6.8 4.2-1.9 1.6-3.4 3.8-4.7 5.2h-3.8c-3.1 3.4-6.7 5.9-11 8-9 4.3-18.9 5.4-27.9 9.5-2.2 1-4.3 2.2-7.1 3.7-2.2-.5-6 1.8-8.4-1.3-5.4 3-10.7 5.9-16 8.9-.4-.4-1.1-1-2.3-2.1-5.5 4.8-12.3 6.8-19.2 8.9-6.6 2-13 1.8-19.4.4-8.1-1.8-15.9-1.6-24.7.4-1.1-1.6-2.8-3.9-4.4-6.2-3.1.9-5.1 1.5-8.2 2.4-5.2-1.9-11.6-4.3-20.2-7.4-11.8-1.3-25.6-4-40.3-11.6h-3.8c-4.5-5.6-10-9.2-16.7-7.9-4-2.2-7.5-3.6-10.2-5.9-2.5-2-4.8-3.3-8-4.3-2.3-.7-5.6-1.7-6.9-5.4-.9-2.4-4.1-4.8-6.7-5.5-9.5-2.5-12.7-11.1-18.1-17.6-2.7-3.3-4.4-7.7-7.6-10.2-5.4-4.3-6.6-11.2-11.4-15.7-.9-.8-.5-2.9-.6-4.4-1.3-.4-2.4-.8-3.5-1.2v-4.3c-1-.3-2.1-.7-3.4-1.1-.9-2.6-.1-6.4-4.6-7.5-.7.5-1.7 1.2-3.1 2.2-.3-2.5-.5-4.9-.9-8-9 3.6-19.5.5-26.7 7-8.6 1.7-16.6 2.6-24.1 4.8-7.5 2.3-15.4 2.8-22.9 5.2-7.5 2.4-15.5 3.2-22.5 4.6-5.3-2.7-3.3-7-4-11.1 3.1-2.3 6.8-4.3 9.3-7.2 2.5-3 5.2-5.5 8.2-8 3.1-2.6 5.5-5.8 9.3-7.7 3.5-1.7 6-5.2 10.3-9.1.2-.4 1.1-2.6 1.8-4.4 7.5-4.6 13.8-10 19.9-16.4 5.3.6 7.8-3.2 9.7-7.8h3.8c2.5-4.8 8.3-6.3 10.8-10.8 2.3-4.1 4-8.7 6-13.3-1.3-.6-2.6-1.2-4.4-2.1 2.8-4.4 3.6-8.9-.3-13.5 1.8-.6 2.9-1 4.4-1.5v-14.1c.3.1.7.2 1 .2 1.9-5 3.7-10 6-16.2-.1 0 1-.3 2.6-.7-1.2-3.3 3.5-6 1.1-10.6 2.2-4.2 5.4-8.7 11.2-11.1-1-2.2-1.8-4.1-2.9-6.5h5c2-3.9 3.8-7.5 8.1-8.3l5.4-19.2c1.2.9 2.1 1.6 3.5 2.8 4.7-4.6 6.5-10.3 8.2-16 .9.7 1.9 1.3 3.6 2.5 2.3-4.1 4.4-7.8 7.2-12.8 5.6-2 9.3-11 18.4-9.1 2.3-3.8 3.8-4.8 9.3-5.9 1.8-2.1 2-5.3 6-6 4.9-.8 8.9-4.5 13.8-6.2 3.8-1.3 6.7-4.9 10.2-7.6 1.3.9 2.2 1.6 3.3 2.4.4-1.2.8-2.3 1.5-4.1 1.5.6 3 1.2 4.7 1.8.2-.8.4-1.7.7-3.3h8.8c.3-1.5.5-2.4.8-3.7 1.2.5 2.4 1.3 3.6 1.5 1.6.3 3.2.1 4 .1 2.9-1.9 5.1-3.9 7.6-4.6 2.1-.6 5 .2 6.5-1.3 2.5-2.6 6.1-.6 7.8-2.1 2.7-2.3 6.1-.4 7.8-2 2.6-2.5 6.1-.3 7.9-2 2.5-2.5 5.8-.3 7.9-2 2.8-2.2 5-2.1 7.3.3 4.1-2.6 8-2.8 12 .1 7.8-1.6 15.3-7 24.1-1.7.8-.6 1.8-1.3 2.8-2.1 6.9 2.4 11.5 2.5 18.7.4 1.2-.3 2.7-.9 3.6-.4 7.2 3.9 14.9.8 22.1 1.9.6-1.5 1.1-2.6 1.8-4.4 12.9 8.8 27.2 13.7 42.6 16.2 1.8 3.5 5.4 5.4 9 7.4 3.7 2 7 4.8 10.9 6.3 3.5 1.3 4.4 5.8 9.1 5.7 4.1-.1 6.2 6.1 11.3 5.3 2.1 2.3 4.3 4.6 6.7 7.1v3.5c4.4.9 4.2 5.2 6.5 7.4 3.3 2.9 6.5 5.7 10.2 8.9 1 .1 2.5.3 2.8.3 9 11.7 17.5 22.7 26.5 34.4 1.3 2.8 3 6.6 4.7 10.4-.3.2-.7.5-1 .7 2.2 1.8 4.5 3.6 6 4.8.4 6.7 1.5 12 6 16.3-1.5 8.6 6.1 16.1 3.7 24.8 5.8 6 3.5 13.1 4.1 19.7-1.4.6-2.5 1-3.7 1.5-.9 4.2 1.1 8.8-2.1 12.7-.5.6-.5 2.2 0 2.8 4.9 6.2-1.1 9.3-3.6 14-.8 11.4-6 22.1-8.6 33.4-1.1.2-2 .4-2.6.6-1.1 3.3-2.2 6.4-3.1 9.1-1.5.3-2.4.5-3.5.8v8.7c-1.2.3-2.1.4-3 .6-1 3.3-2 6.4-3 9.7zM539.9 345.5c.5.4 1.1.9 1.6 1.3l-.6.6c-.4-.5-.9-1.1-1.3-1.6 0-.1.1-.2.3-.3z"/></g></svg>