<?xml version="1.0" encoding="utf-8"?>
<!-- Generator: Adobe Illustrator 25.2.3, SVG Export Plug-In . SVG Version: 6.00 Build 0)  -->
<svg version="1.1" id="Layer_1" xmlns="http://www.w3.org/2000/svg" xmlns:xlink="http://www.w3.org/1999/xlink" x="0px" y="0px"
	 viewBox="0 0 631.5 506.2" style="enable-background:new 0 0 631.5 506.2;" xml:space="preserve">
<style type="text/css">
	.st0{fill:#FEF4E7;}
</style>
<g id="Capa_2">
</g>
<g id="Capa_1">
	<g>
		<path class="st0" d="M539.4,345.7c-0.7,0-1.6,0-2.2,0c-5.1,5.7-10.1,11.2-15,16.7c0,1.4,0,2.6,0,2.9c-3.6,3-6.7,5.6-9.5,8.1
			c0,2.3,0,4.3,0,5.5c-1.9,1.9-3.5,3.5-5.4,5.4c-0.6,0-1.8,0-3.4,0c0.6,4-5.2,3.4-5.1,7.2c-3.5,0.5-4.7,3.1-6.2,5.9
			c-0.8,1.5-3.4,2.1-5.5,2.6c-4.4,3.9-8.6,7.8-15.3,7.7c-2.3,0-4.8,2.5-6.8,4.2c-1.9,1.6-3.4,3.8-4.7,5.2c-1.8,0-2.8,0-3.8,0
			c-3.1,3.4-6.7,5.9-11,8c-9,4.3-18.9,5.4-27.9,9.5c-2.2,1-4.3,2.2-7.1,3.7c-2.2-0.5-6,1.8-8.4-1.3c-5.4,3-10.7,5.9-16,8.9
			c-0.4-0.4-1.1-1-2.3-2.1c-5.5,4.8-12.3,6.8-19.2,8.9c-6.6,2-13,1.8-19.4,0.4c-8.1-1.8-15.9-1.6-24.7,0.4c-1.1-1.6-2.8-3.9-4.4-6.2
			c-3.1,0.9-5.1,1.5-8.2,2.4c-5.2-1.9-11.6-4.3-20.2-7.4c-11.8-1.3-25.6-4-40.3-11.6c0.3,0-1.6,0-3.8,0c-4.5-5.6-10-9.2-16.7-7.9
			c-4-2.2-7.5-3.6-10.2-5.9c-2.5-2-4.8-3.3-8-4.3c-2.3-0.7-5.6-1.7-6.9-5.4c-0.9-2.4-4.1-4.8-6.7-5.5c-9.5-2.5-12.7-11.1-18.1-17.6
			c-2.7-3.3-4.4-7.7-7.6-10.2c-5.4-4.3-6.6-11.2-11.4-15.7c-0.9-0.8-0.5-2.9-0.6-4.4c-1.3-0.4-2.4-0.8-3.5-1.2c0-1.4,0-2.7,0-4.3
			c-1-0.3-2.1-0.7-3.4-1.1c-0.9-2.6-0.1-6.4-4.6-7.5c-0.7,0.5-1.7,1.2-3.1,2.2c-0.3-2.5-0.5-4.9-0.9-8c-9,3.6-19.5,0.5-26.7,7
			c-8.6,1.7-16.6,2.6-24.1,4.8c-7.5,2.3-15.4,2.8-22.9,5.2c-7.5,2.4-15.5,3.2-22.5,4.6c-5.3-2.7-3.3-7-4-11.1
			c3.1-2.3,6.8-4.3,9.3-7.2c2.5-3,5.2-5.5,8.2-8c3.1-2.6,5.5-5.8,9.3-7.7c3.5-1.7,6-5.2,10.3-9.1c0.2-0.4,1.1-2.6,1.8-4.4
			c7.5-4.6,13.8-10,19.9-16.4c5.3,0.6,7.8-3.2,9.7-7.8c1.3,0,2.5,0,3.8,0c2.5-4.8,8.3-6.3,10.8-10.8c2.3-4.1,4-8.7,6-13.3
			c-1.3-0.6-2.6-1.2-4.4-2.1c2.8-4.4,3.6-8.9-0.3-13.5c1.8-0.6,2.9-1,4.4-1.5c0-4.6,0-9.4,0-14.1c0.3,0.1,0.7,0.2,1,0.2
			c1.9-5,3.7-10,6-16.2c-0.1,0,1-0.3,2.6-0.7c-1.2-3.3,3.5-6,1.1-10.6c2.2-4.2,5.4-8.7,11.2-11.1c-1-2.2-1.8-4.1-2.9-6.5
			c2.2,0,3.7,0,5,0c2-3.9,3.8-7.5,8.1-8.3c1.8-6.4,3.6-12.8,5.4-19.2c1.2,0.9,2.1,1.6,3.5,2.8c4.7-4.6,6.5-10.3,8.2-16
			c0.9,0.7,1.9,1.3,3.6,2.5c2.3-4.1,4.4-7.8,7.2-12.8c5.6-2,9.3-11,18.4-9.1c2.3-3.8,3.8-4.8,9.3-5.9c1.8-2.1,2-5.3,6-6
			c4.9-0.8,8.9-4.5,13.8-6.2c3.8-1.3,6.7-4.9,10.2-7.6c1.3,0.9,2.2,1.6,3.3,2.4c0.4-1.2,0.8-2.3,1.5-4.1c1.5,0.6,3,1.2,4.7,1.8
			c0.2-0.8,0.4-1.7,0.7-3.3c2.8,0,5.8,0,8.8,0c0.3-1.5,0.5-2.4,0.8-3.7c1.2,0.5,2.4,1.3,3.6,1.5c1.6,0.3,3.2,0.1,4,0.1
			c2.9-1.9,5.1-3.9,7.6-4.6c2.1-0.6,5,0.2,6.5-1.3c2.5-2.6,6.1-0.6,7.8-2.1c2.7-2.3,6.1-0.4,7.8-2c2.6-2.5,6.1-0.3,7.9-2
			c2.5-2.5,5.8-0.3,7.9-2c2.8-2.2,5-2.1,7.3,0.3c4.1-2.6,8-2.8,12,0.1c7.8-1.6,15.3-7,24.1-1.7c0.8-0.6,1.8-1.3,2.8-2.1
			c6.9,2.4,11.5,2.5,18.7,0.4c1.2-0.3,2.7-0.9,3.6-0.4c7.2,3.9,14.9,0.8,22.1,1.9c0.6-1.5,1.1-2.6,1.8-4.4
			c12.9,8.8,27.2,13.7,42.6,16.2c1.8,3.5,5.4,5.4,9,7.4c3.7,2,7,4.8,10.9,6.3c3.5,1.3,4.4,5.8,9.1,5.7c4.1-0.1,6.2,6.1,11.3,5.3
			c2.1,2.3,4.3,4.6,6.7,7.1c0,0.9,0,2.2,0,3.5c4.4,0.9,4.2,5.2,6.5,7.4c3.3,2.9,6.5,5.7,10.2,8.9c1,0.1,2.5,0.3,2.8,0.3
			c9,11.7,17.5,22.7,26.5,34.4c1.3,2.8,3,6.6,4.7,10.4c-0.3,0.2-0.7,0.5-1,0.7c2.2,1.8,4.5,3.6,6,4.8c0.4,6.7,1.5,12,6,16.3
			c-1.5,8.6,6.1,16.1,3.7,24.8c5.8,6,3.5,13.1,4.1,19.7c-1.4,0.6-2.5,1-3.7,1.5c-0.9,4.2,1.1,8.8-2.1,12.7c-0.5,0.6-0.5,2.2,0,2.8
			c4.9,6.2-1.1,9.3-3.6,14c-0.8,11.4-6,22.1-8.6,33.4c-1.1,0.2-2,0.4-2.6,0.6c-1.1,3.3-2.2,6.4-3.1,9.1c-1.5,0.3-2.4,0.5-3.5,0.8
			c0,3,0,5.8,0,8.7c-1.2,0.3-2.1,0.4-3,0.6C541.4,339.3,540.4,342.4,539.4,345.7z"/>
		<path class="st0" d="M539.9,345.5c0.5,0.4,1.1,0.9,1.6,1.3c-0.2,0.2-0.4,0.4-0.6,0.6c-0.4-0.5-0.9-1.1-1.3-1.6
			C539.6,345.7,539.7,345.6,539.9,345.5z"/>
	</g>
</g>
</svg>
