<svg xmlns="http://www.w3.org/2000/svg" xmlns:xlink="http://www.w3.org/1999/xlink" width="8.145" height="17.514" viewBox="0 0 8.145 17.514"><defs><style>.a{fill:#1f1b18;}.b{clip-path:url(#a);}</style><clipPath id="a"><rect class="a" width="8.145" height="17.514" transform="translate(0 0)"/></clipPath></defs><g transform="translate(0 0)"><g class="b"><path class="a" d="M0,5.76V8.789H1.813v8.725H5.418V8.779c.736,0,1.427-.01,2.116,0,.243.005.324-.073.334-.316.013-.35.073-.7.111-1.047.055-.542.108-1.083.167-1.673H5.406c0-.478,0-.911,0-1.343,0-.153-.005-.3.008-.456.052-.638.316-.891.964-.917.258-.01.516,0,.773,0h.967V0c-.812,0-1.606-.014-2.4,0A8.173,8.173,0,0,0,4.5.132,2.949,2.949,0,0,0,1.879,2.949c-.073.8-.055,1.614-.076,2.42,0,.124,0,.247,0,.391Z"/></g></g></svg>