<svg xmlns="http://www.w3.org/2000/svg" width="8.145" height="17.514"><defs><clipPath id="a"><path class="a" d="M0 0h8.145v17.514H0z"/></clipPath><style>.a{fill:#1f1b18}</style></defs><g clip-path="url(#a)"><path class="a" d="M0 5.76v3.029h1.813v8.725h3.605V8.779c.736 0 1.427-.01 2.116 0 .243.005.324-.073.334-.316.013-.35.073-.7.111-1.047l.167-1.673h-2.74V4.4c0-.153-.005-.3.008-.456.052-.638.316-.891.964-.917.258-.01.516 0 .773 0h.967V0c-.812 0-1.606-.014-2.4 0A8.173 8.173 0 004.5.132a2.949 2.949 0 00-2.621 2.817c-.073.8-.055 1.614-.076 2.42v.391z"/></g></svg>