<svg width="388" height="160" viewBox="0 0 388 160" fill="none" xmlns="http://www.w3.org/2000/svg">
<rect x="0.5" y="0.5" width="387" height="159" stroke="black"/>
<g clip-path="url(#clip0_69_989)">
<path d="M188.578 87.3762L203.956 79.4207L188.578 71.3984V87.3762Z" fill="white"/>
<path opacity="0.12" d="M188.578 71.3984L202.067 80.3984L203.956 79.4207L188.578 71.3984Z" fill="#420000"/>
<path d="M222.289 68.6222C222.289 68.6222 221.734 64.7111 220.023 62.9778C217.869 60.7111 215.447 60.7111 214.314 60.5778C206.384 60 194.456 60 194.456 60H194.433C194.433 60 182.505 60 174.53 60.5778C173.419 60.7111 170.998 60.7111 168.821 62.9778C167.133 64.7111 166.578 68.6222 166.578 68.6222C166.578 68.6222 166 73.2444 166 77.8444V82.1556C166 86.7556 166.578 91.3556 166.578 91.3556C166.578 91.3556 167.133 95.2667 168.843 97C170.998 99.2667 173.841 99.2 175.108 99.4222C179.661 99.8667 194.433 100 194.433 100C194.433 100 206.384 99.9778 214.337 99.4C215.447 99.2667 217.869 99.2667 220.046 97C221.756 95.2667 222.311 91.3556 222.311 91.3556C222.311 91.3556 222.889 86.7556 222.889 82.1556V77.8444C222.867 73.2444 222.289 68.6222 222.289 68.6222ZM188.569 87.3778V71.4L203.941 79.4222L188.569 87.3778Z" fill="url(#paint0_linear_69_989)"/>
</g>
<defs>
<linearGradient id="paint0_linear_69_989" x1="7444.93" y1="60.0001" x2="7444.93" y2="7262.17" gradientUnits="userSpaceOnUse">
<stop stop-color="#E52D27"/>
<stop offset="1" stop-color="#BF171D"/>
</linearGradient>
<clipPath id="clip0_69_989">
<rect width="56.8889" height="40" fill="white" transform="translate(166 60)"/>
</clipPath>
</defs>
</svg>
