<svg xmlns="http://www.w3.org/2000/svg" width="19.014" height="19.014"><defs><clipPath id="a"><path class="a" d="M0 0h19.014v19.014H0z"/></clipPath><style>.a{fill:#1f1b18}</style></defs><g clip-path="url(#a)"><path class="a" d="M13.924 19.014H5.087A5.093 5.093 0 010 13.926V5.088A5.094 5.094 0 015.087 0h8.837a5.1 5.1 0 015.089 5.088v8.838a5.094 5.094 0 01-5.089 5.088M5.087 1.5A3.592 3.592 0 001.5 5.088v8.838a3.591 3.591 0 003.587 3.588h8.837a3.592 3.592 0 003.589-3.588V5.088A3.593 3.593 0 0013.924 1.5zm4.419 13.957a4.95 4.95 0 114.95-4.95 4.956 4.956 0 01-4.95 4.95m0-8.4a3.45 3.45 0 103.45 3.45 3.454 3.454 0 00-3.45-3.45m6.1-2.286a1.3 1.3 0 10-1.3 1.3 1.3 1.3 0 001.3-1.3"/></g></svg>