<svg xmlns="http://www.w3.org/2000/svg" xmlns:xlink="http://www.w3.org/1999/xlink" width="19.014" height="19.014" viewBox="0 0 19.014 19.014"><defs><style>.a{fill:#1f1b18;}.b{clip-path:url(#a);}</style><clipPath id="a"><rect class="a" width="19.014" height="19.014" transform="translate(0 0)"/></clipPath></defs><g transform="translate(0 0)"><g class="b"><path class="a" d="M13.924,19.014H5.087A5.093,5.093,0,0,1,0,13.926V5.088A5.094,5.094,0,0,1,5.087,0h8.837a5.1,5.1,0,0,1,5.089,5.088v8.838a5.094,5.094,0,0,1-5.089,5.088M5.087,1.5A3.592,3.592,0,0,0,1.5,5.088v8.838a3.591,3.591,0,0,0,3.587,3.588h8.837a3.592,3.592,0,0,0,3.589-3.588V5.088A3.593,3.593,0,0,0,13.924,1.5ZM9.506,15.457a4.95,4.95,0,1,1,4.95-4.95,4.956,4.956,0,0,1-4.95,4.95m0-8.4a3.45,3.45,0,1,0,3.45,3.45,3.454,3.454,0,0,0-3.45-3.45m6.1-2.286a1.3,1.3,0,1,0-1.3,1.3,1.3,1.3,0,0,0,1.3-1.3"/></g></g></svg>