<svg xmlns="http://www.w3.org/2000/svg" id="Layer_2" data-name="Layer 2" viewBox="0 0 148.59 50.47"><defs><style>.cls-1{fill:#414042;stroke-width:0}</style></defs><g id="Layer_1-2" data-name="Layer 1"><path d="M20.78 1.94h27.18V42.7H20.78V1.94Zm32.33 44.52c-.43-.43-.85-.86-1.25-1.27l-1.07-1.1c-.13-.13-.5-.51-.9-.92V2.77c.33.32.65.64.97.96.35.35.7.7 1.04 1.05s2.19 2.21 2.47 2.51c.09-.09.19-.19.31-.32.12-.12.24-.25.37-.38s.25-.25.38-.37.23-.23.32-.31c-.31-.3-2.23-2.22-2.66-2.65-.43-.44-.85-.86-1.26-1.27-.41-.41-.76-.78-1.07-1.1-.04-.04-.11-.11-.19-.2L50.2.32c-.1-.1-.2-.21-.31-.32H18.83v44.68c.53.52 1.06 1.04 1.23 1.2.36.35.72.7 1.07 1.05l1.04 1.04c.34.34 2.2 2.2 2.48 2.5l.31-.31c.12-.12.24-.25.37-.37.13-.13.25-.25.38-.37s.23-.22.32-.31c-.31-.3-2.23-2.2-2.66-2.64s-.85-.86-1.26-1.27l-.26-.26h.01l-.28-.28h26.98l.37.37v-.02c.4.4.76.75.89.88.36.35.71.7 1.07 1.05s.7.7 1.03 1.04c.34.34 2.18 2.2 2.46 2.5l.31-.31c.12-.12.24-.25.37-.37.13-.13.25-.25.38-.37s.23-.22.32-.31c-.31-.3-2.22-2.2-2.65-2.64M.02 19.32h1.73c-.01.67-.02 1.51-.03 2.52l-.03 3.15c-.01 1.09-.02 2.16-.02 3.22s0 1.98.02 2.77H0c.01-.69.03-1.56.04-2.6.02-1.04.03-2.11.03-3.22v-3.22c0-1.05-.02-1.92-.04-2.63M7.19 29.92c.81 0 1.43-.22 1.88-.65s.67-1.08.67-1.94c-.39-.05-.78-.08-1.16-.09-.38-.01-.74-.02-1.07-.02-.86 0-1.45.14-1.77.41-.32.27-.48.59-.48.96 0 .46.16.8.48 1.01.32.21.8.32 1.44.32m4.37 1.07H9.91c-.02-.39-.05-.71-.07-.97-.02-.25-.04-.47-.05-.66h-.05c-.31.63-.75 1.09-1.31 1.37s-1.13.42-1.72.42c-1.07 0-1.85-.24-2.32-.71-.48-.47-.72-1.03-.72-1.68 0-.73.28-1.31.84-1.75.56-.44 1.49-.67 2.79-.67.39 0 .8.01 1.24.03.43.02.84.06 1.24.1V25.8c0-.63-.16-1.14-.48-1.53-.32-.39-.84-.58-1.58-.58-.62 0-1.1.16-1.44.47-.34.31-.56.73-.65 1.26-.26-.08-.53-.15-.8-.2-.27-.05-.54-.09-.82-.13.18-.75.57-1.39 1.16-1.94.59-.54 1.46-.81 2.61-.81s2.03.3 2.67.89.96 1.44.96 2.55v1.02c0 .45 0 .93.02 1.44s.03 1.02.04 1.51c.02.5.04.9.08 1.21M61.91 22.26c1.08 0 1.92.2 2.51.6.59.4 1.04.88 1.35 1.45-.1.05-.25.11-.44.2-.2.09-.39.18-.6.28-.2.1-.39.2-.56.28-.17.09-.29.16-.36.2-.18-.37-.45-.63-.8-.79-.36-.16-.78-.23-1.26-.23s-.82.06-1.02.19c-.2.13-.3.29-.3.49.01.25.17.42.48.53.31.11.75.19 1.32.26 1.33.15 2.27.45 2.83.91s.84 1.03.84 1.71c0 .85-.31 1.53-.94 2.05-.63.51-1.61.77-2.95.77-1.15 0-2.12-.19-2.89-.56-.78-.37-1.36-.93-1.74-1.67.11-.06.26-.13.44-.24.18-.1.36-.2.55-.31.19-.11.37-.21.55-.32.18-.11.33-.19.45-.26.21.41.57.75 1.06 1 .5.25 1.1.38 1.8.38.45 0 .76-.06.95-.18s.28-.28.28-.48c0-.25-.15-.43-.45-.54-.3-.12-.79-.23-1.48-.33-1.26-.2-2.16-.53-2.7-.97-.54-.45-.81-1.04-.81-1.78 0-.78.32-1.42.96-1.91.64-.49 1.62-.74 2.93-.74M73.5 26.69c0-.73-.16-1.28-.49-1.65-.33-.37-.78-.56-1.35-.56s-1.04.19-1.37.56c-.33.37-.49.92-.49 1.65s.16 1.28.49 1.65c.33.37.79.56 1.37.56s1.02-.19 1.35-.56c.33-.37.49-.92.49-1.65m2.8.01c0 .65-.09 1.24-.28 1.79-.19.54-.48 1.01-.86 1.4-.39.39-.87.69-1.45.91-.58.21-1.26.32-2.05.32s-1.47-.11-2.05-.32-1.07-.51-1.46-.91c-.39-.39-.67-.86-.86-1.4-.19-.54-.28-1.14-.28-1.79s.09-1.25.28-1.79c.19-.55.47-1.02.86-1.41.38-.39.86-.7 1.45-.91.59-.22 1.28-.33 2.07-.33s1.46.11 2.05.33c.58.22 1.06.52 1.45.91.39.39.67.86.86 1.41.19.55.28 1.15.28 1.79M80.38 27.27c0 .59.17 1.02.51 1.29s.81.4 1.4.4c.65 0 1.11-.2 1.4-.6.28-.4.43-.96.43-1.68 0-.58-.13-1.08-.39-1.48s-.71-.61-1.36-.61c-.6 0-1.09.24-1.45.73s-.55 1.14-.55 1.95m-2.83-7.69h2.95c-.01.15-.03.4-.04.75-.02.36-.03.78-.05 1.26s-.03 1.01-.05 1.58-.03 1.16-.04 1.75h.07c.27-.79.65-1.43 1.15-1.9s1.15-.71 1.95-.71c1.12 0 1.94.39 2.48 1.17.54.78.8 1.83.8 3.15 0 1.49-.31 2.59-.94 3.31s-1.48 1.08-2.55 1.08c-.69 0-1.27-.13-1.74-.39-.46-.26-.82-.62-1.08-1.06l-.08.03.03.75c.01.24.02.42.02.54-.57-.02-1.06-.04-1.48-.04-.42 0-.89.01-1.42.06.08-2.36.12-4.49.13-6.39 0-1.9-.03-3.55-.11-4.95M94.23 22.46l-.49 3c-.16-.08-.36-.14-.61-.19a3.58 3.58 0 0 0-.7-.08c-.4 0-.76.15-1.08.45s-.48.8-.48 1.49v1.61c0 .65.02 1.36.04 2.15-.45-.01-.93-.02-1.43-.02-.51 0-1 0-1.47.02.02-.46.04-1.04.06-1.75.02-.71.03-1.46.03-2.24s0-1.56-.02-2.35-.04-1.48-.08-2.08c.35.01.76.02 1.23.02s.92 0 1.33-.02c.01.35.02.76.03 1.25 0 .49.01 1 .03 1.55l.1.02c.2-1.01.49-1.75.88-2.25.39-.49.91-.74 1.58-.74a3.131 3.131 0 0 1 1.02.15M99.22 24.2c-.55 0-.99.16-1.32.48-.33.32-.53.8-.61 1.45h1.74c.65 0 1.27-.01 1.88-.03.01-.6-.13-1.07-.44-1.4-.3-.33-.72-.49-1.26-.49m4.26 5.01c-.35.54-.85.98-1.5 1.34-.65.36-1.5.54-2.54.54-.85 0-1.58-.11-2.19-.32-.61-.21-1.11-.51-1.49-.89-.39-.38-.67-.84-.85-1.38-.18-.54-.28-1.13-.28-1.77s.09-1.26.28-1.81c.19-.55.47-1.01.85-1.4.37-.39.85-.69 1.43-.91.58-.22 1.26-.33 2.05-.33 1.3 0 2.34.32 3.14.96s1.2 1.63 1.2 2.96c0 .17 0 .35-.02.55-.01.2-.03.39-.05.57h-4.71c-.54 0-1.03 0-1.48.02.09.56.32.98.69 1.25.37.27.85.41 1.46.41s1.08-.11 1.4-.34.57-.48.75-.76c.09.08.22.18.38.29.16.12.34.24.52.37s.36.25.54.36c.17.11.32.2.43.27M119.41 30.89c-.45-.01-.92-.02-1.41-.02s-.99 0-1.49.02c0-.41 0-.86.02-1.33l.03-1.38c.01-.44.01-.86.02-1.24v-.92c0-.5-.11-.85-.33-1.06-.22-.2-.5-.3-.85-.3-.51 0-.95.19-1.3.58-.35.39-.53.9-.54 1.53-.01.67-.01 1.35 0 2.04l.03 2.09c-.43-.01-.88-.02-1.37-.02s-.99 0-1.49.02l.03-1.33.03-1.38c0-.45.01-.86.02-1.24v-.92c0-.5-.11-.85-.33-1.06-.22-.2-.5-.3-.85-.3-.51 0-.95.19-1.3.58-.35.39-.53.9-.54 1.53-.01.46-.02 1.04-.02 1.75s.02 1.5.07 2.37l-1.43-.03c-.51 0-1 0-1.47.03.02-.46.04-1.04.06-1.75.02-.71.03-1.46.03-2.24 0-.78 0-1.56-.02-2.35-.02-.78-.04-1.48-.08-2.08.35.01.78.02 1.31.02s.99 0 1.41-.02v2.3l.12.02c.27-.87.68-1.5 1.22-1.89.55-.39 1.15-.59 1.79-.59.79 0 1.41.22 1.84.66.43.44.7 1.04.81 1.8l.1.02c.27-.87.68-1.5 1.22-1.89.55-.39 1.15-.59 1.79-.59.93 0 1.63.29 2.1.86.47.58.7 1.39.7 2.46 0 .73-.01 1.54-.03 2.43-.02.89 0 1.84.08 2.83M125.16 24.2c-.55 0-.99.16-1.32.48-.33.32-.53.8-.61 1.45h1.74c.65 0 1.27-.01 1.88-.03.01-.6-.13-1.07-.44-1.4-.3-.33-.72-.49-1.26-.49m4.26 5.01c-.35.54-.85.98-1.5 1.34-.65.36-1.5.54-2.54.54-.85 0-1.58-.11-2.19-.32-.61-.21-1.11-.51-1.49-.89-.39-.38-.67-.84-.86-1.38-.18-.54-.28-1.13-.28-1.77s.09-1.26.29-1.81c.19-.55.47-1.01.85-1.4.37-.39.85-.69 1.43-.91.58-.22 1.26-.33 2.05-.33 1.3 0 2.34.32 3.14.96.8.64 1.2 1.63 1.2 2.96 0 .17 0 .35-.02.55-.01.2-.03.39-.05.57h-4.71c-.54 0-1.03 0-1.48.02.09.56.32.98.69 1.25.37.27.86.41 1.46.41s1.08-.11 1.4-.34c.32-.22.57-.48.75-.76.09.08.22.18.38.29.16.12.34.24.52.37s.36.25.54.36c.17.11.32.2.43.27M134.77 22.26c1.08 0 1.92.2 2.51.6.59.4 1.04.88 1.35 1.45-.1.05-.25.11-.44.2-.2.09-.39.18-.6.28-.2.1-.39.2-.56.28-.17.09-.29.16-.36.2-.18-.37-.45-.63-.81-.79-.36-.16-.78-.23-1.26-.23s-.82.06-1.02.19c-.2.13-.3.29-.3.49.01.25.17.42.48.53.31.11.75.19 1.32.26 1.33.15 2.27.45 2.83.91s.84 1.03.84 1.71c0 .85-.31 1.53-.94 2.05-.63.51-1.61.77-2.95.77-1.15 0-2.12-.19-2.89-.56-.78-.37-1.36-.93-1.74-1.67.11-.06.26-.13.44-.24.18-.1.36-.2.55-.31.19-.11.37-.21.55-.32.18-.11.33-.19.45-.26.21.41.57.75 1.06 1 .5.25 1.1.38 1.8.38.45 0 .76-.06.95-.18.18-.12.28-.28.28-.48 0-.25-.15-.43-.45-.54-.3-.12-.79-.23-1.48-.33-1.26-.2-2.16-.53-2.7-.97-.54-.45-.81-1.04-.81-1.78 0-.78.32-1.42.96-1.91.64-.49 1.62-.74 2.93-.74M143.86 29.17c.54 0 .96-.16 1.26-.48.3-.32.45-.78.45-1.38-.27-.02-.53-.04-.8-.05s-.51-.02-.75-.02c-.56 0-.94.1-1.15.29-.21.2-.31.42-.31.68 0 .32.11.56.34.72.22.16.54.23.96.23m4.73 1.73h-2.87c-.02-.38-.04-.7-.07-.96s-.04-.48-.05-.67h-.05c-.28.64-.66 1.1-1.16 1.37-.49.28-1.02.42-1.58.42-1.02 0-1.76-.24-2.22-.72-.46-.48-.7-1.05-.7-1.71 0-.74.28-1.33.84-1.78.56-.45 1.48-.67 2.75-.67.35 0 .7.01 1.05.03.35.02.7.06 1.05.1.01-.11.02-.22.02-.32v-.27c0-.41-.1-.74-.31-.99s-.54-.37-1-.37c-.42 0-.74.11-.95.34s-.34.52-.39.88c-.45-.11-.89-.2-1.34-.26s-.89-.11-1.34-.16c.18-.86.6-1.56 1.26-2.09.66-.53 1.63-.8 2.9-.8s2.29.29 2.98.88c.69.59 1.04 1.43 1.04 2.52V28.13c0 .51.02 1.01.04 1.51s.05.9.08 1.22" class="cls-1"/></g></svg>