<svg xmlns="http://www.w3.org/2000/svg" width="400" height="86.667"><path d="M315.556 12.889c-3.985 3.985-.748 8.471 11.119 15.407 11.2 6.547 11.769 7.083 8.448 7.972-1.959.523-3.967.701-4.462.395-4.779-2.953-157.931-4.926-225.994-2.911-75.8 2.244-81.228 3.06-76.699 11.521 2.088 3.902 2.931 3.925 50.156 1.37 45.518-2.462 174.075-2.846 213.876-.638 21.037 1.166 32.248 1.644 44 1.872l10 .195L341.333 52c-2.566 2.161-5.174 3.944-5.794 3.964-3.987.127-8.4 5.438-7.818 9.409 1.253 8.532 5.221 7.096 33.892-12.267 1.987-1.341 4.424-2.439 5.416-2.439 7.574 0 8.822-13.168 1.574-16.608-2.47-1.172-4.824-2.671-5.232-3.332-.408-.66-5.384-3.416-11.057-6.123-5.673-2.707-11.353-5.449-12.623-6.093-9.989-5.063-21.916-7.841-24.135-5.622" fill-rule="evenodd"/></svg>