<svg xmlns="http://www.w3.org/2000/svg" width="400" height="86.667"><path d="M72 13.59c-1.833.812-6.033 2.634-9.333 4.05-11.254 4.827-25.294 11.884-26.038 13.087-.408.661-2.762 2.16-5.232 3.332-7.248 3.44-6 16.608 1.574 16.608.992 0 3.429 1.098 5.416 2.439 28.671 19.363 32.639 20.799 33.892 12.267.582-3.971-3.831-9.282-7.818-9.409-.62-.02-3.228-1.803-5.794-3.964L54 48.072l10-.195c11.752-.228 22.963-.706 44-1.872 39.851-2.211 168.359-1.824 213.973.643 45.073 2.439 48.869 2.292 50.495-1.944 3.066-7.99-2.161-8.732-77.135-10.952-68.063-2.015-221.215-.042-225.994 2.911-.495.306-2.503.128-4.462-.395-3.319-.888-2.742-1.431 8.527-8.018C90.09 18.497 88.903 6.108 72 13.59" fill-rule="evenodd"/></svg>