<svg version="1.1" id="Capa_1" xmlns="http://www.w3.org/2000/svg" x="0" y="0" viewBox="0 0 850.4 1198.4" xml:space="preserve"><style>.st0{fill:#080808}.st1{fill:#0a0a0a}.st2{fill:#0c0c0c}.st3{fill:#0e0e0e}.st4{fill:#070707}.st5{fill:#090909}.st6{fill:#0b0b0b}.st7{fill:#0f0f0f}.st8{fill:#0d0d0d}.st9{fill:#060606}.st10{fill:#111}.st11{fill:#141414}.st12{fill:#151515}.st13{fill:#040404}.st16{fill:#050505}.st17{fill:#202020}.st18{fill:#222}.st19{fill:#161616}.st23{fill:#242424}.st24{fill:#2c2c2c}.st25{fill:#191919}.st26{fill:#1d1d1d}.st31{fill:#262626}.st33{fill:#282828}.st34{fill:#101010}.st35{fill:#1a1a1a}.st36{fill:#2a2a2a}.st39{fill:#3c3c3c}.st40{fill:#121212}</style><path class="st0" d="M273.6 914.7c2.9 4.9 3.7 8.5 3.1 13.2 0 .3-.1.5 0 .8 1.1 4.2 1.9 8 .3 12.7-1.4 4.1-.3 9.1-.3 13.7v13.1c0 4.6.2 9.2-.1 13.8-.1 2.4 1.3 5.1-1.1 7.2-.2.1-.4.5-.3.6 3.3 4 .1 7.9 0 11.8-.1 4.4 0 8.7 0 13.1s-.5 8.8.2 13.1c.5 3.4 1 6.8 1.6 10.1.5 2.6-3.5 3.8-.9 6.8 1.3 1.5.6 4.8.7 7.3.1 2.6-.1 5.1.1 7.7.1 2.4-1 5.1 1.5 7.1.2.2-.4 1.3-.6 2-.3.9-.8 1.8-.9 2.7-.9 10.1 1.5 12.9 11.7 12.8 5.8 0 10.9 2.5 15.5 5.2 7.3 4.2 12.8 10.1 14.9 19 1 4.1 1.5 7.6-.6 11.2-1.9 3.2-4.1 5.4-8.3 6.6-4.9 1.4-9.1 5.1-14.3 6.3-1.4.3-2.3 1.6-3.8.2-.6-.6-1.9-.3-2.8-.7-1.9-.9-3.7 2.7-5.6.2-1.4 2.9-3.9-2.1-5.3.7-7.5-2.1-15.6.7-23.1-2.4l1.5-1.5c1.2-.9 2.3-1.7 3.4-2.7 2.1-1.8 2.8 1.3 4.5 1.2 2.3-.1 3.7-1 4.4-3.2 0-.3-.1-.7 0-.7 4.7-1.2 9.3-1.1 14 0 2.3.5 4.8.4 7.2.3 1.4-.1 2.8-1.1 4.1-1 3.4.3 6.2-.9 8.9-2.7 1.4-.9 3-1.5 4.5-2 4.4-1.5 5.4-3.4 3.7-7.6-.7-1.8-1.5-3.5-2.5-5.1-4.5-7.6-10.8-12.2-20-12.1-2.9 0-5.7-.9-8.6-1.5-2.9-.5-5.8-.8-8.6-1.7-1.2-.4-2.1-1.9-2.8-3.1-.5-.8-.4-2.7-.6-2.7-3.1-.3-2.3-1.2-.8-2.9.9-1 1.3-2.6 1.3-4 .2-3.1.8-6.4-.2-9.2-.8-2.5.4-4.9-1.1-7.5-1.2-2.1-.2-5.5-.2-8.3 3.8-2.7-.4-5.3-.3-8 .2-5.1 2-10.6-1.2-15.5-.2-.3 0-1.1.3-1.4 2.3-1.8 1.2-4.3 1.2-6.4-.2-6 1-12-1.4-17.9-1.1-2.7.6-5.3 1.5-7.8 1.1-3.2-1.8-5.6-1.6-8.6 0-.2-.1-.6.1-.7 3-2.8.9-6.3 1.5-9.4.6-3.1 1.2-6.2 1.5-9.4.2-2.5-.4-5.2.2-7.7.6-2.6-1.6-4.6-.5-7.4.9-2.2.3-5 .3-7.6 0-2.3.1-4.6 0-6.9-.2-2-1.6-4.7-.8-6 1.4-2.3.4-4.5.9-6.6.2-1.6-.1-3-1.5-3.9-1.5-.9-1.7-2.3-1.5-3.9 3.3 1.5 5-1.7 7.6-2.8z"/><path class="st1" d="M460.1 701.9c1.9 4.4 4.8 8.4 4.6 13.5 0 .5.1 1 .3 1.4 1 2 3.7 3.1 4.1 5.1.5 2.5 1.5 4.6 2.9 6.5 4.2 6 8.5 11.9 12.7 17.9.6.8.7 2 1.4 2.4 7.9 5 11.2 13.9 17.1 20.5-.6 2.8-2.2 3.6-4.9 3.6-8.7.2-17.1-2.1-25.7-3.1-2.6-.3-3.3-4.2-6.4-3.1-2.7-3-6.9-3.1-10-5.8-3.2-2.8-7.3-4.6-11.2-6.4-.7-.3-2.4 1.4-3.6 2.2 4.7 4.1-1.3 3.8-2.4 5.3-2.9 4.1-7.6 6.6-10.1 11.2-.9 1.7-3.2 3.6-5 3.8-4.3.3-6.5 4.3-10.3 5.1-.4.2-1.2.4-1.2.5.2 3.5-2.3 4.6-4.9 5.7 0-.5.2-1.2 0-1.5-2.8-4.1-1.8-7.4 1.8-10.3.6-.5 1-1.1 1.6-1.6 6.6-5.2 13.6-9.9 19.6-15.9.7-.7 1.3-1.4 2.1-2.3-7.2-2.6-13.3 1.8-19.7.9-.2 0-.3.4-.5.5-4.6 2-9.4 3.6-13.6 6.1-2.4 1.5-2.3-.9-3.4-1.2 2.4-2.2-1.9-4.4-.1-6.3 1.3-1.4 3.1-2.3 4.7-3.3 1.4-.8 2.9-1.7 4.5-2.1 8.8-2.2 16.2-5.3 21.5-9.3 1-1 2-2.8 3.1-2.9 2-.2 3.1-.6 3.4-2.7 0-.3 1.8-.4 2.7-.5 1.3 2.6 2.5 5.1 3.8 7.7 2 0 5.3-.8 5.9.1 3.5 4.9 11.6 3.4 13.6 10.1.1.3.8.5 1.3.6 4.7 1.1 8.8 3.6 13 5.9 1.9 1.1 11.9 2.9 14.5 2.8-2.3-3-4.5-6.2-7-9.1-1.1-1.2-3-1.7-4.1-2.8-1.3-1.4-2.2-3.1-3.3-4.8-1.7-2.6-3.5-5.2-5.1-7.9-1.3-2.2-2.3-4.7-3.6-7-2.3-3.9-5.5-7.6-6.8-11.8-1.5-4.6-1.5-9.7-1.8-14.6-.1-1.5.9-3.2 1.4-4.7 1.1.5 2.1 1 3.1 1.6z"/><path class="st2" d="M464.8 1127.5c2.4-.3 4.7.3 7.2-1.3 2.2-1.5 5.6-1.2 8.5-1.7 4-.7 7.3-2.4 9.1-6.4 1.1-2.6 2.3-5.2 3.3-7.9 1.8-4.6 2.6-9.7 5.8-13.8 1.9-2.4 3.6-5.2 3.2-8.7-.1-1 .9-2.2 1.5-3.2 3.3-5.9 4.6-12.5 6.2-19 .2-.9.4-1.9.8-2.7 2.6-4.5 4.7-9.2 3.8-14.6 2.1-3 .3-7.5 3.7-10 .5-.4.9-1.3.8-1.9-.5-6 2-11.5 2.8-17.2.6-3.6 1.2-7.3 2-10.8 1-4.7 1.8-9.5 3-14.1.2-.9.7-1.8 1.2-2.6 2.6-3.8 5.4-7.5 5-12.6-.1-.8.9-1.6 1.5-2.4 1.3-.4 2.7-.7 4.3-1.2.9 2.8 2.4 6.1 3 9.4.7 3.5 2.4 3 4.7 2 .6-.3 1.2-.7 1.8-1 2 3.2 3.6 6 3.8 10.3.1 3.8 2.4 7.6 2.5 11.9.1 4.1 1.8 8.1 1.6 12.4-.1 2.7 1.1 5.6 1.9 8.3.7 2.2 2.1 4.3 2.5 6.6.4 2.5.1 5.1.1 7.6-.5-.4-1.4-.8-1.5-1.2-.2-2.2-.3-4.3-.4-6.8-1.5 1.3-3.5 3.2-3.6 3-2-1.9-2.4-1-2.3 1.1v2.3c-.5-.4-1.5-.8-1.5-1.2.1-5.2-.5-10.3-3.1-14.9 1.2-7.6-2.6-14.4-3.3-21.8-.4-4.9-2.4-9.7-3.8-14.6-.2-.6-1-.9-1.2-1.1-1.4 2.8-2.9 5.5-4.2 8.3-1.6 3.7-3.5 7.4-4.4 11.3-1.1 4.8-1.2 9.8-1.6 14.7-.1 1.8-.9 3.2-1.4 4.8-1.6 5-2 10.5-3.6 15.5-1.6 4.9-3 9.8-2.8 15 0 .7 0 1.6-.4 2.1-5.6 9.1-6.9 19.7-10.4 29.6-1.9 5.3-4.6 10.4-7 15.6-1.8 3.9-4.5 7.7-5 11.7-.6 4.6-3.4 7.6-5.6 10.8-2 3-6.1 4.6-10 5.1-.8.1-1.5 0-2.3 0-2.3 0-4.6-.2-6.9.1-2.1.2-4.2 1-6.3 1.5-.3-1.1-.5-2.3-1-3.3-.5-1.2-1.3-2.1-2-3z"/><path class="st3" d="M629.8 1110.5c2.1-4.2 1.2-6.3-3-6.1-6.1.3-11.8-2.3-17.9-1.8-2.4.2-5.8-1-7.1-2.7-2-2.9-5.3-4.8-6.2-8.9-1.1-5.2-1.1-10.4-1.4-15.6-.4-8.5-.8-17.1-1.6-25.6-.2-2.3-1.6-4.4-2.6-6.9 4-1.1 1-5.1 2.2-7.7.1-.1-1-.7-1-1.1-.1-3.1.4-6.2-.3-9.2-.6-2.9-1.7-5.6-1.4-8.6 2.1-1.7 4.2-3.5 6.3-5.2-.7-.7-1.6-1.3-1.6-1.9 0-1.6-.8-1.7-2.1-2.3-2.3-1 1.5-2 .5-3.3-.4-.5-1-1-1.6-1.2-1-.2-2-.1-3.1-.1 1-1.9-2.3-3.5-.2-5.8.7-.7-.4-3.9-1.5-5.2-1.6-2-1.5-4.2-1.4-6.3s-1.2-3.8-1.4-5.5c-.9-6.6-1.5-13.3-1.6-20-.1-5-1.3-9.6-2.5-14.3-.6-2.1-.8-4.5-.6-6.6.2-2.2-.8-3.8-1.6-5.5 2.7 0 5.4-.5 7.7 1.5 2.3 1 2.8 3.3 3 5.2.4 4.4.5 8.8 1.4 13.2 1.3 6.3.7 13 1.9 19.3 1.1 5.4 2 10.9 3.5 16.2 1.3 4.4 2.9 8.8 2.5 13.6-.2 2.5-.5 5.3.4 7.5 1 2.5-.9 4.3-.6 6.6.4 3.1 2.7 6 1.7 9.3 2.6 3.9 1.3 8.3 1.5 12.4.2 4.3-.2 8.7.1 13.1.2 3.4 1 6.8 1.5 10.1s-1.1 7 1.4 10.2c.7.9.6 3.6-.1 4.3-1.8 1.8-1.2 3.8-1.3 5.7-.1 9 4.3 13.5 13.5 13.6 4 0 7.8.8 10.8 3.6 2.5 2.2 5.4.5 8 1.1 0 .8-.2 2.1 0 2.2 2.6 1.1.9 3.7 2 5.3 1.9 3-2.2 2.9-2.8 4.8-.6 1.8-2 3.5.8 4.7l-1.5 1.5c-1.7 0-4.2.3-2.7-2.5 1.4-2 3.1-3.5 0-5.1z"/><path class="st0" d="M202.6 1061.2c-.7 3.4-2.2 6.6-1.6 10.1.1.5.1 1.1-.1 1.5-4.5 6.8-4.8 14.9-7.4 22.3-1.7 4.7-3.4 9.6-3.4 14.8 0 2.9-5.9 17.1-7.7 18.3-4.6 3-9.1 6.8-14.8 6.8-5.1.1-10.6 1.9-15.5-1.4-4.4.7-8.8-.7-13.4 1.1-3.3 1.3-7.7.9-11.1-.1-2-.6-3.9-1-5.7-.9-8.8.7-15.9-3.4-23-7.8-.4-.2-1-.5-1.1-.9-.6-3.9-2.5-8.3-1.2-11.5 1.4-3.6 3.3-8.2 8.4-9.6 3.4-1 5.9-4.2 9.8-4.2 3.5 1.2 7.4 1.2 10.8 3.1l1.5 1.5c-5.9 1.2-11.7 2.7-16.7 6.2-2.2 1.6-4.4 3.3-6.2 5.3-.6.6-.4 3 .2 3.4 3 1.9 6.1 3.8 9.5 5 2.1.7 4.6-.1 6.9.2 2.1.2 4.2 1.5 6.3 1.4 6.7-.4 13.6 1.6 20.2-1.4.8-.4 2.2-.4 3 0 5 2.8 10.4.9 15.6 1.5 5.5.6 8.7-3.9 12.8-6.2.6-.3.7-1.7.8-2.7.7-6.4 5.3-11.9 3.8-18.8-.6-2.7 3.1-4.5 1.8-8-1.1-2.7 1.9-4.9 3.7-7 .3-.3-.1-1 .1-1.5 1.5-4.8 3.7-9.4 4.4-14.3.5-3.7 2.7-5.6 4.8-7.9 1.4.6 3 1.1 4.5 1.7z"/><path class="st4" d="M295.1 515.3c7.3-1.4 12.9 2.8 17.9 6.7s10.5 7.5 14.9 12.5c3.2 3.6 7.5 6.5 11.1 10 3.2-.7 2.5 2.5 3.6 3.8 4.3 5 10.4 7.5 15.3 11.6.9.7 1.4 1.4 2.2 2.2 3.3 3.6 6.6 7.4 12.2 7.2.8 1.8 3.1 3.6 0 5.5-.3.2 0 1.4 0 2.2-4 0-6.7-3.2-10.8-4.6v7.6c-2 2.3-1.7 5.1-1.5 7.8.1 2.2-.8 3.4-2.5 4.5-1.4-1.7-2.5-3.1-3.7-4.5 0-4.2-.1-8.5 0-12.7.1-3.3-1.7-4.3-4.6-4.2 0-2.5.1-4.9-.1-7.4 0-.7-1-1.2-1.5-1.9-6.6-2.3-9.9-8.7-15.7-12.8l-6.4 6.4c-1.5 1.5-1.2 2.9-.5 4.7 2.1 5.5 6.6 7.2 11.8 7.9.5 1.3.7 3.1 1.6 3.7 2.5 1.6-.2 2.7-.1 4-4.7.2-9-.6-13.3-3-4.3-2.3-6.7-5.4-6.7-10.3v-11.3c2.9-2.7 5.3-4.8 7.6-6.9-5.7-7.1-12.9-11.3-20-15.7-4.7-2.9-9.2-6.1-13.8-9.2-.4-.3 0-1.5 0-2.2 1-.6 2-1.1 3-1.6z"/><path class="st5" d="M256.6 1129l-1.5 1.5c-2.8-2.3-6.2-1.7-9.3-1.5-4.9.4-8.6-1.5-11.8-5-1.3-1.4-2.2-2.6-2.1-4.6.1-1.1-.6-2.3-1.2-3.3-1.5-2.9-1.7-6-2-9.2-.5-6.9-1-13.9-1.7-20.8-.7-6.7-2.3-13.4-2.8-20.2-3.2-2.8.1-7.5-3.1-10.2.5-2.9.1-5.8.8-8.8 1-4.7.3-9.9.1-14.9-.1-1.9-.9-3.8-.9-5.7-.1-9.5 0-18.9 0-28.4 3.2-.3.3-3.7 2.3-4.6.5.5 1 1 1.6 1.5 1.6-3.3 1.6-3.3 4.7-1.5.2.1.5 0 .7 0-.2 1.7.3 3.3-.9 5-.6.8.8 2.9.8 4.4 0 1.1-.8 2.2-1.1 3.3-.2.9-.7 2.3-.3 2.9 2.6 3.7 1.2 7.8 1.4 11.7.2 3.8-.6 7.8.3 11.5.5 2.3 2.5 5.2.8 6.8-2.7 2.6-.1 4.8-.3 7.1-.6 5.7-3.2 11.9 2 17.1.4.4.4 1.4.4 2.1 0 3.8-.2 7.7.1 11.5.2 3.6 1.5 7.3 1.4 10.9-.3 5.8.9 11.4 1.7 17 2.8 1.6-2 4.9 1.5 6.6 3.3 1.7 3.4 5.2 3.3 7.6 3 .9 5.3 1.6 7.5 2.3 2.5 2.8 5 5.3 7.6 7.9z"/><path class="st4" d="M571.2 814.4c-.5.4-1.1.7-1.5 1.2-1.1 1.1-2.1 2.3-3.1 3.5-.5 0-1.2-.2-1.4 0-1.6 1.5-3.2 3.1-4.7 4.6-1.8.6-2.8 1.6-3.1 3.6-.7 4.6-2.6 6.9-6.6 7.1-7.9.3-15.9.2-23.8 0-2.2-.1-4.4-1.4-6.6-2.2v-5.1c-4.1-1.1-8.2-2.2-12.3-3.4-3-.7-1-3.1-1.5-4.6 1.9-4.4 3.9-8.6 4.9-13.4.7-3.8 3.8-7.1 6-10.5 1-1.5 2.5-2.6 3.7-3.8h14.6c2.4 0 2.4-.1 4.7-3.6-2.4-1.7-5-2.9-8.1-2.6-.4 0-.8-1-1.2-1.5.2-2.4 2.2-1 3.2-1.6 1.2-.7 2-2 2.9-3h7.3c2.1 2.6 4.4 5.5 6.6 8.2-1.1 1.4-2.8 3.4-2.7 3.5 2.7 2.8.3 3.9-1.5 5.2-1.4 1-2.6 2.4-4.2 2.8-2.8.9-5.3 2.9-9 1-2.4-1.3-5.9-.8-8.9-.7-1.9.1-2.8 1.5-3.2 3.5-.9 5.4 2 10 3.4 14.8.5 1.7 2.7 3.6 4.9 4.8.9.5 1 2.6 1.8 2.8 2.8.7 6-.5 8.5 1.8 1.9-1.5 4-1.7 6.3-1.6.5 0 1.4-.7 1.4-1.2.4-3.5 3.8-3.9 6-4.7 2.7-1 1.8-5.3 5.6-5 .9.1 2.3-1.6 4-1.3 1.1 2.8 3 1.7 4.6.7 1.3-.9 2.5-1.6 3 .7z"/><path class="st6" d="M68.5 752.7c.5-2.1-1-4.5 1.1-6.5 2.4-2.2 4.8-4.1 8.2-4.4 1.9-.1 3.7-1.2 5.5-1.4 2-.3 4.1-.1 6.3-.1.4-2-1.4-2.8-2.3-3.3-4.4-2.4-8.2-5.3-11.8-8.7-3.7-3.5-11.1-10.7-11.4-15.1-.2-3.7-4-4.9-3.7-8.7.2-2.5-1.5-5.5-2.9-7.9-1.9-3.3-3-6.6-3-10.3 0-2.9-1.9-5.4-1.7-8.6.2-2.8 1.1-6-1-8.8-.6-.7 2.4-2.4.3-4.3-.5-.4.7-2.4.8-3.6.1-5.4 0-10.8 0-16.2 3.2-.3.2-4.1 2.3-4.5 2-.4 2.6-.2 1.1-2.3-.8-1.2-.3-3.4-.3-5.1 0-.9 4.7-4.7 6.1-5v13.7c0 2.3.8 5-.2 6.7-2.6 4.6-.8 9.3-1.3 13.9 0 .3 1 .8 1.5 1.2.5 1.5 1 3.1 1.5 4.6-4.1 1.3-3.4 4.4-2.6 7.3.2.7 1.1 1.3 1 1.8-1 4.4 1.7 8.2 1.7 12.5 0 2.3 3.7 12.1 4.9 13.4 1.6 1.6 2.2 3.5 3 5.7 2 5.5 5.4 10.6 9.8 14.3 3.1 2.6 5.8 6.9 10.9 6.9.7 0 1.5 1.8 2.2 2.8-1 2.1-2.1 4.2-3.2 6.5 2 2.7 4 5.1 8 4.3 3.9-.8 6 1.4 7.6 4.6-2 0-4.1-.1-6.1 0-1.7.1-3.3.9-4.9.9-1.7 0-3.5-.6-5.2-.9-1-.1-2.5-.5-3 0-2.5 2.8-5.8.9-8.6 1.5-1.8-.9-3.7-1.9-5.7-2.9-1.4 1.9-3.2 4-4.9 6z"/><path class="st7" d="M677.6 740.4c-3.1 5.1-5.4 10.3-4.7 16.5.2 1.8-.4 4.1-1.5 5.4-4.6 5.6-5 13.6-10.4 18.8-.9.8-.9 2.7-1.1 4.1-.3 2.2.3 5.1-.9 6.5-1.2 1.5-3.1 2.5-3.9 4.5-.4 1.1-.9 2.8-.4 3.5 2.9 4.4 1.5 10 4.4 14.3.6.9.6 2.9 0 3.7-2.4 3-1.3 6.3-1.4 9.4-.2 6.7 0 13.3 0 20v13.8c-3.7 3.6-.6 8.5-2.6 12.8s-2.8 10.2-5.4 12.6c-.6.6-1.8.4-2.8.6.1-2.6-1.1-4.6-3.1-6.2 4.7-8.3 5.4-17.7 5.9-26.7 1-16.6.3-33.3.2-50 0-.7-1-1.3-1.5-2 2-2.3 1.5-5 1.5-7.7.1-3.2 0-6.2 1.4-9.4 1.9-4.4 2.3-9.3 6.1-12.9 1.1-1 1.1-3.1 1.8-4.6.8-2 1.5-4.1 2.7-5.8 1.1-1.5 1.5-2.9 2-4.6 1.7-5.7 2.4-11.8 6-16.7 1.2 0 3.2.5 3.6-.1 1.6-2.2 2.8.2 4.1.2z"/><path class="st1" d="M617.4 743.5c.1-.3 4.7-10.1 4.9-10.3 3.2-2.7 5.2-6.5 7.5-9.9.8-1.2 1.6-2.9 2.8-3.3 4-1.5 4.4-6.5 8.9-7.8 4.6-1.3 4.9-1.7 8.3 2.2 2.1 2.4 5.9 3.3 6.5 7.1.4-.1.9-.2 1.1-.4 1.1-1.5 3 2.1 3.8-.7 1.6 1 3.2 2 4.7 3.1.2.2.1 1.3-.2 1.5-2.4 2.1 1.3 2.9 1 4.5 0 2.1 1.7 1.1 2.7 1.6 1.3.6 3 1.4 3.3 2.5.5 1.9-1.1 3-2.9 3.6-3.9-.2-6.4 2.2-7.6 5.4-2.6 6.9-8.2 11.5-11.5 17.9-1.8-1.8-3.1-3-4.3-4.3-.6-.7-1-1.6-1.3-2.5-.5-1.9 2.5-3.8 0-5.6 1.3-2 2.3-4.3 3.9-6.1 1.6-1.8 3.9-3 5.7-4.8 1.6-1.6 3-3.4 2.6-6.6-7.1 2.7-11.5 7.5-15.2 13.1-2.3 3.5-4.9 5.6-8.8 3.8-1.2-4 .3-6.8 2.4-9.9 1.9-2.8 4.7-4.6 6.3-7.4 2.1-3.5 6.8-6.3 4-11.6-7.3 7.2-14.4 14.3-18.1 24.1-.7 2-2.3 3.7-3.8 5.3-1 1.2-2.4 2-3.7 3-.5-.6-1.5-1.3-1.5-1.9.6-3 .7-3-1.5-5.6z"/><path class="st8" d="M643.7 880.7c2 1.6 3.2 3.5 3.1 6.2-1 1-1.8 2.7-2.9 3-3.3.8-6.7 1-10.1 1.7-1.3.3-2.8 1-3.7 2.1-1.8 2.2-4 2.5-6.7 2.6-8.5.3-16.5-1-24.1-5-1.2-.7-2.8-.7-4.1-1.3-3.9-1.7-8.4-1.5-12-4.5-2.9-2.5-6.4-4.2-10.2-6.5-.1 5.2-1.5 10 .9 14.7.2.4.2.9.3 1.4.5 6.5.9 13.1 1.6 19.6.3 2.6 1 5.2 1.5 7.8-1.5 0-2.9.2-4.3-.1-.7-.1-1.2-1-1.8-1.5 2.9-1.1 1.3-2.9.9-4.7-.6.6-1.2 1.1-1.6 1.5l-2.4-3c-.5-1.1-1.5-2.1-1.5-3.2.1-7.4-1.2-14.6-3.1-21.8-.3-1.3.4-2.8.7-4.3.2-.9.7-2 .4-2.6-2.7-4.6-.3-9.3-1.5-14.7 3.6.4 7.2-.3 9.3 1.2 3.6 2.4 7.1 5.3 11.1 6.7 4.1 1.4 7.5 4.2 11.7 5.1 4.4.9 8 4.5 12.8 4.3 2.6 2.7 6.2.7 9.1 2.1 3.1 1.6 5.8 1 9-.5 5.8-2.5 11.7-4.2 17.6-6.3z"/><path class="st0" d="M171.8 965.6c-1.5-6.1-1.1-11 1.1-18.9 1-3.7 1.4-7.6 2-11.4.1-.7-.3-1.7.1-2.3 5-8.6 2.5-18 3-27.1.2-4-.9-4.9-5.4-5.1h-2.3c1-1 2.7-1.8 3-3 .6-2.9 3-.9 4-1.8 1.2-1.1 1.5-2.5-.8-3 4.4-2.6 7.3-4 8.1-3 2 2.4 7.3 0 7.3 6-.7.5-2.8 1.4-2.9 2.4-.2 4.9-2.4 9.4-3.2 14.1-.4 2.4.8 3.8 2.9 5.4 2.4 1.8 3.9-.3 5.8-.2 3.4.3 6.7.4 10.2 1.3 3.3.8 7.2-.8 10.8-1.2.9-.1 1.9.9 2.7.7 2.7-.5 5 1.4 7.7.8.3 3.7-2.5 5.5-4.6 7.7h-22.1c-3.3 0-6.7-.3-9.9.2-1.3.2-3.5 2.6-3.2 3 1.7 3.5-1.3 6.8-.3 10.3.1.5-.9 1.3-1.5 1.9-4.6 5.2-4.8 11.9-6.1 18.2-.5 2.6-.2 5.4-.3 7.6-4 2.1-4-2.3-6.1-2.6z"/><path class="st6" d="M407.7 902.3c3.5.9 8.6 3.3 10.2 4.9 1.8 1.8 3.7 3.5 5.4 5.4 1.4 1.6 2.4 4.6 3.9 4.9 3.4.6 2.9 3.7 4.7 5.2.7.6 1.6 1 2.9 1.9.8-5.1 1.4-9.7 2.2-14.2.3-1.6 1.3-3.1 1.5-4.7.8-7.7 3.1-15.1 4.7-22.6 1.5-6.5 3.5-12.9 5.3-19.3.2-.7.9-1.4.8-2-1.3-7.7 3.5-13.4 6.2-19.7.5.4 1.1.7 1.5 1.2 1.1 1.1 2.1 2.3 3.1 3.5-1.4 4.8-.1 10.4-4.3 14.4-.5.5-.3 1.9-.3 2.9-.3 7.2-1.7 12-5.7 20-.3.6-.4 1.4-.5 2.1-.7 5.7-2.2 11.3-1.6 17.1.1 1.1-.2 2.5-.7 3.5-2.7 5.6-2.7 11.8-3.7 17.7-.8 4.3-2.5 8-4 11.9-10.7-4.3-9.6-5.3-14.7-10.3-1.4-1.4-3-2.6-4.6-3.8-2.2-.6-3.2-2-3.1-4.3.2-2.6-1.8-1.7-3.1-1.9-3.6-2.6-7.2-5.1-10.8-7.7 1.7-1.9 1.5-5.3 4.7-6.1z"/><path class="st5" d="M649.8 794.4c0 2.7.5 5.4-1.5 7.7-1.8.5-4 1.9-5.4 1.3-6.4-2.8-12.8-.6-18.9-1.2-.7 4-1.6 7.3-1.8 10.7-.3 3.6-.1 7.2-.1 10.8 0 2.3.7 4.9-.1 6.9-2.3 5.6-2.8 11.6-4.4 17.4-1.9 7.1-4.4 8.2-10.9 3.5.5-1.5.8-3.2 1.6-4.6.7-1.2 2-2.1 3-3.2.2-.3 0-1 0-1.5.5-2.9 1.1-5.7 1.5-8.6.4-2.6-.9-5.6 1.6-7.8 0-7.4.1-14.9-.1-22.3 0-1-1.4-1.9-2.2-2.9-.7-.9-1.8-1.8-1.9-2.7 0-1 .8-2.9 1.5-3 2.7-.5 2.4-2.2 2.7-4.3 1-7.6-2.1-14.9-1.6-22.4.2-1.1-.7-2.6 1.2-3.1 2.1-.5 3.5-1.5 3.5-3.9-.3-.3-.4-.5-.6-.6-1.3-.8-4.1 1.2-3.9-1.9.2-3.3 1.9 1.3 2.7-.3.5-1 1.3-2 1.8-3.1.3-.8.3-1.7.4-2.6 1.1 4 1.1 8 1.2 11.9 0 .7 1 1.3 1.5 2 0 3.5-.5 7 1.6 10.1 1.9 2.9 1.5 6.2 1.5 9.4v6.2c9.1.8 17.6 1.4 26.1 2.1z"/><path class="st0" d="M515.7 936.3h-13.8c.3 1.6.5 3.2.8 4.7.1.4.7 1.1.6 1.2-3.2 3.8.1 8.9-2.5 12.8-1.7 2.5-.1 5.5-1.8 8.5-1.9 3.4-1.3 8.1-1.9 12.3-.5 3.6-.4 7.6-2 10.7-1.8 3.4-.8 7.1-2.3 10.6-1.3 3.1-2.7 6.9-1.9 10.8.5 2.4-2.3 4.4-1.5 7-1-.3-2.1-.7-3.1-1 1.3-3.3-2.6-4.2-3.1-6.7 0-5.4-.1-10.7 2.5-15.9 1.3-2.7 1-6.5.4-9.6-1.2-6.4-.9-6.3.1-14.2.9-8 3.1-15.6 4.8-23.4.5-2.3 1.4-4.7 1.4-7 0-2.1-1.1-4.2-1.4-6.3-.3-2.3-.1-4.6-.1-6.9 2.4 1.2 4.9.2 4.1-1-1.9-2.7.1-2 1.3-2.1.7-.1 1.5 0 2.2 0 2.7 2 5.1 4.4 6.2 7.7.4.5.8 1.4 1.2 1.5 2.5.1 5 .1 7.7.1.8 2.1 1.4 4.1 2.1 6.2zM489.4 911.6c0 1.3.6 3.1-.1 3.8-6 6.5-7.3 15-10 22.8-1.9 5.6-4.2 11.1-6.1 16.7-1.8 5.5-4.6 10.4-7.1 15.5-1.8 3.7-4.2 7.1-6.7 10.3-2.7 3.5-6.3 5.5-11 5-2.3-.2-4.6 0-6.9 0 .4-1 .8-3 1.1-2.9 3.6.2 5.2-2.1 6.6-4.8 2.7-1.8 4.4-4.5 6.5-6.7 2.6-2.7 2.3-6.4 5-9 2.3-2.1 3.1-5.8 4.5-8.8.4-.9 1-1.8.9-2.7-.3-3.4 1.3-6 2.8-8.9 2.1-4 3.9-8.2 4.8-12.6.8-3.8 1.6-7.8 3.6-10.8 3.5-5.1 4.5-11 7-16.4 2.3-5 4.7-10.5 5-16.4 0-.8.9-1.7 1.4-2.5 1.2-1.8 2.4-3.7 3.9-5.3.7-.8 2.2-1.8 3.1-1.6 1 .2 2.3 1.7 2.3 2.7.1 3.2.8 6.4-1.4 9.4-.9 1.3-1.1 3.1-1.6 4.7-.4.2-1.2.3-1.3.5-.2 6.6-3.8 12.1-6.3 18z"/><path class="st6" d="M230.4 993.3c-.2 0-.6.1-.7 0-3-1.8-3-1.8-4.7 1.5-.5-.5-1-1-1.6-1.5-2 .9.9 4.3-2.3 4.6v-9c-.3 0-.6 0-.9-.1-1.2 5.4-2.1 11-3.8 16.3-2.6 8-1.9 16.8-5.9 24.4-.6 1.2-.2 3-.1 4.5.1 6.7-1.9 12.8-4.6 18.8-.9 2.2-2.3 4.4-1.7 7 .1.3-1 .8-1.5 1.2-1.5-.5-3.1-1-4.6-1.5-.5-1.6-1.1-3.1-1.5-4.7-.8-3.5.5-6.3 3.1-8.7-.9-5.4 4.5-10.1 1.6-15.7-.2-.3.2-.9.4-1.3 3.3-7 4-14.8 5.7-22.2 1.6-7 4-13.8 5.4-20.9 1-5 2.8-10 4-15.2.3-1.3 1.2-2.8 2.2-3.6 1.3-1 3-1.3 5.1-2.1.4 3.4 0 6.9 3.3 8.8.4.2.1 1.4.2 2.2.2 1.9.5 3.7 1.2 5.6 1.3 3.6 1.1 7.7 1.7 11.6z"/><path class="st3" d="M483.3 1007.2c.5 2.5 4.4 3.4 3.1 6.7 1 .3 2.1.7 3.1 1 .2 6.2-.6 12.1-2.9 18.1-1.6 4.3-1.2 9.3-1.8 13.9-.3 2.4-1 4.7-1.5 7.1-.4 2.1.8 4.5-1.4 6.4-.6.6-.1 2.4-.2 3.7-.5 5.2-.8 10.4-1.6 15.5-.3 1.8-1.6 3.4-2.7 5-2.3 3.4-4.5 7-7.1 10.1-2.9 3.4-5.9 6.6-10.5 8-4.1 1.3-7.8 3.6-12 4.6-1.1-.2-2.7.7-3.1-1.1-.3-1.3 0-2.6-2-1-.9.8-2.8.4-4.2.6v-3.1c.5 0 1.1.2 1.5 0 5.4-2.5 10.6-5.4 16.2-7.5 4.4-1.6 7-4.4 9.8-8.1 3.7-4.9 5.9-10.1 6.3-15.9.1-2 3.8-3.4.8-6-.7-.6.5-3.4.9-5.1.5-2.1 1.1-4.2 1.5-6.3.4-1.9-.8-4.1 1.3-5.6-3-2.2.2-4.2.3-6.3.1-2.4 1.2-4.7 1.4-7.1.3-2.5-.8-5.6.2-7.6 1.9-3.7 1.2-7.3 1.3-11 .3-3.3.9-6.5 3.3-9z"/><path class="st6" d="M629.8 1110.5c3.1 1.6 1.4 3.1.3 5.2-1.4 2.8 1.1 2.5 2.7 2.5-.4 1.1-.4 2.8-1.1 3.3-4.3 3-8.6 6.1-14.4 6-2.3 0-4.9 1.9-7 1.3-7.9-2.1-16.6-.2-23.9-5.2-2.2-1.5-5.4-1.6-8.2-2.4-6.6-1.9-10.7-6.6-13.9-12.3-.5-.8-.8-1.8-.8-2.7-.2-2.9-.4-5.7-1.4-8.6-1.2-3.9-2.3-8-1.9-12.3.2-2.2-.6-5-1.9-6.7-2.2-2.8-.4-4.5.5-6.7h4.6c1.8 1.1 3 2.5 2.1 4.8-.1.2-.3.4-.5.5 3.2 2.1 2.4 5.7 3.3 8.6.9 3 1.1 5.8 1.3 8.7.2 3.4 1.3 6.8 1.9 10.1.5 3 2.2 7.1 7.1 7.5 1.4.1 3 3 4.1 2.7 3.1-.8 5.3 3.7 8.4 1.1.3-.3.7-.5 1.1-.7 2.3 3.9 6.1 2.8 9.6 2.9 3.2.1 5.9 2 8.8 2.8 2.4.7 5.5-1.1 8.3-1.9 3.8-1.1 7.3-2.6 8.6-7 .2-.6 1.5-.9 2.3-1.5z"/><path class="st2" d="M381.5 866.9c0 1.3-.2 2.6 0 3.8.7 3.4-1.7 6.2-3.8 6.6-5.2 1-8.6 5.1-13.4 6.7-5.3 1.8-10.3 4.8-15.3 7.4-7.1 3.7-14.3 7.8-22.7 7.9-.3 0-.6-.1-.8 0-4.1 3.8-7.1.4-10.3-1.6v-3.1c1.6-2.8 4.3-3.4 7.1-3 2.2.3 3.6-.8 5.3-1.6 1-.5 2.1-1 3.1-1.5 3.2.3 6.2-.4 9.1-2 5.5-3.1 11.1-6.4 17-8.6 6.2-2.3 11.7-5.5 16.5-9.8 2.1-1.8 4.3-3 6.7-4.2.2 1-.8 2.8 1.5 3z"/><path class="st9" d="M295.1 515.3c-1 .5-2.1 1-3.1 1.5-1.5.9-3.6.4-1.9 3.9 1.8 3.6.7 8.2-2.7 11.5-1.8 1.5-3.9 1.7-6.2 1.5 0-5.1-.1-10.2 0-15.4.1-2.3-.8-3.8-2.9-4.7-4.8-2.1-9.7-3.9-14.3-6.2-6.8-3.5-14.1-5.5-21.4-7.7.4-.5.8-1.1 1.2-1.5.6-.6 1.2-1.1 1.9-1.7-.7-.5-1.4-1-2.1-1.4-.2-.1-.5.1-.8 0-1.7-.6-2.6-2.8-1.8-4.6 8.9 2.7 18.1 4.2 26.2 9.2 3.8 2.3 8.5 3 12.7 4.5 3 1 4.7 4.8 8.5 3.8 2.4 2.4 4.6 4.8 6.7 7.3z"/><path class="st1" d="M457.1 618.6c2.9 2.1 7.2 3.8 3.1 8.5 1.2 1.8 2.4 3.7 3.8 5.3 1.3 1.4 3 2.5.9 4.6-.2.2.1.9.3 1.3 4.2 6.5 4.1 6.5 4.3 11.1 0 1.9-.6 4.1 1.5 5.5-1.8 1.1-1.7 3-1.5 4.7.3 2.6-.4 5.2 1.3 7.9 1.1 1.8.4 5-1.1 7.7-1.9 3.5-2.2 7.7-3.3 11.6-.1.5-1 .8-1.5 1.2-.1-.9-.2-2.6-.5-2.6-2.5-.4-3-1.8-2.7-4 0-.3-1-.7-1.5-1.1 0-.8-.2-1.6 0-2.3.9-2.7 1.9-5.3 2.9-7.9-2.7-2.8-1.1-6.3-1.3-9.5-.2-4.9.3-9.9-2.7-14.3-2.1.3-4.5-.6-6.2 1.6-.7-.5-1.3-1-2-1.5-.5-2.6-1-5.1-1.5-7.7h9.3c-.1-1.7.1-3.1-.4-4.1-1.8-3.8-3.9-7.6-5.9-11.3 1.2-1 2.3-2 3.5-3.1.5-.5.8-1.1 1.2-1.6z"/><path class="st2" d="M518.7 765.1c6.9-4.1 8.4-4.6 13.7-4.6 1.5 0 3.1.1 4.6 0 3.6-.2 7.5-2.4 7.8-5.8.4-4.8 3.8-7.7 6-11.3 1.4-2.3 4.7-3.5 6.4-5.7 1.8-2.3 4.7-3.2 6.3-5.6.3-.5 1.2-.7 1.9-.8 1.9-.3 4.1-.1 5.7-.9 1.4-.7 3 2.1 3.9-.6 1.8.5 3.6 1 5.5 1.5-.2.4-.2 1.1-.5 1.2-2.1.7-3.6 1.5-4.3 4.1-.7 2.5-5-1.3-6 2.3-.4 3.3-4 .3-5.3 2.8-1.1 2.1-3.4 3.7-5.2 5.5l-1.1 1.1c-4 3.4-6.2 7.6-5.2 12.9-1.7 1.7-3.3 3.5-5 4.9-.6.5-1.8.4-2.8.6-1.8 0-4.6.7-5.2-.1-1.4-2.2-3.7.6-3.9-.6-.4-3.5-3-2.9-4.2-2-1.9 1.6-3.8.8-5.7 1.2-.4.1-.7.6-1.4 1.1.5.9 1.1 1.9 1.6 2.9-3 2.5-6 2.1-8.6.2.4-1.6.7-3 1-4.3z"/><path class="st10" d="M407.7 902.3c-3.2.8-3 4.2-4.6 6.2-.8 0-1.9.3-2.3-.1-3.4-4-7.8-5-12.8-4.6-1.1.1-2.3-.5-3.5-.8-.9-.2-1.9-.6-2.6-.3-4.6 1.6-9.6 1.6-14.3 2.7-.8 0-1.5.1-2.3 0-1.2-.2-3.4-1.2-3.5-.9-1.3 2.1-2.2-1.4-3.4 0-.9 1-2.3 1.6-3.5 2.5-1.4 1-3.7 1.7-1.3 4-1.4 1.1-2.8 2.1-4.2 3.2.4.2.9.4 1.3.5.7 3 3.1 1 4.6 1.5v4.4c-2.2.2-3.9.3-5.6.5-.2 0-.4.8-.5 1.2-2.4.4-4-.8-4.5-2.9-.4-1.4-.4-2.7-1.4-4.1-.6-.7 0-3.1.8-4 2-2.1 4.4-3.9 6.9-5.5 3.8-2.5 7.6-5.1 11.7-7 4.3-1.9 8.9-3.9 13.5-4.2 4.5-.3 9.3-1.6 14 1.1 2.2 1.2 5.7 1.2 8.5 1.5 4 .6 6.2 3.2 9 5.1z"/><path class="st6" d="M241.2 490.6c-.8 1.8.1 4 1.8 4.6.2.1.6-.1.8 0 .7.4 1.4.9 2.1 1.4-.6.5-1.3 1.1-1.9 1.7-.5.5-.8 1-1.2 1.5-5.8-2.2-11.4-5.1-17.9-4.6-1 .1-2.1.2-3-.1-5.7-2.4-11.7-3.1-17.8-3-5.6.1-11.2 0-16.8 0-.3-3.2-3.5-.4-4.8-2.3-1.1-1.6-2.9-2.6-4.5-3.8-.3-.2-1 0-1.5 0 .7-.5 1.4-1.5 2-1.4 1.1.1 2.2 1.2 3.3 1.2 1 0 2-1.1 3.1-1.2 2-.2 4.1.1 6.1-.1 2.1-.2 4.6 1 6.3-1.4 1.6 2.7 3.2-.1 4.8-.2 8.7-.5 16.9 2 25.2 3.9 1.6.4 3.3.8 5 .8 3.3-.1 6.4.6 8.9 3z"/><path class="st1" d="M71.5 575.4v-1.5h6.2c-.3-4.3-.4-7.9 3.4-10.5 2.9-2 .5-4.3-.4-6.5 1.1-3.3 3.5-5.7 6.2-7.7 1.5 0 2.9-.2 4.3.1.7.1 1.2 1 1.8 1.5-.5.8-.9 1.6-1.5 2.6 2.2.5 4.1.8 6.4-.3 1-.5 2.9-.3 4.2 0 1.4.3 2.1 2 1.8 3.7-.1.7.3 1.9-.1 2.2-2.4 2-1.5 4.7-1.4 7.1.2 3.6.9 7.2 1.5 10.9 0 .3.1.5 0 .8-.1.2-.3.4-.5.5-1.6-4-5.7-5.1-8.7-7.5 1.2-5.7-1.9-8.1-6.9-9.3-2.1 3.7-4.5 7.3-6.4 11.1-1.5 3.1-2.7 6.3-5.5 8.5-.5.4-1.3 1.2-1.2 1.8.5 4.6-3 8.2-3.1 12.6-3-.5-1.8-3.1-1.4-4.1 1-2.5.4-4.6.1-7.1-.4-3 1.8 1.9 2.8-.6 0-2.1.1-4.6-.1-7.1 0-.4-.9-.8-1.5-1.2z"/><path class="st6" d="M438.6 1102.8v3.1c-4.3.6-4.6 1-4.6 6.2 0 2.3-.1 4.6 0 6.9.2 3.3 3.5 7.1 6.7 6.9 4.7-.3 9.5 1.8 14-1.2.5-.3 1.7.4 2.6.8 2.4 1 4.7 2.7 7.5 2.1.7 1 1.5 1.8 2 2.9.5 1 .7 2.2 1 3.3-2.1.5-4.3-.7-6.6.9-1 .7-3.4-.6-5.2-.9-.7-.1-1.9-.4-2.3 0-3.5 3.4-6.9.2-10.3 0-1.3-.1-2.6-2.9-4.3-.2-.2.3-3.1-.8-4.5-1.5-8.6-4.5-10.6-9.9-9.8-19.6.2-1.8 2.3-4 4-5.1 3-2.1 5.9-4.5 9.8-4.6z"/><path class="st8" d="M460.1 846.8c-1-1.2-2-2.3-3.1-3.5-.4-.5-1-.8-1.5-1.2 5-9.5 14.8-13.1 23.1-18.5 5.9-3.9 12.3-5.5 19.4-4.7 2.8.3 5.6.1 8.4.1.6 1.5-1.4 3.9 1.5 4.6-.6 2.2-2.1 3.2-4.4 3.1-3.3-.1-6.7-.2-10 0-2.1.2-5.1.3-6.1 1.6-2.4 3.3-7.4 2.1-9.3 5.8-2.9-.6-3.7 3-5.4 3.1-3.4.3-5.3 2.2-6.2 4.6-1 2.7-2.6 3.4-5.1 3.4-.4.1-.8 1.1-1.3 1.6z"/><path class="st2" d="M94.7 837.6c.5-6.3-2.7-12.3-1.5-18.6-2.9-4.8-4.2-10.1-5.5-15.4-.2-.9-.5-1.9-1.1-2.6-.8-1-1.2-1.8-3.3-.8-3.5 1.6-6.8-1.4-10.1-2.7v-6.2h17.7c2.7 3.7 3.7 7.5 5.6 10.7s.9 5.2-1.8 7.1c4.8 3.7 6.9 8.1 6.4 13.9-.4 4.3-.1 8.7-.1 13.1-.9.2-1.9.3-2.8.5-1.3.2-2.4.6-3.5 1z"/><path class="st10" d="M372.2 576.9c0-.7-.3-2 0-2.2 3-1.9.7-3.7 0-5.5 3.1-.2 5.2 3.1 7.9 2.9 3.8-.3 5.3 2.2 7.6 4 .8.7 2.3.6 3.5.7 1.7.2 4.1-.4 5.1.5 5.6 4.9 13.7 4.3 19.2 9.5 2.3 2.1 6 2.7 9 3.9-.9 2.5-2.4 4.6-4.6 6.2-.8 0-1.8.3-2.3 0-5.4-4-12.2-5-18-8.3-7.6-4.2-16.3-6.1-24-10.2-1-.5-3.1 1.1-3.4-1.5z"/><path class="st1" d="M151.7 1084.3c0-3.3-1.2-7.4.3-9.7 1.8-2.7-.4-6.3 2.8-8.1-.2-3.9.2-7.8 1.5-11.6.9-2.7-.8-5.7 1.4-8.6 1.4-1.8-.5-5.1 1.5-7.7 1.1-1.4.2-4.4.2-6.7h6.2c.5.7 1.4 1.3 1.5 2 .2 2.6.3 5.1 0 7.7-.2 2.1-.3 5.3-1.6 6.1-3.3 2 .2 4.1-.7 6.3-1.5 3.5-1.7 7.5-2.2 11.4-.7 5.6-1.2 11.3-1.9 16.9 0 .2-.8.4-1.3.5v-4c-1.3 2.2-2.1 3.2-2.7 4.4-1.5 2.9-1.5 2.9-5 1.1z"/><path class="st11" d="M71.5 575.4c.5.4 1.4.8 1.5 1.2.1 2.5.1 5 .1 7.1-1 2.5-3.2-2.4-2.8.6.3 2.5.9 4.6-.1 7.1-.4 1-1.6 3.6 1.4 4.1-1.5 3.5-3.5 6.8-4.5 10.4-1 3.5-.9 7.3-1.7 10.9-.8 3.7-1.2 7.6-3 11.1-1.5.3-6.1 4.1-6.1 5 0 1.7-.5 3.9.3 5.1 1.5 2.1 1 1.9-1.1 2.3-2.2.4.9 4.2-2.3 4.5.1-3.4 0-6.8 1.4-10.2 1.2-2.8-1.1-6.5 1.6-9.4.6-.7 0-2.5.1-3.7.5-5.8 1.2-11.5 3.8-16.8 1.1-2.3 1.6-5 2.4-7.5.1-.2-.1-.6 0-.8 3.2-6.6 4.9-13.8 8-20.5-.1-.3.6-.3 1-.5z"/><path class="st2" d="M94.7 837.6c1.1-.3 2.2-.7 3.4-1 .9-.2 1.9-.3 2.8-.5 1.5.7 3 1.4 4.1 2 .7 6.8.9 13.5 2.2 20 .9 4.5 1.1 9.6 4.9 13.2 2.7 2.6 2.9 6.1 2.7 9.5-4.3 0-4.3 0-4.6 3.1-5.4-5.3-7.8-12.3-10.4-19.1-1.3-3.3-1.4-7.1-1.9-10.8-.6-4.6-1-9.3-1.6-14-.3-.9-1.1-1.6-1.6-2.4z"/><path class="st5" d="M341.4 937.8c-2-3.3-2.2-6.1-.3-8.1 1.5-1.6 3.3-2.8 4.9-4.2 3.2.8 3 4.2 4.6 6.2 3.5 2.1 5 2.1 8.4 1.7 1.8-.2 3.8-.8 5.8.7 1.2.9 4.2 1.2 4.9.5 2.1-2.2 3.2-.8 5.1 0 1.9.9 4.4.5 6.5 1 .8.2 1.3 1.3 2 2-2.1 3.9-4.9 5.5-8.9 5-1.3-.2-2.6 0-3.8 0-5.1 0-10.2-.2-15.2 0-5.3.1-9.8-1.7-14-4.8z"/><path class="st1" d="M302.9 900.8c-.6.5-1.5 1.6-1.9 1.5-7-2.6-14.2-1-21.2-1.5-.7-.6 1.7-3.3-1.6-2.3-2.3.7-4.8.8-7.3 1.1-.3 1.8-.6 3.7-.9 5.5-.2 0-.4-.1-.7-.1-.2-1.4-.5-2.8-.7-4.4-1.6 1.3-3.1 2.3-2.7 4.4.5 2.5 1.4 4 4.1 2.1.2.7.7 1.6.5 2-.5.9-1.4 1.5-2.1 2.2-1.3-1-2.7-1.9-4-2.9-3.3-1.5-1.2-4.4-1.4-6.6-.4-3.6-.1-3.7-3.5-6.8-1.8-1.7-1.5-3.7.7-4.7 1.5-.7 3.1-1.5 4.7-1.5 1.7 0 3.7.6 5.2 1.5 5.9 3.4 12.8 1.5 18.9 4.1 1.2.5 3.2-1.8 5.4-1.4 2.4.4 4.4-2.3 7-1.5 0 2.1-.4 4-1.4 6.1-1.1 2.1 0 3.8 2.9 3.2zM93.1 550.7c-.6-.5-1.2-1.4-1.8-1.5-1.4-.2-2.9-.1-4.3-.1.5-1.6 1.2-3.1 1.5-4.8.3-1.4-.4-3 2.1-3.1.9-.1 1.8-2.1 2.5-3.3 3.1-5.3 8-9.2 11.1-14.5.3-.6 1.8-.4 2.8-.6 5 0 10.3.3 10.8-6.9 0-.2.3-.4.5-.6 3.8-2.4 6.8-6.3 11.8-6.4v1.5c-1.8 2.1-3.5 4.3-5.5 6.2-1.4 1.3-3.7 1.9-4.6 3.4-1.4 2.4-2.9 4.3-5.2 6-2.3 1.6-3.9 4.2-5.8 6.3-4 4.5-8.1 9-11.9 13.6-.7.8-.7 2.3-.9 3.4-.4 2.2-2 1.2-3.1 1.4zM420.1 597c2.3-1.5 3.7-3.6 4.6-6.2 5.2-.9 8.4 3.2 12.1 5.4 3.8 2.2 6.9 5.5 10.2 8.4 1.7 1.5 3.1 4.1 5 4.4 2.8.5 1.7 3.3 3.5 4.1 2.3 1.1 1.5 3.4 1.6 5.4-.4.5-.7 1.1-1.2 1.5-1.1 1.1-2.3 2.1-3.5 3.1-1-1.2-1.8-2.5-2.9-3.6-2.7-2.9-5-6.2-7.7-8.8-4-3.9-8.2-7.9-14.3-9.3-2.4-.6-5.7-1.6-7.4-4.4z"/><path class="st3" d="M381.5 866.9c-2.3-.1-1.3-1.9-1.5-3.1 2.1-2.7 3.9-5.6 6.2-8.1 2.3-2.6 3.9-5.5 5.1-8.6s4.7-5.1 4.3-8.9c3.1-1.3 4.9-3.1 2.8-6.6 2.6-4.1 2.9-9.7 7.7-12.4 1 1.9-2.5 3.7-.1 5.7.2.1-.3 1.5-.7 1.9-.5.4-1.3.4-2 .6.7.4 2 .8 2 1.1-.2 1.7 0 3.2.8 4.6-.4.2-1.2.3-1.3.5-.4 8.1-3.4 15.3-7.9 21.9-.6 1-.5 1.9-2.1 2.3-2.5.7-4.3 2.6-5.4 5-1.4 3.6-4.1 4.8-7.9 4.1z"/><path class="st12" d="M176.4 893.1c2.3.5 2 1.9.8 3-1 .9-3.3-1.1-4 1.8-.3 1.2-1.9 2-3 3-1.5.2-2.9.3-4.4.5-1.7.3-3.5 1.3-4.9.8-2.1-.8-3.8-2.4-5.7.2-3.2-2.9-6.3-.1-9.5-.2-2.2-.1-4.3-1.9-6.4-2.9v-6.7c-1.8 1.6-3 2.7-4.2 3.8-1.8-.9-3.4-1.7-5.5-2.8 3.5-3.9 1.6-8.5 2-12.8.7-1.7 2-3 1.6-5.2s.9-3.5 3-4.1c-1 6-4 11.6-2.9 17.9 8.4 3.7 8.4 3.7 16.1 3.7h27z"/><path class="st2" d="M569.6 738.9c1-3.6 5.3.2 6-2.3.7-2.6 2.2-3.4 4.3-4.1.3-.1.4-.8.5-1.2 5.9 3.3 9.6 9 13 14.2s5.8 11.9 3.7 18.3c-1 2.9-.7 5.8-1.6 8.6-.1.3-.8.4-1.3.6-2.8-1.1-1.5-2.9-.8-4.6.3-.8.4-1.7.6-2.6-.7.3-1.8 1.1-2.1.9-1.3-1.1-2.5-2.1-2.5-4.2 0-1.6 1.6-4-1.4-4.9.6-4.8-1.2-8.6-4.8-11.7-1-.8-2.2-1.6-2.6-2.7-1.6-3.7-4.3-4.7-8.1-4.1-.8-.1-1.9-.2-2.9-.2z"/><path class="st13" d="M420.1 973.3c-1.9-.9-3.7-1.9-5.6-2.8-.5 2-1.3 3.4-4 2.9-2.3-.4-3.8-1-4.3-3.3-.3-1.4.1-3.7-.7-4.2-2.4-1.5-5.1-2.7-7.8-3.3-2.7-.5-5.6-.1-8.4-.1-1.5-2.3-2.2-4.7-1-7.9 4.3 1.7 8.5 3.3 13.3 5.2v-5c2.2-.2 4.3.1 6.2 1.5.6.5 1.2 1.5 1.8 1.5 2.2-.1 4.1.4 5.9 1.6 1.7 4.2 6.2 5.1 9.3 7.7-1.7 2-3.2 4.1-4.7 6.2z"/><path class="st7" d="M48.4 777.4c2.7-.8 4.6-3.3 7.7-3.1 2.6-1 5.1-2.1 7.7-3.1h19.3c1.8 0 3.3 0 4.8 1.6 2.1 2.3-1 3-1 4.5 0 .4-.3.9-.5 1.5-6.6.4-13.3-.1-20 1.4-4 .9-8 1.8-11.8 3.3-1.3-.7-1.9 2.9-3.4.4-.7-1.1-1.5-2.1-2.3-3.2 2.5-1.3-1.2-2-.5-3.3z"/><path d="M171.8 965.6c2.2.4 2.1 4.7 6 2.7.1-2.2-.2-5 .3-7.6 1.3-6.3 1.5-13 6.1-18.2-.5 3.9-.3 8.1-1.9 11.5-1.2 2.6-.2 5.2-1.4 7.1-1.4 2.4-.9 4.8-1.5 7.1-1.5 6.1-2.7 12.3-3.7 18.5-.8 5.3-2.8 10.4-2.4 15.8-3.2-.3-.3-3.6-2.4-4.7-.9 1-1.9 2.1-2.7 3.1-.9-1.1-1.7-2.1-2.5-3.1.5-2.1 1.2-4.1 1.5-6.2.3-2-.5-4.2.1-6 2.2-6.5 2-13.6 4.5-20z" fill="#1b1b1b"/><path d="M611.3 842.2c0 .5.2 1.2 0 1.5-.9 1.1-2.3 2-3 3.2-.8 1.4-1.1 3.1-1.6 4.6-3.9-2.2-7.6-4.7-10.4-8.2-3.3-4.1-7.4-7.3-11.6-8.8-4-1.4-7.9-3.1-11.9-4.6 0-.2.1-.5 0-.7-.6-1.6 5.6.4 1.7-3 .5-.3 1.1-.7 1.6-.8.9-.1 1.9 0 2.9 0 .5.7.9 1.5 1.6 1.9 1.5 1 3.1 2.3 4.8 2.5 1.1.1 2.3-1.6 3.4-2.4 2.7 1.5 5.6 3 8.4 4.7 2.2 1.3 4.5 2.1 5.5 5.2.7 2.2 3.6 3.5 5.1 5.5 1.7 2.2 2.2-1.3 3.5-.6z" fill="#181818"/><path class="st1" d="M151.7 1084.3c3.4 1.8 3.4 1.8 5-1.2.6-1.1 1.4-2.2 2.7-4.4v4c-.5 3.6-1.3 7.2-1.5 10.8-.1 2.7-1.2 4-3.7 4.7-1.4.3-15.1 4.5-16.4 4.6-1.8 0-3.6-.2-5.3.1-1.9.3-3.7 1-5.5 1.5l-1.5-1.5c.9-1.1 1.9-2.2 2.5-3.4.2-.5-.5-1.4-.8-2.1 1.4-2.2 5 1.4 6-2.1 4.9.2 9.2-2.5 14-3.2 1.7-.2 2.9-1.5 3-3.7.1-1.5 1-2.8 1.5-4.1z"/><path class="st16" d="M380 962.5h-19.9c-3.1 0-6.2.3-9.2-.1-2.8-.3-5.1-2.3-7.8-3.2-4.5-1.5-7.2-5.2-6.2-10.6 2.7 2.7 4.3 6.7 8.2 7.8 1-1.2 1.8-2.2 2.6-3.2 3.7-.1 7.5-.5 10.5 2.1 1.6 1.4 3 1.2 4.7.4 1.3-.6 2.8-.9 4.2-1 3.8-.1 7.6 0 11.4 0-.5 3.6 2.3 4.3 4.5 5.3-1 .9-2 1.7-3 2.5z"/><path class="st5" d="M176.4 486c.5 0 1.2-.2 1.5 0 1.6 1.2 3.4 2.2 4.5 3.8 1.3 1.9 4.5-.9 4.8 2.3-1.7.2-3.2 0-5 .9-2.5 1.2-4 2.8-2.2 4.7 1.9 2-.9 2.4-.5 3.6.5 1.6 1 3.1 1.5 4.7-3.5 1.2-5.2-2-7.7-3.1-2-2.2-1.4-5.1-1.7-8-4.4 1.1-7.9 3.7-12.1 3.3 0-.8.3-1.9-.1-2.2-2.5-1.9-.2-2.7.8-3.9 1.1 1 2.1 2 3.7 3.4 1.2-2.9 2.3-5.5 3.3-8.1 2.7-2.2 6.1-1.3 9.2-1.4zM165.6 997.9c.8 1 1.6 2 2.5 3.1.9-1 1.8-2.1 2.7-3.1 2.1 1-.8 4.3 2.4 4.7 0 1 .3 2.1 0 3-2.3 5.7-3.5 11.6-3 17.7.2 2.5-.4 4-3 4.8-1.6.4-1.8 2.2-1.6 3.8h-6.2c1-3.1 2.9-6.2 2.9-9.4.1-6.2 2.8-12.1 1.7-18.4-.3-2.2.1-4.3 1.6-6.2z"/><path class="st17" d="M48.4 777.4c-.7 1.3 3 1.9.4 3.4.8 1.1 1.6 2.1 2.3 3.2 1.5 2.5 2.2-1.2 3.4-.4 4.3 4.9 6.4 5 11.7 4.6 1-.1 2.3-.3 3 .2.8.5 1.1 2.6 1.7 2.6 1.3 0 2.7-1.2 4-1.1 1.4.1 3.8-1.6 4.3 1.4H73v6.2c-9.4-.1-17.5-4-25.6-8.1-1.7-.8-3.7-2.4-3.8-5.2 0-3.7 2-5.4 4.8-6.8z"/><path class="st9" d="M131.7 880.7c-.5 4.3 1.5 8.9-2 12.8 2.1 1.1 3.7 1.9 5.5 2.8 1.2-1.1 2.4-2.1 4.2-3.8v6.7c-8.2 1-14.4-3.8-20.5-7.8-3.1-2-7.4-3.3-8.8-7.6.3-3.1.3-3.1 4.6-3.1 0 2 1.5 1.5 2.6 1.5 4.2.2 4.2.2 6.7 3.1 1.5.3 2.9.7 4.5 1 .1-2.4.3-4.8.4-7.3 1.2.8 2 1.3 2.8 1.7z"/><path class="st7" d="M420.1 973.3c1.5-2.1 3.1-4.1 4.6-6.2 1 .7 2 1.5 2.9 2.2 6.5 4.7 13.3 8.7 21.7 8.6-1.4 2.7-3.1 4.9-6.6 4.8-.3 0-.7 1.9-1.1 2.9-5.8-1.3-10.7-4.6-15.8-7.4-2.1-1.2-3.8-3.3-5.7-4.9z"/><path class="st18" d="M63.8 771.2c-2.6 1-5.1 2.1-7.7 3.1-4.9-4.3-4.4-9 1.4-12.3 3.8-2.2 7.8-3.9 12.4-3.1 1.6-.2 2.8.3 4 1.6.9 1 2.4 1.6 3.6 2.4-1.5 1.4-4.2-.8-4.5 2.2-4.3-.7-7.1 2.6-10.7 3.7.6.8 1.1 1.6 1.5 2.4z"/><path class="st5" d="M460.1 680.3c.5.4 1.5.8 1.5 1.1-.3 2.2.2 3.6 2.7 4 .3 0 .3 1.7.5 2.6-1 .7-2 1.3-3.4 2.3 1.8 1.2 3.3 2.2 4.8 3.1-2.9 2.4-3.6 3.4-6 8.5-1-.5-2.1-1-3.1-1.5-2.7-1.5-1.3-5.7-4.5-7-.2-.1.4-2.6.9-4 1.1-3.9 4.7-5.9 6.6-9.1z"/><path class="st19" d="M347.6 953.2c-.8 1-1.6 2-2.6 3.2-3.9-1.2-5.4-5.2-8.2-7.8-.6-2.4 1.1-3.8 2.6-4.8 2.3-1.6 2-3.8 2-5.9 4.2 3.1 8.7 4.9 14.1 4.7 5.1-.2 10.1 0 15.2 0-.6.5-1.3 1.5-1.9 1.5-4.5.1-9.1-.3-13.6.2-4.4.5-9.1 1.5-10.9 6.5 1.2.8 2.3 1.6 3.3 2.4z"/><path d="M407.7 788.2c2.6-1 5.1-2.1 4.9-5.7 0-.1.8-.3 1.2-.5v6.1c0 1.8.7 4.6-.1 5.2-2.2 1.4.8 3.4-1 4.7-.3.2.1 1.7.4 2.5 1.3 4.1 1.3 8.3 0 12.4 0 .1-.5 0-.7 0-.1-4.6-.1-4.6-4.6-4.6-2 0-1.6-1.6-1.5-2.7.4-5.8.9-11.6 1.4-17.4z" fill="#393939"/><path d="M73.1 765.1c.4-2.9 3-.7 4.5-2.2-1.3-.8-2.7-1.4-3.6-2.4-1.2-1.3-2.4-1.8-4-1.6-.3-1.1-.7-2.2-1-3.4-.2-.9-.3-1.9-.5-2.8 1.8-2.1 3.5-4.2 5.1-6 2 1 3.8 2 5.7 2.9-.5 3-2.8 1-4.3 1.5-.6.3-1.3.4-1.6.5v5.5c1 .1 1.9-.1 2.4.2 2.7 1.5 5 2 8 .1 1.6-1 4.4-.5 6.1 1.4.6.6 1.1 1.2 1.7 1.8-.5.4-1 .8-1.5 1.3-3.3 3.4-8.3-.2-11.8 2.9-1 1-3.4.3-5.2.3z" fill="#323232"/><path class="st9" d="M130.1 510.6v-1.5c-.5-1-1-2.1-1.5-3.1 1.4-2.5 2.8-4.9 6.2-4.6.2.4.2 1 .5 1.3 2.2 1.7 4.7-2.4 6.9.3 2.2-1.4 4.7-2.4 6.6-4.1 2.5-2.4 4.9-2.9 7.9-1 .8.5 1.8.4 2.8.5-.2.4-.2 1.1-.5 1.3-8.6 3.2-17.3 6-25 11-1 .4-2.6-.1-3.9-.1z"/><path class="st12" d="M159.4 498.3c-.9-.2-2-.1-2.8-.5-3-1.8-5.3-1.3-7.9 1-1.9 1.7-4.4 2.8-6.6 4.1-2.2-2.7-4.7 1.4-6.9-.3-.3-.2-.4-.8-.5-1.3 3.1-4.5 8.5-4.4 12.9-6.2 2.2-.9 4.2-1.9 6.3-3 .6-.3 1.3-1.6 1.6-1.5 4.6 1.6 7.6-2.6 11.6-3.2-1.1 2.6-2.2 5.2-3.3 8.1-1.5-1.4-2.6-2.4-3.7-3.4-1 1.2-3.2 2-.8 3.9.5.4.1 1.5.1 2.3z"/><path d="M571.2 920.8c.6.5 1.2 1.4 1.8 1.5 1.4.2 2.9.1 4.3.1.6.5 1.2 1.3 2 1.5 1.4.4 3.3.1 4.1 1 1 1.1 1.4 3 1.6 4.6.3 1.7.1 3.5.1 5.3-2.3-2-5-1.5-7.7-1.5-.4-.2-1.2-.3-1.2-.5-.3-2.1-.6-3.2-2.8-1.1-.6.6-2.4.1-3.7.1 0-3-.1-5.9.1-8.9-.1-.8.9-1.4 1.4-2.1z" fill="#020202"/><path class="st23" d="M620.5 766.6c-.5-.7-1.4-1.3-1.5-2-.1-4-.1-7.9-1.2-11.9-.1.9-.1 1.8-.4 2.6-.5 1.1-1.2 2-1.8 3.1-.8 1.6-2.5-3-2.7.3-.2 3 2.7 1.1 3.9 1.9.2.1.4.4.6.6.1 2.3-1.4 3.3-3.5 3.9-1.9.5-1 2-1.2 3.1-.4-.2-1.2-.3-1.2-.5-.2-4.8-.3-9.5-.2-14.3 0-1.3.8-2.7 1.5-3.9 1.4-2.1 3-4 4.6-6 2.2 2.6 2.1 2.6 1.6 5.8-.1.5.9 1.2 1.5 1.9v15.4z"/><path class="st24" d="M571.2 814.4c-.5-2.4-1.7-1.7-3.1-.8-1.6 1-3.5 2-4.6-.7 1.8-2 3.4-4.2 5.4-6 .7-.6 1.9-.3 2.5-1.9.6-1.7 2.2-3.3 3.8-4.4 1.8-1.3-1-4.4 2.2-4.7.2 1.2-.7 2.9 1.7 3.2 1 .1 2 1 3 1.5-.3 1.1-.4 2.4-1.1 3.3-1.5 2.1-3.2 4-5 5.9-1.6 1.6-3.2 3.1-4.8 4.6z"/><path class="st3" d="M537.3 779c-1 1-1.8 2.3-2.9 3-1 .6-3-.8-3.2 1.6-5.8-.9-10.2-4.2-13.8-8.6-.4-.4-.1-1.5-.1-2.2 0-.3-.1-.5 0-.8.1-.2.4-.6.5-.5 5 2.6 5 2.6 10.3 1.3 1.5 1.3 3.4 2.3 4.5 3.9 1.1 1.8 4.3-1 4.7 2.3z"/><path class="st25" d="M528 772.8c-5.3 1.3-5.3 1.3-10.3-1.3-.1 0-.4.3-.5.5s0 .5 0 .8c-3-.5-1.3-2.8-1.5-4.2-.2-2 1.2-3 3-3.5-.3 1.3-.7 2.7-1.1 4.2 2.6 1.9 5.6 2.4 8.6-.2-.6-1-1.1-2-1.6-2.9.6-.6 1-1.1 1.4-1.1 1.9-.3 3.8.4 5.7-1.2 1.2-1 3.8-1.6 4.2 2 .1 1.2 2.4-1.6 3.9.6.5.8 3.4.1 5.2.1-.2.4-.3 1.2-.5 1.2-4.9.3-9.4 2.7-14.5 1.9-2.6-.4-1.9 1.7-2 3.1z"/><path class="st26" d="M407.7 808.3c4.6.1 4.6.1 4.6 4.6-2.5 1.7-1.8 3.9-.8 6.1.4 1.1 1.2 2.9.8 3.3-3.2 2.9-2.5 8-6.1 10.6-.8-1.4-1-2.9-.8-4.6 0-.3-1.3-.7-2-1.1.7-.2 1.6-.2 2-.6.5-.4.9-1.7.7-1.9-2.5-2 1-3.8.1-5.7.2-1.3-2.7-2.5 0-3.9.5-.3 1.1-1.8.9-1.9-2.7-2.1.7-3.3.6-4.9z"/><path class="st11" d="M380 962.5l3-2.4c-2.2-1-5-1.8-4.5-5.3 1.5 0 3.3.5 4.5-.1 5.7-2.7 11.7-.9 17.5-1.4.3 0 .8 1 1.2 1.5v5c-4.8-1.9-9-3.5-13.3-5.2-1.2 3.2-.5 5.6 1 7.9H380z"/><path d="M588.1 757.4c3 .9 1.4 3.3 1.4 4.9 0 2.1 1.2 3.2 2.5 4.2.3.2 1.4-.6 2.1-.9-.2.9-.3 1.8-.6 2.6-.7 1.7-1.9 3.5.8 4.6 0 3.4.6 7.1-3.1 9.3-1.3 0-2.6-2.6-4 0-.2.3-1.4 0-2.2 0 2.7-8.1 3.7-16.3 3.1-24.7z" fill="#1c1c1c"/><path class="st1" d="M552.7 1041.1v-2.3c-.1-2.1.3-3 2.3-1.1.1.1 2.1-1.7 3.6-3 .1 2.4.1 4.6.4 6.8.1.5 1 .8 1.5 1.2.4 2.1-.2 4.2.7 6.5.6 1.5-1.4 3.9-2.2 5.9-6.2-3-5.1-9-6.3-14z"/><path class="st10" d="M264.3 908.5c1.3 1 2.7 1.9 4 2.9.7-.7 1.6-1.3 2.1-2.2.2-.5-.3-1.3-.5-2-2.7 1.9-3.6.4-4.1-2.1-.4-2.1 1.1-3.1 2.7-4.4.3 1.6.5 3 .7 4.4.2 0 .4.1.7.1.3-1.8.6-3.7.9-5.5 2.5-.4 5-.5 7.3-1.1 3.3-1 .9 1.7 1.6 2.3h-7.3c-1 5-.4 9.5 1.2 13.9-2.5 1.1-4.2 4.3-7.7 3.1-2.3-2.9-1.5-6.3-1.6-9.4z"/><path class="st1" d="M302.9 900.8c-2.9.6-4-1.1-2.9-3.2 1-2 1.4-3.9 1.4-6.1 1.1.5 2.1 1.3 3.2 1.5 1.7.2 3.6-.1 5.3.1 1.8.3 3.6 1 5.4 1.5v3.1c-1.5 2.4-3.7 3.2-6.4 3.1-2.1-.1-4.1 0-6 0zM563.5 1072h-4.6c-2.2-3.7-3.9-10.8-2.8-13.3.4-.9 1.8-1.5 2.8-2.2 1.5 1.8 3.7 3.5 4.5 5.6.9 2.3 3.6 5 .2 7.7-.4.3-.1 1.4-.1 2.2z"/><path class="st11" d="M128.6 506c.5 1 1 2.1 1.5 3.1-5 .2-8 4.1-11.8 6.4-.2.1-.5.4-.5.6-.5 7.2-5.8 6.8-10.8 6.9 5-7.6 12.7-12.1 20.1-16.9.3-.3 1-.1 1.5-.1z"/><path class="st24" d="M498.7 920.8h-2.2c-1.3.1-3.2-.6-1.3 2.1.8 1.2-1.8 2.2-4.1 1v-12.3c1.8-1.5 3.9-1.7 6.2-1.5.4 3.5.9 7.1 1.4 10.7z"/><path class="st1" d="M585.1 782c.7 0 2 .3 2.2 0 1.4-2.5 2.7.1 4 0-.5.8-1.6 1.6-1.5 2.3.7 4.8-2.5 8-4.7 11.5-3.6-1.7-.9-3.8-.2-6.2h-4.5c.6-3 1.2-6.2 4.7-7.6z"/><path d="M578.9 825.2c-1 0-2-.1-2.9 0-.6.1-1.1.5-1.6.8 3.9 3.4-2.2 1.4-1.7 3 .1.2 0 .5 0 .7-1.3-.5-2.6-1.1-4-1.5-3.1-.9-6-2.4-8.4-4.6 1.6-1.5 3.1-3.1 4.7-4.6.3-.2.9 0 1.4 0 0 .8-.3 2 0 2.2 1.6 1 3.3 2 5 2.3 1.9.4 4 0 6 .2.7.1 1.1 1 1.5 1.5z" fill="#515151"/><path class="st19" d="M350.7 931.6c-1.6-2-1.4-5.4-4.6-6.2.6-.5 1.3-1 1.9-1.6.5-.4.8-1 1.2-1.5 3.2 2 6.3 5.4 10.4 1.5 2.1.8 5.1-1.8 6.6 1.5-.2.4-.3 1.2-.5 1.3-5.6.4-10.3 2.6-15 5z"/><path d="M669.9 737.3c1.8-.5 3.5-1.6 2.9-3.6-.3-1.1-2-1.9-3.3-2.5-1-.5-2.7.5-2.7-1.6 1.6-.5 3.2-1 4.2-1.3 2 2 4 4 6.6 6.5v5.6c-1.3 0-2.5-2.4-4.1-.1-.4.6-2.4.1-3.6.1v-3.1z" fill="#1f1f1f"/><path class="st11" d="M80.8 556.9c.9 2.1 3.3 4.5.4 6.5-3.8 2.6-3.7 6.2-3.4 10.5h-6.2c2.6-5.3 5.1-10.5 7.7-15.8.2-.5 1-.8 1.5-1.2z"/><path d="M497.2 910c-2.2-.2-4.3.1-6.2 1.5h-1.5c2.4-5.9 6-11.3 6.5-18 0-.2.8-.4 1.3-.5-.1 5.7-.1 11.4-.1 17z" fill="#545454"/><path class="st25" d="M133.2 1095.1c-1 3.6-4.6 0-6 2.1.3.7 1 1.7.8 2.1-.6 1.3-1.7 2.3-2.5 3.4-3.4-1.9-7.2-1.9-10.8-3.1.4-2.9 2.7-1 4.1-1.7 4.5-2.3 9.4-3 14.4-2.8z"/><path class="st18" d="M580.4 789.8h4.5c-.7 2.4-3.4 4.5.2 6.2-1 1.5-2.1 3.1-3.1 4.6-1-.5-1.9-1.4-3-1.5-2.4-.2-1.5-1.9-1.7-3.2.5-1.7.9-3.4 1.6-5.1.2-.4 1-.7 1.5-1z"/><path class="st6" d="M634.4 1116.7c-2.8-1.1-1.4-2.9-.8-4.7.6-1.9 4.8-1.7 2.8-4.8-1.1-1.7.6-4.2-2-5.3-.3-.1 0-1.4 0-2.2 2-.5 3.9.6 4.3 2.1.6 2.9.9 6.1.2 8.9-.7 2.2-1.3 5.3-4.5 6z"/><path class="st8" d="M571.2 920.8c-.5.6-1.4 1.2-1.5 1.9-.2 3-.1 5.9-.1 8.9-3.4 2-4.7 2.1-9.3.7-.7-.2-1.6-.9-2-.6-5 3.2-10.6 0-15.5 1.6-6.5 2.1-13 .9-19.4 1.4-2.6.5-.9-5.1-4.5-3.2-.2.1-1.1-1.1-1.6-1.6.7-.4 1.3-1 2.1-1.3 1.3-.6 3.6 1.4 4.1-1.6 4-.2 8.2.1 12-.7 1.7-.4 3.6-.1 4.9-.9 1.9-1.2 3.2-.5 5 0 1.4.4 3.4.7 4.5 0 3.5-2.3 7.3-1.1 11-1.4 2.4-.2 4.9-.2 7.3-.3v-9l2.4 3c.4-.4 1-.9 1.6-1.5.3 1.7 1.8 3.6-1 4.6z"/><path class="st31" d="M523.4 927c-.5 2.9-2.8 1-4.1 1.6-.7.3-1.4.9-2.1 1.3.6.6 1.4 1.8 1.6 1.6 3.7-1.9 2 3.7 4.5 3.2-.6.5-1.2 1.4-1.9 1.5-1.9.2-3.9.1-5.9.1-.6-2-1.2-4-1.9-6.2-2.7 0-5.2.1-7.7-.1-.4 0-.8-1-1.2-1.5 6.3-.5 12.5-1 18.7-1.5z"/><path d="M548 985.6c-.6.3-1.2.8-1.8 1-2.3 1-4 1.5-4.7-2-.6-3.4-2.1-6.6-3-9.4-1.7.5-3 .8-4.3 1.2v-4.8c3.6.5 5.3 2.1 6.9 4.7 2 3.2 4.6 6.2 6.9 9.3z" fill="#3a3a3a"/><path class="st33" d="M588.1 1002.6c1 0 2.1-.1 3.1.1.6.1 1.2.7 1.6 1.2 1.1 1.3-2.7 2.3-.5 3.3 1.3.6 2.1.7 2.1 2.3 0 .6.9 1.1 1.6 1.9-2.1 1.7-4.2 3.5-6.3 5.2-.5-2.3-1.2-4.6-1.5-7-.3-2.4-.1-4.7-.1-7z"/><path class="st17" d="M433.9 1112.1c.1-5.2.4-5.5 4.6-6.2 1.4-.2 3.3.2 4.2-.6 2-1.6 1.7-.3 2 1 .4 1.8 2 .9 3.1 1.1-3.3 2.1-10.1 4.4-13.9 4.7z"/><path class="st10" d="M268.9 925.5c-7.2 0-14.4.2-21.5 0-8.8-.3-17.4 2.6-26.3 1.6 2.2-2.2 5-4 4.6-7.7.7-.5 1.3-1.4 2-1.5 3.6-.1 7.3-.6 10.7.1 3.5.7 6.7-3 10.4-.3.8.6 3.5-1.8 4.5-1.2 4.1 2.3 8.3 1 12.5 1.4-.2 1.6.1 3 1.5 3.9 1.6.7 1.8 2.1 1.6 3.7z"/><path class="st17" d="M248.9 1121.3c2.7 0 5.3-.3 7.8 1.5 1.3.9 3 1.4 4.6 1.5 2.5.2 5.1.1 7.6.1-.6 2.2-2 3-4.4 3.2-1.8.1-2.4-3-4.5-1.2-1.1.9-2.3 1.8-3.4 2.7-2.6-2.7-5.1-5.2-7.7-7.8z"/><path class="st18" d="M424.7 728.1c1.4 4.3 6.4 3.5 8.9 6.2.6.6 1.2 1 1.9 1.6-.9.2-2.7.2-2.7.5-.3 2.2-1.4 2.5-3.4 2.7-1.1.1-2.1 1.9-3.1 2.9-3.6-2.2-5.3-2.5-8.7-1.6-1.1.3-2.4 0-3.7 0 0-.7-.2-2.1 0-2.1 3.2-1 3.3-3.4 3.1-6.1-.1-1.1-.5-2.6 1.5-2.6.9-.2 1.9-.3 2.8-.5 1.2-.3 2.3-.7 3.4-1z"/><path class="st19" d="M361.5 580c.5.4 1.4.7 1.5 1.1.1 2.2.3 4.5 0 6.7-.2 2-1 4-1.5 6.1-1.1 4.3 1.7 8.1 1.5 12.3-.5.7-1.5 1.3-1.5 2-.1 2.4-1 3.8-3.9 4.3-2-4.1-4-8.3-3.9-13.3.1-3.8 0-7.7 0-11.5 1.2 1.4 2.3 2.8 3.7 4.5 1.7-1 2.7-2.2 2.5-4.5-.1-2.6-.5-5.4 1.6-7.7zM336.8 567.7c0-2 1.6-1.4 2.7-1.6 3.2-.6 6.7-.9 8.1-4.6.5.6 1.4 1.2 1.5 1.9.2 2.4.1 4.9.1 7.4-2.9 3.1-6.9 3.8-10.8 4.6-.1-1.3 2.5-2.4.1-4-1-.6-1.2-2.4-1.7-3.7z"/><path class="st16" d="M114.7 748.1c-.7 0-2-.3-2.2 0-1.9 3-3.7.7-5.5 0-1.6-3.2-3.7-5.4-7.6-4.6-4 .8-6-1.6-8-4.3 1.1-2.3 2.2-4.4 3.2-6.5 2.7.2 5.3-.4 7.7 2 1.7 1.6 4.8 2.1 7.3 2.6 6.5 1.2 12.8 3.2 19.5 3.2 9.3.1 18.6.8 27.9 1.5 2.1.2 4.1 1.2 7 2.1-.7-4 1.3-7.2-1.3-10.7-.7-.9.8-3.5 1.3-5.3l7.2-1.3c.2.4.4.9.5 1.3-.2 1.6.8 2.7 1.3 4 .5 1.1-1 3-1.3 4.6-.4 2.4-.2 4.8 1.5 6.9.3 3.2 3.8.2 4.4 2-1 1-2.3 1.8-2.8 2.9-1.3 3.1-3.7 2.9-6.2 2.8-8-.6-16 1.2-23.9-1.4-3-1-6.6 0-9.9-.2-3.1-.2-6.2-1-9.3-1.5-3-.2-6.3.8-9-1.5-.1-.1-1.2.9-1.8 1.4z"/><path class="st12" d="M80.8 667.9c-3.6.3-7.3-.7-10.8 1.4-1.7 1-4.3.1-6.1-1.4-.5-1.5-1-3.1-1.5-4.6 5.3-1.1 10.5-2.5 15.3-5.2 1.7-1 8.1 0 9.4 1.4.4.4.1 1.5.1 2.2s.2 2 0 2.1c-1.9.8-3.2 2.1-4 4-.4.4-1.7.1-2.4.1z"/><path class="st34" d="M407.7 956.3c.5-.8 1.5-1.7 1.5-2.4-.9-8.6 4.4-17.2.4-25.8 1.7-3.8 1.6-8.4 4.4-11.8 1.3.1 3.3-.7 3.1 1.9-.2 2.3.9 3.7 3.1 4.3-.8 2.1-3.1 4.1-.5 6.6.4.4 0 1.7-.1 2.5-.3 1.6-1.1 3.4-.8 4.9.9 6.3-2 12.1-1.7 18.3.1 1.5-.9 3.1-1.5 4.7-1.8-1.3-3.7-1.7-5.9-1.6-.8-.1-1.4-1.1-2-1.6z"/><path class="st35" d="M327.5 890c-2.2-7-7-13.3-6.2-21.3.1-.8-1-1.6-1.3-2.5-.9-2.5-2.2-4.8-1.8-7.8.2-1.2-.9-2.6-1.4-4 3.1-1 6.2-2.1 9.3-3.1.5 5.1 1 10.2 1.6 15.3.1.9 1 1.6 1.4 2.4.3.5 3.3 14.1 3.1 14.6-.5 1.6-1 3.1-1.5 4.7-1.1.7-2.1 1.2-3.2 1.7z"/><path class="st5" d="M287.4 532.2c.5.7 1.3 1.3 1.5 2 .3 1.7-.3 4.6.5 5 2.6 1.3-1.9 3.1.6 4.1.4.2.7 1.6.5 2-2.9 3.6-1.8 8-1.1 11.7.5 2.6.4 5.5 1.4 7.8 1.3 3.1.2 4.8-1.6 6.6-.6.6-2.2 1.2-2.6.9-3-2.3-6.9-1-10.1-3.7-4.6-3.7-10.7-4.9-16.7-3.8-2.2.4-4.1 2.5-6 3.7-1.4 6.1 1.8 10.8 4.4 15.8 3.3 6.3 5.6 5.6 10.8 4.3 4.6-1.2 6.3-.4 6.2 4-.1 3.4 1.4 7.1-1.4 10.2-.4.4-.3 1.6 0 2.2 2.2 4 2.1 7.8 0 11.9-.5 1 .4 2.7-.2 3.8-1.4 2.7 3.2 4.4.9 7.6-1.3 1.7-.5 4.8-.8 7.3-.4 3.6-1 7.3-1.5 10.9.9 1.1 2.2 2.2 2.5 3.4.2 1.3-.6 2.9-.9 4.4-.1.5 0 1 0 1.5-1.6 3.4-.2 8.3-5.7 9.8-1.1.3-1.7 3.2-2 5-.3 2.2-.1 4.5-.1 6.8-2.2-.2-4.3.1-6.2 1.5-.5-1.8-2-4.3-1.3-5.4 2.8-4.6.7-9.5 1.2-14.1.2-2.1-1.3-3.6-3.8-3.6h-10c-.2-1.5 0-2.9 1.5-3.8-2.6-1.3.2-2.6 0-3.9 1.6.3 2.3-3.2 4.5-1 1.8 1.7 4 1.2 6.2.3 1.5-.6 3.1-1 4.4-1.4.9-3.9-1.1-7.8 1.7-11.3.5-.6-.3-2.3-.6-3.5-.2-.9-.7-1.8-.6-2.6 1.3-6.3 1.3-6.2-.1-12-.3-1.1-.3-2.9.3-3.5 2.4-2.4-.3-5.6 1.6-7.9 2.1-2.6.4-5.2 1.1-8-2.2 0-3.7-.1-5.3 0-2.1.1-3.7-.3-5.4-2-7.3-7.1-9.6-12.5-10.2-24.1-.1-2.7 0-5.3.9-7.7.6-1.7 2.7-2.9 4.1-4.3 1.9 2.1 3.1-1 5.1-.7 1.8.3 3.9-1.3 6-2 6.1-2.1 10-.9 13.9 4.1.4.5 1 1 1.5 1.2.9.4 2.1 1 2.9.8.7-.2 1.5-1.4 1.6-2.3.2-2.3.3-4.6 0-6.9-.3-2.9 1.2-6.1-1-8.8-2-2.5-5.1-.3-7.1-1.4-2.5-1.4-4.3-2.4-6.5.1-.2.3-1.2.2-1.5 0-2.2-2.7-5.3-1.5-7.9-1.4-3.4.1-6.8 1.1-10.2 1.4-3.6.3-7.2 0-10.8.1-.4 0-.8.6-1.2.7-.5.1-1.4.2-1.6 0-1.5-2.6-4.3-4.7-2.4-8.5 1.3-2.5 2.5-5.6 2.1-8.2-.3-2.6-1-5.6-2.8-8.1-.6-.8-.1-2.3-.1-3.2-8.1-2.1-13.7.5-18.7 6.3-2.8 3.3-3.8 6.2-2.2 10.1.4.9.8 1.8.8 2.7.1 6.1 5.1 8.8 8.5 12.7 4.3-.9 4.3 2.7 5.4 5.1-3.4 5.8-9.8 3.7-14.5 5.7-2.2-2.7-5.2-1.3-7.8-1.5-3.3-.2-6.7 0-10 0-1.5-2.6-3.1-5.1-4.6-7.7 1.3-.5 2.6-1.2 4-1.5 4-.8 7.9.5 11.3 2.4 2.5 1.4 3.2 0 4.3-1.2 1.2-1.3.1-2.2-.7-3.2-3.2-3.6-5.8-7.4-5-12.6.1-.8-.8-1.7-.9-2.7-.3-1.7-1.1-3.8-.4-5.1 3.9-7.1 7.8-14.3 15.8-17.8 4.3-1.9 9.3-2.1 15.7 0 5.6 1.9 7 3.4 6.9 8.3-.1 4.3.2 8.5 3.7 11.5 1.2 1.1 0 1.4-.2 2.2-.4 1.3-.1 2.8-.1 4.5 5-1.4 10.1 1.5 14.4-1.8 1.2 1.9 3.1 1.4 4.8 1.5 6.9.3 13.7.5 20.6.8v-.8c2.4.1 4.5-.2 6.3-1.7z"/><path class="st19" d="M437 640.2c4.2.2 8-2.7 12.3-1.5.5 2.6 1 5.1 1.5 7.7-1.1.3-2.2.7-3.4 1-.9.2-1.9.3-2.8.5-.5-1-.9-2.1-1.6-3.1-.4-.6-1.2-1.2-1.9-1.5-1-.4-1.2 2.2-2.8.8-1.1-1.2-1.5-2.4-1.3-3.9z"/><path class="st5" d="M355.3 916.2h20.6c1.7 0 3.2.1 4.9 1.2 1.3.9 2.5 1 2.3 2.9-.2 2.1-1.3 3.1-3.1 3.6-.5.1-1 0-1.5 0-2.3 0-4.6-.2-6.9.1-1.9.2-3.7 1-5.5 1.5-1.5-3.4-4.5-.8-6.6-1.5-4.1 3.8-7.1.5-10.4-1.5.2-.4.3-1.2.5-1.2 1.7-.2 3.4-.3 5.6-.5.1-1.7.1-3.1.1-4.6z"/><path class="st19" d="M367.6 905.4c-.2.4-.3 1.2-.5 1.3-6.1 1.4-11.1 5.1-16.4 8-.4-.2-.9-.4-1.3-.5 1.4-1.1 2.8-2.1 4.2-3.2-2.4-2.3-.1-3 1.3-4 1.2-.8 2.6-1.4 3.5-2.5 1.2-1.4 2.2 2.1 3.4 0 .2-.3 2.3.6 3.5.9.8.1 1.6 0 2.3 0z"/><path class="st3" d="M103.9 576.9c.8 1.1 1.6 2.1 2.4 3.2 2.8 3.3 5.9 4 10 2.2 7.1-3.1 9.5-9.6 6.8-17.9-1-3.2-2.7-6.2-2.3-9.9.2-2.1 1.3-3.4 3-3.8 3.8-.7 7.8-1.2 11.7-1.6 4.9-.6 9.8-1.2 14.8-1.5 5.1-.3 10.3-.1 15.4-.1-.7.5-1.3 1.5-2 1.5-4.9.1-9.8 0-14.6.1-4.3.1-4.9 1.1-4.2 6.1 4 .1 8 .6 11.5-2.1.4-.3 1.1-.2 1.6-.3-1 3 3.5 1.5 3.2 3.9-2.8 0-5.6-.2-8.4 0-2.6.2-5.2-.7-8 1.2-1.4 1-4.8 1.2-7.1-.8-.8-.7-2.4-.5-3.6-.5-2.3.1-3.9 1.4-3.7 3.7.3 3.1-1 6.2 1.2 9.5 1.1 1.7 1.5 5.4-1.2 7.7-.4.4-.4 1.3-.6 2-2.7 7.9-8.2 11.7-16.6 11h-.8c-2.4.2-4.6 3.4-7.3.3-3.4-4.1-8.6-6.9-8.8-13.3-.1-2.4-1-4.7-1.5-7 3 2.4 7.1 3.5 8.7 7.5.2-.2.4-.3.5-.5 0 0-.1-.3-.1-.6z"/><path class="st7" d="M168.7 849.9c-1.5 2.7-5.8 1.2-6.8 4.5-.4-.3-.7-.7-1.1-.8-1.5-.6-3.1-1.1-4.7-1.6-2.2-.7-4.5-1.4-6.7-2-2.2 3.2-6.1 4.7-7.1 9.3-1 4.3-2.2 9-5.9 12.3-2.1.6-3.5 1.9-3 4.1.4 2.2-.9 3.5-1.6 5.2-.8-.5-1.6-.9-2.8-1.6-.1 2.5-.3 4.9-.4 7.3-1.5-.4-3-.7-4.5-1-.3-3 .9-5.8 1.4-8.6s1.9-4.9 2.9-7.3c3.1-7.7 7.2-15 11.2-22.2.6-1.1 1.6-1.9 2.6-3 .1.1-.1-.4-.5-.6-7.8-5.3-9.9-14.2-14.1-21.8.8-5.6-3-10.1-3.8-15.4-.8-5.2-1-11.2-5.3-15.4-.6-.5-.9-2.3-.5-2.7 2.6-2.5.7-5.1-.2-7.2-1.5-3.1-1.4-6.2-1.4-9.4v-20.7c0-1.1.6-2.7-1.5-2.8.6-.5 1.7-1.6 1.8-1.5 2.7 2.3 6 1.3 9 1.5-.2 3.5.7 7.6-.8 10.4-2.1 4 .9 6.6.8 9.8-.1 6.2-.7 12.4 3 18 .4.5.2 1.5 0 2.3-.7 3.1.8 5.8 1.7 8.6 1.6 5.5 2.8 11.1 4.4 16.6 3.1 10.8 4.1 15.8 13.7 24.2 3.1 2.8 6.4 5 10.6 6.1 3.4.9 6.5 2.8 9.8 4.2-.2.2-.2.7-.2 1.2zM171.8 547.6c-.5-1.3-1.8-3-1.4-3.9 1.7-3.3 1.6-6.8 1.3-10.2s1.4-7.1-1.5-10.1c2.2-3.7 1.5-7.7 1.5-11.6 0-2.6-.1-5.1.1-7.7 0-.4 1-.8 1.5-1.2 2.5 1.1 4.2 4.3 7.7 3.1-2.9 13.8-1 27.8-1.5 41.6h-7.7z"/><path class="st2" d="M363 752.7c2.4-.4 3.8.8 4.6 2.9 1.9 4.9 2.2 16.4.5 22-.1.5-.5.9-.5 1.3 1.1 5.6-1.8 10.8-1.5 16.3.2 3.3-.5 6.4-1.6 9.4-4.5 11.8-9.6 23.2-18.7 32.3-.3.3-.9.4-1.3.6-.5-2.6-1-5.1-1.5-7.7.4-1.1.5-2.4 1.1-3.3 2.1-3 5.1-5.6 6.4-8.8 1.6-3.9 3.9-7.8 4.6-11.8.8-4.5 2.4-8.8 3.2-13.2.6-3.5-.1-7.1.2-10.7.3-3.6 1.3-7.2 1.4-10.8.3-5.6.1-11.2.1-16.8 0-2.4 1.8-1.4 3-1.7z"/><path class="st13" d="M342.9 829.8c.5 2.6 1 5.1 1.5 7.7-3.9 7.1-9.9 11.6-18.5 13.9-3.1 1-6.2 2.1-9.3 3.1h-13.9c.2-.9.3-2.7.5-2.7 3.7-.3 2.3-3.1 2.6-5 5.3 1.2 10.2-1.3 15.3-1.8 2.7-.3 5.2-3.3 7.7-5.1.4-.3.8-.9 1.2-.8 4.1.6 6.2-1.3 7.9-4.9 1-1.8 3.4-2.9 5-4.4z"/><path class="st4" d="M418.5 729.6c-2 0-1.6 1.5-1.5 2.6.2 2.7.1 5.1-3.1 6.1-.2.1 0 1.4 0 2.1h-3.8c-2.7 0-5.2-.2-7.4 2.4-1.1 1.4-3.8 1.5-5.8 2.2-4-.8-5.4-2.2-6.2-6.2 4.9-2.3 9.6-5.1 15.1-6.3 2.2-.5 4.1-2.3 6.2-3.4 1-.5 2.2-.7 3.4-1.1 1.2.3 3-.7 3.1 1.6z"/><path class="st0" d="M418.5 729.6c-.1-2.3-1.9-1.3-3.1-1.5l-2.7-2.7c-1.5 2.6-2.2-.7-3.5-.5-2 .4-4.1.1-6.1.1.3-.6.7-1.2 1-1.8.1-.2.5-.4.5-.5 0-.2-.3-.3-.3-.3-4.2-.7-8.1-1.3-12-2 0-2.1 1.6-1.2 2.7-1.6.7-.2 1.3-1 2-1.5.6-.5 1.3-1.5 1.9-1.5 4.3-.1 8.5-.3 12.8 0 2.2.2 3.7-.8 5.4-1.6.5.8.9 1.6 1.6 2.7-3 .6-6 1.2-9 1.9-2.1.5-3.5 1.5-3.2 4.5 3.9.1 7.6.5 11.3-1.4.5-.2 1.5.6 2.3.9-.4.5-.8 1-1.8 2.1 2.1 0 3.6-.2 5 .1 1.6.3 3.1 1 4.7 1.5-.1 2.3-1.9 1.3-3.1 1.5-1.1.3-2.2.7-3.4 1-1.1.3-2 .4-3 .6z"/><path class="st36" d="M396.9 717.3c-.6.5-1.2 1.2-2 1.5-1 .3-2.7-.5-2.7 1.6-2.2 1.7-4.8 1.6-7.7 1.5v4.7c-3.5 1 0 4.1-2.9 6.1-1.8.4-4.9 1-7.9 1.6.1-1.3-.7-3.1 1.9-3.2.4 0 1.3-1.7 1.1-2.1-.8-1.6-1.3.1-2 .4-1.2.4-2.4.6-2.6-1.3 2.2-2.7 2.7-5.4 1.5-7.7 3.4 0 6.8.3 10.1-1.5 4.2-2.4 8.8-1.6 13.2-1.6z"/><path d="M372.2 728.1c.1 1.9 1.3 1.7 2.6 1.3.7-.2 1.2-2 2-.4.2.4-.7 2.1-1.1 2.1-2.6.1-1.7 1.9-1.9 3.2-.4.6-.6 1.6-1.1 1.8-3.8 1.4-5.8 4.6-8.2 7.5-1-1.5-2.1-3.1-3.1-4.6-1.2-3.5 2-5.2 3.1-7.7l1.5-1.5c1.1-.3 2.2-.7 3.4-1 1-.4 1.9-.6 2.8-.7z" fill="#353535"/><path class="st4" d="M384.6 726.5v-4.7c2.9.1 5.6.2 7.7-1.5 3.9.6 7.9 1.3 12 2 0 0 .3.2.3.3 0 .2-.3.3-.5.5-.4.6-.7 1.2-1 1.8-2.1.5-4.1 1.2-6.2 1.5-1.9.3-4-.6-5.5 1.5-.1.2-1.5-.1-1.9-.5-1.4-1.5-3.3-.6-4.9-.9z"/><path class="st0" d="M390.8 738.9c.8 4 2.2 5.4 6.2 6.2-.4.5-.8 1.5-1.2 1.5-2.6-.2-4.9.1-6.6 2.4-1.4 1.8-3 .6-3.5-.7-.7-1.7-1.4-4.2-.7-5.5 1.1-2 2.6-4.6 5.8-3.9z"/><path d="M361.5 738.9c1 1.5 2.1 3.1 3.1 4.6-2.3 2.8-1.4 6.1-1.5 9.3-1.2.2-3-.8-3.1 1.5-.3 0-.7.1-.7 0-1.8-5.7-1.2-9.9 2.2-15.4z" fill="#6e6e6e"/><path class="st9" d="M437 640.2c-.2 1.6.2 2.8 1.5 3.9 1.6 1.4 1.8-1.2 2.8-.8.7.3 1.4.9 1.9 1.5.7.9 1.1 2 1.6 3.1-11.5 0-23-.2-34.5.1-11.3.3-22.5.9-33.8 1.6-1.8.1-3.6 1.1-5.8 1.9.6 5.6-.9 10.8-2.8 16 0 .1.3.4.5.5s.5 0 .8 0c1.8 2.3 1.9 4.3-.7 6.1-.3.2-.4.7-.6 1.1.4.2.9.4 1.3.5-.6 1.8-1.5 3.1-3.7 3.1-2.8 0-3.9 1.4-4.1 4.2-.1 2-2.8 2.6-4.3 1.4-2.6-2.1-3.9-6.4-2.8-10 .3-.9 1-1.8 1-2.7.1-6.8 0-13.7 0-21.3-4 .8-7.3 1.8-10.6 2-5.6.3-11.3 0-16.9.1-2 .1-3.3-.7-4.6-2-3.7-4-4.2-6.3-1.8-11 .5-1.1.8-2.3 1.6-3.1 1.4-1.5 2.2-2.6.3-4.4-.5-.5-.5-1.9-.4-2.9.2-2.4-1.2-4-2.2-6.1-1.4-2.8-3.5-4.2-5.6-6 .8-2.6 1.6-5.1 2.4-7.7 0-.1.5 0 .7 0 7.1 3.7 11.5 10.4 14.7 18.7.4 1-.8 2.4-.8 3.7.1 5.8.2 5.8-1.6 9.6-.2.4.1.9.3 2 7.6-.8 15.4 1.2 23.1-1.2 2.7 1.5 5.2 1.2 7.8-.4.3-.2 1.4.8 2.7 1.6 0-2.5-.2-4.5 0-6.5.3-2.9-1.1-6.1 1.5-8.6-1-2.5-1.8-5-1.6-7.8.1-2.6 1.8-1.9 3.2-2 0 5.2 0 5.1 4.1 9.6.5.6.4 1.8.6 2.8-.2 1.7.4 3.4-1 5-1.2 1.4-1 3.1.5 4.7 1.5 1.5 3 1.4 4.7.7.9-.4 1.7-1 2.6-1.1 2-.2 4.1-.1 6.1-.1s4.1.1 6.1 0c1.8-.2 4-1.5 5.2-.8 2.2 1.2 3.2-1.4 5.2-.8 1.9.6 4 .1 6.1.1H426c2 0 4.1-.2 6.1.1 1.8.3 3.3 1.1 4.9 1.6z"/><path class="st2" d="M369.2 675.6c-.4-.2-.9-.4-1.3-.5.2-.4.3-.9.6-1.1 2.6-1.8 2.4-3.9.7-6.1.3 0 .6.1.8 0 2.5-1.5 4.3-3.9 8.2-1.8 2.3 1.3 5.2.8 6.7 4.1.9 1.9 3.9 2.8 5.6 4.5 2 1.9 1.4 2.1 2.6 6.9.5 1.9-3 4 .5 5.4-.2.4-.3 1-.5 1-5.2.7-5.6 7-10 8.8-1.5.6-2.5 1.9-4.5 2.3-3.2.6-4 3.6-4.9 6.5-.8 2.8 3.4 4.4.9 7.6-1.3 1.6-.5 4.8-.7 7.3 1.2 2.3.6 5-1.5 7.7-.9.2-1.9.3-2.8.5-1.1.3-2.2.7-3.4 1 .4-2.6.1-4.9-3.1-5.4v-.7c2.5-5.4 3.7-13.9 3.1-21.2-.5-6-.3-7.3 4.7-8.7 4.5-1.2 7.3-4.6 11-6.8 3.8-2.3 3.9-4.3 1.2-8-1.3-1.8-3.3-3.7-5.3-4.4-1.9-.7-4.5-1-6.2 1.3-.5.2-1.7-.2-2.4-.2z"/><path class="st4" d="M427.8 726.5c-1.6-.5-3.1-1.2-4.7-1.5-1.4-.3-2.9-.1-5-.1 1-1.1 1.4-1.6 1.8-2.1-.8-.3-1.8-1.1-2.3-.9-3.7 1.9-7.5 1.5-11.3 1.4-.3-3 1.2-4 3.2-4.5 3-.7 6-1.3 9-1.9-.6-1.1-1.1-1.9-1.6-2.7 1.5 0 3 .1 4.5 0 6.3-.5 10.9 1.4 12.6 8.7-1.4.2-2.8.1-3.9.7-1 .5-1.6 1.9-2.3 2.9z"/><path class="st10" d="M273.6 655.6c0-.5-.1-1 0-1.5.3-1.5 1.2-3 .9-4.4-.2-1.2-1.6-2.3-2.5-3.4h21.6c-1-1.9-1.3-3.7-2.4-4.6-5-4.1-5.9-9.5-5.3-15.5h4.5c-2.2 5.4-2.2 5.4 3.2 8 0-3.2-.1-6.2.1-9.1 0-.7 1-1.3 1.5-1.9v9.2c0 1 0 2.1.5 2.8 2.2 3 4.3 6.3 7.1 8.5 2.4 1.8 4 3.6 4.7 6.1-2.2 3.3-4.8 4.8-8.5 4.3-2.3-.3-4.6-.1-6.9 0-6.2.1-12.5-.8-18.5 1.5z"/><path class="st2" d="M295.1 623.2c-.5.6-1.4 1.3-1.5 1.9-.2 2.9-.1 5.9-.1 9.1-5.4-2.6-5.4-2.6-3.2-8h-4.5c-.1-6.2 3.1-11.1 7.7-14.4 4.2-3 9.4-4.5 14.1-6.7 3 2.8 8.7-1.5 10.5 4.1-.2 0-.7-.1-.7 0-.8 2.6-1.6 5.1-2.4 7.7-2-.8-4-2.1-6-2.3s-4.1 1.1-6.2 1.4c-2.6.4-2.9 3.2-5 4.1-1 .6-1.7 2.1-2.7 3.1z"/><path class="st8" d="M372.2 630.9c-.2-.9 0-2.2-.6-2.8-4-4.4-4.1-4.4-4.1-9.6.2-.4.4-1.3.5-1.2 4.1.5 7.3-2 10.8-3.4 4.6-1.8 6.2-6 7.1-10.4.1-.5-.9-1.3-1.5-1.9 1-.7 2.3-1.3 2.9-2.3.7-1.1.7-2.6 1-3.9 0-.1.5 0 .7 0 4.2 3.2 4.2 3.2 6.2 7.3.5 1 1.3 2.2 1.1 3-.6 2-1.2 4.6-2.7 5.7-6.5 4.7-12.1 10.6-19.8 13.9-1 1.6 1.7 4.6-1.6 5.6z"/><path class="st31" d="M389.2 595.4c-.2 0-.7-.1-.7 0-.3 1.3-.4 2.8-1 3.9-.6 1-1.9 1.5-2.9 2.3-2.6-1.4-5.1-2.7-8.1-.6-1 .7-2.8.4-4.3.6-1.6-.8 4.4-2.6-.4-3.2-.5-.1-.8-1.9-1.1-3 .6-.5 1.2-1.4 1.9-1.5 4.1-.7 8.4 1.2 12.4-1.3 1 1.6 3.8.4 4.2 2.8z"/><path class="st39" d="M370.7 595.4c.4 1 .6 2.9 1.1 3 4.9.6-1.2 2.4.4 3.2-.6 2.5-3.3 1.9-4.9 3-1.3.9-2.9 1.1-4.4 1.6.2-4.2-2.7-8-1.5-12.3 3.6 1 0 4.7 2.7 6.4 2.4-1.1 3.4-4.7 6.6-4.9z"/><path class="st35" d="M558.8 759.5c1.2-.5 2.1-.9 3-1.2 4-1.6 7-1 7.8 1.4 1.4 4-.7 8.1-4.8 9.4-2.1.6-5.8-2.1-6-4.5-.1-1.8 0-3.5 0-5.1z"/><path class="st7" d="M171.8 615.5c-5.2.4-10.1-2.7-15.4-1.5-2.6-3.1-7.3-2.6-9.8-5.9-2.1-2.7-2.7-5.7-2.5-8.9.1-2.8-.4-5.7.1-8.4.6-3 1.9-5.9 3.3-8.5.5-.9 2.9-.4 4-1.2 3.9-2.9 8.8-3.6 13.2-5.2 2-.7 4.4-.4 7.2-.6v-4.4c2.2.2 4.3-.1 6.2-1.5.1 2-.6 4.1 1.6 5.5 2.4 1.6 2.1 4.5 1.2 6.1-1.1 1.9-2.7 4.3-5.9 3.9-2.5-.3-5.1 0-7.7-.1-4-.2-7.5 1.6-10.9 3.2-1.8.8-3.7 2.8-4.3 4.7-1.3 3.7 1.9 10.9 5.4 12 5.1 1.6 10.5 2.7 15.9 1 1.8-.6 3.7-.8 5.6-1.2.9 2.2 2.1 3.9 2.1 5.7 0 7 1.1 14-1.4 20.8-4.4-.1-1.3-6.9-6-6.9-.1 0 .1-2.4-.2-3.5-.7-1.8 1.3-4.2-1.7-5.1z"/><path class="st10" d="M133.2 640.2l-5.4-9.3c-1.8 0-3.6.1-5.4 0-4.1-.4-6.1 1.6-7.9 5.2-2 4.1-3.4 8.2-4.8 12.6-1.5 4.7-1.7 9-.2 13.5.5 1.5-3.6 5.6-5.8 5.7-2.5.2-5.1 0-7.6 0v-6.2c4.6-3.5 4.7-3.5 4.6-9.5 0-3.7.5-7.1 2.2-10.7 1.6-3.3 3.1-7.2 3.6-10.7.6-4.1 3.6-4.7 5.8-5.8 1.9-.9 4.5-4.1 7.3-.8.3.4 1.7 0 2.5-.2 2.7-.8 5.4-2.3 7.8.7.3 1.1.4 2.5 1.1 3.3 1.7 1.8 3.7 3.4 6.1 5.6-2.7 1.7-1.3 5.1-3.9 6.6z"/><path class="st16" d="M177.9 569.2c-1.8 1.5-3.9 1.7-6.2 1.5-.5-1.5-1.4-3.1-1.5-4.6-.2-3.4-.1-6.9-.1-10.6-3.4-.3-6.5-.8-9.3 1.3.3-2.4-4.2-.9-3.2-3.9-.5.1-1.2 0-1.6.3-3.5 2.7-7.5 2.1-11.5 2.1-.7-5 0-6 4.2-6.1 4.9-.1 9.8 0 14.6-.1.7 0 1.3-1 2-1.5 2.1 1.7 4.1 1.7 6.2 0h7.7c2.3 2 5 1.5 7.7 1.5 1.5 2.6 3.1 5.1 4.6 7.7-2 0-4.3-.5-6 .1-1.9.7-3.2 1.1-4.9-.1-.2-.1-.8.4-1.2.6 1.1 2.1-2.2 3.7-.7 5.7 2 2.5-.1 4.2-.8 6.1z"/><path class="st6" d="M168.7 680.3c.4-2.3-.5-4.6 1.3-7 1.1-1.4.2-4.2.2-6.1-2.2-.8-4.1-1.6-6.1-2.3-2-.8-2.2-3.6-4.6-4.1-.1 0 0-1.4 0-2.1l9.3-1.5c1.6-.3 3.4-.4 4.8-1.1 2.7-1.3 3.1-4 3.2-6.9 2.8 1.8-.8 5.4 2.8 6.4 1.5 1.8 1.7 3.9 1.5 6.2-1.3.1-3-.7-3.1 1.9-.2 5.3 1.4 10.9-2.7 15.5-.1.2.8 1 .8 1.6.1 3.2 1.9 7-2.8 8.7.2-1.9.1-3.2-2.6-3.2-2.3 0-2.9-2.8-1.2-4.5.5-.5 1.2-.7 1.9-1.1-.9-.1-1.8-.3-2.7-.4z"/><path class="st40" d="M145.6 666.4c-1.8.8-3.3 2-5.5 1.6s-3.5-1.5-3.8-3.8c-.4-3.4-1.2-6.7-1.5-10.1-.3-3.6-.1-7.2-.1-10.8.4-.4.8-1.2 1.1-1.2.7.2 1.7 2 1.9.2.5-5 2.4.9 3.2-.5.8 1.7 1.9 3.3 1.6 5.5-.3 2.2-.3 4.6 0 6.8.2 2.1 1 4.1 1.5 6.2 1.5 1.7 1.7 3.9 1.6 6.1z"/><path class="st33" d="M171.8 615.5c3 .9 1.1 3.3 1.5 5 .3 1.2.2 3.5.2 3.5 4.7.1 1.6 6.8 6 6.9 1.1 4.3-1.7 8.1-1.5 12.3-2.6 1-5.1 2.1-4.9 5.7 0 .1-.8.3-1.2.5 0-3.1-.5-6.2.1-9.2.5-2.5-1.9-4.4-.4-7.3 1.3-2.4.3-6 .3-9.1-.1-2.7-.1-5.5-.1-8.3z"/><path class="st26" d="M145.6 666.4c.2-2.2-.1-4.3-1.5-6.2 4-.7 8.4-.6 11.9-2.2 2.2-1 2.3 1.4 3.6.7 0 .7-.1 2.1 0 2.1 2.4.5 2.6 3.3 4.6 4.1-.6.5-1.3 1.5-1.9 1.5h-16.7z"/><path class="st17" d="M171.8 649.4c.4-.2 1.2-.4 1.2-.5-.2-3.5 2.3-4.6 4.9-5.7.8 1.7 1.9 3.3 1.6 5.5-.3 2.2-.1 4.6-.1 6.9-3.6-1 0-4.7-2.8-6.4-.1 2.9-.5 5.7-3.2 6.9-1.4.7-3.2.7-4.8 1.1.9-2.7 3.4-4.7 3.2-7.8z"/><path d="M96.2 661.8v6.2c-4.3.2-8.7-.8-12.8 1.5-.8.4-2.6.6-2.6-1.5.7 0 2 .2 2.1 0 .8-1.9 2.1-3.2 4-4 .3-.1 0-1.4 0-2.1 1.8.8 3.5 3 5.6.1.5-.8 2.5-.2 3.7-.2z" fill="#444"/><path class="st36" d="M140.9 641.7c-.8 1.5-2.7-4.5-3.2.5-.2 1.8-1.2.1-1.9-.2-.2-.1-.7.7-1.1 1.2-2.3-.1-1.3-1.9-1.5-3.1 2.6-1.5 1.1-4.8 4.1-6.6-2.4-2.2-4.4-3.7-6.1-5.6-.7-.8-.8-2.2-1.1-3.3 6.5 4 9.7 9.9 10.8 17.1z"/><path class="st8" d="M171.8 728.1c-.2-.4-.4-.9-.5-1.3l-7.2 1.3c-1.5-1-2.8-2.5-4.4-3-6.6-1.9-11.2-4.2-14.4-9.2-1.7-2.7-2.1-6.3-2.7-9.5-.4-2-.2-4.1 0-6.1.1-1.7-.5-3.4 1-5 1.9-2 4.3-4 6.7-4 3.3-.1 7-1.7 10.1 1.2.7.6 2.5.1 3.7.1.8 3.6-2.5 3.1-4.1 4.4l-2.8-2.8c-2.2-2.3-2.3-2.2-4.7.8 1.8 1.3 3.6 2.5 5.4 3.8-2.3 3.5-4.8 1-7.3.3-.5 8.5 2.3 13.5 8.2 17 2.6 1.5 4.8.8 7.2 1.1 3.2.4 5 2.2 5.8 5.6.3 1.4 1.1 2.6 1.4 4 .1.3-.9.9-1.4 1.3z"/><path class="st19" d="M157.9 698.8c-1.8-1.3-3.6-2.6-5.4-3.8 2.4-2.9 2.5-3 4.7-.8l2.8 2.8c1.6-1.3 4.9-.8 4.1-4.4h4.5c-.2-1.6-.4-3.1-.7-4.6-.6-2.7-2.2-5.4.8-7.7.9.2 1.8.3 2.8.5-.6.4-1.4.6-1.9 1.1-1.7 1.7-1.2 4.4 1.2 4.5 2.7.1 2.7 1.3 2.6 3.2.5 1.6 1.2 3.1 1.5 4.7.5 2.8.8 5.7 1.3 8.8-1.9.4-4.2 1.3-5.9-.6-3.6-3.7-7.9-4-12.4-3.7z"/><path class="st16" d="M173.3 743.5c2.8.6 6.1-1.4 8.5 1.5 2.4-2.9 5.7-1.1 8.6-1.4 1.6-.2 3.6-.8 4.9 1 .2.3.9.5 1.3.4 2.6-.5 5.2-1.1 7.8-1.5 2.4-.4 4.9-.4 7.4-.7.7-.1 1.3-.8 1.9-.8 10.3 1.1 20.5-1.7 30.7-1.6 2.1 0 4 1.2 6.4.2 1.9-.8 4.5-.3 6.8-.1 2.6.1 1.8-1.7 2-3.1 1.9-1.5 3.7-3 5.5-4.4.7.4 1.5.8 2.3 1.3.2 1.5 0 3.1.6 4.3.4.9 2.5 1.9 3 1.6 3.5-2.5 7.8.2 10.7-1.5 3.3-1.9 6.4-.8 9.5-1.3 3.4-.6 6.7-1 10.1-1.6 0 .5.2 1.2 0 1.5-1.9 2.2-.6 3.6 1.1 5 .3.3.4.8.5 1.3-1.8 1.6-4 1.7-6.3 1.5-3.5-.3-6.8.4-10.2 1.5-2 .7-3.9 2.6-6.6.2-1.1-.9-3.9-.2-5.8.2-5.1 1.2-5.1 1.2-12-.3-2.1-.4-4.6-.9-6.2 1.5-1.6 2.4-4.2 1.8-6.2 1.3-6.3-1.4-6.3-1.5-12-.1-1.2.3-2.5.1-3.7.3-4.7.6-9.6-1.5-14 1.5-.2.1-.6.1-.7 0-1.7-1.6-2.9-2.1-5-.1-1.2 1.1-3.8-.5-5.7 1.1-.9.8-2.9.5-4.3.5-4.4.1-8.8-.3-13.1.1-3.4.3-6.5-1.3-9.9-1-3.2.3-6.4.6-9.7.8-1.1.1-2.7.6-2.8-1.5 2.5.1 5 .2 6.2-2.8.4-1.1 1.8-1.8 2.8-2.9-.6-1.7-4.1 1.3-4.4-1.9z"/><path class="st7" d="M168.7 848.4c.2-.4.2-1.1.5-1.2 4.4-1.9 9.7-2.2 13.1-6.4.7-.8 3.1.9 3.3-1.6.4-.2 1.2-.3 1.3-.5 1.3-4 1.2-4 4.9-4.1.2 1.3-.7 3.2 1.8 3.1 3-.1 6 0 9 0h29.3c-2 2.3-1.5 5-1.5 7.7-2.4-1.3-4.4 2-7.3.2-1.8-1.1-5.3-1-7.6 1.1-1.2-1.9-3.1-1.4-4.8-1.3-2.2.1-5.3-.3-6.4.9-2.1 2.4-3.4-2.1-5 0-.3.3-.8.5-1.3.6-1.7.5-2-2.7-4.6-1.1-3.6 2.2-8.2 2.7-11.4 5.6-2 1.9-4.2 2-6.2 1.6-2.5-.5-4.8-1.9-7.2-3 .1-.6.1-1.1.1-1.6z"/><path class="st9" d="M230.4 845.3c0-2.7-.5-5.4 1.5-7.7 2.6-.3 1.4-2.3 1.5-3.5.1-2.4 1.1-3.5 3.3-4.3 5.8-2 11.2-5 16.8-7.6 2.2 2.7 2.7 5.4 1.5 7.7l-3.1 3.1c-2.7 1.9-5.2 4.2-9.3 2.8v6.4c-.8 1-1.4 2.7-2.3 2.9-3.1.8-6.3 1-9.5 1.4 0 0-.3-.8-.4-1.2z"/><path class="st40" d="M242.7 842.2v-6.4c4.1 1.4 6.6-.9 9.3-2.8.7.5 1.3 1.5 2 1.5 4.9.1 9.7.1 14.6 0 2.6-.1 1.9 1.7 2 3.1-.2 2.4-2.2 1-3.2 1.6-1.2.7-2 2-2.9 3-2.1.4-4.4-.7-6.5.9-1 .8-3.3 1.1-4.2.5-3.7-2.2-7.5-1.1-11.1-1.4z"/><path class="st7" d="M302.9 845.3c.1 2.3 1.9 1.3 3.1 1.5-.3 1.9 1.1 4.7-2.6 5-.2 0-.4 1.8-.5 2.7-4.3-1.2-8.5-2.3-12.3-5.1-3.1-2.3-6.7-4.7-11.2-4.2-.3 0-.8-1-1.2-1.5 1-1 1.8-2.3 2.9-3 1.2-.7 2.3 2.5 4.2.1.7-.9 3.4-.1 5.2-.1 1.6-.2 2.9.1 3.9 1.5 2 3.2 5.1 3.4 8.5 3.1z"/><path d="M290.5 840.6c-1.8 0-4.5-.7-5.2.1-1.9 2.4-3.1-.7-4.2-.1-1.2.7-2 2-2.9 3-4 0-8 .1-12-.1-.7 0-1.3-1-1.9-1.5 1-1 1.8-2.3 2.9-3 1-.6 3 .8 3.2-1.6 6.7-1 12.9 2 19.5 1.9.3.1.4.9.6 1.3z" fill="#2b2b2b"/><path class="st6" d="M265.8 677.2c.3 2.5 1.6 5.5.7 7.4-1.6 3.5 1.2 4.7 2 7 .3.7-.1 1.8-.5 2.6-.6 1-1.3.8-2.7.5-6.8-1.4-13.6-1-19.6 3.4-.3 3.5 2.9 4 4.9 4.6 2.7.8 5.8.3 8.7.2 1.1-.1 2.3-1 3.4-.9 1.9.1 3.6 2.6 2.5 4.1-1.3 2-.9 3.3-.2 5.4.8 2.2.6 4.9.6 7.4.1 2.8-.2 5.6.1 8.4.2 2.4 1 4.7 1.5 7-.8-.5-1.6-.9-2.3-1.3-1.8 1.4-3.6 2.9-5.5 4.4-.5-.4-1.5-.9-1.5-1.2.8-4.3-1.5-8.2-1.6-12.4-.1-4 0-8.1 0-12.8-5.2.7-9.9-.1-14-3-3.3-2.3-6.6-4.4-6.1-9.4.4-3.9 2.6-7.8 6.4-9.1 4.8-1.6 9.3-4.4 15.1-2.9.3-3-.2-5.8 1.7-8 2.1-1.3 4.2-1.6 6.4-1.4z"/><path class="st7" d="M213.4 666.4c2.1 5.5 5.9 9.2 12.1 11.2.5-3.5-.2-6.8 1.6-9.7 1-1.6-1.4-3.9-.6-6-2.9-1.4 2-3.5-.6-5.5-1.5-1.1-2.1-3.6-2.7-5.7-.4-1.3-.3-2.8.1-4.1.2-.6.8-2.3 2.7-.9 2.1 1.5 5.1 1.5 7.5 2 4.4.9 9.2.3 13.8.3.1 1.3-2.7 2.6 0 3.9-1.5.9-1.7 2.3-1.5 3.8-2.1.9-4.1 2.9-6.6.4-.7-.7-2.3-.4-4.1-.6v6.2c.1 5.2.3 10.4-3.1 14.9.9 3.9-2.6 5.2-4.5 7.3-1.3 1.4-8 1.7-9.2.2-3.3-3.7-7.7-6.4-10-11.2-.9-1.8-.7-3.3-.9-5 .3-.4.6-.9 1-1.3 1.7 2.9 3.3.3 5-.2z"/><path class="st3" d="M301.3 735.8c.8-.5 1.7-1.6 2.4-1.5 3.6.5 6.9-.6 10.1-1.7 4.4-1.6 8.8-1.1 13.2-1.5 3.8-.4 7.7-1 11.3-2.4 3-1.1 6.5.6 9.1-2.1 2.3-2.5 6-.9 8.8-2.9 1.5-1.1 4.5-.2 6.8-.2v.7c3.2.6 3.5 2.8 3.1 5.4l-1.5 1.5c-3.4.3-6.8-.8-9.8 2.5-1.5 1.6-4.9 1.7-7.5 2-6.8.8-13.2 3.3-20.2 3.4-6.7.2-13.3 2.7-20.2 3-1 0-2.3 1.6-4 1.4-.2-.4-.2-1-.5-1.3-1.6-1.4-3-2.8-1.1-5 .2-.1 0-.8 0-1.3z"/><path class="st23" d="M213.4 666.4c-1.7.5-3.4 3.1-5.2.2-.3.4-.6.9-1 1.3-2.5-.3-1.3-2.2-1.5-3.5-.6-3.3-1.4-4.1-4.7-4.2-3.2-.1-6.4.5-9.3-1.5-.5-.4-2.1-.2-2.1 0-1.4 5.2-5.6 2.3-8.6 3 .2-2.2-.1-4.3-1.5-6.2 1.8 0 4.6.7 5.1-.1 1.4-2.2 3.1.5 4.6-.9 1-.9 3.6 0 4.9-.7 4.8-2.7 9.8-.8 14.7-1.2.9-.1 2.1 1.2 2.8 2.1.2.3-1 1.8-.8 2 2.5 2.9 2.8 6.2 2.6 9.7z"/><path class="st34" d="M255 829.8c1.2-2.3.6-5-1.5-7.7 1.4-1.7 2.9-3.4 4.3-5.1.7-.9 1.5-2 1.8-3.1 1.4-5.6 4-11.1 3-17.6-1.5-1.5-3.3-3.3-5.2-5-.7-.6-1.6-1.4-2.4-1.5-6.3-.6-11.8-3.7-17.9-5.2-7.6-1.8-7.4-2.4-12.9-1.1.7-1.2-2.4-1.5-.5-3.6 2.2-2.4 6-5.6 9.1-5.6h8.4c5.2-.1 9.5 2.8 14.3 4.2 4.7 1.4 8.9 3.2 11.1 8 .7 1.5 2.5 2.5 3.7 3.8 1.9 2.3 3.5 4.6 3.3 7.8-.2 2.3.2 4.6-.1 6.9-.2 2.1-1 4.2-1.5 6.2-2.1 0-1.3 1.6-1.6 2.7-.2 1.2-.2 3-.9 3.4-3.6 1.9-5 5.8-7.9 8.1-1.6 1.3-2.8 2.9-4.4 4.2-.4.6-1.4.2-2.2.2z"/><path class="st6" d="M179.5 828.3c-3-.7-1-3.1-1.5-4.6 0-1.7-.4-3.9 2.6-2.8 1 .4 1.9 1 2.9 1.4 2.6-4.8-2.4-6.2-3.4-9.3-.4-1.3-3.4.6-5.1 1.4-.5-.4-1.5-1.1-1.5-1.1 2-2.9.7-6.4 1.7-9.2 1.3-3.8 3.6-7.3 7.1-9.7 4.1-2.8 8.5-5.2 12.7-7.7 1.5 2.1 3.1 4.2 4.6 6.3.2.3 0 .9 0 1.4-2.4 2.4-3.9 5.7-7.6 7-1.5.5-2.7 2.4-3.4 4.5-1.3 4-1.9 8.8-.4 13.4.8 2.4 1.4 5 2.1 7.5l-1.5 1.5-1.2-1.5-3 2.7c-1.3.2 1.2-4.4-2.2-1.7-.8.4-2 .3-2.9.5z"/><path class="st39" d="M199.5 794.4c0-.5.2-1.1 0-1.4-1.5-2.1-3.1-4.2-4.6-6.3 3.1-4 8-3.6 12.2-4.4 3.8-.7 7-1.7 9.7-4.3.6-.6 1.8-.4 2.8-.6.4 1.9-.8 3-1.9 4.3-2.1 2.4-1.8 2.8 1.9 3.4-.2.4-.3 1.2-.5 1.3-4.3.7-8.1 2.4-11.8 4.8-2.3 1.4-4.6 3.5-7.8 3.2z"/><path d="M219.6 785.1c-3.7-.6-4-1-1.9-3.4 1.1-1.3 2.4-2.4 1.9-4.3 3.5-3 7.2-5.1 12.1-4.7 2.8.2 5.6 0 8.3.1.4 0 .8 1 1.2 1.5h-8.4c-3.1 0-6.9 3.2-9.1 5.6-1.9 2.1 1.2 2.4.5 3.6-1.5.6-3.1 1.1-4.6 1.6z" fill="#373737"/><path class="st25" d="M174.9 814.4c1.7-.8 4.7-2.7 5.1-1.4 1 3.1 6 4.5 3.4 9.3-.9-.5-1.9-1.1-2.9-1.4-3-1.1-2.5 1.1-2.6 2.8-.4-.2-1.2-.3-1.2-.5-.7-2.9-1.2-5.9-1.8-8.8z"/><path d="M179.5 828.3c.9-.2 2.1-.1 2.8-.6 3.4-2.6.9 2 2.2 1.7l3-2.7 1.2 1.5c-.4.3-1.3.8-1.3 1 .9 2.2 2.5 3.8 4.4 5.2-3.7.1-3.6.1-4.9 4.1-.1.3-.8.4-1.3.5 0-3.7-3.3-5.5-4.6-8.5-.4-.7-1-1.4-1.5-2.2z" fill="#3d3d3d"/><path d="M190.3 826.8c2.7 3.6 5.4 7 10.2 8 .9.2 1.4 1.8 2.2 2.8h-9c-2.5.1-1.7-1.8-1.8-3.1-1.8-1.4-3.5-3-4.4-5.2-.1-.1.8-.6 1.3-1l1.5-1.5z" fill="#525252"/><path class="st34" d="M200.7 826.9c.6-.8 1.5-1.5 1.6-2.3.5-3.7 2.9-4.3 6-4 6.8.6 13.3-.6 19.5-3.1 3.5-1.4 6.7-3.6 10.2-5.2 2.1-1 4-2.7 6.7-2.6 1.1 0 2.4-2.2 3.3.1.5 1.3.6 2.8.5 4.1 0 .6-1 1.1-1.6 1.6-7.3 6.6-16.2 10.1-25.5 12.9-7 2.1-13.4-1.6-20.1 0l-.6-1.5z"/><path class="st36" d="M236.9 808.8c-1.4-2.5-2.6-4.3-3.4-6.3-1-2.8 1.2-4.4 3-5.6 1.7-1.1 3.8-1.5 5.9-2.2 1.7 2.3 4.1 4 2.3 8-1.6 3.6-5.2 2.9-7.8 6.1z"/><path d="M206.2 800.3c1.8 1.9 4.3 2.4 5.1 5 .9 3 .8 5.2-1 6.7-1.9 1.6-6 1.9-7.3.5-2.3-2.4-2.4-5.9-.2-8.3 1.2-1.3 2.3-2.6 3.4-3.9z" fill="#252525"/><path d="M216.5 806.3c1.1.9 1.7 1.3 2.6 2 .3-1.7.7-3.2 1.2-6 1.7 3.7 2.9 6.1 3.8 8.8.2.6-1.2 1.6-1.2 2.4-.1 1.9-.8 2.7-2.7 2.5-2.1-.2-3.3-1.3-3.6-3.1-.3-2-.1-4-.1-6.6z" fill="#5d5d5d"/><g><path d="M742.4 384.7c-1.1-1.1-1.3-1.2-2.7-1.1-.2 0-.5.2-.6.2-.2-.2-.4-.2-.6 0-.1.1-.4-.2-.6.1-.1.1-.5.3-.6.2-.2-.1-.4 0-.6 0-.1 0-.4-.2-.4-.1-.3.4-.7.2-1.1.2-.3.1-.7.2-1 .2h-1.1c-.3 0-.6.2-.9.2-.3.1-.7-.1-1 .2-.3-.5-.6 0-.9 0-.5 0-1 0-1.4.2s-1-.2-1.3.3c-.4-.5-.8 0-1.2 0s-.9-.1-1.2.2c-.3-.4-.6.1-1 0s-.8 0-1.2.2-.9 0-1.3 0h-.2c-.4.5-1 .2-1.5.2-.5.1-1.1.2-1.6.2-.3 0-.8 0-.9.1-.3.4-.6-.3-.9.1-.8.1-1.5.2-2.3.3-.2 0-.5 0-.6.2-.2.3-.3-.3-.7-.1-.5.3-1.2.4-1.8.3-.4-.1-.8 0-1.1.1s-.4 0-.6 0c-.3.1-.5.1-.8.1s-.7-.1-.9 0c-.3.2-.6 0-.8.2-.2.1-.8-.1-.9.1-.3.4-.6 0-.9.1-1 .3-2.2.2-3.2.6-.3-.4-.6 0-.9 0-.3 0-.8.3-.9.1-.4-.3-.6.3-.9.1-.3-.1-.7-.2-1 .2-.3-.2-.6 0-.9 0-.4 0-.7.4-1.1 0-.4.4-1 .2-1.5.3-.8.1-1.6.1-2.3.3-.4.1-.3-.2-.6-.2.7-.7 1.4-1.4 1.9-2.2.8-1 1.6-2.1 2.4-3.1.8-1 1.5-2.1 2.3-3.1.2-.2.5-.4.5-.6 0-.6.5-.8.7-1.3s.7-.6.8-1.1c0-.6.5-.7.7-1.1.7-1.5 1.7-2.7 2.5-4.1.7-1.3 1.4-2.6 2.1-3.8 1.5-2.7 2.8-5.6 4.1-8.4.1-.3.6-.6.2-1 .8-1 1.1-2.3 1.5-3.5.1-.4.5-.7.5-1.2 0-.4.3-.8.5-1.3 0-.1.1-.1.1-.2-.1-.8.7-1.3.5-2.1.7-1 .7-2.2 1.3-3.2-.2-.6.3-1 .4-1.6.1-.7.3-1.5.5-2.2.4-1.1.7-2.3.9-3.5.1-.5.1-1 .4-1.5.1-.2.3-.5.2-.6-.2-.3.2-.5.1-.8-.1-.3.3-.6 0-.9.4-.2 0-.7.3-1s0-.8.2-1c.3-.3-.1-.6.2-.8.1-.2.1-.5.1-.8 0-.2.2-.4.2-.6 0-.3-.1-.6.2-.7-.4-.2 0-.4 0-.6 0-.5 0-1 .2-1.4.2-.5-.1-1 .3-1.6.2-.4.1-1.1.1-1.7 0-.1 0-.2.1-.3.3-.5.2-1 .1-1.5s.4-1 .2-1.5c-.1-.3 0-.5 0-.8s-.1-.6.1-.8c.3-.3-.2-.5-.1-.8.1-.2.5-.3.2-.7-.1-.1-.2-.5-.1-.6.2-.3.2-.5.2-.8V317v-1.6-1.6-1.6-1.6-1.6c0-.5-.2-1-.1-1.4.1-.4-.1-.8-.1-1.2 0-.4.1-.9 0-1.2-.1-.3.1-.7-.2-.9.6-.3-.1-.7 0-1 0-.5-.1-1-.1-1.5s-.3-1-.1-1.4c.1-.5-.5-.9 0-1.4-.5-1.2-.5-2.5-.8-3.7 0-.2.2-.4.1-.6-.3-.6-.5-1.2-.5-1.9-.3-.2 0-.5-.1-.7s-.1-.5-.1-.8c-.1-.3-.1-.6-.2-.9-.1-.2-.2-.4-.2-.6-.1-.3-.1-.5-.1-.8 0-.2-.1-.6-.2-.6-.4-.2.1-.4-.1-.6-.3-.6-.3-1.4-.7-2-.2-.4.3-.5 0-.8-.2-.2-.3-.6-.4-.9-.4-.8-.2-1.7-.7-2.4-.5-2.1-1.5-4-2-6-.2-.7-.3-1.4-.8-2-.4-.4-.4-1-.7-1.4-.1-.3-.3-.6-.4-.9-.1-.2-.2-.3-.3-.5-.4-1.3-.9-2.6-1.7-3.8-.4-.7-.5-1.5-1-2.1-.2-.2-.4-.5-.5-.8-.3-1.5-1.5-2.6-1.9-4-.5-.5-.7-1.1-1-1.7-.2-.4-.7-.6-.7-1.2 0-.4-.5-.6-.7-1-.5-.9-1-1.7-1.5-2.5-.4-.7-.9-1.2-1.3-1.9s-.9-1.4-1.4-2c-.6-.7-1.2-1.4-1.7-2.2-.5-.9-1.1-1.6-1.6-2.3-.2-.4-.6-.4-.8-.8-.4-.7-.8-1.4-1.5-1.9-.5-.4-.8-1.1-1.4-1.5-.5-.3-.8-.9-1.2-1.4-.5-.5-.9-1.1-1.4-1.6s-.8-1.1-1.4-1.5c-.3-.2-.4-.6-.7-.9-.3-.3-.6-.6-.9-.8-.8-.7-1.4-1.6-2.3-2.1-.5-.3-1-.7-1.3-1.1-.3-.4-.8-.7-1.1-1.1-.3-.5-.8-.7-1.3-1 0 0 0-.1-.1-.1-.4-.8-1.4-1.1-1.9-1.8-.3-.4-.7-.7-1.1-.9-.4-.2-.6-.7-1.1-.7.2-.5-.7-.3-.5-.7-.3-.2-.7-.4-1-.6-.3-.2-.5-.5-.8-.7-.7-.3-1.2-.8-1.8-1.2s-1.1-.8-1.7-1.2c-.5-.4-1.3-.5-1.6-1.2-1.2-.4-2-1.3-3.1-1.9l-.6-.3c-.5-.3-1.1-.4-1.5-.8-.4-.5-.9-.6-1.3-.9l-.6-.3c-1.1-.9-2.5-1.4-3.7-2.1-1.3-.7-2.6-1.4-4-2s-2.7-1.4-4.2-1.8c-1-.3-1.8-1-2.9-1.2-.2 0-.5-.2-.7-.3s-.6-.2-.7-.3c-.2-.3-.4.2-.6-.1-.5-.3-1-.7-1.7-.6-.5-.5-1.2-.4-1.8-.7s-1.2-.5-1.8-.6c-.3-.1-.5-.2-.8-.3 2.3-3.1 4.5-6.4 6.4-9.9 7.5-13.9 11.4-28.5 9.3-44.4-2.3-17.9-11.3-31.3-27.2-40.1-9.4-5.2-19.6-7.9-30.1-9.6-18-2.8-36.2-4.1-54.5-4.2-16.1-.1-32.3.3-48.4.7-15.2.4-30.3 1.7-45.3 3.7-17.4 2.3-34.6 5.6-51.5 10.2-12.7 3.5-25.3 7-37.3 12.4-12.4 5.6-23.7 12.9-32.7 23.2-18.7 21.3-17.8 52.7 2.2 72.4 8.7 8.6 19.4 13.5 31.3 16 12.1 2.6 24.4 3.2 36.6 3.4 17 .2 33.9.1 55 .1 7.7-.2 19.6-.5 31.5-1 9.7-.4 19.5-.9 29.2-1.6 10-.6 20-1.4 30-2.2 3.5-.3 7-.6 10.5-1 1.5-.2 2.3-1.5 2.1-3.1-.2-1.5-1-2-2.6-1.9-9.9.9-19.9 1.9-29.8 2.5-16.7 1-33.4 2-50.1 2.7-13.7.6-27.5.9-41.2 1.1-17.3.3-34.7.4-52-1.3-7.2-.7-14.3-1.4-21.3-3.2-11.7-3-21.9-8.4-29.7-17.9-8.8-10.6-12.6-22.8-10.7-36.5 1.6-11.4 7.4-20.8 15.4-28.8 6.6-6.6 14.5-11.5 22.9-15.5 12.1-5.8 24.9-9.9 37.7-13.6 16.3-4.8 32.9-8.3 49.8-10.6 11.3-1.5 22.7-2.6 34.1-3.5 8.1-.7 16.2-.9 24.3-1.1 9.4-.2 18.8-.3 28.2-.2 11.2.2 22.4.8 33.6 1.2 11 .4 22.1.7 33 2.4 9.2 1.4 18.1 3.9 26.4 8.3 10 5.3 17.7 12.8 22.1 23.4 5 12.1 5.3 24.5 2.4 37.1-3.8 16.6-12.9 29.9-25.8 40.7-10.7 9-22.8 15.6-35.6 21-12.9 5.5-26.3 9.6-39.7 13.7-19.8 6.1-39.9 10.1-60.7 11-14.1.6-28-.5-41.8-3.4-1.8-.4-2.9.3-3.2 2-.3 1.5.4 2.5 2.1 2.9 14.1 3 28.4 4.1 42.8 3.5 12.4-.5 24.7-2 36.8-4.6 16.9-3.6 33.4-8.5 49.7-14.2 15.3-5.4 29.9-12 43.3-21.3 7.5-5.2 14.2-11 19.9-17.9.2.3.3.6.5.8s.7.4.9.4c.5-.1.7.4 1.1.4.5-.1.8.3 1.2.4.4 0 .7.1 1 .3.1.1.4.3.5.2.5-.3.7.1 1 .3s.7.3 1.1.3c.4 0 .7.3 1.1.5.1.1.2.2.3.2l1.2.3 1.2.6c.3.2.7.1 1 .2 2.2 1.1 4.4 2.3 6.7 3.2.8.3 1.6.6 2.2 1.1.7.6 1.4.8 2.2 1.2.2.1.3.2.5.3s.4.3.6.4c.5.3 1.1.5 1.5.9s1.2.4 1.5 1c1.1.4 2 1.1 2.9 1.8.4.3.8.5 1.3.7.1.7.8.6 1.2.9.9.7 1.9 1.4 2.8 2.1.4.3.7.6 1.1.8.4.2.6.7 1.1.7.4.9 1.4 1 1.8 1.8 1.1.5 1.8 1.5 2.7 2.3.5.4 1.1.7 1.3 1.3 1.1.4 1.5 1.6 2.5 2 .1.5.5.9.9 1.1.5.3.6.8 1 1.1s.6.8 1.2.9c.1 0 .1.1.1.2-.2.7.9.6.8 1.2 1.1.6 1.7 1.7 2.5 2.6.8.9 1.8 1.7 2.3 2.9.7.1.8.8 1.1 1.2s.9.8 1 1.4c.8.5.9 1.6 1.6 2.1 0 .5.7.5.7.9.1.5.4.8.7 1 .4.3.2.9.7 1.2.3.2.5.6.8 1 .2.3.4.7.6 1.1.2.4.6.5.7.9.1.3.4.7.5 1 0 .4.5.4.7.8.5 1.1 1.1 2.2 1.8 3.2.2.4.4.7.6 1.1.2.3-.1.9.5.8 0 .6.7 1 .7 1.5.1.7.7 1 .8 1.6.1.4.3.8.5 1.2.3.5.4 1.1.7 1.6s.7 1 .9 1.6c.3 1.2.9 2.4 1.3 3.6.1.5.5.8.7 1.3.4 1 .6 2.1 1 3.1.2.5.2 1.1.4 1.6.4 1.3 1.1 2.5 1.3 3.9.5.2-.3.5.1.9.4.3.4.9.4 1.4 0 .2.1.4.1.5.1.5.6 1 .5 1.4s.1.7.1 1c0 .4.1.8.2 1.1.3.6.2 1.3.5 2 .1.3 0 .7.2 1.1.2.3.2.8.1 1-.2.5.4.7.2 1.1.3.2.1.6.2.9.1.3-.1.8.1 1 .2.3-.1.5.1.8.2.3 0 .8.1 1.2.1.3.4.6 0 .9.3.2.3.5.2.7-.1.3.3.5.1.8-.1.2.3.5-.1.6.3.2.2.6.2.9s-.1.6 0 .8c.2.4-.1.7 0 1 .4.9.1 1.8.2 2.7 0 .3.2.7.1.9-.1.4-.2.7 0 1 .1.4-.3.7-.1 1s-.1.6.2.8c-.5.2-.1.6-.1.8 0 .4-.2.8-.2 1.2v1.4c0 .4-.1.8 0 1.2.1.4-.4.7-.1 1 .3.4-.3.7 0 1 .1.1-.4.4-.1.7.1.1-.1.4-.1.6s.2.4.1.6c-.4.8-.1 1.8-.3 2.6-.1.3.1.7 0 .9-.2.3 0 .6-.1.8-.1.3 0 .7-.1.9-.3.3 0 .6-.2.8-.2.2 0 .6-.1.9 0 .2-.3.4 0 .5-.1.1-.3.2-.1.4.1.1-.1.4-.2.6-.1.3-.2.6-.2.9-.1.5.2 1-.2 1.5.3.5-.2.8-.2 1.2 0 .4-.3.8-.2 1.3.1.3-.2.7-.3 1.1-.1.3-.2.6-.2.9 0 .4-.1.8-.2 1-.1.3 0 .6-.2.9s-.1.8-.3 1.2c-.2.6-.3 1.2-.5 1.7-.3.8-.4 1.7-.7 2.5-.3.7-.7 1.5-.7 2.2 0 .6-.5 1.1-.4 1.7 0 .4-.6.8-.5 1.1.1.5-.4.7-.4 1.2 0 .1-.2.2-.2.2.3.6-.3.8-.4 1.3-.1.5-.2.9-.4 1.4s-.7.9-.5 1.5c-.6 1-1 2.1-1.4 3.3-.2.7-.7 1.4-1.1 2.1-.5 1.2-1.2 2.3-1.6 3.5-.3.8-.6 1.7-1.2 2.3-.5.6-.8 1.2-1 1.9-.1.3-.2.6-.4.8-.7.5-.8 1.3-1.2 1.9-.3.5-.5 1-.9 1.4-.9 1-1.3 2.4-2.3 3.3-.3 1.1-1.2 1.7-1.7 2.6s-1.1 1.8-1.9 2.5c-.3.2-.4.6-.6 1-.2.3-.4.6-.6.8-.3.2-.6.4-.5.9-.7.4-1.1 1.1-1.5 1.7-.6 0-.4.6-.8.9-.3.2-.4.7-.7.8-.5.2-.4.7-.8.9 0 0-.1 0-.2-.1.3-.8.6-1.5.9-2.3.2-.6.5-1.2.6-1.8.1-.5.4-.8.5-1.2.1-.5.2-1 .5-1.4.1-.1.3-.4.2-.5-.4-.5.3-.8.3-1.1 0-.5.3-.9.4-1.3.1-.6.4-1.1.5-1.6.2-1.2.9-2.2 1.1-3.4 0-.2.2-.4.3-.6s.2-.5.1-.6c-.3-.3.2-.4.1-.6 0-.2.1-.5.3-.6.3-.2-.1-.3 0-.5.2-.4.5-.8.5-1.4 0-.5.5-.9.5-1.5 0-.3.4-.7.5-1 0-.4.1-.7.3-1s.1-.6.2-.9c.5-.9.7-2 1.1-2.9.1-.3.4-.7.5-1 .1-.7.4-1.4.7-2 .3-.7.2-1.5.8-2.1-.1-.6.4-1.1.5-1.6.1-.8.5-1.4.7-2.1.2-.8.5-1.6.8-2.3l.3-.9c.1-.3.2-.6.4-.9.1-.3.2-.6.4-.8.3-.3 0-.5.2-.8.6-1 .3-1.9-.5-2.6-.2-.2-.3-.4-.5-.5-.4-.3-.9-.4-1.3-.2-.5.2-1.3.4-1.3 1.2-.6.6-.4 1.6-1 2.2.2.6-.4 1.1-.5 1.6 0 .6-.4 1-.6 1.6 0 .1-.1.2-.1.2.4.4-.2.5-.2.8s-.1.7-.2 1c-.1.4-.4.8-.4 1.2 0 .5-.4.8-.5 1.2 0 .1-.1.2-.1.3-.2 1.1-.9 2.1-1 3.2-.5.6-.3 1.6-.9 2.2.2.6-.4 1.1-.5 1.6 0 .6-.4 1-.6 1.6 0 .1-.1.1-.1.2.3.4-.1.6-.2.9-.1.3 0 .7-.3 1.1-.2.3-.4.6-.4 1s-.4.6-.3.9c0 .6-.5 1-.6 1.6-.1.7-.7 1.4-.7 2.2-.6.6-.3 1.5-.9 2.1 0 .6-.4 1.1-.5 1.7-.1.7-.5 1.3-.6 2-.1.4-.2 1-.4 1.4-.2.5-.2 1-.5 1.4-.6 1.1-.8 2.4-1.4 3.5-.1.2-.2.4-.2.6.1.6-.4 1-.4 1.6 0 .5-.6.9-.5 1.4s-.7.8-.3 1.4c-.6.7-.5 1.6-.9 2.4-.5.9-.4 1.5 0 2.4.2.6.7.8 1.5.8.2.3.4-.1.7.1.2.1.5-.1.8-.1h1.2c.4-.4.8-.1 1.2-.2s.8-.2 1.2-.2c1-.1 1.9-.1 2.9-.3.3-.1.7 0 1-.1.9-.1 1.7-.4 2.6-.4.2 0 .4-.1.5-.1.4.1.7-.1 1.1-.1.4 0 .8-.2 1.2-.2 1-.1 2-.1 3.1-.3.2 0 .3-.3.5 0 .2-.3.3-.2.5 0 .2-.3.6-.3.9-.2.4.1.5-.6 1-.1.1.1.5-.1.8-.1s.5 0 .7-.2c.2.4.4-.1.7 0 .3 0 .7 0 .9-.1.3-.3.4.2.7.1 1.1-.4 2.3-.3 3.4-.6.2.3.5 0 .8 0s.7-.4 1-.2c.3.3.6-.4.9.1.1-.2.4-.2.6-.2.2 0 .3-.4.5 0 0 .1.2-.3.4-.1.1.1.4-.1.6-.1h.7c.7-.1 1.4-.3 2.1-.4.2 0 .4.2.6.1.8-.4 1.7-.4 2.6-.4.8 0 1.5-.2 2.3-.4.3-.1.4.4.7.1.4-.4.9-.1 1.4-.2.4-.1.9-.3 1.3-.3 1.1.1 2.1-.4 3.1-.2.5-.4 1.2-.1 1.7-.3.3-.1.5.1.8-.1s.7 0 1.1 0c.3 0 .7-.2 1-.2l2.7-.3c.2 0 .3-.1.5-.2s.2.3.6.1c.4-.3 1-.3 1.5-.3.2 0 .5.2.7.2.9-.1 1.7-1.2 1.8-2.1.2.2.2-.2.2-.5zM655.7 422.4c.3-.5-.1-.6-.2-.8v-.2c-.4-.8-1.1-1.1-1.9-1.1-1.1 0-2.1.5-3.1.6-.5 0-1 .2-1.6.4-.3.1-.6 0-.8 0s-.4.4-.6 0c-.3.1-.5.2-.8.3-.2.1-.5.2-.7.2-.3 0-.6.2-1 .1-.4 0-.7.2-1 .2-.4 0-.6.6-1.1.1-.1-.1-.5.5-.9.2-.4-.2-.7.3-1.1.2-.1 0-.4.2-.6.2-.7.1-1.5.2-2.2.5-.2.1-.5.2-.6.2-.3-.4-.4.1-.6.1-1.1-.2-2 .6-3.1.6-.7 0-1.4.4-2.1.4-.3 0-.6.5-1 0-.4.4-.4 0-.3-.2.6-.9.9-1.9 1.6-2.9.7-1 1-2.2 1.8-3.2.3-.5.5-1.1.8-1.6.3-.6.6-1.1.9-1.7.3-.5.6-1 .8-1.6s.7-1 1-1.5c.2-.3.4-.6.4-1.1.5-.5.4-1.4 1.2-1.7.3-.7.7-1.4 1-2.1.2-.4.4-.8.5-1.2.1-.5-.1-1.1-.2-1.6-.1-.4-.4-.7-.8-.7-.2-.6-.7-.7-1.2-.7-.4 0-.7 0-1.4.2h-.4c-.3.1-.6.2-.8.3-.3.1-.5.6-.6.9-.8 1.7-1.8 3.3-2.6 4.9-.2.4-.6.7-.7 1.1-.5 1.2-.9 2.4-1.8 3.4-.3.3-.4.9-.6 1.3-.2.4-.3 1-.6 1.3-.5.6-.7 1.2-1.1 1.8-.4.6-.4 1.5-1.2 1.9-.2.1-.2.4-.3.6-.3.6-.6 1.1-.9 1.8-.2-.7-.4-1.4-.7-2-.7-1.9-1.3-4-2.1-5.9-.5-1.3-.8-2.7-1.3-3.9-.4-1-.8-2.1-1.1-3.1-.3-1.1-1.1-2.1-1-3.3 0-.1-.1-.1-.2-.2-.4-1-.7-2-1-3.1l-1.2-3.6c-.1-.4-.4-.8-.7-1-.4-.3-.9-.5-1.5-.6-.3-.1-.6-.1-.9 0-.4.1-.8.3-1.2.4-.6 0-.5.6-.8.9-.5.5-.6.7-.6 1.3 0 .4-.1.8.1 1.3.5 1.7 1.1 3.3 1.7 5 .9 2.3 1.6 4.6 2.4 7 .9 2.5 1.8 5.1 2.7 7.7.1.4.2.8.3 1.1-1.2.1-1.9-.9-3-.9-.2 0-.4-.3-.7-.4s-.7-.2-.8-.4c-.2-.4-.4.1-.6-.1-.7-.4-1.4-.8-2.3-.9-.6-.1-1.2-.5-1.9-.7-.7-.1-1.2-.6-2-.7-.5-.1-.9-.4-1.3-.7-.4-.2-.9 0-1.2-.4-.2-.2-.4-.3-.7-.3-.2-.1-.4-.4-.6 0-.8-.6-1.8-.8-2.8-1.2-.6-.2-1.1-.2-1.8-.1-.8.2-1.2.8-1.6 1.3-.3.4-.6.9-.7 1.4-.1.6-.2 1.2.2 1.8.4.6.9.9 1.5 1.2.2.1.6.1.9.2.5.2.8.7 1.4.5.8.5 1.6.8 2.5 1 .6.2 1.2.5 1.9.7.6.2 1.2.6 1.9.7.3 0 .7.3 1 .5.3.1.5.6.9.2.3.2.7.3 1 .5.3.1.5.6.9.2.9.6 1.9.9 2.9 1.2.4.1.7.4 1 .5s.7.2 1 .3c.3.1.7.3 1 .5.1 0 .1.1.2.1 1.1.2 1.4.4 1.9.9-.6.4-1.4 0-2 .5l-.1-.1c-.3-.2-.6.2-.9.1-.3-.1-.7.2-1 .2s-.6.3-1 .1c-.2-.1-.6.3-.9.4-1.1.2-2.2.2-3.2.7h-.1c-.3-.5-.5.1-.8 0s-.6 0-.9.1c-.4.2-1 .3-1.4.3-.3 0-.5.5-.8.2s-.6.2-.8.3c-.1 0-.3 0-.3.1-.3.3-.7-.1-1 .1-.4.3-.8 0-1.1.2-.7.5-1.5.3-2.1.7-.7-.2-1.4.4-2.1.3-.4.4-.9-.1-1.3.2-.3.2-.6.5-.9.7-.2.2-.4.6-.6.7-.5.2 0 .7-.3.9-.1.1-.2.2-.2.4 0 .1.3.2.1.4 0 0 .1.2.1.3 0 .2-.2.4-.2.5.2.5.7.9.7 1.5.6.2 1.1.7 1.8.6.2 0 .3-.4.6-.1.3.4.4-.2.7-.2 1 .1 1.9-.6 2.9-.6.4 0 .7-.1 1.1-.2.2 0 .4-.2.6-.2.4 0 .8 0 1.2-.1s.8-.1 1.1-.3c.2-.1.5 0 .7-.3.2.4.4 0 .6 0 .3 0 .6.1.8 0 .3-.2.5-.2.8-.2.2.1.3-.4.6-.1.1.1.5-.1.6-.2.3-.3.4.2.7.1 1.2-.6 2.6-.7 3.9-.9.8-.2 1.6-.3 2.3-.5.3-.1.7-.3 1-.2.3 0 .6-.4.9 0 .3-.4.6-.2 1-.2-.2.6-.5 1.2-.7 1.7-.2.6-.9.8-1 1.5-.1.4-.3.7-.5 1s-.5.6-.4.9c.1.5-.5.4-.6.8-.1.5-.5 1-.7 1.5-.9 1.6-1.8 3.2-2.6 5-.6.3.2.9-.2 1.3l.2.4c.3.7.6 1.4 1.6 1.4.1 0 .2.2.4.2 1.1.5 2.2.3 2.9-.6.4-.6.9-1.1 1.2-1.8.2-.3.3-.7.4-1 .1-.3.3-.6.4-.9.2-.3.4-.5.6-.8.2-.4.5-.8.7-1.2.2-.4.3-.9.6-1.3.2-.4.5-.6.7-1 .5-1.1 1.2-2.3 1.8-3.5.2.3.4.5.3.6-.3.4 0 .8.1 1.1.9 1.9 1.3 3.9 2.1 5.8.6 1.5 1.1 3.1 1.6 4.6.9 2.6 1.7 5.1 2.7 7.7-.1.8.6 1 1 1.5.2.2.9.3 1.6.4.1 0 1.4-.2 1.5-.3.3-.2.5-.5.8-.7.2-.2.3-.5.5-.7s-.1-.7.3-.8c-.4-.1.2-.5-.2-.7-.6-1.9-1.1-3.8-1.9-5.6-.1-.2-.3-.6-.3-.8 0-1.1-.7-2-.8-3-1-1.8-1.2-3.8-2.1-5.6-.3-.5-.3-1.1-.5-1.7-.2-.5-.4-1.1-.6-1.6-.2-.6-.4-1.1-.6-1.7-.2-.5-.5-1-.2-1.6-.5-.6-.5-1.5-1-2.3.5 0 1 0 1.4.1s.7.4 1.1.6c.5-.4.8.1 1.1.3.9.5 2 .4 2.8 1.2h.1c.6-.1 1 .3 1.5.5s1.1.2 1.5.5c1 .7 2.2.6 3.2 1.4h.1c1-.1 1.7.8 2.7.8.2 0 .5.2.7.4.2.1.5.1.6.3.2.3.4 0 .6.1.8.4 1.5.9 2.4.9 1 .7 2.3.9 3.4 1.4.7.3 1.4.5 2.3.2 1.3-.4 1.7-1.4 2.2-2.4.4-.9 0-1.6-.3-2.4-.1-.2-.2-.2-.4-.3-1-.6-2-1-3-1.4-.9-.3-1.9-.6-2.7-1.1-.9-.5-1.9-.5-2.7-1.1-1.1.1-1.8-.9-2.8-.9-.2 0-.5-.2-.7-.3-.2-.1-.6-.2-.7-.3-.2-.4-.4.2-.7-.1-.3-.3-.9-.5-1.3-.7.4-.1.7-.1 1.1-.1.3-.1.7-.4.9-.4.4.1.7 0 .8-.1.3-.2.6 0 .8-.1 1.1-.4 2.3-.6 3.5-.8.9-.1 1.7-.3 2.6-.5.4-.2.9-.2 1.3-.3.4-.1.8-.1 1.2-.2.5-.1.9-.4 1.4-.5.7-.1 1.1-.6 1.3-1.1.1-.2.3-.4.4-.7.1-.3.4-.5.1-.8.3-.7-.3-1.1-.2-1.3z"/></g><g><path d="M436.5 161c.7-.6 1.3-.8 1.8-.7.5.1.8.6.8 1.5 0 .6-.2 1.3-.7 1.9-.5.6-1.1 1.2-1.9 1.8-.8.5-1.7 1.1-2.6 1.6-.9.5-1.9.9-2.9 1.3s-1.9.7-2.7.9c-.8.2-1.5.4-2 .5-1.4.3-2.7.4-4.1.4-1.4 0-2.7-.1-4.1-.4-1.4-.3-2.6-.8-3.8-1.6-1.2-.8-2.1-1.7-2.9-2.9-1.3-2-1.8-4.3-1.5-6.8.3-2.5 1.4-5.9 3.3-10.1 1.1-2.4 1.7-4.1 2-5.1.2-.8.8-2.1 1.8-3.9 1.3-2.4 1.5-3.6.4-3.5-.7.1-1.9.8-3.4 2.1-1.3 1.1-2.5 2.1-3.8 3.1-.9.6-2.5 2.6-4.9 5.9-2.4 3.3-3.9 5.6-4.5 7-.5 1.4-1.3 2.8-2.4 4.3-1.8 2.6-3.6 5.6-5.4 8.9-.9 1.8-1.5 2.8-1.9 2.8-.2 0-.7.1-1.6.3-.8.2-1.6-.2-2.5-1.4l-1.2-1.8 1.6-2.4c.7-1 1.8-2.9 3.2-5.5 1.4-2.6 2.5-4.4 3.2-5.4.5-.8 1.2-1.9 2-3.4.8-1.4 1.5-2.9 2.1-4.3.6-1.4 1.1-2.5 1.3-3.3.3-1 .8-2.2 1.6-3.7.6-1.1 1-2.3 1.1-3.6.2-1.4 0-2.2-.4-2.6-.1-.2-.6-.1-1.4.2-.8.3-1.7.7-2.6 1.1-.9.5-1.8 1-2.7 1.6-.9.5-1.5 1-1.8 1.3-.7.7-1.3 1.1-2 1.1s-1.3-.5-2.1-1.4c-.9-1-1.3-1.5-1.3-1.6 0-.4 1.8-1.7 5.5-3.8 3.6-2.1 6.4-3.5 8.1-4.1.8-.3 1.9-.3 3.2-.2 1.3.1 2.3.4 2.9.8.4.2.6.5.8.8.2.3.3.7.3 1.2.1.5.1 1.3.1 2.3v3.3l3.4-2.5c1.5-1.2 2.6-1.9 3.3-2.3.7-.3 1.8-.5 3.2-.5 1.6 0 2.6.1 2.9.2s.7.8 1 1.8c.5 1.2.6 2.8.3 4.6-.4 2.2-1 4.8-1.9 7.8s-1.7 5.1-2.4 6.5c-.9 1.8-1.4 3.2-1.4 4.1 0 .9-.3 1.5-.8 1.9-.7.6-1.1 1.3-1.3 2.3-.2.9-.2 1.9 0 2.8.2.9.6 1.7 1.2 2.5.6.7 1.3 1.2 2.1 1.4 1.5.3 3.2.3 5.2.2 2-.1 3.8-.4 5.7-.8.7-.2 1.1-.4 1.4-.6 2.7-1.5 4.7-2.7 6.1-3.9z"/><path d="M465.5 164.5c.6-.5 1.2-.7 1.7-.6s.7.5.7 1.4c0 .3-.1.5-.2.8s-.2.5-.4.6c-.1.2-.4.4-.6.6-.3.2-.5.4-.7.5s-.4.3-.7.5-.5.4-.6.4c-2 1.4-3.1 2.2-3.2 2.2-.2.2-.6.4-1.3.6-.7.2-1.2.3-1.6.3-.5.1-.9.2-1.3.2s-.8-.1-1.3-.2-.8-.2-1-.3-.4-.2-.5-.2c-.8-.4-1.8-1.2-3.2-2.5l-1.7-1.6-2.2 1.6c-1.5 1-3.1 1.6-4.9 1.9-1.5.1-2.9 0-4.2-.5-1.3-.5-2.4-1.3-3.1-2.4s-1-2.5-.7-4.1c.3-1.7 1.2-3.5 2.5-5.5s2.7-3.7 4.2-5.1c1.1-1.1 2-1.6 2.7-1.6.3 0 .7.3 1.3.9.4.4.6.7.5 1 0 .3-.2.8-.7 1.6-3.5 6.9-4.5 10.7-2.8 11.3h.3c1.2.2 2.8-.8 4.9-2.9 2.1-2.1 3.5-4.3 4.3-6.5.6-1.5 1.3-2.8 2.2-4 .7-1 1.3-1.6 1.6-1.7.3-.1 1 .1 1.9.5.8.4 1.2.9 1.3 1.5 0 .5-.3 1.4-.9 2.6-.3.5-.6 1-.8 1.6-.2.6-.4 1.1-.5 1.6-.1.1-.1.4-.2.8s-.2.7-.3 1c-.2.7-.3 1.3-.5 1.8-.3 1.2-.4 2.4-.4 3.4s.2 1.8.5 2.1c.3.3.9.5 1.9.5.1-.1.5-.2 1.2-.4.6-.2 1.1-.4 1.3-.5 2.4-1.1 4.2-2.2 5.5-3.2z"/><path d="M485.6 165.4c.6-.5 1.2-.7 1.7-.6.5.1.7.6.7 1.4 0 .3 0 .5-.2.8-.1.3-.3.5-.4.7-.1.2-.4.4-.6.6-.3.2-.5.4-.7.5-.2.1-.4.3-.8.5-.3.2-.5.4-.6.4-.7.5-1.4.8-2.1 1.2-.1 0-.1.1-.2.1s-.2.1-.3.1c-.1 0-.2.1-.3.1-.1 0-.2.1-.3.1h-.1c-1.8.7-3.6 1.1-5.7 1.3-2.1.1-3.6-.1-4.5-.6-.1-.1-.6-.3-1.4-.6-.8-.3-1.4-.6-1.7-.9-.7-.4-1.3-1.4-1.9-2.8-1.1-2.6-1.7-4.9-1.7-6.9 0-1.2.2-2.8.6-4.8 0-.1.1-.4.2-.7.1-.4.1-.7.2-.8s.1-.4.2-.8.2-.6.3-.8c.1-.2.2-.5.3-.7s.2-.5.3-.7c.6-.8 1.1-1.4 1.5-1.8 1.6-1.6 3.5-2.3 5.9-2.2 2.5.2 3.8 1 4 2.5.2 1.1.1 2.3-.2 3.5-.3 1.2-.7 2.2-1.1 3s-1.1 1.8-1.9 3c-.8 1.2-1.4 2.2-1.7 2.9-1.3 2.4-1.9 3.8-1.9 4.3 0 .4.4.9 1.1 1.6.5.4.9.7 1.2.8s1 0 2-.1c1.5-.2 3.1-.6 4.9-1.1.7-.2 1.6-.6 2.9-1.2 1.2-.6 2-1 2.3-1.3zm-16.8-3c.3 0 1-1.1 2.2-3.4 1.2-2.2 1.7-3.6 1.7-4.1 0-.5-.3-.9-.9-1.1-.6-.2-1.1 0-1.4.4-.3.3-.6.9-.9 1.6s-.5 1.4-.7 2.1c-.1.7-.3 1.4-.4 2.1s-.1 1.2-.1 1.7c.1.4.3.7.5.7z"/><path d="M507 162.1c.6-.5 1.2-.8 1.7-.7.5.1.7.6.7 1.4 0 .2 0 .4-.1.6s-.1.4-.2.5c-.1.2-.2.3-.4.5l-.5.5c-.2.2-.3.3-.5.4-.2.1-.4.3-.5.4-.1.1-.3.2-.5.4s-.3.2-.4.3c-.7.5-1.4.8-2.2 1.2-.1 0-.2.1-.4.2-.8.8-1.5 1.4-2.1 1.6-.6.2-1.3.4-2.3.4-1 .3-1.7.3-2-.1-.1 0-.5 0-1-.1-.6-.1-.9-.1-1.1-.1h-.9c-.4 0-.8 0-1.1.1l-.9.3c-.4.2-.8.3-1.4.3-.6 0-1.6-.1-3-.3-1-.1-1.9-.2-2.5-.3h-1.1c-.2 0-.4-.1-.5-.2-.3-.2-.7-1-1.2-2.3-.3-.8-.4-1.6-.5-2.4-.1-.3-.1-.6 0-.8.1-.7.4-1.2.7-1.3.1-.1.3-.1.6-.2s.5-.2.7-.3c.3-.2.5-.5.6-1 .2-.5.3-1 .3-1.5s.1-.8.1-.9c.1-.2.3-.4.7-.6.3-.2.5-.3.5-.3.3-.3.6-.7.9-1.2.1-.3.3-1.1.7-2.4.3-1.1.6-2.2.8-3.3.2-1.1.3-2 .4-2.8.1-1.8.3-2.8.6-3.2.2-.3.7-.5 1.4-.5s1.3.2 1.7.6c.2.1.4.4.6.7.2.3.3.6.4.9.1.3.2.6.3 1.1.1.5.2.8.3.9.5 1.6.9 3 1.1 4.3.1.5.2 1.3.3 2.3.1 1 .2 1.9.4 2.7.1.8.3 1.6.6 2.2.5 1.3.6 2.4.5 3.4-.1.6-.1 1.2-.1 1.8 0 .5.2 1 .5 1.3.4.3.9.5 1.7.4.3 0 .6-.1.9-.2.3-.1.6-.2.8-.3.2-.1.5-.3.8-.6.3-.3.6-.4.7-.5s.4-.3.7-.7c.4-.4 1.1-.9 2-1.6 1-.5 1.5-.9 1.7-1zm-13.5 1c.2-1 0-2.6-.7-4.8-.7-2.1-1.2-3.2-1.3-3.2-.2 0-.4.4-.5 1.2-.2.7-.4 1.3-.6 1.6-.3.5-.9 1.5-1.6 3.1-.7 1.6-1.1 2.5-1 2.7.1.2.4.4.9.6.4.2.9.4 1.4.5.5.1.9.1 1.3.1 1.1-.1 1.8-.8 2.1-1.8z"/><path d="M528.4 165c.7-.5 1.2-.6 1.7-.5s.7.6.6 1.4c0 .2-.1.4-.2.6s-.2.4-.4.6l-.5.5c-.2.1-.4.3-.6.5-.3.2-.5.3-.6.4s-.4.2-.7.3-.5.2-.5.3c-.7.4-1.5.7-2.2.9 0 0-.4.3-1.1.7-.7.4-1.4.9-2.3 1.4-.9.5-1.6.8-2.1 1-.7.3-1.5.5-2.3.6-.8.1-1.7.2-2.5.3-.9 0-1.7-.1-2.6-.3-.8-.2-1.5-.6-2.1-1-.7-.6-1.2-1.4-1.6-2.5-.4-1.1-.7-2.2-.8-3.4-.1-1.2-.2-2.4-.2-3.4s0-2.1.1-3.1c0-.1.2-1.4.5-3.7.3-2.3.6-4.6.9-6.8l.4-3.3c-.3-.2-1-.3-1.9-.4h-1.8c-1.4 0-2.4 0-3-.1H500.9c-.2 0-.4 0-.5-.1-.1 0-.2-.1-.2-.2-.1-.5.1-.8.6-1 0 0 .2-.2.6-.4.4-.2.7-.4 1.1-.6s.9-.4 1.6-.5c.7-.2 1.3-.2 2-.2 2.2.2 3.5.3 4 .2.5-.1 1.1-.4 1.6-.9.8-.7 1.8-2.6 3.1-5.7.1-.1.1-.3.3-.5.5-1.2.9-2.1 1.2-2.7.3-.7.8-1.5 1.3-2.5.6-1 1.2-1.9 1.9-2.6.7-.7 1.4-1.2 2.2-1.6 2.4-1.2 3.6-1.1 3.6.2 0 .7-.6 2.4-1.7 5.1-.3.7-.5 1.3-.7 1.7-.2.5-.3 1.1-.4 1.9-.1.7-.4 1.4-.8 2.2-.7 1.2-1.3 2.2-1.7 3.1-.5 1-.7 1.6-.6 1.7.1.2 1.6.5 4.4.8 1.9.2 3.1.4 3.5.5.4.1.6.4.5.8-.1.5-.4.8-.9.7h-1.4c-.7 0-1.5.1-2.3.1-.9.1-1.8.1-2.7.3-.9.1-1.6.2-2.2.3-.3.1-.7 1-1.3 2.8-.5 1.8-1.1 4-1.7 6.5-.6 2.5-1.1 4.3-1.4 5.1-1.5 4.4-1.3 7.4.6 9.1.8.7 1.6 1.1 2.3 1.1.4 0 .9-.2 1.4-.5.1-.1.4-.3.9-.5s1-.4 1.6-.6c.5-.2 1.1-.4 1.6-.6l.9-.3c2-1.4 3.8-2.3 5.2-3.2z"/><path d="M555.5 163.3c.6-.5 1.1-.8 1.6-.7.5.1.7.6.8 1.4 0 .2 0 .5-.1.7l-.3.6c-.2.2-.3.4-.5.5s-.4.3-.6.5-.4.3-.6.4-.4.3-.6.4c-.3.2-.4.3-.5.4-.7.5-1.4.8-2.1 1.1-.1 0-.1.1-.3.1-.1.1-.2.3-.3.3-.2.1-.4.2-.8.3-.7.4-1.6.6-2.9.8-1.3.1-2.5.2-3.5.1s-1.8-.2-2.1-.4c-.3-.2-.5-.5-.9-1.1-.3-.5-.6-1.1-.8-1.6-.2-.5-.4-1-.4-1.3-.2-.8-.3-1.7-.2-2.7.1-1 .2-2.5.5-4.6v-.5c0-.1-.1-.3-.2-.3-.1-.1-.2-.1-.4-.2h-.7c-.3 0-.7-.1-1.2-.2-.4-.1-.9-.2-1.3-.3-.4-.1-.8-.2-1.1-.2 0 0-.1.5-.3 1.4-.2.9-.5 1.9-.9 2.9s-.7 1.6-1 1.8c-1 .6-2.1 1-3.3 1.3-1.5.3-.8-2.9 2-9.8.1-.2.2-.5.4-1.1.2-.5.4-.9.5-1.1.1-.2.2-.6.4-1 .2-.5.3-.9.4-1.2.1-.3.2-.7.3-1.1.1-.4.2-.8.2-1.2 0-.4.1-.8.1-1.2 0-.5.3-1.3.9-2.5s1.1-1.9 1.4-2.2c.5-.3 1.1-.4 1.9-.3.8.1 1.3.3 1.6.5.3.4.3 2.1 0 5-.3 1.9-.4 3.1-.3 3.7 0 .6.2 1 .5 1.4.3.3.6.4.9.4.3 0 .7-.2 1.5-.7 1.1-.6 1.8-.9 2.3-.9.5 0 .9.4 1.3 1 .3.5.5.9.4 1.3 0 .4-.2 1.1-.6 2.2-.6 1.5-1.1 3.3-1.6 5.2-.3 1.6-.5 2.7-.3 3.5.1.7.6 1.6 1.4 2.6.3.5.6.8.8.8.1 0 .2 0 .5-.1.2-.1.4-.2.7-.3.2-.1.4-.2.5-.2.9-.2 1.5-.4 1.8-.6 2-.9 3.8-2 5.1-3z"/><path d="M580 162c.4.2.6.7.6 1.5 0 .9-.5 1.7-1.5 2.5-.4.3-.8.5-1.3.8-.1 0-.2.1-.3.2-.4.2-.7.4-1 .4-.9.1-1.7-.3-2.5-1-.2-.2-.4-.5-.6-.9l-.1-.2c-.3-.4-.5-.7-.7-.8-.2-.1-.5-.1-.9.1s-.9.9-1.5 2.1c-.3.6-.5 1-.6 1.3-.5.8-1 1.3-1.4 1.4-.5.3-1.2.7-2.1 1.2-1.1.7-2.1 1-3.1 1.1-1.1.1-2 .2-2.5.3h-.4c-.3 0-.6-.1-.8-.2-.3-.1-.8-.5-1.5-1.2s-1.2-1.2-1.5-1.7-.5-1.4-.8-2.7c-.4-2.1-.5-3.7-.3-5 .2-1.3.9-2.7 1.9-4.4 1.3-2.1 2.6-3.7 3.8-4.6 1.2-1 2.6-1.6 4.4-2 .8-.2 1.6-.5 2.2-.9 1-.7 1.9-.9 2.7-.7.7.1 1.6.7 2.6 1.8.5.6.9 1 1.1 1.4.2.3.4.7.5 1 .1.3.1.8.1 1.4 0 2.6.1 4.5.3 6 .1.8.3 1.5.6 1.9.3.4.8 1 1.6 1.6l.1-.1c.5-.3.9-.6 1.1-.8.6-.9 1.3-1.1 1.8-.8zm-11.2-.8c.1-.7.1-1.1 0-1.4-.1-.3-.5-.7-1.1-1.3-1-.9-1.4-1.7-1.4-2.3 0-.4-.1-.9-.4-1.4-.3-.5-.5-.9-.8-1.1-.2-.1-.4-.2-.5-.2-.1 0-.2 0-.3.1-.3.1-.9.7-1.8 1.6-.8.8-1.5 1.8-2.2 3s-1.2 2.3-1.5 3.4c-.3 1-.4 1.7-.2 2.2.2.4.4 1.2.4 2.2.1.8.2 1.4.3 1.7.1.3.4.5.6.6.3.1.8.2 1.6.2h.9c.2 0 .4 0 .6-.1.2-.1.4-.1.6-.2.2-.1.4-.2.6-.4.2-.1.4-.3.7-.6 1.1-.9 1.7-1.6 1.9-2.1.2-.5.5-1.1 1-1.7.5-.5.8-1.2 1-2.2zm1.2-6.7c0-1.1-.1-1.7-.3-1.9l-.2.2c-.1.3-.1.8 0 1.8.1.7.2 1.1.3 1.3.2-.2.2-.7.2-1.4z"/><path d="M600.4 162.1c.6-.5 1.2-.8 1.7-.7.5.1.7.6.7 1.4 0 .2 0 .4-.1.6s-.1.4-.2.5c-.1.2-.2.3-.4.5l-.5.5c-.2.2-.3.3-.5.4-.2.1-.4.3-.5.4-.1.1-.3.2-.5.4s-.3.2-.4.3c-.7.5-1.4.8-2.2 1.2-.1 0-.2.1-.4.2-.8.8-1.5 1.4-2.1 1.6-.6.2-1.3.4-2.3.4-1 .3-1.7.3-2-.1-.1 0-.5 0-1-.1-.6-.1-.9-.1-1.1-.1h-.9c-.4 0-.8 0-1.1.1l-.9.3c-.4.2-.8.3-1.4.3-.6 0-1.6-.1-3-.3-1-.1-1.9-.2-2.5-.3h-1.1c-.2 0-.4-.1-.5-.2-.3-.2-.7-1-1.2-2.3-.3-.8-.4-1.6-.5-2.4-.1-.3-.1-.6 0-.8.1-.7.4-1.2.7-1.3.1-.1.3-.1.6-.2s.5-.2.7-.3c.3-.2.5-.5.6-1 .2-.5.3-1 .3-1.5s.1-.8.1-.9c.1-.2.3-.4.7-.6.3-.2.5-.3.5-.3.3-.3.6-.7.9-1.2.1-.3.3-1.1.7-2.4.3-1.1.6-2.2.8-3.3.2-1.1.3-2 .4-2.8.1-1.8.3-2.8.6-3.2.2-.3.7-.5 1.4-.5s1.3.2 1.7.6c.2.1.4.4.6.7.2.3.3.6.4.9.1.3.2.6.3 1.1.1.5.2.8.3.9.5 1.6.9 3 1.1 4.3.1.5.2 1.3.3 2.3.1 1 .2 1.9.4 2.7.1.8.3 1.6.6 2.2.5 1.3.6 2.4.5 3.4-.1.6-.1 1.2-.1 1.8 0 .5.2 1 .5 1.3.4.3.9.5 1.7.4.3 0 .6-.1.9-.2.3-.1.6-.2.8-.3.2-.1.5-.3.8-.6.3-.3.6-.4.7-.5s.4-.3.7-.7c.4-.4 1.1-.9 2-1.6 1.1-.5 1.6-.9 1.7-1zm-13.4 1c.2-1 0-2.6-.7-4.8-.7-2.1-1.2-3.2-1.3-3.2-.2 0-.4.4-.5 1.2-.2.7-.4 1.3-.6 1.6-.3.5-.9 1.5-1.6 3.1-.7 1.6-1.1 2.5-1 2.7.1.2.4.4.9.6.4.2.9.4 1.4.5.5.1.9.1 1.3.1 1.1-.1 1.8-.8 2.1-1.8zM424.6 206c.6-.5 1.2-.7 1.7-.6.5.1.7.6.7 1.4 0 .3 0 .5-.2.8-.1.3-.3.5-.4.7-.1.2-.4.4-.6.6-.3.2-.5.4-.7.5-.2.1-.4.3-.8.5-.3.2-.5.4-.6.4-.7.5-1.4.8-2.1 1.2-.1 0-.1.1-.2.1s-.2.1-.3.1c-.1 0-.2.1-.3.1-.1 0-.2.1-.3.1h-.1c-1.8.7-3.6 1.1-5.7 1.3-2.1.1-3.6-.1-4.5-.6-.1-.1-.6-.3-1.4-.6s-1.4-.6-1.7-.9c-.7-.4-1.3-1.4-1.9-2.8-1.1-2.6-1.7-4.9-1.7-6.9 0-1.2.2-2.8.6-4.8 0-.1.1-.4.2-.7.1-.4.1-.7.2-.8.1-.2.1-.4.2-.8s.2-.6.3-.8c.1-.2.2-.5.3-.7.1-.2.2-.5.3-.7.6-.8 1.1-1.4 1.5-1.8 1.6-1.6 3.5-2.3 5.9-2.2 2.5.2 3.8 1 4 2.5.2 1.1.1 2.3-.2 3.5s-.7 2.2-1.1 3c-.4.8-1.1 1.8-1.9 3-.8 1.2-1.4 2.2-1.7 2.9-1.3 2.4-1.9 3.8-1.9 4.3 0 .4.4.9 1.1 1.6.5.4.9.7 1.2.8s1 0 2-.1c1.5-.2 3.1-.6 4.9-1.1.7-.2 1.6-.6 2.9-1.2 1.3-.6 2-1 2.3-1.3zm-16.7-3c.3 0 1-1.1 2.2-3.4 1.2-2.2 1.7-3.6 1.7-4.1 0-.5-.3-.9-.9-1.1-.6-.2-1.1 0-1.4.4-.3.3-.6.9-.9 1.6-.3.7-.5 1.4-.7 2.1-.1.7-.3 1.4-.4 2.1-.1.7-.1 1.2-.1 1.7.1.4.2.7.5.7z"/><path d="M446 202.7c.6-.5 1.2-.8 1.7-.7.5.1.7.6.7 1.4 0 .2 0 .4-.1.6s-.1.4-.2.5c-.1.2-.2.3-.4.5l-.5.5c-.2.2-.3.3-.5.4-.2.1-.4.3-.5.4-.1.1-.3.2-.5.4s-.3.2-.4.3c-.7.5-1.4.8-2.2 1.2-.1 0-.2.1-.4.2-.8.8-1.5 1.4-2.1 1.6-.6.2-1.3.4-2.3.4-1 .3-1.7.3-2-.1-.1 0-.5 0-1-.1-.6-.1-.9-.1-1.1-.1h-.9c-.4 0-.8 0-1.1.1l-.9.3c-.4.2-.8.3-1.4.3-.6 0-1.6-.1-3-.3-1-.1-1.9-.2-2.5-.3h-1.1c-.2 0-.4-.1-.5-.2-.3-.2-.7-1-1.2-2.3-.3-.8-.4-1.6-.5-2.4-.1-.3-.1-.6 0-.8.1-.7.4-1.2.7-1.3.1-.1.3-.1.6-.2s.5-.2.7-.3c.3-.2.5-.5.6-1 .2-.5.3-1 .3-1.5s.1-.8.1-.9c.1-.2.3-.4.7-.6.3-.2.5-.3.5-.3.3-.3.6-.7.9-1.2.1-.3.3-1.1.7-2.4.3-1.1.6-2.2.8-3.3.2-1.1.3-2 .4-2.8.1-1.8.3-2.8.6-3.2.2-.3.7-.5 1.4-.5s1.3.2 1.7.6c.2.1.4.4.6.7.2.3.3.6.4.9.1.3.2.6.3 1.1.1.5.2.8.3.9.5 1.6.9 3 1.1 4.3.1.5.2 1.3.3 2.3.1 1 .2 1.9.4 2.7.1.8.3 1.6.6 2.2.5 1.3.6 2.4.5 3.4-.1.6-.1 1.2-.1 1.8 0 .5.2 1 .5 1.3.4.3.9.5 1.7.4.3 0 .6-.1.9-.2.3-.1.6-.2.8-.3.2-.1.5-.3.8-.6.3-.3.6-.4.7-.5s.4-.3.7-.7c.4-.4 1.1-.9 2-1.6 1.1-.5 1.6-.9 1.7-1zm-13.4 1c.2-1 0-2.6-.7-4.8-.7-2.1-1.2-3.2-1.3-3.2-.2 0-.4.4-.5 1.2-.2.7-.4 1.3-.6 1.6-.3.5-.9 1.5-1.6 3.1-.7 1.6-1.1 2.5-1 2.7.1.2.4.4.9.6.4.2.9.4 1.4.5.5.1.9.1 1.3.1 1.1-.1 1.8-.8 2.1-1.8z"/><path d="M470.5 204.6c.6-.5 1.2-.7 1.7-.6.5.1.7.6.7 1.4 0 .3-.1.5-.2.8-.1.3-.2.5-.4.7-.1.2-.4.4-.6.6s-.5.4-.7.5c-.2.1-.4.3-.7.5-.3.2-.5.4-.6.4-.7.5-1.4.8-2.1 1.1-.5.3-1.5.5-3 .8-1.5.3-2.6.4-3.4.4-.7 0-1.7-.2-2.9-.7-1.2-.5-2.3-.9-3.2-1.3-.9-.4-1.3-.6-1.3-.5h-1c-.2 0-.6.1-1.1.4s-.9.8-1.4 1.4c-.7.9-1.4 2.1-1.9 3.6-.6 1.5-1 2.5-1.2 2.9-.3.6-.6 1.2-.9 2-.3.7-.6 1.4-.9 1.9-.3.5-.7 1.1-1.2 1.6-.4.5-.8.8-1 .9-.2.1-.7.1-1.2-.2-.7-.3-1.2-.9-1.5-2-.3-1.1-.4-2-.2-2.8.1-.5.5-1.1 1-2 .6-.8.9-1.4 1.1-1.8.2-.5.4-1.2.6-2.1.2-.9.4-1.6.5-1.9.2-.6.6-1.5 1.1-2.6s.9-1.9 1.1-2.5c.3-.8.5-1.8.6-3 .1-1.2.3-2.3.5-3.4s.5-2 1-2.9c.1-.1.1-.3.3-.5l.3-.6c.1-.2.2-.4.4-.6.1-.2.3-.5.4-.6.1-.2.3-.4.4-.6.2-.2.3-.4.5-.6l.5-.5c.2-.2.4-.3.5-.4.2-.1.4-.2.5-.3 1-.3 1.8-.1 2.2.6.5.7.4 1.4-.1 2.3-.7 1.2-.9 1.8-.5 1.7.4-.1 1.1-.7 2.1-1.7 1.2-1.2 2.2-2 3.2-2.6 1-.6 2.2-1 3.5-1.3 1.3-.2 1.9-.4 2-.5.1 0 .2 0 .3.2s.2.4.3.7c.1.3.2.7.3 1.1.1.4.1.9.2 1.3s.1.8.1 1.3c0 4-.6 6.6-1.7 7.8-.7.7-1.2 1.4-1.6 2.1-.1.3-.3.4-.4.5-.2.1-.3.1-.4.1-.1 0-.3 0-.5.1s-.4.2-.5.4c-.4.4-.8.6-1.3.6-.4 0-.9.2-1.4.6-.6.4-.9.7-.9.9 0 .1.2.2.5.3.3.1.7.3 1.1.4.4.1.9.2 1.3.3.5.1.8.1 1.2.1.5 0 1.1-.1 1.8-.2.3-.1.6-.2.9-.4.4-.1.7-.3 1-.4.3-.1.6-.2.8-.3 2.4-.8 4.1-1.9 5.4-2.9zm-16.3-.2c.4.5.8.8 1.2.8.7 0 1.7-.6 3.1-1.8 1.4-1.2 2.2-2.2 2.6-3 .4-.9.6-1.9.6-3s-.1-2-.5-2.6c-.3-.6-.7-.9-1-.8-.3.1-1.1.7-2.2 1.8-1.1 1-2.1 2.2-3 3.7-.9 1.5-1.4 2.6-1.4 3.3-.1.5.2 1.1.6 1.6z"/><path d="M497.1 205.6c.5-.4 1-.6 1.4-.5.4.1.6.5.6 1.1 0 .1 0 .3-.1.5s-.1.3-.2.4c-.1.1-.2.3-.3.4l-.4.4c-.1.1-.3.2-.4.4-.2.1-.3.2-.4.3-.1.1-.3.2-.4.3-.2.1-.3.2-.4.3-.5.4-1.1.7-1.7 1-.1 0-.4.2-1 .5l-.2.3c-.8.7-1.9 1.2-3.4 1.4-.9.1-1.6.1-2.1 0s-1.2-.4-2.1-.8c-1.3-.6-2.2-1.2-2.6-1.6-.3-.2-.5-.3-.7-.3-.2 0-.6.3-1.1.7-1.8 1.3-3.9 2-6.3 2.1-2.4.2-4-.3-4.8-1.4-.5-.7-.7-2.1-.6-4.2 0-2.1.3-3.6.8-4.4.4-.8.8-1.4 1-1.7.3-.4.5-.7.7-1 .2-.3.6-.8 1.2-1.5 1.8-2.2 3.2-3.8 4.3-4.6.8-.6 1.8-1.2 2.8-1.6 1.1-.4 2.2-.7 3.4-.9 1.2-.1 2.3 0 3.2.5 1.1.6 1.8 1.6 2.1 3 .3 1.4.2 2.7-.1 4.1-.3 1.3-.8 2.5-1.3 3.7-.5 1.1-.9 2.3-1.1 3.6-.2 1.3-.2 2.1 0 2.5.5 1.1 2.3 1.2 5.4.2h.3c.2-.1.3-.1.4-.2 1.6-1.3 3-2.2 4.1-3zm-13.1-8.1c.3-.2.5-.3.5-.4 0-.1 0-.3-.2-.4-.3-.4-.8-.6-1.5-.7-.6-.1-1.3-.1-1.9.1-.6.1-1.5.7-2.7 1.7-1.2 1-2.1 1.9-2.5 2.6-.6.8-1.1 1.6-1.5 2.2-.5.7-.8 1.7-1 3-.2 1.3-.1 2.2.2 2.6.3.3.9.5 1.9.5 1 0 1.9-.2 2.8-.5.8-.4 1.5-1 1.9-1.8.7-1.4 1.3-2.4 1.7-3.3.7-1.3 1.1-2.2 1.1-2.6 0-.3.1-.6.4-.9.2-.3.3-.6.2-1-.1-.5.1-.8.6-1.1z"/><path d="M519.7 205.6c.6-.5 1.2-.7 1.6-.6.5.1.7.5.7 1.4 0 .2 0 .4-.1.6l-.3.6c-.1.2-.3.4-.5.5-.1.2-.3.3-.6.5-.2.2-.4.3-.6.4-.2.1-.4.2-.6.4-.3.2-.4.3-.5.3-.7.5-1.4.8-2.1 1.2-.5.2-1.2.5-2.3.8-1.1.4-2.5.8-4.2 1.2-1.7.4-3.4.6-5 .5s-2.8-.6-3.6-1.4c-.3-.3-.7-.8-1.1-1.4s-.8-1.2-1.1-1.8c-.3-.6-.5-1.1-.7-1.4-.4-1-.5-2.4-.5-4.2.3-5.4 2.6-10.1 7-14 1-.9 1.8-1.4 2.3-1.6s1.4-.3 2.8-.3c2.5 0 4.4.5 5.7 1.6 1.3 1.1 1.8 2.5 1.5 4.3-.2.9-.4 1.4-.6 1.7s-.6.4-1.3.5c-.9.1-1.7-.1-2.5-.5s-1.1-.9-.9-1.4c.2-.4.1-.9-.3-1.3s-.8-.7-1.3-.7c-1 0-2.4 1-4.3 3s-2.9 3.5-2.9 4.5c0 .4-.2.9-.6 1.6-.4.6-.6 1.7-.6 3.3.1 1.5.3 2.6.7 3.2.7 1 1.8 1.7 3.5 2.1 1.6.4 3.1.5 4.5.2.7-.1 1.5-.3 2.3-.7 1.5-.6 2.9-1.4 4.2-2.4 1-.7 1.7-1 2-.8 0 0 .1 0 .2-.1s0 .2.1.2z"/><path d="M538.1 205.3c.2.3.2.7 0 1-.2.3-.7.8-1.6 1.6-1.4 1.2-3 2.2-4.8 3.2-1.4.7-2.8 1-4.3.8-1.5-.1-2.9-.6-4.2-1.3-1.3-.7-2.4-1.7-3.4-2.8-1.4-1.6-1.8-3.8-1.2-6.4.1-.2.2-.9.3-2.1.2-1.2.4-2.2.5-3.1.2-.9.4-1.5.6-1.8.3-.3.7-.5 1.3-.6.6-.1 1.2-.1 1.8 0 .6.1 1.2.3 1.8.6.6.3 1 .6 1.2 1.1.2.5.2 1 0 1.6-.7 1.4-1 2.3-1 2.9 0 .5-.3 1.2-.9 1.9-.5.6-.8 1.3-.9 2.1-.1.8 0 1.4.4 1.6.3.1.5.5.5 1.1 0 .5.4 1.1 1.1 1.8.5.5.9.8 1.2.8.3.1.9 0 1.7-.2 1.2-.4 2.7-1.3 4.5-2.6 1.5-1.1 2.6-1.7 3.3-1.8 1-.4 1.6-.1 2.1.6zm-7.7-20.6c-.8.2-1.6-.1-2.4-.9-.5-.5-.8-.9-.9-1.1 0-.2.2-.4.6-.8.6-.4 1.4-.6 2.3-.6s1.6.2 1.9.6c.4.5.4 1 .1 1.6s-.8 1-1.6 1.2z"/><path d="M559.7 202.6c.4.2.6.7.6 1.5 0 .9-.5 1.7-1.5 2.5-.4.3-.8.5-1.3.8-.1 0-.2.1-.3.2-.4.2-.7.4-1 .4-.9.1-1.7-.3-2.5-1-.2-.2-.4-.5-.6-.9l-.1-.2c-.3-.4-.5-.7-.7-.8-.2-.1-.5-.1-.9.1s-.9.9-1.5 2.1c-.3.6-.5 1-.6 1.3-.5.8-1 1.3-1.4 1.4-.5.3-1.2.7-2.1 1.2-1.1.7-2.1 1-3.1 1.1-1.1.1-2 .2-2.5.3h-.4c-.3 0-.6-.1-.8-.2-.3-.1-.8-.5-1.5-1.2s-1.2-1.2-1.5-1.7-.5-1.4-.8-2.7c-.4-2.1-.5-3.7-.3-5 .2-1.3.9-2.7 1.9-4.4 1.3-2.1 2.6-3.7 3.8-4.6 1.2-1 2.6-1.6 4.4-2 .8-.2 1.6-.5 2.2-.9 1-.7 1.9-.9 2.7-.7.7.1 1.6.7 2.6 1.8.5.6.9 1 1.1 1.4.2.3.4.7.5 1 .1.3.1.8.1 1.4 0 2.6.1 4.5.3 6 .1.8.3 1.5.6 1.9.3.4.8 1 1.6 1.6l.1-.1c.5-.3.9-.6 1.1-.8.6-.9 1.3-1.1 1.8-.8zm-11.2-.8c.1-.7.1-1.1 0-1.4-.1-.3-.5-.7-1.1-1.3-1-.9-1.4-1.7-1.4-2.3 0-.4-.1-.9-.4-1.4-.3-.5-.5-.9-.8-1.1-.2-.1-.4-.2-.5-.2-.1 0-.2 0-.3.1-.3.1-.9.7-1.8 1.6-.8.8-1.5 1.8-2.2 3s-1.2 2.3-1.5 3.4c-.3 1-.4 1.7-.2 2.2.2.4.4 1.2.4 2.2.1.8.2 1.4.3 1.7.1.3.4.5.6.6.3.1.8.2 1.6.2h.9c.2 0 .4 0 .6-.1.2-.1.4-.1.6-.2.2-.1.4-.2.6-.4.2-.1.4-.3.7-.6 1.1-.9 1.7-1.6 1.9-2.1.2-.5.5-1.1 1-1.7.6-.5.9-1.2 1-2.2zm1.3-6.6c0-1.1-.1-1.7-.3-1.9l-.2.2c-.1.3-.1.8 0 1.8.1.7.2 1.1.3 1.3.1-.3.2-.8.2-1.4z"/><path d="M580.2 202.7c.6-.5 1.2-.8 1.7-.7.5.1.7.6.7 1.4 0 .2 0 .4-.1.6s-.1.4-.2.5c-.1.2-.2.3-.4.5l-.5.5c-.2.2-.3.3-.5.4-.2.1-.4.3-.5.4-.1.1-.3.2-.5.4s-.3.2-.4.3c-.7.5-1.4.8-2.2 1.2-.1 0-.2.1-.4.2-.8.8-1.5 1.4-2.1 1.6-.6.2-1.3.4-2.3.4-1 .3-1.7.3-2-.1-.1 0-.5 0-1-.1-.6-.1-.9-.1-1.1-.1h-.9c-.4 0-.8 0-1.1.1l-.9.3c-.4.2-.8.3-1.4.3-.6 0-1.6-.1-3-.3-1-.1-1.9-.2-2.5-.3h-1.1c-.2 0-.4-.1-.5-.2-.3-.2-.7-1-1.2-2.3-.3-.8-.4-1.6-.5-2.4-.1-.3-.1-.6 0-.8.1-.7.4-1.2.7-1.3.1-.1.3-.1.6-.2s.5-.2.7-.3c.3-.2.5-.5.6-1 .2-.5.3-1 .3-1.5s.1-.8.1-.9c.1-.2.3-.4.7-.6.3-.2.5-.3.5-.3.3-.3.6-.7.9-1.2.1-.3.3-1.1.7-2.4.3-1.1.6-2.2.8-3.3.2-1.1.3-2 .4-2.8.1-1.8.3-2.8.6-3.2.2-.3.7-.5 1.4-.5s1.3.2 1.7.6c.2.1.4.4.6.7.2.3.3.6.4.9.1.3.2.6.3 1.1.1.5.2.8.3.9.5 1.6.9 3 1.1 4.3.1.5.2 1.3.3 2.3.1 1 .2 1.9.4 2.7.1.8.3 1.6.6 2.2.5 1.3.6 2.4.5 3.4-.1.6-.1 1.2-.1 1.8 0 .5.2 1 .5 1.3.4.3.9.5 1.7.4.3 0 .6-.1.9-.2.3-.1.6-.2.8-.3.2-.1.5-.3.8-.6.3-.3.6-.4.7-.5s.4-.3.7-.7c.4-.4 1.1-.9 2-1.6 1.1-.5 1.6-.9 1.7-1zm-13.5 1c.2-1 0-2.6-.7-4.8-.7-2.1-1.2-3.2-1.3-3.2-.2 0-.4.4-.5 1.2-.2.7-.4 1.3-.6 1.6-.3.5-.9 1.5-1.6 3.1-.7 1.6-1.1 2.5-1 2.7.1.2.4.4.9.6.4.2.9.4 1.4.5.5.1.9.1 1.3.1 1.1-.1 1.9-.8 2.1-1.8z"/></g></svg>