<svg version="1.1" id="Capa_1" xmlns="http://www.w3.org/2000/svg" x="0" y="0" viewBox="0 0 500.9 443.9" xml:space="preserve"><style>.st0{enable-background:new}</style><path d="M463.1 334.1c-1.1-1.1-1.3-1.2-2.7-1.1-.2 0-.5.2-.6.2-.2-.2-.4-.2-.6 0-.1.1-.4-.2-.6.1-.1.1-.5.3-.6.2-.2-.1-.4 0-.6 0-.1 0-.4-.2-.4-.1-.3.4-.7.2-1.1.2-.3.1-.7.2-1 .2h-1.1c-.3 0-.6.2-.9.2-.3.1-.7-.1-1 .2-.3-.5-.6 0-.9 0-.5 0-1 0-1.4.2s-1-.2-1.3.3c-.4-.5-.8 0-1.2 0s-.9-.1-1.2.2c-.3-.4-.6.1-1 0s-.8 0-1.2.2-.9 0-1.3 0h-.2c-.4.5-1 .2-1.5.2-.5.1-1.1.2-1.6.2-.3 0-.8 0-.9.1-.3.4-.6-.3-.9.1-.8.1-1.5.2-2.3.3-.2 0-.5 0-.6.2-.2.3-.3-.3-.7-.1-.5.3-1.2.4-1.8.3-.4-.1-.8 0-1.1.1s-.4 0-.6 0c-.3.1-.5.1-.8.1s-.7-.1-.9 0c-.3.2-.6 0-.8.2-.2.1-.8-.1-.9.1-.3.4-.6 0-.9.1-1 .3-2.2.2-3.2.6-.3-.4-.6 0-.9 0-.3 0-.8.3-.9.1-.4-.3-.6.3-.9.1-.3-.1-.7-.2-1 .2-.3-.2-.6 0-.9 0-.4 0-.7.4-1.1 0-.4.4-1 .2-1.5.3-.8.1-1.6.1-2.3.3-.4.1-.3-.2-.6-.2.7-.7 1.4-1.4 1.9-2.2.8-1 1.6-2.1 2.4-3.1.8-1 1.5-2.1 2.3-3.1.2-.2.5-.4.5-.6 0-.6.5-.8.7-1.3s.7-.6.8-1.1c0-.6.5-.7.7-1.1.7-1.5 1.7-2.7 2.5-4.1.7-1.3 1.4-2.6 2.1-3.8 1.5-2.7 2.8-5.6 4.1-8.4.1-.3.6-.6.2-1 .8-1 1.1-2.3 1.5-3.5.1-.4.5-.7.5-1.2 0-.4.3-.8.5-1.3 0-.1.1-.1.1-.2-.1-.8.7-1.3.5-2.1.7-1 .7-2.2 1.3-3.2-.2-.6.3-1 .4-1.6.1-.7.3-1.5.5-2.2.4-1.1.7-2.3.9-3.5.1-.5.1-1 .4-1.5.1-.2.3-.5.2-.6-.2-.3.2-.5.1-.8-.1-.3.3-.6 0-.9.4-.2 0-.7.3-1s0-.8.2-1c.3-.3-.1-.6.2-.8.1-.2.1-.5.1-.8 0-.2.2-.4.2-.6 0-.3-.1-.6.2-.7-.4-.2 0-.4 0-.6 0-.5 0-1 .2-1.4.2-.5-.1-1 .3-1.6.2-.4.1-1.1.1-1.7 0-.1 0-.2.1-.3.3-.5.2-1 .1-1.5s.4-1 .2-1.5c-.1-.3 0-.5 0-.8s-.1-.6.1-.8c.3-.3-.2-.5-.1-.8.1-.2.5-.3.2-.7-.1-.1-.2-.5-.1-.6.2-.3.2-.5.2-.8v-1.6-1.6-1.6-1.6-1.6-1.6c0-.5-.2-1-.1-1.4.1-.4-.1-.8-.1-1.2 0-.4.1-.9 0-1.2-.1-.3.1-.7-.2-.9.6-.3-.1-.7 0-1 0-.5-.1-1-.1-1.5s-.3-1-.1-1.4c.1-.5-.5-.9 0-1.4-.5-1.2-.5-2.5-.8-3.7 0-.2.2-.4.1-.6-.3-.6-.5-1.2-.5-1.9-.3-.2 0-.5-.1-.7s-.1-.5-.1-.8c-.1-.3-.1-.6-.2-.9-.1-.2-.2-.4-.2-.6-.1-.3-.1-.5-.1-.8 0-.2-.1-.6-.2-.6-.4-.2.1-.4-.1-.6-.3-.6-.3-1.4-.7-2-.2-.4.3-.5 0-.8-.2-.2-.3-.6-.4-.9-.4-.8-.2-1.7-.7-2.4-.5-2.1-1.5-4-2-6-.2-.7-.3-1.4-.8-2-.4-.4-.4-1-.7-1.4-.1-.3-.3-.6-.4-.9-.1-.2-.2-.3-.3-.5-.4-1.3-.9-2.6-1.7-3.8-.4-.7-.5-1.5-1-2.1-.2-.2-.4-.5-.5-.8-.3-1.5-1.5-2.6-1.9-4-.5-.5-.7-1.1-1-1.7-.2-.4-.7-.6-.7-1.2 0-.4-.5-.6-.7-1-.5-.9-1-1.7-1.5-2.5-.4-.7-.9-1.2-1.3-1.9s-.9-1.4-1.4-2c-.6-.7-1.2-1.4-1.7-2.2-.5-.9-1.1-1.6-1.6-2.3-.2-.4-.6-.4-.8-.8-.4-.7-.8-1.4-1.5-1.9-.5-.4-.8-1.1-1.4-1.5-.5-.3-.8-.9-1.2-1.4-.5-.5-.9-1.1-1.4-1.6s-.8-1.1-1.4-1.5c-.3-.2-.4-.6-.7-.9-.3-.3-.6-.6-.9-.8-.8-.7-1.4-1.6-2.3-2.1-.5-.3-1-.7-1.3-1.1-.3-.4-.8-.7-1.1-1.1-.3-.5-.8-.7-1.3-1 0 0 0-.1-.1-.1-.4-.8-1.4-1.1-1.9-1.8-.3-.4-.7-.7-1.1-.9-.4-.2-.6-.7-1.1-.7.2-.5-.7-.3-.5-.7-.3-.2-.7-.4-1-.6-.3-.2-.5-.5-.8-.7-.7-.3-1.2-.8-1.8-1.2s-1.1-.8-1.7-1.2c-.5-.4-1.3-.5-1.6-1.2-1.2-.4-2-1.3-3.1-1.9l-.6-.3c-.5-.3-1.1-.4-1.5-.8-.4-.5-.9-.6-1.3-.9l-.6-.3c-1.1-.9-2.5-1.4-3.7-2.1-1.3-.7-2.6-1.4-4-2s-2.7-1.4-4.2-1.8c-1-.3-1.8-1-2.9-1.2-.2 0-.5-.2-.7-.3s-.6-.2-.7-.3c-.2-.3-.4.2-.6-.1-.5-.3-1-.7-1.7-.6-.5-.5-1.2-.4-1.8-.7s-1.2-.5-1.8-.6c-.3-.1-.5-.2-.8-.3 2.3-3.1 4.5-6.4 6.4-9.9 7.5-13.9 11.4-28.5 9.3-44.4-2.3-17.9-11.3-31.3-27.2-40.1-9.4-5.2-19.6-7.9-30.1-9.6-18-2.8-36.2-4.1-54.5-4.2-16.1-.1-32.3.3-48.4.7-15.2.4-30.3 1.7-45.3 3.7-17.4 2.3-34.6 5.6-51.5 10.2-12.7 3.5-25.3 7-37.3 12.4-12.4 5.6-23.7 12.9-32.7 23.2-18.7 21.3-17.8 52.7 2.2 72.4 8.7 8.6 19.4 13.5 31.3 16 12.1 2.6 24.4 3.2 36.6 3.4 17 .2 33.9.1 55 .1 7.7-.2 19.6-.5 31.5-1 9.7-.4 19.5-.9 29.2-1.6 10-.6 20-1.4 30-2.2 3.5-.3 7-.6 10.5-1 1.5-.2 2.3-1.5 2.1-3.1-.2-1.5-1-2-2.6-1.9-9.9.9-19.9 1.9-29.8 2.5-16.7 1-33.4 2-50.1 2.7-13.7.6-27.5.9-41.2 1.1-17.3.3-34.7.4-52-1.3-7.2-.7-14.3-1.4-21.3-3.2-11.7-3-21.9-8.4-29.7-17.9-8.8-10.6-12.6-22.8-10.7-36.5 1.6-11.4 7.4-20.8 15.4-28.8C61.2 90.9 69.1 86 77.5 82c12.1-5.8 24.9-9.9 37.7-13.6 16.3-4.8 32.9-8.3 49.8-10.6 11.3-1.5 22.7-2.6 34.1-3.5 8.1-.7 16.2-.9 24.3-1.1 9.4-.2 18.8-.3 28.2-.2 11.2.2 22.4.8 33.6 1.2 11 .4 22.1.7 33 2.4 9.2 1.4 18.1 3.9 26.4 8.3 10 5.3 17.7 12.8 22.1 23.4 5 12.1 5.3 24.5 2.4 37.1-3.8 16.6-12.9 29.9-25.8 40.7-10.7 9-22.8 15.6-35.6 21-12.9 5.5-26.3 9.6-39.7 13.7-19.8 6.1-39.9 10.1-60.7 11-14.1.6-28-.5-41.8-3.4-1.8-.4-2.9.3-3.2 2-.3 1.5.4 2.5 2.1 2.9 14.1 3 28.4 4.1 42.8 3.5 12.4-.5 24.7-2 36.8-4.6 16.9-3.6 33.4-8.5 49.7-14.2 15.3-5.4 29.9-12 43.3-21.3 7.5-5.2 14.2-11 19.9-17.9.2.3.3.6.5.8s.7.4.9.4c.5-.1.7.4 1.1.4.5-.1.8.3 1.2.4.4 0 .7.1 1 .3.1.1.4.3.5.2.5-.3.7.1 1 .3s.7.3 1.1.3c.4 0 .7.3 1.1.5.1.1.2.2.3.2l1.2.3 1.2.6c.3.2.7.1 1 .2 2.2 1.1 4.4 2.3 6.7 3.2.8.3 1.6.6 2.2 1.1.7.6 1.4.8 2.2 1.2.2.1.3.2.5.3s.4.3.6.4c.5.3 1.1.5 1.5.9s1.2.4 1.5 1c1.1.4 2 1.1 2.9 1.8.4.3.8.5 1.3.7.1.7.8.6 1.2.9.9.7 1.9 1.4 2.8 2.1.4.3.7.6 1.1.8.4.2.6.7 1.1.7.4.9 1.4 1 1.8 1.8 1.1.5 1.8 1.5 2.7 2.3.5.4 1.1.7 1.3 1.3 1.1.4 1.5 1.6 2.5 2 .1.5.5.9.9 1.1.5.3.6.8 1 1.1s.6.8 1.2.9c.1 0 .1.1.1.2-.2.7.9.6.8 1.2 1.1.6 1.7 1.7 2.5 2.6.8.9 1.8 1.7 2.3 2.9.7.1.8.8 1.1 1.2s.9.8 1 1.4c.8.5.9 1.6 1.6 2.1 0 .5.7.5.7.9.1.5.4.8.7 1 .4.3.2.9.7 1.2.3.2.5.6.8 1 .2.3.4.7.6 1.1.2.4.6.5.7.9.1.3.4.7.5 1 0 .4.5.4.7.8.5 1.1 1.1 2.2 1.8 3.2.2.4.4.7.6 1.1.2.3-.1.9.5.8 0 .6.7 1 .7 1.5.1.7.7 1 .8 1.6.1.4.3.8.5 1.2.3.5.4 1.1.7 1.6s.7 1 .9 1.6c.3 1.2.9 2.4 1.3 3.6.1.5.5.8.7 1.3.4 1 .6 2.1 1 3.1.2.5.2 1.1.4 1.6.4 1.3 1.1 2.5 1.3 3.9.5.2-.3.5.1.9.4.3.4.9.4 1.4 0 .2.1.4.1.5.1.5.6 1 .5 1.4s.1.7.1 1c0 .4.1.8.2 1.1.3.6.2 1.3.5 2 .1.3 0 .7.2 1.1.2.3.2.8.1 1-.2.5.4.7.2 1.1.3.2.1.6.2.9.1.3-.1.8.1 1 .2.3-.1.5.1.8.2.3 0 .8.1 1.2.1.3.4.6 0 .9.3.2.3.5.2.7-.1.3.3.5.1.8-.1.2.3.5-.1.6.3.2.2.6.2.9s-.1.6 0 .8c.2.4-.1.7 0 1 .4.9.1 1.8.2 2.7 0 .3.2.7.1.9-.1.4-.2.7 0 1 .1.4-.3.7-.1 1s-.1.6.2.8c-.5.2-.1.6-.1.8 0 .4-.2.8-.2 1.2v1.4c0 .4-.1.8 0 1.2.1.4-.4.7-.1 1 .3.4-.3.7 0 1 .1.1-.4.4-.1.7.1.1-.1.4-.1.6s.2.4.1.6c-.4.8-.1 1.8-.3 2.6-.1.3.1.7 0 .9-.2.3 0 .6-.1.8-.1.3 0 .7-.1.9-.3.3 0 .6-.2.8-.2.2 0 .6-.1.9 0 .2-.3.4 0 .5-.1.1-.3.2-.1.4.1.1-.1.4-.2.6-.1.3-.2.6-.2.9-.1.5.2 1-.2 1.5.3.5-.2.8-.2 1.2 0 .4-.3.8-.2 1.3.1.3-.2.7-.3 1.1-.1.3-.2.6-.2.9 0 .4-.1.8-.2 1-.1.3 0 .6-.2.9s-.1.8-.3 1.2c-.2.6-.3 1.2-.5 1.7-.3.8-.4 1.7-.7 2.5-.3.7-.7 1.5-.7 2.2 0 .6-.5 1.1-.4 1.7 0 .4-.6.8-.5 1.1.1.5-.4.7-.4 1.2 0 .1-.2.2-.2.2.3.6-.3.8-.4 1.3-.1.5-.2.9-.4 1.4s-.7.9-.5 1.5c-.6 1-1 2.1-1.4 3.3-.2.7-.7 1.4-1.1 2.1-.5 1.2-1.2 2.3-1.6 3.5-.3.8-.6 1.7-1.2 2.3-.5.6-.8 1.2-1 1.9-.1.3-.2.6-.4.8-.7.5-.8 1.3-1.2 1.9-.3.5-.5 1-.9 1.4-.9 1-1.3 2.4-2.3 3.3-.3 1.1-1.2 1.7-1.7 2.6s-1.1 1.8-1.9 2.5c-.3.2-.4.6-.6 1-.2.3-.4.6-.6.8-.3.2-.6.4-.5.9-.7.4-1.1 1.1-1.5 1.7-.6 0-.4.6-.8.9-.3.2-.4.7-.7.8-.5.2-.4.7-.8.9 0 0-.1 0-.2-.1.3-.8.6-1.5.9-2.3.2-.6.5-1.2.6-1.8.1-.5.4-.8.5-1.2.1-.5.2-1 .5-1.4.1-.1.3-.4.2-.5-.4-.5.3-.8.3-1.1 0-.5.3-.9.4-1.3.1-.6.4-1.1.5-1.6.2-1.2.9-2.2 1.1-3.4 0-.2.2-.4.3-.6s.2-.5.1-.6c-.3-.3.2-.4.1-.6 0-.2.1-.5.3-.6.3-.2-.1-.3 0-.5.2-.4.5-.8.5-1.4 0-.5.5-.9.5-1.5 0-.3.4-.7.5-1 0-.4.1-.7.3-1s.1-.6.2-.9c.5-.9.7-2 1.1-2.9.1-.3.4-.7.5-1 .1-.7.4-1.4.7-2 .3-.7.2-1.5.8-2.1-.1-.6.4-1.1.5-1.6.1-.8.5-1.4.7-2.1.2-.8.5-1.6.8-2.3l.3-.9c.1-.3.2-.6.4-.9.1-.3.2-.6.4-.8.3-.3 0-.5.2-.8.6-1 .3-1.9-.5-2.6-.2-.2-.3-.4-.5-.5-.4-.3-.9-.4-1.3-.2-.5.2-1.3.4-1.3 1.2-.6.6-.4 1.6-1 2.2.2.6-.4 1.1-.5 1.6 0 .6-.4 1-.6 1.6 0 .1-.1.2-.1.2.4.4-.2.5-.2.8s-.1.7-.2 1c-.1.4-.4.8-.4 1.2 0 .5-.4.8-.5 1.2 0 .1-.1.2-.1.3-.2 1.1-.9 2.1-1 3.2-.5.6-.3 1.6-.9 2.2.2.6-.4 1.1-.5 1.6 0 .6-.4 1-.6 1.6 0 .1-.1.1-.1.2.3.4-.1.6-.2.9-.1.3 0 .7-.3 1.1-.2.3-.4.6-.4 1s-.4.6-.3.9c0 .6-.5 1-.6 1.6-.1.7-.7 1.4-.7 2.2-.6.6-.3 1.5-.9 2.1 0 .6-.4 1.1-.5 1.7-.1.7-.5 1.3-.6 2-.1.4-.2 1-.4 1.4-.2.5-.2 1-.5 1.4-.6 1.1-.8 2.4-1.4 3.5-.1.2-.2.4-.2.6.1.6-.4 1-.4 1.6 0 .5-.6.9-.5 1.4s-.7.8-.3 1.4c-.6.7-.5 1.6-.9 2.4-.5.9-.4 1.5 0 2.4.2.6.7.8 1.5.8.2.3.4-.1.7.1.2.1.5-.1.8-.1h1.2c.4-.4.8-.1 1.2-.2s.8-.2 1.2-.2c1-.1 1.9-.1 2.9-.3.3-.1.7 0 1-.1.9-.1 1.7-.4 2.6-.4.2 0 .4-.1.5-.1.4.1.7-.1 1.1-.1.4 0 .8-.2 1.2-.2 1-.1 2-.1 3.1-.3.2 0 .3-.3.5 0 .2-.3.3-.2.5 0 .2-.3.6-.3.9-.2.4.1.5-.6 1-.1.1.1.5-.1.8-.1s.5 0 .7-.2c.2.4.4-.1.7 0 .3 0 .7 0 .9-.1.3-.3.4.2.7.1 1.1-.4 2.3-.3 3.4-.6.2.3.5 0 .8 0s.7-.4 1-.2c.3.3.6-.4.9.1.1-.2.4-.2.6-.2.2 0 .3-.4.5 0 0 .1.2-.3.4-.1.1.1.4-.1.6-.1h.7c.7-.1 1.4-.3 2.1-.4.2 0 .4.2.6.1.8-.4 1.7-.4 2.6-.4.8 0 1.5-.2 2.3-.4.3-.1.4.4.7.1.4-.4.9-.1 1.4-.2.4-.1.9-.3 1.3-.3 1.1.1 2.1-.4 3.1-.2.5-.4 1.2-.1 1.7-.3.3-.1.5.1.8-.1s.7 0 1.1 0c.3 0 .7-.2 1-.2l2.7-.3c.2 0 .3-.1.5-.2s.2.3.6.1c.4-.3 1-.3 1.5-.3.2 0 .5.2.7.2.9-.1 1.7-1.2 1.8-2.1.2.2.2-.2.2-.5zM376.4 371.8c.3-.5-.1-.6-.2-.8v-.2c-.4-.8-1.1-1.1-1.9-1.1-1.1 0-2.1.5-3.1.6-.5 0-1 .2-1.6.4-.3.1-.6 0-.8 0s-.4.4-.6 0c-.3.1-.5.2-.8.3-.2.1-.5.2-.7.2-.3 0-.6.2-1 .1-.4 0-.7.2-1 .2-.4 0-.6.6-1.1.1-.1-.1-.5.5-.9.2-.4-.2-.7.3-1.1.2-.1 0-.4.2-.6.2-.7.1-1.5.2-2.2.5-.2.1-.5.2-.6.2-.3-.4-.4.1-.6.1-1.1-.2-2 .6-3.1.6-.7 0-1.4.4-2.1.4-.3 0-.6.5-1 0-.4.4-.4 0-.3-.2.6-.9.9-1.9 1.6-2.9.7-1 1-2.2 1.8-3.2.3-.5.5-1.1.8-1.6.3-.6.6-1.1.9-1.7.3-.5.6-1 .8-1.6s.7-1 1-1.5c.2-.3.4-.6.4-1.1.5-.5.4-1.4 1.2-1.7.3-.7.7-1.4 1-2.1.2-.4.4-.8.5-1.2.1-.5-.1-1.1-.2-1.6-.1-.4-.4-.7-.8-.7-.2-.6-.7-.7-1.2-.7-.4 0-.7 0-1.4.2h-.4c-.3.1-.6.2-.8.3-.3.1-.5.6-.6.9-.8 1.7-1.8 3.3-2.6 4.9-.2.4-.6.7-.7 1.1-.5 1.2-.9 2.4-1.8 3.4-.3.3-.4.9-.6 1.3-.2.4-.3 1-.6 1.3-.5.6-.7 1.2-1.1 1.8-.4.6-.4 1.5-1.2 1.9-.2.1-.2.4-.3.6-.3.6-.6 1.1-.9 1.8-.2-.7-.4-1.4-.7-2-.7-1.9-1.3-4-2.1-5.9-.5-1.3-.8-2.7-1.3-3.9-.4-1-.8-2.1-1.1-3.1-.3-1.1-1.1-2.1-1-3.3 0-.1-.1-.1-.2-.2-.4-1-.7-2-1-3.1l-1.2-3.6c-.1-.4-.4-.8-.7-1-.4-.3-.9-.5-1.5-.6-.3-.1-.6-.1-.9 0-.4.1-.8.3-1.2.4-.6 0-.5.6-.8.9-.5.5-.6.7-.6 1.3 0 .4-.1.8.1 1.3.5 1.7 1.1 3.3 1.7 5 .9 2.3 1.6 4.6 2.4 7 .9 2.5 1.8 5.1 2.7 7.7.1.4.2.8.3 1.1-1.2.1-1.9-.9-3-.9-.2 0-.4-.3-.7-.4s-.7-.2-.8-.4c-.2-.4-.4.1-.6-.1-.7-.4-1.4-.8-2.3-.9-.6-.1-1.2-.5-1.9-.7-.7-.1-1.2-.6-2-.7-.5-.1-.9-.4-1.3-.7-.4-.2-.9 0-1.2-.4-.2-.2-.4-.3-.7-.3-.2-.1-.4-.4-.6 0-.8-.6-1.8-.8-2.8-1.2-.6-.2-1.1-.2-1.8-.1-.8.2-1.2.8-1.6 1.3-.3.4-.6.9-.7 1.4-.1.6-.2 1.2.2 1.8.4.6.9.9 1.5 1.2.2.1.6.1.9.2.5.2.8.7 1.4.5.8.5 1.6.8 2.5 1 .6.2 1.2.5 1.9.7.6.2 1.2.6 1.9.7.3 0 .7.3 1 .5.3.1.5.6.9.2.3.2.7.3 1 .5.3.1.5.6.9.2.9.6 1.9.9 2.9 1.2.4.1.7.4 1 .5s.7.2 1 .3c.3.1.7.3 1 .5.1 0 .1.1.2.1 1.1.2 1.4.4 1.9.9-.6.4-1.4 0-2 .5l-.1-.1c-.3-.2-.6.2-.9.1-.3-.1-.7.2-1 .2s-.6.3-1 .1c-.2-.1-.6.3-.9.4-1.1.2-2.2.2-3.2.7h-.1c-.3-.5-.5.1-.8 0s-.6 0-.9.1c-.4.2-1 .3-1.4.3-.3 0-.5.5-.8.2s-.6.2-.8.3c-.1 0-.3 0-.3.1-.3.3-.7-.1-1 .1-.4.3-.8 0-1.1.2-.7.5-1.5.3-2.1.7-.7-.2-1.4.4-2.1.3-.4.4-.9-.1-1.3.2-.3.2-.6.5-.9.7-.2.2-.4.6-.6.7-.5.2 0 .7-.3.9-.1.1-.2.2-.2.4 0 .1.3.2.1.4 0 0 .1.2.1.3 0 .2-.2.4-.2.5.2.5.7.9.7 1.5.6.2 1.1.7 1.8.6.2 0 .3-.4.6-.1.3.4.4-.2.7-.2 1 .1 1.9-.6 2.9-.6.4 0 .7-.1 1.1-.2.2 0 .4-.2.6-.2.4 0 .8 0 1.2-.1s.8-.1 1.1-.3c.2-.1.5 0 .7-.3.2.4.4 0 .6 0 .3 0 .6.1.8 0 .3-.2.5-.2.8-.2.2.1.3-.4.6-.1.1.1.5-.1.6-.2.3-.3.4.2.7.1 1.2-.6 2.6-.7 3.9-.9.8-.2 1.6-.3 2.3-.5.3-.1.7-.3 1-.2.3 0 .6-.4.9 0 .3-.4.6-.2 1-.2-.2.6-.5 1.2-.7 1.7-.2.6-.9.8-1 1.5-.1.4-.3.7-.5 1s-.5.6-.4.9c.1.5-.5.4-.6.8-.1.5-.5 1-.7 1.5-.9 1.6-1.8 3.2-2.6 5-.6.3.2.9-.2 1.3l.2.4c.3.7.6 1.4 1.6 1.4.1 0 .2.2.4.2 1.1.5 2.2.3 2.9-.6.4-.6.9-1.1 1.2-1.8.2-.3.3-.7.4-1 .1-.3.3-.6.4-.9.2-.3.4-.5.6-.8.2-.4.5-.8.7-1.2.2-.4.3-.9.6-1.3.2-.4.5-.6.7-1 .5-1.1 1.2-2.3 1.8-3.5.2.3.4.5.3.6-.3.4 0 .8.1 1.1.9 1.9 1.3 3.9 2.1 5.8.6 1.5 1.1 3.1 1.6 4.6.9 2.6 1.7 5.1 2.7 7.7-.1.8.6 1 1 1.5.2.2.9.3 1.6.4.1 0 1.4-.2 1.5-.3.3-.2.5-.5.8-.7.2-.2.3-.5.5-.7s-.1-.7.3-.8c-.4-.1.2-.5-.2-.7-.6-1.9-1.1-3.8-1.9-5.6-.1-.2-.3-.6-.3-.8 0-1.1-.7-2-.8-3-1-1.8-1.2-3.8-2.1-5.6-.3-.5-.3-1.1-.5-1.7-.2-.5-.4-1.1-.6-1.6-.2-.6-.4-1.1-.6-1.7-.2-.5-.5-1-.2-1.6-.5-.6-.5-1.5-1-2.3.5 0 1 0 1.4.1s.7.4 1.1.6c.5-.4.8.1 1.1.3.9.5 2 .4 2.8 1.2h.1c.6-.1 1 .3 1.5.5s1.1.2 1.5.5c1 .7 2.2.6 3.2 1.4h.1c1-.1 1.7.8 2.7.8.2 0 .5.2.7.4.2.1.5.1.6.3.2.3.4 0 .6.1.8.4 1.5.9 2.4.9 1 .7 2.3.9 3.4 1.4.7.3 1.4.5 2.3.2 1.3-.4 1.7-1.4 2.2-2.4.4-.9 0-1.6-.3-2.4-.1-.2-.2-.2-.4-.3-1-.6-2-1-3-1.4-.9-.3-1.9-.6-2.7-1.1-.9-.5-1.9-.5-2.7-1.1-1.1.1-1.8-.9-2.8-.9-.2 0-.5-.2-.7-.3-.2-.1-.6-.2-.7-.3-.2-.4-.4.2-.7-.1-.3-.3-.9-.5-1.3-.7.4-.1.7-.1 1.1-.1.3-.1.7-.4.9-.4.4.1.7 0 .8-.1.3-.2.6 0 .8-.1 1.1-.4 2.3-.6 3.5-.8.9-.1 1.7-.3 2.6-.5.4-.2.9-.2 1.3-.3.4-.1.8-.1 1.2-.2.5-.1.9-.4 1.4-.5.7-.1 1.1-.6 1.3-1.1.1-.2.3-.4.4-.7.1-.3.4-.5.1-.8.3-.7-.3-1.1-.2-1.3z"/><g class="st0"><path d="M85.8 95.6c.3-.1.9-.5 1.8-1.1 1.4-1.1 3.3-1.8 5.7-2.1.5 0 1.6.8 3.4 2.4 4 3.8 4.8 8.1 2.4 13-1.5 3-2 4.6-1.3 4.8.1 0 .2 0 .3-.1 1.5-.7 2.8-1.2 3.8-1.5 1-.3 1.8-.5 2.4-.5.6 0 1.1.1 1.3.4s.4.7.4 1.3c0 1.1-.6 2.1-1.8 3-1.2.9-2.9 1.7-5 2.2-1.5.3-2.5.7-3.1 1.1-.6.4-1.2.9-1.7 1.7-14.4 23-24.5 28.6-30.3 16.8-.7-1.6-1.2-3.5-1.5-5.7s-.3-3.9.1-4.8c.8-1.9 1.7-5.7 2.7-11.3.5-2.3 1.2-4.4 2.2-6.3 1-2.1 1.5-3.3 1.5-3.6 0-.6 1.6-2.1 4.8-4.6 3.2-2.5 5.5-4.2 7.1-4.9 1.3-.6 2.2-1 2.6-1 .5 0 .9.1 1.2.5.3.3.7.4 1 .3zM83 106.4c-.6-.8-.9-1.7-.9-2.8 0-1.2-.2-1.8-.6-1.8-.4 0-1.3.5-2.6 1.6-4 3.1-6.5 5.9-7.5 8.4-.9 2-1.9 5.6-3 10.6s-1.6 8-1.3 9c.2 1.1.3 2.2.3 3.3 0 .9.4 1.7 1.1 2.5.7.7 1.5 1.1 2.3 1.1 2 0 4.9-1.9 8.8-5.8 3.9-3.8 6.9-7.8 9-11.8l1.6-3.2-2.7-2.6c-1.9-1.8-2.9-3.5-3.2-5-.4-1.6-.8-2.8-1.3-3.5zm12.3-3.1c.3-1.7.2-3-.3-3.8-.3-.4-1-.6-2.2-.6-1.2 0-1.9.5-2.3 1.4-.2.5-.4.8-.7 1.1-.3.3-.5.4-.8.4-.6 0-.9.6-1.1 1.9-.1 1.3 0 2.7.4 4.3.4 1.6.9 2.8 1.6 3.6.3.3.5.6.7.7s.4 0 .7-.2c.3-.3.6-.6.9-1.2.3-.5.7-1.3 1.3-2.4.9-1.7 1.5-3.5 1.8-5.2zM134.5 133.7c.7-.6 1.4-.9 1.9-.8.6.1.8.6.8 1.6 0 .3-.1.6-.2.9-.1.3-.3.6-.5.8-.2.2-.4.4-.8.7-.3.3-.6.5-.8.6-.2.1-.5.3-.9.6s-.6.4-.7.5c-2.4 1.6-3.6 2.5-3.7 2.6-.2.2-.7.4-1.5.7-.8.2-1.4.4-1.8.4-.6.2-1.1.3-1.5.3-.4 0-.9-.1-1.5-.2-.6-.2-1-.3-1.2-.4-.3-.1-.5-.2-.6-.3-.9-.4-2.1-1.4-3.7-2.9l-2-1.9-2.5 1.9c-1.7 1.2-3.6 1.9-5.7 2.2-1.7.2-3.3 0-4.9-.6-1.5-.5-2.8-1.5-3.6-2.8s-1.1-2.9-.8-4.7c.4-1.9 1.4-4.1 2.9-6.4 1.5-2.3 3.1-4.3 4.8-5.9 1.3-1.2 2.3-1.9 3.1-1.9.4 0 .9.3 1.5 1 .4.5.6.9.6 1.2 0 .3-.3.9-.8 1.9-4.1 8.1-5.2 12.4-3.2 13.2l.4.1c1.4.2 3.3-.9 5.7-3.4 2.4-2.5 4.1-5 5-7.5.7-1.7 1.6-3.2 2.6-4.6.9-1.2 1.5-1.9 1.9-2 .4-.2 1.2.1 2.3.6.9.5 1.4 1.1 1.5 1.7.1.6-.3 1.7-1 3.1-.4.6-.7 1.2-.9 1.9-.2.7-.4 1.3-.6 1.8-.1.2-.2.5-.3.9-.1.5-.2.8-.3 1.1-.2.8-.4 1.5-.6 2.1-.3 1.4-.5 2.7-.5 4s.2 2.1.6 2.5c.3.3 1.1.5 2.2.6.2-.1.6-.2 1.4-.5s1.2-.4 1.5-.6c2.9-1.6 4.9-2.9 6.4-4.1z"/><path d="M166.4 132.3c.7-.6 1.3-.9 1.9-.8.6.1.8.6.9 1.6 0 .3 0 .5-.1.8-.1.3-.2.5-.4.7l-.6.6c-.2.2-.4.4-.7.6s-.5.4-.7.5c-.2.1-.4.3-.7.5-.3.2-.5.3-.6.4-.8.5-1.6 1-2.5 1.3-.1 0-.2.1-.3.2-.1.2-.2.3-.4.4-.2.1-.5.2-.9.3-.8.4-1.9.7-3.4.9-1.5.2-2.9.2-4.1.1s-2-.2-2.4-.4c-.3-.2-.6-.6-1-1.3s-.7-1.3-1-1.9c-.3-.6-.4-1.1-.5-1.5-.2-1-.3-2-.3-3.1.1-1.1.3-2.9.6-5.3v-.7c0-.2-.1-.3-.2-.4-.1-.1-.3-.1-.5-.2h-.8c-.4 0-.9-.1-1.4-.2s-1-.3-1.5-.4c-.5-.1-.9-.2-1.3-.2 0 0-.1.5-.4 1.6-.3 1.1-.6 2.2-1 3.3-.4 1.2-.8 1.9-1.1 2.1-1.2.7-2.5 1.2-3.8 1.5-1.7.4-1-3.4 2.4-11.4.1-.2.2-.6.5-1.3.3-.6.5-1.1.6-1.3.1-.3.3-.7.5-1.2.2-.6.4-1 .5-1.4.1-.4.2-.8.3-1.3.1-.5.2-1 .3-1.4.1-.5.1-.9.1-1.4 0-.5.3-1.5 1-2.9s1.2-2.2 1.6-2.5c.5-.3 1.3-.4 2.2-.3.9.1 1.5.3 1.8.6.4.5.4 2.4 0 5.8-.3 2.2-.4 3.6-.4 4.3 0 .7.2 1.2.6 1.6.4.3.8.5 1.1.5.3 0 .9-.3 1.7-.8 1.2-.7 2.1-1 2.7-1 .6 0 1.1.4 1.5 1.2.4.5.5 1 .5 1.5 0 .4-.3 1.3-.8 2.5-.7 1.8-1.3 3.8-1.8 6.1-.4 1.8-.5 3.1-.4 4 .2.9.7 1.9 1.6 3.1.4.6.7.9 1 1 .1 0 .3 0 .5-.1.3-.1.5-.2.8-.3.3-.1.5-.2.6-.2 1-.3 1.7-.5 2.1-.7 2.6-1.3 4.6-2.5 6.1-3.7z"/></g><g class="st0"><path d="M215.4 131c.7-.6 1.4-.9 1.9-.8.6.1.8.7.8 1.6 0 .2 0 .4-.1.7l-.3.6c-.1.2-.3.4-.5.6-.2.2-.4.4-.6.5-.2.2-.4.3-.6.5-.2.2-.4.3-.6.4-.2.1-.4.3-.6.4-.2.2-.4.3-.5.4-.8.5-1.6 1-2.5 1.4-.1 0-.2.1-.5.3-.9.9-1.7 1.6-2.4 1.9-.7.3-1.6.4-2.7.5-1.1.3-1.9.3-2.4-.1-.1 0-.5 0-1.2-.1s-1.1-.1-1.3-.1h-1.1c-.5 0-.9 0-1.3.2-.4.1-.7.2-1 .4-.4.3-1 .4-1.7.4s-1.8-.2-3.5-.4c-1.2-.2-2.2-.3-3-.4H188.4c-.2 0-.4-.1-.6-.2-.4-.2-.8-1.1-1.4-2.7-.3-.9-.5-1.8-.6-2.8-.1-.4-.1-.7 0-1 .2-.8.4-1.4.8-1.6.1-.1.4-.1.8-.2s.6-.2.8-.4c.3-.2.6-.6.8-1.2.2-.6.3-1.2.4-1.8 0-.5.1-.9.2-1.1.1-.2.4-.4.8-.7s.6-.4.6-.4c.4-.3.8-.8 1.1-1.4.1-.3.4-1.2.8-2.8.4-1.2.7-2.5.9-3.8.2-1.3.4-2.4.5-3.3.2-2.1.4-3.3.7-3.7.3-.4.8-.5 1.6-.5s1.5.2 2 .7c.3.2.5.4.7.8.2.4.4.7.5 1s.2.7.4 1.3c.2.5.3.9.3 1.1.6 1.8 1 3.5 1.3 5 .1.6.2 1.5.4 2.6.1 1.2.3 2.2.5 3.1.2.9.4 1.8.7 2.6.5 1.5.7 2.8.6 4-.1.7-.2 1.4-.2 2.1 0 .6.2 1.2.6 1.6.4.4 1.1.6 1.9.5.4 0 .7-.1 1.1-.3.4-.1.7-.3.9-.4.3-.1.6-.4 1-.7.4-.3.6-.5.8-.6.1-.1.4-.4.9-.8.5-.5 1.3-1.1 2.3-1.8s2-1 2.1-1.1zm-15.6 1.1c.3-1.2 0-3-.9-5.6-.8-2.4-1.4-3.7-1.6-3.7-.2 0-.4.5-.6 1.4-.2.9-.5 1.5-.8 1.9-.4.6-1 1.8-1.9 3.6-.9 1.9-1.2 2.9-1.1 3.1.2.2.5.5 1 .8s1 .5 1.6.6c.6.1 1.1.2 1.5.1 1.6-.3 2.5-1 2.8-2.2z"/><path d="M243.9 133.2c.7-.6 1.4-.8 1.9-.7.6.1.8.6.8 1.6 0 .3-.1.6-.2.9-.1.3-.3.6-.5.8-.2.2-.4.5-.8.8-.3.3-.6.5-.8.6-.2.1-.5.3-.9.6s-.6.4-.7.5c-.8.5-1.6 1-2.5 1.3-.6.3-1.8.6-3.5 1-1.7.3-3 .5-4 .5-.8 0-1.9-.3-3.4-.8s-2.7-1.1-3.7-1.5c-1-.5-1.5-.7-1.5-.6h-.1c-.2 0-.5 0-.8-.1-.3 0-.7.1-1.2.5s-1.1.9-1.7 1.6c-.8 1-1.6 2.5-2.3 4.2s-1.1 2.9-1.4 3.4c-.3.7-.7 1.4-1 2.3-.4.9-.7 1.6-1 2.2-.3.6-.8 1.2-1.4 1.9-.5.6-.9 1-1.2 1.1-.3.1-.8.1-1.4-.2-.8-.3-1.4-1.1-1.7-2.3-.4-1.3-.4-2.4-.2-3.3.1-.6.5-1.3 1.2-2.3.7-1 1.1-1.6 1.2-2.1.2-.5.4-1.3.7-2.4.2-1.1.4-1.8.6-2.3.2-.7.7-1.7 1.3-3 .6-1.3 1.1-2.3 1.3-2.9.3-.9.6-2.1.7-3.5.2-1.4.3-2.7.6-3.9.2-1.2.6-2.3 1.2-3.3.1-.1.2-.3.3-.6s.3-.5.4-.7c.1-.2.3-.5.4-.8.2-.3.3-.5.5-.8.2-.2.3-.5.5-.7.2-.3.4-.5.6-.7l.6-.6c.2-.2.4-.3.6-.5l.6-.3c1.2-.3 2.1-.1 2.6.7.5.8.5 1.7-.1 2.6-.9 1.4-1.1 2.1-.6 2 .5-.2 1.3-.8 2.5-2 1.3-1.3 2.6-2.4 3.8-3.1 1.2-.7 2.5-1.2 4.1-1.5 1.5-.3 2.2-.5 2.3-.6.1 0 .3.1.4.3s.3.5.4.9c.1.4.2.8.3 1.3.1.5.1 1 .2 1.5s.1 1 .1 1.5c0 4.7-.7 7.7-2 9.1-.8.8-1.4 1.6-1.9 2.4-.1.3-.3.5-.5.6-.2.1-.3.1-.5.1s-.3 0-.5.1-.4.2-.6.5c-.5.5-1 .8-1.5.8-.4 0-1 .3-1.7.7-.7.4-1 .8-1 1 0 .1.2.2.5.4.4.2.8.3 1.3.5s1 .3 1.6.4c.5.1 1 .2 1.4.2.6 0 1.3-.1 2.1-.3.3-.1.7-.3 1.1-.4.4-.2.8-.3 1.2-.4.4-.1.7-.3.9-.4 2.5-1.4 4.5-2.6 6-3.8zm-19-.3c.5.6.9.9 1.4.9.8 0 2-.7 3.6-2.1 1.6-1.4 2.6-2.6 3-3.5.4-1.1.7-2.2.7-3.5.1-1.3-.1-2.3-.5-3-.4-.7-.8-1-1.2-.9-.4.1-1.2.8-2.6 2.1-1.3 1.1-2.5 2.6-3.5 4.3-1.1 1.7-1.6 3-1.6 3.8 0 .7.2 1.3.7 1.9z"/><path d="M274.8 134.3c.6-.5 1.2-.7 1.6-.6.5.1.7.5.7 1.3 0 .2 0 .3-.1.5s-.1.4-.2.5c-.1.2-.2.3-.4.5l-.5.5c-.2.2-.3.3-.5.4-.2.2-.4.3-.5.4-.1.1-.3.2-.5.3-.2.1-.4.2-.5.3-.6.4-1.3.8-2 1.1-.1 0-.5.2-1.2.6l-.3.3c-.9.9-2.2 1.4-3.9 1.6-1.1.1-1.9.1-2.5 0s-1.4-.4-2.4-.9c-1.5-.7-2.6-1.3-3.1-1.8-.3-.3-.6-.4-.9-.4s-.7.3-1.3.8c-2 1.5-4.5 2.3-7.3 2.5-2.8.2-4.7-.4-5.5-1.7-.5-.8-.8-2.5-.7-4.9.1-2.4.4-4.1.9-5.2.5-.9.9-1.6 1.2-2l.9-1.2c.3-.4.7-1 1.4-1.8 2.1-2.6 3.8-4.4 5-5.4.9-.7 2-1.4 3.3-1.9 1.3-.5 2.6-.9 4-1 1.4-.2 2.6 0 3.7.6 1.3.7 2.1 1.8 2.4 3.4.3 1.6.3 3.2-.1 4.7s-.9 3-1.6 4.3c-.6 1.3-1 2.7-1.3 4.2-.3 1.5-.3 2.5 0 3 .6 1.3 2.7 1.4 6.3.3.1 0 .3-.1.4-.1.2-.1.4-.1.5-.2 2.1-1 3.8-2 5-3zm-15.2-9.4c.4-.2.6-.4.6-.5 0-.1-.1-.3-.3-.5-.4-.4-1-.7-1.7-.9-.7-.1-1.5-.1-2.2.1-.7.2-1.8.8-3.2 2-1.4 1.2-2.4 2.2-2.9 3-.7 1-1.2 1.8-1.7 2.6-.6.8-1 2-1.2 3.5-.2 1.5-.1 2.5.3 3 .3.4 1.1.6 2.2.6s2.2-.2 3.2-.6c1-.5 1.7-1.2 2.2-2.1.8-1.6 1.5-2.8 2-3.8.9-1.5 1.3-2.5 1.3-3.1 0-.3.1-.7.4-1 .3-.4.4-.7.2-1.1-.1-.4.2-.9.8-1.2z"/><path d="M301.1 134.3c.7-.6 1.4-.9 1.9-.8.5.1.8.6.9 1.6 0 .2 0 .5-.1.7s-.2.5-.4.7c-.2.2-.4.4-.5.6-.2.2-.4.4-.7.6-.3.2-.5.4-.7.5-.2.1-.4.3-.7.5-.3.2-.5.3-.6.4-.8.5-1.6 1-2.5 1.4-.5.2-1.4.6-2.7 1-1.3.4-2.9.9-4.9 1.4-2 .5-3.9.7-5.8.6s-3.3-.6-4.2-1.6c-.4-.4-.8-.9-1.3-1.6-.5-.7-.9-1.4-1.2-2.1-.4-.7-.6-1.2-.8-1.7-.4-1.2-.6-2.8-.6-4.9.3-6.3 3-11.7 8.1-16.3 1.2-1 2.1-1.6 2.7-1.8.6-.2 1.6-.3 3.2-.3 2.9 0 5.1.6 6.6 1.9 1.5 1.3 2.1 2.9 1.7 5-.2 1-.5 1.7-.7 1.9-.2.3-.7.4-1.5.5-1 .1-2-.1-2.9-.6-.9-.5-1.3-1.1-1.1-1.7.2-.5.1-1-.3-1.5s-.9-.8-1.5-.8c-1.1 0-2.8 1.2-5 3.5-2.3 2.3-3.4 4.1-3.4 5.2 0 .4-.2 1.1-.7 1.9-.5.7-.7 2-.7 3.8.1 1.8.4 3 .9 3.8.8 1.2 2.1 2 4 2.5s3.6.5 5.2.2c.8-.1 1.7-.4 2.7-.8 1.8-.7 3.4-1.6 4.9-2.8 1.1-.8 1.9-1.2 2.4-1 0 0 .1 0 .2-.1s0 .2.1.2z"/><path d="M325.1 134.8c.7-.6 1.4-.8 1.9-.7.6.1.8.6.8 1.6 0 .3 0 .6-.2.9s-.3.6-.5.8c-.2.2-.4.5-.7.7-.3.3-.6.5-.8.6-.2.1-.5.3-.9.6s-.6.4-.7.5c-.8.5-1.6 1-2.5 1.4-.1 0-.2.1-.3.1-.1.1-.2.1-.4.2s-.3.1-.4.2-.2.1-.3.1l-.1.1c-2 .8-4.2 1.3-6.6 1.5-2.4.1-4.2-.1-5.3-.7-.1-.1-.7-.3-1.6-.7-.9-.4-1.6-.8-2-1.1-.8-.5-1.5-1.6-2.2-3.3-1.3-3-2-5.7-2-8 0-1.4.3-3.2.8-5.5 0-.1.1-.4.2-.9.1-.4.2-.8.2-1 .1-.2.2-.5.3-.9.1-.4.2-.7.3-1 .1-.3.2-.5.4-.8.1-.3.3-.5.4-.8.7-1 1.3-1.7 1.7-2.1 1.8-1.9 4.1-2.7 6.9-2.5 2.9.2 4.4 1.2 4.7 2.9.2 1.3.1 2.7-.2 4-.4 1.4-.8 2.5-1.3 3.4s-1.2 2.1-2.2 3.5c-.9 1.4-1.6 2.5-2 3.3-1.5 2.8-2.2 4.4-2.2 5 0 .4.4 1.1 1.3 1.9.5.5 1 .8 1.4.9s1.2.1 2.3-.2c1.7-.2 3.6-.7 5.7-1.3.8-.3 1.9-.7 3.4-1.4s2.4-1 2.7-1.3zm-19.5-3.5c.3 0 1.1-1.3 2.5-3.9 1.3-2.6 2-4.2 2-4.7 0-.6-.3-1-1-1.2-.7-.2-1.2 0-1.6.5-.3.4-.7 1-1 1.8-.3.8-.6 1.6-.8 2.5-.2.8-.3 1.6-.5 2.4-.1.8-.2 1.4-.1 1.9.1.4.2.7.5.7z"/><path d="M350 131c.7-.6 1.4-.9 1.9-.8.6.1.8.7.8 1.6 0 .2 0 .4-.1.7l-.3.6c-.1.2-.3.4-.5.6-.2.2-.4.4-.6.5-.2.2-.4.3-.6.5-.2.2-.4.3-.6.4-.2.1-.4.3-.6.4-.2.2-.4.3-.5.4-.8.5-1.6 1-2.5 1.4-.1 0-.2.1-.5.3-.9.9-1.7 1.6-2.4 1.9-.7.3-1.6.4-2.7.5-1.1.3-1.9.3-2.4-.1-.1 0-.5 0-1.2-.1s-1.1-.1-1.3-.1h-1.1c-.5 0-.9 0-1.3.2-.4.1-.7.2-1 .4-.4.3-1 .4-1.7.4s-1.8-.2-3.5-.4c-1.2-.2-2.2-.3-3-.4H323c-.2 0-.4-.1-.6-.2-.4-.2-.8-1.1-1.4-2.7-.3-.9-.5-1.8-.6-2.8-.1-.4-.1-.7 0-1 .2-.8.4-1.4.8-1.6.1-.1.4-.1.8-.2s.6-.2.8-.4c.3-.2.6-.6.8-1.2.2-.6.3-1.2.4-1.8 0-.5.1-.9.2-1.1.1-.2.4-.4.8-.7s.6-.4.6-.4c.4-.3.8-.8 1.1-1.4.1-.3.4-1.2.8-2.8.4-1.2.7-2.5.9-3.8.2-1.3.4-2.4.5-3.3.2-2.1.4-3.3.7-3.7.3-.4.8-.5 1.6-.5s1.5.2 2 .7c.3.2.5.4.7.8.2.4.4.7.5 1s.2.7.4 1.3c.2.5.3.9.3 1.1.6 1.8 1 3.5 1.3 5 .1.6.2 1.5.4 2.6.1 1.2.3 2.2.5 3.1.2.9.4 1.8.7 2.6.5 1.5.7 2.8.6 4-.1.7-.2 1.4-.2 2.1 0 .6.2 1.2.6 1.6.4.4 1.1.6 1.9.5.4 0 .7-.1 1.1-.3.4-.1.7-.3.9-.4.3-.1.6-.4 1-.7.4-.3.6-.5.8-.6.1-.1.4-.4.9-.8.5-.5 1.3-1.1 2.3-1.8s1.9-1 2.1-1.1zm-15.7 1.1c.3-1.2 0-3-.9-5.6-.8-2.4-1.4-3.7-1.6-3.7-.2 0-.4.5-.6 1.4-.2.9-.5 1.5-.8 1.9-.4.6-1 1.8-1.9 3.6-.9 1.9-1.2 2.9-1.1 3.1.2.2.5.5 1 .8s1 .5 1.6.6c.6.1 1.1.2 1.5.1 1.6-.3 2.5-1 2.8-2.2z"/></g></svg>