<?xml version="1.0" encoding="utf-8"?>
<!-- Generator: Adobe Illustrator 25.2.3, SVG Export Plug-In . SVG Version: 6.00 Build 0)  -->
<svg version="1.1" id="Capa_1" xmlns="http://www.w3.org/2000/svg" xmlns:xlink="http://www.w3.org/1999/xlink" x="0px" y="0px"
	 viewBox="0 0 548.2 451.4" style="enable-background:new 0 0 548.2 451.4;" xml:space="preserve">
<g id="Capa_2_1_">
</g>
<g>
	<path d="M501.3,345.5c-1.1-1.1-1.3-1.2-2.7-1.1c-0.2,0-0.5,0.2-0.6,0.2c-0.2-0.2-0.4-0.2-0.6,0c-0.1,0.1-0.4-0.2-0.6,0.1
		c-0.1,0.1-0.5,0.3-0.6,0.2c-0.2-0.1-0.4,0-0.6,0c-0.1,0-0.4-0.2-0.4-0.1c-0.3,0.4-0.7,0.2-1.1,0.2c-0.3,0.1-0.7,0.2-1,0.2
		c-0.4,0-0.7,0-1.1,0c-0.3,0-0.6,0.2-0.9,0.2c-0.3,0.1-0.7-0.1-1,0.2c-0.3-0.5-0.6,0-0.9,0c-0.5,0-1,0-1.4,0.2s-1-0.2-1.3,0.3
		c-0.4-0.5-0.8,0-1.2,0s-0.9-0.1-1.2,0.2c-0.3-0.4-0.6,0.1-1,0s-0.8,0-1.2,0.2s-0.9,0-1.3,0c-0.1,0-0.2,0-0.2,0
		c-0.4,0.5-1,0.2-1.5,0.2c-0.5,0.1-1.1,0.2-1.6,0.2c-0.3,0-0.8,0-0.9,0.1c-0.3,0.4-0.6-0.3-0.9,0.1c-0.8,0.1-1.5,0.2-2.3,0.3
		c-0.2,0-0.5,0-0.6,0.2c-0.2,0.3-0.3-0.3-0.7-0.1c-0.5,0.3-1.2,0.4-1.8,0.3c-0.4-0.1-0.8,0-1.1,0.1s-0.4,0-0.6,0
		c-0.3,0.1-0.5,0.1-0.8,0.1s-0.7-0.1-0.9,0c-0.3,0.2-0.6,0-0.8,0.2c-0.2,0.1-0.8-0.1-0.9,0.1c-0.3,0.4-0.6,0-0.9,0.1
		c-1,0.3-2.2,0.2-3.2,0.6c-0.3-0.4-0.6,0-0.9,0c-0.3,0-0.8,0.3-0.9,0.1c-0.4-0.3-0.6,0.3-0.9,0.1c-0.3-0.1-0.7-0.2-1,0.2
		c-0.3-0.2-0.6,0-0.9,0c-0.4,0-0.7,0.4-1.1,0c-0.4,0.4-1,0.2-1.5,0.3c-0.8,0.1-1.6,0.1-2.3,0.3c-0.4,0.1-0.3-0.2-0.6-0.2
		c0.7-0.7,1.4-1.4,1.9-2.2c0.8-1,1.6-2.1,2.4-3.1c0.8-1,1.5-2.1,2.3-3.1c0.2-0.2,0.5-0.4,0.5-0.6c0-0.6,0.5-0.8,0.7-1.3
		s0.7-0.6,0.8-1.1c0-0.6,0.5-0.7,0.7-1.1c0.7-1.5,1.7-2.7,2.5-4.1c0.7-1.3,1.4-2.6,2.1-3.8c1.5-2.7,2.8-5.6,4.1-8.4
		c0.1-0.3,0.6-0.6,0.2-1c0.8-1,1.1-2.3,1.5-3.5c0.1-0.4,0.5-0.7,0.5-1.2c0-0.4,0.3-0.8,0.5-1.3c0-0.1,0.1-0.1,0.1-0.2
		c-0.1-0.8,0.7-1.3,0.5-2.1c0.7-1,0.7-2.2,1.3-3.2c-0.2-0.6,0.3-1,0.4-1.6c0.1-0.7,0.3-1.5,0.5-2.2c0.4-1.1,0.7-2.3,0.9-3.5
		c0.1-0.5,0.1-1,0.4-1.5c0.1-0.2,0.3-0.5,0.2-0.6c-0.2-0.3,0.2-0.5,0.1-0.8c-0.1-0.3,0.3-0.6,0-0.9c0.4-0.2,0-0.7,0.3-1s0-0.8,0.2-1
		c0.3-0.3-0.1-0.6,0.2-0.8c0.1-0.2,0.1-0.5,0.1-0.8c0-0.2,0.2-0.4,0.2-0.6c0-0.3-0.1-0.6,0.2-0.7c-0.4-0.2,0-0.4,0-0.6
		c0-0.5,0-1,0.2-1.4c0.2-0.5-0.1-1,0.3-1.6c0.2-0.4,0.1-1.1,0.1-1.7c0-0.1,0-0.2,0.1-0.3c0.3-0.5,0.2-1,0.1-1.5
		c-0.1-0.5,0.4-1,0.2-1.5c-0.1-0.3,0-0.5,0-0.8s-0.1-0.6,0.1-0.8c0.3-0.3-0.2-0.5-0.1-0.8c0.1-0.2,0.5-0.3,0.2-0.7
		c-0.1-0.1-0.2-0.5-0.1-0.6c0.2-0.3,0.2-0.5,0.2-0.8c0-0.5,0-1,0-1.6s0-1,0-1.6s0-1,0-1.6s0-1,0-1.6s0-1,0-1.6s0-1,0-1.6
		c0-0.5-0.2-1-0.1-1.4c0.1-0.4-0.1-0.8-0.1-1.2c0-0.4,0.1-0.9,0-1.2c-0.1-0.3,0.1-0.7-0.2-0.9c0.6-0.3-0.1-0.7,0-1
		c0-0.5-0.1-1-0.1-1.5s-0.3-1-0.1-1.4c0.1-0.5-0.5-0.9,0-1.4c-0.5-1.2-0.5-2.5-0.8-3.7c0-0.2,0.2-0.4,0.1-0.6
		c-0.3-0.6-0.5-1.2-0.5-1.9c-0.3-0.2,0-0.5-0.1-0.7s-0.1-0.5-0.1-0.8c-0.1-0.3-0.1-0.6-0.2-0.9c-0.1-0.2-0.2-0.4-0.2-0.6
		c-0.1-0.3-0.1-0.5-0.1-0.8c0-0.2-0.1-0.6-0.2-0.6c-0.4-0.2,0.1-0.4-0.1-0.6c-0.3-0.6-0.3-1.4-0.7-2c-0.2-0.4,0.3-0.5,0-0.8
		c-0.2-0.2-0.3-0.6-0.4-0.9c-0.4-0.8-0.2-1.7-0.7-2.4c-0.5-2.1-1.5-4-2-6c-0.2-0.7-0.3-1.4-0.8-2c-0.4-0.4-0.4-1-0.7-1.4
		c-0.1-0.3-0.3-0.6-0.4-0.9c-0.1-0.2-0.2-0.3-0.3-0.5c-0.4-1.3-0.9-2.6-1.7-3.8c-0.4-0.7-0.5-1.5-1-2.1c-0.2-0.2-0.4-0.5-0.5-0.8
		c-0.3-1.5-1.5-2.6-1.9-4c-0.5-0.5-0.7-1.1-1-1.7c-0.2-0.4-0.7-0.6-0.7-1.2c0-0.4-0.5-0.6-0.7-1c-0.5-0.9-1-1.7-1.5-2.5
		c-0.4-0.7-0.9-1.2-1.3-1.9c-0.4-0.7-0.9-1.4-1.4-2c-0.6-0.7-1.2-1.4-1.7-2.2c-0.5-0.9-1.1-1.6-1.6-2.3c-0.2-0.4-0.6-0.4-0.8-0.8
		c-0.4-0.7-0.8-1.4-1.5-1.9c-0.5-0.4-0.8-1.1-1.4-1.5c-0.5-0.3-0.8-0.9-1.2-1.4c-0.5-0.5-0.9-1.1-1.4-1.6s-0.8-1.1-1.4-1.5
		c-0.3-0.2-0.4-0.6-0.7-0.9c-0.3-0.3-0.6-0.6-0.9-0.8c-0.8-0.7-1.4-1.6-2.3-2.1c-0.5-0.3-1-0.7-1.3-1.1c-0.3-0.4-0.8-0.7-1.1-1.1
		c-0.3-0.5-0.8-0.7-1.3-1c0,0,0-0.1-0.1-0.1c-0.4-0.8-1.4-1.1-1.9-1.8c-0.3-0.4-0.7-0.7-1.1-0.9c-0.4-0.2-0.6-0.7-1.1-0.7
		c0.2-0.5-0.7-0.3-0.5-0.7c-0.3-0.2-0.7-0.4-1-0.6c-0.3-0.2-0.5-0.5-0.8-0.7c-0.7-0.3-1.2-0.8-1.8-1.2s-1.1-0.8-1.7-1.2
		c-0.5-0.4-1.3-0.5-1.6-1.2c-1.2-0.4-2-1.3-3.1-1.9c-0.2-0.1-0.4-0.2-0.6-0.3c-0.5-0.3-1.1-0.4-1.5-0.8c-0.4-0.5-0.9-0.6-1.3-0.9
		c-0.2-0.1-0.4-0.2-0.6-0.3c-1.1-0.9-2.5-1.4-3.7-2.1c-1.3-0.7-2.6-1.4-4-2s-2.7-1.4-4.2-1.8c-1-0.3-1.8-1-2.9-1.2
		c-0.2,0-0.5-0.2-0.7-0.3s-0.6-0.2-0.7-0.3c-0.2-0.3-0.4,0.2-0.6-0.1c-0.5-0.3-1-0.7-1.7-0.6c-0.5-0.5-1.2-0.4-1.8-0.7
		s-1.2-0.5-1.8-0.6c-0.3-0.1-0.5-0.2-0.8-0.3c2.3-3.1,4.5-6.4,6.4-9.9c7.5-13.9,11.4-28.5,9.3-44.4c-2.3-17.9-11.3-31.3-27.2-40.1
		c-9.4-5.2-19.6-7.9-30.1-9.6c-18-2.8-36.2-4.1-54.5-4.2c-16.1-0.1-32.3,0.3-48.4,0.7c-15.2,0.4-30.3,1.7-45.3,3.7
		c-17.4,2.3-34.6,5.6-51.5,10.2c-12.7,3.5-25.3,7-37.3,12.4c-12.4,5.6-23.7,12.9-32.7,23.2c-18.7,21.3-17.8,52.7,2.2,72.4
		c8.7,8.6,19.4,13.5,31.3,16c12.1,2.6,24.4,3.2,36.6,3.4c17,0.2,33.9,0.1,55,0.1c7.7-0.2,19.6-0.5,31.5-1c9.7-0.4,19.5-0.9,29.2-1.6
		c10-0.6,20-1.4,30-2.2c3.5-0.3,7-0.6,10.5-1c1.5-0.2,2.3-1.5,2.1-3.1c-0.2-1.5-1-2-2.6-1.9c-9.9,0.9-19.9,1.9-29.8,2.5
		c-16.7,1-33.4,2-50.1,2.7c-13.7,0.6-27.5,0.9-41.2,1.1c-17.3,0.3-34.7,0.4-52-1.3c-7.2-0.7-14.3-1.4-21.3-3.2
		c-11.7-3-21.9-8.4-29.7-17.9c-8.8-10.6-12.6-22.8-10.7-36.5c1.6-11.4,7.4-20.8,15.4-28.8c6.6-6.6,14.5-11.5,22.9-15.5
		c12.1-5.8,24.9-9.9,37.7-13.6c16.3-4.8,32.9-8.3,49.8-10.6c11.3-1.5,22.7-2.6,34.1-3.5c8.1-0.7,16.2-0.9,24.3-1.1
		c9.4-0.2,18.8-0.3,28.2-0.2c11.2,0.2,22.4,0.8,33.6,1.2c11,0.4,22.1,0.7,33,2.4c9.2,1.4,18.1,3.9,26.4,8.3
		c10,5.3,17.7,12.8,22.1,23.4c5,12.1,5.3,24.5,2.4,37.1c-3.8,16.6-12.9,29.9-25.8,40.7c-10.7,9-22.8,15.6-35.6,21
		c-12.9,5.5-26.3,9.6-39.7,13.7c-19.8,6.1-39.9,10.1-60.7,11c-14.1,0.6-28-0.5-41.8-3.4c-1.8-0.4-2.9,0.3-3.2,2
		c-0.3,1.5,0.4,2.5,2.1,2.9c14.1,3,28.4,4.1,42.8,3.5c12.4-0.5,24.7-2,36.8-4.6c16.9-3.6,33.4-8.5,49.7-14.2
		c15.3-5.4,29.9-12,43.3-21.3c7.5-5.2,14.2-11,19.9-17.9c0.2,0.3,0.3,0.6,0.5,0.8s0.7,0.4,0.9,0.4c0.5-0.1,0.7,0.4,1.1,0.4
		c0.5-0.1,0.8,0.3,1.2,0.4c0.4,0,0.7,0.1,1,0.3c0.1,0.1,0.4,0.3,0.5,0.2c0.5-0.3,0.7,0.1,1,0.3s0.7,0.3,1.1,0.3
		c0.4,0,0.7,0.3,1.1,0.5c0.1,0.1,0.2,0.2,0.3,0.2c0.4,0.1,0.8,0.2,1.2,0.3c0.4,0.2,0.8,0.4,1.2,0.6c0.3,0.2,0.7,0.1,1,0.2
		c2.2,1.1,4.4,2.3,6.7,3.2c0.8,0.3,1.6,0.6,2.2,1.1c0.7,0.6,1.4,0.8,2.2,1.2c0.2,0.1,0.3,0.2,0.5,0.3s0.4,0.3,0.6,0.4
		c0.5,0.3,1.1,0.5,1.5,0.9s1.2,0.4,1.5,1c1.1,0.4,2,1.1,2.9,1.8c0.4,0.3,0.8,0.5,1.3,0.7c0.1,0.7,0.8,0.6,1.2,0.9
		c0.9,0.7,1.9,1.4,2.8,2.1c0.4,0.3,0.7,0.6,1.1,0.8c0.4,0.2,0.6,0.7,1.1,0.7c0.4,0.9,1.4,1,1.8,1.8c1.1,0.5,1.8,1.5,2.7,2.3
		c0.5,0.4,1.1,0.7,1.3,1.3c1.1,0.4,1.5,1.6,2.5,2c0.1,0.5,0.5,0.9,0.9,1.1c0.5,0.3,0.6,0.8,1,1.1s0.6,0.8,1.2,0.9
		c0.1,0,0.1,0.1,0.1,0.2c-0.2,0.7,0.9,0.6,0.8,1.2c1.1,0.6,1.7,1.7,2.5,2.6c0.8,0.9,1.8,1.7,2.3,2.9c0.7,0.1,0.8,0.8,1.1,1.2
		s0.9,0.8,1,1.4c0.8,0.5,0.9,1.6,1.6,2.1c0,0.5,0.7,0.5,0.7,0.9c0.1,0.5,0.4,0.8,0.7,1c0.4,0.3,0.2,0.9,0.7,1.2
		c0.3,0.2,0.5,0.6,0.8,1c0.2,0.3,0.4,0.7,0.6,1.1c0.2,0.4,0.6,0.5,0.7,0.9c0.1,0.3,0.4,0.7,0.5,1c0,0.4,0.5,0.4,0.7,0.8
		c0.5,1.1,1.1,2.2,1.8,3.2c0.2,0.4,0.4,0.7,0.6,1.1c0.2,0.3-0.1,0.9,0.5,0.8c0,0.6,0.7,1,0.7,1.5c0.1,0.7,0.7,1,0.8,1.6
		c0.1,0.4,0.3,0.8,0.5,1.2c0.3,0.5,0.4,1.1,0.7,1.6s0.7,1,0.9,1.6c0.3,1.2,0.9,2.4,1.3,3.6c0.1,0.5,0.5,0.8,0.7,1.3
		c0.4,1,0.6,2.1,1,3.1c0.2,0.5,0.2,1.1,0.4,1.6c0.4,1.3,1.1,2.5,1.3,3.9c0.5,0.2-0.3,0.5,0.1,0.9c0.4,0.3,0.4,0.9,0.4,1.4
		c0,0.2,0.1,0.4,0.1,0.5c0.1,0.5,0.6,1,0.5,1.4s0.1,0.7,0.1,1c0,0.4,0.1,0.8,0.2,1.1c0.3,0.6,0.2,1.3,0.5,2c0.1,0.3,0,0.7,0.2,1.1
		c0.2,0.3,0.2,0.8,0.1,1c-0.2,0.5,0.4,0.7,0.2,1.1c0.3,0.2,0.1,0.6,0.2,0.9c0.1,0.3-0.1,0.8,0.1,1c0.2,0.3-0.1,0.5,0.1,0.8
		c0.2,0.3,0,0.8,0.1,1.2c0.1,0.3,0.4,0.6,0,0.9c0.3,0.2,0.3,0.5,0.2,0.7c-0.1,0.3,0.3,0.5,0.1,0.8c-0.1,0.2,0.3,0.5-0.1,0.6
		c0.3,0.2,0.2,0.6,0.2,0.9s-0.1,0.6,0,0.8c0.2,0.4-0.1,0.7,0,1c0.4,0.9,0.1,1.8,0.2,2.7c0,0.3,0.2,0.7,0.1,0.9c-0.1,0.4-0.2,0.7,0,1
		c0.1,0.4-0.3,0.7-0.1,1s-0.1,0.6,0.2,0.8c-0.5,0.2-0.1,0.6-0.1,0.8c0,0.4-0.2,0.8-0.2,1.2c0,0.5,0,1,0,1.4s-0.1,0.8,0,1.2
		c0.1,0.4-0.4,0.7-0.1,1c0.3,0.4-0.3,0.7,0,1c0.1,0.1-0.4,0.4-0.1,0.7c0.1,0.1-0.1,0.4-0.1,0.6s0.2,0.4,0.1,0.6
		c-0.4,0.8-0.1,1.8-0.3,2.6c-0.1,0.3,0.1,0.7,0,0.9c-0.2,0.3,0,0.6-0.1,0.8c-0.1,0.3,0,0.7-0.1,0.9c-0.3,0.3,0,0.6-0.2,0.8
		c-0.2,0.2,0,0.6-0.1,0.9c0,0.2-0.3,0.4,0,0.5c-0.1,0.1-0.3,0.2-0.1,0.4c0.1,0.1-0.1,0.4-0.2,0.6c-0.1,0.3-0.2,0.6-0.2,0.9
		c-0.1,0.5,0.2,1-0.2,1.5c0.3,0.5-0.2,0.8-0.2,1.2c0,0.4-0.3,0.8-0.2,1.3c0.1,0.3-0.2,0.7-0.3,1.1c-0.1,0.3-0.2,0.6-0.2,0.9
		c0,0.4-0.1,0.8-0.2,1c-0.1,0.3,0,0.6-0.2,0.9s-0.1,0.8-0.3,1.2c-0.2,0.6-0.3,1.2-0.5,1.7c-0.3,0.8-0.4,1.7-0.7,2.5
		c-0.3,0.7-0.7,1.5-0.7,2.2c0,0.6-0.5,1.1-0.4,1.7c0,0.4-0.6,0.8-0.5,1.1c0.1,0.5-0.4,0.7-0.4,1.2c0,0.1-0.2,0.2-0.2,0.2
		c0.3,0.6-0.3,0.8-0.4,1.3c-0.1,0.5-0.2,0.9-0.4,1.4s-0.7,0.9-0.5,1.5c-0.6,1-1,2.1-1.4,3.3c-0.2,0.7-0.7,1.4-1.1,2.1
		c-0.5,1.2-1.2,2.3-1.6,3.5c-0.3,0.8-0.6,1.7-1.2,2.3c-0.5,0.6-0.8,1.2-1,1.9c-0.1,0.3-0.2,0.6-0.4,0.8c-0.7,0.5-0.8,1.3-1.2,1.9
		c-0.3,0.5-0.5,1-0.9,1.4c-0.9,1-1.3,2.4-2.3,3.3c-0.3,1.1-1.2,1.7-1.7,2.6s-1.1,1.8-1.9,2.5c-0.3,0.2-0.4,0.6-0.6,1
		c-0.2,0.3-0.4,0.6-0.6,0.8c-0.3,0.2-0.6,0.4-0.5,0.9c-0.7,0.4-1.1,1.1-1.5,1.7c-0.6,0-0.4,0.6-0.8,0.9c-0.3,0.2-0.4,0.7-0.7,0.8
		c-0.5,0.2-0.4,0.7-0.8,0.9c0,0-0.1,0-0.2-0.1c0.3-0.8,0.6-1.5,0.9-2.3c0.2-0.6,0.5-1.2,0.6-1.8c0.1-0.5,0.4-0.8,0.5-1.2
		c0.1-0.5,0.2-1,0.5-1.4c0.1-0.1,0.3-0.4,0.2-0.5c-0.4-0.5,0.3-0.8,0.3-1.1c0-0.5,0.3-0.9,0.4-1.3c0.1-0.6,0.4-1.1,0.5-1.6
		c0.2-1.2,0.9-2.2,1.1-3.4c0-0.2,0.2-0.4,0.3-0.6s0.2-0.5,0.1-0.6c-0.3-0.3,0.2-0.4,0.1-0.6c0-0.2,0.1-0.5,0.3-0.6
		c0.3-0.2-0.1-0.3,0-0.5c0.2-0.4,0.5-0.8,0.5-1.4c0-0.5,0.5-0.9,0.5-1.5c0-0.3,0.4-0.7,0.5-1c0-0.4,0.1-0.7,0.3-1s0.1-0.6,0.2-0.9
		c0.5-0.9,0.7-2,1.1-2.9c0.1-0.3,0.4-0.7,0.5-1c0.1-0.7,0.4-1.4,0.7-2c0.3-0.7,0.2-1.5,0.8-2.1c-0.1-0.6,0.4-1.1,0.5-1.6
		c0.1-0.8,0.5-1.4,0.7-2.1c0.2-0.8,0.5-1.6,0.8-2.3c0.1-0.3,0.2-0.6,0.3-0.9s0.2-0.6,0.4-0.9c0.1-0.3,0.2-0.6,0.4-0.8
		c0.3-0.3,0-0.5,0.2-0.8c0.6-1,0.3-1.9-0.5-2.6c-0.2-0.2-0.3-0.4-0.5-0.5c-0.4-0.3-0.9-0.4-1.3-0.2c-0.5,0.2-1.3,0.4-1.3,1.2
		c-0.6,0.6-0.4,1.6-1,2.2c0.2,0.6-0.4,1.1-0.5,1.6c0,0.6-0.4,1-0.6,1.6c0,0.1-0.1,0.2-0.1,0.2c0.4,0.4-0.2,0.5-0.2,0.8
		s-0.1,0.7-0.2,1c-0.1,0.4-0.4,0.8-0.4,1.2c0,0.5-0.4,0.8-0.5,1.2c0,0.1-0.1,0.2-0.1,0.3c-0.2,1.1-0.9,2.1-1,3.2
		c-0.5,0.6-0.3,1.6-0.9,2.2c0.2,0.6-0.4,1.1-0.5,1.6c0,0.6-0.4,1-0.6,1.6c0,0.1-0.1,0.1-0.1,0.2c0.3,0.4-0.1,0.6-0.2,0.9
		c-0.1,0.3,0,0.7-0.3,1.1c-0.2,0.3-0.4,0.6-0.4,1s-0.4,0.6-0.3,0.9c0,0.6-0.5,1-0.6,1.6c-0.1,0.7-0.7,1.4-0.7,2.2
		c-0.6,0.6-0.3,1.5-0.9,2.1c0,0.6-0.4,1.1-0.5,1.7c-0.1,0.7-0.5,1.3-0.6,2c-0.1,0.4-0.2,1-0.4,1.4c-0.2,0.5-0.2,1-0.5,1.4
		c-0.6,1.1-0.8,2.4-1.4,3.5c-0.1,0.2-0.2,0.4-0.2,0.6c0.1,0.6-0.4,1-0.4,1.6c0,0.5-0.6,0.9-0.5,1.4s-0.7,0.8-0.3,1.4
		c-0.6,0.7-0.5,1.6-0.9,2.4c-0.5,0.9-0.4,1.5,0,2.4c0.2,0.6,0.7,0.8,1.5,0.8c0.2,0.3,0.4-0.1,0.7,0.1c0.2,0.1,0.5-0.1,0.8-0.1
		s0.6,0,1,0c0.1,0,0.2,0,0.2,0c0.4-0.4,0.8-0.1,1.2-0.2s0.8-0.2,1.2-0.2c1-0.1,1.9-0.1,2.9-0.3c0.3-0.1,0.7,0,1-0.1
		c0.9-0.1,1.7-0.4,2.6-0.4c0.2,0,0.4-0.1,0.5-0.1c0.4,0.1,0.7-0.1,1.1-0.1c0.4,0,0.8-0.2,1.2-0.2c1-0.1,2-0.1,3.1-0.3
		c0.2,0,0.3-0.3,0.5,0c0.2-0.3,0.3-0.2,0.5,0c0.2-0.3,0.6-0.3,0.9-0.2c0.4,0.1,0.5-0.6,1-0.1c0.1,0.1,0.5-0.1,0.8-0.1s0.5,0,0.7-0.2
		c0.2,0.4,0.4-0.1,0.7,0c0.3,0,0.7,0,0.9-0.1c0.3-0.3,0.4,0.2,0.7,0.1c1.1-0.4,2.3-0.3,3.4-0.6c0.2,0.3,0.5,0,0.8,0s0.7-0.4,1-0.2
		c0.3,0.3,0.6-0.4,0.9,0.1c0.1-0.2,0.4-0.2,0.6-0.2c0.2,0,0.3-0.4,0.5,0c0,0.1,0.2-0.3,0.4-0.1c0.1,0.1,0.4-0.1,0.6-0.1
		c0.2,0,0.5,0,0.7,0c0.7-0.1,1.4-0.3,2.1-0.4c0.2,0,0.4,0.2,0.6,0.1c0.8-0.4,1.7-0.4,2.6-0.4c0.8,0,1.5-0.2,2.3-0.4
		c0.3-0.1,0.4,0.4,0.7,0.1c0.4-0.4,0.9-0.1,1.4-0.2c0.4-0.1,0.9-0.3,1.3-0.3c1.1,0.1,2.1-0.4,3.1-0.2c0.5-0.4,1.2-0.1,1.7-0.3
		c0.3-0.1,0.5,0.1,0.8-0.1s0.7,0,1.1,0c0.3,0,0.7-0.2,1-0.2c0.9-0.1,1.8-0.2,2.7-0.3c0.2,0,0.3-0.1,0.5-0.2s0.2,0.3,0.6,0.1
		c0.4-0.3,1-0.3,1.5-0.3c0.2,0,0.5,0.2,0.7,0.2c0.9-0.1,1.7-1.2,1.8-2.1C501.3,346.2,501.3,345.8,501.3,345.5z"/>
	<path d="M414.6,383.2c0.3-0.5-0.1-0.6-0.2-0.8c0-0.1,0-0.2,0-0.2c-0.4-0.8-1.1-1.1-1.9-1.1c-1.1,0-2.1,0.5-3.1,0.6
		c-0.5,0-1,0.2-1.6,0.4c-0.3,0.1-0.6,0-0.8,0s-0.4,0.4-0.6,0c-0.3,0.1-0.5,0.2-0.8,0.3c-0.2,0.1-0.5,0.2-0.7,0.2
		c-0.3,0-0.6,0.2-1,0.1c-0.4,0-0.7,0.2-1,0.2c-0.4,0-0.6,0.6-1.1,0.1c-0.1-0.1-0.5,0.5-0.9,0.2c-0.4-0.2-0.7,0.3-1.1,0.2
		c-0.1,0-0.4,0.2-0.6,0.2c-0.7,0.1-1.5,0.2-2.2,0.5c-0.2,0.1-0.5,0.2-0.6,0.2c-0.3-0.4-0.4,0.1-0.6,0.1c-1.1-0.2-2,0.6-3.1,0.6
		c-0.7,0-1.4,0.4-2.1,0.4c-0.3,0-0.6,0.5-1,0c-0.4,0.4-0.4,0-0.3-0.2c0.6-0.9,0.9-1.9,1.6-2.9c0.7-1,1-2.2,1.8-3.2
		c0.3-0.5,0.5-1.1,0.8-1.6c0.3-0.6,0.6-1.1,0.9-1.7c0.3-0.5,0.6-1,0.8-1.6s0.7-1,1-1.5c0.2-0.3,0.4-0.6,0.4-1.1
		c0.5-0.5,0.4-1.4,1.2-1.7c0.3-0.7,0.7-1.4,1-2.1c0.2-0.4,0.4-0.8,0.5-1.2c0.1-0.5-0.1-1.1-0.2-1.6c-0.1-0.4-0.4-0.7-0.8-0.7
		c-0.2-0.6-0.7-0.7-1.2-0.7c-0.4,0-0.7,0-1.4,0.2c-0.1,0-0.2,0-0.4,0c-0.3,0.1-0.6,0.2-0.8,0.3c-0.3,0.1-0.5,0.6-0.6,0.9
		c-0.8,1.7-1.8,3.3-2.6,4.9c-0.2,0.4-0.6,0.7-0.7,1.1c-0.5,1.2-0.9,2.4-1.8,3.4c-0.3,0.3-0.4,0.9-0.6,1.3c-0.2,0.4-0.3,1-0.6,1.3
		c-0.5,0.6-0.7,1.2-1.1,1.8c-0.4,0.6-0.4,1.5-1.2,1.9c-0.2,0.1-0.2,0.4-0.3,0.6c-0.3,0.6-0.6,1.1-0.9,1.8c-0.2-0.7-0.4-1.4-0.7-2
		c-0.7-1.9-1.3-4-2.1-5.9c-0.5-1.3-0.8-2.7-1.3-3.9c-0.4-1-0.8-2.1-1.1-3.1c-0.3-1.1-1.1-2.1-1-3.3c0-0.1-0.1-0.1-0.2-0.2
		c-0.4-1-0.7-2-1-3.1c-0.4-1.2-0.8-2.4-1.2-3.6c-0.1-0.4-0.4-0.8-0.7-1c-0.4-0.3-0.9-0.5-1.5-0.6c-0.3-0.1-0.6-0.1-0.9,0
		c-0.4,0.1-0.8,0.3-1.2,0.4c-0.6,0-0.5,0.6-0.8,0.9c-0.5,0.5-0.6,0.7-0.6,1.3c0,0.4-0.1,0.8,0.1,1.3c0.5,1.7,1.1,3.3,1.7,5
		c0.9,2.3,1.6,4.6,2.4,7c0.9,2.5,1.8,5.1,2.7,7.7c0.1,0.4,0.2,0.8,0.3,1.1c-1.2,0.1-1.9-0.9-3-0.9c-0.2,0-0.4-0.3-0.7-0.4
		s-0.7-0.2-0.8-0.4c-0.2-0.4-0.4,0.1-0.6-0.1c-0.7-0.4-1.4-0.8-2.3-0.9c-0.6-0.1-1.2-0.5-1.9-0.7c-0.7-0.1-1.2-0.6-2-0.7
		c-0.5-0.1-0.9-0.4-1.3-0.7c-0.4-0.2-0.9,0-1.2-0.4c-0.2-0.2-0.4-0.3-0.7-0.3c-0.2-0.1-0.4-0.4-0.6,0c-0.8-0.6-1.8-0.8-2.8-1.2
		c-0.6-0.2-1.1-0.2-1.8-0.1c-0.8,0.2-1.2,0.8-1.6,1.3c-0.3,0.4-0.6,0.9-0.7,1.4c-0.1,0.6-0.2,1.2,0.2,1.8c0.4,0.6,0.9,0.9,1.5,1.2
		c0.2,0.1,0.6,0.1,0.9,0.2c0.5,0.2,0.8,0.7,1.4,0.5c0.8,0.5,1.6,0.8,2.5,1c0.6,0.2,1.2,0.5,1.9,0.7c0.6,0.2,1.2,0.6,1.9,0.7
		c0.3,0,0.7,0.3,1,0.5c0.3,0.1,0.5,0.6,0.9,0.2c0.3,0.2,0.7,0.3,1,0.5c0.3,0.1,0.5,0.6,0.9,0.2c0.9,0.6,1.9,0.9,2.9,1.2
		c0.4,0.1,0.7,0.4,1,0.5s0.7,0.2,1,0.3c0.3,0.1,0.7,0.3,1,0.5c0.1,0,0.1,0.1,0.2,0.1c1.1,0.2,1.4,0.4,1.9,0.9c-0.6,0.4-1.4,0-2,0.5
		l-0.1-0.1c-0.3-0.2-0.6,0.2-0.9,0.1c-0.3-0.1-0.7,0.2-1,0.2s-0.6,0.3-1,0.1c-0.2-0.1-0.6,0.3-0.9,0.4c-1.1,0.2-2.2,0.2-3.2,0.7
		h-0.1c-0.3-0.5-0.5,0.1-0.8,0s-0.6,0-0.9,0.1c-0.4,0.2-1,0.3-1.4,0.3c-0.3,0-0.5,0.5-0.8,0.2s-0.6,0.2-0.8,0.3
		c-0.1,0-0.3,0-0.3,0.1c-0.3,0.3-0.7-0.1-1,0.1c-0.4,0.3-0.8,0-1.1,0.2c-0.7,0.5-1.5,0.3-2.1,0.7c-0.7-0.2-1.4,0.4-2.1,0.3
		c-0.4,0.4-0.9-0.1-1.3,0.2c-0.3,0.2-0.6,0.5-0.9,0.7c-0.2,0.2-0.4,0.6-0.6,0.7c-0.5,0.2,0,0.7-0.3,0.9c-0.1,0.1-0.2,0.2-0.2,0.4
		c0,0.1,0.3,0.2,0.1,0.4c0,0,0.1,0.2,0.1,0.3c0,0.2-0.2,0.4-0.2,0.5c0.2,0.5,0.7,0.9,0.7,1.5c0.6,0.2,1.1,0.7,1.8,0.6
		c0.2,0,0.3-0.4,0.6-0.1c0.3,0.4,0.4-0.2,0.7-0.2c1,0.1,1.9-0.6,2.9-0.6c0.4,0,0.7-0.1,1.1-0.2c0.2,0,0.4-0.2,0.6-0.2
		c0.4,0,0.8,0,1.2-0.1s0.8-0.1,1.1-0.3c0.2-0.1,0.5,0,0.7-0.3c0.2,0.4,0.4,0,0.6,0c0.3,0,0.6,0.1,0.8,0c0.3-0.2,0.5-0.2,0.8-0.2
		c0.2,0.1,0.3-0.4,0.6-0.1c0.1,0.1,0.5-0.1,0.6-0.2c0.3-0.3,0.4,0.2,0.7,0.1c1.2-0.6,2.6-0.7,3.9-0.9c0.8-0.2,1.6-0.3,2.3-0.5
		c0.3-0.1,0.7-0.3,1-0.2c0.3,0,0.6-0.4,0.9,0c0.3-0.4,0.6-0.2,1-0.2c-0.2,0.6-0.5,1.2-0.7,1.7c-0.2,0.6-0.9,0.8-1,1.5
		c-0.1,0.4-0.3,0.7-0.5,1s-0.5,0.6-0.4,0.9c0.1,0.5-0.5,0.4-0.6,0.8c-0.1,0.5-0.5,1-0.7,1.5c-0.9,1.6-1.8,3.2-2.6,5
		c-0.6,0.3,0.2,0.9-0.2,1.3c0,0,0.1,0.2,0.2,0.4c0.3,0.7,0.6,1.4,1.6,1.4c0.1,0,0.2,0.2,0.4,0.2c1.1,0.5,2.2,0.3,2.9-0.6
		c0.4-0.6,0.9-1.1,1.2-1.8c0.2-0.3,0.3-0.7,0.4-1c0.1-0.3,0.3-0.6,0.4-0.9c0.2-0.3,0.4-0.5,0.6-0.8c0.2-0.4,0.5-0.8,0.7-1.2
		c0.2-0.4,0.3-0.9,0.6-1.3c0.2-0.4,0.5-0.6,0.7-1c0.5-1.1,1.2-2.3,1.8-3.5c0.2,0.3,0.4,0.5,0.3,0.6c-0.3,0.4,0,0.8,0.1,1.1
		c0.9,1.9,1.3,3.9,2.1,5.8c0.6,1.5,1.1,3.1,1.6,4.6c0.9,2.6,1.7,5.1,2.7,7.7c-0.1,0.8,0.6,1,1,1.5c0.2,0.2,0.9,0.3,1.6,0.4
		c0.1,0,1.4-0.2,1.5-0.3c0.3-0.2,0.5-0.5,0.8-0.7c0.2-0.2,0.3-0.5,0.5-0.7s-0.1-0.7,0.3-0.8c-0.4-0.1,0.2-0.5-0.2-0.7
		c-0.6-1.9-1.1-3.8-1.9-5.6c-0.1-0.2-0.3-0.6-0.3-0.8c0-1.1-0.7-2-0.8-3c-1-1.8-1.2-3.8-2.1-5.6c-0.3-0.5-0.3-1.1-0.5-1.7
		c-0.2-0.5-0.4-1.1-0.6-1.6c-0.2-0.6-0.4-1.1-0.6-1.7c-0.2-0.5-0.5-1-0.2-1.6c-0.5-0.6-0.5-1.5-1-2.3c0.5,0,1,0,1.4,0.1
		s0.7,0.4,1.1,0.6c0.5-0.4,0.8,0.1,1.1,0.3c0.9,0.5,2,0.4,2.8,1.2h0.1c0.6-0.1,1,0.3,1.5,0.5s1.1,0.2,1.5,0.5c1,0.7,2.2,0.6,3.2,1.4
		h0.1c1-0.1,1.7,0.8,2.7,0.8c0.2,0,0.5,0.2,0.7,0.4c0.2,0.1,0.5,0.1,0.6,0.3c0.2,0.3,0.4,0,0.6,0.1c0.8,0.4,1.5,0.9,2.4,0.9
		c1,0.7,2.3,0.9,3.4,1.4c0.7,0.3,1.4,0.5,2.3,0.2c1.3-0.4,1.7-1.4,2.2-2.4c0.4-0.9,0-1.6-0.3-2.4c-0.1-0.2-0.2-0.2-0.4-0.3
		c-1-0.6-2-1-3-1.4c-0.9-0.3-1.9-0.6-2.7-1.1c-0.9-0.5-1.9-0.5-2.7-1.1c-1.1,0.1-1.8-0.9-2.8-0.9c-0.2,0-0.5-0.2-0.7-0.3
		c-0.2-0.1-0.6-0.2-0.7-0.3c-0.2-0.4-0.4,0.2-0.7-0.1c-0.3-0.3-0.9-0.5-1.3-0.7c0.4-0.1,0.7-0.1,1.1-0.1c0.3-0.1,0.7-0.4,0.9-0.4
		c0.4,0.1,0.7,0,0.8-0.1c0.3-0.2,0.6,0,0.8-0.1c1.1-0.4,2.3-0.6,3.5-0.8c0.9-0.1,1.7-0.3,2.6-0.5c0.4-0.2,0.9-0.2,1.3-0.3
		c0.4-0.1,0.8-0.1,1.2-0.2c0.5-0.1,0.9-0.4,1.4-0.5c0.7-0.1,1.1-0.6,1.3-1.1c0.1-0.2,0.3-0.4,0.4-0.7c0.1-0.3,0.4-0.5,0.1-0.8
		C415.1,383.8,414.5,383.4,414.6,383.2z"/>
</g>
<g>
	<path d="M195.4,121.9c0.7-0.6,1.3-0.8,1.8-0.7c0.5,0.1,0.8,0.6,0.8,1.5c0,0.6-0.2,1.3-0.7,1.9c-0.5,0.6-1.1,1.2-1.9,1.8
		c-0.8,0.5-1.7,1.1-2.6,1.6c-0.9,0.5-1.9,0.9-2.9,1.3c-1,0.4-1.9,0.7-2.7,0.9c-0.8,0.2-1.5,0.4-2,0.5c-1.4,0.3-2.7,0.4-4.1,0.4
		c-1.4,0-2.7-0.1-4.1-0.4c-1.4-0.3-2.6-0.8-3.8-1.6c-1.2-0.8-2.1-1.7-2.9-2.9c-1.3-2-1.8-4.3-1.5-6.8c0.3-2.5,1.4-5.9,3.3-10.1
		c1.1-2.4,1.7-4.1,2-5.1c0.2-0.8,0.8-2.1,1.8-3.9c1.3-2.4,1.5-3.6,0.4-3.5c-0.7,0.1-1.9,0.8-3.4,2.1c-1.3,1.1-2.5,2.1-3.8,3.1
		c-0.9,0.6-2.5,2.6-4.9,5.9c-2.4,3.3-3.9,5.6-4.5,7c-0.5,1.4-1.3,2.8-2.4,4.3c-1.8,2.6-3.6,5.6-5.4,8.9c-0.9,1.8-1.5,2.8-1.9,2.8
		c-0.2,0-0.7,0.1-1.6,0.3c-0.8,0.2-1.6-0.2-2.5-1.4l-1.2-1.8l1.6-2.4c0.7-1,1.8-2.9,3.2-5.5c1.4-2.6,2.5-4.4,3.2-5.4
		c0.5-0.8,1.2-1.9,2-3.4c0.8-1.4,1.5-2.9,2.1-4.3c0.6-1.4,1.1-2.5,1.3-3.3c0.3-1,0.8-2.2,1.6-3.7c0.6-1.1,1-2.3,1.1-3.6
		c0.2-1.4,0-2.2-0.4-2.6c-0.1-0.2-0.6-0.1-1.4,0.2c-0.8,0.3-1.7,0.7-2.6,1.1c-0.9,0.5-1.8,1-2.7,1.6c-0.9,0.5-1.5,1-1.8,1.3
		c-0.7,0.7-1.3,1.1-2,1.1s-1.3-0.5-2.1-1.4c-0.9-1-1.3-1.5-1.3-1.6c0-0.4,1.8-1.7,5.5-3.8c3.6-2.1,6.4-3.5,8.1-4.1
		c0.8-0.3,1.9-0.3,3.2-0.2c1.3,0.1,2.3,0.4,2.9,0.8c0.4,0.2,0.6,0.5,0.8,0.8c0.2,0.3,0.3,0.7,0.3,1.2c0.1,0.5,0.1,1.3,0.1,2.3v3.3
		l3.4-2.5c1.5-1.2,2.6-1.9,3.3-2.3c0.7-0.3,1.8-0.5,3.2-0.5c1.6,0,2.6,0.1,2.9,0.2s0.7,0.8,1,1.8c0.5,1.2,0.6,2.8,0.3,4.6
		c-0.4,2.2-1,4.8-1.9,7.8s-1.7,5.1-2.4,6.5c-0.9,1.8-1.4,3.2-1.4,4.1c0,0.9-0.3,1.5-0.8,1.9c-0.7,0.6-1.1,1.3-1.3,2.3
		c-0.2,0.9-0.2,1.9,0,2.8c0.2,0.9,0.6,1.7,1.2,2.5c0.6,0.7,1.3,1.2,2.1,1.4c1.5,0.3,3.2,0.3,5.2,0.2c2-0.1,3.8-0.4,5.7-0.8
		c0.7-0.2,1.1-0.4,1.4-0.6C192,124.2,194,123,195.4,121.9z"/>
	<path d="M224.3,125.3c0.6-0.5,1.2-0.7,1.7-0.6s0.7,0.5,0.7,1.4c0,0.3-0.1,0.5-0.2,0.8s-0.2,0.5-0.4,0.6c-0.1,0.2-0.4,0.4-0.6,0.6
		c-0.3,0.2-0.5,0.4-0.7,0.5s-0.4,0.3-0.7,0.5s-0.5,0.4-0.6,0.4c-2,1.4-3.1,2.2-3.2,2.2c-0.2,0.2-0.6,0.4-1.3,0.6
		c-0.7,0.2-1.2,0.3-1.6,0.3c-0.5,0.1-0.9,0.2-1.3,0.2c-0.4,0-0.8-0.1-1.3-0.2c-0.5-0.1-0.8-0.2-1-0.3s-0.4-0.2-0.5-0.2
		c-0.8-0.4-1.8-1.2-3.2-2.5l-1.7-1.6l-2.2,1.6c-1.5,1-3.1,1.6-4.9,1.9c-1.5,0.1-2.9,0-4.2-0.5c-1.3-0.5-2.4-1.3-3.1-2.4
		s-1-2.5-0.7-4.1c0.3-1.7,1.2-3.5,2.5-5.5c1.3-2,2.7-3.7,4.2-5.1c1.1-1.1,2-1.6,2.7-1.6c0.3,0,0.7,0.3,1.3,0.9
		c0.4,0.4,0.6,0.7,0.5,1c0,0.3-0.2,0.8-0.7,1.6c-3.5,6.9-4.5,10.7-2.8,11.3l0.3,0c1.2,0.2,2.8-0.8,4.9-2.9c2.1-2.1,3.5-4.3,4.3-6.5
		c0.6-1.5,1.3-2.8,2.2-4c0.7-1,1.3-1.6,1.6-1.7c0.3-0.1,1,0.1,1.9,0.5c0.8,0.4,1.2,0.9,1.3,1.5c0,0.5-0.3,1.4-0.9,2.6
		c-0.3,0.5-0.6,1-0.8,1.6c-0.2,0.6-0.4,1.1-0.5,1.6c-0.1,0.1-0.1,0.4-0.2,0.8c-0.1,0.4-0.2,0.7-0.3,1c-0.2,0.7-0.3,1.3-0.5,1.8
		c-0.3,1.2-0.4,2.4-0.4,3.4s0.2,1.8,0.5,2.1c0.3,0.3,0.9,0.5,1.9,0.5c0.1-0.1,0.5-0.2,1.2-0.4c0.6-0.2,1.1-0.4,1.3-0.5
		C221.3,127.4,223.1,126.3,224.3,125.3z"/>
	<path d="M244.5,126.3c0.6-0.5,1.2-0.7,1.7-0.6c0.5,0.1,0.7,0.6,0.7,1.4c0,0.3,0,0.5-0.2,0.8c-0.1,0.3-0.3,0.5-0.4,0.7
		c-0.1,0.2-0.4,0.4-0.6,0.6c-0.3,0.2-0.5,0.4-0.7,0.5c-0.2,0.1-0.4,0.3-0.8,0.5c-0.3,0.2-0.5,0.4-0.6,0.4c-0.7,0.5-1.4,0.8-2.1,1.2
		c-0.1,0-0.1,0.1-0.2,0.1c-0.1,0-0.2,0.1-0.3,0.1c-0.1,0-0.2,0.1-0.3,0.1c-0.1,0-0.2,0.1-0.3,0.1l-0.1,0c-1.8,0.7-3.6,1.1-5.7,1.3
		c-2.1,0.1-3.6-0.1-4.5-0.6c-0.1-0.1-0.6-0.3-1.4-0.6c-0.8-0.3-1.4-0.6-1.7-0.9c-0.7-0.4-1.3-1.4-1.9-2.8c-1.1-2.6-1.7-4.9-1.7-6.9
		c0-1.2,0.2-2.8,0.6-4.8c0-0.1,0.1-0.4,0.2-0.7c0.1-0.4,0.1-0.7,0.2-0.8s0.1-0.4,0.2-0.8s0.2-0.6,0.3-0.8c0.1-0.2,0.2-0.5,0.3-0.7
		s0.2-0.5,0.3-0.7c0.6-0.8,1.1-1.4,1.5-1.8c1.6-1.6,3.5-2.3,5.9-2.2c2.5,0.2,3.8,1,4,2.5c0.2,1.1,0.1,2.3-0.2,3.5
		c-0.3,1.2-0.7,2.2-1.1,3s-1.1,1.8-1.9,3c-0.8,1.2-1.4,2.2-1.7,2.9c-1.3,2.4-1.9,3.8-1.9,4.3c0,0.4,0.4,0.9,1.1,1.6
		c0.5,0.4,0.9,0.7,1.2,0.8s1,0,2-0.1c1.5-0.2,3.1-0.6,4.9-1.1c0.7-0.2,1.6-0.6,2.9-1.2C243.4,126.9,244.2,126.5,244.5,126.3z
		 M227.7,123.2c0.3,0,1-1.1,2.2-3.4c1.2-2.2,1.7-3.6,1.7-4.1c0-0.5-0.3-0.9-0.9-1.1c-0.6-0.2-1.1,0-1.4,0.4
		c-0.3,0.3-0.6,0.9-0.9,1.6s-0.5,1.4-0.7,2.1c-0.1,0.7-0.3,1.4-0.4,2.1s-0.1,1.2-0.1,1.7C227.3,123,227.5,123.2,227.7,123.2z"/>
	<path d="M265.8,122.9c0.6-0.5,1.2-0.8,1.7-0.7c0.5,0.1,0.7,0.6,0.7,1.4c0,0.2,0,0.4-0.1,0.6s-0.1,0.4-0.2,0.5
		c-0.1,0.2-0.2,0.3-0.4,0.5c-0.2,0.2-0.3,0.3-0.5,0.5s-0.3,0.3-0.5,0.4c-0.2,0.1-0.4,0.3-0.5,0.4c-0.1,0.1-0.3,0.2-0.5,0.4
		s-0.3,0.2-0.4,0.3c-0.7,0.5-1.4,0.8-2.2,1.2c-0.1,0-0.2,0.1-0.4,0.2c-0.8,0.8-1.5,1.4-2.1,1.6c-0.6,0.2-1.3,0.4-2.3,0.4
		c-1,0.3-1.7,0.3-2-0.1c-0.1,0-0.5,0-1-0.1c-0.6-0.1-0.9-0.1-1.1-0.1c-0.2,0-0.5,0-0.9,0c-0.4,0-0.8,0-1.1,0.1
		c-0.3,0.1-0.6,0.2-0.9,0.3c-0.4,0.2-0.8,0.3-1.4,0.3c-0.6,0-1.6-0.1-3-0.3c-1-0.1-1.9-0.2-2.5-0.3c-0.1,0-0.3,0-0.5,0s-0.4,0-0.6,0
		c-0.2,0-0.4-0.1-0.5-0.2c-0.3-0.2-0.7-1-1.2-2.3c-0.3-0.8-0.4-1.6-0.5-2.4c-0.1-0.3-0.1-0.6,0-0.8c0.1-0.7,0.4-1.2,0.7-1.3
		c0.1-0.1,0.3-0.1,0.6-0.2s0.5-0.2,0.7-0.3c0.3-0.2,0.5-0.5,0.6-1c0.2-0.5,0.3-1,0.3-1.5c0-0.5,0.1-0.8,0.1-0.9
		c0.1-0.2,0.3-0.4,0.7-0.6c0.3-0.2,0.5-0.3,0.5-0.3c0.3-0.3,0.6-0.7,0.9-1.2c0.1-0.3,0.3-1.1,0.7-2.4c0.3-1.1,0.6-2.2,0.8-3.3
		c0.2-1.1,0.3-2,0.4-2.8c0.1-1.8,0.3-2.8,0.6-3.2c0.2-0.3,0.7-0.5,1.4-0.5c0.7,0,1.3,0.2,1.7,0.6c0.2,0.1,0.4,0.4,0.6,0.7
		c0.2,0.3,0.3,0.6,0.4,0.9c0.1,0.3,0.2,0.6,0.3,1.1c0.1,0.5,0.2,0.8,0.3,0.9c0.5,1.6,0.9,3,1.1,4.3c0.1,0.5,0.2,1.3,0.3,2.3
		c0.1,1,0.2,1.9,0.4,2.7c0.1,0.8,0.3,1.6,0.6,2.2c0.5,1.3,0.6,2.4,0.5,3.4c-0.1,0.6-0.1,1.2-0.1,1.8c0,0.5,0.2,1,0.5,1.3
		c0.4,0.3,0.9,0.5,1.7,0.4c0.3,0,0.6-0.1,0.9-0.2c0.3-0.1,0.6-0.2,0.8-0.3c0.2-0.1,0.5-0.3,0.8-0.6c0.3-0.3,0.6-0.4,0.7-0.5
		s0.4-0.3,0.7-0.7c0.4-0.4,1.1-0.9,2-1.6C265.2,123.4,265.7,123,265.8,122.9z M252.4,124c0.2-1,0-2.6-0.7-4.8
		c-0.7-2.1-1.2-3.2-1.3-3.2c-0.2,0-0.4,0.4-0.5,1.2c-0.2,0.7-0.4,1.3-0.6,1.6c-0.3,0.5-0.9,1.5-1.6,3.1c-0.7,1.6-1.1,2.5-1,2.7
		c0.1,0.2,0.4,0.4,0.9,0.6c0.4,0.2,0.9,0.4,1.4,0.5c0.5,0.1,0.9,0.1,1.3,0.1C251.4,125.6,252.1,124.9,252.4,124z"/>
	<path d="M287.3,125.9c0.7-0.5,1.2-0.6,1.7-0.5s0.7,0.6,0.6,1.4c0,0.2-0.1,0.4-0.2,0.6s-0.2,0.4-0.4,0.6s-0.3,0.3-0.5,0.5
		c-0.2,0.1-0.4,0.3-0.6,0.5c-0.3,0.2-0.5,0.3-0.6,0.4s-0.4,0.2-0.7,0.3s-0.5,0.2-0.5,0.3c-0.7,0.4-1.5,0.7-2.2,0.9
		c0,0-0.4,0.3-1.1,0.7c-0.7,0.4-1.4,0.9-2.3,1.4c-0.9,0.5-1.6,0.8-2.1,1c-0.7,0.3-1.5,0.5-2.3,0.6c-0.8,0.1-1.7,0.2-2.5,0.3
		c-0.9,0-1.7-0.1-2.6-0.3c-0.8-0.2-1.5-0.6-2.1-1c-0.7-0.6-1.2-1.4-1.6-2.5c-0.4-1.1-0.7-2.2-0.8-3.4c-0.1-1.2-0.2-2.4-0.2-3.4
		s0-2.1,0.1-3.1c0-0.1,0.2-1.4,0.5-3.7c0.3-2.3,0.6-4.6,0.9-6.8l0.4-3.3c-0.3-0.2-1-0.3-1.9-0.4c-0.6,0-1.2,0-1.8,0
		c-1.4,0-2.4,0-3-0.1c-0.1,0-0.3,0-0.5,0s-0.4,0-0.6,0s-0.4,0-0.6,0s-0.4,0-0.5-0.1c-0.1,0-0.2-0.1-0.2-0.2c-0.1-0.5,0.1-0.8,0.6-1
		c0,0,0.2-0.2,0.6-0.4c0.4-0.2,0.7-0.4,1.1-0.6s0.9-0.4,1.6-0.5c0.7-0.2,1.3-0.2,2-0.2c2.2,0.2,3.5,0.3,4,0.2
		c0.5-0.1,1.1-0.4,1.6-0.9c0.8-0.7,1.8-2.6,3.1-5.7c0.1-0.1,0.1-0.3,0.3-0.5c0.5-1.2,0.9-2.1,1.2-2.7c0.3-0.7,0.8-1.5,1.3-2.5
		c0.6-1,1.2-1.9,1.9-2.6c0.7-0.7,1.4-1.2,2.2-1.6c2.4-1.2,3.6-1.1,3.6,0.2c0,0.7-0.6,2.4-1.7,5.1c-0.3,0.7-0.5,1.3-0.7,1.7
		c-0.2,0.5-0.3,1.1-0.4,1.9c-0.1,0.7-0.4,1.4-0.8,2.2c-0.7,1.2-1.3,2.2-1.7,3.1c-0.5,1-0.7,1.6-0.6,1.7c0.1,0.2,1.6,0.5,4.4,0.8
		c1.9,0.2,3.1,0.4,3.5,0.5c0.4,0.1,0.6,0.4,0.5,0.8c-0.1,0.5-0.4,0.8-0.9,0.7c-0.2,0-0.7,0-1.4,0c-0.7,0-1.5,0.1-2.3,0.1
		c-0.9,0.1-1.8,0.1-2.7,0.3c-0.9,0.1-1.6,0.2-2.2,0.3c-0.3,0.1-0.7,1-1.3,2.8c-0.5,1.8-1.1,4-1.7,6.5c-0.6,2.5-1.1,4.3-1.4,5.1
		c-1.5,4.4-1.3,7.4,0.6,9.1c0.8,0.7,1.6,1.1,2.3,1.1c0.4,0,0.9-0.2,1.4-0.5c0.1-0.1,0.4-0.3,0.9-0.5c0.5-0.2,1-0.4,1.6-0.6
		c0.5-0.2,1.1-0.4,1.6-0.6c0.6-0.2,0.9-0.3,0.9-0.3C284.1,127.7,285.9,126.8,287.3,125.9z"/>
	<path d="M314.4,124.1c0.6-0.5,1.1-0.8,1.6-0.7c0.5,0.1,0.7,0.6,0.8,1.4c0,0.2,0,0.5-0.1,0.7s-0.2,0.4-0.3,0.6
		c-0.2,0.2-0.3,0.4-0.5,0.5s-0.4,0.3-0.6,0.5s-0.4,0.3-0.6,0.4s-0.4,0.3-0.6,0.4c-0.3,0.2-0.4,0.3-0.5,0.4c-0.7,0.5-1.4,0.8-2.1,1.1
		c-0.1,0-0.1,0.1-0.3,0.1c-0.1,0.1-0.2,0.3-0.3,0.3c-0.2,0.1-0.4,0.2-0.8,0.3c-0.7,0.4-1.6,0.6-2.9,0.8c-1.3,0.1-2.5,0.2-3.5,0.1
		s-1.8-0.2-2.1-0.4c-0.3-0.2-0.5-0.5-0.9-1.1c-0.3-0.5-0.6-1.1-0.8-1.6c-0.2-0.5-0.4-1-0.4-1.3c-0.2-0.8-0.3-1.7-0.2-2.7
		c0.1-1,0.2-2.5,0.5-4.6v-0.6c0-0.1-0.1-0.3-0.2-0.3c-0.1-0.1-0.2-0.1-0.4-0.2c-0.2,0-0.4,0-0.7,0c-0.3,0-0.7-0.1-1.2-0.2
		c-0.4-0.1-0.9-0.2-1.3-0.3c-0.4-0.1-0.8-0.2-1.1-0.2c0,0-0.1,0.5-0.3,1.4c-0.2,0.9-0.5,1.9-0.9,2.9c-0.4,1-0.7,1.6-1,1.8
		c-1,0.6-2.1,1-3.3,1.3c-1.5,0.3-0.8-2.9,2-9.8c0.1-0.2,0.2-0.5,0.4-1.1c0.2-0.5,0.4-0.9,0.5-1.1c0.1-0.2,0.2-0.6,0.4-1
		c0.2-0.5,0.3-0.9,0.4-1.2c0.1-0.3,0.2-0.7,0.3-1.1c0.1-0.4,0.2-0.8,0.2-1.2c0-0.4,0.1-0.8,0.1-1.2c0-0.5,0.3-1.3,0.9-2.5
		s1.1-1.9,1.4-2.2c0.5-0.3,1.1-0.4,1.9-0.3c0.8,0.1,1.3,0.3,1.6,0.5c0.3,0.4,0.3,2.1,0,5c-0.3,1.9-0.4,3.1-0.3,3.7
		c0,0.6,0.2,1,0.5,1.4c0.3,0.3,0.6,0.4,0.9,0.4c0.3,0,0.7-0.2,1.5-0.7c1.1-0.6,1.8-0.9,2.3-0.9c0.5,0,0.9,0.4,1.3,1
		c0.3,0.5,0.5,0.9,0.4,1.3c0,0.4-0.2,1.1-0.6,2.2c-0.6,1.5-1.1,3.3-1.6,5.2c-0.3,1.6-0.5,2.7-0.3,3.5c0.1,0.7,0.6,1.6,1.4,2.6
		c0.3,0.5,0.6,0.8,0.8,0.8c0.1,0,0.2,0,0.5-0.1c0.2-0.1,0.4-0.2,0.7-0.3c0.2-0.1,0.4-0.2,0.5-0.2c0.9-0.2,1.5-0.4,1.8-0.6
		C311.3,126.2,313.1,125.1,314.4,124.1z"/>
	<path d="M338.9,122.8c0.4,0.2,0.6,0.7,0.6,1.5c0,0.9-0.5,1.7-1.5,2.5c-0.4,0.3-0.8,0.5-1.3,0.8c-0.1,0-0.2,0.1-0.3,0.2
		c-0.4,0.2-0.7,0.4-1,0.4c-0.9,0.1-1.7-0.3-2.5-1c-0.2-0.2-0.4-0.5-0.6-0.9l-0.1-0.2c-0.3-0.4-0.5-0.7-0.7-0.8
		c-0.2-0.1-0.5-0.1-0.9,0.1c-0.4,0.2-0.9,0.9-1.5,2.1c-0.3,0.6-0.5,1-0.6,1.3c-0.5,0.8-1,1.3-1.4,1.4c-0.5,0.3-1.2,0.7-2.1,1.2
		c-1.1,0.7-2.1,1-3.1,1.1c-1.1,0.1-2,0.2-2.5,0.3c-0.1,0-0.3,0-0.4,0c-0.3,0-0.6-0.1-0.8-0.2c-0.3-0.1-0.8-0.5-1.5-1.2
		c-0.7-0.7-1.2-1.2-1.5-1.7s-0.5-1.4-0.8-2.7c-0.4-2.1-0.5-3.7-0.3-5c0.2-1.3,0.9-2.7,1.9-4.4c1.3-2.1,2.6-3.7,3.8-4.6
		c1.2-1,2.6-1.6,4.4-2c0.8-0.2,1.6-0.5,2.2-0.9c1-0.7,1.9-0.9,2.7-0.7c0.7,0.1,1.6,0.7,2.6,1.8c0.5,0.6,0.9,1,1.1,1.4
		c0.2,0.3,0.4,0.7,0.5,1c0.1,0.3,0.1,0.8,0.1,1.4c0,2.6,0.1,4.5,0.3,6c0.1,0.8,0.3,1.5,0.6,1.9c0.3,0.4,0.8,1,1.6,1.6l0.1-0.1
		c0.5-0.3,0.9-0.6,1.1-0.8C337.7,122.7,338.4,122.5,338.9,122.8z M327.7,122c0.1-0.7,0.1-1.1,0-1.4c-0.1-0.3-0.5-0.7-1.1-1.3
		c-1-0.9-1.4-1.7-1.4-2.3c0-0.4-0.1-0.9-0.4-1.4c-0.3-0.5-0.5-0.9-0.8-1.1c-0.2-0.1-0.4-0.2-0.5-0.2c-0.1,0-0.2,0-0.3,0.1
		c-0.3,0.1-0.9,0.7-1.8,1.6c-0.8,0.8-1.5,1.8-2.2,3s-1.2,2.3-1.5,3.4c-0.3,1-0.4,1.7-0.2,2.2c0.2,0.4,0.4,1.2,0.4,2.2
		c0.1,0.8,0.2,1.4,0.3,1.7c0.1,0.3,0.4,0.5,0.6,0.6c0.3,0.1,0.8,0.2,1.6,0.2c0.3,0,0.6,0,0.9,0c0.2,0,0.4,0,0.6-0.1
		c0.2-0.1,0.4-0.1,0.6-0.2c0.2-0.1,0.4-0.2,0.6-0.4c0.2-0.1,0.4-0.3,0.7-0.6c1.1-0.9,1.7-1.6,1.9-2.1c0.2-0.5,0.5-1.1,1-1.7
		C327.2,123.7,327.5,123,327.7,122z M328.9,115.4c0-1.1-0.1-1.7-0.3-1.9c-0.1,0.1-0.1,0.1-0.2,0.2c-0.1,0.3-0.1,0.8,0,1.8
		c0.1,0.7,0.2,1.1,0.3,1.3C328.9,116.5,328.9,116.1,328.9,115.4z"/>
	<path d="M359.3,122.9c0.6-0.5,1.2-0.8,1.7-0.7c0.5,0.1,0.7,0.6,0.7,1.4c0,0.2,0,0.4-0.1,0.6s-0.1,0.4-0.2,0.5
		c-0.1,0.2-0.2,0.3-0.4,0.5c-0.2,0.2-0.3,0.3-0.5,0.5s-0.3,0.3-0.5,0.4c-0.2,0.1-0.4,0.3-0.5,0.4c-0.1,0.1-0.3,0.2-0.5,0.4
		s-0.3,0.2-0.4,0.3c-0.7,0.5-1.4,0.8-2.2,1.2c-0.1,0-0.2,0.1-0.4,0.2c-0.8,0.8-1.5,1.4-2.1,1.6c-0.6,0.2-1.3,0.4-2.3,0.4
		c-1,0.3-1.7,0.3-2-0.1c-0.1,0-0.5,0-1-0.1c-0.6-0.1-0.9-0.1-1.1-0.1c-0.2,0-0.5,0-0.9,0c-0.4,0-0.8,0-1.1,0.1
		c-0.3,0.1-0.6,0.2-0.9,0.3c-0.4,0.2-0.8,0.3-1.4,0.3c-0.6,0-1.6-0.1-3-0.3c-1-0.1-1.9-0.2-2.5-0.3c-0.1,0-0.3,0-0.5,0s-0.4,0-0.6,0
		c-0.2,0-0.4-0.1-0.5-0.2c-0.3-0.2-0.7-1-1.2-2.3c-0.3-0.8-0.4-1.6-0.5-2.4c-0.1-0.3-0.1-0.6,0-0.8c0.1-0.7,0.4-1.2,0.7-1.3
		c0.1-0.1,0.3-0.1,0.6-0.2s0.5-0.2,0.7-0.3c0.3-0.2,0.5-0.5,0.6-1c0.2-0.5,0.3-1,0.3-1.5c0-0.5,0.1-0.8,0.1-0.9
		c0.1-0.2,0.3-0.4,0.7-0.6c0.3-0.2,0.5-0.3,0.5-0.3c0.3-0.3,0.6-0.7,0.9-1.2c0.1-0.3,0.3-1.1,0.7-2.4c0.3-1.1,0.6-2.2,0.8-3.3
		c0.2-1.1,0.3-2,0.4-2.8c0.1-1.8,0.3-2.8,0.6-3.2c0.2-0.3,0.7-0.5,1.4-0.5c0.7,0,1.3,0.2,1.7,0.6c0.2,0.1,0.4,0.4,0.6,0.7
		c0.2,0.3,0.3,0.6,0.4,0.9c0.1,0.3,0.2,0.6,0.3,1.1c0.1,0.5,0.2,0.8,0.3,0.9c0.5,1.6,0.9,3,1.1,4.3c0.1,0.5,0.2,1.3,0.3,2.3
		c0.1,1,0.2,1.9,0.4,2.7c0.1,0.8,0.3,1.6,0.6,2.2c0.5,1.3,0.6,2.4,0.5,3.4c-0.1,0.6-0.1,1.2-0.1,1.8c0,0.5,0.2,1,0.5,1.3
		c0.4,0.3,0.9,0.5,1.7,0.4c0.3,0,0.6-0.1,0.9-0.2c0.3-0.1,0.6-0.2,0.8-0.3c0.2-0.1,0.5-0.3,0.8-0.6c0.3-0.3,0.6-0.4,0.7-0.5
		s0.4-0.3,0.7-0.7c0.4-0.4,1.1-0.9,2-1.6C358.7,123.4,359.2,123,359.3,122.9z M345.9,124c0.2-1,0-2.6-0.7-4.8
		c-0.7-2.1-1.2-3.2-1.3-3.2c-0.2,0-0.4,0.4-0.5,1.2c-0.2,0.7-0.4,1.3-0.6,1.6c-0.3,0.5-0.9,1.5-1.6,3.1c-0.7,1.6-1.1,2.5-1,2.7
		c0.1,0.2,0.4,0.4,0.9,0.6c0.4,0.2,0.9,0.4,1.4,0.5c0.5,0.1,0.9,0.1,1.3,0.1C344.9,125.6,345.6,124.9,345.9,124z"/>
	<path d="M183.5,166.9c0.6-0.5,1.2-0.7,1.7-0.6c0.5,0.1,0.7,0.6,0.7,1.4c0,0.3,0,0.5-0.2,0.8c-0.1,0.3-0.3,0.5-0.4,0.7
		c-0.1,0.2-0.4,0.4-0.6,0.6c-0.3,0.2-0.5,0.4-0.7,0.5c-0.2,0.1-0.4,0.3-0.8,0.5c-0.3,0.2-0.5,0.4-0.6,0.4c-0.7,0.5-1.4,0.8-2.1,1.2
		c-0.1,0-0.1,0.1-0.2,0.1c-0.1,0-0.2,0.1-0.3,0.1c-0.1,0-0.2,0.1-0.3,0.1c-0.1,0-0.2,0.1-0.3,0.1l-0.1,0c-1.8,0.7-3.6,1.1-5.7,1.3
		c-2.1,0.1-3.6-0.1-4.5-0.6c-0.1-0.1-0.6-0.3-1.4-0.6s-1.4-0.6-1.7-0.9c-0.7-0.4-1.3-1.4-1.9-2.8c-1.1-2.6-1.7-4.9-1.7-6.9
		c0-1.2,0.2-2.8,0.6-4.8c0-0.1,0.1-0.4,0.2-0.7c0.1-0.4,0.1-0.7,0.2-0.8c0.1-0.2,0.1-0.4,0.2-0.8s0.2-0.6,0.3-0.8
		c0.1-0.2,0.2-0.5,0.3-0.7c0.1-0.2,0.2-0.5,0.3-0.7c0.6-0.8,1.1-1.4,1.5-1.8c1.6-1.6,3.5-2.3,5.9-2.2c2.5,0.2,3.8,1,4,2.5
		c0.2,1.1,0.1,2.3-0.2,3.5s-0.7,2.2-1.1,3c-0.4,0.8-1.1,1.8-1.9,3c-0.8,1.2-1.4,2.2-1.7,2.9c-1.3,2.4-1.9,3.8-1.9,4.3
		c0,0.4,0.4,0.9,1.1,1.6c0.5,0.4,0.9,0.7,1.2,0.8s1,0,2-0.1c1.5-0.2,3.1-0.6,4.9-1.1c0.7-0.2,1.6-0.6,2.9-1.2
		C182.5,167.5,183.2,167.1,183.5,166.9z M166.8,163.8c0.3,0,1-1.1,2.2-3.4c1.2-2.2,1.7-3.6,1.7-4.1c0-0.5-0.3-0.9-0.9-1.1
		c-0.6-0.2-1.1,0-1.4,0.4c-0.3,0.3-0.6,0.9-0.9,1.6c-0.3,0.7-0.5,1.4-0.7,2.1c-0.1,0.7-0.3,1.4-0.4,2.1c-0.1,0.7-0.1,1.2-0.1,1.7
		C166.4,163.6,166.5,163.8,166.8,163.8z"/>
	<path d="M204.9,163.5c0.6-0.5,1.2-0.8,1.7-0.7c0.5,0.1,0.7,0.6,0.7,1.4c0,0.2,0,0.4-0.1,0.6s-0.1,0.4-0.2,0.5
		c-0.1,0.2-0.2,0.3-0.4,0.5c-0.2,0.2-0.3,0.3-0.5,0.5s-0.3,0.3-0.5,0.4c-0.2,0.1-0.4,0.3-0.5,0.4c-0.1,0.1-0.3,0.2-0.5,0.4
		s-0.3,0.2-0.4,0.3c-0.7,0.5-1.4,0.8-2.2,1.2c-0.1,0-0.2,0.1-0.4,0.2c-0.8,0.8-1.5,1.4-2.1,1.6c-0.6,0.2-1.3,0.4-2.3,0.4
		c-1,0.3-1.7,0.3-2-0.1c-0.1,0-0.5,0-1-0.1c-0.6-0.1-0.9-0.1-1.1-0.1c-0.2,0-0.5,0-0.9,0c-0.4,0-0.8,0-1.1,0.1
		c-0.3,0.1-0.6,0.2-0.9,0.3c-0.4,0.2-0.8,0.3-1.4,0.3c-0.6,0-1.6-0.1-3-0.3c-1-0.1-1.9-0.2-2.5-0.3c-0.1,0-0.3,0-0.5,0s-0.4,0-0.6,0
		c-0.2,0-0.4-0.1-0.5-0.2c-0.3-0.2-0.7-1-1.2-2.3c-0.3-0.8-0.4-1.6-0.5-2.4c-0.1-0.3-0.1-0.6,0-0.8c0.1-0.7,0.4-1.2,0.7-1.3
		c0.1-0.1,0.3-0.1,0.6-0.2s0.5-0.2,0.7-0.3c0.3-0.2,0.5-0.5,0.6-1c0.2-0.5,0.3-1,0.3-1.5c0-0.5,0.1-0.8,0.1-0.9
		c0.1-0.2,0.3-0.4,0.7-0.6c0.3-0.2,0.5-0.3,0.5-0.3c0.3-0.3,0.6-0.7,0.9-1.2c0.1-0.3,0.3-1.1,0.7-2.4c0.3-1.1,0.6-2.2,0.8-3.3
		c0.2-1.1,0.3-2,0.4-2.8c0.1-1.8,0.3-2.8,0.6-3.2c0.2-0.3,0.7-0.5,1.4-0.5c0.7,0,1.3,0.2,1.7,0.6c0.2,0.1,0.4,0.4,0.6,0.7
		c0.2,0.3,0.3,0.6,0.4,0.9c0.1,0.3,0.2,0.6,0.3,1.1c0.1,0.5,0.2,0.8,0.3,0.9c0.5,1.6,0.9,3,1.1,4.3c0.1,0.5,0.2,1.3,0.3,2.3
		c0.1,1,0.2,1.9,0.4,2.7c0.1,0.8,0.3,1.6,0.6,2.2c0.5,1.3,0.6,2.4,0.5,3.4c-0.1,0.6-0.1,1.2-0.1,1.8c0,0.5,0.2,1,0.5,1.3
		c0.4,0.3,0.9,0.5,1.7,0.4c0.3,0,0.6-0.1,0.9-0.2c0.3-0.1,0.6-0.2,0.8-0.3c0.2-0.1,0.5-0.3,0.8-0.6c0.3-0.3,0.6-0.4,0.7-0.5
		s0.4-0.3,0.7-0.7c0.4-0.4,1.1-0.9,2-1.6C204.3,164,204.8,163.6,204.9,163.5z M191.5,164.6c0.2-1,0-2.6-0.7-4.8
		c-0.7-2.1-1.2-3.2-1.3-3.2c-0.2,0-0.4,0.4-0.5,1.2c-0.2,0.7-0.4,1.3-0.6,1.6c-0.3,0.5-0.9,1.5-1.6,3.1c-0.7,1.6-1.1,2.5-1,2.7
		c0.1,0.2,0.4,0.4,0.9,0.6c0.4,0.2,0.9,0.4,1.4,0.5c0.5,0.1,0.9,0.1,1.3,0.1C190.5,166.2,191.2,165.5,191.5,164.6z"/>
	<path d="M229.4,165.4c0.6-0.5,1.2-0.7,1.7-0.6c0.5,0.1,0.7,0.6,0.7,1.4c0,0.3-0.1,0.5-0.2,0.8c-0.1,0.3-0.2,0.5-0.4,0.7
		c-0.1,0.2-0.4,0.4-0.6,0.6s-0.5,0.4-0.7,0.5c-0.2,0.1-0.4,0.3-0.7,0.5c-0.3,0.2-0.5,0.4-0.6,0.4c-0.7,0.5-1.4,0.8-2.1,1.1
		c-0.5,0.3-1.5,0.5-3,0.8c-1.5,0.3-2.6,0.4-3.4,0.4c-0.7,0-1.7-0.2-2.9-0.7c-1.2-0.5-2.3-0.9-3.2-1.3c-0.9-0.4-1.3-0.6-1.3-0.5h-0.3
		c-0.2,0-0.4,0-0.7,0c-0.2,0-0.6,0.1-1.1,0.4s-0.9,0.8-1.4,1.4c-0.7,0.9-1.4,2.1-1.9,3.6c-0.6,1.5-1,2.5-1.2,2.9
		c-0.3,0.6-0.6,1.2-0.9,2c-0.3,0.7-0.6,1.4-0.9,1.9c-0.3,0.5-0.7,1.1-1.2,1.6c-0.4,0.5-0.8,0.8-1,0.9c-0.2,0.1-0.7,0.1-1.2-0.2
		c-0.7-0.3-1.2-0.9-1.5-2c-0.3-1.1-0.4-2-0.2-2.8c0.1-0.5,0.5-1.1,1-2c0.6-0.8,0.9-1.4,1.1-1.8c0.2-0.5,0.4-1.2,0.6-2.1
		c0.2-0.9,0.4-1.6,0.5-1.9c0.2-0.6,0.6-1.5,1.1-2.6s0.9-1.9,1.1-2.5c0.3-0.8,0.5-1.8,0.6-3c0.1-1.2,0.3-2.3,0.5-3.4
		c0.2-1.1,0.5-2,1-2.9c0.1-0.1,0.1-0.3,0.3-0.5c0.1-0.2,0.2-0.4,0.3-0.6s0.2-0.4,0.4-0.6c0.1-0.2,0.3-0.5,0.4-0.6
		c0.1-0.2,0.3-0.4,0.4-0.6c0.2-0.2,0.3-0.4,0.5-0.6c0.2-0.2,0.3-0.3,0.5-0.5c0.2-0.2,0.4-0.3,0.5-0.4c0.2-0.1,0.4-0.2,0.5-0.3
		c1-0.3,1.8-0.1,2.2,0.6c0.5,0.7,0.4,1.4-0.1,2.3c-0.7,1.2-0.9,1.8-0.5,1.7c0.4-0.1,1.1-0.7,2.1-1.7c1.2-1.2,2.2-2,3.2-2.6
		c1-0.6,2.2-1,3.5-1.3c1.3-0.2,1.9-0.4,2-0.5c0.1,0,0.2,0,0.3,0.2s0.2,0.4,0.3,0.7c0.1,0.3,0.2,0.7,0.3,1.1c0.1,0.4,0.1,0.9,0.2,1.3
		c0.1,0.4,0.1,0.8,0.1,1.3c0,4-0.6,6.6-1.7,7.8c-0.7,0.7-1.2,1.4-1.6,2.1c-0.1,0.3-0.3,0.4-0.4,0.5c-0.2,0.1-0.3,0.1-0.4,0.1
		c-0.1,0-0.3,0-0.5,0.1c-0.2,0.1-0.4,0.2-0.5,0.4c-0.4,0.4-0.8,0.6-1.3,0.6c-0.4,0-0.9,0.2-1.4,0.6c-0.6,0.4-0.9,0.7-0.9,0.9
		c0,0.1,0.2,0.2,0.5,0.3c0.3,0.1,0.7,0.3,1.1,0.4c0.4,0.1,0.9,0.2,1.3,0.3c0.5,0.1,0.8,0.1,1.2,0.1c0.5,0,1.1-0.1,1.8-0.2
		c0.3-0.1,0.6-0.2,0.9-0.4c0.4-0.1,0.7-0.3,1-0.4c0.3-0.1,0.6-0.2,0.8-0.3C226.4,167.6,228.1,166.5,229.4,165.4z M213.1,165.2
		c0.4,0.5,0.8,0.8,1.2,0.8c0.7,0,1.7-0.6,3.1-1.8c1.4-1.2,2.2-2.2,2.6-3c0.4-0.9,0.6-1.9,0.6-3c0-1.1-0.1-2-0.5-2.6
		c-0.3-0.6-0.7-0.9-1-0.8c-0.3,0.1-1.1,0.7-2.2,1.8c-1.1,1-2.1,2.2-3,3.7c-0.9,1.5-1.4,2.6-1.4,3.3
		C212.4,164.2,212.7,164.7,213.1,165.2z"/>
	<path d="M256,166.4c0.5-0.4,1-0.6,1.4-0.5c0.4,0.1,0.6,0.5,0.6,1.1c0,0.1,0,0.3-0.1,0.5c-0.1,0.2-0.1,0.3-0.2,0.4
		c-0.1,0.1-0.2,0.3-0.3,0.4c-0.1,0.1-0.3,0.3-0.4,0.4c-0.1,0.1-0.3,0.2-0.4,0.4c-0.2,0.1-0.3,0.2-0.4,0.3c-0.1,0.1-0.3,0.2-0.4,0.3
		c-0.2,0.1-0.3,0.2-0.4,0.3c-0.5,0.4-1.1,0.7-1.7,1c-0.1,0-0.4,0.2-1,0.5l-0.2,0.3c-0.8,0.7-1.9,1.2-3.4,1.4c-0.9,0.1-1.6,0.1-2.1,0
		c-0.5-0.1-1.2-0.4-2.1-0.8c-1.3-0.6-2.2-1.2-2.6-1.6c-0.3-0.2-0.5-0.3-0.7-0.3c-0.2,0-0.6,0.3-1.1,0.7c-1.8,1.3-3.9,2-6.3,2.1
		c-2.4,0.2-4-0.3-4.8-1.4c-0.5-0.7-0.7-2.1-0.6-4.2c0-2.1,0.3-3.6,0.8-4.4c0.4-0.8,0.8-1.4,1-1.7c0.3-0.4,0.5-0.7,0.7-1
		c0.2-0.3,0.6-0.8,1.2-1.5c1.8-2.2,3.2-3.8,4.3-4.6c0.8-0.6,1.8-1.2,2.8-1.6c1.1-0.4,2.2-0.7,3.4-0.9c1.2-0.1,2.3,0,3.2,0.5
		c1.1,0.6,1.8,1.6,2.1,3c0.3,1.4,0.2,2.7-0.1,4.1c-0.3,1.3-0.8,2.5-1.3,3.7c-0.5,1.1-0.9,2.3-1.1,3.6c-0.2,1.3-0.2,2.1,0,2.5
		c0.5,1.1,2.3,1.2,5.4,0.2c0.1,0,0.2,0,0.3,0c0.2-0.1,0.3-0.1,0.4-0.2C253.5,168.2,254.9,167.3,256,166.4z M242.9,158.3
		c0.3-0.2,0.5-0.3,0.5-0.4c0-0.1,0-0.3-0.2-0.4c-0.3-0.4-0.8-0.6-1.5-0.7c-0.6-0.1-1.3-0.1-1.9,0.1c-0.6,0.1-1.5,0.7-2.7,1.7
		c-1.2,1-2.1,1.9-2.5,2.6c-0.6,0.8-1.1,1.6-1.5,2.2c-0.5,0.7-0.8,1.7-1,3c-0.2,1.3-0.1,2.2,0.2,2.6c0.3,0.3,0.9,0.5,1.9,0.5
		c1,0,1.9-0.2,2.8-0.5c0.8-0.4,1.5-1,1.9-1.8c0.7-1.4,1.3-2.4,1.7-3.3c0.7-1.3,1.1-2.2,1.1-2.6c0-0.3,0.1-0.6,0.4-0.9
		c0.2-0.3,0.3-0.6,0.2-1C242.2,159,242.4,158.6,242.9,158.3z"/>
	<path d="M278.6,166.4c0.6-0.5,1.2-0.7,1.6-0.6c0.5,0.1,0.7,0.5,0.7,1.4c0,0.2,0,0.4-0.1,0.6c-0.1,0.2-0.2,0.4-0.3,0.6
		s-0.3,0.4-0.5,0.5c-0.1,0.2-0.3,0.3-0.6,0.5c-0.2,0.2-0.4,0.3-0.6,0.4c-0.2,0.1-0.4,0.2-0.6,0.4c-0.3,0.2-0.4,0.3-0.5,0.3
		c-0.7,0.5-1.4,0.8-2.1,1.2c-0.5,0.2-1.2,0.5-2.3,0.8c-1.1,0.4-2.5,0.8-4.2,1.2c-1.7,0.4-3.4,0.6-5,0.5s-2.8-0.6-3.6-1.4
		c-0.3-0.3-0.7-0.8-1.1-1.4s-0.8-1.2-1.1-1.8c-0.3-0.6-0.5-1.1-0.7-1.4c-0.4-1-0.5-2.4-0.5-4.2c0.3-5.4,2.6-10.1,7-14
		c1-0.9,1.8-1.4,2.3-1.6s1.4-0.3,2.8-0.3c2.5,0,4.4,0.5,5.7,1.6c1.3,1.1,1.8,2.5,1.5,4.3c-0.2,0.9-0.4,1.4-0.6,1.7s-0.6,0.4-1.3,0.5
		c-0.9,0.1-1.7-0.1-2.5-0.5c-0.8-0.4-1.1-0.9-0.9-1.4c0.2-0.4,0.1-0.9-0.3-1.3c-0.4-0.4-0.8-0.7-1.3-0.7c-1,0-2.4,1-4.3,3
		s-2.9,3.5-2.9,4.5c0,0.4-0.2,0.9-0.6,1.6c-0.4,0.6-0.6,1.7-0.6,3.3c0.1,1.5,0.3,2.6,0.7,3.2c0.7,1,1.8,1.7,3.5,2.1
		c1.6,0.4,3.1,0.5,4.5,0.2c0.7-0.1,1.5-0.3,2.3-0.7c1.5-0.6,2.9-1.4,4.2-2.4c1-0.7,1.7-1,2-0.8c0,0,0.1,0,0.2-0.1
		S278.5,166.4,278.6,166.4z"/>
	<path d="M297,166.2c0.2,0.3,0.2,0.7,0,1c-0.2,0.3-0.7,0.8-1.6,1.6c-1.4,1.2-3,2.2-4.8,3.2c-1.4,0.7-2.8,1-4.3,0.8
		c-1.5-0.1-2.9-0.6-4.2-1.3c-1.3-0.7-2.4-1.7-3.4-2.8c-1.4-1.6-1.8-3.8-1.2-6.4c0.1-0.2,0.2-0.9,0.3-2.1c0.2-1.2,0.4-2.2,0.5-3.1
		c0.2-0.9,0.4-1.5,0.6-1.8c0.3-0.3,0.7-0.5,1.3-0.6c0.6-0.1,1.2-0.1,1.8,0c0.6,0.1,1.2,0.3,1.8,0.6c0.6,0.3,1,0.6,1.2,1.1
		c0.2,0.5,0.2,1,0,1.6c-0.7,1.4-1,2.3-1,2.9c0,0.5-0.3,1.2-0.9,1.9c-0.5,0.6-0.8,1.3-0.9,2.1c-0.1,0.8,0,1.4,0.4,1.6
		c0.3,0.1,0.5,0.5,0.5,1.1c0,0.5,0.4,1.1,1.1,1.8c0.5,0.5,0.9,0.8,1.2,0.8c0.3,0.1,0.9,0,1.7-0.2c1.2-0.4,2.7-1.3,4.5-2.6
		c1.5-1.1,2.6-1.7,3.3-1.8C295.9,165.2,296.5,165.5,297,166.2z M289.3,145.5c-0.8,0.2-1.6-0.1-2.4-0.9c-0.5-0.5-0.8-0.9-0.9-1.1
		c0-0.2,0.2-0.4,0.6-0.8c0.6-0.4,1.4-0.6,2.3-0.6s1.6,0.2,1.9,0.6c0.4,0.5,0.4,1,0.1,1.6S290.1,145.3,289.3,145.5z"/>
	<path d="M318.6,163.4c0.4,0.2,0.6,0.7,0.6,1.5c0,0.9-0.5,1.7-1.5,2.5c-0.4,0.3-0.8,0.5-1.3,0.8c-0.1,0-0.2,0.1-0.3,0.2
		c-0.4,0.2-0.7,0.4-1,0.4c-0.9,0.1-1.7-0.3-2.5-1c-0.2-0.2-0.4-0.5-0.6-0.9l-0.1-0.2c-0.3-0.4-0.5-0.7-0.7-0.8
		c-0.2-0.1-0.5-0.1-0.9,0.1c-0.4,0.2-0.9,0.9-1.5,2.1c-0.3,0.6-0.5,1-0.6,1.3c-0.5,0.8-1,1.3-1.4,1.4c-0.5,0.3-1.2,0.7-2.1,1.2
		c-1.1,0.7-2.1,1-3.1,1.1c-1.1,0.1-2,0.2-2.5,0.3c-0.1,0-0.3,0-0.4,0c-0.3,0-0.6-0.1-0.8-0.2c-0.3-0.1-0.8-0.5-1.5-1.2
		c-0.7-0.7-1.2-1.2-1.5-1.7s-0.5-1.4-0.8-2.7c-0.4-2.1-0.5-3.7-0.3-5c0.2-1.3,0.9-2.7,1.9-4.4c1.3-2.1,2.6-3.7,3.8-4.6
		c1.2-1,2.6-1.6,4.4-2c0.8-0.2,1.6-0.5,2.2-0.9c1-0.7,1.9-0.9,2.7-0.7c0.7,0.1,1.6,0.7,2.6,1.8c0.5,0.6,0.9,1,1.1,1.4
		c0.2,0.3,0.4,0.7,0.5,1c0.1,0.3,0.1,0.8,0.1,1.4c0,2.6,0.1,4.5,0.3,6c0.1,0.8,0.3,1.5,0.6,1.9c0.3,0.4,0.8,1,1.6,1.6l0.1-0.1
		c0.5-0.3,0.9-0.6,1.1-0.8C317.4,163.4,318.1,163.2,318.6,163.4z M307.4,162.6c0.1-0.7,0.1-1.1,0-1.4c-0.1-0.3-0.5-0.7-1.1-1.3
		c-1-0.9-1.4-1.7-1.4-2.3c0-0.4-0.1-0.9-0.4-1.4c-0.3-0.5-0.5-0.9-0.8-1.1c-0.2-0.1-0.4-0.2-0.5-0.2c-0.1,0-0.2,0-0.3,0.1
		c-0.3,0.1-0.9,0.7-1.8,1.6c-0.8,0.8-1.5,1.8-2.2,3s-1.2,2.3-1.5,3.4c-0.3,1-0.4,1.7-0.2,2.2c0.2,0.4,0.4,1.2,0.4,2.2
		c0.1,0.8,0.2,1.4,0.3,1.7c0.1,0.3,0.4,0.5,0.6,0.6c0.3,0.1,0.8,0.2,1.6,0.2c0.3,0,0.6,0,0.9,0c0.2,0,0.4,0,0.6-0.1
		c0.2-0.1,0.4-0.1,0.6-0.2c0.2-0.1,0.4-0.2,0.6-0.4c0.2-0.1,0.4-0.3,0.7-0.6c1.1-0.9,1.7-1.6,1.9-2.1c0.2-0.5,0.5-1.1,1-1.7
		C307,164.3,307.3,163.6,307.4,162.6z M308.7,156c0-1.1-0.1-1.7-0.3-1.9c-0.1,0.1-0.1,0.1-0.2,0.2c-0.1,0.3-0.1,0.8,0,1.8
		c0.1,0.7,0.2,1.1,0.3,1.3C308.6,157.1,308.7,156.7,308.7,156z"/>
	<path d="M339.1,163.5c0.6-0.5,1.2-0.8,1.7-0.7c0.5,0.1,0.7,0.6,0.7,1.4c0,0.2,0,0.4-0.1,0.6s-0.1,0.4-0.2,0.5
		c-0.1,0.2-0.2,0.3-0.4,0.5c-0.2,0.2-0.3,0.3-0.5,0.5s-0.3,0.3-0.5,0.4c-0.2,0.1-0.4,0.3-0.5,0.4c-0.1,0.1-0.3,0.2-0.5,0.4
		s-0.3,0.2-0.4,0.3c-0.7,0.5-1.4,0.8-2.2,1.2c-0.1,0-0.2,0.1-0.4,0.2c-0.8,0.8-1.5,1.4-2.1,1.6c-0.6,0.2-1.3,0.4-2.3,0.4
		c-1,0.3-1.7,0.3-2-0.1c-0.1,0-0.5,0-1-0.1c-0.6-0.1-0.9-0.1-1.1-0.1c-0.2,0-0.5,0-0.9,0c-0.4,0-0.8,0-1.1,0.1
		c-0.3,0.1-0.6,0.2-0.9,0.3c-0.4,0.2-0.8,0.3-1.4,0.3c-0.6,0-1.6-0.1-3-0.3c-1-0.1-1.9-0.2-2.5-0.3c-0.1,0-0.3,0-0.5,0s-0.4,0-0.6,0
		c-0.2,0-0.4-0.1-0.5-0.2c-0.3-0.2-0.7-1-1.2-2.3c-0.3-0.8-0.4-1.6-0.5-2.4c-0.1-0.3-0.1-0.6,0-0.8c0.1-0.7,0.4-1.2,0.7-1.3
		c0.1-0.1,0.3-0.1,0.6-0.2s0.5-0.2,0.7-0.3c0.3-0.2,0.5-0.5,0.6-1c0.2-0.5,0.3-1,0.3-1.5c0-0.5,0.1-0.8,0.1-0.9
		c0.1-0.2,0.3-0.4,0.7-0.6c0.3-0.2,0.5-0.3,0.5-0.3c0.3-0.3,0.6-0.7,0.9-1.2c0.1-0.3,0.3-1.1,0.7-2.4c0.3-1.1,0.6-2.2,0.8-3.3
		c0.2-1.1,0.3-2,0.4-2.8c0.1-1.8,0.3-2.8,0.6-3.2c0.2-0.3,0.7-0.5,1.4-0.5c0.7,0,1.3,0.2,1.7,0.6c0.2,0.1,0.4,0.4,0.6,0.7
		c0.2,0.3,0.3,0.6,0.4,0.9c0.1,0.3,0.2,0.6,0.3,1.1c0.1,0.5,0.2,0.8,0.3,0.9c0.5,1.6,0.9,3,1.1,4.3c0.1,0.5,0.2,1.3,0.3,2.3
		c0.1,1,0.2,1.9,0.4,2.7c0.1,0.8,0.3,1.6,0.6,2.2c0.5,1.3,0.6,2.4,0.5,3.4c-0.1,0.6-0.1,1.2-0.1,1.8c0,0.5,0.2,1,0.5,1.3
		c0.4,0.3,0.9,0.5,1.7,0.4c0.3,0,0.6-0.1,0.9-0.2c0.3-0.1,0.6-0.2,0.8-0.3c0.2-0.1,0.5-0.3,0.8-0.6c0.3-0.3,0.6-0.4,0.7-0.5
		s0.4-0.3,0.7-0.7c0.4-0.4,1.1-0.9,2-1.6C338.5,164,339,163.6,339.1,163.5z M325.6,164.6c0.2-1,0-2.6-0.7-4.8
		c-0.7-2.1-1.2-3.2-1.3-3.2c-0.2,0-0.4,0.4-0.5,1.2c-0.2,0.7-0.4,1.3-0.6,1.6c-0.3,0.5-0.9,1.5-1.6,3.1c-0.7,1.6-1.1,2.5-1,2.7
		c0.1,0.2,0.4,0.4,0.9,0.6c0.4,0.2,0.9,0.4,1.4,0.5c0.5,0.1,0.9,0.1,1.3,0.1C324.6,166.2,325.4,165.5,325.6,164.6z"/>
</g>
</svg>
