<?xml version="1.0" encoding="utf-8"?>
<!-- Generator: Adobe Illustrator 25.2.3, SVG Export Plug-In . SVG Version: 6.00 Build 0)  -->
<svg version="1.1" id="Capa_1" xmlns="http://www.w3.org/2000/svg" xmlns:xlink="http://www.w3.org/1999/xlink" x="0px" y="0px"
	 viewBox="0 0 500.9 443.9" style="enable-background:new 0 0 500.9 443.9;" xml:space="preserve">
<style type="text/css">
	.st0{enable-background:new    ;}
</style>
<g id="Capa_2_1_">
</g>
<g>
	<path d="M463.1,334.1c-1.1-1.1-1.3-1.2-2.7-1.1c-0.2,0-0.5,0.2-0.6,0.2c-0.2-0.2-0.4-0.2-0.6,0c-0.1,0.1-0.4-0.2-0.6,0.1
		c-0.1,0.1-0.5,0.3-0.6,0.2c-0.2-0.1-0.4,0-0.6,0c-0.1,0-0.4-0.2-0.4-0.1c-0.3,0.4-0.7,0.2-1.1,0.2c-0.3,0.1-0.7,0.2-1,0.2
		c-0.4,0-0.7,0-1.1,0c-0.3,0-0.6,0.2-0.9,0.2c-0.3,0.1-0.7-0.1-1,0.2c-0.3-0.5-0.6,0-0.9,0c-0.5,0-1,0-1.4,0.2s-1-0.2-1.3,0.3
		c-0.4-0.5-0.8,0-1.2,0s-0.9-0.1-1.2,0.2c-0.3-0.4-0.6,0.1-1,0s-0.8,0-1.2,0.2s-0.9,0-1.3,0c-0.1,0-0.2,0-0.2,0
		c-0.4,0.5-1,0.2-1.5,0.2c-0.5,0.1-1.1,0.2-1.6,0.2c-0.3,0-0.8,0-0.9,0.1c-0.3,0.4-0.6-0.3-0.9,0.1c-0.8,0.1-1.5,0.2-2.3,0.3
		c-0.2,0-0.5,0-0.6,0.2c-0.2,0.3-0.3-0.3-0.7-0.1c-0.5,0.3-1.2,0.4-1.8,0.3c-0.4-0.1-0.8,0-1.1,0.1s-0.4,0-0.6,0
		c-0.3,0.1-0.5,0.1-0.8,0.1s-0.7-0.1-0.9,0c-0.3,0.2-0.6,0-0.8,0.2c-0.2,0.1-0.8-0.1-0.9,0.1c-0.3,0.4-0.6,0-0.9,0.1
		c-1,0.3-2.2,0.2-3.2,0.6c-0.3-0.4-0.6,0-0.9,0c-0.3,0-0.8,0.3-0.9,0.1c-0.4-0.3-0.6,0.3-0.9,0.1c-0.3-0.1-0.7-0.2-1,0.2
		c-0.3-0.2-0.6,0-0.9,0c-0.4,0-0.7,0.4-1.1,0c-0.4,0.4-1,0.2-1.5,0.3c-0.8,0.1-1.6,0.1-2.3,0.3c-0.4,0.1-0.3-0.2-0.6-0.2
		c0.7-0.7,1.4-1.4,1.9-2.2c0.8-1,1.6-2.1,2.4-3.1c0.8-1,1.5-2.1,2.3-3.1c0.2-0.2,0.5-0.4,0.5-0.6c0-0.6,0.5-0.8,0.7-1.3
		s0.7-0.6,0.8-1.1c0-0.6,0.5-0.7,0.7-1.1c0.7-1.5,1.7-2.7,2.5-4.1c0.7-1.3,1.4-2.6,2.1-3.8c1.5-2.7,2.8-5.6,4.1-8.4
		c0.1-0.3,0.6-0.6,0.2-1c0.8-1,1.1-2.3,1.5-3.5c0.1-0.4,0.5-0.7,0.5-1.2c0-0.4,0.3-0.8,0.5-1.3c0-0.1,0.1-0.1,0.1-0.2
		c-0.1-0.8,0.7-1.3,0.5-2.1c0.7-1,0.7-2.2,1.3-3.2c-0.2-0.6,0.3-1,0.4-1.6c0.1-0.7,0.3-1.5,0.5-2.2c0.4-1.1,0.7-2.3,0.9-3.5
		c0.1-0.5,0.1-1,0.4-1.5c0.1-0.2,0.3-0.5,0.2-0.6c-0.2-0.3,0.2-0.5,0.1-0.8c-0.1-0.3,0.3-0.6,0-0.9c0.4-0.2,0-0.7,0.3-1s0-0.8,0.2-1
		c0.3-0.3-0.1-0.6,0.2-0.8c0.1-0.2,0.1-0.5,0.1-0.8c0-0.2,0.2-0.4,0.2-0.6c0-0.3-0.1-0.6,0.2-0.7c-0.4-0.2,0-0.4,0-0.6
		c0-0.5,0-1,0.2-1.4c0.2-0.5-0.1-1,0.3-1.6c0.2-0.4,0.1-1.1,0.1-1.7c0-0.1,0-0.2,0.1-0.3c0.3-0.5,0.2-1,0.1-1.5
		c-0.1-0.5,0.4-1,0.2-1.5c-0.1-0.3,0-0.5,0-0.8s-0.1-0.6,0.1-0.8c0.3-0.3-0.2-0.5-0.1-0.8c0.1-0.2,0.5-0.3,0.2-0.7
		c-0.1-0.1-0.2-0.5-0.1-0.6c0.2-0.3,0.2-0.5,0.2-0.8c0-0.5,0-1,0-1.6s0-1,0-1.6s0-1,0-1.6s0-1,0-1.6s0-1,0-1.6s0-1,0-1.6
		c0-0.5-0.2-1-0.1-1.4c0.1-0.4-0.1-0.8-0.1-1.2c0-0.4,0.1-0.9,0-1.2c-0.1-0.3,0.1-0.7-0.2-0.9c0.6-0.3-0.1-0.7,0-1
		c0-0.5-0.1-1-0.1-1.5s-0.3-1-0.1-1.4c0.1-0.5-0.5-0.9,0-1.4c-0.5-1.2-0.5-2.5-0.8-3.7c0-0.2,0.2-0.4,0.1-0.6
		c-0.3-0.6-0.5-1.2-0.5-1.9c-0.3-0.2,0-0.5-0.1-0.7s-0.1-0.5-0.1-0.8c-0.1-0.3-0.1-0.6-0.2-0.9c-0.1-0.2-0.2-0.4-0.2-0.6
		c-0.1-0.3-0.1-0.5-0.1-0.8c0-0.2-0.1-0.6-0.2-0.6c-0.4-0.2,0.1-0.4-0.1-0.6c-0.3-0.6-0.3-1.4-0.7-2c-0.2-0.4,0.3-0.5,0-0.8
		c-0.2-0.2-0.3-0.6-0.4-0.9c-0.4-0.8-0.2-1.7-0.7-2.4c-0.5-2.1-1.5-4-2-6c-0.2-0.7-0.3-1.4-0.8-2c-0.4-0.4-0.4-1-0.7-1.4
		c-0.1-0.3-0.3-0.6-0.4-0.9c-0.1-0.2-0.2-0.3-0.3-0.5c-0.4-1.3-0.9-2.6-1.7-3.8c-0.4-0.7-0.5-1.5-1-2.1c-0.2-0.2-0.4-0.5-0.5-0.8
		c-0.3-1.5-1.5-2.6-1.9-4c-0.5-0.5-0.7-1.1-1-1.7c-0.2-0.4-0.7-0.6-0.7-1.2c0-0.4-0.5-0.6-0.7-1c-0.5-0.9-1-1.7-1.5-2.5
		c-0.4-0.7-0.9-1.2-1.3-1.9c-0.4-0.7-0.9-1.4-1.4-2c-0.6-0.7-1.2-1.4-1.7-2.2c-0.5-0.9-1.1-1.6-1.6-2.3c-0.2-0.4-0.6-0.4-0.8-0.8
		c-0.4-0.7-0.8-1.4-1.5-1.9c-0.5-0.4-0.8-1.1-1.4-1.5c-0.5-0.3-0.8-0.9-1.2-1.4c-0.5-0.5-0.9-1.1-1.4-1.6s-0.8-1.1-1.4-1.5
		c-0.3-0.2-0.4-0.6-0.7-0.9c-0.3-0.3-0.6-0.6-0.9-0.8c-0.8-0.7-1.4-1.6-2.3-2.1c-0.5-0.3-1-0.7-1.3-1.1c-0.3-0.4-0.8-0.7-1.1-1.1
		c-0.3-0.5-0.8-0.7-1.3-1c0,0,0-0.1-0.1-0.1c-0.4-0.8-1.4-1.1-1.9-1.8c-0.3-0.4-0.7-0.7-1.1-0.9c-0.4-0.2-0.6-0.7-1.1-0.7
		c0.2-0.5-0.7-0.3-0.5-0.7c-0.3-0.2-0.7-0.4-1-0.6c-0.3-0.2-0.5-0.5-0.8-0.7c-0.7-0.3-1.2-0.8-1.8-1.2s-1.1-0.8-1.7-1.2
		c-0.5-0.4-1.3-0.5-1.6-1.2c-1.2-0.4-2-1.3-3.1-1.9c-0.2-0.1-0.4-0.2-0.6-0.3c-0.5-0.3-1.1-0.4-1.5-0.8c-0.4-0.5-0.9-0.6-1.3-0.9
		c-0.2-0.1-0.4-0.2-0.6-0.3c-1.1-0.9-2.5-1.4-3.7-2.1c-1.3-0.7-2.6-1.4-4-2s-2.7-1.4-4.2-1.8c-1-0.3-1.8-1-2.9-1.2
		c-0.2,0-0.5-0.2-0.7-0.3s-0.6-0.2-0.7-0.3c-0.2-0.3-0.4,0.2-0.6-0.1c-0.5-0.3-1-0.7-1.7-0.6c-0.5-0.5-1.2-0.4-1.8-0.7
		s-1.2-0.5-1.8-0.6c-0.3-0.1-0.5-0.2-0.8-0.3c2.3-3.1,4.5-6.4,6.4-9.9c7.5-13.9,11.4-28.5,9.3-44.4c-2.3-17.9-11.3-31.3-27.2-40.1
		c-9.4-5.2-19.6-7.9-30.1-9.6c-18-2.8-36.2-4.1-54.5-4.2c-16.1-0.1-32.3,0.3-48.4,0.7c-15.2,0.4-30.3,1.7-45.3,3.7
		c-17.4,2.3-34.6,5.6-51.5,10.2c-12.7,3.5-25.3,7-37.3,12.4c-12.4,5.6-23.7,12.9-32.7,23.2c-18.7,21.3-17.8,52.7,2.2,72.4
		c8.7,8.6,19.4,13.5,31.3,16c12.1,2.6,24.4,3.2,36.6,3.4c17,0.2,33.9,0.1,55,0.1c7.7-0.2,19.6-0.5,31.5-1c9.7-0.4,19.5-0.9,29.2-1.6
		c10-0.6,20-1.4,30-2.2c3.5-0.3,7-0.6,10.5-1c1.5-0.2,2.3-1.5,2.1-3.1c-0.2-1.5-1-2-2.6-1.9c-9.9,0.9-19.9,1.9-29.8,2.5
		c-16.7,1-33.4,2-50.1,2.7c-13.7,0.6-27.5,0.9-41.2,1.1c-17.3,0.3-34.7,0.4-52-1.3c-7.2-0.7-14.3-1.4-21.3-3.2
		c-11.7-3-21.9-8.4-29.7-17.9c-8.8-10.6-12.6-22.8-10.7-36.5c1.6-11.4,7.4-20.8,15.4-28.8C61.2,90.9,69.1,86,77.5,82
		c12.1-5.8,24.9-9.9,37.7-13.6c16.3-4.8,32.9-8.3,49.8-10.6c11.3-1.5,22.7-2.6,34.1-3.5c8.1-0.7,16.2-0.9,24.3-1.1
		c9.4-0.2,18.8-0.3,28.2-0.2c11.2,0.2,22.4,0.8,33.6,1.2c11,0.4,22.1,0.7,33,2.4c9.2,1.4,18.1,3.9,26.4,8.3
		c10,5.3,17.7,12.8,22.1,23.4c5,12.1,5.3,24.5,2.4,37.1c-3.8,16.6-12.9,29.9-25.8,40.7c-10.7,9-22.8,15.6-35.6,21
		c-12.9,5.5-26.3,9.6-39.7,13.7c-19.8,6.1-39.9,10.1-60.7,11c-14.1,0.6-28-0.5-41.8-3.4c-1.8-0.4-2.9,0.3-3.2,2
		c-0.3,1.5,0.4,2.5,2.1,2.9c14.1,3,28.4,4.1,42.8,3.5c12.4-0.5,24.7-2,36.8-4.6c16.9-3.6,33.4-8.5,49.7-14.2
		c15.3-5.4,29.9-12,43.3-21.3c7.5-5.2,14.2-11,19.9-17.9c0.2,0.3,0.3,0.6,0.5,0.8s0.7,0.4,0.9,0.4c0.5-0.1,0.7,0.4,1.1,0.4
		c0.5-0.1,0.8,0.3,1.2,0.4c0.4,0,0.7,0.1,1,0.3c0.1,0.1,0.4,0.3,0.5,0.2c0.5-0.3,0.7,0.1,1,0.3s0.7,0.3,1.1,0.3
		c0.4,0,0.7,0.3,1.1,0.5c0.1,0.1,0.2,0.2,0.3,0.2c0.4,0.1,0.8,0.2,1.2,0.3c0.4,0.2,0.8,0.4,1.2,0.6c0.3,0.2,0.7,0.1,1,0.2
		c2.2,1.1,4.4,2.3,6.7,3.2c0.8,0.3,1.6,0.6,2.2,1.1c0.7,0.6,1.4,0.8,2.2,1.2c0.2,0.1,0.3,0.2,0.5,0.3s0.4,0.3,0.6,0.4
		c0.5,0.3,1.1,0.5,1.5,0.9s1.2,0.4,1.5,1c1.1,0.4,2,1.1,2.9,1.8c0.4,0.3,0.8,0.5,1.3,0.7c0.1,0.7,0.8,0.6,1.2,0.9
		c0.9,0.7,1.9,1.4,2.8,2.1c0.4,0.3,0.7,0.6,1.1,0.8c0.4,0.2,0.6,0.7,1.1,0.7c0.4,0.9,1.4,1,1.8,1.8c1.1,0.5,1.8,1.5,2.7,2.3
		c0.5,0.4,1.1,0.7,1.3,1.3c1.1,0.4,1.5,1.6,2.5,2c0.1,0.5,0.5,0.9,0.9,1.1c0.5,0.3,0.6,0.8,1,1.1s0.6,0.8,1.2,0.9
		c0.1,0,0.1,0.1,0.1,0.2c-0.2,0.7,0.9,0.6,0.8,1.2c1.1,0.6,1.7,1.7,2.5,2.6c0.8,0.9,1.8,1.7,2.3,2.9c0.7,0.1,0.8,0.8,1.1,1.2
		s0.9,0.8,1,1.4c0.8,0.5,0.9,1.6,1.6,2.1c0,0.5,0.7,0.5,0.7,0.9c0.1,0.5,0.4,0.8,0.7,1c0.4,0.3,0.2,0.9,0.7,1.2
		c0.3,0.2,0.5,0.6,0.8,1c0.2,0.3,0.4,0.7,0.6,1.1c0.2,0.4,0.6,0.5,0.7,0.9c0.1,0.3,0.4,0.7,0.5,1c0,0.4,0.5,0.4,0.7,0.8
		c0.5,1.1,1.1,2.2,1.8,3.2c0.2,0.4,0.4,0.7,0.6,1.1c0.2,0.3-0.1,0.9,0.5,0.8c0,0.6,0.7,1,0.7,1.5c0.1,0.7,0.7,1,0.8,1.6
		c0.1,0.4,0.3,0.8,0.5,1.2c0.3,0.5,0.4,1.1,0.7,1.6s0.7,1,0.9,1.6c0.3,1.2,0.9,2.4,1.3,3.6c0.1,0.5,0.5,0.8,0.7,1.3
		c0.4,1,0.6,2.1,1,3.1c0.2,0.5,0.2,1.1,0.4,1.6c0.4,1.3,1.1,2.5,1.3,3.9c0.5,0.2-0.3,0.5,0.1,0.9c0.4,0.3,0.4,0.9,0.4,1.4
		c0,0.2,0.1,0.4,0.1,0.5c0.1,0.5,0.6,1,0.5,1.4s0.1,0.7,0.1,1c0,0.4,0.1,0.8,0.2,1.1c0.3,0.6,0.2,1.3,0.5,2c0.1,0.3,0,0.7,0.2,1.1
		c0.2,0.3,0.2,0.8,0.1,1c-0.2,0.5,0.4,0.7,0.2,1.1c0.3,0.2,0.1,0.6,0.2,0.9c0.1,0.3-0.1,0.8,0.1,1c0.2,0.3-0.1,0.5,0.1,0.8
		c0.2,0.3,0,0.8,0.1,1.2c0.1,0.3,0.4,0.6,0,0.9c0.3,0.2,0.3,0.5,0.2,0.7c-0.1,0.3,0.3,0.5,0.1,0.8c-0.1,0.2,0.3,0.5-0.1,0.6
		c0.3,0.2,0.2,0.6,0.2,0.9s-0.1,0.6,0,0.8c0.2,0.4-0.1,0.7,0,1c0.4,0.9,0.1,1.8,0.2,2.7c0,0.3,0.2,0.7,0.1,0.9c-0.1,0.4-0.2,0.7,0,1
		c0.1,0.4-0.3,0.7-0.1,1s-0.1,0.6,0.2,0.8c-0.5,0.2-0.1,0.6-0.1,0.8c0,0.4-0.2,0.8-0.2,1.2c0,0.5,0,1,0,1.4s-0.1,0.8,0,1.2
		c0.1,0.4-0.4,0.7-0.1,1c0.3,0.4-0.3,0.7,0,1c0.1,0.1-0.4,0.4-0.1,0.7c0.1,0.1-0.1,0.4-0.1,0.6s0.2,0.4,0.1,0.6
		c-0.4,0.8-0.1,1.8-0.3,2.6c-0.1,0.3,0.1,0.7,0,0.9c-0.2,0.3,0,0.6-0.1,0.8c-0.1,0.3,0,0.7-0.1,0.9c-0.3,0.3,0,0.6-0.2,0.8
		c-0.2,0.2,0,0.6-0.1,0.9c0,0.2-0.3,0.4,0,0.5c-0.1,0.1-0.3,0.2-0.1,0.4c0.1,0.1-0.1,0.4-0.2,0.6c-0.1,0.3-0.2,0.6-0.2,0.9
		c-0.1,0.5,0.2,1-0.2,1.5c0.3,0.5-0.2,0.8-0.2,1.2c0,0.4-0.3,0.8-0.2,1.3c0.1,0.3-0.2,0.7-0.3,1.1c-0.1,0.3-0.2,0.6-0.2,0.9
		c0,0.4-0.1,0.8-0.2,1c-0.1,0.3,0,0.6-0.2,0.9s-0.1,0.8-0.3,1.2c-0.2,0.6-0.3,1.2-0.5,1.7c-0.3,0.8-0.4,1.7-0.7,2.5
		c-0.3,0.7-0.7,1.5-0.7,2.2c0,0.6-0.5,1.1-0.4,1.7c0,0.4-0.6,0.8-0.5,1.1c0.1,0.5-0.4,0.7-0.4,1.2c0,0.1-0.2,0.2-0.2,0.2
		c0.3,0.6-0.3,0.8-0.4,1.3c-0.1,0.5-0.2,0.9-0.4,1.4s-0.7,0.9-0.5,1.5c-0.6,1-1,2.1-1.4,3.3c-0.2,0.7-0.7,1.4-1.1,2.1
		c-0.5,1.2-1.2,2.3-1.6,3.5c-0.3,0.8-0.6,1.7-1.2,2.3c-0.5,0.6-0.8,1.2-1,1.9c-0.1,0.3-0.2,0.6-0.4,0.8c-0.7,0.5-0.8,1.3-1.2,1.9
		c-0.3,0.5-0.5,1-0.9,1.4c-0.9,1-1.3,2.4-2.3,3.3c-0.3,1.1-1.2,1.7-1.7,2.6s-1.1,1.8-1.9,2.5c-0.3,0.2-0.4,0.6-0.6,1
		c-0.2,0.3-0.4,0.6-0.6,0.8c-0.3,0.2-0.6,0.4-0.5,0.9c-0.7,0.4-1.1,1.1-1.5,1.7c-0.6,0-0.4,0.6-0.8,0.9c-0.3,0.2-0.4,0.7-0.7,0.8
		c-0.5,0.2-0.4,0.7-0.8,0.9c0,0-0.1,0-0.2-0.1c0.3-0.8,0.6-1.5,0.9-2.3c0.2-0.6,0.5-1.2,0.6-1.8c0.1-0.5,0.4-0.8,0.5-1.2
		c0.1-0.5,0.2-1,0.5-1.4c0.1-0.1,0.3-0.4,0.2-0.5c-0.4-0.5,0.3-0.8,0.3-1.1c0-0.5,0.3-0.9,0.4-1.3c0.1-0.6,0.4-1.1,0.5-1.6
		c0.2-1.2,0.9-2.2,1.1-3.4c0-0.2,0.2-0.4,0.3-0.6s0.2-0.5,0.1-0.6c-0.3-0.3,0.2-0.4,0.1-0.6c0-0.2,0.1-0.5,0.3-0.6
		c0.3-0.2-0.1-0.3,0-0.5c0.2-0.4,0.5-0.8,0.5-1.4c0-0.5,0.5-0.9,0.5-1.5c0-0.3,0.4-0.7,0.5-1c0-0.4,0.1-0.7,0.3-1s0.1-0.6,0.2-0.9
		c0.5-0.9,0.7-2,1.1-2.9c0.1-0.3,0.4-0.7,0.5-1c0.1-0.7,0.4-1.4,0.7-2c0.3-0.7,0.2-1.5,0.8-2.1c-0.1-0.6,0.4-1.1,0.5-1.6
		c0.1-0.8,0.5-1.4,0.7-2.1c0.2-0.8,0.5-1.6,0.8-2.3c0.1-0.3,0.2-0.6,0.3-0.9s0.2-0.6,0.4-0.9c0.1-0.3,0.2-0.6,0.4-0.8
		c0.3-0.3,0-0.5,0.2-0.8c0.6-1,0.3-1.9-0.5-2.6c-0.2-0.2-0.3-0.4-0.5-0.5c-0.4-0.3-0.9-0.4-1.3-0.2c-0.5,0.2-1.3,0.4-1.3,1.2
		c-0.6,0.6-0.4,1.6-1,2.2c0.2,0.6-0.4,1.1-0.5,1.6c0,0.6-0.4,1-0.6,1.6c0,0.1-0.1,0.2-0.1,0.2c0.4,0.4-0.2,0.5-0.2,0.8
		s-0.1,0.7-0.2,1c-0.1,0.4-0.4,0.8-0.4,1.2c0,0.5-0.4,0.8-0.5,1.2c0,0.1-0.1,0.2-0.1,0.3c-0.2,1.1-0.9,2.1-1,3.2
		c-0.5,0.6-0.3,1.6-0.9,2.2c0.2,0.6-0.4,1.1-0.5,1.6c0,0.6-0.4,1-0.6,1.6c0,0.1-0.1,0.1-0.1,0.2c0.3,0.4-0.1,0.6-0.2,0.9
		c-0.1,0.3,0,0.7-0.3,1.1c-0.2,0.3-0.4,0.6-0.4,1s-0.4,0.6-0.3,0.9c0,0.6-0.5,1-0.6,1.6c-0.1,0.7-0.7,1.4-0.7,2.2
		c-0.6,0.6-0.3,1.5-0.9,2.1c0,0.6-0.4,1.1-0.5,1.7c-0.1,0.7-0.5,1.3-0.6,2c-0.1,0.4-0.2,1-0.4,1.4c-0.2,0.5-0.2,1-0.5,1.4
		c-0.6,1.1-0.8,2.4-1.4,3.5c-0.1,0.2-0.2,0.4-0.2,0.6c0.1,0.6-0.4,1-0.4,1.6c0,0.5-0.6,0.9-0.5,1.4s-0.7,0.8-0.3,1.4
		c-0.6,0.7-0.5,1.6-0.9,2.4c-0.5,0.9-0.4,1.5,0,2.4c0.2,0.6,0.7,0.8,1.5,0.8c0.2,0.3,0.4-0.1,0.7,0.1c0.2,0.1,0.5-0.1,0.8-0.1
		s0.6,0,1,0c0.1,0,0.2,0,0.2,0c0.4-0.4,0.8-0.1,1.2-0.2s0.8-0.2,1.2-0.2c1-0.1,1.9-0.1,2.9-0.3c0.3-0.1,0.7,0,1-0.1
		c0.9-0.1,1.7-0.4,2.6-0.4c0.2,0,0.4-0.1,0.5-0.1c0.4,0.1,0.7-0.1,1.1-0.1c0.4,0,0.8-0.2,1.2-0.2c1-0.1,2-0.1,3.1-0.3
		c0.2,0,0.3-0.3,0.5,0c0.2-0.3,0.3-0.2,0.5,0c0.2-0.3,0.6-0.3,0.9-0.2c0.4,0.1,0.5-0.6,1-0.1c0.1,0.1,0.5-0.1,0.8-0.1s0.5,0,0.7-0.2
		c0.2,0.4,0.4-0.1,0.7,0c0.3,0,0.7,0,0.9-0.1c0.3-0.3,0.4,0.2,0.7,0.1c1.1-0.4,2.3-0.3,3.4-0.6c0.2,0.3,0.5,0,0.8,0s0.7-0.4,1-0.2
		c0.3,0.3,0.6-0.4,0.9,0.1c0.1-0.2,0.4-0.2,0.6-0.2c0.2,0,0.3-0.4,0.5,0c0,0.1,0.2-0.3,0.4-0.1c0.1,0.1,0.4-0.1,0.6-0.1
		c0.2,0,0.5,0,0.7,0c0.7-0.1,1.4-0.3,2.1-0.4c0.2,0,0.4,0.2,0.6,0.1c0.8-0.4,1.7-0.4,2.6-0.4c0.8,0,1.5-0.2,2.3-0.4
		c0.3-0.1,0.4,0.4,0.7,0.1c0.4-0.4,0.9-0.1,1.4-0.2c0.4-0.1,0.9-0.3,1.3-0.3c1.1,0.1,2.1-0.4,3.1-0.2c0.5-0.4,1.2-0.1,1.7-0.3
		c0.3-0.1,0.5,0.1,0.8-0.1s0.7,0,1.1,0c0.3,0,0.7-0.2,1-0.2c0.9-0.1,1.8-0.2,2.7-0.3c0.2,0,0.3-0.1,0.5-0.2s0.2,0.3,0.6,0.1
		c0.4-0.3,1-0.3,1.5-0.3c0.2,0,0.5,0.2,0.7,0.2c0.9-0.1,1.7-1.2,1.8-2.1C463.1,334.8,463.1,334.4,463.1,334.1z"/>
	<path d="M376.4,371.8c0.3-0.5-0.1-0.6-0.2-0.8c0-0.1,0-0.2,0-0.2c-0.4-0.8-1.1-1.1-1.9-1.1c-1.1,0-2.1,0.5-3.1,0.6
		c-0.5,0-1,0.2-1.6,0.4c-0.3,0.1-0.6,0-0.8,0s-0.4,0.4-0.6,0c-0.3,0.1-0.5,0.2-0.8,0.3c-0.2,0.1-0.5,0.2-0.7,0.2
		c-0.3,0-0.6,0.2-1,0.1c-0.4,0-0.7,0.2-1,0.2c-0.4,0-0.6,0.6-1.1,0.1c-0.1-0.1-0.5,0.5-0.9,0.2c-0.4-0.2-0.7,0.3-1.1,0.2
		c-0.1,0-0.4,0.2-0.6,0.2c-0.7,0.1-1.5,0.2-2.2,0.5c-0.2,0.1-0.5,0.2-0.6,0.2c-0.3-0.4-0.4,0.1-0.6,0.1c-1.1-0.2-2,0.6-3.1,0.6
		c-0.7,0-1.4,0.4-2.1,0.4c-0.3,0-0.6,0.5-1,0c-0.4,0.4-0.4,0-0.3-0.2c0.6-0.9,0.9-1.9,1.6-2.9c0.7-1,1-2.2,1.8-3.2
		c0.3-0.5,0.5-1.1,0.8-1.6c0.3-0.6,0.6-1.1,0.9-1.7c0.3-0.5,0.6-1,0.8-1.6s0.7-1,1-1.5c0.2-0.3,0.4-0.6,0.4-1.1
		c0.5-0.5,0.4-1.4,1.2-1.7c0.3-0.7,0.7-1.4,1-2.1c0.2-0.4,0.4-0.8,0.5-1.2c0.1-0.5-0.1-1.1-0.2-1.6c-0.1-0.4-0.4-0.7-0.8-0.7
		c-0.2-0.6-0.7-0.7-1.2-0.7c-0.4,0-0.7,0-1.4,0.2c-0.1,0-0.2,0-0.4,0c-0.3,0.1-0.6,0.2-0.8,0.3c-0.3,0.1-0.5,0.6-0.6,0.9
		c-0.8,1.7-1.8,3.3-2.6,4.9c-0.2,0.4-0.6,0.7-0.7,1.1c-0.5,1.2-0.9,2.4-1.8,3.4c-0.3,0.3-0.4,0.9-0.6,1.3c-0.2,0.4-0.3,1-0.6,1.3
		c-0.5,0.6-0.7,1.2-1.1,1.8c-0.4,0.6-0.4,1.5-1.2,1.9c-0.2,0.1-0.2,0.4-0.3,0.6c-0.3,0.6-0.6,1.1-0.9,1.8c-0.2-0.7-0.4-1.4-0.7-2
		c-0.7-1.9-1.3-4-2.1-5.9c-0.5-1.3-0.8-2.7-1.3-3.9c-0.4-1-0.8-2.1-1.1-3.1c-0.3-1.1-1.1-2.1-1-3.3c0-0.1-0.1-0.1-0.2-0.2
		c-0.4-1-0.7-2-1-3.1c-0.4-1.2-0.8-2.4-1.2-3.6c-0.1-0.4-0.4-0.8-0.7-1c-0.4-0.3-0.9-0.5-1.5-0.6c-0.3-0.1-0.6-0.1-0.9,0
		c-0.4,0.1-0.8,0.3-1.2,0.4c-0.6,0-0.5,0.6-0.8,0.9c-0.5,0.5-0.6,0.7-0.6,1.3c0,0.4-0.1,0.8,0.1,1.3c0.5,1.7,1.1,3.3,1.7,5
		c0.9,2.3,1.6,4.6,2.4,7c0.9,2.5,1.8,5.1,2.7,7.7c0.1,0.4,0.2,0.8,0.3,1.1c-1.2,0.1-1.9-0.9-3-0.9c-0.2,0-0.4-0.3-0.7-0.4
		s-0.7-0.2-0.8-0.4c-0.2-0.4-0.4,0.1-0.6-0.1c-0.7-0.4-1.4-0.8-2.3-0.9c-0.6-0.1-1.2-0.5-1.9-0.7c-0.7-0.1-1.2-0.6-2-0.7
		c-0.5-0.1-0.9-0.4-1.3-0.7c-0.4-0.2-0.9,0-1.2-0.4c-0.2-0.2-0.4-0.3-0.7-0.3c-0.2-0.1-0.4-0.4-0.6,0c-0.8-0.6-1.8-0.8-2.8-1.2
		c-0.6-0.2-1.1-0.2-1.8-0.1c-0.8,0.2-1.2,0.8-1.6,1.3c-0.3,0.4-0.6,0.9-0.7,1.4c-0.1,0.6-0.2,1.2,0.2,1.8c0.4,0.6,0.9,0.9,1.5,1.2
		c0.2,0.1,0.6,0.1,0.9,0.2c0.5,0.2,0.8,0.7,1.4,0.5c0.8,0.5,1.6,0.8,2.5,1c0.6,0.2,1.2,0.5,1.9,0.7c0.6,0.2,1.2,0.6,1.9,0.7
		c0.3,0,0.7,0.3,1,0.5c0.3,0.1,0.5,0.6,0.9,0.2c0.3,0.2,0.7,0.3,1,0.5c0.3,0.1,0.5,0.6,0.9,0.2c0.9,0.6,1.9,0.9,2.9,1.2
		c0.4,0.1,0.7,0.4,1,0.5s0.7,0.2,1,0.3c0.3,0.1,0.7,0.3,1,0.5c0.1,0,0.1,0.1,0.2,0.1c1.1,0.2,1.4,0.4,1.9,0.9c-0.6,0.4-1.4,0-2,0.5
		l-0.1-0.1c-0.3-0.2-0.6,0.2-0.9,0.1c-0.3-0.1-0.7,0.2-1,0.2s-0.6,0.3-1,0.1c-0.2-0.1-0.6,0.3-0.9,0.4c-1.1,0.2-2.2,0.2-3.2,0.7
		h-0.1c-0.3-0.5-0.5,0.1-0.8,0s-0.6,0-0.9,0.1c-0.4,0.2-1,0.3-1.4,0.3c-0.3,0-0.5,0.5-0.8,0.2s-0.6,0.2-0.8,0.3
		c-0.1,0-0.3,0-0.3,0.1c-0.3,0.3-0.7-0.1-1,0.1c-0.4,0.3-0.8,0-1.1,0.2c-0.7,0.5-1.5,0.3-2.1,0.7c-0.7-0.2-1.4,0.4-2.1,0.3
		c-0.4,0.4-0.9-0.1-1.3,0.2c-0.3,0.2-0.6,0.5-0.9,0.7c-0.2,0.2-0.4,0.6-0.6,0.7c-0.5,0.2,0,0.7-0.3,0.9c-0.1,0.1-0.2,0.2-0.2,0.4
		c0,0.1,0.3,0.2,0.1,0.4c0,0,0.1,0.2,0.1,0.3c0,0.2-0.2,0.4-0.2,0.5c0.2,0.5,0.7,0.9,0.7,1.5c0.6,0.2,1.1,0.7,1.8,0.6
		c0.2,0,0.3-0.4,0.6-0.1c0.3,0.4,0.4-0.2,0.7-0.2c1,0.1,1.9-0.6,2.9-0.6c0.4,0,0.7-0.1,1.1-0.2c0.2,0,0.4-0.2,0.6-0.2
		c0.4,0,0.8,0,1.2-0.1s0.8-0.1,1.1-0.3c0.2-0.1,0.5,0,0.7-0.3c0.2,0.4,0.4,0,0.6,0c0.3,0,0.6,0.1,0.8,0c0.3-0.2,0.5-0.2,0.8-0.2
		c0.2,0.1,0.3-0.4,0.6-0.1c0.1,0.1,0.5-0.1,0.6-0.2c0.3-0.3,0.4,0.2,0.7,0.1c1.2-0.6,2.6-0.7,3.9-0.9c0.8-0.2,1.6-0.3,2.3-0.5
		c0.3-0.1,0.7-0.3,1-0.2c0.3,0,0.6-0.4,0.9,0c0.3-0.4,0.6-0.2,1-0.2c-0.2,0.6-0.5,1.2-0.7,1.7c-0.2,0.6-0.9,0.8-1,1.5
		c-0.1,0.4-0.3,0.7-0.5,1s-0.5,0.6-0.4,0.9c0.1,0.5-0.5,0.4-0.6,0.8c-0.1,0.5-0.5,1-0.7,1.5c-0.9,1.6-1.8,3.2-2.6,5
		c-0.6,0.3,0.2,0.9-0.2,1.3c0,0,0.1,0.2,0.2,0.4c0.3,0.7,0.6,1.4,1.6,1.4c0.1,0,0.2,0.2,0.4,0.2c1.1,0.5,2.2,0.3,2.9-0.6
		c0.4-0.6,0.9-1.1,1.2-1.8c0.2-0.3,0.3-0.7,0.4-1c0.1-0.3,0.3-0.6,0.4-0.9c0.2-0.3,0.4-0.5,0.6-0.8c0.2-0.4,0.5-0.8,0.7-1.2
		c0.2-0.4,0.3-0.9,0.6-1.3c0.2-0.4,0.5-0.6,0.7-1c0.5-1.1,1.2-2.3,1.8-3.5c0.2,0.3,0.4,0.5,0.3,0.6c-0.3,0.4,0,0.8,0.1,1.1
		c0.9,1.9,1.3,3.9,2.1,5.8c0.6,1.5,1.1,3.1,1.6,4.6c0.9,2.6,1.7,5.1,2.7,7.7c-0.1,0.8,0.6,1,1,1.5c0.2,0.2,0.9,0.3,1.6,0.4
		c0.1,0,1.4-0.2,1.5-0.3c0.3-0.2,0.5-0.5,0.8-0.7c0.2-0.2,0.3-0.5,0.5-0.7s-0.1-0.7,0.3-0.8c-0.4-0.1,0.2-0.5-0.2-0.7
		c-0.6-1.9-1.1-3.8-1.9-5.6c-0.1-0.2-0.3-0.6-0.3-0.8c0-1.1-0.7-2-0.8-3c-1-1.8-1.2-3.8-2.1-5.6c-0.3-0.5-0.3-1.1-0.5-1.7
		c-0.2-0.5-0.4-1.1-0.6-1.6c-0.2-0.6-0.4-1.1-0.6-1.7c-0.2-0.5-0.5-1-0.2-1.6c-0.5-0.6-0.5-1.5-1-2.3c0.5,0,1,0,1.4,0.1
		s0.7,0.4,1.1,0.6c0.5-0.4,0.8,0.1,1.1,0.3c0.9,0.5,2,0.4,2.8,1.2h0.1c0.6-0.1,1,0.3,1.5,0.5s1.1,0.2,1.5,0.5c1,0.7,2.2,0.6,3.2,1.4
		h0.1c1-0.1,1.7,0.8,2.7,0.8c0.2,0,0.5,0.2,0.7,0.4c0.2,0.1,0.5,0.1,0.6,0.3c0.2,0.3,0.4,0,0.6,0.1c0.8,0.4,1.5,0.9,2.4,0.9
		c1,0.7,2.3,0.9,3.4,1.4c0.7,0.3,1.4,0.5,2.3,0.2c1.3-0.4,1.7-1.4,2.2-2.4c0.4-0.9,0-1.6-0.3-2.4c-0.1-0.2-0.2-0.2-0.4-0.3
		c-1-0.6-2-1-3-1.4c-0.9-0.3-1.9-0.6-2.7-1.1c-0.9-0.5-1.9-0.5-2.7-1.1c-1.1,0.1-1.8-0.9-2.8-0.9c-0.2,0-0.5-0.2-0.7-0.3
		c-0.2-0.1-0.6-0.2-0.7-0.3c-0.2-0.4-0.4,0.2-0.7-0.1c-0.3-0.3-0.9-0.5-1.3-0.7c0.4-0.1,0.7-0.1,1.1-0.1c0.3-0.1,0.7-0.4,0.9-0.4
		c0.4,0.1,0.7,0,0.8-0.1c0.3-0.2,0.6,0,0.8-0.1c1.1-0.4,2.3-0.6,3.5-0.8c0.9-0.1,1.7-0.3,2.6-0.5c0.4-0.2,0.9-0.2,1.3-0.3
		c0.4-0.1,0.8-0.1,1.2-0.2c0.5-0.1,0.9-0.4,1.4-0.5c0.7-0.1,1.1-0.6,1.3-1.1c0.1-0.2,0.3-0.4,0.4-0.7c0.1-0.3,0.4-0.5,0.1-0.8
		C376.9,372.4,376.3,372,376.4,371.8z"/>
</g>
<g class="st0">
	<path d="M85.8,95.6c0.3-0.1,0.9-0.5,1.8-1.1c1.4-1.1,3.3-1.8,5.7-2.1c0.5,0,1.6,0.8,3.4,2.4c4,3.8,4.8,8.1,2.4,13
		c-1.5,3-2,4.6-1.3,4.8c0.1,0,0.2,0,0.3-0.1c1.5-0.7,2.8-1.2,3.8-1.5c1-0.3,1.8-0.5,2.4-0.5c0.6,0,1.1,0.1,1.3,0.4s0.4,0.7,0.4,1.3
		c0,1.1-0.6,2.1-1.8,3c-1.2,0.9-2.9,1.7-5,2.2c-1.5,0.3-2.5,0.7-3.1,1.1c-0.6,0.4-1.2,0.9-1.7,1.7c-14.4,23-24.5,28.6-30.3,16.8
		c-0.7-1.6-1.2-3.5-1.5-5.7s-0.3-3.9,0.1-4.8c0.8-1.9,1.7-5.7,2.7-11.3c0.5-2.3,1.2-4.4,2.2-6.3c1-2.1,1.5-3.3,1.5-3.6
		c0-0.6,1.6-2.1,4.8-4.6c3.2-2.5,5.5-4.2,7.1-4.9c1.3-0.6,2.2-1,2.6-1c0.5,0,0.9,0.1,1.2,0.5C85.1,95.6,85.5,95.7,85.8,95.6z
		 M83,106.4c-0.6-0.8-0.9-1.7-0.9-2.8c0-1.2-0.2-1.8-0.6-1.8c-0.4,0-1.3,0.5-2.6,1.6c-4,3.1-6.5,5.9-7.5,8.4c-0.9,2-1.9,5.6-3,10.6
		c-1.1,5-1.6,8-1.3,9c0.2,1.1,0.3,2.2,0.3,3.3c0,0.9,0.4,1.7,1.1,2.5c0.7,0.7,1.5,1.1,2.3,1.1c2,0,4.9-1.9,8.8-5.8
		c3.9-3.8,6.9-7.8,9-11.8l1.6-3.2l-2.7-2.6c-1.9-1.8-2.9-3.5-3.2-5C83.9,108.3,83.5,107.1,83,106.4z M95.3,103.3
		c0.3-1.7,0.2-3-0.3-3.8c-0.3-0.4-1-0.6-2.2-0.6c-1.2,0-1.9,0.5-2.3,1.4c-0.2,0.5-0.4,0.8-0.7,1.1c-0.3,0.3-0.5,0.4-0.8,0.4
		c-0.6,0-0.9,0.6-1.1,1.9c-0.1,1.3,0,2.7,0.4,4.3c0.4,1.6,0.9,2.8,1.6,3.6c0.3,0.3,0.5,0.6,0.7,0.7s0.4,0,0.7-0.2
		c0.3-0.3,0.6-0.6,0.9-1.2c0.3-0.5,0.7-1.3,1.3-2.4C94.4,106.8,95,105,95.3,103.3z"/>
	<path d="M134.5,133.7c0.7-0.6,1.4-0.9,1.9-0.8c0.6,0.1,0.8,0.6,0.8,1.6c0,0.3-0.1,0.6-0.2,0.9c-0.1,0.3-0.3,0.6-0.5,0.8
		c-0.2,0.2-0.4,0.4-0.8,0.7c-0.3,0.3-0.6,0.5-0.8,0.6c-0.2,0.1-0.5,0.3-0.9,0.6c-0.4,0.3-0.6,0.4-0.7,0.5c-2.4,1.6-3.6,2.5-3.7,2.6
		c-0.2,0.2-0.7,0.4-1.5,0.7c-0.8,0.2-1.4,0.4-1.8,0.4c-0.6,0.2-1.1,0.3-1.5,0.3c-0.4,0-0.9-0.1-1.5-0.2c-0.6-0.2-1-0.3-1.2-0.4
		c-0.3-0.1-0.5-0.2-0.6-0.3c-0.9-0.4-2.1-1.4-3.7-2.9l-2-1.9l-2.5,1.9c-1.7,1.2-3.6,1.9-5.7,2.2c-1.7,0.2-3.3,0-4.9-0.6
		c-1.5-0.5-2.8-1.5-3.6-2.8s-1.1-2.9-0.8-4.7c0.4-1.9,1.4-4.1,2.9-6.4c1.5-2.3,3.1-4.3,4.8-5.9c1.3-1.2,2.3-1.9,3.1-1.9
		c0.4,0,0.9,0.3,1.5,1c0.4,0.5,0.6,0.9,0.6,1.2c0,0.3-0.3,0.9-0.8,1.9c-4.1,8.1-5.2,12.4-3.2,13.2l0.4,0.1c1.4,0.2,3.3-0.9,5.7-3.4
		c2.4-2.5,4.1-5,5-7.5c0.7-1.7,1.6-3.2,2.6-4.6c0.9-1.2,1.5-1.9,1.9-2c0.4-0.2,1.2,0.1,2.3,0.6c0.9,0.5,1.4,1.1,1.5,1.7
		c0.1,0.6-0.3,1.7-1,3.1c-0.4,0.6-0.7,1.2-0.9,1.9c-0.2,0.7-0.4,1.3-0.6,1.8c-0.1,0.2-0.2,0.5-0.3,0.9c-0.1,0.5-0.2,0.8-0.3,1.1
		c-0.2,0.8-0.4,1.5-0.6,2.1c-0.3,1.4-0.5,2.7-0.5,4s0.2,2.1,0.6,2.5c0.3,0.3,1.1,0.5,2.2,0.6c0.2-0.1,0.6-0.2,1.4-0.5
		s1.2-0.4,1.5-0.6C131,136.2,133,134.9,134.5,133.7z"/>
	<path d="M166.4,132.3c0.7-0.6,1.3-0.9,1.9-0.8c0.6,0.1,0.8,0.6,0.9,1.6c0,0.3,0,0.5-0.1,0.8c-0.1,0.3-0.2,0.5-0.4,0.7
		c-0.2,0.2-0.4,0.4-0.6,0.6c-0.2,0.2-0.4,0.4-0.7,0.6s-0.5,0.4-0.7,0.5c-0.2,0.1-0.4,0.3-0.7,0.5c-0.3,0.2-0.5,0.3-0.6,0.4
		c-0.8,0.5-1.6,1-2.5,1.3c-0.1,0-0.2,0.1-0.3,0.2c-0.1,0.2-0.2,0.3-0.4,0.4c-0.2,0.1-0.5,0.2-0.9,0.3c-0.8,0.4-1.9,0.7-3.4,0.9
		c-1.5,0.2-2.9,0.2-4.1,0.1s-2-0.2-2.4-0.4c-0.3-0.2-0.6-0.6-1-1.3s-0.7-1.3-1-1.9c-0.3-0.6-0.4-1.1-0.5-1.5c-0.2-1-0.3-2-0.3-3.1
		c0.1-1.1,0.3-2.9,0.6-5.3v-0.7c0-0.2-0.1-0.3-0.2-0.4c-0.1-0.1-0.3-0.1-0.5-0.2c-0.2,0-0.5,0-0.8,0c-0.4,0-0.9-0.1-1.4-0.2
		s-1-0.3-1.5-0.4c-0.5-0.1-0.9-0.2-1.3-0.2c0,0-0.1,0.5-0.4,1.6c-0.3,1.1-0.6,2.2-1,3.3c-0.4,1.2-0.8,1.9-1.1,2.1
		c-1.2,0.7-2.5,1.2-3.8,1.5c-1.7,0.4-1-3.4,2.4-11.4c0.1-0.2,0.2-0.6,0.5-1.3c0.3-0.6,0.5-1.1,0.6-1.3c0.1-0.3,0.3-0.7,0.5-1.2
		c0.2-0.6,0.4-1,0.5-1.4c0.1-0.4,0.2-0.8,0.3-1.3c0.1-0.5,0.2-1,0.3-1.4c0.1-0.5,0.1-0.9,0.1-1.4c0-0.5,0.3-1.5,1-2.9
		c0.7-1.4,1.2-2.2,1.6-2.5c0.5-0.3,1.3-0.4,2.2-0.3c0.9,0.1,1.5,0.3,1.8,0.6c0.4,0.5,0.4,2.4,0,5.8c-0.3,2.2-0.4,3.6-0.4,4.3
		c0,0.7,0.2,1.2,0.6,1.6c0.4,0.3,0.8,0.5,1.1,0.5c0.3,0,0.9-0.3,1.7-0.8c1.2-0.7,2.1-1,2.7-1c0.6,0,1.1,0.4,1.5,1.2
		c0.4,0.5,0.5,1,0.5,1.5c0,0.4-0.3,1.3-0.8,2.5c-0.7,1.8-1.3,3.8-1.8,6.1c-0.4,1.8-0.5,3.1-0.4,4c0.2,0.9,0.7,1.9,1.6,3.1
		c0.4,0.6,0.7,0.9,1,1c0.1,0,0.3,0,0.5-0.1c0.3-0.1,0.5-0.2,0.8-0.3c0.3-0.1,0.5-0.2,0.6-0.2c1-0.3,1.7-0.5,2.1-0.7
		C162.9,134.7,164.9,133.5,166.4,132.3z"/>
</g>
<g class="st0">
	<path d="M215.4,131c0.7-0.6,1.4-0.9,1.9-0.8c0.6,0.1,0.8,0.7,0.8,1.6c0,0.2,0,0.4-0.1,0.7c-0.1,0.2-0.2,0.4-0.3,0.6
		c-0.1,0.2-0.3,0.4-0.5,0.6c-0.2,0.2-0.4,0.4-0.6,0.5c-0.2,0.2-0.4,0.3-0.6,0.5c-0.2,0.2-0.4,0.3-0.6,0.4c-0.2,0.1-0.4,0.3-0.6,0.4
		c-0.2,0.2-0.4,0.3-0.5,0.4c-0.8,0.5-1.6,1-2.5,1.4c-0.1,0-0.2,0.1-0.5,0.3c-0.9,0.9-1.7,1.6-2.4,1.9c-0.7,0.3-1.6,0.4-2.7,0.5
		c-1.1,0.3-1.9,0.3-2.4-0.1c-0.1,0-0.5,0-1.2-0.1c-0.7-0.1-1.1-0.1-1.3-0.1c-0.2,0-0.6,0-1.1,0s-0.9,0-1.3,0.2
		c-0.4,0.1-0.7,0.2-1,0.4c-0.4,0.3-1,0.4-1.7,0.4s-1.8-0.2-3.5-0.4c-1.2-0.2-2.2-0.3-3-0.4c-0.2,0-0.4,0-0.6,0c-0.2,0-0.4,0-0.7,0
		c-0.2,0-0.4-0.1-0.6-0.2c-0.4-0.2-0.8-1.1-1.4-2.7c-0.3-0.9-0.5-1.8-0.6-2.8c-0.1-0.4-0.1-0.7,0-1c0.2-0.8,0.4-1.4,0.8-1.6
		c0.1-0.1,0.4-0.1,0.8-0.2c0.4-0.1,0.6-0.2,0.8-0.4c0.3-0.2,0.6-0.6,0.8-1.2c0.2-0.6,0.3-1.2,0.4-1.8c0-0.5,0.1-0.9,0.2-1.1
		c0.1-0.2,0.4-0.4,0.8-0.7s0.6-0.4,0.6-0.4c0.4-0.3,0.8-0.8,1.1-1.4c0.1-0.3,0.4-1.2,0.8-2.8c0.4-1.2,0.7-2.5,0.9-3.8
		c0.2-1.3,0.4-2.4,0.5-3.3c0.2-2.1,0.4-3.3,0.7-3.7c0.3-0.4,0.8-0.5,1.6-0.5c0.8,0,1.5,0.2,2,0.7c0.3,0.2,0.5,0.4,0.7,0.8
		c0.2,0.4,0.4,0.7,0.5,1s0.2,0.7,0.4,1.3c0.2,0.5,0.3,0.9,0.3,1.1c0.6,1.8,1,3.5,1.3,5c0.1,0.6,0.2,1.5,0.4,2.6
		c0.1,1.2,0.3,2.2,0.5,3.1c0.2,0.9,0.4,1.8,0.7,2.6c0.5,1.5,0.7,2.8,0.6,4c-0.1,0.7-0.2,1.4-0.2,2.1c0,0.6,0.2,1.2,0.6,1.6
		c0.4,0.4,1.1,0.6,1.9,0.5c0.4,0,0.7-0.1,1.1-0.3c0.4-0.1,0.7-0.3,0.9-0.4c0.3-0.1,0.6-0.4,1-0.7c0.4-0.3,0.6-0.5,0.8-0.6
		c0.1-0.1,0.4-0.4,0.9-0.8c0.5-0.5,1.3-1.1,2.3-1.8S215.3,131.1,215.4,131z M199.8,132.1c0.3-1.2,0-3-0.9-5.6
		c-0.8-2.4-1.4-3.7-1.6-3.7c-0.2,0-0.4,0.5-0.6,1.4c-0.2,0.9-0.5,1.5-0.8,1.9c-0.4,0.6-1,1.8-1.9,3.6c-0.9,1.9-1.2,2.9-1.1,3.1
		c0.2,0.2,0.5,0.5,1,0.8s1,0.5,1.6,0.6c0.6,0.1,1.1,0.2,1.5,0.1C198.6,134,199.5,133.3,199.8,132.1z"/>
	<path d="M243.9,133.2c0.7-0.6,1.4-0.8,1.9-0.7c0.6,0.1,0.8,0.6,0.8,1.6c0,0.3-0.1,0.6-0.2,0.9c-0.1,0.3-0.3,0.6-0.5,0.8
		c-0.2,0.2-0.4,0.5-0.8,0.8c-0.3,0.3-0.6,0.5-0.8,0.6c-0.2,0.1-0.5,0.3-0.9,0.6s-0.6,0.4-0.7,0.5c-0.8,0.5-1.6,1-2.5,1.3
		c-0.6,0.3-1.8,0.6-3.5,1c-1.7,0.3-3,0.5-4,0.5c-0.8,0-1.9-0.3-3.4-0.8s-2.7-1.1-3.7-1.5c-1-0.5-1.5-0.7-1.5-0.6H224
		c-0.2,0-0.5,0-0.8-0.1c-0.3,0-0.7,0.1-1.2,0.5c-0.5,0.4-1.1,0.9-1.7,1.6c-0.8,1-1.6,2.5-2.3,4.2s-1.1,2.9-1.4,3.4
		c-0.3,0.7-0.7,1.4-1,2.3c-0.4,0.9-0.7,1.6-1,2.2c-0.3,0.6-0.8,1.2-1.4,1.9c-0.5,0.6-0.9,1-1.2,1.1c-0.3,0.1-0.8,0.1-1.4-0.2
		c-0.8-0.3-1.4-1.1-1.7-2.3c-0.4-1.3-0.4-2.4-0.2-3.3c0.1-0.6,0.5-1.3,1.2-2.3c0.7-1,1.1-1.6,1.2-2.1c0.2-0.5,0.4-1.3,0.7-2.4
		c0.2-1.1,0.4-1.8,0.6-2.3c0.2-0.7,0.7-1.7,1.3-3c0.6-1.3,1.1-2.3,1.3-2.9c0.3-0.9,0.6-2.1,0.7-3.5c0.2-1.4,0.3-2.7,0.6-3.9
		c0.2-1.2,0.6-2.3,1.2-3.3c0.1-0.1,0.2-0.3,0.3-0.6s0.3-0.5,0.4-0.7c0.1-0.2,0.3-0.5,0.4-0.8c0.2-0.3,0.3-0.5,0.5-0.8
		c0.2-0.2,0.3-0.5,0.5-0.7c0.2-0.3,0.4-0.5,0.6-0.7c0.2-0.2,0.4-0.4,0.6-0.6c0.2-0.2,0.4-0.3,0.6-0.5c0.2-0.1,0.4-0.2,0.6-0.3
		c1.2-0.3,2.1-0.1,2.6,0.7c0.5,0.8,0.5,1.7-0.1,2.6c-0.9,1.4-1.1,2.1-0.6,2c0.5-0.2,1.3-0.8,2.5-2c1.3-1.3,2.6-2.4,3.8-3.1
		c1.2-0.7,2.5-1.2,4.1-1.5c1.5-0.3,2.2-0.5,2.3-0.6c0.1,0,0.3,0.1,0.4,0.3s0.3,0.5,0.4,0.9c0.1,0.4,0.2,0.8,0.3,1.3
		c0.1,0.5,0.1,1,0.2,1.5c0.1,0.5,0.1,1,0.1,1.5c0,4.7-0.7,7.7-2,9.1c-0.8,0.8-1.4,1.6-1.9,2.4c-0.1,0.3-0.3,0.5-0.5,0.6
		c-0.2,0.1-0.3,0.1-0.5,0.1s-0.3,0-0.5,0.1s-0.4,0.2-0.6,0.5c-0.5,0.5-1,0.8-1.5,0.8c-0.4,0-1,0.3-1.7,0.7c-0.7,0.4-1,0.8-1,1
		c0,0.1,0.2,0.2,0.5,0.4c0.4,0.2,0.8,0.3,1.3,0.5c0.5,0.2,1,0.3,1.6,0.4c0.5,0.1,1,0.2,1.4,0.2c0.6,0,1.3-0.1,2.1-0.3
		c0.3-0.1,0.7-0.3,1.1-0.4c0.4-0.2,0.8-0.3,1.2-0.4c0.4-0.1,0.7-0.3,0.9-0.4C240.4,135.6,242.4,134.4,243.9,133.2z M224.9,132.9
		c0.5,0.6,0.9,0.9,1.4,0.9c0.8,0,2-0.7,3.6-2.1c1.6-1.4,2.6-2.6,3-3.5c0.4-1.1,0.7-2.2,0.7-3.5c0.1-1.3-0.1-2.3-0.5-3
		c-0.4-0.7-0.8-1-1.2-0.9c-0.4,0.1-1.2,0.8-2.6,2.1c-1.3,1.1-2.5,2.6-3.5,4.3c-1.1,1.7-1.6,3-1.6,3.8
		C224.2,131.7,224.4,132.3,224.9,132.9z"/>
	<path d="M274.8,134.3c0.6-0.5,1.2-0.7,1.6-0.6c0.5,0.1,0.7,0.5,0.7,1.3c0,0.2,0,0.3-0.1,0.5c-0.1,0.2-0.1,0.4-0.2,0.5
		c-0.1,0.2-0.2,0.3-0.4,0.5c-0.2,0.2-0.3,0.3-0.5,0.5s-0.3,0.3-0.5,0.4c-0.2,0.2-0.4,0.3-0.5,0.4c-0.1,0.1-0.3,0.2-0.5,0.3
		c-0.2,0.1-0.4,0.2-0.5,0.3c-0.6,0.4-1.3,0.8-2,1.1c-0.1,0-0.5,0.2-1.2,0.6l-0.3,0.3c-0.9,0.9-2.2,1.4-3.9,1.6
		c-1.1,0.1-1.9,0.1-2.5,0s-1.4-0.4-2.4-0.9c-1.5-0.7-2.6-1.3-3.1-1.8c-0.3-0.3-0.6-0.4-0.9-0.4s-0.7,0.3-1.3,0.8
		c-2,1.5-4.5,2.3-7.3,2.5c-2.8,0.2-4.7-0.4-5.5-1.7c-0.5-0.8-0.8-2.5-0.7-4.9c0.1-2.4,0.4-4.1,0.9-5.2c0.5-0.9,0.9-1.6,1.2-2
		c0.3-0.4,0.6-0.8,0.9-1.2c0.3-0.4,0.7-1,1.4-1.8c2.1-2.6,3.8-4.4,5-5.4c0.9-0.7,2-1.4,3.3-1.9c1.3-0.5,2.6-0.9,4-1
		c1.4-0.2,2.6,0,3.7,0.6c1.3,0.7,2.1,1.8,2.4,3.4c0.3,1.6,0.3,3.2-0.1,4.7c-0.4,1.5-0.9,3-1.6,4.3c-0.6,1.3-1,2.7-1.3,4.2
		c-0.3,1.5-0.3,2.5,0,3c0.6,1.3,2.7,1.4,6.3,0.3c0.1,0,0.3-0.1,0.4-0.1c0.2-0.1,0.4-0.1,0.5-0.2
		C271.9,136.3,273.6,135.3,274.8,134.3z M259.6,124.9c0.4-0.2,0.6-0.4,0.6-0.5c0-0.1-0.1-0.3-0.3-0.5c-0.4-0.4-1-0.7-1.7-0.9
		c-0.7-0.1-1.5-0.1-2.2,0.1c-0.7,0.2-1.8,0.8-3.2,2c-1.4,1.2-2.4,2.2-2.9,3c-0.7,1-1.2,1.8-1.7,2.6c-0.6,0.8-1,2-1.2,3.5
		c-0.2,1.5-0.1,2.5,0.3,3c0.3,0.4,1.1,0.6,2.2,0.6c1.1,0,2.2-0.2,3.2-0.6c1-0.5,1.7-1.2,2.2-2.1c0.8-1.6,1.5-2.8,2-3.8
		c0.9-1.5,1.3-2.5,1.3-3.1c0-0.3,0.1-0.7,0.4-1c0.3-0.4,0.4-0.7,0.2-1.1C258.7,125.7,259,125.2,259.6,124.9z"/>
	<path d="M301.1,134.3c0.7-0.6,1.4-0.9,1.9-0.8c0.5,0.1,0.8,0.6,0.9,1.6c0,0.2,0,0.5-0.1,0.7s-0.2,0.5-0.4,0.7
		c-0.2,0.2-0.4,0.4-0.5,0.6c-0.2,0.2-0.4,0.4-0.7,0.6c-0.3,0.2-0.5,0.4-0.7,0.5c-0.2,0.1-0.4,0.3-0.7,0.5c-0.3,0.2-0.5,0.3-0.6,0.4
		c-0.8,0.5-1.6,1-2.5,1.4c-0.5,0.2-1.4,0.6-2.7,1c-1.3,0.4-2.9,0.9-4.9,1.4c-2,0.5-3.9,0.7-5.8,0.6s-3.3-0.6-4.2-1.6
		c-0.4-0.4-0.8-0.9-1.3-1.6c-0.5-0.7-0.9-1.4-1.2-2.1c-0.4-0.7-0.6-1.2-0.8-1.7c-0.4-1.2-0.6-2.8-0.6-4.9c0.3-6.3,3-11.7,8.1-16.3
		c1.2-1,2.1-1.6,2.7-1.8c0.6-0.2,1.6-0.3,3.2-0.3c2.9,0,5.1,0.6,6.6,1.9c1.5,1.3,2.1,2.9,1.7,5c-0.2,1-0.5,1.7-0.7,1.9
		c-0.2,0.3-0.7,0.4-1.5,0.5c-1,0.1-2-0.1-2.9-0.6c-0.9-0.5-1.3-1.1-1.1-1.7c0.2-0.5,0.1-1-0.3-1.5c-0.4-0.5-0.9-0.8-1.5-0.8
		c-1.1,0-2.8,1.2-5,3.5c-2.3,2.3-3.4,4.1-3.4,5.2c0,0.4-0.2,1.1-0.7,1.9c-0.5,0.7-0.7,2-0.7,3.8c0.1,1.8,0.4,3,0.9,3.8
		c0.8,1.2,2.1,2,4,2.5c1.9,0.5,3.6,0.5,5.2,0.2c0.8-0.1,1.7-0.4,2.7-0.8c1.8-0.7,3.4-1.6,4.9-2.8c1.1-0.8,1.9-1.2,2.4-1
		c0,0,0.1,0,0.2-0.1S301,134.3,301.1,134.3z"/>
	<path d="M325.1,134.8c0.7-0.6,1.4-0.8,1.9-0.7c0.6,0.1,0.8,0.6,0.8,1.6c0,0.3,0,0.6-0.2,0.9s-0.3,0.6-0.5,0.8
		c-0.2,0.2-0.4,0.5-0.7,0.7c-0.3,0.3-0.6,0.5-0.8,0.6c-0.2,0.1-0.5,0.3-0.9,0.6s-0.6,0.4-0.7,0.5c-0.8,0.5-1.6,1-2.5,1.4
		c-0.1,0-0.2,0.1-0.3,0.1c-0.1,0.1-0.2,0.1-0.4,0.2s-0.3,0.1-0.4,0.2s-0.2,0.1-0.3,0.1l-0.1,0.1c-2,0.8-4.2,1.3-6.6,1.5
		c-2.4,0.1-4.2-0.1-5.3-0.7c-0.1-0.1-0.7-0.3-1.6-0.7c-0.9-0.4-1.6-0.8-2-1.1c-0.8-0.5-1.5-1.6-2.2-3.3c-1.3-3-2-5.7-2-8
		c0-1.4,0.3-3.2,0.8-5.5c0-0.1,0.1-0.4,0.2-0.9c0.1-0.4,0.2-0.8,0.2-1c0.1-0.2,0.2-0.5,0.3-0.9c0.1-0.4,0.2-0.7,0.3-1
		c0.1-0.3,0.2-0.5,0.4-0.8c0.1-0.3,0.3-0.5,0.4-0.8c0.7-1,1.3-1.7,1.7-2.1c1.8-1.9,4.1-2.7,6.9-2.5c2.9,0.2,4.4,1.2,4.7,2.9
		c0.2,1.3,0.1,2.7-0.2,4c-0.4,1.4-0.8,2.5-1.3,3.4s-1.2,2.1-2.2,3.5c-0.9,1.4-1.6,2.5-2,3.3c-1.5,2.8-2.2,4.4-2.2,5
		c0,0.4,0.4,1.1,1.3,1.9c0.5,0.5,1,0.8,1.4,0.9s1.2,0.1,2.3-0.2c1.7-0.2,3.6-0.7,5.7-1.3c0.8-0.3,1.9-0.7,3.4-1.4
		S324.8,135.1,325.1,134.8z M305.6,131.3c0.3,0,1.1-1.3,2.5-3.9c1.3-2.6,2-4.2,2-4.7c0-0.6-0.3-1-1-1.2c-0.7-0.2-1.2,0-1.6,0.5
		c-0.3,0.4-0.7,1-1,1.8c-0.3,0.8-0.6,1.6-0.8,2.5c-0.2,0.8-0.3,1.6-0.5,2.4c-0.1,0.8-0.2,1.4-0.1,1.9
		C305.2,131,305.3,131.3,305.6,131.3z"/>
	<path d="M350,131c0.7-0.6,1.4-0.9,1.9-0.8c0.6,0.1,0.8,0.7,0.8,1.6c0,0.2,0,0.4-0.1,0.7c-0.1,0.2-0.2,0.4-0.3,0.6
		c-0.1,0.2-0.3,0.4-0.5,0.6c-0.2,0.2-0.4,0.4-0.6,0.5c-0.2,0.2-0.4,0.3-0.6,0.5c-0.2,0.2-0.4,0.3-0.6,0.4c-0.2,0.1-0.4,0.3-0.6,0.4
		c-0.2,0.2-0.4,0.3-0.5,0.4c-0.8,0.5-1.6,1-2.5,1.4c-0.1,0-0.2,0.1-0.5,0.3c-0.9,0.9-1.7,1.6-2.4,1.9c-0.7,0.3-1.6,0.4-2.7,0.5
		c-1.1,0.3-1.9,0.3-2.4-0.1c-0.1,0-0.5,0-1.2-0.1c-0.7-0.1-1.1-0.1-1.3-0.1c-0.2,0-0.6,0-1.1,0s-0.9,0-1.3,0.2
		c-0.4,0.1-0.7,0.2-1,0.4c-0.4,0.3-1,0.4-1.7,0.4s-1.8-0.2-3.5-0.4c-1.2-0.2-2.2-0.3-3-0.4c-0.2,0-0.4,0-0.6,0c-0.2,0-0.4,0-0.7,0
		c-0.2,0-0.4-0.1-0.6-0.2c-0.4-0.2-0.8-1.1-1.4-2.7c-0.3-0.9-0.5-1.8-0.6-2.8c-0.1-0.4-0.1-0.7,0-1c0.2-0.8,0.4-1.4,0.8-1.6
		c0.1-0.1,0.4-0.1,0.8-0.2c0.4-0.1,0.6-0.2,0.8-0.4c0.3-0.2,0.6-0.6,0.8-1.2c0.2-0.6,0.3-1.2,0.4-1.8c0-0.5,0.1-0.9,0.2-1.1
		c0.1-0.2,0.4-0.4,0.8-0.7s0.6-0.4,0.6-0.4c0.4-0.3,0.8-0.8,1.1-1.4c0.1-0.3,0.4-1.2,0.8-2.8c0.4-1.2,0.7-2.5,0.9-3.8
		c0.2-1.3,0.4-2.4,0.5-3.3c0.2-2.1,0.4-3.3,0.7-3.7c0.3-0.4,0.8-0.5,1.6-0.5c0.8,0,1.5,0.2,2,0.7c0.3,0.2,0.5,0.4,0.7,0.8
		c0.2,0.4,0.4,0.7,0.5,1s0.2,0.7,0.4,1.3c0.2,0.5,0.3,0.9,0.3,1.1c0.6,1.8,1,3.5,1.3,5c0.1,0.6,0.2,1.5,0.4,2.6
		c0.1,1.2,0.3,2.2,0.5,3.1c0.2,0.9,0.4,1.8,0.7,2.6c0.5,1.5,0.7,2.8,0.6,4c-0.1,0.7-0.2,1.4-0.2,2.1c0,0.6,0.2,1.2,0.6,1.6
		c0.4,0.4,1.1,0.6,1.9,0.5c0.4,0,0.7-0.1,1.1-0.3c0.4-0.1,0.7-0.3,0.9-0.4c0.3-0.1,0.6-0.4,1-0.7c0.4-0.3,0.6-0.5,0.8-0.6
		c0.1-0.1,0.4-0.4,0.9-0.8c0.5-0.5,1.3-1.1,2.3-1.8S349.8,131.1,350,131z M334.3,132.1c0.3-1.2,0-3-0.9-5.6
		c-0.8-2.4-1.4-3.7-1.6-3.7c-0.2,0-0.4,0.5-0.6,1.4c-0.2,0.9-0.5,1.5-0.8,1.9c-0.4,0.6-1,1.8-1.9,3.6c-0.9,1.9-1.2,2.9-1.1,3.1
		c0.2,0.2,0.5,0.5,1,0.8s1,0.5,1.6,0.6c0.6,0.1,1.1,0.2,1.5,0.1C333.1,134,334,133.3,334.3,132.1z"/>
</g>
</svg>
