<?xml version="1.0" encoding="utf-8"?>
<!-- Generator: Adobe Illustrator 25.2.3, SVG Export Plug-In . SVG Version: 6.00 Build 0)  -->
<svg version="1.1" id="Capa_1" xmlns="http://www.w3.org/2000/svg" xmlns:xlink="http://www.w3.org/1999/xlink" x="0px" y="0px"
	 viewBox="0 0 850.4 1198.4" style="enable-background:new 0 0 850.4 1198.4;" xml:space="preserve">
<style type="text/css">
	.st0{display:none;}
	.st1{fill:#DAB913;}
	.st2{fill:#D7B300;}
</style>
<g id="Capa_2_1_" class="st0">
</g>
<path class="st1" d="M747.8,914.4c-4.6,0.7-6-1.8-7.8-5c-2.4-4.2-2.2-9-4.2-13.2c-0.8-1.6-1.2-3.5-1.5-5.3c-0.3-1.9-0.3-3.5-1.3-5.5
	c-2.1-3.8-3.2-8.1-4.7-12.3c-0.2-0.4,0-1.1-0.3-1.4c-5.6-5.3-5.6-13.2-8.4-19.7c-1.4-3.2-2.9-6.3-4.2-9.5c-0.8-1.9-2-4-1.9-5.9
	c0.2-3.5-0.6-6.2-3.4-8.4c-0.7-0.5-0.9-1.6-1.2-2.4c-2.6-5.7-4.6-11.7-8-16.8c-2.4-3.6-4-7.5-5.3-11.3c-1.8-5.6-5.9-10-6.8-15.9
	c-0.1-0.8-1.7-1.4-3.2-2.5c-0.8,3-1.4,4.9,0.4,7.3c1.7,2.3,2.1,5.2,1.9,8.2c-0.2,4.5,0,9-0.1,13.5c0,1.6-0.4,3.3-0.9,4.9
	c-0.7,2.2-0.7,2.2,1.8,6.1c0.5,0.7,0.5,1.8,0.6,2.7c0.3,9,1.3,18,1.9,27c0.4,7.1,1,14.6,3.9,21.5c0.5,1.3,0.2,2.9,0.2,4.4
	c0,5.7,0.1,11.5,0,17.2c-0.1,2.3,1,5-1.3,6.9c-0.3,0.2-0.3,1.2-0.1,1.4c3.6,3.5,0.4,5.6-1.9,8.1c1.2,1.9,2.5,3.9,3.7,5.9
	c0.5,0.8,1,1.6,1.1,2.5c0.4,4.3-1,8.8,1.5,12.8c-2.6,4.3,1.1,8.6,0.1,13c-0.4,1.9,1.1,4,1.3,6.1c0.4,3.6-1.1,4.9-4.7,4.8
	c-3.6-0.1-8.4-5.2-7.1-8.5c2.1-5.3,1.3-10.6,1.2-15.9c-0.1-6-0.1-12.3-1.6-18c-2.1-7.8-0.6-15.6-1.3-23.4c-0.4-5,0.6-10-1.2-15.2
	c-1.6-4.6,0.2-9.9-1.4-15.1c-1.4-4.3-0.2-9.4-0.3-14.1c-0.2-5.5-1.1-10.8-2.7-16.1c-0.1-0.4-0.2-0.9-0.2-1.4c-0.5-8-1.3-16-1.3-24.1
	c0-3.1-1.9-5.5-1.6-8.4c0.3-2.8-1.1-5-2.4-7.9c-1.3,3.5-2.5,6.7-3.6,9.9c-0.3,0.9-0.4,1.9-0.9,2.6c-2.7,4.1-3.9,8.9-6.7,12.9
	c-2.7,3.9-4.4,8.4-5.3,12.8c-1.5,7.4-5.9,13.7-6.6,21.2c-2.1,1.3-1.5,3.5-1.5,5.4c0,2.2,0.2,4.5-2.1,5.9c-0.4,0.2-0.9,0.8-0.8,1.1
	c1.5,4.5-4.6,7-3,11.5c-6.2,5.6-6.2,13.9-8.8,21.1c-3.1,8.5-5.3,17.2-9.8,25.9c4.3,0.3,7.7,0.7,11.6-0.6c3.3-1.2,7.3-0.5,11-0.4
	c2.6,0.1,5,0,6.5-2.5c1.6-2.7,4.2-2.1,6.4-2.1c4.1,4.9,3.8,10.6,4.1,16.4c0.2,4.6,0.9,9.4,2.4,13.9c0.6,1.8,0.4,3.9,0.4,5.8
	c0,18.7,0.1,37.4,0,56.1c0,5.3,1.3,10.3,3.5,15c0.8,1.7,1.7,3.4,0.5,4.5c-1.9,1.9,0.1,6-4.5,6.6c-2.5,0.3-4.7,3.1-6.9,4.9
	c-4.3,3.6-8.4,7.4-12.6,11.1c-3.2-0.4-2.3,3.1-4.1,4.2c-6.9,4.4-11.8,11.3-19.1,15.4c-1,0.6-2.6,1.1-2.8,2c-0.7,2.8-2.1,4.2-5.1,4.1
	c-0.7,0-1.6,1-2.3,1.6c-8.1,8.2-17.9,14.4-27.1,21.2c-4,2.9-7.2,6.9-10.6,10.5c-6.7,6.9-14.4,12.6-22.7,17.4
	c-8.1,4.7-15.6,10.3-22.1,17c-3.9,4-8.9,4.4-13.6,5.2c-4.9,0.9-10.1,0.1-15.1,1.5c-2.4,0.7-5.9,1.6-8.3-1.2c-0.2-0.2-1-0.2-1.4,0
	c-5.9,2.6-12.1,1.2-18.1,1.4c-6.2,0.2-12.5-0.1-18.7,0.1c-2.6,0.1-5.1,1.1-7.6,1.4c-2.4,0.3-4.9-0.5-6.9,1.5c-0.2,0.2-1,0.2-1.5,0
	c-8.9-3.2-18.1-0.8-27.1-1.4c-6.6-0.5-12.9,2.6-19.6,1.5c-2.3-0.4-4.9,1-7-1.4c-0.5-0.6-2.7-0.6-3.6,0c-3.9,2.5-8.1,1.1-12.2,1.4
	c-7.8,0.5-15.5,2.4-23.3,1.5c-4.8,2.6-10.1,1.1-15.1,1.5c-3.1,0.2-6.1-0.3-9.2,1.4c-2.4,1.3-5.7-1-8.4,1.5c-0.8,0.8-2.9,0.2-4.4,0.2
	c-6,0-12-0.1-18,0c-4.3,0.1-8.6-0.4-12.9,1.2c-2.6,0.9-6.1,0.9-9.3-0.6c-1.7-0.8-4.4,0.7-6.6,0.8c-2.2,0.1-4.3-0.6-6.5-0.6
	c-2.4,0-4.8,0.5-7.2,0.6c-2.5,0.1-5,0-7.5,0c-8.5,0-17,0-25.4,0c-3,0-6-0.2-9,0.1c-2.8,0.3-5.5,1.1-8.4,1.8
	c-1.7-3.9-4.2-7.4-0.9-11.5c0.4-0.5,0.1-1.4,0.1-2.2c0-9.9,0-19.8,0-29.6c-1.9,0.4-3.4,1.1-4.9,1c-5.5-0.3-11.1,0.7-16.7-1.2
	c-3.3-1.2-7.4-0.2-11.2-0.2c-3.3-0.1-4.4-1.2-4.7-4.1c-0.5-5.8-1.2-11.6-1.4-17.3c-0.3-6-0.2-12,0-18c0.2-5.9-2.7-11.4-1.5-17.3
	c0.4-2.3-1-4.9,1.4-7c0.5-0.4-0.2-2.3-0.5-3.4c-0.2-0.7-1-1.5-0.9-1.8c2.8-4.3,1.1-9.1,1.4-13.6c0.3-4.5,0.1-9,0.1-13.5
	c0-0.2,0.1-0.4,0.1-0.4c1.4-0.9,2.7-1.5,3.7-2.4c3.6-3.5,7-7.1,10.6-10.5c2.4-2.3,4.4-5.1,7.8-6.5c4.1-1.6,4.1-7.6,8.9-8.9
	c0.3-0.1,0.3-1.8,0.3-2.8c0-4.7,0-9.5,0-14.2c-0.1-9.1,2.3-17.6,5.3-26.2c1.3-3.7,3-7.3,3.8-11.2c0.3-1.3,0.6-3,1.5-3.8
	c2.4-2,2.6-5,4-7.4s2.7-4.9,4.3-7.2c1.6-2.4,3.5-4.5,5.1-6.9c2.9-4.3,5.8-8.6,8.6-12.9c1.4-2.1,2-5.3,3.9-6.5c2.2-1.4,3-3.1,4.1-5.1
	c0.4-0.8,0.9-1.7,1.6-2.3c2.6-2.2,3.9-5.2,5.4-8.2c2.1-4.4,5.1-8.4,7.8-12.5c3.6-5.3,7.7-10.2,11-15.7c4.7-7.6,11.6-13.7,14.9-22.3
	c4.2-3.1,6.2-7.8,9-12c2.6-3.9,4.8-8,7.5-11.8c1.4-2,3.4-3.6,5.3-5.3c0.7-0.6,1.8-1.3,2.4-1.2c3.1,0.7,5.6-1.2,8.4-1.7
	c2.7-0.4,5.2-1.8,7.9-2.4c3.7-0.8,7.5-1.8,11.2-1.8c3.1,0,5.3-1.4,8.5-2.2c-4.5-1.6-8.5-1.9-12.5-2.7c-5.5-1-11.2-1.1-16.6-3.2
	c-4.5-1.7-9.1-3.4-13.7-4.9c-1.6-0.5-3.3-0.6-5-0.6c-3.1,0.1-5.7-1.1-7.6-3.2c-5.4-5.8-9.5-12.5-9.5-20.7c0-8.8,0.2-17.7,1.6-26.3
	c1.2-7.3,4-14.4,9.4-20c6.3-6.4,12.5-12.9,19.1-19c4.6-4.2,9.7-7.5,16.7-6.8c6.2,0.6,12.5,0.2,18.7,0.1c6.1,0,11.9,2.6,18.1,1.5
	c2.8-0.5,5.9,1.3,8.5-1.4c0.3-0.3,1.9,1.1,3,1.3c3.1,0.6,6.1-0.3,9-1.3c2.5,2.6,5.9,1.8,8.3,1.1c2.7-0.8,4.6-1.5,7.2,0.2
	c1,0.7,2.9,0.1,4.4,0.1c9.5,0,19-0.1,28.4,0.1c2.3,0,4.9-1,7,1.3c0.4,0.5,2.3-0.2,3.4-0.4s2.2-0.8,3.3-0.9c2.7-0.3,5.1,0.7,7.7,1.3
	c2.1,0.5,4.9-1.8,6.7-1.1c6.5,2.5,13.2,0.6,19.7,1.4c2.1,0.2,4.8,2,6,1.3c3.3-2.2,6.1-0.3,8.5,0.6c1.9,0.7,3.6,1.1,5.5,1.1
	c8,0.1,16-0.1,24,0.1c2.1,0,4.5-1,6.3,1.2c0.2,0.3,1,0.4,1.3,0.2c4.8-3.1,10.1-0.8,15.1-1.4c1.7-0.2,4.3-1.1,4.1,2.3
	c1.8,0,4,0.7,5.5,0c2-0.9,3.2-1,5.2,0.1c4.3,2.3,8.9,3.4,13.6,0.8c0.2-0.1,0.5-0.3,0.6-0.2c5.4,3.6,12.1-0.7,17.5,2.9
	c0.2,0.1,0.5,0.1,0.7,0.1c5.7-1.1,11,1.4,16.6,1.6c3.6,0.1,7.3-1.2,10.8,0.9c2.9,1.7,6.5-0.4,9.8,1.7c1.8,1.1,5.3,0.3,7.7-0.7
	c1.9-0.7,2.9-0.5,3.6,0.8c0.6,1.1,0.6,2.7,0.7,4c0,0.3-0.6,0.7-1,1.1c-2.8,2.7-3.7,5.7-1.8,9.3c0.2,0.4,0,1,0,2
	c6.5-0.3,12.8,1.1,19.4-1.1c3.6-1.2,7.9-0.2,11.9-0.2c4.2,0,8.5,0.1,12.7-0.1c1.1,0,2.2-0.7,3.3-1.1c2.2,3.3-0.3,6.6-1,9.9
	c-0.7,3.4-2,6.6-3.3,10.7c4.2,0,8.1,0,12,0c5.2,0,10.5-0.1,15.7,0.1c2.1,0.1,4.2,0.6,6.1,1.5c3,1.5,3.4,4.1,1,6.5
	c-3.7,3.7-4.9,8.5-6,13.2c-0.9,3.9-3.9,7-3.6,11.3c0,0.6-1.8,1.5-2.9,1.8c-1.1,0.3-2.4,0.1-3.7,0.1c-0.6,2.7-0.2,4.6,1,7
	c2.9,6.2,5.6,12.6,7.9,19.2c2.3,6.2,6.4,11.8,9.8,17.6c3.3,5.6,7.3,10.9,7.8,17.7c0,0.4,0.4,0.8,0.6,1.2c1.3,2.2,3,4.3,3.7,6.7
	c0.7,2.2-0.3,4.8,1.6,6.8c-1.3,3.5,4.4,4.2,3,7.7c3.8,5.2,3.4,12,6.4,17.6c2.8,5.3,4.6,11.2,7.7,16.2c1.5,2.4-0.7,5.7,2.4,7.3
	c-0.9,5.2,3.7,9.3,3,14.5C749,906.5,747.2,910.4,747.8,914.4z M661.7,753c1.7,0,2.7,0.1,3.7,0c3.3-0.2,6.6,0.7,9.6-2.4
	c1.4-1.5,5.3-1.6,7.3,0.7s4.5,1.9,6.8,1.6c1.2-0.2,3.3-2.3,3.1-3.1c-1-4,2-6.3,3.2-9.3c0.5-1.2,1.1-2.3,2-4.2
	c-4.7,0.7-8.7-0.9-12.2,1.7c-0.5,0.4-1.7,0.3-2.2,0c-4.6-3-9.5-0.7-13.8-1.5c-2.5,5.6-4.7,10.6-6.7,17.2c0-0.2,0-0.4,0-0.7
	c-0.4,0.1-0.8,0.2-1.1,0.5c-0.1,0.1,0.2,0.6,0.2,0.9C661.8,754.1,662.1,753.9,661.7,753z M488.9,824.9c-0.2-2.9,0.3-6.1-0.8-8.7
	c-1.4-3.2-0.1-6.3-1-9.3c-0.5-1.9-1.6-4.7-3.1-5.2c-4.4-1.5-7.8-7-13.7-3.9c-0.9,0.5-2.8,0.4-3.5-0.3c-1.7-1.6-2.6-0.4-4.3,0
	c-4.4,1-8.2,3.4-12,5.2c-3.5,1.7-7.4,4.2-9.9,7.2c-2.7,3.3-6.6,6-7.4,10.8c-0.3,1.8-2,4.7-1.3,5.5c1.8,2.3,1.4,5,1.4,7.6
	c0,2.7-0.5,5.6,0.2,8.2c0.8,2.8,0.6,6.9,3.7,8c4.2,1.6,6.7,4.5,9.2,7.9c1.9,2.7,4.5,3.5,7.7,2.4c1.3-0.5,2.7-0.6,4-1.1
	c3.6-1.5,7.4-2.2,10.8-4.5c4.6-3,8-7.1,12-10.7C486.5,838.9,489.8,832.8,488.9,824.9z M582.2,897.4c-1.4,1-2,1.4-2.5,1.9
	c-9,8.4-15,19.1-22.2,28.9c-1,1.3-2.9,2.7-2.8,4c0.3,3.8-3.3,5.5-3.9,9c-0.5,2.9-3.6,5.6-6.1,7.8c-2.8,2.4-3.1,5.9-1.9,8
	c1.6,3,0.8,5.7,1.2,8.5c0.5,2.8,1.5,5.6,1.4,8.3c-0.2,5.8,1.4,11.7-1.3,17.3c-0.4,0.8-0.5,2.3,0,2.9c3.9,5,0,9.8-0.7,14.3
	c-0.8,4.8-0.6,9.3-0.5,15.2c3.4-4.3,5.8-7.7,8.5-10.7c1.4-1.6,2.1-3.8,4.5-4.9c2.3-1.1,4.5-3.4,5.8-5.7c3.4-6.3,9.1-10.4,14-15
	c2.4-2.2,5.8-3.9,7.5-6.6c2.8-4.5,6.8-7.6,10.2-11.5c2.8-3.2,5.4-6.6,7.7-9.5c-3.4-4.2-6.4-7.7-9.1-11.4c-2.7-3.8-7.1-6.6-7.7-11.8
	c0-0.4-1-0.7-1.6-1c-5.5-2-7-4.2-7.3-9.3c-0.4-6.8,1.8-13,3.9-19.3c1-2.9,1.7-5.8,3-10.2c-0.3,0.2-0.6,0.5-0.9,0.7
	c0.2,0.2,0.4,0.4,0.7,0.7c0.2-0.3,0.5-0.6,0.7-0.9C582.9,897.2,582.6,897,582.2,897.4z M337.7,795.7c-4.3-2.6-8.3-0.1-11.7,1.3
	c-4.1,1.7-8.3-0.3-12.2,1.3c-1.3,0.5-2.7,1-4.1,1c-3.4-0.1-6.3,2.5-9.9,1.7c-0.7-0.2-2.2,1.2-2.7,2.2c-2.7,4.9-4,10.6-10,13
	c-0.4,0.1-0.3,1.3-0.5,2c-0.7,1.7-1.2,3.5-2.2,5.1c-2.9,4.6-5.7,9.2-9,13.5c-3.6,4.7-6.5,9.8-10.1,14.5c-2.5,3.2-4.8,6.5-7.2,9.8
	c-3.7,5.1-6.4,10.9-9.8,16.1c-2.1,3.1-4.1,6.3-6.1,9.5c-2.2,3.3-4.6,6.6-6.8,9.9c-2.9,4.3-5.3,8.9-8.5,12.9
	c-7.1,8.7-16.5,23.8-21,34.6c-0.1,0.4-0.8,0.5-1.1,0.8c-0.6,0.5-1.7,1-1.7,1.6c-0.6,8-1.1,16-1.5,24.1c-0.1,2.7,0.1,5.5-0.1,8.2
	c-0.1,1.3-1.5,2.7-1.2,3.8c0.3,1,2.3,1.3,3.1,2.3c0.8,1.1,1.4,2.7,1.2,3.9c-0.9,5.5,2.2,9.2,5.3,12.8c7.3,8.4,17.8,10.6,27.9,11.8
	c13.4,1.6,27-0.6,40.5,1.5c5.3,0.8,11-0.8,16.5-1.3c3.3-0.3,6.7,0.7,9.9-1.4c0.9-0.6,3.1-0.4,4.2,0.3c3.3,2.1,7,1.4,10,0.7
	c2-0.5,4.1-1.4,6.2-1.1c3.8,0.5,7.2-0.8,10.5-1.9c1.6-0.5,3.1-1.4,4.7-1.1c3.3,0.5,6.4-0.3,9-1.7c2.8-1.4,5.6-1.6,8.4-1.3
	c9.1,0.9,18-1.6,27.1-1.6c0.9,0,1.7-0.7,2.6-0.9c6.4-1.7,12.6-4.1,19.5-3.6c5.7,0.4,11.5,0.1,17.2,0.1c1.2,0,2.6,0.3,3.7-0.1
	c7.4-2.4,15-3.2,22.7-3c2.2,0.1,4.6,0.3,6.6-0.4c5-1.8,10-2.8,15.4-2.6s10.8,0,17,0c-3.9-2.5-5.2-4-7.9-9.1c-1.2-2.2-2.7-4.6-2.9-7
	c-0.4-4.9-0.7-10,0-14.9c0.7-4.6,2.6-9.1,4.2-14c-7.6,0.6-15-1.1-22.1,1.6c-12.1-0.5-23.9,2.2-36,1.7c-7.7-0.3-15.5-0.8-23.4,1.1
	c-6.5,1.5-13.5,0.4-20.3,1.5c-8.1,1.3-16.5,0.4-24.8,1.5c-8.6,1.2-17.4,0.3-26.1,0.3c-4.2,0-8.5,0-12.7,0c-1.5,0-3.5-0.5-4.3,0.2
	c-2.7,2.3-5.7,0.7-8.5,1.2c-2.8,0.6-5.4,1.6-8.4,1.6c-10.5-0.2-20.9-0.1-31.4-0.1c-3.3,0-6.8,0.6-9.6-2.8c2-6.2-2.1-12.8,0.2-19.4
	c0.7-2,0.1-4.5,0.1-6.7c0-2,0-4,0-6c0-2.2-0.7-4.8,0.2-6.6c1.1-2.2-0.1-3.7-0.2-5.6c-0.1-4.5,0.2-9-0.1-13.5
	c-0.2-4.4,2.4-8.3,1.7-12.9c-0.3-1.6,0.5-3.8,1.6-5.2c4.4-5.9,7.6-12.7,13.1-17.8c2.2-2,4.3-4.1,6.1-6.5c2.3-3.2,4.2-6.4,7.6-8.7
	c3.2-2.1,6.5-4.5,8.8-7.4c5.9-7.4,14.3-16.1,21.1-21c3-2.1,6.5-3.9,7.4-8c0.1-0.6,0.7-1.5,1.1-1.5c3,0.2,1.5-3.7,3.5-3.9
	c2.8-0.2,2.6-3,4.1-4.2c1.9-1.4,3-3.9,5.7-4.3C337.3,797.5,337.5,796.3,337.7,795.7z M351.2,780.4c0.9-0.9,1.8-1.6,2.6-2.5
	c4.1-4.5,8.1-9.1,12.2-13.6c2.7-3,5.5-6,9.8-2.3c0.4,0.4,1.7,0.4,2.2,0c2.6-2,5.6-1.2,8.4-1.5s5.6-1.5,8.4-1.3
	c3.4,0.3,5.4-1.4,6.7-3.6c1.5-2.6,2.6-5,5.9-5.7c0.3-3.3,5.5-2.9,5.2-6.7c5.5-4.3,8.3-11.3,14.7-14.8c2.1-1.1,3.8-2.8,5.8-4.2
	c3.5-2.5,6.9-5,10.4-7.4c2.5-1.7,5.5-3.6,8-4c6.2-0.8,12.3-3.2,19.1-1.4c1.1,1.1,2.7,2.4,3.9,4c3.5,4.5,3.3,11.1,0.9,14.8
	c-1.8,2.7-4.7,4.4-7.3,6.2c-1.4,1-3.5,3.3-5.5,0.2c-0.4-0.6-2.8-0.6-3.5,0c-2.3,1.8-5,1.2-7.5,1.9c-2.2,0.7-2.8,2.7-4.2,3.9
	c-2.2,1.9-4.4,3.8-6.7,5.6c-2.4,1.9-4.8,3.6-8.5,6.4c3.7,0,6.1,0.6,8-0.1c7.2-2.5,14.6-0.9,21.9-1.4c1.2-0.1,2.8,0.5,3.7-0.1
	c3.6-2.7,7.7-0.8,11.4-1.4c2.1,2.5,4.1,0.4,6.2,0c2.4-0.4,4.9-0.2,7.1-1c1.4-0.5,2.1-0.5,3.2,0.3c0.7,0.5,1.8,0.5,2.7,0.6
	c1.6,0.1,2.8-3,5.1-0.5c0.6,0.7,3.3-0.8,5-0.9c7.5-0.6,15.1-1,22.6-1.6c1.3-0.1,3-0.5,3.9-1.4c3.8-3.9,7.4-8.1,10.1-13
	c1.8-3.2,3.8-6.1,7-8c3-1.8,14.3-5.8,16.2-6c5-0.6,10.1,1.3,15.2-1.2c1.4-0.7,4.4,1.1,6.3,2.3c0.9,0.6,1,2.5,1.5,3.8
	s1.2,2.5,1.5,3.9c1.1,5.8-2.3,9.9-5.8,13.7c-2.3,2.4-3.5,5.1-4.6,8c3.2,2.9,0.4,5.4-1.2,7.2c-2.1,2.4-2.2,4.6-1.2,7.6
	c4.8-0.6,9.6-1.5,14.4-1.7c6.3-0.4,8.6-1.9,10.4-8.4c1.1-3.8,2.5-7.6,2.9-11.5c0.4-3.4,2.5-6,3.4-9.1c1.5-5,1.8-10.6,5.4-15
	c0.3-0.4,0.3-1.6,0-1.9c-2.8-2.9-0.7-4.7,1.2-6.8c1.9-2,3.4-4.3,5.3-6.7c-8.4-1.4-16.3-2.6-24.3-2.1c-1.2,0.1-3,0.4-3.6-0.2
	c-2.2-2.2-4.7-0.9-7-1.3c-2.5-0.5-5.1-1.4-7.6-1.4c-8.5-0.2-17-0.5-25.4,0.1c-8.7,0.6-17-2.4-25.6-1.6c-4,0.4-7.5-1.2-11.2-2
	c-0.9-0.2-1.7-0.9-2.6-1c-3.5-0.1-7,0.1-10.5-0.1c-3.6-0.3-7.1-1.3-10.6-1.4c-7.1,0-13.9-2.7-21.1-1.6c-0.6,0.1-1.3-0.5-1.9-0.7
	c-2-0.6-4-2.3-6.1-1.3c-2.8,1.2-4.6-2-7.4-1.1c-1.4,0.5-3.1,0.3-4.8-0.8c-1.4-0.9-3.8-0.8-5.7-0.5c-9.9,1.7-9.9,1.7-17.9-0.9
	c-0.3-0.1-0.8-0.4-1-0.2c-4.8,3-10.7-0.9-15.4,2.5c-0.5,0.3-1.8,0.3-2.1,0c-2-2.4-4.6-1.3-6.9-1.3c-9.2-0.1-18.5,0-27.7-0.1
	c-3.1-0.1-6,0.3-9.2-1.1c-2.4-1-6.1,1.4-8.5-1.8c-0.4,0.3-0.7,0.7-1.1,1c-1.4,0.8-2.9,1.6-4.8,2.6c6.3,3.8,4.4,10.4,6.6,15.5
	c0.2,0.4,0,1.1-0.3,1.3c-2.1,1.5-1.2,3.7-1.1,5.5c0.2,6.3-1.7,12.3-3.3,18.1c-1.5,5.5-2.3,11.7-7.2,15.7c-3.7,10.7-14,15.6-21,23.3
	c-0.3,0.3-0.8,0.7-1.2,0.7c-3.7-0.2-5.9,2.9-9.3,3.6c5.4,3,10.8,2.3,16.1,2.4c4.3,0.1,8.5-0.1,12.9,1.3
	C348.1,777,348.3,776.3,351.2,780.4z M389.3,768.3c-2.7,0-4.5-0.1-6.4,0.1c-1.1,0.1-2.3,1.3-3.2,1.1c-6.1-1.4-9.7,2.3-13.1,6.3
	c-1.2,1.4-2,3.3-3.2,4.6c-6.3,6.8-13.6,12.9-19.1,20.5c-1.4,1.9-3.4,3.9-5.2,5c-2.4,1.5-3,4-5,5.5c-3.3,2.5-5.2,6.5-9.4,8
	c-1.4,0.5-2.3,2.4-3.4,3.7c-1,1.3-1.7,3.1-3,3.9c-4.1,2.6-6.7,6.7-9.7,10.2c-2,2.3-4,4.8-6,7.1c-1.9,2.1-3.1,5.1-6.7,5.3
	c-0.7,0-1.7,1.2-2.1,2c-1.4,3.3-4,5.5-6.4,7.8c-1.3,1.2-1.8,2.6-2.2,4.4c-0.5,2.1-1.9,5-3.7,5.7c-3.9,1.6-6.1,5-8.7,7.8
	c-2.5,2.8-5.6,5.2-7.5,8.7c-1.6,2.8-1.1,5.6,2.1,6.1c2.7,0.4,5.4,3.6,8.6,0.3c0.8-0.9,3.8-0.8,5,0c3.5,2.2,7.1,1.1,10.7,1.4
	c5.5,0.5,11.2-1,16.6,1.4c1.5,0.6,3.7-0.4,5.6-0.7c5-0.9,10.1-1.4,15.1,0.3c0.7,0.2,1.7,0.8,2,0.5c3-2.9,6.6-1.3,9.9-1.3
	c15.5-0.2,30.9,0,46.4-0.2c2.8,0,5.9,1.2,8.4-1.4c0.4-0.4,1.7-0.4,2.2,0c3.6,2.7,7.1,0.5,10.8,0.1c9-1,18-1.2,27-1.7
	c1.7-0.1,3.7,0.3,5-0.5c4.6-2.7,9.6-2.5,14.7-2.5c7.5,0,15,0.2,22.4-0.1c3.3-0.1,6.6-0.9,9.8-1.5c0.5-0.1,0.9-0.8,1.3-1.3
	c1.2-1.5,2.4-3,3.6-4.5c4.3-5.7,8.7-11.4,12.9-17.1c5-6.8,9.1-14,12.7-21.7c4.4-9.3,11-17.4,16.8-25.9c3.1-4.5,6.8-8.6,10-13.1
	c3-4.4,5.5-9.2,8.5-13.6c1.4-2.1,3.5-3.7,5.9-6.2c-1.1-4.4,1.4-9,4-13.6c3.1-5.4,6.1-10.9,9-16.5c0.3-0.7,0-1.7-0.1-2.5
	c-0.8,0.3-1.9,0.3-2.4,0.8c-1.4,1.6-2.5,3.5-3.9,5.1c-4.4,5-8.9,9.7-13.1,14.8c-2.1,2.5-3.4,5.6-5.4,8.2c-1.9,2.4-4,4.3-5.1,7.7
	c-0.9,2.7-4.9,4.3-7.5,6.5c-0.5,0.4-0.6,1.2-1,1.8c-1.1,1.8-1.8,4.6-3.3,5.2c-4.7,1.9-6.7,6.1-9.3,9.7c-3.3,4.5-8.2,7.9-10,13.7
	c-0.5,1.7-2.8,3.1-4.6,4.2c-5,3-5.8,2.8-6.7,8c-0.6,3.7-4.7,5.6-3.6,9.6c-5.3,0.5-5.2,0.6-9.1,4.2c-4.3,4-8.4,8.3-13.2,11.5
	c-4.2,2.8-8.5,5.5-14.1,5.8c-3.1,0.2-6.8,0.5-9.6,1.9c-2.9,1.4-4.7,0.8-6.2-1.3c-1.9-2.7-4.1-4.6-7.2-5.8c-4.2-1.5-6.9-4.9-9-8.8
	c-2.5-4.6-4-9.4-3.6-14.7c-9.1,0-9.1,0-13.2,7.6c-1,1.8-1.8,3.8-3,5.5c-4.5,6.3-9.2,12.1-18.1,12.7c-3.1,0.2-3.9,0.1-4.4-2.5
	c2.3-1.2,4.6-1.9,6.3-3.3c7.3-6.1,13-13.5,17.4-21.9c1.2-2.2,2.1-4.6,1.9-7.5c-0.4-6-0.1-12-0.1-17.9c0-4.1-1.3-7.1-5.5-8.9
	c-4.4-1.8-4.2-2.2-5.7-6.8c-2.6,0.4-5.2,0.9-7.7,1.2c-1.5,0.2-3.4-0.4-4.3,0.3c-3,2.4-6.4,0.3-9.2,1.3c-2.8,1-5.3,2.9-7.9,4.4
	c-0.4,0.2-1.1-0.1-1.5,0.1c-4.2,2.2-9,3.9-9.1,9.8c-2.9,2.6-0.2,6.3-1.6,9c-1.9,3.7-2.7,7.5-2.8,11.6c-0.1,4.3-1.2,8.6-1.3,12.8
	c-0.2,5.6,1.3,7.6,6.5,9c7.2,1.9,14.5,3.6,22,5.5c-1.3,2.9-2.9,5.3-6.8,5c-3-0.2-6,0.3-9-0.1c-6.7-0.9-12.8-3.2-17.5-8.3
	c-2.6-2.9-3-6.7-4.4-10.2c3.2-4.2,0.8-9.1,1.5-13.6c0.2-1.5-0.5-3.3,0.1-4.4c2.8-4.7,3.1-10.1,5.6-14.9c2.5-4.8,3.7-10.4,9-13.3
	c0-3.5,3.1-4,5.3-5.1c3.1-1.6,5.4-3.6,7.1-6.7c1.3-2.5,2.8-5.3,5.1-6.8c2.5-1.6,3.4-4.2,5.3-6.1
	C385.8,773.8,387.2,771.3,389.3,768.3z M348.1,1016.6c-1.2-0.1-2-0.4-2.6-0.2c-6.6,2.8-13.8,2.7-20.7,4.2c-5,1.1-10.5,0.6-15.7,0.1
	c-5.5-0.6-10.5,1.6-15.9,1.6c-15,0-29.9,0-44.9,0c-1.5,0-3,0.2-4.5-0.1c-8.8-1.9-8.8-2-16.2,1.3c-0.6,0.3-1.4,0.3-2.1,0.2
	c-3.1-0.2-6.2,3.5-9.2,0c-2.8,2.1-6.2,0.7-9.1,1.6c-6.7,2.1-13.1,1.8-19.8,0c-2.2-0.6-4.9,0-7.1,0.8c-1.3,0.4-2,0.7-3.2-0.2
	c-1.1-0.9-2.3-1.6-3.6-2.1c-2.4-0.9-5,0.9-5.2,3.5c-0.1,1.5-0.1,3,0,4.5c0.7,16-1.1,32,1.3,48.1c1.3,8.5,0.2,17.3,0.2,26.2
	c11.7,0,22.8,0,34,0c1,0,2,0.1,2.9-0.3c3.7-1.5,7.5-3.2,11.6-2.6c4.5,0.6,8.5-1.9,12.9-1.6c4.5,0.3,9.2-1,13.7,1.4
	c1.9,1,4.7-1.7,5.9-1.1c2.4,1.1,4.6,1.1,7,1.2c0.2,0,0.6,0.1,0.7,0c3.7-3,8.1-1,12.1-1.4c1.2-0.1,2.6,1.3,3.9,1.3s2.6-1.3,3.9-1.3
	c11-0.1,22,0,32.9-0.1c2.1,0,4.2,3.5,6.2,0.1c2.7,0,5.9,0.9,8.1-0.2c3.6-1.8,7.2-0.6,10.7-1.4s7-1.8,10.6-1.4
	c0.8,0.1,1.7-0.3,2.6-0.5c-0.9-3.9-3.3-6.5-3.3-10.4c0.3-19.2,0.1-38.4,0.1-57.6c0-1.2-0.5-2.9,0.1-3.7
	C349.1,1023.3,347.6,1020,348.1,1016.6z M601.8,780.9c1.8,2.5,3.2,4.4,4.7,6.4c0.5-0.6,1.1-1.5,1.9-2c3.1-2,5.9-0.7,6.1,2.8
	c0.1,1,0.3,2.1-0.1,3c-3.5,7.8-6,16.3-11.3,23c-7,8.7-11.2,18.9-17.2,28.1c-5.7,8.9-11.2,18.1-17.8,26.2c-6.8,8.4-12.1,17.7-19.1,26
	c-4.9,5.7-9,12.3-14,18c-1.4,1.6-2.1,4-3.8,5.1c-4.1,2.6-6.9,6.3-10,9.9c-5.6,6.5-11.7,12.6-18.8,17.6c-0.7,0.5-1.7,0.9-2.6,1
	c-5.2,0.2-7.4,4.1-9.6,7.9c-1.9,3.4-0.7,8.2-4.5,10.8c0.2,5.5-1.4,11.3,3.8,15.8c5.2-6.8,10.4-13.6,15.6-20.4c1-1.3,1.8-2.8,2.8-4.1
	c4-5.3,8.2-10.6,12.2-15.9c1.6-2.1,2.8-4.4,4.5-6.3c3.5-3.9,5.3-8.9,9-12.9c4.2-4.5,7.7-9.8,11.7-14.6c5.7-6.9,11.1-13,16.9-16.6
	c0.9-0.5,1.1-2.2,2.6-1.7c1.4,5.6-1.3,8.9-5.6,11.6c-1.2,0.7-3.1,1.8-3,2.6c0.3,3.4-2.4,4.7-4.2,6.6c-2.8,3-5.8,5.8-8,9.4
	c-2.1,3.3-4.2,6.6-8.1,8.7c-2.6,1.4-4.6,5.6-5,8.8c-0.4,3.1-1.6,5.1-3.7,6.8c-3.3,2.6-4.3,7.4-8.6,9.1c0.3,4.5-3.7,6.9-5.3,10.5
	c-1.5,3.6-5.2,6.3-7.7,9.6c-3,3.9-5.6,8.1-9,13c2.8,0,5,0.7,6.3-0.1c3.9-2.5,9-3.3,12-7.3c2.4-3.2,4.6-6.6,6.9-9.9
	c3.8-5.4,6.7-11.5,11.6-16.1c2.8-7.8,8.5-13.6,13.8-19.7c0.5-0.5,1.3-1.2,1.2-1.7c-0.8-4.5,2.8-6.9,4.6-10.1c3-5.3,7.8-9.4,9.6-15.5
	c0-0.1,0.5,0,0.7-0.1c4.7-4.1,8.3-9.2,12.8-13.5c2.2-2.1,3.5-5,5.3-7.5s3.4-5.1,5.4-7.5s5.1-4.1,5.7-7.4c0.6-3.3,3.5-4.5,5.1-6.8
	c2.9-4.1,5.5-8.4,9.1-11.9c0.3-0.3,0.1-0.9,0.1-1.7c-1.5-1.1-3.1-2.3-4.7-3.5c1.2-1.9,3.2-3.7,3-5c-0.6-3.1,2.9-2.2,3.5-4.6
	c0.6-2.5,3.1-4.6,4.9-6.9c0.6-0.8,1.9-1.3,2-2.1c0.3-1.8,0.1-3.6,0.1-5.8c-1.8,0-3,0-4.2,0c0.5-2.3,0.4-4.8,1.6-6.3
	c2.5-3.1,4.2-7.7,9.6-6.9c1.5,0.2,2.3-0.2,2.3-1.9c0-0.3,1.3-1.1,1.5-1c3.5,2.6,7.6,0.8,11.2,1.6c3.1,4,2.8,7.9,0,11.7
	c-2.9,4-4,8.9-6.8,12.9c-0.5,0.7-0.6,1.9-1.2,2.5c-5.2,5.3-8.9,11.8-13.3,17.6c-2.3,3-2.1,5.6-1.4,8.7c0.9,4.1,2.2,8.3,2.4,12.5
	c0.3,11.2,0.1,22.4,0.1,33.7c0,1.6-0.5,3.3-0.7,4.9c-0.1,0.5,0,1,0.1,1.5c0.7-0.2,1.7-0.2,1.9-0.6c3.2-6.9,5.7-14.1,7.7-21.5
	c1.6-6,3.3-12,6-17.7c2.3-5,4.6-10.1,6.5-15.3s3.6-10.5,5.4-15.7c3-9,5.5-18.1,10-26.6c0.4-0.8,0.4-1.8,0.7-2.7
	c1.5-5.6,2.4-11.3,5.2-16.6c1.5-2.8,3.5-5.9,3.6-8.9c0.1-4.6,3-7.8,4-11.9c1-4.1,3.1-7.9,4.7-11.7c-4.2-3.2-8.4,0.3-12.6,0
	c-4.3,4.7-10,4-15.5,4.1c-6.2,0-12.5,0.4-18.7-0.1c-6.4-0.5-12.5,2.1-18.9,1.7c-0.9-0.1-1.8,0.4-2.7,0.8c-3.8,1.3-7.5,2.8-11.2,2.2
	c-2.3,2.4,2.7,3.9-0.1,6.1c-2,1.6,0.4,4.7-2.1,6.7c-1.3,1-1.5,3.3-2.5,5.6c-1.3-2.2-2.1-3.6-2.9-5c-3.3,3.2-3.7,8.5-7.9,11
	c-0.3,0.2-0.3,0.9-0.3,1.3c0.2,3.5-3.2,5.6-3.2,9.2c0.1,4.2-4.6,5.4-6.6,8.4c-1.3,1.9-2.5,3.9-3.7,6c-1.6,2.8-3.3,5.6-4.8,8.5
	c-3.4,6.6-7.7,12.8-11.5,19.2c-2.4,4-4.6,8.1-7.4,11.9c-2.8,3.8-6.7,6.6-8.9,10.5c-3.6,6.2-8.1,11.6-12.4,17.3
	c-4.4,5.8-7.3,12.7-14,17.6c1.7,0.2,2.4,0.4,3.1,0.3c0.7-0.1,1.5-0.3,1.9-0.7c2-1.9,4.4-3.5,5.7-5.8c3.7-6.6,10.3-11.2,12.8-18.6
	c6.2-5.2,10-12.4,15.5-18.2c5.3-5.6,9.4-11.8,12.6-18.8c1-2.1,2.8-3.8,4.2-5.8c3.5-5,7.3-9.9,10.5-15.1c1.3-2,1.1-5,4.2-5.6
	c-0.8-3.8,2.8-4.4,4.7-6.1c2.2-2,3.4-4.5,4.7-7.1c0.9-1.9,1.7-4.5,3.3-5.2c3.1-1.4,3.8-4.5,5.6-6.7
	C596.2,788.6,598.7,785,601.8,780.9z M313.6,901.4c0,4.4,0,8.4,0,12.4c0,3.5-0.5,7.1,0.1,10.4c1.7,9.5,1.9,9.4-0.1,18.2
	c-1,4.3,0.7,6.7,5.2,6.5c4.3-0.2,8.6-1.2,12.8-1.4c8-0.2,16-0.5,23.9,0c8.9,0.6,17.5-1.5,26.3-1.8c2.4-0.1,4.7-0.2,7-0.2
	c2.8,0,5.7-0.3,8.5,0.3c0.4,0.1,1-0.1,1.3-0.4c1.4-1.7,3.2-1,4.8-1c3.5-0.1,7,0,10.5,0c3.7,0,7.5,0,11.2,0c3.1-4.1,6.1,1.2,9.3,0.1
	c1.1-0.4,2.7,0.3,3.7-0.1c6.1-2.8,13.1-1.3,19.1-4.4c0.7-0.3,1.9,0,2.8,0.4c3.7,1.6,7.4,1.5,11.1,0.1c1.2-0.4,3-0.4,4,0.2
	c1.7,1,3,1.1,4.7,0.2c1.2-0.6,2.7-0.7,4.1-0.9c4.2-0.4,4.9-1,4.9-5.4c0-9.5,0-18.9,0-28.4c0-1.7,0.2-3.4,0.6-5
	c1.3-4.7-0.8-7.7-5.1-5.9c-3.9,1.6-7.6,1-11.4,1.2c-2.7,0.2-5.5,0-8.2,0.1c-2.4,0.1-5.4-0.4-7.1,0.8c-3.1,2.2-4.9-1.3-7.4-0.8
	c-0.5,0.1-1.1,0-1.3,0.3c-1.8,2.2-4.2,0.7-6.3,1.2c-2,0.5-4.1,1.3-6.1,1.4c-7.8,0.3-15.5,0.6-23.3,1.3c-17.2,1.6-34.5-0.6-51.7,1.5
	c-10.3,1.3-20.9,0.6-31.4,0.1C324.7,902.2,319.6,900.6,313.6,901.4z M385.9,1139.1c5.5,0,9.9-0.2,14.3,0.1c3.1,0.2,5.2-0.7,7-3.1
	c1.6-2,3.4-3.2,6.2-3.2c2.2,0,4.5-1.1,6.5-2.2c1.9-1.1,2.2-3,0.9-5c-1.1-1.6-1.8-1.1-3.3-0.2c-1.2,0.7-3.2,0.1-4.9,0.1
	c0.1-4.5-4-8.3-0.5-12.2c2.4-2.7,2.8-6.6,6.3-8.6c1.9-1.1,4.7-2.8,10.8-3.9c-0.8-1.7-1.6-3.4-2.5-5.3c-2.9,0.9-6.2-1.2-9,1.5
	c-0.7,0.6-2.7,0.6-3.6,0.1c-4.1-2.4-8.6-1.2-12.9-1.4c-5-0.2-10,0-15-0.1c-4.9-0.1-9.4,2.6-14.3,1.5c-0.5-0.1-1.1-0.2-1.5,0
	c-3.9,2.1-7.6,2.1-11.5,0.1c-2-1-4.2,0.8-4.8,3.1c-0.1,0.5,0.1,1,0,1.5c-0.6,3.5-1.3,4.2-4.5,4.3c-2.2,0.1-5.4-0.9-6.5,0.2
	c-2.9,2.8-6.5,0.4-9.6,2.5c-2.4,1.6-6.4,0.5-9.7,1.6c-3.2,1-6.9,0.2-10.4,0.2c-13.7,0-27.4-0.3-41.2,0.1
	c-16.3,0.4-32.6-1.5-48.8,1.3c-4.2,0.7-8.5,0.6-12.2,2c-0.7,2.2-1.7,4.2-1.9,6.2c-0.3,2.8-1.1,5.8,0.6,8.5c1,1.6,0.1,3-0.1,4.6
	c-0.7,4.8-3.2,9.5-1.9,14.9c3.4-0.2,7.2,0.7,9.6-0.7c3.8-2.3,6.4,0.9,9.5,0.6c0.7-0.1,1.9,0.3,2.2-0.1c2-2.5,4.6-1.4,6.9-1.4
	c17-0.1,33.9,0,50.9-0.1c2.8,0,5.6,0.5,8.5-1.3c1.4-0.9,5-0.5,6.2,0.7c3.4,3.6,6.5,1.9,9.8,0.6c3.5-1.4,7.6-2,10.9-1.5
	c1.2,0.2,2.9,0.5,3.7-0.1c2.9-2.2,6.1-1.2,9.2-1.4c1-0.1,2.3,0.4,2.9-0.1c3.3-2.7,7.6,0,10.5-1.6c3.7-2,7.2-1,10.7-1.2
	c5-0.3,10-0.2,15,0c2.8,0.1,4.9-1.1,6.9-2.7c-0.4-2.9-2.3-3.6-4.8-3.3c-4.1,0.4-6.2-1.7-7.5-5.5c3.9-0.7,7.4-1.3,10.8-2
	c0.5-0.1,1.3-0.7,1.4-1.2c0.6-1.9,2.9-3.6,1-6c-1.8-0.2-3.6-0.3-5.2-0.5c-0.3-2.1-0.1-4.1-0.9-5.4c-1.9-2.8-0.7-4.5,1.3-6.2
	c0.7-0.6,1.6-1.5,2.3-1.5c3.8,0,5.7-2.5,7.5-5.3c1.2-1.9,3.7-3.8,5.4-1.8c2.6,3,5.7,2.4,8.8,2.5c2.2,0,4.5-0.2,6.7,0.1
	c1,0.2,2.4,1.2,2.7,2.1c0.3,0.8-0.5,2.5-1.3,2.9c-2,1.2-4,2.9-6.5,2.3c-3.1-0.8-5.5,1.5-8.4,1.6c-0.5,0-1,1.2-1.5,1.8
	c0.5,0.4,1.1,1.1,1.6,1c2.7-0.4,4.9,0.5,6.3,2.8c1.3,2.2,2.9,4.3,2.6,7.2c-0.2,2.1,0,4.3,0,6.8c-6.1-1.4-9.6,3.3-14.3,4.5
	C388,1135.2,387.4,1137,385.9,1139.1z M297.2,766.5c3.6-0.1,7.7,0.4,11.6-1.5c4.2-2,9.2-2.9,12.5-5.8c6.4-5.7,11.8-12.4,17.6-18.7
	c-0.4-3,2.9-3.9,3.5-6.8c1.3-7.1,5-13.8,4.2-21.4c-0.1-0.5-0.2-1.1,0-1.5c2.9-4,0.7-8.6,1.5-12.8c0.4-2.4-1-3.7-2.4-5
	c-2.1-1.9-11.3-5.8-14-5.8c-5-0.1-10-0.2-14.9,0.1c-2.5,0.2-5.1,0.9-7.3,2.1c-2.3,1.2-4.7,2.7-6.2,4.8c-1.4,2-4.2,1.5-5.1,4.5
	c-0.6,2-3.9,3.2-6,4.9c-1.3,1.1-3.2,2.3-3.6,3.7c-1.1,4.2-4.9,6.8-5.5,11.2c-0.6,4.1-2.6,7.9-3.8,11.8c-0.6,2-1.2,4-1.5,6.1
	c-0.3,2.2,0.8,5.1-0.3,6.6c-1.7,2.4,0.6,3.7,0.3,5.6c-0.9,5.4,1.5,9.4,4.9,13.7c2.6,3.3,5.1,4.4,8.7,4.3
	C293.2,766.4,294.9,766.5,297.2,766.5z M420.4,814.4c2.9,0,5.4,0.2,7.8-0.1c1.1-0.1,2.5-0.8,3-1.6c4.5-7.8,11.9-12.7,18.5-18.3
	c1.5-1.3,3.7-1.8,5.7-2.4c3.5-1.2,7-2.3,10.5-3.4c0.9-0.3,2.3-1.2,2.5-1c1.7,2.2,4.2,0.9,6.2,1.5c5.8,1.9,12.1,2.8,15.9,8.5
	c0.6,1,1,2.1,1.6,3.1c1.7,2.5,3.9,2.7,5.1,0c1.5-3.6,5.1-5.3,6.9-8.4c1.8-2.9,2.7-6.3,4.1-9.5c0.4-0.8,1.2-1.5,1.8-2.3
	c1.4-1.9,3.4-3.6,4.1-5.8c1.2-4,3.3-6.3,7.6-6.7c1.8-0.2,3.9-2.2,2.8-3.3c-2.7-3-0.4-4.2,1.2-6c0.4-0.4,0.5-1.5,0.2-1.9
	s-1.7-0.8-1.8-0.6c-2.2,2.5-5.1,1-7.7,1.5c-2.8,0.5-5.6,1.2-8.4,1.4c-3,0.3-6-0.2-9,0.1c-2.6,0.3-5.2-1-7.8,1c-2.7,2-5.2-2-8.2-1.1
	c-1.1,0.3-2.9-0.5-3.7,0.1c-3.1,2.5-6.6,1.1-9.9,1.4c-2.2,0.2-5.1-0.8-6.6,0.2c-3.3,2.2-6.7,0.6-10,1.4c-3.5,0.8-6.9,1.7-10.6,1.5
	c-2.5-0.2-5,0.1-7.5-0.1c-7.5-0.5-14.8-0.3-19.6,6.8c-0.1,0.2-0.3,0.4-0.5,0.5c-1,0.5-2.2,0.9-3.1,1.6c-1.2,0.9-2.1,2.1-3.2,3.1
	c-0.9,0.9-1.8,1.8-2.6,2.6c-1.1,1.1-2.1,2.1-3.2,3.2c-0.9,0.9-1.9,1.7-2.6,2.7c-0.8,1-2.3,1.5-2.4,3.1c0.8,0.1,1.3,0.3,1.7,0.2
	c4.4-0.8,7.6,2,11.2,3.6c2.5,1.1,1.6,3.8,1.8,5.9c0.1,0.6,0.9,1.1,1.4,1.7C417.3,803.1,418.9,808.4,420.4,814.4z M658.3,946.3
	c-0.3,1.4-0.3,3.1-1.1,4c-1.9,1.8-3.4,3.9-6,5.1c-1.9,0.9-2.6,4.2-3.8,6.4c-0.2,0.4-0.6,0.9-1.1,1c-2.7,1.2-3.9,3.8-5.7,5.8
	c-2,2.2-4.5,3.8-6.4,6.1c-4.3,5.1-9.5,9.5-14.1,14.4c-4.5,4.7-8.6,9.9-13.2,14.6c-8,8.2-16.3,16.2-24.2,24.4
	c-4.1,4.2-8.3,8.4-11.5,13.2c-4.7,7.1-11.2,12.5-17.3,18.1c-4.5,4.2-10.2,7.2-14.4,11.8c-3.8,4.1-7.9,7.9-11.3,12.4
	c-5.1,6.7-6.3,8-6.5,15.2c-0.1,2.1,1,4.4-1,6.3c-0.4,0.3,0.2,1.6,0.3,2.5c0.9-0.3,1.9-0.4,2.5-1c5-4.3,9.7-8.9,14.8-13.1
	c3.6-3,8.6-5,11.1-8.7c2.8-4.2,7.3-6,10.4-9.7c4.1-5,9.1-9.2,13.6-13.9c1.7-1.8,3.3-3.4,6.2-3.1c2.1,0.2,3.6-1.2,3.5-3.6
	c0-1.2,0-2.4,0-3.1c2.6-1.5,5.6-1.3,6.2-4.5c2.8,0.1,2.6-2.9,4.1-4.2c1.7-1.5,3-3.5,4.8-4.7c5-3.2,8.9-7.6,13.1-11.7
	c0.6-0.6,2.3-1.1,2.4-0.9c1.4,2,2.3,0.8,3.3-0.3c1.5-1.9,2.5-4.7,4.3-5.5c3-1.2,4.4-3.8,6.7-5.5s4.6-3.3,6.7-5.2
	c2.2-2,4.3-4.2,6.4-6.3c1.2-1.3,2.1-3,3.4-4.1c3.6-2.9,7.3-5.5,9.2-10c1.1-2.5,3.8-1.7,5.9-2.7c-1-5.7,1.4-11.6-1.5-17.3
	c-0.9-1.8-0.9-4.9,0-6.6C660.9,956.8,658.4,951.5,658.3,946.3z M657.4,997.3c-1.4,1.7-2.8,3.7-4.4,5.3c-6.6,6.2-12.4,13.3-19.9,18.6
	c-3.6,2.6-6.4,6.2-9.6,9.4c-3.1,3.2-5.5,7.1-9.4,9.4c-0.4,0.2-1,0.7-1,1c0,2.9-2.4,3-4.1,4.3c-1.6,1.2-2.2,4.2-3.9,4.9
	c-3.3,1.5-5.2,4.4-7.8,6.5s-5.2,4.2-7.8,6.3c-3,2.4-5.9,4.9-8.9,7.4c-2.8,2.3-5.7,4.5-8.3,6.9c-7.3,6.6-14.4,13.4-21.6,20.1
	c-0.5,0.5-1.1,0.9-1.7,1.3c-5.3,3.1-10.9,5.9-15,10.8c-1.6,1.8-4.9,2-5.2,5.2c0,0.2-1.3,0.2-2,0.4c-3,0.9-6.1,1-9.2,0.3
	c0,6.4,0,12.7,0,19.2c1.8,0,3.3,0.1,4.7,0c0.8-0.1,2.2-0.5,2.3-1c0.7-2.6,2.7-3.6,4.7-5.1s3.4-3.8,5-5.7c5.5-6.7,14.1-9.5,19.4-16.4
	c4.2-1.3,7-6,12.3-4.8c1,0.2,2.5-1.1,3.5-2.1c5-4.7,9.4-10,15.3-13.7c1.3-0.8,2.5-1.2,3.3-3c0.7-1.6,3.2-2.5,4.9-3.7
	c1.9-1.4,3.5-3.2,5.6-4.5c6.8-4.4,13.4-9.4,19-15.4c1.6-1.8,3.8-2.9,5.6-4.4c4.6-3.9,10.8-6,13.8-11.8c0.8-1.5,2.9-2.4,4.6-3.2
	c1.9-0.8,0.9-3.3,3.4-4.1c3-1,5.5-3.7,8-5.9c2.4-2.1,4.2-5.5,7-6.6c3-1.2,3.2-3.4,2.4-4.9c-1.9-3.8-1.1-7.6-1.3-11.4
	C660.8,1004.7,658.7,999,657.4,997.3z M520.7,1074.8c5.3-0.1,5.9-6,10.1-7.1c1.1-0.3,2.3-2,2.7-3.3c0.7-2.2,2-3.2,4.2-3.2
	c0.6,0,1.4-0.4,1.9-0.8c3.5-3,6-7.1,10.4-9c2.4-5.4,7.6-8.3,11.2-12.6c3.6-4.3,7.2-8.6,11.1-12.6c14.9-15.2,30.5-29.7,44.4-46
	c0.9-1.1,2.2-1.7,2.3-3.6c0.1-1.3,2.4-0.8,3.2-3c1.1-2.7,4.1-4.9,6.7-6.7c8.4-5.9,11.2-9,15.4-16c3.4-5.5,7-11.2,15.1-11.4
	c-1.9-5.3-4-10.3-2.8-17.2c-5.2,5.2-9.8,9-13.3,13.7c-1.6,2.1-3,4.6-5.1,6c-2.2,1.5-1.9,5.1-5.1,5.4c-0.3,2.3-3.3,2.6-3.7,4.2
	c-0.6,2.8-4.5,2.8-4.4,3.9c0.5,3.8-2.7,4.4-4.5,5.5c-5.6,3.7-10.8,7.9-15.5,12.8c-2,2.1-6,2.4-6.3,6.2c-3.5,1.6-6.3,4-9.4,6.2
	c-3.4,2.4-4.9,6.4-8.3,8.5c-7.4,4.5-9.6,14.1-17.7,17.9c-3.3,6.3-9.4,10-13.9,15.2c-0.7,0.8-1.9,1.7-2.9,1.8
	c-4.5,0.4-4.8,4.1-5.5,7.1c-0.5,2.4,0.5,5.3-0.5,7.3c-0.9,1.9-3.6,2.9-5.5,4.3c-0.6,0.5-1,1.1-1.6,1.6c-2.9,2.5-5.5,5.4-8.8,7.6
	c-3.7,2.5-7.8,5.8-6.1,11.5C519.3,1071.2,520.1,1073,520.7,1074.8z M473.5,1136.1c-0.5-4.8-0.9-9.1-1.2-13.4c-0.2-2.9,1-5.6,1.3-8.4
	c0.7-6.1,0.2-12.3,0.2-19.1c-3.8,1.5-7.1,3.2-10.4,0.4c-0.3-0.2-1,0-1.5,0c-8.9,0-17.8,0-26.9,0c1.5,4,2.5,7.4-1,10.7
	c-2.3,2.2-2.5,5.6-2.2,8.8c0,0.4,0.3,0.9,0.6,1.5c1.6,0,3.2,0,4.8,0c0.6,1.8,0.9,3.5,1.8,4.8c2.4,3.9,0.9,7.2-1,10.8
	c-1.5,2.7-4.4,3.8-6.7,6.8c5.8,0,11,0,16.1,0c2.6-2.9,6.2-0.5,9-1.6c3-1.2,6-1.5,9.1-1.4C468.1,1136.2,470.6,1136.1,473.5,1136.1z
	 M666,718c-4.1,0.9-6.8,1.8-9.5,2c-7,0.5-14.1-0.9-21,1.5c-3.9,1.4-6.6-1.8-9.6-3.2c-4,6.4-3.5,13.8-6.7,20.1s-5.3,13.2-8.1,20.5
	c2,0,3.5,0,4.9,0c2.9-0.1,6.2,0.5,8.7-0.6c3-1.2,5.7-0.6,8.6-0.8c3-0.2,6,0,9,0c2.2,0,4.4,0,6.1,0c5.7-5.7,5.6-5.8,8.3-13.6
	c1.3-3.9,2.5-8.1,5-11.3C664.6,728.4,664.5,723.8,666,718z M394.4,1046.6c0,2.8,0.9,5.8-0.2,7.7c-3.7,6.6,1.2,14.2-2.8,20.5
	c2.4,3,1.2,6.5,1.5,9.8c0.2,2.1,1.3,3.5,3.7,3.5c9.7,0,19.3,0,28.8,0c0.7-2.3,1.8-4,1.8-5.8c0.1-12.9,0.1-25.8,0.1-39.4
	c-2.9,0.9-5.4-0.6-8,1.3c-1.1,0.8-3.3,0.5-4.9,0.2c-6.7-1.7-6.6-1.7-11.8,0.3c-0.4,0.2-1-0.1-1.5,0
	C398.9,1045.4,396.7,1046,394.4,1046.6z M470.8,1088.2c0-1.9,0.5-3.5-0.1-4.3c-2.4-3.2-0.3-7.2-2-10.4c-1.9-3.6-0.6-7.2-0.9-10.8
	c-0.3-4-0.2-8,0-11.9c0.1-3.2-0.2-6.2-2.2-9c-5.3,0-10.8-0.1-16.2,0.1c-2,0.1-4.1,1.3-6.1,1.3c-2.2,0-4.4-0.8-6.9-1.4
	c0,11.9,0.1,23.3,0,34.7c0,3.7-0.6,7.5-0.9,11.7c6-0.9,12.1,3,18.2,1.3c4.8-1.4,9.6-1.1,14.4-1.3
	C468.7,1088.2,469.4,1088.2,470.8,1088.2z M508,1073.5c-4.4,3.6-7.7,6.8-11.4,9c-4.1,2.5-7.3,5.7-10.3,9.1
	c-2.6,2.9-4.9,6.4-4.9,10.6c-0.1,11.1,0,22.3,0,33.9c1.4,0,2.6,0,3.8,0c6.5,0,12.9,0,19.4,0c2.4,0,4.3-1.9,3.6-3.5
	c-1.8-3.8,0.6-7.2,0.2-10.8c-0.7-5.7-1-11.5-1.6-17.3c-0.1-0.6-1-1.2-1-1.8c0-3.3-1-7.3,0.4-9.9
	C509.3,1086.8,507.9,1080.9,508,1073.5z M557.6,791.2c0,1.5,0.1,3.4,0,5.4c0,0.9-0.1,2.3-0.6,2.6c-2.9,1.7-1.7,5.3-4.1,7.4
	c-2.1,1.8-3.7,4.4-5.3,6.7c-2.9,4.1-6.3,7.8-9.2,11.8c-4,5.4-7.2,11.4-10.6,17.3c-1.3,2.2-2.2,4.6-3,7c-0.9,2.6-3.3,3.9-4.7,6.1
	c-1.5,2.4-3.2,4.5-4.4,7.2s-3.9,5.2-4.1,7.9c-0.3,3.7-4.3,3-5.1,6.1c-0.8,2.8-3.4,5.2-5.6,7.3c-2.1,1.9-2.2,4.8-1.3,6
	c1.7,2.2,1.3,3.3-0.1,5c-0.2,0.3,0.2,1.6,0.7,1.8c0.4,0.3,1.7,0,1.9-0.4c1.4-2.1,2.2-4.7,3.8-6.6c7-8.5,13.4-17.3,20-26
	c3.2-4.2,5.6-8.8,9.3-12.7c1.6-1.7,1-5.4,2.1-7.2c1.2-2,4.2-2.9,5.7-5.8c2.7-5.2,7-9.5,9.5-14.8c2.1-4.3,5.9-7.4,7.5-11.8
	c2.3-6.3,6.7-11.6,8.3-18.2c0.4-1.5,1.3-3,2.3-4.2c1.7-2,3.5-3.5,3.9-6.7c0.3-2.4,3-4.5,4.7-6.8c-2.4-1.8-5.5-2.3-5.1-5.8
	c0.1-0.4-1.2-1-1.8-1.5c-0.4,0.5-1,1-1.1,1.6c-0.2,3.7-3.4,6.2-4.1,9.5c-0.8,3.6-3.4,6.3-4.5,9.3
	C561.3,791.5,559.2,789.6,557.6,791.2z M606.7,864.9c-4.2,1.1-4.9,4.2-5.7,7.1c-0.4,1.6-0.1,3.4-0.6,5c-1.8,5-3.8,9.9-5.7,14.8
	c-0.9,2.4-2.1,4.7-2.6,7.1c-1,5.6-2.6,10.8-5.3,15.8c-1.5,2.6-2.7,5.4-3.7,8.2c-0.9,2.5,0,5.2,2.8,6.6c1.5,0.7,1.4,1.5,1.7,2.6
	c0.1,0.7,0.8,1.6,1.4,2c5.1,3.2,5,3.2,8.1,7.3c2.4,3.2,4.9,6.3,7.9,10.1c0.8-6,1.5-11,2-16c0.2-2.3,0-4.6-1.1-7
	c-0.6-1.3,1.9-4,2.6-6.1c0.4-1.1,0.1-2.5,0.1-3.7c0-1.5-0.2-3,0-4.5c2-9.9,1.7-12,0.2-22c-0.4-2.9-2.7-6-0.3-9.3
	c0.6-0.8,0.5-2.7,0-3.6C606.1,874.9,607.5,870.2,606.7,864.9z M355.3,1047.8c0.8,4.7,0.1,8.8,1.4,13.3c1.7,5.9-0.6,12.4-2.3,18.3
	c-1.1,3.7,2.5,6.3,1.3,9.7c0,0.1,0.7,0.5,1.2,0.6c4.6,1,8.9,2.7,13.8,0.2c2.5-1.3,5.7-2.3,9-1.8c3.1,0.4,4.2-1.1,4.3-4.4
	c0.1-7,0-14,0-20.9c0-1.7-0.7-4,0.1-5.1c2.6-3.7,0.8-7.5,1.4-11.6c-5.2,0.6-9.7,1.4-14.2,1.7C366.3,1048,361.3,1047.8,355.3,1047.8z
	 M498.3,825.2c8.3-8.5,13.6-19,21.8-27.2c4.6-4.6,8.4-9.9,12.6-14.9c1.1-1.3,2.7-2.3,3.6-3.7c4.3-6.6,9.4-12.7,14.5-18.5
	c4.9-5.5,9-11.8,15.5-16.1c3.9-2.6,6.4-7.2,11.5-8.4c1-0.2,2-1.5,2.6-2.6c0.6-1.2,1.3-2.9,0.9-3.9c-0.4-1.1-2.1-2-3.4-2.2
	c-4.9-0.7-9.6,0.6-14.3,1.5c-0.6,0.1-1.3,0.6-1.5,1.1c-2.1,4-4.9,7.1-8.5,9.9c-3.6,2.7-5.7,7.4-9.2,10.2c-3.9,3-5.3,7.5-7.4,11.3
	c-2.3,4.2-6.3,7.3-7.7,11.7c-2.3,7.1-7.7,11.8-11.7,17.6c-1.9,2.7-5.7,4.1-6.4,7.8c-3.9,0.7-4.6,4.5-6.7,6.8
	C499.8,810.7,496,816.5,498.3,825.2z M262.7,951.9c5.1,0.5,9.9-0.2,14.6,1.5c3.1,1.1,4.9-0.9,4.8-4.4c-0.4-16.4,1.4-32.8-2.1-49.3
	c-0.9,0-2.1,0.3-2.8-0.1c-4.9-2.5-9.1-2.4-12.9,2.1c-0.7,0.8-2,1.1-3.1,1.6c-0.6,7.3,2.1,14.3,1.6,21.7
	C262.3,933.9,262.7,942.8,262.7,951.9z M427.2,1007.3c-2.6,0.6-4.6,1.4-6.6,1.5c-1.3,0.1-2.6-1.3-3.8-1.3c-1.3,0-2.5,1.3-3.9,1.3
	c-4.2,0.2-8.4,0.3-12.7,0c-3.3-0.2-6.1,0.6-8.4,2c1,8.9,1.9,17.6,2.9,26.4c3.5,0.5,7-0.8,10,1.5c0.5,0.4,1.9,0,2.8-0.3
	c4.5-1.6,9-3,13.8-2.6c1.9,0.1,3.8,0,5.9,0C427.2,1026.2,427.2,1017.1,427.2,1007.3z M586.8,821.8c-6.3,6.3-11.9,12.9-15.8,21
	c-1.5,3.1-4,5.9-6.4,8.6c-4.8,5.5-9.8,10.9-14.8,16.3c-0.3,0.4-0.9,0.6-1,1.1c-1.2,3.7-4,5.6-7.3,7.4c-1.7,0.9-3.8,2.4-3.5,5.2
	c0.1,0.7-0.7,1.8-1.4,2.4c-2.3,2.2-3.7,4.8-4.8,7.8c-0.6,1.7-1.7,3.6-3.2,4.6c-2.8,1.8-3.4,5.4-6.6,7.1c-3,1.5-4.3,5.2-7.3,7.2
	c-2.5,1.7-4.6,4.2-6,7.2c-1,2.1-3,3.7-4.1,5.8c-1,1.9-2.2,3.2-4,4.2c1.1,4-2.6,2.9-4.2,4.1c-0.6,0.5-0.3,2.2-0.4,3.8
	c2.5,0,5,0.7,6.8-0.2c2.5-1.1,5.4-3,6.6-5.3c2.4-4.6,6.7-7.1,9.8-10.9c3.1-3.7,6.3-7.4,9.5-11c3.3-3.9,6.7-7.7,10-11.6
	c0.6-0.7,0.7-1.7,1.1-2.5c0.7-1.7,1.2-3.6,2.2-5.1c1.1-1.6,2.8-2.8,4.1-4.3c0.9-1.1,1.5-2.4,2.4-3.5c4.3-5.9,8.4-12.1,13.1-17.7
	c4.9-5.8,9-12.1,12.7-18.7c4.2-7.4,7.7-15.3,14.8-20.7C588.3,823.3,587.6,822.6,586.8,821.8z M493.8,1024.8c-1,1.3-1.7,2.8-2.9,3.5
	c-5,3.3-8.5,8.4-13.9,11.1c-0.8,0.4-1.6,1.5-1.6,2.2c0.2,3.1-0.9,6.3,0.8,9.4c0.6,1,0.2,2.7,0,4c-0.1,0.6-1,1.5-0.9,1.8
	c2.6,4.6,1,9.6,1.4,14.4c0.2,2.8,0,5.6,1.4,8.4s2.6,3.5,4.9,1.4c1.5-1.3,2.6-3.3,4.3-4.1c7.4-3.6,8.5-10.2,8.8-17.2
	c0.2-6.7,0-13.5,0.1-20.2C496.3,1034.8,496.4,1030,493.8,1024.8z M436.5,1034.4c4.9,0,9.1,0.1,13.3-0.1c1.8-0.1,4.3-1.9,5.2-1.2
	c3.8,2.9,6.7,0.4,9.7-0.8c0.6-5,1.3-9.7,1.6-14.5c0.3-4.9,0.1-9.8,0.1-15c-3.9,0.5-7,0.1-10.4,1.4c-4.4,1.7-9.3,2.2-14.2,1.7
	c-1.7-0.2-3.3,0-5.1,0C436.5,1015.6,436.5,1024.7,436.5,1034.4z M385.5,1012.1c-8.4-1.3-15.7,2.2-23.3,1.3c-2.1-0.2-4.3,0-7.3,0
	c1.8,3.6-0.7,6.9,2.1,9.8c0.8,0.8,0.8,3.4,0,4.3c-2.8,3.4-1,7.2-1.3,10.7c-0.2,2.7,2.9,5,4.9,3.5c2.4-1.7,4.7-1.5,7-1.2
	c4.3,0.4,8.9-1.8,12.9,1.3c0.3,0.2,1.4-0.2,1.9-0.6c3-2.2,3.2-3.2,2.1-7.2c-0.3-1.1-0.7-2.9-0.2-3.4c1.6-1.4,1.2-3.1,1.3-4.8
	C385.5,1021.3,385.5,1016.9,385.5,1012.1z M469.3,722.6c-5.4-4.7-7.1-5-12.5-2.5c-1,0.5-2.1,1.4-3.1,1.4c-2.1,0-3.5,0.7-5.2,2.1
	c-9.5,7.4-20.3,13.2-27.6,23.3c-1.7,2.3-4.5,2.6-6.6,3.9c-3.9,2.4-6,7.1-10.6,8.8c-1.3,4.5-5.2,7.3-7.9,10.8
	c-3.1,3.9-7.2,6.9-10.4,10.7c-2,2.4-3,5.7-4.3,8.6c-0.2,0.5,0.1,1.6,0.5,2c0.4,0.3,1.5,0.4,1.9,0c3.5-2.4,6.4-5.6,9.3-8.6
	c1.8-1.8,2.7-3.8,5.5-5.1c4-1.8,7.7-5.2,10.5-8.8c4.6-5.9,9.3-11.7,14.5-17.1c5.4-5.6,11.2-11.1,17.4-15.8
	c5.6-4.3,11.5-8.5,19.4-7.2C464.9,729.8,468.1,727.4,469.3,722.6z M306.1,950.4c0-1.4,0.4-2.8-0.1-3.7c-2.1-4.1-1.3-8.5-1.4-12.8
	c-0.1-6.5,0-12.9,0-19.4c0-1.5,0.6-3.6-0.1-4.4c-2.8-2.9-0.4-5.6,0.3-8.4c-2.3-0.4-4.8-0.1-5.9-1.2c-2.6-2.5-3.8,1.9-5.8,0.7
	c-0.9-0.5-2-0.8-3.4-1.4c0,5.6-0.2,11,0.1,16.4c0.2,4.5-0.4,9,1.2,13.6c1.3,3.8,1.3,8.7-0.1,12.4c-1.1,3-0.7,5.5-1,8.1
	C295.5,950.4,300.6,950.4,306.1,950.4z M518.7,1008.1c-3.1,3.4-5.7,5.5-9,6.9c-3.1,1.3-4.9,3.6-4.5,7.4c0.3,3.5-0.1,7,0.1,10.4
	c0.5,8.9,1.2,17.9,1.9,27.3c4.1-4.1,7.9-7.9,11.7-11.7c0.6-0.6,1.5-1.8,1.3-2.4c-1.9-4.9-1.9-9.7,0.1-14.5c0.1-0.2,0.1-0.6,0-0.7
	c-2.6-2.4-1.3-5.6-1.4-8.4C518.5,1018.1,518.7,1013.6,518.7,1008.1z M474.1,1031.5c1-0.2,1.8-0.2,2.3-0.6c3.9-3.3,7.7-6.7,11.6-10
	c2.2-1.8,5.5-3.1,6.5-5.4c1.1-2.8,0.3-6.4,0.3-9.6c-0.1-3.2-1.2-4.4-4.3-4.5c-5.4-0.1-10.9,0-16.4,0
	C474.1,1011.6,474.1,1021.4,474.1,1031.5z M614.6,953.8c5.1-1,6.5-5.6,9.7-8c3.5-2.8,6.8-6.1,9.2-10.2c2.1-3.6,5.3-6.5,8.7-10.5
	c-3,0-6.1-0.9-7.2,0.2c-2.6,2.5-6.1-0.1-8.2,1.9c-3.1,3-5.2-1.5-8-0.7c-0.9,0.3-1.8,0.2-2.5,0.3c-0.2,3.6,0.4,7.1-0.9,9.8
	c-1.5,3.2-0.6,5.4,0.6,8C613.8,947.3,614.6,950.4,614.6,953.8z M214.3,1014.9c-8.8-5.1-13.4-12.3-17.8-18.6
	c-7,7-14.3,14.3-21.5,21.5c2.3,0,5.6,1,7.5-0.2c2.9-1.9,6,0,8.4-1.3c3.1-1.7,6.1-1.3,9.1-1.3
	C204.3,1014.8,208.5,1014.9,214.3,1014.9z M536.7,992.5c-2.8,2.7-4.9,5.5-7.7,7.3c-2.2,1.4-3.2,2.8-2.9,5.2c0.5,3-1.5,6.4,1.4,9.1
	c-1.8,3.1-1.4,6.5-1.4,9.8c0,0.9,0.1,2,0.5,2.7c1.9,3.2,1.7,7.2,0.6,9.9c-1.3,3.1-0.7,5.5-1.2,8.9c1.2-1.2,1.7-1.9,2.3-2.1
	c4.4-1,5.4-4,5.3-8.2c-0.2-6.2-0.1-12.4,0-18.6c0-1.4-0.2-3.1,0.4-4.3C537.8,1006,536.3,999.3,536.7,992.5z M526.2,990.9
	c2.8-2,5.3-3.6,7.7-5.5c1.1-0.9,2.1-2.1,2.7-3.3c0.7-1.4-0.3-14.3-1.2-17.8c-2.7,3.2-5.7,5.2-7.6,8.3c-0.8,1.3-1.4,3-1.5,4.6
	C526,981.7,526.2,986.2,526.2,990.9z M518.4,988.1c-3.4,6.1-8.2,10.3-14.8,12.3c0.5,3-0.5,6,1.1,9.2c5-4.2,9.6-8,13.8-11.4
	C518.4,994.5,518.4,991.3,518.4,988.1z"/>
<path class="st1" d="M307.7,971.8c-0.5,2.3,0.7,4.4-1.1,6.1c-0.4,0.4,0,1.7,0.1,2.5c0.2,0.9,1,2,0.8,2.6c-2,4.9-2,9.7,0,14.5
	c0.2,0.6-0.6,2.4-0.9,2.3c-2.9-0.2-2.9,2.9-3.3,4c-0.6,1.8-0.4,4.3-2.4,4.9c-2,0.6-4.4,0.3-6.5-0.2c-5.3-1.3-7.8-1.4-12.6,0
	c-1.4,0.4-2.8,0.5-4.3,0.5c-5,0.1-10,0-15,0c-1.4,0-2.8,0.3-4.3,0.6c-1.4,0.2-3.1,1.2-4,0.6c-1.5-1-2.7-2.8-3.6-4.4
	c-0.3-0.6,0.2-2.5,0.6-2.6c4.5-1.1,2.3-3.9,1.6-6.2c-1.5-5.4-4.4-10.5-3.8-16.4c0.3-3.3,2.6-6,5.8-6.1c3-0.1,6,0.1,9-0.1
	c4.1-0.3,8.3,1.2,12.1-1.4c0.7-0.5,2.2,0.3,2.9-0.1c2.9-2,4.7,2.9,8.1,0.7c2.1-1.4,5.7-0.7,8.7-0.6c3,0.2,5.6-0.9,8.4-1.5
	C305.3,971.3,306.5,971.7,307.7,971.8z M259.4,1001.4c4,0,7,0,9.9,0c3,0,6.8,1.1,8.8-0.3c2.9-2,5.9,0,8.3-1.8
	c2.7-1.9,5.7-0.6,8.6-0.9c2.2-0.3,3.6-1.4,3.6-3.7c0.1-4.7,0-9.3,0-14.3c-2.9,0-5.3-0.2-7.8,0c-3,0.3-6,1.2-9.1,1.4
	c-3.2,0.3-6.5,0-9.7,0.1c-4.1,0-8.3-0.1-12.4,0.1c0,3.9-0.7,7.4,0.2,10.3C260.9,995.4,262.2,998,259.4,1001.4z"/>
<path class="st1" d="M343.9,962.2c1.7,0.5,3.5,0.5,4.2,1.3c1.3,1.8,2.6,4,2.8,6.2c0.4,4.4,0,8.9,0.2,13.4c0.1,2.3-1,4.9,1.2,7
	c0.3,0.3-0.3,1.7-0.6,2.5c-1.4,3.4,0.7,8.2-4.7,10.1c-0.7-1.2-1.7-2.7-2.6-4.2c-0.6-1-0.9-2.6-1.6-2.9c-4-1.4-3.8-3-2.5-7
	c1.2-3.8,2.4-8.2,2.1-12.7C341.9,971.7,343.2,967.4,343.9,962.2z"/>
<path class="st1" d="M319.6,967c1.6,0.7,2.5,1.4,3.3,1.4c3.3,0,4.2,1.8,4.2,4.7c-0.1,4.2,0,8.5,0,12.7c0,1.5-0.6,3.4,0.2,4.4
	c4.3,5.5-1.4,8.2-3.2,11.8c-1,2-2.7,0.6-4.6-1.2c-2.5-2.4-0.5-5.5-2.6-8.1c-1.2-1.4-0.3-4.8,1-7.5c1.2-2.6,0.1-6,1.5-9.1
	C320.5,973.7,319.6,970.3,319.6,967z"/>
<path class="st1" d="M362.1,968.5c1.5,0,3,0.1,4.5,0c2.4-0.1,3.9,1.4,3.8,3.4c-0.3,6.1,0.7,12,1.6,18c0.6,3.7-0.1,6.6-4.3,7.8
	c-1.2,0.4-2.1,1.8-3.3,2.8c-2.8-2.5,0.2-6.2-2.4-8.3c-0.6-6.4-1.4-12.8-1.8-19.3C360,971.7,361.2,970.4,362.1,968.5z"/>
<path class="st1" d="M405.3,818.3c-0.2,4.7-1.9,8.6-4,12.8c-2.3,4.5-5,8.5-8.2,12.3c-3.7,4.5-8.8,6.1-14.2,5.3
	c-5.4-0.8-10.2-3.5-13.9-7.7c-1.1-1.3-2-3.4-1.9-5.1c0.4-7,1.6-13.9,4-20.7c2.3-6.6,8-7.6,13.1-9.7c2-0.8,4.6-1.2,6.8-1.4
	c6.8-0.7,12.8,1.8,16.9,7.3C405.2,813.1,404.9,816,405.3,818.3z M395.7,830.4c1-3.3-1.1-6.6,1.6-9.5c0.7-0.8,0-2.9,0.1-4.4
	c0.1-2.1-1.2-3-2.9-3.7c-3.9-1.6-7.9-1.5-12-1.6c-3.9-0.1-6.2,1.4-7.7,5.1c-1.3,3.2-3,6.3-2.9,10c0,1.9-0.6,3.6-1.2,5.4
	c-1.2,3.7,1.6,6.3,4.9,8.1c1.6,0.8,3.1,1.9,4.7,2.9c1.7-2.2,4.9-1.2,6.8-3.6C389.7,835.8,393,833.1,395.7,830.4z"/>
<path class="st1" d="M263,1067.7c2,3.6,3.8,6.9,5.7,10.1c0.5,0.8,1.1,1.6,1.6,2.3c2.3,3.2,0.6,7.4-3.4,8.1c-0.2,0-0.5,0-0.7,0
	c-8.8,0-17.4,2.3-26.3,1.6c-2.5-0.2-4.6-1.1-6.7-2c-2.3-1.1-2.7-4.9-1.3-7c1.2-1.8,3.8-2.5,3.8-5.2c5.3-1.8,2.9-7.8,5.9-10.9
	c0.4-0.4,0.4-1.7,0-2.2c-2.3-3.1-1.1-6.6-1.4-9.9c0-0.5,0-1,0-1.5c-0.2-2-3-3.8-1.1-5.9c3.1-3.5,4.8-8.4,9.9-10
	c3.5-1.1,6.9-2,10.2,0.7c1,0.8,2.6,1.1,3.9,1.3c3.1,0.7,4.9,2.5,5.6,5.6c0.4,1.8,1.2,3.5,1.4,5.4c0.6,5.4-1.3,10.2-4,14.8
	C265.2,1064.7,264.1,1066.2,263,1067.7z M259.9,1080.4c-0.3-1-0.2-1.9-0.6-2.3c-4.4-4.4-5.3-9.1-2.6-15c1.6-3.5,1.3-8.2,3.3-11.3
	c2.4-3.6,0.1-5.5-1.5-7.3c-1.3-1.4-3.9-2-6-2c-2.7-0.1-3.1,3-4.6,4.6c-0.5,0.6-0.1,1.9-0.1,2.9c0,3.5-0.2,7,0,10.5
	c0.5,6.4-0.2,12.5-4.5,17.6c-0.5,0.6-0.9,1.4-1.5,2.3C248,1080.4,253.8,1080.4,259.9,1080.4z"/>
<path class="st1" d="M593.4,851.2c0.3,5.8,0.7,10.5-5.4,13.1c-1.2,0.5-2,2.5-2.6,4c-1.7,4.2-6.5,6.2-7.1,11.3
	c-0.3,2.9-5.1,2.9-6.3,6.2c-0.2,0.6-3.5,0.1-6.2,0.1c7.9-11.9,17-21.9,24.6-33.1C590.8,852.1,591.9,851.9,593.4,851.2z"/>
<path class="st1" d="M442.3,829.2c0.8-3.9-1.1-8.5,1.3-13.1c0.8-1.6,1.1-3.5,2.6-4.9c0.7-0.7,1.6-1.3,2.1-2.1
	c3.4-6,9.1-8.5,15.9-6.5c3.3,1,6.5,2.4,9.7,3.6c4,1.5,6.2,3.9,6,8.7c-0.1,4.3-1.5,8.8,1.4,12.8c-1.7,3-1.8,6.7-4.1,9.5
	c-1.4,1.6-2.2,4.4-3.8,4.9c-2.2,0.8-2.4,2.5-3.5,3.8c-3,3.5-10.9,5.4-15.2,3.7c-2.1-0.8-4.3-1.8-6.3-2.7c-3.4-1.5-6.7-4.1-6-9
	C442.7,835.3,442.3,832.5,442.3,829.2z M448.3,829.3c0,2.7-0.1,4.7,0,6.7c0.1,1.9,2.6,5.2,4.3,5.3c3.6,0.1,7.2,0.6,10.4-1.9
	c1.5-1.2,3.1-2.2,4.7-3.2c3.7-2.3,6.3-5.2,6.1-10c-0.1-1.6,0-3.1,0.9-4.8c1.6-3,0.6-5.6-2.4-7.5c-3.5-2.2-7.5-3.6-11.8-4.1
	c-4.9-0.6-7.9,2.5-9.1,5.9C450,820.2,446.6,824.6,448.3,829.3z"/>
<g>
	<path class="st2" d="M640.1,266c-0.3-4.9-1-9.7-2-14.5c-1.4-6.7-3.3-13.2-5.7-19.5c-3-7.8-6.8-15.1-11.3-22.1
		c-2.2-3.4-4.6-6.7-7.2-9.8c-2.2-2.7-4.5-5.4-7-7.8c-1-1-1.9-0.9-2.9,0.1c-1.1,1.2-1,2.3,0.5,3.7c2.5,2.4,4.8,5.1,6.9,7.9
		c1.9,2.4,3.8,4.9,5.5,7.5c1.9,2.9,3.8,5.9,5.5,9c2.4,4.3,4.4,8.8,6.1,13.4c1.9,5.2,3.7,10.5,4.8,16c0.6,3.1,1.3,6.2,1.7,9.3
		c0.3,2.4,0.5,4.8,0.7,7.2c0.2,2.2,0.4,4.5,0.4,6.7c0,2.3,0,4.6-0.2,6.9s-0.2,4.6-0.5,7c-0.1,0.4,0.1,0.9-0.1,1.3
		c-0.2,1.3-0.3,2.6-0.5,3.8c-0.3,1.4-0.2,2.8-0.8,4.1c-0.2,0.4,0.1,0.9-0.2,1.3c-0.7,2.8-1.2,5.6-2.1,8.3c-1.3,3.9-2.6,7.8-4.2,11.5
		c-1.3,2.9-2.7,5.9-4.2,8.7c-2.9,5.2-6,10.3-9.7,15c-1.8,2.3-3.7,4.7-5.6,6.9c-2.3,2.6-4.8,5.1-7.3,7.5c-2.6,2.4-5.2,4.8-8,6.9
		c-2.1,1.5-4.1,3.1-6.2,4.5c-3.2,2.2-6.5,4.2-9.9,6.1c-4.6,2.4-9.3,4.5-14.1,6.4c-0.4,0.1-0.7,0.2-1.1,0.1c2.3-2.1,4.5-4.2,6.7-6.3
		c5.4-4.9,10.8-9.8,16.1-14.6c3.3-3,6.5-5.9,9.7-8.9c0.9-0.8,0.9-2.3,0.2-3.2c-0.8-0.9-2-1-2.9-0.2c-1.4,1.3-2.8,2.6-4.1,3.8
		c-2,1.8-4,3.6-5.9,5.4c-3.4,3.1-6.7,6.2-10.1,9.2c-2.9,2.6-5.8,5.3-8.7,7.9c-2.7,2.4-5.4,4.8-8,7.4c-1.7,1.7-1.3,3.4,0.9,4.3
		c1.5,0.6,3,1.2,4.5,1.8c2.5,1,5,1.8,7.4,2.9c3.1,1.4,6.3,2.3,9.4,3.7c2.4,1.1,4.9,1.7,7.3,2.8c3.1,1.4,6.2,2.5,9.3,3.7
		c2.9,1.2,5.9,2.3,8.8,3.5c2.6,1,5.2,2.1,7.8,3.1c1.1,0.4,2.2-0.1,2.6-1.1c0.6-1.3,0.3-2.1-0.9-2.9c-1-0.6-2.2-0.8-3.3-1.3
		c-3.5-1.4-7-2.8-10.6-4.2c-4.2-1.7-8.4-3.4-12.6-5.1c-4.1-1.6-8.2-3.2-12.2-4.8c-2.6-1-5.3-2.1-7.9-3.2c0.3-0.1,0.5-0.3,0.8-0.4
		c2.7-1,5.3-2.1,7.9-3.4c5.2-2.5,10.3-5.4,15.1-8.6s9.2-6.7,13.5-10.5c3-2.7,5.8-5.6,8.6-8.6c6-6.5,11.1-13.5,15.4-21.2
		c2.7-4.7,5-9.5,6.9-14.6c1.5-4,2.8-8,3.9-12.1c1.1-4.1,1.8-8.2,2.5-12.4c0.4-2.5,0.6-5.1,0.8-7.6c0.3-2.7,0.4-5.4,0.4-8.1
		C640.6,272.5,640.3,269.3,640.1,266z"/>
	<path class="st2" d="M514.4,391.8c-1.1-0.3-2.2-0.7-3.3-1.1c-3.4-1-6.8-2.1-10.2-3.1c-1.8-0.5-3.7-0.9-5.4-1.6
		c-1.2-0.5-2.5-0.6-3.6-1.3c0.1-0.1,0.1-0.2,0.2-0.3c5.7-3.7,11.4-7.3,17.1-11c0.6-0.4,1.1-0.8,1.3-1.5c0.5-1.4-0.2-2.5-1.2-3.3
		s-2.4-0.8-3.5,0c-0.3,0.2-0.6,0.5-0.9,0.7c-3.8,2.1-7.3,4.7-10.9,6.9c-1.9,1.1-3.6,2.5-5.8,3.5c0.3-1.5,0.5-2.9,0.7-4.2
		c0.2-1.1,0.2-2.3,0.7-3.3c0.2-0.4-0.1-0.9,0.2-1.3c0-0.1,0-0.2,0.1-0.2c0.2-0.4-0.1-0.9,0.2-1.3c0-0.1,0-0.2,0.1-0.2
		c0.2-0.4-0.1-0.9,0.2-1.3c0-0.1,0-0.2,0.1-0.3c0.2-0.4-0.1-0.9,0.2-1.3c0-0.1,0-0.2,0.1-0.3c0.2-0.4-0.1-0.9,0.2-1.3
		c0-0.1,0.1-0.2,0.1-0.3c0.1-0.4-0.1-0.9,0.2-1.3c0-0.1,0.1-0.2,0.1-0.3c0.1-0.4-0.1-0.9,0.2-1.3c0.4-2.2,0.8-4.3,1.2-6.5
		c0.3-1.5,0.6-3.1-0.8-4.3c-0.9-0.7-2.1-1-3.2-0.5c-1.2,0.5-1.9,1.6-2.1,2.9c-0.3,1.9-0.6,3.7-0.9,5.6c-0.4,2.7-0.8,5.4-1.4,8
		c-0.2,0.4,0,0.9-0.2,1.3c0,0.1,0,0.1,0,0.2c-0.2,0.4,0.1,0.9-0.2,1.3c0,0.1,0,0.2-0.1,0.2c-0.2,0.4,0.1,0.9-0.2,1.3
		c0,0.1,0,0.2-0.1,0.2c-0.2,0.4,0.1,0.9-0.2,1.3c0,0.1,0,0.2-0.1,0.2c-0.2,0.4,0.1,0.9-0.2,1.3c-0.5,0.6-0.7-0.1-0.9-0.3
		c-3.7-4.4-7.4-8.9-11.1-13.3c-1-1.2-2.2-2.2-4-1.7s-3.2,2.8-2.2,4.1c1.3,1.8,2.6,3.5,4.1,5.1c1.8,1.9,3.4,4,5.1,6
		c1.3,1.5,2.6,3,3.9,4.5c0.6,0.7,1.2,1.5,1.8,2.3c-0.5,0-0.9-0.2-1.3-0.3c-3.3-1-6.6-1.9-9.8-2.9c-3.6-1.2-7.2-2.3-10.8-3.4
		c-1.5-0.4-3.7,1-4,2.6c-0.2,1.4-0.2,2.6,2.1,3.2c2.7,0.8,5.4,1.7,8.1,2.5c2.9,0.9,5.8,1.6,8.6,2.6c1.5,0.5,3.2,0.8,4.8,1.6
		c-0.7,0.4-1.4,0.8-2,1.2c-2.5,1.7-5,3.4-7.6,5c-1.2,0.7-2.4,1.3-3.2,2.5c-0.1,0.6-0.1,1.2-0.1,1.8c0.4,1.7,2.5,3,4.3,2
		c2.1-1.1,4-2.5,6-3.8c1.7-1,3.2-2.3,5.1-3.2c-0.4,1.9-0.7,3.7-1.1,5.5c-0.2,0.4,0.1,0.9-0.2,1.3c0,0.1,0,0.2-0.1,0.2
		c-0.2,0.4,0.1,0.9-0.2,1.3c0,0.1,0,0.2-0.1,0.2c-0.2,0.4,0.1,0.9-0.2,1.3c0,0.1,0,0.2-0.1,0.2c-0.2,0.4,0.1,0.9-0.2,1.3
		c0,0.1,0,0.2-0.1,0.2c-0.2,0.4,0.1,0.9-0.2,1.3c0,0.1-0.1,0.2-0.1,0.3c-0.1,0.4,0.1,0.9-0.2,1.3c0,0.1-0.1,0.2-0.1,0.3
		c-0.1,0.4,0.1,0.9-0.2,1.3c-0.3,1.5-0.5,2.9-0.8,4.4c-0.4,1.8,0.3,3.3,1.8,3.8c1.9,0.6,3.8-0.6,4.1-2.1c0.4-1.9,0.7-3.9,1.1-5.8
		c0.4-1.8,0.5-3.7,1.1-5.5c0.2-0.4,0-0.9,0.2-1.3c0-0.1,0-0.1,0-0.2c0.2-0.4,0-0.9,0.2-1.3c0-0.1,0-0.2,0.1-0.2
		c0.2-0.4-0.1-0.9,0.2-1.3c0-0.1,0-0.2,0.1-0.2c0.2-0.4-0.1-0.9,0.2-1.3c0-0.1,0-0.2,0.1-0.2c0.2-0.4-0.1-0.9,0.2-1.3
		c0-0.1,0.1-0.2,0.1-0.3c0.1-0.4-0.1-0.9,0.2-1.3c0-0.1,0.1-0.2,0.1-0.3c0.1-0.4-0.1-0.9,0.2-1.3c0.2-1,0.4-2,0.5-2.9
		c0.9-0.1,1.4,0.5,1.8,1c2.4,3,4.8,5.9,7.3,8.7c2.5,2.9,5.1,5.8,7.4,8.9c1.6,2.1,3.9,1.7,5.5,0c0.6-0.6,1-1.6,0.5-2.5
		c-0.4-0.7-0.9-1.3-1.4-2c-2.7-3.2-5.5-6.4-8.2-9.6c-0.3-0.6-0.1-0.8,0.5-0.5c0.2,0.1,0.4,0.2,0.6,0.3c3.5,1,7.1,1.9,10.6,3.2
		c1.5,0.5,2.6,0.2,3.8-0.6C516.4,395.6,516.8,392.5,514.4,391.8z"/>
</g>
<path class="st2" d="M492.1,202.7c0.8,0,1.6-0.1,2.4-0.1c0.6-0.2,1.3,0.1,1.9-0.2c0.7,0,1.4-0.1,2.1-0.1c0.7-0.2,1.5,0.1,2.2-0.2
	c0.6,0,1.3,0,1.9-0.1c0.6-0.2,1.3,0.1,1.9-0.2c0.6,0,1.2,0,1.8-0.1c0.6-0.2,1.3,0.1,1.9-0.2c0.6,0,1.2-0.1,1.9-0.1
	c0.5-0.2,1.1,0.1,1.7-0.2c0.6,0,1.2-0.1,1.8-0.1c0.5-0.2,1.1,0.1,1.7-0.2c0.6,0,1.2-0.1,1.8-0.1c0.5-0.2,1.1,0.1,1.6-0.2
	c0.5,0,1.1,0,1.6-0.1c0.5-0.2,1.1,0.1,1.6-0.2c0.5,0,1.1-0.1,1.6-0.1c0.5-0.2,1.1,0.1,1.6-0.2c0.5,0,1.1-0.1,1.6-0.1
	c0.5-0.2,1,0.1,1.4-0.2c0.5,0,1-0.1,1.6-0.1c0.5-0.2,1.1,0.1,1.6-0.2c0.4,0,0.9,0,1.3-0.1c0.5-0.2,1.1,0.1,1.6-0.2
	c0.4,0,0.9,0,1.3-0.1c0.4-0.2,0.9,0.1,1.4-0.2c1.3,0,2.3,0.3,2.6,1.7c0.3,1.5-0.4,2.7-1.8,3.4c-0.4,0.2-0.9-0.1-1.3,0.2
	c-0.4,0-0.9,0-1.3,0.1c-0.5,0.2-1-0.1-1.4,0.2c-0.5,0-1,0.1-1.6,0.1c-0.5,0.2-1-0.1-1.4,0.2c-0.5,0-1,0.1-1.6,0.1
	c-0.5,0.2-1.1-0.1-1.6,0.2c-0.4,0-0.9,0-1.3,0.1c-0.5,0.2-1.1-0.1-1.7,0.2c-0.5,0-1,0-1.6,0.1c-0.5,0.2-1.1-0.1-1.7,0.2
	c-0.5,0-1,0-1.6,0.1c-0.6,0.2-1.3-0.1-1.9,0.2c-0.5,0-1.1,0-1.6,0.1c-0.5,0.2-1.1-0.1-1.6,0.2c-0.6,0-1.2,0.1-1.8,0.1
	c-0.5,0.2-1.1-0.1-1.7,0.2c-0.6,0-1.2,0.1-1.8,0.1c-0.6,0.2-1.3-0.1-1.9,0.2c-0.6,0-1.2,0.1-1.9,0.1c-0.6,0.2-1.3-0.1-1.9,0.2
	c-0.6,0-1.2,0-1.8,0.1c-0.7,0.2-1.5-0.1-2.2,0.2c-0.6,0-1.2,0-1.9,0.1c-0.7,0.2-1.5-0.1-2.2,0.2c-0.7,0-1.4,0-2.1,0.1
	c-0.8,0.2-1.6-0.1-2.4,0.2c-0.7,0-1.4,0-2.1,0.1c-0.8,0.2-1.6-0.1-2.4,0.2c-0.8,0-1.6,0.1-2.4,0.1c-0.8,0.2-1.7-0.1-2.5,0.2
	c-0.9,0-1.8,0.1-2.7,0.1c-0.9,0.2-1.8-0.1-2.7,0.2c-0.9,0-1.8,0-2.7,0.1c-1.1,0.3-2.2-0.1-3.2,0.2c-1,0-2,0-3,0.1
	c-1.2,0.2-2.3-0.1-3.5,0.2c-1.2,0-2.3,0-3.5,0.1c-1.3,0.2-2.6-0.1-3.8,0.2c-1.4,0-2.8,0.1-4.2,0.1c-1.6,0.2-3.2-0.1-4.9,0.2
	c-1.9,0-3.8,0.1-5.6,0.1c-2.3,0.2-4.5-0.1-6.8,0.2c-3.7,0-7.3,0-11,0.1c-0.3,0.1-0.6,0.1-0.9,0.1c-12.1,0-24.3,0-36.4,0
	c-0.3,0-0.5,0-0.8-0.1c-2.4,0-4.8-0.1-7.2-0.1c-1.4-0.3-2.9,0-4.3-0.2c-1.1,0-2.1,0-3.2-0.1c-0.9-0.3-1.8,0-2.8-0.2
	c-0.7,0-1.4,0-2.1-0.1c-0.7-0.3-1.5,0-2.2-0.2c-0.5,0-1.1,0-1.6-0.1c-0.6-0.3-1.3,0-1.9-0.2c-0.4,0-0.9,0-1.3-0.1
	c-0.5-0.3-1.1,0-1.6-0.2c-4.8-0.4-9.6-0.9-14.3-2c-4.7-1-9.3-2.3-13.8-4.2c-3.7-1.6-7.3-3.4-10.6-5.7c-2.3-1.6-4.4-3.4-6.5-5.3
	c-4.9-4.4-8.7-9.6-11.6-15.4c-2.4-4.8-4-9.9-4.8-15.3c-0.1-0.9-0.1-1.9-0.3-2.8c-0.2-0.5,0.1-1.1-0.2-1.6c0-2.6,0-5.1,0-7.7
	c0.3-0.5,0-1.1,0.2-1.7c0.6-7.2,2.9-14,6.3-20.2c2.1-3.9,4.9-7.4,7.9-10.7c2.1-2.4,4.4-4.6,6.7-6.6c3.8-3.3,7.8-6.3,12.1-8.9
	c7.1-4.3,14.6-7.8,22.4-10.6c7.3-2.7,14.8-4.9,22.3-7c11.4-3.2,22.9-6,34.5-8.2c7.8-1.5,15.7-2.8,23.6-3.7c2-0.2,4-0.6,6.1-0.8
	c0.4-0.2,0.9,0.1,1.4-0.2c0.4,0,0.7,0,1.1-0.1c0.4-0.2,0.9,0.1,1.3-0.2c0.4,0,0.7,0,1.1-0.1c0.4-0.2,1,0.1,1.4-0.2
	c0.4,0,0.9-0.1,1.3-0.1c0.4-0.2,0.9,0.1,1.4-0.2c0.4,0,0.9,0,1.3-0.1c0.5-0.2,1.1,0.1,1.6-0.2c0.4,0,0.9,0,1.3-0.1
	c0.5-0.2,1.1,0.1,1.6-0.2c0.5,0,1.1-0.1,1.6-0.1c0.5-0.2,1.1,0.1,1.6-0.2c0.6,0,1.2-0.1,1.8-0.1c0.5-0.2,1.1,0.1,1.7-0.2
	c0.7,0,1.4-0.1,2.1-0.1c0.6-0.2,1.3,0.1,1.9-0.2c0.7,0,1.4,0,2.1-0.1c0.8-0.2,1.6,0.1,2.4-0.2c0.8,0,1.6,0,2.4-0.1
	c0.9-0.2,1.8,0.1,2.7-0.2c1.1,0,2.1-0.1,3.2-0.1c1.2-0.2,2.4,0.1,3.5-0.2c1.4,0,2.8,0,4.3-0.1c1.6-0.2,3.3,0.1,4.9-0.2
	c1.9,0,3.7-0.1,5.6-0.1c1.9-0.2,3.8,0,5.7-0.1c0.4,0,0.9,0.1,1.3-0.1c8.6,0,17.2,0,25.7,0c1.5,0.3,3,0.1,4.5,0.1
	c0.5,0,1-0.1,1.4,0.1c1.3,0,2.7,0,4,0.1c1.1,0.3,2.2,0,3.3,0.2c1,0,2,0.1,2.9,0.1c0.9,0.3,1.8,0,2.7,0.2c0.8,0,1.6,0.1,2.4,0.1
	c0.6,0.3,1.3,0,1.9,0.2c0.7,0,1.4,0.1,2.1,0.1c0.6,0.3,1.3,0,1.9,0.2c0.5,0,1.1,0,1.6,0.1c0.5,0.3,1.1,0,1.6,0.2
	c0.5,0,1.1,0.1,1.6,0.1c0.5,0.3,1.1,0,1.6,0.2c0.4,0,0.9,0,1.3,0.1c0.4,0.3,0.9,0,1.3,0.2c0.4,0,0.9,0.1,1.3,0.1
	c0.4,0.3,0.9,0,1.3,0.2c5.9,0.8,11.9,1.4,17.8,2.5c12,2.2,23.4,5.7,33.5,12.9c9.8,7,16.4,16.3,19.7,27.9c1.1,3.6,1.6,7.3,2.2,11.1
	c0.2,0.5-0.1,1.1,0.2,1.6c0,2.8,0,5.7,0,8.5c-0.3,0.5,0,1.1-0.2,1.6c0,0.4-0.1,0.9-0.1,1.3c-0.3,0.4,0,0.9-0.2,1.4
	c-0.8,4.3-1.6,8.7-3,12.9c-1.8,5.7-4.2,11.2-7.2,16.4c-4.1,7.2-9.2,13.7-15.3,19.4c-5.2,4.9-10.9,9.1-16.9,13
	c-6.4,4.1-13.1,7.7-19.9,10.9c-10.2,4.8-20.8,8.6-31.6,12c-11.8,3.7-23.7,7.2-35.8,9.9c-5.1,1.1-10.2,2-15.3,2.9
	c-3.6,0.6-7.3,1-11,1.4c-0.4,0.2-0.9-0.1-1.4,0.2c-0.5,0-1.1,0.1-1.6,0.1c-0.5,0.2-1-0.1-1.4,0.2c-0.6,0-1.2,0.1-1.8,0.1
	c-0.7,0.2-1.5-0.1-2.2,0.2c-0.7,0-1.4,0-2.1,0.1c-1.2,0.3-2.4-0.1-3.5,0.2c-4.3,0-8.6,0-12.9,0c-1.1-0.3-2.2,0-3.2-0.2
	c-0.8,0-1.6-0.1-2.4-0.1c-0.6-0.3-1.3,0-1.9-0.2c-0.5,0-1,0-1.6-0.1c-0.5-0.3-1.1,0-1.7-0.2c-4-0.3-8-0.9-12-1.4
	c-2.6-0.4-5.2-1-7.8-1.6c-1.2-0.2-1.7-1.4-1.4-3c0.2-1.3,1.3-2.3,2.4-2c3.5,0.8,7.1,1.5,10.7,1.9c2.1,0.3,4.1,0.8,6.2,0.7
	c0.4,0.3,0.9,0,1.4,0.2c0.4,0,0.9,0,1.3,0.1c0.4,0.2,0.9,0,1.4,0.2c0.6,0,1.2,0.1,1.8,0.1c0.6,0.3,1.3,0,1.9,0.2
	c0.8,0,1.6,0.1,2.4,0.1c1.1,0.3,2.2,0,3.3,0.2c3.7,0.1,7.4,0.1,11,0c1.2-0.2,2.4,0.1,3.5-0.2c0.8,0,1.6,0,2.4-0.1
	c0.7-0.2,1.5,0.1,2.2-0.2c0.5,0,1.1,0,1.6-0.1c0.5-0.2,1.1,0.1,1.7-0.2c0.5,0,1-0.1,1.6-0.1c0.4-0.2,0.9,0.1,1.4-0.2
	c1.2,0.1,2.3-0.2,3.5-0.3c0.4-0.2,0.9,0.1,1.4-0.2c3.4-0.2,6.7-0.8,10-1.4c7-1.2,13.9-2.7,20.8-4.5c15-4,29.7-8.7,44.2-14
	c6-2.2,11.9-4.8,17.7-7.6c7.2-3.5,14.1-7.5,20.6-12.1c2.6-1.8,5-3.9,7.4-5.9c2.8-2.4,5.4-5,7.9-7.8c5.6-6.2,10.2-13,13.3-20.9
	c1.6-4.1,3-8.3,4-12.6c0.7-3.2,1.3-6.4,1.3-9.6c0.2-0.5,0-1,0.2-1.4c0.2-2.2,0.1-4.3,0-6.5c-0.2-0.5,0-1-0.2-1.5
	c-0.1-3.3-0.8-6.4-1.5-9.6c-1.4-6-3.9-11.5-7.4-16.5c-3-4.3-6.9-7.9-11.2-10.9c-4.2-3-8.8-5.4-13.6-7.3c-6-2.3-12.3-3.9-18.7-4.9
	c-3.1-0.5-6.1-0.9-9.2-1.2c-2.9-0.3-5.8-0.6-8.7-0.6c-0.5-0.2-1,0-1.5-0.2c-1.2-0.1-2.4-0.2-3.7-0.1c-0.6-0.2-1.2,0-1.7-0.2
	c-1.6-0.1-3.2-0.2-4.7-0.1c-0.6-0.2-1.3,0-2-0.2c-1.6,0-3.2-0.1-4.7-0.1c-0.6-0.2-1.2,0-1.7-0.2c-1.3-0.1-2.6-0.2-3.9-0.1
	c-0.6-0.2-1.2,0-1.7-0.2c-1.6-0.1-3.2-0.2-4.7-0.1c-0.6-0.2-1.3,0-2-0.2c-1.9-0.1-3.9-0.3-5.8-0.1c-0.8-0.3-1.7,0-2.5-0.2
	c-2.8,0-5.7-0.3-8.5-0.1c-1.6-0.3-3.3,0-4.9-0.2c-5.4-0.1-10.8-0.1-16.2,0c-1.6,0.2-3.1-0.1-4.7,0.2c-2.6-0.2-5.1,0-7.7,0.1
	c-0.7,0.2-1.5-0.1-2.3,0.2c-1.7-0.1-3.3,0-5,0.1c-0.6,0.1-1.2-0.1-1.7,0.2c-1.2-0.1-2.4,0-3.7,0.1c-0.5,0.2-1,0-1.5,0.2
	c-1-0.1-2.1,0-3.1,0.1c-0.5,0.2-1,0-1.4,0.2c-3.4,0.1-6.8,0.4-10.2,0.7c-3.3,0.3-6.6,0.5-9.9,0.9c-5.4,0.6-10.7,1.2-16.1,2
	c-8,1.1-16,2.6-24,4.2c-7.3,1.5-14.6,3.3-21.8,5.2c-6.8,1.9-13.6,4-20.3,6.3c-9.1,3.1-18.1,6.5-26.6,11c-5.9,3.2-11.5,6.9-16.5,11.4
	c-7.7,7-13.3,15.2-16.4,25.2c-1.7,5.7-2,11.5-1.3,17.5c1.4,12,6.8,21.9,15.6,30.1c6.4,5.9,14,9.8,22.3,12.3c5,1.5,10.1,2.4,15.3,3
	c5.9,0.7,11.8,1.3,17.7,1.6c0.2,0,0.4,0,0.5-0.1c0.5,0.2,1,0,1.4,0.2c1.1,0.1,2.3,0.2,3.4,0.1c0.6,0.3,1.3,0,2,0.2
	c1.8,0,3.5,0.3,5.3,0.1c0.9,0.3,1.9,0,2.8,0.2c8.6,0.2,17.2,0.2,25.8,0c1.3-0.2,2.6,0.1,3.9-0.2c2.7,0.2,5.5,0,8.2-0.1
	c0.9-0.2,1.9,0.1,2.8-0.2c2.5,0.2,4.9,0,7.4-0.1c0.9-0.2,1.9,0.1,2.8-0.2c2.7,0.2,5.3-0.1,8-0.1c1-0.2,2.1,0.1,3.1-0.2
	c2.2,0.2,4.4,0,6.6-0.1c1.3-0.2,2.7,0.1,4-0.2c1.2,0,2.5-0.1,3.7-0.1c1.1-0.2,2.2,0.1,3.3-0.2c1.1,0,2.1-0.1,3.2-0.1
	c1-0.2,2,0.1,3-0.2c1,0,1.9-0.1,2.9-0.1c0.9-0.2,1.8,0.1,2.7-0.2c0.9,0,1.8-0.1,2.6-0.1c0.9-0.2,1.8,0.1,2.7-0.2
	c0.8,0,1.6,0,2.4-0.1c0.8-0.2,1.6,0.1,2.4-0.2c0.7,0,1.4,0,2.1-0.1C490.6,202.7,491.3,203,492.1,202.7z"/>
<g>
	<path class="st2" d="M343.6,122c0.7,2.3,0.9,4.6,0.5,7.1c-0.2,1.3-0.6,2.6-1.1,3.9c-0.1,0.1-0.3,0.5-0.6,1.2
		c-0.3,0.7-0.6,1.3-0.9,1.8c-0.2,0.6-0.5,1.2-0.7,1.9s-0.3,1.3-0.2,1.8c0.1,0.5,0.3,0.9,0.7,1.1c0.2,0.1,0.5,0.1,0.9,0.1
		s1.2,0.5,2.1,1.4c1,0.9,1.7,1.8,2.1,2.6s0.8,1.1,1.2,1c0.4-0.1,0.7-0.5,1-1.3c0.2-0.9,0.5-1.6,0.9-1.9c0.4-0.3,0.7-1,0.9-2
		c0.2-0.8,1-2.8,2.4-5.8c1.4-2.9,2-4.5,2-4.8s0.5-1.4,1.4-3.1c0.9-1.5,1.3-2.6,1.4-3.2c0-0.5,0.3-1.3,0.8-2.3
		c0.9-1.4,2.2-1.7,4.1-0.9c0.3,0.1,0.5,0.3,0.5,0.6c0.1,0.3,0,0.7-0.1,1.2s-0.3,1-0.5,1.6s-0.4,1.1-0.7,1.7s-0.6,1.1-0.8,1.6
		c-0.2,0.5-0.5,0.9-0.7,1.3s-0.3,0.6-0.4,0.7c-0.4,0.8-0.7,1.5-0.8,2c0,0.1-0.1,0.4-0.2,0.8c-0.1,0.4-0.2,0.7-0.3,0.9
		c-0.1,0.3-0.2,0.5-0.4,0.8s-0.4,0.6-0.6,0.9c-0.2,0.3-0.4,0.6-0.5,0.8c-0.4,0.7-0.8,1.8-1.4,3.2s-1,2.4-1.3,3
		c-0.1,0.2-0.2,0.4-0.4,0.8c-0.2,0.4-0.4,0.7-0.5,1s-0.3,0.6-0.4,1c-0.2,0.4-0.3,0.7-0.4,1s-0.1,0.6-0.1,0.9c0,0.6,0.7,0.9,2.1,0.8
		c0.3,0,0.6,0,0.9,0c1.9-0.2,3.6-0.9,5.3-1.9c1.7-1.1,2.7-1.8,2.8-2.1c0.2-0.4,0.9-0.5,1.9-0.5c0.9,0,1.5,0.3,2,0.8s0.6,1.2,0.3,2
		c-0.2,0.6-0.8,1.3-1.9,2.1s-2.4,1.6-4,2.2c-1.5,0.6-2.8,1-3.9,1.1c-1.5,0.2-2.5,0.4-2.8,0.8c-0.6,0.4-2.2,0.3-4.9-0.4
		c-0.4-0.1-0.9,0.3-1.4,1.3s-0.9,2.1-1.1,3.4c-0.3,1.1-0.6,1.8-0.8,2c-0.3,0.2-0.4,0.7-0.4,1.5c0,0.5-0.1,1-0.4,1.6s-0.6,1.1-1,1.5
		s-0.8,0.6-1.1,0.6c-0.4,0-0.9-0.4-1.5-1.1c-0.3-0.5-0.5-1.1-0.6-1.8c-0.1-0.6,0-1.7,0.1-3.3c0.2-2.6,0.1-4.1-0.2-4.6
		c-0.1-0.2-0.3-0.4-0.7-0.5s-0.9-0.2-1.4-0.3c-0.6-0.1-1.1-0.1-1.5-0.1s-1,0-1.7,0s-1.1,0-1.2,0c-0.8-0.1-1.3,0-1.5,0.2
		c-0.3,0.2-0.7,0.9-1.3,2c-0.8,1.6-1.5,3-1.8,4.4c-0.6,1.9-1.2,3.2-1.8,4c-0.6,0.8-1.3,1.2-2.2,1.2c-1,0-1.6-0.2-1.9-0.6
		c-0.3-0.4-0.3-1.1,0-2c0.8-3,1.6-5.1,2.2-6.5c0.1-0.3,0.6-1.1,1.4-2.4c0.8-1.3,1.2-2.4,1.4-3.2c0.2-0.7,0.3-1.6,0.3-2.8v-3.2
		l2.2-1.7c1.4-1,2.5-2.4,3.4-4.2c0.9-2,1.6-3.5,2.1-4.4c0.5-1.1,0.8-2.7,1.1-4.8c0.3-2.2,0.2-3.4-0.1-3.6c-0.3-0.2-0.9,0.7-1.9,2.6
		c-0.1,0.3-0.3,0.6-0.5,1c-0.8,1.5-1.4,2.6-1.9,3.4c-0.5,0.8-0.9,1.5-1.4,1.9c-0.4,0.5-1,0.9-1.6,1.3c-0.7,0.4-1.5,0.6-2.5,0.5
		c-0.9-0.1-1.7-0.4-2.2-1c-0.4-0.5-0.6-1.7-0.5-3.6c0.1-1.9,0.4-3.3,1-4.1c0.8-1.3,1.8-2.4,3.1-3.5c1.3-1.1,2.4-1.8,3.6-2.2
		c1.3-0.4,2.8-0.7,4.4-0.7s2.8,0.1,3.5,0.5C342.8,120.4,343.2,121,343.6,122z M330,129c0.4,0.4,0.8,0.4,1.4,0c0.5-0.4,0.9-1,1.2-1.8
		c0.5-1.2,0.4-1.8-0.2-1.8c-0.4,0.1-1,0.5-1.6,1.3C329.9,127.9,329.6,128.7,330,129z M340.6,147.5c0.4-0.1,0.5-0.3,0.5-0.6
		c-0.1-0.4-0.7-0.7-1.6-1.2c-0.9-0.4-1.5-0.5-1.8-0.3c-0.2,0.2,0,0.6,0.5,1.1C338.9,147.3,339.7,147.6,340.6,147.5z"/>
	<path class="st2" d="M381.9,153.6c0.6-0.5,1.2-0.7,1.6-0.6c0.5,0.1,0.7,0.5,0.7,1.3c0,0.3,0,0.5-0.1,0.8s-0.3,0.5-0.4,0.6
		c-0.1,0.2-0.3,0.4-0.6,0.6c-0.3,0.2-0.5,0.4-0.6,0.5c-0.2,0.1-0.4,0.3-0.7,0.5c-0.3,0.2-0.5,0.3-0.6,0.4c-0.7,0.4-1.4,0.8-2.1,1.1
		c-0.1,0-0.1,0.1-0.2,0.1s-0.2,0.1-0.3,0.1c-0.1,0-0.2,0.1-0.3,0.1c-0.1,0-0.2,0.1-0.3,0.1h-0.1c-1.7,0.7-3.5,1.1-5.5,1.2
		c-2,0.1-3.5-0.1-4.4-0.5c-0.1-0.1-0.6-0.3-1.3-0.6c-0.8-0.3-1.3-0.6-1.7-0.9c-0.6-0.4-1.3-1.3-1.8-2.7c-1.1-2.5-1.6-4.7-1.6-6.7
		c0-1.2,0.2-2.7,0.6-4.6c0-0.1,0.1-0.3,0.1-0.7c0.1-0.4,0.1-0.6,0.2-0.8s0.1-0.4,0.2-0.8c0.1-0.3,0.2-0.6,0.3-0.8
		c0.1-0.2,0.2-0.5,0.3-0.7c0.1-0.2,0.2-0.5,0.3-0.6c0.6-0.8,1.1-1.4,1.4-1.8c1.5-1.6,3.4-2.3,5.7-2.1c2.4,0.2,3.7,1,3.9,2.4
		c0.2,1.1,0.1,2.2-0.2,3.4s-0.7,2.1-1.1,2.9c-0.4,0.8-1,1.7-1.8,2.9s-1.3,2.1-1.7,2.8c-1.2,2.3-1.8,3.7-1.8,4.1c0,0.4,0.3,0.9,1,1.5
		c0.4,0.4,0.8,0.7,1.2,0.8c0.3,0.1,1,0,1.9-0.1c1.5-0.2,3-0.5,4.7-1c0.6-0.2,1.6-0.6,2.8-1.1C380.9,154.2,381.7,153.8,381.9,153.6z
		 M365.7,150.6c0.3,0,0.9-1.1,2.1-3.3c1.1-2.2,1.7-3.5,1.7-3.9c0-0.5-0.3-0.9-0.9-1c-0.6-0.2-1,0-1.4,0.4c-0.3,0.3-0.6,0.8-0.8,1.5
		c-0.3,0.7-0.5,1.4-0.7,2c-0.1,0.7-0.3,1.4-0.4,2s-0.1,1.2-0.1,1.6C365.3,150.4,365.5,150.6,365.7,150.6z"/>
	<path class="st2" d="M424.3,155.9c0.5-0.4,0.9-0.5,1.3-0.4s0.5,0.5,0.5,1.2c0,0.2,0,0.4-0.1,0.6s-0.2,0.4-0.3,0.5
		c-0.1,0.2-0.3,0.3-0.5,0.5s-0.4,0.3-0.5,0.4c-0.1,0.1-0.3,0.2-0.6,0.4c-0.3,0.2-0.4,0.3-0.5,0.3c-0.6,0.4-1.1,0.6-1.7,0.8
		c0,0-0.1,0.1-0.2,0.1c-0.1,0.1-0.2,0.2-0.3,0.3c-0.1,0.1-0.3,0.1-0.6,0.2c-1,0.4-2.2,0.6-3.8,0.6c-1.5,0-2.5-0.2-2.9-0.5
		c-0.3-0.2-0.6-0.7-0.9-1.5s-0.5-1.4-0.6-1.9c-0.1-0.7-0.2-1.4,0-2.2c0.1-0.8,0.3-2,0.5-3.7c0-0.2,0-0.4,0-0.5s0-0.2-0.1-0.3
		s-0.2-0.1-0.3-0.1c-0.2,0-0.4-0.1-0.6-0.1c-0.3,0-0.8-0.1-1.4-0.3s-1-0.3-1.3-0.4v0.1c0,0.1-0.1,0.2-0.2,0.4c-0.8,2-1.7,3.7-2.7,5
		c-0.2,0.4-0.6,0.9-1.1,1.3c-0.2,0.2-0.4,0.4-0.5,0.5c-0.2,0.1-0.3,0.2-0.3,0.3l-0.1,0.1c-0.1,0-0.1,0-0.2,0.1c-0.1,0-0.1,0-0.1,0
		c-0.2,0.1-0.3,0.2-0.4,0.3c-0.6,0.5-1.3,0.9-2,1.1c-0.1,0-0.1,0.1-0.3,0.1c-0.1,0.1-0.2,0.3-0.3,0.4s-0.4,0.2-0.7,0.3
		c-0.6,0.4-1.5,0.6-2.7,0.7s-2.3,0.2-3.3,0.1c-1-0.1-1.6-0.2-1.9-0.4c-0.4-0.2-0.8-0.8-1.2-1.7c-0.4-0.9-0.7-1.6-0.8-2.2
		c-0.2-0.8-0.2-1.7-0.2-2.6c0.1-0.9,0.2-2.5,0.5-4.5v-0.6c0-0.1-0.1-0.2-0.2-0.3s-0.2-0.1-0.4-0.1c-0.2,0-0.4,0-0.7,0
		c-0.4,0-0.9-0.1-1.7-0.3c-0.7-0.2-1.3-0.3-1.6-0.3l-0.1,0.2c0,0.1-0.1,0.3-0.1,0.5c-0.5,1.3-1,2.5-1.5,3.6s-1,2-1.4,2.6
		s-0.8,1.1-1.2,1.6c-0.4,0.4-0.6,0.7-0.8,0.9l-0.3,0.2c-0.7,0.4-1.1,0.3-1.4,0c-0.3-0.4-0.3-0.9-0.3-1.5l0.1-0.9
		c0.5-0.3,1-1.3,1.5-2.8c0.2-0.7,0.4-1.5,0.7-2.5c0.4-1.2,0.9-2.6,1.6-4.3c0.1-0.2,0.2-0.6,0.4-1.1c0.2-0.5,0.4-0.9,0.5-1.1
		s0.2-0.6,0.4-1c0.2-0.5,0.3-0.8,0.4-1.1s0.2-0.6,0.3-1.1c0.1-0.4,0.2-0.8,0.2-1.2s0.1-0.8,0.1-1.2s0.3-1.2,0.8-2.4
		c0.6-1.2,1-1.9,1.3-2.1c0.4-0.3,1-0.3,1.8-0.3s1.2,0.2,1.4,0.5c0.3,0.4,0.3,2,0,4.9c-0.2,1.9-0.3,3.1-0.3,3.6c0,0.6,0.2,1,0.5,1.3
		s0.6,0.4,0.8,0.4c0.3,0,0.7-0.3,1.4-0.7c1-0.6,1.7-0.9,2.2-0.9c0.4,0,0.8,0.3,1.2,1c0.3,0.4,0.4,0.9,0.4,1.2c0,0.4-0.2,1.1-0.6,2.1
		c-0.5,1.5-1,3.2-1.5,5.1c-0.3,1.5-0.4,2.6-0.3,3.4c0.1,0.7,0.6,1.6,1.3,2.6c0.3,0.4,0.6,0.7,0.8,0.8c0.1,0,0.2,0,0.4-0.1
		c0.2-0.1,0.4-0.2,0.6-0.3s0.4-0.2,0.4-0.2c0.8-0.2,1.4-0.4,1.7-0.5c1.9-1.1,3.5-2.1,4.6-3.1c0.1-0.2,0.2-0.5,0.3-0.8
		c0.2-0.6,0.4-1.3,0.7-2.1c0.3-0.8,0.9-2,1.5-3.6c0.1-0.1,0.2-0.4,0.4-0.9c0.2-0.4,0.3-0.7,0.4-0.9s0.2-0.5,0.4-0.9
		c0.2-0.4,0.3-0.7,0.4-0.9s0.2-0.5,0.3-0.9c0.1-0.3,0.2-0.7,0.2-1s0.1-0.6,0.1-1s0.3-1,0.8-2c0.5-0.9,0.9-1.5,1.2-1.7
		c0.4-0.2,0.9-0.3,1.5-0.2s1,0.3,1.2,0.5c0.3,0.4,0.2,1.7-0.2,4.1c-0.3,1.5-0.4,2.5-0.4,3s0.1,0.9,0.3,1.2c0.3,0.3,0.5,0.4,0.7,0.4
		s0.6-0.2,1.2-0.5c0.9-0.4,1.5-0.6,1.8-0.6c0.4,0,0.7,0.3,1,0.9c0.2,0.4,0.3,0.7,0.3,1s-0.2,0.9-0.6,1.7c-0.5,1.3-1,2.7-1.4,4.3
		c-0.3,1.3-0.5,2.2-0.4,2.8s0.4,1.4,1,2.3c0.3,0.4,0.4,0.6,0.6,0.7c0.1,0,0.2,0,0.4,0c0.2,0,0.3-0.1,0.5-0.2
		c0.2-0.1,0.3-0.1,0.4-0.1c0.7-0.2,1.2-0.3,1.4-0.4C421.8,157.5,423.2,156.7,424.3,155.9z"/>
	<path class="st2" d="M450.1,153.2c0.5-0.4,1-0.6,1.4-0.5s0.6,0.4,0.6,1.1c0,0.1,0,0.3-0.1,0.4s-0.1,0.3-0.2,0.4
		c-0.1,0.1-0.2,0.3-0.3,0.4c-0.1,0.1-0.3,0.3-0.4,0.4s-0.3,0.2-0.4,0.4s-0.3,0.2-0.4,0.3s-0.3,0.2-0.4,0.3s-0.3,0.2-0.4,0.3
		c-0.5,0.4-1.1,0.7-1.7,0.9c-0.1,0-0.4,0.2-1,0.5l-0.2,0.3c-0.8,0.7-1.8,1.2-3.3,1.3c-0.9,0.1-1.6,0.1-2.1,0s-1.2-0.3-2-0.7
		c-1.3-0.6-2.1-1.1-2.6-1.5c-0.3-0.2-0.5-0.3-0.7-0.3s-0.6,0.3-1.1,0.7c-1.7,1.2-3.7,1.9-6.1,2.1c-2.4,0.2-3.9-0.3-4.6-1.4
		c-0.4-0.7-0.6-2.1-0.6-4.1s0.3-3.4,0.8-4.3c0.4-0.8,0.7-1.3,1-1.7s0.5-0.7,0.7-1s0.6-0.8,1.1-1.5c1.8-2.2,3.1-3.7,4.1-4.5
		c0.8-0.6,1.7-1.1,2.8-1.6c1.1-0.4,2.2-0.7,3.3-0.9c1.2-0.1,2.2,0,3.1,0.5c1.1,0.6,1.8,1.5,2,2.9s0.2,2.7-0.1,3.9
		c-0.3,1.3-0.7,2.5-1.3,3.6c-0.5,1.1-0.8,2.2-1.1,3.5c-0.2,1.3-0.2,2.1,0,2.5c0.5,1.1,2.3,1.1,5.2,0.2c0.1,0,0.2,0,0.3,0
		c0.2-0.1,0.3-0.1,0.4-0.2C447.7,154.9,449.1,154,450.1,153.2z M437.5,145.3c0.3-0.2,0.5-0.3,0.5-0.4c0-0.1,0-0.3-0.2-0.4
		c-0.3-0.4-0.8-0.6-1.4-0.7c-0.6-0.1-1.2-0.1-1.8,0.1c-0.6,0.1-1.5,0.7-2.7,1.7s-2,1.8-2.4,2.5c-0.6,0.8-1,1.5-1.4,2.2
		c-0.5,0.7-0.8,1.6-1,2.9c-0.2,1.3-0.1,2.1,0.2,2.5c0.3,0.3,0.9,0.5,1.8,0.5s1.8-0.2,2.7-0.5c0.8-0.4,1.4-1,1.8-1.8
		c0.7-1.3,1.2-2.4,1.6-3.2c0.7-1.3,1.1-2.1,1.1-2.6c0-0.3,0.1-0.6,0.4-0.9c0.2-0.3,0.3-0.6,0.2-0.9C436.8,146,437,145.6,437.5,145.3
		z"/>
	<path class="st2" d="M486.5,151.9c0.6-0.5,1.2-0.7,1.6-0.6c0.5,0.1,0.7,0.5,0.7,1.3c0,0.3-0.1,0.5-0.2,0.8s-0.2,0.5-0.4,0.6
		c-0.1,0.2-0.3,0.4-0.6,0.6c-0.3,0.2-0.5,0.4-0.6,0.5c-0.2,0.1-0.4,0.3-0.7,0.5c-0.3,0.2-0.5,0.3-0.6,0.4c-0.9,0.6-1.7,1.2-2.5,1.9
		c-1.1,0.9-2.2,1.5-3.4,1.8c-1.4,0.4-2.4,0.6-3.2,0.6c-0.8,0-1.7-0.1-2.9-0.5c-1.1-0.3-2-0.6-2.6-1.1c-0.7-0.5-1.2-1.1-1.5-1.8
		c-0.4-0.7-0.6-1.6-0.6-2.7c0-1.1,0.1-2.3,0.4-3.7s0.7-3.1,1.3-5.1c0.2-0.5,0.1-0.8-0.2-0.8c-0.8,0-2.2,1.3-4.4,4s-3.9,5.2-5.1,7.5
		c-0.8,1.6-1.5,2.6-2.1,2.9c-0.6,0.3-1.2,0.2-1.9-0.5c-0.6-0.5-0.9-1-0.8-1.5c0-0.5,0.4-1.5,1.1-3.1c0.6-1.2,0.9-2,0.9-2.4
		s0.3-1.2,0.9-2.4c0.4-1.4,0.5-2.1,0.4-2.2c-0.3,0-0.9,0.5-1.8,1.5s-1.9,2.2-2.8,3.6c-1,1.4-1.7,2.5-2.2,3.5
		c-0.8,1.5-1.5,2.4-2.1,2.8c-0.6,0.4-1.3,0.3-1.9-0.3s-0.9-1.2-0.7-2.1c0.1-0.8,0.7-2.2,1.7-4c0.3-0.6,0.6-1.4,0.8-2.6
		c0.3-1.1,0.5-1.9,0.8-2.4c0.9-2,1.9-3.4,3-4.2c0.3-0.2,0.5-0.4,0.8-0.5c0.3-0.2,0.6-0.3,0.9-0.3s0.5,0,0.6,0.3s0.1,0.6,0,1.1
		c-0.3,0.9-0.2,1.3,0.3,1.2c0.3,0,0.7-0.4,1.2-1.1c0.6-1,1.4-1.8,2.3-2.4c0.3-0.2,0.6-0.4,0.8-0.5c0.3-0.1,0.5-0.2,0.5-0.2
		c0.1-0.1,0.3-0.1,0.6-0.1s0.4,0.1,0.5,0.1s0.3,0.1,0.7,0.2c0.4,0.1,0.6,0.2,0.8,0.2c0.8,0.2,1.2,0.4,1.2,0.7
		c0.1,0.1,0.1,0.5,0.1,1.3c0.1,0.4,0.1,0.6,0.2,0.8s0.3,0.2,0.5,0.2c0.3,0,0.6-0.1,0.9-0.3c0.4-0.2,0.9-0.5,1.6-1
		c1.7-1.1,3.1-1.7,4.3-1.8c0.9-0.1,1.5-0.1,1.7,0.1s0.5,0.5,0.7,1c0.3,0.9,0.4,2,0.2,3.3s-0.6,2.6-1.1,3.8c-0.6,1.2-0.9,2.1-0.9,2.7
		c0,0.5-0.2,1.2-0.5,2.2c-0.3,0.8-0.3,1.6,0.1,2.3s1,1.2,1.9,1.3c0.5,0.1,1.2,0,2-0.1c0.2-0.1,1.6-0.6,4.1-1.7l0.8-0.5
		c0.5-0.3,1.1-0.6,1.7-1s1.2-0.7,1.8-1.1S486.3,152.1,486.5,151.9z"/>
	<path class="st2" d="M504.1,152.9c0.2,0.3,0.2,0.7,0,1s-0.7,0.8-1.5,1.5c-1.3,1.1-2.9,2.1-4.6,3.1c-1.3,0.7-2.7,0.9-4.2,0.8
		s-2.8-0.5-4.1-1.2c-1.3-0.7-2.4-1.6-3.3-2.7c-1.3-1.6-1.7-3.6-1.2-6.2c0.1-0.2,0.2-0.9,0.3-2c0.2-1.1,0.3-2.2,0.5-3
		c0.2-0.9,0.4-1.5,0.6-1.7c0.3-0.3,0.7-0.5,1.2-0.6c0.6-0.1,1.2-0.1,1.8,0c0.6,0.1,1.2,0.3,1.8,0.5c0.6,0.3,0.9,0.6,1.2,1.1
		s0.2,0.9,0,1.5c-0.6,1.3-1,2.3-1,2.8s-0.3,1.1-0.8,1.9c-0.5,0.6-0.8,1.2-0.9,2s0,1.3,0.4,1.6c0.3,0.1,0.5,0.5,0.5,1
		s0.4,1.1,1.1,1.7c0.5,0.5,0.9,0.7,1.2,0.8s0.8,0,1.6-0.2c1.1-0.4,2.6-1.3,4.4-2.6c1.4-1,2.5-1.6,3.2-1.8
		C503.1,152,503.7,152.2,504.1,152.9z M496.6,132.9c-0.8,0.2-1.5-0.1-2.3-0.8c-0.5-0.5-0.8-0.9-0.8-1c0-0.2,0.2-0.4,0.6-0.8
		c0.6-0.4,1.3-0.6,2.2-0.6s1.5,0.2,1.9,0.6c0.4,0.5,0.4,1,0.1,1.5C497.9,132.4,497.4,132.7,496.6,132.9z"/>
	<path class="st2" d="M520.3,153.6c0.6-0.5,1.2-0.7,1.6-0.6s0.7,0.5,0.7,1.3c0,0.3,0,0.5-0.1,0.8s-0.3,0.5-0.4,0.6
		c-0.1,0.2-0.3,0.4-0.6,0.6c-0.3,0.2-0.5,0.4-0.6,0.5c-0.2,0.1-0.4,0.3-0.7,0.5s-0.5,0.3-0.6,0.4c-0.7,0.4-1.4,0.8-2,1.1
		c-0.1,0-0.1,0.1-0.2,0.1s-0.2,0.1-0.3,0.1s-0.2,0.1-0.3,0.1s-0.2,0.1-0.3,0.1h-0.1c-1.7,0.7-3.5,1.1-5.5,1.2
		c-2,0.1-3.5-0.1-4.4-0.5c-0.1-0.1-0.6-0.3-1.3-0.6c-0.8-0.3-1.3-0.6-1.7-0.9c-0.6-0.4-1.3-1.3-1.8-2.7c-1.1-2.5-1.6-4.7-1.6-6.7
		c0-1.2,0.2-2.7,0.6-4.6c0-0.1,0.1-0.3,0.1-0.7c0.1-0.4,0.1-0.6,0.2-0.8s0.1-0.4,0.2-0.8c0.1-0.3,0.2-0.6,0.3-0.8
		c0.1-0.2,0.2-0.5,0.3-0.7c0.1-0.2,0.2-0.5,0.3-0.6c0.6-0.8,1.1-1.4,1.4-1.8c1.5-1.6,3.4-2.3,5.7-2.1c2.4,0.2,3.7,1,3.9,2.4
		c0.2,1.1,0.1,2.2-0.2,3.4s-0.7,2.1-1.1,2.9c-0.4,0.8-1,1.7-1.8,2.9s-1.3,2.1-1.7,2.8c-1.2,2.3-1.8,3.7-1.8,4.1c0,0.4,0.3,0.9,1,1.5
		c0.4,0.4,0.8,0.7,1.2,0.8c0.3,0.1,1,0,1.9-0.1c1.5-0.2,3-0.5,4.7-1c0.6-0.2,1.6-0.6,2.8-1.1C519.2,154.2,520,153.8,520.3,153.6z
		 M504,150.6c0.3,0,0.9-1.1,2.1-3.3c1.1-2.2,1.7-3.5,1.7-3.9c0-0.5-0.3-0.9-0.9-1c-0.6-0.2-1,0-1.4,0.4c-0.3,0.3-0.6,0.8-0.8,1.5
		c-0.3,0.7-0.5,1.4-0.7,2c-0.1,0.7-0.3,1.4-0.4,2s-0.1,1.2-0.1,1.6C503.7,150.4,503.8,150.6,504,150.6z"/>
	<path class="st2" d="M517.7,152.5c0.4-0.8,1.3-2.5,2.6-5.2s2.4-4.6,3.3-5.7c0.1-0.2,0.3-0.4,0.5-0.5c0.3-0.4,0.8-0.6,1.4-0.8
		c0.6-0.2,1.1-0.2,1.6,0.1c0.2,0.1,0.3,0.4,0.4,0.9c0.1,0.5,0.2,0.7,0.3,0.8c0.2,0,0.7-0.2,1.4-0.8c1.3-0.9,3.3-1.6,6.1-2.2
		c1.1-0.3,1.8-0.4,2.2-0.3s0.8,0.3,1.3,0.8c0.6,0.6,1,1.4,1,2.3c0,0.9-0.3,1.8-0.9,2.6c-0.5,0.7-1.1,2.1-1.8,4.1
		c-0.8,2.1-1.1,3.5-1.1,4.3c0,0.6,0.2,1.2,0.6,1.8c0.4,0.7,0.8,1.2,1.4,1.6c0.5,0.4,1,0.6,1.5,0.6c0.7,0,2.1-0.6,4.2-1.7
		s3.8-2.2,5.1-3.2c0.9-0.7,1.6-1,2-1s0.6,0.5,0.6,1.2c0,0.3-0.1,0.7-0.4,1.2c-0.3,0.4-0.7,0.9-1.2,1.4c-0.5,0.4-1.1,0.9-1.8,1.4
		s-1.4,0.8-2,1.1c-1.8,0.9-3.2,1.5-4,1.9c-1.4,0.6-2.6,0.8-3.7,0.5s-2.3-1.1-3.8-2.6c-1.2-1.2-1.9-2-2.1-2.4s-0.3-1.3-0.3-2.5
		c0-1.8,0.3-3.6,1-5.6c0.6-1.9,0.8-3,0.7-3.1c-0.2-0.2-1.3,0.7-3.4,2.7c-2.1,2-4.1,4-6.2,6.2c-2,2.2-3,3.5-3,3.8s-0.2,0.6-0.5,0.9
		c-0.3,0.3-0.8,0.6-1.3,0.8s-0.9,0.3-1.3,0.2c-0.6-0.1-1.1-0.6-1.3-1.5c-0.2-0.6-0.2-1.2-0.1-1.6
		C516.4,154.6,516.9,153.7,517.7,152.5z"/>
	<path class="st2" d="M570,153.2c0.6-0.4,1.2-0.6,1.6-0.4c0.4,0.2,0.6,0.6,0.6,1.4c0,0.2-0.1,0.4-0.2,0.6c-0.1,0.2-0.2,0.4-0.4,0.6
		c-0.2,0.2-0.3,0.3-0.5,0.5c-0.2,0.1-0.4,0.3-0.6,0.4c-0.3,0.2-0.5,0.3-0.6,0.4c-0.2,0.1-0.4,0.2-0.6,0.3c-0.3,0.1-0.4,0.2-0.5,0.3
		c-0.7,0.4-1.4,0.7-2.2,0.9c0,0-0.4,0.2-1,0.6c-0.7,0.4-1.4,0.9-2.2,1.3c-0.8,0.5-1.5,0.8-2.1,1c-0.7,0.3-1.5,0.4-2.3,0.6
		c-0.8,0.1-1.6,0.2-2.5,0.3c-0.9,0-1.7,0-2.5-0.3c-0.8-0.2-1.5-0.6-2-1c-0.6-0.6-1.2-1.4-1.6-2.4c-0.4-1-0.7-2.1-0.8-3.3
		s-0.2-2.3-0.2-3.3s0-2,0.1-3c0-0.1,0.2-1.3,0.5-3.6c0.3-2.2,0.6-4.4,0.8-6.6l0.4-3.2c-0.3-0.2-1-0.3-1.9-0.4c-0.6,0-1.1,0-1.7,0
		c-1.4,0-2.3,0-2.9-0.1c-0.1,0-0.3,0-0.5,0s-0.4,0-0.6,0c-0.2,0-0.4,0-0.6,0s-0.4,0-0.5-0.1c-0.1,0-0.2-0.1-0.2-0.2
		c-0.1-0.4,0.1-0.8,0.5-1c0,0,0.2-0.1,0.6-0.4c0.3-0.2,0.7-0.4,1.1-0.6c0.4-0.2,0.9-0.4,1.5-0.5c0.6-0.2,1.3-0.2,2-0.2
		c2.1,0.2,3.4,0.3,3.9,0.2s1-0.4,1.5-0.9c0.8-0.7,1.8-2.5,3-5.5c0.1-0.1,0.1-0.3,0.3-0.5c0.5-1.1,0.9-2,1.2-2.6s0.7-1.5,1.3-2.4
		c0.6-1,1.2-1.8,1.8-2.5c0.7-0.7,1.4-1.2,2.1-1.5c2.3-1.1,3.5-1,3.5,0.2c0,0.7-0.5,2.4-1.6,4.9c-0.3,0.7-0.5,1.2-0.7,1.6
		c-0.2,0.5-0.3,1.1-0.4,1.8c-0.1,0.7-0.4,1.4-0.8,2.1c-0.7,1.2-1.2,2.2-1.7,3c-0.5,0.9-0.7,1.5-0.6,1.7c0.1,0.2,1.5,0.5,4.2,0.8
		c1.9,0.2,3,0.4,3.4,0.5s0.6,0.4,0.5,0.8c-0.1,0.5-0.4,0.8-0.9,0.7c-0.2,0-0.7,0-1.3,0c-0.7,0-1.4,0.1-2.3,0.1s-1.7,0.1-2.6,0.3
		c-0.9,0.1-1.6,0.2-2.2,0.3c-0.3,0.1-0.7,0.9-1.2,2.7c-0.5,1.7-1.1,3.8-1.7,6.3c-0.6,2.5-1,4.1-1.3,5c-1.4,4.3-1.2,7.2,0.5,8.8
		c0.8,0.7,1.6,1.1,2.3,1c0.4,0,0.9-0.2,1.4-0.5c0.1-0.1,0.4-0.3,0.9-0.5s1-0.4,1.5-0.6c0.5-0.2,1-0.4,1.6-0.6
		c0.5-0.2,0.8-0.3,0.9-0.3C566.9,155,568.7,154.1,570,153.2z"/>
	<path class="st2" d="M596.3,153.2c0.5-0.4,1-0.6,1.4-0.5s0.6,0.4,0.6,1.1c0,0.1,0,0.3-0.1,0.4s-0.1,0.3-0.2,0.4
		c-0.1,0.1-0.2,0.3-0.3,0.4c-0.1,0.1-0.3,0.3-0.4,0.4s-0.3,0.2-0.4,0.4c-0.2,0.1-0.3,0.2-0.4,0.3s-0.3,0.2-0.4,0.3
		c-0.2,0.1-0.3,0.2-0.4,0.3c-0.5,0.4-1.1,0.7-1.7,0.9c-0.1,0-0.4,0.2-1,0.5l-0.2,0.3c-0.8,0.7-1.8,1.2-3.3,1.3
		c-0.9,0.1-1.6,0.1-2.1,0s-1.2-0.3-2-0.7c-1.3-0.6-2.1-1.1-2.6-1.5c-0.3-0.2-0.5-0.3-0.7-0.3s-0.6,0.3-1.1,0.7
		c-1.7,1.2-3.7,1.9-6.1,2.1c-2.4,0.2-3.9-0.3-4.6-1.4c-0.4-0.7-0.6-2.1-0.6-4.1s0.3-3.4,0.8-4.3c0.4-0.8,0.7-1.3,1-1.7
		s0.5-0.7,0.7-1s0.6-0.8,1.1-1.5c1.8-2.2,3.1-3.7,4.1-4.5c0.8-0.6,1.7-1.1,2.8-1.6c1.1-0.4,2.2-0.7,3.3-0.9c1.2-0.1,2.2,0,3.1,0.5
		c1.1,0.6,1.8,1.5,2,2.9c0.3,1.4,0.2,2.7-0.1,3.9c-0.3,1.3-0.7,2.5-1.3,3.6c-0.5,1.1-0.8,2.2-1.1,3.5c-0.2,1.3-0.2,2.1,0,2.5
		c0.5,1.1,2.3,1.1,5.2,0.2c0.1,0,0.2,0,0.3,0c0.2-0.1,0.3-0.1,0.4-0.2C593.9,154.9,595.3,154,596.3,153.2z M583.6,145.3
		c0.3-0.2,0.5-0.3,0.5-0.4c0-0.1,0-0.3-0.2-0.4c-0.3-0.4-0.8-0.6-1.4-0.7c-0.6-0.1-1.2-0.1-1.8,0.1c-0.6,0.1-1.5,0.7-2.7,1.7
		s-2,1.8-2.4,2.5c-0.6,0.8-1,1.5-1.4,2.2c-0.5,0.7-0.8,1.6-1,2.9s-0.1,2.1,0.2,2.5c0.3,0.3,0.9,0.5,1.8,0.5s1.8-0.2,2.7-0.5
		c0.8-0.4,1.4-1,1.8-1.8c0.7-1.3,1.2-2.4,1.6-3.2c0.7-1.3,1.1-2.1,1.1-2.6c0-0.3,0.1-0.6,0.4-0.9s0.3-0.6,0.2-0.9
		C582.9,146,583.1,145.6,583.6,145.3z"/>
	<path class="st2" d="M617.2,150.4c0.6-0.5,1.2-0.7,1.6-0.6c0.5,0.1,0.7,0.6,0.7,1.4c0,0.2,0,0.3-0.1,0.5s-0.1,0.4-0.2,0.5
		c-0.1,0.2-0.2,0.3-0.4,0.5s-0.3,0.3-0.5,0.4s-0.3,0.3-0.5,0.4c-0.2,0.1-0.4,0.3-0.5,0.4c-0.1,0.1-0.3,0.2-0.5,0.4
		c-0.2,0.1-0.3,0.2-0.4,0.3c-0.7,0.4-1.4,0.8-2.1,1.1c-0.1,0-0.2,0.1-0.4,0.2c-0.8,0.8-1.4,1.3-2,1.6c-0.6,0.2-1.3,0.4-2.2,0.4
		c-0.9,0.3-1.6,0.3-2-0.1c-0.1,0-0.4,0-1-0.1s-0.9-0.1-1.1-0.1c-0.2,0-0.5,0-0.9,0s-0.8,0-1,0.1c-0.3,0.1-0.6,0.2-0.9,0.3
		c-0.4,0.2-0.8,0.3-1.4,0.3s-1.5-0.1-2.9-0.3c-1-0.1-1.8-0.2-2.5-0.3c-0.1,0-0.3,0-0.5,0s-0.3,0-0.5,0s-0.3-0.1-0.5-0.1
		c-0.3-0.2-0.7-0.9-1.1-2.3c-0.3-0.8-0.4-1.5-0.5-2.3c-0.1-0.3-0.1-0.6,0-0.8c0.1-0.7,0.4-1.1,0.7-1.3c0.1-0.1,0.3-0.1,0.6-0.2
		c0.3-0.1,0.5-0.2,0.7-0.3c0.3-0.2,0.5-0.5,0.6-1c0.2-0.5,0.3-1,0.3-1.5c0-0.4,0.1-0.7,0.1-0.9c0.1-0.2,0.3-0.3,0.6-0.5
		s0.5-0.3,0.5-0.3c0.3-0.3,0.6-0.7,0.9-1.1c0.1-0.3,0.3-1,0.7-2.3c0.3-1,0.6-2.1,0.8-3.2c0.2-1.1,0.3-2,0.4-2.7
		c0.1-1.7,0.3-2.7,0.6-3.1c0.2-0.3,0.7-0.5,1.3-0.4c0.7,0,1.2,0.2,1.7,0.6c0.2,0.1,0.4,0.4,0.6,0.7c0.2,0.3,0.3,0.6,0.4,0.9
		c0.1,0.3,0.2,0.6,0.3,1s0.2,0.7,0.3,0.9c0.5,1.5,0.9,2.9,1.1,4.2c0.1,0.5,0.2,1.2,0.3,2.2s0.2,1.8,0.4,2.6s0.3,1.5,0.6,2.2
		c0.4,1.2,0.6,2.3,0.5,3.3c-0.1,0.6-0.1,1.2-0.1,1.7s0.2,1,0.5,1.3s0.9,0.5,1.6,0.4c0.3,0,0.6-0.1,0.9-0.2c0.3-0.1,0.6-0.2,0.8-0.3
		s0.5-0.3,0.8-0.5c0.3-0.3,0.5-0.4,0.6-0.5s0.3-0.3,0.7-0.6c0.4-0.4,1.1-0.9,1.9-1.5C616.6,150.8,617.1,150.5,617.2,150.4z
		 M604.1,151.4c0.2-1,0-2.5-0.7-4.7c-0.7-2-1.1-3.1-1.3-3.1s-0.4,0.4-0.5,1.2c-0.2,0.7-0.4,1.3-0.6,1.6c-0.3,0.5-0.9,1.5-1.6,3
		c-0.7,1.5-1,2.4-0.9,2.6c0.1,0.2,0.4,0.4,0.8,0.6c0.4,0.2,0.9,0.4,1.4,0.5s0.9,0.1,1.2,0.1C603.2,153,603.9,152.3,604.1,151.4z"/>
</g>
</svg>
