<?xml version="1.0" encoding="utf-8"?>
<!-- Generator: Adobe Illustrator 25.2.3, SVG Export Plug-In . SVG Version: 6.00 Build 0)  -->
<svg version="1.1" id="Capa_1" xmlns="http://www.w3.org/2000/svg" xmlns:xlink="http://www.w3.org/1999/xlink" x="0px" y="0px"
	 viewBox="0 0 552.5 482.9" style="enable-background:new 0 0 552.5 482.9;" xml:space="preserve">
<style type="text/css">
	.st0{display:none;}
	.st1{fill:#D7B300;}
	.st2{fill:#FEFEFE;}
</style>
<g id="Capa_2_1_" class="st0">
</g>
<g>
	<path class="st1" d="M438.8,266c-0.3-4.9-1-9.7-2-14.5c-1.4-6.7-3.3-13.2-5.7-19.5c-3-7.8-6.8-15.1-11.3-22.1
		c-2.2-3.4-4.6-6.7-7.2-9.8c-2.2-2.7-4.5-5.4-7-7.8c-1-1-1.9-0.9-2.9,0.1c-1.1,1.2-1,2.3,0.5,3.7c2.5,2.4,4.8,5.1,6.9,7.9
		c1.9,2.4,3.8,4.9,5.5,7.5c1.9,2.9,3.8,5.9,5.5,9c2.4,4.3,4.4,8.8,6.1,13.4c1.9,5.2,3.7,10.5,4.8,16c0.6,3.1,1.3,6.2,1.7,9.3
		c0.3,2.4,0.5,4.8,0.7,7.2c0.2,2.2,0.4,4.5,0.4,6.7c0,2.3,0,4.6-0.2,6.9s-0.2,4.6-0.5,7c-0.1,0.4,0.1,0.9-0.1,1.3
		c-0.2,1.3-0.3,2.6-0.5,3.8c-0.3,1.4-0.2,2.8-0.8,4.1c-0.2,0.4,0.1,0.9-0.2,1.3c-0.7,2.8-1.2,5.6-2.1,8.3c-1.3,3.9-2.6,7.8-4.2,11.5
		c-1.3,2.9-2.7,5.9-4.2,8.7c-2.9,5.2-6,10.3-9.7,15c-1.8,2.3-3.7,4.7-5.6,6.9c-2.3,2.6-4.8,5.1-7.3,7.5c-2.6,2.4-5.2,4.8-8,6.9
		c-2.1,1.5-4.1,3.1-6.2,4.5c-3.2,2.2-6.5,4.2-9.9,6.1c-4.6,2.4-9.3,4.5-14.1,6.4c-0.4,0.1-0.7,0.2-1.1,0.1c2.3-2.1,4.5-4.2,6.7-6.3
		c5.4-4.9,10.8-9.8,16.1-14.6c3.3-3,6.5-5.9,9.7-8.9c0.9-0.8,0.9-2.3,0.2-3.2c-0.8-0.9-2-1-2.9-0.2c-1.4,1.3-2.8,2.6-4.1,3.8
		c-2,1.8-4,3.6-5.9,5.4c-3.4,3.1-6.7,6.2-10.1,9.2c-2.9,2.6-5.8,5.3-8.7,7.9c-2.7,2.4-5.4,4.8-8,7.4c-1.7,1.7-1.3,3.4,0.9,4.3
		c1.5,0.6,3,1.2,4.5,1.8c2.5,1,5,1.8,7.4,2.9c3.1,1.4,6.3,2.3,9.4,3.7c2.4,1.1,4.9,1.7,7.3,2.8c3.1,1.4,6.2,2.5,9.3,3.7
		c2.9,1.2,5.9,2.3,8.8,3.5c2.6,1,5.2,2.1,7.8,3.1c1.1,0.4,2.2-0.1,2.6-1.1c0.6-1.3,0.3-2.1-0.9-2.9c-1-0.6-2.2-0.8-3.3-1.3
		c-3.5-1.4-7-2.8-10.6-4.2c-4.2-1.7-8.4-3.4-12.6-5.1c-4.1-1.6-8.2-3.2-12.2-4.8c-2.6-1-5.3-2.1-7.9-3.2c0.3-0.1,0.5-0.3,0.8-0.4
		c2.7-1,5.3-2.1,7.9-3.4c5.2-2.5,10.3-5.4,15.1-8.6s9.2-6.7,13.5-10.5c3-2.7,5.8-5.6,8.6-8.6c6-6.5,11.1-13.5,15.4-21.2
		c2.7-4.7,5-9.5,6.9-14.6c1.5-4,2.8-8,3.9-12.1s1.8-8.2,2.5-12.4c0.4-2.5,0.6-5.1,0.8-7.6c0.3-2.7,0.4-5.4,0.4-8.1
		C439.3,272.5,439,269.3,438.8,266z"/>
	<path class="st1" d="M313.1,391.8c-1.1-0.3-2.2-0.7-3.3-1.1c-3.4-1-6.8-2.1-10.2-3.1c-1.8-0.5-3.7-0.9-5.4-1.6
		c-1.2-0.5-2.5-0.6-3.6-1.3c0.1-0.1,0.1-0.2,0.2-0.3c5.7-3.7,11.4-7.3,17.1-11c0.6-0.4,1.1-0.8,1.3-1.5c0.5-1.4-0.2-2.5-1.2-3.3
		s-2.4-0.8-3.5,0c-0.3,0.2-0.6,0.5-0.9,0.7c-3.8,2.1-7.3,4.7-10.9,6.9c-1.9,1.1-3.6,2.5-5.8,3.5c0.3-1.5,0.5-2.9,0.7-4.2
		c0.2-1.1,0.2-2.3,0.7-3.3c0.2-0.4-0.1-0.9,0.2-1.3c0-0.1,0-0.2,0.1-0.2c0.2-0.4-0.1-0.9,0.2-1.3c0-0.1,0-0.2,0.1-0.2
		c0.2-0.4-0.1-0.9,0.2-1.3c0-0.1,0-0.2,0.1-0.3c0.2-0.4-0.1-0.9,0.2-1.3c0-0.1,0-0.2,0.1-0.3c0.2-0.4-0.1-0.9,0.2-1.3
		c0-0.1,0.1-0.2,0.1-0.3c0.1-0.4-0.1-0.9,0.2-1.3c0-0.1,0.1-0.2,0.1-0.3c0.1-0.4-0.1-0.9,0.2-1.3c0.4-2.2,0.8-4.3,1.2-6.5
		c0.3-1.5,0.6-3.1-0.8-4.3c-0.9-0.7-2.1-1-3.2-0.5c-1.2,0.5-1.9,1.6-2.1,2.9c-0.3,1.9-0.6,3.7-0.9,5.6c-0.4,2.7-0.8,5.4-1.4,8
		c-0.2,0.4,0,0.9-0.2,1.3c0,0.1,0,0.1,0,0.2c-0.2,0.4,0.1,0.9-0.2,1.3c0,0.1,0,0.2-0.1,0.2c-0.2,0.4,0.1,0.9-0.2,1.3
		c0,0.1,0,0.2-0.1,0.2c-0.2,0.4,0.1,0.9-0.2,1.3c0,0.1,0,0.2-0.1,0.2c-0.2,0.4,0.1,0.9-0.2,1.3c-0.5,0.6-0.7-0.1-0.9-0.3
		c-3.7-4.4-7.4-8.9-11.1-13.3c-1-1.2-2.2-2.2-4-1.7s-3.2,2.8-2.2,4.1c1.3,1.8,2.6,3.5,4.1,5.1c1.8,1.9,3.4,4,5.1,6
		c1.3,1.5,2.6,3,3.9,4.5c0.6,0.7,1.2,1.5,1.8,2.3c-0.5,0-0.9-0.2-1.3-0.3c-3.3-1-6.6-1.9-9.8-2.9c-3.6-1.2-7.2-2.3-10.8-3.4
		c-1.5-0.4-3.7,1-4,2.6c-0.2,1.4-0.2,2.6,2.1,3.2c2.7,0.8,5.4,1.7,8.1,2.5c2.9,0.9,5.8,1.6,8.6,2.6c1.5,0.5,3.2,0.8,4.8,1.6
		c-0.7,0.4-1.4,0.8-2,1.2c-2.5,1.7-5,3.4-7.6,5c-1.2,0.7-2.4,1.3-3.2,2.5c-0.1,0.6-0.1,1.2-0.1,1.8c0.4,1.7,2.5,3,4.3,2
		c2.1-1.1,4-2.5,6-3.8c1.7-1,3.2-2.3,5.1-3.2c-0.4,1.9-0.7,3.7-1.1,5.5c-0.2,0.4,0.1,0.9-0.2,1.3c0,0.1,0,0.2-0.1,0.2
		c-0.2,0.4,0.1,0.9-0.2,1.3c0,0.1,0,0.2-0.1,0.2c-0.2,0.4,0.1,0.9-0.2,1.3c0,0.1,0,0.2-0.1,0.2c-0.2,0.4,0.1,0.9-0.2,1.3
		c0,0.1,0,0.2-0.1,0.2c-0.2,0.4,0.1,0.9-0.2,1.3c0,0.1-0.1,0.2-0.1,0.3c-0.1,0.4,0.1,0.9-0.2,1.3c0,0.1-0.1,0.2-0.1,0.3
		c-0.1,0.4,0.1,0.9-0.2,1.3c-0.3,1.5-0.5,2.9-0.8,4.4c-0.4,1.8,0.3,3.3,1.8,3.8c1.9,0.6,3.8-0.6,4.1-2.1c0.4-1.9,0.7-3.9,1.1-5.8
		c0.4-1.8,0.5-3.7,1.1-5.5c0.2-0.4,0-0.9,0.2-1.3c0-0.1,0-0.1,0-0.2c0.2-0.4,0-0.9,0.2-1.3c0-0.1,0-0.2,0.1-0.2
		c0.2-0.4-0.1-0.9,0.2-1.3c0-0.1,0-0.2,0.1-0.2c0.2-0.4-0.1-0.9,0.2-1.3c0-0.1,0-0.2,0.1-0.2c0.2-0.4-0.1-0.9,0.2-1.3
		c0-0.1,0.1-0.2,0.1-0.3c0.1-0.4-0.1-0.9,0.2-1.3c0-0.1,0.1-0.2,0.1-0.3c0.1-0.4-0.1-0.9,0.2-1.3c0.2-1,0.4-2,0.5-2.9
		c0.9-0.1,1.4,0.5,1.8,1c2.4,3,4.8,5.9,7.3,8.7c2.5,2.9,5.1,5.8,7.4,8.9c1.6,2.1,3.9,1.7,5.5,0c0.6-0.6,1-1.6,0.5-2.5
		c-0.4-0.7-0.9-1.3-1.4-2c-2.7-3.2-5.5-6.4-8.2-9.6c-0.3-0.6-0.1-0.8,0.5-0.5c0.2,0.1,0.4,0.2,0.6,0.3c3.5,1,7.1,1.9,10.6,3.2
		c1.5,0.5,2.6,0.2,3.8-0.6C315.1,395.6,315.5,392.5,313.1,391.8z"/>
</g>
<path class="st2" d="M434.3,286.9c0,0.4,0.3,0.9-0.1,1.3C434.2,287.8,434,287.3,434.3,286.9z"/>
<path class="st2" d="M432.8,296.2c0,0.4,0.2,0.9-0.2,1.3C432.6,297.1,432.4,296.6,432.8,296.2z"/>
<path class="st1" d="M290.8,202.7c0.8,0,1.6-0.1,2.4-0.1c0.6-0.2,1.3,0.1,1.9-0.2c0.7,0,1.4-0.1,2.1-0.1c0.7-0.2,1.5,0.1,2.2-0.2
	c0.6,0,1.3,0,1.9-0.1c0.6-0.2,1.3,0.1,1.9-0.2c0.6,0,1.2,0,1.8-0.1c0.6-0.2,1.3,0.1,1.9-0.2c0.6,0,1.2-0.1,1.9-0.1
	c0.5-0.2,1.1,0.1,1.7-0.2c0.6,0,1.2-0.1,1.8-0.1c0.5-0.2,1.1,0.1,1.7-0.2c0.6,0,1.2-0.1,1.8-0.1c0.5-0.2,1.1,0.1,1.6-0.2
	c0.5,0,1.1,0,1.6-0.1c0.5-0.2,1.1,0.1,1.6-0.2c0.5,0,1.1-0.1,1.6-0.1c0.5-0.2,1.1,0.1,1.6-0.2c0.5,0,1.1-0.1,1.6-0.1
	c0.5-0.2,1,0.1,1.4-0.2c0.5,0,1-0.1,1.6-0.1c0.5-0.2,1.1,0.1,1.6-0.2c0.4,0,0.9,0,1.3-0.1c0.5-0.2,1.1,0.1,1.6-0.2
	c0.4,0,0.9,0,1.3-0.1c0.4-0.2,0.9,0.1,1.4-0.2c1.3,0,2.3,0.3,2.6,1.7c0.3,1.5-0.4,2.7-1.8,3.4c-0.4,0.2-0.9-0.1-1.3,0.2
	c-0.4,0-0.9,0-1.3,0.1c-0.5,0.2-1-0.1-1.4,0.2c-0.5,0-1,0.1-1.6,0.1c-0.5,0.2-1-0.1-1.4,0.2c-0.5,0-1,0.1-1.6,0.1
	c-0.5,0.2-1.1-0.1-1.6,0.2c-0.4,0-0.9,0-1.3,0.1c-0.5,0.2-1.1-0.1-1.7,0.2c-0.5,0-1,0-1.6,0.1c-0.5,0.2-1.1-0.1-1.7,0.2
	c-0.5,0-1,0-1.6,0.1c-0.6,0.2-1.3-0.1-1.9,0.2c-0.5,0-1.1,0-1.6,0.1c-0.5,0.2-1.1-0.1-1.6,0.2c-0.6,0-1.2,0.1-1.8,0.1
	c-0.5,0.2-1.1-0.1-1.7,0.2c-0.6,0-1.2,0.1-1.8,0.1c-0.6,0.2-1.3-0.1-1.9,0.2c-0.6,0-1.2,0.1-1.9,0.1c-0.6,0.2-1.3-0.1-1.9,0.2
	c-0.6,0-1.2,0-1.8,0.1c-0.7,0.2-1.5-0.1-2.2,0.2c-0.6,0-1.2,0-1.9,0.1c-0.7,0.2-1.5-0.1-2.2,0.2c-0.7,0-1.4,0-2.1,0.1
	c-0.8,0.2-1.6-0.1-2.4,0.2c-0.7,0-1.4,0-2.1,0.1c-0.8,0.2-1.6-0.1-2.4,0.2c-0.8,0-1.6,0.1-2.4,0.1c-0.8,0.2-1.7-0.1-2.5,0.2
	c-0.9,0-1.8,0.1-2.7,0.1c-0.9,0.2-1.8-0.1-2.7,0.2c-0.9,0-1.8,0-2.7,0.1c-1.1,0.3-2.2-0.1-3.2,0.2c-1,0-2,0-3,0.1
	c-1.2,0.2-2.3-0.1-3.5,0.2c-1.2,0-2.3,0-3.5,0.1c-1.3,0.2-2.6-0.1-3.8,0.2c-1.4,0-2.8,0.1-4.2,0.1c-1.6,0.2-3.2-0.1-4.9,0.2
	c-1.9,0-3.8,0.1-5.6,0.1c-2.3,0.2-4.5-0.1-6.8,0.2c-3.7,0-7.3,0-11,0.1c-0.3,0.1-0.6,0.1-0.9,0.1c-12.1,0-24.3,0-36.4,0
	c-0.3,0-0.5,0-0.8-0.1c-2.4,0-4.8-0.1-7.2-0.1c-1.4-0.3-2.9,0-4.3-0.2c-1.1,0-2.1,0-3.2-0.1c-0.9-0.3-1.8,0-2.8-0.2
	c-0.7,0-1.4,0-2.1-0.1c-0.7-0.3-1.5,0-2.2-0.2c-0.5,0-1.1,0-1.6-0.1c-0.6-0.3-1.3,0-1.9-0.2c-0.4,0-0.9,0-1.3-0.1
	c-0.5-0.3-1.1,0-1.6-0.2c-4.8-0.4-9.6-0.9-14.3-2c-4.7-1-9.3-2.3-13.8-4.2c-3.7-1.6-7.3-3.4-10.6-5.7c-2.3-1.6-4.4-3.4-6.5-5.3
	c-4.9-4.4-8.7-9.6-11.6-15.4c-2.4-4.8-4-9.9-4.8-15.3c-0.1-0.9-0.1-1.9-0.3-2.8c-0.2-0.5,0.1-1.1-0.2-1.6c0-2.6,0-5.1,0-7.7
	c0.3-0.5,0-1.1,0.2-1.7c0.6-7.2,2.9-14,6.3-20.2c2.1-3.9,4.9-7.4,7.9-10.7c2.1-2.4,4.4-4.6,6.7-6.6c3.8-3.3,7.8-6.3,12.1-8.9
	c7.1-4.3,14.6-7.8,22.4-10.6c7.3-2.7,14.8-4.9,22.3-7c11.4-3.2,22.9-6,34.5-8.2c7.8-1.5,15.7-2.8,23.6-3.7c2-0.2,4-0.6,6.1-0.8
	c0.4-0.2,0.9,0.1,1.4-0.2c0.4,0,0.7,0,1.1-0.1c0.4-0.2,0.9,0.1,1.3-0.2c0.4,0,0.7,0,1.1-0.1c0.4-0.2,1,0.1,1.4-0.2
	c0.4,0,0.9-0.1,1.3-0.1c0.4-0.2,0.9,0.1,1.4-0.2c0.4,0,0.9,0,1.3-0.1c0.5-0.2,1.1,0.1,1.6-0.2c0.4,0,0.9,0,1.3-0.1
	c0.5-0.2,1.1,0.1,1.6-0.2c0.5,0,1.1-0.1,1.6-0.1c0.5-0.2,1.1,0.1,1.6-0.2c0.6,0,1.2-0.1,1.8-0.1c0.5-0.2,1.1,0.1,1.7-0.2
	c0.7,0,1.4-0.1,2.1-0.1c0.6-0.2,1.3,0.1,1.9-0.2c0.7,0,1.4,0,2.1-0.1c0.8-0.2,1.6,0.1,2.4-0.2c0.8,0,1.6,0,2.4-0.1
	c0.9-0.2,1.8,0.1,2.7-0.2c1.1,0,2.1-0.1,3.2-0.1c1.2-0.2,2.4,0.1,3.5-0.2c1.4,0,2.8,0,4.3-0.1c1.6-0.2,3.3,0.1,4.9-0.2
	c1.9,0,3.7-0.1,5.6-0.1c1.9-0.2,3.8,0,5.7-0.1c0.4,0,0.9,0.1,1.3-0.1c8.6,0,17.2,0,25.7,0c1.5,0.3,3,0.1,4.5,0.1
	c0.5,0,1-0.1,1.4,0.1c1.3,0,2.7,0,4,0.1c1.1,0.3,2.2,0,3.3,0.2c1,0,2,0.1,2.9,0.1c0.9,0.3,1.8,0,2.7,0.2c0.8,0,1.6,0.1,2.4,0.1
	c0.6,0.3,1.3,0,1.9,0.2c0.7,0,1.4,0.1,2.1,0.1c0.6,0.3,1.3,0,1.9,0.2c0.5,0,1.1,0,1.6,0.1c0.5,0.3,1.1,0,1.6,0.2
	c0.5,0,1.1,0.1,1.6,0.1c0.5,0.3,1.1,0,1.6,0.2c0.4,0,0.9,0,1.3,0.1c0.4,0.3,0.9,0,1.3,0.2c0.4,0,0.9,0.1,1.3,0.1
	c0.4,0.3,0.9,0,1.3,0.2c5.9,0.8,11.9,1.4,17.8,2.5c12,2.2,23.4,5.7,33.5,12.9c9.8,7,16.4,16.3,19.7,27.9c1.1,3.6,1.6,7.3,2.2,11.1
	c0.2,0.5-0.1,1.1,0.2,1.6c0,2.8,0,5.7,0,8.5c-0.3,0.5,0,1.1-0.2,1.6c0,0.4-0.1,0.9-0.1,1.3c-0.3,0.4,0,0.9-0.2,1.4
	c-0.8,4.3-1.6,8.7-3,12.9c-1.8,5.7-4.2,11.2-7.2,16.4c-4.1,7.2-9.2,13.7-15.3,19.4c-5.2,4.9-10.9,9.1-16.9,13
	c-6.4,4.1-13.1,7.7-19.9,10.9c-10.2,4.8-20.8,8.6-31.6,12c-11.8,3.7-23.7,7.2-35.8,9.9c-5.1,1.1-10.2,2-15.3,2.9
	c-3.6,0.6-7.3,1-11,1.4c-0.4,0.2-0.9-0.1-1.4,0.2c-0.5,0-1.1,0.1-1.6,0.1c-0.5,0.2-1-0.1-1.4,0.2c-0.6,0-1.2,0.1-1.8,0.1
	c-0.7,0.2-1.5-0.1-2.2,0.2c-0.7,0-1.4,0-2.1,0.1c-1.2,0.3-2.4-0.1-3.5,0.2c-4.3,0-8.6,0-12.9,0c-1.1-0.3-2.2,0-3.2-0.2
	c-0.8,0-1.6-0.1-2.4-0.1c-0.6-0.3-1.3,0-1.9-0.2c-0.5,0-1,0-1.6-0.1c-0.5-0.3-1.1,0-1.7-0.2c-4-0.3-8-0.9-12-1.4
	c-2.6-0.4-5.2-1-7.8-1.6c-1.2-0.2-1.7-1.4-1.4-3c0.2-1.3,1.3-2.3,2.4-2c3.5,0.8,7.1,1.5,10.7,1.9c2.1,0.3,4.1,0.8,6.2,0.7
	c0.4,0.3,0.9,0,1.4,0.2c0.4,0,0.9,0,1.3,0.1c0.4,0.2,0.9,0,1.4,0.2c0.6,0,1.2,0.1,1.8,0.1c0.6,0.3,1.3,0,1.9,0.2
	c0.8,0,1.6,0.1,2.4,0.1c1.1,0.3,2.2,0,3.3,0.2c3.7,0.1,7.4,0.1,11,0c1.2-0.2,2.4,0.1,3.5-0.2c0.8,0,1.6,0,2.4-0.1
	c0.7-0.2,1.5,0.1,2.2-0.2c0.5,0,1.1,0,1.6-0.1c0.5-0.2,1.1,0.1,1.7-0.2c0.5,0,1-0.1,1.6-0.1c0.4-0.2,0.9,0.1,1.4-0.2
	c1.2,0.1,2.3-0.2,3.5-0.3c0.4-0.2,0.9,0.1,1.4-0.2c3.4-0.2,6.7-0.8,10-1.4c7-1.2,13.9-2.7,20.8-4.5c15-4,29.7-8.7,44.2-14
	c6-2.2,11.9-4.8,17.7-7.6c7.2-3.5,14.1-7.5,20.6-12.1c2.6-1.8,5-3.9,7.4-5.9c2.8-2.4,5.4-5,7.9-7.8c5.6-6.2,10.2-13,13.3-20.9
	c1.6-4.1,3-8.3,4-12.6c0.7-3.2,1.3-6.4,1.3-9.6c0.2-0.5,0-1,0.2-1.4c0.2-2.2,0.1-4.3,0-6.5c-0.2-0.5,0-1-0.2-1.5
	c-0.1-3.3-0.8-6.4-1.5-9.6c-1.4-6-3.9-11.5-7.4-16.5c-3-4.3-6.9-7.9-11.2-10.9c-4.2-3-8.8-5.4-13.6-7.3c-6-2.3-12.3-3.9-18.7-4.9
	c-3.1-0.5-6.1-0.9-9.2-1.2c-2.9-0.3-5.8-0.6-8.7-0.6c-0.5-0.2-1,0-1.5-0.2c-1.2-0.1-2.4-0.2-3.7-0.1c-0.6-0.2-1.2,0-1.7-0.2
	c-1.6-0.1-3.2-0.2-4.7-0.1c-0.6-0.2-1.3,0-2-0.2c-1.6,0-3.2-0.1-4.7-0.1c-0.6-0.2-1.2,0-1.7-0.2c-1.3-0.1-2.6-0.2-3.9-0.1
	c-0.6-0.2-1.2,0-1.7-0.2c-1.6-0.1-3.2-0.2-4.7-0.1c-0.6-0.2-1.3,0-2-0.2c-1.9-0.1-3.9-0.3-5.8-0.1c-0.8-0.3-1.7,0-2.5-0.2
	c-2.8,0-5.7-0.3-8.5-0.1c-1.6-0.3-3.3,0-4.9-0.2c-5.4-0.1-10.8-0.1-16.2,0c-1.6,0.2-3.1-0.1-4.7,0.2c-2.6-0.2-5.1,0-7.7,0.1
	c-0.7,0.2-1.5-0.1-2.3,0.2c-1.7-0.1-3.3,0-5,0.1c-0.6,0.1-1.2-0.1-1.7,0.2c-1.2-0.1-2.4,0-3.7,0.1c-0.5,0.2-1,0-1.5,0.2
	c-1-0.1-2.1,0-3.1,0.1c-0.5,0.2-1,0-1.4,0.2c-3.4,0.1-6.8,0.4-10.2,0.7c-3.3,0.3-6.6,0.5-9.9,0.9c-5.4,0.6-10.7,1.2-16.1,2
	c-8,1.1-16,2.6-24,4.2c-7.3,1.5-14.6,3.3-21.8,5.2c-6.8,1.9-13.6,4-20.3,6.3c-9.1,3.1-18.1,6.5-26.6,11c-5.9,3.2-11.5,6.9-16.5,11.4
	c-7.7,7-13.3,15.2-16.4,25.2c-1.7,5.7-2,11.5-1.3,17.5c1.4,12,6.8,21.9,15.6,30.1c6.4,5.9,14,9.8,22.3,12.3c5,1.5,10.1,2.4,15.3,3
	c5.9,0.7,11.8,1.3,17.7,1.6c0.2,0,0.4,0,0.5-0.1c0.5,0.2,1,0,1.4,0.2c1.1,0.1,2.3,0.2,3.4,0.1c0.6,0.3,1.3,0,2,0.2
	c1.8,0,3.5,0.3,5.3,0.1c0.9,0.3,1.9,0,2.8,0.2c8.6,0.2,17.2,0.2,25.8,0c1.3-0.2,2.6,0.1,3.9-0.2c2.7,0.2,5.5,0,8.2-0.1
	c0.9-0.2,1.9,0.1,2.8-0.2c2.5,0.2,4.9,0,7.4-0.1c0.9-0.2,1.9,0.1,2.8-0.2c2.7,0.2,5.3-0.1,8-0.1c1-0.2,2.1,0.1,3.1-0.2
	c2.2,0.2,4.4,0,6.6-0.1c1.3-0.2,2.7,0.1,4-0.2c1.2,0,2.5-0.1,3.7-0.1c1.1-0.2,2.2,0.1,3.3-0.2c1.1,0,2.1-0.1,3.2-0.1
	c1-0.2,2,0.1,3-0.2c1,0,1.9-0.1,2.9-0.1c0.9-0.2,1.8,0.1,2.7-0.2c0.9,0,1.8-0.1,2.6-0.1c0.9-0.2,1.8,0.1,2.7-0.2
	c0.8,0,1.6,0,2.4-0.1c0.8-0.2,1.6,0.1,2.4-0.2c0.7,0,1.4,0,2.1-0.1C289.3,202.7,290,203,290.8,202.7z"/>
<path class="st2" d="M308.7,72.1c1.6,0,3.3-0.2,4.9,0.2C312,72.3,310.4,72.5,308.7,72.1z"/>
<path class="st2" d="M287.9,72.3c1.5-0.4,3.1-0.1,4.7-0.2C291,72.6,289.4,72.2,287.9,72.3z"/>
<path class="st2" d="M214.5,205.4c-1.3,0.4-2.6,0.1-3.9,0.2C211.9,205.1,213.2,205.4,214.5,205.4z"/>
<path class="st2" d="M246.7,204.6c-1,0.4-2,0.1-3.1,0.2C244.7,204.3,245.7,204.6,246.7,204.6z"/>
<path class="st2" d="M235.7,204.9c-0.9,0.4-1.9,0.1-2.8,0.2C233.8,204.6,234.8,204.9,235.7,204.9z"/>
<path class="st2" d="M184.8,205.6c-0.9-0.1-1.9,0.2-2.8-0.2C182.9,205.5,183.9,205.1,184.8,205.6z"/>
<path class="st2" d="M225.5,205.1c-0.9,0.4-1.9,0.1-2.8,0.2C223.6,204.9,224.6,205.2,225.5,205.1z"/>
<path class="st2" d="M322.2,72.4c0.8,0.1,1.7-0.2,2.5,0.2C323.8,72.5,323,72.8,322.2,72.4z"/>
<path class="st2" d="M277.9,72.6c0.7-0.4,1.5-0.1,2.3-0.2C279.5,72.8,278.7,72.5,277.9,72.6z"/>
<path class="st2" d="M349.3,73.5c0.7,0,1.3-0.2,2,0.2C350.6,73.6,349.9,73.9,349.3,73.5z"/>
<path class="st2" d="M176.7,205.3c-0.7,0-1.3,0.2-2-0.2C175.4,205.2,176.1,204.9,176.7,205.3z"/>
<path class="st2" d="M330.5,72.7c0.7,0,1.4-0.2,2,0.2C331.8,72.8,331.1,73.1,330.5,72.7z"/>
<path class="st2" d="M271.2,72.8c0.5-0.3,1.1-0.2,1.7-0.2C272.4,73,271.8,72.8,271.2,72.8z"/>
<path class="st2" d="M337.2,72.9c0.6,0,1.2-0.2,1.7,0.2C338.3,73.1,337.7,73.3,337.2,72.9z"/>
<path class="st2" d="M356,73.7c0.6,0,1.2-0.2,1.7,0.2C357.2,73.9,356.6,74.1,356,73.7z"/>
<path class="st2" d="M342.8,73.2c0.6,0,1.2-0.2,1.7,0.2C344,73.3,343.4,73.6,342.8,73.2z"/>
<path class="st2" d="M171.3,205c-0.5,0-1,0.1-1.4-0.2C170.4,204.9,170.9,204.7,171.3,205z"/>
<path class="st2" d="M433.3,133.1c0,0.5,0.1,1-0.2,1.4C433.2,134,433,133.5,433.3,133.1z"/>
<path class="st2" d="M361.4,74c0.5,0,1-0.2,1.5,0.2C362.4,74.2,361.8,74.4,361.4,74z"/>
<path class="st2" d="M261.5,73.4c0.5-0.3,1-0.2,1.4-0.2C262.6,73.6,262,73.4,261.5,73.4z"/>
<path class="st2" d="M433.2,125.2c0.3,0.5,0.2,1,0.2,1.5C433,126.2,433.2,125.6,433.2,125.2z"/>
<path class="st2" d="M266.1,73.1c0.5-0.3,1-0.2,1.5-0.2C267.1,73.3,266.6,73.1,266.1,73.1z"/>
<g>
	<path class="st1" d="M142.3,120.4c0.7,2.3,0.9,4.6,0.5,7.1c-0.2,1.3-0.6,2.6-1.1,3.9c-0.1,0.1-0.3,0.5-0.6,1.2s-0.6,1.3-0.9,1.8
		c-0.2,0.6-0.5,1.2-0.7,1.9s-0.3,1.3-0.2,1.8s0.3,0.9,0.7,1.1c0.2,0.1,0.5,0.1,0.9,0.1s1.2,0.5,2.1,1.4c1,0.9,1.7,1.8,2.1,2.6
		c0.4,0.8,0.8,1.1,1.2,1s0.7-0.5,1-1.3c0.2-0.9,0.5-1.6,0.9-1.9c0.4-0.3,0.7-1,0.9-2c0.2-0.8,1-2.8,2.4-5.8c1.4-2.9,2-4.5,2-4.8
		s0.5-1.4,1.4-3.1c0.9-1.5,1.3-2.6,1.4-3.2c0-0.5,0.3-1.3,0.8-2.3c0.9-1.4,2.2-1.7,4.1-0.9c0.3,0.1,0.5,0.3,0.5,0.6
		c0.1,0.3,0,0.7-0.1,1.2s-0.3,1-0.5,1.6s-0.4,1.1-0.7,1.7s-0.6,1.1-0.8,1.6s-0.5,0.9-0.7,1.3s-0.3,0.6-0.4,0.7
		c-0.4,0.8-0.7,1.5-0.8,2c0,0.1-0.1,0.4-0.2,0.8c-0.1,0.4-0.2,0.7-0.3,0.9c-0.1,0.3-0.2,0.5-0.4,0.8s-0.4,0.6-0.6,0.9
		c-0.2,0.3-0.4,0.6-0.5,0.8c-0.4,0.7-0.8,1.8-1.4,3.2c-0.6,1.4-1,2.4-1.3,3c-0.1,0.2-0.2,0.4-0.4,0.8c-0.2,0.4-0.4,0.7-0.5,1
		s-0.3,0.6-0.4,1c-0.2,0.4-0.3,0.7-0.4,1c-0.1,0.3-0.1,0.6-0.1,0.9c0,0.6,0.7,0.9,2.1,0.8c0.3,0,0.6,0,0.9,0
		c1.9-0.2,3.6-0.9,5.3-1.9c1.7-1.1,2.7-1.8,2.8-2.1c0.2-0.4,0.9-0.5,1.9-0.5c0.9,0,1.5,0.3,2,0.8s0.6,1.2,0.3,2
		c-0.2,0.6-0.8,1.3-1.9,2.1c-1.1,0.8-2.4,1.6-4,2.2c-1.5,0.6-2.8,1-3.9,1.1c-1.5,0.2-2.5,0.4-2.8,0.8c-0.6,0.4-2.2,0.3-4.9-0.4
		c-0.4-0.1-0.9,0.3-1.4,1.3s-0.9,2.1-1.1,3.4c-0.3,1.1-0.6,1.8-0.8,2c-0.3,0.2-0.4,0.7-0.4,1.5c0,0.5-0.1,1-0.4,1.6
		c-0.3,0.6-0.6,1.1-1,1.5s-0.8,0.6-1.1,0.6c-0.4,0-0.9-0.4-1.5-1.1c-0.3-0.5-0.5-1.1-0.6-1.8c-0.1-0.6,0-1.7,0.1-3.3
		c0.2-2.6,0.1-4.1-0.2-4.6c-0.1-0.2-0.3-0.4-0.7-0.5s-0.9-0.2-1.4-0.3c-0.6-0.1-1.1-0.1-1.5-0.1s-1,0-1.7,0s-1.1,0-1.2,0
		c-0.8-0.1-1.3,0-1.5,0.2c-0.3,0.2-0.7,0.9-1.3,2c-0.8,1.6-1.5,3-1.8,4.4c-0.6,1.9-1.2,3.2-1.8,4c-0.6,0.8-1.3,1.2-2.2,1.2
		c-1,0-1.6-0.2-1.9-0.6c-0.3-0.4-0.3-1.1,0-2c0.8-3,1.6-5.1,2.2-6.5c0.1-0.3,0.6-1.1,1.4-2.4c0.8-1.3,1.2-2.4,1.4-3.2
		c0.2-0.7,0.3-1.6,0.3-2.8V141l2.2-1.7c1.4-1,2.5-2.4,3.4-4.2c0.9-2,1.6-3.5,2.1-4.4c0.5-1.1,0.8-2.7,1.1-4.8
		c0.3-2.2,0.2-3.4-0.1-3.6s-0.9,0.7-1.9,2.6c-0.1,0.3-0.3,0.6-0.5,1c-0.8,1.5-1.4,2.6-1.9,3.4c-0.5,0.8-0.9,1.5-1.4,1.9
		c-0.4,0.5-1,0.9-1.6,1.3c-0.7,0.4-1.5,0.6-2.5,0.5c-0.9-0.1-1.7-0.4-2.2-1c-0.4-0.5-0.6-1.7-0.5-3.6c0.1-1.9,0.4-3.3,1-4.1
		c0.8-1.3,1.8-2.4,3.1-3.5s2.4-1.8,3.6-2.2c1.3-0.4,2.8-0.7,4.4-0.7c1.6,0,2.8,0.1,3.5,0.5C141.5,118.8,142,119.4,142.3,120.4z
		 M128.7,127.4c0.4,0.4,0.8,0.4,1.4,0c0.5-0.4,0.9-1,1.2-1.8c0.5-1.2,0.4-1.8-0.2-1.8c-0.4,0.1-1,0.5-1.6,1.3
		C128.6,126.3,128.4,127.1,128.7,127.4z M139.4,145.9c0.4-0.1,0.5-0.3,0.5-0.6c-0.1-0.4-0.7-0.7-1.6-1.2c-0.9-0.4-1.5-0.5-1.8-0.3
		c-0.2,0.2,0,0.6,0.5,1.1C137.6,145.7,138.4,146,139.4,145.9z"/>
	<path class="st1" d="M180.7,152c0.6-0.5,1.2-0.7,1.6-0.6c0.5,0.1,0.7,0.5,0.7,1.3c0,0.3,0,0.5-0.1,0.8s-0.3,0.5-0.4,0.6
		c-0.1,0.2-0.3,0.4-0.6,0.6c-0.3,0.2-0.5,0.4-0.6,0.5c-0.2,0.1-0.4,0.3-0.7,0.5s-0.5,0.3-0.6,0.4c-0.7,0.4-1.4,0.8-2.1,1.1
		c-0.1,0-0.1,0.1-0.2,0.1c-0.1,0-0.2,0.1-0.3,0.1s-0.2,0.1-0.3,0.1s-0.2,0.1-0.3,0.1h-0.1c-1.7,0.7-3.5,1.1-5.5,1.2
		c-2,0.1-3.5-0.1-4.4-0.5c-0.1-0.1-0.6-0.3-1.3-0.6c-0.8-0.3-1.3-0.6-1.7-0.9c-0.6-0.4-1.3-1.3-1.8-2.7c-1.1-2.5-1.6-4.7-1.6-6.7
		c0-1.2,0.2-2.7,0.6-4.6c0-0.1,0.1-0.3,0.1-0.7c0.1-0.4,0.1-0.6,0.2-0.8c0.1-0.2,0.1-0.4,0.2-0.8c0.1-0.3,0.2-0.6,0.3-0.8
		s0.2-0.5,0.3-0.7s0.2-0.5,0.3-0.6c0.6-0.8,1.1-1.4,1.4-1.8c1.5-1.6,3.4-2.3,5.7-2.1c2.4,0.2,3.7,1,3.9,2.4c0.2,1.1,0.1,2.2-0.2,3.4
		s-0.7,2.1-1.1,2.9c-0.4,0.8-1,1.7-1.8,2.9s-1.3,2.1-1.7,2.8c-1.2,2.3-1.8,3.7-1.8,4.1c0,0.4,0.3,0.9,1,1.5c0.4,0.4,0.8,0.7,1.2,0.8
		c0.3,0.1,1,0,1.9-0.1c1.5-0.2,3-0.5,4.7-1c0.6-0.2,1.6-0.6,2.8-1.1C179.6,152.6,180.4,152.2,180.7,152z M164.4,149
		c0.3,0,0.9-1.1,2.1-3.3c1.1-2.2,1.7-3.5,1.7-3.9c0-0.5-0.3-0.9-0.9-1c-0.6-0.2-1,0-1.4,0.4c-0.3,0.3-0.6,0.8-0.8,1.5
		c-0.3,0.7-0.5,1.4-0.7,2c-0.1,0.7-0.3,1.4-0.4,2c-0.1,0.6-0.1,1.2-0.1,1.6C164.1,148.8,164.2,149,164.4,149z"/>
	<path class="st1" d="M223,154.3c0.5-0.4,0.9-0.5,1.3-0.4c0.4,0.1,0.5,0.5,0.5,1.2c0,0.2,0,0.4-0.1,0.6s-0.2,0.4-0.3,0.5
		c-0.1,0.2-0.3,0.3-0.5,0.5s-0.4,0.3-0.5,0.4c-0.1,0.1-0.3,0.2-0.6,0.4s-0.4,0.3-0.5,0.3c-0.6,0.4-1.1,0.6-1.7,0.8
		c0,0-0.1,0.1-0.2,0.1c-0.1,0.1-0.2,0.2-0.3,0.3s-0.3,0.1-0.6,0.2c-1,0.4-2.2,0.6-3.8,0.6c-1.5,0-2.5-0.2-2.9-0.5
		c-0.3-0.2-0.6-0.7-0.9-1.5s-0.5-1.4-0.6-1.9c-0.1-0.7-0.2-1.4,0-2.2c0.1-0.8,0.3-2,0.5-3.7c0-0.2,0-0.4,0-0.5s0-0.2-0.1-0.3
		s-0.2-0.1-0.3-0.1c-0.2,0-0.4-0.1-0.6-0.1c-0.3,0-0.8-0.1-1.4-0.3c-0.6-0.2-1-0.3-1.3-0.4v0.1c0,0.1-0.1,0.2-0.2,0.4
		c-0.8,2-1.7,3.7-2.7,5c-0.2,0.4-0.6,0.9-1.1,1.3c-0.2,0.2-0.4,0.4-0.5,0.5c-0.2,0.1-0.3,0.2-0.3,0.3l-0.1,0.1c-0.1,0-0.1,0-0.2,0.1
		c-0.1,0-0.1,0-0.1,0c-0.2,0.1-0.3,0.2-0.4,0.3c-0.6,0.5-1.3,0.9-2,1.1c-0.1,0-0.1,0.1-0.3,0.1c-0.1,0.1-0.2,0.3-0.3,0.4
		s-0.4,0.2-0.7,0.3c-0.6,0.4-1.5,0.6-2.7,0.7s-2.3,0.2-3.3,0.1c-1-0.1-1.6-0.2-1.9-0.4c-0.4-0.2-0.8-0.8-1.2-1.7s-0.7-1.6-0.8-2.2
		c-0.2-0.8-0.2-1.7-0.2-2.6c0.1-0.9,0.2-2.5,0.5-4.5v-0.6c0-0.1-0.1-0.2-0.2-0.3c-0.1-0.1-0.2-0.1-0.4-0.1s-0.4,0-0.7,0
		c-0.4,0-0.9-0.1-1.7-0.3c-0.7-0.2-1.3-0.3-1.6-0.3l-0.1,0.2c0,0.1-0.1,0.3-0.1,0.5c-0.5,1.3-1,2.5-1.5,3.6s-1,2-1.4,2.6
		s-0.8,1.1-1.2,1.6c-0.4,0.4-0.6,0.7-0.8,0.9l-0.3,0.2c-0.7,0.4-1.1,0.3-1.4,0c-0.3-0.4-0.3-0.9-0.3-1.5l0.1-0.9
		c0.5-0.3,1-1.3,1.5-2.8c0.2-0.7,0.4-1.5,0.7-2.5c0.4-1.2,0.9-2.6,1.6-4.3c0.1-0.2,0.2-0.6,0.4-1.1s0.4-0.9,0.5-1.1s0.2-0.6,0.4-1
		c0.2-0.5,0.3-0.8,0.4-1.1s0.2-0.6,0.3-1.1c0.1-0.4,0.2-0.8,0.2-1.2s0.1-0.8,0.1-1.2s0.3-1.2,0.8-2.4c0.6-1.2,1-1.9,1.3-2.1
		c0.4-0.3,1-0.3,1.8-0.3s1.2,0.2,1.4,0.5c0.3,0.4,0.3,2,0,4.9c-0.2,1.9-0.3,3.1-0.3,3.6c0,0.6,0.2,1,0.5,1.3s0.6,0.4,0.8,0.4
		c0.3,0,0.7-0.3,1.4-0.7c1-0.6,1.7-0.9,2.2-0.9c0.4,0,0.8,0.3,1.2,1c0.3,0.4,0.4,0.9,0.4,1.2c0,0.4-0.2,1.1-0.6,2.1
		c-0.5,1.5-1,3.2-1.5,5.1c-0.3,1.5-0.4,2.6-0.3,3.4c0.1,0.7,0.6,1.6,1.3,2.6c0.3,0.4,0.6,0.7,0.8,0.8c0.1,0,0.2,0,0.4-0.1
		s0.4-0.2,0.6-0.3c0.2-0.1,0.4-0.2,0.4-0.2c0.8-0.2,1.4-0.4,1.7-0.5c1.9-1.1,3.5-2.1,4.6-3.1c0.1-0.2,0.2-0.5,0.3-0.8
		c0.2-0.6,0.4-1.3,0.7-2.1s0.9-2,1.5-3.6c0.1-0.1,0.2-0.4,0.4-0.9c0.2-0.4,0.3-0.7,0.4-0.9c0.1-0.2,0.2-0.5,0.4-0.9s0.3-0.7,0.4-0.9
		s0.2-0.5,0.3-0.9c0.1-0.3,0.2-0.7,0.2-1s0.1-0.6,0.1-1s0.3-1,0.8-2c0.5-0.9,0.9-1.5,1.2-1.7c0.4-0.2,0.9-0.3,1.5-0.2s1,0.3,1.2,0.5
		c0.3,0.4,0.2,1.7-0.2,4.1c-0.3,1.5-0.4,2.5-0.4,3s0.1,0.9,0.3,1.2c0.3,0.3,0.5,0.4,0.7,0.4s0.6-0.2,1.2-0.5
		c0.9-0.4,1.5-0.6,1.8-0.6c0.4,0,0.7,0.3,1,0.9c0.2,0.4,0.3,0.7,0.3,1s-0.2,0.9-0.6,1.7c-0.5,1.3-1,2.7-1.4,4.3
		c-0.3,1.3-0.5,2.2-0.4,2.8s0.4,1.4,1,2.3c0.3,0.4,0.4,0.6,0.6,0.7c0.1,0,0.2,0,0.4,0s0.3-0.1,0.5-0.2c0.2-0.1,0.3-0.1,0.4-0.1
		c0.7-0.2,1.2-0.3,1.4-0.4C220.5,155.9,222,155.1,223,154.3z"/>
	<path class="st1" d="M248.9,151.6c0.5-0.4,1-0.6,1.4-0.5s0.6,0.4,0.6,1.1c0,0.1,0,0.3-0.1,0.4c-0.1,0.2-0.1,0.3-0.2,0.4
		s-0.2,0.3-0.3,0.4c-0.1,0.1-0.3,0.3-0.4,0.4c-0.1,0.1-0.3,0.2-0.4,0.4c-0.2,0.1-0.3,0.2-0.4,0.3s-0.3,0.2-0.4,0.3
		c-0.2,0.1-0.3,0.2-0.4,0.3c-0.5,0.4-1.1,0.7-1.7,0.9c-0.1,0-0.4,0.2-1,0.5l-0.2,0.3c-0.8,0.7-1.8,1.2-3.3,1.3
		c-0.9,0.1-1.6,0.1-2.1,0s-1.2-0.3-2-0.7c-1.3-0.6-2.1-1.1-2.6-1.5c-0.3-0.2-0.5-0.3-0.7-0.3s-0.6,0.3-1.1,0.7
		c-1.7,1.2-3.7,1.9-6.1,2.1c-2.4,0.2-3.9-0.3-4.6-1.4c-0.4-0.7-0.6-2.1-0.6-4.1s0.3-3.4,0.8-4.3c0.4-0.8,0.7-1.3,1-1.7
		s0.5-0.7,0.7-1s0.6-0.8,1.1-1.5c1.8-2.2,3.1-3.7,4.1-4.5c0.8-0.6,1.7-1.1,2.8-1.6c1.1-0.4,2.2-0.7,3.3-0.9c1.2-0.1,2.2,0,3.1,0.5
		c1.1,0.6,1.8,1.5,2,2.9s0.2,2.7-0.1,3.9c-0.3,1.3-0.7,2.5-1.3,3.6c-0.5,1.1-0.8,2.2-1.1,3.5c-0.2,1.3-0.2,2.1,0,2.5
		c0.5,1.1,2.3,1.1,5.2,0.2c0.1,0,0.2,0,0.3,0c0.2-0.1,0.3-0.1,0.4-0.2C246.5,153.3,247.9,152.4,248.9,151.6z M236.2,143.7
		c0.3-0.2,0.5-0.3,0.5-0.4c0-0.1,0-0.3-0.2-0.4c-0.3-0.4-0.8-0.6-1.4-0.7c-0.6-0.1-1.2-0.1-1.8,0.1c-0.6,0.1-1.5,0.7-2.7,1.7
		s-2,1.8-2.4,2.5c-0.6,0.8-1,1.5-1.4,2.2c-0.5,0.7-0.8,1.6-1,2.9s-0.1,2.1,0.2,2.5c0.3,0.3,0.9,0.5,1.8,0.5s1.8-0.2,2.7-0.5
		c0.8-0.4,1.4-1,1.8-1.8c0.7-1.3,1.2-2.4,1.6-3.2c0.7-1.3,1.1-2.1,1.1-2.6c0-0.3,0.1-0.6,0.4-0.9c0.2-0.3,0.3-0.6,0.2-0.9
		C235.5,144.4,235.7,144,236.2,143.7z"/>
	<path class="st1" d="M285.3,150.3c0.6-0.5,1.2-0.7,1.6-0.6c0.5,0.1,0.7,0.5,0.7,1.3c0,0.3-0.1,0.5-0.2,0.8s-0.2,0.5-0.4,0.6
		c-0.1,0.2-0.3,0.4-0.6,0.6c-0.3,0.2-0.5,0.4-0.6,0.5c-0.2,0.1-0.4,0.3-0.7,0.5c-0.3,0.2-0.5,0.3-0.6,0.4c-0.9,0.6-1.7,1.2-2.5,1.9
		c-1.1,0.9-2.2,1.5-3.4,1.8c-1.4,0.4-2.4,0.6-3.2,0.6c-0.8,0-1.7-0.1-2.9-0.5c-1.1-0.3-2-0.6-2.6-1.1c-0.7-0.5-1.2-1.1-1.5-1.8
		s-0.6-1.6-0.6-2.7c0-1.1,0.1-2.3,0.4-3.7s0.7-3.1,1.3-5.1c0.2-0.5,0.1-0.8-0.2-0.8c-0.8,0-2.2,1.3-4.4,4c-2.2,2.7-3.9,5.2-5.1,7.5
		c-0.8,1.6-1.5,2.6-2.1,2.9c-0.6,0.3-1.2,0.2-1.9-0.5c-0.6-0.5-0.9-1-0.8-1.5c0-0.5,0.4-1.5,1.1-3.1c0.6-1.2,0.9-2,0.9-2.4
		s0.3-1.2,0.9-2.4c0.4-1.4,0.5-2.1,0.4-2.2c-0.3,0-0.9,0.5-1.8,1.5s-1.9,2.2-2.8,3.6c-1,1.4-1.7,2.5-2.2,3.5
		c-0.8,1.5-1.5,2.4-2.1,2.8c-0.6,0.4-1.3,0.3-1.9-0.3c-0.6-0.6-0.9-1.2-0.7-2.1c0.1-0.8,0.7-2.2,1.7-4c0.3-0.6,0.6-1.4,0.8-2.6
		c0.3-1.1,0.5-1.9,0.8-2.4c0.9-2,1.9-3.4,3-4.2c0.3-0.2,0.5-0.4,0.8-0.5c0.3-0.2,0.6-0.3,0.9-0.3c0.3,0,0.5,0,0.6,0.3
		c0.1,0.2,0.1,0.6,0,1.1c-0.3,0.9-0.2,1.3,0.3,1.2c0.3,0,0.7-0.4,1.2-1.1c0.6-1,1.4-1.8,2.3-2.4c0.3-0.2,0.6-0.4,0.8-0.5
		c0.3-0.1,0.5-0.2,0.5-0.2c0.1-0.1,0.3-0.1,0.6-0.1s0.4,0.1,0.5,0.1s0.3,0.1,0.7,0.2c0.4,0.1,0.6,0.2,0.8,0.2
		c0.8,0.2,1.2,0.4,1.2,0.7c0.1,0.1,0.1,0.5,0.1,1.3c0.1,0.4,0.1,0.6,0.2,0.8s0.3,0.2,0.5,0.2c0.3,0,0.6-0.1,0.9-0.3
		c0.4-0.2,0.9-0.5,1.6-1c1.7-1.1,3.1-1.7,4.3-1.8c0.9-0.1,1.5-0.1,1.7,0.1c0.2,0.1,0.5,0.5,0.7,1c0.3,0.9,0.4,2,0.2,3.3
		s-0.6,2.6-1.1,3.8c-0.6,1.2-0.9,2.1-0.9,2.7c0,0.5-0.2,1.2-0.5,2.2c-0.3,0.8-0.3,1.6,0.1,2.3s1,1.2,1.9,1.3c0.5,0.1,1.2,0,2-0.1
		c0.2-0.1,1.6-0.6,4.1-1.7l0.8-0.5c0.5-0.3,1.1-0.6,1.7-1s1.2-0.7,1.8-1.1C284.7,150.8,285.1,150.5,285.3,150.3z"/>
	<path class="st1" d="M302.8,151.3c0.2,0.3,0.2,0.7,0,1s-0.7,0.8-1.5,1.5c-1.3,1.1-2.9,2.1-4.6,3.1c-1.3,0.7-2.7,0.9-4.2,0.8
		s-2.8-0.5-4.1-1.2c-1.3-0.7-2.4-1.6-3.3-2.7c-1.3-1.6-1.7-3.6-1.2-6.2c0.1-0.2,0.2-0.9,0.3-2s0.3-2.2,0.5-3
		c0.2-0.9,0.4-1.5,0.6-1.7c0.2-0.3,0.7-0.5,1.2-0.6c0.6-0.1,1.2-0.1,1.8,0c0.6,0.1,1.2,0.3,1.8,0.5c0.6,0.3,0.9,0.6,1.2,1.1
		s0.2,0.9,0,1.5c-0.6,1.3-1,2.3-1,2.8s-0.3,1.1-0.8,1.9c-0.5,0.6-0.8,1.2-0.9,2s0,1.3,0.4,1.6c0.3,0.1,0.5,0.5,0.5,1
		s0.4,1.1,1.1,1.7c0.5,0.5,0.9,0.7,1.2,0.8s0.8,0,1.6-0.2c1.1-0.4,2.6-1.3,4.4-2.6c1.4-1,2.5-1.6,3.2-1.8
		C301.8,150.4,302.4,150.6,302.8,151.3z M295.4,131.3c-0.8,0.2-1.5-0.1-2.3-0.8c-0.5-0.5-0.8-0.9-0.8-1c0-0.2,0.2-0.4,0.6-0.8
		c0.6-0.4,1.3-0.6,2.2-0.6s1.5,0.2,1.9,0.6c0.4,0.5,0.4,1,0.1,1.5C296.7,130.8,296.1,131.1,295.4,131.3z"/>
	<path class="st1" d="M319,152c0.6-0.5,1.2-0.7,1.6-0.6s0.7,0.5,0.7,1.3c0,0.3,0,0.5-0.1,0.8s-0.3,0.5-0.4,0.6
		c-0.1,0.2-0.3,0.4-0.6,0.6c-0.3,0.2-0.5,0.4-0.6,0.5c-0.2,0.1-0.4,0.3-0.7,0.5c-0.3,0.2-0.5,0.3-0.6,0.4c-0.7,0.4-1.4,0.8-2,1.1
		c-0.1,0-0.1,0.1-0.2,0.1s-0.2,0.1-0.3,0.1c-0.1,0-0.2,0.1-0.3,0.1c-0.1,0-0.2,0.1-0.3,0.1h-0.1c-1.7,0.7-3.5,1.1-5.5,1.2
		c-2,0.1-3.5-0.1-4.4-0.5c-0.1-0.1-0.6-0.3-1.3-0.6c-0.8-0.3-1.3-0.6-1.7-0.9c-0.6-0.4-1.3-1.3-1.8-2.7c-1.1-2.5-1.6-4.7-1.6-6.7
		c0-1.2,0.2-2.7,0.6-4.6c0-0.1,0.1-0.3,0.1-0.7c0.1-0.4,0.1-0.6,0.2-0.8s0.1-0.4,0.2-0.8c0.1-0.3,0.2-0.6,0.3-0.8
		c0.1-0.2,0.2-0.5,0.3-0.7c0.1-0.2,0.2-0.5,0.3-0.6c0.6-0.8,1.1-1.4,1.4-1.8c1.5-1.6,3.4-2.3,5.7-2.1c2.4,0.2,3.7,1,3.9,2.4
		c0.2,1.1,0.1,2.2-0.2,3.4s-0.7,2.1-1.1,2.9c-0.4,0.8-1,1.7-1.8,2.9s-1.3,2.1-1.7,2.8c-1.2,2.3-1.8,3.7-1.8,4.1c0,0.4,0.3,0.9,1,1.5
		c0.4,0.4,0.8,0.7,1.2,0.8c0.3,0.1,1,0,1.9-0.1c1.5-0.2,3-0.5,4.7-1c0.6-0.2,1.6-0.6,2.8-1.1C318,152.6,318.7,152.2,319,152z
		 M302.8,149c0.3,0,0.9-1.1,2.1-3.3c1.1-2.2,1.7-3.5,1.7-3.9c0-0.5-0.3-0.9-0.9-1c-0.6-0.2-1,0-1.4,0.4c-0.3,0.3-0.6,0.8-0.8,1.5
		c-0.3,0.7-0.5,1.4-0.7,2c-0.1,0.7-0.3,1.4-0.4,2s-0.1,1.2-0.1,1.6C302.4,148.8,302.5,149,302.8,149z"/>
	<path class="st1" d="M316.5,150.9c0.4-0.8,1.3-2.5,2.6-5.2c1.3-2.7,2.4-4.6,3.3-5.7c0.1-0.2,0.3-0.4,0.5-0.5
		c0.3-0.4,0.8-0.6,1.4-0.8s1.1-0.2,1.6,0.1c0.2,0.1,0.3,0.4,0.4,0.9s0.2,0.7,0.3,0.8c0.2,0,0.7-0.2,1.4-0.8c1.3-0.9,3.3-1.6,6.1-2.2
		c1.1-0.3,1.8-0.4,2.2-0.3s0.8,0.3,1.3,0.8c0.6,0.6,1,1.4,1,2.3c0,0.9-0.3,1.8-0.9,2.6c-0.5,0.7-1.1,2.1-1.8,4.1
		c-0.8,2.1-1.1,3.5-1.1,4.3c0,0.6,0.2,1.2,0.6,1.8c0.4,0.7,0.8,1.2,1.4,1.6c0.5,0.4,1,0.6,1.5,0.6c0.7,0,2.1-0.6,4.2-1.7
		s3.8-2.2,5.1-3.2c0.9-0.7,1.6-1,2-1s0.6,0.5,0.6,1.2c0,0.3-0.1,0.7-0.4,1.2c-0.3,0.4-0.7,0.9-1.2,1.4c-0.5,0.4-1.1,0.9-1.8,1.4
		c-0.7,0.5-1.4,0.8-2,1.1c-1.8,0.9-3.2,1.5-4,1.9c-1.4,0.6-2.6,0.8-3.7,0.5s-2.3-1.1-3.8-2.6c-1.2-1.2-1.9-2-2.1-2.4
		s-0.3-1.3-0.3-2.5c0-1.8,0.3-3.6,1-5.6c0.6-1.9,0.8-3,0.7-3.1c-0.2-0.2-1.3,0.7-3.4,2.7s-4.1,4-6.2,6.2c-2,2.2-3,3.5-3,3.8
		s-0.2,0.6-0.5,0.9c-0.3,0.3-0.8,0.6-1.3,0.8s-0.9,0.3-1.3,0.2c-0.6-0.1-1.1-0.6-1.3-1.5c-0.2-0.6-0.2-1.2-0.1-1.6
		C315.2,153,315.6,152.1,316.5,150.9z"/>
	<path class="st1" d="M368.8,151.6c0.6-0.4,1.2-0.6,1.6-0.4c0.4,0.2,0.6,0.6,0.6,1.4c0,0.2-0.1,0.4-0.2,0.6
		c-0.1,0.2-0.2,0.4-0.4,0.6c-0.2,0.2-0.3,0.3-0.5,0.5c-0.2,0.1-0.4,0.3-0.6,0.4c-0.3,0.2-0.5,0.3-0.6,0.4c-0.2,0.1-0.4,0.2-0.6,0.3
		c-0.3,0.1-0.4,0.2-0.5,0.3c-0.7,0.4-1.4,0.7-2.2,0.9c0,0-0.4,0.2-1,0.6c-0.7,0.4-1.4,0.9-2.2,1.3c-0.8,0.5-1.5,0.8-2.1,1
		c-0.7,0.3-1.5,0.4-2.3,0.6c-0.8,0.1-1.6,0.2-2.5,0.3c-0.9,0-1.7,0-2.5-0.3c-0.8-0.2-1.5-0.6-2-1c-0.6-0.6-1.2-1.4-1.6-2.4
		s-0.7-2.1-0.8-3.3c-0.1-1.2-0.2-2.3-0.2-3.3s0-2,0.1-3c0-0.1,0.2-1.3,0.5-3.6c0.3-2.2,0.6-4.4,0.8-6.6l0.4-3.2
		c-0.3-0.2-1-0.3-1.9-0.4c-0.6,0-1.1,0-1.7,0c-1.4,0-2.3,0-2.9-0.1c-0.1,0-0.3,0-0.5,0s-0.4,0-0.6,0s-0.4,0-0.6,0s-0.4,0-0.5-0.1
		c-0.1,0-0.2-0.1-0.2-0.2c-0.1-0.4,0.1-0.8,0.5-1c0,0,0.2-0.1,0.6-0.4c0.3-0.2,0.7-0.4,1.1-0.6c0.4-0.2,0.9-0.4,1.5-0.5
		c0.6-0.2,1.3-0.2,2-0.2c2.1,0.2,3.4,0.3,3.9,0.2s1-0.4,1.5-0.9c0.8-0.7,1.8-2.5,3-5.5c0.1-0.1,0.1-0.3,0.3-0.5
		c0.5-1.1,0.9-2,1.2-2.6c0.3-0.6,0.7-1.5,1.3-2.4c0.6-1,1.2-1.8,1.8-2.5c0.7-0.7,1.4-1.2,2.1-1.5c2.3-1.1,3.5-1,3.5,0.2
		c0,0.7-0.5,2.4-1.6,4.9c-0.3,0.7-0.5,1.2-0.7,1.6c-0.2,0.5-0.3,1.1-0.4,1.8c-0.1,0.7-0.4,1.4-0.8,2.1c-0.7,1.2-1.2,2.2-1.7,3
		c-0.5,0.9-0.7,1.5-0.6,1.7s1.5,0.5,4.2,0.8c1.9,0.2,3,0.4,3.4,0.5s0.6,0.4,0.5,0.8c-0.1,0.5-0.4,0.8-0.9,0.7c-0.2,0-0.7,0-1.3,0
		c-0.7,0-1.4,0.1-2.3,0.1s-1.7,0.1-2.6,0.3c-0.9,0.1-1.6,0.2-2.2,0.3c-0.3,0.1-0.7,0.9-1.2,2.7c-0.5,1.7-1.1,3.8-1.7,6.3
		s-1,4.1-1.3,5c-1.4,4.3-1.2,7.2,0.5,8.8c0.8,0.7,1.6,1.1,2.3,1c0.4,0,0.9-0.2,1.4-0.5c0.1-0.1,0.4-0.3,0.9-0.5s1-0.4,1.5-0.6
		c0.5-0.2,1-0.4,1.6-0.6c0.5-0.2,0.8-0.3,0.9-0.3C365.6,153.4,367.4,152.5,368.8,151.6z"/>
	<path class="st1" d="M395,151.6c0.5-0.4,1-0.6,1.4-0.5s0.6,0.4,0.6,1.1c0,0.1,0,0.3-0.1,0.4s-0.1,0.3-0.2,0.4
		c-0.1,0.1-0.2,0.3-0.3,0.4c-0.1,0.1-0.3,0.3-0.4,0.4s-0.3,0.2-0.4,0.4c-0.2,0.1-0.3,0.2-0.4,0.3s-0.3,0.2-0.4,0.3
		c-0.2,0.1-0.3,0.2-0.4,0.3c-0.5,0.4-1.1,0.7-1.7,0.9c-0.1,0-0.4,0.2-1,0.5l-0.2,0.3c-0.8,0.7-1.8,1.2-3.3,1.3
		c-0.9,0.1-1.6,0.1-2.1,0s-1.2-0.3-2-0.7c-1.3-0.6-2.1-1.1-2.6-1.5c-0.3-0.2-0.5-0.3-0.7-0.3s-0.6,0.3-1.1,0.7
		c-1.7,1.2-3.7,1.9-6.1,2.1c-2.4,0.2-3.9-0.3-4.6-1.4c-0.4-0.7-0.6-2.1-0.6-4.1s0.3-3.4,0.8-4.3c0.4-0.8,0.7-1.3,1-1.7
		s0.5-0.7,0.7-1s0.6-0.8,1.1-1.5c1.8-2.2,3.1-3.7,4.1-4.5c0.8-0.6,1.7-1.1,2.8-1.6c1.1-0.4,2.2-0.7,3.3-0.9c1.2-0.1,2.2,0,3.1,0.5
		c1.1,0.6,1.8,1.5,2,2.9c0.3,1.4,0.2,2.7-0.1,3.9c-0.3,1.3-0.7,2.5-1.3,3.6c-0.5,1.1-0.8,2.2-1.1,3.5c-0.2,1.3-0.2,2.1,0,2.5
		c0.5,1.1,2.3,1.1,5.2,0.2c0.1,0,0.2,0,0.3,0c0.2-0.1,0.3-0.1,0.4-0.2C392.6,153.3,394,152.4,395,151.6z M382.4,143.7
		c0.3-0.2,0.5-0.3,0.5-0.4c0-0.1,0-0.3-0.2-0.4c-0.3-0.4-0.8-0.6-1.4-0.7c-0.6-0.1-1.2-0.1-1.8,0.1c-0.6,0.1-1.5,0.7-2.7,1.7
		s-2,1.8-2.4,2.5c-0.6,0.8-1,1.5-1.4,2.2c-0.5,0.7-0.8,1.6-1,2.9s-0.1,2.1,0.2,2.5c0.3,0.3,0.9,0.5,1.8,0.5s1.8-0.2,2.7-0.5
		c0.8-0.4,1.4-1,1.8-1.8c0.7-1.3,1.2-2.4,1.6-3.2c0.7-1.3,1.1-2.1,1.1-2.6c0-0.3,0.1-0.6,0.4-0.9s0.3-0.6,0.2-0.9
		C381.6,144.4,381.8,144,382.4,143.7z"/>
	<path class="st1" d="M415.9,148.8c0.6-0.5,1.2-0.7,1.6-0.6c0.5,0.1,0.7,0.6,0.7,1.4c0,0.2,0,0.3-0.1,0.5s-0.1,0.4-0.2,0.5
		c-0.1,0.2-0.2,0.3-0.4,0.5c-0.2,0.2-0.3,0.3-0.5,0.4s-0.3,0.3-0.5,0.4c-0.2,0.1-0.4,0.3-0.5,0.4c-0.1,0.1-0.3,0.2-0.5,0.4
		c-0.2,0.1-0.3,0.2-0.4,0.3c-0.7,0.4-1.4,0.8-2.1,1.1c-0.1,0-0.2,0.1-0.4,0.2c-0.8,0.8-1.4,1.3-2,1.6c-0.6,0.2-1.3,0.4-2.2,0.4
		c-0.9,0.3-1.6,0.3-2-0.1c-0.1,0-0.4,0-1-0.1s-0.9-0.1-1.1-0.1s-0.5,0-0.9,0s-0.8,0-1,0.1c-0.3,0.1-0.6,0.2-0.9,0.3
		c-0.4,0.2-0.8,0.3-1.4,0.3s-1.5-0.1-2.9-0.3c-1-0.1-1.8-0.2-2.5-0.3c-0.1,0-0.3,0-0.5,0s-0.3,0-0.5,0s-0.3-0.1-0.5-0.1
		c-0.3-0.2-0.7-0.9-1.1-2.3c-0.3-0.8-0.4-1.5-0.5-2.3c-0.1-0.3-0.1-0.6,0-0.8c0.1-0.7,0.4-1.1,0.7-1.3c0.1-0.1,0.3-0.1,0.6-0.2
		c0.3-0.1,0.5-0.2,0.7-0.3c0.3-0.2,0.5-0.5,0.6-1c0.2-0.5,0.3-1,0.3-1.5c0-0.4,0.1-0.7,0.1-0.9c0.1-0.2,0.3-0.3,0.6-0.5
		c0.3-0.2,0.5-0.3,0.5-0.3c0.3-0.3,0.6-0.7,0.9-1.1c0.1-0.3,0.3-1,0.7-2.3c0.3-1,0.6-2.1,0.8-3.2c0.2-1.1,0.3-2,0.4-2.7
		c0.1-1.7,0.3-2.7,0.6-3.1c0.2-0.3,0.7-0.5,1.3-0.4c0.7,0,1.2,0.2,1.7,0.6c0.2,0.1,0.4,0.4,0.6,0.7s0.3,0.6,0.4,0.9
		c0.1,0.3,0.2,0.6,0.3,1c0.1,0.4,0.2,0.7,0.3,0.9c0.5,1.5,0.9,2.9,1.1,4.2c0.1,0.5,0.2,1.2,0.3,2.2c0.1,1,0.2,1.8,0.4,2.6
		s0.3,1.5,0.6,2.2c0.4,1.2,0.6,2.3,0.5,3.3c-0.1,0.6-0.1,1.2-0.1,1.7s0.2,1,0.5,1.3s0.9,0.5,1.6,0.4c0.3,0,0.6-0.1,0.9-0.2
		c0.3-0.1,0.6-0.2,0.8-0.3c0.2-0.1,0.5-0.3,0.8-0.5c0.3-0.3,0.5-0.4,0.6-0.5s0.3-0.3,0.7-0.6c0.4-0.4,1.1-0.9,1.9-1.5
		C415.3,149.2,415.8,148.9,415.9,148.8z M402.9,149.8c0.2-1,0-2.5-0.7-4.7c-0.7-2-1.1-3.1-1.3-3.1c-0.2,0-0.4,0.4-0.5,1.2
		c-0.2,0.7-0.4,1.3-0.6,1.6c-0.3,0.5-0.9,1.5-1.6,3s-1,2.4-0.9,2.6c0.1,0.2,0.4,0.4,0.8,0.6c0.4,0.2,0.9,0.4,1.4,0.5
		s0.9,0.1,1.2,0.1C401.9,151.4,402.6,150.7,402.9,149.8z"/>
</g>
</svg>
