<?xml version="1.0" encoding="utf-8"?>
<!-- Generator: Adobe Illustrator 25.2.3, SVG Export Plug-In . SVG Version: 6.00 Build 0)  -->
<svg version="1.1" id="Capa_1" xmlns="http://www.w3.org/2000/svg" xmlns:xlink="http://www.w3.org/1999/xlink" x="0px" y="0px"
	 viewBox="0 0 552.5 482.9" style="enable-background:new 0 0 552.5 482.9;" xml:space="preserve">
<style type="text/css">
	.st0{display:none;}
	.st1{fill:#D7B300;}
</style>
<g id="Capa_2_1_" class="st0">
</g>
<g>
	<path class="st1" d="M438.8,266c-0.3-4.9-1-9.7-2-14.5c-1.4-6.7-3.3-13.2-5.7-19.5c-3-7.8-6.8-15.1-11.3-22.1
		c-2.2-3.4-4.6-6.7-7.2-9.8c-2.2-2.7-4.5-5.4-7-7.8c-1-1-1.9-0.9-2.9,0.1c-1.1,1.2-1,2.3,0.5,3.7c2.5,2.4,4.8,5.1,6.9,7.9
		c1.9,2.4,3.8,4.9,5.5,7.5c1.9,2.9,3.8,5.9,5.5,9c2.4,4.3,4.4,8.8,6.1,13.4c1.9,5.2,3.7,10.5,4.8,16c0.6,3.1,1.3,6.2,1.7,9.3
		c0.3,2.4,0.5,4.8,0.7,7.2c0.2,2.2,0.4,4.5,0.4,6.7c0,2.3,0,4.6-0.2,6.9s-0.2,4.6-0.5,7c-0.1,0.4,0.1,0.9-0.1,1.3
		c-0.2,1.3-0.3,2.6-0.5,3.8c-0.3,1.4-0.2,2.8-0.8,4.1c-0.2,0.4,0.1,0.9-0.2,1.3c-0.7,2.8-1.2,5.6-2.1,8.3c-1.3,3.9-2.6,7.8-4.2,11.5
		c-1.3,2.9-2.7,5.9-4.2,8.7c-2.9,5.2-6,10.3-9.7,15c-1.8,2.3-3.7,4.7-5.6,6.9c-2.3,2.6-4.8,5.1-7.3,7.5c-2.6,2.4-5.2,4.8-8,6.9
		c-2.1,1.5-4.1,3.1-6.2,4.5c-3.2,2.2-6.5,4.2-9.9,6.1c-4.6,2.4-9.3,4.5-14.1,6.4c-0.4,0.1-0.7,0.2-1.1,0.1c2.3-2.1,4.5-4.2,6.7-6.3
		c5.4-4.9,10.8-9.8,16.1-14.6c3.3-3,6.5-5.9,9.7-8.9c0.9-0.8,0.9-2.3,0.2-3.2c-0.8-0.9-2-1-2.9-0.2c-1.4,1.3-2.8,2.6-4.1,3.8
		c-2,1.8-4,3.6-5.9,5.4c-3.4,3.1-6.7,6.2-10.1,9.2c-2.9,2.6-5.8,5.3-8.7,7.9c-2.7,2.4-5.4,4.8-8,7.4c-1.7,1.7-1.3,3.4,0.9,4.3
		c1.5,0.6,3,1.2,4.5,1.8c2.5,1,5,1.8,7.4,2.9c3.1,1.4,6.3,2.3,9.4,3.7c2.4,1.1,4.9,1.7,7.3,2.8c3.1,1.4,6.2,2.5,9.3,3.7
		c2.9,1.2,5.9,2.3,8.8,3.5c2.6,1,5.2,2.1,7.8,3.1c1.1,0.4,2.2-0.1,2.6-1.1c0.6-1.3,0.3-2.1-0.9-2.9c-1-0.6-2.2-0.8-3.3-1.3
		c-3.5-1.4-7-2.8-10.6-4.2c-4.2-1.7-8.4-3.4-12.6-5.1c-4.1-1.6-8.2-3.2-12.2-4.8c-2.6-1-5.3-2.1-7.9-3.2c0.3-0.1,0.5-0.3,0.8-0.4
		c2.7-1,5.3-2.1,7.9-3.4c5.2-2.5,10.3-5.4,15.1-8.6s9.2-6.7,13.5-10.5c3-2.7,5.8-5.6,8.6-8.6c6-6.5,11.1-13.5,15.4-21.2
		c2.7-4.7,5-9.5,6.9-14.6c1.5-4,2.8-8,3.9-12.1s1.8-8.2,2.5-12.4c0.4-2.5,0.6-5.1,0.8-7.6c0.3-2.7,0.4-5.4,0.4-8.1
		C439.3,272.5,439,269.3,438.8,266z"/>
	<path class="st1" d="M313.1,391.8c-1.1-0.3-2.2-0.7-3.3-1.1c-3.4-1-6.8-2.1-10.2-3.1c-1.8-0.5-3.7-0.9-5.4-1.6
		c-1.2-0.5-2.5-0.6-3.6-1.3c0.1-0.1,0.1-0.2,0.2-0.3c5.7-3.7,11.4-7.3,17.1-11c0.6-0.4,1.1-0.8,1.3-1.5c0.5-1.4-0.2-2.5-1.2-3.3
		s-2.4-0.8-3.5,0c-0.3,0.2-0.6,0.5-0.9,0.7c-3.8,2.1-7.3,4.7-10.9,6.9c-1.9,1.1-3.6,2.5-5.8,3.5c0.3-1.5,0.5-2.9,0.7-4.2
		c0.2-1.1,0.2-2.3,0.7-3.3c0.2-0.4-0.1-0.9,0.2-1.3c0-0.1,0-0.2,0.1-0.2c0.2-0.4-0.1-0.9,0.2-1.3c0-0.1,0-0.2,0.1-0.2
		c0.2-0.4-0.1-0.9,0.2-1.3c0-0.1,0-0.2,0.1-0.3c0.2-0.4-0.1-0.9,0.2-1.3c0-0.1,0-0.2,0.1-0.3c0.2-0.4-0.1-0.9,0.2-1.3
		c0-0.1,0.1-0.2,0.1-0.3c0.1-0.4-0.1-0.9,0.2-1.3c0-0.1,0.1-0.2,0.1-0.3c0.1-0.4-0.1-0.9,0.2-1.3c0.4-2.2,0.8-4.3,1.2-6.5
		c0.3-1.5,0.6-3.1-0.8-4.3c-0.9-0.7-2.1-1-3.2-0.5c-1.2,0.5-1.9,1.6-2.1,2.9c-0.3,1.9-0.6,3.7-0.9,5.6c-0.4,2.7-0.8,5.4-1.4,8
		c-0.2,0.4,0,0.9-0.2,1.3c0,0.1,0,0.1,0,0.2c-0.2,0.4,0.1,0.9-0.2,1.3c0,0.1,0,0.2-0.1,0.2c-0.2,0.4,0.1,0.9-0.2,1.3
		c0,0.1,0,0.2-0.1,0.2c-0.2,0.4,0.1,0.9-0.2,1.3c0,0.1,0,0.2-0.1,0.2c-0.2,0.4,0.1,0.9-0.2,1.3c-0.5,0.6-0.7-0.1-0.9-0.3
		c-3.7-4.4-7.4-8.9-11.1-13.3c-1-1.2-2.2-2.2-4-1.7s-3.2,2.8-2.2,4.1c1.3,1.8,2.6,3.5,4.1,5.1c1.8,1.9,3.4,4,5.1,6
		c1.3,1.5,2.6,3,3.9,4.5c0.6,0.7,1.2,1.5,1.8,2.3c-0.5,0-0.9-0.2-1.3-0.3c-3.3-1-6.6-1.9-9.8-2.9c-3.6-1.2-7.2-2.3-10.8-3.4
		c-1.5-0.4-3.7,1-4,2.6c-0.2,1.4-0.2,2.6,2.1,3.2c2.7,0.8,5.4,1.7,8.1,2.5c2.9,0.9,5.8,1.6,8.6,2.6c1.5,0.5,3.2,0.8,4.8,1.6
		c-0.7,0.4-1.4,0.8-2,1.2c-2.5,1.7-5,3.4-7.6,5c-1.2,0.7-2.4,1.3-3.2,2.5c-0.1,0.6-0.1,1.2-0.1,1.8c0.4,1.7,2.5,3,4.3,2
		c2.1-1.1,4-2.5,6-3.8c1.7-1,3.2-2.3,5.1-3.2c-0.4,1.9-0.7,3.7-1.1,5.5c-0.2,0.4,0.1,0.9-0.2,1.3c0,0.1,0,0.2-0.1,0.2
		c-0.2,0.4,0.1,0.9-0.2,1.3c0,0.1,0,0.2-0.1,0.2c-0.2,0.4,0.1,0.9-0.2,1.3c0,0.1,0,0.2-0.1,0.2c-0.2,0.4,0.1,0.9-0.2,1.3
		c0,0.1,0,0.2-0.1,0.2c-0.2,0.4,0.1,0.9-0.2,1.3c0,0.1-0.1,0.2-0.1,0.3c-0.1,0.4,0.1,0.9-0.2,1.3c0,0.1-0.1,0.2-0.1,0.3
		c-0.1,0.4,0.1,0.9-0.2,1.3c-0.3,1.5-0.5,2.9-0.8,4.4c-0.4,1.8,0.3,3.3,1.8,3.8c1.9,0.6,3.8-0.6,4.1-2.1c0.4-1.9,0.7-3.9,1.1-5.8
		c0.4-1.8,0.5-3.7,1.1-5.5c0.2-0.4,0-0.9,0.2-1.3c0-0.1,0-0.1,0-0.2c0.2-0.4,0-0.9,0.2-1.3c0-0.1,0-0.2,0.1-0.2
		c0.2-0.4-0.1-0.9,0.2-1.3c0-0.1,0-0.2,0.1-0.2c0.2-0.4-0.1-0.9,0.2-1.3c0-0.1,0-0.2,0.1-0.2c0.2-0.4-0.1-0.9,0.2-1.3
		c0-0.1,0.1-0.2,0.1-0.3c0.1-0.4-0.1-0.9,0.2-1.3c0-0.1,0.1-0.2,0.1-0.3c0.1-0.4-0.1-0.9,0.2-1.3c0.2-1,0.4-2,0.5-2.9
		c0.9-0.1,1.4,0.5,1.8,1c2.4,3,4.8,5.9,7.3,8.7c2.5,2.9,5.1,5.8,7.4,8.9c1.6,2.1,3.9,1.7,5.5,0c0.6-0.6,1-1.6,0.5-2.5
		c-0.4-0.7-0.9-1.3-1.4-2c-2.7-3.2-5.5-6.4-8.2-9.6c-0.3-0.6-0.1-0.8,0.5-0.5c0.2,0.1,0.4,0.2,0.6,0.3c3.5,1,7.1,1.9,10.6,3.2
		c1.5,0.5,2.6,0.2,3.8-0.6C315.1,395.6,315.5,392.5,313.1,391.8z"/>
</g>
<path class="st1" d="M290.8,202.7c0.8,0,1.6-0.1,2.4-0.1c0.6-0.2,1.3,0.1,1.9-0.2c0.7,0,1.4-0.1,2.1-0.1c0.7-0.2,1.5,0.1,2.2-0.2
	c0.6,0,1.3,0,1.9-0.1c0.6-0.2,1.3,0.1,1.9-0.2c0.6,0,1.2,0,1.8-0.1c0.6-0.2,1.3,0.1,1.9-0.2c0.6,0,1.2-0.1,1.9-0.1
	c0.5-0.2,1.1,0.1,1.7-0.2c0.6,0,1.2-0.1,1.8-0.1c0.5-0.2,1.1,0.1,1.7-0.2c0.6,0,1.2-0.1,1.8-0.1c0.5-0.2,1.1,0.1,1.6-0.2
	c0.5,0,1.1,0,1.6-0.1c0.5-0.2,1.1,0.1,1.6-0.2c0.5,0,1.1-0.1,1.6-0.1c0.5-0.2,1.1,0.1,1.6-0.2c0.5,0,1.1-0.1,1.6-0.1
	c0.5-0.2,1,0.1,1.4-0.2c0.5,0,1-0.1,1.6-0.1c0.5-0.2,1.1,0.1,1.6-0.2c0.4,0,0.9,0,1.3-0.1c0.5-0.2,1.1,0.1,1.6-0.2
	c0.4,0,0.9,0,1.3-0.1c0.4-0.2,0.9,0.1,1.4-0.2c1.3,0,2.3,0.3,2.6,1.7c0.3,1.5-0.4,2.7-1.8,3.4c-0.4,0.2-0.9-0.1-1.3,0.2
	c-0.4,0-0.9,0-1.3,0.1c-0.5,0.2-1-0.1-1.4,0.2c-0.5,0-1,0.1-1.6,0.1c-0.5,0.2-1-0.1-1.4,0.2c-0.5,0-1,0.1-1.6,0.1
	c-0.5,0.2-1.1-0.1-1.6,0.2c-0.4,0-0.9,0-1.3,0.1c-0.5,0.2-1.1-0.1-1.7,0.2c-0.5,0-1,0-1.6,0.1c-0.5,0.2-1.1-0.1-1.7,0.2
	c-0.5,0-1,0-1.6,0.1c-0.6,0.2-1.3-0.1-1.9,0.2c-0.5,0-1.1,0-1.6,0.1c-0.5,0.2-1.1-0.1-1.6,0.2c-0.6,0-1.2,0.1-1.8,0.1
	c-0.5,0.2-1.1-0.1-1.7,0.2c-0.6,0-1.2,0.1-1.8,0.1c-0.6,0.2-1.3-0.1-1.9,0.2c-0.6,0-1.2,0.1-1.9,0.1c-0.6,0.2-1.3-0.1-1.9,0.2
	c-0.6,0-1.2,0-1.8,0.1c-0.7,0.2-1.5-0.1-2.2,0.2c-0.6,0-1.2,0-1.9,0.1c-0.7,0.2-1.5-0.1-2.2,0.2c-0.7,0-1.4,0-2.1,0.1
	c-0.8,0.2-1.6-0.1-2.4,0.2c-0.7,0-1.4,0-2.1,0.1c-0.8,0.2-1.6-0.1-2.4,0.2c-0.8,0-1.6,0.1-2.4,0.1c-0.8,0.2-1.7-0.1-2.5,0.2
	c-0.9,0-1.8,0.1-2.7,0.1c-0.9,0.2-1.8-0.1-2.7,0.2c-0.9,0-1.8,0-2.7,0.1c-1.1,0.3-2.2-0.1-3.2,0.2c-1,0-2,0-3,0.1
	c-1.2,0.2-2.3-0.1-3.5,0.2c-1.2,0-2.3,0-3.5,0.1c-1.3,0.2-2.6-0.1-3.8,0.2c-1.4,0-2.8,0.1-4.2,0.1c-1.6,0.2-3.2-0.1-4.9,0.2
	c-1.9,0-3.8,0.1-5.6,0.1c-2.3,0.2-4.5-0.1-6.8,0.2c-3.7,0-7.3,0-11,0.1c-0.3,0.1-0.6,0.1-0.9,0.1c-12.1,0-24.3,0-36.4,0
	c-0.3,0-0.5,0-0.8-0.1c-2.4,0-4.8-0.1-7.2-0.1c-1.4-0.3-2.9,0-4.3-0.2c-1.1,0-2.1,0-3.2-0.1c-0.9-0.3-1.8,0-2.8-0.2
	c-0.7,0-1.4,0-2.1-0.1c-0.7-0.3-1.5,0-2.2-0.2c-0.5,0-1.1,0-1.6-0.1c-0.6-0.3-1.3,0-1.9-0.2c-0.4,0-0.9,0-1.3-0.1
	c-0.5-0.3-1.1,0-1.6-0.2c-4.8-0.4-9.6-0.9-14.3-2c-4.7-1-9.3-2.3-13.8-4.2c-3.7-1.6-7.3-3.4-10.6-5.7c-2.3-1.6-4.4-3.4-6.5-5.3
	c-4.9-4.4-8.7-9.6-11.6-15.4c-2.4-4.8-4-9.9-4.8-15.3c-0.1-0.9-0.1-1.9-0.3-2.8c-0.2-0.5,0.1-1.1-0.2-1.6c0-2.6,0-5.1,0-7.7
	c0.3-0.5,0-1.1,0.2-1.7c0.6-7.2,2.9-14,6.3-20.2c2.1-3.9,4.9-7.4,7.9-10.7c2.1-2.4,4.4-4.6,6.7-6.6c3.8-3.3,7.8-6.3,12.1-8.9
	c7.1-4.3,14.6-7.8,22.4-10.6c7.3-2.7,14.8-4.9,22.3-7c11.4-3.2,22.9-6,34.5-8.2c7.8-1.5,15.7-2.8,23.6-3.7c2-0.2,4-0.6,6.1-0.8
	c0.4-0.2,0.9,0.1,1.4-0.2c0.4,0,0.7,0,1.1-0.1c0.4-0.2,0.9,0.1,1.3-0.2c0.4,0,0.7,0,1.1-0.1c0.4-0.2,1,0.1,1.4-0.2
	c0.4,0,0.9-0.1,1.3-0.1c0.4-0.2,0.9,0.1,1.4-0.2c0.4,0,0.9,0,1.3-0.1c0.5-0.2,1.1,0.1,1.6-0.2c0.4,0,0.9,0,1.3-0.1
	c0.5-0.2,1.1,0.1,1.6-0.2c0.5,0,1.1-0.1,1.6-0.1c0.5-0.2,1.1,0.1,1.6-0.2c0.6,0,1.2-0.1,1.8-0.1c0.5-0.2,1.1,0.1,1.7-0.2
	c0.7,0,1.4-0.1,2.1-0.1c0.6-0.2,1.3,0.1,1.9-0.2c0.7,0,1.4,0,2.1-0.1c0.8-0.2,1.6,0.1,2.4-0.2c0.8,0,1.6,0,2.4-0.1
	c0.9-0.2,1.8,0.1,2.7-0.2c1.1,0,2.1-0.1,3.2-0.1c1.2-0.2,2.4,0.1,3.5-0.2c1.4,0,2.8,0,4.3-0.1c1.6-0.2,3.3,0.1,4.9-0.2
	c1.9,0,3.7-0.1,5.6-0.1c1.9-0.2,3.8,0,5.7-0.1c0.4,0,0.9,0.1,1.3-0.1c8.6,0,17.2,0,25.7,0c1.5,0.3,3,0.1,4.5,0.1
	c0.5,0,1-0.1,1.4,0.1c1.3,0,2.7,0,4,0.1c1.1,0.3,2.2,0,3.3,0.2c1,0,2,0.1,2.9,0.1c0.9,0.3,1.8,0,2.7,0.2c0.8,0,1.6,0.1,2.4,0.1
	c0.6,0.3,1.3,0,1.9,0.2c0.7,0,1.4,0.1,2.1,0.1c0.6,0.3,1.3,0,1.9,0.2c0.5,0,1.1,0,1.6,0.1c0.5,0.3,1.1,0,1.6,0.2
	c0.5,0,1.1,0.1,1.6,0.1c0.5,0.3,1.1,0,1.6,0.2c0.4,0,0.9,0,1.3,0.1c0.4,0.3,0.9,0,1.3,0.2c0.4,0,0.9,0.1,1.3,0.1
	c0.4,0.3,0.9,0,1.3,0.2c5.9,0.8,11.9,1.4,17.8,2.5c12,2.2,23.4,5.7,33.5,12.9c9.8,7,16.4,16.3,19.7,27.9c1.1,3.6,1.6,7.3,2.2,11.1
	c0.2,0.5-0.1,1.1,0.2,1.6c0,2.8,0,5.7,0,8.5c-0.3,0.5,0,1.1-0.2,1.6c0,0.4-0.1,0.9-0.1,1.3c-0.3,0.4,0,0.9-0.2,1.4
	c-0.8,4.3-1.6,8.7-3,12.9c-1.8,5.7-4.2,11.2-7.2,16.4c-4.1,7.2-9.2,13.7-15.3,19.4c-5.2,4.9-10.9,9.1-16.9,13
	c-6.4,4.1-13.1,7.7-19.9,10.9c-10.2,4.8-20.8,8.6-31.6,12c-11.8,3.7-23.7,7.2-35.8,9.9c-5.1,1.1-10.2,2-15.3,2.9
	c-3.6,0.6-7.3,1-11,1.4c-0.4,0.2-0.9-0.1-1.4,0.2c-0.5,0-1.1,0.1-1.6,0.1c-0.5,0.2-1-0.1-1.4,0.2c-0.6,0-1.2,0.1-1.8,0.1
	c-0.7,0.2-1.5-0.1-2.2,0.2c-0.7,0-1.4,0-2.1,0.1c-1.2,0.3-2.4-0.1-3.5,0.2c-4.3,0-8.6,0-12.9,0c-1.1-0.3-2.2,0-3.2-0.2
	c-0.8,0-1.6-0.1-2.4-0.1c-0.6-0.3-1.3,0-1.9-0.2c-0.5,0-1,0-1.6-0.1c-0.5-0.3-1.1,0-1.7-0.2c-4-0.3-8-0.9-12-1.4
	c-2.6-0.4-5.2-1-7.8-1.6c-1.2-0.2-1.7-1.4-1.4-3c0.2-1.3,1.3-2.3,2.4-2c3.5,0.8,7.1,1.5,10.7,1.9c2.1,0.3,4.1,0.8,6.2,0.7
	c0.4,0.3,0.9,0,1.4,0.2c0.4,0,0.9,0,1.3,0.1c0.4,0.2,0.9,0,1.4,0.2c0.6,0,1.2,0.1,1.8,0.1c0.6,0.3,1.3,0,1.9,0.2
	c0.8,0,1.6,0.1,2.4,0.1c1.1,0.3,2.2,0,3.3,0.2c3.7,0.1,7.4,0.1,11,0c1.2-0.2,2.4,0.1,3.5-0.2c0.8,0,1.6,0,2.4-0.1
	c0.7-0.2,1.5,0.1,2.2-0.2c0.5,0,1.1,0,1.6-0.1c0.5-0.2,1.1,0.1,1.7-0.2c0.5,0,1-0.1,1.6-0.1c0.4-0.2,0.9,0.1,1.4-0.2
	c1.2,0.1,2.3-0.2,3.5-0.3c0.4-0.2,0.9,0.1,1.4-0.2c3.4-0.2,6.7-0.8,10-1.4c7-1.2,13.9-2.7,20.8-4.5c15-4,29.7-8.7,44.2-14
	c6-2.2,11.9-4.8,17.7-7.6c7.2-3.5,14.1-7.5,20.6-12.1c2.6-1.8,5-3.9,7.4-5.9c2.8-2.4,5.4-5,7.9-7.8c5.6-6.2,10.2-13,13.3-20.9
	c1.6-4.1,3-8.3,4-12.6c0.7-3.2,1.3-6.4,1.3-9.6c0.2-0.5,0-1,0.2-1.4c0.2-2.2,0.1-4.3,0-6.5c-0.2-0.5,0-1-0.2-1.5
	c-0.1-3.3-0.8-6.4-1.5-9.6c-1.4-6-3.9-11.5-7.4-16.5c-3-4.3-6.9-7.9-11.2-10.9c-4.2-3-8.8-5.4-13.6-7.3c-6-2.3-12.3-3.9-18.7-4.9
	c-3.1-0.5-6.1-0.9-9.2-1.2c-2.9-0.3-5.8-0.6-8.7-0.6c-0.5-0.2-1,0-1.5-0.2c-1.2-0.1-2.4-0.2-3.7-0.1c-0.6-0.2-1.2,0-1.7-0.2
	c-1.6-0.1-3.2-0.2-4.7-0.1c-0.6-0.2-1.3,0-2-0.2c-1.6,0-3.2-0.1-4.7-0.1c-0.6-0.2-1.2,0-1.7-0.2c-1.3-0.1-2.6-0.2-3.9-0.1
	c-0.6-0.2-1.2,0-1.7-0.2c-1.6-0.1-3.2-0.2-4.7-0.1c-0.6-0.2-1.3,0-2-0.2c-1.9-0.1-3.9-0.3-5.8-0.1c-0.8-0.3-1.7,0-2.5-0.2
	c-2.8,0-5.7-0.3-8.5-0.1c-1.6-0.3-3.3,0-4.9-0.2c-5.4-0.1-10.8-0.1-16.2,0c-1.6,0.2-3.1-0.1-4.7,0.2c-2.6-0.2-5.1,0-7.7,0.1
	c-0.7,0.2-1.5-0.1-2.3,0.2c-1.7-0.1-3.3,0-5,0.1c-0.6,0.1-1.2-0.1-1.7,0.2c-1.2-0.1-2.4,0-3.7,0.1c-0.5,0.2-1,0-1.5,0.2
	c-1-0.1-2.1,0-3.1,0.1c-0.5,0.2-1,0-1.4,0.2c-3.4,0.1-6.8,0.4-10.2,0.7c-3.3,0.3-6.6,0.5-9.9,0.9c-5.4,0.6-10.7,1.2-16.1,2
	c-8,1.1-16,2.6-24,4.2c-7.3,1.5-14.6,3.3-21.8,5.2c-6.8,1.9-13.6,4-20.3,6.3c-9.1,3.1-18.1,6.5-26.6,11c-5.9,3.2-11.5,6.9-16.5,11.4
	c-7.7,7-13.3,15.2-16.4,25.2c-1.7,5.7-2,11.5-1.3,17.5c1.4,12,6.8,21.9,15.6,30.1c6.4,5.9,14,9.8,22.3,12.3c5,1.5,10.1,2.4,15.3,3
	c5.9,0.7,11.8,1.3,17.7,1.6c0.2,0,0.4,0,0.5-0.1c0.5,0.2,1,0,1.4,0.2c1.1,0.1,2.3,0.2,3.4,0.1c0.6,0.3,1.3,0,2,0.2
	c1.8,0,3.5,0.3,5.3,0.1c0.9,0.3,1.9,0,2.8,0.2c8.6,0.2,17.2,0.2,25.8,0c1.3-0.2,2.6,0.1,3.9-0.2c2.7,0.2,5.5,0,8.2-0.1
	c0.9-0.2,1.9,0.1,2.8-0.2c2.5,0.2,4.9,0,7.4-0.1c0.9-0.2,1.9,0.1,2.8-0.2c2.7,0.2,5.3-0.1,8-0.1c1-0.2,2.1,0.1,3.1-0.2
	c2.2,0.2,4.4,0,6.6-0.1c1.3-0.2,2.7,0.1,4-0.2c1.2,0,2.5-0.1,3.7-0.1c1.1-0.2,2.2,0.1,3.3-0.2c1.1,0,2.1-0.1,3.2-0.1
	c1-0.2,2,0.1,3-0.2c1,0,1.9-0.1,2.9-0.1c0.9-0.2,1.8,0.1,2.7-0.2c0.9,0,1.8-0.1,2.6-0.1c0.9-0.2,1.8,0.1,2.7-0.2
	c0.8,0,1.6,0,2.4-0.1c0.8-0.2,1.6,0.1,2.4-0.2c0.7,0,1.4,0,2.1-0.1C289.3,202.7,290,203,290.8,202.7z"/>
<path class="st1" d="M259.2,112.3c-2-1.8-4.7-1.8-7.9-0.1c-2.9,1.5-8.8,2.7-17.6,3.4c-8.8,0.8-13.8,0.6-15-0.6s-3.4-2.1-6.3-2.7
	c-3-0.7-5.5-0.8-7.7-0.4c-3,0.6-7.9,0.3-15-0.6c-1.7-0.2-3.4-0.4-5.3-0.6c-1.8-0.2-3.3-0.4-4.4-0.6c-1-0.2-1.6-0.3-1.7-0.3
	c-0.5,0-1.1,0.7-1.9,2.2c-0.8,1.5-0.8,3.2,0,5.1c0.9,1.9,1.1,4,0.7,6.3c-0.2,1.7-0.1,2.9,0.4,3.7c0.4,0.8,1.8,2.1,4,4
	c3.3,2.8,5.6,4.2,6.9,4.2c3.5,0,6.2-3.2,8.2-9.7l1.9-6l8-0.3c5.2-0.2,9.1,0.3,11.6,1.5c2.1,1.1,3.2,2.2,3.2,3.4
	c0,1.2-0.9,3.9-2.8,7.9c-1.6,3.6-2.4,5.6-2.4,6.2c0,0.9-1.5,4.3-4.4,10c-2.9,5.8-4.9,9.4-6.2,10.9c-0.5,0.6-1.1,1.2-1.6,1.7
	c-1.6,2.9-3.7,5.6-5.5,7.9c-0.6,0.7-1.1,1.5-1.8,2.2c0,1.7,2.3,2.6,4.9,2.8c2.1-0.7,4.2-1.6,6.1-2.8c2.9-1.9,4.9-4.8,7.1-7.6
	c-0.3-0.4-0.4-0.8-0.5-1.1c-0.1-0.7,0.5-1.9,1.9-3.6c1.3-1.7,2-3,2-4c0-1.2,1.8-5.8,5.3-13.6c0.6-1.4,1.5-2.8,2.4-4
	c0.8-0.9,1.8-3.6,3.2-8l2-6.6l7.5-0.6c6.7-0.6,11.5-1.1,14.3-1.7s4.7-1.4,5.9-2.4C260.9,115.8,261,113.9,259.2,112.3z M189.6,124.9
	c-0.8,1.5-1.6,2.2-2.3,2.2c-1.2,0-1.8-0.3-2-1c-0.5-1.3,0.5-3,2.8-4.9c1.8-1.6,2.7-1.7,2.7-0.3C190.8,122.1,190.4,123.4,189.6,124.9
	z"/>
<path class="st1" d="M302.7,156.2c0.7,0.3,1,1.1,1,2.4c0,1.4-0.7,2.7-2.4,3.8c-0.6,0.4-1.3,0.8-2,1.2c-0.1,0.1-0.3,0.2-0.5,0.3
	c-0.6,0.4-1.1,0.6-1.6,0.6c-1.3,0.1-2.6-0.4-3.9-1.6c-0.3-0.3-0.6-0.7-1-1.4l-0.2-0.3c-0.4-0.6-0.8-1-1.1-1.2
	c-0.3-0.2-0.8-0.1-1.3,0.1c-0.6,0.4-1.4,1.5-2.3,3.3c-0.4,0.9-0.7,1.6-1,1.9c-0.5,0.6-0.9,1.1-1.2,1.5c-0.3,0.4-0.7,0.6-1,0.7
	c-0.8,0.4-1.9,1-3.3,1.9c-1.7,1-3.3,1.5-4.8,1.6c-1.8,0.2-3,0.4-3.8,0.6c-0.3,0-0.5,0.1-0.8,0.1c-0.5,0-0.9-0.1-1.2-0.3
	c-0.5-0.2-1.3-0.8-2.4-1.8s-1.8-1.9-2.2-2.7c-0.4-0.8-0.8-2.2-1.2-4.2c-0.7-3.2-0.9-5.7-0.5-7.7c0.1-0.7,0.3-1.6,0.8-2.6
	c-0.8,0.2-1.2,0.3-1.4,0.2c-0.1-0.1-0.6-0.1-1.4-0.2c-0.8-0.1-1.5-0.1-2.3-0.2h-1.1c-1.1,3.8-2.5,6.9-4.2,9.5
	c-0.3,0.4-0.6,0.9-0.9,1.6c-0.3,0.7-0.7,1.3-1,1.8s-0.8,1-1.3,1.4c-2.9,2.3-5.8,3.6-8.8,4c-3.6,0.5-6.4-0.8-8.4-3.9
	c-0.6-1-1.2-1.9-1.5-2.9c-0.1-0.3-0.2-0.7-0.2-1.1c-0.1-0.4-0.1-0.9-0.2-1.4c0-0.5-0.1-0.8-0.2-1.1c-0.1-0.2-0.2-0.5-0.2-0.9
	s-0.1-1.1,0-2.2c0-1.1,0.2-2.3,0.5-3.4c0.3-1.2,0.9-2.6,1.8-4.3c0.9-1.7,2.1-3.3,3.6-4.9c0-0.1,0.1-0.2,0.2-0.5
	c0.1-0.2,0.4-0.6,1-1.2c0.5-0.6,1.2-1.1,1.9-1.6s1.8-1.1,3.3-1.7c1.5-0.6,3.1-1.2,5-1.6c1-0.9,2.2-1.4,3.7-1.4s2.7,0.5,3.7,1.4
	c1.2,1.2,2.3,2.9,3.2,5c0.6,1.2,0.8,2.3,0.6,3.3c-0.1,0.6-0.2,1.3-0.3,1.9c3,0,5.6-0.3,7.9-0.8c1.8-2.7,3.5-4.7,5.1-6
	c1.8-1.5,4-2.5,6.7-3.2c1.3-0.2,2.4-0.7,3.4-1.5c1.6-1,3-1.3,4.2-1.1s2.5,1.2,4,2.8c0.8,0.9,1.4,1.6,1.7,2.1c0.3,0.5,0.6,1,0.7,1.5
	c0.2,0.5,0.2,1.2,0.2,2.1c0,4,0.1,7,0.3,9.2c0.1,0.7,0.2,1.3,0.3,1.8c0.1,0.5,0.4,0.9,0.7,1.4c0.3,0.4,0.7,0.8,0.9,1.1
	c0.3,0.3,0.7,0.7,1.4,1.2l0.1-0.1c0.8-0.6,1.4-1,1.7-1.2C300.9,156.2,301.9,155.8,302.7,156.2z M251,156.9c0.1-0.2,0.2-0.5,0.3-0.9
	c0.1-0.3,0.2-0.7,0.3-0.9c0.1-0.3,0.2-0.6,0.3-0.9c0.1-0.3,0.3-0.6,0.5-0.8c0.1-0.4,0.3-1.3,0.5-2.6c-2.1-1.2-3.6-3.2-4.7-5.8
	c-0.3-0.9-0.6-1.7-0.7-2.6c-4,2.4-6.8,5.4-8.3,8.9c-1,2.1-1.6,3.6-1.8,4.3c0,0.2-0.1,0.5-0.1,0.8s0,0.6,0,0.9c0,0.3,0,0.5,0.1,0.7
	c0,0.2,0.1,0.5,0.1,0.9c0.1,0.4,0.1,0.7,0.2,0.8c0.2,1.3,0.7,2.3,1.3,3s1.6,1.2,2.9,1.4c1,0.2,2,0.2,3,0s1.9-0.7,2.7-1.4
	s1.3-1.5,1.6-2.6c0.1-0.5,0.5-1.1,1-1.9C250.7,157.5,251,157,251,156.9z M253.5,143.1c0,0-0.2-0.1-0.4-0.1s-0.3,0-0.3,0.1
	c0,1.6,0.3,2.8,1,3.6c0.1-0.9,0.2-1.6,0.1-2.2C253.9,143.8,253.8,143.3,253.5,143.1z M285.4,155c0.1-1,0.1-1.7-0.1-2.1
	c-0.2-0.5-0.7-1.2-1.7-2.1c-1.5-1.4-2.2-2.6-2.2-3.5c0-0.6-0.2-1.3-0.6-2.2c-0.4-0.8-0.8-1.4-1.2-1.7c-0.3-0.2-0.6-0.3-0.8-0.3
	c-0.1,0-0.3,0-0.4,0.1c-0.5,0.2-1.4,1.1-2.8,2.5c-1.2,1.2-2.3,2.7-3.3,4.6c-1.1,1.9-1.8,3.6-2.4,5.3c-0.5,1.6-0.5,2.7-0.2,3.5
	c0.3,0.6,0.5,1.7,0.6,3.3c0.1,1.2,0.3,2.1,0.5,2.7c0.2,0.5,0.6,0.9,1,1c0.5,0.2,1.3,0.3,2.4,0.3c0.6,0,1,0,1.4,0
	c0.3,0,0.6-0.1,0.9-0.2c0.3-0.1,0.6-0.2,0.9-0.4c0.4-0.2,0.7-0.4,1-0.6c0.3-0.2,0.7-0.5,1.1-0.9c1.7-1.3,2.6-2.4,2.9-3.2
	c0.2-0.8,0.8-1.7,1.6-2.7C284.7,157.6,285.2,156.5,285.4,155z M287.1,146.9c0.1-0.3,0.2-1,0.2-2.1c0-1.7-0.2-2.7-0.6-2.8
	c-0.1,0.1-0.2,0.2-0.3,0.3c-0.2,0.4-0.2,1.3,0.1,2.8C286.8,145.9,286.9,146.6,287.1,146.9z"/>
<path class="st1" d="M311.6,143.5c-1.5,1.8-2.8,3.6-3.9,5.2c-1.1,1.6-1.6,2.6-1.5,3c0,0.7,0.6,2.4,1.9,5.1c1.6,3,3.4,4.5,5.5,4.5
	c0.4,0,0.8,0,1.3-0.1s1-0.3,1.7-0.5s1.1-0.4,1.3-0.4c0.5-0.1,1.3-0.6,2.5-1.2c1.4-0.9,2.8-1.8,4.1-2.8c1-0.9,1.9-1.2,2.7-1.1
	c0.8,0.2,1.2,0.9,1.2,2.2c0,0.4-0.1,0.8-0.3,1.2c-0.2,0.4-0.4,0.8-0.7,1.1c-0.2,0.3-0.6,0.6-1,1s-0.8,0.7-1.1,0.9
	c-0.3,0.2-0.7,0.5-1.2,0.8s-0.8,0.6-1,0.7c-0.4,0.2-0.9,0.6-1.7,1c-0.7,0.5-1.3,0.8-1.7,1c-1.6,1.1-3.2,1.7-4.8,1.9
	c-1.6,0.2-2.7,0.2-3.5,0s-1.9-0.8-3.5-1.8c-1.9-1.3-3.5-2.8-4.7-4.4c-1.2-1.6-2-3.1-2.4-4.5s-0.6-3.1-0.6-5s0.1-3.6,0.3-5.1
	c0.2-1.5,0.5-3.3,0.9-5.5c0.3-2.2,0.5-4.1,0.6-5.6c0-0.6,0.1-1.2,0.2-1.9c0.1-0.6,0.1-1.2,0.2-1.8c0.1-0.5,0.2-1.2,0.3-1.9
	c0.1-0.7,0.2-1.3,0.3-1.7c0.1-0.4,0.2-1,0.5-1.8c0.2-0.8,0.4-1.4,0.4-1.7c0.1-0.3,0.2-0.9,0.5-1.8s0.4-1.5,0.5-1.7s0.3-0.8,0.6-1.8
	c0.3-1,0.5-1.6,0.5-1.8c0.5-1.7,0.9-3,1.3-3.7c0.4-0.8,1-1.6,1.7-2.5c0.7-0.8,1.4-1.5,1.9-2c0.6-0.5,1.3-1.2,2.3-1.9
	c0.4-0.3,1-0.8,1.9-1.5s1.6-1.3,2-1.6c0.4-0.3,1-0.7,1.7-1.2s1.4-1,2.1-1.4s1.4-0.8,2.2-1.1c1.8-0.9,3.1-1.2,4.1-1
	c0.7,0.2,1.4,0.6,1.9,1.2s0.9,1.3,1,2.1c0.1,0.6,0.2,1.1,0.3,1.7c0.1,0.6,0.1,1.2,0,1.9c0,0.7-0.1,1.2-0.1,1.7s-0.1,1.1-0.3,1.9
	c-0.2,0.8-0.3,1.4-0.4,1.7s-0.3,0.9-0.6,1.8c-0.3,0.9-0.5,1.4-0.6,1.6s-0.3,0.8-0.6,1.8c-0.3,0.9-0.5,1.5-0.6,1.6
	c-1.2,3.1-2.1,5.1-2.8,6.1c-0.5,0.6-1.8,3.1-4,7.3c-2.3,4.2-3.8,6.7-4.7,7.5C314.5,140.2,313.1,141.7,311.6,143.5z M308.9,131.4
	c-0.7,2.7-0.8,4.2-0.4,4.6c0.2,0.2,0.6,0,1.1-0.6s1.2-1.5,1.9-2.7c0.8-1.2,1.5-2.7,2.2-4.4c1.5-3,2.3-4.7,2.3-5
	c0-0.1,0.7-1.7,2.1-4.7s2.1-4.8,2.1-5.4c0-1.3-0.6-1.5-1.8-0.4c-0.8,0.6-1.5,1.5-2.3,2.8c-1.2,2.1-2.2,3.8-3.3,5.1
	c-0.9,1.2-1.4,2.3-1.4,3.4c0,1-0.3,1.8-1,2.5C310.2,127.2,309.6,128.7,308.9,131.4z"/>
<path class="st1" d="M359.5,153.7c1-0.9,1.9-1.2,2.7-1.1c0.8,0.2,1.1,0.9,1.1,2.3c0,0.3,0,0.6-0.1,0.9c-0.1,0.3-0.2,0.6-0.4,0.9
	c-0.2,0.3-0.4,0.5-0.6,0.8c-0.3,0.3-0.5,0.5-0.8,0.7s-0.5,0.4-0.9,0.7c-0.3,0.2-0.6,0.4-0.8,0.6c-0.2,0.2-0.5,0.4-0.8,0.6
	c-0.3,0.2-0.6,0.4-0.7,0.5c-1.1,0.7-2.3,1.4-3.5,1.9c-0.1,0-0.3,0.2-0.7,0.3c-1.2,1.3-2.4,2.2-3.3,2.6c-0.9,0.4-2.1,0.6-3.7,0.7
	c-1.6,0.5-2.7,0.4-3.3-0.1c-0.2,0-0.7,0-1.6-0.1s-1.5-0.1-1.8-0.2c-0.3,0-0.8,0-1.5,0s-1.2,0.1-1.7,0.2s-1,0.3-1.4,0.6
	c-0.6,0.4-1.4,0.5-2.3,0.5s-2.5-0.2-4.8-0.6c-1.6-0.2-3-0.4-4.1-0.5c-0.2,0-0.5,0-0.8,0s-0.6,0-0.9,0s-0.6-0.1-0.8-0.2
	c-0.5-0.3-1.1-1.6-1.9-3.7c-0.4-1.2-0.7-2.5-0.8-3.9c-0.1-0.6-0.1-1,0-1.3c0.2-1.2,0.6-1.9,1.1-2.1c0.2-0.1,0.5-0.2,1-0.3
	s0.9-0.3,1.1-0.5c0.4-0.3,0.8-0.9,1-1.6c0.3-0.8,0.4-1.6,0.5-2.4c0-0.7,0.1-1.2,0.2-1.5c0.2-0.3,0.5-0.6,1.1-0.9
	c0.5-0.3,0.8-0.5,0.9-0.6c0.6-0.5,1-1.1,1.5-1.9c0.2-0.4,0.6-1.7,1.1-3.9c0.5-1.7,0.9-3.5,1.2-5.3c0.3-1.8,0.6-3.3,0.7-4.5
	c0.2-2.9,0.5-4.5,0.9-5.1s1.1-0.8,2.2-0.7s2,0.3,2.8,0.9c0.4,0.2,0.7,0.6,1,1.1s0.5,1,0.7,1.4c0.1,0.4,0.3,1,0.5,1.7
	s0.4,1.2,0.5,1.5c0.8,2.5,1.4,4.8,1.8,6.9c0.1,0.8,0.3,2,0.5,3.6s0.4,3,0.6,4.3s0.6,2.5,1,3.6c0.7,2,1,3.9,0.8,5.5
	c-0.1,1-0.2,2-0.2,2.8c0,0.9,0.3,1.6,0.9,2.1c0.6,0.6,1.5,0.8,2.7,0.7c0.5,0,1-0.2,1.5-0.3c0.5-0.2,0.9-0.4,1.3-0.6
	c0.3-0.2,0.8-0.5,1.3-0.9s0.9-0.7,1.1-0.9s0.6-0.5,1.2-1.1c0.7-0.6,1.8-1.5,3.2-2.5S359.3,153.8,359.5,153.7z M337.9,155.3
	c0.4-1.6,0-4.2-1.2-7.7c-1.2-3.4-1.9-5.1-2.1-5.1c-0.3,0-0.6,0.6-0.8,1.9c-0.3,1.2-0.6,2.1-1,2.6c-0.6,0.8-1.4,2.5-2.6,5
	s-1.7,4-1.5,4.3s0.7,0.7,1.4,1c0.7,0.4,1.4,0.6,2.3,0.8c0.8,0.2,1.5,0.2,2,0.1C336.3,158,337.5,156.9,337.9,155.3z"/>
</svg>
