<svg xmlns="http://www.w3.org/2000/svg" width="18.294" height="14.953"><defs><clipPath id="a"><path class="a" d="M0 0h18.294v14.953H0z"/></clipPath><style>.a{fill:#1f1b18}</style></defs><g clip-path="url(#a)"><path class="a" d="M17.783.4c-.668.24-1.319.472-1.968.711a.555.555 0 01-.627-.147A3.764 3.764 0 008.959 4.35a2.385 2.385 0 010 .294A10.868 10.868 0 011.191.687a3.888 3.888 0 001.12 5.029c-.018.024-.037.046-.054.07L.664 5.342A4.014 4.014 0 003.6 9.089H2a3.889 3.889 0 003.52 2.627A7.745 7.745 0 010 13.289c.146.1.2.134.257.168a10.5 10.5 0 004.838 1.475 10.232 10.232 0 005.862-1.284 10.714 10.714 0 005.5-9.559.671.671 0 01.28-.589 6.766 6.766 0 001.556-1.677c-.367.122-.679.241-1 .327s-.655.143-.983.211A4.361 4.361 0 0017.783.4"/></g></svg>