<svg xmlns="http://www.w3.org/2000/svg" xmlns:xlink="http://www.w3.org/1999/xlink" width="18.294" height="14.953" viewBox="0 0 18.294 14.953"><defs><style>.a{fill:#1f1b18;}.b{clip-path:url(#a);}</style><clipPath id="a"><rect class="a" width="18.294" height="14.953" transform="translate(0 0)"/></clipPath></defs><g class="b"><path class="a" d="M17.783.4c-.668.24-1.319.472-1.968.711a.555.555,0,0,1-.627-.147A3.764,3.764,0,0,0,8.959,4.35a2.385,2.385,0,0,1,0,.294A10.868,10.868,0,0,1,1.191.687a3.888,3.888,0,0,0,1.12,5.029c-.018.024-.037.046-.054.07L.664,5.342A4.014,4.014,0,0,0,3.6,9.089H2a3.889,3.889,0,0,0,3.52,2.627A7.745,7.745,0,0,1,0,13.289c.146.1.2.134.257.168a10.5,10.5,0,0,0,4.838,1.475,10.232,10.232,0,0,0,5.862-1.284,10.714,10.714,0,0,0,5.5-9.559.671.671,0,0,1,.28-.589,6.766,6.766,0,0,0,1.556-1.677c-.367.122-.679.241-1,.327s-.655.143-.983.211A4.361,4.361,0,0,0,17.783.4"/></g></svg>