<svg width="16" height="16" viewBox="0 0 16 16" fill="none" xmlns="http://www.w3.org/2000/svg">
<path d="M8.85436 5.62216C9.3209 5.84491 9.72717 6.17637 10.039 6.58869C10.3509 7.00101 10.5593 7.48216 10.6467 7.99171C10.734 8.50126 10.6978 9.02434 10.5411 9.51701C10.3844 10.0097 10.1117 10.4575 9.74605 10.823L6.51529 14.0537C5.9094 14.6596 5.08764 15 4.23078 15C3.37392 15 2.55216 14.6596 1.94627 14.0537C1.34038 13.4478 1 12.6261 1 11.7692C1 10.9124 1.34038 10.0906 1.94627 9.48471L3.20771 8.22328M12.7923 7.77672L14.0537 6.51529C14.6596 5.9094 15 5.08764 15 4.23078C15 3.37392 14.6596 2.55216 14.0537 1.94627C13.4478 1.34038 12.6261 1 11.7692 1C10.9124 1 10.0906 1.34038 9.48471 1.94627L6.25395 5.17703C5.88826 5.54247 5.6156 5.99033 5.45889 6.483C5.30217 6.97566 5.26598 7.49874 5.35334 8.00829C5.44071 8.51784 5.64908 8.99899 5.96095 9.41131C6.27283 9.82364 6.6791 10.1551 7.14564 10.3778" stroke="black" stroke-width="1.5" stroke-linecap="round" stroke-linejoin="round"/>
</svg>
