<svg version="1.1" id="Layer_1" xmlns="http://www.w3.org/2000/svg" x="0" y="0" viewBox="0 0 1198.4 850.4" xml:space="preserve"><style>.st1{fill:#fff4e7}</style><path d="M420.4 652.5c-24.4-7.1-46.6-12.1-67.8-20.1-15.8-5.9-29.7-16.7-45.2-23.4-13.1-5.7-27.2-10-41.3-12.5-28.3-5-54.7-12.3-75.4-34.5-10.6-11.4-23.8-20.5-36.3-29.9-22.4-16.7-29.6-42.3-34.3-66.8-5.5-28-9.9-58.4-4.6-85.7 6.9-35.2 18.6-72 38.4-101.3 19.7-29.1 51-51 79.3-73.5 11-8.8 27.5-11.2 41.9-15.2 20.9-5.8 41.8-12.2 63.2-15 30.6-4 61.8-3.3 92.3-7.8 20-2.9 39.5-10.5 58.6-17.6 32.8-12.1 65.2-25.3 97.8-38.1 51.1-20 101.6-41.7 153.6-59.1 28.4-9.5 59.1-14.5 89-16.2 42.8-2.3 78.9 18.7 111.3 44.2 42.4 33.4 84.5 68.4 108.6 117.9 30.5 62.5 43 129 28.4 198-8.8 41.4-19.3 82.7-33.2 122.6-8.3 24-24.3 45.4-37.5 67.5-13.6 22.9-25.9 47.1-42.8 67.4-26.6 31.9-53.1 65.4-85.9 90.1-45.2 34.1-97.8 46.4-156.5 33.5-54.2-11.9-105.9-30.1-157.7-48.6-15.2-5.4-27.4-2.6-40 3.3-36.6 17-72.4 35.7-109.4 51.7-30.2 13.1-61.4 23.7-92.5 34.4-16.4 5.6-33.4 9.9-50.5 12.9-4.9.9-13.9-3.8-15.7-8.1-1.7-4.1 2-12.7 6-16.6 21.3-21.3 43.4-41.8 65.1-62.6 27.3-26.2 54.6-52.4 81.8-78.7 3-2.7 5.7-6 11.3-12.2z" fill="#e95745"/><path d="M937.8 251c.3-2.7.5-5.1.7-7.5L946 173c.3-2.5 1.5-3.7 3.6-3.4 2.2.2 3.4 1.8 3.2 4.2-2.1 20.2-4.3 40.4-6.5 60.6-1.1 10.2-2.1 20.5-3.2 30.8-.4 3.6-2.9 4.8-6 2.9-22.2-13.9-44.4-27.8-66.7-41.7-1.8-1.1-2.2-2.3-1.5-3.9.8-1.7 2.8-2.7 4.5-2.1.5.2 1.1.5 1.5.8 13.2 8.3 26.5 16.6 39.7 24.8 6.1 3.8 12.3 7.6 18.5 11.5.2.1.3.2.7.1-.3-.4-.5-.8-.8-1.2-7.9-11-16.9-20.9-27.1-29.8-16.5-14.5-35.1-25.7-55.7-33.4-16.7-6.3-33.9-10-51.7-11.1-12.9-.8-25.8-.2-38.5 2.1-12.3 2.2-24.3 5.6-36 10.4-26.7 10.8-49.4 27.1-68.4 48.7-7.3 8.2-13.6 17.1-19.1 26.6-.8 1.3-1.7 2.3-3.3 2.3-1.4.1-2.6-.4-3.4-1.6-.7-1.1-.4-2.2.3-3.3 7.4-12.7 16.2-24.3 26.3-34.8 20.5-21.2 44.6-36.9 72.3-46.8 23.3-8.3 47.3-12.1 72.1-10.3 10.7.8 21.2 2.5 31.6 5.1 20.5 5.1 39.4 13.7 57 25.2 18.3 12 34.1 26.7 47.2 44.3.4.1.6.4 1.2 1zM958.8 378.4c-3 .5-5.9 1.1-8.9 1.4-8.6.9-17.2 1.8-25.8 2.6-2.9.3-5.1-1.5-5.4-4.4-.3-2.9 1.3-4.9 4.4-5.2 13.3-1.3 26.5-2.6 39.8-3.9.5-.1 1.1.1 1.6.2 0-.2.1-.4.1-.6-1.6-1.4-3.1-2.8-4.7-4.2-6.4-5.7-12.9-11.4-19.3-17.1-2.2-2-2.7-4-1.6-6.3 1.4-2.7 4.4-3.5 6.7-1.6 3 2.5 5.9 5.2 8.9 7.8 5 4.5 10.1 9 15.1 13.5.2.2.5.4 1 .8.1-2.3.2-4.4.3-6.5l.9-30c.1-3 1.2-4.5 3.4-4.8 2.7-.3 5.5 1.5 6.1 4.1.2.7.2 1.5.1 2.3-.2 6.5-.4 13-.5 19.5 0 .2 0 .5.1 1.1 1.1-1.6 2.1-2.9 3-4.3 3.4-5 6.8-10.1 10.2-15.1 1.7-2.5 3.7-3 6.1-1.6 2.7 1.6 3.7 4.6 2.2 7-2.2 3.5-4.6 7-7 10.4-4.9 7.2-9.7 14.3-14.6 21.5-.4.6-.5 1.4-.7 2.1.1.2.2.4.3.5 1.6-.3 3.1-.6 4.7-.8 11.5-1.2 22.9-2.3 34.4-3.4 2.3-.2 4 .7 4.9 2.6.9 1.9.8 4.2-.7 5.5-.8.7-2 1.3-3.1 1.4-6.6.7-13.3 1.3-19.9 2-4.3.4-8.7 1-13.2 1.5 1 .9 1.9 1.8 2.8 2.6l11.1 9.9c2.3 2.1 2.9 4.2 1.7 6.4-1.5 2.8-4.4 3.5-6.8 1.5-3.3-2.8-6.6-5.8-9.8-8.7-2.1-1.9-4.3-3.8-6.6-5.8-.1.6-.2 1-.2 1.3l-.9 32.8v1c-.1 2.9-1.2 4.4-3.4 4.6-2.7.3-5.4-1.3-6-3.8-.2-.8-.2-1.6-.2-2.5l.9-31.8c0-.9 0-1.7.1-3.1-.6.7-.9 1.1-1.2 1.5-6.3 9.3-12.6 18.5-18.8 27.8-1.7 2.5-3.9 3.1-6.2 1.6-2.6-1.7-3.5-4.7-2-7 2.5-3.8 5.1-7.5 7.6-11.2 3.2-4.7 6.3-9.4 9.5-14.1-.3-.5-.4-.7-.5-1z"/><g><path class="st1" d="M351.9 272.9l9 64.3h.2l8-64.3h27.3l9 64.3h.2l8-64.3h19.9l-17.6 121.8h-25.4L380 335.1l-8.6 59.6H346l-21.4-121.8h27.3zM508.8 394.7h-28.4V346h-11.3v48.7h-28.4V272.9h28V322H480v-49.1h28.8v121.8zM553.1 394.7l-1.7-13.4h-14.1l-1.5 13.4h-19.9l17.6-121.8h25.4l21.4 121.8h-27.2zm-9-64.3h-.2l-5 35.7h9.9l-4.7-35.7zM647.4 298.3h-23.5v96.4h-28.6v-96.4h-23.5v-25.4h75.6v25.4zM733.9 377.5c-3.2 5.8-7.4 10.1-12.6 12.9-5.2 2.8-10.7 4.2-16.6 4.2H673V272.9h37.8c8 0 14.6 3.1 19.8 9.4s7.9 15.8 7.9 28.4l.2 45.4c0 8.5-1.6 15.6-4.8 21.4zm-25.7-7.4c2.4-1.4 3.7-3.4 3.7-6.1v-59.4c0-3.5-1-5.8-3-6.9s-5.1-1.7-9.3-1.7v76.2c3.2 0 6.1-.7 8.6-2.1zM755.8 281.9c5.8-7.4 14.2-11.1 25.3-11.1 10.9 0 19.1 3.7 24.6 11s8.2 17.1 8.2 29.3v45.3c0 12.2-2.7 21.9-8.2 29.3-5.5 7.3-13.7 11-24.6 11-11.1 0-19.5-3.7-25.3-11.1s-8.7-17.1-8.7-29.2V311c0-12 2.9-21.7 8.7-29.1zm24.7 89.9c4.5 0 6.7-3.5 6.7-10.5v-55c0-7-2.2-10.5-6.7-10.5-4.3 0-6.5 3.5-6.5 10.5v55c0 7 2.2 10.5 6.5 10.5zM351.9 417.9l9 64.3h.2l8-64.3h27.3l9 64.3h.2l8-64.3h19.9l-17.6 121.8h-25.4L380 480.1l-8.6 59.6H346l-21.4-121.8h27.3zM468.7 468.3h14.9v22.5h-14.7v24.1h27.5v24.8h-55.7V417.9h55.6v25.6h-27.6v24.8zM531.4 426.9c5.8-7.4 14.2-11.1 25.3-11.1 10.9 0 19.1 3.7 24.6 11s8.2 17.1 8.2 29.3v45.3c0 12.2-2.7 21.9-8.2 29.3-5.5 7.3-13.6 11-24.6 11-11.1 0-19.5-3.7-25.3-11.1-5.8-7.4-8.7-17.1-8.7-29.2V456c-.1-12 2.8-21.7 8.7-29.1zm24.6 89.9c4.5 0 6.7-3.5 6.7-10.5v-55c0-7-2.2-10.5-6.7-10.5-4.3 0-6.5 3.5-6.5 10.5v55c0 7 2.2 10.5 6.5 10.5zM627.2 468.3h14.9v22.5h-14.7v48.9h-28.1V417.9h55.6v25.6h-27.7v24.8zM689.8 468.3h14.9v22.5H690v48.9h-28.1V417.9h55.7v25.6h-27.7v24.8h-.1zM752.4 468.3h14.9v22.5h-14.7v24.1h27.5v24.8h-55.7V417.9h55.7v25.6h-27.7v24.8zM824 417.9c9 0 16.1 2.9 21.3 8.7 5.2 5.8 7.9 13 7.9 21.5 0 8.4-.9 14.3-2.7 17.7-1.8 3.4-5 6.1-9.5 7.9v.4c4.2 1.8 7.4 4.3 9.6 7.3 2.2 3.1 3.2 6.7 3 10.9-.4 17.2-.6 27.7-.4 31.5.1 4.5 1.2 9.7 3.2 15.8h-25.8c-1.1-1.4-2-3.8-2.6-7.1-.6-3.4-.9-6.6-.9-9.9l.2-29.4c0-2-.6-3.5-1.8-4.7s-2.7-1.8-4.5-1.8h-5v52.9h-26.9V417.9H824zm.9 44.9c1.6-2 2.4-4.5 2.4-7.6v-3.8c0-7.4-3.1-11.1-9.2-11.1h-2.7v25.6h2.7c2.9-.1 5.2-1.1 6.8-3.1zM923 425.4c5.9 6.6 8.9 14.6 8.9 24.2 0 5.5-.9 10.8-2.8 16-1.9 5.2-4.5 9.5-7.9 12.8-5 5-8.3 10-9.9 14.9-1.5 4.9-2.3 9.2-2.3 12.8h-23.3c.1-9 1.3-16.2 3.4-21.7 2.1-5.5 5-11 8.8-16.5 2.1-3.2 3.6-5.8 4.6-7.8s1.5-4.1 1.5-6.3c0-7-3.2-10.5-9.7-10.5-3.5 0-6 1.6-7.5 4.8-1.5 3.2-2.2 6.5-2.2 9.9v8.2h-23.7c-.4-2.7-.6-5.8-.6-9.5 0-10.5 2.5-20 7.5-28.5s14.3-12.7 28-12.7c12.2 0 21.2 3.3 27.2 9.9zm-38.5 88.8h26v25.4h-26v-25.4z"/></g></svg>