<?xml version="1.0" encoding="utf-8"?>
<!-- Generator: Adobe Illustrator 25.2.3, SVG Export Plug-In . SVG Version: 6.00 Build 0)  -->
<svg version="1.1" id="Layer_1" xmlns="http://www.w3.org/2000/svg" xmlns:xlink="http://www.w3.org/1999/xlink" x="0px" y="0px"
	 viewBox="0 0 1198.4 850.4" style="enable-background:new 0 0 1198.4 850.4;" xml:space="preserve">
<style type="text/css">
	.st0{fill:#E95745;}
	.st1{fill:#FFF4E7;}
</style>
<g>
	<path class="st0" d="M420.4,652.5c-24.4-7.1-46.6-12.1-67.8-20.1c-15.8-5.9-29.7-16.7-45.2-23.4c-13.1-5.7-27.2-10-41.3-12.5
		c-28.3-5-54.7-12.3-75.4-34.5c-10.6-11.4-23.8-20.5-36.3-29.9c-22.4-16.7-29.6-42.3-34.3-66.8c-5.5-28-9.9-58.4-4.6-85.7
		c6.9-35.2,18.6-72,38.4-101.3c19.7-29.1,51-51,79.3-73.5c11-8.8,27.5-11.2,41.9-15.2c20.9-5.8,41.8-12.2,63.2-15
		c30.6-4,61.8-3.3,92.3-7.8c20-2.9,39.5-10.5,58.6-17.6c32.8-12.1,65.2-25.3,97.8-38.1c51.1-20,101.6-41.7,153.6-59.1
		c28.4-9.5,59.1-14.5,89-16.2c42.8-2.3,78.9,18.7,111.3,44.2c42.4,33.4,84.5,68.4,108.6,117.9c30.5,62.5,43,129,28.4,198
		c-8.8,41.4-19.3,82.7-33.2,122.6c-8.3,24-24.3,45.4-37.5,67.5c-13.6,22.9-25.9,47.1-42.8,67.4c-26.6,31.9-53.1,65.4-85.9,90.1
		c-45.2,34.1-97.8,46.4-156.5,33.5c-54.2-11.9-105.9-30.1-157.7-48.6c-15.2-5.4-27.4-2.6-40,3.3c-36.6,17-72.4,35.7-109.4,51.7
		c-30.2,13.1-61.4,23.7-92.5,34.4c-16.4,5.6-33.4,9.9-50.5,12.9c-4.9,0.9-13.9-3.8-15.7-8.1c-1.7-4.1,2-12.7,6-16.6
		c21.3-21.3,43.4-41.8,65.1-62.6c27.3-26.2,54.6-52.4,81.8-78.7C412.1,662,414.8,658.7,420.4,652.5z"/>
</g>
<g>
	<path d="M937.8,251c0.3-2.7,0.5-5.1,0.7-7.5c2.5-23.5,5-47,7.5-70.5c0.3-2.5,1.5-3.7,3.6-3.4c2.2,0.2,3.4,1.8,3.2,4.2
		c-2.1,20.2-4.3,40.4-6.5,60.6c-1.1,10.2-2.1,20.5-3.2,30.8c-0.4,3.6-2.9,4.8-6,2.9c-22.2-13.9-44.4-27.8-66.7-41.7
		c-1.8-1.1-2.2-2.3-1.5-3.9c0.8-1.7,2.8-2.7,4.5-2.1c0.5,0.2,1.1,0.5,1.5,0.8c13.2,8.3,26.5,16.6,39.7,24.8
		c6.1,3.8,12.3,7.6,18.5,11.5c0.2,0.1,0.3,0.2,0.7,0.1c-0.3-0.4-0.5-0.8-0.8-1.2c-7.9-11-16.9-20.9-27.1-29.8
		c-16.5-14.5-35.1-25.7-55.7-33.4c-16.7-6.3-33.9-10-51.7-11.1c-12.9-0.8-25.8-0.2-38.5,2.1c-12.3,2.2-24.3,5.6-36,10.4
		c-26.7,10.8-49.4,27.1-68.4,48.7c-7.3,8.2-13.6,17.1-19.1,26.6c-0.8,1.3-1.7,2.3-3.3,2.3c-1.4,0.1-2.6-0.4-3.4-1.6
		c-0.7-1.1-0.4-2.2,0.3-3.3c7.4-12.7,16.2-24.3,26.3-34.8c20.5-21.2,44.6-36.9,72.3-46.8c23.3-8.3,47.3-12.1,72.1-10.3
		c10.7,0.8,21.2,2.5,31.6,5.1c20.5,5.1,39.4,13.7,57,25.2c18.3,12,34.1,26.7,47.2,44.3C937,250.1,937.2,250.4,937.8,251z"/>
	<path d="M958.8,378.4c-3,0.5-5.9,1.1-8.9,1.4c-8.6,0.9-17.2,1.8-25.8,2.6c-2.9,0.3-5.1-1.5-5.4-4.4c-0.3-2.9,1.3-4.9,4.4-5.2
		c13.3-1.3,26.5-2.6,39.8-3.9c0.5-0.1,1.1,0.1,1.6,0.2c0-0.2,0.1-0.4,0.1-0.6c-1.6-1.4-3.1-2.8-4.7-4.2
		c-6.4-5.7-12.9-11.4-19.3-17.1c-2.2-2-2.7-4-1.6-6.3c1.4-2.7,4.4-3.5,6.7-1.6c3,2.5,5.9,5.2,8.9,7.8c5,4.5,10.1,9,15.1,13.5
		c0.2,0.2,0.5,0.4,1,0.8c0.1-2.3,0.2-4.4,0.3-6.5c0.3-10,0.6-20,0.9-30c0.1-3,1.2-4.5,3.4-4.8c2.7-0.3,5.5,1.5,6.1,4.1
		c0.2,0.7,0.2,1.5,0.1,2.3c-0.2,6.5-0.4,13-0.5,19.5c0,0.2,0,0.5,0.1,1.1c1.1-1.6,2.1-2.9,3-4.3c3.4-5,6.8-10.1,10.2-15.1
		c1.7-2.5,3.7-3,6.1-1.6c2.7,1.6,3.7,4.6,2.2,7c-2.2,3.5-4.6,7-7,10.4c-4.9,7.2-9.7,14.3-14.6,21.5c-0.4,0.6-0.5,1.4-0.7,2.1
		c0.1,0.2,0.2,0.4,0.3,0.5c1.6-0.3,3.1-0.6,4.7-0.8c11.5-1.2,22.9-2.3,34.4-3.4c2.3-0.2,4,0.7,4.9,2.6c0.9,1.9,0.8,4.2-0.7,5.5
		c-0.8,0.7-2,1.3-3.1,1.4c-6.6,0.7-13.3,1.3-19.9,2c-4.3,0.4-8.7,1-13.2,1.5c1,0.9,1.9,1.8,2.8,2.6c3.7,3.3,7.4,6.6,11.1,9.9
		c2.3,2.1,2.9,4.2,1.7,6.4c-1.5,2.8-4.4,3.5-6.8,1.5c-3.3-2.8-6.6-5.8-9.8-8.7c-2.1-1.9-4.3-3.8-6.6-5.8c-0.1,0.6-0.2,1-0.2,1.3
		c-0.3,10.9-0.6,21.9-0.9,32.8c0,0.3,0,0.7,0,1c-0.1,2.9-1.2,4.4-3.4,4.6c-2.7,0.3-5.4-1.3-6-3.8c-0.2-0.8-0.2-1.6-0.2-2.5
		c0.3-10.6,0.6-21.2,0.9-31.8c0-0.9,0-1.7,0.1-3.1c-0.6,0.7-0.9,1.1-1.2,1.5c-6.3,9.3-12.6,18.5-18.8,27.8c-1.7,2.5-3.9,3.1-6.2,1.6
		c-2.6-1.7-3.5-4.7-2-7c2.5-3.8,5.1-7.5,7.6-11.2c3.2-4.7,6.3-9.4,9.5-14.1C959,378.9,958.9,378.7,958.8,378.4z"/>
</g>
<g>
	<path class="st1" d="M351.9,272.9l9,64.3h0.2l8-64.3h27.3l9,64.3h0.2l8-64.3h19.9l-17.6,121.8h-25.4L380,335.1l-8.6,59.6H346
		l-21.4-121.8H351.9z"/>
	<path class="st1" d="M508.8,394.7h-28.4V346h-11.3v48.7h-28.4V272.9h28V322H480v-49.1h28.8L508.8,394.7L508.8,394.7z"/>
	<path class="st1" d="M553.1,394.7l-1.7-13.4h-14.1l-1.5,13.4h-19.9l17.6-121.8h25.4l21.4,121.8H553.1z M544.1,330.4h-0.2l-5,35.7
		h9.9L544.1,330.4z"/>
	<path class="st1" d="M647.4,298.3h-23.5v96.4h-28.6v-96.4h-23.5v-25.4h75.6V298.3z"/>
	<path class="st1" d="M733.9,377.5c-3.2,5.8-7.4,10.1-12.6,12.9c-5.2,2.8-10.7,4.2-16.6,4.2H673V272.9h37.8c8,0,14.6,3.1,19.8,9.4
		s7.9,15.8,7.9,28.4l0.2,45.4C738.7,364.6,737.1,371.7,733.9,377.5z M708.2,370.1c2.4-1.4,3.7-3.4,3.7-6.1v-59.4c0-3.5-1-5.8-3-6.9
		s-5.1-1.7-9.3-1.7v76.2C702.8,372.2,705.7,371.5,708.2,370.1z"/>
	<path class="st1" d="M755.8,281.9c5.8-7.4,14.2-11.1,25.3-11.1c10.9,0,19.1,3.7,24.6,11s8.2,17.1,8.2,29.3v45.3
		c0,12.2-2.7,21.9-8.2,29.3c-5.5,7.3-13.7,11-24.6,11c-11.1,0-19.5-3.7-25.3-11.1s-8.7-17.1-8.7-29.2V311
		C747.1,299,750,289.3,755.8,281.9z M780.5,371.8c4.5,0,6.7-3.5,6.7-10.5v-55c0-7-2.2-10.5-6.7-10.5c-4.3,0-6.5,3.5-6.5,10.5v55
		C774,368.3,776.2,371.8,780.5,371.8z"/>
	<path class="st1" d="M351.9,417.9l9,64.3h0.2l8-64.3h27.3l9,64.3h0.2l8-64.3h19.9l-17.6,121.8h-25.4L380,480.1l-8.6,59.6H346
		l-21.4-121.8H351.9z"/>
	<path class="st1" d="M468.7,468.3h14.9v22.5h-14.7v24.1h27.5v24.8h-55.7V417.9h55.6v25.6h-27.6V468.3z"/>
	<path class="st1" d="M531.4,426.9c5.8-7.4,14.2-11.1,25.3-11.1c10.9,0,19.1,3.7,24.6,11s8.2,17.1,8.2,29.3v45.3
		c0,12.2-2.7,21.9-8.2,29.3c-5.5,7.3-13.6,11-24.6,11c-11.1,0-19.5-3.7-25.3-11.1c-5.8-7.4-8.7-17.1-8.7-29.2V456
		C522.6,444,525.5,434.3,531.4,426.9z M556,516.8c4.5,0,6.7-3.5,6.7-10.5v-55c0-7-2.2-10.5-6.7-10.5c-4.3,0-6.5,3.5-6.5,10.5v55
		C549.5,513.3,551.7,516.8,556,516.8z"/>
	<path class="st1" d="M627.2,468.3h14.9v22.5h-14.7v48.9h-28.1V417.9h55.6v25.6h-27.7V468.3z"/>
	<path class="st1" d="M689.8,468.3h14.9v22.5H690v48.9h-28.1V417.9h55.7v25.6h-27.7v24.8H689.8z"/>
	<path class="st1" d="M752.4,468.3h14.9v22.5h-14.7v24.1h27.5v24.8h-55.7V417.9h55.7v25.6h-27.7V468.3z"/>
	<path class="st1" d="M824,417.9c9,0,16.1,2.9,21.3,8.7c5.2,5.8,7.9,13,7.9,21.5c0,8.4-0.9,14.3-2.7,17.7c-1.8,3.4-5,6.1-9.5,7.9
		v0.4c4.2,1.8,7.4,4.3,9.6,7.3c2.2,3.1,3.2,6.7,3,10.9c-0.4,17.2-0.6,27.7-0.4,31.5c0.1,4.5,1.2,9.7,3.2,15.8h-25.8
		c-1.1-1.4-2-3.8-2.6-7.1c-0.6-3.4-0.9-6.6-0.9-9.9l0.2-29.4c0-2-0.6-3.5-1.8-4.7s-2.7-1.8-4.5-1.8h-5v52.9h-26.9V417.9H824z
		 M824.9,462.8c1.6-2,2.4-4.5,2.4-7.6v-3.8c0-7.4-3.1-11.1-9.2-11.1h-2.7v25.6h2.7C821,465.8,823.3,464.8,824.9,462.8z"/>
	<path class="st1" d="M923,425.4c5.9,6.6,8.9,14.6,8.9,24.2c0,5.5-0.9,10.8-2.8,16c-1.9,5.2-4.5,9.5-7.9,12.8c-5,5-8.3,10-9.9,14.9
		c-1.5,4.9-2.3,9.2-2.3,12.8h-23.3c0.1-9,1.3-16.2,3.4-21.7c2.1-5.5,5-11,8.8-16.5c2.1-3.2,3.6-5.8,4.6-7.8s1.5-4.1,1.5-6.3
		c0-7-3.2-10.5-9.7-10.5c-3.5,0-6,1.6-7.5,4.8c-1.5,3.2-2.2,6.5-2.2,9.9v8.2h-23.7c-0.4-2.7-0.6-5.8-0.6-9.5c0-10.5,2.5-20,7.5-28.5
		s14.3-12.7,28-12.7C908,415.5,917,418.8,923,425.4z M884.5,514.2h26v25.4h-26V514.2z"/>
</g>
</svg>
