<svg version="1.1" id="Layer_1" xmlns="http://www.w3.org/2000/svg" x="0" y="0" viewBox="0 0 1198.4 850.4" xml:space="preserve"><style>.st1{enable-background:new}.st2{fill:#fff4e7}</style><path d="M420.4 652.5c-24.4-7.1-46.6-12.1-67.8-20.1-15.8-5.9-29.7-16.7-45.2-23.4-13.1-5.7-27.2-10-41.3-12.5-28.3-5-54.7-12.3-75.4-34.5-10.6-11.4-23.8-20.5-36.3-29.9-22.4-16.7-29.6-42.3-34.3-66.8-5.5-28-9.9-58.4-4.6-85.7 6.9-35.2 18.6-72 38.4-101.3 19.7-29.1 51-51 79.3-73.5 11-8.8 27.5-11.2 41.9-15.2 20.9-5.8 41.8-12.2 63.2-15 30.6-4 61.8-3.3 92.3-7.8 20-2.9 39.5-10.5 58.6-17.6 32.8-12.1 65.2-25.3 97.8-38.1 51.1-20 101.6-41.7 153.6-59.1 28.4-9.5 59.1-14.5 89-16.2 42.8-2.3 78.9 18.7 111.3 44.2 42.4 33.4 84.5 68.4 108.6 117.9 30.5 62.5 43 129 28.4 198-8.8 41.4-19.3 82.7-33.2 122.6-8.3 24-24.3 45.4-37.5 67.5-13.6 22.9-25.9 47.1-42.8 67.4-26.6 31.9-53.1 65.4-85.9 90.1-45.2 34.1-97.8 46.4-156.5 33.5-54.2-11.9-105.9-30.1-157.7-48.6-15.2-5.4-27.4-2.6-40 3.3-36.6 17-72.4 35.7-109.4 51.7-30.2 13.1-61.4 23.7-92.5 34.4-16.4 5.6-33.4 9.9-50.5 12.9-4.9.9-13.9-3.8-15.7-8.1-1.7-4.1 2-12.7 6-16.6 21.3-21.3 43.4-41.8 65.1-62.6 27.3-26.2 54.6-52.4 81.8-78.7 3-2.7 5.7-6 11.3-12.2z" fill="#e95745"/><path d="M805 272.8c-1.5-2.3-2.8-4.3-4.1-6.3-12.8-19.9-25.6-39.7-38.4-59.6-1.3-2.1-1.1-3.8.6-4.9 1.9-1.2 3.8-.8 5.1 1.3l33 51.3c5.6 8.7 11.2 17.3 16.8 26 1.9 3 .8 5.6-2.8 6-26 3.1-52 6.2-78.1 9.4-2.1.2-3.2-.4-3.6-2.1-.5-1.8.5-3.8 2.2-4.4.5-.2 1.1-.3 1.7-.3 15.5-1.9 31-3.7 46.5-5.6l21.6-2.7c.2 0 .4-.1.6-.4-.5-.2-.9-.3-1.4-.5-13-3.6-26.3-5.7-39.8-6.2-22-.9-43.5 2.1-64.3 9-16.9 5.6-32.7 13.5-47.3 23.8-10.6 7.5-20.2 16-28.7 25.8-8.3 9.4-15.4 19.7-21.5 30.6-14 25.2-21.4 52.1-22.7 80.8-.5 11 .1 21.9 1.8 32.7.2 1.5.1 2.8-1.1 3.9-1.1.9-2.3 1.3-3.7.8-1.3-.4-1.7-1.5-1.9-2.7-2.2-14.5-2.7-29-1.3-43.6 2.6-29.4 11.5-56.7 26.9-81.9 12.9-21.1 29.3-39.1 49.7-53.3 8.8-6.1 18.1-11.4 27.8-15.9 19.2-8.9 39.3-14.1 60.3-16.1 21.8-2.1 43.3-.6 64.5 4.9.5 0 .8 0 1.6.2zM901.4 358.7c-2 2.2-4 4.5-6.1 6.7-6.1 6.1-12.3 12.2-18.5 18.3-2.1 2-5 2-7-.1-2.1-2.1-2-4.7.2-6.8 9.5-9.4 19-18.7 28.5-28 .4-.4.9-.6 1.3-.9-.1-.2-.2-.4-.3-.5-2.1-.1-4.2-.3-6.3-.4l-25.8-1.2c-3-.1-4.7-1.4-5.2-3.9-.7-3 1.2-5.5 4.2-5.4 3.9.1 7.9.3 11.8.5 6.7.3 13.5.7 20.2 1h1.2c-1.4-1.9-2.6-3.6-3.8-5.2-6.1-8-12.1-16-18.2-23.9-1.8-2.4-1.9-4.3-.4-5.9 1.9-2 5.3-2.3 7.3-.6.6.5 1.1 1.1 1.6 1.7 4 5.2 7.9 10.4 11.8 15.6.1.2.3.3.7.8-.1-2-.2-3.6-.4-5.2-.5-6.1-1-12.1-1.5-18.2-.2-3 1-4.7 3.7-5.1 3.1-.4 5.8 1.2 6.1 4 .5 4.1.8 8.3 1.1 12.5.7 8.6 1.4 17.3 2.1 25.9.1.7.5 1.4.7 2.1.2.1.4.1.6.2 1.1-1.2 2.1-2.4 3.2-3.6l24.6-24.3c1.6-1.6 3.6-1.9 5.5-1 1.9.9 3.2 2.7 2.9 4.7-.2 1.1-.8 2.3-1.5 3-4.7 4.7-9.5 9.4-14.2 14-3.1 3.1-6.1 6.2-9.4 9.5 1.4.1 2.6.2 3.8.3 5 .2 9.9.5 14.9.7 3.1.1 4.9 1.5 5.4 3.9.6 3.1-1.3 5.5-4.4 5.4-4.4-.1-8.7-.4-13.1-.6-2.9-.1-5.7-.3-8.8-.4.3.5.5.9.7 1.1 6.6 8.7 13.2 17.4 19.9 26.1.2.3.4.5.6.8 1.7 2.3 1.8 4.1.2 5.8-1.9 2-5 2.4-7 .8-.6-.5-1.2-1.1-1.7-1.8-6.4-8.4-12.8-16.9-19.3-25.3-.5-.7-1.1-1.4-1.9-2.4v1.9c.9 11.1 1.8 22.3 2.8 33.4.3 3-1.1 4.8-3.9 5.1-3.1.3-5.7-1.5-6-4.2-.4-4.5-.8-9-1.1-13.5-.5-5.7-1-11.3-1.5-17 .1 0-.1-.2-.3-.4z"/><g class="st1"><path class="st2" d="M296.7 335.4c11.4-11.4 11.8-23.4 11.8-26.9h22.6c-.2 32.4-17.7 37.8-17.7 50.7 0 4.9 1.4 10.2 9.4 10.2s9.4-10.2 9.4-14.2v-7.9h23s7.9 49-33.8 49c-41.6 0-41.4-44.2-24.7-60.9zm35.4-34.6h-25.2v-24.6h25.2v24.6zm108.3 70v23.4h-14.2c-4.9 0-9-2.4-11.6-6.1-5.3 3.9-12 6.1-19.1 6.1-18.3 0-33.4-14.9-33.4-33.4v-51.5c0-18.5 15.1-33.4 33.4-33.4 18.5 0 33.6 14.9 33.6 33.4v51.5c0 2.9-.4 5.7-1 8.3.8 1 2 1.6 3.5 1.6l8.8.1zM395 300.6c-3.7 0-6.5 2.8-6.5 6.5V362c0 3.7 2.8 6.5 6.5 6.5 3.5 0 6.3-2.8 6.3-6.5v-54.9c0-3.6-2.8-6.5-6.3-6.5zm76.1 62.3c0 6.1 3.3 9.4 8.3 9.4s8.3-3.3 8.3-9.4v-86.7h19.9v91c0 16.1-11.6 29.1-30.7 29.1h-1.2c-21.2 0-31.9-15.3-31.9-33.4v-86.7h27.3v86.7zm74.5-37.9H560v21.8h-14.2v23.4h26.7v24h-53.9v-118h53.9V301h-26.9v24zm-12.8-56.9l8.3-22.6h22.6l-12 22.6h-18.9z"/></g><g class="st1"><path class="st2" d="M288 458.6c0-22.2 10.8-39.1 33-39.1s31.7 16.9 31.7 39.1v43.9c0 22.2-9.6 39.1-31.7 39.1-22.2 0-33-16.9-33-39.1v-43.9zm32.3 58.8c4.3 0 6.5-3.5 6.5-10.2v-53.3c0-6.7-2.2-10.2-6.5-10.2-4.1 0-6.3 3.5-6.3 10.2v53.3c0 6.7 2.3 10.2 6.3 10.2zm69-47h14.4v21.8h-14.2v47.4h-27.3v-118h53.9v24.8h-26.9l.1 24zm33.6-48.8h34c18.1 0 28.3 13.4 28.3 29.3 0 17.1-3.9 21.6-11.8 24.8v.4c7.9 3.5 12.4 9.6 12.2 17.7-.6 23.6-.6 25.8-.4 30.5.2 6.9 3.1 15.3 3.1 15.3h-25c-2.4-3.1-3.5-11-3.5-16.5l.2-28.5c0-3.7-2.4-6.3-6.1-6.3H449v51.3h-26v-118zm28.3 46.5c5.7-.4 9-4.5 9-10.4V454c0-7.3-2.8-10.8-9-10.8h-2.6V468h2.6zm71.4 2.3H537v21.8h-14.2v23.4h26.7v24h-53.9v-118h53.9v24.8h-26.9v24zm75.7-2v-16.9c0-4.1-3.3-7.7-7.3-7.7s-7.3 3.7-7.3 7.7v58.8c0 4.1 3.3 7.3 7.3 7.3s7.3-3.3 7.3-7.3v-17.1h19.9v19.3c0 16.1-11.6 29.1-29.7 29.1h-1.2c-20.1 0-30.9-15.3-30.9-33.4v-59.6c0-16.1 13-29.3 31.1-29.3h1c22.2 0 29.9 17.3 29.9 33.4v15.7h-20.1zm55.9 2h14.4v21.8h-14.2v23.4h26.7v24h-53.9v-118h53.9v24.8h-26.9v24zm119.5 69.2h-26.2v-57l-12.6 57h-11l-12.6-57v57h-21.6v-118h32.6l10.8 42.9 9.2-42.9h31.5l-.1 118zm9.5-81c0-22.2 10.8-39.1 33-39.1s31.7 16.9 31.7 39.1v43.9c0 22.2-9.6 39.1-31.7 39.1-22.2 0-33-16.9-33-39.1v-43.9zm32.4 58.8c4.3 0 6.5-3.5 6.5-10.2v-53.3c0-6.7-2.2-10.2-6.5-10.2-4.1 0-6.3 3.5-6.3 10.2v53.3c0 6.7 2.2 10.2 6.3 10.2zm104.8-9c0 21.4-14.4 33.2-32.1 33.2H885c-21.8 0-31.1-16.9-31.1-33.6v-11.2h17.5v9.6c0 7.3 3.7 12.4 11.2 12.4 6.3 0 11.6-4.5 11.6-10.6 0-4.9-3.3-11-11.8-16.7-18.3-12.2-25.6-27.3-25.6-44.4 0-14.2 10.2-27.7 28.9-27.7 19.3 0 29.1 11.6 29.1 29.1v11.6h-18.3v-9.6c0-6.5-4.7-8.8-8.8-8.8-4.1 0-7.9 3.1-7.9 8.8 0 7.1 7.3 13.8 15.3 18.7 20.8 13 25.3 24 25.3 39.2zm62.2-28.3c-11.4 11.4-11.8 23.4-11.8 26.9h-22.6c.2-32.4 17.7-37.8 17.7-50.7 0-4.9-1.4-10.2-9.4-10.2-7.9 0-9.4 10.2-9.4 14.2v7.9h-23s-7.9-49 33.8-49c41.6.1 41.2 44.3 24.7 60.9zM947 514.9h25.2v24.6H947v-24.6z"/></g></svg>