<?xml version="1.0" encoding="utf-8"?>
<!-- Generator: Adobe Illustrator 25.2.3, SVG Export Plug-In . SVG Version: 6.00 Build 0)  -->
<svg version="1.1" id="Layer_1" xmlns="http://www.w3.org/2000/svg" xmlns:xlink="http://www.w3.org/1999/xlink" x="0px" y="0px"
	 viewBox="0 0 1198.4 850.4" style="enable-background:new 0 0 1198.4 850.4;" xml:space="preserve">
<style type="text/css">
	.st0{fill:#E95745;}
	.st1{enable-background:new    ;}
	.st2{fill:#FFF4E7;}
</style>
<g>
	<path class="st0" d="M420.4,652.5c-24.4-7.1-46.6-12.1-67.8-20.1c-15.8-5.9-29.7-16.7-45.2-23.4c-13.1-5.7-27.2-10-41.3-12.5
		c-28.3-5-54.7-12.3-75.4-34.5c-10.6-11.4-23.8-20.5-36.3-29.9c-22.4-16.7-29.6-42.3-34.3-66.8c-5.5-28-9.9-58.4-4.6-85.7
		c6.9-35.2,18.6-72,38.4-101.3c19.7-29.1,51-51,79.3-73.5c11-8.8,27.5-11.2,41.9-15.2c20.9-5.8,41.8-12.2,63.2-15
		c30.6-4,61.8-3.3,92.3-7.8c20-2.9,39.5-10.5,58.6-17.6c32.8-12.1,65.2-25.3,97.8-38.1c51.1-20,101.6-41.7,153.6-59.1
		c28.4-9.5,59.1-14.5,89-16.2c42.8-2.3,78.9,18.7,111.3,44.2c42.4,33.4,84.5,68.4,108.6,117.9c30.5,62.5,43,129,28.4,198
		c-8.8,41.4-19.3,82.7-33.2,122.6c-8.3,24-24.3,45.4-37.5,67.5c-13.6,22.9-25.9,47.1-42.8,67.4c-26.6,31.9-53.1,65.4-85.9,90.1
		c-45.2,34.1-97.8,46.4-156.5,33.5c-54.2-11.9-105.9-30.1-157.7-48.6c-15.2-5.4-27.4-2.6-40,3.3c-36.6,17-72.4,35.7-109.4,51.7
		c-30.2,13.1-61.4,23.7-92.5,34.4c-16.4,5.6-33.4,9.9-50.5,12.9c-4.9,0.9-13.9-3.8-15.7-8.1c-1.7-4.1,2-12.7,6-16.6
		c21.3-21.3,43.4-41.8,65.1-62.6c27.3-26.2,54.6-52.4,81.8-78.7C412.1,662,414.8,658.7,420.4,652.5z"/>
</g>
<g>
	<path d="M805,272.8c-1.5-2.3-2.8-4.3-4.1-6.3c-12.8-19.9-25.6-39.7-38.4-59.6c-1.3-2.1-1.1-3.8,0.6-4.9c1.9-1.2,3.8-0.8,5.1,1.3
		c11,17.1,22,34.2,33,51.3c5.6,8.7,11.2,17.3,16.8,26c1.9,3,0.8,5.6-2.8,6c-26,3.1-52,6.2-78.1,9.4c-2.1,0.2-3.2-0.4-3.6-2.1
		c-0.5-1.8,0.5-3.8,2.2-4.4c0.5-0.2,1.1-0.3,1.7-0.3c15.5-1.9,31-3.7,46.5-5.6c7.2-0.9,14.4-1.8,21.6-2.7c0.2,0,0.4-0.1,0.6-0.4
		c-0.5-0.2-0.9-0.3-1.4-0.5c-13-3.6-26.3-5.7-39.8-6.2c-22-0.9-43.5,2.1-64.3,9c-16.9,5.6-32.7,13.5-47.3,23.8
		c-10.6,7.5-20.2,16-28.7,25.8c-8.3,9.4-15.4,19.7-21.5,30.6c-14,25.2-21.4,52.1-22.7,80.8c-0.5,11,0.1,21.9,1.8,32.7
		c0.2,1.5,0.1,2.8-1.1,3.9c-1.1,0.9-2.3,1.3-3.7,0.8c-1.3-0.4-1.7-1.5-1.9-2.7c-2.2-14.5-2.7-29-1.3-43.6
		c2.6-29.4,11.5-56.7,26.9-81.9c12.9-21.1,29.3-39.1,49.7-53.3c8.8-6.1,18.1-11.4,27.8-15.9c19.2-8.9,39.3-14.1,60.3-16.1
		c21.8-2.1,43.3-0.6,64.5,4.9C803.9,272.6,804.2,272.6,805,272.8z"/>
	<path d="M901.4,358.7c-2,2.2-4,4.5-6.1,6.7c-6.1,6.1-12.3,12.2-18.5,18.3c-2.1,2-5,2-7-0.1c-2.1-2.1-2-4.7,0.2-6.8
		c9.5-9.4,19-18.7,28.5-28c0.4-0.4,0.9-0.6,1.3-0.9c-0.1-0.2-0.2-0.4-0.3-0.5c-2.1-0.1-4.2-0.3-6.3-0.4c-8.6-0.4-17.2-0.8-25.8-1.2
		c-3-0.1-4.7-1.4-5.2-3.9c-0.7-3,1.2-5.5,4.2-5.4c3.9,0.1,7.9,0.3,11.8,0.5c6.7,0.3,13.5,0.7,20.2,1c0.3,0,0.6,0,1.2,0
		c-1.4-1.9-2.6-3.6-3.8-5.2c-6.1-8-12.1-16-18.2-23.9c-1.8-2.4-1.9-4.3-0.4-5.9c1.9-2,5.3-2.3,7.3-0.6c0.6,0.5,1.1,1.1,1.6,1.7
		c4,5.2,7.9,10.4,11.8,15.6c0.1,0.2,0.3,0.3,0.7,0.8c-0.1-2-0.2-3.6-0.4-5.2c-0.5-6.1-1-12.1-1.5-18.2c-0.2-3,1-4.7,3.7-5.1
		c3.1-0.4,5.8,1.2,6.1,4c0.5,4.1,0.8,8.3,1.1,12.5c0.7,8.6,1.4,17.3,2.1,25.9c0.1,0.7,0.5,1.4,0.7,2.1c0.2,0.1,0.4,0.1,0.6,0.2
		c1.1-1.2,2.1-2.4,3.2-3.6c8.2-8.1,16.4-16.2,24.6-24.3c1.6-1.6,3.6-1.9,5.5-1c1.9,0.9,3.2,2.7,2.9,4.7c-0.2,1.1-0.8,2.3-1.5,3
		c-4.7,4.7-9.5,9.4-14.2,14c-3.1,3.1-6.1,6.2-9.4,9.5c1.4,0.1,2.6,0.2,3.8,0.3c5,0.2,9.9,0.5,14.9,0.7c3.1,0.1,4.9,1.5,5.4,3.9
		c0.6,3.1-1.3,5.5-4.4,5.4c-4.4-0.1-8.7-0.4-13.1-0.6c-2.9-0.1-5.7-0.3-8.8-0.4c0.3,0.5,0.5,0.9,0.7,1.1
		c6.6,8.7,13.2,17.4,19.9,26.1c0.2,0.3,0.4,0.5,0.6,0.8c1.7,2.3,1.8,4.1,0.2,5.8c-1.9,2-5,2.4-7,0.8c-0.6-0.5-1.2-1.1-1.7-1.8
		c-6.4-8.4-12.8-16.9-19.3-25.3c-0.5-0.7-1.1-1.4-1.9-2.4c0,0.9,0,1.4,0,1.9c0.9,11.1,1.8,22.3,2.8,33.4c0.3,3-1.1,4.8-3.9,5.1
		c-3.1,0.3-5.7-1.5-6-4.2c-0.4-4.5-0.8-9-1.1-13.5c-0.5-5.7-1-11.3-1.5-17C901.8,359.1,901.6,358.9,901.4,358.7z"/>
</g>
<g class="st1">
	<path class="st2" d="M296.7,335.4c11.4-11.4,11.8-23.4,11.8-26.9h22.6c-0.2,32.4-17.7,37.8-17.7,50.7c0,4.9,1.4,10.2,9.4,10.2
		s9.4-10.2,9.4-14.2v-7.9h23c0,0,7.9,49-33.8,49C279.8,396.3,280,352.1,296.7,335.4L296.7,335.4z M332.1,300.8h-25.2v-24.6h25.2
		L332.1,300.8L332.1,300.8z M440.4,370.8v23.4h-14.2c-4.9,0-9-2.4-11.6-6.1c-5.3,3.9-12,6.1-19.1,6.1c-18.3,0-33.4-14.9-33.4-33.4
		v-51.5c0-18.5,15.1-33.4,33.4-33.4c18.5,0,33.6,14.9,33.6,33.4v51.5c0,2.9-0.4,5.7-1,8.3c0.8,1,2,1.6,3.5,1.6L440.4,370.8
		L440.4,370.8z M395,300.6c-3.7,0-6.5,2.8-6.5,6.5v54.9c0,3.7,2.8,6.5,6.5,6.5c3.5,0,6.3-2.8,6.3-6.5v-54.9
		C401.3,303.5,398.5,300.6,395,300.6z M471.1,362.9c0,6.1,3.3,9.4,8.3,9.4s8.3-3.3,8.3-9.4v-86.7h19.9v91
		c0,16.1-11.6,29.1-30.7,29.1h-1.2c-21.2,0-31.9-15.3-31.9-33.4v-86.7h27.3L471.1,362.9L471.1,362.9z M545.6,325H560v21.8h-14.2
		v23.4h26.7v24h-53.9v-118h53.9V301h-26.9V325L545.6,325z M532.8,268.1l8.3-22.6h22.6l-12,22.6H532.8z"/>
</g>
<g class="st1">
	<path class="st2" d="M288,458.6c0-22.2,10.8-39.1,33-39.1c22.2,0,31.7,16.9,31.7,39.1v43.9c0,22.2-9.6,39.1-31.7,39.1
		c-22.2,0-33-16.9-33-39.1V458.6L288,458.6z M320.3,517.4c4.3,0,6.5-3.5,6.5-10.2v-53.3c0-6.7-2.2-10.2-6.5-10.2
		c-4.1,0-6.3,3.5-6.3,10.2v53.3C314,513.9,316.3,517.4,320.3,517.4z M389.3,470.4h14.4v21.8h-14.2v47.4h-27.3v-118h53.9v24.8h-26.9
		L389.3,470.4L389.3,470.4z M422.9,421.6h34c18.1,0,28.3,13.4,28.3,29.3c0,17.1-3.9,21.6-11.8,24.8v0.4c7.9,3.5,12.4,9.6,12.2,17.7
		c-0.6,23.6-0.6,25.8-0.4,30.5c0.2,6.9,3.1,15.3,3.1,15.3h-25c-2.4-3.1-3.5-11-3.5-16.5l0.2-28.5c0-3.7-2.4-6.3-6.1-6.3h-4.9v51.3
		h-26V421.6z M451.2,468.1c5.7-0.4,9-4.5,9-10.4v-3.7c0-7.3-2.8-10.8-9-10.8h-2.6v24.8H451.2z M522.6,470.4H537v21.8h-14.2v23.4
		h26.7v24h-53.9v-118h53.9v24.8h-26.9L522.6,470.4L522.6,470.4z M598.3,468.4v-16.9c0-4.1-3.3-7.7-7.3-7.7s-7.3,3.7-7.3,7.7v58.8
		c0,4.1,3.3,7.3,7.3,7.3s7.3-3.3,7.3-7.3v-17.1h19.9v19.3c0,16.1-11.6,29.1-29.7,29.1h-1.2c-20.1,0-30.9-15.3-30.9-33.4v-59.6
		c0-16.1,13-29.3,31.1-29.3h1c22.2,0,29.9,17.3,29.9,33.4v15.7L598.3,468.4L598.3,468.4z M654.2,470.4h14.4v21.8h-14.2v23.4h26.7v24
		h-53.9v-118h53.9v24.8h-26.9L654.2,470.4L654.2,470.4z M773.7,539.6h-26.2v-57l-12.6,57h-11l-12.6-57v57h-21.6v-118h32.6l10.8,42.9
		l9.2-42.9h31.5L773.7,539.6L773.7,539.6z M783.2,458.6c0-22.2,10.8-39.1,33-39.1c22.2,0,31.7,16.9,31.7,39.1v43.9
		c0,22.2-9.6,39.1-31.7,39.1c-22.2,0-33-16.9-33-39.1V458.6L783.2,458.6z M815.6,517.4c4.3,0,6.5-3.5,6.5-10.2v-53.3
		c0-6.7-2.2-10.2-6.5-10.2c-4.1,0-6.3,3.5-6.3,10.2v53.3C809.3,513.9,811.5,517.4,815.6,517.4z M920.4,508.4
		c0,21.4-14.4,33.2-32.1,33.2H885c-21.8,0-31.1-16.9-31.1-33.6v-11.2h17.5v9.6c0,7.3,3.7,12.4,11.2,12.4c6.3,0,11.6-4.5,11.6-10.6
		c0-4.9-3.3-11-11.8-16.7c-18.3-12.2-25.6-27.3-25.6-44.4c0-14.2,10.2-27.7,28.9-27.7c19.3,0,29.1,11.6,29.1,29.1v11.6h-18.3v-9.6
		c0-6.5-4.7-8.8-8.8-8.8c-4.1,0-7.9,3.1-7.9,8.8c0,7.1,7.3,13.8,15.3,18.7C915.9,482.2,920.4,493.2,920.4,508.4L920.4,508.4z
		 M982.6,480.1c-11.4,11.4-11.8,23.4-11.8,26.9h-22.6c0.2-32.4,17.7-37.8,17.7-50.7c0-4.9-1.4-10.2-9.4-10.2
		c-7.9,0-9.4,10.2-9.4,14.2v7.9h-23c0,0-7.9-49,33.8-49C999.5,419.3,999.1,463.5,982.6,480.1L982.6,480.1z M947,514.9h25.2v24.6H947
		V514.9z"/>
</g>
</svg>
