<svg version="1.1" id="Layer_1" xmlns="http://www.w3.org/2000/svg" x="0" y="0" viewBox="0 0 971.9 610.7" xml:space="preserve"><style>.st1{fill:#fff4e7}</style><path d="M963.5 400.9c-.5-15.9-1.5-31.7-1.8-47.6-6.2-24.1-13.1-47.9-21.3-71.3-.7-2-1.4-3.9-2.2-5.9-.6-.8-1.1-1.5-1.6-2.2-5.5-7.2-10.2-14.9-15-22.5-5-8.1-10.5-14.7-17.8-21.1-10.5-9.3-22.2-17.1-33.9-24.8-3-2-6-3.9-9-5.9-46.4-22.5-96.7-35.4-147.7-42.4-27.2-3.7-54.5-6-81.8-8.2-13.7-1.1-27.3-2.3-41-3.6-12.5-1.2-24.8-2.4-36.7-6.6-7.4-2.6-14.5-6-21.3-9.9-5.6-2.6-11-5.4-16.8-7.7-5.5-2.1-11.1-4.2-16.1-7.2-8.4-3.4-16.7-7.2-24.8-11.1-24.2-11.5-47.6-24.6-71.6-36.5-25.8-12.8-53.4-22.5-80.7-31.7-28-9.5-56.5-17.5-85.6-23.1-2.9-.6-5.7-1.1-8.6-1.6-4 0-8.2-.6-12 1.5-3.8 2.1-5.6 6.9-5.7 11.6.4 1.5.9 3 1.2 4.5 3.5 3.6 7.1 7 10.7 10.4 10.3 9.6 20.6 19.1 30.6 29 22.2 22.3 43.8 46 59.8 73.3.9 1.5.9 3.1.2 4.5.9 1 1.8 2 2.8 3.2-24.4 7.1-46.6 12.1-67.8 20.1-15.8 5.9-29.7 16.7-45.2 23.4-13.1 5.7-27.2 10-41.3 12.5-28.3 5-54.7 12.3-75.4 34.5-10.6 11.4-23.8 20.5-36.3 29.9-22.4 16.7-29.6 42.3-34.3 66.8-5.5 28-9.9 58.4-4.6 85.7 3.6 18.2 8.5 36.9 15.1 54.7 2.7 5.9 5 12 8 17.7 2.3 4.3 4.7 8.6 7.4 12.6.7.9 1.4 1.7 2.2 2.5 3.3 3.3 7.1 6.2 10.5 9.4 58.5 37 127.7 52 195.6 62 87.4 12.9 174.6-5.6 261.9-10.6 39.7-2.3 79.5-1.3 118.7 5.4 32.7 5.6 64.9 13.9 97.6 20 64.1 12.1 139.5 18.6 188.4-33.6 24.7-26.4 36.7-61.7 43-96.7 4-21 4.9-42.1 4.2-63.4z" fill="#007540"/><path d="M643.6 241.1c0-2.2-.1-4.2-.1-6.1-.2-19.2-.5-38.4-.8-57.6 0-2 .9-3.1 2.5-3.1 1.8 0 3 1.1 3 3.1l.6 49.6c.1 8.4.3 16.7.4 25.1 0 2.9-1.9 4.2-4.5 2.9-19.2-9.1-38.5-18.1-57.9-27.2-1.5-.8-2-1.7-1.6-3 .4-1.5 2-2.4 3.4-2.1.4.1.9.3 1.3.5 11.5 5.4 22.9 10.8 34.4 16.2 5.3 2.5 10.7 5 16 7.4.1.1.3.1.6 0-.3-.4-.5-.6-.7-.9-7.4-8.1-15.7-15.3-24.7-21.4-14.8-10.1-30.9-17.3-48.2-21.5-14.1-3.4-28.3-4.8-42.8-4-10.5.6-20.8 2.3-30.9 5.4-9.8 2.9-19.1 6.9-28 11.8-20.5 11.3-37.2 26.7-50.5 45.9-5.1 7.4-9.4 15.1-12.8 23.3-.5 1.1-1.1 2-2.4 2.2-1.1.1-2.1-.1-2.9-1-.7-.8-.5-1.8-.1-2.7 4.7-10.9 10.6-21.1 17.9-30.6 14.5-19.1 32.4-34.1 53.8-44.8 18-9 37-14.3 57.2-15.3 8.7-.4 17.4-.1 26 1 17.1 2.1 33.1 7.2 48.5 14.9 15.9 7.9 30.1 18.2 42.3 31.2.4.2.6.4 1 .8zM673 341.8c-2.3.7-4.7 1.4-7.1 2-6.8 1.6-13.7 3.1-20.6 4.6-2.3.5-4.3-.8-4.8-3.1-.5-2.4.6-4.1 3.1-4.6 10.6-2.4 21.1-4.7 31.7-7 .4-.1.9 0 1.3-.1v-.5l-4.2-3c-5.8-4-11.5-8-17.3-11.9-2-1.4-2.6-3-1.9-4.9.8-2.4 3.2-3.3 5.2-1.9 2.6 1.7 5.3 3.6 7.9 5.4 4.5 3.1 9 6.3 13.5 9.4.2.1.4.3.8.5-.1-1.9-.2-3.6-.4-5.2-.8-8.1-1.4-16.2-2.2-24.3-.2-2.4.5-3.8 2.3-4.2 2.2-.6 4.6.7 5.3 2.7.2.6.3 1.2.4 1.9.5 5.3 1 10.6 1.4 15.8 0 .2.1.3.1.9.8-1.4 1.4-2.6 2-3.8 2.3-4.4 4.5-8.8 6.8-13.2 1.2-2.2 2.7-2.8 4.7-1.9 2.3 1.1 3.5 3.3 2.5 5.4-1.4 3-3 6.1-4.6 9.1-3.2 6.2-6.5 12.5-9.7 18.7-.2.5-.3 1.2-.4 1.7.1.2.2.2.3.4 1.3-.4 2.5-.7 3.8-1.1 9.1-2 18.3-4.1 27.4-6.1 1.8-.4 3.3.2 4.2 1.7.9 1.4 1 3.2 0 4.5-.6.7-1.5 1.2-2.3 1.4-5.3 1.2-10.6 2.4-15.8 3.5-3.5.8-6.9 1.6-10.6 2.5.9.7 1.7 1.3 2.5 1.8 3.4 2.3 6.6 4.6 10 6.9 2.1 1.4 2.7 3.1 2 5-.9 2.4-3.3 3.2-5.4 1.8-3-2-5.8-4-8.8-6.1-2-1.3-3.8-2.7-5.9-4.1v1.1c.8 8.8 1.6 17.7 2.5 26.6 0 .3.1.5.1.8.2 2.3-.5 3.6-2.4 4.1-2.2.6-4.5-.5-5.2-2.5-.2-.6-.4-1.3-.4-2-.8-8.5-1.5-17.2-2.4-25.7 0-.7-.2-1.4-.3-2.5-.4.6-.6 1-.8 1.3-4.2 8-8.4 16.1-12.5 24.2-1.1 2.2-2.8 2.8-4.9 1.8-2.3-1.1-3.3-3.5-2.3-5.5 1.7-3.3 3.3-6.5 5.1-9.8 2.1-4.1 4.2-8.2 6.3-12.4.1.4.1.2 0-.1z"/><path class="st1" d="M97 381.2v22.1H73v-22.1l15.2-21.9h1.6L85 381.2h12zm27.6 22.1h-23.8v-22.1l15.2-21.9h1.6l-4.9 21.9h12v22.1zM179.7 472.7h-46.1l.2-102.4h22.8v80.9h23.1v21.5zM212.9 472.7l-1.4-11.3h-11.8l-1.2 11.3h-16.8l14.8-102.4h21.4l18 102.4h-23zm-7.6-54h-.2l-4.2 30h8.3l-3.9-30zM303.9 427.3c3.1 5.1 4.6 11.2 4.6 18.4 0 8.9-2.6 16-7.9 21.1-5.3 5.1-11.9 7.7-19.9 7.7h-2.8c-8.8 0-15.5-2.9-20.1-8.6-4.6-5.7-6.9-12.6-6.9-20.6v-9.7H266v8.3c0 3.3.8 5.9 2.5 7.9 1.6 1.9 4.1 2.9 7.2 2.9 2.8 0 5.2-.9 7.1-2.6 1.9-1.8 2.9-3.9 2.9-6.5 0-2.2-.8-4.6-2.5-7.1-1.6-2.5-4.2-5-7.8-7.3-14.8-9.9-22.2-22.7-22.2-38.5 0-4.2 1-8.2 2.9-11.8 1.9-3.6 4.8-6.6 8.7-8.8 3.8-2.2 8.3-3.4 13.5-3.4 8.2 0 14.5 2.3 18.8 6.8 4.3 4.5 6.4 10.7 6.4 18.4V404h-15.9v-8.3c0-2.6-.8-4.5-2.3-5.7-1.5-1.2-3.3-1.9-5.3-1.9-1.9 0-3.5.7-4.9 2-1.4 1.4-2 3.2-2 5.6 0 2.8 1.2 5.6 3.7 8.5 2.5 2.8 5.6 5.4 9.5 7.8 8.8 5.1 14.6 10.3 17.6 15.3zM320.5 377.9c4.9-6.2 12-9.4 21.3-9.4 9.2 0 16.1 3.1 20.7 9.3 4.6 6.2 6.9 14.4 6.9 24.6v38.1c0 10.2-2.3 18.4-6.9 24.6-4.6 6.2-11.5 9.3-20.7 9.3-9.3 0-16.4-3.1-21.3-9.4-4.9-6.2-7.3-14.4-7.3-24.5v-38.1c-.1-10.1 2.4-18.3 7.3-24.5zm20.7 75.5c3.8 0 5.6-2.9 5.6-8.8v-46.3c0-5.9-1.9-8.8-5.6-8.8-3.6 0-5.5 2.9-5.5 8.8v46.3c0 5.9 1.8 8.8 5.5 8.8zM425.1 465.4c-4.4 4.9-10.3 7.3-17.8 7.3h-29.7V370.3H407c7.5 0 13.5 2.4 17.9 7.3 4.4 4.9 6.6 10.9 6.6 18.1 0 7.1-.8 12-2.3 14.9-1.5 2.9-4.2 5.1-7.9 6.6v.4c7.1 3.1 10.6 8.2 10.6 15.4l-.2 14.3c-.1 7.1-2.3 13.2-6.6 18.1zm-17.3-57.3c1.4-1.6 2-3.8 2-6.4v-3.2c0-6.2-2.6-9.4-7.8-9.4h-2.3v21.5h2.3c2.6 0 4.5-.9 5.8-2.5zm.6 22.4c-1-1.5-2.3-2.3-3.8-2.3h-4.8v25.6h4.8c1.6 0 2.9-.7 3.9-2.1.9-1.4 1.4-3.2 1.4-5.5v-10.8c0-1.7-.5-3.4-1.5-4.9zM469 370.3c7.5 0 13.5 2.4 17.9 7.3 4.4 4.9 6.6 10.9 6.6 18.1 0 7.1-.8 12-2.3 14.9-1.5 2.9-4.2 5.1-7.9 6.6v.4c3.5 1.5 6.2 3.6 8 6.2 1.8 2.6 2.7 5.6 2.6 9.2-.4 14.5-.5 23.3-.4 26.5.1 3.8 1 8.2 2.6 13.2h-21.7c-.9-1.2-1.7-3.2-2.2-6-.5-2.8-.8-5.6-.8-8.3l.2-24.7c0-1.6-.5-3-1.5-4s-2.3-1.5-3.8-1.5h-4.2v44.5h-22.6V370.3H469zm.8 37.8c1.4-1.6 2-3.8 2-6.4v-3.2c0-6.2-2.6-9.4-7.8-9.4h-2.3v21.5h2.3c2.5 0 4.5-.9 5.8-2.5zM526 412.7h12.5v18.9h-12.4v20.3h23.1v20.8h-46.8V370.3h46.8v21.5H526v20.9zM629.7 472.7h-22.8v-49.4L596 472.7h-9.5l-10.9-49.4v49.4h-18.7V370.3H585l9.4 37.2 7.9-37.2h27.4v102.4zM662.7 412.7h12.5v18.9h-12.4v20.3H686v20.8h-46.8V370.3H686v21.5h-23.3v20.9zM743.4 427.3c3.1 5.1 4.6 11.2 4.6 18.4 0 8.9-2.6 16-7.9 21.1-5.3 5.1-11.9 7.7-19.9 7.7h-2.8c-8.8 0-15.5-2.9-20.1-8.6-4.6-5.7-6.9-12.6-6.9-20.6v-9.7h15.2v8.3c0 3.3.8 5.9 2.5 7.9 1.6 1.9 4.1 2.9 7.2 2.9 2.8 0 5.2-.9 7.1-2.6 1.9-1.8 2.9-3.9 2.9-6.5 0-2.2-.8-4.6-2.5-7.1-1.6-2.5-4.2-5-7.8-7.3-14.8-9.9-22.2-22.7-22.2-38.5 0-4.2 1-8.2 2.9-11.8 1.9-3.6 4.8-6.6 8.7-8.8 3.8-2.2 8.3-3.4 13.5-3.4 8.2 0 14.5 2.3 18.8 6.8 4.3 4.5 6.4 10.7 6.4 18.4V404h-15.9v-8.3c0-2.6-.8-4.5-2.3-5.7-1.5-1.2-3.3-1.9-5.3-1.9-1.9 0-3.5.7-4.9 2-1.4 1.4-2 3.2-2 5.6 0 2.8 1.2 5.6 3.7 8.5 2.5 2.8 5.6 5.4 9.5 7.8 8.6 5.1 14.4 10.3 17.5 15.3zM780.8 472.7l-1.4-11.3h-11.8l-1.2 11.3h-16.8l14.8-102.4h21.4l18 102.4h-23zm-7.6-54h-.2l-4.2 30h8.3l-3.9-30zM800.4 366.9h23.8V389L809 410.9h-1.6l4.9-21.9h-12v-22.1zm27.5 22.1v-22.1h24V389l-15.2 21.9h-1.6l4.8-21.9h-12zM908.3 376.6c5 5.5 7.5 12.3 7.5 20.3 0 4.6-.8 9.1-2.4 13.4-1.6 4.4-3.8 7.9-6.6 10.8-4.2 4.2-7 8.4-8.3 12.5-1.3 4.1-1.9 7.7-1.9 10.8H877c.1-7.5 1.1-13.6 2.8-18.3 1.8-4.6 4.2-9.3 7.4-13.9 1.8-2.7 3.1-4.9 3.9-6.5.8-1.6 1.2-3.4 1.2-5.3 0-5.9-2.7-8.8-8.1-8.8-2.9 0-5 1.4-6.3 4.1-1.2 2.7-1.9 5.5-1.9 8.3v6.9h-19.9c-.4-2.2-.5-4.9-.5-7.9 0-8.8 2.1-16.8 6.3-23.9 4.2-7.1 12-10.7 23.6-10.7 10.2-.1 17.8 2.7 22.8 8.2zm-32.4 74.7h21.9v21.4h-21.9v-21.4z"/><g><path class="st1" d="M355.5 284.5c2.2-2.9 3.4-5 3.4-6.1 0-.6.7-2 2.2-4.3 1.5-2.3 2.2-3.7 2.2-4.4 0-.7 1.2-2.3 3.6-4.8 2.3-2.6 5-5.2 8-7.9 3.1-2.7 5.5-4.5 7.1-5.4 3.3-1.9 5.5-2.7 6.7-2.2 1.2.4 3.5.2 6.9-.7 6-1.6 8.6-.1 7.9 4.5-.1 1-.3 1.7-.7 2.1-.4.4-1.2.8-2.2 1.2-1.1.4-3 .8-5.8 1.4-5.9 1.2-9.5 2.3-10.8 3.2-1.6.9-4.6 4.1-9.1 9.6-4.4 5.5-7.4 9.8-9 12.9-.8 1.7-1.7 3.7-2.6 6-.9 2.4-1.9 4.6-2.8 6.5-.9 1.9-2 3.7-3.4 5.6-2.2 2.9-4.2 6-5.8 9.3-1.2 2.6-4.3 5.8-9.2 9.8-5 4-8.5 5.9-10.5 5.8-2.4 0-5.1-.8-7.9-2.5-2.8-1.7-4.6-3.4-5.4-5.2-.9-2.4-1.8-3.8-2.5-4.2s-3.6 1.8-8.5 6.7c-4.9 5-7.7 7.5-8.6 7.5-2.1-.1-4.6-.8-7.6-2.1s-5-2.7-6-4c-2-2.6-2.6-7.5-1.8-14.6s2.5-12.2 5-15.3c3.1-3.8 7-12.7 11.7-26.6 4.8-14 6.4-21.4 4.9-22.2-.6-.3-2-.1-4.4.6-2.4.7-3.6 1.2-3.6 1.7 0 .3.4 1.1 1.1 2.3 1 1.5.7 3.8-.9 7-1.6 3.1-3.8 6-6.6 8.6-2.8 2.6-5.2 3.9-7.3 3.9-2.1 0-3.5-.9-4.3-2.8-.8-1.9-1.2-5.2-1.2-10.1 0-2.2.1-3.9.2-4.9.2-1 .5-1.9 1-2.7.5-.7 1.3-1.7 2.4-2.9 4.4-4 10.4-7.2 18.2-9.5 3.3-1 5.7-1.4 7.2-1.1 1.5.3 3.1 1.3 5 3.1 1.1 1.3 1.8 2.5 2.1 3.7.3 1.2.5 3.2.3 6 0 3.6-.6 8-1.9 13.3-1.3 5.2-2.5 9.5-3.7 12.9-1.2 3.4-2 5.5-2.5 6.4-.4.9-2.2 4.2-5.3 9.8-2.3 4.5-3.8 7.1-4.6 7.9-1.2 1.6-3.1 7.9-5.6 18.7-.4 1.7.2 3.1 1.9 3.9 1 .5 1.9.6 2.8.2.8-.4 2.3-1.5 4.3-3.3 4.2-3.7 7.8-7.8 10.9-12.1 3.1-4.3 6.5-10 10.2-17 4.7-9.2 7.9-14.8 9.4-17 1.7-2.4 3.4-5.6 5-9.5 1.9-4.9 3.6-8.4 5.1-10.4 1.5-2 3-3 4.5-3 2.1 0 3.5.6 4.3 1.8.7 1.2.6 2.7-.4 4.6-.3.6-1.4 3.2-3.2 8-1.8 4.8-3.3 7.7-4.5 8.6-1.5 1.4-2.2 2.6-2.2 3.7 0 .7-.7 2.3-2.2 4.6-1.5 2.3-2.2 3.9-2.2 4.8 0 1.4-.4 2.3-1.1 2.7-1.2.7-2.8 4.2-4.8 10.4-1.9 6.2-2.9 10.7-2.9 13.7.1 1.3.4 2.6.8 3.8.4 1.2 1 2.2 1.7 3 .7.8 1.4 1.2 2 1.2.5 0 1.3-.4 2.4-1.2 1.1-.8 2.2-1.7 3.4-2.8 1.1-1 2.1-2.1 2.9-3.1.8-1.1 1.2-1.8 1.2-2.3 0-1.4 1.3-3.4 3.8-5.8 1.8-1.6 3.7-4 5.7-7.1 2-3.1 3-5.2 3-6.5-.1-.6 1-2.4 3.2-5.4z"/><path class="st1" d="M444.6 313.4c1.4-1.2 2.6-1.7 3.6-1.4 1 .2 1.5 1.2 1.5 2.9 0 .5-.1 1-.2 1.4-.2.5-.4.9-.7 1.4s-.6.8-1 1.2-.8.7-1.3 1.1c-.5.4-1 .7-1.3.9-.3.2-.7.6-1.3.9s-.9.6-1.1.7c-.1 0-.2 0-.3.1-.1.1-.2.1-.2.2-.2.1-.4.3-.7.5-.3.2-.5.4-.7.4-2.1 1.5-4 2.5-5.7 3.1-1.7.4-3.8.8-6.3 1-6.4.7-11.1-.8-14.2-4.4-3.1-3.6-5.3-10.2-6.6-19.8-.4-3.1-.8-4.6-1.2-4.6-.4 0-2.6 1.7-6.6 5.2-2.3 2.1-4 3.8-5 5-.5.5-.9 1.2-1.3 2s-.7 1.8-1.1 2.9c-.4 1.1-.7 1.9-.8 2.2-.2.4-.6 1.5-1.3 3.1l-1.4 3.5c-.2.6-.4 1.5-.5 2.8-.1 1.3-.3 2.3-.7 3-.4.7-1.2 1.2-2.3 1.4-2.2.3-4-.7-5.6-2.9-1-1.4-1.5-2.4-1.6-3.1-.1-.7.3-2 1-3.8.2-.4.3-.7.5-1.1.1-.3.3-.9.6-1.7.3-.8.5-1.4.6-1.7.1-.3.3-.8.5-1.5s.5-1.3.6-1.6c.2-.4.4-.9.6-1.5.2-.6.5-1.2.7-1.6.2-.4.5-.9.7-1.5s.6-1.1.9-1.7c1.2-2.1 2.1-5.4 2.7-9.8.6-4.4 1-6.9 1.2-7.5 1.1-4.4 3.1-10.7 6.3-19 .6-1.6 1.2-3.9 2-7.1.7-3.1 1.5-6.1 2.2-8.8.7-2.7 1.7-5.5 2.8-8.4 1.1-2.9 2.6-5.3 4.5-7.3s4.1-3.3 6.6-3.9c2.1-.5 3.8-.4 5.2.3 1.3.7 2.3 1.8 2.8 3.2.5 1.4.8 3.1.8 5.1 0 2-.1 3.7-.3 5.3-.2 1.6-.5 3.1-.9 4.5-.7 2.3-1.8 5-3.3 8-1.5 3-2.5 5.1-3.1 6.4-.9 2.4-2.1 4.9-3.6 7.4-.7 1.1-1.9 2.8-3.3 5.3-1.5 2.5-2.7 4.3-3.6 5.4-1.3 1.7-2.7 3.5-4.3 5.1-.2.2-.6.5-1.1 1.1-.6.5-1 1-1.4 1.5-.4.5-.7.9-.8 1.4-.1.2 0 .4.1.7.2.2.3.3.5.3.1 0 .3-.1.5-.2.5-.4 1.2-1 2.1-1.9.9-.9 1.7-1.6 2.5-2.1s1.6-.8 2.5-.9c.5-.1 1-.1 1.5-.2 2.7-.3 4.8-.1 6.5.7 1.7.8 3 2.3 4.2 4.4 1 2.2 1.5 4.7 1.5 7.5 0 2.5.4 5.4 1.2 8.8.7 3.4 1.6 5.9 2.5 7.6.6 1 1.2 1.6 1.9 1.8.7.2 2.1.2 4.2-.1 2.6-.3 4.6-.8 6.3-1.4 3.9-2 7.3-4.2 9.8-6.2zm-36.3-57.1c-.1.2-.3.6-.6 1.1-.2.5-.5.9-.7 1.3l-.6 1.2c-1.4 2.9-2.5 5.9-3.3 9-.3 1.2-.7 2.4-1.1 3.6-.4 1.2-1 2.7-1.6 4.3-.7 1.7-1.1 2.8-1.4 3.5-.4 1-.3 1.7.2 2 .2.2.6.1 1-.4 1-1 1.8-2.1 2.5-3.3.7-1.2 1.4-2.6 2-4.3.7-1.6 1.2-2.9 1.6-3.7 1.8-3.3 3.3-7.4 4.6-12.4.1-.3.4-.9.7-1.7.4-.8.7-1.6.9-2.2.2-.7.4-1.4.5-2.2.1-.8-.1-1.3-.5-1.6-.4-.4-1-.2-1.6.6-.5.5-1.2 1.7-2 3.5.1.4-.2 1.1-.6 1.7z"/><path class="st1" d="M499.3 313.4c1.4-1.2 2.6-1.7 3.6-1.4 1 .2 1.5 1.2 1.5 2.9 0 .6-.1 1.1-.4 1.7-.2.6-.5 1-.8 1.4s-.8.9-1.4 1.4c-.6.5-1.1.9-1.4 1.2-.3.2-.9.6-1.6 1.1-.7.5-1.2.8-1.4.9h-.1c-.4.7-1.2 1.4-2.6 2.2-1.4.8-2.8 1.3-4.1 1.5-1.4.7-2.5 1.3-3.5 1.8-.3 1.2-2.9 3.8-7.7 7.8-1.9 1.6-3.4 2.9-4.7 4-1.2 1.1-2.8 2.6-4.6 4.6-1.8 1.9-3.3 3.8-4.3 5.7s-1.5 3.7-1.6 5.4c0 .7-1.1 1.6-3.2 2.6-1.4.7-2.4 1.1-3 1.1s-1.7-.3-3.2-1c-1.9-.9-3.2-2.3-3.7-4.1-.3-1.8-.3-3.3 0-4.5.3-1.2 1-2.4 2.1-3.7 1.1-1.3 2.2-2.4 3.3-3.2 1.1-.9 2.3-1.9 3.5-3.1 1.2-1.2 2-2.4 2.5-3.4 1-2.1 1.9-3.6 2.6-4.3.9-.8 1.2-1.9 1-3.4-.2-1.5-.8-2.5-1.9-3-1.2-.7-3-.5-5.5.6-4 1.6-7.5 1.4-10.3-.7-2.8-2.1-4.5-5.7-5.1-10.7-.3-2.5 0-5.9 1-10.2s1.4-7.5 1.4-9.5c-.1-2.6.3-5.2 1.2-8 .9-2.8 2.2-4.9 4-6.2 2-1.4 4.1-1.5 6.3-.3s3.4 2.9 3.6 5.3c.1 1.2-.2 3.1-.9 5.5-.6 1.9-1.7 5-3.3 9.3-1.6 4.3-2.7 7.6-3.2 9.9-.6 2.1-.8 3.9-.8 5.2 0 1.4.4 2.1 1.1 2.1 2.3 0 5.7-2.6 10.2-7.8 4.5-5.2 7.1-9.6 7.9-13.3.4-1.9.9-3.2 1.5-3.9.7-.9 1.4-2.9 2.2-5.8 1-3.2 2.8-6.3 5.4-9.1 1.6-1.6 2.8-2.7 3.8-3.3.9-.6 2.1-.8 3.6-.8 2.3 0 3.6.5 4 1.4.3.6.3 1.7 0 3.1-.3 1.5-.6 2.8-1.1 4-.4 1.2-.9 2.6-1.4 4-.5 1.5-.8 2.5-.9 3.2-.2 1.1-.4 1.9-.6 2.3-.1.4-.6 1.2-1.3 2.3-1.2 2-2.3 4.3-3.2 7.1-.9 2.7-1.7 5.8-2.4 9.2-.7 3.4-1.4 6-2 7.7-1 3.2-1.4 5-1.1 5.1.1.2 1.8-.5 5.1-1.9 3.3-1.5 6.6-3 10-4.7 3.5-1.9 5.4-2.9 5.9-3.3z"/></g></svg>