<?xml version="1.0" encoding="utf-8"?>
<!-- Generator: Adobe Illustrator 25.2.3, SVG Export Plug-In . SVG Version: 6.00 Build 0)  -->
<svg version="1.1" id="Layer_1" xmlns="http://www.w3.org/2000/svg" xmlns:xlink="http://www.w3.org/1999/xlink" x="0px" y="0px"
	 viewBox="0 0 971.9 610.7" style="enable-background:new 0 0 971.9 610.7;" xml:space="preserve">
<style type="text/css">
	.st0{fill:#007540;}
	.st1{fill:#FFF4E7;}
</style>
<g>
	<path class="st0" d="M963.5,400.9c-0.5-15.9-1.5-31.7-1.8-47.6c-6.2-24.1-13.1-47.9-21.3-71.3c-0.7-2-1.4-3.9-2.2-5.9
		c-0.6-0.8-1.1-1.5-1.6-2.2c-5.5-7.2-10.2-14.9-15-22.5c-5-8.1-10.5-14.7-17.8-21.1c-10.5-9.3-22.2-17.1-33.9-24.8c-3-2-6-3.9-9-5.9
		c-46.4-22.5-96.7-35.4-147.7-42.4c-27.2-3.7-54.5-6-81.8-8.2c-13.7-1.1-27.3-2.3-41-3.6c-12.5-1.2-24.8-2.4-36.7-6.6
		c-7.4-2.6-14.5-6-21.3-9.9c-5.6-2.6-11-5.4-16.8-7.7c-5.5-2.1-11.1-4.2-16.1-7.2c-8.4-3.4-16.7-7.2-24.8-11.1
		c-24.2-11.5-47.6-24.6-71.6-36.5c-25.8-12.8-53.4-22.5-80.7-31.7c-28-9.5-56.5-17.5-85.6-23.1c-2.9-0.6-5.7-1.1-8.6-1.6
		c-4,0-8.2-0.6-12,1.5c-3.8,2.1-5.6,6.9-5.7,11.6c0.4,1.5,0.9,3,1.2,4.5c3.5,3.6,7.1,7,10.7,10.4c10.3,9.6,20.6,19.1,30.6,29
		c22.2,22.3,43.8,46,59.8,73.3c0.9,1.5,0.9,3.1,0.2,4.5c0.9,1,1.8,2,2.8,3.2c-24.4,7.1-46.6,12.1-67.8,20.1
		c-15.8,5.9-29.7,16.7-45.2,23.4c-13.1,5.7-27.2,10-41.3,12.5c-28.3,5-54.7,12.3-75.4,34.5c-10.6,11.4-23.8,20.5-36.3,29.9
		c-22.4,16.7-29.6,42.3-34.3,66.8c-5.5,28-9.9,58.4-4.6,85.7c3.6,18.2,8.5,36.9,15.1,54.7c2.7,5.9,5,12,8,17.7
		c2.3,4.3,4.7,8.6,7.4,12.6c0.7,0.9,1.4,1.7,2.2,2.5c3.3,3.3,7.1,6.2,10.5,9.4c58.5,37,127.7,52,195.6,62
		c87.4,12.9,174.6-5.6,261.9-10.6c39.7-2.3,79.5-1.3,118.7,5.4c32.7,5.6,64.9,13.9,97.6,20c64.1,12.1,139.5,18.6,188.4-33.6
		c24.7-26.4,36.7-61.7,43-96.7C963.3,443.3,964.2,422.2,963.5,400.9z"/>
</g>
<g>
	<path d="M643.6,241.1c0-2.2-0.1-4.2-0.1-6.1c-0.2-19.2-0.5-38.4-0.8-57.6c0-2,0.9-3.1,2.5-3.1c1.8,0,3,1.1,3,3.1
		c0.2,16.5,0.4,33,0.6,49.6c0.1,8.4,0.3,16.7,0.4,25.1c0,2.9-1.9,4.2-4.5,2.9c-19.2-9.1-38.5-18.1-57.9-27.2c-1.5-0.8-2-1.7-1.6-3
		c0.4-1.5,2-2.4,3.4-2.1c0.4,0.1,0.9,0.3,1.3,0.5c11.5,5.4,22.9,10.8,34.4,16.2c5.3,2.5,10.7,5,16,7.4c0.1,0.1,0.3,0.1,0.6,0
		c-0.3-0.4-0.5-0.6-0.7-0.9c-7.4-8.1-15.7-15.3-24.7-21.4c-14.8-10.1-30.9-17.3-48.2-21.5c-14.1-3.4-28.3-4.8-42.8-4
		c-10.5,0.6-20.8,2.3-30.9,5.4c-9.8,2.9-19.1,6.9-28,11.8c-20.5,11.3-37.2,26.7-50.5,45.9c-5.1,7.4-9.4,15.1-12.8,23.3
		c-0.5,1.1-1.1,2-2.4,2.2c-1.1,0.1-2.1-0.1-2.9-1c-0.7-0.8-0.5-1.8-0.1-2.7c4.7-10.9,10.6-21.1,17.9-30.6
		c14.5-19.1,32.4-34.1,53.8-44.8c18-9,37-14.3,57.2-15.3c8.7-0.4,17.4-0.1,26,1c17.1,2.1,33.1,7.2,48.5,14.9
		c15.9,7.9,30.1,18.2,42.3,31.2C643,240.5,643.2,240.7,643.6,241.1z"/>
	<path d="M673,341.8c-2.3,0.7-4.7,1.4-7.1,2c-6.8,1.6-13.7,3.1-20.6,4.6c-2.3,0.5-4.3-0.8-4.8-3.1c-0.5-2.4,0.6-4.1,3.1-4.6
		c10.6-2.4,21.1-4.7,31.7-7c0.4-0.1,0.9,0,1.3-0.1c0-0.2,0-0.4,0-0.5c-1.4-1-2.8-2-4.2-3c-5.8-4-11.5-8-17.3-11.9
		c-2-1.4-2.6-3-1.9-4.9c0.8-2.4,3.2-3.3,5.2-1.9c2.6,1.7,5.3,3.6,7.9,5.4c4.5,3.1,9,6.3,13.5,9.4c0.2,0.1,0.4,0.3,0.8,0.5
		c-0.1-1.9-0.2-3.6-0.4-5.2c-0.8-8.1-1.4-16.2-2.2-24.3c-0.2-2.4,0.5-3.8,2.3-4.2c2.2-0.6,4.6,0.7,5.3,2.7c0.2,0.6,0.3,1.2,0.4,1.9
		c0.5,5.3,1,10.6,1.4,15.8c0,0.2,0.1,0.3,0.1,0.9c0.8-1.4,1.4-2.6,2-3.8c2.3-4.4,4.5-8.8,6.8-13.2c1.2-2.2,2.7-2.8,4.7-1.9
		c2.3,1.1,3.5,3.3,2.5,5.4c-1.4,3-3,6.1-4.6,9.1c-3.2,6.2-6.5,12.5-9.7,18.7c-0.2,0.5-0.3,1.2-0.4,1.7c0.1,0.2,0.2,0.2,0.3,0.4
		c1.3-0.4,2.5-0.7,3.8-1.1c9.1-2,18.3-4.1,27.4-6.1c1.8-0.4,3.3,0.2,4.2,1.7c0.9,1.4,1,3.2,0,4.5c-0.6,0.7-1.5,1.2-2.3,1.4
		c-5.3,1.2-10.6,2.4-15.8,3.5c-3.5,0.8-6.9,1.6-10.6,2.5c0.9,0.7,1.7,1.3,2.5,1.8c3.4,2.3,6.6,4.6,10,6.9c2.1,1.4,2.7,3.1,2,5
		c-0.9,2.4-3.3,3.2-5.4,1.8c-3-2-5.8-4-8.8-6.1c-2-1.3-3.8-2.7-5.9-4.1c0,0.5,0,0.8,0,1.1c0.8,8.8,1.6,17.7,2.5,26.6
		c0,0.3,0.1,0.5,0.1,0.8c0.2,2.3-0.5,3.6-2.4,4.1c-2.2,0.6-4.5-0.5-5.2-2.5c-0.2-0.6-0.4-1.3-0.4-2c-0.8-8.5-1.5-17.2-2.4-25.7
		c0-0.7-0.2-1.4-0.3-2.5c-0.4,0.6-0.6,1-0.8,1.3c-4.2,8-8.4,16.1-12.5,24.2c-1.1,2.2-2.8,2.8-4.9,1.8c-2.3-1.1-3.3-3.5-2.3-5.5
		c1.7-3.3,3.3-6.5,5.1-9.8c2.1-4.1,4.2-8.2,6.3-12.4C673.1,342.3,673.1,342.1,673,341.8z"/>
</g>
<g>
	<path class="st1" d="M315.7,309.3c0.3,0.5,0.2,1.7-0.2,3.6c-1.6,6.6-5.8,10.4-12.5,11.5c-2.1,0.2-3.4,0.5-3.7,0.8
		c-0.3,0.3-0.6,0.4-0.9,0.4c-0.4,0-1.5-0.1-3.2-0.4c-1.6-0.2-3.4-0.9-5.3-2c-1.9-1.2-3.1-2.3-3.7-3.3c-0.4-0.8-0.5-2.4-0.1-4.6
		c0.4-2.2,1-4.6,2-7.3c1-2.6,2.7-5.6,4.9-8.8c2.3-3.3,4-5.2,5.3-5.9c4.1-2.1,6.7-3.8,7.7-4.9c1-1.2,0.7-2.4-0.8-3.7
		c-1.3-1.1-1.8-2.2-1.5-3.2c0.2-1.1,1.1-1.9,2.7-2.6c0.9-0.3,2.1,0.1,3.7,1.3s2.8,2.6,3.7,4.2c1.2,2.2,1,4.6-0.6,7.2
		c-1.6,2.6-4.4,5.1-8.5,7.5c-1,0.7-2.2,1.7-3.5,3c-1.2,1.3-2.4,2.8-3.5,4.3c-1.1,1.6-1.9,2.9-2.3,4.1c-0.7,1.6-0.9,3.4-0.8,5.4
		c0.1,1.3,0.2,2.1,0.4,2.5c0.2,0.3,0.8,0.6,1.6,0.8c1.5,0.3,2.7,0.2,3.5-0.3c1-0.7,2.2-1.1,3.6-1.5c0.6-0.2,1.2-0.6,1.8-1
		c0.6-0.4,1.2-1.1,1.8-2c0.7-0.8,1.4-2,2.3-3.6c0.8-1.3,1.9-2,3.4-2.1C314.4,308.6,315.4,308.8,315.7,309.3z M307.7,271
		c-1.1-0.6-1.7-1.4-2-2.5c-0.2-1.1,0-1.9,0.8-2.3c0.8-0.4,2-0.4,3.7,0c1.7,0.4,2.7,0.9,3.1,1.5c0.4,0.5,0.5,0.9,0.5,1.3
		s-0.4,0.8-1.1,1.4c-0.9,0.8-1.7,1.3-2.4,1.4C309.7,271.9,308.8,271.6,307.7,271z"/>
	<path class="st1" d="M348,277.9c2.9-6.1,4.3-9.6,4.3-10.6c0-0.5,0.2-1,0.5-1.3c0.3-0.4,0.6-0.8,0.9-1.1c0.3-0.4,0.5-0.8,0.5-1.4
		c-0.4-1.1-1.6-1.3-3.6-0.7c-2,0.6-3.3,1.2-3.9,1.7c-1.9,1.5-3.9,2-6.2,1.4c-2.2-0.6-3.3-1.9-3.3-4c0-0.8,1-1.9,3-3.3
		c2-1.4,3.5-2.1,4.7-2.1c0.7,0,2.3-0.5,4.8-1.6c2.5-1.1,3.8-1.6,4-1.6c1.1-0.3,4.7-0.3,11-0.1c6.2,0.2,10.9,0.6,14.1,1
		c2.9,0.4,6,1.9,9.4,4.6c4.3,3.1,6.4,6.3,6.3,9.7s-2.3,8.2-6.7,14.5c-2.2,3.1-3.9,5.4-5.1,6.9c-1.2,1.5-2.2,2.6-3.1,3.3
		c-0.8,0.6-1.6,1-2.3,1c-1.2,0-2.4,0.5-3.5,1.6c-1.9,2.1-5.4,4.1-10.5,5.9c-5.1,1.8-9.1,2.6-12.1,2.3c-0.9,0-1.7,0-2.3-0.1
		c-0.6-0.1-1.2,0-1.8,0.4c-0.6,0.3-1.1,0.7-1.5,1.1c-0.4,0.3-0.9,1-1.4,1.9c-0.5,1-0.9,2-1.4,3c-0.4,1.1-1,2.5-1.6,4.3
		c-0.8,2.3-1.4,4-1.9,5c-0.4,1-0.9,1.6-1.3,2c-0.4,0.4-1,0.6-1.7,0.6c-1.5,0-2.7-0.8-3.6-2.5c-0.7-1.1-0.9-2.2-0.6-3.2
		s1.2-3.2,2.7-6.5c2.3-4.8,3.2-7.5,3-8.1c-0.4-0.4-2.2-0.5-5.5-0.2c-2.3,0.1-3.9,0.1-4.6-0.1c-0.7-0.2-1.4-0.9-2.1-2.1
		c-0.8-1.2-1.2-2.1-1.2-2.5s0.4-1.3,1.3-2.4c1.1-1.5,3.4-2.9,7.1-4.1c3.6-1.2,6-1.4,6.9-0.6c0.7,0.5,1.5,0.4,2.6-0.1
		c1.1-0.5,1.6-1.2,1.6-2C343.8,286.8,345.2,283.6,348,277.9z M384.5,263.6c-0.4-0.5-1.3-1.2-2.7-2c-1.6-0.8-4.2-1.4-7.7-1.7
		c-5-0.5-8.5-0.2-10.4,0.7s-2.9,2.8-2.9,5.7c0,2.2-0.3,3.4-0.9,3.8s-0.9,1.1-0.9,2.1c0,1.3-3,8.1-9,20.2c-1.3,2.8-0.6,4.2,2.1,4.2
		c1.8,0,4.1-0.6,6.9-1.8c10.2-4.2,18.1-10.5,23.5-19c1.6-2.3,2.7-4,3.1-5.1c0.4-1.1,0.5-2.3,0.2-3.5
		C385.3,265.3,384.9,264.1,384.5,263.6z"/>
	<path class="st1" d="M456.8,308.6c1-0.8,1.8-1.2,2.5-1c0.7,0.2,1.1,0.9,1.1,2.1c0,0.4-0.1,0.8-0.2,1.2c-0.2,0.4-0.4,0.8-0.6,1.1
		c-0.2,0.3-0.6,0.6-1,1c-0.4,0.4-0.8,0.7-1,0.8c-0.2,0.2-0.6,0.4-1.1,0.8s-0.8,0.5-0.9,0.6c-1.1,0.8-2.2,1.4-3.2,1.8
		c0,0-0.2,0.1-0.4,0.2c-0.1,0.2-0.3,0.4-0.6,0.6c-0.2,0.1-0.6,0.3-1.1,0.4c-1,0.6-2.5,1-4.4,1.2c-1.9,0.2-3.7,0.3-5.3,0.2
		c-1.6-0.1-2.7-0.3-3.1-0.6c-0.6-0.4-1.2-1.3-1.9-2.8c-0.7-1.5-1.1-2.7-1.3-3.5c-0.3-1.3-0.4-2.7-0.3-4.2c0.1-1.5,0.3-3.8,0.7-7.2
		v-1c0-0.2-0.1-0.4-0.2-0.5s-0.4-0.2-0.6-0.2c-0.3,0-0.6-0.1-1.1-0.1c-0.7,0-1.6-0.2-2.7-0.5c-1.2-0.3-2-0.5-2.6-0.5l-0.1,0.3
		c-0.1,0.2-0.2,0.4-0.2,0.8l-0.1,0.1c-0.7,1.5-1.5,3-2.3,4.3c-0.8,1.3-1.6,2.4-2.3,3.2c-0.7,0.8-1.4,1.6-2.1,2.2
		c-0.7,0.6-1.3,1.1-1.9,1.5c-0.5,0.4-1,0.6-1.4,0.8s-0.8,0.3-1,0.4l-0.4,0.1c-0.4,0.2-0.8,0.4-1.1,0.4c-1.4,0.1-2.7-0.4-4-1.6
		c-0.3-0.3-0.6-0.8-1-1.4l-0.2-0.4c-0.4-0.7-0.8-1.1-1.1-1.2c-0.4-0.2-0.8-0.1-1.3,0.1c-0.7,0.4-1.4,1.5-2.3,3.3
		c-0.5,0.9-0.8,1.6-1.1,2c-0.8,1.3-1.6,2-2.3,2.2c-0.8,0.4-1.9,1-3.3,1.9c-1.7,1-3.4,1.6-4.9,1.6c-1.8,0.2-3.1,0.4-3.9,0.6
		c-0.3,0-0.5,0.1-0.8,0.1c-0.5,0-0.9-0.1-1.3-0.3c-0.5-0.2-1.3-0.8-2.3-1.8c-1.1-1-1.9-1.9-2.3-2.7c-0.4-0.8-0.8-2.2-1.2-4.2
		c-0.7-3.2-0.8-5.8-0.5-7.8c0.3-2,1.3-4.3,3-6.9c2-3.3,4-5.7,5.8-7.2c1.9-1.5,4.2-2.6,6.9-3.2c1.3-0.2,2.4-0.7,3.4-1.4
		c1.6-1,3.1-1.4,4.2-1.2c1.2,0.2,2.5,1.2,4.1,2.8c0.8,0.9,1.4,1.6,1.8,2.2c0.4,0.5,0.6,1,0.8,1.5c0.1,0.5,0.2,1.2,0.2,2.2
		c0,4,0.1,7.2,0.4,9.4c0.1,0.9,0.3,1.7,0.6,2.4c0.3,0.7,0.7,1.2,1.1,1.6c0.4,0.4,1,0.9,1.8,1.5l0.1-0.1c0.8-0.6,1.4-1,1.8-1.3
		c0.2-0.2,0.5-0.4,0.8-0.6c0.7-0.6,1.4-1.5,2-2.7l0-0.1l0-0.1v-0.1c0.6-1.7,1.5-4.1,2.6-7c0.1-0.3,0.3-0.9,0.7-1.7
		c0.4-0.9,0.6-1.5,0.7-1.8c0.1-0.4,0.3-0.9,0.6-1.7c0.3-0.8,0.5-1.4,0.6-1.8c0.1-0.5,0.3-1,0.4-1.7c0.2-0.7,0.3-1.3,0.4-1.9
		c0.1-0.6,0.1-1.2,0.1-1.8c0-0.8,0.4-2.1,1.3-3.9c0.9-1.8,1.6-3,2.1-3.4c0.7-0.4,1.6-0.6,2.8-0.5c1.2,0.1,2,0.4,2.4,0.9
		c0.5,0.7,0.5,3.3,0,7.9c-0.4,3-0.6,4.9-0.6,5.8c0,0.9,0.3,1.6,0.7,2.1c0.6,0.5,1,0.8,1.4,0.7c0.4,0,1.1-0.4,2.2-1.1
		c1.6-0.9,2.7-1.4,3.5-1.4s1.4,0.6,2,1.6c0.5,0.8,0.7,1.4,0.6,2s-0.4,1.7-1,3.4c-0.8,2.4-1.6,5.2-2.3,8.3c-0.5,2.4-0.7,4.2-0.5,5.4
		c0.2,1.2,0.9,2.6,2.1,4.2c0.5,0.8,0.9,1.2,1.2,1.3c0.1,0,0.4,0,0.7-0.1c0.3-0.1,0.7-0.2,1.1-0.4c0.4-0.2,0.6-0.3,0.7-0.3
		c1.4-0.4,2.3-0.7,2.7-0.9C452.3,311.9,454.9,310.2,456.8,308.6z M402.3,302.9c0.2-1,0.2-1.7,0-2.2c-0.2-0.5-0.8-1.2-1.8-2.1
		c-1.5-1.5-2.2-2.7-2.2-3.6c0-0.6-0.2-1.4-0.6-2.3c-0.4-0.8-0.8-1.4-1.3-1.7c-0.3-0.2-0.5-0.4-0.8-0.4c-0.2,0-0.4,0-0.5,0.1
		c-0.5,0.2-1.4,1.1-2.7,2.5c-1.2,1.2-2.4,2.8-3.5,4.6c-1,1.9-1.8,3.7-2.3,5.4c-0.5,1.6-0.6,2.8-0.3,3.5c0.4,0.6,0.6,1.7,0.6,3.4
		c0.1,1.3,0.3,2.2,0.5,2.7c0.2,0.5,0.6,0.9,1.1,1.1c0.5,0.2,1.3,0.3,2.4,0.3c0.6,0,1,0,1.4,0c0.3,0,0.7-0.1,1-0.2
		c0.3-0.1,0.6-0.2,0.9-0.4c0.3-0.2,0.6-0.4,0.9-0.6c0.3-0.2,0.7-0.5,1.2-0.9c1.7-1.4,2.7-2.4,2.9-3.2c0.2-0.8,0.8-1.8,1.6-2.7
		C401.7,305.6,402.1,304.5,402.3,302.9z M404.1,294.7c0.1-0.3,0.2-1.1,0.2-2.2c0-1.7-0.2-2.7-0.5-2.9c-0.1,0.1-0.2,0.2-0.3,0.3
		c-0.2,0.4-0.2,1.4,0,2.8C403.7,293.7,403.9,294.4,404.1,294.7z"/>
	<path class="st1" d="M534.6,307.4c1-0.9,1.9-1.3,2.7-1.1c0.8,0.2,1.2,0.9,1.2,2.3c0,0.4,0,0.8-0.2,1.2s-0.4,0.8-0.7,1.1
		c-0.2,0.3-0.6,0.7-1,1.1c-0.4,0.4-0.8,0.7-1.1,0.9c-0.3,0.2-0.7,0.5-1.2,0.8c-0.5,0.4-0.9,0.6-1,0.7c-1.1,0.8-2.3,1.4-3.5,1.8
		c-0.1,0.1-0.3,0.2-0.5,0.3c-0.2,0.1-0.5,0.2-0.7,0.4c-0.2,0.1-0.5,0.3-0.8,0.5c-0.4,0.2-0.7,0.4-1,0.5c0,0.1-0.6,0.4-1.7,1
		s-1.9,0.9-2.3,1c-0.8,0.3-1.6,0.6-2.2,0.9c-0.6,0.2-1,0.5-1.3,0.7c-0.2,0.2-0.3,0.5-0.3,0.7c0.8,2.7,0.9,6,0.3,10
		c-0.5,4-1.6,7.7-3.3,11c-1,2.2-2.5,4-4.5,5.5c-2,1.4-4.2,2.3-6.5,2.6c-1.8,0.3-3,0.3-3.7,0.1c-0.7-0.2-1.5-0.7-2.4-1.4
		c-1-0.9-1.6-1.7-1.7-2.4c-0.2-0.7-0.2-2.4-0.2-5c0-3.8,0.3-6.1,0.8-7.1c0.5-1,0.8-1.9,0.8-2.8c0-1.1,0.5-2.7,1.4-4.7
		c1-2.4,1.7-5.4,2.3-8.7c0,0-0.1-0.1-0.4-0.1c-0.2,0-0.5,0-0.9,0c-0.4,0-0.7,0-1.1,0c-0.4,0-0.7,0-1,0c-0.3,0-0.5,0-0.5,0
		c-1.6,0-3-0.2-4.1-0.7c-1.1-0.6-2.4-1.8-3.9-3.7c-0.7-0.8-1.1-1.5-1.2-2.1c-0.1-0.2-0.2-0.4-0.2-0.6c0-0.2,0-0.4,0-0.7
		c0-0.3,0-0.5,0-0.7c0-0.2,0.1-0.4,0.1-0.7c0.1-0.3,0.1-0.5,0.1-0.7c0-0.1,0.1-0.4,0.2-0.7c0.1-0.3,0.2-0.6,0.2-0.7
		c0-0.1,0.1-0.4,0.2-0.7s0.2-0.6,0.2-0.6c0.6-1.8,1.3-3.1,2-4c0.2-0.2,0.4-0.5,0.7-0.8c0.3-0.3,0.5-0.6,0.7-0.8
		c0.2-0.2,0.4-0.5,0.7-0.8c0.2-0.3,0.4-0.7,0.5-1c0.5-1.5,1.7-3.1,3.7-5c2.4-2.3,4-3.5,4.7-3.5c0.7,0,1.6-0.5,2.8-1.5
		c1-0.9,2.4-1.5,4.4-2c1.8-0.3,3-0.5,3.4-0.6c1-0.3,2.1-0.4,3.2-0.2c1.1,0.2,1.9,0.5,2.4,1c0.6,0.8,1.2,1.1,1.9,1.1s1.2,0.5,1.7,1.5
		c0.4,0.6,0.5,1.3,0.4,2c-0.1,0.7-0.6,1.9-1.3,3.4c-0.8,1.6-1.4,2.6-1.5,3c-0.1,0.2-0.3,0.4-0.6,0.8c-0.3,0.3-0.5,0.6-0.7,1
		c-0.2,0.3-0.3,0.6-0.4,0.9c-0.1,0.3-0.1,0.7-0.1,1.3c0,0.6,0,0.9,0,1c-0.1,0.8-0.5,2-1.3,3.8c-0.8,1.8-1,3.3-0.8,4.4
		c0.1,0.6,0,1.2-0.3,1.8c-0.3,0.7-0.5,1.2-0.5,1.5c0,0.7,0.6,0.9,2,0.6c0.6-0.1,1.4-0.3,2.6-0.7c1.8-0.6,2.9-0.8,3.2-0.7
		c1.3-0.4,2.2-0.8,2.6-1C529.7,310.8,532.6,309.1,534.6,307.4z M502.2,310.1c0.6-0.2,1.8-1.5,3.8-3.9c2-2.4,3.4-4.4,4.1-5.8
		c0.8-1.6,1.1-2.8,0.8-3.7c-0.4-0.8-0.8-1.1-1.3-1.1c-0.8,0-2.1,0.6-3.7,1.7c-1.6,1.1-2.9,2.3-3.8,3.6c-2.4,3.2-3.9,6.4-4.3,9.4
		c-0.2,1.5,0.1,2.2,0.8,2.1c0.3-0.1,0.8-0.4,1.3-0.8C501,310.7,501.7,310.2,502.2,310.1z M510.6,338.3c1.1-2.4,1.7-5.5,1.7-9.4
		c0-3-0.2-4.8-0.8-5.4c-0.5-0.5-0.9-0.4-1.3,0.4c-0.3,0.7-1.1,2.7-2.2,6.3c-0.1,0.6-0.4,1.3-0.7,2.2c-0.3,0.9-0.6,1.8-0.8,2.5
		c-0.2,0.7-0.4,1.2-0.4,1.6c-0.8,2.4-1.3,4-1.2,4.6c0,0.6,0.5,0.9,1.4,0.9C508,341.9,509.4,340.7,510.6,338.3z"/>
	<path class="st1" d="M580.7,308.8c1-0.8,1.9-1.2,2.7-1.1c0.8,0.1,1.2,0.9,1.2,2.3c0,0.4-0.1,0.8-0.3,1.3c-0.2,0.4-0.4,0.8-0.6,1.1
		c-0.2,0.3-0.6,0.6-1.1,1c-0.5,0.4-0.8,0.7-1.1,0.9c-0.3,0.2-0.7,0.5-1.2,0.8c-0.5,0.4-0.9,0.6-1,0.7c-3.3,2.3-5,3.5-5.1,3.7
		c-0.3,0.3-1,0.6-2.1,0.9c-1.1,0.3-2,0.5-2.6,0.5c-0.8,0.2-1.5,0.4-2.1,0.4c-0.6,0-1.3-0.1-2.1-0.3c-0.8-0.2-1.3-0.4-1.7-0.5
		c-0.4-0.1-0.6-0.3-0.9-0.4c-1.3-0.6-3-1.9-5.2-4l-2.7-2.6l-3.5,2.6c-2.4,1.6-5.1,2.7-8,3c-2.4,0.2-4.7,0-6.8-0.8
		c-2.2-0.8-3.9-2.1-5.1-3.9c-1.2-1.9-1.6-4.1-1.1-6.7c0.6-2.7,1.9-5.7,4-9s4.4-6,6.8-8.3c1.8-1.7,3.3-2.6,4.4-2.6
		c0.5,0,1.2,0.5,2.1,1.4c0.6,0.7,0.9,1.2,0.9,1.6s-0.4,1.3-1.1,2.6c-5.8,11.3-7.3,17.5-4.5,18.5l0.6,0.1c1.9,0.3,4.6-1.3,8-4.8
		c3.4-3.5,5.7-7,7-10.6c1-2.4,2.2-4.6,3.6-6.5c1.2-1.7,2.1-2.6,2.7-2.9c0.6-0.2,1.6,0.1,3.2,0.9c1.3,0.7,2,1.5,2.1,2.4
		c0.1,0.9-0.4,2.3-1.4,4.3c-0.5,0.8-0.9,1.7-1.3,2.7c-0.3,0.9-0.6,1.8-0.8,2.5c-0.1,0.2-0.2,0.7-0.4,1.3c-0.1,0.6-0.3,1.2-0.4,1.6
		c-0.3,1.2-0.5,2.1-0.8,2.9c-0.5,2-0.7,3.8-0.7,5.6c0,1.8,0.3,2.9,0.8,3.5c0.5,0.5,1.5,0.8,3,0.8c0.2-0.1,0.9-0.3,1.9-0.7
		c1-0.4,1.7-0.6,2.1-0.8C575.7,312.2,578.5,310.5,580.7,308.8z"/>
	<path class="st1" d="M616,306.2c1-0.8,1.9-1.2,2.7-1c0.8,0.2,1.2,0.9,1.2,2.2c0,0.3-0.1,0.7-0.2,1c-0.1,0.4-0.3,0.7-0.6,1
		c-0.3,0.3-0.5,0.6-0.7,0.9c-0.2,0.3-0.6,0.5-1,0.8c-0.4,0.3-0.7,0.5-1,0.7c-0.3,0.2-0.6,0.4-1,0.7c-0.4,0.3-0.7,0.5-0.9,0.6
		c-1.1,0.8-2.2,1.4-3.5,1.9c0,0-0.2,0.1-0.3,0.2c-0.2,0.1-0.3,0.1-0.5,0.2s-0.4,0.1-0.6,0.2c-0.2,0.1-0.3,0.1-0.5,0.2l-0.2,0.1
		c-2.9,1.2-5.9,1.9-9.2,2c-3.4,0.2-5.9-0.1-7.5-0.9c-0.1-0.1-0.9-0.4-2.2-1c-1.3-0.6-2.3-1.1-2.9-1.5c-1-0.7-2.1-2.2-3.1-4.6
		c-1.8-4.2-2.7-8-2.7-11.2c0-2,0.4-4.6,1.1-7.7c0-0.1,0.1-0.6,0.3-1.4c0.2-0.8,0.4-1.4,0.4-1.7c0.1-0.3,0.2-0.8,0.4-1.4
		c0.2-0.7,0.4-1.2,0.6-1.7c0.2-0.4,0.4-0.9,0.7-1.2c0.9-1.4,1.7-2.3,2.3-3c2.6-2.7,5.8-3.8,9.6-3.5c4,0.3,6.2,1.7,6.6,4
		c0.3,1.8,0.2,3.7-0.4,5.6c-0.5,1.9-1.1,3.5-1.8,4.8s-1.7,2.9-3,5c-1.3,2-2.2,3.6-2.8,4.6c-2.1,3.9-3.2,6.2-3.2,7
		c0,0.6,0.6,1.5,1.8,2.6c0.8,0.7,1.5,1.1,2.1,1.3c0.6,0.1,1.7,0.1,3.2-0.2c2.4-0.4,5-1,7.9-1.8c0.7-0.2,1.7-0.6,2.9-1.1
		s2.4-1,3.5-1.5C615,306.9,615.7,306.5,616,306.2z M588,273.1h-0.1h0H588z M592.2,295.7c1.9-3.7,2.9-5.9,2.9-6.6
		c0-0.9-0.5-1.5-1.5-1.7c-1-0.3-1.8,0-2.3,0.7c-0.5,0.6-0.9,1.4-1.4,2.5c-0.4,1.1-0.8,2.3-1.1,3.5c-0.3,1.2-0.5,2.3-0.7,3.4
		c-0.2,1.1-0.2,2-0.1,2.7s0.3,1.1,0.7,1.1C589.1,301.2,590.2,299.4,592.2,295.7z M596.5,266.7c-0.1,0.2-0.3,0.4-0.5,0.7
		c-0.2,0.3-0.6,0.8-1.3,1.6c-0.6,0.8-1.3,1.4-1.9,2c-0.7,0.6-1.4,1.1-2.3,1.5c-0.9,0.5-1.7,0.7-2.4,0.6c0.1-0.2,0.1-0.9,0.1-1.9
		l5.1-9.1v-1.4c0.4-1.9,2.4-1.9,6-0.2c0,0,0.1,0.1,0.1,0.1c0,0,0.1,0.1,0.3,0.2c0.1,0.1,0.3,0.2,0.4,0.4c0.1,0.1,0.2,0.3,0.2,0.5
		c0,0.2,0,0.4-0.1,0.7c-0.1,0.2-0.2,0.5-0.5,0.8s-0.5,0.6-0.9,0.9L596.5,266.7z"/>
</g>
<g>
	<path class="st1" d="M97,381.2v22.1H73v-22.1l15.2-21.9h1.6L85,381.2H97z M124.6,403.3h-23.8v-22.1l15.2-21.9h1.6l-4.9,21.9h12
		V403.3z"/>
	<path class="st1" d="M179.7,472.7h-46.1l0.2-102.4h22.8v80.9h23.1V472.7z"/>
	<path class="st1" d="M212.9,472.7l-1.4-11.3h-11.8l-1.2,11.3h-16.8l14.8-102.4h21.4l18,102.4H212.9z M205.3,418.7h-0.2l-4.2,30h8.3
		L205.3,418.7z"/>
	<path class="st1" d="M303.9,427.3c3.1,5.1,4.6,11.2,4.6,18.4c0,8.9-2.6,16-7.9,21.1c-5.3,5.1-11.9,7.7-19.9,7.7h-2.8
		c-8.8,0-15.5-2.9-20.1-8.6c-4.6-5.7-6.9-12.6-6.9-20.6v-9.7H266v8.3c0,3.3,0.8,5.9,2.5,7.9c1.6,1.9,4.1,2.9,7.2,2.9
		c2.8,0,5.2-0.9,7.1-2.6c1.9-1.8,2.9-3.9,2.9-6.5c0-2.2-0.8-4.6-2.5-7.1c-1.6-2.5-4.2-5-7.8-7.3c-14.8-9.9-22.2-22.7-22.2-38.5
		c0-4.2,1-8.2,2.9-11.8c1.9-3.6,4.8-6.6,8.7-8.8c3.8-2.2,8.3-3.4,13.5-3.4c8.2,0,14.5,2.3,18.8,6.8c4.3,4.5,6.4,10.7,6.4,18.4v10.1
		h-15.9v-8.3c0-2.6-0.8-4.5-2.3-5.7c-1.5-1.2-3.3-1.9-5.3-1.9c-1.9,0-3.5,0.7-4.9,2c-1.4,1.4-2,3.2-2,5.6c0,2.8,1.2,5.6,3.7,8.5
		c2.5,2.8,5.6,5.4,9.5,7.8C295.1,417.1,300.9,422.3,303.9,427.3z"/>
	<path class="st1" d="M320.5,377.9c4.9-6.2,12-9.4,21.3-9.4c9.2,0,16.1,3.1,20.7,9.3c4.6,6.2,6.9,14.4,6.9,24.6v38.1
		c0,10.2-2.3,18.4-6.9,24.6c-4.6,6.2-11.5,9.3-20.7,9.3c-9.3,0-16.4-3.1-21.3-9.4c-4.9-6.2-7.3-14.4-7.3-24.5v-38.1
		C313.1,392.3,315.6,384.1,320.5,377.9z M341.2,453.4c3.8,0,5.6-2.9,5.6-8.8v-46.3c0-5.9-1.9-8.8-5.6-8.8c-3.6,0-5.5,2.9-5.5,8.8
		v46.3C335.7,450.5,337.5,453.4,341.2,453.4z"/>
	<path class="st1" d="M425.1,465.4c-4.4,4.9-10.3,7.3-17.8,7.3h-29.7V370.3H407c7.5,0,13.5,2.4,17.9,7.3c4.4,4.9,6.6,10.9,6.6,18.1
		c0,7.1-0.8,12-2.3,14.9c-1.5,2.9-4.2,5.1-7.9,6.6v0.4c7.1,3.1,10.6,8.2,10.6,15.4l-0.2,14.3C431.6,454.4,429.4,460.5,425.1,465.4z
		 M407.8,408.1c1.4-1.6,2-3.8,2-6.4v-3.2c0-6.2-2.6-9.4-7.8-9.4h-2.3v21.5h2.3C404.6,410.6,406.5,409.7,407.8,408.1z M408.4,430.5
		c-1-1.5-2.3-2.3-3.8-2.3h-4.8v25.6h4.8c1.6,0,2.9-0.7,3.9-2.1c0.9-1.4,1.4-3.2,1.4-5.5v-10.8C409.9,433.7,409.4,432,408.4,430.5z"
		/>
	<path class="st1" d="M469,370.3c7.5,0,13.5,2.4,17.9,7.3c4.4,4.9,6.6,10.9,6.6,18.1c0,7.1-0.8,12-2.3,14.9
		c-1.5,2.9-4.2,5.1-7.9,6.6v0.4c3.5,1.5,6.2,3.6,8,6.2c1.8,2.6,2.7,5.6,2.6,9.2c-0.4,14.5-0.5,23.3-0.4,26.5c0.1,3.8,1,8.2,2.6,13.2
		h-21.7c-0.9-1.2-1.7-3.2-2.2-6c-0.5-2.8-0.8-5.6-0.8-8.3l0.2-24.7c0-1.6-0.5-3-1.5-4c-1-1-2.3-1.5-3.8-1.5h-4.2v44.5h-22.6V370.3
		H469z M469.8,408.1c1.4-1.6,2-3.8,2-6.4v-3.2c0-6.2-2.6-9.4-7.8-9.4h-2.3v21.5h2.3C466.5,410.6,468.5,409.7,469.8,408.1z"/>
	<path class="st1" d="M526,412.7h12.5v18.9h-12.4v20.3h23.1v20.8h-46.8V370.3h46.8v21.5H526V412.7z"/>
	<path class="st1" d="M629.7,472.7h-22.8v-49.4l-10.9,49.4h-9.5l-10.9-49.4v49.4h-18.7V370.3H585l9.4,37.2l7.9-37.2h27.4V472.7z"/>
	<path class="st1" d="M662.7,412.7h12.5v18.9h-12.4v20.3H686v20.8h-46.8V370.3H686v21.5h-23.3V412.7z"/>
	<path class="st1" d="M743.4,427.3c3.1,5.1,4.6,11.2,4.6,18.4c0,8.9-2.6,16-7.9,21.1c-5.3,5.1-11.9,7.7-19.9,7.7h-2.8
		c-8.8,0-15.5-2.9-20.1-8.6c-4.6-5.7-6.9-12.6-6.9-20.6v-9.7h15.2v8.3c0,3.3,0.8,5.9,2.5,7.9c1.6,1.9,4.1,2.9,7.2,2.9
		c2.8,0,5.2-0.9,7.1-2.6c1.9-1.8,2.9-3.9,2.9-6.5c0-2.2-0.8-4.6-2.5-7.1c-1.6-2.5-4.2-5-7.8-7.3c-14.8-9.9-22.2-22.7-22.2-38.5
		c0-4.2,1-8.2,2.9-11.8c1.9-3.6,4.8-6.6,8.7-8.8c3.8-2.2,8.3-3.4,13.5-3.4c8.2,0,14.5,2.3,18.8,6.8c4.3,4.5,6.4,10.7,6.4,18.4v10.1
		h-15.9v-8.3c0-2.6-0.8-4.5-2.3-5.7c-1.5-1.2-3.3-1.9-5.3-1.9c-1.9,0-3.5,0.7-4.9,2c-1.4,1.4-2,3.2-2,5.6c0,2.8,1.2,5.6,3.7,8.5
		c2.5,2.8,5.6,5.4,9.5,7.8C734.5,417.1,740.3,422.3,743.4,427.3z"/>
	<path class="st1" d="M780.8,472.7l-1.4-11.3h-11.8l-1.2,11.3h-16.8l14.8-102.4h21.4l18,102.4H780.8z M773.2,418.7H773l-4.2,30h8.3
		L773.2,418.7z"/>
	<path class="st1" d="M800.4,366.9h23.8V389L809,410.9h-1.6l4.9-21.9h-12V366.9z M827.9,389v-22.1h24V389l-15.2,21.9h-1.6l4.8-21.9
		H827.9z"/>
	<path class="st1" d="M908.3,376.6c5,5.5,7.5,12.3,7.5,20.3c0,4.6-0.8,9.1-2.4,13.4c-1.6,4.4-3.8,7.9-6.6,10.8
		c-4.2,4.2-7,8.4-8.3,12.5c-1.3,4.1-1.9,7.7-1.9,10.8H877c0.1-7.5,1.1-13.6,2.8-18.3c1.8-4.6,4.2-9.3,7.4-13.9
		c1.8-2.7,3.1-4.9,3.9-6.5c0.8-1.6,1.2-3.4,1.2-5.3c0-5.9-2.7-8.8-8.1-8.8c-2.9,0-5,1.4-6.3,4.1c-1.2,2.7-1.9,5.5-1.9,8.3v6.9h-19.9
		c-0.4-2.2-0.5-4.9-0.5-7.9c0-8.8,2.1-16.8,6.3-23.9c4.2-7.1,12-10.7,23.6-10.7C895.7,368.3,903.3,371.1,908.3,376.6z M875.9,451.3
		h21.9v21.4h-21.9V451.3z"/>
</g>
</svg>
