<?xml version="1.0" encoding="UTF-8"?>
<svg id="svg2" xmlns="http://www.w3.org/2000/svg" viewBox="0 0 655.5 457.7">
  <path id="path14" d="M246.1,268.5c0,.4-.1.7-.4.7-2.2.2-3.7.6-4.5,1.2-.8.6-1.2,1.6-1.3,3.2l-.6,30.7c0,.3-.2.5-.6.5s-.5-.1-.8-.4l-26.9-30.3-.4,24.1c0,.1,0,.3,0,.4,0,1.3.4,2.3,1.2,2.8.8.5,2.3,1,4.5,1.2.3,0,.4.3.4.7s-.1.7-.4.7c-.9,0-2.1,0-3.7-.2-1.5-.1-2.6-.2-3.4-.2s-2,0-3.5.2c-1.4.1-2.5.2-3.3.2s-.4-.2-.4-.7.2-.7.5-.7c2.2-.3,3.6-.7,4.4-1.2.8-.5,1.2-1.6,1.3-3.2l.9-24.5v-.2c0-1.4-.4-2.4-1.2-2.9-.8-.6-2.3-1-4.6-1.3-.2,0-.4-.2-.4-.7s.1-.7.4-.7c.6,0,1.5,0,2.6.2,1,.1,1.7.2,2.2.2s1.3,0,2.2-.2c.9-.1,1.6-.2,2.2-.2l25.1,28.1v-22.2c0-1.5-.4-2.5-1.3-3.1-.8-.6-2.4-1-4.7-1.3-.3,0-.4-.3-.4-.7s.1-.7.4-.7c.9,0,2.2,0,3.8.2,1.5.1,2.6.2,3.4.2s2,0,3.5-.2c1.4-.1,2.5-.2,3.3-.2s.4.2.4.7" style="fill: #000; stroke-width: 0px;"/>
  <path id="path16" d="M268.6,287.8l-4.6-13.3-4.9,13.3h9.5ZM284.4,303.3c0,.5-.1.7-.4.7-1.2,0-2.6,0-4.1-.2-1.3-.1-2.4-.2-3.3-.2s-2.4,0-3.9.2c-1.7.1-3.1.2-4.2.2s-.4-.2-.4-.7.1-.7.3-.7c1.5,0,2.7-.3,3.3-.6.7-.3,1-.9,1-1.6s-.2-1.2-.5-2.2l-3-8.7h-10.7l-3,8.1c-.4,1.1-.6,1.9-.6,2.5,0,1.5,1.4,2.4,4.2,2.5.2,0,.3.2.3.7s-.1.7-.4.7c-1,0-2.2,0-3.5-.2-1.2-.1-2.3-.2-3.2-.2s-1.7,0-2.8.2c-1.2.1-2.2.2-3,.2s-.4-.2-.4-.7.2-.7.6-.8c1.4-.1,2.6-.5,3.4-1.2.8-.7,1.7-2,2.6-4l12.2-29.9c.1-.3.3-.4.7-.4s.7.1.8.4l10.8,30c.6,1.7,1.4,2.9,2.5,3.7s2.4,1.3,4.2,1.5c.3,0,.5.3.5.7" style="fill: #000; stroke-width: 0px;"/>
  <path id="path18" d="M317.5,276.4c0,.3-.3.5-.9.5s-.5-.1-.5-.4c-.7-2.4-1.8-4.2-3.2-5.2-1.4-1-3.4-1.5-6.2-1.5h-2.4c-.9,0-1.4.1-1.7.4-.3.3-.5.8-.5,1.6v26.4c0,1.2.2,2,.5,2.5.3.5.8.9,1.6,1.2.8.3,1.9.5,3.3.7.3,0,.4.3.4.7s-.1.7-.4.7c-1.2,0-2.6,0-4.2-.2-1.5-.1-2.8-.2-3.8-.2s-2.4,0-3.9.2c-1.6.1-3,.2-4.2.2s-.4-.2-.4-.7.1-.7.4-.7c2.1-.2,3.5-.6,4.3-1.2.8-.5,1.1-1.6,1.1-3.2v-26.4c0-.8-.2-1.3-.5-1.6-.3-.3-.9-.4-1.8-.4h-2c-2.4,0-4.7.6-6.7,1.9-2,1.2-3.3,2.9-3.9,4.8,0,.3-.3.4-.6.4-.6,0-.9-.2-.9-.6,1-2.6,1.9-5.6,2.8-8.9,2.4.5,7.8.7,16.2.7s14.2-.2,16.6-.7c.2,2.3.8,5.3,1.6,9" style="fill: #000; stroke-width: 0px;"/>
  <path id="path20" d="M337.5,303.3c0,.5-.1.7-.4.7-1.2,0-2.5,0-4.1-.2-1.5-.1-2.8-.2-3.9-.2s-2.4,0-3.9.2c-1.6.1-3,.2-4.2.2s-.4-.2-.4-.7.1-.7.4-.7c2.1-.2,3.5-.6,4.3-1.2.8-.5,1.1-1.6,1.1-3.2v-24.5c0-1.2-.2-2.1-.5-2.6-.3-.5-.8-.9-1.6-1.2-.8-.3-1.9-.5-3.4-.7-.3,0-.4-.2-.4-.7s.1-.7.4-.7c1.2,0,2.6,0,4.2.2,1.5.1,2.8.2,3.9.2s2.4,0,3.9-.2c1.6-.1,3-.2,4.1-.2s.4.2.4.7-.1.7-.4.7c-1.5.2-2.6.4-3.3.7-.8.3-1.3.7-1.6,1.2-.3.5-.4,1.3-.4,2.6v24.5c0,1.2.1,2,.4,2.5.3.5.8.9,1.6,1.2.8.3,1.9.5,3.3.7.3,0,.4.3.4.7" style="fill: #000; stroke-width: 0px;"/>
  <path id="path22" d="M375,286.1c0-5.1-1.2-9.3-3.7-12.6-2.5-3.2-5.7-4.9-9.8-4.9s-7.3,1.6-9.8,4.9c-2.5,3.2-3.7,7.4-3.7,12.6s1.2,9.2,3.7,12.4c2.4,3.2,5.7,4.7,9.8,4.7s7.3-1.6,9.8-4.7c2.5-3.2,3.7-7.3,3.7-12.4ZM380.7,286.1c0,5.5-1.8,10-5.3,13.5-3.5,3.5-8.2,5.2-13.9,5.2s-10.3-1.7-13.9-5.2c-3.5-3.5-5.3-8-5.3-13.5s1.8-10.1,5.3-13.7c3.6-3.6,8.2-5.4,13.8-5.4s10.3,1.8,13.9,5.4c3.6,3.6,5.3,8.2,5.3,13.7" style="fill: #000; stroke-width: 0px;"/>
  <path id="path24" d="M427.1,268.5c0,.4-.1.7-.4.7-2.2.2-3.7.6-4.5,1.2s-1.2,1.6-1.3,3.2l-.6,30.7c0,.3-.2.5-.6.5s-.5-.1-.8-.4l-26.9-30.3-.4,24.1c0,.1,0,.3,0,.4,0,1.3.4,2.3,1.3,2.8.8.5,2.3,1,4.5,1.2.3,0,.4.3.4.7s-.1.7-.4.7c-.9,0-2.1,0-3.7-.2-1.5-.1-2.6-.2-3.4-.2s-2,0-3.5.2c-1.4.1-2.5.2-3.3.2s-.4-.2-.4-.7.2-.7.5-.7c2.2-.3,3.6-.7,4.4-1.2.8-.5,1.2-1.6,1.3-3.2l.9-24.5v-.2c0-1.4-.4-2.4-1.2-2.9-.8-.6-2.3-1-4.6-1.3-.2,0-.4-.2-.4-.7s.1-.7.4-.7c.6,0,1.5,0,2.6.2,1,.1,1.7.2,2.2.2s1.3,0,2.2-.2c.9-.1,1.6-.2,2.2-.2l25.1,28.1v-22.2c0-1.5-.4-2.5-1.3-3.1-.8-.6-2.4-1-4.7-1.3-.3,0-.4-.3-.4-.7s.1-.7.4-.7c.9,0,2.2,0,3.8.2,1.5.1,2.6.2,3.4.2s2,0,3.5-.2c1.4-.1,2.5-.2,3.3-.2s.4.2.4.7" style="fill: #000; stroke-width: 0px;"/>
  <path id="path26" d="M449.6,287.8l-4.6-13.3-4.9,13.3h9.5ZM465.4,303.3c0,.5-.1.7-.4.7-1.2,0-2.6,0-4.1-.2-1.3-.1-2.4-.2-3.3-.2s-2.4,0-3.9.2c-1.6.1-3.1.2-4.2.2s-.4-.2-.4-.7.1-.7.3-.7c1.5,0,2.7-.3,3.3-.6.7-.3,1-.9,1-1.6s-.2-1.2-.5-2.2l-3-8.7h-10.7l-3,8.1c-.4,1.1-.6,1.9-.6,2.5,0,1.5,1.4,2.4,4.2,2.5.2,0,.3.2.3.7s-.1.7-.4.7c-1,0-2.2,0-3.5-.2-1.2-.1-2.3-.2-3.2-.2s-1.7,0-2.8.2c-1.2.1-2.2.2-3,.2s-.4-.2-.4-.7.2-.7.6-.8c1.4-.1,2.6-.5,3.4-1.2.8-.7,1.7-2,2.6-4l12.2-29.9c.1-.3.3-.4.7-.4s.7.1.8.4l10.8,30c.6,1.7,1.4,2.9,2.5,3.7,1,.8,2.4,1.3,4.2,1.5.3,0,.5.3.5.7" style="fill: #000; stroke-width: 0px;"/>
  <path id="path28" d="M497.5,294.4c-.8,3.1-1.5,6.3-1.9,9.6-6.7-.2-11.4-.3-14.2-.3s-7.5.1-14,.3c-.3,0-.4-.2-.4-.7s.1-.7.4-.7c2.1-.2,3.5-.6,4.3-1.2.8-.5,1.1-1.6,1.1-3.2v-24.5c0-1.2-.2-2.1-.5-2.6-.3-.5-.8-.9-1.6-1.2-.8-.3-1.9-.5-3.4-.7-.3,0-.4-.2-.4-.7s.1-.7.4-.7c1.2,0,2.6,0,4.2.2,1.5.1,2.8.2,3.9.2s2.4,0,3.9-.2c1.6-.1,3-.2,4.1-.2s.4.2.4.7-.1.7-.4.7c-1.5.2-2.6.4-3.3.7-.8.3-1.3.7-1.6,1.2-.3.5-.4,1.3-.4,2.6v25.3c0,2.1,1,3.1,3,3.1h5.2c2.1,0,3.9-.6,5.4-1.7,1.5-1.1,2.9-3.3,4.4-6.4,0-.1.2-.2.5-.2s.4,0,.6.2c.2.1.3.3.3.5" style="fill: #000; stroke-width: 0px;"/>
  <path id="path30" d="M196.4,342c0-4.7-1.4-8.7-4.1-11.8-2.7-3.1-6.1-4.7-10.1-4.7h-5.1c-2,.2-3.1,1.2-3.1,3.1v26.4c0,2,1,3,3.1,3l4.9.2c4,0,7.5-1.5,10.2-4.6,2.8-3.1,4.1-6.9,4.1-11.5h0ZM202.1,342c0,5.3-1.8,9.7-5.4,12.9-3.6,3.3-8.4,4.9-14.5,4.9s-2.3,0-4.6-.1c-2.4,0-4-.1-4.8-.1-3.2,0-6.4,0-9.4.2-.3,0-.4-.2-.4-.7s.1-.7.4-.7c1.4-.2,2.5-.4,3.3-.7.8-.3,1.3-.7,1.6-1.2.3-.5.5-1.3.5-2.6v-24.4c0-1.2-.1-2-.4-2.5-.3-.5-.8-.9-1.6-1.2-.8-.3-1.9-.5-3.4-.7-.3,0-.4-.2-.4-.7s.1-.7.4-.7c2,.1,5.2.2,9.4.2s2.4,0,4.8,0c2.3,0,3.9,0,4.6,0,5.9,0,10.7,1.7,14.4,5.1,3.7,3.4,5.5,7.8,5.5,13.1" style="fill: #000; stroke-width: 0px;"/>
  <path id="path32" d="M237.1,351.2c-1.4,3-2.6,5.9-3.4,8.6-6.5-.2-11.2-.3-14-.3s-7.4.1-14,.3c-.3,0-.4-.2-.4-.7s.1-.7.4-.7c1.4-.2,2.5-.4,3.3-.7.8-.3,1.3-.7,1.6-1.2.3-.5.5-1.3.5-2.6v-24.5c0-1.2-.1-2-.4-2.5-.3-.5-.8-.9-1.6-1.2-.8-.3-1.9-.5-3.4-.7-.3,0-.4-.2-.4-.7s.1-.7.4-.7c4.4.2,8.9.3,13.4.3s9.1-.1,13.5-.3c.4,2.7,1,5.3,1.7,8,0,.3-.3.5-.9.5s-.5-.1-.5-.4c-1.3-4.1-4-6.1-8.2-6.1h-5.3c-2,0-3,1-3,3.1v11.6h6.6c1.7,0,2.9-.4,3.5-1.2.6-.8,1.1-2.2,1.3-4.2,0-.3.2-.4.7-.4s.7.1.7.4c0,.9,0,2-.2,3.3-.1,1.3-.2,2.3-.2,3.1s0,1.9.2,3.1c.1,1.4.2,2.5.2,3.3s-.2.4-.7.4-.7-.1-.7-.4c-.3-2.1-.7-3.6-1.4-4.5-.7-.9-1.8-1.3-3.5-1.3h-6.6v12.8c0,2,1,3.1,3,3.1h5.7c2.1,0,4.1-.7,6.1-2,2-1.3,3.5-3,4.5-5,0-.2.2-.2.4-.2s.5,0,.7.2c.2.1.3.3.3.5" style="fill: #000; stroke-width: 0px;"/>
  <path id="path34" d="M287.3,359.1c0,.5-.1.7-.4.7-1.2,0-2.6,0-4.2-.2-1.6-.1-2.9-.2-4-.2s-2.3,0-3.9.2c-1.6.1-3,.2-4.1.2s-.5-.2-.5-.7.1-.7.4-.7c2-.2,3.4-.6,4.2-1.1.7-.5,1.1-1.5,1.1-2.9v-.4l-1.1-25.2-12.6,31.5c-.1.3-.3.4-.7.4s-.6-.1-.7-.4l-11.8-30.2-1.9,24c0,.3,0,.6,0,.8,0,1.2.4,2,1.2,2.5.8.5,2.2.9,4.3,1.1.2,0,.4.3.4.7s-.2.7-.5.7c-.9,0-2.1,0-3.7-.2-1.5-.1-2.6-.2-3.4-.2s-2,0-3.5.2c-1.4.1-2.6.2-3.3.2s-.4-.2-.4-.7.2-.7.5-.7c2.2-.3,3.7-.7,4.5-1.2.8-.6,1.3-1.6,1.4-3.2l2.7-24.5c0-.3,0-.6,0-.8,0-1.1-.4-1.9-1.2-2.5-.8-.5-2.2-.9-4.4-1.1-.2,0-.4-.2-.4-.7s0-.3.2-.5c.1-.2.2-.2.3-.2.6,0,1.6,0,2.7.2,1,.1,1.7.2,2.2.2s1.5,0,2.6-.2c1.2-.1,2.1-.2,2.7-.2l11.2,28.9,11.5-28.9c.7,0,1.6,0,2.7.2,1,.1,1.8.2,2.4.2s1.6,0,2.6-.2c1.1-.1,2-.2,2.7-.2s.5.2.5.7-.1.7-.4.7c-2,.2-3.4.6-4.2,1.1-.7.5-1.1,1.5-1.1,2.9v.4l1.2,24.5c0,1.2.2,2.1.6,2.6.3.5.9.9,1.7,1.2.8.3,1.9.5,3.4.7.3,0,.4.3.4.7" style="fill: #000; stroke-width: 0px;"/>
  <path id="path36" d="M322.3,341.9c0-5.1-1.2-9.3-3.7-12.6-2.5-3.2-5.7-4.9-9.8-4.9s-7.3,1.6-9.8,4.9c-2.5,3.2-3.7,7.4-3.7,12.6s1.2,9.2,3.7,12.4c2.4,3.2,5.7,4.7,9.8,4.7s7.3-1.6,9.8-4.7c2.5-3.2,3.7-7.3,3.7-12.4h0ZM328,341.9c0,5.5-1.8,10-5.3,13.5s-8.2,5.2-13.9,5.2-10.3-1.7-13.9-5.2c-3.5-3.5-5.3-8-5.3-13.5s1.8-10.1,5.3-13.7c3.6-3.6,8.2-5.4,13.8-5.4s10.3,1.8,13.9,5.4c3.6,3.6,5.3,8.2,5.3,13.7" style="fill: #000; stroke-width: 0px;"/>
  <path id="path38" d="M366.9,350.2c-.6,2.8-1.2,5.7-1.8,8.9-1,0-2.8.2-5.4.7-3.3.6-5.8.9-7.4.9-4,0-7.4-.8-10.4-2.3-3-1.6-5.3-3.8-7-6.7-1.7-2.9-2.5-6.1-2.5-9.7s.9-6.7,2.6-9.7c1.8-3,4.2-5.3,7.3-6.9,3.1-1.7,6.6-2.5,10.4-2.5s3.8.2,6.6.5c2.1.3,3.7.4,4.7.4.2,2.4.6,5.4,1.2,8.9,0,.3-.3.4-.8.4s-.6-.1-.6-.4c-.6-2.4-2-4.3-4-5.8-2.1-1.5-4.4-2.3-7.1-2.3-4.1,0-7.5,1.7-10.3,5.1-2.8,3.4-4.2,7.5-4.2,12.4s1.4,8.8,4.1,12.1c2.7,3.3,6.1,5,10.1,5,6.2,0,10.6-2.9,13.2-8.8.1-.3.4-.4.7-.4s.7.1.7.4" style="fill: #000; stroke-width: 0px;"/>
  <path id="path40" d="M392.8,333c0-5.1-2.2-7.6-6.6-7.6s-2.6.1-3.3.4c-.8.2-1.3.6-1.5,1.1-.3.5-.4,1.4-.4,2.7v11.6c1,.1,2.3.2,3.8.2,2.8,0,4.8-.7,6.1-2,1.3-1.3,1.9-3.4,1.9-6.4h0ZM406.1,359.1c0,.5-.1.7-.4.7-.6,0-1.7,0-3.2-.2-1.1,0-1.8-.1-2.1-.1-.5,0-1.3,0-2.4.2-1.1.1-1.9.2-2.4.2l-7.9-12.9c-1.1-1.8-2-2.9-2.7-3.4-.7-.5-2.1-.8-4.1-.8v11.2c0,1.2.2,2,.5,2.5.3.5.8.9,1.6,1.2.8.3,1.9.5,3.3.7.3,0,.4.3.4.7s-.1.7-.4.7c-1.2,0-2.6,0-4.2-.2-1.5-.1-2.8-.2-3.9-.2s-2.4,0-3.9.2c-1.6.1-3,.2-4.1.2s-.4-.2-.4-.7.1-.7.4-.7c1.4-.2,2.5-.4,3.3-.7.8-.3,1.3-.7,1.6-1.2.3-.5.5-1.3.5-2.6v-24.5c0-1.2-.1-2-.4-2.5-.3-.5-.8-.9-1.6-1.2-.8-.3-1.9-.5-3.4-.7-.3,0-.4-.2-.4-.7s.1-.7.4-.7c1.2,0,2.5,0,4.1.2,1.5.1,2.8.2,3.9.2s2.4,0,3.9-.2c1.6-.1,3-.2,4.2-.2,3.9,0,6.9.8,9,2.4,2.1,1.6,3.2,3.9,3.2,6.8s-.7,3.6-2.1,5.2c-1.4,1.6-3.3,2.8-5.7,3.7l8,13.1c.7,1.1,1.6,2,2.7,2.5,1.1.5,2.5.9,4.3,1.1.2,0,.4.3.4.7" style="fill: #000; stroke-width: 0px;"/>
  <path id="path42" d="M428.8,343.6l-4.6-13.3-4.9,13.3h9.5ZM444.6,359.1c0,.5-.1.7-.4.7-1.2,0-2.6,0-4.1-.2-1.3-.1-2.4-.2-3.3-.2s-2.4,0-3.9.2c-1.6.1-3.1.2-4.2.2s-.4-.2-.4-.7.1-.7.3-.7c1.5,0,2.7-.3,3.3-.6.7-.3,1-.9,1-1.6s-.2-1.2-.5-2.2l-3-8.7h-10.7l-3,8.1c-.4,1.1-.6,1.9-.6,2.5,0,1.5,1.4,2.4,4.2,2.5.2,0,.3.2.3.7s-.1.7-.4.7c-1,0-2.2,0-3.5-.2-1.2-.1-2.3-.2-3.2-.2s-1.7,0-2.8.2c-1.2.1-2.2.2-3,.2s-.4-.2-.4-.7.2-.7.6-.8c1.4-.1,2.6-.5,3.4-1.2.8-.7,1.7-2,2.6-4l12.2-29.9c.1-.3.3-.4.7-.4s.7.1.8.4l10.8,30c.6,1.7,1.4,2.9,2.5,3.7,1,.8,2.4,1.3,4.2,1.5.3,0,.5.3.5.7" style="fill: #000; stroke-width: 0px;"/>
  <path id="path44" d="M477.8,332.2c0,.3-.3.5-.9.5s-.5-.1-.5-.4c-.7-2.4-1.8-4.2-3.2-5.2-1.4-1-3.4-1.5-6.2-1.5h-2.4c-.9,0-1.4.1-1.7.4-.3.3-.5.8-.5,1.6v26.4c0,1.2.2,2,.5,2.5.3.5.8.9,1.6,1.2.8.3,1.9.5,3.3.7.3,0,.4.3.4.7s-.1.7-.4.7c-1.2,0-2.6,0-4.2-.2-1.5-.1-2.8-.2-3.8-.2s-2.4,0-3.9.2c-1.6.1-3,.2-4.2.2s-.4-.2-.4-.7.1-.7.4-.7c2.1-.2,3.5-.6,4.3-1.2.8-.5,1.1-1.6,1.1-3.2v-26.4c0-.8-.2-1.3-.5-1.6-.3-.3-.9-.4-1.8-.4h-2c-2.4,0-4.7.6-6.7,1.9-2,1.2-3.3,2.9-3.9,4.8,0,.3-.3.4-.6.4-.6,0-.9-.2-.9-.6,1-2.6,1.9-5.6,2.8-8.9,2.4.5,7.8.7,16.2.7s14.2-.2,16.6-.7c.2,2.3.8,5.3,1.6,9" style="fill: #000; stroke-width: 0px;"/>
  <path id="path46" d="M497.7,359.1c0,.5-.1.7-.4.7-1.2,0-2.5,0-4.1-.2-1.5-.1-2.8-.2-3.9-.2s-2.4,0-3.9.2c-1.6.1-3,.2-4.2.2s-.4-.2-.4-.7.1-.7.4-.7c2.1-.2,3.5-.6,4.3-1.2.8-.5,1.1-1.6,1.1-3.2v-24.5c0-1.2-.2-2.1-.5-2.6-.3-.5-.8-.9-1.6-1.2-.8-.3-1.9-.5-3.4-.7-.3,0-.4-.2-.4-.7s.1-.7.4-.7c1.2,0,2.6,0,4.2.2,1.5.1,2.8.2,3.9.2s2.4,0,3.9-.2c1.6-.1,3-.2,4.1-.2s.4.2.4.7-.1.7-.4.7c-1.5.2-2.6.4-3.3.7-.8.3-1.3.7-1.6,1.2-.3.5-.4,1.3-.4,2.6v24.5c0,1.2.1,2,.4,2.5.3.5.8.9,1.6,1.2.8.3,1.9.5,3.3.7.3,0,.4.3.4.7" style="fill: #000; stroke-width: 0px;"/>
  <path id="path48" d="M536.2,350.2c-.6,2.8-1.2,5.7-1.8,8.9-1,0-2.8.2-5.4.7-3.3.6-5.8.9-7.4.9-4,0-7.4-.8-10.4-2.3-3-1.6-5.3-3.8-7-6.7-1.7-2.9-2.5-6.1-2.5-9.7s.9-6.7,2.6-9.7c1.8-3,4.2-5.3,7.3-6.9,3.1-1.7,6.6-2.5,10.4-2.5s3.8.2,6.6.5c2.1.3,3.7.4,4.7.4.2,2.4.6,5.4,1.2,8.9,0,.3-.3.4-.8.4s-.6-.1-.6-.4c-.6-2.4-2-4.3-4-5.8-2.1-1.5-4.4-2.3-7.1-2.3-4.1,0-7.5,1.7-10.3,5.1-2.8,3.4-4.2,7.5-4.2,12.4s1.4,8.8,4.1,12.1c2.7,3.3,6.1,5,10.1,5,6.2,0,10.6-2.9,13.2-8.8.1-.3.4-.4.7-.4s.7.1.7.4" style="fill: #000; stroke-width: 0px;"/>
  <path id="path50" d="M218,414.9c0,.5-.1.7-.4.7-1.2,0-2.5,0-4.1-.2-1.5-.1-2.8-.2-3.9-.2s-2.4,0-3.9.2c-1.6.1-3,.2-4.2.2s-.4-.2-.4-.7.1-.7.4-.7c2.1-.2,3.5-.6,4.3-1.2.8-.5,1.1-1.6,1.1-3.2v-24.5c0-1.2-.2-2.1-.5-2.6-.3-.5-.8-.9-1.6-1.2-.8-.3-1.9-.5-3.4-.7-.3,0-.4-.2-.4-.7s.1-.7.4-.7c1.2,0,2.6,0,4.2.2,1.5.1,2.8.2,3.9.2s2.4,0,3.9-.2c1.6-.1,3-.2,4.1-.2s.4.2.4.7-.1.7-.4.7c-1.5.2-2.6.4-3.3.7-.8.3-1.3.7-1.6,1.2-.3.5-.4,1.3-.4,2.6v24.5c0,1.2.1,2,.4,2.5.3.5.8.9,1.6,1.2.8.3,1.9.5,3.3.7.3,0,.4.3.4.7" style="fill: #000; stroke-width: 0px;"/>
  <path id="path52" d="M265.7,380.2c0,.4-.1.7-.4.7-2.2.2-3.7.6-4.5,1.2-.8.6-1.2,1.6-1.3,3.2l-.6,30.7c0,.3-.2.5-.6.5s-.5-.1-.8-.4l-26.9-30.3-.4,24.1c0,.1,0,.3,0,.4,0,1.3.4,2.3,1.3,2.8s2.3,1,4.5,1.2c.3,0,.4.3.4.7s-.1.7-.4.7c-.9,0-2.1,0-3.7-.2-1.5-.1-2.6-.2-3.4-.2s-2,0-3.5.2c-1.4.1-2.5.2-3.3.2s-.4-.2-.4-.7.2-.7.5-.7c2.2-.3,3.6-.7,4.4-1.2.8-.5,1.2-1.6,1.3-3.2l.9-24.5v-.2c0-1.4-.4-2.4-1.2-2.9-.8-.6-2.3-1-4.6-1.3-.2,0-.4-.2-.4-.7s.1-.7.4-.7c.6,0,1.5,0,2.6.2,1,.1,1.7.2,2.2.2s1.3,0,2.2-.2c.9-.1,1.6-.2,2.2-.2l25.1,28.1v-22.2c0-1.5-.4-2.5-1.3-3.1-.8-.6-2.4-1-4.7-1.3-.3,0-.4-.3-.4-.7s.1-.7.4-.7c.9,0,2.2,0,3.8.2,1.5.1,2.6.2,3.4.2s2,0,3.5-.2c1.4-.1,2.5-.2,3.3-.2s.4.2.4.7" style="fill: #000; stroke-width: 0px;"/>
  <path id="path54" d="M290.4,405.2c0,3.5-1,6.2-3.1,8.2-2.1,2-4.8,3.1-8.3,3.1s-3.4-.3-5.6-.8c-2-.5-3.6-.8-4.8-.8-.1-3-.3-5.9-.6-8.9,0-.3.3-.4.8-.4s.6.1.7.4c.9,3.2,2.1,5.5,3.6,6.8,1.5,1.3,3.5,2,6.1,2s3.7-.6,4.9-1.8c1.2-1.2,1.7-2.9,1.7-5.1s-.5-2.7-1.5-3.9c-1-1.2-3.2-2.8-6.4-4.7-3.8-2.2-6.2-4-7.4-5.5-1.2-1.5-1.7-3.2-1.7-5,0-2.8,1-5.2,3.1-7.2,2.1-2,4.8-2.9,8-2.9s2.6.2,4.2.5c1.5.3,2.8.4,3.8.4.2,3.1.5,5.7.8,8.1,0,.3-.2.4-.7.4s-.8-.1-.8-.4c-.6-2.6-1.4-4.5-2.6-5.6-1.2-1.1-2.8-1.7-4.8-1.7s-3.5.6-4.7,1.7c-1.2,1.1-1.7,2.7-1.7,4.6s.5,2.4,1.5,3.5c1,1.1,3.1,2.6,6.3,4.5,3.8,2.2,6.3,4.1,7.5,5.6,1.2,1.5,1.8,3.1,1.8,4.9" style="fill: #000; stroke-width: 0px;"/>
  <path id="path56" d="M329.3,388c0,.3-.3.5-.9.5s-.5-.1-.5-.4c-.7-2.4-1.8-4.2-3.2-5.2-1.4-1-3.4-1.5-6.2-1.5h-2.4c-.9,0-1.4.1-1.7.4-.3.3-.5.8-.5,1.6v26.4c0,1.2.2,2,.5,2.5.3.5.8.9,1.6,1.2.8.3,1.9.5,3.3.7.3,0,.4.3.4.7s-.1.7-.4.7c-1.2,0-2.6,0-4.2-.2-1.5-.1-2.8-.2-3.8-.2s-2.4,0-3.9.2c-1.6.1-3,.2-4.2.2s-.4-.2-.4-.7.1-.7.4-.7c2.1-.2,3.5-.6,4.3-1.2.8-.5,1.1-1.6,1.1-3.2v-26.4c0-.8-.2-1.3-.5-1.6-.3-.3-.9-.4-1.8-.4h-2c-2.4,0-4.7.6-6.7,1.9-2,1.2-3.3,2.9-3.9,4.8,0,.3-.3.4-.6.4-.6,0-.9-.2-.9-.6,1-2.6,1.9-5.6,2.8-8.9,2.4.5,7.8.7,16.2.7s14.2-.2,16.6-.7c.2,2.3.8,5.3,1.6,9" style="fill: #000; stroke-width: 0px;"/>
  <path id="path58" d="M349.3,414.9c0,.5-.1.7-.4.7-1.2,0-2.5,0-4.1-.2-1.5-.1-2.8-.2-3.9-.2s-2.4,0-3.9.2c-1.6.1-3,.2-4.2.2s-.4-.2-.4-.7.1-.7.4-.7c2.1-.2,3.5-.6,4.3-1.2.8-.5,1.1-1.6,1.1-3.2v-24.5c0-1.2-.2-2.1-.5-2.6-.3-.5-.8-.9-1.6-1.2-.8-.3-1.9-.5-3.4-.7-.3,0-.4-.2-.4-.7s.1-.7.4-.7c1.2,0,2.6,0,4.2.2,1.5.1,2.8.2,3.9.2s2.4,0,3.9-.2c1.6-.1,3-.2,4.1-.2s.4.2.4.7-.1.7-.4.7c-1.5.2-2.6.4-3.3.7-.8.3-1.3.7-1.6,1.2-.3.5-.4,1.3-.4,2.6v24.5c0,1.2.1,2,.4,2.5.3.5.8.9,1.6,1.2.8.3,1.9.5,3.3.7.3,0,.4.3.4.7" style="fill: #000; stroke-width: 0px;"/>
  <path id="path60" d="M389.4,388c0,.3-.3.5-.9.5s-.5-.1-.5-.4c-.7-2.4-1.8-4.2-3.2-5.2-1.4-1-3.4-1.5-6.2-1.5h-2.4c-.9,0-1.4.1-1.7.4-.3.3-.5.8-.5,1.6v26.4c0,1.2.2,2,.5,2.5.3.5.8.9,1.6,1.2.8.3,1.9.5,3.3.7.3,0,.4.3.4.7s-.1.7-.4.7c-1.2,0-2.6,0-4.2-.2-1.5-.1-2.8-.2-3.8-.2s-2.4,0-3.9.2c-1.6.1-3,.2-4.2.2s-.4-.2-.4-.7.1-.7.4-.7c2.1-.2,3.5-.6,4.3-1.2.8-.5,1.1-1.6,1.1-3.2v-26.4c0-.8-.2-1.3-.5-1.6-.3-.3-.9-.4-1.8-.4h-2c-2.4,0-4.7.6-6.7,1.9-2,1.2-3.3,2.9-3.9,4.8,0,.3-.3.4-.6.4-.6,0-.9-.2-.9-.6,1-2.6,1.9-5.6,2.8-8.9,2.4.5,7.8.7,16.2.7s14.2-.2,16.6-.7c.2,2.3.8,5.3,1.6,9" style="fill: #000; stroke-width: 0px;"/>
  <path id="path62" d="M429.5,380.1c0,.5-.1.7-.4.7-2.2.3-3.7.7-4.4,1.2-.7.5-1.1,1.6-1.1,3.2v16.3c0,4.6-1.1,8.3-3.4,10.9-2.2,2.6-5.4,3.9-9.5,3.9s-8.3-1.3-10.9-3.8-3.9-5.9-3.9-10.3v-17.2c0-1.2-.1-2-.4-2.5-.3-.5-.8-.9-1.6-1.2-.8-.3-1.9-.5-3.4-.7-.3,0-.4-.2-.4-.7s.1-.7.4-.7c1.2,0,2.5,0,4.1.2,1.5.1,2.8.2,3.9.2s2.4,0,3.9-.2c1.6-.1,3-.2,4.2-.2s.4.2.4.7-.1.7-.4.7c-1.5.2-2.6.4-3.4.7-.8.3-1.3.7-1.6,1.2-.3.5-.5,1.4-.5,2.6v16.5c0,4.3.8,7.4,2.4,9.4,1.6,2,4.2,3,7.9,3,6.9,0,10.3-4.3,10.3-13v-15.8c0-1.6-.4-2.7-1.2-3.2-.8-.5-2.2-.9-4.4-1.2-.3,0-.4-.2-.4-.7s.1-.7.4-.7c.8,0,1.8,0,3.1.2,1.3.1,2.4.2,3.2.2s1.9,0,3.1-.2c1.3-.1,2.4-.2,3.2-.2s.4.2.4.7" style="fill: #000; stroke-width: 0px;"/>
  <path id="path64" d="M467.1,388c0,.3-.3.5-.9.5s-.5-.1-.5-.4c-.7-2.4-1.8-4.2-3.2-5.2-1.4-1-3.4-1.5-6.2-1.5h-2.4c-.8,0-1.4.1-1.7.4-.3.3-.5.8-.5,1.6v26.4c0,1.2.2,2,.5,2.5.3.5.8.9,1.6,1.2.8.3,1.9.5,3.3.7.3,0,.4.3.4.7s-.1.7-.4.7c-1.2,0-2.6,0-4.2-.2-1.5-.1-2.8-.2-3.8-.2s-2.4,0-3.9.2c-1.6.1-3,.2-4.2.2s-.4-.2-.4-.7.1-.7.4-.7c2.1-.2,3.5-.6,4.3-1.2.8-.5,1.1-1.6,1.1-3.2v-26.4c0-.8-.2-1.3-.5-1.6-.3-.3-.9-.4-1.8-.4h-2c-2.4,0-4.7.6-6.7,1.9-2,1.2-3.3,2.9-3.9,4.8,0,.3-.3.4-.6.4-.6,0-.9-.2-.9-.6,1-2.6,1.9-5.6,2.8-8.9,2.4.5,7.8.7,16.2.7s14.2-.2,16.6-.7c.2,2.3.8,5.3,1.6,9" style="fill: #000; stroke-width: 0px;"/>
  <path id="path66" d="M500.4,407.1c-1.4,3-2.6,5.9-3.4,8.6-6.5-.2-11.2-.3-14-.3s-7.4.1-14,.3c-.3,0-.4-.2-.4-.7s.1-.7.4-.7c1.4-.2,2.5-.4,3.3-.7.8-.3,1.3-.7,1.6-1.2.3-.5.5-1.3.5-2.6v-24.5c0-1.2-.1-2-.4-2.5-.3-.5-.8-.9-1.6-1.2-.8-.3-1.9-.5-3.4-.7-.3,0-.4-.2-.4-.7s.1-.7.4-.7c4.4.2,8.9.3,13.4.3s9.1-.1,13.5-.3c.4,2.7,1,5.3,1.7,8,0,.3-.3.5-.9.5s-.5-.1-.5-.4c-1.3-4.1-4-6.1-8.2-6.1h-5.3c-2,0-3,1-3,3.1v11.6h6.6c1.7,0,2.9-.4,3.5-1.2.6-.8,1.1-2.2,1.3-4.2,0-.3.2-.4.7-.4s.7.1.7.4c0,.9,0,2-.2,3.3-.1,1.3-.2,2.3-.2,3.1s0,1.9.2,3.1c.1,1.4.2,2.5.2,3.3s-.2.4-.7.4-.7-.1-.7-.4c-.3-2.1-.7-3.6-1.4-4.5-.7-.9-1.8-1.3-3.5-1.3h-6.6v12.8c0,2,1,3.1,3,3.1h5.7c2.1,0,4.1-.7,6.1-2,2-1.3,3.5-3,4.5-5,0-.2.2-.2.4-.2s.5,0,.7.2c.2.1.3.3.3.5" style="fill: #000; stroke-width: 0px;"/>
  <path id="path70" d="M45.5,233.3l19-.9,19-.6,38-1.3,38-.9c12.7-.3,25.3-.5,38-.7l19-.3,19-.2,38-.4,76-.3,76,.3c25.3.3,50.7.4,76,.9,12.7.2,25.3.4,38,.7l38,.9,38,1.3,19,.6,19,.9v.7l-304,.3-304-.3v-.7" style="fill: #000; stroke-width: 0px;"/>
  <path id="path74" d="M653.6,452.1l-19,.9-19,.6-38,1.3-38,.9c-12.7.3-25.3.5-38,.7l-19,.3-19,.2-38,.4-76,.3-76-.3c-25.3-.3-50.7-.4-76-.9-12.7-.2-25.3-.4-38-.7l-38-.9-38-1.3-19-.6-19-.8v-.7l304-.3,304,.3v.7" style="fill: #000; stroke-width: 0px;"/>
  <path id="path76" d="M401.8,39.2c0,1.9-.6,2.9-1.8,3-9.3,1-15.7,2.8-19.1,5.1-3.5,2.4-5.3,7-5.4,13.7l-2.5,131.5c0,1.5-.9,2.2-2.7,2.2s-2.1-.6-3.6-1.8L251.8,63.1l-1.6,103.2c0,.6-.1,1.2-.1,1.7,0,5.7,1.8,9.7,5.4,12,3.6,2.3,10,4.1,19.3,5.2,1.2.2,1.8,1.2,1.8,3s-.6,3.1-1.8,3.1c-3.9,0-9.2-.2-16-.7-6.3-.4-11.2-.7-14.6-.7s-8.7.2-15.1.7c-6.1.4-10.8.7-14.2.7s-1.8-1-1.8-3.1.7-2.9,2-3c9.2-1.1,15.5-2.8,19-5.2,3.4-2.3,5.2-6.9,5.5-13.7l3.9-105.1v-1c0-6-1.7-10.2-5.2-12.6-3.5-2.4-10-4.2-19.5-5.4-1,0-1.6-1-1.6-3.1s.6-3.1,1.8-3.1c2.6,0,6.2.2,10.9.7,4.2.4,7.3.7,9.4.7s5.7-.2,9.4-.7c3.7-.4,6.9-.7,9.6-.7l107.5,120.2V61.1c0-6.3-1.8-10.8-5.4-13.4-3.6-2.6-10.3-4.4-20-5.5-1.2-.1-1.8-1.2-1.8-3s.6-3.1,1.8-3.1c4,0,9.4.2,16.1.7,6.2.4,11.1.7,14.5.7s8.7-.2,15.1-.7c6.1-.4,10.8-.7,14.2-.7s1.8,1,1.8,3.1" style="fill: #000; stroke-width: 0px;"/>
  <path id="path78" d="M552,114.7c0-20.3-5.8-37.1-17.4-50.6-11.6-13.5-26.1-20.2-43.5-20.2h-.7l-21,.4c-8.8.3-13.2,4.6-13.2,13v113.2c0,8.5,4.4,12.7,13.2,12.7l21,.7c17.3,0,31.9-6.6,43.7-19.8,11.8-13.2,17.7-29.7,17.7-49.5ZM576.6,114.7c0,22.9-7.7,41.4-23,55.5-15.3,14.1-36,21.1-62.2,21.1s-9.9-.1-19.9-.4c-10.3-.3-17.1-.4-20.5-.4-13.8,0-27.3.3-40.4.9-1.2,0-1.8-1-1.8-3.1s.6-2.9,1.8-3c6.2-.7,10.9-1.7,14.2-3,3.3-1.2,5.6-2.9,6.9-5,1.3-2.1,2-5.7,2-10.9V61.6c0-5.1-.6-8.8-1.8-10.9-1.2-2.1-3.5-3.8-6.8-5.1-3.3-1.3-8.1-2.3-14.4-3-1.2,0-1.8-1-1.8-3.1s.6-3.1,1.8-3.1c8.7.6,22.2.9,40.4.9s10.3-.1,20.5-.3c10-.2,16.6-.3,19.9-.3,25.4,0,46,7.3,61.7,21.8,15.7,14.5,23.5,33.3,23.5,56.2" style="fill: #000; stroke-width: 0px;"/>
  <path id="path80" d="M655.5,188.2c0,2.1-.6,3.1-1.8,3.1-5,0-10.9-.2-17.7-.7-6.5-.4-12.1-.7-16.6-.7s-10.1.2-16.6.7c-6.9.4-12.9.7-18,.7s-1.8-1-1.8-3.1.6-2.9,1.8-3c9-1,15.1-2.7,18.4-5,3.2-2.3,4.9-6.9,4.9-13.8V61.2c0-5.2-.7-8.9-2-11-1.3-2.1-3.6-3.8-6.9-5-3.3-1.2-8.1-2.2-14.4-3-1.2,0-1.8-1-1.8-3.1s.6-3.1,1.8-3.1c5.1,0,11,.2,18,.7,6.5.4,12.1.7,16.6.7s10.1-.2,16.6-.7c6.8-.4,12.8-.7,17.7-.7s1.8,1,1.8,3.1-.6,3.1-1.8,3.1c-6.2.7-11,1.7-14.3,3-3.3,1.2-5.5,2.9-6.8,5-1.3,2.1-1.9,5.8-1.9,11.1v105.1c0,5.1.6,8.8,1.9,10.9,1.3,2.1,3.5,3.8,6.8,5,3.2,1.2,8,2.2,14.2,3,1.3.2,1.9,1.2,1.9,3" style="fill: #000; stroke-width: 0px;"/>
  <path d="M211.5,106.1c0,58.4-47.3,105.8-105.8,105.8S0,164.5,0,106.1,47.3.3,105.8.3s105.8,47.3,105.8,105.8Z" style="fill: none; stroke-width: 0px;"/>
  <path id="path90" d="M45.7,193.4h0s.4.2,0,0" style="fill: #696566; stroke-width: 0px;"/>
  <path id="path92" d="M59.9,199.1h0v.2c0,0,.6.4.6.4l.7.3.6.4.6.2.5.3.9.3.7.2h.4s-.2-.3-.2-.3l-.3-.3-.5-.5-.6-.5-.7-.5-.6-.5-.8-.6h-.4s-.1,0-.1,0l.5.4.6.5.6.5v.2s-.3,0-.3,0h-.6c0-.1-.8-.3-.8-.3l-.8-.3" style="fill: #000; stroke-width: 0px;"/>
  <path id="path94" d="M59.5,198.7h0l.6.2h.5c0,0,0,0,0,0l-.3-.3-.5-.3h-.5l.3.2v.2" style="fill: #000; stroke-width: 0px;"/>
  <path id="path96" d="M62.1,195.8h0l.6.3h.2c0-.1.5-.2.5-.2l-.5-.4v.4l-.5-.4-.3.2" style="fill: #000; stroke-width: 0px;"/>
  <path id="path98" d="M66.3,195.8h0l.5.3h.6c0,0-.8-.4-.8-.4h-.3" style="fill: #000; stroke-width: 0px;"/>
  <path id="path100" d="M39.7,132.7l-.3-.5-.3-.4-.2-.4-.3-.4-.3-.2-.3-.3h-.4c0,0-.2.1-.2.1h-.8s-.4,0-.4,0l-.2-.3h-.3c0,0-.1-.5-.1-.5l-.3-.4-.3-.4v-.4c-.1,0-.3-.4-.3-.4v-.4c0,0,0-.3,0-.3v-.5l.2-.5v-.5s0-.5,0-.5l.2-.3v-.7c0,0,0-.2,0-.2l-.3-.3-.2-.4-.3-.2-.2-.2h-.4s-.4-.3-.4-.3h-.3s-.4,0-.4,0l-.4-.3h-.5s-.2-.3-.2-.3l-.3-.3.4-.2.2-.5v-.4s.2-.8.2-.8v.5c0,0,.3-.4.3-.4v-.5c.1,0,.2-.5.2-.5v-.5c.1,0,.3-.4.3-.4l.3-.3v-.4s0-.2,0-.2h-.4c0-.1-.2-.3-.2-.3h-.4s-.4,0-.4,0h-.3s-.4,0-.4,0h-.2s-.1.6-.1.6v.4c0,0-.3.3-.3.3v.4s-.3,0-.3,0h-.2v.4h-.4v-.2s-.3-.2-.3-.2h-.4s-.4,0-.4,0h-.4s-.2-.1-.2-.1l-.2-.4-.3-.3-.3-.3v-.5c-.1,0-.2-.5-.2-.5v-.5c0,0-.3-.4-.3-.4v-.4c0,0-.1-.5-.1-.5v-.2c.1,0,0-.5,0-.5v-.5s0-.4,0-.4v-.5c0,0,.2-.5.2-.5v-.5c0,0,.3-.5.3-.5l.2-.4.2-.4v-.9c0,0,0-.5,0-.5v-.5c.1,0,.4-.2.4-.2l.4-.2.4-.2h.3s.2,0,.2,0l.3-.2v-.5c0,0,.2,0,.2,0v.4c0,0,.3,0,.3,0h.6c0,0,.3.4.3.4l.3.2h.3c0-.1.2.3.2.3v.4l.3.2h.4c0,0,.3,0,.3,0l.2.2v.3c.1,0,.3-.1.3-.1l-.3-.5h0c0-.1.2-.3.2-.3v-.2c0,0-.2,0-.2,0h-.3s-.2-.2-.2-.2l.2-.3.3.4h.4c0,0,.3,0,.3,0l.3.2.2-.2v.4s.4.1.4.1h.4s.3,0,.3,0l.2.3.3.3v.5h.4s.3,0,.3,0h.4s.2.5.2.5l.2.7h.1c0,.1,0,.7,0,.7v.4c-.1,0-.2.4-.2.4h.2l-.2.5v.3l.2.4v.5c0,0,.2.5.2.5l.2.4v.5c0,0,.4,0,.4,0h.2c0,0,.2-.5.2-.5v-.5c.1,0,.2-.6.2-.6v-.6s-.1-.6-.1-.6v-.3s0-.6,0-.6v-.5s0-.5,0-.5v-1.1s.3-.4.3-.4l.3-.5.4-.3h.4c0-.1.4-.4.4-.4l.3-.3.2-.3.4-.2h.3s.4-.2.4-.2l.4-.2h.4s.2-.2.2-.2h-.3c0,0,.4-.4.4-.4h.2c0,0,.2-.1.2-.1v-.4s-.2,0-.2,0h-.4c0-.1.3-.2.3-.2h.3s.2.1.2.1v.4c0,0,0-.4,0-.4v-.9s-.2-.5-.2-.5v-.4s.2-.5.2-.5l-.3-.5.3.2v-.9c0,0,.3-.3.3-.3h.3c0,0-.2.2-.2.2v.4c0,0-.3.4-.3.4l.3.3v.3c-.1,0,0,0,0,0l-.2.3-.2.5h.2s.2-.5.2-.5l.4-.4.2-.2v-.7c-.1,0-.1-.6-.1-.6l.2.2v.5c0,0,.5-.3.5-.3l.4-.5.2-.5-.2-.3.3-.3.4-.2h.4c0,0,.3,0,.3,0h.4c0,0,.4,0,.4,0l.2-.3v.3c.1,0,.5,0,.5,0v.2s.5,0,.5,0v-.4c0,0,0,.3,0,.3h-.4v-.6l-.2-.2.2-.3v-.3l.3-.4.4-.3v-.2s.4,0,.4,0h.5c0,0,.3-.5.3-.5v.3c.1,0,.6,0,.6,0h.4c0,0,.5-.3.5-.3v-.4c0,0,.6.1.6.1h.5s.6-.3.6-.3v.4c-.1,0,.4,0,.4,0l-.6.3h-.3c0,0-.5.4-.5.4l-.3.4v.5l.3.4.5-.3.5-.3.3-.3h.4c0,0,.5,0,.5,0h.8c0-.1.6-.2.6-.2l.2-.4h.5c0,0,.5-.4.5-.4l-.4-.5.2-.6v-.3c-.1,0-.5.5-.5.5l-.5.4v.5c-.1,0-.5-.2-.5-.2h-.5c0,0-.5-.1-.5-.1l-.5-.5-.4-.3v-.7c0,0,0-.7,0-.7l.2-.5h-.6s-.3-.7-.3-.7l.7.2h.4c0,0,.5-.3.5-.3v-.4c0,0,0-.4,0-.4l-.4-.3h-.5s-.5,0-.5,0l-.6.2h-.5c0,0-.5.3-.5.3l-.5.3-.4.4-.4.3-.4.3h-.5c0,0,.4-.2.4-.2l.3-.4.4-.3.3-.3.5-.5.5-.3.6-.4h.5c0,.1.3-.4.3-.4l.4-.3h.6c0,0,.4,0,.4,0h.5c0,0,.5.1.5.1l.4.2h.4c0,0,.5.2.5.2l.3.3h.5s.7.2.7.2l.5-.3.4-.4.4-.4.7-.2h.8c0,0,.5-.3.5-.3l.5-.2v-.9s.2-.5.2-.5l-.3-.8h-.5c0,0,0-.7,0-.7l-.7-.3.7-.3-.2-.4-.6-.3v-.5c-.1,0-.9-.3-.9-.3v-.6s-.4-.5-.4-.5l-.2-.5.2-.7.4-.4-.2-.5v-.5c.1,0,0-.5,0-.5v-.8c0,0-.1-.8-.1-.8l-.2-.8v-.8c0,0-.1-.5-.1-.5l-.5.4-.4.3v.5c0,0-.4.5-.4.5l-.6.2-.4.4-.8.2v-.9c-.1,0-.5-.2-.5-.2v-.7c0,0,0-.5,0-.5l.3-.7v-.6s.4-.6.4-.6l-.4-.3h-.5c0-.1-.4-.6-.4-.6l.4-.5-.3-.5-.2-.6-.3-.5h-1.2c0,0-.5-.5-.5-.5l-.5-.3-.5.3-.2.6.2.5-.4.5-.4.5v.5c.1,0,0,.8,0,.8l-.2.6-.5.5h-.5s-.2.4-.2.4l.2.6.3.4v.9c0,0-.2.6-.2.6v.8c-.1,0-.5.9-.5.9l-.5.5-.7.4-.6.3-.6.2v.6s0,.6,0,.6l-.2.8-.2.6v.7s-.5.5-.5.5l-.6.2v.5c0,0-.4-.6-.4-.6v-.6s-.2-.5-.2-.5v-.6c0,0-.3-.7-.3-.7l.3-.6.2-.5v-.6l.5-.9-.4-.5-.6-.2-.6-.2-.4-.8-.4-.4-.3-.4v-.7c0,0-.5-.7-.5-.7l-.5-.5-.4-.7h-.5s-.4.1-.4.1l.2-.5v-.6c0,0,.3-.5.3-.5v-.9c.1,0-.2-.3-.2-.3h-.4s0-.7,0-.7l.3-.7.4-.8.4-.5.4-.5.6-.6.5-.5h.5c0,0,.4-.8.4-.8h.6s.6,0,.6,0l.3-.7.8-.7.8.3.7-.6.8-.6.4-.8,1-.8v-.7c-.1,0,.6,0,.6,0v.5l.6.5.9-.5,1-.5.6-.9-.5-.7.4-.8.8-.2.5-1-.6-.5.2-.6-.5-.5-.6-.2-.5.9-.5,1-.5,1-.9.3-.4.7h-.5c0,0,0-1,0-1l.5-.8.4-.7v-1s-1.1.9-1.1.9v-1c0,0,.2-.8.2-.8l-.3-.6.9-.5.2-1v-1.6s.3-1,.3-1l.6-.5.2-.7h.6c0,0,.5,0,.5,0l.8-.6.8-.6.5-.4-.2-.5-.7-.6h-1c0,0-.7.6-.7.6l-.4.8-.5.9-.5.7-.6.9-.6.3-.8.8-.8.8v1.2c-.1,0,.2,1,.2,1l-.7.5-.3.9-.9.6h-.2s-.6.6-.6.6l-.2-.7.5-.9.9-.3.2-1.1v-1.1c-.1,0-.9.7-.9.7l-.8.3.3,1-.6.4-.6.9h-.7c0-.1-.6-.8-.6-.8l-.3-.7-.4-.9v-1.1c0,0-.6,0-.6,0h-.7s-.6.3-.6.3l.2.6-.5.6-.3-.5-.2-.6h-.7c0,0-.7-.1-.7-.1l-.3-.5-.5-.3.5-.4h.5l.2-.8-.2-.7-.5-.4-.2-.6-.2-.7v-.9s-.5-.4-.5-.4l-.7.6-.2-.3.7-.9-1,.7v-.5s.4-.9.4-.9l.2-1.1-.9.8h-.5s.4-.7.4-.7h-.7s-.8.2-.8.2l-.5.2v-.5h-.4c0-.1-.6.2-.6.2l-.5.6v-.7s0-.7,0-.7v-.7c0,0-.2-.5-.2-.5v-.5c0,0,.2-.6.2-.6l-.2-.3h-.3c0-.1,0-.8,0-.8l-.2-.3v-.8s-.2-.4-.2-.4l-.2-.3.4-.8-.3-.4.3-.5v-.7s-.8.3-.8.3l-.2-.3-.7.2-.3-.2-.7.3-.6.5-.5.4-.4-.2-.2-.2-.7.6-.4.7-.3.8-.5.8-.3.7-.4.8-.5.3v-.5c-.1,0,.3-.5.3-.5v-.3h-.9l-.5.3v.4c-.1,0-.1.4-.1.4l-.4.4-.3.5v.6s.1.3.1.3v.5s.3,0,.3,0h.3s-.5.5-.5.5l-.4.6-.5.6-.2-.3-.5.3v-.6c.1,0-.2,0-.2,0l-.3.4-.6.4-.7.6-.3.8-.4.7-.4.8-.3.7v.3c0,0,.5-.3.5-.3l-.5.9-.3.3-.3.6h.2s.2.4.2.4l-.3.8.3-.3v.3s.2,0,.2,0l-.5.7-.5.6-.4.2-.4.3h-.4c0,0-.5.5-.5.5l-.2-.2h-.3l-.4.3h-.3s-.4,0-.4,0l-.2.3h.7c0,0,.2,0,.2,0h.2c0,0,.3,0,.3,0h.5c0,0,.4-.3.4-.3h.3s.4-.1.4-.1l.4-.3.5-.2h.5c0,0,.4-.3.4-.3l.4-.4v-.5l.3-.3h.4c0,0,.5-.4.5-.4l.5-.5.4-.2h.5c0-.1.1,0,.1,0l-.4.3h-.3s-.5.6-.5.6l-.5.5v.4s-.4.3-.4.3l.3.2.5-.2.4-.2.2.3.5-.5.5-.8v.5s.2.3.2.3v.5c0,0-.1.7-.1.7v.6l.2.3.3.3v.6l.2.4h.4c0-.1-.4.5-.4.5v1.3c-.1,0-.2.6-.2.6v.5l-.3.7v.7c-.1,0-.4.7-.4.7l-.3.9.5-.8.3-.8.4-.6v-.6s.2.1.2.1l.4-.5-.2.6-.3.4-.3.7-.3.5h.4c0-.1.3-.5.3-.5v.5c-.1,0-.3.5-.3.5v-.5c-.1,0-.5.3-.5.3l-.3.7h.2s-.3.5-.3.5l-.2.5v.4s0,.5,0,.5v.6c-.1,0,.3-.7.3-.7l.2-.9.2-.7v.4s.2.2.2.2l-.3.4v.6c-.1,0-.2.5-.2.5v.5h.4l-.5.5v.4c0,0-.5.1-.5.1v.7c-.1,0,0,.5,0,.5l-.2.9v.5c.1,0,0,.6,0,.6v.5s-.2.4-.2.4v.6c0,0,.3.4.3.4v.5c.1,0,.2.5.2.5v.6s.2.5.2.5h.4c0,0-.3.5-.3.5v.4s0,.6,0,.6h-.1c0,.1,0,.7,0,.7l-.4.5v-.2s-.2,0-.2,0l.4-.4v-.5c0,0-.4-.2-.4-.2l-.2-.5v.3c-.1,0-.2.4-.2.4v.5c-.1,0-.3.6-.3.6v.4c-.1,0-.2.4-.2.4l.2.4-.3-.2v.4c-.1,0-.3.5-.3.5l-.3.4-.2.5-.3.5-.3.6-.3.5-.2.6v.4s-.2.6-.2.6l-.2.5-.3.4v.3c0,0,0,.4,0,.4v.5s-.1.4-.1.4v.5c-.1,0,0,.5,0,.5v.4c0,0,0,.3,0,.3l.2.2v-.3c0,0,.2.2.2.2h-.1c0,0,0,.6,0,.6v-.4c0,0-.2.5-.2.5v.4h.1c0,.1-.1.5-.1.5v.2c-.1,0,0,.5,0,.5v1.2c0,0,0,.5,0,.5l.3.4.2.4.2.3h.1c0,0,0,.5,0,.5h.1c0,.1.1.6.1.6v1s0,.6,0,.6v.5s0,.4,0,.4v.2c0,0,0,.4,0,.4v.4c-.1,0,0,.2,0,.2v.6c0,0,.1.3.1.3v.5c.1,0,.2.5.2.5v.4c0,0,0,.4,0,.4h-.3c0,.1-.3-.1-.3-.1l.2.5v.4s.1.3.1.3l.2.4h.2c0,.1,0,.5,0,.5l.2.4v.5s0,.5,0,.5l-.2.2.3.5.2.5v.5c.1,0,.3.5.3.5v.7c0,0,.5-.3.5-.3v-.5c0,0-.2-.6-.2-.6h-.2c0-.1,0-.6,0-.6h.1c0,0-.1-.5-.1-.5v-.3c0,0,0-.6,0-.6v-1.1c-.1,0-.2-.6-.2-.6v-.5c-.1,0,0-.5,0-.5v-.5c0,0-.2-.5-.2-.5v-.5s-.2-.4-.2-.4v-.4s0-.4,0-.4v-.9c0,0,.2-.3.2-.3l.2.4h.2s.1.4.1.4v.3c.1,0,0,.4,0,.4v.9s0,.5,0,.5v1.2c.1,0,.3.6.3.6l.3.3v.5c0,0,.1.6.1.6v.4s.2,0,.2,0v.4s0,.3,0,.3v.2s.1.4.1.4l.3.5v.6s.2.5.2.5l.2.5v.6c.1,0,.3.5.3.5v.5c.1,0,.3.4.3.4v1c.1,0,0,.3,0,.3l-.2.2v.3s-.2.1-.2.1v.6c.1,0,.3.6.3.6l.3.4.3.5v.5c.1,0,.5.4.5.4l.3.3h.1s.2.5.2.5l.3.5.3.3.3.3.3.4.3.2.3.4.3.4.4.3.3.3.4.3h.4c0,0,.3-.1.3-.1h.3c0,.1.3.3.3.3l.2.3.3.4v.3c.1,0,.4.5.4.5l.2.4.2.4.3.4.3.3h.3c0,.1.3.5.3.5v.3c.1,0,.4.1.4.1l.3.4h.3c0,0,.4.3.4.3v-.2c.1,0,.3.5.3.5h-.2c0,0,.2.4.2.4l.2.4.2.5.3.4.3.5v.4s0,.3,0,.3v.5c0,0,.3.1.3.1v.2c0,0,.3-.2.3-.2l.2.4.4.5.2.4v.4c0,0,.3.2.3.2l.2.3h.2c0,0,.3.1.3.1l.4.3.2.4h.4v.6h.3s.4,0,.4,0l-.3-.4v-.3s.3,0,.3,0h.2c0-.1.2-.4.2-.4h.2s.3.4.3.4l.2.5h.2c0,0-.2.3-.2.3v.6c.1,0,.5.5.5.5l.2.5.5-.9" style="fill: #000; stroke-width: 0px;"/>
  <path id="path102" d="M39.2,133.6v.4c0,0,0,.6,0,.6v.9s0,.4,0,.4l.2.4-.2.3-.2.4h-.5c0-.1-.2.2-.2.2v.4s-.3,0-.3,0v.4c.1,0-.2,0-.2,0h-.5c0,0,0,.6,0,.6h0l-.3.2v.5h-.3s.1.6.1.6v.5h0c0,0,.2.3.2.3l.3.5v-.4s.4,0,.4,0v.2c-.1,0-.2.4-.2.4h-.3s-.3.2-.3.2l-.4.2v.8c.1,0,.4.5.4.5l-.2.2.2.3.4.3.3.4.2.5v.5c.1,0,.5.4.5.4l.3.5v.5c.1,0,.3.5.3.5v.5c.1,0,.5.7.5.7v.5c.1,0,.5.5.5.5v.3c.1,0,.4.4.4.4v.5c.1,0,.4.6.4.6v.4l.4.5.2.4.3.4.5.5.4.2.4.5.5.5h.3c0,.1.4.5.4.5l.4.3.3.4.3.2.4.5v.4s.2.5.2.5l.2.6v.8s.1.4.1.4v1.1c-.1,0,0,.4,0,.4v.4s0,.4,0,.4v.5c.1,0,.2.3.2.3v.2c-.1,0,0,.5,0,.5v.5c-.1,0,0,.4,0,.4v.4c0,0,0,.4,0,.4v.4c0,0,0,.3,0,.3v.5c.1,0,0,.1,0,.1v.4l.2.5v.4c.1,0,.2.3.2.3l.2.3v.5c-.1,0,0,.4,0,.4v.2c0,0,0,.4,0,.4v.4c0,0-.2.3-.2.3v.4s0,.4,0,.4h-.1c0,0,.1.5.1.5h-.3c0,0,0,.4,0,.4l.3.4v.3c0,0,.3.4.3.4l.2.4-.2.3v.5c.1,0,.1.3.1.3l.2.4.2.3h.3c0,.1,0,0,0,0l.4.3v.2c0,0,.1.2.1.2h-.1c0,0,.2.6.2.6v.3c0,0,.1.3.1.3v.3c0,0,0,.2,0,.2h-.2c0,.1.2.4.2.4v.4s-.2-.3-.2-.3l-.2-.2v-.2c0,0,0-.2,0-.2v-.2s-.3-.4-.3-.4l-.2.2v.3s.2.4.2.4v.5s.2.2.2.2h-.3s.2.2.2.2l-.4.2v.3c0,0,.4,0,.4,0l.4.3h.3c0,0,0,.5,0,.5v.3c0,0,.3.5.3.5l-.5-.6h-.2s0,.2,0,.2v.4c.1,0,.2.5.2.5l.2.2v.4c0,0,.5.2.5.2h-.1c0,.1.2.6.2.6l.3-.5v.3s.3.3.3.3l-.3-.2v.4c0,0,0,.3,0,.3h.5s0-.3,0-.3l.3.5v.3s-.5-.2-.5-.2l.2.4.4.3h.1c0-.1.3.2.3.2l.4.2v.2c0,0,.4.3.4.3l.5.3h.2c0,0,.2-.4.2-.4l.3.2v.2h-.5l.3.3.5.3h.2s-.2-.4-.2-.4v-.4c0,0,.3,0,.3,0h.3c0,0,0,0,0,0h.4c0,0,.5.3.5.3l-.5-.5-.3-.4-.3-.4v-.4s.2-.2.2-.2h.4v-.4c0,0-.1-.4-.1-.4l.3-.2h.4c0-.1.2-.3.2-.3v-.4l-.2-.3h-.5c0-.1-.5-.5-.5-.5l-.4-.4-.2-.4v-.4c0,0,.3-.1.3-.1h.4c0,0,.4,0,.4,0v-.3c0,0,.2,0,.2,0v-.4c-.1,0-.3-.3-.3-.3v-.2c0,0,.5-.2.5-.2l-.5-.2.3-.2.4.3h.4c0,0,0,0,0,0l-.3-.5h-.5c0,0-.4-.2-.4-.2v-.5c-.1,0-.4-.5-.4-.5h.2c0-.1.4.2.4.2l.4.2.6.2h.5c0,0,0-.4,0-.4l-.2-.2v-.4c0,0,.1-.3.1-.3l-.3-.3v-.3l.2.2h.6c0,.1.5.2.5.2h.4s.5,0,.5,0h.5s.4,0,.4,0h.4c0,0,0-.4,0-.4l.3-.3v-.4c.1,0,0-.4,0-.4h-.3c0-.1-.3-.5-.3-.5v-.4c0,0-.2-.3-.2-.3l-.7-.4-.2-.3v-.2c0,0,.5.4.5.4h.5c0,.1.3.4.3.4l.5.2h.5s.5.2.5.2h.8c0,0,.3-.3.3-.3v-.3l.4-.2.3-.3v-.4s.4-.2.4-.2l.4-.2.4-.2.2-.3.2-.4v-.4c0,0,.3-.3.3-.3l.3-.4.3-.2h.2c0-.1,0-.5,0-.5v-.8c-.1,0-.2-.5-.2-.5v-.4s.3-.3.3-.3l.3-.3.4-.3.3-.3h.4s.5-.2.5-.2l.3.2.3-.4h.4c0,0-.2-.2-.2-.2h.6s.4.2.4.2h.5s.4,0,.4,0h.5c0,0,0-.3,0-.3h.4c0-.1.4-.3.4-.3v-.8c0,0,.5-.4.5-.4v-.4c0,0,.5-.4.5-.4v-.4s0-.4,0-.4v-.4s.3-.2.3-.2v-.4s0-.5,0-.5v-.5c.1,0,0-.4,0-.4v-.4s-.1-.5-.1-.5v-.4c0,0,.1-.5.1-.5l.4-.2.4-.3.4-.4.2-.4.3-.4h.2c0-.1.5-.4.5-.4l.2-.3.4-.3.2-.3.2-.4.2-.4v-.5s0-.4,0-.4v-.5c-.1,0-.3-.5-.3-.5l-.2-.5-.5-.2h-.9c0-.1-.3-.5-.3-.5l-.5-.3-.3-.3-.3-.3-.5-.4-.5-.4-.5-.3h-.5c0,0-.4,0-.4,0h-.5c0,0-.5-.4-.5-.4h-.4s-.5-.4-.5-.4h-.5c0-.1-.5,0-.5,0h-.5s.1-.3.1-.3l-.2-.4-.2-.4h-.4s-.2-.3-.2-.3l-.5-.2-.5-.2-.5-.4h-.5c0,0-.3,0-.3,0l-.3.6-.2-.2.2-.4v-.5c.1,0-.4-.2-.4-.2h-.9c0-.1-.4,0-.4,0v1c-.1,0-.4-.6-.4-.6h-.5c0,.1,0-.4,0-.4v-.4c.1,0,.5-.2.5-.2l.3-.2.4-.4v-.6s-.5-.1-.5-.1v-.6c0,0-.4-.6-.4-.6v-.5l-.4-.5-.3-.3-.4-.4-.4-.4-.4-.3-.4-.2h-.3c0-.1-.4-.4-.4-.4l-.4-.2h-.4c0,0-.4,0-.4,0h-.5c0,0-.5-.3-.5-.3l-.2-.4-.3-.3-.4-.4h-.4v-.4c0,0,0-.4,0-.4l-.4-.4-.4-.4-.5-.4h-.6v-.5c.1,0,0-.5,0-.5l-.5-.3-.3-.2h-.3l-.2-.4-.3-.4h.7s-.5,0-.5,0h-.5c0-.1-.5-.2-.5-.2l-.5.3h-.4s-.5-.2-.5-.2l-.3-.2v-.3c0,0-.5,0-.5,0h-.8c0-.1-.5-.2-.5-.2v-.3c-.1,0-.2-.4-.2-.4l-.3-.3-.4-.2h-.3c0,0,0-.7,0-.7h-.3c0,.1,0,.5,0,.5h-.3c0,.1-.4.2-.4.2h-.3v.6l.2.6v.5s-.5,0-.5,0v-.4s-.2-.4-.2-.4l.2-.4.2-.3v-.4c0,0-.2-.5-.2-.5h.4s.2-.4.2-.4v-.2c-.1,0-.4-.2-.4-.2h-.3c0,.1-.2.4-.2.4h-.3s-.3.2-.3.2h-.4c0,.1-.5,0-.5,0l-.2.2-.3-.2h-.3s-.2.3-.2.3v.4c0,0,0,.5,0,.5h-.3s-.2.3-.2.3l-.4.3v.6s-.6.9-.6.9" style="fill: #000; stroke-width: 0px;"/>
  <path id="path104" d="M46.6,174.9h0v.7c0,0,.2.5.2.5l.4.2v-.3s-.1-.3-.1-.3v-.2c.1,0,0-.3,0-.3l-.4-.3" style="fill: #000; stroke-width: 0px;"/>
  <path id="path106" d="M53.6,185h-.5c0-.1,0,0,0,0h-.3c0,0,0,.3,0,.3l.2.2h.4v.2c.1,0-.3,0-.3,0l.3.4h-.3c0-.1-.3-.6-.3-.6v.3c0,0-.4-.2-.4-.2l-.5-.3-.4-.3-.7-.4-.5-.4-.5-.4.2.3.5.3h.4c0,.1-.1.3-.1.3l.5.3v.2c0,0,.5.1.5.1l.2.3h.3c0,0,.1.3.1.3l.7.4.5.3h.3s.2.2.2.2l.4.3h.4s.5.4.5.4l-.3-.4h.5c0,.1.5,0,.5,0h.6c0,.1.2.1.2.1v-.2s-.5,0-.5,0l-.4-.3-.4-.3-.5-.3-.5-.4-.2-.3-.2-.3-.5-.5" style="fill: #000; stroke-width: 0px;"/>
  <path id="path108" d="M58.5,185.7h0l.6.5h.3c0-.1.3,0,.3,0l.2.2h.5s.1,0,.1,0h.5v-.3c0,0-.6-.2-.6-.2h-.4s-.5-.2-.5-.2h-.5s.3.3.3.3h-.1c0,.1-.5,0-.5,0" style="fill: #000; stroke-width: 0px;"/>
  <path id="path110" d="M51.3,134.1h.5c0,0,.2,0,.2,0v-.4s-.5,0-.5,0h.1c0,0,0,.5,0,.5h-.3" style="fill: #000; stroke-width: 0px;"/>
  <path id="path112" d="M45.7,130.4h0s.2.3,0,0" style="fill: #696566; stroke-width: 0px;"/>
  <path id="path114" d="M39.3,122.9h.2c0,0,.2.5.2.5l.3.2h.3c0,0,.2,0,.2,0h.3c0,0,0-.3,0-.3l-.3-.2-.3-.2-.4-.2h-.3s0,.2,0,.2" style="fill: #000; stroke-width: 0px;"/>
  <path id="path116" d="M36.4,118.4h0v.2s0,0,0,0h.1c0,0,.2,0,.2,0v-.3s-.2-.2-.2-.2l-.2.2" style="fill: #000; stroke-width: 0px;"/>
  <path id="path118" d="M35.1,117.9h0l.5.2v-.3c.1,0,.5.1.5.1h.3c0-.1.3-.3.3-.3l.3.2.5.2h-.4s.2.4.2.4l.4.2.5.2.2.3.3.2.4.3h.4s0,.3,0,.3v.4l.3.4.5.2v.4c0,0-.2.2-.2.2h-.2c0,.1.5.3.5.3h.4s.4.1.4.1l.4.2h.4c0,0,.3,0,.3,0h.4,0c0-.1-.2-.2-.2-.2l-.2-.4-.4-.2h-.3v-.4c.1,0-.2-.2-.2-.2l-.4-.2-.3-.5-.3-.2-.3-.4-.3-.4-.4-.3h-.3c0-.1-.2-.5-.2-.5l-.3-.2-.3-.3h-.4c0-.1-.3-.4-.3-.4h-.4c0-.1-.4,0-.4,0h-.4s-.3,0-.3,0h-.4c0,0-.3.3-.3.3v.3h-.4" style="fill: #000; stroke-width: 0px;"/>
  <path id="path120" d="M42.1,123.7h0l.5.4h.2c0,0,.4,0,.4,0l.3.2h.4l.4.2.3.5.3-.3v-.2h.4s0,.2,0,.2h.4s.5,0,.5,0h.4c0,.1.2.5.2.5l.3-.3-.3-.4-.6-.4h.4c0-.1-.5-.3-.5-.3v-.4c0,0-.5-.2-.5-.2l-.4-.2-.5-.2h-.3c0,0-.4-.3-.4-.3h-.4c0-.1-.3,0-.3,0h.4c0,0,.1.5.1.5v.3s.2.5.2.5h-.3c0,.1-.4,0-.4,0l-.3-.2-.4-.2h-.3" style="fill: #000; stroke-width: 0px;"/>
  <path id="path122" d="M47.6,125.7h0l.3.2h.7c0,0,.2,0,.2,0l-.2-.3h-.5c0-.1-.5-.2-.5-.2v.5" style="fill: #000; stroke-width: 0px;"/>
  <path id="path124" d="M40.2,116.4h0v.3l-.2.2.3.5v.5c.1,0,.3-.3.3-.3v-.4c-.1,0,0-.3,0-.3v-.5c0,0-.3,0-.3,0" style="fill: #000; stroke-width: 0px;"/>
  <path id="path126" d="M44,106.5l-.2.3h-.3c0,0,.3,0,.3,0l.2-.3" style="fill: #696566; stroke-width: 0px;"/>
  <path id="path128" d="M46.2,101.3h.5s.5,0,.5,0h.5c0-.1-.2-.4-.2-.4h-.4c0,0-.4,0-.4,0h-.4s-.1.2-.1.2" style="fill: #000; stroke-width: 0px;"/>
  <path id="path130" d="M55.6,92.4h0l.4.5v.4c0,0,.5.3.5.3l.5.2h.4c0,0-.1-.4-.1-.4l-.3-.3-.4-.3-.5-.2h-.5" style="fill: #000; stroke-width: 0px;"/>
  <path id="path132" d="M54.8,96.3h0v.4c.1,0,.5.4.5.4l.5.5v-.4c0,0,.5-.2.5-.2h-.6s-.4-.2-.4-.2l-.4-.3v-.5s-.2.3-.2.3" style="fill: #000; stroke-width: 0px;"/>
  <path id="path134" d="M49.1,71.9h.5c0,0,.8-.4.8-.4h0c0-.1-.4-.3-.4-.3h-.5c0,0-.5.6-.5.6" style="fill: #000; stroke-width: 0px;"/>
  <path id="path136" d="M51.3,72.4h0l-.4.9v.5c0,0,.6-.5.6-.5l.3-.6-.5-.2" style="fill: #000; stroke-width: 0px;"/>
  <path id="path138" d="M47.9,81h.4l-.6.4h.4c0,.1.4-.1.4-.1l-.2.6.4-.7v-.4s-.7.3-.7.3" style="fill: #000; stroke-width: 0px;"/>
  <path id="path140" d="M45.2,84.8h0l.3.3.3.4v-.6s-.2-.2-.2-.2h-.4" style="fill: #000; stroke-width: 0px;"/>
  <path id="path142" d="M58.7,95.7h0v.5h.6c0,0,.6.2.6.2h.5c0,0,.5.2.5.2l.5.2v.4c0,0-.5.2-.5.2l.5.2.5-.5h.3l.4.2-.3.5.5-.2v.5c-.1,0,.3,0,.3,0l.3-.5.2-.6h-.4l.3-.6h-.3c0,0-.4.5-.4.5v-.3c-.1,0,0-.4,0-.4l.7-.5h-.6s0-.5,0-.5l.5-.4-.4-.3h-.5c0,0-.5,0-.5,0l-.4-.5.4-.3-.4-.3-.6.3.4-.6.3-.4.5-.6.3-.6h-.4c0,0-.5.1-.5.1l-.3.4-.3.5-.5.6-.4.7-.5.5-.4.5.2.2-.5.3-.4.2" style="fill: #000; stroke-width: 0px;"/>
  <path id="path144" d="M48.2,68.9h0l.7.3-.3.8h.5c0,0,.7-.4.7-.4l.5-.4.4.2.3.5.3.7.8-.5-.4-.6v-.7l-.2-.7-.4-.7-.2-.9.2-.9-.9.5-.5.6-.5.9-.3.9-.8.4" style="fill: #000; stroke-width: 0px;"/>
  <path id="path146" d="M56.6,64.7h0v.9c-.1,0,.5,0,.5,0l.6-.3.4-.6v-.6l-.6-.2-.9.9" style="fill: #000; stroke-width: 0px;"/>
  <path id="path148" d="M53.8,55.3h0v.9s-.1,1-.1,1v.9s.5.9.5.9l.7.3.9.6h.6s.4,1,.4,1h.6c0-.1.9-.9.9-.9v.8s.4,1.2.4,1.2l-.7,1,.9-.4v1s.5.8.5.8l-.2.9v.8c0,0-.7.4-.7.4l-.7.5-.7.4.2.9-.8.4-.8-.3-.7-.5-.3.5h-.4s-.5.6-.5.6v.7s.9.3.9.3l.6-.3.5.3.5.6.4.4.4.5-.3.6.3.7.4.4.5.5v.4s.5.5.5.5l.5.4.6.3.2-.6-.3-.6-.3-.8-.3-.6v-.7l.6.6.4.7.5.7.8.2.5-1-.2-.8.2-.8-.2-.6-.4-.8v-.9s.5-1,.5-1l.7,1.1v1s.5.7.5.7l.5-.7h.8c0,0,.4-.7.4-.7l.7-.9-.2-.7-.4-.7-.4-.7-.3-.9-.9-.2-.5-.9.4-.8h.9c0,0-.3-1-.3-1l.5-.7v-1c0,0-.6-.8-.6-.8l-.3-1.3-.4-.6-.8-.4.5-.9v-.7c.1,0-.7,0-.7,0l-.4-.5-.4-.3-.9.4-.5-.2-.8.4.7-.9.2-.9.6-.8v-.6s-.6,0-.6,0l-1,.4-1,.6-.6.9-.5.7-.3.8v-.8c-.1,0,.2-.8.2-.8l.5-.8.6-.7.6-.4,1-.2-.6-.3-.7-.3-.7.3-.9.6-.7.6-.6.7-.6,1" style="fill: #000; stroke-width: 0px;"/>
  <path id="path150" d="M60.4,53.4h0l-.5.6-.3.9.5.5h.6c0-.1.7.4.7.4l.4-.5.3-.8-.3-.6-.6-.3h-.7" style="fill: #000; stroke-width: 0px;"/>
  <path id="path152" d="M54.9,48.3h0l.3.5.5.6.7-1,.2-.8-.5-.2-1.1.9" style="fill: #000; stroke-width: 0px;"/>
  <path id="path154" d="M57.9,44.5h0l-.5.7-.2,1h.9c0,.1,0,.8,0,.8l-.4.9-.7.7-.5,1,.5.8.7.4.7.4.8.3.9-.5.4.7h1s.7-.7.7-.7l.5-.8-.5-.8-.6-.2-.7-.5h-1.1c0,.1-.7-.4-.7-.4l-.2-.8.5-.3-.2-.6.2-.6-.7-.3v-.8c-.1,0-.7-.5-.7-.5" style="fill: #000; stroke-width: 0px;"/>
  <path id="path156" d="M63.2,38.6h0v.8c0,0-.5.9-.5.9l-.8.6-.6,1v.9c0,0,.9.5.9.5l1-.6,1-.9.9-.3.6-.8-.5-.5.9-.8v-.7c.1,0-.5-.5-.5-.5l.2-.8.6-1.1-.5-.3-.9,1-1.1.6-.9,1" style="fill: #000; stroke-width: 0px;"/>
  <path id="path158" d="M67.6,36h0l-.8,1.2v1l1,.4h1l1,.4h1.4c0,.1-1.2.5-1.2.5h-1.4s-.8.3-.8.3l-.5-.7-1.3,1.1.3.6-.7,1-.4.9h-.8l-1.5,1,.4.8-1.1-.2-.6.8.2.5h-.7s-.9.5-.9.5l-.6.8.6.5,1,.6h.7c0-.1.5.2.5.2h.7c0-.1-.2.6-.2.6l1.2-.2,1.1-.6v-1.1c-.1,0,1-.5,1-.5l.3-.7h1c0,0,1-.9,1-.9l.7-1.1,1.1-.9,1.4-.2,1.3-.9,1-.8,1.4-.6,1.6-.9.4-.6,1.1-.5.9-.5.4-.5-.5-.5v-.8c-.1,0-1-.6-1-.6l-.6-.7-.9-.3h-.9s-.7-.4-.7-.4h-1.6c0-.1-1.3.5-1.3.5l-1.3.3-.9.3-.5.5-.8-.3-1.4.8" style="fill: #000; stroke-width: 0px;"/>
  <path id="path160" d="M61.5,38.1h0l.4.6.4-1.1-.7.5" style="fill: #000; stroke-width: 0px;"/>
  <path id="path162" d="M58,38.4h0l-.2.5.3.6-.8.5v.6c-.1,0,.3.6.3.6l.5.2-.4,1h.7c0-.1.7,0,.7,0l.5.2.6-.5.3-.6-.2-1.1-.8.8-.8.8-.3-.3.5-.8.7-.8v-.9c0,0-.5-.3-.5-.3v-.6s-.5-.3-.5-.3l-.6.3" style="fill: #000; stroke-width: 0px;"/>
  <path id="path164" d="M58.6,43.1h0l.4.7.6.5.7-.3.3-.5-.9-.5h-1" style="fill: #000; stroke-width: 0px;"/>
  <path id="path166" d="M55.5,41.6h0l-.7,1,.3.4.4-.8.5-.6h-.5" style="fill: #000; stroke-width: 0px;"/>
  <path id="path168" d="M54,43.7h0l-.4.9-.4.7-.2.9h.9c0-.1-.5,1.1-.5,1.1l.9.5.9-.9.5-.8.6-.8-.2-.8-.6-.4-.7.4-.6.8.2-.9v-.7s-.4,0-.4,0" style="fill: #000; stroke-width: 0px;"/>
  <path id="path170" d="M51.9,46.5h0l.5.2.2-.8-.7.5" style="fill: #000; stroke-width: 0px;"/>
  <path id="path172" d="M49.7,50.8h0v.6c-.1,0-.5.8-.5.8l.5.2v.9c0,0-.3,1-.3,1l.9-.3h.8l.7-1,.5-1.1-.4-.6,1-.6.4-1-.7.2-.5-.4h-.6c0,0-.5.6-.5.6l-.2,1-.5-.4h-.5" style="fill: #000; stroke-width: 0px;"/>
  <path id="path174" d="M54,38.9h0l.6.3v.4s.5.2.5.2l.5-.2-.2-.7-.9-.3-.7.3" style="fill: #000; stroke-width: 0px;"/>
  <path id="path176" d="M52.8,39.2h0l-.2.5h.3s.5-.6.5-.6h-.7" style="fill: #000; stroke-width: 0px;"/>
  <path id="path178" d="M53.1,39.9h0l-.5.7.4.4h.9c0-.1.9-1,.9-1l-.4-.2h-.6c0,0-.6,0-.6,0" style="fill: #000; stroke-width: 0px;"/>
  <path id="path180" d="M47.7,42.6h0v.4c.1,0,.7-.4.7-.4l.7-.6h-.7c0,.1-.7.6-.7.6" style="fill: #000; stroke-width: 0px;"/>
  <path id="path182" d="M47.5,40.5h0l-.4.9.4.2.3.4.9-.4.7-.5v.6c0,0,1.2-.5,1.2-.5l.5-.7.8-.3v-.7c0,0-.7.4-.7.4l-.5-.4h-.6c0,0-.8.4-.8.4l-.9.5h-.8" style="fill: #000; stroke-width: 0px;"/>
  <path id="path184" d="M47.7,43.6h0l.3.5v.5c0,0,.9-.3.9-.3l-.2.8h-.7c0,0-.1.6-.1.6l.3.4h.5l.8-.2h.7c0-.1.7.4.7.4h.5c0,0,.7-.6.7-.6l.7-.7-.2-.5v-.9c0,0,.5-.9.5-.9l-.6.2-.8.5v.5s-.5.5-.5.5l-.3.7-.6-.5.4-.8v-.6c.1,0,0-.8,0-.8l-.4-.4-.8.5-.9.7-.9.6" style="fill: #000; stroke-width: 0px;"/>
  <path id="path186" d="M42.1,49.5h0v.6c.1,0-.4.5-.4.5v.7l.5.5.5.3v.8c.1,0-.6,0-.6,0l-.5-.3-.5-.2-.6,1,.2.7.5.3-.5,1.2.6.2.8.2h1.6s.8-.3.8-.3v.8l.2.7h.7c0,0,.8-.2.8-.2l.2-.7h.6c0,0,.5-.6.5-.6l-.5-.6-.3-.8v-.9l.8-.9.4-1,.4-.8.9-.6.7-.5v-.7s-.6-.3-.6-.3l-.9.7-.9.7-.2-.9h-.6v-.6c0,0-1,.3-1,.3l.6-1.1-.4-.3-.7.3h-.7s-.7.2-.7.2l-.4.5-.6.2-.6.7" style="fill: #000; stroke-width: 0px;"/>
  <path id="path188" d="M40.8,47.2h0v1c-.1,0-.6,1.1-.6,1.1h.7c0,0,.5,0,.5,0l.9-.6,1-1,.9-.2.9-.2.9-.2v-.9l.3-.9-.6-.4v-.8c-.1,0-1,0-1,0h-.7c0,0-.7,1-.7,1l-.8.8-.9.6-.8.5" style="fill: #000; stroke-width: 0px;"/>
  <path id="path190" d="M12.4,57.3h0v.3c0,0-.2,0-.2,0h.1c0,0,0-.4,0-.4" style="fill: #696566; stroke-width: 0px;"/>
  <path id="path192" d="M12.2,58.1h0c0,.1,0-.2,0-.2l-.2.2" style="fill: #696566; stroke-width: 0px;"/>
  <path id="path194" d="M12.5,58.3h0c0,0,.2-.1.2-.1l-.2.2h0" style="fill: #696566; stroke-width: 0px;"/>
  <path id="path196" d="M13.3,59.5h.4c0-.1.1-.2.1-.2l.2-.3h0c0,0-.6.5-.6.5" style="fill: #000; stroke-width: 0px;"/>
  <path id="path198" d="M13.8,59.4h.2s.2,0,.2,0l.2-.4v-.2s-.3.4-.3.4l-.3.2" style="fill: #000; stroke-width: 0px;"/>
  <path id="path200" d="M22.2,46.1h0l-.3.4v.2c.1,0-.1.7-.1.7h.3v-.4l.2-.5v-.4" style="fill: #000; stroke-width: 0px;"/>
  <path id="path202" d="M19.2,51.7h0l-.2.5v.3h.2l.2-.3v-.3s0-.1,0-.1h-.1" style="fill: #000; stroke-width: 0px;"/>
  <path id="path204" d="M18.4,59.1h0l-.3.9h.3c0,0,.3-.4.3-.4h.3s.2-.5.2-.5v-.2h.4s0-.5,0-.5l-.4.2-.4.2-.5.3" style="fill: #000; stroke-width: 0px;"/>
  <path id="path206" d="M21.5,69.6h0l-.4.7v.5l-.2.6v.6c0,0,0,.8,0,.8l.2-.7v-.5s.2-.3.2-.3l.2-.7.4-.5-.2-.2-.2-.3" style="fill: #000; stroke-width: 0px;"/>
  <path id="path208" d="M21,75.2h0v.8s0,.5,0,.5v.5c.1,0,0,.3,0,.3v.4c.1,0,.2.4.2.4h.2c0,.1-.1.5-.1.5l.2.5v.4h.4v-.6s0-.7,0-.7v-1.4s-.1-.4-.1-.4l-.2-.5v-.5c-.1,0-.4,0-.4,0" style="fill: #000; stroke-width: 0px;"/>
  <path id="path210" d="M69.1,45.8h0l.2.8h.6c0,0-.2.9-.2.9l.5.7h-.9l-.8.3.2.6.5.6-.6.3.2.7.7.7.8-.3,1,.2.9.2.5.9.7.5-.3.7v.8c.1,0,.3,1,.3,1l-.4,1v.9c.1,0,0,.9,0,.9l-.6,1v.9s-.6.9-.6.9v.5c.1,0,.9.1.9.1l.6-.5v1.1s.5.5.5.5v.9c0,0-.9-.7-.9-.7l-.8-.3-.6,1-.5,1,.5.8h1c0-.1.8-.8.8-.8v1.1s-.6,1.3-.6,1.3l-1-.2-.7.6-.5.9-.4,1v.9c0,0-.4.8-.4.8l.5,1v1l-.3.9.3.6v.7c-.1,0,.2,1.3.2,1.3v.5l.2.9v.9c.1,0,.6,1,.6,1l.9.3.6.4.3.7.8.6.5-.2.5-.7.2-.8.4-.7.5-.7v-1.1s.7-.5.7-.5l.7-.7.4-.8.2-.8v-1.1c-.1,0,.5.2.5.2l.4-.6h.9c0-.1,1,0,1,0l1-.5.7-.5.7-.5.5-.7.5-.7.7-.6.6-.4h.9c0,.1.9-.2.9-.2l.9-.2.9-.4.7-.4.8-.5.8-.5.5-.6-.8-.2-.8-.5-.9.4v-.5s.9-.4.9-.4v-.9l.7-.3v.6s0,.8,0,.8l.5.4h.9c0,0,.2-1,.2-1v-.8c.1,0-.3-.9-.3-.9l-.5-.7-.5-.7.7.5.8.5.3-.6v-1l-.6-.3.6-.4.4-.3h.8s.1-.8.1-.8l-.7-.4,1.4-.4.4-.8h-.8c0,0,.6-1.2.6-1.2v-1c.1,0,0-1.1,0-1.1l-.8-.3.2-.8.7-.5,1,.4.3-.7-.2-1.1-.3-.8.5-1.1v-1s.6-.6.6-.6l.4-.9.6-1,.9-1.1.9-.8,1.4-1.4-.6-1-1.4-.4-.9.8-.6-.3-.7.6-.9.5-1.2.4.8-1.1.9-.6.4-.4v-.8h-.9s-.2.8-.2.8h-.8c0,0,.3-.9.3-.9l-2-.2.9-.4,1.1.2h1.6c0-.1,1.1-.7,1.1-.7l-.6-.9-.9-.5-.2-.8-.8-1-1.7-.3-1.7-.4-1.7.5-2.1.3-1.4.9-.9,1-1.2-.4-.9,1.1-.9-1.1-2.3.2-1.6.6-.2.9-.6.6-.7-.3-.9.5-1.3.7-1,.9,1.1.3-.2.9-1.2,1.1h-1.5s-1.1.4-1.1.4h-1.1c0,0-.9.9-.9.9" style="fill: #000; stroke-width: 0px;"/>
  <path id="path212" d="M89.1,74.8h0l.5.2.6-.2.4.3-.6.5-.9.5h1c0,0,.3.9.3.9l-.6.6h1.3c0,.1.7.6.7.6l.9.3.9-.5h.7c0,0,.7-.6.7-.6l1-.4.6-.8v-1c0,0-.6-.5-.6-.5v-.9s-.6,0-.6,0l-.4-.5-.5.5-.6.2-.5-.3h-.7c0,0-.4.5-.4.5l-.4-.5-.2.9-.8.2v-1s-.4-.6-.4-.6l-.5-.2v.4s-.5,0-.5,0v.5c-.1,0-.6.5-.6.5" style="fill: #000; stroke-width: 0px;"/>
  <path id="path214" d="M95.3,56.7h0v.8c-.1,0,.5,0,.5,0l-.5-.8" style="fill: #696566; stroke-width: 0px;"/>
  <path id="path216" d="M145.4,164.2h0v.7l.2.3v.5s0,.5,0,.5l.3.4.3.2h.4c0,.1.4,0,.4,0l.4-.2.4-.2h.4l.3-.5.2-.4.2-.5.2-.3v-.4c0,0,.2-.4.2-.4v-.4c.1,0,.3-.4.3-.4l.2-.4.2-.4v-.4c0,0,.3-.4.3-.4l.2-.4.2-.5.2-.5v-.4c.1,0,.2-.5.2-.5v-.3s.3-.3.3-.3v-.4c0,0,0-.6,0-.6l.3.3.3-.5v-.4s-.1-.6-.1-.6l-.2-.4v-.5s-.2-.4-.2-.4l-.3-.4-.4.4v.4s-.1.4-.1.4l-.4.2h-.4c0,.1,0,.5,0,.5l-.3.3v.3s-.3,0-.3,0l-.4.5-.4.3-.5.3-.4.2-.5.3h-.4s-.3.7-.3.7l-.3.5v.5s.2.5.2.5v.3s.1.5.1.5v.4c0,0-.4.5-.4.5l-.2.4-.3.4-.3.5" style="fill: #000; stroke-width: 0px;"/>
  <path id="path218" d="M186.4,132h0s.4.1,0,0" style="fill: #696566; stroke-width: 0px;"/>
  <path id="path220" d="M187.3,132.8h0l.2.2.2.2v-.4l-.3-.3v.2" style="fill: #000; stroke-width: 0px;"/>
  <path id="path222" d="M188.2,134.4h0v.4s.2.1.2.1l.2-.2-.2-.5h-.1" style="fill: #000; stroke-width: 0px;"/>
  <path id="path224" d="M175.4,131.7h0v.9c0,0,.2.5.2.5l.2.3h.3c0-.1.4-.4.4-.4l.3-.4v-.5c.1,0,0-.5,0-.5l-.2-.3-.2-.4-.3-.4-.2-.4-.5-.2v.4c.1,0,0,.4,0,.4v.5s0,.4,0,.4" style="fill: #000; stroke-width: 0px;"/>
  <path id="path226" d="M192.7,113.4h0v.4s.1.4.1.4h.3s.2,0,.2,0l.2-.4v-.4c.1,0,.1-.5.1-.5v-.4c.1,0,0-.3,0-.3l-.3.2h-.3c0,.1-.2.4-.2.4l-.2.5-.2.4" style="fill: #000; stroke-width: 0px;"/>
  <path id="path228" d="M197.8,105.7h0v.5c0,0,.3.5.3.5h.2s.1.4.1.4v-.6s0-.5,0-.5v-1.1s0-.6,0-.6v-.5c0,0-.3,0-.3,0l-.2.4v.5s0,.5,0,.5v.5" style="fill: #000; stroke-width: 0px;"/>
  <path id="path230" d="M199.4,93.4h0l.2.4h.2c0-.1,0-.5,0-.5l.2.2v.4c0,0,0,.4,0,.4v.4c.1,0,.2.4.2.4h.3s.1-.5.1-.5v-.5c-.1,0-.2-.5-.2-.5v-.5l-.2-.4v-.4c-.1,0-.3.2-.3.2v-.2c-.1,0-.3.3-.3.3v.5s-.2.5-.2.5" style="fill: #000; stroke-width: 0px;"/>
  <path id="path232" d="M200.4,92.3h0l.2.5h.2v-.4s0-.3,0-.3v-.4c.1,0,.3.1.3.1v-.8s0-.3,0-.3h-.2s-.1.3-.1.3v.4h-.2c0,0,0,.5,0,.5v.4" style="fill: #000; stroke-width: 0px;"/>
  <path id="path234" d="M199.7,91.8h0v.4c.1,0,.3-.3.3-.3h.2c0,0,0-.5,0-.5l.2-.3v-.4c.1,0,.3-.2.3-.2v-.5c.1,0,.3,0,.3,0l.2-.2v.9c.1,0,.4.4.4.4h.1v-1.3s-.1-.2-.1-.2v-.4s.3.2.3.2l.3-.3v-.7l.2.5v-.8c-.1,0,0-.1,0-.1v-.4s.1.6.1.6v-.5c0,0,0-.4,0-.4v-.4s-.1-.4-.1-.4l-.2-.6v-.3s-.2-.6-.2-.6l-.2-.5v-.3s0-.1,0-.1l-.2-.5v-.5s-.2-.6-.2-.6l-.2-.5-.3-.3-.2-.4v-.4c-.1,0-.4,0-.4,0v.4c0,0,.2-.1.2-.1v.3c0,0,0,.1,0,.1h-.2c0-.1,0,.5,0,.5v.4c.1,0,.3.4.3.4l.2.5v.5c0,0,.1.5.1.5v.6c.1,0,0,.4,0,.4v.5s0,.4,0,.4v.4c0,0-.2.5-.2.5v-.3c0,0-.2-.5-.2-.5v.4s0,.5,0,.5v.5s0,.5,0,.5v.5c.1,0,0,.3,0,.3h-.2c0-.1-.2.2-.2.2l-.2.3-.3.3-.2.2v1c0,0-.1.4-.1.4v.3" style="fill: #000; stroke-width: 0px;"/>
  <path id="path236" d="M199.6,80.4h0v.4c.1,0,.3.2.3.2l.2.6v-.5s.1-.4.1-.4h-.2c0,0-.2-.1-.2-.1v-.3c0,0,0,0,0,0h.2c0,0,0-.2,0-.2v-.3c0,0,.4.1.4.1h.3v-.4c0,0-.2-.5-.2-.5v-.5h.2c0-.1,0-.6,0-.6v-.4s0,.3,0,.3v-.3c0,0-.2,0-.2,0l-.2-.6v.6h-.2c0,0-.2,0-.2,0h-.3c0-.1-.2-.3-.2-.3l-.3-.3-.3-.2v.4l.3.5.2.5v.4c.1,0,.1.4.1.4l.2.3v.3c0,0,0,.2,0,.2h-.2s.2.4.2.4v.5" style="fill: #000; stroke-width: 0px;"/>
  <path id="path238" d="M200.7,77.2h0v-.4s0-.4,0,.4" style="fill: #696566; stroke-width: 0px;"/>
  <path id="path240" d="M192.2,67.5h0l.3.2v-.7h-.4v.5" style="fill: #000; stroke-width: 0px;"/>
  <path id="path242" d="M194.7,54.9h0l-.2-.9-.2-.2v.4c0,0,.5.7.5.7" style="fill: #000; stroke-width: 0px;"/>
  <path id="path244" d="M194.5,67.9h0l.4.7.3.6.3.6.3.3.3.4.3.6.3.5.3.6.2.5v.4c.1,0,.3.2.3.2l.3.5v.5c.1,0,.5.7.5.7v.5c.1,0,.5.7.5.7l-.2-.6v-.4s.1,0,.1,0l.3.2-.3-.5h-.1s-.2-.4-.2-.4h-.2c0-.1-.2-.5-.2-.5l-.3-.6v-.5c-.1,0-.3-.4-.3-.4v-.4s0-.2,0-.2h.3c0,0-.3-.3-.3-.3l-.4-.5-.3-.5-.4-.5-.3-.5-.4-.5-.3-.6-.3-.6-.4-.5-.4-.5-.3-.3v.2s.3.4.3.4v.4c0,0,.1.4.1.4" style="fill: #000; stroke-width: 0px;"/>
  <path id="path246" d="M181.2,33.8l.6.9.4.4-.2-.5-.8-.7" style="fill: #000; stroke-width: 0px;"/>
  <path id="path248" d="M30.9,34.6v.4c-.1,0,.3.1.3.1l.5-.7v-.5l-.8.7" style="fill: #000; stroke-width: 0px;"/>
  <path id="path250" d="M173.9,41.3h.6c0,.1.5-.2.5-.2l-.5-.5-.9-.4v.5c-.1,0,.3.6.3.6" style="fill: #000; stroke-width: 0px;"/>
  <path id="path252" d="M172.6,40.2h0l.5.5v-.3s-.4-.4-.4-.4l-.2.2" style="fill: #000; stroke-width: 0px;"/>
  <path id="path254" d="M171.6,36.6h0l1,.6h.9s.2-.3.2-.3l-.6-.8-.6.2-.5.3h-.4" style="fill: #000; stroke-width: 0px;"/>
  <path id="path256" d="M170.3,39.3h0l1,.6h.4c0-.1,0-.7,0-.7v-.6s.5,0,.5,0l-.2-.7-.4-.8-.4-.4h-.6c0,.1-.8,0-.8,0l.5.9-1.2-.2v.8c.1,0,1.2,1.2,1.2,1.2" style="fill: #000; stroke-width: 0px;"/>
  <path id="path258" d="M154.8,42.2h0l.2-.8.8-.4.3-.6-.9-1-1-.5-.9-.3v.5s.5.9.5.9l.6,1.2.5.9" style="fill: #000; stroke-width: 0px;"/>
  <path id="path260" d="M148.2,39h0l1,.8h1s1,.8,1,.8h1.9c0,0,.4-.4.4-.4l-.8-.8-.5-1-.9-.5h-.9c0,0-.8-.7-.8-.7l-.3-.6-.9-.4-.8-.5v1.1c-.1,0,.5,1,.5,1l.2,1.1" style="fill: #000; stroke-width: 0px;"/>
  <path id="path262" d="M139,61.6h0l.9.6.8.5h1c0,0,1,0,1,0l.3-.4-1-.5-.6-.7-.5-.9-.3-.9v-.9s.2-.9.2-.9v-.9c.1,0,.2-.9.2-.9l.3-.9v-.9c0,0,.6-.9.6-.9l.5-.9.7-.5.6-.7.5-.7-.4-1.1-.8-.2-.6.8v.8s-.9.6-.9.6l-1,.2-.6.9-.3.8v.6c-.1,0-.9.7-.9.7l.3.6v1.3l-.3,1,.5.6-.5.6v1s.3.6.3.6l-.5.6.3.9" style="fill: #000; stroke-width: 0px;"/>
  <path id="path264" d="M138.9,67h0l.7-.5v-.6s-.9-.5-.9-.5l-.2.6.4.9" style="fill: #000; stroke-width: 0px;"/>
  <path id="path266" d="M133.8,43.4h0l.8-.2.3-.9h1.1s.2-.5.2-.5l-.6-1.1h.7s.4-.5.4-.5l-.9-.9-.4.8.2.6-1,.6.3.9h-.9c0,0-.2,1-.2,1" style="fill: #000; stroke-width: 0px;"/>
  <path id="path268" d="M132.2,41.9h0l1.1.2.7-.6-.6-.4v-.9s-.6-1-.6-1l-.4,1,.5,1h-.7c0,.1,0,.8,0,.8" style="fill: #000; stroke-width: 0px;"/>
  <path id="path270" d="M132.4,43.3h0l.8-.3-.7-.4v.7" style="fill: #000; stroke-width: 0px;"/>
  <path id="path272" d="M128.1,43.3h0l.6.3h.6c0-.1.3.5.3.5h.8c0,.1.7-.2.7-.2l-.3-.7.2-.7-.5-.2-.8.8-.2-.5-.6-.3-.8,1" style="fill: #000; stroke-width: 0px;"/>
  <path id="path274" d="M112.1,47h0v1c0,0,.6,1.5.6,1.5l.9,1.1h1.1s-.7.6-.7.6l.3,1,.8,1,1.2,1.1v-1.1s.3-1.1.3-1.1l.3-1.3v-.9c0,0,.5-.5.5-.5l.4,1,.6.6-.3,1.1,1.1.3,1-1.2-1.1-.7-.7-.7-.5-.9-1.4-.7-.4-1.3,1.3.8,1.6.3.8-.7.5-1.2-.2-.7h-1.1c0,0-1-.5-1-.5l-.9.7-.6-.8-.9.7v.8c.1,0-.8-.2-.8-.2l-.3.9-.9-.4-1.4.3" style="fill: #000; stroke-width: 0px;"/>
  <path id="path276" d="M100.7,87.8h0l.7-.6.2-.7-.7.5v.5l-.2.4" style="fill: #000; stroke-width: 0px;"/>
  <path id="path278" d="M114.3,90.8h0l.3.5h.5v-.5l-.4-.3-.4.2" style="fill: #000; stroke-width: 0px;"/>
  <path id="path280" d="M115.3,90.4h0v.7c.1,0,.6,0,.6,0l.5-.2-.2-.2.3-.4-.2-.5-.5.3-.5.3" style="fill: #000; stroke-width: 0px;"/>
  <path id="path282" d="M115.3,91.6h0l.3.4h.4c0-.1.2-.4.2-.4h-.4c0,0-.5,0-.5,0" style="fill: #000; stroke-width: 0px;"/>
  <path id="path284" d="M120.6,87.5h0l.2.6.4-.3v-.6c0,0,.2-.4.2-.4l-.6.3-.2.4" style="fill: #000; stroke-width: 0px;"/>
  <path id="path286" d="M123.4,86.1h0l.3.3.4-.3.4-.3h-.7c0-.1-.3.3-.3.3" style="fill: #000; stroke-width: 0px;"/>
  <path id="path288" d="M123.7,85.3h0v.3c0,0,.5-.2.5-.2l-.5-.3v.3" style="fill: #000; stroke-width: 0px;"/>
  <path id="path290" d="M101.8,98.1h.4c0,0,.5-.3.5-.3l.7.2v-.5c.1,0,.7,0,.7,0l.6.2.5-.3h.6c0,0,.6,0,.6,0l.7-.2.4-.5h-.7c0,0,.3-.7.3-.7l.5-.3.2-.5-.2-.5-.5-.2h-.3l-.3.3-.2-.2.3-.4v-.5c-.1,0-.3-.3-.3-.3v-.5c-.1,0-.4-.6-.4-.6l-.5-.2-.2-.6v-.7c-.1,0-.4-.4-.4-.4l-.5-.2h-.5l.4-.4.4-.5.3-.6.2-.5v-.5h-1.8c0,0,.3-.5.3-.5l.6-.5v-.4c0,0-.8.1-.8.1h-.7l-.3.6-.3.5v.5c0,0-.5-.2-.5-.2l-.3.2.3.4h.5l-.4.7v.5l.5-.2v.6c0,0-.6.5-.6.5h.5v.5s.4-.6.4-.6l.3.5-.4.8.3.5.6-.2.6-.2-.3.6.4.5h.4l-.3.6v.5h-.5c0,.1-.8,0-.8,0v.3c.1,0-.1.5-.1.5h.5s0,.7,0,.7l-.4.2-.5.3v.4c.1,0,.7-.1.7-.1h.4c0,.1.4.5.4.5l.6-.3-.3.5h-.9l-.4.5-.4.4-.5.4" style="fill: #000; stroke-width: 0px;"/>
  <path id="path292" d="M98,95.2h0l.2.5.4.4h.7c0,0,.6-.3.6-.3l.6-.4h.7c0,0,.2-.6.2-.6v-.6c.1,0,0-.7,0-.7v-.5c-.1,0,.5-.5.5-.5v-.7c-.1,0-.4-.5-.4-.5h-.5c0-.1-.6-.3-.6-.3l-.6.2-.4.6.4.2-.3.4h-.5s-.5,0-.5,0l-.2.5.4.2-.4.3.4.5h.4l-.4.7-.2.6h-.5" style="fill: #000; stroke-width: 0px;"/>
  <path id="path294" d="M113.9,107.4h0v.5s0,.4,0,.4l.5.5v-.6c.1,0,.2-.4.2-.4v-.4s0-.6,0-.6l-.2.4-.5.2" style="fill: #000; stroke-width: 0px;"/>
  <path id="path296" d="M113.6,109.2h0v.4l.2.5v1.1s.3.4.3.4l.3-.4h.4v-.5c.1,0,.2-.5.2-.5v-.9c0,0-.5-.5-.5-.5l-.4.4h-.3c0,.1-.2,0-.2,0" style="fill: #000; stroke-width: 0px;"/>
  <path id="path298" d="M117.3,112.5h0l.3.5h.3l.6.3h.5c0,0,.3.5.3.5h.6s.1-.3.1-.3l-.2-.4v-.6c.1,0,.4-.5.4-.5l-.6.2h-.6c0,.1-.5.2-.5.2l-.4-.2h-.4s-.4.3-.4.3" style="fill: #000; stroke-width: 0px;"/>
  <path id="path300" d="M125,112.2h0l.5.3v.5s.1.2.1.2h.4l.2.4.3-.4.4.3-.3-.6-.2-.5h.5s-.3-.5-.3-.5l-.5-.2-.5-.2-.5.2-.2.4" style="fill: #000; stroke-width: 0px;"/>
  <path id="path302" d="M127.3,114.9h.4s.5,0,.5,0l.3.2h.6c0,0,.5-.2.5-.2v-.3c0,0-.4.2-.4.2v-.3h-.5c0,0-.4,0-.4,0h-.4c0,.1,0,0,0,0h-.5s0,.4,0,.4" style="fill: #000; stroke-width: 0px;"/>
  <path id="path304" d="M134.9,114.3h0v.3c.1,0,.7,0,.7,0l.4-.2v-.3c.1,0,.5,0,.5,0v-.2c-.1,0,.3-.5.3-.5l-.5.3h-.4c0,.1-.4.3-.4.3l-.2.2-.4.2" style="fill: #000; stroke-width: 0px;"/>
  <path id="path306" d="M108.4,110.8h.4c0,0,.3.4.3.4l.3-.5-.5-.3-.6.4" style="fill: #000; stroke-width: 0px;"/>
  <path id="path308" d="M130.8,113.4h0v.3c0,0,.4-.3.4-.3v-.4c.1,0-.4.4-.4.4" style="fill: #000; stroke-width: 0px;"/>
  <path id="path310" d="M129.1,110.2h.2c0-.1,0,.1,0,.1h-.2" style="fill: #696566; stroke-width: 0px;"/>
  <path id="path314" d="M193,157.4h.2v.3h.3l.2-.2.3-.2.3-.2.2-.3.3-.4h.2c0-.1.2-.6.2-.6l.2-.2.3-.3.3-.2.3-.2.3-.2h.2c0-.1.2-.3.2-.3l.3-.4v-.5c.1,0,.5-.4.5-.4l.2-.3.4-.5.2-.3h.3c0-.1.3-.4.3-.4l.2-.2.3-.4.2-.3.3-.3.2-.2.2-.2.2-.2h.2s.2-.1.2-.1h.2s.1,0,.1,0h0c0,0-.1.5-.1.5h.1v.4c0,0-.1.3-.1.3v.3c0,0-.1.3-.1.3l.2-.4.3-.5.2-.4.2-.4.2-.5.2-.4-.2.6-.3.5-.2.5v.4c-.1,0-.3.3-.3.3v.3c0,0,0-.2,0-.2h.1c0-.1.2-.6.2-.6l.2-.5v.5c0,0-.3.4-.3.4v.3c-.1,0,0-.3,0-.3h0c0,0,0,.4,0,.4v.3s-.2.3-.2.3v.2c0,0,0,.2,0,.2v.2h0c0-.1,0,0,0,0l.2-.3h0c0,0,0-.1,0-.1h0s0,0,0,0l.3-.5.2-.4.3-.5-.2.5.2-.3v.3c-.1,0-.1,0-.1,0h0c0,0,.3-.5.3-.5l.2-.4.3-.5v-.3c.1,0,.3-.3.3-.3l.2-.2.2-.4.2-.4v-.4c.1,0,.4-.5.4-.5l.2-.5.3-.6v-.4c.1,0,.4-.6.4-.6l.2-.5v-.4c.1,0,.4-.5.4-.5v-.4c.1,0,.3-.5.3-.5l.2-.5.2-.5.2-.5v-.4c0,0,.3-.6.3-.6v-.5c.1,0,.3-.5.3-.5v-.4c0,0,.2-.4.2-.4v-.5c0,0,.2-.4.2-.4v-.5c.1,0,.2-.4.2-.4v-.5s0-.3,0-.3v-.3s0-.3,0-.3h0s0-.1,0-.1v-.3s.2-.4.2-.4h0v-.2.4c-.1,0,0-.4,0-.4v-.4s0-.2,0-.2h0c0,0,0-.5,0-.5h0s0-.1,0-.1v-.2s-.1,0-.1,0h-.1s0-.3,0-.3v-.6c0,0,.1-.4.1-.4v-.2s0-.3,0-.3v-.5s0-.4,0-.4v-.4s0-.1,0-.1v-.2s-.2.3-.2.3h0v-.9c0,0,0-.4,0-.4v-1.2h0s-.1.4-.1.4v.5s-.2.4-.2.4v.5s0,.3,0,.3v.5c0,0-.2.5-.2.5v.4s0,.4,0,.4v.5c0,0-.2.5-.2.5v.5c-.1,0-.3.5-.3.5v.4s-.3.4-.3.4v.2c-.1,0-.3-.1-.3-.1v-.3s-.2,0-.2,0h-.2c0,0,0-.2,0-.2l-.3.3v-.4h-.2c0-.1,0-.5,0-.5v-.4c.1,0,.2-.4.2-.4v-.5s.3-.2.3-.2v-.4c0,0,.2-.5.2-.5h-.1c0,0-.2.5-.2.5v-.3s-.3.4-.3.4h-.2s-.2.1-.2.1h-.2c0,.1-.2,0-.2,0h-.2c0,0,0,.4,0,.4v.5c-.1,0-.4.2-.4.2l-.2.2-.3.6v.4c-.1,0-.1.3-.1.3l-.2.2v.4c-.1,0-.4.5-.4.5h.2c0,0-.1.5-.1.5h-.2c0,0-.1,0-.1,0l-.3.5v-.5s0-.1,0-.1v-.2c-.1,0-.4.1-.4.1v.4c-.1,0-.4.2-.4.2v.4c0,0-.4.2-.4.2v.4c0,0-.4.5-.4.5v.5c0,0-.3.5-.3.5h-.2s-.1.5-.1.5v.2c.1,0-.1.5-.1.5v-.3s0-.4,0-.4l-.2.6-.3.5v.5l-.3.5-.2.5-.2.4-.2.5-.3.2-.3.4-.3.2-.3.4-.2.2-.3.4-.3.2h-.2c0,.1-.3.5-.3.5l-.2.4-.2.5-.2.3-.3.4-.2.4v-.4s-.2.5-.2.5l-.2.4v.3s0,.4,0,.4l-.3.5v.4s0,.5,0,.5v.3s0,.3,0,.3v.5c0,0-.3-.1-.3-.1v-.3s0,.7,0,.7l-.2-.2v.4h.1v1c0,0,0,.3,0,.3v.3s0,.4,0,.4v.4c-.1,0-.2.4-.2.4v.9s-.1.5-.1.5l-.2.5v.3s-.2.3-.2.3l-.2.2-.2.5" style="fill: #000; stroke-width: 0px;"/>
  <path id="path316" d="M203.6,133.4h0l.2-.2h0s.3-.5.3-.5h0c0-.1-.3.2-.3.2h-.1v.5" style="fill: #000; stroke-width: 0px;"/>
  <path id="path318" d="M201.2,151.9h0c0,.1.2,0,.2,0l.2-.4h-.1l-.2.3v.2" style="fill: #696566; stroke-width: 0px;"/>
  <path id="path320" d="M201.8,153.4h0l-.2.5-.2.5v.3c0,0-.2.3-.2.3v.4c-.1,0-.2.2-.2.2h0s0,0,0,0l.3-.5.3-.4h0c0,0,.3-.4.3-.4l.2-.5v-.2c0,0,.3-.4.3-.4l.2-.5h0s-.2.3-.2.3l-.2.4v.2c-.1,0-.2,0-.2,0h0" style="fill: #000; stroke-width: 0px;"/>
  <path id="path322" d="M186,129.6h0v.4c0,0,.3.3.3.3l.3.2.3.3h.2l.2.3.3.2v.4c.1,0,.5,0,.5,0h.3v.8c.1,0,.2.5.2.5h.4s0,.3,0,.3l.3.2v.3s.2.4.2.4v.3s.3.3.3.3l.2.4h.3c0,.1,0,.4,0,.4l.2.2.4.2h.3c0,.1.2.5.2.5h.2v-.2c0,0,.4-.1.4-.1h.2c0,0,0-.4,0-.4v-.5c0,0,0-.4,0-.4v-.6l.2-.5v-.2c-.1,0-.3-.2-.3-.2h-.3c0,.1,0-.2,0-.2h-.2c0,0,0-.6,0-.6l-.3.2-.2-.2.2-.4v-.4s-.2-.2-.2-.2h-.2c0,.1,0-.3,0-.3h-.2s-.3-.2-.3-.2h-.3s-.3-.2-.3-.2l-.3.2-.3-.3-.2-.3h-.3c0-.1-.3-.2-.3-.2h-.3c0-.1-.2-.4-.2-.4v-.3c-.1,0-.4-.2-.4-.2h-.4c0,.1-.4.3-.4.3h-.3c0-.1-.4,0-.4,0" style="fill: #000; stroke-width: 0px;"/>
  <path id="path324" d="M192.1,137.1h.3s.3,0,.3,0v.3s.2,0,.2,0h.3c0-.1.2,0,.2,0h.3c0-.1.2-.3.2-.3l.3-.2h.2s.2,0,.2,0h.3c0,0,.3-.2.3-.2l.3-.2h.2l.3-.4h.7v-.9s-.2,0-.2,0l-.3.3h-.3s0-.3,0-.3h-.1c0-.1-.3,0-.3,0h-.3s-.3,0-.3,0l-.2.5h-.2c0,.1-.3.2-.3.2h-.3c0,.1-.2.2-.2.2v-.3c-.1,0-.4,0-.4,0h-.3s-.2,0-.2,0l-.2.3h-.3s-.2.5-.2.5l-.2.4" style="fill: #000; stroke-width: 0px;"/>
  <path id="path326" d="M196.8,135.6h.2v.2c.1,0,.4-.5.4-.5h-.2s-.5.4-.5.4" style="fill: #000; stroke-width: 0px;"/>
  <path id="path328" d="M197.6,135.7h.2c0-.1.3-.2.3-.2l.3-.2.2-.3.2-.2.2-.2.3-.3h.2l.2-.2h.2c0,0,.2-.3.2-.3h.2c0-.1.2-.4.2-.4l.3-.3.3-.4h-.3c0,.1-.3.7-.3.7h-.1s-.3.2-.3.2h-.4s-.3.4-.3.4l-.2.4h-.2c0,0-.3,0-.3,0h-.3c0,0,0,.4,0,.4h-.2s-.3.3-.3.3h-.2l-.2.3v.5" style="fill: #000; stroke-width: 0px;"/>
  <path id="path330" d="M201.5,132.5h0l.4-.5h-.3c0,0,0,.5,0,.5" style="fill: #000; stroke-width: 0px;"/>
  <path id="path332" d="M202.2,131.5h0l.2-.2v-.5c.1,0-.1.3-.1.3v.3" style="fill: #000; stroke-width: 0px;"/>
  <path id="path334" d="M198.9,135.2h0v.2c0,0,.3-.2.3-.2h.1s.2.2.2.2l.2-.4v-.2c-.1,0-.4,0-.4,0h-.2c0,.1-.3.4-.3.4" style="fill: #000; stroke-width: 0px;"/>
  <path id="path336" d="M201,134.4h0l.2-.2.2-.3.2-.6.2-.5.2-.3.2-.3.2-.4v-.4c.1,0,0,.2,0,.2l-.2.2-.3.3-.2.4v.4c-.1,0-.4.3-.4.3l-.2.3v.4c-.1,0-.2.6-.2.6" style="fill: #000; stroke-width: 0px;"/>
  <path id="path338" d="M204.3,129.7h0l.2-.5v-.4.4c-.1,0-.2.5-.2.5" style="fill: #000; stroke-width: 0px;"/>
  <path id="path340" d="M205.5,127.8h0l.2-.5v-.5c0,0,0-.4,0-.4v.5c0,0-.2.5-.2.5v.5" style="fill: #000; stroke-width: 0px;"/>
  <path id="path342" d="M192,133.2h.3c0,0,.1,0,.1,0v.4s.4,0,.4,0v-.5s-.1,0-.1,0v-.3c0,0-.2-.4-.2-.4l-.3.2-.2.4" style="fill: #000; stroke-width: 0px;"/>
  <path id="path344" d="M193.4,133.4h.2s.1-.5.1-.5h-.3s0,.5,0,.5" style="fill: #000; stroke-width: 0px;"/>
  <path id="path346" d="M196.1,135.1h.3c0-.1.3-.3-.3,0" style="fill: #000; stroke-width: 0px;"/>
  <path id="path348" d="M194.1,129.6h0v.4s.2.2.2.2v.4h.3c0,.1.2.5.2.5v.9c0,0,0,.5,0,.5h.3c0-.1.3-.4.3-.4l.2-.3v.6s.3-.3.3-.3h.2c0-.1.2-.5.2-.5h.3c0,0,.3-.1.3-.1v.2c.1,0,.2.3.2.3l.2-.3.2-.4.3-.4v-.5c0,0,.3-.7.3-.7l-.2-.3.2-.5.2-.4v-.5c0,0,.1-.5.1-.5v-.5c0,0,.2-.4.2-.4l.2-.2.3-.3v-.2c-.1,0-.4-.1-.4-.1l-.2-.2v-.4c0,0,0-.2,0-.2v-.4c0,0,0-.5,0-.5v-.5l.3-.4v-.3c-.1,0,0-.3,0-.3l.2-.3h-.3s-.2-.1-.2-.1h-.3v-.5h-.3c0,0-.1-.2-.1-.2v.5c-.1,0-.4.5-.4.5v.4c0,0-.4.6-.4.6v.4s-.3.2-.3.2l-.2.4-.3.6-.2.5v.4c-.1,0-.4.4-.4.4l-.3.3-.3.2v.6c0,0-.2.6-.2.6h-.3c0,0-.3.2-.3.2h-.3c0,0-.2.4-.2.4v.6" style="fill: #000; stroke-width: 0px;"/>
  <path id="path350" d="M199.2,129.6h0v.5s.3-.2.3-.2v.4s0,.5,0,.5v.5c0,0,0,.3,0,.3h.2c0-.1.3-.4.3-.4v-.4s0-.5,0-.5v-1.2s.1-.4.1-.4l.2-.2v.7c0,0,0,.3,0,.3h.2s0,.5,0,.5h.2l.2-.3v.6s0,.2,0,.2l.3-.5v-.7c-.1,0-.3-.3-.3-.3h-.2c0-.1.2-.5.2-.5v-.3c-.1,0-.2-.2-.2-.2l-.2-.3.3-.4.2-.4.2-.5.3-.2v-.2c-.1,0-.4.4-.4.4l-.2.3-.2.2-.2.5h-.2c0,.1,0-.2,0-.2h-.2v-1c0,0,.3-.2.3-.2h.1s.2-.3.2-.3l.3-.2.2-.2.2-.2h.2l.2-.3.3-.3.2-.6v-.4c0,0,0-.1,0-.1v.3c-.1,0-.3.4-.3.4l-.2.4-.2.2-.2.2h-.4c0,.1-.3.2-.3.2h-.2s0,.6,0,.6l-.3.2v.3s0,.5,0,.5v.4l-.2.4v.4s0,.5,0,.5v.5c0,0-.3.5-.3.5" style="fill: #000; stroke-width: 0px;"/>
  <path id="path352" d="M203,123.4h0v.3c0,0,.1.3.1.3v.4s0,.2,0,.2h.2c0,0-.2-.2-.2-.2v-.3s0-.5,0-.5l.2-.2v-.2c0,0,0-.4,0-.4v-.5l-.2.4v-.3c-.1,0,0-.4,0-.4l-.2.4v.4s0,.4,0,.4" style="fill: #000; stroke-width: 0px;"/>
  <path id="path354" d="M202.4,127.5h0v.2h.3v-.4c.1,0,0-.3,0-.3h-.2c0,0-.2.4-.2.4" style="fill: #000; stroke-width: 0px;"/>
  <path id="path356" d="M203.2,126.8h.2l.2-.2h.2c0,0,.3-.3.3-.3h.2s0-.3,0-.3v-.2c0,0-.3.2-.3.2h-.1s-.2.2-.2.2l-.3.2-.2.4" style="fill: #000; stroke-width: 0px;"/>
  <path id="path358" d="M201.8,126.7h0s.3-.2,0,0" style="fill: #696566; stroke-width: 0px;"/>
  <path id="path360" d="M203,125.7h0l.3-.3h-.2c0,0,0,.3,0,.3" style="fill: #000; stroke-width: 0px;"/>
  <path id="path362" d="M204.2,123.4h.1c0,0,.2-.2.2-.2h-.2s-.1.2-.1.2" style="fill: #000; stroke-width: 0px;"/>
  <path id="path364" d="M206.1,122h0l.2.3v-.2c.1,0,0-.2,0-.2l-.2.2" style="fill: #000; stroke-width: 0px;"/>
  <path id="path366" d="M204.4,124.2h.2s.1-.1.1-.1v.4h.2c0,0,.2,0,.2,0l.2-.3.2-.4v.5c0,0-.3.2-.3.2l-.2.4h-.2c0,0,0,.3,0,.3h0s.2,0,.2,0v.6s.2-.1.2-.1l.2-.6h.1c0,.1.2.2.2.2h.1s.2,0,.2,0h.2s.2,0,.2,0h.2c0,0,.1,0,.1,0h0c0,.1,0,.5,0,.5v.8s-.1.3-.1.3v.4c0,0-.3.6-.3.6l.2-.2.2-.4.2-.2.2-.3v.2s.1.2.1.2h0c0,.1.2,0,.2,0v-.2c.1,0,.3,0,.3,0l.2-.5v-.3c0,0,0-.3,0-.3v-.3c.1,0,.2-.3.2-.3v-.5c.1,0,.3-.2.3-.2h.3c0,0,0,.3,0,.3v.2s.1.2.1.2h0c0,.1,0,.4,0,.4h0c0-.1.2-.3.2-.3h.1c0-.1,0-.3,0-.3v.2s.2-.3.2-.3v-.4c0,0,0,.1,0,.1h0v-.4c0,0,0,.1,0,.1h-.1s0-.4,0-.4l-.2.3v-.3s0-.5,0-.5h0v-.3c-.1,0-.1-.3-.1-.3v-.2c0,0,.2-.2.2-.2v-.4s0-.1,0-.1v.3c-.1,0-.3,0-.3,0h-.1c0,0,0-.4,0-.4v-.2s-.2,0-.2,0h-.1c0,0-.1-.1-.1-.1h-.1s-.1,0-.1,0h-.5s-.1,0-.1,0h-.3c0,.1-.2.2-.2.2h-.1s-.2,0-.2,0h-.2l-.2.5v.5c0,0-.3.2-.3.2v.5c-.1,0-.2.4-.2.4v.5c-.1,0-.3.1-.3.1h-.1c0-.1,0-.5,0-.5h-.1v-.4c0,0,0-.5,0-.5v-.5c0,0-.3.2-.3.2h-.2c0-.1-.3,0-.3,0v.4c0,0-.3.4-.3.4l-.2.5" style="fill: #000; stroke-width: 0px;"/>
  <path id="path368" d="M198.7,112.6h0v.5c0,0,.2.3.2.3v.5c0,0,.4,0,.4,0v-.3h.2c0,.1,0,.5,0,.5v.4s.3,0,.3,0l.2-.5h.2s.3.4.3.4v-.4s0-.3,0-.3h.2s.2.5.2.5h.2v-.2c.1,0,0-.2,0-.2v-.2c0,0,0-.2,0-.2h-.3s-.2,0-.2,0h-.1c0,0-.1.5-.1.5h-.2v-.4c-.1,0-.3-.5-.3-.5v-1c.1,0,.2-.5.2-.5v-.5s-.2-.2-.2-.2v-.5s0-.6,0-.6l-.2.4h-.2c0,0-.2,0-.2,0l-.2.2v.9s0,.3,0,.3v1c0,0-.2,0-.2,0" style="fill: #000; stroke-width: 0px;"/>
  <path id="path370" d="M198.2,120.4h0l.3-.5v-.4c0,0,.3-.5.3-.5v-.5c0,0,.2-.3.2-.3l.2-.5v-.6c-.1,0-.3.8-.3.8v.6c-.1,0-.3.4-.3.4l-.2.5-.2.5v.5" style="fill: #000; stroke-width: 0px;"/>
  <path id="path372" d="M199.3,114.9h0l.2.3v.4c.1,0,.3.2.3.2l.2-.4v-.5s-.3-.2-.3-.2h-.2s-.2.2-.2.2" style="fill: #000; stroke-width: 0px;"/>
  <path id="path374" d="M201.2,114.5h0v.4c0,0,.4,0,.4,0v.4s-.2,0-.2,0v.5s.2,0,.2,0v.5s.3-.2.3-.2v-.3c-.1,0-.2-.4-.2-.4l.3-.2v-.5c0,0-.1-.4-.1-.4l-.2-.3-.2.3h-.2" style="fill: #000; stroke-width: 0px;"/>
  <path id="path376" d="M200.3,117h0l.2-.3h.2s0,.4,0,.4l-.2.4v.3c.1,0,.3.2.3.2v-.3c.1,0,0-.4,0-.4h.2v-.4c0,0,.2.2.2.2l.2-.2v-.4h-.2c0,0,0-.3,0-.3v-.5s0,.5,0,.5v.4c-.1,0-.1-.4-.1-.4h-.2s0-.5,0-.5l-.2.2v-.2c0,0-.4,0-.4,0v.3c.1,0,.1.5.1.5v.4" style="fill: #000; stroke-width: 0px;"/>
  <path id="path378" d="M200.5,119.9h0v.3s.1-.4.1-.4v-.5c0,0,.2-.2.2-.2v.3s.2-.2.2-.2v-.4h.5c0,.1,0,.5,0,.5v.5s.2,0,.2,0h.2c0,0,.1,0,.1,0v.2c.1,0,.3-.5.3-.5v-.2c0,0-.2-.2-.2-.2v-.3c0,0,.2-.4.2-.4v.3c0,0,.2.5.2.5v-.5s.1-.5.1-.5v-.4s-.2-.4-.2-.4v-.5s-.2-.3-.2-.3l-.3-.2v.6c0,0,0,.3,0,.3h-.1s0,.5,0,.5l-.2.2v.4c-.1,0-.2-.3-.2-.3h-.2s-.2.2-.2.2v.4c0,0-.3.3-.3.3v.3c-.1,0-.1.5-.1.5" style="fill: #000; stroke-width: 0px;"/>
  <path id="path380" d="M210,121.4h0v.2h.1c0,0,0,0,0,0h.1c0,0,0-.3,0-.3v-.2c.1,0,.3-.4.3-.4v-.5c.1,0,.2-.1.2-.1v-.5s.1-.4.1-.4v-.4s-.2.3-.2.3v.6s0,.1,0,.1v.7c0,0-.2.1-.2.1v.2c-.1,0-.3.3-.3.3v.2c-.1,0-.3.1-.3.1" style="fill: #000; stroke-width: 0px;"/>
  <path id="path382" d="M209.7,119.1h0s.1-.2,0,0" style="fill: #696566; stroke-width: 0px;"/>
  <path id="path384" d="M210.7,117.9h.1c0,.1,0,.3,0,.3h0s0,.4,0,.4v.5s0-.5,0-.5v-.3h-.1c0,0,0-.2,0-.2,0,0,0,0-.2-.1" style="fill: #000; stroke-width: 0px;"/>
  <path id="path386" d="M211.5,118.9h0v.8s0,.1,0,.1v-.4c0,0,0-.2,0-.2v-.4c0,0-.1,0-.1,0" style="fill: #000; stroke-width: 0px;"/>
  <path id="path388" d="M211.5,128h0v.4c0,0,0,.5,0,.5h0c0,0,0,0,0,0v-.2h0c0-.1,0,0,0,0v-.2s0-.2,0-.2h0" style="fill: #000; stroke-width: 0px;"/>
  <path id="path390" d="M2.3,93.1h0s0,0,0,0" style="fill: #696566; stroke-width: 0px;"/>
  <path id="path392" d="M2.4,93.1h0v.2h0c0,0,0-.2,0-.2h0c0,0,0,0,0,0" style="fill: #696566; stroke-width: 0px;"/>
  <path id="path394" d="M2.6,94h0v.4s0,.1,0,.1v-.5s0,0,0,0" style="fill: #696566; stroke-width: 0px;"/>
  <path id="path396" d="M2.7,94.8h0s0,.2,0,0" style="fill: #696566; stroke-width: 0px;"/>
  <path id="path398" d="M2.8,95.2h0v.5s0,0,0,0h0v-.4h0" style="fill: #696566; stroke-width: 0px;"/>
  <path id="path400" d="M2.8,96.1h0v.3s0,0,0,0v.5s0,.2,0,.2v.2s0-.1,0-.1h0s0,0,0,0h0v-.9s0-.2,0-.2" style="fill: #696566; stroke-width: 0px;"/>
  <path id="path402" d="M136.7,118.1l-.7.2h-.5c0,.1-.3,0-.3,0v.4c-.1,0-.5-.1-.5-.1v-.4s-.5,0-.5,0h-.5c0,.1-.5.5-.5.5l-.4.3h-.5c0,.1-.5,0-.5,0h-.5s-.5,0-.5,0h-.4c0-.1-.5-.2-.5-.2h-.5s-.5,0-.5,0l-.3-.4h-.5s-.5,0-.5,0h-.5s-.1-.5-.1-.5h-.5c0-.1-.6-.2-.6-.2h-.5c0,.1-.5.3-.5.3l-.5.5-.2.4v.3c.1,0,.3.5.3.5v.5c-.1,0-.5.3-.5.3l-.4.2h-.5s-.5-.4-.5-.4l-.6-.3h-.8c0,0-.5-.2-.5-.2l-.5-.2-.2-.2v-.5h-.5c0-.1-.5-.4-.5-.4h-.5s-.7,0-.7,0h-1c0-.1-.5-.4-.5-.4l-.2-.5h-.4c0,0-.4,0-.4,0v-.4c0,0,.2-.3.2-.3l.4-.4.2-.5v-.5c0,0-.4-.2-.4-.2v-.6c-.1,0,.1-.2.1-.2l.2-.5-.6.3-.2-.5h-.5s-.5,0-.5,0l-.4.3h-.5c0,.1-.6,0-.6,0l-.4.2h-.6c0-.1-.4.1-.4.1h-.5c0,0-.3,0-.3,0h-.5c0,0-.5,0-.5,0h-.4c0,.1-.5.1-.5.1l-.4.2h-.6c0,0-.7.2-.7.2l-.5.3-.5.4h-.5c0,0-.4.2-.4.2l-.2.4-.6.3h-.4c0,0-.5-.2-.5-.2h-.4c0,0-.6,0-.6,0h-.4c0,0-.6-.3-.6-.3l-.2-.4h-.5c0,0-.2.6-.2.6l-.2.5-.2.5-.2.5-.5.3-.5.2-.5.2-.3.5-.4.4v.3l-.2.5-.3.2v.9l.2.3-.3.6-.3.4-.4.4-.5.2-.3.4-.6.2h-.7s-.3.5-.3.5l-.2.5-.2.3-.5.2-.2.2v.5c-.1,0-.3.4-.3.4l-.2.5-.4.4-.3.4-.2.4-.3.6-.2.4-.3.2v.5c0,0-.2.5-.2.5l.4.4.4.4v.5l-.3.3.3.5v.5c.1,0,.1.5.1.5v.5c0,0-.3.5-.3.5v.4c-.1,0-.2.6-.2.6l-.3.4-.2.4-.4.2.4.3.2.5v.5s0,.5,0,.5v.5l.4.3.4.2h.4s0,.5,0,.5l.4.2.3.4.2.4.4.2.4.4.3.4v.4c0,0,.1.4.1.4l.2.4.5.5.5.2.5.3.4.4.6.3.5.4.4.3.5.3.5.4.5.2h.4c0,0,.5-.2.5-.2h.5s.4-.3.4-.3h.5s.6-.1.6-.1h.4s.5,0,.5,0h.7c0,.1.5.2.5.2l.5.2.4-.2h.5c0-.1.4-.2.4-.2l.4-.2.5-.3h.6l.2-.3.5-.2h.5s.5,0,.5,0h.5s.5,0,.5,0l.5.2.5.3.2.6.2.6.5.3h.9c0,0,.5-.2.5-.2h.9c0,0,.4,0,.4,0v.5s.5,0,.5,0l.2.4.3.3v.5c-.1,0-.2.5-.2.5v.4c-.1,0-.4.4-.4.4h.3c0,.1-.2.5-.2.5v.5h0v.4c0,0-.5.3-.5.3l.2.4.2.4.3.4.3.4.5.3.3.3.3.3.3.3.2.3.3.4.2.3v.6c.1,0,.2.3.2.3l.2.3.2.4v.4s.3.4.3.4v.4c.1,0-.3.4-.3.4l.2.2v.4c.1,0,.4.3.4.3l.2.3v.5c0,0,0,.5,0,.5l-.2.4-.2.4-.4.2-.3.4v.5c-.1,0-.3.5-.3.5v.4c-.1,0-.2.5-.2.5l-.2.4v.4s0,.4,0,.4v.3s0,.4,0,.4l.2.5.3.2.2.4.2.4.3.4v.5c.1,0,.5.3.5.3v.4c.1,0,.5.3.5.3v.3c.1,0,0,.4,0,.4v.5c0,0,0,.4,0,.4v.3c0,0,.3.5.3.5v.8s.2.4.2.4v.5c.1,0,.2.4.2.4l.3.3.2.3.4.2.3.3v.5c0,0,.3.4.3.4v.5c.1,0,.3.3.3.3l.3.3.3.5v.4s-.2.2-.2.2h-.2l.4.5v.3c.1,0,0,.3,0,.3h.3c0-.1.4,0,.4,0l.3.3h.5s.3-.3.3-.3h.5c0-.1.6-.2.6-.2l.3-.2h.5c0-.1.5,0,.5,0l.4-.2h.5c0,0,.4.1.4.1l.3-.2h.6c0,0,.2-.3.2-.3h.5s.4-.1.4-.1l.4-.3.5-.3.4-.2.3-.3.4-.4.3-.3.4-.3.4-.4.3-.4.2-.4.4-.4.2-.4.5-.3.4-.3.2-.4.2-.5.2-.4v-.4s0-.3,0-.3h-.3c0,0,.3-.6.3-.6l.5-.2.3-.2.6-.3.5-.2.3-.2.2-.4v-.8c0,0,.1-.5.1-.5v-.3c-.1,0-.3-.5-.3-.5v-.5c0,0-.4-.2-.4-.2v-.4c0,0,.5-.3.5-.3l.3-.3.3-.4.4-.2.4-.4.3-.4.3-.4.5-.2.4-.2h.6c0-.1.3-.5.3-.5l.5-.4.3-.3.3-.4.2-.4v-.4c0,0,0-.5,0-.5v-.9c-.1,0,0-.5,0-.5v-.3s0,.4,0,.4v-1.3c.1,0,.1-.4.1-.4l-.3-.2h-.3c0-.1-.1-.5-.1-.5l-.2-.4v-.5s0-.5,0-.5l.2-.5-.4-.4-.4-.4v-.5c.1,0,.3-.5.3-.5l.2-.5.2-.4.3-.5.3-.5v-.5h.4l.4-.4.4-.3.2-.5.3-.4.3-.5.4-.5.2-.4.4-.4.4-.3.4-.4.4-.4.5-.2.4-.4.4-.3.3-.4.4-.4.3-.3.4-.4.2-.4.2-.5.3-.4.4-.4v-.5c.1,0,.3-.4.3-.4l.2-.5.2-.4v-.5c.1,0,.3-.4.3-.4l.2-.4.2-.5v-.5l.2-.4v-.5s0-.7,0-.7h-.5s-.3.4-.3.4l-.5.2-.5.3h-.4l-.5.2h-.5c0,0-.5.5-.5.5l-.4.2h-.5l-.5.3-.4.2h-.5l-.3-.2-.3-.4-.3-.2-.3-.2.4-.3v-.4c-.1,0-.5-.3-.5-.3l-.4-.3-.3-.4-.5-.3-.4-.4h-.4c0,0-.5-.3-.5-.3l-.2-.4h-.3s-.2-.4-.2-.4v-.5c0,0-.2-.5-.2-.5l-.3-.5-.2-.4-.5-.3-.5-.2-.3-.5v-.4c0,0-.2-.5-.2-.5v-.5s0-.3,0-.3l-.3-.4v-.5h-.3c0-.1-.4-.3-.4-.3l-.3-.2-.3-.5v-.3c0,0,0-.4,0-.4l-.3-.3-.2-.5-.3-.4-.3-.4v-.4c-.1,0-.5-.5-.5-.5v-.4c0,0-.3-.3-.3-.3v-.4c-.1,0-.4-.3-.4-.3l-.4-.4-.2-.4v-.5c0,0-.4-.4-.4-.4l.2-.2.2.4.2.5.3.3v.3c.1,0,.5.3.5.3l.4.3.2-.2v-1c.1,0,.4-.6.4-.6l-1-1.6" style="fill: #000; stroke-width: 0px;"/>
  <path id="path404" d="M154.2,68l-.9-.5.5-.8v-.7c.1,0,.2-.8.2-.8l-.3-.7v-.8c0,0-1-.5-1-.5l-1.7-3.6-.8-.6-.2-1.7-.3-.6-1-.2v-.5c0,0-.6-.5-.6-.5l-.4.5.2,1.7.3.9v.8c0,0-.3.8-.3.8l.2.8.6.7v.8c0,0,.3.6.3.6h.6c0,.1.7.9.7.9l.6.3v.9c0,0-.6-.3-.6-.3l-.6-.5h-.7c0-.1-.7-.4-.7-.4h-.6s-.9-.4-.9-.4h-.8s-1.2-.3-1.2-.3l-.9-.6v.7c0,0,.5.4.5.4l.8.3,1,1-.2.5-.3.2.2.6h-.5s-.4-1-.4-1l-.4.4-.3.7h-.7s-.6.3-.6.3v.6s-.7-.5-.7-.5l-.4-.9-.8,1.1-.6.4-.4.5-1.1,1,.3,1-.4.5h-.7c0,.1-.5-.4-.5-.4l-.7-.2.2-.8.7-.3-.5-.7-.5-.4h-.7c0,.1-.9,0-.9,0l.8.6.3,1v.9s.5.2.5.2l.2.8-.2.6-.6-.2h-.7s-.3.6-.3.6l-.6.5-.4.6,1,1.4h-.8s-1.4-.5-1.4-.5h-.6c0,0-.2.5-.2.5l.7.6h.5c0,0,.2.7.2.7h-.9c0,.1-.8-.5-.8-.5l-.8-.3-.5-2.3-1.5-1-.6-.8.7.5.8.2.8.3h1.4c0,0,.8.3.8.3l.8-.2.6-.5.3-.6-.2-.8-.4-.7-3.1-1.8-.9-.3-.9-.2h-.9s-.1-.6-.1-.6l-.7-.2-.5.4h-.9c0,0-.9-.6-.9-.6h.8c0,0,.6-.6.6-.6l-1.5-.8-.9-.2-.4,1.1-.3-.7-.5.7v-1.1c-.1,0-.6.4-.6.4l-.3.7-.7-.4-.6.5-.4.8-.8.4h-.8c0,0-.4,1-.4,1l-.7.4v.6c0,0,.5.1.5.1l-.6.6v-.6c-.1,0-.5.5-.5.5v-.9c0,0-.4.6-.4.6l-.6.5.4.4-.9.3-.5.8.7-.6,1.5-.4-.7.9-.2.7-.5.7-1,3-.6.6-.4,1-.8,1.4-.4-.4-.6,1.2h-.7c0,.1-.5.8-.5.8l-1,1.1.3.5-.3.5.2,1.3.4.6-.2.5v.5c.1,0,.7-.1.7-.1l-.4.5v.6s.3.4.3.4l.7.4h.7c0,.1.6-.3.6-.3l.9-1.1h.4s.2-.5.2-.5l.4.4.2.9.9,2.3.5.6-.2.5.3.6v.5s1,0,1,0v-.5c0,0,.3-.6.3-.6h1c0,0,.3-.9.3-.9l.2-2.7,1.1-.9-.3-.2.4-.4.2-.4-.2-.5-1.1-.9v-.6c-.1,0,0-1.6,0-1.6l.6-1.2.9-1,.6-.4.2-.6.4-.6-.5-.4.3-.6v-.4c-.1,0,.3-.3.3-.3l.2-.6h.5c0,0,.5,0,.5,0l.4-.2.7.5v.8c.1,0-.3.3-.3.3l-.3.8-1.5,2.3-.2.8v.8c.1,0,.5.8.5.8l-.2.8v.5c0,0,1.1.7,1.1.7l.7.2.7-.2,2-.9h.9c0,0,.6.5.6.5l.5-.2.4.6-.8-.2-.8,1h-.8c0,0-.7-.1-.7-.1l-1.3.4-.5.4v.6c0,0,.3.6.3.6h.5c0,0,.2,1.5.2,1.5l-.3.4h-.5c0,0-.3-.5-.3-.5l-.4-.3-.6.2-.4,1.2.2,1.5-.2.7-.6.4-.2.6-.4.3h-.5s-.3-.6-.3-.6l-1.3.4-.5.5-.7.2-.7.4-.9-.3.3-.2-.3-.4-.3.4h-.5c0,.1-.7.7-.7.7h-.5s.1-.4.1-.4l-.8-.3v-.3s-.5-.3-.5-.3l.5-1.4.5-.3v-.5s-.5,0-.5,0v-1.6c.1,0-.4.1-.4.1l-.3.5h-.6c0,.1-.3.5-.3.5v.5c-.1,0,0,1.3,0,1.3l.4.3v.7s.3.5.3.5l-.3.2.3.3-.3.4v.5s-.5-.2-.5-.2h-.5s-.3.4-.3.4h-.7s-.5.3-.5.3v.6s.4.1.4.1v.3s-.3.3-.3.3l-.3-.2v-.7s-.3.1-.3.1l-.3,1-.6.9-1.5.8-.2,1-1.1.5v.5c-.1,0-.6,0-.6,0h-.4c0,0-.2-.4-.2-.4h-.5s.3.6.3.6v.7c.1,0-.9,0-.9,0l-.3-.4-1.5.4v.6c0,0,.4.2.4.2h.4s.5.3.5.3h.6c0,.1.5.7.5.7v.3c0,0,.1.3.1.3l.4.3.2.5-.2,1.9-.2.7-.2.3h-.4c0,0-1.2-.1-1.2-.1l-.7.2-1.2-.3h-1.2c0,0-.6-.2-.6-.2l-.3.5h-.5c0,0-.2.4-.2.4l.3.7v.5c0,0,.1,1,.1,1l-.3,1.7-.3.4v.6c0,0,.1.4.1.4h.4s-.1,1.1-.1,1.1l-.2.5h.5c0,0,.4,0,.4,0l.4-.2h.4s.4.3.4.3l.4.8.4.2.5-.4.5-.2h.5c0,0,1.6,0,1.6,0l.7-1h.4s.2-.5.2-.5l.3-.4.5-.4-.4-.4v-.5c0,0,1.1-1.7,1.1-1.7l1-.4.9-.7-.2-1.3.9-.6,1.1.3.5.3h.5c0-.1.4-.5.4-.5l1-.5.2-.4.4-.2,1.2.4v.6c0,0,.3.5.3.5l.4.5v.4c0,0,.5,0,.5,0l.8.9.4.3h.6s.7.6.7.6h.3c0,0,.2.5.2.5l.6.2.4,1.3-.2.3v.8c-.1,0,.2,0,.2,0l.4-.6v-.5s.4-.2.4-.2v-.5s-.5-.3-.5-.3v-.6c.1,0,.3-.4.3-.4l.8.2v.4c0,0,.4,0,.4,0v-.4c.1,0-.3-.5-.3-.5l-1.9-.9.2-.4h-.7s-1-.5-1-.5l-.2-.3v-.5c0,0-.3-.5-.3-.5l-.8-.6-.4-.4v-.4c0,0,0-.4,0-.4l-.2-.3v-.4c0,0,.4,0,.4,0l.4-.3h.4c0,0-.1.4-.1.4v.4c0,0,.3.3.3.3l.3-.2v-.4c0,0,.6.4.6.4v.5c.1,0,.3.3.3.3v.4s.5.3.5.3l.2.3h.5c0,0,1.2,1,1.2,1l1.4.9v1.7s.3.3.3.3l.9,1.4.4.4h.7s.6-.1.6-.1l.3.3h.5c0,0,.5.4.5.4v-.6s.5.1.5.1l-.4-.2v-.4c0,0-.8-.4-.8-.4l-.2-.4-.6-.8v-.7s.5.4.5.4h.4s.1-.3.1-.3l-.2-.3h.4s.2-.3.2-.3h1.3s.3.3.3.3h.4c0-.1-.3.3-.3.3v.3s1-1.2,1-1.2l1.2-.2.5.3h-.4c0,.1,0,.4,0,.4l-2.1.2-.3.4v.7c0,0,.6-.2.6-.2v.3c-.1,0,0,.6,0,.6l.2.3h-.2c0,.1-.3-.1-.3-.1v.4s.8.3.8.3v.4s.3.2.3.2l-.3.4h.9c0,0-.1.2-.1.2h.5c0,0,.6.3.6.3h.4c0,.1.6-.2.6-.2v-.5c.1,0,.6,0,.6,0l.7.2.2.3h.4c0,.1.3,0,.3,0h.4s.7-.9.7-.9l.6.2h.3s.4-.5.4-.5v.3c.1,0-.1.4-.1.4l.2.3v.4c-.1,0,0,1.2,0,1.2l-.2.5-.5,2.3-.5.9,1,1.6v.5s-.2,1.1-.2,1.1h.4c0,0,1.9,2.4,1.9,2.4l.4.9.8.5.6.9v.5c.1,0,0,.3,0,.3l.2.9.5.6h.6c0,0,.4.4.4.4l1,1.7.3.2.3.4.3.8v.4s0,.4,0,.4l.3,1,.2.2v.5c0,0,.3.4.3.4h.4s.9-.3.9-.3l.4-.2.2-.3h.8c0,0,.4-.2.4-.2l.6-.6h.4c0,0,.4-.3.4-.3l.3-.4.4-.3,2.1-1.2v-.3s0-.3,0-.3l.4-.3.8-.6.4-.2h.4l.3-.3v-.5c.1,0,.8-.4.8-.4l.2-.2v-.5c0,0,.4-.3.4-.3l.7-.4-.2-.4v-.5s.2-.4.2-.4h.3c0,0,.3-.9.3-.9l.2-.3.3-1-.4-.2-.6-.7h-.9s-.4-.2-.4-.2l-.7-.6v-1.3c0,0-.3,0-.3,0v.4c0,0-1.3,1.5-1.3,1.5l-.2.5-.3.2h-.9c0,0-.3.4-.3.4h-.5s-.2-.2-.2-.2h-.3c0,0,.2-.5.2-.5v-.5s0-.5,0-.5l-.2-.3h-.2c0,.1,0,.6,0,.6l-.2.5-.5-.6v-.4s-.2-.4-.2-.4l-1.2-1-.7-1.3h-.4c0-.1.5-.4.5-.4l.4-1" style="fill: #000; stroke-width: 0px;"/>
  <path id="path406" d="M149.4,116.9l.6.4.3-.2.3.3.7,1,.4.9h.6c0,0,.8.6.8.6h.4s.3.3.3.3l.4-.2.4.2,1.1-.8h.4c0,0,.3.2.3.2l.3.9h1.9s1.7-.2,1.7-.2l1.3-.5.2-.2h.7c0,0,1.1-.5,1.1-.5h.4s.5.4.5.4l.3.8.8.2.3.3.4.2h.4c0-.1.4-.4.4-.4v.5c0,0-.4.3-.4.3h-.4c0,.1.2.5.2.5l.3.2.4.3h.4c0,.1.4,0,.4,0l.4-.3.3-.4v-1c0,0,.3,0,.3,0v.5s.3.7.3.7v1.1s.3.6.3.6v.3c0,0,.5,2,.5,2l.4.7.6.8.6,1.7.7.9.6,1.8.5.5h.3s.3-.3.3-.3v-.6c0,0,.7-.5.7-.5v-.4s.2-.5.2-.5h.4c0-.1-.2-1.4-.2-1.4l.3-.9v-.5s-.3-1.5-.3-1.5l.2-.8h.4c0,0,0-.5,0-.5l.6-.4.2-.3v-.4s1.4-2,1.4-2l.6-1.3.6-.5.3-.9v-.3c-.1,0,0-.4,0-.4l.6-.6v-.4c0,0,.3.5.3.5l1.2-.8.6-1.2.3.3.4,1.1.8.8h.2c0,0,.2.2.2.2v.3c0,0,.1.3.1.3h.2c0,0,.5,1.3.5,1.3v1.1c0,0,.2,0,.2,0h.5c0-.1.7-1.3.7-1.3v-.4c0,0,.3,0,.3,0l.3.3.4,1.3.7,1.8v.6c-.1,0,0,.4,0,.4v.4s0,.4,0,.4v1c0,0,0,.6,0,.6l.2.8v-.2c.1,0,1.1,1,1.1,1l.2.4v.8c0,0,.2.2.2.2v.5s.4.6.4.6v.4c0,0,.6.3.6.3l.7.3.4-.2v-.5c-.1,0-.5-.6-.5-.6v-1.7c0,0-.3-.3-.3-.3l-.8-.5-.2-.3h-.4c0,.1-.2,0-.2,0l-.3-.8-.2-.2v-.6c0,0-.4.2-.4.2l-.2-.9.3-1.8v-1.1c0,0,.2-.3.2-.3h.3s0,.5,0,.5l.6-.2.3.2h.2s.5.9.5.9l.3.2.3-.2.2.2h.3s0,.9,0,.9v.3c.1,0,.6-.8.6-.8l.3-.2.2-.5v-.5s.3-.2.3-.2l.9-1.4v-.3c0,0,0-1.8,0-1.8l-.4-1.3-.5-.5-.6-.4-.5-.5v-.3c0,0-.4-.2-.4-.2l-.3-.4v-.9c0,0,.6-1.4.6-1.4l.7-1.1.3-.2h.3c0,0,.2,0,.2,0v.4s.2.5.2.5h.2c0-.1.1-.3.1-.3l-.2-.3v-.4s1.3-1.5,1.3-1.5v-.5s.2.2.2.2v-.5s.3.2.3.2v-.5c0,0,.8-.6.8-.6l.2-.4.6-1.6v-.3c0,0,.2-.2.2-.2l.2-1.7-.2-.7h.2s.2-1.8.2-1.8h.2c0-.1,0-.4,0-.4v-.2c0,0-.1-.5-.1-.5h.1c0,0-.1-.9-.1-.9h-.4l-.2.3h-.2c0,0,.2-.3.2-.3l.2-.6.2-.2v-.3c-.1,0-.5-.2-.5-.2l.3-.2-.2-.4-.5-.3-.8-1.6h-.7v-1.1l.3-.9v-.5c0,0,.3-.8.3-.8h.2c0,0,0-.5,0-.5l-.7.3-.2-.2-.2.3v.7c0,0-.3.1-.3.1h-.3c0-.1-.2-.5-.2-.5l-.6-.2-.3-.2v-.8s.2,0,.2,0l.2-.3v-.7s.3-.8.3-.8v-1.1c0,0,.4-.1.4-.1l.3.3v1.2c0,0,.2.2.2.2v.6c0,0,.2-.6.2-.6v-.5s.4-.7.4-.7l.2-.3h.7s.2,1.6.2,1.6l.4.2.3-.3.3.2.2.4-.2.3.6,1v.6s.4.9.4.9v-.5c.1,0,.6-.7.6-.7v-.4c.1,0,0-.9,0-.9l-.6-1.4-.8-.9-.6-.3v-.4c0,0-.2-.2-.2-.2l.3-.6.2-1.2-.3-.8v-.7s.1-.4.1-.4v-.4c0,0,0-.1,0-.1v-.9c0,0,.1-.2.1-.2v.4c.1,0,.5,0,.5,0l.2-.4.2-1-.2-1.2v-2s-.4-1.9-.4-1.9l-.3-2.1-.4-1.1-.9-1.8-.5-1.6-.2-.2-.5-1-.6-.2-.2-.3h-.3s-.2.2-.2.2l.2.8-.2.5v-.5c-.1,0-.4-.5-.4-.5v.3c-.1,0,0,.6,0,.6l-.6-1-.2.3h-.3s-.2-.3-.2-.3v-.5c0,0-.2-2-.2-2l-1-5,.2-.4.5-.6h.2c0,.1,0-.4,0-.4h.3c0,0,0-.4,0-.4h.2c0-.1-.3-.7-.3-.7v-.3s.5,0,.5,0v-.3s.3.2.3.2v.5c0,0,.3.2.3.2v-.2c.1,0,0-.8,0-.8h.2c0-.1.1-.6.1-.6l-.3-.2h-.2c0,.1-.7-1.3-.7-1.3l-.8-2v-.9s.3,0,.3,0v-.5s.4.9.4.9l.7.7-.7-1.9v-.3s-.8-1.1-.8-1.1v-.6s.2.1.2.1l.2.5,1.3,1.9.2,1,1.1,2.6.5,1.4v.5c0,0,0,.2,0,.2l.3.3.3.6v.4s1.1,2,1.1,2l3.1,4.5-.3-1.2-.6-1.5v-.6c-.1,0,0-.2,0-.2l-.6-1-.2-.5v-.4s.1,0,.1,0v-.4c-.1,0-.9-.9-.9-.9l-.3-.6v-.4c0,0,.2.2.2.2v-.3c0,0-.5-.5-.5-.5h-.2c0,0-.6-1.2-.6-1.2h-.3c0-.1,0,.2,0,.2l-.4-.4-.6-1.3-.7-1.1v-.5s.2,0,.2,0l-.3-1,.5.7-.6-1.6v-.2c.1,0,.7.3.7.3l-.4-.7-1.7-4.4v-.4s.3,0,.3,0l-.4-.7-1.7-1.6v.3s-.5-.5-.5-.5v-.2c.1,0-.3-.9-.3-.9l-4.9-5h-.5s-.6.1-.6.1v.4s-.6.8-.6.8l1.4,1.2.3.5v.3c0,0-.4-.4-.4-.4h-.3c0,0-.4-.4-.4-.4v-.3c0,0-.3-.4-.3-.4h-.3c0,.1.7,1.2.7,1.2h-.3c0,.1-.3.5-.3.5v.6c0,0-.2.4-.2.4h-.5s-.5-.7-.5-.7l-.6-.5h-.4c0-.1-.6.4-.6.4v.6s-.1.3-.1.3v.4c0,0-.5-.5-.5-.5h-.5c0-.1-.1,0-.1,0l-.5-.2-.8-.7h-.5c0,0-.3.5-.3.5h-.7s-1.3.8-1.3.8l.6.4-.3.4.3.5,1.3.9-.5.3-.3.6h-.4c0,0,0,.3,0,.3l.2.5h-.5s-.8-.5-.8-.5l1,1.4.2.7h-.5s-.8-.4-.8-.4l-.9-.6-.4-.8-.6-.9-1.1-.5-1.7.2-.5.4.4.6.6.4-.3.4-.7.3h-.7c0,0-.5-.7-.5-.7l-.5.3h-.7s-.2.4-.2.4l-.2.5-1.1-.8-.3-.7h-.6c0,.1,0,.5,0,.5l.8.2.6.7-.3.2-1.1-.2v.6c.1,0,.7.3.7.3l-.5,1.1-.4.2-.3-.9.2-.5-.3-3.7-.7-.9-.8-.7-.9-.4h-.7c0,0-.7,0-.7,0l-.5.3.3.5-.5.3-.4-1.2h-.6c0,.1-.6.5-.6.5v-1c0,0-1.1-.3-1.1-.3v2c.1,0,.9,1,.9,1l-.7.4.6.6-.8.8-.4-.7-.5.9-.6.3v.8s-.9,1.4-.9,1.4v1.6c0,0,.3.6.3.6l.7.7-.7.5-.5.6-1.4.9.8,1,.5.9h.8c0,0,.7.7.7.7l-.5.5-.9-.6-.8-.3-.5.2-.6-.3v.6c-.1,0,.9.4.9.4v.4c-.1,0-.8-.3-.8-.3l-.3.4.6.7,1,.2.5.3h-1.9c0,0-.5-.9-.5-.9l-.2-.8-.6-.9-.8-.5v.3s.7.3.7.3l.4.6v.7c0,0-.3.5-.3.5v1c.1,0,.8.5.8.5l.6.7v.8c0,0,.4.9.4.9l.6,1h.9c0-.1-.3.4-.3.4l.3.8.6.9-.2.8v.8s-.7,1.3-.7,1.3" style="fill: #000; stroke-width: 0px;"/>
  <path id="path408" d="M28.3,37l-1.4,1.4-2.4,2.4-1,1.2h.1s.5-.5.5-.5l.4-.6h.4c0-.1-.5.4-.5.4l-.5.6v.3c0,0,.1,0,.1,0l-.2.5-.5.6-.3.5-.3.7v.5c-.1,0,.3-.5.3-.5l.4-.2.5-.6v.4c0,0,.5-.3.5-.3h.4c0,0,.4-1,.4-1l.5-.8v-.6c.1,0,0-.4,0-.4l.5-.6.4-.7.4-.7.3-.7.4-.7.5-.7" style="fill: #000; stroke-width: 0px;"/>
  <path id="path410" d="M106.4,206.1h0l.9-.2.9-.2.6-.3.8-.2h1.1l.7-.2h.9s.9,0,.9,0h.9c0,0,.9-.1.9-.1h2s.9,0,.9,0h.9c0,0,1,0,1,0h1.9s1.1-.2,1.1-.2l.5-.2h1.1c0,0,.9-.4.9-.4l1.1-.2.9-.3h.5c0-.1,1-.2,1-.2v-.4c0,0,.3-.3.3-.3h.6c0-.1.3,0,.3,0l.5.2h.6s.8,0,.8,0v.3l.6-.4.4-.2.2-.2.2-.3,1-.4.6-.3,1-.4.8-.2h1c0-.1.7-.4.7-.4h.7s.4-.3.4-.3h.5c0-.1.1.1.1.1l.5-.3v-.4c0,0,.5-.5.5-.5l.8-.3.6-.4,1-.2h.9c0-.1.3,0,.3,0h.7s-.2.2-.2.2l-.5.2h.3s.6,0,.6,0h.5v.2l.9-.4h.5c0,0,.5,0,.5,0l.7-.3h.7c0-.1.7-.2.7-.2h.7c0-.1.5-.3.5-.3l.6-.3-.4.4v.3s0,.2,0,.2l-.7.3v.3c-.1,0-.5.4-.5.4v.2c.1,0,.7-.2.7-.2v-.2c0,0,.9-.5.9-.5l.8-.3h.5c0,0,.4-.1.4-.1l.6-.4.8-.5.5-.2.7-.5.5-.4,1-.5.8-.4.9-.6.7-.4.9-.4.8-.4.8-.4h.4c0,0,.6-.3.6-.3l.7-.4.6-.4h.4c0-.1.5-.4.5-.4l.5-.3h.4c0,0,.6-.5.6-.5h.2l.5-.3h.3c0-.1.4-.4.4-.4l.3-.2.6-.5.8-.5.5-.2h.3c0,0,.3-.1.3-.1h.2l.4-.2h.2l.5-.4h.2c0-.1.4-.5.4-.5l.3-.3.5-.4.5-.3.5-.3h0s0,0,0,0h.2c0,0,.2-.1.2-.1l.4-.2.4-.4.6-.5.6-.5h0c0,0,.3-.1.3-.1l.5-.4.2-.2.5-.5h.2c0-.1,0,0,0,0l-.2.2h0c0,0,0,0,0,0l.4-.4.6-.6.5-.5.3-.2.5-.5-1.8,1.7-3.7,3.2-3.5,2.9-3.4,2.5-3.3,2.3-3.1,2-3,1.8-2.9,1.6-2.8,1.4-2.6,1.3-2.6,1.1-2.4,1-2.4.9-2.3.8-2.2.8-2.1.6-2,.6-2,.5-1.9.5-1.9.5-1.9.4-1.8.4-1.8.3-1.7.3-1.7.2-1.7.2-1.6.2h-1.6c0,.1-1.6.3-1.6.3h-1.6c0,0-1.6.2-1.6.2h-1.6s-1.5,0-1.5,0h-4.7s-1.5,0-1.5,0h-1.6c0,0-1.6-.2-1.6-.2h-1.6c0-.1-1.6-.3-1.6-.3l-1.6-.2-1.7-.2-1.7-.2-1.7-.3-1.8-.3-1.8-.4-1.8-.4-1.9-.5-1.9-.5-2-.5-2.1-.6-2.1-.6-2.2-.8-2.3-.8-2.4-.9-2.4-1-2.6-1.1-2.7-1.3-2.8-1.4-2.9-1.6-3-1.8-1-.6h0l-.8-.5-.8-.5-.2-.2.6.4.9.6,1,.6.9.5-.7-.4-.6-.3-.7-.5.5.2.6.4.3.2.9.6.5.3h.3c0,.1-.5-.1-.5-.1l.7.4.7.4.9.5h-.1c0,0-1.3-.8-1.3-.8l-.2-.2-.7-.4-.3-.2.7.4h.2s-.8-.5-.8-.5h-.3c0-.1-1.1-.8-1.1-.8h.4c0,.1.3.4.3.4l.7.3,1,.6h-.1c0-.1.6.3.6.3l.4.3.5.2-.3-.2-.4-.3-.9-.5-.9-.5-.9-.5-.9-.5h.3c0,0,.9.6.9.6h.4c0,0,.9.6.9.6l.4.3.9.5.9.5.9.5.8.3.8.3.9.4h.4c0,0,.5.2.5.2l.9.4.9.4.7.4-.5-.4v-.2c0,0,.9.4.9.4l.9.5.7.3.2.3.7.2.7.2h.6c0,0,.7.2.7.2h.3s-.2-.4-.2-.4l-.4-.4-.5-.4-.5-.4-.7-.5-.6-.4-.4-.5.6.2v-.2c.1,0-.4-.3-.4-.3v-.2s-.3-.3-.3-.3l-.6-.4-.2-.3h-.4c0,0-.5,0-.5,0l-.3-.4v-.2c0,0,.4,0,.4,0l.4.4h.3s.6.4.6.4l-.3-.4h.4s-.4-.4-.4-.4h.3c0-.1.4-.3.4-.3l-.2-.3.6.2v-.3h.5c0,0,0-.2,0-.2h.2c0,0,.7,0,.7,0h.4c0,0,.5-.1.5-.1h.5s.5.4.5.4h-.4c0,0-.4,0-.4,0h.6c0,.1.2.6.2.6l-.6-.2-.5-.4v.4c0,0-.5-.2-.5-.2h-.3c0,.1-.4.3-.4.3l-.2.3v.2c0,0,.2.3.2.3v.3s-.6-.3-.6-.3h-.2c0,0,.5.5.5.5h-.6c0-.1,0,0,0,0l.2.4.5.3h-.1c0,.1.6.5.6.5l.7.2.8.4.6.5.5.5.6.4.2.2.5.3.4.4v.2c-.1,0,.6.4.6.4v.2c.1,0,1.1.4,1.1.4v.2s-.6,0-.6,0l.5.3.7.5h-.2c0,.1.4.4.4.4h-.6c0,0,.5.3.5.3v.2s-.4,0-.4,0h-.4c0,0,1.3.5,1.3.5l1.1.2,1.2.3,1.3.4,1.1.4,1.5.5,1.3.4,1.4.4,1,.3,1.9.4,1.5.3h1.2c0,.1.8,0,.8,0l.4-.2h.7c0,0,.7-.2.7-.2h.7c0,0,.8-.2.8-.2l.6-.2.4-.2h1v-.5l.7-.2h.9c0-.1.7-.3.7-.3l.9-.2h.8c0-.1,1-.2,1-.2h.7s.7-.2.7-.2l.6-.2v-.2c0,0-.5-.2-.5-.2l-.2-.3h.5l.4.2.3-.2h.5c0-.1.5,0,.5,0l.2.2v.3c.1,0,.9,0,.9,0l-.3-.2.2-.2-.3-.2h.5s.7,0,.7,0v.4c0,0,.9,0,.9,0h1s0-.4,0-.4l-.2-.2h.5c0-.1.6,0,.6,0l.5.2-.4.2.6.2.4.2" style="fill: #000; stroke-width: 0px;"/>
  <path id="path412" d="M40,22.9c0,.1-.2.3-.2.4.1-.1.2-.2.2-.4" style="fill: #696566; stroke-width: 0px;"/>
  <path id="path414" d="M69.6,6.3h.2c0,0,0,0,0,0h0Z" style="fill: #696566; stroke-width: 0px;"/>
  <path id="path416" d="M69.7,6.3l.2-.3c-.4.2-.4.3-.2.3" style="fill: #696566; stroke-width: 0px;"/>
  <path id="path418" d="M38.3,25.7c-.2.2-.4.5-.5.7l.5-.7" style="fill: #696566; stroke-width: 0px;"/>
  <path id="path420" d="M41.3,24.2s.1,0,.2,0c0,0-.2,0-.2,0" style="fill: #696566; stroke-width: 0px;"/>
  <path id="path422" d="M18.6,45.2h0c0,0,0,0,0,0" style="fill: #696566; stroke-width: 0px;"/>
  <path id="path424" d="M17.5,47.4c-.1.2-.2.3-.3.5h0c0,0,.2-.3.3-.5" style="fill: #696566; stroke-width: 0px;"/>
  <path id="path426" d="M18.2,46.7l-.3.4c.1-.1.2-.3.3-.4" style="fill: #696566; stroke-width: 0px;"/>
  <path id="path428" d="M12.3,61.2h.1s0,0-.1,0" style="fill: #696566; stroke-width: 0px;"/>
  <path id="path430" d="M18.7,44.7c0,.1,0,.3-.1.4,0-.2.3-.5.1-.4" style="fill: #696566; stroke-width: 0px;"/>
  <path id="path432" d="M40,22.7s0,0,0,.1c0,0,0-.1,0-.1" style="fill: #696566; stroke-width: 0px;"/>
  <path id="path434" d="M36.6,27.2h0c.1-.2,0-.1,0,0" style="fill: #696566; stroke-width: 0px;"/>
  <path id="path436" d="M82,2.5l.9-.3c-.7.1-1,.2-.9.3" style="fill: #696566; stroke-width: 0px;"/>
  <path id="path438" d="M24.1,38.5c.6,0-.8,1-.3,1.2.3-.6.6-1,1-1.1-.1.6-.9,1-.7,1.5l.5-.9c.6-.3.3.5.6,0,0-1,1.9-2,2.5-2.7l-.2.3,1.1-.8s0,0,0,0c0,0,0,0,0-.1.6-.2,1.4-.8,2.1-1.7,0-.6,2.4-2.6,2.6-3.2-.3.4-.6.7-1,1l-.2-.3c.8-.8.3.2.9-.7-.5-.3-1,1-1.6,1.5,0-.3.3-.6.6-1-1.1,1.1-2.2,2-2.5,3.1-.4.2-.4,0-.2-.3-.5,1-.8.4-1.2,1.3-.2-.6,1.3-1.9,1.8-2.7,1.3-.7,2.3-2.3,3.3-3.4.3.2-.3,1.2.3.9,1.3-.9,1-1.2,1.4-2,.9-.6.5.4,1.8-.8l-.6.9c1.1-.3.6-.8,1.2-1.2-.3,0-.4,0-1,.5-.2,0,.2-.6.5-.8h-.2c0-.3,0-.6.9-1.2-.3.7.8-.4,1.1-.5l-.2.2c.5-.6,1.2-1.1,1.6-1.5h0c.4-.4.3-.8,1.1-1.3,0,.2-.5,1.2.2.5,0,.3-.8.9-1.5,1.4.7-.5,1.3-.5.5.2.4,0,.7-.7,1.2-1-.1,0,0-.2-.1-.2.3.3,1.6-1.3,1.5-1.5l-.7.8c-.3-.2.6-1.2.2-1.1.7,0,2.1-1.9,2.8-1.8h-.5c1.8-1.1,3-2.6,4.8-3.9-.5.5-.3,1-1.5,1.6,1.8-1,.8.1,1.5,0,1.4-.7.4-.9.7-1.3l-.9.7c.8-1.3,3.6-2.1,5.3-3.5.2,0-.3.3-.6.5,1-.2.8-.5,1.3-.9.9-.5,2.1-.9,1.7-.3,1-.4-.2-.2.2-.6h.2s.8-1,.8-1c.9-.3,2.1-.7,2.7-.5,2-1.1.3-1.2,1.8-2,.9-.2,0,.4,0,.5l1.3-.6c-.3.6-1.5.9-1.2,1.4.9-1,1.4-.8,2.8-1.8h-.1c.5-.6,2.2-1,3.1-1.5-.3.3-1.3.8-1.9,1.1,1.1-.3,3.5-1.4,4.3-2.2.6-.1,1.9-.4,1.1,0,2.1-.6.6-.9,2.5-1.4v.4c2.2-.1,3.8-1.6,5.9-1.7v-.5c.5,0,1.3,0,1.5,0l-.9.4c.9.1.9-.6,2-.6,0-.1-.9-.2-1-.4-4,1.2-8.3,1.9-12.2,3.8.2,0,.4,0,.3,0-.5,0-1.2.5-1.2.2h.1c-1,.4-2.1.3-2.8.6-.3.4-2.2.8-1.5,1.1h-.8c-.1.3,0,.5-.3.7-.7.3-.8,0-.3-.3-2.8,1-5.9,2.6-8.4,4.3l.6-.6c-.7.2-2.1,1.7-1.9.8-1.2.9-3.6,1.9-3.3,2.5-1.2,0-3.2,1.7-4.8,3,.6.2-1.3,1.1-1.6,1.6-.5-.2,1.1-1.4,1-1.6-1.3,1.7-5,3.1-5,4.6-.2.1-.3,0-.2,0-.3.3-.9.5-1.2.7,0,.3.7-.2,0,.5-.6.5-.5,0-.8,0-1,1.1-2.6,2.8-2.5,3.3-.4.2-.9.3-.6,0-1.5,1.8-1.7,1.5-3.2,3.3.6-.6,0-.6.9-1.3-1.1.2-2.5,2.6-4,3.8l-.2.8c-.7.9-1,.7-.6,0-1.5,1.3-2,2.2-2.9,3.4,0,0-.1,0,0-.2l-1.4,1.7c0,.2-.4,1,0,1,0-.3.2-.8,1-1.6" style="fill: #000; stroke-width: 0px;"/>
  <path id="path440" d="M23.1,40.1h0c0,0,0,0,0,0,0,0,0,0,0,0" style="fill: #696566; stroke-width: 0px;"/>
  <path id="path442" d="M37.6,27.2c-.2,0-.4.1-.5.2.1,0,.3,0,.5-.2" style="fill: #696566; stroke-width: 0px;"/>
  <path id="path444" d="M12.7,57.5c.7,0,.5-1.2,1.1-1.9-.3.8,0,.8.3.8-.2-1.3.8-1.1,1.6-2.9.2,0-.2,1,0,1.2.4-1.1,1.1-2.6.9-3,1-1.6,1.8-2.7,2.4-3.6-.6,1.2.2.4,0,1.5.3-1.4,1.5-4.3,2.3-6.3.5,0,.6,0,.8.5,1.6-1.6,0-.8,1.5-2.4l-.7.7c.5-.9.2-1.2.2-1.7l-1.5,2.1c-.2-.2.8-1.5,1-1.9.2-.8-1.1.9-1.1.5,0,.5-.7,1.2-1,1.8h-.2c-.9.9-.9,1.7-1.5,2.5,0,0-.1,0-.1,0,0,.4,0,.9-.4,1.5l.3-.4c-.2,1-1.2,3,0,2l-1.5,2.1c-.2-.5-.6-1.3.2-2.6v-.3c-.9.8-1.5,2.9-.7,2.5.3,1.5-2,3.4-2.5,5.3-.3,0,0-1,.1-1.5.2-.5.4-.9.7-.8,1.1-2.2-1.1,0,.4-2.4.8-1.1-.4,1.7.6,0v-1.7c-.6,1.1-1.1,2.1-1.5,3-2.3,5.1-4.3,8.4-4.3,8.4-3.4,7.4-5.9,15.3-7.5,23.3-.4,2.5-.6,3.4,0,4.6.3-.5.5-2,.6-1.5-.2-.3-.2-1.3,0-2.6.3,0,0,1.2,0,.9v-.2c.2.2.2.4.2.8.7-1.4,1.2-4.1.9-5.2.6-1.1.3.9.3,1.6,1.2-4,1.9-6.8,3.4-10.8-.5-.2-.2-.5-.3-1.2l.3-.3c-.2.1-.3-.5-.7.2,1.2-2.2.4-3,.8-4.7l.2.2c.5-1.3.7-1.7,1-2.9,1.4-1.8-.7,1.8.1,1.5l.2-.6c0,.4.4,1,.2,1.7.4-2.1,1.4-2.7,2.1-5,.1.4-.5,2.4-.7,2.9.3-.7.7-2.1,1-2l-.3-.3c.6-1.3.2.3.7,0,1.4-2.9-.9-.9.1-3.5" style="fill: #000; stroke-width: 0px;"/>
  <path id="path446" d="M32.5,30.9c-.3.3-.5.5-.7.8.2-.2.5-.5.7-.8" style="fill: #696566; stroke-width: 0px;"/>
  <path id="path448" d="M28.6,36.1c0,0,0,.1,0,.2,0-.1,0-.2,0-.2" style="fill: #696566; stroke-width: 0px;"/>
  <path id="path450" d="M28.5,37c-.2,0,0-.3,0-.7-.2.4-.9,1.2,0,.7" style="fill: #696566; stroke-width: 0px;"/>
  <path id="path452" d="M122.4,2.6c.2,0,1.1,0,.9-.2h-1.3c0,0,.4.2.4.2" style="fill: #000; stroke-width: 0px;"/>
  <path id="path454" d="M119.9,1.8l-1.2-.3-.9.4c1.3.1.8-.3,2.1-.1" style="fill: #000; stroke-width: 0px;"/>
  <path id="path456" d="M116.5,1.2h.3c-.3,0-.3,0-.3,0" style="fill: #696566; stroke-width: 0px;"/>
  <path id="path458" d="M116.5,1.4l-.5.3h1.6c0-.1-.6-.3-.6-.3,0-.1-.4-.2-.4-.3l-.6.2c.2,0,.5,0,.6,0" style="fill: #000; stroke-width: 0px;"/>
  <path id="path460" d="M115.1,1.3s0,0,0,.1c0,0,0,0,0-.1" style="fill: #696566; stroke-width: 0px;"/>
  <path id="path462" d="M112.1.4c.3.2-.3.3-.4.5,1.2.2,1.3-.3,2.4,0-1.7.2.6.3,1.1.5-.3-.4-.9-.7-2.1-.8v.2c-.8,0-.5-.2-.9-.3" style="fill: #000; stroke-width: 0px;"/>
  <path id="path464" d="M105.5.8l1-.4c.2.2,1.7.2,1.7.5.6,0,.6-.2,1.1-.3.4.2.7.3,1.3.1-2.3-.3-1.6-.4-3.7-.5,0,0,.3,0,.6,0l-1.3-.2c-.1.4-1.8.5-.6.7" style="fill: #000; stroke-width: 0px;"/>
  <path id="path466" d="M103.6.6c1.1,0,1.6-.4,1.1-.6l-2.3.4c.7,0,1.5,0,1.2.3" style="fill: #000; stroke-width: 0px;"/>
  <path id="path468" d="M102,.7c-.4-.2-1.1-.5-1.9-.1,1.2-.1.7.4,1.9.1" style="fill: #000; stroke-width: 0px;"/>
  <path id="path470" d="M94.3,1h2.1c.4.4-1,.2-1.6.5,1.8,0,1.2-.2,2.5-.6.5,0,1.3-.3,1.9-.5-2.7.6-2.9-.5-4.9.6" style="fill: #000; stroke-width: 0px;"/>
  <path id="path472" d="M98.5,1l.2-.2-1,.2h.8Z" style="fill: #000; stroke-width: 0px;"/>
  <path id="path474" d="M89.3,1.2c-1.4-.3-2.3.7-3.8.8.1,0,0,0,.3-.2l-1.2.3h0c.1.2-1.1.6-1.5,1,1.3,0,.5-.5,1.7-.4-.2.2-.4.5-.6.6.7-.3.8-.6,1.1-.8.8-.2.6,0,.7.1.8-.4.8-.8,2.2-1,.9.1-.4.5,1,.2-.8-.4,1.5-.2,2.1-.6,1.1,0,1.9.2,1.7.4,0-.4.9-.9,1.7-1.1l-1.9.6-.7-.4c-1,.4-1.8.5-2.8.6h.1" style="fill: #000; stroke-width: 0px;"/>
  <path id="path476" d="M84.1,3.3c-.1,0-.2.1-.4.2.2,0,.3,0,.4-.2" style="fill: #696566; stroke-width: 0px;"/>
  <path id="path478" d="M93.2,1.7l-.4.2h.3c0,0,.1-.2.1-.2Z" style="fill: #000; stroke-width: 0px;"/>
  <path id="path480" d="M83.2,3.8c.2,0,.3-.2,0-.2l-.3.3h.3" style="fill: #000; stroke-width: 0px;"/>
  <path id="path482" d="M82.1,3.8h-.7c0-.1-.3.2-.3.2l1-.2Z" style="fill: #000; stroke-width: 0px;"/>
  <path id="path484" d="M57.8,12.7c.8-.2.6-.5.6-.8-1.2.5.1.3-.6.8" style="fill: #696566; stroke-width: 0px;"/>
  <path id="path486" d="M44.3,21.6c.9-.4,1.4-1.1,2.1-1.6-.8.3-1.6,1.1-2.1,1.6" style="fill: #696566; stroke-width: 0px;"/>
  <path id="path488" d="M39.6,26.8c.1-.2.3-.5,0-.2l.3-1c-1.1.7-.4,1-.2,1.2" style="fill: #000; stroke-width: 0px;"/>
  <path id="path490" d="M34,32.1l.7-1-.5.4c0-.4.2-.6.4-1.1-.6.7-1.1,1.5-.6,1.7" style="fill: #000; stroke-width: 0px;"/>
  <path id="path492" d="M35.4,29.5l-.3.3c.1,0,.3,0,.3-.3" style="fill: #696566; stroke-width: 0px;"/>
  <path id="path494" d="M34.7,30.2v.2c0,0,.4-.5.4-.5-.1,0-.2,0-.4.3" style="fill: #000; stroke-width: 0px;"/>
  <path id="path496" d="M33.1,32.5l-1.5,1.6.7-.5c-.1-.4.9-.6.8-1.1" style="fill: #000; stroke-width: 0px;"/>
  <path id="path498" d="M25.3,40.8h-.4c-.9,1-1.4,2.8-2.3,3.2.5-.4-.4,1.2.7-.1.1-.7,1.4-2.4,2-3.1" style="fill: #000; stroke-width: 0px;"/>
  <path id="path500" d="M21.7,44.6c0-.2-.2,0-.4,0-.3.4-.5.9-.2.8-.1-.6.6-.3.6-.9" style="fill: #000; stroke-width: 0px;"/>
  <path id="path502" d="M18.2,50c.2-.3.5-.8,0-.4-.6,1-.1,1-.3,1.6.7-.7.7-1.8.2-1.2" style="fill: #000; stroke-width: 0px;"/>
  <path id="path504" d="M11.1,57.1c.3,0,.7-.9.8-1.1-.1.3-.5.8-.8,1.1" style="fill: #000; stroke-width: 0px;"/>
  <path id="path506" d="M13.2,58.4l.2-.3-.2-.6v.8Z" style="fill: #000; stroke-width: 0px;"/>
  <path id="path508" d="M10.4,65.2v1c0,0,.4-1.3.4-1.3l-.4.3Z" style="fill: #696566; stroke-width: 0px;"/>
  <path id="path510" d="M9.8,66.4l-.4,1.1.3-.4c.3-.5,0-.4.2-.8" style="fill: #696566; stroke-width: 0px;"/>
  <path id="path512" d="M8.5,69.9c0-.2.1-.2.2-.3l.2-1.1-.4,1.4" style="fill: #696566; stroke-width: 0px;"/>
  <path id="path514" d="M1.7,88.3c-.3-.3-.2.8-.4,1.2,0,0,.6-.6.4-1.2" style="fill: #696566; stroke-width: 0px;"/>
  <path id="path516" d="M154.2,68l-4.8,48.8" style="fill: none; stroke: #000; stroke-miterlimit: 1.3; stroke-width: 1.3px;"/>
</svg>