<svg width="73" height="35" viewBox="0 0 73 35" fill="none" xmlns="http://www.w3.org/2000/svg">
<path d="M1.2 18.2109H67.2C68.8 18.2109 68.8 15.7109 67.2 15.7109H1.2C-0.4 15.7109 -0.4 18.2109 1.2 18.2109Z" fill="#414042"/>
<path d="M52.7995 3.80611C57.0995 9.10611 60.8995 15.0061 67.1995 18.1061L67.7995 15.8061C57.8995 15.2061 48.1995 23.9061 45.5995 33.1061C45.1995 34.6061 47.5995 35.3061 47.9995 33.8061C50.2995 25.6061 58.8995 17.8061 67.7995 18.3061C76.6995 18.8061 69.4995 16.5061 68.3995 16.0061C62.2995 13.0061 58.6995 7.20611 54.4995 2.10611C50.2995 -2.99389 51.6995 2.60611 52.6995 3.90611L52.7995 3.80611Z" fill="#414042"/>
</svg>
