<svg width="157" height="86" viewBox="0 0 157 86" fill="none" xmlns="http://www.w3.org/2000/svg">
<path d="M1.2 45.5469H152.1C153.7 45.5469 153.7 43.0469 152.1 43.0469H1.2C-0.4 43.0469 -0.4 45.5469 1.2 45.5469Z" fill="#D2D0C6"/>
<path d="M105.796 2.14325C121.296 16.7433 136.796 31.3433 152.296 45.9433L153.196 43.8433C141.096 43.1433 128.696 45.1433 117.496 49.6433C107.196 53.7433 97.3961 59.9433 90.0961 68.3433C86.3961 72.6433 83.4961 77.4432 81.4961 82.7432C79.4961 88.0433 83.3961 84.9433 83.8961 83.4433C87.2961 74.0433 94.2961 66.2433 102.396 60.5433C110.496 54.8433 122.296 49.7433 133.296 47.5433C139.796 46.2433 146.496 45.8433 153.096 46.2433C159.696 46.6433 154.796 44.8433 153.996 44.1433C138.496 29.5433 122.996 14.9433 107.496 0.343254C106.296 -0.756746 104.596 1.04325 105.696 2.14325H105.796Z" fill="#D2D0C6"/>
</svg>
