<svg width="87" height="43" viewBox="0 0 87 43" fill="none" xmlns="http://www.w3.org/2000/svg">
<path d="M1.2 21.5938C21.9 21.5938 42.5 21.5938 63.2 21.5938C83.9 21.5938 74.9 21.5938 80.7 21.5938C86.5 21.5938 82.3 19.0938 80.7 19.0938C60 19.0938 39.4 19.0938 18.7 19.0938H1.2C-0.4 19.0938 -0.4 21.5938 1.2 21.5938Z" fill="#414042"/>
<path d="M63.4973 4.29227C68.6973 10.6923 73.1973 17.6923 80.7973 21.4923L81.3973 19.1923C75.3973 18.7923 69.6973 21.4923 65.0973 25.0923C60.4973 28.6923 56.5973 33.9923 54.8973 39.7923C53.1973 45.5923 56.8973 41.9923 57.2973 40.4923C60.0973 30.5923 70.5973 20.9923 81.3973 21.6923C92.1973 22.3923 83.0973 19.8923 81.9973 19.3923C74.5973 15.7923 70.1973 8.79226 65.1973 2.59227C60.1973 -3.60773 62.3973 3.09227 63.3973 4.39227L63.4973 4.29227Z" fill="#414042"/>
</svg>
