<svg width="92" height="85" viewBox="0 0 92 85" fill="none" xmlns="http://www.w3.org/2000/svg">
<path d="M2.00663 19.6206C14.0066 20.7206 25.5066 25.7206 34.8066 33.3206C44.1066 40.9206 51.5066 50.9206 55.3066 62.4206C59.1066 73.9206 60.0066 76.3206 54.4066 79.9206C48.8066 83.5206 49.2066 81.6206 46.6066 80.8206C44.0066 80.0206 41.4066 77.6206 39.8066 75.0206C36.4066 69.3206 36.1066 61.9206 37.3066 55.5206C38.5066 49.1206 41.6066 42.7206 45.7066 37.3206C54.4066 25.8206 67.8066 19.0206 81.0066 14.0206C82.7066 13.4206 84.3066 12.8206 86.0066 12.2206C87.7066 11.6206 86.9066 9.32057 85.3066 9.82057C70.9066 14.9206 56.1066 21.4206 45.8066 33.2206C35.5066 45.0206 30.6066 59.6206 36.1066 73.2206C41.6066 86.8206 43.7066 84.4206 50.6066 83.7206C57.5066 83.0206 56.2066 82.2206 58.0066 79.8206C59.8066 77.4206 60.2066 73.1206 59.6066 69.6206C57.5066 56.7206 50.3066 44.7206 41.0066 35.7206C31.7066 26.7206 19.7066 19.9206 6.80663 17.7206C-6.09337 15.5206 3.60663 17.2206 2.00663 17.1206C0.406626 17.0206 0.406626 19.4206 2.00663 19.6206Z" fill="#F2F0E6"/>
<path d="M66.8082 3.22062C73.3082 6.22062 79.8082 9.32062 86.2082 12.3206C92.6082 15.3206 88.9082 10.8206 87.5082 10.1206C81.0082 7.12062 74.5082 4.02062 68.1082 1.02062C61.7082 -1.97938 65.4082 2.52062 66.8082 3.22062Z" fill="#F2F0E6"/>
<path d="M87.7036 11.2204C81.6036 16.1204 78.6036 24.3204 80.0036 31.9204C81.4036 39.5204 82.7036 32.8204 82.4036 31.2204C81.2036 24.4204 84.1036 17.2204 89.5036 12.9204C94.9036 8.62036 89.0036 10.1204 87.7036 11.1204V11.2204Z" fill="#F2F0E6"/>
</svg>
