<svg width="164" height="85" viewBox="0 0 164 85" fill="none" xmlns="http://www.w3.org/2000/svg">
<path d="M5.29706 57.7098C25.4971 57.4098 45.5971 56.1098 65.5971 53.8098C85.5971 51.5098 105.297 48.4098 124.897 44.4098C144.497 40.4098 147.097 39.5098 158.097 36.6098C169.097 33.7098 159.197 34.6098 158.097 34.2098C131.597 25.7098 105.097 17.2098 78.5971 8.70983C52.0971 0.209831 63.7971 3.90983 56.2971 1.50983L55.5971 3.90983C80.2971 11.2098 104.897 18.5098 129.597 25.7098C154.297 32.9098 141.697 29.0098 147.597 31.0098C153.497 33.0098 151.597 32.5098 152.997 34.1098C154.397 35.7098 153.997 38.7098 152.597 40.7098C151.197 42.7098 148.897 44.9098 146.897 46.8098C144.897 48.7098 142.997 50.6098 140.997 52.4098C136.797 56.1098 132.497 59.7098 127.897 63.0098C117.897 70.3098 106.997 76.5098 95.6971 81.5098C84.3971 86.5098 95.4971 84.3098 96.9971 83.7098C107.597 79.0098 117.697 73.3098 127.197 66.7098C136.697 60.1098 136.497 59.8098 140.897 56.0098C145.297 52.2098 149.497 48.4098 153.197 44.2098C156.897 40.0098 156.497 40.0098 156.697 37.3098C156.897 34.6098 155.597 32.9098 153.897 31.5098C152.197 30.1098 149.997 29.2098 147.797 28.5098C144.697 27.5098 141.597 26.7098 138.597 25.8098C125.697 22.0098 112.797 18.2098 99.8971 14.4098C86.9971 10.6098 70.7971 5.80983 56.2971 1.50983C41.7971 -2.79017 54.0971 3.40983 55.5971 3.90983C82.0971 12.4098 108.597 20.9098 135.097 29.4098C161.597 37.9098 149.997 34.2098 157.497 36.6098V34.2098C138.197 39.3098 118.597 43.5098 98.8971 46.7098C79.0971 50.0098 59.1971 52.3098 39.1971 53.7098C19.1971 55.1098 16.6971 55.0098 5.39706 55.2098C-5.90294 55.4098 3.79706 57.7098 5.39706 57.7098H5.29706Z" fill="#231F20"/>
</svg>
