<svg width="92" height="85" viewBox="0 0 92 85" fill="none" xmlns="http://www.w3.org/2000/svg">
<path d="M2.2493 19.6206C14.2493 20.7206 25.7493 25.7206 35.0493 33.3206C44.3493 40.9206 51.7493 50.9206 55.5493 62.4206C59.3493 73.9206 60.2493 76.3206 54.6493 79.9206C49.0493 83.5206 49.4493 81.6206 46.8493 80.8206C44.2493 80.0206 41.6493 77.6206 40.0493 75.0206C36.6493 69.3206 36.3493 61.9206 37.5493 55.5206C38.7493 49.1206 41.8493 42.7206 45.9493 37.3206C54.6493 25.8206 68.0493 19.0206 81.2493 14.0206C94.4493 9.02057 84.5493 12.8206 86.2493 12.2206C87.9493 11.6206 87.1493 9.32057 85.5493 9.82057C71.1493 14.9206 56.3493 21.4206 46.0493 33.2206C35.7493 45.0206 30.8493 59.6206 36.3493 73.2206C41.8493 86.8206 43.9493 84.4206 50.8493 83.7206C57.7493 83.0206 56.4493 82.2206 58.2493 79.8206C60.0493 77.4206 60.4493 73.1206 59.8493 69.6206C57.7493 56.7206 50.5493 44.7206 41.2493 35.7206C31.8493 26.6206 19.8493 20.1206 6.8493 17.9206C-6.1507 15.7206 3.6493 17.4206 2.0493 17.3206C0.449299 17.2206 0.449299 19.6206 2.0493 19.8206L2.2493 19.6206Z" fill="#C5EB46"/>
<path d="M67.0504 3.22062C73.5504 6.22062 80.0504 9.32062 86.4504 12.3206C92.8504 15.3206 89.1504 10.8206 87.7504 10.1206C81.2504 7.12062 74.7504 4.02062 68.3504 1.02062C61.9504 -1.97938 65.6504 2.52062 67.0504 3.22062Z" fill="#C5EB46"/>
<path d="M87.9458 11.2204C81.8458 16.1204 78.8458 24.3204 80.2458 31.9204C81.6458 39.5204 82.9458 32.8204 82.6458 31.2204C81.4458 24.4204 84.3458 17.2204 89.7458 12.9204C95.1458 8.62036 89.2458 10.1204 87.9458 11.1204V11.2204Z" fill="#C5EB46"/>
</svg>
