<svg width="83" height="41" viewBox="0 0 83 41" fill="none" xmlns="http://www.w3.org/2000/svg">
<path d="M2.88395 23.6327C22.7839 22.9327 42.5839 22.2327 62.4839 21.5327C82.3839 20.8327 73.7839 21.1327 79.3839 20.9327C84.9839 20.7327 80.9839 18.3327 79.3839 18.4327C59.4839 19.1327 39.6839 19.8327 19.7839 20.5327C-0.116053 21.2327 8.48395 20.9327 2.88395 21.1327C-2.71605 21.3327 1.28395 23.7327 2.88395 23.6327Z" fill="#F2F0E6"/>
<path d="M66.2859 3.23446C66.4859 10.8345 71.4859 17.7345 78.5859 20.5345L77.9859 18.4345C70.7859 24.6345 63.5859 30.8345 56.2859 37.0345C48.9859 43.2345 56.8859 39.8345 58.0859 38.8345C65.2859 32.6345 72.4859 26.4345 79.7859 20.2345C80.5859 19.5345 79.9859 18.4345 79.1859 18.1345C73.1859 15.7345 68.9859 9.63446 68.7859 3.23446C68.5859 -3.16554 66.2859 1.63446 66.2859 3.23446Z" fill="#F2F0E6"/>
</svg>
