<svg width="354" height="84" viewBox="0 0 354 84" fill="none" xmlns="http://www.w3.org/2000/svg">
<path d="M1.2 63.8875C46.3 59.6875 91.3 55.4875 136.4 51.1875C181.2 46.9875 226.1 42.7875 270.9 38.5875C315.7 34.3875 321.2 33.8875 346.4 31.4875C348 31.3875 348 28.7875 346.4 28.9875C301.3 33.1875 256.3 37.3875 211.2 41.6875C166.4 45.8875 121.5 50.0875 76.7 54.2875C31.9 58.4875 26.4 58.9875 1.2 61.3875C-0.4 61.4875 -0.4 64.0875 1.2 63.8875Z" fill="#414042"/>
<path d="M298.401 5.28647C315.601 13.2865 332.801 21.2865 350.101 29.2865L349.701 27.5865C340.101 41.3865 330.601 55.2865 321.001 69.0865C311.401 82.8865 315.501 76.9865 312.801 80.9865C310.101 84.9865 314.001 83.5865 315.001 82.2865C324.601 68.4865 334.101 54.5865 343.701 40.7865C353.301 26.9865 349.201 32.8865 351.901 28.8865C354.601 24.8865 352.001 27.4865 351.501 27.1865C334.301 19.1865 317.101 11.1865 299.801 3.18647C282.501 -4.81353 297.101 4.68647 298.501 5.38647L298.401 5.28647Z" fill="#414042"/>
</svg>
