<svg width="59" height="46" viewBox="0 0 59 46" fill="none" xmlns="http://www.w3.org/2000/svg">
<path d="M1.2 24.0234H53.2C54.8 24.0234 54.8 21.5234 53.2 21.5234H1.2C-0.4 21.5234 -0.4 24.0234 1.2 24.0234Z" fill="black"/>
<path d="M36.6962 4.425C41.9962 10.925 47.3962 17.525 52.6962 24.025L53.5962 21.925C42.2962 21.125 31.1962 29.025 28.0962 39.925C24.9962 50.825 30.0962 42.125 30.4962 40.625C33.2962 30.725 43.2962 23.725 53.5962 24.425C63.8962 25.125 55.0962 23.025 54.4962 22.325C49.1962 15.825 43.7962 9.225 38.4962 2.725C33.1962 -3.775 35.6962 3.225 36.6962 4.525V4.425Z" fill="black"/>
</svg>
