<svg width="84" height="81" viewBox="0 0 84 81" fill="none" xmlns="http://www.w3.org/2000/svg">
<path d="M3.05685 77.3193C6.45685 63.6193 13.3568 50.9193 22.6568 40.4193C31.9568 29.9193 43.6568 21.3193 56.5568 15.8193C69.4568 10.3193 71.5568 10.7193 79.3568 9.71932C87.1569 8.71932 80.9568 7.01932 79.3568 7.21932C64.9568 8.91932 51.0568 14.3193 39.0568 22.5193C27.1568 30.6193 16.9568 41.4193 9.75685 54.0193C2.55685 66.6193 2.55685 68.8193 0.556847 76.7193C-1.44315 84.6193 2.55685 78.9193 2.95685 77.4193L3.05685 77.3193Z" fill="#F2F0E6"/>
<path d="M57.757 3.42151C63.757 5.92151 69.757 8.32151 75.757 10.8215C81.757 13.3215 77.157 10.5215 77.257 9.92151C77.357 9.32151 76.957 8.62151 76.357 8.42151C70.357 5.92151 64.357 3.52151 58.357 1.02151C52.357 -1.47849 56.957 1.32151 56.857 1.92151C56.757 2.52151 57.157 3.22151 57.757 3.42151Z" fill="#F2F0E6"/>
<path d="M78.7539 8.02513C69.9539 12.6251 63.9539 21.6251 62.9539 31.5251C61.9539 41.4251 65.2539 33.1251 65.4539 31.5251C66.3539 22.5251 72.0539 14.3251 80.0539 10.2251C88.0539 6.12513 80.2539 7.32513 78.7539 8.02513Z" fill="#F2F0E6"/>
</svg>
