<svg width="676" height="93" viewBox="0 0 676 93" fill="none" xmlns="http://www.w3.org/2000/svg">
<path d="M5.72187 36.7794C88.1219 17.0794 173.222 8.67945 258.022 12.0794C300.122 13.7794 342.122 18.3794 383.522 25.7794C397.922 28.3794 413.822 33.3794 423.922 44.6794C428.522 49.8794 431.022 56.4794 429.422 63.3794C427.822 70.2794 423.022 75.2794 416.722 78.0794C403.922 83.8794 388.122 82.3794 374.722 79.9794C360.822 77.4794 345.722 73.1794 334.722 63.9794C324.022 54.9794 319.922 40.2794 327.822 27.9794C335.722 15.6794 351.622 10.1794 365.222 7.27945C373.822 5.47945 382.622 4.67945 391.422 3.97945C400.222 3.27945 412.322 2.57945 422.722 2.47945C443.622 2.17945 464.622 3.27945 485.422 5.77945C506.522 8.27945 527.422 12.2794 547.922 17.6794C568.422 23.0794 581.922 26.6794 595.122 37.9794C608.322 49.2794 605.822 49.2794 607.622 56.5794C609.422 63.8794 607.522 70.7794 603.922 76.6794C600.522 82.2794 595.322 87.3794 588.822 88.9794C582.322 90.5794 575.022 87.4794 571.622 81.3794C568.022 74.9794 568.822 66.7794 571.622 60.2794C575.022 52.5794 581.422 47.2794 589.222 44.3794C607.022 37.6794 626.422 42.5794 644.722 42.9794C663.022 43.3794 662.822 42.2794 671.222 38.7794C679.622 35.2794 672.022 35.7794 670.522 36.3794C650.522 44.6794 628.822 37.7794 608.022 38.5794C591.622 39.1794 574.222 44.9794 568.322 61.7794C564.122 73.8794 568.422 90.6794 583.322 92.0794C596.522 93.2794 607.322 79.9794 609.922 68.2794C612.522 56.5794 602.422 39.3794 590.122 31.3794C574.122 21.0794 554.522 16.5794 536.222 12.3794C492.322 1.97945 446.722 -1.92055 401.522 0.879445C383.422 1.97945 364.622 3.07945 347.722 10.1794C330.822 17.2794 322.822 24.8794 321.422 39.5794C318.422 71.0794 361.122 81.6794 384.822 84.0794C408.522 86.4794 415.422 85.3794 425.722 75.2794C430.422 70.6795 433.022 63.9794 432.422 57.3794C431.822 50.7794 428.322 45.3794 423.822 40.9794C411.822 29.4794 395.122 25.2794 379.222 22.5794C356.822 18.6794 334.322 15.5794 311.722 13.3794C265.922 8.87945 219.722 7.77945 173.822 10.0794C128.122 12.3794 82.6219 18.0794 37.8219 27.1794C26.8219 29.3794 15.9219 31.7794 5.02187 34.4794C-5.87812 37.1794 4.12187 37.2794 5.72187 36.8794V36.7794Z" fill="#414042"/>
<path d="M619.425 10.3775C632.525 18.6775 646.125 25.9775 660.125 32.5775C674.125 39.1775 667.525 36.0775 671.325 37.6775C675.125 39.2775 674.025 36.1775 672.625 35.4775C658.725 29.3775 645.025 22.4775 631.925 14.8775C618.825 7.2775 624.425 10.4775 620.825 8.1775C617.225 5.8775 618.225 9.4775 619.525 10.3775H619.425Z" fill="#414042"/>
<path d="M671.025 36.2752C665.225 40.7752 660.725 47.0752 657.225 53.4752C653.725 59.8752 650.925 67.0752 649.225 74.3752C647.525 81.6752 651.325 76.5752 651.625 75.0752C653.225 67.9752 655.925 61.1752 659.325 54.7752C662.725 48.3752 667.025 42.4752 672.725 38.0752C678.425 33.6752 672.225 35.3752 670.925 36.2752H671.025Z" fill="#414042"/>
</svg>
