<svg xmlns="http://www.w3.org/2000/svg" id="Layer_2" data-name="Layer 2" viewBox="0 0 119.34 119.46"><defs><style>.cls-1{fill:#000;stroke-width:0}</style></defs><g id="Layer_1-2" data-name="Layer 1"><path d="M1.56 4.58c21.47-5.31 44.87-.22 62.73 12.66 18.61 13.41 29.32 35.22 30.01 58 .39 12.86-2.37 25.8-8.4 37.2-.75 1.42 1.41 2.69 2.16 1.26 11.08-20.95 11.51-46.67 2.08-68.3C80.8 24.02 61.47 8.54 39.06 2.63 26.61-.65 13.4-.93.89 2.17c-1.56.38-.89 2.79.67 2.41Z" class="cls-1"/><path d="M75.32 81.54c3.25 12.35 6.5 24.69 9.74 37.04.3 1.13 1.68 1.12 2.28.3l31.76-43.25c.95-1.3-1.22-2.55-2.16-1.26l-31.76 43.25 2.28.3c-3.25-12.35-6.5-24.69-9.74-37.04-.41-1.55-2.82-.9-2.41.66Z" class="cls-1"/></g></svg>