<svg width="709" height="65" viewBox="0 0 709 65" fill="none" xmlns="http://www.w3.org/2000/svg">
<path d="M591.298 1.30125C585.598 -1.99875 577.098 1.30126 569.198 8.80126C568.298 5.40126 566.598 2.80125 564.098 1.30125C562.398 0.301255 560.398 -0.0987453 558.298 0.101255C553.398 -0.198745 547.398 2.60125 541.598 7.70125C540.698 4.90125 539.098 2.60125 536.798 1.30125C535.098 0.301255 533.098 -0.0987453 530.998 0.101255C526.098 -0.198745 520.098 2.60125 514.298 7.70125C513.398 4.90125 511.798 2.60125 509.498 1.30125C507.798 0.301255 505.798 -0.0987453 503.698 0.101255C498.798 -0.198745 492.798 2.60125 486.998 7.70125C486.098 4.90125 484.498 2.60125 482.198 1.30125C480.498 0.301255 478.598 -0.0987453 476.498 0.101255C471.298 -0.298745 464.798 3.00126 458.598 8.80126C457.698 5.40126 455.998 2.80125 453.498 1.30125C444.898 -3.59875 429.998 6.20125 420.098 23.3013C410.198 40.3013 409.098 58.2013 417.698 63.1013C423.398 66.4013 431.898 63.1013 439.798 55.6013C440.698 59.0013 442.398 61.6013 444.898 63.1013C446.598 64.1013 448.598 64.5013 450.698 64.3013C455.598 64.6013 461.598 61.8013 467.398 56.7013C468.298 59.5013 469.898 61.8013 472.198 63.1013C473.898 64.1013 475.898 64.5013 477.998 64.3013C482.898 64.6013 488.898 61.8013 494.698 56.7013C495.598 59.5013 497.198 61.8013 499.498 63.1013C501.198 64.1013 503.198 64.5013 505.298 64.3013C510.198 64.6013 516.198 61.8013 521.998 56.7013C522.898 59.5013 524.498 61.8013 526.798 63.1013C528.498 64.1013 530.398 64.5013 532.498 64.3013C537.698 64.7013 544.198 61.4013 550.398 55.6013C551.298 59.0013 552.998 61.6013 555.498 63.1013C564.098 68.0013 578.998 58.2013 588.898 41.1013C598.798 24.1013 599.898 6.20125 591.298 1.30125Z" fill="#EEABC4"/>
<path d="M703.001 1.30125C697.301 -1.99875 688.801 1.30126 680.901 8.80126C680.001 5.40126 678.301 2.80125 675.801 1.30125C674.101 0.301255 672.101 -0.0987453 670.001 0.101255C665.101 -0.198745 659.101 2.60125 653.301 7.70125C652.401 4.90125 650.801 2.60125 648.501 1.30125C646.801 0.301255 644.801 -0.0987453 642.701 0.101255C637.801 -0.198745 631.801 2.60125 626.001 7.70125C625.101 4.90125 623.501 2.60125 621.201 1.30125C619.501 0.301255 617.501 -0.0987453 615.401 0.101255C610.501 -0.198745 604.501 2.60125 598.701 7.70125C597.801 4.90125 596.201 2.60125 593.901 1.30125C592.201 0.301255 590.301 -0.0987453 588.201 0.101255C583.001 -0.298745 576.501 3.00126 570.301 8.80126C569.401 5.40126 567.701 2.80125 565.201 1.30125C556.601 -3.59875 541.701 6.20125 531.801 23.3013C521.901 40.3013 520.801 58.2013 529.401 63.1013C535.101 66.4013 543.601 63.1013 551.501 55.6013C552.401 59.0013 554.101 61.6013 556.601 63.1013C558.301 64.1013 560.301 64.5013 562.401 64.3013C567.301 64.6013 573.301 61.8013 579.101 56.7013C580.001 59.5013 581.601 61.8013 583.901 63.1013C585.601 64.1013 587.601 64.5013 589.701 64.3013C594.601 64.6013 600.601 61.8013 606.401 56.7013C607.301 59.5013 608.901 61.8013 611.201 63.1013C612.901 64.1013 614.901 64.5013 617.001 64.3013C621.901 64.6013 627.901 61.8013 633.701 56.7013C634.601 59.5013 636.201 61.8013 638.501 63.1013C640.201 64.1013 642.101 64.5013 644.201 64.3013C649.401 64.7013 655.901 61.4013 662.101 55.6013C663.001 59.0013 664.701 61.6013 667.201 63.1013C675.801 68.0013 690.701 58.2013 700.601 41.1013C710.501 24.1013 711.601 6.20125 703.001 1.30125Z" fill="#EEABC4"/>
<path d="M179.199 1.2979C173.499 -2.0021 164.999 1.2979 157.099 8.7979C156.199 5.3979 154.499 2.7979 151.999 1.2979C150.299 0.297897 148.299 -0.102103 146.199 0.0978972C141.299 -0.202103 135.299 2.5979 129.499 7.6979C128.599 4.8979 126.999 2.5979 124.699 1.2979C122.999 0.297897 120.999 -0.102103 118.899 0.0978972C113.999 -0.202103 107.999 2.5979 102.199 7.6979C101.299 4.8979 99.6995 2.5979 97.3995 1.2979C95.6995 0.297897 93.6995 -0.102103 91.5995 0.0978972C86.6995 -0.202103 80.6995 2.5979 74.8995 7.6979C73.9995 4.8979 72.3995 2.5979 70.0995 1.2979C68.3995 0.297897 66.4995 -0.102103 64.3995 0.0978972C59.1995 -0.302103 52.6995 2.9979 46.4995 8.7979C45.5995 5.3979 43.8995 2.7979 41.3995 1.2979C32.9995 -3.7021 18.0995 6.1979 8.19948 23.1979C-1.70052 40.2979 -2.80052 58.0979 5.79948 62.9979C11.4995 66.2979 19.9995 62.9979 27.8995 55.4979C28.7995 58.8979 30.4995 61.4979 32.9995 62.9979C34.6995 63.9979 36.6995 64.3979 38.7995 64.1979C43.6995 64.4979 49.6995 61.6979 55.4995 56.5979C56.3995 59.3979 57.9995 61.6979 60.2995 62.9979C61.9995 63.9979 63.9995 64.3979 66.0995 64.1979C70.9995 64.4979 76.9995 61.6979 82.7995 56.5979C83.6995 59.3979 85.2995 61.6979 87.5995 62.9979C89.2995 63.9979 91.2995 64.3979 93.3995 64.1979C98.2995 64.4979 104.299 61.6979 110.099 56.5979C110.999 59.3979 112.599 61.6979 114.899 62.9979C116.599 63.9979 118.499 64.3979 120.599 64.1979C125.799 64.5979 132.299 61.2979 138.499 55.4979C139.399 58.8979 141.099 61.4979 143.599 62.9979C152.199 67.8979 167.099 58.0979 176.999 40.9979C186.899 23.9979 187.999 6.0979 179.399 1.1979L179.199 1.2979Z" fill="#EEABC4"/>
<path d="M313.603 1.30125C307.903 -1.99875 299.403 1.30126 291.503 8.80126C290.603 5.40126 288.903 2.80125 286.403 1.30125C284.703 0.301255 282.703 -0.0987453 280.603 0.101255C275.703 -0.198745 269.703 2.60125 263.903 7.70125C263.003 4.90125 261.403 2.60125 259.103 1.30125C257.403 0.301255 255.403 -0.0987453 253.303 0.101255C248.403 -0.198745 242.403 2.60125 236.603 7.70125C235.703 4.90125 234.103 2.60125 231.803 1.30125C230.103 0.301255 228.103 -0.0987453 226.003 0.101255C221.103 -0.198745 215.103 2.60125 209.303 7.70125C208.403 4.90125 206.803 2.60125 204.503 1.30125C202.803 0.301255 200.903 -0.0987453 198.803 0.101255C193.603 -0.298745 187.103 3.00126 180.903 8.80126C180.003 5.40126 178.303 2.80125 175.803 1.30125C167.203 -3.59875 152.303 6.20125 142.403 23.3013C132.503 40.3013 131.403 58.2013 140.003 63.1013C145.703 66.4013 154.203 63.1013 162.103 55.6013C163.003 59.0013 164.703 61.6013 167.203 63.1013C168.903 64.1013 170.903 64.5013 173.003 64.3013C177.903 64.6013 183.903 61.8013 189.703 56.7013C190.603 59.5013 192.203 61.8013 194.503 63.1013C196.203 64.1013 198.203 64.5013 200.303 64.3013C205.203 64.6013 211.203 61.8013 217.003 56.7013C217.903 59.5013 219.503 61.8013 221.803 63.1013C223.503 64.1013 225.503 64.5013 227.603 64.3013C232.503 64.6013 238.503 61.8013 244.303 56.7013C245.203 59.5013 246.803 61.8013 249.103 63.1013C250.803 64.1013 252.703 64.5013 254.803 64.3013C260.003 64.7013 266.503 61.4013 272.703 55.6013C273.603 59.0013 275.303 61.6013 277.803 63.1013C286.403 68.0013 301.303 58.2013 311.203 41.1013C321.103 24.1013 322.203 6.20125 313.603 1.30125Z" fill="#EEABC4"/>
<path d="M454.298 1.30125C448.598 -1.99875 440.098 1.30126 432.198 8.80126C431.298 5.40126 429.598 2.80125 427.098 1.30125C425.398 0.301255 423.398 -0.0987453 421.298 0.101255C416.398 -0.198745 410.398 2.60125 404.598 7.70125C403.698 4.90125 402.098 2.60125 399.798 1.30125C398.098 0.301255 396.098 -0.0987453 393.998 0.101255C389.098 -0.198745 383.098 2.60125 377.298 7.70125C376.398 4.90125 374.798 2.60125 372.498 1.30125C370.798 0.301255 368.798 -0.0987453 366.698 0.101255C361.798 -0.198745 355.798 2.60125 349.998 7.70125C349.098 4.90125 347.498 2.60125 345.198 1.30125C343.498 0.301255 341.598 -0.0987453 339.498 0.101255C334.298 -0.298745 327.798 3.00126 321.598 8.80126C320.698 5.40126 318.998 2.80125 316.498 1.30125C307.898 -3.59875 292.998 6.20125 283.098 23.3013C273.198 40.3013 272.098 58.2013 280.698 63.1013C286.398 66.4013 294.898 63.1013 302.798 55.6013C303.698 59.0013 305.398 61.6013 307.898 63.1013C309.598 64.1013 311.598 64.5013 313.698 64.3013C318.598 64.6013 324.598 61.8013 330.398 56.7013C331.298 59.5013 332.898 61.8013 335.198 63.1013C336.898 64.1013 338.898 64.5013 340.998 64.3013C345.898 64.6013 351.898 61.8013 357.698 56.7013C358.598 59.5013 360.198 61.8013 362.498 63.1013C364.198 64.1013 366.198 64.5013 368.298 64.3013C373.198 64.6013 379.198 61.8013 384.998 56.7013C385.898 59.5013 387.498 61.8013 389.798 63.1013C391.498 64.1013 393.398 64.5013 395.498 64.3013C400.698 64.7013 407.198 61.4013 413.398 55.6013C414.298 59.0013 415.998 61.6013 418.498 63.1013C427.098 68.0013 441.998 58.2013 451.898 41.1013C461.798 24.1013 462.898 6.20125 454.298 1.30125Z" fill="#EEABC4"/>
</svg>
