<svg width="368" height="167" viewBox="0 0 368 167" fill="none" xmlns="http://www.w3.org/2000/svg">
<path d="M329.777 102.309C350.405 66.581 352.626 29.2451 334.738 18.9174C316.85 8.58966 285.626 29.181 264.998 64.9095C244.371 100.638 242.15 137.974 260.038 148.302C277.926 158.629 309.149 138.038 329.777 102.309Z" fill="#FFFFFF"/>
<path d="M272.98 102.302C293.608 66.5732 295.829 29.2373 277.941 18.9096C260.053 8.58185 228.829 29.1732 208.202 64.9017C187.574 100.63 185.353 137.966 203.241 148.294C221.129 158.621 252.352 138.03 272.98 102.302Z" fill="#FFFFFF"/>
<path d="M216.23 102.2C236.858 66.4716 239.079 29.1357 221.191 18.808C203.303 8.48029 172.079 29.0716 151.452 64.8001C130.824 100.529 128.603 137.864 146.491 148.192C164.379 158.52 195.602 137.929 216.23 102.2Z" fill="#FFFFFF"/>
<path d="M159.426 102.192C180.053 66.4638 182.274 29.1279 164.386 18.8002C146.498 8.47248 115.275 29.0638 94.6469 64.7923C74.019 100.521 71.7981 137.857 89.6862 148.184C107.574 158.512 138.798 137.921 159.426 102.192Z" fill="#FFFFFF"/>
<path d="M102.629 102.286C123.257 66.5576 125.478 29.2217 107.589 18.8939C89.7012 8.56621 58.4778 29.1576 37.85 64.886C17.2222 100.614 15.0012 137.95 32.8894 148.278C50.7775 158.606 82.0009 138.014 102.629 102.286Z" fill="#FFFFFF"/>
</svg>
