<svg width="700" height="247" viewBox="0 0 700 247" fill="none" xmlns="http://www.w3.org/2000/svg">
<path d="M401.781 20.975C336.581 10.875 270.781 5.275 204.781 4.375C138.781 3.475 142.081 4.575 111.081 9.375C95.5807 11.775 80.2807 15.275 65.3807 20.075C54.6807 23.575 43.9807 27.675 34.5807 34.075C-6.71929 62.275 -5.61929 121.775 9.98071 163.875C25.5807 205.975 31.2807 204.875 51.1807 217.575C71.0807 230.275 96.5807 234.475 120.681 236.675C187.181 242.875 253.981 245.375 320.681 246.275C386.781 247.075 452.981 246.475 519.081 245.575C548.981 245.175 579.181 243.975 608.481 237.375C637.781 230.775 638.381 229.375 652.281 222.775C664.081 217.275 674.281 207.475 682.181 197.175C690.381 186.375 696.081 174.075 698.081 160.575C700.081 147.075 700.081 136.675 698.681 124.975C696.581 106.375 689.881 88.675 677.481 74.375C652.881 45.975 613.181 35.375 578.081 26.675C550.981 19.975 523.781 13.875 496.181 9.575C464.181 4.475 431.881 1.475 399.481 0.375C383.681 -0.125 367.881 -0.125 352.081 0.375C336.281 0.875 350.481 2.875 352.081 2.875C415.381 0.975 478.881 6.975 540.781 20.475C561.781 25.075 582.781 29.975 603.381 36.075C620.981 41.375 638.481 47.775 654.081 57.775C669.681 67.775 681.181 80.075 688.481 96.175C697.381 115.875 698.781 139.375 695.481 160.575C691.281 187.675 671.281 212.175 646.181 222.775C618.081 234.775 587.781 239.775 557.481 241.675C527.181 243.575 496.181 243.275 465.581 243.575C433.481 243.875 401.281 244.175 369.181 244.075C304.681 243.975 240.081 242.675 175.681 238.475C159.781 237.475 143.781 236.275 127.881 234.875C115.381 233.775 102.781 232.675 90.3807 230.075C65.7807 224.975 42.7807 213.175 27.6807 192.575C14.1807 174.175 6.68071 151.175 3.78071 128.675C0.780714 105.175 2.48071 79.575 14.7807 58.775C27.4807 37.075 49.7807 27.175 72.8807 20.375C102.481 11.675 133.281 8.175 163.981 7.175C194.681 6.175 226.781 6.975 258.081 8.675C289.881 10.375 321.681 13.075 353.381 16.875C385.081 20.675 385.081 20.975 400.981 23.475C416.881 25.975 403.281 21.275 401.681 21.075L401.781 20.975Z" fill="#F2F0E6"/>
</svg>
