<svg width="755" height="201" viewBox="0 0 755 201" fill="none" xmlns="http://www.w3.org/2000/svg">
<path d="M338.455 1.23907C271.855 -1.66093 204.955 0.539073 138.655 7.73907C106.855 11.2391 74.6553 15.1391 43.3553 21.7391C33.5553 23.8391 23.7553 27.1391 15.7553 33.3391C7.75533 39.5391 1.65533 51.0391 0.355328 62.3391C-2.64467 89.0391 13.8553 113.939 30.8553 132.839C47.1553 150.939 66.8553 165.639 88.8553 176.139C131.055 196.239 178.555 200.639 224.755 200.739C253.255 200.739 281.655 199.439 310.155 198.539C338.655 197.639 377.955 196.339 411.855 195.239C479.655 193.039 547.455 190.839 615.255 188.739C631.755 188.239 648.155 187.939 664.655 187.039C679.155 186.339 693.755 184.539 707.255 178.839C729.655 169.439 746.355 149.139 752.155 125.639C758.455 100.239 751.955 72.6391 737.255 51.1391C730.555 41.3391 722.155 32.8391 711.955 26.6391C701.755 20.4391 686.455 15.2391 672.655 13.1391C658.955 11.1391 645.155 10.8391 631.355 10.5391C617.555 10.2391 597.455 9.83907 580.555 9.53907C546.655 8.93907 512.755 8.53907 478.855 8.23907C411.055 7.73907 343.255 7.83907 275.555 8.53907C259.155 8.73907 242.655 8.93907 226.255 9.23907C209.855 9.53907 224.655 11.7391 226.255 11.7391C291.555 10.7391 356.855 10.3391 422.155 10.4391C487.655 10.6391 553.255 11.3391 618.755 12.7391C647.055 13.3391 677.355 12.0391 703.455 24.6391C726.955 36.0391 743.055 58.5391 749.355 83.5391C755.955 109.839 750.355 138.239 731.855 158.439C723.155 167.939 712.255 174.739 699.955 178.739C687.655 182.739 670.755 184.139 656.055 184.639C590.855 186.839 525.755 188.839 460.555 190.939C395.355 193.039 329.455 195.139 263.955 197.239C198.455 199.339 171.755 199.139 127.355 187.239C82.9553 175.339 84.1553 172.239 65.3553 159.339C44.6553 145.239 25.3553 126.039 13.1553 104.039C0.455328 81.7391 -4.24467 48.9391 20.7553 32.9391C29.5553 27.3391 39.7553 24.9391 49.8553 23.0391C65.8553 20.1391 81.9553 17.6391 98.0553 15.3391C162.055 6.33907 226.755 2.03907 291.455 2.53907C307.155 2.63907 322.855 3.03907 338.455 3.73907C354.055 4.43907 340.055 1.33907 338.455 1.23907Z" fill="#414042"/>
</svg>
