<svg width="304" height="106" viewBox="0 0 304 106" fill="none" xmlns="http://www.w3.org/2000/svg">
<path d="M297.633 102.794C266.733 101.894 235.733 100.294 204.933 97.994C174.133 95.694 143.433 92.794 112.733 89.094C98.8332 87.494 84.9332 85.8941 71.1332 83.494C57.3332 81.094 46.2332 78.094 34.7332 72.594C23.2332 67.094 12.6332 59.3941 6.53321 48.194C0.433207 36.994 1.83321 36.5941 2.83321 30.3941C3.83321 24.194 6.43321 20.5941 10.3332 17.0941C18.0332 10.4941 28.9332 8.39405 38.7332 7.19405C53.7332 5.49405 68.7332 4.29405 83.7332 3.49405C114.033 1.89405 144.533 2.09405 174.833 4.09405C205.133 6.09405 235.233 9.99405 265.033 15.6941C294.833 21.3941 291.133 21.794 298.033 33.594C301.033 38.794 302.333 44.994 300.533 50.8941C298.733 56.7941 295.833 59.694 291.833 62.594C282.533 69.3941 270.733 71.3941 259.833 73.8941C248.933 76.3941 230.133 80.3941 215.233 83.2941C185.233 89.1941 155.133 94.194 124.833 98.194C94.5332 102.194 110.033 100.094 102.733 100.994C95.4332 101.894 101.133 103.694 102.733 103.494C133.833 99.7941 164.833 95.094 195.733 89.494C211.233 86.694 226.733 83.5941 242.133 80.2941C257.533 76.994 257.433 76.894 265.133 75.194C272.833 73.494 276.533 72.594 282.033 70.494C291.433 66.8941 300.833 60.7941 303.233 50.3941C305.633 39.994 298.033 26.0941 287.633 20.1941C277.233 14.2941 275.033 15.0941 268.433 13.7941C261.833 12.4941 253.433 10.9941 245.933 9.79405C230.633 7.29405 215.233 5.29405 199.833 3.69405C168.733 0.694051 137.333 -0.505949 106.033 0.194051C90.4332 0.594051 74.8332 1.39405 59.3332 2.79405C43.8332 4.19405 44.4332 4.09405 37.0332 5.09405C29.6332 6.09405 26.5332 6.69405 21.5332 8.39405C11.7332 11.6941 2.73321 18.194 0.533206 28.8941C-2.06679 41.194 5.23321 53.494 13.9332 61.694C33.1332 79.694 60.4332 84.8941 85.6332 88.2941C110.833 91.6941 148.033 95.7941 179.333 98.494C210.633 101.194 242.633 103.194 274.433 104.494C282.133 104.794 289.933 105.094 297.633 105.294C305.333 105.494 299.233 102.794 297.633 102.794Z" fill="#EEABC4"/>
</svg>
