<svg width="539" height="154" viewBox="0 0 539 154" fill="none" xmlns="http://www.w3.org/2000/svg">
<path d="M534.219 72.3259C492.519 57.1259 449.319 46.3259 405.519 38.9259C361.419 31.4259 316.719 27.2259 272.119 25.0259C227.519 22.8259 183.119 22.6259 138.519 23.3259C93.9194 24.0259 96.1194 24.4259 75.2194 28.4259C55.6194 32.1259 35.0194 38.7259 19.1194 51.1259C3.21937 63.5259 -4.78063 79.1259 3.01937 96.5259C10.8194 113.926 32.0194 122.226 50.6194 125.726C73.7194 130.026 97.1194 133.226 120.419 136.426C144.319 139.626 168.319 142.426 192.319 144.726C240.319 149.326 288.519 152.226 336.719 153.026C360.819 153.426 384.919 153.326 409.019 152.726C427.019 152.226 445.219 151.526 462.719 146.526C478.319 142.026 493.219 133.626 501.819 119.426C510.519 105.126 510.919 87.5259 505.919 71.9259C500.619 55.3259 489.919 41.0259 476.019 30.7259C462.119 20.4259 440.419 11.7259 421.019 6.62589C411.419 4.12589 401.719 2.02589 392.019 0.0258908C390.419 -0.274109 389.819 2.12589 391.319 2.42589C427.619 10.0259 470.219 19.0259 492.919 51.5259C502.419 65.2259 508.319 82.2259 506.219 99.0259C504.119 116.126 493.019 129.926 478.019 137.826C463.019 145.726 445.319 148.326 428.419 149.426C406.819 150.826 385.019 150.726 363.419 150.726C316.719 150.726 270.119 148.626 223.619 144.926C177.019 141.226 130.619 135.726 84.4194 128.626C38.2194 121.526 61.6194 125.226 50.3194 123.026C39.0194 120.826 29.9194 118.426 21.1194 112.926C12.3194 107.426 6.41937 100.526 3.81937 91.4259C1.21937 82.3259 3.51937 73.0259 8.81937 65.3259C19.8194 49.1259 39.9194 40.3259 58.0194 34.9259C76.1194 29.5259 98.7194 26.9259 119.419 26.1259C140.619 25.2259 161.919 25.3259 183.119 25.3259C204.319 25.3259 226.119 25.6259 247.619 26.3259C291.119 27.8259 334.719 30.9259 377.919 37.0259C421.119 43.1259 462.819 51.7259 503.819 64.5259C513.719 67.6259 523.619 70.9259 533.419 74.5259C543.219 78.1259 535.619 72.6259 534.119 72.1259L534.219 72.3259Z" fill="#EEABC4"/>
</svg>
