<svg width="363" height="364" viewBox="0 0 363 364" fill="none" xmlns="http://www.w3.org/2000/svg">
<path d="M189.903 42.2016L217.903 5.30162C223.903 -2.59838 236.403 0.801619 237.603 10.6016L243.403 56.5016C244.303 63.7016 251.903 68.1016 258.603 65.3016L301.303 47.4016C310.403 43.6016 319.603 52.7016 315.703 61.8016L297.803 104.502C295.003 111.202 299.303 118.802 306.603 119.702L352.503 125.502C362.303 126.702 365.703 139.302 357.803 145.202L320.903 173.202C315.103 177.602 315.103 186.402 320.903 190.802L357.803 218.802C365.703 224.802 362.303 237.302 352.503 238.502L306.603 244.302C299.403 245.202 295.003 252.802 297.803 259.502L315.703 302.202C319.503 311.302 310.403 320.502 301.303 316.602L258.603 298.702C251.903 295.902 244.303 300.202 243.403 307.502L237.603 353.402C236.403 363.202 223.803 366.602 217.903 358.702L189.903 321.802C185.503 316.002 176.703 316.002 172.303 321.802L144.303 358.702C138.303 366.602 125.803 363.202 124.603 353.402L118.803 307.502C117.903 300.302 110.303 295.902 103.603 298.702L60.9032 316.602C51.8032 320.402 42.6032 311.302 46.5032 302.202L64.4032 259.502C67.2032 252.802 62.9032 245.202 55.6032 244.302L9.70318 238.502C-0.0968199 237.302 -3.49682 224.702 4.40318 218.802L41.3032 190.802C47.1032 186.402 47.1032 177.602 41.3032 173.202L4.40318 145.202C-3.49682 139.202 -0.0968199 126.702 9.70318 125.502L55.6032 119.702C62.8032 118.802 67.2032 111.202 64.4032 104.502L46.5032 61.8016C42.7032 52.7016 51.8032 43.5016 60.9032 47.4016L103.603 65.3016C110.303 68.1016 117.903 63.8016 118.803 56.5016L124.603 10.6016C125.803 0.801619 138.403 -2.59838 144.303 5.30162L172.303 42.2016C176.703 48.0016 185.503 48.0016 189.903 42.2016Z" fill="#EEABC4"/>
</svg>
