<svg width="45" height="45" viewBox="0 0 45 45" fill="none" xmlns="http://www.w3.org/2000/svg">
<g clip-path="url(#clip0_128_1056)">
<path d="M34.2016 8.20312C32.7016 8.20312 31.6016 9.40313 31.6016 10.8031C31.6016 12.2031 32.8016 13.4031 34.2016 13.4031C35.6016 13.4031 36.8016 12.2031 36.8016 10.8031C36.8016 9.40313 35.6016 8.20312 34.2016 8.20312Z" fill="#00763F"/>
<path d="M22.4984 11.6016C16.3984 11.6016 11.3984 16.6016 11.3984 22.7016C11.3984 28.8016 16.3984 33.8016 22.4984 33.8016C28.5984 33.8016 33.5984 28.8016 33.5984 22.7016C33.5984 16.6016 28.5984 11.6016 22.4984 11.6016ZM22.4984 29.8016C18.5984 29.8016 15.3984 26.6016 15.3984 22.7016C15.3984 18.8016 18.5984 15.6016 22.4984 15.6016C26.3984 15.6016 29.5984 18.8016 29.5984 22.7016C29.5984 26.6016 26.3984 29.8016 22.4984 29.8016Z" fill="#00763F"/>
<path d="M31.3 0H13.5C6 0 0 6 0 13.5V31.3C0 38.7 6 44.8 13.5 44.8H31.3C38.7 44.8 44.8 38.8 44.8 31.3V13.5C44.8 6.1 38.8 0 31.3 0ZM40.5 31.3C40.5 36.4 36.4 40.6 31.2 40.6H13.5C8.4 40.6 4.2 36.5 4.2 31.3V13.5C4.2 8.4 8.3 4.2 13.5 4.2H31.3C36.4 4.2 40.6 8.3 40.6 13.5V31.3H40.5Z" fill="#00763F"/>
</g>
<defs>
<clipPath id="clip0_128_1056">
<rect width="44.8" height="44.8" fill="white"/>
</clipPath>
</defs>
</svg>
