<svg xmlns="http://www.w3.org/2000/svg" data-name="Layer 2" viewBox="0 0 755.37 178.74"><path d="M199.33 44.84v-.08c0-18.45-14.96-33.41-33.41-33.41-17.04 0-31.07 12.76-33.13 29.25-2.06-16.48-16.09-29.25-33.13-29.25S68.59 24.11 66.53 40.6C64.47 24.12 50.44 11.35 33.4 11.35 14.96 11.34 0 26.3 0 44.75v126.23h199.37V44.84h-.04Z" style="stroke-width:0;fill:#eeabc4"/><path d="m337.03 20.35 13.81-18.2c2.95-3.88 9.13-2.23 9.74 2.61l2.87 22.67c.45 3.57 4.19 5.73 7.51 4.34l21.06-8.85c4.5-1.89 9.02 2.63 7.13 7.13l-8.85 21.06c-1.4 3.32.76 7.06 4.34 7.51l22.67 2.87c4.84.61 6.49 6.79 2.61 9.74l-18.2 13.81c-2.87 2.18-2.87 6.49 0 8.67l18.2 13.81c3.88 2.95 2.23 9.13-2.61 9.74l-22.67 2.87c-3.57.45-5.73 4.19-4.34 7.51l8.85 21.06c1.89 4.5-2.63 9.02-7.13 7.13l-21.06-8.85c-3.32-1.4-7.06.76-7.51 4.34l-2.87 22.67c-.61 4.84-6.79 6.49-9.74 2.61l-13.81-18.2c-2.18-2.87-6.49-2.87-8.67 0l-13.81 18.2c-2.95 3.88-9.13 2.23-9.74-2.61l-2.87-22.67c-.45-3.57-4.19-5.73-7.51-4.34l-21.06 8.85c-4.5 1.89-9.02-2.63-7.13-7.13l8.85-21.06c1.4-3.32-.76-7.06-4.34-7.51l-22.67-2.87c-4.84-.61-6.49-6.79-2.61-9.74l18.2-13.81c2.87-2.18 2.87-6.49 0-8.67l-18.2-13.81c-3.88-2.95-2.23-9.13 2.61-9.74l22.67-2.87c3.57-.45 5.73-4.19 4.34-7.51l-8.85-21.06c-1.89-4.5 2.63-9.02 7.13-7.13l21.06 8.85c3.32 1.4 7.06-.76 7.51-4.34l2.87-22.67c.61-4.84 6.79-6.49 9.74-2.61l13.81 18.2c2.18 2.87 6.49 2.87 8.67 0Z" style="fill:#007540;stroke-width:0"/><path d="M545.69 163.41c1.04-32.84 28.01-59.26 61.1-59.26s60.07 26.42 61.1 59.26h87.48c-1.05-81.06-67.28-146.69-148.58-146.69S459.25 82.35 458.21 163.41h87.48Z" style="fill:#c6ec46;stroke-width:0"/></svg>