<svg width="300" height="317" viewBox="0 0 300 317" fill="none" xmlns="http://www.w3.org/2000/svg">
<path d="M88.2 317.002C89.2 283.902 116.4 257.202 149.8 257.202C183.2 257.202 210.4 283.802 211.4 317.002H299.6C298.5 235.302 231.8 169.102 149.8 169.102C67.8 169.102 1.1 235.202 0 317.002H88.2Z" fill="#C0E646"/>
<path d="M120.698 29.1L131.998 1.1L155.198 20.3L177.498 0L189.998 27.4L218.898 18.7L218.398 48.9L248.098 53.6L234.598 80.5L259.298 97.7L235.398 116.1L250.298 142.3L220.798 148.5L222.798 178.6L193.498 171.3L182.298 199.3L159.098 180.1L136.798 200.4L124.198 173L95.2984 181.7L95.8984 151.5L66.0984 146.8L79.6984 119.9L54.8984 102.7L78.7984 84.3L63.9984 58.1L93.4984 51.9L91.4984 21.8L120.698 29.1Z" fill="#00763F"/>
<path d="M181.8 113.503C181.8 118.503 180 122.603 176.3 125.703C172.6 128.803 167.5 130.603 161 131.203V141.003H154.5V131.403C146.8 131.203 140 129.903 134.1 127.303V114.703C136.9 116.103 140.2 117.303 144.1 118.303C148 119.303 151.5 120.003 154.5 120.203V105.403L151.3 104.203C145 101.703 140.6 99.0031 137.9 96.1031C135.2 93.2031 134 89.6031 134 85.3031C134 81.0031 135.8 76.9031 139.4 73.9031C143 70.9031 148 69.1031 154.5 68.5031V61.2031H161V68.3031C168.3 68.6031 174.8 70.1031 180.7 72.7031L176.2 83.8031C171.2 81.8031 166.2 80.5031 161 80.1031V94.1031C167.2 96.5031 171.6 98.5031 174.2 100.303C176.8 102.003 178.7 104.003 180 106.103C181.3 108.203 181.8 110.603 181.8 113.403V113.503ZM148.4 85.3031C148.4 86.7031 148.9 87.8031 149.9 88.8031C150.9 89.7031 152.4 90.6031 154.6 91.6031V80.4031C150.5 81.0031 148.5 82.7031 148.5 85.4031L148.4 85.3031ZM167.5 114.203C167.5 112.903 167 111.703 165.9 110.803C164.8 109.903 163.2 108.903 161 107.903V119.803C165.3 119.103 167.5 117.203 167.5 114.203Z" fill="#D0CEC4"/>
</svg>
