<svg width="354" height="873" viewBox="0 0 354 873" fill="none" xmlns="http://www.w3.org/2000/svg">
<path d="M104.1 872.1C105.3 833 137.4 801.6 176.8 801.6C216.2 801.6 248.3 833 249.5 872.1H353.6C352.4 775.6 273.5 697.5 176.8 697.5C80.1 697.5 1.2 775.6 0 872.1H104.1Z" fill="#D0F646"/>
<path d="M318.902 533.797C318.902 533.797 318.902 533.797 318.902 533.697C318.902 509.497 299.202 489.797 275.002 489.797C250.802 489.797 234.202 506.597 231.502 528.197C228.802 506.497 210.402 489.797 188.002 489.797C165.602 489.797 147.202 506.597 144.502 528.197C141.802 506.497 123.402 489.797 101.002 489.797C78.6016 489.797 57.1016 509.497 57.1016 533.697C57.1016 557.897 57.1016 533.697 57.1016 533.797V699.497H319.002V533.797H318.902Z" fill="#00763F"/>
<path d="M210.202 283.503C216.702 288.803 224.702 292.103 233.002 293.003C253.302 295.103 269.402 311.203 271.502 331.503C272.402 339.903 275.602 347.803 281.002 354.303C293.902 370.203 293.902 392.903 281.002 408.803C275.702 415.303 272.402 423.303 271.502 431.603C269.402 451.903 253.302 468.003 233.002 470.103C224.602 471.003 216.702 474.203 210.202 479.603C194.302 492.503 171.602 492.503 155.702 479.603C149.202 474.303 141.202 471.003 132.902 470.103C112.602 468.003 96.5016 451.903 94.4016 431.603C93.5016 423.203 90.3016 415.303 84.9016 408.803C72.0016 392.903 72.0016 370.203 84.9016 354.303C90.2016 347.803 93.5016 339.803 94.4016 331.503C96.5016 311.203 112.602 295.103 132.902 293.003C141.302 292.103 149.202 288.903 155.702 283.503C171.602 270.603 194.302 270.603 210.202 283.503Z" fill="#EEABC4"/>
<path d="M260.2 130.998C233.8 130.998 215.9 143.798 204.2 156.798C192.5 143.798 174.6 130.998 148.2 130.998C121.8 130.998 104 143.798 92.2 156.698C81 144.398 64.3 132.398 40 131.198V255.698C51.7 267.198 68.5 277.498 92.2 277.498C115.9 277.498 136.4 264.698 148.2 251.798C160 264.798 177.8 277.498 204.2 277.498C230.6 277.498 248.5 264.698 260.2 251.698C271.7 264.398 289 276.698 314.3 277.398V154.698C302.6 142.398 285.3 130.898 260.2 130.898V130.998Z" fill="#414042"/>
<path d="M167.303 20.2L175.103 0.8L191.203 14.1L206.703 0L215.403 19L235.403 13L235.003 33.9L255.703 37.2L246.203 55.8L263.403 67.8L246.803 80.5L257.203 98.7L236.703 102.9L238.103 123.8L217.803 118.8L210.003 138.2L193.903 124.8L178.503 138.9L169.803 119.9L149.703 126L150.103 105L129.503 101.8L138.903 83.1L121.703 71.2L138.303 58.5L128.003 40.3L148.403 36L147.003 15.1L167.303 20.2Z" fill="#D0F646"/>
</svg>
