<svg xmlns="http://www.w3.org/2000/svg" data-name="Layer 2" viewBox="0 0 1006.11 511"><text style="fill:#414042;font-family:Ramona-Bold,Ramona;font-size:140.09px;font-weight:700" transform="matrix(1.04 0 0 1 0 119.85)"><tspan xml:space="preserve" x="0" y="0">Curso  de </tspan><tspan x="0" y="168.11">S </tspan><tspan x="122.31" y="168.11" style="letter-spacing:.2em"> </tspan><tspan x="184.67" y="168.11">stenibilidad </tspan><tspan xml:space="preserve" x="0" y="336.22">Fin   </tspan><tspan x="297.77" y="336.22" style="letter-spacing:0">n</tspan><tspan x="377.94" y="336.22">cie</tspan><tspan x="559.89" y="336.22" style="letter-spacing:0">r</tspan><tspan x="614.07" y="336.22">a</tspan></text><path d="m246.39 371.62-37.34 64.68c-3.92 6.79.98 15.29 8.83 15.29h74.68c7.84 0 12.75-8.49 8.83-15.29l-37.34-64.68c-3.92-6.79-13.73-6.79-17.65 0Z" style="fill:#00763f;stroke-width:0"/><path d="M185.92 235.11h-17.54l12.4-12.4-13.88-13.88-12.4 12.4V203.7h-19.63v17.53l-12.39-12.4-13.88 13.88 12.39 12.4h-17.53v19.63h17.53l-12.39 12.4 13.88 13.88 12.39-12.4v17.53h19.63v-17.53l12.4 12.4 13.88-13.88-12.4-12.4h17.54v-19.63z" style="stroke-width:0;fill:#eeabc4"/></svg>