<svg xmlns="http://www.w3.org/2000/svg" id="Layer_2" data-name="Layer 2" viewBox="0 0 127.25 59.7"><defs><style>.cls-1{fill:#414042;stroke-width:0}</style></defs><g id="Layer_1-2" data-name="Layer 1"><path d="M12.05 6.18c-.08 0-.16-.01-.24-.02h-.25c-.33 0-.67.01-.99.02-.33 0-.66.02-.99.03-.08 0-.16 0-.25-.02l-.4-.03c-.14 0-.25-.04-.34-.11a.48.48 0 0 1-.15-.3c-.02-.14-.03-.26-.05-.39-.05-.31-.15-.58-.3-.81-.15-.23-.38-.4-.69-.49-.19-.05-.38-.1-.57-.14a2.76 2.76 0 0 0-.57-.06c-.38 0-.72.1-1.02.31-.3.21-.54.46-.73.76-.18.3-.33.61-.45.94-.12.32-.17.67-.16 1.04 0 .36 0 .72-.04 1.08-.03.35-.06.71-.06 1.08 0 .22.01.45.04.67.03.22.05.44.09.66 0 .05.04.14.1.28.06.14.15.29.27.45.12.16.27.32.44.47.17.15.38.26.61.34.32.16.67.25 1.05.25.63 0 1.17-.2 1.65-.61.12-.11.22-.21.3-.3.08-.09.14-.18.18-.28.04-.1.06-.2.06-.31s-.02-.24-.06-.38c-.03-.08-.01-.16.03-.23.05-.07.12-.11.2-.12.04 0 .08-.01.11-.01.04 0 .07 0 .1-.01.03 0 .06 0 .08.01.02 0 .05.01.08.01h.02c.11-.04.23-.06.34-.07.11-.01.22-.02.33-.02.28 0 .57.03.85.08s.57.08.85.08h.04c.17 0 .31.05.42.18.11.12.15.27.14.44-.04.44-.16.84-.36 1.21-.19.36-.44.71-.74 1.05-.28.33-.6.61-.96.84-.35.24-.7.48-1.04.74-.09.06-.26.11-.5.16s-.5.08-.77.11-.54.05-.79.07c-.25.02-.44.02-.55.02-.28 0-.53 0-.75-.02-.22-.02-.44-.04-.64-.07-.21-.03-.42-.08-.63-.14-.21-.06-.45-.13-.72-.22-.63-.21-1.16-.52-1.59-.94-.43-.41-.79-.91-1.07-1.48-.35-.72-.61-1.45-.8-2.19-.19-.74-.24-1.51-.16-2.31.07-.71.19-1.38.37-2 .18-.62.43-1.19.75-1.7.33-.52.73-.98 1.22-1.4a7.47 7.47 0 0 1 1.78-1.09c.03-.01.06-.02.11-.04l1.26-.15c.42-.05.84-.08 1.26-.08.69 0 1.36.12 1.99.35.63.24 1.2.59 1.69 1.06.28.27.52.54.72.8.19.26.35.53.47.8.12.28.21.57.28.89.07.32.12.66.16 1.04 0 .04 0 .07-.01.11-.02.04-.03.09-.04.14ZM22.61 4.58c.02.28.04.55.07.82.03.27.04.54.03.81-.01.5-.03.99-.06 1.49-.03.49-.06.99-.08 1.49-.02.32-.04.63-.05.94-.02.31-.03.63-.03.94 0 .32 0 .63.03.94.03.31.07.63.14.94.05.22.06.45.04.69-.02.24-.03.49-.03.75-.3.08-.59.13-.89.16-.29.03-.59.04-.9.04-.23 0-.47 0-.7-.01-.23 0-.46-.02-.7-.03-.03-.14-.06-.27-.08-.39-.02-.12-.05-.26-.08-.42-.18.15-.39.29-.64.43-.25.13-.51.25-.79.35-.28.1-.56.17-.84.23-.28.06-.54.09-.79.09-.68 0-1.3-.2-1.87-.59-.31-.21-.56-.48-.75-.79a4.64 4.64 0 0 1-.45-.99c-.24-.77-.29-1.56-.16-2.36.07-.44.11-.89.11-1.33 0-.45.02-.89.06-1.34.03-.29.02-.57 0-.84l-.09-.83c-.02-.16-.02-.32 0-.49.03-.17.04-.35.06-.54.36-.04.72-.07 1.08-.1a19.108 19.108 0 0 1 1.72-.02c.21 0 .43.02.65.03.11.24.17.48.18.72 0 .24 0 .48-.03.71-.04.41-.09.82-.15 1.22a10.589 10.589 0 0 0-.07 2.34l.09 1.13c0 .07.02.13.04.2s.03.13.02.2c-.01.27.04.49.17.65.13.16.33.29.62.37.13.04.25.05.38.05a1.018 1.018 0 0 0 .82-.4c.09-.12.17-.26.22-.41.05-.15.09-.3.1-.45.04-.51.07-1.01.09-1.51.02-.5.04-1 .04-1.51 0-.47 0-.93-.01-1.39-.02-.46-.03-.93-.04-1.39 0-.19.05-.35.16-.46.1-.11.24-.17.42-.18.4-.01.81-.02 1.21-.02h1.21c.08 0 .16 0 .25.02.08.02.18.03.28.04ZM23.75 4.36c.28-.15.55-.22.79-.22.17 0 .33.03.48.09.11.04.21.06.31.07.1.01.21.02.31.02.12 0 .24 0 .36-.01.12 0 .24-.01.36-.01h.29c.07 0 .12.02.16.05.03.03.06.08.07.14s.01.16.01.28c0 .12.02.23.05.34.03.11.05.24.08.38.37-.36.77-.64 1.18-.83.41-.19.89-.29 1.43-.29.28 0 .48.07.59.18.11.11.17.31.17.59v.67c0 .22-.02.45-.05.66-.03.16-.04.31-.04.45s.06.29.19.43c-.11.03-.18.06-.23.09-.04.03-.1.05-.18.05-.29.01-.58.02-.87.02s-.58 0-.88.02c-.33.01-.58.1-.74.26-.16.16-.24.41-.26.74-.01.41-.02.82-.02 1.23v4.77h-3.32c-.06-.84-.1-1.69-.11-2.53 0-.85-.01-1.7-.01-2.54V6.92c0-.85-.04-1.7-.1-2.54ZM40.43 7.4c-.06.02-.11.04-.17.07-.06.03-.12.04-.18.05-.45.02-.89.05-1.34.07-.44.02-.89.04-1.34.05h-.26c-.15 0-.28-.03-.39-.08-.12-.05-.2-.18-.25-.37-.01-.06-.05-.11-.11-.16s-.12-.09-.17-.14a1.06 1.06 0 0 0-.65-.23c-.1 0-.19.02-.26.05-.13.07-.23.18-.32.34-.09.16-.12.31-.09.44.07.4.31.63.73.68l.9.12c.3.04.6.07.9.1.49.05.92.2 1.27.44.36.25.68.55.98.91.24.31.43.63.56.96.14.33.18.69.13 1.09-.01.1-.04.21-.08.35-.04.14-.08.28-.14.42a3.7 3.7 0 0 1-.17.4c-.06.12-.11.22-.16.3-.11.16-.25.3-.41.42-.16.12-.32.24-.49.34-.42.27-.84.46-1.28.57-.44.11-.89.16-1.35.16-.28 0-.56-.02-.84-.05-.28-.03-.57-.08-.86-.13a5.13 5.13 0 0 1-1.88-.73c-.54-.35-.99-.83-1.35-1.44-.08-.14-.15-.28-.22-.42-.06-.14-.12-.29-.16-.43-.07-.21-.05-.38.05-.49.1-.11.27-.17.5-.17h1.4c.37 0 .69.06.97.19.28.12.53.33.74.62a1.305 1.305 0 0 0 1.05.54c.24 0 .45-.05.62-.15.17-.1.29-.27.35-.51.03-.14.02-.26-.04-.38a.54.54 0 0 0-.3-.25c-.2-.08-.39-.15-.59-.22-.2-.07-.4-.12-.6-.17-.45-.11-.92-.23-1.38-.38-.47-.14-.89-.33-1.27-.57-.38-.24-.69-.54-.93-.9-.24-.36-.36-.81-.36-1.35 0-.68.19-1.24.54-1.69.35-.45.84-.81 1.47-1.1.4-.18.81-.33 1.22-.44s.83-.16 1.26-.16H35.89c.51.02 1.01.08 1.48.2.48.12.93.3 1.36.55.35.21.62.47.83.79.21.32.38.66.53 1.03.05.13.1.27.15.41.05.14.11.29.17.45ZM45.69 14.66l-.24.03h-.22c-.37 0-.72-.06-1.06-.19-.33-.12-.66-.27-.98-.44-.35-.19-.66-.43-.94-.73-.28-.3-.53-.63-.74-.99-.21-.36-.4-.73-.55-1.12-.15-.39-.28-.76-.37-1.11-.07-.24-.1-.48-.1-.74s.02-.51.05-.76c.08-.66.27-1.27.58-1.82.31-.55.7-1.07 1.17-1.54.23-.23.5-.42.81-.58.3-.15.63-.27.97-.34.05-.01.1-.02.16-.03.05 0 .1-.03.14-.06.12-.1.26-.18.41-.24a2.978 2.978 0 0 1 .99-.22c.17-.01.34-.02.49-.02.22 0 .44 0 .65.02.21.02.43.03.65.04.3.01.58.07.84.18.26.11.51.24.74.4.2.15.4.3.58.47.19.17.37.33.55.5.23.22.41.46.54.73.13.27.23.56.3.86.09.36.18.72.29 1.08s.16.72.18 1.1c.02.63-.07 1.22-.26 1.77s-.45 1.09-.76 1.62c-.05.08-.11.15-.17.22-.06.07-.13.13-.2.2-.29.25-.59.49-.9.7-.31.21-.63.39-.96.54a5.301 5.301 0 0 1-2.18.48h-.23c-.08 0-.15 0-.23-.02Zm-1.1-5.1c-.03.36.03.71.18 1.07.15.35.32.71.51 1.06a.7.7 0 0 0 .62.36c.09 0 .17-.02.26-.05.23-.08.44-.19.63-.33s.35-.3.49-.48.24-.38.32-.6.12-.45.12-.68c0-.1.02-.2.03-.3.02-.1.03-.2.03-.3v-.57c0-.18-.03-.37-.07-.55s-.1-.36-.18-.53c-.08-.17-.18-.33-.32-.48-.14-.16-.3-.29-.49-.37-.19-.08-.38-.12-.57-.12-.22 0-.43.05-.62.16s-.33.27-.42.48c-.15.34-.27.69-.38 1.04-.11.35-.15.75-.14 1.19ZM68.21 14.49c-.04-.14-.07-.27-.1-.39s-.07-.26-.11-.41c-.28.16-.55.32-.83.49-.27.17-.54.34-.81.52-.18.12-.36.21-.55.28-.19.06-.39.1-.59.1-.09 0-.19 0-.29-.03-.24-.04-.47-.09-.7-.15-.22-.06-.44-.15-.63-.25-.2-.1-.38-.23-.55-.39-.17-.16-.32-.35-.45-.57-.21-.38-.41-.76-.59-1.14-.18-.38-.31-.79-.38-1.22-.1-.56-.13-1.12-.09-1.66s.1-1.09.18-1.64c.01-.08.03-.17.04-.26.02-.09.03-.17.03-.26.02-.37.1-.71.25-1.03.15-.32.34-.61.58-.86.24-.26.51-.49.82-.69.31-.2.63-.36.97-.49.12-.05.25-.08.4-.1.15-.02.3-.03.46-.03.21 0 .42.02.65.05.22.03.44.08.65.15.21.06.41.14.59.22.18.08.33.18.46.29.03.02.06.05.1.09.03.03.09.09.18.16V3.96c.01-.57.03-1.13.04-1.69.02-.55.03-1.12.04-1.69 0-.15.04-.25.11-.33.07-.07.18-.12.33-.14.23-.03.45-.05.68-.07.23-.02.45-.03.68-.03.46 0 .92.05 1.36.15.05.22.08.43.09.65.01.22 0 .44-.02.67-.03.32-.03.64 0 .96.03.32.05.64.05.96v10.46c0 .22-.04.38-.13.48-.09.1-.24.15-.46.16h-2.44Zm-.97-2.48c.08-.21.15-.39.24-.55.08-.16.13-.33.14-.49.04-.39.06-.78.07-1.16 0-.39.01-.78.01-1.16 0-.13 0-.27-.01-.41a1.13 1.13 0 0 0-.12-.38c-.05-.09-.1-.18-.15-.28a1.51 1.51 0 0 0-.18-.26c-.07-.08-.15-.15-.24-.21a.72.72 0 0 0-.34-.11h-.18c-.2 0-.37.04-.51.11-.14.08-.26.17-.36.3-.1.12-.18.26-.25.41s-.12.31-.18.46c-.09.3-.15.59-.17.89-.02.29 0 .58.04.87.04.29.11.57.2.86.09.28.19.57.3.84.07.18.16.29.27.34.11.05.26.08.44.08.16-.01.32-.03.48-.05.15-.02.31-.05.47-.07ZM82.2 10.46c-.49.03-.99.05-1.5.06-.51.01-1.01.05-1.53.12l-.35.03h-.35c-.22 0-.44 0-.66-.02-.22-.01-.45-.02-.67-.02-.18 0-.36 0-.54.02-.18.02-.36.04-.54.09.14.21.29.38.45.53.16.15.34.27.52.36.18.1.38.18.58.25.21.07.42.13.63.18a1.768 1.768 0 0 0 .98-.02c.16-.05.33-.11.48-.19.16-.08.31-.16.47-.25.15-.09.32-.17.49-.25.21.24.42.47.63.71.21.24.42.48.63.71-.04.08-.06.16-.08.23-.02.07-.04.12-.08.15-.26.22-.51.45-.75.69a3.871 3.871 0 0 1-1.96 1.02c-.41.08-.82.14-1.24.17-.23 0-.47-.02-.72-.07s-.5-.11-.75-.18c-.25-.08-.49-.16-.73-.25s-.46-.18-.66-.27c-.44-.19-.8-.45-1.09-.77-.29-.32-.53-.69-.72-1.11-.15-.35-.28-.71-.39-1.07-.11-.36-.14-.74-.09-1.13.01-.07 0-.13 0-.18-.06-.25-.1-.5-.11-.74 0-.25 0-.49.03-.74s.08-.49.14-.73c.06-.24.12-.48.19-.72.09-.3.21-.58.36-.83s.36-.47.62-.66c.24-.18.48-.35.72-.52.24-.17.49-.34.75-.5.3-.18.63-.29.97-.33.34-.04.69-.06 1.03-.06h.52c.4 0 .79.03 1.18.08.39.05.77.17 1.15.37.37.19.69.43.97.71.27.28.47.6.61.97a8.995 8.995 0 0 1 .49 3.97c0 .02 0 .04-.02.06-.01.02-.03.06-.07.11Zm-3.04-2.12c-.18-.98-.64-1.47-1.36-1.47h-.18c-.95.11-1.4.6-1.35 1.46h2.91ZM9.5 27.64l-.74.06c-.25.02-.5.04-.75.07h-.07c-.15 0-.26-.04-.33-.12s-.14-.18-.18-.3c-.15-.44-.39-.78-.73-1.01-.33-.23-.75-.35-1.23-.35-.16 0-.32.02-.45.05-.14.03-.26.08-.35.15-.09.07-.18.16-.26.28a.64.64 0 0 0-.12.35c0 .17.02.34.08.5.06.17.14.32.24.47s.23.28.38.39c.15.12.31.2.48.26.37.13.75.26 1.12.38.37.12.74.25 1.11.39.25.1.49.2.73.3.24.1.47.21.7.34.23.12.44.26.65.42.21.15.39.33.56.54.44.53.74 1.08.88 1.67.15.58.11 1.21-.11 1.87-.09.25-.17.5-.25.74-.08.25-.21.47-.41.69-.25.27-.53.5-.84.67-.31.18-.64.31-.99.4-.37.1-.75.19-1.12.25-.38.07-.75.13-1.13.2-.04.01-.08.02-.11.02H5.9c-.08 0-.16-.02-.24-.03-.28-.04-.57-.07-.86-.11-.29-.04-.57-.08-.85-.14-.28-.05-.56-.13-.83-.21-.27-.09-.54-.2-.8-.34-.16-.09-.33-.19-.5-.29s-.31-.22-.41-.36c-.3-.41-.57-.83-.81-1.27-.24-.43-.42-.89-.54-1.39-.05-.22-.04-.39.02-.52.07-.13.21-.22.43-.28.21-.05.42-.09.63-.12.21-.02.42-.04.63-.04.27 0 .53.02.78.05.26.03.52.07.78.12.11.02.18.07.23.14.05.08.06.16.05.26-.02.25.04.49.17.7.13.22.31.4.52.56.21.16.45.28.71.37.26.09.5.14.72.14.33 0 .64-.05.93-.16.29-.11.51-.31.66-.61.19-.36.15-.7-.12-1.02-.2-.23-.42-.41-.67-.55-.25-.14-.52-.26-.8-.36-.46-.18-.92-.35-1.38-.52-.46-.17-.92-.36-1.37-.56-.37-.16-.71-.36-1.04-.6-.33-.23-.61-.51-.85-.84-.23-.33-.42-.67-.55-1.04s-.2-.73-.21-1.1c0-.37.04-.74.16-1.11.12-.37.3-.72.56-1.05.15-.18.31-.33.49-.45s.38-.24.58-.36c.24-.15.49-.28.74-.38.25-.1.51-.19.77-.26s.52-.13.79-.18c.27-.05.54-.1.8-.15.2-.03.4-.05.6-.07s.4-.03.6-.03c.45 0 .9.04 1.35.13.44.09.86.23 1.24.42.39.19.73.45 1.02.76.3.31.52.69.68 1.13.09.25.16.5.21.76l.15.77c.03.18 0 .31-.07.39-.08.08-.21.13-.39.15-.07 0-.14.01-.21.01H9.53v-.05ZM34.86 29.72c-.06.02-.11.04-.17.07-.06.03-.12.04-.18.05-.45.02-.89.05-1.34.07-.44.02-.89.04-1.34.05h-.26c-.15 0-.28-.03-.39-.08-.12-.05-.2-.18-.25-.37-.01-.06-.05-.11-.11-.16s-.12-.09-.17-.14a1.06 1.06 0 0 0-.65-.23c-.1 0-.19.02-.26.05-.13.07-.23.18-.32.34-.09.16-.12.31-.09.44.07.4.31.63.73.68l.9.12c.3.04.6.07.9.1.49.05.92.2 1.27.44.36.25.68.55.98.91.24.31.43.63.56.96.14.33.18.69.13 1.09-.01.1-.04.21-.08.35-.04.14-.08.28-.14.42a3.7 3.7 0 0 1-.17.4c-.06.12-.11.22-.16.3-.11.16-.25.3-.41.42-.16.12-.32.24-.49.34-.42.27-.84.46-1.28.57-.44.11-.89.16-1.35.16-.28 0-.56-.02-.84-.05-.28-.03-.57-.08-.86-.13a5.13 5.13 0 0 1-1.88-.73c-.54-.35-.99-.83-1.35-1.44-.08-.14-.15-.28-.22-.42-.06-.14-.12-.29-.16-.43-.07-.21-.05-.38.05-.49.1-.11.27-.17.5-.17h1.4c.37 0 .69.06.97.19.28.12.53.33.74.62a1.305 1.305 0 0 0 1.05.54c.24 0 .45-.05.62-.15.17-.1.29-.27.35-.51.03-.14.02-.26-.04-.38a.54.54 0 0 0-.3-.25c-.2-.08-.39-.15-.59-.22-.2-.07-.4-.12-.6-.17-.45-.11-.92-.23-1.38-.38-.47-.14-.89-.33-1.27-.57-.38-.24-.69-.54-.93-.9-.24-.36-.36-.81-.36-1.35 0-.68.19-1.24.54-1.69.35-.45.84-.81 1.47-1.1.4-.18.81-.33 1.22-.44.41-.11.83-.16 1.26-.16H30.32c.51.02 1.01.08 1.48.2.48.12.93.3 1.36.55.35.21.62.47.83.79.21.32.38.66.53 1.03.05.13.1.27.15.41.05.14.11.29.17.45ZM41.9 34.48c.03.16.05.33.05.49 0 .16 0 .33.01.49 0 .16.03.32.06.48.03.16.09.31.17.46-.27.28-.59.49-.94.6-.36.12-.73.18-1.13.18-.45 0-.87-.07-1.27-.22s-.78-.35-1.13-.63c-.28-.22-.5-.47-.65-.77-.15-.29-.24-.61-.27-.94-.05-.5-.08-.99-.08-1.49 0-.49-.01-.99-.02-1.49-.01-.42-.02-.83-.02-1.25 0-.41-.01-.84-.02-1.27-.22-.02-.43-.05-.63-.07-.2-.02-.41-.05-.62-.08-.08-.34-.12-.67-.1-.99.02-.32.02-.64.02-.96 0-.04.02-.08.06-.13.04-.05.07-.08.1-.08.22-.03.45-.05.67-.07l.7-.06c-.03-.36-.06-.73-.1-1.1-.03-.37-.07-.76-.1-1.17.15-.01.29-.03.42-.06.14-.03.27-.04.41-.04h.1c.4.03.81.07 1.21.12.4.05.82.1 1.26.15v2.22h1.67c.01.35.03.67.04.98.01.31.02.62.02.93 0 .16-.04.27-.12.33-.08.06-.2.09-.36.1-.19.01-.38.03-.57.04-.19.02-.4.03-.62.05v1.85l.03.73c0 .24.03.48.05.72.01.21.03.42.05.64.02.21.06.42.11.64.06.27.15.46.26.55.11.09.28.14.52.14h.46c.09 0 .2 0 .32-.02ZM52.11 32.78c-.49.03-.99.05-1.5.06-.51.01-1.01.05-1.53.12l-.35.03h-.35c-.22 0-.44 0-.66-.02-.22-.01-.45-.02-.67-.02-.18 0-.36 0-.54.02-.18.02-.36.04-.54.09.14.21.29.38.45.53.16.15.34.27.52.36.18.1.38.18.58.25.21.07.42.13.63.18a1.768 1.768 0 0 0 .98-.02c.16-.05.33-.11.48-.19.16-.08.31-.16.47-.25.15-.09.32-.17.49-.25.21.24.42.47.63.71.21.24.42.48.63.71-.04.08-.06.16-.08.23-.02.07-.04.12-.08.15-.26.22-.51.45-.75.69a3.871 3.871 0 0 1-1.96 1.02c-.41.08-.82.14-1.24.17-.23 0-.47-.02-.72-.07s-.5-.11-.75-.18c-.25-.08-.49-.16-.73-.25s-.46-.18-.66-.27c-.44-.19-.8-.45-1.09-.77-.29-.32-.53-.69-.72-1.11-.15-.35-.28-.71-.39-1.07-.11-.36-.14-.74-.09-1.13.01-.07 0-.13 0-.18-.06-.25-.1-.5-.11-.74 0-.25 0-.49.03-.74s.08-.49.14-.73c.06-.24.12-.48.19-.72.09-.3.21-.58.36-.83s.36-.47.62-.66c.24-.18.48-.35.72-.52.24-.17.49-.34.75-.5.3-.18.63-.29.97-.33.34-.04.69-.06 1.03-.06h.52c.4 0 .79.03 1.18.08.39.05.77.17 1.15.37.37.19.69.43.97.71.27.28.47.6.61.97a8.995 8.995 0 0 1 .49 3.97c0 .02 0 .04-.02.06-.01.02-.03.06-.07.11Zm-3.03-2.11c-.18-.98-.64-1.47-1.36-1.47h-.18c-.95.11-1.4.6-1.35 1.46h2.91ZM62.77 36.97c-.18-.06-.35-.1-.52-.13-.17-.02-.34-.04-.51-.04-.3 0-.59.02-.87.06-.28.04-.57.06-.85.06-.1 0-.2 0-.29-.01-.09 0-.19-.02-.28-.03-.01-.11-.03-.23-.04-.33-.02-.11-.02-.21-.02-.31 0-.81 0-1.63.03-2.44 0-.18.02-.35.04-.52.02-.17.03-.35.03-.52-.01-.33-.03-.66-.04-.99-.01-.33-.04-.66-.08-.99a2.03 2.03 0 0 0-.12-.47c-.06-.16-.13-.31-.2-.45a.97.97 0 0 0-.36-.43.882.882 0 0 0-.46-.14c-.3 0-.57.14-.83.43-.2.22-.33.45-.39.69-.06.24-.09.5-.08.77.03.55.02 1.09-.02 1.62s-.1 1.08-.16 1.62c-.03.32-.04.63-.03.94.01.32.03.63.04.95v.21c0 .1.01.18.06.25-.06.02-.12.03-.16.04H56.33c-.4.03-.79.05-1.18.06l-1.18.03h-.07c-.23 0-.39-.04-.46-.12-.07-.08-.12-.25-.13-.5-.02-.45-.03-.89-.03-1.34v-4.5c0-.42-.01-.85-.01-1.27 0-.42 0-.85.01-1.28 0-.17.02-.34.05-.52.03-.18.05-.36.08-.56.27 0 .54-.02.81-.03.27-.02.54-.02.8-.02s.54.01.81.04.54.08.81.16c-.03.15-.06.29-.09.42-.03.14-.06.29-.09.47.11-.05.21-.1.27-.12.07-.03.13-.06.18-.1.3-.24.67-.43 1.09-.56.43-.13.87-.2 1.34-.2.38 0 .76.05 1.14.14.38.09.73.24 1.04.43.32.19.59.44.81.73.22.29.37.63.43 1.02.12.73.18 1.46.19 2.19 0 .73-.03 1.47-.09 2.21-.04.48-.06.97-.06 1.45v1.92ZM67.34 25.72l-.29-.03h-.29c-.31 0-.61.02-.91.06-.3.04-.6.08-.9.13-.15 0-.27-.02-.35-.07a.493.493 0 0 1-.19-.29c-.08-.28-.16-.56-.25-.84a2.53 2.53 0 0 1-.09-.87c0-.1 0-.21-.03-.31-.03-.11-.05-.21-.08-.31-.04-.19.03-.31.22-.35.16-.04.3-.06.42-.08.12-.02.24-.03.35-.04.11 0 .23-.01.35-.01h.87c.15 0 .3 0 .45.01.25 0 .43.05.54.14.11.09.2.25.25.49.04.21.08.43.1.65.03.22.05.44.08.67 0 .07 0 .15-.02.22-.02.08-.04.15-.05.23-.02.08-.04.17-.06.27-.02.09-.05.21-.08.35Zm-3.07 10.84c-.01-.26-.02-.5-.03-.7 0-.21-.02-.41-.03-.61 0-.05-.01-.1-.01-.15v-.15c.03-.61.07-1.21.1-1.8.04-.6.06-1.2.08-1.8.01-.61.01-1.21 0-1.81-.02-.6-.03-1.2-.05-1.81 0-.05 0-.12-.01-.23 0-.1-.01-.21-.01-.31s0-.19.02-.27c.02-.08.05-.12.11-.12h.04c.14.05.27.08.41.1.13.02.27.02.41.02.25 0 .5-.02.75-.05.25-.03.5-.05.76-.05.12 0 .24 0 .36.02.12.01.23.04.35.07.06.02.11.06.13.1.02.04.03.08.03.13V27.43c.07.42.11.85.12 1.27.01.42 0 .84-.01 1.26-.02.42-.06.84-.1 1.26-.05.42-.09.84-.14 1.26-.06.58-.09 1.16-.11 1.74-.02.58.03 1.16.13 1.74.01.09.02.18 0 .27v.25c-.25.16-.51.27-.76.33s-.51.1-.78.1c-.2 0-.41-.02-.61-.05-.21-.03-.41-.07-.62-.12-.1-.03-.2-.07-.28-.1-.09-.04-.16-.07-.21-.09ZM69.29 22.6H70.2c.08.01.15.02.22.02h.54c.18 0 .35 0 .53.03.17.02.34.07.51.15.02 0 .04 0 .07-.01a.16.16 0 0 1 .08-.03c.04-.01.09-.03.14-.05.05-.02.09-.03.13-.03.03 0 .05.02.09.05.03.03.06.07.09.11.03.04.05.08.08.13.02.04.04.08.04.1.02.12.03.23.03.35v.35c0 .51-.01 1.01-.01 1.52 0 .5-.01 1.01-.02 1.52v.24c0 .08.01.18.02.3.09-.07.17-.13.23-.18.07-.05.13-.1.18-.15.23-.21.48-.35.74-.43.26-.08.52-.12.8-.12.69 0 1.3.14 1.82.42.53.28 1.02.66 1.49 1.13.25.25.44.53.57.83.14.3.25.61.35.93.3 1.03.38 2.03.24 3-.15.97-.5 1.91-1.05 2.83-.18.3-.4.54-.64.74-.24.19-.51.35-.79.46-.28.11-.58.2-.9.25-.32.05-.65.07-.98.07-.42 0-.83-.05-1.21-.14-.39-.09-.73-.3-1.03-.61-.03-.03-.07-.06-.11-.1-.04-.04-.11-.09-.2-.16.03.15.04.28.06.38.01.1.03.2.04.3-.03.01-.06.03-.1.05-.03.02-.07.04-.1.04-.25-.01-.49-.03-.74-.04-.25-.02-.49-.03-.73-.03-.12 0-.24.01-.36.04-.12.02-.24.05-.36.06-.08.02-.15.03-.22.03-.1 0-.18-.03-.22-.08-.05-.05-.09-.15-.12-.29-.04-.18-.05-.35-.05-.52.01-.49.03-.98.05-1.46.02-.48.03-.96.01-1.45-.02-.61-.05-1.21-.09-1.8-.04-.6-.08-1.2-.11-1.8-.01-.33-.02-.66 0-.99 0-.33.01-.66.02-.99.01-.54.03-1.07.04-1.6.02-.53.03-1.06.04-1.6v-1.74Zm4.8 6.65c-.23.07-.46.14-.67.22-.15.05-.25.13-.31.23-.05.1-.07.23-.04.41l.03.32v.32c0 .49-.01.98-.02 1.46 0 .48-.01.97-.02 1.46 0 .24.05.43.18.57.12.14.3.21.52.21.07 0 .14 0 .22-.03.23-.05.44-.13.63-.25.19-.11.33-.29.44-.53.1-.22.17-.44.2-.67l.09-.69c.06-.36.06-.71.02-1.05-.04-.34-.12-.68-.22-1.02a.836.836 0 0 0-.08-.2.443.443 0 0 0-.12-.15c-.13-.11-.27-.22-.42-.32-.15-.1-.29-.2-.44-.3ZM83.45 25.72l-.29-.03h-.29c-.31 0-.61.02-.91.06-.3.04-.6.08-.9.13-.15 0-.27-.02-.35-.07a.493.493 0 0 1-.19-.29c-.08-.28-.16-.56-.25-.84a2.53 2.53 0 0 1-.09-.87c0-.1 0-.21-.03-.31-.03-.11-.05-.21-.08-.31-.04-.19.03-.31.22-.35.16-.04.3-.06.42-.08.12-.02.24-.03.35-.04.11 0 .23-.01.35-.01h.87c.15 0 .3 0 .45.01.25 0 .43.05.54.14.11.09.2.25.25.49.04.21.08.43.1.65.03.22.05.44.08.67 0 .07 0 .15-.02.22-.02.08-.04.15-.05.23-.02.08-.04.17-.06.27-.02.09-.05.21-.08.35Zm-3.07 10.84c-.01-.26-.02-.5-.03-.7 0-.21-.02-.41-.03-.61 0-.05-.01-.1-.01-.15v-.15c.03-.61.07-1.21.1-1.8.04-.6.06-1.2.08-1.8.01-.61.01-1.21 0-1.81-.02-.6-.03-1.2-.05-1.81 0-.05 0-.12-.01-.23 0-.1-.01-.21-.01-.31s0-.19.02-.27c.02-.08.05-.12.11-.12h.04c.14.05.27.08.41.1.13.02.27.02.41.02.25 0 .5-.02.75-.05.25-.03.5-.05.76-.05.12 0 .24 0 .36.02.12.01.23.04.35.07.06.02.11.06.13.1.02.04.03.08.03.13V27.43c.07.42.11.85.12 1.27.01.42 0 .84-.01 1.26-.02.42-.06.84-.1 1.26-.05.42-.09.84-.14 1.26-.06.58-.09 1.16-.11 1.74-.02.58.03 1.16.13 1.74.01.09.02.18 0 .27v.25c-.25.16-.51.27-.76.33s-.51.1-.78.1c-.2 0-.41-.02-.61-.05-.21-.03-.41-.07-.62-.12-.1-.03-.2-.07-.28-.1-.09-.04-.16-.07-.21-.09ZM85.41 22.62c.1-.02.21-.06.32-.1a.76.76 0 0 1 .33-.05c.4.01.81.03 1.21.05.4.02.8.04 1.21.05.14.01.24.05.31.1.07.06.11.15.12.29.04.69.09 1.38.15 2.06.06.68.08 1.37.07 2.06 0 .74-.05 1.47-.12 2.2-.07.73-.13 1.46-.17 2.2-.01.31 0 .62.02.93.03.31.04.62.06.93l.06 1.48c.02.49.03.98.05 1.48v.2c0 .07-.01.14-.02.22-.04.02-.08.04-.11.06-.04.02-.07.03-.1.03-.15-.03-.29-.05-.43-.06-.14 0-.28-.01-.42-.01-.3 0-.6.01-.9.04-.3.03-.6.05-.9.06h-.13c-.12 0-.22 0-.29-.02-.07-.02-.13-.05-.16-.1a.525.525 0 0 1-.06-.2v-.34l.09-1.43c.03-.47.05-.95.06-1.43.01-.62.02-1.25.01-1.87 0-.62-.02-1.24-.06-1.87-.04-.56-.09-1.11-.14-1.66-.06-.55-.08-1.1-.06-1.66.04-.89.07-1.78.09-2.67 0-.16 0-.31-.02-.47-.02-.16-.03-.33-.04-.53ZM93.62 25.72l-.29-.03h-.29c-.31 0-.61.02-.91.06-.3.04-.6.08-.9.13-.15 0-.27-.02-.35-.07a.493.493 0 0 1-.19-.29c-.08-.28-.16-.56-.25-.84a2.53 2.53 0 0 1-.09-.87c0-.1 0-.21-.03-.31-.03-.11-.05-.21-.08-.31-.04-.19.03-.31.22-.35.16-.04.3-.06.42-.08.12-.02.24-.03.35-.04.11 0 .23-.01.35-.01h.87c.15 0 .3 0 .45.01.25 0 .43.05.54.14.11.09.2.25.25.49.04.21.08.43.1.65.03.22.05.44.08.67 0 .07 0 .15-.02.22-.02.08-.04.15-.05.23-.02.08-.04.17-.06.27-.02.09-.05.21-.08.35Zm-3.07 10.84c-.01-.26-.02-.5-.03-.7 0-.21-.02-.41-.03-.61 0-.05-.01-.1-.01-.15v-.15c.03-.61.07-1.21.1-1.8.04-.6.06-1.2.08-1.8.01-.61.01-1.21 0-1.81-.02-.6-.03-1.2-.05-1.81 0-.05 0-.12-.01-.23 0-.1-.01-.21-.01-.31s0-.19.02-.27c.02-.08.05-.12.11-.12h.04c.14.05.27.08.41.1.13.02.27.02.41.02.25 0 .5-.02.75-.05.25-.03.5-.05.76-.05.12 0 .24 0 .36.02.12.01.23.04.35.07.06.02.11.06.13.1.02.04.03.08.03.13V27.43c.07.42.11.85.12 1.27.01.42 0 .84-.01 1.26-.02.42-.06.84-.1 1.26-.05.42-.09.84-.14 1.26-.06.58-.09 1.16-.11 1.74-.02.58.03 1.16.13 1.74.01.09.02.18 0 .27v.25c-.25.16-.51.27-.76.33s-.51.1-.78.1c-.2 0-.41-.02-.61-.05-.21-.03-.41-.07-.62-.12-.1-.03-.2-.07-.28-.1-.09-.04-.16-.07-.21-.09ZM102.07 36.82c-.04-.14-.07-.27-.1-.39s-.07-.26-.11-.41c-.28.16-.55.32-.83.49-.27.17-.54.34-.81.52-.18.12-.36.21-.55.28-.19.06-.39.1-.59.1-.09 0-.19 0-.29-.03-.24-.04-.47-.09-.7-.15-.22-.06-.44-.15-.63-.25-.2-.1-.38-.23-.55-.39-.17-.16-.32-.35-.45-.57-.21-.38-.41-.76-.59-1.14-.18-.38-.31-.79-.38-1.22-.1-.56-.13-1.12-.09-1.66.04-.55.1-1.09.18-1.64.01-.08.03-.17.04-.26.02-.09.03-.17.03-.26.02-.37.1-.71.25-1.03.15-.32.34-.61.58-.86.24-.26.51-.49.82-.69.31-.2.63-.36.97-.49.12-.05.25-.08.4-.1.15-.02.3-.03.46-.03.21 0 .42.02.65.05.22.03.44.08.65.15.21.06.41.14.59.22.18.08.33.18.46.29.03.02.06.05.1.09.03.03.09.09.18.16v-1.31c.01-.57.03-1.13.04-1.69.02-.55.03-1.12.04-1.69 0-.15.04-.25.11-.33.07-.07.18-.12.33-.14.23-.03.45-.05.68-.07s.45-.03.68-.03c.46 0 .92.05 1.36.15.05.22.08.43.09.65.01.22 0 .44-.02.67-.03.32-.03.64 0 .96.03.32.05.64.05.96v10.46c0 .22-.04.38-.13.48-.09.1-.24.15-.46.16h-2.44Zm-.98-2.48c.08-.21.15-.39.24-.55.08-.16.13-.33.14-.49.04-.39.06-.78.07-1.16 0-.39.01-.78.01-1.16 0-.13 0-.27-.01-.41a1.13 1.13 0 0 0-.12-.38c-.05-.09-.1-.18-.15-.28-.05-.09-.11-.18-.18-.26s-.15-.15-.24-.21a.72.72 0 0 0-.34-.11h-.18c-.2 0-.37.04-.51.11-.14.08-.26.17-.36.3-.1.12-.18.26-.25.41-.07.15-.12.31-.18.46-.09.3-.15.59-.17.89-.02.29 0 .58.04.87.04.29.11.57.2.86.09.28.19.57.3.84.07.18.16.29.27.34.11.05.26.08.44.08.16-.01.32-.03.48-.05.15-.02.31-.05.47-.07ZM116.09 36.91c-.14-.01-.27-.02-.41-.02H113.75c-.09 0-.16-.01-.2-.03-.04-.02-.07-.07-.08-.13-.01-.07-.02-.16-.03-.29 0-.13-.03-.3-.06-.51-.33.41-.72.7-1.17.87-.45.17-.94.25-1.46.25-.3 0-.6-.02-.9-.07-.29-.05-.59-.12-.9-.2-.38-.11-.71-.25-.98-.42-.27-.17-.5-.4-.66-.68-.17-.28-.28-.62-.34-1.02s-.06-.89 0-1.45c.05-.49.23-.89.53-1.21.3-.32.66-.57 1.08-.75.42-.18.88-.31 1.36-.38.48-.07.94-.1 1.36-.1.34 0 .64.01.9.03.26.02.44.03.56.04h.11c.04 0 .08-.01.11-.02.11-.25.16-.5.15-.73a1.41 1.41 0 0 0-.19-.62c-.11-.18-.26-.32-.44-.43-.18-.11-.38-.16-.6-.16-.18 0-.36.04-.56.13-.09.04-.19.08-.3.13-.1.04-.2.09-.28.15a.63.63 0 0 0-.25.58c0 .05 0 .09-.04.13-.03.04-.08.06-.13.06-.35.02-.7.06-1.04.1-.34.04-.68.06-1.02.06-.16 0-.33 0-.5-.02-.17-.02-.33-.04-.5-.08-.08-.02-.12-.06-.14-.13a1.03 1.03 0 0 1-.05-.49c.03-.16.07-.32.14-.48.25-.52.57-.98.94-1.38.37-.4.84-.71 1.41-.94.11-.04.23-.08.34-.12.11-.04.23-.07.35-.1.46-.09.92-.16 1.37-.22.04 0 .09-.01.13-.01h.13c.29 0 .57.04.85.13.27.09.55.17.83.26.16.05.32.12.47.2.15.09.3.17.44.26.25.14.46.3.65.49.19.18.35.38.48.6.14.21.25.44.35.68.09.24.18.49.25.74.1.38.17.75.2 1.14.03.38.02.77-.03 1.16-.06.5-.11 1-.15 1.5-.04.5-.08 1-.11 1.5-.01.15-.02.33-.01.56V36.67c0 .15-.02.22-.05.22Zm-3.27-4.23c-.09-.01-.21-.02-.34-.03h-.45c-.21 0-.44.01-.67.04-.23.02-.45.07-.64.15-.2.07-.37.17-.52.3-.15.13-.24.3-.29.5-.06.25-.06.46-.02.62.04.16.12.28.22.36.1.08.22.14.36.17.14.03.28.05.42.05.15 0 .29 0 .42-.03.13-.02.21-.03.27-.04.3-.04.54-.13.74-.27.2-.15.32-.36.36-.65.03-.19.06-.39.08-.59.02-.2.05-.39.07-.59ZM124.21 36.82c-.04-.14-.07-.27-.1-.39s-.07-.26-.11-.41c-.28.16-.55.32-.83.49-.27.17-.54.34-.81.52-.18.12-.36.21-.55.28s-.39.1-.59.1c-.09 0-.19 0-.29-.03-.24-.04-.47-.09-.7-.15-.22-.06-.44-.15-.63-.25-.2-.1-.38-.23-.55-.39-.17-.16-.32-.35-.45-.57-.21-.38-.41-.76-.59-1.14-.18-.38-.31-.79-.38-1.22-.1-.56-.13-1.12-.09-1.66.04-.55.1-1.09.18-1.64.01-.08.03-.17.04-.26.02-.09.03-.17.03-.26.02-.37.1-.71.25-1.03s.34-.61.58-.86c.24-.26.51-.49.82-.69.31-.2.63-.36.97-.49.12-.05.25-.08.4-.1.15-.02.3-.03.46-.03.21 0 .42.02.65.05.22.03.44.08.65.15.21.06.41.14.59.22.18.08.33.18.46.29.03.02.06.05.1.09.03.03.09.09.18.16v-1.31c.01-.57.03-1.13.04-1.69.02-.55.03-1.12.04-1.69 0-.15.04-.25.11-.33s.18-.12.33-.14c.23-.03.45-.05.68-.07.23-.02.45-.03.68-.03.46 0 .92.05 1.36.15.05.22.08.43.09.65.01.22 0 .44-.02.67-.03.32-.03.64 0 .96s.05.64.05.96v10.46c0 .22-.04.38-.13.48s-.24.15-.46.16h-2.44Zm-.98-2.48c.08-.21.15-.39.24-.55s.13-.33.14-.49c.04-.39.06-.78.07-1.16 0-.39.01-.78.01-1.16 0-.13 0-.27-.01-.41a1.13 1.13 0 0 0-.12-.38c-.05-.09-.1-.18-.15-.28a1.51 1.51 0 0 0-.18-.26c-.07-.08-.15-.15-.24-.21a.72.72 0 0 0-.34-.11h-.18c-.2 0-.37.04-.51.11-.14.08-.26.17-.36.3-.1.12-.18.26-.25.41-.07.15-.12.31-.18.46-.09.3-.15.59-.17.89-.02.29 0 .58.04.87.04.29.11.57.2.86.09.28.19.57.3.84.07.18.16.29.27.34.11.05.26.08.44.08.16-.01.32-.03.48-.05.15-.02.31-.05.47-.07ZM4.03 48.27c.01.46.03.91.05 1.36l.06 1.38h2.61c.63 0 1.25 0 1.89.02.06 0 .13 0 .23.02.09.01.19.03.28.06.09.03.17.07.24.12.07.05.11.11.11.19 0 .16.02.32.04.47l.06.47c.02.16.03.32.03.48 0 .16-.01.32-.05.49-.04.16-.09.27-.17.35-.07.08-.18.12-.33.13-.28.02-.55.03-.82.04-.27 0-.54.02-.82.03l-.75.03c-.25 0-.5.01-.75.01H5.8c-.27 0-.53 0-.79-.03-.26-.02-.54-.04-.82-.05-.03.25-.05.49-.06.73-.02.24-.04.48-.07.71-.05.45-.1.91-.14 1.36-.04.45-.01.91.09 1.36.01.04.02.07.01.11v.12c0 .21 0 .36-.01.47 0 .11-.04.19-.09.24-.05.05-.14.09-.26.11-.12.02-.28.04-.49.07-.11.02-.21.03-.32.04h-.32c-.34 0-.68-.02-1.01-.06-.33-.04-.68-.06-1.04-.06H.39c0-.16-.01-.32-.01-.46v-.42l-.03-1.57c0-.52-.02-1.05-.03-1.58 0-.19-.01-.39-.02-.58v-.58c.03-.76.07-1.51.11-2.26.04-.75.07-1.5.09-2.26 0-.45-.01-.89-.06-1.34-.05-.44-.09-.89-.12-1.34v-.76c-.01-.16.02-.26.1-.32.08-.05.2-.08.34-.09.84-.01 1.67-.03 2.5-.04.82-.02 1.65-.02 2.49-.02h.5c.51 0 1.02.03 1.52.07.5.04 1 .08 1.52.11h.52c.13.2.21.4.22.61.01.21 0 .41-.01.63l-.06.64c-.02.22.01.43.09.65-.44-.01-.86-.02-1.27-.04-.41-.01-.82-.02-1.23-.02h-.47c-.49.01-.97.03-1.46.07-.49.03-1.01.07-1.55.1ZM14.14 48.04l-.29-.03h-.29c-.31 0-.61.02-.91.06-.3.04-.6.08-.9.13-.15 0-.27-.02-.35-.07a.493.493 0 0 1-.19-.29c-.08-.28-.16-.56-.25-.84a2.53 2.53 0 0 1-.09-.87c0-.1 0-.21-.03-.31-.03-.11-.05-.21-.08-.31-.04-.19.03-.31.22-.35.16-.04.3-.06.42-.08.12-.02.24-.03.35-.04.11 0 .23-.01.35-.01h.87c.15 0 .3 0 .45.01.25 0 .43.05.54.14.11.09.2.25.25.49.04.21.08.43.1.65.03.22.05.44.08.67 0 .07 0 .15-.02.22-.02.08-.04.15-.05.23-.02.08-.04.17-.06.27-.02.09-.05.21-.08.35Zm-3.07 10.85c-.01-.26-.02-.5-.03-.7 0-.21-.02-.41-.03-.61 0-.05-.01-.1-.01-.15v-.15c.03-.61.07-1.21.1-1.8.04-.6.06-1.2.08-1.8.01-.61.01-1.21 0-1.81-.02-.6-.03-1.2-.05-1.81 0-.05 0-.12-.01-.23 0-.1-.01-.21-.01-.31s0-.19.02-.27c.02-.08.05-.12.11-.12h.04c.14.05.27.08.41.1.13.02.27.02.41.02.25 0 .5-.02.75-.05.25-.03.5-.05.76-.05.12 0 .24 0 .36.02.12.01.23.04.35.07.06.02.11.06.13.1.02.04.03.08.03.13V49.76c.07.42.11.85.12 1.27.01.42 0 .84-.01 1.26-.02.42-.06.84-.1 1.26-.05.42-.09.84-.14 1.26-.06.58-.09 1.16-.11 1.74-.02.58.03 1.16.13 1.74.01.09.02.18 0 .27v.25c-.25.16-.51.27-.76.33s-.51.1-.78.1c-.2 0-.41-.02-.61-.05-.21-.03-.41-.07-.62-.12-.1-.03-.2-.07-.28-.1-.09-.04-.16-.07-.21-.09ZM25.7 59.3c-.18-.06-.35-.1-.52-.13-.17-.02-.34-.04-.51-.04-.3 0-.59.02-.87.06-.28.04-.57.06-.85.06-.1 0-.2 0-.29-.01-.09 0-.19-.02-.28-.03-.01-.11-.03-.23-.04-.33-.02-.11-.02-.21-.02-.31 0-.81 0-1.63.03-2.44 0-.18.02-.35.04-.52.02-.17.03-.35.03-.52-.01-.33-.03-.66-.04-.99-.01-.33-.04-.66-.08-.99a2.03 2.03 0 0 0-.12-.47c-.06-.16-.13-.31-.2-.45a.97.97 0 0 0-.36-.43.882.882 0 0 0-.46-.14c-.3 0-.57.14-.83.43-.2.22-.33.45-.39.69-.06.24-.09.5-.08.77.03.55.02 1.09-.02 1.62-.05.54-.1 1.08-.16 1.62-.03.32-.04.63-.03.94.01.32.03.63.04.95v.21c0 .1.01.18.06.25-.06.02-.12.03-.16.04H19.26c-.4.03-.79.05-1.18.06l-1.18.03h-.07c-.23 0-.39-.04-.46-.12-.07-.08-.12-.25-.13-.5-.02-.45-.03-.89-.03-1.34v-4.5c0-.42-.01-.85-.01-1.27 0-.42 0-.85.01-1.28 0-.17.02-.34.05-.52.03-.18.05-.36.08-.56.27 0 .54-.02.81-.03.27-.02.54-.02.8-.02s.54.01.81.04.54.08.81.16c-.03.15-.06.29-.09.42-.03.14-.06.29-.09.47.11-.05.21-.1.27-.12.07-.03.13-.06.18-.1.3-.24.67-.43 1.09-.56.43-.13.87-.2 1.34-.2.38 0 .76.05 1.14.14.38.09.73.24 1.04.43.32.19.59.44.81.73.22.29.37.63.43 1.02.12.73.18 1.46.19 2.19 0 .73-.03 1.47-.09 2.21-.04.48-.06.97-.06 1.45v1.92ZM51.16 59.3c-.18-.06-.35-.1-.52-.13-.17-.02-.34-.04-.51-.04-.3 0-.59.02-.87.06-.28.04-.57.06-.85.06-.1 0-.2 0-.29-.01-.09 0-.19-.02-.28-.03-.01-.11-.03-.23-.04-.33-.02-.11-.02-.21-.02-.31 0-.81 0-1.63.03-2.44 0-.18.02-.35.04-.52.02-.17.03-.35.03-.52-.01-.33-.03-.66-.04-.99-.01-.33-.04-.66-.08-.99a2.03 2.03 0 0 0-.12-.47c-.06-.16-.13-.31-.2-.45a.97.97 0 0 0-.36-.43.882.882 0 0 0-.46-.14c-.3 0-.57.14-.83.43-.2.22-.33.45-.39.69-.06.24-.09.5-.08.77.03.55.02 1.09-.02 1.62-.05.54-.1 1.08-.16 1.62-.03.32-.04.63-.03.94.01.32.03.63.04.95v.21c0 .1.01.18.06.25-.06.02-.12.03-.16.04H44.72c-.4.03-.79.05-1.18.06l-1.18.03h-.07c-.23 0-.39-.04-.46-.12-.07-.08-.12-.25-.13-.5-.02-.45-.03-.89-.03-1.34v-4.5c0-.42-.01-.85-.01-1.27 0-.42 0-.85.01-1.28 0-.17.02-.34.05-.52.03-.18.05-.36.08-.56.27 0 .54-.02.81-.03.27-.02.54-.02.8-.02s.54.01.81.04.54.08.81.16c-.03.15-.06.29-.09.42-.03.14-.06.29-.09.47.11-.05.21-.1.27-.12.07-.03.13-.06.18-.1.3-.24.67-.43 1.09-.56.43-.13.87-.2 1.34-.2.38 0 .76.05 1.14.14.38.09.73.24 1.04.43.32.19.59.44.81.73.22.29.37.63.43 1.02.12.73.18 1.46.19 2.19 0 .73-.03 1.47-.09 2.21-.04.48-.06.97-.06 1.45v1.92ZM61.65 52.88c-.41.05-.8.09-1.17.14-.37.04-.73.08-1.09.13-.03 0-.06.01-.09.01s-.06 0-.09.01c-.13.02-.26.04-.38.04-.16 0-.28-.05-.34-.14-.06-.09-.11-.26-.14-.51-.02-.12-.03-.25-.04-.37a.87.87 0 0 0-.09-.36c-.09-.21-.21-.37-.36-.48a.828.828 0 0 0-.5-.16c-.15 0-.3.04-.43.11-.14.08-.26.17-.37.29a1.983 1.983 0 0 0-.47.78 4.56 4.56 0 0 0-.2 1.74c.05.58.2 1.15.47 1.72.11.23.24.39.39.49.15.1.34.15.58.15.36 0 .63-.09.81-.27.18-.18.29-.45.32-.79 0-.03.01-.06.02-.09 0-.03.02-.08.03-.15h1.2c.34 0 .68.02 1.01.05.33.04.67.12 1.01.25-.02.29-.06.56-.13.82-.07.26-.17.51-.29.76-.03.07-.07.13-.11.2a.95.95 0 0 0-.09.21c-.09.36-.28.67-.56.93-.29.26-.62.47-1 .64-.38.17-.78.29-1.19.37-.41.08-.79.12-1.14.12-.23 0-.46-.02-.69-.06a2.88 2.88 0 0 1-.67-.21c-.22-.1-.44-.19-.67-.27-.22-.08-.45-.18-.67-.28-.57-.26-1.01-.61-1.3-1.06-.29-.45-.49-.96-.59-1.55-.04-.26-.09-.52-.13-.78-.04-.26-.07-.52-.09-.78-.01-.24-.01-.48 0-.73.02-.24.04-.48.07-.73.03-.24.07-.48.12-.72l.15-.71c.06-.25.15-.47.27-.67.12-.2.29-.38.51-.54.27-.19.52-.38.78-.56.25-.19.51-.38.76-.58.13-.1.27-.18.42-.24.15-.05.31-.09.47-.12.16-.02.33-.04.49-.05h.49c.33 0 .67.02.99.05.33.04.66.08.99.13.61.1 1.11.3 1.52.61.4.31.69.76.86 1.34.08.29.15.59.19.89.05.3.11.63.18.98ZM65.85 48.04l-.29-.03h-.29c-.31 0-.61.02-.91.06-.3.04-.6.08-.9.13-.15 0-.27-.02-.35-.07a.493.493 0 0 1-.19-.29c-.08-.28-.16-.56-.25-.84a2.53 2.53 0 0 1-.09-.87c0-.1 0-.21-.03-.31-.03-.11-.05-.21-.08-.31-.04-.19.03-.31.22-.35.16-.04.3-.06.42-.08.12-.02.24-.03.35-.04.11 0 .23-.01.35-.01h.87c.15 0 .3 0 .45.01.25 0 .43.05.54.14.11.09.2.25.25.49.04.21.08.43.1.65.03.22.05.44.08.67 0 .07 0 .15-.02.22-.02.08-.04.15-.05.23-.02.08-.04.17-.06.27-.02.09-.05.21-.08.35Zm-3.07 10.85c-.01-.26-.02-.5-.03-.7 0-.21-.02-.41-.03-.61 0-.05-.01-.1-.01-.15v-.15c.03-.61.07-1.21.1-1.8.04-.6.06-1.2.08-1.8.01-.61.01-1.21 0-1.81-.02-.6-.03-1.2-.05-1.81 0-.05 0-.12-.01-.23 0-.1-.01-.21-.01-.31s0-.19.02-.27c.02-.08.05-.12.11-.12h.04c.14.05.27.08.41.1.13.02.27.02.41.02.25 0 .5-.02.75-.05.25-.03.5-.05.76-.05.12 0 .24 0 .36.02.12.01.23.04.35.07.06.02.11.06.13.1.02.04.03.08.03.13V49.76c.07.42.11.85.12 1.27.01.42 0 .84-.01 1.26-.02.42-.06.84-.1 1.26-.05.42-.09.84-.14 1.26-.06.58-.09 1.16-.11 1.74-.02.58.03 1.16.13 1.74.01.09.02.18 0 .27v.25c-.25.16-.51.27-.76.33s-.51.1-.78.1c-.2 0-.41-.02-.61-.05-.21-.03-.41-.07-.62-.12-.1-.03-.2-.07-.28-.1-.09-.04-.16-.07-.21-.09ZM76.81 55.11c-.49.03-.99.05-1.5.06-.51.01-1.01.05-1.53.12l-.35.03h-.35c-.22 0-.44 0-.66-.02-.22-.01-.45-.02-.67-.02-.18 0-.36 0-.54.02-.18.02-.36.04-.54.09.14.21.29.38.45.53.16.15.34.27.52.36.18.1.38.18.58.25.21.07.42.13.63.18a1.768 1.768 0 0 0 .98-.02c.16-.05.33-.11.48-.19.16-.08.31-.16.47-.25.15-.09.32-.17.49-.25.21.24.42.47.63.71.21.24.42.48.63.71-.04.08-.06.16-.08.23-.02.07-.04.12-.08.15-.26.22-.51.45-.75.69a3.871 3.871 0 0 1-1.96 1.02c-.41.08-.82.14-1.24.17-.23 0-.47-.02-.72-.07s-.5-.11-.75-.18c-.25-.08-.49-.16-.73-.25s-.46-.18-.66-.27c-.44-.19-.8-.45-1.09-.77-.29-.32-.53-.69-.72-1.11-.15-.35-.28-.71-.39-1.07-.11-.36-.14-.74-.09-1.13.01-.07 0-.13 0-.18-.06-.25-.1-.5-.11-.74 0-.25 0-.49.03-.74s.08-.49.14-.73c.06-.24.12-.48.19-.72.09-.3.21-.58.36-.83s.36-.47.62-.66c.24-.18.48-.35.72-.52.24-.17.49-.34.75-.5.3-.18.63-.29.97-.33.34-.04.69-.06 1.03-.06h.52c.4 0 .79.03 1.18.08.39.05.77.17 1.15.37.37.19.69.43.97.71.27.28.47.6.61.97a8.995 8.995 0 0 1 .49 3.97c0 .02 0 .04-.02.06-.01.02-.03.06-.07.11ZM73.77 53c-.18-.98-.64-1.47-1.36-1.47h-.18c-.95.11-1.4.6-1.35 1.46h2.91ZM77.85 49.02c.28-.15.55-.22.79-.22.17 0 .33.03.48.09.11.04.21.06.31.07.1.01.21.02.31.02.12 0 .24 0 .36-.01.12 0 .24-.01.36-.01h.29c.07 0 .12.02.16.05.03.03.06.08.07.14 0 .06.01.16.01.28 0 .12.02.23.05.34.03.11.05.24.08.38.37-.36.77-.64 1.18-.83.41-.19.89-.29 1.43-.29.28 0 .48.07.59.18.11.11.17.31.17.59v.67c0 .22-.02.45-.05.66-.03.16-.04.31-.04.45s.06.29.19.43c-.11.03-.18.06-.23.09-.04.03-.1.05-.18.05-.29.01-.58.02-.87.02s-.58 0-.88.02c-.33.01-.58.1-.74.26-.16.16-.24.41-.26.74-.01.41-.02.82-.02 1.23v4.77h-3.32c-.06-.84-.1-1.69-.11-2.53 0-.85-.01-1.7-.01-2.54v-2.54c0-.85-.04-1.7-.1-2.54ZM94.4 59.24c-.14-.01-.27-.02-.41-.02H92.06c-.09 0-.16-.01-.2-.03-.04-.02-.07-.07-.08-.13-.01-.07-.02-.16-.03-.29 0-.13-.03-.3-.06-.51-.33.41-.72.7-1.17.87-.45.17-.94.25-1.46.25-.3 0-.6-.02-.9-.07-.29-.05-.59-.12-.9-.2-.38-.11-.71-.25-.98-.42-.27-.17-.5-.4-.66-.68-.17-.28-.28-.62-.34-1.02s-.06-.89 0-1.45c.05-.49.23-.89.53-1.21.3-.32.66-.57 1.08-.75.42-.18.88-.31 1.36-.38.48-.07.94-.1 1.36-.1.34 0 .64.01.9.03.26.02.44.03.56.04h.11c.04 0 .08-.01.11-.02.11-.25.16-.5.15-.73a1.41 1.41 0 0 0-.19-.62c-.11-.18-.26-.32-.44-.43-.18-.11-.38-.16-.6-.16-.18 0-.36.04-.56.13-.09.04-.19.08-.3.13-.1.04-.2.09-.28.15a.63.63 0 0 0-.25.58c0 .05 0 .09-.04.13-.03.04-.08.06-.13.06-.35.02-.7.06-1.04.1-.34.04-.68.06-1.02.06-.16 0-.33 0-.5-.02-.17-.02-.33-.04-.5-.08-.08-.02-.12-.06-.14-.13a1.03 1.03 0 0 1-.05-.49c.03-.16.07-.32.14-.48.25-.52.57-.98.94-1.38.37-.4.84-.71 1.41-.94.11-.04.23-.08.34-.12.11-.04.23-.07.35-.1.46-.09.92-.16 1.37-.22.04 0 .09-.01.13-.01h.13c.29 0 .57.04.85.13.27.09.55.17.83.26.16.05.32.12.47.2.15.09.3.17.44.26.25.14.46.3.65.49.19.18.35.38.48.6.14.21.25.44.35.68.09.24.18.49.25.74.1.38.17.75.2 1.14.03.38.02.77-.03 1.16-.06.5-.11 1-.15 1.5-.04.5-.08 1-.11 1.5-.01.15-.02.33-.01.56V59c0 .15-.02.22-.05.22Zm-3.27-4.23c-.09-.01-.21-.02-.34-.03h-.45c-.21 0-.44.01-.67.04-.23.02-.45.07-.64.15s-.37.17-.52.3c-.15.13-.24.3-.29.5-.06.25-.06.46-.02.62.04.16.12.28.22.36.1.08.22.14.36.17.14.03.28.05.42.05.15 0 .29 0 .42-.03.13-.02.21-.03.27-.04.3-.04.54-.13.74-.27.2-.15.32-.36.36-.65.03-.19.06-.39.08-.59.02-.2.05-.39.07-.59ZM32.23 48.89l-4.81 8.33c-.55.96.14 2.16 1.25 2.16h9.62c1.11 0 1.8-1.2 1.25-2.16l-4.81-8.33c-.55-.96-1.94-.96-2.49 0ZM24.27 30.63h-2.33l1.65-1.64-1.85-1.85-1.64 1.65v-2.33h-2.61v2.33l-1.65-1.65L14 28.99l1.65 1.64h-2.33v2.61h2.33L14 34.89l1.84 1.84 1.65-1.65v2.33h2.61v-2.33l1.64 1.65 1.85-1.84-1.65-1.65h2.33v-2.61z" class="cls-1"/></g></svg>