<?xml version="1.0" encoding="UTF-8"?>
<svg id="Capa_1" data-name="Capa 1" xmlns="http://www.w3.org/2000/svg" viewBox="0 0 994.3 466.4">
  <defs>
    <style>
      .cls-1 {
        fill: #c5eb46;
      }

      .cls-1, .cls-2, .cls-3, .cls-4 {
        stroke-width: 0px;
      }

      .cls-2 {
        fill: #eeabc4;
      }

      .cls-3 {
        fill: #414042;
      }

      .cls-4 {
        fill: #00763f;
      }
    </style>
  </defs>
  <path class="cls-1" d="M454.6,3.2c-14.4-8.3-35.9-.1-56.1,19-2.2-8.6-6.5-15.3-12.9-19-4.3-2.5-9.3-3.5-14.7-3.2-12.4-.8-27.6,6.3-42.3,19.4-2.4-7.3-6.4-12.9-12.1-16.2-4.3-2.5-9.3-3.5-14.7-3.2-12.4-.8-27.6,6.3-42.3,19.4-2.4-7.3-6.4-12.9-12.1-16.2-4.3-2.5-9.3-3.5-14.7-3.2-12.4-.8-27.6,6.3-42.3,19.4-2.4-7.3-6.4-12.9-12.1-16.2-4.3-2.5-9.2-3.5-14.6-3.2-13.3-.9-29.8,7.3-45.4,22.2-2.2-8.6-6.5-15.3-12.9-19-21.7-12.5-59.7,12.5-84.8,56-25.1,43.5-27.8,88.8-6.1,101.4,14.4,8.3,35.9.1,56.1-19,2.2,8.6,6.5,15.3,12.9,19,4.3,2.5,9.3,3.5,14.7,3.2,12.4.8,27.6-6.3,42.3-19.4,2.4,7.3,6.4,12.9,12.1,16.2,4.3,2.5,9.3,3.5,14.7,3.2,12.4.8,27.6-6.3,42.3-19.4,2.4,7.3,6.4,12.9,12.1,16.2,4.3,2.5,9.3,3.5,14.7,3.2,12.4.8,27.6-6.3,42.3-19.4,2.4,7.3,6.4,12.9,12.1,16.2,4.3,2.5,9.2,3.5,14.6,3.2,13.3.9,29.8-7.3,45.4-22.2,2.2,8.6,6.5,15.3,12.9,19,21.7,12.5,59.7-12.5,84.8-56,25.1-43.5,27.8-88.8,6.1-101.4Z"/>
  <g>
    <path class="cls-3" d="M126.9,63.4c-.6,0-1.2,0-1.8-.1-.6,0-1.1,0-1.6,0h-.2c-2.5,0-5,0-7.5.1-2.5,0-5,.1-7.5.2-.6,0-1.2,0-1.9-.1-1,0-2-.2-3-.2-1.1,0-1.9-.3-2.5-.8-.6-.5-1-1.3-1.1-2.3-.1-1-.2-2-.4-2.9-.4-2.3-1.1-4.4-2.2-6.1-1.1-1.8-2.8-3-5.2-3.7-1.4-.4-2.9-.8-4.3-1.1-1.5-.3-2.9-.4-4.3-.4-2.9,0-5.4.8-7.7,2.3-2.3,1.6-4.1,3.5-5.5,5.7-1.4,2.3-2.5,4.6-3.4,7-.9,2.4-1.3,5-1.2,7.8,0,2.7,0,5.4-.3,8.1-.3,2.7-.4,5.4-.5,8.1,0,1.7,0,3.4.3,5,.2,1.7.4,3.3.6,5,0,.4.3,1.1.7,2.1.5,1,1.1,2.2,2,3.4.9,1.2,2,2.4,3.3,3.6,1.3,1.1,2.8,2,4.6,2.5,2.4,1.2,5.1,1.8,7.9,1.8,4.7,0,8.8-1.5,12.4-4.6.9-.8,1.7-1.6,2.2-2.3.6-.7,1-1.4,1.3-2.1.3-.7.4-1.5.4-2.4s-.1-1.8-.4-2.8c-.2-.6-.1-1.2.2-1.7.4-.5.9-.8,1.5-.9.3,0,.6,0,.9-.1.3,0,.5,0,.8-.1.2,0,.4,0,.6.1.2,0,.4.1.6.1h.1c.9-.3,1.7-.5,2.6-.5.9,0,1.7-.1,2.5-.1,2.1,0,4.3.2,6.4.6,2.1.4,4.3.6,6.4.6h.3c1.3,0,2.3.4,3.1,1.3.8.9,1.2,2,1.1,3.3-.3,3.3-1.2,6.4-2.7,9.1-1.5,2.7-3.3,5.4-5.6,7.9-2.1,2.5-4.5,4.6-7.2,6.4-2.7,1.8-5.3,3.6-7.8,5.5-.7.5-2,.9-3.8,1.2-1.8.3-3.7.6-5.8.9-2.1.2-4.1.4-6,.5-1.9.1-3.3.2-4.1.2-2.1,0-4,0-5.6-.2-1.7-.1-3.3-.3-4.9-.5-1.6-.3-3.2-.6-4.7-1-1.6-.4-3.4-1-5.4-1.7-4.8-1.6-8.8-3.9-12-7-3.2-3.1-5.9-6.8-8.1-11.1-2.6-5.4-4.6-10.9-6-16.5-1.4-5.6-1.8-11.4-1.2-17.4.5-5.4,1.4-10.4,2.8-15,1.3-4.7,3.2-8.9,5.7-12.8,2.4-3.9,5.5-7.4,9.2-10.5,3.7-3.1,8.1-5.9,13.4-8.2.2,0,.5-.2.9-.3,3.2-.4,6.4-.7,9.5-1.1,3.2-.4,6.3-.6,9.5-.6,5.2,0,10.2.9,15,2.7,4.8,1.8,9,4.4,12.7,8,2.1,2.1,3.9,4.1,5.4,6,1.4,2,2.6,4,3.5,6.1.9,2.1,1.6,4.3,2.1,6.7.5,2.4.9,5,1.2,7.9,0,.3,0,.6-.1.9-.1.3-.2.6-.3,1.1Z"/>
    <path class="cls-3" d="M206.4,51.3c.1,2.1.3,4.2.5,6.2.2,2,.3,4,.2,6.1,0,3.7-.2,7.5-.5,11.2-.2,3.7-.4,7.4-.6,11.2-.1,2.4-.3,4.7-.4,7.1-.1,2.3-.2,4.7-.2,7.1,0,2.4,0,4.7.2,7.1.2,2.3.5,4.7,1.1,7.1.4,1.7.5,3.4.3,5.2-.2,1.8-.2,3.7-.2,5.7-2.2.6-4.5,1-6.7,1.2-2.2.2-4.5.3-6.7.3s-3.5,0-5.2-.1c-1.7,0-3.5-.1-5.2-.2-.2-1-.4-2-.6-2.9-.2-.9-.4-2-.6-3.1-1.3,1.1-2.9,2.2-4.8,3.2-1.9,1-3.9,1.9-6,2.6-2.1.7-4.2,1.3-6.3,1.7-2.1.4-4.1.6-6,.6-5.1,0-9.8-1.5-14.1-4.4-2.3-1.6-4.2-3.6-5.6-6-1.4-2.4-2.6-4.9-3.4-7.5-1.8-5.8-2.2-11.7-1.2-17.8.5-3.3.8-6.7.8-10,0-3.4.2-6.7.5-10.1.2-2.2.2-4.3,0-6.4-.2-2.1-.5-4.1-.7-6.2-.1-1.2-.1-2.4,0-3.7.2-1.3.3-2.6.4-4,2.7-.3,5.4-.6,8.1-.7,2.7-.2,5.4-.2,8-.2s3.3,0,4.9.1c1.6,0,3.3.1,4.9.2.9,1.8,1.3,3.6,1.3,5.4,0,1.8,0,3.6-.2,5.4-.3,3.1-.7,6.2-1.1,9.2-.4,3-.7,6.1-.7,9.1,0,2.9,0,5.7.2,8.5.2,2.8.5,5.6.6,8.5,0,.5.1,1,.3,1.5.1.5.2,1,.1,1.5,0,2.1.3,3.7,1.3,4.9,1,1.2,2.5,2.2,4.6,2.8,1,.3,1.9.4,2.9.4s2.5-.3,3.6-.8c1-.5,1.9-1.3,2.6-2.2.7-.9,1.3-1.9,1.7-3.1.4-1.1.7-2.3.7-3.4.3-3.8.5-7.6.7-11.4.2-3.8.3-7.6.3-11.4,0-3.5,0-7-.1-10.5-.1-3.5-.2-7-.3-10.5,0-1.5.4-2.6,1.2-3.5.8-.8,1.8-1.3,3.2-1.3,3,0,6.1-.1,9.1-.1h9.1c.6,0,1.2,0,1.9.2.6.1,1.3.2,2.1.3Z"/>
    <path class="cls-3" d="M215.1,49.7c2.1-1.1,4.1-1.6,5.9-1.6s2.5.2,3.6.7c.8.3,1.6.5,2.4.5.8,0,1.5.1,2.4.1s1.8,0,2.7-.1c.9,0,1.8-.1,2.7-.1s1.7,0,2.2,0c.5,0,.9.2,1.2.4.3.2.4.6.5,1.1,0,.5.1,1.2.1,2.1,0,.9.2,1.7.4,2.6.2.8.4,1.8.6,2.8,2.8-2.7,5.8-4.8,8.9-6.3,3.1-1.4,6.7-2.2,10.7-2.2,2.1,0,3.6.5,4.5,1.3.8.8,1.2,2.3,1.2,4.4v5.1c0,1.7-.1,3.4-.4,5-.2,1.2-.3,2.3-.3,3.4,0,1.1.5,2.2,1.5,3.2-.8.2-1.4.5-1.7.7-.3.2-.8.3-1.4.3-2.2,0-4.4.1-6.6.1s-4.4,0-6.6.1c-2.5,0-4.4.7-5.6,1.9-1.2,1.2-1.8,3.1-1.9,5.6,0,3.1-.1,6.2-.1,9.2s0,6.1,0,9.2v26.7h-25c-.5-6.3-.7-12.7-.8-19.1,0-6.4-.1-12.8-.1-19.2s0-12.8,0-19.2c0-6.4-.3-12.8-.8-19.2Z"/>
    <path class="cls-3" d="M340.6,72.6c-.4.1-.9.3-1.3.5-.4.2-.9.3-1.4.4-3.4.2-6.7.4-10.1.5-3.3.2-6.7.3-10.1.4-.3,0-.7,0-1,0-.3,0-.7,0-1,0-1.1,0-2.1-.2-3-.6-.9-.4-1.5-1.3-1.9-2.8,0-.5-.4-.9-.9-1.2-.5-.3-.9-.7-1.3-1.1-.7-.5-1.5-1-2.4-1.3-.9-.3-1.8-.4-2.6-.4s-1.4.1-1.9.4c-1,.5-1.7,1.4-2.4,2.6-.6,1.2-.9,2.3-.7,3.3.5,3,2.4,4.7,5.5,5.1,2.3.3,4.5.6,6.8.9,2.2.3,4.5.6,6.8.8,3.7.4,6.9,1.5,9.6,3.3,2.7,1.8,5.1,4.1,7.4,6.9,1.8,2.3,3.2,4.7,4.2,7.2,1,2.5,1.3,5.2,1,8.2,0,.7-.3,1.6-.6,2.6s-.6,2.1-1,3.1c-.4,1.1-.8,2.1-1.2,3-.4.9-.8,1.7-1.2,2.2-.9,1.2-1.9,2.2-3.1,3.2-1.2.9-2.4,1.8-3.7,2.6-3.1,2.1-6.4,3.5-9.7,4.3-3.3.8-6.7,1.2-10.2,1.2s-4.2-.1-6.3-.4c-2.1-.3-4.3-.6-6.5-1-5.4-1-10.1-2.8-14.1-5.5-4-2.6-7.4-6.2-10.1-10.8-.6-1-1.2-2.1-1.6-3.2-.5-1.1-.9-2.2-1.2-3.2-.5-1.6-.4-2.8.4-3.7.8-.9,2-1.3,3.8-1.3h5.3c1.8,0,3.5,0,5.3,0,2.8,0,5.2.5,7.3,1.4,2.1.9,4,2.5,5.6,4.7,1,1.3,2.2,2.3,3.6,3,1.4.7,2.8,1,4.4,1s3.4-.4,4.7-1.1c1.3-.8,2.2-2,2.6-3.9.2-1,.1-2-.3-2.8-.5-.8-1.2-1.5-2.2-1.9-1.5-.6-3-1.1-4.5-1.6-1.5-.5-3-.9-4.5-1.3-3.4-.8-6.9-1.8-10.4-2.8-3.5-1.1-6.7-2.5-9.6-4.3-2.9-1.8-5.2-4.1-7-6.8-1.8-2.7-2.7-6.1-2.7-10.2,0-5.1,1.4-9.3,4.1-12.7,2.7-3.4,6.3-6.1,11.1-8.3,3-1.4,6.1-2.5,9.2-3.3,3.1-.8,6.2-1.2,9.5-1.2h.8c.3,0,.5,0,.7,0,3.9.1,7.6.6,11.2,1.5,3.6.9,7,2.3,10.2,4.2,2.6,1.6,4.7,3.5,6.2,6,1.5,2.4,2.9,5,4,7.7.4,1,.8,2,1.1,3.1.4,1,.8,2.2,1.3,3.4Z"/>
    <path class="cls-3" d="M380.2,127.3c-.6,0-1.2.2-1.8.2-.6,0-1.1,0-1.6,0-2.8,0-5.5-.5-8-1.4-2.5-.9-5-2-7.4-3.3-2.6-1.4-5-3.2-7.1-5.5-2.1-2.3-4-4.7-5.6-7.5-1.6-2.7-3-5.5-4.2-8.4-1.2-2.9-2.1-5.7-2.8-8.3-.5-1.8-.8-3.6-.8-5.6s.1-3.8.4-5.7c.6-5,2-9.5,4.4-13.7,2.3-4.2,5.3-8,8.8-11.6,1.8-1.7,3.8-3.2,6.1-4.3,2.3-1.2,4.7-2,7.3-2.6.4,0,.8-.2,1.2-.2.4,0,.7-.2,1-.4.9-.7,1.9-1.3,3.1-1.8,1.1-.5,2.3-.8,3.6-1.1,1.3-.3,2.5-.5,3.9-.5,1.3,0,2.5-.1,3.7-.1,1.7,0,3.3,0,4.9.2,1.6.1,3.3.2,4.9.3,2.3,0,4.4.5,6.3,1.3,1.9.8,3.8,1.8,5.6,3,1.5,1.1,3,2.3,4.4,3.5,1.4,1.3,2.8,2.5,4.2,3.8,1.8,1.6,3.1,3.5,4.1,5.5,1,2,1.7,4.2,2.3,6.5.7,2.7,1.4,5.4,2.2,8.1s1.2,5.4,1.3,8.3c.1,4.7-.5,9.2-2,13.3-1.5,4.1-3.4,8.2-5.7,12.2-.4.6-.8,1.1-1.3,1.6-.5.5-1,1-1.5,1.5-2.2,1.9-4.4,3.7-6.7,5.2-2.3,1.6-4.7,2.9-7.2,4-2.5,1.1-5.1,2-7.8,2.6s-5.6,1-8.6,1h-1.7c-.6,0-1.1,0-1.7-.1ZM371.9,88.8c-.2,2.7.3,5.4,1.4,8,1.1,2.7,2.4,5.3,3.9,8,.5.9,1.2,1.6,2,2.1.8.5,1.7.7,2.6.7s1.3-.1,1.9-.4c1.7-.6,3.3-1.4,4.7-2.5,1.4-1,2.7-2.3,3.7-3.6,1-1.4,1.8-2.9,2.4-4.5.6-1.6.9-3.4.9-5.1,0-.8.1-1.5.2-2.3.1-.7.2-1.5.2-2.3,0-1.5,0-2.9,0-4.3,0-1.4-.2-2.8-.5-4.1-.3-1.4-.7-2.7-1.3-4-.6-1.3-1.4-2.5-2.4-3.6-1-1.2-2.3-2.2-3.7-2.8-1.4-.6-2.8-.9-4.3-.9s-3.2.4-4.7,1.2c-1.5.8-2.5,2-3.2,3.6-1.1,2.6-2,5.2-2.9,7.8-.8,2.7-1.2,5.6-1.1,8.9Z"/>
    <path class="cls-3" d="M549.8,126c-.3-1-.5-2-.8-2.9-.2-.9-.5-1.9-.9-3.1-2.1,1.2-4.2,2.4-6.2,3.7-2.1,1.3-4.1,2.6-6.1,3.9-1.3.9-2.7,1.6-4.2,2.1-1.5.5-2.9.7-4.5.7s-1.4,0-2.2-.2c-1.8-.3-3.6-.6-5.2-1.1-1.7-.5-3.3-1.1-4.8-1.9-1.5-.8-2.9-1.8-4.2-2.9-1.3-1.2-2.4-2.6-3.4-4.3-1.6-2.9-3.1-5.7-4.5-8.6-1.4-2.8-2.3-5.9-2.9-9.2-.8-4.2-1-8.4-.7-12.5.3-4.1.7-8.2,1.4-12.4,0-.6.2-1.3.3-1.9.1-.7.2-1.3.2-1.9.1-2.8.8-5.4,1.9-7.8,1.1-2.4,2.5-4.6,4.4-6.5,1.8-1.9,3.9-3.7,6.2-5.2s4.7-2.7,7.3-3.7c.9-.4,1.9-.6,3-.8,1.1-.2,2.3-.2,3.5-.2s3.2.1,4.9.4c1.7.3,3.3.6,4.9,1.1,1.6.5,3.1,1,4.4,1.7,1.4.6,2.5,1.4,3.5,2.2.2.2.5.4.7.6.3.3.7.6,1.3,1.2,0-1.9,0-3.7,0-5.2,0-1.6,0-3.1,0-4.6,0-4.3.2-8.5.3-12.7.1-4.2.2-8.4.3-12.7,0-1.1.3-1.9.8-2.5.5-.5,1.4-.9,2.5-1,1.7-.2,3.4-.4,5.1-.5,1.7-.1,3.4-.2,5.1-.2,3.5,0,6.9.4,10.3,1.1.4,1.6.6,3.3.7,4.9,0,1.6,0,3.3-.1,5-.2,2.4-.2,4.8,0,7.2.2,2.4.4,4.8.4,7.2,0,6.1,0,12.2,0,18.2,0,6,0,12.1,0,18.2v34.8c0,2.5,0,5,0,7.5,0,1.6-.3,2.8-1,3.6-.7.8-1.8,1.2-3.5,1.2-1.2,0-2.5,0-3.7,0h-14.6ZM542.5,107.3c.6-1.5,1.2-2.9,1.8-4.2.6-1.2,1-2.5,1.1-3.7.3-2.9.5-5.8.5-8.8,0-2.9.1-5.8.1-8.8,0-1,0-2-.1-3.1-.1-1.1-.4-2-.9-2.8-.4-.7-.8-1.4-1.1-2.1-.4-.7-.8-1.4-1.3-2s-1.1-1.1-1.8-1.6c-.7-.4-1.6-.7-2.6-.9-.2,0-.5,0-.6,0h-.6c-1.5,0-2.8.3-3.9.9-1,.6-1.9,1.3-2.7,2.2-.7.9-1.4,1.9-1.9,3.1-.5,1.2-.9,2.3-1.3,3.5-.7,2.2-1.1,4.5-1.2,6.7-.1,2.2,0,4.4.3,6.6.3,2.2.8,4.3,1.5,6.5.7,2.1,1.4,4.3,2.3,6.4.5,1.3,1.2,2.2,2,2.6.8.4,1.9.6,3.3.6,1.2,0,2.4-.2,3.6-.4,1.2-.2,2.3-.4,3.5-.5Z"/>
    <path class="cls-3" d="M655.1,95.6c-3.7.2-7.5.4-11.3.5-3.8,0-7.6.4-11.5.9-.9,0-1.8.2-2.6.2-.9,0-1.7,0-2.6,0-1.7,0-3.3,0-5-.1-1.7,0-3.4-.1-5.1-.1s-2.7,0-4.1.2c-1.4.1-2.7.3-4.1.6,1,1.6,2.2,2.9,3.4,4,1.2,1.1,2.5,2,3.9,2.7,1.4.7,2.8,1.3,4.4,1.8,1.5.5,3.1,1,4.7,1.4,1.1.3,2.3.5,3.5.5s2.7-.2,3.9-.6c1.2-.4,2.4-.9,3.6-1.4,1.2-.6,2.4-1.2,3.5-1.8,1.2-.7,2.4-1.3,3.7-1.9,1.6,1.8,3.1,3.6,4.7,5.4,1.6,1.8,3.1,3.6,4.7,5.4-.3.6-.5,1.2-.6,1.7-.1.5-.3.9-.6,1.2-2,1.7-3.8,3.4-5.7,5.2-1.8,1.8-3.9,3.2-6.1,4.5-2.7,1.5-5.6,2.6-8.7,3.2s-6.2,1-9.3,1.3c-1.7,0-3.5-.2-5.4-.5-1.9-.3-3.8-.8-5.6-1.4-1.9-.6-3.7-1.2-5.5-1.8-1.8-.7-3.4-1.3-5-2-3.3-1.5-6-3.4-8.2-5.8-2.2-2.4-4-5.2-5.4-8.3-1.1-2.6-2.1-5.3-2.9-8-.8-2.7-1-5.6-.6-8.5,0-.5,0-1,0-1.4-.5-1.9-.7-3.7-.8-5.6,0-1.8,0-3.7.2-5.5.2-1.8.6-3.7,1-5.5.5-1.8.9-3.6,1.5-5.4.7-2.3,1.6-4.4,2.7-6.2,1.2-1.9,2.7-3.5,4.7-5,1.8-1.3,3.6-2.6,5.4-3.9,1.8-1.3,3.7-2.5,5.6-3.7,2.3-1.4,4.7-2.2,7.3-2.5,2.6-.3,5.2-.4,7.7-.5.7,0,1.3,0,2,0h2c3,0,6,.2,8.9.6,2.9.4,5.8,1.3,8.7,2.8,2.8,1.5,5.2,3.2,7.3,5.3,2,2.1,3.6,4.5,4.6,7.3,1.8,4.8,2.9,9.7,3.5,14.7.6,5,.7,10,.2,15.2,0,.1,0,.3-.1.5,0,.2-.3.5-.5.8ZM632.3,79.7c-1.4-7.4-4.8-11.1-10.3-11.1s-.5,0-.7,0c-.2,0-.5,0-.7,0-7.1.8-10.5,4.5-10.2,11h21.9Z"/>
    <path class="cls-3" d="M107.7,225c-1.9.1-3.7.3-5.6.4-1.9.2-3.8.3-5.7.5,0,0-.3,0-.5,0-1.1,0-1.9-.3-2.5-.9-.6-.6-1-1.4-1.4-2.2-1.1-3.3-3-5.9-5.5-7.6-2.5-1.7-5.6-2.6-9.3-2.6s-2.4.1-3.4.4c-1,.3-1.9.6-2.6,1.1-.7.5-1.4,1.2-1.9,2.1-.6.9-.9,1.8-.9,2.6,0,1.3.1,2.5.6,3.8.4,1.3,1,2.4,1.8,3.5.8,1.1,1.7,2.1,2.9,2.9,1.1.9,2.3,1.5,3.6,2,2.8,1,5.6,2,8.4,2.8,2.8.9,5.6,1.9,8.3,2.9,1.9.7,3.7,1.5,5.5,2.2,1.8.8,3.6,1.6,5.3,2.5,1.7.9,3.3,2,4.9,3.1,1.5,1.2,3,2.5,4.2,4.1,3.3,4,5.5,8.2,6.6,12.6,1.1,4.4.8,9.1-.9,14.1-.7,1.9-1.3,3.7-1.9,5.6-.6,1.8-1.6,3.6-3.1,5.2-1.9,2.1-4,3.7-6.3,5.1-2.3,1.3-4.8,2.3-7.5,3-2.8.8-5.6,1.4-8.5,1.9-2.8.5-5.7,1-8.5,1.5-.3,0-.6.1-.9.1h-.9c-.6,0-1.2,0-1.9,0-.6,0-1.2-.1-1.8-.2-2.1-.3-4.3-.5-6.5-.8-2.2-.3-4.3-.6-6.4-1-2.1-.4-4.2-.9-6.2-1.6-2-.7-4-1.5-6-2.6-1.2-.7-2.5-1.4-3.8-2.2-1.3-.8-2.3-1.7-3.1-2.7-2.3-3.1-4.3-6.3-6.1-9.5-1.8-3.3-3.2-6.7-4.1-10.4-.4-1.6-.3-3,.2-3.9.5-1,1.6-1.7,3.2-2.1,1.6-.4,3.1-.7,4.7-.9,1.6-.2,3.2-.3,4.7-.3s4,.1,5.9.3c1.9.2,3.9.5,5.9.9.8.1,1.4.5,1.7,1.1.4.6.5,1.2.4,2-.1,1.9.3,3.7,1.3,5.3,1,1.6,2.3,3,3.9,4.2,1.6,1.2,3.4,2.1,5.3,2.8,1.9.7,3.7,1,5.5,1,2.5,0,4.8-.4,7-1.2,2.2-.8,3.9-2.3,5-4.6,1.4-2.7,1.1-5.3-.9-7.7-1.5-1.7-3.2-3.1-5.1-4.1-1.9-1-3.9-1.9-6-2.7-3.5-1.3-6.9-2.6-10.4-3.9-3.5-1.3-6.9-2.7-10.3-4.2-2.8-1.2-5.4-2.7-7.8-4.5-2.4-1.8-4.6-3.9-6.4-6.3-1.8-2.5-3.1-5.1-4.1-7.8s-1.5-5.5-1.6-8.3.3-5.6,1.2-8.3c.9-2.8,2.3-5.4,4.2-7.9,1.1-1.4,2.3-2.5,3.7-3.4,1.4-.9,2.8-1.8,4.4-2.7,1.8-1.1,3.7-2.1,5.6-2.8,1.9-.8,3.8-1.4,5.8-1.9,1.9-.5,3.9-1,6-1.4,2-.4,4-.7,6-1.1,1.5-.2,3-.4,4.5-.5,1.5-.1,3-.2,4.5-.2,3.4,0,6.8.3,10.1,1,3.3.7,6.4,1.7,9.3,3.2,2.9,1.5,5.5,3.4,7.7,5.7,2.2,2.3,3.9,5.2,5.1,8.5.7,1.9,1.2,3.8,1.6,5.7.4,1.9.8,3.9,1.1,5.8.2,1.3,0,2.3-.5,2.9-.6.6-1.6,1-3,1.1-.5,0-1.1,0-1.6.1-.5,0-1.1,0-1.6,0-.8,0-1.6,0-2.5,0-.9,0-1.7,0-2.5,0v-.3Z"/>
    <path class="cls-3" d="M298.7,240.7c-.4.1-.9.3-1.3.5-.4.2-.9.3-1.4.4-3.4.2-6.7.4-10.1.5-3.3.2-6.7.3-10.1.4-.3,0-.7,0-1,0-.3,0-.7,0-1,0-1.1,0-2.1-.2-3-.6-.9-.4-1.5-1.3-1.9-2.8,0-.5-.4-.9-.9-1.2-.5-.3-.9-.7-1.3-1.1-.7-.5-1.5-1-2.4-1.3-.9-.3-1.8-.4-2.6-.4s-1.4.1-1.9.4c-1,.5-1.7,1.4-2.4,2.6-.6,1.2-.9,2.3-.7,3.3.5,3,2.4,4.7,5.5,5.1,2.3.3,4.5.6,6.8.9,2.2.3,4.5.6,6.8.8,3.7.4,6.9,1.5,9.6,3.3,2.7,1.8,5.1,4.1,7.4,6.9,1.8,2.3,3.2,4.7,4.2,7.2,1,2.5,1.3,5.2,1,8.2,0,.7-.3,1.6-.6,2.6-.3,1-.6,2.1-1,3.1-.4,1.1-.8,2.1-1.2,3-.4.9-.8,1.7-1.2,2.2-.9,1.2-1.9,2.2-3.1,3.2-1.2.9-2.4,1.8-3.7,2.6-3.1,2.1-6.4,3.5-9.7,4.3-3.3.8-6.7,1.2-10.2,1.2s-4.2-.1-6.3-.4c-2.1-.3-4.3-.6-6.5-1-5.4-1-10.1-2.8-14.1-5.5-4-2.6-7.4-6.2-10.1-10.8-.6-1-1.2-2.1-1.6-3.2-.5-1.1-.9-2.2-1.2-3.2-.5-1.6-.4-2.8.4-3.7.8-.9,2-1.3,3.8-1.3h5.3c1.8,0,3.5,0,5.3,0,2.8,0,5.2.5,7.3,1.4,2.1.9,4,2.5,5.6,4.7,1,1.3,2.2,2.3,3.6,3,1.4.7,2.8,1,4.4,1s3.4-.4,4.7-1.1c1.3-.8,2.2-2,2.6-3.9.2-1,.1-2-.3-2.8-.5-.8-1.2-1.5-2.2-1.9-1.5-.6-3-1.1-4.5-1.6-1.5-.5-3-.9-4.5-1.3-3.4-.8-6.9-1.8-10.4-2.8-3.5-1.1-6.7-2.5-9.6-4.3-2.9-1.8-5.2-4.1-7-6.8-1.8-2.7-2.7-6.1-2.7-10.2,0-5.1,1.4-9.3,4.1-12.7,2.7-3.4,6.3-6.1,11.1-8.3,3-1.4,6.1-2.5,9.2-3.3,3.1-.8,6.2-1.2,9.5-1.2h.8c.3,0,.5,0,.7,0,3.9.1,7.6.6,11.2,1.5,3.6.9,7,2.3,10.2,4.2,2.6,1.6,4.7,3.5,6.2,6,1.5,2.4,2.9,5,4,7.7.4,1,.8,2,1.1,3.1.4,1,.8,2.2,1.3,3.4Z"/>
    <path class="cls-3" d="M351.7,276.5c.2,1.2.4,2.5.4,3.7,0,1.2,0,2.5.1,3.7,0,1.2.2,2.4.4,3.6.2,1.2.7,2.3,1.3,3.5-2,2.1-4.4,3.7-7.1,4.5-2.7.9-5.5,1.3-8.5,1.3s-6.6-.5-9.6-1.6c-3-1.1-5.9-2.7-8.5-4.7-2.1-1.6-3.8-3.6-4.9-5.8-1.1-2.2-1.8-4.6-2-7.1-.4-3.7-.6-7.5-.6-11.2,0-3.7,0-7.4-.2-11.2,0-3.1-.2-6.3-.2-9.4,0-3.1,0-6.3-.2-9.5-1.7-.2-3.3-.4-4.8-.5-1.5-.2-3.1-.4-4.6-.6-.6-2.6-.9-5-.7-7.4.1-2.4.2-4.8.2-7.2s.1-.6.4-1c.3-.4.5-.6.8-.6,1.7-.2,3.4-.4,5.1-.5,1.7-.1,3.5-.3,5.3-.5-.2-2.7-.5-5.5-.7-8.3-.3-2.8-.5-5.7-.7-8.8,1.1,0,2.2-.2,3.2-.4,1-.2,2.1-.3,3.1-.3h.8c3,.2,6.1.5,9.1.9,3,.4,6.2.7,9.5,1.1v16.7h12.6c0,2.6.2,5.1.3,7.4,0,2.3.1,4.7.1,7s-.3,2.1-.9,2.5c-.6.4-1.5.7-2.7.7-1.4,0-2.9.2-4.3.3-1.5.1-3,.2-4.7.4,0,2.5,0,4.8,0,7.1,0,2.3,0,4.6,0,6.8,0,1.9.2,3.7.2,5.5s.2,3.6.4,5.4c0,1.6.2,3.2.4,4.8.2,1.6.4,3.2.8,4.8.5,2.1,1.1,3.4,1.9,4.1.8.7,2.1,1.1,3.9,1.1h.7c.3,0,.5,0,.7,0,.6,0,1.3,0,1.9,0s1.5,0,2.4-.1Z"/>
    <path class="cls-3" d="M428.6,263.7c-3.7.2-7.5.4-11.3.5-3.8,0-7.6.4-11.5.9-.9,0-1.8.2-2.6.2-.9,0-1.7,0-2.6,0-1.7,0-3.3,0-5-.1-1.7,0-3.4-.1-5.1-.1s-2.7,0-4.1.2c-1.4.1-2.7.3-4.1.6,1,1.6,2.2,2.9,3.4,4,1.2,1.1,2.5,2,3.9,2.7,1.4.7,2.8,1.3,4.4,1.8,1.5.5,3.1,1,4.7,1.4,1.1.3,2.3.5,3.5.5s2.7-.2,3.9-.6c1.2-.4,2.4-.9,3.6-1.4,1.2-.6,2.4-1.2,3.5-1.8,1.2-.7,2.4-1.3,3.7-1.9,1.6,1.8,3.1,3.6,4.7,5.4,1.6,1.8,3.1,3.6,4.7,5.4-.3.6-.5,1.2-.6,1.7-.1.5-.3.9-.6,1.2-2,1.7-3.8,3.4-5.7,5.2-1.8,1.8-3.9,3.2-6.1,4.5-2.7,1.5-5.6,2.6-8.7,3.2-3.1.6-6.2,1-9.3,1.3-1.7,0-3.5-.2-5.4-.5-1.9-.3-3.8-.8-5.6-1.4-1.9-.6-3.7-1.2-5.5-1.8-1.8-.7-3.4-1.3-5-2-3.3-1.5-6-3.4-8.2-5.8-2.2-2.4-4-5.2-5.4-8.3-1.1-2.6-2.1-5.3-2.9-8-.8-2.7-1-5.6-.6-8.5,0-.5,0-1,0-1.4-.5-1.9-.7-3.7-.8-5.6,0-1.8,0-3.7.2-5.5.2-1.8.6-3.7,1-5.5.5-1.8.9-3.6,1.5-5.4.7-2.3,1.6-4.4,2.7-6.2,1.2-1.9,2.7-3.5,4.7-5,1.8-1.3,3.6-2.6,5.4-3.9,1.8-1.3,3.7-2.5,5.6-3.7,2.3-1.4,4.7-2.2,7.3-2.5,2.6-.3,5.2-.4,7.7-.5.7,0,1.3,0,2,0h2c3,0,6,.2,8.9.6,2.9.4,5.8,1.3,8.7,2.8,2.8,1.5,5.2,3.2,7.3,5.3,2,2.1,3.6,4.5,4.6,7.3,1.8,4.8,2.9,9.7,3.5,14.7.6,5,.7,10,.2,15.2,0,.1,0,.3-.1.5,0,.2-.3.5-.5.8ZM405.8,247.8c-1.4-7.4-4.8-11.1-10.3-11.1s-.5,0-.7,0c-.2,0-.5,0-.7,0-7.1.8-10.5,4.5-10.2,11h21.9Z"/>
    <path class="cls-3" d="M508.8,295.3c-1.3-.5-2.6-.8-3.9-1-1.3-.2-2.6-.3-3.9-.3-2.2,0-4.4.1-6.6.4-2.1.3-4.3.4-6.4.4s-1.5,0-2.2-.1c-.7,0-1.4-.1-2.1-.2,0-.9-.2-1.7-.3-2.5-.1-.8-.2-1.6-.2-2.4,0-6.1,0-12.2.2-18.4,0-1.3.2-2.6.3-3.9.2-1.3.2-2.6.2-3.9,0-2.5-.2-5-.3-7.5,0-2.5-.3-5-.6-7.4-.1-1.2-.4-2.4-.9-3.6-.5-1.2-1-2.3-1.5-3.4-.7-1.5-1.6-2.5-2.7-3.2-1.1-.7-2.3-1.1-3.5-1.1-2.2,0-4.3,1.1-6.3,3.2-1.5,1.6-2.4,3.4-2.9,5.2-.5,1.8-.7,3.7-.6,5.8.2,4.1.2,8.2-.2,12.2-.4,4-.7,8.1-1.2,12.2-.2,2.4-.3,4.7-.2,7.1,0,2.4.2,4.8.3,7.2,0,.3,0,.8,0,1.6,0,.7,0,1.4.4,1.9-.5.1-.9.2-1.2.3-.3,0-.6,0-.9,0h-1.6c-3,.2-6,.4-8.9.5-2.9,0-5.9.2-8.9.2,0,0-.3,0-.5,0-1.8,0-2.9-.3-3.5-.9-.5-.6-.9-1.9-1-3.7-.1-3.4-.2-6.7-.2-10.1,0-5.7,0-11.3,0-16.9v-16.9c0-3.2,0-6.4-.1-9.6,0-3.2,0-6.4.1-9.6,0-1.3.2-2.6.4-3.9.2-1.3.4-2.7.6-4.2,2,0,4.1-.1,6.1-.2,2-.1,4-.2,6-.2s4.1.1,6.1.3c2,.2,4.1.6,6.1,1.2-.2,1.1-.5,2.2-.6,3.2-.2,1-.4,2.2-.7,3.5.9-.4,1.5-.7,2.1-.9.5-.2,1-.5,1.4-.8,2.3-1.8,5-3.2,8.2-4.2,3.2-1,6.6-1.5,10.1-1.5s5.7.4,8.6,1.1c2.9.7,5.5,1.8,7.8,3.2,2.4,1.5,4.4,3.3,6.1,5.5,1.7,2.2,2.8,4.7,3.2,7.7.9,5.5,1.4,11,1.4,16.5,0,5.5-.2,11-.7,16.7-.3,3.6-.5,7.3-.4,10.9,0,3.6,0,7.3,0,11v3.5Z"/>
    <path class="cls-3" d="M543.2,210.5c-.7,0-1.4-.2-2.2-.2-.7,0-1.5,0-2.2,0-2.3,0-4.6.2-6.9.5-2.3.3-4.5.6-6.8,1-1.1,0-2-.2-2.6-.5-.6-.4-1.1-1.1-1.4-2.2-.6-2.1-1.2-4.2-1.9-6.3-.6-2.1-.9-4.3-.7-6.6,0-.8,0-1.6-.2-2.4-.2-.8-.4-1.6-.6-2.4-.3-1.5.3-2.3,1.6-2.7,1.2-.3,2.2-.5,3.1-.6s1.8-.2,2.6-.3c.8,0,1.7,0,2.6-.1.9,0,1.9,0,3.1,0s2.2,0,3.4,0c1.1,0,2.3,0,3.4.1,1.9,0,3.2.4,4.1,1.1.9.7,1.5,1.9,1.9,3.7.3,1.6.6,3.2.8,4.9.2,1.7.4,3.3.6,5,0,.5,0,1.1-.2,1.7-.2.6-.3,1.2-.4,1.7-.1.6-.3,1.3-.5,2-.2.7-.4,1.6-.6,2.6ZM520.1,292.2c0-2-.2-3.7-.2-5.3s-.2-3.1-.2-4.6c0-.4,0-.7-.1-1.1,0-.4,0-.7,0-1.1.2-4.6.5-9.1.8-13.6s.5-9,.6-13.6c0-4.6,0-9.1,0-13.6-.1-4.5-.2-9.1-.4-13.6,0-.4,0-.9-.1-1.7,0-.8-.1-1.5-.1-2.3s0-1.5.2-2.1c.1-.6.4-.9.8-.9s.2,0,.3,0c1,.4,2.1.6,3.1.7,1,.1,2,.2,3.1.2,1.9,0,3.8-.1,5.7-.4,1.9-.2,3.8-.4,5.7-.4s1.8,0,2.7.1c.9,0,1.7.3,2.6.5.5.2.8.4,1,.7.2.3.2.6.2,1s0,.7,0,1.1c0,.4,0,.7,0,1.1.5,3.2.8,6.4.9,9.5,0,3.2,0,6.3-.1,9.5-.2,3.2-.4,6.3-.8,9.5-.4,3.2-.7,6.3-1,9.5-.4,4.4-.7,8.7-.9,13.1-.1,4.3.2,8.7,1,13.1,0,.7.1,1.4,0,2.1,0,.7,0,1.3,0,1.9-1.9,1.2-3.8,2-5.7,2.5-1.9.5-3.9.7-5.8.7s-3.1-.1-4.6-.3c-1.5-.2-3.1-.5-4.7-.9-.8-.2-1.5-.5-2.1-.8-.7-.3-1.2-.5-1.6-.7Z"/>
    <path class="cls-3" d="M557.9,187c.9,0,1.7,0,2.4,0,.7,0,1.4,0,2.1,0h1.2c.4,0,.8,0,1.1,0,.6,0,1.1.1,1.7.1h4.1c1.3,0,2.7,0,4,.2s2.6.5,3.8,1.1c.1,0,.3,0,.5-.1.2-.1.4-.2.6-.2.3,0,.7-.2,1.1-.3.4-.1.7-.2,1-.2s.4.1.6.3c.2.2.5.5.7.8.2.3.4.6.6,1,.2.3.3.6.3.8.1.9.2,1.7.2,2.6s0,1.8,0,2.6c0,3.8,0,7.6-.1,11.4,0,3.8,0,7.6-.2,11.4,0,.6,0,1.2,0,1.8,0,.6,0,1.4.1,2.3.7-.5,1.2-1,1.7-1.4.5-.4,1-.7,1.4-1.1,1.8-1.5,3.6-2.6,5.6-3.2,1.9-.6,3.9-.9,6-.9,5.2,0,9.8,1.1,13.7,3.2,4,2.1,7.7,5,11.2,8.5,1.9,1.9,3.3,4,4.3,6.2,1,2.2,1.9,4.6,2.6,7,2.3,7.8,2.9,15.3,1.8,22.6-1.1,7.3-3.7,14.4-7.9,21.3-1.4,2.2-3,4.1-4.8,5.5-1.8,1.5-3.8,2.6-5.9,3.5-2.1.9-4.4,1.5-6.8,1.8-2.4.4-4.9.5-7.4.5s-6.2-.4-9.1-1.1c-2.9-.7-5.5-2.2-7.8-4.6-.2-.2-.5-.5-.9-.8-.3-.3-.8-.7-1.5-1.2.2,1.1.3,2.1.4,2.8,0,.8.2,1.5.3,2.3-.2,0-.5.2-.7.4-.3.2-.5.3-.7.3-1.9,0-3.7-.2-5.6-.3-1.9-.1-3.7-.2-5.5-.2-.9,0-1.8,0-2.7.3-.9.2-1.8.3-2.7.5-.6.1-1.2.2-1.6.2-.8,0-1.3-.2-1.7-.6-.4-.4-.7-1.1-.9-2.2-.3-1.3-.4-2.6-.4-3.9,0-3.7.2-7.4.4-11,.2-3.6.2-7.3.1-10.9-.1-4.6-.4-9.1-.7-13.6-.3-4.5-.6-9-.9-13.6,0-2.5-.1-4.9,0-7.4,0-2.5,0-5,.1-7.5,0-4.1.2-8.1.3-12.1.1-4,.2-8,.3-12.1,0-2.1,0-4.1,0-6.2,0-2.1,0-4.4,0-6.8ZM594.1,237.1c-1.8.5-3.4,1-5.1,1.6-1.1.4-1.9,1-2.3,1.7-.4.7-.5,1.8-.3,3.1,0,.8.2,1.6.2,2.4,0,.8,0,1.6,0,2.4,0,3.7,0,7.4-.1,11,0,3.6,0,7.3-.1,11,0,1.8.4,3.3,1.3,4.3.9,1,2.2,1.6,3.9,1.6s1.1,0,1.6-.2c1.8-.4,3.3-1,4.7-1.8,1.4-.9,2.5-2.2,3.3-4,.8-1.6,1.3-3.3,1.5-5,.2-1.7.5-3.4.7-5.2.4-2.7.5-5.4.2-7.9-.3-2.5-.9-5.1-1.7-7.7-.1-.5-.3-1-.6-1.5-.2-.5-.5-.9-.9-1.1-1-.9-2-1.7-3.1-2.4-1.1-.7-2.2-1.5-3.3-2.3Z"/>
    <path class="cls-3" d="M664.5,210.5c-.7,0-1.4-.2-2.2-.2-.7,0-1.5,0-2.2,0-2.3,0-4.6.2-6.9.5-2.3.3-4.5.6-6.8,1-1.1,0-2-.2-2.6-.5-.6-.4-1.1-1.1-1.4-2.2-.6-2.1-1.2-4.2-1.9-6.3-.6-2.1-.9-4.3-.7-6.6,0-.8,0-1.6-.2-2.4-.2-.8-.4-1.6-.6-2.4-.3-1.5.3-2.3,1.6-2.7,1.2-.3,2.2-.5,3.1-.6.9-.1,1.8-.2,2.6-.3.8,0,1.7,0,2.6-.1.9,0,1.9,0,3.1,0s2.2,0,3.4,0c1.1,0,2.3,0,3.4.1,1.9,0,3.2.4,4.1,1.1.9.7,1.5,1.9,1.9,3.7.3,1.6.6,3.2.8,4.9.2,1.7.4,3.3.6,5,0,.5,0,1.1-.2,1.7-.2.6-.3,1.2-.4,1.7-.1.6-.3,1.3-.5,2-.2.7-.4,1.6-.6,2.6ZM641.4,292.2c0-2-.2-3.7-.2-5.3s-.2-3.1-.2-4.6c0-.4,0-.7-.1-1.1,0-.4,0-.7,0-1.1.2-4.6.5-9.1.8-13.6.3-4.5.5-9,.6-13.6,0-4.6,0-9.1,0-13.6-.1-4.5-.2-9.1-.4-13.6,0-.4,0-.9-.1-1.7,0-.8-.1-1.5-.1-2.3s0-1.5.2-2.1c.1-.6.4-.9.8-.9s.2,0,.3,0c1,.4,2.1.6,3.1.7,1,.1,2,.2,3.1.2,1.9,0,3.8-.1,5.7-.4,1.9-.2,3.8-.4,5.7-.4s1.8,0,2.7.1c.9,0,1.7.3,2.6.5.5.2.8.4,1,.7.2.3.2.6.2,1s0,.7,0,1.1c0,.4,0,.7,0,1.1.5,3.2.8,6.4.9,9.5,0,3.2,0,6.3-.1,9.5-.2,3.2-.4,6.3-.8,9.5s-.7,6.3-1,9.5c-.4,4.4-.7,8.7-.9,13.1-.1,4.3.2,8.7,1,13.1,0,.7.1,1.4,0,2.1,0,.7,0,1.3,0,1.9-1.9,1.2-3.8,2-5.7,2.5-1.9.5-3.9.7-5.8.7s-3.1-.1-4.6-.3c-1.5-.2-3.1-.5-4.7-.9-.8-.2-1.5-.5-2.1-.8s-1.2-.5-1.6-.7Z"/>
    <path class="cls-3" d="M679.3,187.2c.8-.2,1.6-.4,2.4-.7.8-.3,1.7-.4,2.5-.4,3,0,6.1.2,9.1.4,3,.2,6.1.3,9.1.4,1,0,1.8.4,2.3.8.5.4.8,1.2.9,2.2.3,5.2.7,10.4,1.1,15.5.5,5.1.6,10.3.5,15.5,0,5.6-.3,11.1-.9,16.6-.5,5.5-1,11-1.2,16.6,0,2.3,0,4.7.1,7,.2,2.3.3,4.7.4,7,.1,3.7.3,7.5.4,11.1.1,3.7.3,7.4.4,11.2,0,.5,0,1,0,1.5,0,.5,0,1-.1,1.6-.3.1-.6.3-.9.5-.3.2-.5.3-.8.2-1.1-.2-2.2-.4-3.2-.4s-2.1-.1-3.1-.1c-2.3,0-4.6.1-6.8.3-2.3.2-4.5.4-6.8.4h-1c-.9,0-1.6,0-2.2-.2-.5-.1-1-.4-1.2-.7-.3-.4-.4-.9-.4-1.5,0-.7,0-1.5,0-2.6.2-3.6.5-7.2.7-10.7.2-3.6.4-7.1.5-10.7,0-4.7.1-9.4.1-14.1,0-4.7-.2-9.4-.5-14.1-.3-4.2-.6-8.4-1.1-12.5-.4-4.1-.6-8.3-.4-12.5.3-6.7.5-13.4.6-20.1,0-1.2,0-2.4-.2-3.6-.1-1.2-.2-2.5-.3-4Z"/>
    <path class="cls-3" d="M741.1,210.5c-.7,0-1.4-.2-2.2-.2-.7,0-1.5,0-2.2,0-2.3,0-4.6.2-6.9.5-2.3.3-4.5.6-6.8,1-1.1,0-2-.2-2.6-.5-.6-.4-1.1-1.1-1.4-2.2-.6-2.1-1.2-4.2-1.9-6.3-.6-2.1-.9-4.3-.7-6.6,0-.8,0-1.6-.2-2.4-.2-.8-.4-1.6-.6-2.4-.3-1.5.3-2.3,1.6-2.7,1.2-.3,2.2-.5,3.1-.6.9-.1,1.8-.2,2.6-.3.8,0,1.7,0,2.6-.1.9,0,1.9,0,3.1,0s2.2,0,3.4,0c1.1,0,2.3,0,3.4.1,1.9,0,3.2.4,4.1,1.1.9.7,1.5,1.9,1.9,3.7.3,1.6.6,3.2.8,4.9.2,1.7.4,3.3.6,5,0,.5,0,1.1-.2,1.7-.2.6-.3,1.2-.4,1.7-.1.6-.3,1.3-.5,2-.2.7-.4,1.6-.6,2.6ZM718,292.2c0-2-.2-3.7-.2-5.3s-.2-3.1-.2-4.6c0-.4,0-.7-.1-1.1,0-.4,0-.7,0-1.1.2-4.6.5-9.1.8-13.6.3-4.5.5-9,.6-13.6,0-4.6,0-9.1,0-13.6-.1-4.5-.2-9.1-.4-13.6,0-.4,0-.9-.1-1.7,0-.8-.1-1.5-.1-2.3s0-1.5.2-2.1c.1-.6.4-.9.8-.9s.2,0,.3,0c1,.4,2.1.6,3.1.7,1,.1,2,.2,3.1.2,1.9,0,3.8-.1,5.7-.4,1.9-.2,3.8-.4,5.7-.4s1.8,0,2.7.1c.9,0,1.7.3,2.6.5.5.2.8.4,1,.7.2.3.2.6.2,1s0,.7,0,1.1c0,.4,0,.7,0,1.1.5,3.2.8,6.4.9,9.5,0,3.2,0,6.3-.1,9.5-.2,3.2-.4,6.3-.8,9.5s-.7,6.3-1,9.5c-.4,4.4-.7,8.7-.9,13.1-.1,4.3.2,8.7,1,13.1,0,.7.1,1.4,0,2.1,0,.7,0,1.3,0,1.9-1.9,1.2-3.8,2-5.7,2.5-1.9.5-3.9.7-5.8.7s-3.1-.1-4.6-.3c-1.5-.2-3.1-.5-4.7-.9-.8-.2-1.5-.5-2.1-.8s-1.2-.5-1.6-.7Z"/>
    <path class="cls-3" d="M804.7,294.1c-.3-1-.5-2-.8-2.9-.2-.9-.5-1.9-.9-3.1-2.1,1.2-4.2,2.4-6.2,3.7-2.1,1.3-4.1,2.6-6.1,3.9-1.3.9-2.7,1.6-4.2,2.1-1.5.5-2.9.7-4.5.7s-1.4,0-2.2-.2c-1.8-.3-3.6-.6-5.2-1.1-1.7-.5-3.3-1.1-4.8-1.9-1.5-.8-2.9-1.8-4.2-2.9-1.3-1.2-2.4-2.6-3.4-4.3-1.6-2.9-3.1-5.7-4.5-8.6-1.4-2.8-2.3-5.9-2.9-9.2-.8-4.2-1-8.4-.7-12.5.3-4.1.7-8.2,1.4-12.4,0-.6.2-1.3.3-1.9.1-.7.2-1.3.2-2,.1-2.8.8-5.4,1.9-7.8,1.1-2.4,2.5-4.6,4.4-6.5,1.8-1.9,3.9-3.7,6.2-5.2,2.3-1.5,4.7-2.7,7.3-3.7.9-.4,1.9-.6,3-.8,1.1-.2,2.3-.2,3.5-.2s3.2.1,4.9.4c1.7.3,3.3.6,4.9,1.1,1.6.5,3.1,1,4.4,1.7,1.4.6,2.5,1.4,3.5,2.2.2.2.5.4.7.6.3.3.7.6,1.3,1.2,0-1.9,0-3.7,0-5.2,0-1.6,0-3.1,0-4.6,0-4.3.2-8.5.3-12.7.1-4.2.2-8.4.3-12.7,0-1.1.3-1.9.8-2.5.5-.5,1.4-.9,2.5-1,1.7-.2,3.4-.4,5.1-.5s3.4-.2,5.1-.2c3.5,0,6.9.4,10.3,1.1.4,1.6.6,3.3.7,4.9,0,1.6,0,3.3-.1,5-.2,2.4-.2,4.8,0,7.2.2,2.4.4,4.8.4,7.2,0,6.1,0,12.2,0,18.2,0,6,0,12.1,0,18.2v34.8c0,2.5,0,5,0,7.5,0,1.6-.3,2.8-1,3.6-.7.8-1.8,1.2-3.5,1.2-1.2,0-2.5,0-3.7,0h-14.6ZM797.4,275.4c.6-1.5,1.2-2.9,1.8-4.2.6-1.2,1-2.5,1.1-3.7.3-2.9.5-5.8.5-8.8,0-2.9.1-5.8.1-8.8,0-1,0-2-.1-3.1-.1-1.1-.4-2-.9-2.8-.4-.7-.8-1.4-1.1-2.1-.4-.7-.8-1.4-1.3-2-.5-.6-1.1-1.1-1.8-1.6-.7-.4-1.6-.7-2.6-.9-.2,0-.5,0-.6,0h-.6c-1.5,0-2.8.3-3.9.9-1,.6-1.9,1.3-2.7,2.2-.7.9-1.4,1.9-1.9,3.1s-.9,2.3-1.3,3.5c-.7,2.2-1.1,4.5-1.2,6.7-.1,2.2,0,4.4.3,6.6.3,2.2.8,4.3,1.5,6.5.7,2.1,1.4,4.3,2.3,6.4.5,1.3,1.2,2.2,2,2.6.8.4,1.9.6,3.3.6,1.2,0,2.4-.2,3.6-.4,1.2-.2,2.3-.4,3.5-.5Z"/>
    <path class="cls-3" d="M910.3,294.8c-1,0-2.1-.1-3.1-.1h-6.4c-1.1,0-2.3,0-3.6,0-1.1,0-2,0-2.7,0-.7,0-1.4,0-1.9,0s-1.2,0-1.5-.2c-.3-.2-.5-.5-.6-1,0-.5-.2-1.2-.2-2.2,0-1-.2-2.2-.4-3.8-2.5,3.1-5.4,5.3-8.8,6.6s-7.1,1.9-11,1.9-4.5-.2-6.7-.5-4.5-.9-6.7-1.5c-2.9-.8-5.3-1.9-7.4-3.2s-3.7-3-5-5.1c-1.3-2.1-2.1-4.7-2.5-7.7-.4-3-.4-6.7,0-10.9.4-3.7,1.7-6.7,4-9.1,2.3-2.4,5-4.3,8.2-5.6s6.6-2.3,10.2-2.8c3.6-.5,7-.8,10.2-.8s4.8,0,6.7.2,3.3.3,4.2.3c.3,0,.6,0,.9,0,.3,0,.6,0,.9-.1.9-1.9,1.2-3.8,1.1-5.5-.1-1.8-.6-3.3-1.4-4.7-.8-1.3-1.9-2.4-3.3-3.2-1.4-.8-2.9-1.2-4.5-1.2s-2.7.3-4.2,1c-.7.3-1.5.6-2.2,1-.8.3-1.5.7-2.1,1.2s-1.1,1-1.5,1.7-.5,1.6-.5,2.6c0,.4,0,.7-.3,1-.3.3-.6.4-1,.5-2.7.2-5.3.4-7.8.8-2.5.3-5.1.5-7.7.5s-2.5,0-3.7-.2c-1.3-.1-2.5-.3-3.7-.6-.6-.1-.9-.5-1.1-1-.4-1.2-.5-2.5-.4-3.7.2-1.2.5-2.4,1.1-3.6,1.9-3.9,4.3-7.4,7.1-10.4,2.8-3,6.3-5.4,10.6-7.1.9-.3,1.7-.6,2.6-.9.9-.3,1.7-.5,2.6-.7,3.5-.7,6.9-1.2,10.3-1.6.3,0,.7,0,1-.1.3,0,.7,0,1,0,2.2,0,4.3.3,6.4,1,2.1.7,4.1,1.3,6.2,1.9,1.2.4,2.4.9,3.5,1.5,1.1.7,2.2,1.3,3.3,1.9,1.9,1,3.5,2.3,4.9,3.7,1.4,1.4,2.6,2.9,3.6,4.5,1,1.6,1.9,3.3,2.6,5.1s1.3,3.7,1.9,5.6c.8,2.8,1.3,5.7,1.5,8.6.2,2.9.2,5.8-.2,8.8-.4,3.8-.8,7.6-1.1,11.3-.3,3.8-.6,7.5-.8,11.3,0,1.1-.1,2.5-.1,4.2,0,1.7,0,3.4,0,5,0,1.6,0,3,0,4.1,0,1.1-.2,1.7-.4,1.7ZM885.7,263c-.7,0-1.6-.2-2.6-.2-1,0-2.1,0-3.4,0s-3.3,0-5,.3c-1.7.2-3.4.5-4.8,1.1-1.5.5-2.8,1.3-3.9,2.3-1.1,1-1.8,2.2-2.2,3.8-.4,1.9-.5,3.5-.1,4.7.3,1.2.9,2.1,1.6,2.7.8.6,1.7,1.1,2.7,1.3,1,.2,2.1.3,3.1.3s2.2,0,3.1-.2c1-.1,1.6-.2,2-.3,2.2-.3,4.1-1,5.6-2.1,1.5-1.1,2.4-2.7,2.7-4.9.2-1.5.4-2.9.6-4.4.2-1.5.3-3,.5-4.4Z"/>
    <path class="cls-3" d="M971.4,294.1c-.3-1-.5-2-.8-2.9-.2-.9-.5-1.9-.9-3.1-2.1,1.2-4.2,2.4-6.2,3.7-2.1,1.3-4.1,2.6-6.1,3.9-1.3.9-2.7,1.6-4.2,2.1-1.5.5-2.9.7-4.5.7s-1.4,0-2.2-.2c-1.8-.3-3.6-.6-5.2-1.1-1.7-.5-3.3-1.1-4.8-1.9s-2.9-1.8-4.2-2.9c-1.3-1.2-2.4-2.6-3.4-4.3-1.6-2.9-3.1-5.7-4.5-8.6-1.4-2.8-2.3-5.9-2.9-9.2-.8-4.2-1-8.4-.7-12.5.3-4.1.7-8.2,1.4-12.4,0-.6.2-1.3.3-1.9.1-.7.2-1.3.2-2,.1-2.8.8-5.4,1.9-7.8s2.5-4.6,4.4-6.5c1.8-1.9,3.9-3.7,6.2-5.2,2.3-1.5,4.7-2.7,7.3-3.7.9-.4,1.9-.6,3-.8,1.1-.2,2.3-.2,3.5-.2s3.2.1,4.9.4c1.7.3,3.3.6,4.9,1.1,1.6.5,3.1,1,4.4,1.7,1.4.6,2.5,1.4,3.5,2.2.2.2.5.4.7.6.3.3.7.6,1.3,1.2,0-1.9,0-3.7,0-5.2,0-1.6,0-3.1,0-4.6,0-4.3.2-8.5.3-12.7.1-4.2.2-8.4.3-12.7,0-1.1.3-1.9.8-2.5.5-.5,1.4-.9,2.5-1,1.7-.2,3.4-.4,5.1-.5s3.4-.2,5.1-.2c3.5,0,6.9.4,10.3,1.1.4,1.6.6,3.3.7,4.9,0,1.6,0,3.3-.1,5-.2,2.4-.2,4.8,0,7.2.2,2.4.4,4.8.4,7.2,0,6.1,0,12.2,0,18.2,0,6,0,12.1,0,18.2v34.8c0,2.5,0,5,0,7.5,0,1.6-.3,2.8-1,3.6-.7.8-1.8,1.2-3.5,1.2-1.2,0-2.5,0-3.7,0h-14.6ZM964,275.4c.6-1.5,1.2-2.9,1.8-4.2.6-1.2,1-2.5,1.1-3.7.3-2.9.5-5.8.5-8.8,0-2.9.1-5.8.1-8.8,0-1,0-2-.1-3.1-.1-1.1-.4-2-.9-2.8-.4-.7-.8-1.4-1.1-2.1-.4-.7-.8-1.4-1.3-2-.5-.6-1.1-1.1-1.8-1.6-.7-.4-1.6-.7-2.6-.9-.2,0-.5,0-.6,0h-.6c-1.5,0-2.8.3-3.9.9-1,.6-1.9,1.3-2.7,2.2-.7.9-1.4,1.9-1.9,3.1-.5,1.2-.9,2.3-1.3,3.5-.7,2.2-1.1,4.5-1.2,6.7-.1,2.2,0,4.4.3,6.6.3,2.2.8,4.3,1.5,6.5.7,2.1,1.4,4.3,2.3,6.4.5,1.3,1.2,2.2,2,2.6.8.4,1.9.6,3.3.6,1.2,0,2.4-.2,3.6-.4,1.2-.2,2.3-.4,3.5-.5Z"/>
    <path class="cls-3" d="M66.6,380.3c0,3.5.2,6.9.4,10.3.1,3.4.3,6.8.4,10.4h19.6c4.7,0,9.4,0,14.2.1.4,0,1,0,1.7.1.7,0,1.4.3,2.1.5.7.2,1.3.5,1.8.9.5.4.8.8.9,1.4,0,1.2.2,2.4.3,3.6.2,1.2.3,2.4.5,3.6.1,1.2.2,2.4.2,3.6,0,1.2-.1,2.4-.4,3.7-.3,1.2-.7,2.1-1.2,2.6-.5.6-1.4.9-2.5,1-2.1.1-4.1.2-6.2.3-2,0-4.1.1-6.2.2-1.9,0-3.8.2-5.6.2s-3.7.1-5.6.1h-1.1c-2,0-4,0-6-.2-2-.1-4-.3-6.2-.4-.2,1.9-.3,3.7-.5,5.5-.1,1.8-.3,3.6-.5,5.4-.4,3.4-.7,6.8-1,10.3-.3,3.4,0,6.8.7,10.3,0,.3.1.6.1.9,0,.3,0,.6,0,.9,0,1.6,0,2.7-.1,3.5,0,.8-.3,1.4-.7,1.8-.4.4-1,.7-1.9.8-.9.1-2.1.3-3.7.5-.8.1-1.6.2-2.4.3-.8,0-1.6,0-2.4,0-2.6,0-5.1-.1-7.6-.4-2.5-.3-5.1-.4-7.8-.4h-.7c0-1.2,0-2.4-.1-3.5,0-1.1,0-2.1,0-3.2,0-4-.2-7.9-.2-11.8,0-3.9-.2-7.9-.2-11.9,0-1.5-.1-2.9-.2-4.4,0-1.5,0-2.9,0-4.4.2-5.7.5-11.4.9-17,.3-5.6.5-11.3.6-17,0-3.4-.1-6.7-.5-10.1-.4-3.3-.7-6.7-.9-10.1,0-1,0-1.9,0-2.9,0-1,0-1.9,0-2.9,0-1.2.2-2,.8-2.4.6-.4,1.5-.6,2.6-.7,6.3,0,12.6-.2,18.8-.3,6.2-.1,12.4-.2,18.7-.2h3.8c3.9,0,7.7.2,11.4.5,3.8.3,7.6.6,11.4.8.2,0,.5,0,.7,0h.7c.4,0,.8,0,1.2,0,.4,0,.9,0,1.4,0,1,1.5,1.5,3,1.6,4.6,0,1.6,0,3.1-.1,4.7-.2,1.6-.3,3.2-.4,4.8-.1,1.6.1,3.2.7,4.9-3.3,0-6.5-.2-9.6-.3-3.1,0-6.2-.1-9.3-.1h-1.7c-.6,0-1.2,0-1.8,0-3.7,0-7.3.3-11,.5-3.7.3-7.6.5-11.7.7Z"/>
    <path class="cls-3" d="M142.7,378.6c-.7,0-1.4-.2-2.2-.2-.7,0-1.5,0-2.2,0-2.3,0-4.6.2-6.9.5-2.3.3-4.5.6-6.8,1-1.1,0-2-.2-2.6-.5-.6-.4-1.1-1.1-1.4-2.2-.6-2.1-1.2-4.2-1.9-6.3-.6-2.1-.9-4.3-.7-6.6,0-.8,0-1.6-.2-2.4-.2-.8-.4-1.6-.6-2.4-.3-1.5.3-2.3,1.6-2.7,1.2-.3,2.2-.5,3.1-.6.9-.1,1.8-.2,2.6-.3.8,0,1.7,0,2.6-.1.9,0,1.9,0,3.1,0s2.2,0,3.4,0c1.1,0,2.3,0,3.4.1,1.9,0,3.2.4,4.1,1.1.9.7,1.5,1.9,1.9,3.7.3,1.6.6,3.2.8,4.9.2,1.7.4,3.3.6,5,0,.5,0,1.1-.2,1.7-.2.6-.3,1.2-.4,1.7-.1.6-.3,1.3-.5,2-.2.7-.4,1.6-.6,2.6ZM119.6,460.3c0-2-.2-3.7-.2-5.3s-.2-3.1-.2-4.6c0-.4,0-.7-.1-1.1,0-.4,0-.7,0-1.1.2-4.6.5-9.1.8-13.6.3-4.5.5-9,.6-13.6,0-4.6,0-9.1,0-13.6-.1-4.5-.2-9.1-.4-13.6,0-.4,0-.9-.1-1.7,0-.8-.1-1.5-.1-2.3s0-1.5.2-2.1c.1-.6.4-.9.8-.9s.2,0,.3,0c1,.4,2.1.6,3.1.7,1,.1,2,.2,3.1.2,1.9,0,3.8-.1,5.7-.4,1.9-.2,3.8-.4,5.7-.4s1.8,0,2.7.1c.9,0,1.7.3,2.6.5.5.2.8.4,1,.7.2.3.2.6.2,1s0,.7,0,1.1c0,.4,0,.7,0,1.1.5,3.2.8,6.4.9,9.5,0,3.2,0,6.3-.1,9.5-.2,3.2-.4,6.3-.8,9.5-.4,3.2-.7,6.3-1,9.5-.4,4.4-.7,8.7-.9,13.1-.1,4.3.2,8.7,1,13.1,0,.7.1,1.4,0,2.1,0,.7,0,1.3,0,1.9-1.9,1.2-3.8,2-5.7,2.5-1.9.5-3.9.7-5.8.7s-3.1-.1-4.6-.3c-1.5-.2-3.1-.5-4.7-.9-.8-.2-1.5-.5-2.1-.8-.7-.3-1.2-.5-1.6-.6Z"/>
    <path class="cls-3" d="M229.7,463.4c-1.3-.5-2.6-.8-3.9-1s-2.6-.3-3.9-.3c-2.2,0-4.4.1-6.6.4-2.1.3-4.3.4-6.4.4s-1.5,0-2.2-.1-1.4-.1-2.1-.2c0-.9-.2-1.7-.3-2.5-.1-.8-.2-1.6-.2-2.4,0-6.1,0-12.2.2-18.4,0-1.3.2-2.6.3-3.9.2-1.3.2-2.6.2-3.9,0-2.5-.2-5-.3-7.5,0-2.5-.3-5-.6-7.4-.1-1.2-.4-2.4-.9-3.6-.5-1.2-1-2.3-1.5-3.4-.7-1.5-1.6-2.5-2.7-3.2-1.1-.7-2.3-1.1-3.5-1.1-2.2,0-4.3,1.1-6.3,3.2-1.5,1.6-2.4,3.4-2.9,5.2-.5,1.8-.7,3.7-.6,5.8.2,4.1.2,8.2-.2,12.2-.4,4-.7,8.1-1.2,12.2-.2,2.4-.3,4.7-.2,7.1,0,2.4.2,4.8.3,7.2,0,.3,0,.8,0,1.6,0,.7,0,1.4.4,1.9-.5.1-.9.2-1.2.3-.3,0-.6,0-.9,0h-1.6c-3,.2-6,.4-8.9.5-2.9,0-5.9.2-8.9.2,0,0-.3,0-.5,0-1.8,0-2.9-.3-3.5-.9-.5-.6-.9-1.9-1-3.7-.1-3.4-.2-6.7-.2-10.1,0-5.7,0-11.3,0-16.9v-16.9c0-3.2,0-6.4-.1-9.6,0-3.2,0-6.4.1-9.6,0-1.3.2-2.6.4-3.9.2-1.3.4-2.7.6-4.2,2,0,4.1-.1,6.1-.2,2-.1,4-.2,6-.2s4.1.1,6.1.3c2,.2,4.1.6,6.1,1.2-.2,1.1-.5,2.2-.6,3.2-.2,1-.4,2.2-.7,3.5.9-.4,1.5-.7,2.1-.9.5-.2,1-.5,1.4-.8,2.3-1.8,5-3.2,8.2-4.2,3.2-1,6.6-1.5,10.1-1.5s5.7.4,8.6,1.1,5.5,1.8,7.8,3.2c2.4,1.5,4.4,3.3,6.1,5.5,1.7,2.2,2.8,4.7,3.2,7.7.9,5.5,1.4,11,1.4,16.5,0,5.5-.2,11-.7,16.7-.3,3.6-.5,7.3-.4,10.9,0,3.6,0,7.3,0,11v3.5Z"/>
    <path class="cls-3" d="M421.4,463.4c-1.3-.5-2.6-.8-3.9-1s-2.6-.3-3.9-.3c-2.2,0-4.4.1-6.6.4-2.1.3-4.3.4-6.4.4s-1.5,0-2.2-.1-1.4-.1-2.1-.2c0-.9-.2-1.7-.3-2.5-.1-.8-.2-1.6-.2-2.4,0-6.1,0-12.2.2-18.4,0-1.3.2-2.6.3-3.9.2-1.3.2-2.6.2-3.9,0-2.5-.2-5-.3-7.5,0-2.5-.3-5-.6-7.4-.1-1.2-.4-2.4-.9-3.6-.5-1.2-1-2.3-1.5-3.4-.7-1.5-1.6-2.5-2.7-3.2-1.1-.7-2.3-1.1-3.5-1.1-2.2,0-4.3,1.1-6.3,3.2-1.5,1.6-2.4,3.4-2.9,5.2-.5,1.8-.7,3.7-.6,5.8.2,4.1.2,8.2-.2,12.2-.4,4-.7,8.1-1.2,12.2-.2,2.4-.3,4.7-.2,7.1,0,2.4.2,4.8.3,7.2,0,.3,0,.8,0,1.6,0,.7,0,1.4.4,1.9-.5.1-.9.2-1.2.3-.3,0-.6,0-.9,0h-1.6c-3,.2-6,.4-8.9.5-2.9,0-5.9.2-8.9.2,0,0-.3,0-.5,0-1.8,0-2.9-.3-3.5-.9-.5-.6-.9-1.9-1-3.7-.1-3.4-.2-6.7-.2-10.1,0-5.7,0-11.3,0-16.9v-16.9c0-3.2,0-6.4-.1-9.6,0-3.2,0-6.4.1-9.6,0-1.3.2-2.6.4-3.9.2-1.3.4-2.7.6-4.2,2,0,4.1-.1,6.1-.2,2-.1,4-.2,6-.2s4.1.1,6.1.3c2,.2,4.1.6,6.1,1.2-.2,1.1-.5,2.2-.6,3.2-.2,1-.4,2.2-.7,3.5.9-.4,1.5-.7,2.1-.9.5-.2,1-.5,1.4-.8,2.3-1.8,5-3.2,8.2-4.2,3.2-1,6.6-1.5,10.1-1.5s5.7.4,8.6,1.1,5.5,1.8,7.8,3.2c2.4,1.5,4.4,3.3,6.1,5.5,1.7,2.2,2.8,4.7,3.2,7.7.9,5.5,1.4,11,1.4,16.5,0,5.5-.2,11-.7,16.7-.3,3.6-.5,7.3-.4,10.9,0,3.6,0,7.3,0,11v3.5Z"/>
    <path class="cls-3" d="M500.4,415c-3.1.4-6,.7-8.8,1-2.8.3-5.5.6-8.2,1-.2,0-.5,0-.7.1-.2,0-.4,0-.7.1-1,.2-2,.3-2.9.3s-2.1-.3-2.5-1c-.5-.7-.8-2-1-3.8-.1-.9-.2-1.8-.3-2.8,0-1-.3-1.9-.7-2.7-.7-1.6-1.6-2.8-2.7-3.6-1.2-.8-2.4-1.2-3.7-1.2s-2.2.3-3.2.9c-1,.6-2,1.3-2.8,2.2-.9.9-1.6,1.8-2.2,2.8-.6,1-1.1,2-1.4,3-1.4,4.4-1.9,8.8-1.5,13.1.4,4.3,1.5,8.6,3.5,12.9.8,1.7,1.8,3,2.9,3.7s2.6,1.1,4.4,1.1c2.7,0,4.7-.7,6.1-2.1,1.4-1.4,2.2-3.4,2.4-6,0-.2.1-.5.2-.7,0-.2.2-.6.2-1.1h1.4c1.2,0,2.5,0,3.8,0,1.3,0,2.6,0,3.9,0,2.6,0,5.1.1,7.6.4s5,.9,7.6,1.8c-.1,2.2-.5,4.3-1,6.2-.5,1.9-1.3,3.8-2.2,5.7-.2.5-.5,1-.8,1.5-.3.5-.5,1.1-.7,1.6-.7,2.7-2.1,5-4.2,7-2.2,2-4.7,3.6-7.5,4.8-2.9,1.3-5.8,2.2-9,2.8-3.1.6-6,.9-8.6.9s-3.5-.2-5.2-.5c-1.7-.3-3.4-.8-5-1.6-1.7-.7-3.3-1.4-5-2.1-1.7-.6-3.4-1.3-5-2.1-4.3-2-7.6-4.6-9.8-8-2.2-3.4-3.7-7.2-4.5-11.7-.3-2-.7-3.9-1-5.8-.3-1.9-.5-3.9-.6-5.8,0-1.8,0-3.6,0-5.5.1-1.8.3-3.6.5-5.5.2-1.8.5-3.6.9-5.4.4-1.8.7-3.6,1.1-5.3.4-1.9,1.1-3.6,2-5.1s2.2-2.8,3.8-4c2-1.4,3.9-2.8,5.8-4.2,1.9-1.4,3.8-2.9,5.7-4.4,1-.8,2-1.4,3.1-1.8,1.1-.4,2.3-.7,3.5-.9,1.2-.2,2.4-.3,3.7-.3,1.3,0,2.5,0,3.7,0,2.5,0,5,.1,7.5.4,2.5.3,4.9.6,7.4,1,4.6.7,8.4,2.3,11.4,4.6,3,2.3,5.2,5.7,6.5,10.1.6,2.2,1.1,4.4,1.5,6.7s.8,4.7,1.3,7.4Z"/>
    <path class="cls-3" d="M532,378.6c-.7,0-1.4-.2-2.2-.2-.7,0-1.5,0-2.2,0-2.3,0-4.6.2-6.9.5-2.3.3-4.5.6-6.8,1-1.1,0-2-.2-2.6-.5-.6-.4-1.1-1.1-1.4-2.2l-1.9-6.3c-.6-2.1-.9-4.3-.7-6.6,0-.8,0-1.6-.2-2.4-.2-.8-.4-1.6-.6-2.4-.3-1.5.3-2.3,1.6-2.7,1.2-.3,2.2-.5,3.1-.6s1.8-.2,2.6-.3,1.7,0,2.6-.1c.9,0,1.9,0,3.1,0s2.2,0,3.4,0c1.1,0,2.3,0,3.4.1,1.9,0,3.2.4,4.1,1.1.9.7,1.5,1.9,1.9,3.7.3,1.6.6,3.2.8,4.9.2,1.7.4,3.3.6,5,0,.5,0,1.1-.2,1.7-.2.6-.3,1.2-.4,1.7-.1.6-.3,1.3-.5,2-.2.7-.4,1.6-.6,2.6ZM508.9,460.3c0-2-.2-3.7-.2-5.3s-.2-3.1-.2-4.6c0-.4,0-.7-.1-1.1,0-.4,0-.7,0-1.1.2-4.6.5-9.1.8-13.6.3-4.5.5-9,.6-13.6,0-4.6,0-9.1,0-13.6-.1-4.5-.2-9.1-.4-13.6,0-.4,0-.9-.1-1.7,0-.8-.1-1.5-.1-2.3s0-1.5.2-2.1c.1-.6.4-.9.8-.9s.2,0,.3,0c1,.4,2.1.6,3.1.7,1,.1,2,.2,3.1.2,1.9,0,3.8-.1,5.7-.4,1.9-.2,3.8-.4,5.7-.4s1.8,0,2.7.1c.9,0,1.7.3,2.6.5.5.2.8.4,1,.7.2.3.2.6.2,1s0,.7,0,1.1c0,.4,0,.7,0,1.1.5,3.2.8,6.4.9,9.5,0,3.2,0,6.3-.1,9.5-.2,3.2-.4,6.3-.8,9.5-.4,3.2-.7,6.3-1,9.5-.4,4.4-.7,8.7-.9,13.1-.1,4.3.2,8.7,1,13.1,0,.7.1,1.4,0,2.1,0,.7,0,1.3,0,1.9-1.9,1.2-3.8,2-5.7,2.5-1.9.5-3.9.7-5.8.7s-3.1-.1-4.6-.3c-1.5-.2-3.1-.5-4.7-.9-.8-.2-1.5-.5-2.1-.8-.7-.3-1.2-.5-1.6-.6Z"/>
    <path class="cls-3" d="M614.5,431.8c-3.7.2-7.5.4-11.3.5-3.8,0-7.6.4-11.5.9-.9,0-1.8.2-2.6.2-.9,0-1.7,0-2.6,0-1.7,0-3.3,0-5-.1-1.7,0-3.4-.1-5.1-.1s-2.7,0-4.1.2c-1.4.1-2.7.3-4.1.7,1,1.6,2.2,2.9,3.4,4,1.2,1.1,2.5,2,3.9,2.7,1.4.7,2.8,1.3,4.4,1.8s3.1,1,4.7,1.4c1.1.3,2.3.5,3.5.5s2.7-.2,3.9-.6c1.2-.4,2.4-.9,3.6-1.4,1.2-.6,2.4-1.2,3.5-1.8,1.2-.7,2.4-1.3,3.7-1.9,1.6,1.8,3.1,3.6,4.7,5.4s3.1,3.6,4.7,5.4c-.3.6-.5,1.2-.6,1.7-.1.5-.3.9-.6,1.2-2,1.7-3.8,3.4-5.7,5.2-1.8,1.8-3.9,3.2-6.1,4.5-2.7,1.5-5.6,2.6-8.7,3.2-3.1.6-6.2,1-9.3,1.3-1.7,0-3.5-.2-5.4-.5-1.9-.3-3.8-.8-5.6-1.4-1.9-.6-3.7-1.2-5.5-1.8-1.8-.7-3.4-1.3-5-2-3.3-1.5-6-3.4-8.2-5.8-2.2-2.4-4-5.2-5.4-8.3-1.1-2.6-2.1-5.3-2.9-8-.8-2.7-1-5.6-.6-8.5,0-.5,0-1,0-1.4-.5-1.9-.7-3.7-.8-5.6,0-1.8,0-3.7.2-5.5.2-1.8.6-3.7,1-5.5s.9-3.6,1.5-5.4c.7-2.3,1.6-4.4,2.7-6.2,1.2-1.9,2.7-3.5,4.7-5,1.8-1.3,3.6-2.6,5.4-3.9,1.8-1.3,3.7-2.5,5.6-3.7,2.3-1.4,4.7-2.2,7.3-2.5,2.6-.3,5.2-.4,7.7-.5.7,0,1.3,0,2,0h2c3,0,6,.2,8.9.6,2.9.4,5.8,1.3,8.7,2.8,2.8,1.5,5.2,3.2,7.3,5.3,2,2.1,3.6,4.5,4.6,7.3,1.8,4.8,2.9,9.7,3.5,14.7.6,5,.7,10,.2,15.2,0,.1,0,.3-.1.5,0,.2-.3.5-.5.8ZM591.7,415.9c-1.4-7.4-4.8-11.1-10.3-11.1s-.5,0-.7,0c-.2,0-.5,0-.7,0-7.1.8-10.5,4.5-10.2,11h21.9Z"/>
    <path class="cls-3" d="M622.3,385.9c2.1-1.1,4.1-1.6,5.9-1.6s2.5.2,3.6.7c.8.3,1.6.5,2.4.5.8,0,1.5.1,2.4.1s1.8,0,2.7-.1c.9,0,1.8-.1,2.7-.1s1.7,0,2.2,0c.5,0,.9.2,1.2.4.3.2.4.6.5,1.1,0,.5.1,1.2.1,2.1,0,.9.2,1.7.4,2.6.2.8.4,1.8.6,2.8,2.8-2.7,5.8-4.8,8.9-6.3,3.1-1.4,6.7-2.2,10.7-2.2,2.1,0,3.6.5,4.5,1.3.8.8,1.2,2.3,1.2,4.4v5.1c0,1.7-.1,3.4-.4,5-.2,1.2-.3,2.3-.3,3.4,0,1.1.5,2.2,1.5,3.2-.8.2-1.4.5-1.7.7-.3.2-.8.3-1.4.3-2.2,0-4.4.1-6.6.1s-4.4,0-6.6.1c-2.5,0-4.4.7-5.6,2-1.2,1.2-1.8,3.1-1.9,5.6,0,3.1-.1,6.2-.1,9.2s0,6.1,0,9.2v26.7h-25c-.5-6.3-.7-12.7-.8-19.1,0-6.4-.1-12.8-.1-19.2s0-12.8,0-19.2c0-6.4-.3-12.8-.8-19.2Z"/>
    <path class="cls-3" d="M747,462.9c-1,0-2.1-.1-3.1-.1h-6.4c-1.1,0-2.3,0-3.6,0-1.1,0-2,0-2.7,0s-1.4,0-1.9,0-1.2,0-1.5-.2c-.3-.2-.5-.5-.6-1,0-.5-.2-1.2-.2-2.2,0-1-.2-2.2-.4-3.8-2.5,3.1-5.4,5.3-8.8,6.6-3.4,1.3-7.1,1.9-11,1.9s-4.5-.2-6.7-.5c-2.2-.4-4.5-.9-6.7-1.5-2.9-.8-5.3-1.9-7.4-3.2-2.1-1.3-3.7-3-5-5.1-1.3-2.1-2.1-4.7-2.5-7.7-.4-3-.4-6.7,0-10.9.4-3.7,1.7-6.7,4-9.1,2.3-2.4,5-4.3,8.2-5.6,3.2-1.4,6.6-2.3,10.2-2.8s7-.8,10.2-.8,4.8,0,6.7.2c1.9.2,3.3.3,4.2.3.3,0,.6,0,.9,0,.3,0,.6,0,.9-.1.9-1.9,1.2-3.8,1.1-5.5-.1-1.8-.6-3.3-1.4-4.7-.8-1.3-1.9-2.4-3.3-3.2-1.4-.8-2.9-1.2-4.5-1.2s-2.7.3-4.2,1c-.7.3-1.5.6-2.2,1-.8.3-1.5.7-2.1,1.2-.6.5-1.1,1-1.5,1.7-.4.7-.5,1.6-.5,2.6,0,.4,0,.7-.3,1-.3.3-.6.4-1,.5-2.7.2-5.3.4-7.8.8-2.5.3-5.1.5-7.7.5s-2.5,0-3.7-.2c-1.3-.1-2.5-.3-3.7-.6-.6-.1-.9-.5-1.1-1-.4-1.2-.5-2.5-.4-3.7.2-1.2.5-2.4,1.1-3.6,1.9-3.9,4.3-7.4,7.1-10.4,2.8-3,6.3-5.4,10.6-7.1.9-.3,1.7-.6,2.6-.9.9-.3,1.7-.5,2.6-.7,3.5-.7,6.9-1.2,10.3-1.6.3,0,.7,0,1-.1.3,0,.7,0,1,0,2.2,0,4.3.3,6.4,1,2.1.7,4.1,1.3,6.2,1.9,1.2.4,2.4.9,3.5,1.5,1.1.7,2.2,1.3,3.3,1.9,1.9,1,3.5,2.3,4.9,3.7,1.4,1.4,2.6,2.9,3.6,4.5,1,1.6,1.9,3.3,2.6,5.1.7,1.8,1.3,3.7,1.9,5.6.8,2.8,1.3,5.7,1.5,8.6.2,2.9.2,5.8-.2,8.8-.4,3.8-.8,7.6-1.1,11.3-.3,3.8-.6,7.5-.8,11.3,0,1.1-.1,2.5-.1,4.2,0,1.7,0,3.4,0,5,0,1.6,0,3,0,4.1,0,1.1-.2,1.7-.4,1.7ZM722.3,431.1c-.7,0-1.6-.2-2.6-.2-1,0-2.1,0-3.4,0s-3.3,0-5,.3c-1.7.2-3.4.5-4.9,1.1-1.5.5-2.8,1.3-3.9,2.3-1.1,1-1.8,2.2-2.2,3.8-.4,1.9-.5,3.5-.1,4.7.3,1.2.9,2.1,1.6,2.7.8.6,1.7,1.1,2.7,1.3s2.1.3,3.1.3,2.2,0,3.1-.2c1-.1,1.6-.2,2-.3,2.2-.3,4.1-1,5.6-2.1,1.5-1.1,2.4-2.7,2.7-4.9.2-1.5.4-2.9.6-4.4.2-1.5.3-3,.5-4.4Z"/>
  </g>
  <path class="cls-4" d="M279.4,378l-37.3,64.7c-3.9,6.8,1,15.3,8.8,15.3h74.7c7.8,0,12.7-8.5,8.8-15.3l-37.3-64.7c-3.9-6.8-13.7-6.8-17.7,0Z"/>
  <polygon class="cls-2" points="219 241.5 201.4 241.5 213.8 229.1 199.9 215.2 187.5 227.6 187.5 210.1 167.9 210.1 167.9 227.6 155.5 215.2 141.6 229.1 154 241.5 136.5 241.5 136.5 261.1 154 261.1 141.6 273.5 155.5 287.4 167.9 275 167.9 292.6 187.5 292.6 187.5 275 199.9 287.4 213.8 273.5 201.4 261.1 219 261.1 219 241.5"/>
</svg>