<svg width="62" height="61" viewBox="0 0 62 61" fill="none" xmlns="http://www.w3.org/2000/svg">
<path d="M32.499 6.90059L37.199 0.800587C38.199 -0.499413 40.299 0.000587106 40.499 1.70059L41.499 9.30059C41.699 10.5006 42.899 11.2006 43.999 10.8006L51.099 7.80059C52.599 7.20059 54.099 8.70059 53.499 10.2006L50.499 17.3006C49.999 18.4006 50.799 19.7006 51.999 19.8006L59.599 20.8006C61.199 21.0006 61.799 23.1006 60.499 24.1006L54.399 28.8006C53.399 29.5006 53.399 31.0006 54.399 31.7006L60.499 36.4006C61.799 37.4006 61.299 39.5006 59.599 39.7006L51.999 40.7006C50.799 40.9006 50.099 42.1006 50.499 43.2006L53.499 50.3006C54.099 51.8006 52.599 53.3006 51.099 52.7006L43.999 49.7006C42.899 49.2006 41.599 50.0006 41.499 51.2006L40.499 58.8006C40.299 60.4006 38.199 61.0006 37.199 59.7006L32.499 53.6006C31.799 52.6006 30.299 52.6006 29.599 53.6006L24.899 59.7006C23.899 61.0006 21.799 60.5006 21.599 58.8006L20.599 51.2006C20.399 50.0006 19.199 49.3006 18.099 49.7006L10.999 52.7006C9.49902 53.3006 7.99902 51.8006 8.59902 50.3006L11.599 43.2006C12.099 42.1006 11.299 40.8006 10.099 40.7006L2.49902 39.7006C0.899025 39.5006 0.299025 37.4006 1.59902 36.4006L7.69902 31.7006C8.69902 31.0006 8.69902 29.5006 7.69902 28.8006L1.69902 24.0006C0.399025 23.0006 0.899025 20.9006 2.59902 20.7006L10.199 19.7006C11.399 19.5006 12.099 18.3006 11.699 17.2006L8.69902 10.1006C8.09902 8.60059 9.59902 7.10059 11.099 7.70059L18.199 10.7006C19.299 11.2006 20.599 10.4006 20.699 9.20059L21.699 1.60059C21.899 0.000587106 23.999 -0.599413 24.999 0.700587L29.699 6.80059C30.399 7.80059 31.899 7.80059 32.599 6.80059L32.499 6.90059Z" fill="#00763F"/>
</svg>
