<svg width="44" height="37" viewBox="0 0 44 37" fill="none" xmlns="http://www.w3.org/2000/svg">
<g clip-path="url(#clip0_128_1062)">
<path d="M43.6977 4.30313C42.2977 4.90313 40.7977 5.30312 39.2977 5.60313C39.9977 5.50313 41.0977 4.20312 41.4977 3.70312C42.0977 2.90313 42.6977 2.00312 42.9977 1.00313V0.803125H42.7977C41.0977 1.70312 39.3977 2.40312 37.4977 2.80312C37.2977 2.80312 37.1977 2.80312 37.0977 2.80312C36.8977 2.60312 36.7977 2.50312 36.5977 2.30312C35.7977 1.60312 34.9977 1.10312 33.9977 0.703125C32.7977 0.203125 31.3977 0.003125 30.0977 0.103125C28.7977 0.103125 27.4977 0.503125 26.3977 1.10312C25.1977 1.70312 24.1977 2.50312 23.3977 3.50312C22.5977 4.50313 21.8977 5.80313 21.5977 7.10313C21.2977 8.40312 21.2977 9.60312 21.5977 10.9031C21.5977 11.1031 21.5977 11.1031 21.3977 11.1031C14.0977 10.0031 8.19767 7.40312 3.29767 1.90312C3.09767 1.70312 2.99767 1.70312 2.79767 1.90312C0.697671 5.10313 1.69767 10.2031 4.39767 12.7031C4.79767 13.0031 5.09767 13.4031 5.49767 13.7031C5.39767 13.7031 3.59767 13.5031 1.99767 12.7031C1.79767 12.6031 1.69767 12.7031 1.69767 12.9031C1.69767 13.2031 1.69767 13.6031 1.69767 13.9031C2.09767 17.1031 4.29767 20.1031 7.39767 21.3031C7.79767 21.5031 8.19767 21.6031 8.59767 21.7031C7.89767 21.9031 7.19767 22.0031 5.19767 21.8031C4.99767 21.8031 4.89767 21.8031 4.99767 22.1031C6.49767 26.2031 9.79767 27.4031 12.1977 28.1031C12.4977 28.1031 12.8977 28.1031 13.1977 28.2031C12.3977 29.4031 9.59767 30.3031 8.29767 30.8031C5.89767 31.6031 3.29767 32.0031 0.797671 31.8031C0.397671 31.8031 0.297671 31.8031 0.197671 31.8031C0.0976714 31.8031 0.197671 32.0031 0.297671 32.1031C0.797671 32.4031 1.29767 32.7031 1.89767 33.0031C3.49767 33.8031 5.19767 34.5031 6.89767 35.0031C15.8977 37.5031 25.9977 35.7031 32.6977 29.0031C37.9977 23.7031 39.7977 16.5031 39.7977 9.30313C39.7977 2.10313 40.0977 8.90312 40.2977 8.70312C41.6977 7.70312 42.7977 6.40312 43.7977 5.10313C43.9977 4.80312 43.9977 4.50313 43.9977 4.40313C43.9977 4.20313 43.9977 4.30313 43.7977 4.40313L43.6977 4.30313Z" fill="#00763F"/>
</g>
<defs>
<clipPath id="clip0_128_1062">
<rect width="43.9" height="36.1" fill="white"/>
</clipPath>
</defs>
</svg>
