<?xml version="1.0" encoding="utf-8"?>
<!-- Generator: Adobe Illustrator 25.2.3, SVG Export Plug-In . SVG Version: 6.00 Build 0)  -->
<svg version="1.1" id="Capa_1" xmlns="http://www.w3.org/2000/svg" xmlns:xlink="http://www.w3.org/1999/xlink" x="0px" y="0px"
	 viewBox="0 0 850.4 473.7" style="enable-background:new 0 0 850.4 473.7;" xml:space="preserve">
<g>
	<path d="M203.8,168.1c0.2-1.6-0.4-1.3-1.3-1.3c-9.3,0-18.5,0-27.8,0c-1.2,0-1.7,0.2-2.1,1.5c-1.9,7-5.9,12.6-11.7,16.9
		c-4.7,3.4-9.9,5.7-15.8,6.1c-0.7,0-1.4-0.2-2,0.3c-1.8,0.2-3.6,0.2-5.4,0c-0.6-0.5-1.3-0.2-2-0.3c0.1,0.1,0.2,0.1,0.3,0.1
		c-0.1,0-0.2-0.1-0.3-0.1c-5.5-0.2-10.4-2.1-15-5c-7.1-4.5-11.8-10.9-14.9-18.6c-2-4.9-3.5-9.8-3.8-15.1c-0.1-0.6,0.2-1.3-0.3-1.9
		c0-0.7-0.1-1.5-0.1-2.2c0-3.1,0-6.3,0-9.4c0,0,0,0,0,0c0,0,0,0,0,0c-0.2-2.6,0.3-5.2,0.8-7.7c2-10.4,6-19.7,14.4-26.7
		c5.8-4.8,12.5-7.4,20.1-7.7c2.1,0,4.2,0,6.3,0c0,0,0,0,0,0c0,0,0,0,0,0c2.8,0.3,5.6,0.7,8.3,1.6c5.5,1.8,10.5,4.5,14.4,8.8
		c3.7,4,6,8.8,7.1,14.1c0.4,0.7,1.1,0.5,1.7,0.5c9.2,0,18.4,0,27.5,0c0.6,0,1.3,0.2,1.8-0.4c0-0.5,0-1,0-1.5
		c-0.1-0.2-0.2-0.3-0.2-0.5c0,0.2,0.1,0.3,0.2,0.5c-0.1-0.6,0.2-1.3-0.3-1.9c-0.5-2.8-1-5.7-1.9-8.5C196.7,93.9,186,83,171.3,75.7
		c-7.3-3.6-15.1-5.4-23.2-6.4c-1-0.6-2.1-0.2-3.1-0.3c0.3,0.1,0.6,0.1,0.9,0.2c-0.3,0-0.6-0.1-0.9-0.2c-2.3,0-4.5,0-6.8,0
		c-0.3,0.1-0.7,0.2-1,0.2c0.3,0,0.7-0.1,1-0.2c-1.2,0.1-2.4-0.3-3.5,0.3c-0.6,0-1.3,0.1-1.9,0.1c-0.1,0.1-0.3,0.1-0.4,0.2
		c0.1,0,0.3-0.1,0.4-0.2c-0.6,0.1-1.4-0.2-1.9,0.3c-2.8,0.5-5.7,1-8.5,1.7c-11.7,2.7-21.9,8.3-30.7,16.4c-2.2,2.1-4.1,4.5-6,6.8
		c-6.2,7.4-10.2,15.9-12.9,25.1c-1.7,5.7-2.7,11.6-2.9,17.6c-0.1,4-0.2,7.9,0,11.9c0,0.9,0.1,1.7,0.1,2.6c0.3,0.6,0,1.4,0.3,2
		c0.3,1.3,0.3,2.6,0.5,3.9c1.2,8.3,3.7,16.2,7.2,23.8c3.3,7.2,7.8,13.5,13.2,19.2c2.1,2.2,4.6,4.2,7.1,6.1c6.2,4.8,13.3,8,20.7,10.2
		c4.9,1.4,9.9,2.3,15,2.5c1.1,0.6,2.4,0.2,3.6,0.3c-0.3-0.1-0.7-0.1-1-0.2c0.3,0,0.7,0.1,1,0.2c1.9,0,3.7,0,5.6,0
		c0.3-0.1,0.6-0.2,1-0.2c-0.3,0-0.6,0.1-1,0.2c1.2-0.1,2.4,0.3,3.5-0.3c1.3-0.2,2.6-0.3,3.9-0.5c5.4-0.7,10.6-2,15.6-4
		c9.7-4,18.2-9.7,24.9-17.9C197.8,188.5,202.1,178.9,203.8,168.1z"/>
	<path d="M154,377.3c-5.9-7.7-11.8-15.4-17.7-23.1c-0.5-0.7-0.4-1,0.1-1.6c2.3-3,4.5-6.1,6.7-9.2c8.1-11.1,16.3-22.3,24.4-33.4
		c2.2-3,4.4-6.1,6.7-9.2c-0.3-0.1-0.4-0.2-0.5-0.2c-10.8,0-21.6,0-32.4-0.1c-1,0-1.3,0.5-1.7,1.1c-7.1,10.7-14.1,21.4-21.2,32.2
		c-0.5-0.4-0.8-0.8-1.1-1.3c-6.5-10.1-13.1-20.2-19.6-30.4c-0.7-1.1-1.5-1.6-2.9-1.6c-7,0.1-14.1,0-21.1,0c-3.6,0-7.3,0-10.9,0
		c0.1,0.8,0.4,1.3,0.8,1.8c4.6,6.1,9.2,12.3,13.8,18.4c7.8,10.5,15.6,21,23.4,31.4c0.5,0.7,0.6,1.2,0.2,1.8c-1.6,2-3.1,4.1-4.6,6.2
		c-4.8,6.4-9.6,12.7-14.4,19.1c-4.8,6.4-9.6,12.8-14.3,19.2c-2.1,2.9-4.2,5.8-6.3,8.7c0.5,1,1.4,0.5,2,0.5c9.9,0,19.7,0,29.6,0
		c0.6,0,1.3,0.1,1.9-0.2c7.8-11.3,15.6-22.6,23.4-33.9c8.3,11.5,16.4,22.7,24.5,33.9c0.1,0,0.2,0.1,0.4,0.1c10.9,0,21.9,0,32.8,0
		c0.4,0,1,0.2,0.9-0.6c-0.7-0.9-1.5-1.9-2.2-2.8C167.8,395.4,160.9,386.3,154,377.3z"/>
	<path d="M264.1,394.7c-19.2,0-38.3,0-57.5,0c-0.7,0-1.4,0.2-2.1-0.2c0-0.8-0.1-1.5-0.1-2.3c0-31.8,0-63.5,0-95.3
		c0-10.3,0-20.6,0-30.9c0-1.2-0.3-1.6-1.6-1.6c-3.6,0.1-7.2,0.1-10.7,0c-1.9-0.1-2.3,0.5-2.3,2.3c0.1,46.1,0,92.3,0,138.4
		c0,0.8,0,1.5,0,2.3c0.6,0.5,1.4,0.2,2,0.2c24.1,0,48.1,0,72.2,0c0.7,0,1.4,0.1,2.1-0.1c0-4.2,0-8.5,0-12.7
		C265.5,394.6,264.8,394.7,264.1,394.7z"/>
	<path d="M435.3,399.1c0-3.4,0-3.4-3.3-3.4c-1.2,0.4-2.4,0-3.5,0.2c-1,0.2-2.1,0.2-3.1,0c-1-0.3-2.1,0.2-3.1-0.3
		c-9.1-0.2-14.7-5.7-14.9-14.2c-0.1-0.2-0.2-0.4-0.2-0.6c0,0.2,0.1,0.4,0.2,0.6c0-22.1,0-44.2,0-66.3l0,0c8.2,0,16.3,0,24.5,0
		c1.5,0,2.1-0.3,2-1.9c-0.1-2.4,0-4.8-0.1-7.3c0-1,0.4-2.2-0.4-3.1c-9.8,0-19.6,0-29.5,0c1-1.2,1.9-2.1,2.7-3.2
		c3-3.9,4-8.6,4.7-13.4c0.5-0.7,0.2-1.5,0.3-2.3c-0.1,0.2-0.1,0.4-0.2,0.6c0-0.2,0.1-0.4,0.2-0.6c0-1.4,0-2.8,0-4.2
		c0-0.8-0.1-1.2-1-1.2c-3.6,0-7.2,0-10.7,0c-0.5,0-1,0-0.9,0.6c0.1,1-0.3,1.9-0.3,2.8c-0.1,4.7-1.8,8.9-4.2,12.8
		c-3.8,6.1-9.4,9.7-16.3,11.4c-1.4,0.3-1.8,0.9-1.8,2.3c0.1,2,0,4.1,0,6.1c0.5,0.7,1.3,0.4,1.9,0.4c5,0,9.9,0,14.9,0
		c-0.6-0.2-1.3-0.2-2-0.3c0.7,0,1.3,0,2,0.3l0,0c0,21.8,0,43.6,0,65.4c0,0.8-0.3,1.7,0.3,2.4c0.2,2.3,0.6,4.6,1.2,6.8
		c1.7,6.3,5.1,11.1,10.9,14.3c4.5,2.5,9.4,3.7,14.5,3.9c3.3,0.1,6.6,0.1,9.9,0c0.9,0,1.7-0.1,2.6-0.1c0.6-0.3,1.4,0,2-0.3
		c1-0.1,0.7-0.9,0.7-1.5C435.3,403.8,435.3,401.5,435.3,399.1z M432.2,315C432.2,315,432.3,315,432.2,315c-0.1,0-0.3,0-0.5,0
		c-2.1,0-4.2,0-6.2,0C427.7,315,430,315,432.2,315z M379,315c1.2,0,2.3,0,3.5,0C381.3,315,380.2,315,379,315z"/>
	<path d="M449.4,94c10.2-0.1,20.3,0,30.5,0c0.6-0.5,0.4-1.2,0.4-1.8c0-8.7,0-17.5,0-26.2c0-1.5-0.4-1.9-1.9-1.9
		c-9.6,0.1-19.3,0-28.9,0c-0.6,0-1.3-0.2-1.8,0.4c0,0,0,0,0,0c0,0,0,0,0,0c0,9.3,0,18.5,0,27.8C447.6,93.7,447.9,94,449.4,94z"/>
	<path d="M476.8,108.5c-8.5,0.1-17,0.1-25.5,0c-1.7,0-2.2,0.4-2.2,2.1c0.1,34.4,0,68.9,0.1,103.3c0,0.7-0.3,1.4,0.4,1.9c0,0,0,0,0,0
		c0,0,0,0,0,0c9.5,0,19.1,0,28.6,0c0.7-0.4,0.4-1.1,0.4-1.7c0-34.6,0-69.1,0-103.7C478.7,108.9,478.3,108.5,476.8,108.5z
		 M449.4,109.8c0.1-0.6,0.4-0.9,0.9-1C449.7,108.9,449.5,109.3,449.4,109.8z M471,108.7c1.7,0,3.4,0,5.1,0c0.2,0,0.3,0,0.4,0
		C474.7,108.7,472.8,108.7,471,108.7z M478.5,214.6c0-0.2,0-0.4,0-0.6c0,0.3,0,0.5,0,0.8C478.5,214.7,478.5,214.7,478.5,214.6z
		 M478.5,131.4c0-6.8,0-13.7,0-20.5c0,0.1,0,0.1,0,0.2C478.5,117.8,478.5,124.6,478.5,131.4z"/>
	<path d="M497.2,215.9C497.2,215.9,497.2,215.9,497.2,215.9C497.2,215.9,497.2,215.9,497.2,215.9c9,0,18-0.1,27,0
		c1.7,0,2.1-0.4,2.1-2.1c-0.1-49.8,0-99.5,0-149.3c-0.5-0.6-1.2-0.4-1.8-0.4c-8.6,0-17.1,0-25.7-0.1c-1.8,0-2.1,0.6-2.1,2.2
		c0,49.2,0,98.5,0,147.7C496.7,214.6,496.4,215.3,497.2,215.9z M497.6,64.4c-0.4,0.2-0.6,0.5-0.7,1.1c0,0,0-0.1,0-0.1
		C496.8,64.7,497.1,64.5,497.6,64.4z M496.9,213.6c0,0.1,0,0.2,0,0.4c0,0.1,0,0.3,0,0.4C496.9,214.1,496.9,213.9,496.9,213.6z"/>
	<path d="M327.3,215.8c7.9,0,15.7,0,23.6,0c1.1,0,1.7-0.1,1.8-1.5c0.2-3,0.6-6,1-9c0.3-1.8,0.1-3.7,0.9-5.8c2.1,5.1,5.3,9,9.5,12.1
		c5.5,4,11.6,6.1,18.3,6.6c2.2,0.5,4.3,0.5,6.5,0c0.8,0,1.5-0.1,2.3-0.1c0.1-0.1,0.3-0.1,0.4-0.2c-0.1,0-0.3,0.1-0.4,0.2
		c0.6-0.1,1.4,0.2,1.9-0.3c5.4-0.9,10.7-2.4,15.5-5.1c10.2-5.7,16.9-14.3,21.3-25c2.2-5.4,3.4-11.1,4.3-16.8c0.5-0.6,0.2-1.3,0.3-2
		c-0.1,0.1-0.1,0.2-0.1,0.4c0-0.1,0.1-0.3,0.1-0.4c0-0.7,0.1-1.5,0.1-2.2c0.5-3.3,0.5-6.6,0-9.9c-0.7-6.6-1.9-13.2-4.3-19.5
		c-3.6-9.3-9.2-17.2-17.4-23c-7.4-5.3-15.8-7.7-24.8-8.3c-1.7,0-3.3,0-5,0c-11.2,1.1-21,4.7-26.9,15.7c0-19.4,0-38.4,0-57.3
		c-0.5-0.8-1.3-0.5-1.9-0.5c-8.5,0-17,0-25.5-0.1c-1.7,0-2.1,0.5-2.1,2.2c0,49.3,0,98.5,0,147.8
		C326.8,214.6,326.5,215.4,327.3,215.8z M358.1,145.1c5-9,12.8-13.1,22.9-12.7c9.2,0.3,15.9,4.9,19.8,13.1
		c5.5,11.4,5.4,23.1-0.1,34.5c-3.4,7.1-9.4,10.9-17.2,11.8c-17.4,2.1-27.6-10.4-28.4-25.3c-0.1-1.8,0-3.6,0-4.8
		C354.9,155.5,355.4,150,358.1,145.1z"/>
	<path d="M722.3,333.2c-0.3-2.8-0.6-5.7-1.3-8.4c-2.3-9.7-7.6-17.1-16.9-21.3c-3.4-1.6-7.1-2.2-10.7-2.9c-0.8-0.6-1.8-0.2-2.7-0.3
		c0.2,0.1,0.5,0.2,0.7,0.2c-0.2,0-0.5-0.1-0.7-0.2c-1.7,0-3.5,0-5.2,0c-0.7,0-1.4-0.3-2,0.3c-13,1.8-21.9,9.3-27.6,20.8
		c-0.2-0.1-0.3-0.2-0.3-0.2c-0.2-0.5-0.3-1-0.5-1.4c-1.9-5.5-5-10.2-9.8-13.7c-4.5-3.2-9.7-4.7-15.1-5.5c-0.7-0.5-1.6-0.2-2.3-0.3
		c0.2,0.1,0.4,0.1,0.6,0.2c-0.2,0-0.4-0.1-0.6-0.2c-1.8,0-3.5,0-5.3,0c-0.2,0.1-0.3,0.2-0.5,0.2c0.2,0,0.3-0.1,0.5-0.2
		c-0.7,0.1-1.3-0.2-1.9,0.3c-1.8,0.4-3.7,0.7-5.5,1.2c-6.9,2-12.6,5.7-17,11.4c-1.8,2.3-3.7,4.6-4.4,7.5c-0.5-0.7-0.2-1.5-0.3-2.2
		c-0.2-1.4,0.4-2.9-0.3-4.3c-0.1-3.2-0.2-6.5-0.2-9.7c0-1.2-0.4-1.5-1.5-1.5c-3.8,0.1-7.6,0-11.4,0c-0.6,0.7-0.3,1.5-0.3,2.2
		c0,10.7,0,21.3,0,32c0,22.9,0,45.9,0,68.8c0,1.5,0.4,2.1,2,2.1c3.4-0.1,6.9-0.1,10.4,0c1.6,0.1,1.9-0.6,1.9-2c0-21.3,0-42.7,0-64
		c-0.1,0.2-0.1,0.4-0.2,0.6c0-0.2,0.1-0.4,0.2-0.6c0.1-5.2,1.8-9.9,4.3-14.4c4-7.1,9.7-12.1,17.6-14.3c4.6-1.3,9.2-1.2,13.8,0
		c4.4,1.1,8.3,3.5,10.7,7.5c2,3.3,3.1,6.9,3.5,10.7c0,0.7-0.2,1.4,0.3,2c0,1,0.1,2,0.1,3.1c0,10.5,0,21.1,0,31.6
		c0,13.1,0,26.2,0,39.3c0.4,0.6,1,0.4,1.6,0.4c3.6,0,7.3,0,10.9,0c1.3,0,1.7-0.4,1.7-1.7c0-20.8,0-41.6,0-62.4
		c-0.1,0.2-0.1,0.3-0.2,0.5c0-0.2,0.1-0.3,0.2-0.5c-0.2-3.9,0.7-7.5,2-11.1c4.4-13,15.3-21.3,28.8-20.2c0.6,0.5,1.3,0.2,1.9,0.3
		c-0.1-0.1-0.2-0.1-0.3-0.1c0.1,0,0.2,0.1,0.3,0.1c3.6,0.4,7,1.6,9.8,3.9c4.9,4,6.8,9.5,7.4,15.6c0.1,0.8-0.3,1.6,0.3,2.4
		c0,7.7,0.1,15.4,0.1,23.2c0,16.5,0,33.1,0,49.6c0.5,0.7,1.3,0.4,1.9,0.4c3.3,0,6.6-0.1,10,0.1c1.9,0.1,2.3-0.5,2.3-2.3
		c-0.1-23.5,0-46.9,0-70.4C722.6,334.5,722.8,333.8,722.3,333.2z M579.7,405.5c0-0.1,0-0.1,0-0.2c0-5.1,0-10.1,0-15.2
		C579.7,395.3,579.7,400.4,579.7,405.5z M582.1,407.8c-0.3,0-0.6,0-0.8,0c0.1,0,0.1,0,0.2,0c0.4,0,0.7,0,1.1,0
		C582.4,407.8,582.2,407.8,582.1,407.8z M590.9,407.8c-0.3,0-0.5,0-0.8,0c0.4,0,0.8,0,1.1,0c0.3,0,0.6,0,0.8,0
		C591.7,407.8,591.4,407.8,590.9,407.8z M593.1,319.7c0,0.2,0,0.4,0,0.6C593.1,320.1,593.1,319.9,593.1,319.7z M647.3,407.7
		c1.6,0,3.2,0,4.8,0C650.5,407.8,648.9,407.8,647.3,407.7z M657.9,406.9c0,0.5-0.2,0.9-0.8,0.9c-0.1,0-0.1,0-0.2,0
		c0.7-0.1,0.9-0.3,1-1.1C657.9,406.7,657.9,406.8,657.9,406.9z M711.5,407.7c1.6,0,3.3,0,4.9,0C714.8,407.8,713.1,407.8,711.5,407.7
		z M721.4,407.7c-0.1,0-0.2,0-0.2,0c0.5,0,0.8-0.1,0.9-0.2C722,407.7,721.8,407.7,721.4,407.7z"/>
	<path d="M592.9,218.3c3.7-0.3,7.2-1,10.6-2.4c4.6-1.9,8.8-4.5,12.2-8.3c2-2.2,3.4-4.8,4.9-7.3c0-0.4,0.2-0.5,0.5-0.7
		c0,0.3,0.1,0.7,0.1,1c0.1,1.1,0,2.2,0.2,3.2c0.6,3.2,0.9,6.4,1.1,9.7c0.1,1.5,0.4,2.5,2.4,2.5c7.1-0.1,14.2-0.1,21.3,0
		c2.1,0,2.3-0.6,2.3-2.5c0-48.9,0-97.7,0-146.6c0-0.8,0-1.5,0-2.3c-1,0-1.9-0.1-2.9-0.1c-8.1,0-16.1,0-24.2,0
		c-1.7,0-2.2,0.3-2.2,2.1c0.1,17.9,0,35.8,0,53.7c0,0.6,0,1.2,0,1.9c-0.6-0.2-0.6-0.5-0.7-0.9c-1.9-3.2-4.2-6.1-7.3-8.4
		c-5.7-4.2-12.3-6-19.2-6.7c-1.7-0.5-3.3-0.5-5,0c-0.9,0-1.8,0.1-2.7,0.1c-0.1,0.1-0.3,0.1-0.4,0.2c0.1,0,0.3-0.1,0.4-0.2
		c-0.7,0.1-1.4-0.2-2,0.3c-4.9,0.8-9.8,1.9-14.3,4.2c-5.2,2.6-9.7,6.1-13.6,10.5c-4,4.5-7,9.6-9.3,15.1c-2.5,5.8-3.9,11.9-4.4,18.3
		c-0.5,0.6-0.2,1.3-0.2,2c0.1-0.1,0.1-0.3,0.1-0.4c0,0.1-0.1,0.3-0.1,0.4c0,3.4,0,6.8,0,10.2c0.1,0.2,0.2,0.4,0.2,0.6
		c0-0.2-0.1-0.4-0.2-0.6c0.1,0.8-0.2,1.6,0.3,2.3c0.1,1.1,0,2.3,0.3,3.4c0.7,3.2,1.2,6.4,2.2,9.6c1.2,4.3,3,8.3,5.1,12.3
		c2.4,4.6,5.7,8.4,9.3,12c2.8,2.7,5.9,5,9.2,6.8c6,3.2,12.5,4.9,19.3,5.2C588.6,218.8,590.8,218.7,592.9,218.3z M573.4,176.8
		c-4.1-11.4-3.8-22.7,2.4-33.4c5.2-8.9,14.7-12.7,25.2-10.7c9.6,1.8,17,9.4,18.9,19.1c0.6,3.2,0.5,6.5,0.5,10.7
		c0.3,5.3-0.5,11.4-3.5,17c-4.6,8.6-12,12.7-21.6,12.5C584.7,191.8,577,186.9,573.4,176.8z"/>
	<path d="M619.2,119.2c0-17.3,0-34.6,0-51.9c0-3.1,0-3.1,3.2-3.1c8,0,16.1,0,24.1,0c0.7,0,1.4-0.3,2,0.3c-0.6-0.8-1.4-0.5-2.1-0.5
		c-8.4,0-16.7,0-25.1-0.1c-1.8,0-2.4,0.5-2.4,2.3c0.1,17.5,0,35.1,0,52.6c0,0.7,0.3,1.5-0.3,2.2
		C619.8,120.8,619.2,119.8,619.2,119.2z"/>
	<path d="M620.7,200.2c0.2,0.1,0.4,0.2,0.6,0.4C621.1,200.3,621.1,199.8,620.7,200.2z"/>
	<path d="M388.2,106.1c-1.7-0.4-3.3-0.5-5,0C384.9,105.9,386.5,106,388.2,106.1z"/>
	<path d="M774.2,167.5c0-0.1,0.1-0.3,0.1-0.4c0-3.4,0-6.8,0-10.3c-0.1-0.2-0.2-0.4-0.2-0.6c-0.1-0.6-0.1-1.1-0.1-1.7
		c-0.5-2.8-0.9-5.6-1.6-8.3c-3.3-13.1-10.4-23.6-21.5-31.4c-8.3-5.8-17.7-8.5-27.6-9.5c-3.1,0-6.1,0-9.2,0c-2.1,0.3-4.1,0.5-6.2,0.9
		c-10.9,1.7-20.4,6.5-28.4,14.1c-4.4,4.2-8,9.2-10.6,14.7c-2.9,6-4.9,12.4-5.5,19.1c-0.5,0.6-0.2,1.3-0.3,1.9
		c0.1-0.1,0.1-0.3,0.2-0.4c0,0.1-0.1,0.3-0.2,0.4c0,0.9-0.1,1.8-0.1,2.7c-0.5,2-0.5,4.1,0,6.1v0c0,1,0.1,2,0.1,3
		c0,0.7-0.2,1.4,0.3,2c0.2,1.2,0.3,2.3,0.5,3.5c1.2,6.8,3.5,13.2,7,19.1c5,8.6,11.9,15.3,20.7,19.9c7.1,3.7,14.6,5.7,22.5,6.2
		c3.1,0.5,6.1,0.5,9.2,0c2.8-0.2,5.5-0.6,8.2-1.2c15.8-3.4,27.7-12.2,35.6-26.3c3.8-6.8,5.8-14.3,6.9-22
		C774,168.6,774,168,774.2,167.5z M740.4,181c-5.4,8.7-13.5,12.1-23.4,11.5c-9.5-0.6-16.5-5.1-20.7-13.6
		c-5.7-11.6-5.3-23.4,0.6-34.8c4.7-9.1,12.7-13.2,22.8-12.9c10.4,0.3,17.7,5.6,22.1,14.8c2.4,5,3.5,10.5,3.5,16.5
		C745.2,169.1,743.9,175.4,740.4,181z"/>
	<path d="M723.3,105.4c-3.1-0.5-6.1-0.5-9.2,0C717.2,105.2,720.3,105.2,723.3,105.4z"/>
	<path d="M774.2,156.3c0,0.2,0.1,0.4,0.2,0.6c-0.1-0.8,0.3-1.6-0.3-2.3C774.3,155.1,774.1,155.7,774.2,156.3z"/>
	<path d="M774.3,167.1c-0.1,0.1-0.1,0.3-0.1,0.4c-0.1,0.5,0.1,1-0.1,1.5C774.6,168.5,774.3,167.8,774.3,167.1z"/>
	<path d="M301.9,217.1c0.6,0.5,1.3,0.2,2,0.3c-0.1-0.1-0.3-0.1-0.4-0.2c0.2,0,0.3,0.1,0.4,0.2c2,0,4,0,6.1,0
		c0.1-0.1,0.3-0.1,0.4-0.2c-0.1,0-0.3,0.1-0.4,0.2c0.6-0.1,1.4,0.2,1.9-0.3c1.2-0.2,2.3-0.3,3.5-0.5c0.1-0.2,0.3-0.3,0.3-0.5
		c0-6.6,0-13.1,0.1-19.7c0-0.4,0-1-0.7-0.6c-4.2,0.8-7.7-1.9-7.7-4.8c0-13.9,0-27.8,0-41.7c0-0.6,0.2-1.2-0.3-1.6
		c0-1.3-0.1-2.5-0.1-3.8c-0.1-0.2-0.2-0.3-0.2-0.5c0,0.2,0.1,0.3,0.2,0.5c-0.1-0.6,0.2-1.3-0.3-1.9c-0.3-1.5-0.6-3.1-0.9-4.6
		c-2.4-11.7-8.5-20.8-19.3-26.4c-4.8-2.5-10-3.7-15.3-4.7c-0.5,0-1,0-1.5-0.1c-0.1,0-0.3-0.1-0.4-0.2c-0.8,0-1.5-0.1-2.3-0.1
		c-2.7-0.5-5.3-0.5-8,0c-0.9,0-1.8,0.1-2.7,0.1c-0.1,0.1-0.3,0.1-0.4,0.2c0.1,0,0.3-0.1,0.4-0.2c-0.7,0-1.4-0.2-2,0.3
		c-4.1,0.6-8.1,1.4-12,2.8c-6.9,2.4-12.6,6.4-17,12.2c-3.9,5.2-6.1,11.1-6.7,17.6c-0.4,2.3-0.7,4.6,0.2,6.9c0,0,0,0,0,0c0,0,0,0,0,0
		c8.1,0,16.3,0,24.4,0c1.2,0,1.8-0.2,1.7-1.5c0.5-0.6,0.2-1.3,0.3-1.9c-0.1,0.1-0.1,0.2-0.1,0.3c0-0.1,0.1-0.2,0.1-0.3
		c0.4-4.9,2.9-8.6,7.1-11c3.8-2.2,7.9-2.5,12.4-2.1c9.1,0.9,14.1,7.3,14.3,15.4c0.4,4.4,0.1,8.8,0.2,13.3c0,0.1-0.2,0.3-0.3,0.4
		c0,0-0.2-0.1-0.3-0.2c-5.3-3.8-11.3-5.3-17.7-6.2c-0.7-0.5-1.6-0.2-2.4-0.3c0.2,0.1,0.4,0.1,0.6,0.2c-0.2,0-0.4-0.1-0.6-0.2
		c-2.1,0-4.3,0-6.4,0c-0.2,0.1-0.5,0.2-0.7,0.2c0.2,0,0.5-0.1,0.7-0.2c-0.9,0.1-1.9-0.3-2.7,0.3c-5.1,0.6-10,1.6-14.7,3.6
		c-5.3,2.2-9.9,5.5-13.4,10.1c-3.3,4.4-5.3,9.2-5.7,14.7c0,0,0,0,0,0c0,0,0,0,0,0c-0.5,2.7-0.5,5.3,0,8c0.3,1.2,0.3,2.3,0.5,3.5
		c2,9.9,7.7,17.1,16.4,21.7c5.3,2.9,11.2,4.2,17.3,4.4c1.5,0.5,3,0.5,4.6,0c1.4-0.2,2.7-0.3,4.1-0.5c9.9-1.7,17.6-6.3,22-15.7
		c0.2-0.5,0.2-1.3,1-1.4c0.4,3.9,2.1,7.1,4.8,9.7C290.6,214.3,295.9,216.4,301.9,217.1z M278.5,184.6c-2.1,5.7-7.1,8.4-12.7,10.1
		c-2.4,0.7-4.9,1-6.5,1c-3.9-0.1-6.9-0.5-9.7-1.6c-4.3-1.6-7.1-4.5-7.4-9.3c-0.3-4.6,1.5-8.2,5.3-10.8c3.7-2.5,7.9-3.3,12.2-3.3
		c5.3,0,10.5,0.8,15.1,3.5C280.8,177.7,281.1,177.7,278.5,184.6z"/>
	<path d="M279.1,157.5c-0.1-4.3,0.2-8.6-0.2-12.9c0,3.8,0,7.7,0,11.5c0,0.7,0.3,1.4-0.4,2C278.9,158.1,279.1,157.8,279.1,157.5z"/>
	<path d="M271.2,106.1c-0.6-0.5-1.3-0.2-1.9-0.3c0.1,0.1,0.3,0.1,0.4,0.2C270.2,106.1,270.7,105.9,271.2,106.1z"/>
	<path d="M543.1,353c-6.6-17.8-13.1-35.7-19.7-53.5c-4.1-11.2-8.3-22.4-12.4-33.6c-0.3-0.8-0.4-1.4-1.5-1.4c-6.3,0-12.5,0-18.8,0
		c-0.4,0-0.7,0-0.9,0.6c-1.9,5.4-3.8,10.8-5.8,16.1c-2.2,5.9-4.3,11.7-6.5,17.6c-1.9,5-3.9,9.9-5.6,15c-2.6,7.5-5.4,14.9-8.1,22.4
		c-1.7,4.7-3.3,9.3-5.1,14c-2.1,5.7-4.3,11.5-6.5,17.2c-2.1,5.8-4.1,11.6-6.2,17.4c-2.8,7.6-5.6,15.1-8.4,22.6
		c0.1,0.1,0.2,0.3,0.3,0.3c5,0,10,0.3,15.1-0.1c1.8-5.1,3.5-10.3,5.4-15.4c2.4-6.6,4.8-13.3,7.2-19.9c0.5-0.5,1.1-0.3,1.6-0.3
		c22.1,0,44.2,0,66.3,0c0.5,0,1.2-0.3,1.6,0.3c0.7,2,1.5,3.9,2.2,5.9c2.8,7.8,5.6,15.6,8.5,23.4c0.8,2.1,1.1,4.3,2.4,6.2
		c4.4,0,8.8,0,13.2,0c0.6,0,1.4,0.5,1.8-0.5c-0.2-0.5-0.5-1-0.7-1.5C556,388.1,549.6,370.6,543.1,353z M528.5,359
		c-18.7,0-37.3,0-56,0c-2.2,0-2.2,0-1.5-2c9.6-26.9,19.2-53.7,28.8-80.6c0.1-0.4,0.3-0.7,0.6-1.4c2.7,7.4,5.2,14.4,7.7,21.4
		c7.3,20.2,14.5,40.4,21.8,60.6C530.6,359,530.6,359,528.5,359z"/>
	<path d="M533.3,372.1c-22,0-44.1,0-66.1,0c-0.6,0-1.2-0.1-1.7,0.2c23.2,0,46.3,0,69.5,0C534.5,371.9,533.9,372.1,533.3,372.1z"/>
	<path d="M372.4,398.7c0-1.1-0.3-1.4-1.4-1.4c-4.6,0.1-7.4-3.7-7.4-7.7c-0.1-17.2,0-34.4,0-51.7c-0.2-0.6-0.2-1.2-0.2-1.8
		c0.1,0.6,0.1,1.2,0.2,1.8c-0.1-1.1,0.3-2.2-0.3-3.2v0c-0.4-2.4-0.7-4.9-1.3-7.3c-2.6-10.6-8.4-18.6-18.5-23.3
		c-3.8-1.7-7.8-2.5-11.8-3.3c-0.6-0.5-1.3-0.2-1.9-0.3c0.1,0.1,0.3,0.1,0.4,0.2c-0.1,0-0.3-0.1-0.4-0.2c-0.9,0-1.8-0.1-2.7-0.1
		c-1.8,0-3.6,0-5.3,0c-5.5,0.4-10.9,1.2-16,3.2c-6.7,2.6-12,7-15.7,13c-3,4.8-4.7,10.3-4.8,16.1c0,0,0,0,0,0c0,0,0,0,0,0
		c-0.4,1-0.6,2.1,0.1,3c4.3,0,8.7,0,13,0c0.7-0.6,0.3-1.3,0.4-2c-0.1,0.3-0.1,0.6-0.2,0.9c0-0.3,0-0.6,0.2-0.9
		c-0.1-2.5,0.7-4.8,1.6-7.1c3.3-8.3,10.5-13,18.7-13.9c0.7-0.1,1.4,0.2,2-0.3c1.9-0.2,3.9-0.2,5.8,0c0.6,0,1.3,0,1.9,0.1
		c-0.6-0.1-1.3,0.1-1.9-0.1c0.7,0.6,1.5,0.2,2.3,0.3c12.7,1.6,19.2,9.7,20.3,21.4c0,0.7-0.3,1.4,0.3,2c0.3,5.9,0.1,11.7,0.1,17.6
		c0,0.9,0.4,2.1-0.2,2.5c-0.9,0.5-1.4-0.8-2.1-1.3c-6.8-4.9-14.5-7.4-22.7-8.6c-0.6,0-1.2,0-1.8-0.1c-0.2,0-0.4-0.1-0.6-0.2
		c-1.3,0-2.7,0-4,0c-0.9,0.4-1.9,0-2.8,0.3c-6.2,0.7-12.1,2.1-17.6,5.1c-9,4.9-14.9,12.1-16.2,22.6c-0.3,0.7,0.1,1.6-0.3,2.3
		c0,1.4,0,2.7,0,4.1c0.4,0.8,0,1.6,0.3,2.4c0.1,2.5,0.9,4.9,1.7,7.3c2,5.7,5.8,10,10.8,13.4c5.5,3.7,11.7,5.4,18.3,5.9
		c2.7,0.2,5.3,0.1,8,0c5.2-0.6,10.2-2,14.9-4.5c6.3-3.3,11.2-8,14.3-14.4c0.4,0,0.4,0,0.6,1.1c0,0.4,0.1,0.8,0.1,1.1
		c0.7,6.5,3.7,11.4,9.8,14.2c3.2,1.5,6.7,1.5,10.1,1.5c0.6-0.5,1.4,0.2,1.9-0.5C372.4,405.1,372.4,401.9,372.4,398.7z M350,371.2
		c-1.4,13.2-10.3,22.8-23.7,25.6c-2.8,0.6-5.7,0.9-8.1,0.9c-4.9,0-9.1-0.8-13.2-2.7c-11.6-5.5-13.5-22.5-3.2-30.9
		c5.9-4.8,12.7-6.6,20.1-6.5c10,0.1,19,2.9,26.5,9.6C349.7,368.4,350.2,369.5,350,371.2z"/>
	<path d="M327.2,300.5c-1.8-0.5-3.6-0.5-5.3,0C323.6,300.4,325.4,300.3,327.2,300.5z"/>
	<path d="M324.9,346.5c-0.8-0.5-1.6-0.2-2.4-0.2c0.2,0.1,0.4,0.1,0.6,0.2C323.7,346.5,324.3,346.3,324.9,346.5z"/>
</g>
</svg>
