<?xml version="1.0" encoding="utf-8"?>
<!-- Generator: Adobe Illustrator 25.2.3, SVG Export Plug-In . SVG Version: 6.00 Build 0)  -->
<svg version="1.1" id="Capa_1" xmlns="http://www.w3.org/2000/svg" xmlns:xlink="http://www.w3.org/1999/xlink" x="0px" y="0px"
	 viewBox="0 0 850.4 358.5" style="enable-background:new 0 0 850.4 358.5;" xml:space="preserve">
<style type="text/css">
	.st0{fill:#706F6F;}
</style>
<g>
	<path d="M789.8,163c-21.3,0-42.2,0-63.4,0c0-8.4,0-16.2,0-24.9c18.5,0,36.7,0,54.8,0c0-8,0-15.1,0-22.8c-18.4,0-36.5,0-54.7,0
		c0-8.2,0-15.9,0-24.1c21.1,0,41.7,0,62.5,0c0-7.7,0-14.8,0-22.1c-29.6,0-58.9,0-88.3,0c0,39,0,77.6,0,116.4c29.9,0,59.4,0,89.1,0
		C789.8,178,789.8,170.7,789.8,163z"/>
	<path d="M414.4,167.2c-5.4-5.2-10.8-10.5-16.2-15.7c-25,16.6-41.4,17-55.5,1.2c-12.1-13.6-12.1-36.9-0.1-50.6
		c13.7-15.7,30.1-15.4,55.6,1.2c5.3-6,10.6-12.1,15.8-18.2c-14.2-17.2-45.1-23.6-69-14.5c-24.4,9.3-39.3,32.5-38.5,59.8
		c0.8,25.6,17.9,47.8,42.5,55.2C373.1,192.7,402.1,184.5,414.4,167.2z"/>
	<path d="M310.1,292c5.5,0,10.7,0,16.5,0c0-9.7,0-19.2,0-29.3c12.5,0,24.3,0,36.1,0c0-5.2,0-9.8,0-15.1c-12.2,0-24.1,0-36.3,0
		c0.5-5.8-0.6-11,0.8-16.4c13.5,0,26.7,0,40.1,0c0-5.2,0-9.8,0-14.5c-19.3,0-38.1,0-57.2,0C310.1,241.9,310.1,266.9,310.1,292z"/>
	<path d="M684.7,277c0-20.7,0-40.4,0-60.7c-5.8,0.3-11-0.5-16.3,0.5c0,25.2,0,50.1,0,75.1c18.2,0,36.1,0,54.2,0
		c0.3-5.1,0.7-9.8-0.3-14.9C709.9,277,697.7,277,684.7,277z"/>
	<path d="M789.8,276.8c-12.4,0-24.6,0-37.4,0c0-20.4,0-40.2,0-60.2c-5.8,0-10.9,0-16.3,0c0,25.3,0,50.3,0,75.2c18.3,0,36.1,0,54.2,0
		C790.2,286.7,791,282,789.8,276.8z"/>
	<path d="M488.1,66.6c-35.9,0-62.8,26-62.8,60.8c0,34.5,26.5,60.4,61.8,60.5c35.9,0.1,63-25.9,63.1-60.6
		C550.3,92.6,523.7,66.7,488.1,66.6z M487.8,164.3c-20-0.1-35.7-16.7-35.5-37.7c0.1-20.5,15.7-36.5,35.5-36.4
		c20.1,0.1,35.8,16.7,35.6,37.6C523.1,148.4,507.5,164.4,487.8,164.3z"/>
	<path d="M636.4,71.2c-21.3-5.4-43.1-1.3-65-2.8c0,39.4,0,78,0,117.5c14.1,0,27.7,0,41.4,0c6.3,0,12.6-0.1,18.8-1.3
		c27.1-5.1,46.6-27.1,47.7-54.4C680.6,101.5,664,78.2,636.4,71.2z M652.2,132.9c-2.6,17.2-14.8,28.7-31.7,29.4
		c-7.6,0.4-15.2,0.1-23.3,0.1c0-23.7,0-46.7,0-70.5c11.5,0.6,22.8-1.7,33.7,2.4C646.2,100.2,654.9,115.9,652.2,132.9z"/>
	<path d="M418.8,214.8c-22.9-0.1-41.1,17.6-41,39.8c0.1,22,17.6,38.9,40.5,38.9c23.1,0,40.7-17,40.7-39.3
		C458.9,232.1,441.3,214.9,418.8,214.8z M418.7,278c-13.5,0.1-23.4-10.1-23.3-24.1c0.1-13.3,10-23.6,22.8-23.6
		c12.9,0,23,10.6,23,24.1C441.2,268,431.8,277.9,418.7,278z"/>
	<path d="M523.5,263.5c9.6-5.4,14.4-14.9,12.7-25.5c-1.9-11.7-8.4-19.3-19.8-20.8c-14.3-1.9-28.7-0.5-43.4-0.8c0,25.6,0,50.6,0,75.6
		c5.5,0,10.7,0,16.6,0c0-8.1,0-15.9,0-23.9c4.8,0,8.9,0,13.2,0c5.4,8.1,10.9,16.2,16.1,23.9c6.6,0,12.6,0,19.5,0
		c-6.3-9.2-12.1-17.9-18.1-26.7C521.6,264.5,522.5,264,523.5,263.5z M508.2,253.1c-6,0.4-12.1,0.1-18.5,0.1c0-7.4,0-14.3,0-21.9
		c6.5,0,12.4-0.3,18.3,0.1c7.5,0.5,11.3,4.5,11.2,11C519.1,248.6,515.3,252.6,508.2,253.1z"/>
	<path d="M608.1,215.7c-10.9,25.5-21.6,50.7-32.5,76.3c6,0,11.4,0,17,0c2.3-5.5,4.6-10.9,6.9-16.4c10.9,0,21.6,0,32.4,0
		c2.3,5.6,4.6,11,6.8,16.3c5.8,0,11.3,0,17.5,0c-11-25.8-21.8-51-32.5-76.2C618.4,215.7,613.6,215.7,608.1,215.7z M605.8,259.9
		c3.3-8,6.3-15.4,9.9-24c3.5,8.6,6.6,16,9.9,24C618.8,259.9,612.7,259.9,605.8,259.9z"/>
</g>
<g>
	<path d="M237.1,114.4c-18.6-19.3-41.7-29.2-68.5-29.2c-25.3-0.1-47.5,8.8-65.8,26.3c-19.5,18.7-29.4,41.8-29.5,68.8
		c-0.1,25.4,8.9,47.6,26.6,66c18.7,19.4,41.7,28.9,68.4,29.4c26.2-0.4,48.8-9.4,67.3-27.8c18.7-18.5,28.1-41.3,28.1-67.5
		C263.7,155,254.7,132.7,237.1,114.4z M168.4,271.9c-50.6-0.1-91.5-41.1-91.5-91.8c0.1-50.6,41.1-91.5,91.8-91.4
		c50.4,0.1,91.4,41.1,91.4,91.6C260,231,219,272,168.4,271.9z"/>
	<path d="M168.5,67.7c-62.3,0-112.6,50.2-112.7,112.6c0,62.3,50.2,112.6,112.6,112.7c62.3,0,112.5-50.2,112.7-112.6
		C281,118.1,230.9,67.8,168.5,67.7z M168.1,285.1C110.7,284.9,63.6,238,63.7,180c0.2-57.4,47-104.5,104.7-104.3
		c57.7-0.2,104.8,47,104.7,104.8C273.1,238.1,226.1,285.2,168.1,285.1z"/>
	<path d="M187.1,173c-1.5-1.1-3.3-1-4.9-1.4c-4.9-1.2-3.8-0.1-4.9-4.8c-0.3-1.4-0.3-2.9-1.2-4.2c-0.1-0.2-0.2-0.3-0.2-0.5
		c-1.3-6.2-2.6-12.3-3.8-18.5c-1.2-5.6-2.3-11.3-3.6-17.2c-0.2,0.6-0.3,0.9-0.4,1.3c-1.4,6.6-2.7,13.2-4.1,19.8
		c-1.1,5-2.1,10.1-3.2,15.1c-0.5,0.4-0.5,1-0.6,1.6c-0.3,1.7-0.8,3.5-1.1,5.2c-0.2,1-0.7,1.5-1.7,1.7c-2,0.4-3.9,0.7-5.9,1.2
		c-0.5,0.1-1,0.2-1.4,0.7c-11.8,2.4-23.5,4.9-35.3,7.3c5.2,1.3,10.4,2.4,15.5,3.5c6.9,1.4,13.7,2.9,20.6,4.3
		c0.4,0.4,0.9,0.5,1.4,0.6c1.7,0.3,3.3,0.7,5,1c1.1,0.2,1.7,0.7,1.9,1.9c0.3,1.9,0.7,3.9,1.2,5.8c0.1,0.5,0.2,1,0.7,1.4
		c1.8,8.5,3.5,17,5.3,25.6c0.7,3.3,1.4,6.5,2.1,10.1c0.2-0.6,0.3-0.9,0.4-1.2c1.6-7.9,3.3-15.8,4.9-23.7c0.8-3.7,1.6-7.3,2.4-11
		c0.5-0.4,0.5-1,0.6-1.6c0.3-1.7,0.8-3.4,1-5.1c0.2-1.4,0.9-2,2.2-2.2c1.6-0.2,3.1-0.6,4.7-0.9c0.6-0.1,1.1-0.2,1.6-0.7
		c7.6-1.6,15.2-3.2,22.8-4.8c4.4-0.9,8.7-1.8,13.1-2.7c-3.3-0.9-6.5-1.6-9.8-2.2C204,176.5,195.5,174.7,187.1,173z"/>
	<path d="M107.1,183.6c-1.9,0-3.8,0-5.7,0c-0.5,0-0.9,0-1-0.7c0-0.8,0.4-0.8,1-0.8c1.2,0,2.5,0,3.7,0c2.3,0,2.3,0,2.3-2.3
		c0-0.9-0.2-1.2-1.2-1.2c-1.6,0.1-3.3,0-4.9,0c-0.6,0-0.9-0.1-0.9-0.8c0-0.7,0.4-0.7,1-0.7c1.2,0,2.5,0,3.7,0c3,0,2.9,0,2.9-3
		c0-0.7-0.2-1-1-1c-3.5,0-7,0-10.4,0c-0.8,0-1,0.3-1,1c0,2.1,0,4.2,0,6.3c0,2,0.1,4,0,6c0,1,0.2,1.3,1.2,1.3c2.8-0.1,5.6,0,8.4,0
		c3,0,3,0,2.9-3C108.1,183.8,107.8,183.6,107.1,183.6z"/>
	<path d="M168.8,119.6c2.6,0.1,4.8-0.9,6.3-3.1c0.4-0.5,0.5-0.9-0.2-1.2c-0.8-0.4-1.5-0.8-2.2-1.2c-0.7-0.5-1.1-0.5-1.7,0.3
		c-1,1.2-2.7,1.3-3.8,0.3c-1.1-1-1.3-2.8-0.6-4.2c0.8-1.6,2.8-2.1,4-0.8c0.9,1,1.6,0.8,2.5,0.2c0.4-0.3,0.8-0.6,1.3-0.7
		c1.3-0.5,1.1-1.1,0.3-1.9c-2.2-2.6-6.2-3.3-9.4-1.7c-3.1,1.5-4.6,5-3.9,8.5C162.3,117.3,165.2,119.6,168.8,119.6z"/>
	<path d="M169.8,240.3c-2.6-0.5-5.2-0.2-7.7-0.3c-0.8,0-0.7,0.5-0.7,1c0,2.1,0,4.2,0,6.3c0,2.1,0,4.2,0,6.3c0,0.5,0,1,0.8,0.9
		c2.4-0.1,4.8,0.1,7.2-0.3c3.7-0.6,6.1-3.2,6.2-6.8C175.7,243.6,173.7,241.2,169.8,240.3z M168.5,250.1c-2,0.6-2.3,0.4-2.3-1.7
		c0-0.4,0-0.8,0-1.2c0-0.3,0-0.6,0-0.9c0-2.2,0.2-2.4,2.3-1.8c1.3,0.3,2.1,1.4,2.1,2.7C170.7,248.6,170,249.7,168.5,250.1z"/>
	<path d="M236.1,172.8c-4.4,0.1-7.8,3.4-7.8,7.6c0,4.2,3.5,7.5,7.9,7.5c4.5,0,7.9-3.4,7.9-7.7C244,176,240.5,172.7,236.1,172.8z
		 M236.2,183.6c-1.7,0-3.1-1.5-3.1-3.4c0-1.8,1.5-3.3,3.1-3.2c1.7,0.1,3,1.6,3,3.4C239.1,182.2,237.8,183.6,236.2,183.6z"/>
</g>
<g>
	<path class="st0" d="M176.1,162.6c0.5,2.6,1,5.2,1.5,7.8c0.1,0.6,0.5,0.7,1,0.8c2.8,0.6,5.6,1.2,8.4,1.8c-0.4-0.6,0.1-1,0.3-1.4
		c2.9-5.9,5.9-11.9,8.8-17.8c0.2-0.3,0.5-0.6,0.4-1.3C189.7,155.8,182.9,159.2,176.1,162.6z"/>
	<path class="st0" d="M150.1,172.9c2.5-0.5,5-1,7.5-1.6c0.6-0.1,1.5,0,1.6-1c0.5-2.6,1-5.2,1.6-7.8c-6.8-3.4-13.6-6.7-20.7-10.2
		c0.3,0.6,0.4,1,0.6,1.3c2.9,5.9,5.9,11.9,8.8,17.8C149.8,171.9,150.1,172.4,150.1,172.9z"/>
	<path class="st0" d="M186.2,188c-2.4,0.5-4.9,0.9-7.3,1.4c-0.5,0.1-1.1,0.1-1.3,0.9c-0.5,2.7-1.1,5.4-1.6,8.1
		c6.6,3.3,13.2,6.6,20.2,10.1c-3.3-6.6-6.3-12.8-9.4-19C186.6,189,186.3,188.5,186.2,188z"/>
	<path class="st0" d="M157.8,189.4c-2.3-0.4-4.6-0.9-6.9-1.3c-3.3,6.6-6.6,13.2-9.9,19.9c0.7,0.1,1.1-0.2,1.5-0.4
		c5.7-2.8,11.4-5.6,17.1-8.4c0.5-0.2,0.9-0.6,1.5-0.4c-0.5-2.5-1.1-5-1.5-7.5C159.3,190.1,158.9,189.6,157.8,189.4z"/>
	<path class="st0" d="M168.5,75.7c-57.8,0-104.7,46.9-104.7,104.7s46.9,104.7,104.7,104.7c57.8,0,104.7-46.9,104.7-104.7
		S226.3,75.7,168.5,75.7z M168.6,275.5c-52.5,0-95.1-42.5-95.1-95c0-52.5,42.6-95,95.1-95s95.1,42.5,95.1,95
		C263.7,232.9,221.1,275.5,168.6,275.5z"/>
</g>
</svg>
