<svg xmlns="http://www.w3.org/2000/svg" xml:space="preserve" id="Capa_1" x="0" y="0" style="enable-background:new 0 0 850.4 705.5" version="1.1" viewBox="0 0 850.4 705.5"><style>.st2,.st4{opacity:.8;enable-background:new}.st4{opacity:.7}</style><path d="M286.3 705.5c-.2-.3-.4-.6-.5-.9.2-.3.4-.3.6-.1.5.2.4.6.4 1h-.5z" style="fill:#a3b4bc"/><path d="M552.2 342c-4.1 0-8.3.1-12.4.1-2.2 0-2.2 0-2.6 2.1-1.2 6-2.4 11.9-3.6 17.9-.2.8-.4 1.6-.1 2.4 3.2.4 6.4-.2 9.7.3-.3 3.3-1.2 6.4-1.9 9.6-1.3 6.7-2.8 13.3-4.2 20-.8 3.6-2.2 7-4.1 10.2-1.8 3.1-4.5 4.5-8.1 4.4-2.3-.1-3.9-1.1-4.9-3.1-1.3-2.7-1.4-5.5-.8-8.4 3.4-15.7 6.7-31.4 10-47 4.3-19.9 8.5-39.8 12.8-59.7.6-3 1.7-5.9 3.6-8.3 1.2-1.6 2.6-3 4.7-3.3 1.3 1 1.3 2.5 1.5 3.9 1.3 8.4 2.3 16.9 2.6 25.5.1 1.8-.2 3.5-.5 5.3 0 1-.1 2-.4 2.9-.2.7-.2 1.2.4 1.7-.3 3-.3 6-.5 9-.1 4.8-.6 9.6-1.2 14.5z"/><path d="M544.9 255.4c0 .4-.2.4-.5.4.1-.2.2-.4.5-.4z" style="fill:#0badd6"/><path d="M179.2 281.8c-2.1-.6-4.2-.7-6.4-.9-2-.2-2-.1-2.5 1.9-1.8 8.1-3.5 16.3-5.3 24.4-5.7 26.4-11.4 52.9-17.1 79.3-1.2 5.8-2.5 11.6-3.8 17.7 2.9.1 5.4-.1 7.8-.5 4.1-.7 7-2.9 9.2-6.3 1.6-2.4 2.7-5 3.8-7.7 2-5.3 3.6-10.7 4.8-16.2 4.6-20.1 8.8-40.3 12.8-60.5 1.4-6.8 2.5-13.8 2.3-20.8 0-1.7-.2-3.4-.6-5.1-.6-2.8-2.2-4.6-5-5.3z" class="st2"/><path d="M447.9 130c-42.4-27.4-89-41.2-139.3-43-10.4-.4-20.8 0-31.2.8-10.2.8-20.4 2.2-30.4 4.1-25.1 4.9-49.2 13-72 24.6-31.9 16.3-59.5 38.1-81.8 66.2-27.4 34.4-43.3 73.4-46.7 117.4.2 2.5-.1 5.1-.5 7.6v14.5c.3 3.1.7 6.1.5 9.2.5 5.4.9 10.9 1.6 16.3 2 17.3 5.7 34.3 10.7 51 9.6 31.9 24.1 61.6 42 89.6 19.2 30 41.8 57.2 66.9 82.3 18.6 18.7 38.5 36.1 59.4 52.2 13.9 10.7 28 20.9 43 30.1.2 0 .5-.1.7-.1-1.2-2.4-2.5-4.8-3.7-7.2-9-17.5-17.4-35.4-23.5-54.2-2.8-8.6-5.1-17.4-5.4-26.5-.1-3.4.1-6.8 1.3-10.1 1.6-4.5 4.6-7.4 9.4-8.3 2.9-.6 5.9-.4 8.8-.1 4.5.5 8.9 1.2 13.4 1.3 19.9.5 39.6-.3 59.3-3.6 17.6-2.9 34.9-7.2 51.8-13.1-.1-1.6-1.5-2.2-2.4-3-10-8.5-19.2-17.8-27.6-27.9-17.2-20.7-30.6-43.6-39.6-69-.4-1.1-.6-2.3-1.8-2.9-3.2-.8-6.4.4-9.6.4-1.6 0-2-.4-1.9-2 .8-9.5 1.4-19.1 2.3-28.7.3-3.6-.4-4.4-3.9-4.4h-17.8c-3.9 0-4.1.2-5.4 3.9-3.3 9.4-6.5 18.8-9.6 28.3-.8 2.4-2 3.5-4.6 3.4-5.6-.2-11.1 0-16.7-.1-3.2 0-3.3-.3-2.3-3.2 9.7-26.7 19.4-53.4 29.1-80.2 10.5-28.9 21.1-57.8 31.4-86.8.8-2.1 2-3 4.2-2.9 1.8.1 3.6.1 5.4 0 6.5-.1 13.1.3 19.6-.2 1.6-.6 2.2-2 3.1-3.3 14.2-21.7 31.7-40.3 51.7-56.6 23.8-19.3 50.1-34.4 78.9-45.1 2.4-.9 5.1-1.2 7-3.3-7.6-6.2-15.5-12-23.8-17.4zM187 406c-6.4 12.1-16.6 19-29.8 21.7-8.7 1.8-17.4 2.1-26.2 2.1h-15.1c-2.2 0-2.3-.1-1.8-2.3 2.4-11 4.7-22.1 7.1-33.1 5.9-27.3 11.7-54.6 17.6-82 3.9-18.3 7.9-36.6 11.8-54.9.4-2 .5-2 2.7-2 6.8 0 13.6-.1 20.5 0 6.5.1 12.9.6 19.2 2.4 10.9 3.2 17.2 10.6 18 21.9.7 9.2.8 18.4.7 27.7 0 6.7-1.9 13.1-3.4 19.5-4.8 20.3-9.6 40.6-14.5 60.9-1.7 6.3-3.8 12.4-6.8 18.1zm73.2-131.2c-5.1 24.2-10.3 48.4-15.4 72.6l-15.9 74.4c-.4 2-.9 4-1.3 6-.2.9-.6 1.2-1.4 1.3-.4 0-.9.1-1.3.1-7.2.2-14.4.4-21.5.6-.4 0-.9.1-1.5-.4.7-3.5 1.5-7.2 2.2-10.8 6.6-30.8 13.2-61.7 19.7-92.5 4.8-22.5 9.6-45 14.4-67.6.6-2.9 1.2-2.4 3-2.4 6.9-.2 13.8-.4 20.7-.5.7 0 1.4-.2 2.4.3-1.5 6.3-2.8 12.6-4.1 18.9zm90.2-53.8c-6.4 5.9-12.8 11.8-19.1 17.7-1.1 1-2.2 1.6-3.8 1.5-4.6-.1-9.1 0-13.7 0-.7 0-1.4.2-2.1-.3 0-.9.7-1.4 1.1-2 4.5-5.8 9.1-11.5 13.6-17.4 1-1.4 2.1-1.9 3.8-1.8 6.6.1 13.3 0 19.9 0 .7 0 1.4.1 2.7.1-1.1 1-1.7 1.6-2.4 2.2z" class="st2"/><path d="M307.3 309.8c0-.1.1-.1.1-.2.2-.7.6-1.5-.3-1.8s-1 .6-1.2 1.1c-.5 1.2-.9 2.3-1.3 3.5-6.1 17.5-12.2 35-18.2 52.6-.2.6-.6 1.1-.3 2h14.2c.5-.9.4-1.9.3-2.9-.2-5.7.4-11.3.7-16.9.6-12.7 3.6-25 6-37.4z" class="st2"/><path d="M306.8 316.4c-.1-1.3-.4-2.6.4-3.9.1 1.3.2 2.6-.4 3.9z" style="fill:#546979"/><path d="M639 278.6c-3.2-.2-5.7 1.2-7.7 3.6-2.2 2.6-3.2 5.8-3.9 9-6.8 32.1-13.7 64.1-20.5 96.2-.7 3.3-1.7 6.6-1.8 10-.1 2 .3 3.9 1.1 5.8 1.2 2.7 3.1 3.8 6 3.5 3.3-.4 5.7-2.1 7.3-4.9 1.6-2.9 2.8-6 3.5-9.3 2.2-10.7 4.5-21.4 6.8-32.1 4.9-22.9 9.8-45.9 14.6-68.8.6-3.1.8-6.2-.3-9.3-.9-2.5-2.6-3.6-5.1-3.7z" class="st4"/><path d="M807.2 368.5v-20c-.2-2.7-.3-5.4-.5-8-1.1-13.6-3.3-27-6.3-40.3-7.2-31.2-19.1-60.6-34.7-88.6-18.9-33.8-42.3-64.2-68.8-92.4-15.2-16.1-31.2-31.2-48.1-45.5-19.9-16.8-40.6-32.5-62.6-46.5-.9-.6-1.9-1.2-3.1-1.9 0 1.3.6 2 1 2.8 5.7 10.6 11 21.4 15.8 32.4 5.4 12.3 10.3 24.8 13.4 38 1.6 6.9 2.8 13.9 1.9 21-.9 7.5-5 11.9-12.2 12.9-1.7.2-3.4.2-5.1 0-6.4-.7-12.8-1.5-19.3-1.6-14.5-.1-28.9.2-43.3 1.9-16 1.9-31.9 5.1-47.4 9.6-5.4 1.6-10.9 3-16.1 5.3-.5 1.2.6 1.6 1.2 2.1 4.4 3.8 8.8 7.7 12.9 11.8 9.5 9.4 18.2 19.5 26 30.4 7.3 10.1 13.7 20.8 19.2 32 4.6 9.3 8.5 19 11.7 28.9.4 1.2.7 2.7 2.2 3.1.6.1 1.3 0 1.9-.1 5.1-1.3 10.3-1.6 15.5-1.1 7.3.7 13.6 3.5 17.6 9.9 3.9 6.3 5.3 13.3 4.4 20.6-1 8.6-3.3 16.9-5 25.3-1.4 6.5-1.4 6.6-8.2 6.6h-14.3c-1.4 0-2.9 0-3.7 1.5-.3.8-.3 1.6-.3 2.4-.3 5.4-.6 10.8-1.1 16.2-.1 1.6-.8 3.2 0 4.7 1 1.1 2.3.8 3.5.9h14c3.1 0 3.3.2 2.7 3.2l-15.9 75.3c-1.9 9.1-.1 7.6-9.4 7.8h-.3c-6-.1-6.2.7-6.9-5.4 0-.2-.1-.4-.1-.5-.3-1.6-1.2-1.8-2.5-1-.4.3-.9.6-1.3.9-5.4 4.5-11.4 7.4-18.5 7.8-1.9.7-2.8 2.5-3.9 4-12.7 17.6-27.7 33.1-44.6 46.8-25.3 20.6-53.3 36.4-84 47.4-1 .3-2.2.5-2.4 1.8l1.7 1.7c19.2 15.6 40.2 28.2 63.1 37.7 35.6 14.9 72.7 21.8 111.2 21.2 15.8-.3 31.5-1.7 47.1-4.7 32.4-6.1 62.8-17.5 90.9-34.7 33.5-20.5 61-47.1 81.2-80.9 17.5-29.2 27.8-60.7 29.6-94.8v-3.7c.2-1.3.2-2.7.2-4.2zm-159 25.1c-3.2 13.1-9.7 24-20.9 31.9-6.3 4.5-13.4 6.2-21.4 6-3 .1-6.3-.1-9.5-1-8.4-2.3-13.5-7.8-15.9-16-2.2-7.2-1.9-14.5-.3-21.8 7.1-33.4 14.3-66.8 21.3-100.2 2.6-12.2 8.4-22.4 17.9-30.5 5.9-5.1 12.8-7.7 20.6-8.3 4.7-.4 9.3-.2 13.9 1.2 8.2 2.5 13.3 8 15.7 16.3 2.1 7.3 1.8 14.5.2 21.8-5.6 26-11.1 52.1-16.6 78.1-1.7 7.5-3.2 15-5 22.5zm106.5-105.7c-.3 3.4-.8 6.8-1.4 10.1-.2 1.2-.7 1.9-2.1 2-7.5.6-15 1.3-22.5 2-1.3.1-1.3-.6-1.1-1.5.9-4.7 1.6-9.4 1.5-14.1-.1-2.1-.5-4.1-1.4-6-1.5-3.1-4.1-4.1-7.4-3.1-2.9.9-4.9 3-6.3 5.6-4 7.5-5.6 15.4-3.5 23.9 1.3 5.3 3.6 10.3 5.8 15.3 3.3 7.4 6.9 14.8 10.3 22.2 2.6 5.9 4.9 11.9 6.6 18.2 2.8 10.3 2.9 20.5-.2 30.8-1.9 6.4-4.1 12.6-7.5 18.4-7.8 13.2-19.4 19.7-34.6 20-4.1.1-8.2-.1-12.3-1-10.2-2.3-16-8.7-18.1-18.7-1.1-5.3-.8-10.5-.3-15.8.4-4.4 1.3-8.7 2-13 .3-2 .4-2.1 2.5-2.3 7.2-.7 14.5-1.4 21.7-2h1.9c-1 4.6-1.8 8.9-2.3 13.3-.4 3.5-.1 7 .9 10.4 1.6 5.4 6.1 7.3 11.2 5 2.7-1.3 4.6-3.5 6-6 5-9.1 6.7-18.7 3-28.7-2.3-6.2-4.8-12.4-7.6-18.4-3.9-8.3-8-16.6-11.2-25.3-2.7-7.4-4.5-15.1-4.5-22.9 0-17.5 6.1-32.7 19.7-44.2 7.5-6.4 16.5-8.8 26.3-8.3 3.4.2 6.8.6 10 1.8 7 2.5 11.5 7.5 13.4 14.6 1.7 5.7 1.9 11.7 1.5 17.7z" class="st4"/><path d="M553.4 302.2c.3 3.8.4 7.7.6 11.5.1-.1.3-.3.3-.4 1.6-7.7 3.3-15.3 4.9-23 .4-2 .4-4.1 0-6.1-.9-4.8-4-6.6-8.8-5.1.4 2.4.8 4.8 1.2 7.1.8 5.3 1.4 10.7 1.8 16z" class="st4"/><path d="M301.8 335.2c-.8 6.2-1.7 12.4-1.5 18.6 0 .8-.2 1.6-.3 2.4-.3 3.6-.6 7.1.2 10.7 2.7.2 2.7.2 3-2.5.1-1 .2-2 .2-2.9.7-8.5 1.4-17.1 2-25.6.5-6.5.9-13 1.4-19.5.4-1.3-.1-2.6.4-3.9 0-.9.1-1.8.1-2.7-.3.2-.4.5-.5.9-2.1 8.1-4 16.2-5 24.5zM469.7 278.5c-3.1-.2-5.6 1.1-7.5 3.4-2.2 2.6-3.3 5.7-4 9-6.8 31.9-13.6 63.7-20.4 95.6-.8 3.6-1.8 7.1-1.9 10.8 0 2 .2 3.9 1.1 5.8 1.3 2.7 3.3 3.9 6.3 3.5 3.3-.4 5.6-2.2 7.2-5.1s2.7-6 3.4-9.3c2.9-13.8 5.8-27.7 8.8-41.5l12.6-59.1c.7-3.1.9-6.2-.2-9.3-1.1-2.6-2.6-3.7-5.4-3.8z"/><path d="M544.1 253.5c-5.2-15.9-11.9-31.1-20.5-45.4-8.6-14.3-18.6-27.6-30-39.8-4.7-5.1-9.8-9.7-14.7-14.5-2.2-2.1-4.7-3.8-6.8-6.1h-.4c-8.8 3.2-17.5 6.7-26.1 10.6-8.2 3.7-16.1 7.8-23.8 12.3-10.1 5.8-19.8 12.2-29 19.3-8 6.1-15.9 12.4-23 19.6-5.3 5.3-10.8 10.5-15.7 16.2-3.3 3.8-6.4 7.7-9.6 11.6-4.6 5.8-8.7 12-12.9 18.1.7.9 1.4 1.8 1.4 3.1-.1 2.1 0 4.1-.2 6.2-.8 10.5-1.4 21.1-2 31.6-.4 6.8-.8 13.6-1.3 20.4-.5 7.4-.9 14.8-1.4 22.2-.4 7-.8 13.9-1.3 20.9-.7 10-1.3 20-1.9 30s-1.3 20-1.8 30c-.4 7.4-.6 7.3-8 7.7-1.4.1-2.9-.1-3.9 1.3.1.3.1.7.2 1 2.5 7.1 5.3 14 8.5 20.9 3.9 8.7 8.6 16.9 13.6 25 7.5 12.1 16.2 23.3 25.9 33.8 7.1 7.7 14.7 14.9 22.8 21.6.1.1.2.1.4.1 2.5-1.5 5.3-2.1 8-3.2 18.1-7 35.4-15.6 51.7-26 13.4-8.5 26-18 37.8-28.8 10.5-9.6 20.3-19.9 29.1-31.2l7.8-10.2c-2.1-.3-4.3-.3-6.4-.6-9.8-1.5-15.1-8.8-16.7-16.4-1.4-6.6-.8-13.2.6-19.7 6.5-30.1 12.9-60.2 19.4-90.3 1.3-6 2.4-12.1 4.1-18.1 2.9-9.5 8.3-17.4 15.7-24 3.2-2.9 6.9-5 11-6.7l.4-.4c-.5-.8-.8-1.4-1-2.1zM395.9 422.3c-.4 1.9-.9 3.8-1.2 5.8-.2 1.4-.9 1.7-2.2 1.7-1.3-.1-2.7 0-4 0h-51.1c-2.4 0-2.5 0-2-2.4l4.5-21c5.5-25.9 11-51.7 16.4-77.6 5-23.8 10.1-47.7 15.1-71.5.3-1.2.6-1.8 2-1.9 7.4-.1 14.7-.3 22.1-.5.5 0 1.1 0 1.9.1-1.1 5.1-2.1 10-3.1 14.8-5.7 26.5-11.3 53.1-17 79.6-3.8 18.1-7.7 36.1-11.5 54.2-.1.4-.2.9-.3 1.3-.1.6.1 1 .8 1.1h29.9c1 0 2-.3 3 .4-1.1 5.2-2.2 10.6-3.3 15.9zm104.7-130.2c-7.2 33.7-14.2 67.5-21.6 101.2-2.9 13.4-9.8 24.5-21.3 32.5-4.1 2.9-8.7 4.6-13.7 5.3-5.6.8-11.3.9-16.8-.6-8.5-2.3-13.6-7.8-16-16.2-2.1-7.1-1.9-14.2-.3-21.3 7.2-33.5 14.3-67.1 21.5-100.6 2.1-9.7 6.2-18.4 13.1-25.8 8.4-8.9 16.2-12.6 28.9-13.1 3.7.1 7.9.4 11.9 1.9 7.2 2.8 11.7 8 13.8 15.4 2.1 7.1 2 14.1.5 21.3z"/></svg>