<?xml version="1.0" encoding="utf-8"?>
<!-- Generator: Adobe Illustrator 25.3.1, SVG Export Plug-In . SVG Version: 6.00 Build 0)  -->
<svg version="1.1" id="Capa_1" xmlns="http://www.w3.org/2000/svg" xmlns:xlink="http://www.w3.org/1999/xlink" x="0px" y="0px"
	 viewBox="0 0 850.4 705.5" style="enable-background:new 0 0 850.4 705.5;" xml:space="preserve">
<style type="text/css">
	.st0{fill:#A3B4BC;}
	.st1{fill:#0BADD6;}
	.st2{opacity:0.8;enable-background:new    ;}
	.st3{fill:#546979;}
	.st4{opacity:0.7;enable-background:new    ;}
</style>
<path class="st0" d="M286.3,705.5c-0.2-0.3-0.4-0.6-0.5-0.9c0.2-0.3,0.4-0.3,0.6-0.1c0.5,0.2,0.4,0.6,0.4,1
	C286.6,705.5,286.4,705.5,286.3,705.5z"/>
<path d="M552.2,342c-4.1,0-8.3,0.1-12.4,0.1c-2.2,0-2.2,0-2.6,2.1c-1.2,6-2.4,11.9-3.6,17.9c-0.2,0.8-0.4,1.6-0.1,2.4
	c3.2,0.4,6.4-0.2,9.7,0.3c-0.3,3.3-1.2,6.4-1.9,9.6c-1.3,6.7-2.8,13.3-4.2,20c-0.8,3.6-2.2,7-4.1,10.2c-1.8,3.1-4.5,4.5-8.1,4.4
	c-2.3-0.1-3.9-1.1-4.9-3.1c-1.3-2.7-1.4-5.5-0.8-8.4c3.4-15.7,6.7-31.4,10-47c4.3-19.9,8.5-39.8,12.8-59.7c0.6-3,1.7-5.9,3.6-8.3
	c1.2-1.6,2.6-3,4.7-3.3c1.3,1,1.3,2.5,1.5,3.9c1.3,8.4,2.3,16.9,2.6,25.5c0.1,1.8-0.2,3.5-0.5,5.3c0,1-0.1,2-0.4,2.9
	c-0.2,0.7-0.2,1.2,0.4,1.7c-0.3,3-0.3,6-0.5,9C553.3,332.3,552.8,337.1,552.2,342z"/>
<path class="st1" d="M544.9,255.4c0,0.4-0.2,0.4-0.5,0.4C544.5,255.6,544.6,255.4,544.9,255.4z"/>
<g>
	<path class="st2" d="M179.2,281.8c-2.1-0.6-4.2-0.7-6.4-0.9c-2-0.2-2-0.1-2.5,1.9c-1.8,8.1-3.5,16.3-5.3,24.4
		c-5.7,26.4-11.4,52.9-17.1,79.3c-1.2,5.8-2.5,11.6-3.8,17.7c2.9,0.1,5.4-0.1,7.8-0.5c4.1-0.7,7-2.9,9.2-6.3c1.6-2.4,2.7-5,3.8-7.7
		c2-5.3,3.6-10.7,4.8-16.2c4.6-20.1,8.8-40.3,12.8-60.5c1.4-6.8,2.5-13.8,2.3-20.8c0-1.7-0.2-3.4-0.6-5.1
		C183.6,284.3,182,282.5,179.2,281.8z"/>
	<path class="st2" d="M447.9,130c-42.4-27.4-89-41.2-139.3-43c-10.4-0.4-20.8,0-31.2,0.8C267.2,88.6,257,90,247,91.9
		c-25.1,4.9-49.2,13-72,24.6c-31.9,16.3-59.5,38.1-81.8,66.2c-27.4,34.4-43.3,73.4-46.7,117.4c0.2,2.5-0.1,5.1-0.5,7.6
		c0,0.9,0,1.8,0,2.7c0,3,0,6.1,0,9.1c0,0.9,0,1.8,0,2.7c0.3,3.1,0.7,6.1,0.5,9.2c0.5,5.4,0.9,10.9,1.6,16.3c2,17.3,5.7,34.3,10.7,51
		c9.6,31.9,24.1,61.6,42,89.6c19.2,30,41.8,57.2,66.9,82.3c18.6,18.7,38.5,36.1,59.4,52.2c13.9,10.7,28,20.9,43,30.1
		c0.2,0,0.5-0.1,0.7-0.1c-1.2-2.4-2.5-4.8-3.7-7.2c-9-17.5-17.4-35.4-23.5-54.2c-2.8-8.6-5.1-17.4-5.4-26.5
		c-0.1-3.4,0.1-6.8,1.3-10.1c1.6-4.5,4.6-7.4,9.4-8.3c2.9-0.6,5.9-0.4,8.8-0.1c4.5,0.5,8.9,1.2,13.4,1.3c19.9,0.5,39.6-0.3,59.3-3.6
		c17.6-2.9,34.9-7.2,51.8-13.1c-0.1-1.6-1.5-2.2-2.4-3c-10-8.5-19.2-17.8-27.6-27.9c-17.2-20.7-30.6-43.6-39.6-69
		c-0.4-1.1-0.6-2.3-1.8-2.9c-3.2-0.8-6.4,0.4-9.6,0.4c-1.6,0-2-0.4-1.9-2c0.8-9.5,1.4-19.1,2.3-28.7c0.3-3.6-0.4-4.4-3.9-4.4
		c-5.9,0-11.8,0-17.8,0c-3.9,0-4.1,0.2-5.4,3.9c-3.3,9.4-6.5,18.8-9.6,28.3c-0.8,2.4-2,3.5-4.6,3.4c-5.6-0.2-11.1,0-16.7-0.1
		c-3.2,0-3.3-0.3-2.3-3.2c9.7-26.7,19.4-53.4,29.1-80.2c10.5-28.9,21.1-57.8,31.4-86.8c0.8-2.1,2-3,4.2-2.9c1.8,0.1,3.6,0.1,5.4,0
		c6.5-0.1,13.1,0.3,19.6-0.2c1.6-0.6,2.2-2,3.1-3.3c14.2-21.7,31.7-40.3,51.7-56.6c23.8-19.3,50.1-34.4,78.9-45.1
		c2.4-0.9,5.1-1.2,7-3.3C464.1,141.2,456.2,135.4,447.9,130z M187,406c-6.4,12.1-16.6,19-29.8,21.7c-8.7,1.8-17.4,2.1-26.2,2.1
		c-5,0-10.1,0-15.1,0c-2.2,0-2.3-0.1-1.8-2.3c2.4-11,4.7-22.1,7.1-33.1c5.9-27.3,11.7-54.6,17.6-82c3.9-18.3,7.9-36.6,11.8-54.9
		c0.4-2,0.5-2,2.7-2c6.8,0,13.6-0.1,20.5,0c6.5,0.1,12.9,0.6,19.2,2.4c10.9,3.2,17.2,10.6,18,21.9c0.7,9.2,0.8,18.4,0.7,27.7
		c0,6.7-1.9,13.1-3.4,19.5c-4.8,20.3-9.6,40.6-14.5,60.9C192.1,394.2,190,400.3,187,406z M260.2,274.8
		c-5.1,24.2-10.3,48.4-15.4,72.6c-5.3,24.8-10.6,49.6-15.9,74.4c-0.4,2-0.9,4-1.3,6c-0.2,0.9-0.6,1.2-1.4,1.3
		c-0.4,0-0.9,0.1-1.3,0.1c-7.2,0.2-14.4,0.4-21.5,0.6c-0.4,0-0.9,0.1-1.5-0.4c0.7-3.5,1.5-7.2,2.2-10.8
		c6.6-30.8,13.2-61.7,19.7-92.5c4.8-22.5,9.6-45,14.4-67.6c0.6-2.9,1.2-2.4,3-2.4c6.9-0.2,13.8-0.4,20.7-0.5c0.7,0,1.4-0.2,2.4,0.3
		C262.8,262.2,261.5,268.5,260.2,274.8z M350.4,221c-6.4,5.9-12.8,11.8-19.1,17.7c-1.1,1-2.2,1.6-3.8,1.5c-4.6-0.1-9.1,0-13.7,0
		c-0.7,0-1.4,0.2-2.1-0.3c0-0.9,0.7-1.4,1.1-2c4.5-5.8,9.1-11.5,13.6-17.4c1-1.4,2.1-1.9,3.8-1.8c6.6,0.1,13.3,0,19.9,0
		c0.7,0,1.4,0.1,2.7,0.1C351.7,219.8,351.1,220.4,350.4,221z"/>
	<path class="st2" d="M307.3,309.8c0-0.1,0.1-0.1,0.1-0.2c0.2-0.7,0.6-1.5-0.3-1.8s-1,0.6-1.2,1.1c-0.5,1.2-0.9,2.3-1.3,3.5
		c-6.1,17.5-12.2,35-18.2,52.6c-0.2,0.6-0.6,1.1-0.3,2c4.7,0,9.4,0,14.2,0c0.5-0.9,0.4-1.9,0.3-2.9c-0.2-5.7,0.4-11.3,0.7-16.9
		C301.9,334.5,304.9,322.2,307.3,309.8z"/>
</g>
<path class="st3" d="M306.8,316.4c-0.1-1.3-0.4-2.6,0.4-3.9C307.3,313.8,307.4,315.1,306.8,316.4z"/>
<g>
	<path class="st4" d="M639,278.6c-3.2-0.2-5.7,1.2-7.7,3.6c-2.2,2.6-3.2,5.8-3.9,9c-6.8,32.1-13.7,64.1-20.5,96.2
		c-0.7,3.3-1.7,6.6-1.8,10c-0.1,2,0.3,3.9,1.1,5.8c1.2,2.7,3.1,3.8,6,3.5c3.3-0.4,5.7-2.1,7.3-4.9c1.6-2.9,2.8-6,3.5-9.3
		c2.2-10.7,4.5-21.4,6.8-32.1c4.9-22.9,9.8-45.9,14.6-68.8c0.6-3.1,0.8-6.2-0.3-9.3C643.2,279.8,641.5,278.7,639,278.6z"/>
	<path class="st4" d="M807.2,368.5c0-3.3,0-6.5,0-9.8c0-1.4,0-2.9,0-4.3c0-1.1,0-2.1,0-3.2c0-0.9,0-1.8,0-2.7
		c-0.2-2.7-0.3-5.4-0.5-8c-1.1-13.6-3.3-27-6.3-40.3c-7.2-31.2-19.1-60.6-34.7-88.6c-18.9-33.8-42.3-64.2-68.8-92.4
		c-15.2-16.1-31.2-31.2-48.1-45.5c-19.9-16.8-40.6-32.5-62.6-46.5c-0.9-0.6-1.9-1.2-3.1-1.9c0,1.3,0.6,2,1,2.8
		c5.7,10.6,11,21.4,15.8,32.4c5.4,12.3,10.3,24.8,13.4,38c1.6,6.9,2.8,13.9,1.9,21c-0.9,7.5-5,11.9-12.2,12.9
		c-1.7,0.2-3.4,0.2-5.1,0c-6.4-0.7-12.8-1.5-19.3-1.6c-14.5-0.1-28.9,0.2-43.3,1.9c-16,1.9-31.9,5.1-47.4,9.6
		c-5.4,1.6-10.9,3-16.1,5.3c-0.5,1.2,0.6,1.6,1.2,2.1c4.4,3.8,8.8,7.7,12.9,11.8c9.5,9.4,18.2,19.5,26,30.4
		c7.3,10.1,13.7,20.8,19.2,32c4.6,9.3,8.5,19,11.7,28.9c0.4,1.2,0.7,2.7,2.2,3.1c0.6,0.1,1.3,0,1.9-0.1c5.1-1.3,10.3-1.6,15.5-1.1
		c7.3,0.7,13.6,3.5,17.6,9.9c3.9,6.3,5.3,13.3,4.4,20.6c-1,8.6-3.3,16.9-5,25.3c-1.4,6.5-1.4,6.6-8.2,6.6c-4.8,0-9.5,0-14.3,0
		c-1.4,0-2.9,0-3.7,1.5c-0.3,0.8-0.3,1.6-0.3,2.4c-0.3,5.4-0.6,10.8-1.1,16.2c-0.1,1.6-0.8,3.2,0,4.7c1,1.1,2.3,0.8,3.5,0.9
		c4.7,0,9.3,0,14,0c3.1,0,3.3,0.2,2.7,3.2c-5.3,25.1-10.6,50.2-15.9,75.3c-1.9,9.1-0.1,7.6-9.4,7.8c0,0-0.1,0-0.3,0
		c-6-0.1-6.2,0.7-6.9-5.4c0-0.2-0.1-0.4-0.1-0.5c-0.3-1.6-1.2-1.8-2.5-1c-0.4,0.3-0.9,0.6-1.3,0.9c-5.4,4.5-11.4,7.4-18.5,7.8
		c-1.9,0.7-2.8,2.5-3.9,4c-12.7,17.6-27.7,33.1-44.6,46.8c-25.3,20.6-53.3,36.4-84,47.4c-1,0.3-2.2,0.5-2.4,1.8
		c0.6,0.6,1.1,1.1,1.7,1.7c19.2,15.6,40.2,28.2,63.1,37.7c35.6,14.9,72.7,21.8,111.2,21.2c15.8-0.3,31.5-1.7,47.1-4.7
		c32.4-6.1,62.8-17.5,90.9-34.7c33.5-20.5,61-47.1,81.2-80.9c17.5-29.2,27.8-60.7,29.6-94.8c0-1.2,0-2.5,0-3.7
		C807.2,371.4,807.2,370,807.2,368.5z M648.2,393.6c-3.2,13.1-9.7,24-20.9,31.9c-6.3,4.5-13.4,6.2-21.4,6c-3,0.1-6.3-0.1-9.5-1
		c-8.4-2.3-13.5-7.8-15.9-16c-2.2-7.2-1.9-14.5-0.3-21.8c7.1-33.4,14.3-66.8,21.3-100.2c2.6-12.2,8.4-22.4,17.9-30.5
		c5.9-5.1,12.8-7.7,20.6-8.3c4.7-0.4,9.3-0.2,13.9,1.2c8.2,2.5,13.3,8,15.7,16.3c2.1,7.3,1.8,14.5,0.2,21.8
		c-5.6,26-11.1,52.1-16.6,78.1C651.5,378.6,650,386.1,648.2,393.6z M754.7,287.9c-0.3,3.4-0.8,6.8-1.4,10.1c-0.2,1.2-0.7,1.9-2.1,2
		c-7.5,0.6-15,1.3-22.5,2c-1.3,0.1-1.3-0.6-1.1-1.5c0.9-4.7,1.6-9.4,1.5-14.1c-0.1-2.1-0.5-4.1-1.4-6c-1.5-3.1-4.1-4.1-7.4-3.1
		c-2.9,0.9-4.9,3-6.3,5.6c-4,7.5-5.6,15.4-3.5,23.9c1.3,5.3,3.6,10.3,5.8,15.3c3.3,7.4,6.9,14.8,10.3,22.2
		c2.6,5.9,4.9,11.9,6.6,18.2c2.8,10.3,2.9,20.5-0.2,30.8c-1.9,6.4-4.1,12.6-7.5,18.4c-7.8,13.2-19.4,19.7-34.6,20
		c-4.1,0.1-8.2-0.1-12.3-1c-10.2-2.3-16-8.7-18.1-18.7c-1.1-5.3-0.8-10.5-0.3-15.8c0.4-4.4,1.3-8.7,2-13c0.3-2,0.4-2.1,2.5-2.3
		c7.2-0.7,14.5-1.4,21.7-2c0.5,0,1.1,0,1.9,0c-1,4.6-1.8,8.9-2.3,13.3c-0.4,3.5-0.1,7,0.9,10.4c1.6,5.4,6.1,7.3,11.2,5
		c2.7-1.3,4.6-3.5,6-6c5-9.1,6.7-18.7,3-28.7c-2.3-6.2-4.8-12.4-7.6-18.4c-3.9-8.3-8-16.6-11.2-25.3c-2.7-7.4-4.5-15.1-4.5-22.9
		c0-17.5,6.1-32.7,19.7-44.2c7.5-6.4,16.5-8.8,26.3-8.3c3.4,0.2,6.8,0.6,10,1.8c7,2.5,11.5,7.5,13.4,14.6
		C754.9,275.9,755.1,281.9,754.7,287.9z"/>
	<path class="st4" d="M553.4,302.2c0.3,3.8,0.4,7.7,0.6,11.5c0.1-0.1,0.3-0.3,0.3-0.4c1.6-7.7,3.3-15.3,4.9-23c0.4-2,0.4-4.1,0-6.1
		c-0.9-4.8-4-6.6-8.8-5.1c0.4,2.4,0.8,4.8,1.2,7.1C552.4,291.5,553,296.9,553.4,302.2z"/>
</g>
<g>
	<path d="M301.8,335.2c-0.8,6.2-1.7,12.4-1.5,18.6c0,0.8-0.2,1.6-0.3,2.4c-0.3,3.6-0.6,7.1,0.2,10.7c2.7,0.2,2.7,0.2,3-2.5
		c0.1-1,0.2-2,0.2-2.9c0.7-8.5,1.4-17.1,2-25.6c0.5-6.5,0.9-13,1.4-19.5c0.4-1.3-0.1-2.6,0.4-3.9c0-0.9,0.1-1.8,0.1-2.7
		c-0.3,0.2-0.4,0.5-0.5,0.9C304.7,318.8,302.8,326.9,301.8,335.2z"/>
	<path d="M469.7,278.5c-3.1-0.2-5.6,1.1-7.5,3.4c-2.2,2.6-3.3,5.7-4,9c-6.8,31.9-13.6,63.7-20.4,95.6c-0.8,3.6-1.8,7.1-1.9,10.8
		c0,2,0.2,3.9,1.1,5.8c1.3,2.7,3.3,3.9,6.3,3.5c3.3-0.4,5.6-2.2,7.2-5.1s2.7-6,3.4-9.3c2.9-13.8,5.8-27.7,8.8-41.5
		c4.2-19.7,8.4-39.4,12.6-59.1c0.7-3.1,0.9-6.2-0.2-9.3C474,279.7,472.5,278.6,469.7,278.5z"/>
	<path d="M544.1,253.5c-5.2-15.9-11.9-31.1-20.5-45.4c-8.6-14.3-18.6-27.6-30-39.8c-4.7-5.1-9.8-9.7-14.7-14.5
		c-2.2-2.1-4.7-3.8-6.8-6.1c-0.1,0-0.3,0-0.4,0c-8.8,3.2-17.5,6.7-26.1,10.6c-8.2,3.7-16.1,7.8-23.8,12.3
		c-10.1,5.8-19.8,12.2-29,19.3c-8,6.1-15.9,12.4-23,19.6c-5.3,5.3-10.8,10.5-15.7,16.2c-3.3,3.8-6.4,7.7-9.6,11.6
		c-4.6,5.8-8.7,12-12.9,18.1c0.7,0.9,1.4,1.8,1.4,3.1c-0.1,2.1,0,4.1-0.2,6.2c-0.8,10.5-1.4,21.1-2,31.6c-0.4,6.8-0.8,13.6-1.3,20.4
		c-0.5,7.4-0.9,14.8-1.4,22.2c-0.4,7-0.8,13.9-1.3,20.9c-0.7,10-1.3,20-1.9,30s-1.3,20-1.8,30c-0.4,7.4-0.6,7.3-8,7.7
		c-1.4,0.1-2.9-0.1-3.9,1.3c0.1,0.3,0.1,0.7,0.2,1c2.5,7.1,5.3,14,8.5,20.9c3.9,8.7,8.6,16.9,13.6,25c7.5,12.1,16.2,23.3,25.9,33.8
		c7.1,7.7,14.7,14.9,22.8,21.6c0.1,0.1,0.2,0.1,0.4,0.1c2.5-1.5,5.3-2.1,8-3.2c18.1-7,35.4-15.6,51.7-26c13.4-8.5,26-18,37.8-28.8
		c10.5-9.6,20.3-19.9,29.1-31.2c2.6-3.4,5.2-6.8,7.8-10.2l0,0c-2.1-0.3-4.3-0.3-6.4-0.6c-9.8-1.5-15.1-8.8-16.7-16.4
		c-1.4-6.6-0.8-13.2,0.6-19.7c6.5-30.1,12.9-60.2,19.4-90.3c1.3-6,2.4-12.1,4.1-18.1c2.9-9.5,8.3-17.4,15.7-24c3.2-2.9,6.9-5,11-6.7
		c0.1-0.1,0.3-0.3,0.4-0.4C544.6,254.8,544.3,254.2,544.1,253.5z M395.9,422.3c-0.4,1.9-0.9,3.8-1.2,5.8c-0.2,1.4-0.9,1.7-2.2,1.7
		c-1.3-0.1-2.7,0-4,0c-16.5,0-33,0-49.5,0c-0.5,0-1.1,0-1.6,0c-2.4,0-2.5,0-2-2.4c1.5-7,3-14,4.5-21c5.5-25.9,11-51.7,16.4-77.6
		c5-23.8,10.1-47.7,15.1-71.5c0.3-1.2,0.6-1.8,2-1.9c7.4-0.1,14.7-0.3,22.1-0.5c0.5,0,1.1,0,1.9,0.1c-1.1,5.1-2.1,10-3.1,14.8
		c-5.7,26.5-11.3,53.1-17,79.6c-3.8,18.1-7.7,36.1-11.5,54.2c-0.1,0.4-0.2,0.9-0.3,1.3c-0.1,0.6,0.1,1,0.8,1.1c0.7,0,1.4,0,2.2,0
		c9.2,0,18.5,0,27.7,0c1,0,2-0.3,3,0.4C398.1,411.6,397,417,395.9,422.3z M500.6,292.1c-7.2,33.7-14.2,67.5-21.6,101.2
		c-2.9,13.4-9.8,24.5-21.3,32.5c-4.1,2.9-8.7,4.6-13.7,5.3c-5.6,0.8-11.3,0.9-16.8-0.6c-8.5-2.3-13.6-7.8-16-16.2
		c-2.1-7.1-1.9-14.2-0.3-21.3c7.2-33.5,14.3-67.1,21.5-100.6c2.1-9.7,6.2-18.4,13.1-25.8c8.4-8.9,16.2-12.6,28.9-13.1
		c3.7,0.1,7.9,0.4,11.9,1.9c7.2,2.8,11.7,8,13.8,15.4C502.2,277.9,502.1,284.9,500.6,292.1z"/>
</g>
</svg>
