<?xml version="1.0" encoding="utf-8"?>
<!-- Generator: Adobe Illustrator 25.2.3, SVG Export Plug-In . SVG Version: 6.00 Build 0)  -->
<svg version="1.1" id="Capa_1" xmlns="http://www.w3.org/2000/svg" xmlns:xlink="http://www.w3.org/1999/xlink" x="0px" y="0px"
	 viewBox="0 0 850.4 629.9" style="enable-background:new 0 0 850.4 629.9;" xml:space="preserve">
<g>
	<path d="M426.7,498.5c-0.8-0.6-1.8-0.9-2.9-0.9c-1.1,0-2,0.3-2.8,0.9c-0.8,0.6-1.4,1.4-1.7,2.5c-0.3,0.9-0.4,2.2-0.4,3.7
		c0,1.5,0.1,2.8,0.4,3.7c0.3,1.1,0.9,1.9,1.7,2.5c0.8,0.6,1.8,0.9,2.9,0.9c1.1,0,2-0.3,2.8-0.9c0.8-0.6,1.4-1.4,1.7-2.5
		c0.3-1,0.4-2.3,0.4-3.7c0-1.5-0.1-2.7-0.4-3.7C428,499.9,427.5,499.1,426.7,498.5z"/>
	<path d="M372.1,498.5c-0.8-0.6-1.8-0.9-2.9-0.9c-1.1,0-2,0.3-2.8,0.9c-0.8,0.6-1.4,1.4-1.7,2.5c-0.3,0.9-0.4,2.2-0.4,3.7
		c0,1.5,0.1,2.8,0.4,3.7c0.3,1.1,0.9,1.9,1.7,2.5c0.8,0.6,1.8,0.9,2.9,0.9c1.1,0,2-0.3,2.8-0.9c0.8-0.6,1.4-1.4,1.7-2.5
		c0.3-1,0.4-2.3,0.4-3.7c0-1.5-0.1-2.7-0.4-3.7C373.5,499.9,372.9,499.1,372.1,498.5z"/>
	<path d="M323.3,505.5h-3.7c-1.6,0-2.8,0.3-3.7,0.9c-0.9,0.6-1.4,1.5-1.4,2.5c0,1,0.3,1.7,1.1,2.2c0.7,0.5,1.6,0.8,2.8,0.8
		c1.4,0,2.6-0.4,3.7-1.1c1-0.7,1.5-1.7,1.5-2.8v-2.3C323.4,505.5,323.4,505.5,323.3,505.5z"/>
	<path d="M473.3,497.6c-1.5,0-2.6,0.7-3.4,2c-0.7,1.2-1,2.9-1,5.1c0,2.2,0.3,3.8,1,5c0.8,1.4,2,2.1,3.5,2.1c1.7,0,3-0.7,3.8-2.2
		c0.7-1.2,1-2.9,1-4.9c0-2.2-0.4-3.9-1.3-5.2C476.1,498.2,474.9,497.6,473.3,497.6z"/>
	<path d="M341.1,392c2.5-1.9,3.7-4.7,3.7-8.3s-1.2-6.4-3.7-8.3c-2.5-1.9-6.1-2.9-10.7-2.9H326v22.4h4.4
		C335.1,394.9,338.6,394,341.1,392z"/>
	<path d="M497.6,498.5c-0.8-0.6-1.8-0.9-2.9-0.9c-1.1,0-2.1,0.3-2.8,0.9c-0.7,0.6-1.2,1.3-1.5,2.3c-0.2,0.6-0.3,1.3-0.4,2.2
		c0,0.1,0.1,0.2,0.2,0.2h9.1c0.1,0,0.2-0.1,0.2-0.2c-0.1-0.9-0.1-1.5-0.2-1.9C498.9,499.9,498.3,499.1,497.6,498.5z"/>
	<path d="M270.6,498.5c-0.8-0.6-1.8-0.9-2.9-0.9c-1.1,0-2,0.3-2.8,0.9c-0.8,0.6-1.4,1.4-1.7,2.5c-0.3,0.9-0.4,2.2-0.4,3.7
		c0,1.5,0.1,2.8,0.4,3.7c0.3,1.1,0.9,1.9,1.7,2.5c0.8,0.6,1.8,0.9,2.9,0.9c1.1,0,2-0.3,2.8-0.9c0.8-0.6,1.4-1.4,1.7-2.5
		c0.3-1,0.4-2.3,0.4-3.7c0-1.5-0.1-2.7-0.4-3.7C272,499.9,271.4,499.1,270.6,498.5z"/>
	<path d="M239.3,498.5c-0.8-0.6-1.8-0.9-2.9-0.9c-1.1,0-2,0.3-2.8,0.9c-0.8,0.6-1.4,1.4-1.7,2.5c-0.3,0.9-0.4,2.2-0.4,3.7
		c0,1.5,0.1,2.8,0.4,3.7c0.3,1.1,0.9,1.9,1.7,2.5c0.8,0.6,1.8,0.9,2.9,0.9c1.1,0,2-0.3,2.8-0.9c0.8-0.6,1.4-1.4,1.7-2.5
		c0.3-1,0.4-2.3,0.4-3.7c0-1.5-0.1-2.7-0.4-3.7C240.6,499.9,240.1,499.1,239.3,498.5z"/>
	<path d="M175.7,498.5c-0.8-0.6-1.8-0.9-2.9-0.9c-1.1,0-2.1,0.3-2.8,0.9c-0.7,0.6-1.2,1.3-1.5,2.3c-0.2,0.6-0.3,1.3-0.4,2.2
		c0,0.1,0.1,0.2,0.2,0.2h9.1c0.1,0,0.2-0.1,0.2-0.2c-0.1-0.9-0.1-1.5-0.2-1.9C177,499.9,176.4,499.1,175.7,498.5z"/>
	<path d="M189.6,417.9c2.2-2.2,3.9-4.9,5.1-8c1.2-3.1,1.7-6.5,1.7-10.2c0-3.6-0.6-7-1.8-10.1c-1.2-3.1-2.9-5.8-5.1-8.1
		c-2.2-2.2-4.9-4-8.1-5.3c-3.2-1.3-6.8-1.9-10.8-1.9h-5.4v50.7h5.4c4.1,0,7.7-0.6,10.9-1.9C184.7,421.9,187.4,420.1,189.6,417.9z"/>
	<path d="M293.7,500.9c-0.2-1-0.7-1.8-1.4-2.4c-0.7-0.6-1.7-0.9-2.8-0.9c-1.1,0-2,0.3-2.8,0.9c-0.7,0.6-1.3,1.4-1.6,2.4
		c-0.3,0.8-0.4,2-0.4,3.7c0,1.8,0.1,3.1,0.4,3.7c0.3,1,0.8,1.8,1.6,2.4c0.8,0.6,1.7,0.9,2.8,0.9c1.2,0,2.1-0.3,2.8-0.9
		c0.7-0.6,1.2-1.4,1.4-2.4c0.1-0.4,0.1-0.9,0.2-1.3c0-0.5,0.1-1.3,0.1-2.4c0-1.1,0-1.9-0.1-2.4C293.9,501.8,293.8,501.3,293.7,500.9
		z"/>
	<path d="M335.8,271.2c0-7.5-4.3-11.3-13-11.3H315v22.6h7.8C331.5,282.5,335.8,278.7,335.8,271.2z"/>
	<path d="M487.4,261.9c-2.5-1.9-6.1-2.9-10.7-2.9h-4.4v22.4h4.4c4.6,0,8.2-1,10.7-2.9c2.5-1.9,3.7-4.7,3.7-8.3
		C491.1,266.6,489.9,263.8,487.4,261.9z"/>
	<path d="M566.4,497.6c-1.6,0-2.8,0.6-3.5,1.9c-0.8,1.3-1.3,3.1-1.3,5.2c0,2,0.3,3.7,1,4.9c0.8,1.5,2,2.2,3.8,2.2
		c1.5,0,2.7-0.7,3.5-2.1c0.6-1.1,0.9-2.8,0.9-5c0-2.2-0.3-3.9-1-5.1C569,498.2,567.9,497.6,566.4,497.6z"/>
	<path d="M549.2,505.5h-3.7c-1.6,0-2.8,0.3-3.7,0.9c-0.9,0.6-1.4,1.5-1.4,2.5c0,1,0.3,1.7,1.1,2.2c0.7,0.5,1.6,0.8,2.8,0.8
		c1.4,0,2.6-0.4,3.7-1.1c1-0.7,1.5-1.7,1.5-2.8v-2.3C549.3,505.5,549.3,505.5,549.2,505.5z"/>
	<path d="M383.8,130.9c-0.2-8.2-7.1-14.7-15.4-14.5l-52.3,1c-8.3,0.2-15,6.8-14.9,14.8l0,9.8l0,1.5l0,0l0,0.1l0,0l0,18.2
		c0.1,8,6.8,14.6,15.1,14.7l23.1,0.2l15.6,0.1l0.1,0l13.7,0.1c0,0,0.1,0,0.1,0c4.1,0,8-1.6,10.9-4.5c2.8-2.8,4.3-6.5,4.3-10.4
		L383.8,130.9L383.8,130.9z M354.8,175.8l-15.4-0.1c-0.2-4-0.9-7.9-2.1-11.5c-0.4-1.3-0.8-2.5-1.3-3.7l-12,0.2l6.4-9.4
		c-5.5-6.8-13.2-10.9-21.6-10.8c-1.9,0-3.7,0.3-5.4,0.8c5.4-8.6,13.6-13.7,22.6-13.8c0.1,0,0.3,0,0.4,0c16.1,0,29.5,16.2,29.8,36.3
		C356.3,168,355.8,172,354.8,175.8z M379.2,171.7c-2.7,2.7-6.4,4.2-10.3,4.2c0,0-0.1,0-0.1,0l-13.2-0.1c1-3.8,1.5-7.8,1.4-11.9
		c-0.4-20.6-14.1-37.1-30.7-37.1c-0.2,0-0.3,0-0.5,0c-9.4,0.2-17.9,5.5-23.5,14.6c-0.1,0.1-0.2,0.2-0.2,0.4c0,0-0.1,0-0.1,0.1l0-9.7
		c-0.1-7.6,6.3-13.8,14.1-14l52.3-1c0.1,0,0.2,0,0.3,0c7.8,0,14.2,6.1,14.3,13.7l0.3,31C383.3,165.6,381.9,169.1,379.2,171.7z"/>
	<path d="M46.4,31.7v556.9H795V31.7H46.4z M141.6,240.9h23.6v35h34v-35h23.6v90.6h-23.6v-37.4h-34v37.4h-23.6V240.9z M141.6,354.4
		h34.9c6.2,0,12,1.2,17.4,3.7c5.4,2.5,10.1,5.8,14.2,9.9c4,4.1,7.2,8.9,9.6,14.4c2.3,5.5,3.5,11.2,3.5,17.2c0,5.9-1.1,11.6-3.4,17.1
		c-2.3,5.5-5.4,10.3-9.5,14.5c-4,4.2-8.8,7.5-14.2,10c-5.4,2.5-11.2,3.7-17.5,3.7h-34.9V354.4z M163.5,489.9c0,0.3-0.1,0.4-0.4,0.4
		h-7.6c-0.1,0-0.2,0.1-0.2,0.2v23.9c0,0.3-0.1,0.4-0.4,0.4h-3c-0.3,0-0.4-0.1-0.4-0.4v-23.9c0-0.1-0.1-0.2-0.2-0.2h-7.3
		c-0.3,0-0.4-0.1-0.4-0.4v-2.5c0-0.3,0.1-0.4,0.4-0.4h19c0.3,0,0.4,0.1,0.4,0.4V489.9z M180.9,506.2h-12.7c-0.1,0-0.2,0.1-0.2,0.2
		c0,0.9,0.1,1.6,0.2,2.1c0.3,1.1,0.9,1.9,1.8,2.5c0.9,0.6,2,0.9,3.4,0.9c2,0,3.5-0.8,4.5-2.4c0.1-0.3,0.3-0.3,0.5-0.1l2.3,1.5
		c0.2,0.2,0.2,0.3,0.1,0.5c-0.7,1.2-1.8,2.1-3.2,2.8c-1.4,0.7-2.9,1-4.6,1c-1.9,0-3.6-0.4-4.9-1.3c-1.3-0.8-2.3-2-3-3.6
		c-0.6-1.6-1-3.5-1-5.7c0-1.9,0.1-3.4,0.4-4.4c0.5-1.8,1.4-3.3,2.9-4.3c1.4-1.1,3.2-1.6,5.2-1.6c2.7,0,4.7,0.7,6,2
		c1.3,1.3,2.1,3.3,2.4,5.9c0.1,1.1,0.1,2.3,0.1,3.7C181.3,506.1,181.1,506.2,180.9,506.2z M202.2,501.3l-3,0.4h-0.1
		c-0.2,0-0.3-0.1-0.4-0.4l-0.1-0.6c-0.2-0.9-0.7-1.7-1.5-2.3c-0.8-0.6-1.8-0.9-3-0.9c-1.1,0-2.1,0.3-2.9,0.9
		c-0.8,0.6-1.3,1.4-1.5,2.4c-0.2,1-0.4,2.2-0.4,3.8c0,1.5,0.1,2.8,0.4,3.7c0.3,1.1,0.8,1.9,1.6,2.5c0.8,0.6,1.7,0.9,2.9,0.9
		c1.2,0,2.2-0.3,3-0.9c0.8-0.6,1.4-1.4,1.6-2.4c0,0,0-0.1,0-0.1c0,0,0-0.1,0-0.1v-0.2c0.1-0.2,0.2-0.3,0.4-0.2l3,0.5
		c0.2,0.1,0.3,0.2,0.3,0.3v0.2c0,0.2-0.1,0.5-0.2,0.9c-0.5,1.6-1.4,2.9-2.9,3.9c-1.5,1-3.2,1.5-5.2,1.5c-2,0-3.7-0.5-5.2-1.5
		c-1.4-1-2.4-2.4-2.9-4.1c-0.4-1.2-0.6-2.8-0.6-4.8c0-1.8,0.2-3.4,0.6-4.8c0.5-1.7,1.5-3,3-4c1.4-1,3.2-1.5,5.1-1.5
		c2,0,3.7,0.5,5.2,1.5c1.5,1,2.4,2.3,2.9,3.8c0.2,0.4,0.3,0.9,0.3,1.3C202.6,501.1,202.5,501.2,202.2,501.3z M223,514.4
		c0,0.3-0.1,0.4-0.4,0.4h-3c-0.3,0-0.4-0.1-0.4-0.4V502c0-1.3-0.4-2.4-1.1-3.2c-0.8-0.8-1.8-1.2-3.1-1.2c-1.2,0-2.3,0.4-3.1,1.2
		c-0.8,0.8-1.2,1.9-1.2,3.2v12.4c0,0.3-0.1,0.4-0.4,0.4h-3c-0.3,0-0.4-0.1-0.4-0.4V495c0-0.3,0.1-0.4,0.4-0.4h3
		c0.3,0,0.4,0.1,0.4,0.4v1.4c0,0.1,0,0.1,0.1,0.1c0,0,0.1,0,0.1,0c1.1-1.5,2.8-2.2,5-2.2c2.2,0,3.9,0.6,5.2,1.9
		c1.3,1.3,1.9,3,1.9,5.1V514.4z M244.5,509.5c-0.6,1.8-1.6,3.2-3,4.1c-1.4,1-3.1,1.5-5,1.5c-2,0-3.7-0.5-5.1-1.5
		c-1.5-1-2.5-2.4-3.1-4.1c-0.5-1.4-0.7-3-0.7-4.8c0-1.9,0.2-3.5,0.7-4.8c0.6-1.7,1.6-3.1,3.1-4.1c1.5-1,3.2-1.5,5.2-1.5
		c1.9,0,3.6,0.5,5,1.5c1.4,1,2.4,2.3,3,4.1c0.5,1.3,0.7,2.9,0.7,4.8C245.2,506.4,245,508.1,244.5,509.5z M286.6,354.4v19.9h-28v15.1
		H285v19.9h-26.4v15.6h28V445H235v-90.6H286.6z M245.3,331.5v-90.6h23.6v90.6H245.3z M254,514.4c0,0.3-0.1,0.4-0.4,0.4h-3
		c-0.3,0-0.4-0.1-0.4-0.4v-27c0-0.3,0.1-0.4,0.4-0.4h3c0.3,0,0.4,0.1,0.4,0.4V514.4z M275.9,509.5c-0.6,1.8-1.6,3.2-3,4.1
		c-1.4,1-3.1,1.5-5,1.5c-2,0-3.7-0.5-5.1-1.5c-1.5-1-2.5-2.4-3.1-4.1c-0.5-1.4-0.7-3-0.7-4.8c0-1.9,0.2-3.5,0.7-4.8
		c0.6-1.7,1.6-3.1,3.1-4.1c1.5-1,3.2-1.5,5.2-1.5c1.9,0,3.6,0.5,5,1.5c1.4,1,2.4,2.3,3,4.1c0.5,1.3,0.7,2.9,0.7,4.8
		C276.6,506.4,276.3,508.1,275.9,509.5z M297.8,513.8c0,3.2-0.9,5.5-2.7,6.9c-1.8,1.4-4.2,2.1-7.3,2.1c-0.4,0-1.1,0-2-0.1
		c-0.3,0-0.4-0.2-0.4-0.4l0.1-2.7c0-0.1,0-0.2,0.1-0.3c0.1-0.1,0.2-0.1,0.3-0.1c0.4,0,0.9,0,1.6,0c2.2,0,3.9-0.4,4.9-1.2
		c1-0.8,1.5-2.2,1.5-4.2v-0.7c0-0.1,0-0.1-0.1-0.1c0,0-0.1,0-0.1,0c-1.1,1.3-2.7,1.9-4.9,1.9c-1.7,0-3.3-0.5-4.7-1.3
		c-1.4-0.9-2.3-2.2-2.9-4c-0.3-1.2-0.5-2.8-0.5-4.8c0-2.2,0.2-3.9,0.6-5.1c0.5-1.6,1.4-2.9,2.7-3.8c1.3-1,2.8-1.4,4.5-1.4
		c2.2,0,3.9,0.7,5.1,2c0.1,0.1,0.1,0.1,0.1,0.1c0,0,0.1,0,0.1-0.1V495c0-0.3,0.1-0.4,0.4-0.4h3c0.3,0,0.4,0.1,0.4,0.4V513.8z
		 M291.5,331.5v-90.6H329c10.2,0,18,2.6,23.4,7.9c5.4,5.3,8.1,12.7,8.1,22.4c0,9.6-2.7,17.1-8.1,22.4c-5.4,5.3-13.2,7.9-23.4,7.9
		H315v30H291.5z M302.4,354.4h36.7c5.1,0,9.5,0.7,13.2,2.2c3.8,1.5,6.9,3.5,9.3,6.1c2.4,2.6,4.3,5.5,5.5,8.9c1.2,3.4,1.9,7,1.9,10.8
		c0,6.9-1.7,12.5-5,16.8c-3.3,4.3-8.2,7.2-14.7,8.7l28.5,37.1h-29.3L326,410.2V445h-23.6V354.4z M426.6,276v19.9h-26.4v15.6h28v19.9
		h-51.6v-90.6h51.6v19.9h-28V276H426.6z M306.6,514.4c0,0.3-0.1,0.4-0.4,0.4h-3c-0.3,0-0.4-0.1-0.4-0.4V495c0-0.3,0.1-0.4,0.4-0.4h3
		c0.3,0,0.4,0.1,0.4,0.4V514.4z M308.5,487.5l-2.8,4.3c-0.1,0.2-0.3,0.3-0.5,0.3h-2.1c-0.2,0-0.3,0-0.3-0.1c-0.1-0.1-0.1-0.2,0-0.3
		l2.3-4.3c0.1-0.2,0.2-0.3,0.5-0.3h2.7c0.2,0,0.3,0,0.3,0.1C308.6,487.2,308.5,487.4,308.5,487.5z M327.2,514.4
		c0,0.3-0.1,0.4-0.4,0.4h-3c-0.3,0-0.4-0.1-0.4-0.4V513c0-0.1-0.1-0.2-0.2-0.1c-0.7,0.7-1.5,1.3-2.5,1.6c-1,0.4-2.1,0.6-3.3,0.6
		c-2,0-3.6-0.5-4.9-1.5c-1.3-1-1.9-2.5-1.9-4.5c0-2.1,0.7-3.7,2.2-4.9c1.4-1.2,3.5-1.8,6-1.8h4.4c0.1,0,0.2-0.1,0.2-0.2v-1.1
		c0-1.2-0.3-2.1-1-2.7c-0.7-0.6-1.7-1-3.1-1c-1.1,0-2,0.2-2.7,0.7c-0.7,0.4-1.1,1-1.3,1.8c-0.1,0.3-0.2,0.4-0.5,0.4l-3.2-0.4
		c-0.3-0.1-0.4-0.2-0.4-0.3c0.2-1.6,1-2.8,2.5-3.8c1.5-1,3.3-1.5,5.5-1.5c1.6,0,3,0.3,4.2,0.9c1.2,0.6,2.1,1.4,2.8,2.4
		c0.6,1,1,2.2,1,3.5V514.4z M356.5,501.3l-3,0.4h-0.1c-0.2,0-0.3-0.1-0.4-0.4l-0.1-0.6c-0.2-0.9-0.7-1.7-1.5-2.3
		c-0.8-0.6-1.8-0.9-3-0.9c-1.1,0-2.1,0.3-2.9,0.9c-0.8,0.6-1.3,1.4-1.5,2.4c-0.2,1-0.4,2.2-0.4,3.8c0,1.5,0.1,2.8,0.4,3.7
		c0.3,1.1,0.8,1.9,1.6,2.5c0.8,0.6,1.7,0.9,2.9,0.9c1.2,0,2.2-0.3,3-0.9c0.8-0.6,1.4-1.4,1.6-2.4c0,0,0-0.1,0-0.1c0,0,0-0.1,0-0.1
		v-0.2c0.1-0.2,0.2-0.3,0.4-0.2l3,0.5c0.2,0.1,0.3,0.2,0.3,0.3v0.2c0,0.2-0.1,0.5-0.2,0.9c-0.5,1.6-1.4,2.9-2.9,3.9
		c-1.5,1-3.2,1.5-5.2,1.5c-2,0-3.7-0.5-5.2-1.5c-1.4-1-2.4-2.4-2.9-4.1c-0.4-1.2-0.6-2.8-0.6-4.8c0-1.8,0.2-3.4,0.6-4.8
		c0.5-1.7,1.5-3,3-4c1.4-1,3.2-1.5,5.1-1.5c2,0,3.7,0.5,5.2,1.5c1.5,1,2.4,2.3,2.9,3.8c0.2,0.4,0.3,0.9,0.3,1.3
		C356.8,501.1,356.7,501.2,356.5,501.3z M377.4,509.5c-0.6,1.8-1.6,3.2-3,4.1c-1.4,1-3.1,1.5-5,1.5c-2,0-3.7-0.5-5.1-1.5
		c-1.5-1-2.5-2.4-3.1-4.1c-0.5-1.4-0.7-3-0.7-4.8c0-1.9,0.2-3.5,0.7-4.8c0.6-1.7,1.6-3.1,3.1-4.1c1.5-1,3.2-1.5,5.2-1.5
		c1.9,0,3.6,0.5,5,1.5c1.4,1,2.4,2.3,3,4.1c0.5,1.3,0.7,2.9,0.7,4.8C378.1,506.4,377.8,508.1,377.4,509.5z M410.6,514.4
		c0,0.3-0.1,0.4-0.4,0.4h-3c-0.3,0-0.4-0.1-0.4-0.4v-12.5c0-1.3-0.4-2.4-1.1-3.2c-0.7-0.8-1.7-1.2-2.9-1.2c-1.2,0-2.2,0.4-3,1.1
		c-0.8,0.8-1.1,1.8-1.1,3.1v12.5c0,0.3-0.1,0.4-0.4,0.4h-3c-0.3,0-0.4-0.1-0.4-0.4v-12.5c0-1.3-0.4-2.4-1.1-3.2
		c-0.7-0.8-1.7-1.2-2.9-1.2c-1.2,0-2.2,0.4-2.9,1.1c-0.7,0.8-1.1,1.8-1.1,3.1v12.5c0,0.3-0.1,0.4-0.4,0.4h-3c-0.3,0-0.4-0.1-0.4-0.4
		V495c0-0.3,0.1-0.4,0.4-0.4h3c0.3,0,0.4,0.1,0.4,0.4v1.3c0,0.1,0,0.1,0.1,0.1c0,0,0.1,0,0.1,0c1.2-1.4,2.9-2.1,5.1-2.1
		c1.3,0,2.5,0.3,3.5,0.8c1,0.5,1.7,1.3,2.2,2.3c0.1,0.1,0.2,0.1,0.2,0c0.6-1,1.5-1.8,2.5-2.3c1-0.5,2.2-0.8,3.5-0.8
		c2,0,3.6,0.6,4.8,1.8c1.2,1.2,1.7,2.9,1.7,5V514.4z M431.9,509.5c-0.6,1.8-1.6,3.2-3,4.1c-1.4,1-3.1,1.5-5,1.5
		c-2,0-3.7-0.5-5.1-1.5c-1.5-1-2.5-2.4-3.1-4.1c-0.5-1.4-0.7-3-0.7-4.8c0-1.9,0.2-3.5,0.7-4.8c0.6-1.7,1.6-3.1,3.1-4.1
		c1.5-1,3.2-1.5,5.2-1.5c1.9,0,3.6,0.5,5,1.5c1.4,1,2.4,2.3,3,4.1c0.5,1.3,0.7,2.9,0.7,4.8C432.6,506.4,432.4,508.1,431.9,509.5z
		 M438.1,374.4h-28v15.1h26.4v19.9h-26.4v15.6h28V445h-51.6v-90.6h51.6V374.4z M449.4,514.4c0,0.3-0.1,0.4-0.4,0.4h-3
		c-0.3,0-0.4-0.1-0.4-0.4v-27c0-0.3,0.1-0.4,0.4-0.4h3c0.3,0,0.4,0.1,0.4,0.4V514.4z M524,331.5h-29.3l-22.5-34.9v34.9h-23.6v-90.6
		h36.7c5.1,0,9.5,0.7,13.2,2.2c3.8,1.5,6.9,3.5,9.3,6.1c2.4,2.6,4.3,5.5,5.5,8.9c1.2,3.4,1.9,7,1.9,10.8c0,6.9-1.7,12.5-5,16.8
		c-3.3,4.3-8.2,7.2-14.7,8.7L524,331.5z M459,514.4c0,0.3-0.1,0.4-0.4,0.4h-3c-0.3,0-0.4-0.1-0.4-0.4V495c0-0.3,0.1-0.4,0.4-0.4h3
		c0.3,0,0.4,0.1,0.4,0.4V514.4z M459,490.7c-0.5,0.5-1.1,0.7-1.8,0.7c-0.7,0-1.3-0.2-1.8-0.7c-0.5-0.5-0.7-1.1-0.7-1.8
		c0-0.7,0.2-1.4,0.7-1.8c0.5-0.5,1.1-0.7,1.8-0.7c0.7,0,1.3,0.2,1.8,0.7c0.5,0.5,0.7,1.1,0.7,1.8C459.7,489.6,459.5,490.2,459,490.7
		z M481.2,509.7c-0.6,1.7-1.5,3-2.8,4c-1.3,0.9-2.8,1.4-4.7,1.4c-0.9,0-1.8-0.2-2.6-0.6c-0.8-0.4-1.5-0.9-2.1-1.5
		c-0.1-0.1-0.1-0.1-0.1,0c0,0-0.1,0.1-0.1,0.1v1.3c0,0.3-0.1,0.4-0.4,0.4h-3c-0.3,0-0.4-0.1-0.4-0.4v-27c0-0.3,0.1-0.4,0.4-0.4h3
		c0.3,0,0.4,0.1,0.4,0.4v8.8c0,0.1,0,0.1,0.1,0.1c0,0,0.1,0,0.1,0c0.6-0.7,1.3-1.2,2.1-1.5c0.8-0.4,1.7-0.5,2.6-0.5
		c2,0,3.6,0.5,4.9,1.5c1.3,1,2.2,2.3,2.7,4.1c0.4,1.3,0.6,2.9,0.6,4.8C481.9,506.6,481.7,508.3,481.2,509.7z M502.8,506.2h-12.7
		c-0.1,0-0.2,0.1-0.2,0.2c0,0.9,0.1,1.6,0.2,2.1c0.3,1.1,0.9,1.9,1.8,2.5c0.9,0.6,2,0.9,3.4,0.9c2,0,3.5-0.8,4.5-2.4
		c0.1-0.3,0.3-0.3,0.5-0.1l2.3,1.5c0.2,0.2,0.2,0.3,0.1,0.5c-0.7,1.2-1.8,2.1-3.2,2.8c-1.4,0.7-2.9,1-4.6,1c-1.9,0-3.6-0.4-4.9-1.3
		c-1.3-0.8-2.3-2-3-3.6c-0.6-1.6-1-3.5-1-5.7c0-1.9,0.1-3.4,0.4-4.4c0.5-1.8,1.4-3.3,2.9-4.3c1.4-1.1,3.2-1.6,5.2-1.6
		c2.7,0,4.7,0.7,6,2c1.3,1.3,2.1,3.3,2.4,5.9c0.1,1.1,0.1,2.3,0.1,3.7C503.2,506.1,503,506.2,502.8,506.2z M497.5,447.6
		c-6.2,0-12.2-1.2-18-3.5c-5.7-2.4-10.8-5.7-15.1-10c-4.4-4.3-7.9-9.4-10.5-15.3c-2.6-5.9-4-12.3-4-19.3c0-7,1.3-13.4,3.9-19.2
		c2.6-5.8,6.1-10.8,10.5-15c4.4-4.2,9.4-7.5,15.2-9.9c5.8-2.4,11.8-3.5,18.1-3.5c3.6,0,7.2,0.4,10.6,1.1c3.5,0.8,7.2,1.9,11,3.5
		v28.1c-5.5-6.6-12.2-10-20.2-10c-3.5,0-6.8,0.6-9.8,1.9c-3,1.3-5.6,3-7.8,5.2c-2.2,2.2-3.9,4.8-5.1,7.9c-1.2,3-1.9,6.3-1.9,9.9
		c0,3.6,0.6,6.9,1.9,10c1.2,3,3,5.7,5.2,7.9c2.2,2.2,4.8,4,7.8,5.3c3,1.3,6.2,1.9,9.6,1.9c7.5,0,14.3-3.2,20.3-9.6V443l-2.4,0.8
		c-3.6,1.3-7,2.2-10.1,2.8C503.6,447.3,500.5,447.6,497.5,447.6z M518.7,498.4c0,0.2-0.2,0.3-0.5,0.2c-0.5-0.2-1-0.3-1.6-0.3l-0.6,0
		c-1.2,0.1-2.3,0.5-3.1,1.3c-0.8,0.8-1.2,1.9-1.2,3.2v11.6c0,0.3-0.1,0.4-0.4,0.4h-3c-0.3,0-0.4-0.1-0.4-0.4V495
		c0-0.3,0.1-0.4,0.4-0.4h3c0.3,0,0.4,0.1,0.4,0.4v2.1c0,0.1,0,0.1,0.1,0.1c0,0,0.1,0,0.1-0.1c1.2-1.8,2.8-2.8,4.9-2.8
		c0.8,0,1.6,0.2,2.3,0.5c0.2,0.1,0.3,0.2,0.2,0.5L518.7,498.4z M533.1,497.3c0,0.3-0.1,0.4-0.4,0.4h-4.3c-0.1,0-0.2,0.1-0.2,0.2
		v10.5c0,1.1,0.3,1.9,0.8,2.4c0.5,0.5,1.3,0.7,2.3,0.7h1.2c0.3,0,0.4,0.1,0.4,0.4v2.5c0,0.3-0.1,0.4-0.4,0.4
		c-0.8,0.1-1.5,0.1-1.8,0.1c-2,0-3.5-0.4-4.5-1.1c-1-0.7-1.5-2.1-1.5-4v-11.9c0-0.1-0.1-0.2-0.2-0.2H522c-0.3,0-0.4-0.1-0.4-0.4V495
		c0-0.3,0.1-0.4,0.4-0.4h2.4c0.1,0,0.2-0.1,0.2-0.2v-4.7c0-0.3,0.1-0.4,0.4-0.4h2.9c0.3,0,0.4,0.1,0.4,0.4v4.7
		c0,0.1,0.1,0.2,0.2,0.2h4.3c0.3,0,0.4,0.1,0.4,0.4V497.3z M525.2,190.5l-2,0.4c-5.1,1-10.1-1.9-11.6-6.7l-3.6-10.6
		c-0.8-2.7-2.8-4.9-5.5-6.1l-91.6-40.3c-0.9-0.4-1.9-0.6-2.9-0.7c-5.7-0.2-10.4,4.2-10.4,9.8l-0.6,39.3c0.1,6.9-3.4,15.9-18.2,16.2
		l-80.5-1.1c-5.4-0.1-9.8-4.3-9.9-9.6l-0.3-18.9c-0.1-5.4-4.6-9.7-10.2-9.6l-10.8,0.2c-5.3,0.1-9.5,4.2-9.8,9.3l-1,19.8
		c-0.3,5.2-4.6,9.3-10,9.3l-83.2,0.1c-8.9,0.2-13.3-8-13.4-14.9l0.7-40.8c0-1.1-0.7-2.1-1.7-2.2c-4.9-0.6-4.9-5.3-4.9-5.3v-17.4
		c0.4-5.1,5.9-9.1,11.1-9.1l93.5,0c5.5,0,10,4.4,10,9.8l0,9.4c0,5.4,4.5,10,10,9.9l2.7,0l3.5-0.1c5.5-0.1,9.9-4.5,9.8-9.9l-0.1-7.8
		c-0.1-5.4,4-11.4,9.5-11.4l113.3,0c1.5,0,2.9,0.3,4.2,0.9L519.8,150c2.6,1.1,4.5,3.3,5.4,5.9l7.5,22
		C534.5,183.5,531,189.3,525.2,190.5z M553.1,514.4c0,0.3-0.1,0.4-0.4,0.4h-3c-0.3,0-0.4-0.1-0.4-0.4V513c0-0.1-0.1-0.2-0.2-0.1
		c-0.7,0.7-1.5,1.3-2.5,1.6c-1,0.4-2.1,0.6-3.3,0.6c-2,0-3.6-0.5-4.9-1.5c-1.3-1-1.9-2.5-1.9-4.5c0-2.1,0.7-3.7,2.2-4.9
		c1.4-1.2,3.5-1.8,6-1.8h4.4c0.1,0,0.2-0.1,0.2-0.2v-1.1c0-1.2-0.3-2.1-1-2.7c-0.7-0.6-1.7-1-3.1-1c-1.1,0-2,0.2-2.7,0.7
		c-0.7,0.4-1.1,1-1.3,1.8c-0.1,0.3-0.2,0.4-0.5,0.4l-3.2-0.4c-0.3-0.1-0.4-0.2-0.4-0.3c0.2-1.6,1-2.8,2.5-3.8c1.5-1,3.3-1.5,5.5-1.5
		c1.6,0,3,0.3,4.2,0.9c1.2,0.6,2.1,1.4,2.8,2.4c0.6,1,1,2.2,1,3.5V514.4z M574.6,514.4c0,0.3-0.1,0.4-0.4,0.4h-3
		c-0.3,0-0.4-0.1-0.4-0.4v-1.3c0,0,0-0.1-0.1-0.1c0,0-0.1,0-0.1,0c-0.6,0.7-1.3,1.2-2.1,1.5c-0.8,0.4-1.7,0.6-2.6,0.6
		c-1.9,0-3.5-0.5-4.7-1.4c-1.3-0.9-2.2-2.3-2.8-4c-0.5-1.4-0.8-3.1-0.8-5.1c0-1.9,0.2-3.5,0.6-4.8c0.6-1.7,1.5-3.1,2.7-4.1
		c1.3-1,2.9-1.5,4.9-1.5c0.9,0,1.8,0.2,2.6,0.5c0.8,0.4,1.5,0.9,2.1,1.5c0.1,0.1,0.1,0.1,0.1,0c0,0,0.1-0.1,0.1-0.1v-8.8
		c0-0.3,0.1-0.4,0.4-0.4h3c0.3,0,0.4,0.1,0.4,0.4V514.4z M618,445h-23.6v-37.4h-34V445h-23.6v-90.6h23.6v35h34v-35H618V445z
		 M728.4,418.5c-2.5,5.8-5.9,10.9-10.4,15.2c-4.4,4.3-9.8,7.7-15.9,10.2c-6.2,2.4-12.9,3.7-20.2,3.7c-7.4,0-14.1-1.2-20.3-3.7
		c-6.1-2.4-11.4-5.8-15.8-10.2c-4.4-4.3-7.9-9.4-10.3-15.2c-2.5-5.8-3.7-12.1-3.7-18.8c0-6.7,1.2-13,3.7-18.8
		c2.5-5.8,5.9-10.9,10.3-15.2c4.4-4.3,9.7-7.7,15.8-10.2c6.1-2.4,12.9-3.7,20.3-3.7c7.3,0,14,1.2,20.2,3.7
		c6.2,2.4,11.5,5.8,15.9,10.2c4.4,4.3,7.9,9.4,10.4,15.2c2.5,5.8,3.7,12.1,3.7,18.8C732.2,406.5,730.9,412.7,728.4,418.5z"/>
	<path d="M229.7,116.9l-49.3,0c-8.2,0-15,6.3-15.4,14.3l-0.2,10.2l0,1.1l0,0l-0.6,20.3c-0.1,4,1.4,7.9,4.3,10.8
		c1.1,1.1,2.3,2,3.7,2.7c2.3,1.2,4.8,1.8,7.4,1.8c0,0,0,0,0,0h0c0.1,0,0.2,0,0.3,0l49.5-0.9c8.2-0.2,14.9-6.6,15.1-14.6l0.6-30.2
		c0.2-4-1.3-7.8-4.1-10.8C238.1,118.6,233.9,116.9,229.7,116.9z M201.6,176.9c-0.2-4-0.9-7.8-2.2-11.3c-0.4-1.2-0.8-2.3-1.2-3.4
		l-12.5,0.2l6.7-9.8c-5.7-6.9-13.5-11-22-10.9c-1.7,0-3.3,0.3-4.9,0.7l0-0.8c3-4.5,11.1-14.7,22.4-14.7c16.3,0,30.3,17.6,30.7,38.4
		c0.1,3.9-0.3,7.7-1.2,11.4L201.6,176.9z M243.6,162.6c-0.2,7.6-6.5,13.7-14.3,13.8l-11,0.2c0.9-3.6,1.3-7.5,1.2-11.4
		c-0.4-21.2-14.8-39.2-31.6-39.2c-8,0-16.1,5.1-22.4,14.1l0.2-8.9c0.4-7.6,6.8-13.5,14.6-13.5l49.3,0c4.1,0,8,1.6,10.7,4.5
		c2.6,2.8,4,6.4,3.8,10.2L243.6,162.6z"/>
	<path d="M699.9,381.8c-2.4-2.2-5.1-4-8.2-5.2c-3.1-1.2-6.3-1.9-9.8-1.9s-6.7,0.6-9.8,1.9c-3.1,1.2-5.8,3-8.1,5.2
		c-2.3,2.2-4.2,4.9-5.5,7.9c-1.4,3-2,6.4-2,10s0.7,6.9,2,10c1.4,3,3.2,5.7,5.5,7.9c2.3,2.2,5,4,8.1,5.2c3.1,1.2,6.3,1.9,9.8,1.9
		s6.7-0.6,9.8-1.9c3.1-1.2,5.8-3,8.2-5.2c2.4-2.2,4.2-4.9,5.6-7.9c1.4-3,2-6.4,2-10s-0.7-6.9-2-10
		C704.1,386.7,702.3,384.1,699.9,381.8z"/>
</g>
</svg>
