<svg xmlns="http://www.w3.org/2000/svg" xml:space="preserve" style="enable-background:new 0 0 850.4 547.5" viewBox="0 0 850.4 547.5"><path d="M341.9 395.4c-4.2 0-7.5 3.7-8.3 7.4h14.7c0-3.9-2-7.4-6.4-7.4zM173.6 395.4c-4.2 0-7.5 3.7-8.3 7.4H180c0-3.9-1.9-7.4-6.4-7.4zM219.6 397.1c-6.4 0-8.3 5.4-8.3 10.3s1.9 10.3 8.3 10.3 8.3-5.4 8.3-10.3c.1-4.9-1.9-10.3-8.3-10.3zM576 303.8c5 10.8 11.3 15.8 19.3 15.8 9 0 16.3-5.5 21.7-15.7 5.3-10.3 8.3-25.2 8.3-43.2 0-2.9-.1-6-.2-9.1-.6-12.3-3.8-29.2-7.1-41.9-4.5-15.2-13-23.7-22.6-23.6-8.9 0-15.9 4.9-20.9 14.6-5 9.6-7.7 23.8-7.7 41.7v12.9c1.2 21.4 4.3 37.7 9.2 48.5zM124 398c-2.5 0-5 1-6.9 2.6l-.3 15.5c1.4 1.5 4.2 2.1 6.2 2.1 6.2 0 9-4.9 9-10.6 0-5.1-2-9.6-8-9.6zM269.5 398c-2.5 0-5 1-6.9 2.6l-.3 15.5c1.4 1.5 4.2 2.1 6.2 2.1 6.2 0 9-4.9 9-10.6 0-5.1-2-9.6-8-9.6zM683.4 395.4c-4.2 0-7.5 3.7-8.3 7.4h14.7c0-3.9-2-7.4-6.4-7.4z"/><path d="M37.6 37.8v471.1h775.3V37.8H37.6zm559.5 134.8c30.5 0 53.9 28.8 55.9 67.1.1 2.3.2 4.5.2 6.8 0 47.1-25.7 87.4-58.8 87.6-29.4-.1-53.2-28.8-55.1-65.3-.1-2.8-.2-5.6-.2-8.3.1-49.8 24.1-87.8 58-87.9zm25.8 199.3v10.8h-13.4v-10.8h13.4zM382.1 107.2c9.3 0 16.8 7.3 16.8 16.3s-7.5 16.3-16.8 16.3-16.8-7.3-16.8-16.3 7.6-16.3 16.8-16.3zM101.2 312.3H124V122.8h-22.8v-16.7h75v16.7H152v83.6h97.4v-83.6h-22.3v-16.7h75v16.7H279v189.5h23.2V329h-75v-16.7h22.3V225H152v87.3h24.2V329h-75v-16.7zm24.5 115.4c-3.2 0-6.2-.7-8.8-2l-.2 19.5h-12.9l.3-56.6h12.7v2.7c2.8-2.2 6.5-3.8 10.9-4.1 11.8 0 17.7 9.9 17.7 19.1 0 11.8-7.2 21.4-19.7 21.4zm48.7-9.5c4.7 0 7.3-1.3 10.9-3.7l4.5 7.6c-4.5 3.7-11.5 5.6-17.6 5.6-14.1 0-20.5-9.7-20.5-19.4 0-11.4 8.8-21 20.9-21 14.8 0 19.4 10.2 19.4 23.1h-26.9c0 2.9 1.9 7.8 9.3 7.8zm45.2 9.5c-14.3 0-21.7-8.8-21.7-20.2 0-11.4 7.4-20.2 21.7-20.2 14.3 0 21.7 8.8 21.7 20.2.1 11.4-7.3 20.2-21.7 20.2zm51.6 0c-3.2 0-6.2-.7-8.8-2l-.2 19.5h-12.9l.3-56.6h12.7v2.7c2.8-2.2 6.5-3.8 10.9-4.1 11.8 0 17.7 9.9 17.7 19.1 0 11.8-7.3 21.4-19.7 21.4zm41.3-1.4H299l.3-56.1h13.4l-.2 56.1zm30.2-8.1c4.7 0 7.3-1.3 10.9-3.7l4.5 7.6c-4.5 3.7-11.5 5.6-17.6 5.6-14.1 0-20.5-9.7-20.5-19.4 0-11.4 8.8-21 20.9-21 14.8 0 19.4 10.2 19.4 23.1h-26.9c0 2.9 1.9 7.8 9.3 7.8zm-6.3-85.1c-4.8 0-8.9-1.1-11.8-3.7-2.9-2.6-4.6-6.5-4.6-12 0-13.7 35.9-96.6 35.9-110.8-.1-3.6-1.6-5.5-4.8-5.5-4.8-.1-14 8.3-18.6 14l-.3.4-7.3-5.6.2-.4c5.5-11 29.6-32.5 42.3-33 5.2 0 9.3 1.3 12 4 2.7 2.7 4.1 6.9 4.1 12.3 0 11.4-35.9 99.6-35.9 109.5 0 3.4 2.8 6.2 7.3 6.2 9.3.2 24.6-23 31.7-30.5l.1-.1h.2c1 .1 2.3 1 3.6 2.1 1.3 1.2 2.4 2.3 2.5 3.4v.1l-.1.1c-10.6 18-34.8 49.4-56.5 49.5zm95.1 93.2h-13.4v-4.1c-3.1 2.9-7.8 5.5-12.6 5.5-8.2 0-12.7-4.4-12.7-14.7 0-7.7.1-16 .2-24.3h13.4c-.1 7.3-.2 14.6-.2 22.4 0 3.1.8 5.5 4.8 5.5 2.2 0 5.2-1.8 7-3.4l.3-24.4h13.4l-.2 37.5zm48.5 0h-13.4c.1-7.3.2-14.6.2-22.4 0-3.1-.8-5.5-4.9-5.5-2.1 0-5.2 1.8-7 3.4l-.3 24.4h-13.4l.3-37.7h13.4v4.1c3.1-2.9 7.8-5.5 12.5-5.5 8.3 0 12.7 4.4 12.7 14.7.1 7.9 0 16.2-.1 24.5zm22.9 0h-13.4l.3-56.1h13.4l-.3 56.1zm22.8 0h-13.4l.3-37.7H526l-.3 37.7zm.3-43.7h-13.4v-10.8H526v10.8zm3.1-191.8h-11.5l-47.8 141.9H462l-40.7-141.9h-14.6v-14.5h55.4v14.5h-13.3l25.1 88.8 29.4-88.8h-14.1v-14.5h39.9v14.5zm70.6 235.5h-13.4c.1-7.3.1-14.6.1-21.9 0-3.1-1-6-4.8-6-2.4 0-5.5 1.8-7.1 3.4l-.3 24.4h-13.4c.1-7.3.1-14.6.1-21.9 0-3.1-1-6-4.8-6-2.4 0-5.5 1.8-7.1 3.4l-.3 24.4h-13.4l.3-37.7H549v4.5c3.5-3.4 7.9-5.8 12.7-5.8 4.8 0 8.2 1.6 11 5.8 4.1-3.4 9.5-5.8 14.5-5.8 9.1 0 12.6 6.2 12.6 14.1.1 8.5 0 16.8-.1 25.1zm22.9 0h-13.4l.3-37.7h13.4l-.3 37.7zm21.6 1.4c-10.9 0-11.4-6.7-11.4-15.3 0-4.6.4-9.3.4-14.3h-5.8l.3-9.4h5.7l.3-12.8h13l-.3 12.8h11l-.2 9.4h-11c0 5.2-.4 10.8-.4 14 0 3.3.8 4.9 3.8 4.9 1.9 0 3.4-.9 4.9-1.8l2.9 8.8c-3.8 2.3-8.6 3.7-13.2 3.7zm40-9.5c4.7 0 7.3-1.3 10.9-3.7l4.5 7.6c-4.5 3.7-11.5 5.6-17.6 5.6-14.1 0-20.5-9.7-20.5-19.4 0-11.4 8.8-21 20.9-21 14.8 0 19.4 10.2 19.4 23.1h-26.9c0 2.9 1.9 7.8 9.3 7.8zm65.2 8.1h-12.7v-2.7c-2.8 2.2-6.5 3.8-10.9 4.1-11.8 0-17.7-9.9-17.7-19.1 0-11.7 7.2-21.3 19.7-21.3 3.2 0 6.2.7 8.8 2l.2-19.1h12.9l-.3 56.1zm-8.2-106.7c-8 7-19.3 10.9-33.1 10.9-9.4 0-17-1-28-4.6v6.1h-12.4v-33.4h7.5l.4.3s.6.4 1 .9c.5.6 6.9 9.2 7 9.3 3.5 4.9 14.5 9 24 9 12.8 0 22.7-9.4 22.7-21.6v-1.2c-.6-10.5-6.2-18.1-22.3-30.6-25.6-19.4-33.1-29.6-33.9-46.2 0-.8-.1-1.6-.1-2.5 0-11.9 4.6-22.2 12.3-29.6 7.8-7.4 18.8-11.7 31.6-11.7 7.9 0 13.5 1 23.1 5.1v-7h9.9v37.7h-8.1l-.3-.9c-5.6-14.8-15-22.6-26.8-22.6-12.1.1-20.1 8.2-20.1 20v1.4c.5 10.3 7.8 20.3 27.4 35 23.3 17.2 29.6 26.4 30.4 43.6 0 1 .1 1.9.1 2.8 0 12.5-4.4 22.7-12.3 29.8z"/><path d="M721.5 407.3c0 5.1 2 9.6 8 9.6 2.5 0 5-1 6.9-2.6l.3-15.5c-1.4-1.5-4.2-2.1-6.2-2.1-6.2 0-9 4.9-9 10.6z"/></svg>