<?xml version="1.0" encoding="utf-8"?>
<!-- Generator: Adobe Illustrator 25.2.3, SVG Export Plug-In . SVG Version: 6.00 Build 0)  -->
<svg version="1.1" id="Capa_1" xmlns="http://www.w3.org/2000/svg" xmlns:xlink="http://www.w3.org/1999/xlink" x="0px" y="0px"
	 viewBox="0 0 850.4 256.2" style="enable-background:new 0 0 850.4 256.2;" xml:space="preserve">
<g>
	<path d="M470.2,110.2c12.3,0,24.6,0,36.9,0c14.7,0,29.3,0,44,0c2.2,0,3-0.7,2.9-2.9c-0.1-5.4-0.1-10.8,0-16.2
		c0-1.9-0.5-2.7-2.6-2.7c-28.5,0-57,0-85.5,0.1c-10,0-18.5,7.5-20.5,17.2c-0.7,3.8-0.4,7.6-0.4,11.4c-0.1,7.9,2.8,12,10.6,14.8
		c-6.5,2.1-10.4,6.2-10.6,12.8c-0.2,10.6-0.2,21.1,0,31.7c0.2,11,9.3,20.4,20.3,20.5c28.7,0.3,57.3,0.1,86,0.2
		c1.9,0,2.7-0.7,2.7-2.7c-0.1-4.9,0-9.8,0-14.7c0-4.4,0-4.4-4.6-4.4c-26.4,0-52.7,0-79.1,0c-3.2,0-3.3-0.1-3.3-3.2
		c0-5.1,0.1-10.1-0.1-15.2c-0.1-2.5,0.8-3.1,3.2-3.1c19.7,0.1,39.3,0,59,0.1c2.3,0,3.2-0.6,3.1-3c-0.1-5.2,0-10.3,0-15.5
		c0-3.5,0-3.5-3.5-3.5c-19.6,0-39.2,0-58.8,0c-2.3,0-3.1-0.6-3-3c0.2-5.1,0.1-10.1,0.1-15.2C467,110.2,467,110.2,470.2,110.2z"/>
	<path d="M122.5,110.3c12.4,0,24.8,0,37.1,0c2.1,0,3.1-0.5,3-2.8c-0.1-5.4-0.1-10.8,0-16.2c0-2.1-0.7-2.8-2.8-2.8
		c-16.4,0.1-32.9,0-49.3,0.1c-5.3,0-9.4,2.7-11.8,7.4c-0.5,1-0.8,2-1.3,3.1c-2.5-7-6.9-10.6-13.1-10.6c-9.2-0.1-18.5,0-27.7,0
		c-2,0-2.7,0.8-2.7,2.7c0.1,5.3,0.1,10.6,0,16c-0.1,2.4,0.7,3.2,3.2,3.2c12.3-0.1,24.6-0.1,36.9,0c3.3,0,3.4,0.1,3.4,3.4
		c0,19.4-0.1,38.9,0.1,58.3c0,2.5-0.8,3.1-3.2,3.1c-12.4-0.1-24.8,0-37.1-0.1c-2.5,0-3.3,0.8-3.2,3.2c0.1,5.2,0.1,10.3,0,15.5
		c-0.1,2.4,0.8,3.2,3.2,3.2c8.5-0.1,17,0,25.4,0c8.1,0,12.1-2.8,14.9-10.5c0.2,0.5,0.5,0.8,0.6,1.2c2.3,6.1,6.5,9.3,13.1,9.3
		c16.3,0.1,32.6,0,48.8,0.1c2.1,0,2.8-0.8,2.8-2.9c-0.1-5.2,0-10.5,0-15.7c0-3.2-0.1-3.3-3.3-3.3c-12.4,0-24.8-0.1-37.1,0
		c-2.4,0-3-0.7-3-3.1c0.1-19.5,0-39,0-58.6C119.2,110.4,119.3,110.3,122.5,110.3z"/>
	<path d="M293.1,186.7c0-25.3,0-50.7,0-76c0-13.2-9.2-22.3-22.3-22.3c-14.3,0-28.7,0-43,0c-12.4,0-21.8,9.5-21.7,21.8
		c20.7,0,41.3,0,62-0.1c2.6,0,3.3,0.8,3.2,3.3c-0.2,5.2-0.1,10.5-0.1,15.7c0,21.5,0,43.1,0,64.6c0,1.8,0,3.2,2.4,3.2
		c5.7-0.1,11.4-0.1,17,0c1.9,0,2.5-0.8,2.5-2.6C293,191.8,293.1,189.2,293.1,186.7z"/>
	<path d="M206,110.2C206,110.2,206,110.2,206,110.2L206,110.2C206,110.2,206,110.2,206,110.2C206,110.2,206,110.2,206,110.2
		C206,110.2,206,110.2,206,110.2z"/>
	<path d="M204,110c-11,0.9-19.7,10-19.8,21c-0.1,21,0,42-0.1,63.1c0,2.1,0.7,2.8,2.8,2.8c5.2-0.1,10.3,0,15.5,0c3.6,0,3.6,0,3.6-3.7
		c0-23.4,0-46.8,0-70.2c0-4.3-0.1-8.6-0.1-12.9C205.3,110.1,204.6,110,204,110z"/>
	<path d="M684.4,177.4c0-0.6,0.3-1.4-0.4-1.9c0,0,0,0,0,0c-1-0.8-2.1-0.4-3.2-0.4c-26.9,0-53.7,0-80.6,0c-2.1,0-2.7-0.5-2.7-2.6
		c0.1-21.5,0.1-43.1,0.1-64.6c0-5.6-0.1-11.1,0-16.7c0-2.2-0.7-3-3-2.9c-5.4,0.1-10.8,0.1-16.3,0c-1.9,0-2.7,0.5-2.7,2.5
		c0.1,21.1,0,42.2,0.1,63.3c0.1,10.3,8.1,19.5,18.1,20.7c2.1,0.3,3.6,0.6,3.9,2.6c0,0.2,0,0.5,0.1,0.8c0.5,9.4,9.6,18.4,19.4,18.5
		c21.6,0.3,43.2,0.1,64.8,0.2c1.9,0,2.5-0.7,2.5-2.6C684.3,188.7,684.4,183.1,684.4,177.4z"/>
	<path d="M405.2,110.3c-1.9-0.2-3.2-0.6-3.6-2.2c0-0.3-0.1-0.7-0.1-1.1c-0.5-10.1-10.2-18.6-21.1-18.7c-20.9,0-41.7,0-62.6-0.1
		c-2.4,0-3,0.7-3,3c0.1,34.1,0.1,68.3,0,102.4c0,2.6,0.8,3.3,3.3,3.3c14.2-0.1,28.5,0,42.7-0.1c7.1,0,14.2,0.1,21.4-0.2
		c9.9-0.4,19-9.5,19.3-18.9c0.1-2.3,1.4-2.7,3.6-3c9.2-0.9,17.4-8.9,18.2-18.1c0.8-9.3,0.7-18.7,0-28.1
		C422.5,119.3,414.6,111.4,405.2,110.3z M400.6,114.1c0,19,0,38,0,57c0,3.1,0,3.1-3,3.2c-0.7,0-1.4,0-2,0c-18,0-35.9,0-53.9,0
		c-1,0-2.2-0.2-3.2,0.1c-0.1,0-0.1-0.1-0.2-0.1c-0.9-0.9-0.7-2-0.7-3.1c0-19,0-38,0-57c0-1.1-0.2-2.2,0.7-3.1
		c0.1-0.1,0.2-0.1,0.3-0.2c1,0.3,2.1,0.1,3.1,0.1c18.6,0,37.3,0,55.9,0C400.6,111,400.6,111.1,400.6,114.1z"/>
	<path d="M815,110.2c0-12.3-9.6-21.9-21.9-21.9c-14.5,0-29,0-43.5,0c-11.3,0-20.5,8.4-21.5,19.5c-0.1,1.6-0.7,2.1-2.3,2.3
		c-11.8,1.5-19.6,10.2-19.7,22c-0.1,20.6,0,41.2-0.1,61.9c0,2.4,0.9,3,3.1,3c5.3-0.1,10.5-0.1,15.8,0c2.3,0.1,3.1-0.8,3.1-3.1
		c-0.1-8.8,0-17.6-0.1-26.4c0-2.4,0.6-3.3,3.1-3.2c19.7,0.1,39.3,0.1,59,0c2.3,0,3.1,0.7,3.1,3.1c-0.1,8.8,0,17.6,0,26.4
		c0,3.2,0.1,3.2,3.3,3.2c5.1,0,10.2,0,15.3,0c3.2,0,3.3-0.1,3.3-3.3c0-13.9,0-27.9,0-41.8C815,137.9,815,124.1,815,110.2z
		 M793.1,139.6c0,2.2-0.6,3-2.9,3c-19.8-0.1-39.7-0.1-59.5,0c-2.3,0-2.9-0.8-2.9-2.9c0.1-9,0.1-17.9,0-26.9c0-2.2,0.7-2.6,2.7-2.6
		c9.9,0.1,19.8,0,29.7,0c9.9,0,19.8,0.1,29.7,0c2.4,0,3.1,0.8,3,3.1C793,122,793.1,130.8,793.1,139.6z"/>
</g>
</svg>
