<svg width="51" height="30" viewBox="0 0 51 30" fill="none" xmlns="http://www.w3.org/2000/svg">
<g clip-path="url(#clip0_54_1939)">
<path d="M28.4285 2.2393L27.6381 5.40066C28.7578 3.16136 30.569 1.48189 32.6436 0C31.1288 1.74533 29.7457 3.49067 28.9224 5.26894C30.3385 3.26015 32.2485 2.17344 34.389 1.41603C31.524 3.9517 29.2517 6.71789 27.5393 9.45115L26.1562 8.8584C26.3868 6.65203 27.21 4.41273 28.4285 2.2393Z" fill="black"/>
<path d="M27.375 9.32031L28.33 9.81428C28.2312 10.44 28.3629 11.8231 28.9886 12.1524C31.7548 13.8648 34.3234 15.7089 35.3443 17.586C38.9667 24.1392 32.8086 30.2314 27.4409 29.6386C30.3388 27.4981 31.195 23.0854 30.1083 18.2446C29.6802 16.3675 28.9886 14.6551 27.7702 12.7122C27.2433 11.8231 27.4409 10.6375 27.375 9.32031Z" fill="black"/>
<path d="M26.3171 12.4531C26.1195 13.474 25.889 15.3181 24.9998 16.0097C24.6376 16.2731 24.2424 16.5365 23.8473 16.8C22.2337 17.8867 20.653 18.9076 19.9285 21.5091C19.7638 22.0689 19.8956 22.6617 20.0273 23.2215C20.4225 24.8351 21.5421 26.5475 22.4312 27.5684C22.4312 27.6013 22.5959 27.733 22.5959 27.766C23.3204 28.6222 23.5509 28.8856 26.3171 29.5113L26.2512 29.8077C24.5717 29.3796 23.2216 28.9515 22.3324 27.9636C22.3324 27.9306 22.1678 27.7989 22.1678 27.7989C21.2457 26.7451 20.0931 24.9668 19.698 23.2874C19.5333 22.6288 19.4016 22.1019 19.5992 21.4103C20.3566 18.71 22.0031 17.6233 23.6497 16.5036C24.0119 16.2731 24.473 16.0426 24.8352 15.7462C25.5926 15.2522 25.9548 13.7045 26.3171 12.4531Z" fill="black"/>
<path d="M27.0388 16.7344C27.0717 17.887 26.94 18.4797 27.2363 19.303C27.401 19.7969 28.0267 20.4556 28.1913 21.1142C28.4218 21.9704 28.6853 22.9254 28.6853 23.5181C28.6853 24.1767 28.6524 25.4281 28.356 26.7453C28.1255 27.8321 27.6315 28.7871 26.7753 29.314C25.8862 29.1493 24.8653 28.82 24.2726 28.2931C23.0871 27.2722 22.0662 25.5598 21.9345 24.078C21.8357 22.8595 22.9553 21.0483 24.536 20.1592C25.8532 19.3688 26.1826 18.5126 26.4789 17.0637C26.0838 18.3151 25.6886 19.3359 24.4043 20.0275C22.5272 21.0154 21.5722 22.629 21.671 24.2097C21.8027 26.2185 22.5931 27.5686 24.1738 28.6553C24.8324 29.1164 26.0838 29.6103 26.8741 29.7421V29.6433C27.4669 29.5445 28.2243 28.5565 28.6194 27.2722C28.9487 26.0867 29.0805 24.6048 29.0475 23.6499C29.0146 23.09 28.7841 21.9045 28.3231 20.8178C28.0925 20.225 27.6974 19.6323 27.4669 19.2042C27.1705 18.7102 27.1705 17.7882 27.0388 16.7344Z" fill="black"/>
<path d="M26.8403 21.2422C26.8732 22.0325 27.1696 23.0205 27.3013 24.0413C27.4001 24.7987 27.3672 25.5561 27.3342 26.2147C27.3013 26.9722 27.0708 28.3552 26.7085 29.0468C26.3792 28.8821 26.2475 28.7175 26.017 28.454C25.7536 28.0918 25.556 27.6966 25.3913 27.2685C25.2596 26.9392 25.0949 26.5441 25.0291 26.116C24.9303 25.4573 24.9632 24.4035 25.7206 23.3498C26.3134 22.4936 26.4451 22.4277 26.6427 21.4727C26.3792 22.3289 26.1816 22.4277 25.556 23.1522C24.8644 23.9425 24.7656 25.128 24.7656 26.083C24.7656 26.4782 24.9303 26.9392 25.0949 27.3344C25.2596 27.7625 25.4242 28.2235 25.6548 28.5528C26.017 29.0797 26.478 29.409 26.7085 29.442V29.409C27.1366 28.9151 27.4001 28.454 27.4989 27.9601C27.5977 27.3673 27.6306 26.8075 27.6965 26.116C27.7623 25.5232 27.7294 24.7658 27.5647 23.9754C27.3672 22.9875 27.0049 21.9667 26.8403 21.2422Z" fill="black"/>
<path d="M26.9782 11.5312C27.0112 12.6838 27.077 14.8243 27.4063 15.6805C27.5051 15.9769 28.3284 17.2283 28.8882 18.776C29.2834 19.8298 29.3822 20.8177 29.4481 21.1141C29.7115 22.3655 29.3822 24.506 28.9541 26.5148C28.7236 27.6015 27.9662 28.9517 27.11 29.4786L26.9453 29.7749C27.4393 29.742 28.6248 28.5894 29.0529 27.1075C29.7774 24.6377 30.0408 23.4851 29.7115 20.719C29.6786 20.4555 29.5469 19.5334 29.1188 18.5785C28.4931 17.0966 27.6039 15.6805 27.5051 15.3842C27.2746 14.9231 27.0112 12.8814 26.9782 11.5312Z" fill="black"/>
<path d="M27.3679 9.42188C27.302 10.6074 27.302 11.5294 27.4996 12.4186C27.7301 13.3736 28.9815 14.7567 29.5084 16.3374C30.4963 19.367 30.2329 23.3187 29.5413 26.3813C29.2779 27.468 28.0265 29.0487 26.7422 29.5426L27.6643 29.7731C28.1582 29.7402 29.4754 28.5218 30.0023 27.1387C30.8256 24.9323 30.9903 22.3308 30.661 19.5646C30.628 19.3011 30.1999 16.9301 29.7718 15.9422C29.1791 14.4603 28.2241 13.4065 27.8948 12.4844C27.6313 11.7929 27.5325 9.94877 27.6972 9.58653L27.3679 9.42188Z" fill="black"/>
<path d="M1.72012 2.89844H19.5357C20.1943 2.89844 20.7871 3.45826 20.7871 4.14981V9.41874C20.7871 10.1103 20.1943 10.6701 19.5357 10.6701H15.8804C15.0571 10.6701 14.6949 11.1311 14.6949 11.658V28.8809C14.6949 29.4736 14.2338 29.9017 13.674 29.9017H7.61474C7.05492 29.9017 6.62682 29.4736 6.62682 28.8809V11.4934C6.62682 10.9665 6.13286 10.6372 5.77062 10.6372H1.72012C1.02857 10.6372 0.46875 10.0774 0.46875 9.38581V4.11688C0.46875 3.45826 1.02857 2.89844 1.72012 2.89844Z" fill="black"/>
<path d="M47.4297 9.88281H49.0104C49.6031 9.88281 50.0642 10.3438 50.0642 10.9037V16.5348C50.0642 17.2593 50.0971 17.5557 49.208 17.5557C47.4626 17.5557 46.6723 18.4778 46.6723 19.4986V29.0156C46.6723 29.4437 46.2442 29.8389 45.7502 29.8389H40.0861C39.5922 29.8389 39.1641 29.4767 39.1641 29.0156V18.1814C39.1641 17.9838 39.1641 17.7204 39.197 17.5557C39.4934 13.5381 42.6547 10.3438 46.6394 9.91574C46.7382 9.91574 47.1992 9.88281 47.4297 9.88281Z" fill="black"/>
<path d="M33.9584 15.2476C33.0034 14.3914 31.8179 13.667 30.5665 12.9754C30.0067 12.679 28.2943 11.3289 28.8871 9.41889L24.5731 7.64062L24.2767 7.87114C25.7257 10.4727 24.9683 11.8558 24.2438 12.3168C22.7949 13.3047 20.6873 14.5561 19.6664 15.6428C17.6576 17.7175 17.0649 19.6933 17.2625 22.2619C17.4601 25.5879 19.864 28.3541 23.1242 29.4408C24.5402 29.9019 25.8574 29.9677 27.3064 29.9677C29.6445 29.9677 32.0814 29.3421 33.8267 27.8931C35.7037 26.3453 36.7905 24.0073 36.7905 21.6033C36.7905 19.1994 35.7696 16.8942 33.9584 15.2476ZM33.3327 27.3991C31.7191 28.7164 28.8212 29.6384 27.2734 29.5726C25.561 29.4738 23.8816 29.2103 22.3997 28.4858C19.7981 27.2345 18.0857 24.5012 17.954 22.2948C17.7235 17.7833 19.8969 16.499 21.9057 14.8525C23.0254 13.9304 24.606 13.4694 25.4952 11.8228C25.6598 11.4606 25.7586 10.6703 25.561 9.84699C25.4622 9.55061 25.0671 8.56269 24.9024 8.33217L28.1297 9.7482C27.7345 11.2301 28.9529 12.7778 29.9408 13.3377C30.9288 13.8975 32.4765 14.9513 33.4315 15.8075C35.111 17.2894 35.9672 19.3969 35.9672 21.6033C35.9672 23.8097 35.0451 25.9831 33.3327 27.3991Z" fill="black"/>
</g>
<defs>
<clipPath id="clip0_54_1939">
<rect width="49.5609" height="30" fill="white" transform="translate(0.46875)"/>
</clipPath>
</defs>
</svg>
