<?xml version="1.0" encoding="utf-8"?>
<!-- Generator: Adobe Illustrator 25.2.3, SVG Export Plug-In . SVG Version: 6.00 Build 0)  -->
<svg version="1.1" id="Capa_1" xmlns="http://www.w3.org/2000/svg" xmlns:xlink="http://www.w3.org/1999/xlink" x="0px" y="0px"
	 viewBox="0 0 850.4 385.8" style="enable-background:new 0 0 850.4 385.8;" xml:space="preserve">
<style type="text/css">
	.st0{opacity:0.6;}
</style>
<path class="st0" d="M171.5,71.6c1.6,0.4,3.2,0.8,4.8,1.1c15.6,3.2,26.2,14.9,28.1,30.5c2.2,17.5-6.9,31.8-20.3,37.8
	c-15.1,6.8-34,3.6-44.8-8.5c-10.2-11.4-11.4-24.9-6.2-38.8c4.9-13,15.3-19.6,28.8-21.6c0.7-0.1,1.3-0.4,2-0.6
	C166.4,71.6,169,71.6,171.5,71.6z M167.5,91c-10.4,0-17,6.5-17,17.1c0,10.5,6.6,17.4,16.7,17.5c10.1,0.1,17.3-7.2,17.4-17.4
	C184.7,97.9,177.8,91,167.5,91z"/>
<path class="st0" d="M167.7,160.6c15.9-0.7,32.1,9.6,36.1,27.4c5.3,23.7-10.8,44.5-35,45c-17.5,0.4-32.2-9-36.6-24
	C124.3,182.2,142,159.9,167.7,160.6z M150.6,196.7c0,10.5,6.6,17.3,16.8,17.4c10.3,0,17.3-7.1,17.3-17.4c0-10.2-6.9-17.1-17.2-17.1
	C157.1,179.5,150.6,186.2,150.6,196.7z"/>
<g>
	<path d="M792.3,190.5c-12,0-23.9,0-35.8,0c0,5.3,0,10.4,0,15.9c5.7,0,11.2,0,17,0c-0.5,3.4-2.2,5.7-4.8,6.5
		c-3.6,1.1-7.5,1.9-11.3,1.8c-9.6-0.3-16.1-7.4-16.3-17.2c-0.2-10.5,5.7-17.5,15.5-18.6c7.4-0.8,13.8,1.5,19.7,6.2
		c3.9-5.3,7.7-10.4,11.6-15.6c-11.9-8.7-24.9-10.7-38.7-7.9c-13.1,2.6-22.6,10-26.4,23.1c-3.9,13.6-2.4,26.6,7.7,37.4
		c8.5,9.1,19.5,11.5,31.5,11c15-0.7,25.8-9.5,29.5-24c0.7-2.9,1.2-5.8,1.8-8.7c0-1.7,0-3.3,0-5C793,193.7,792.7,192,792.3,190.5z"/>
	<path d="M377.1,287.5c-11.3-12.8-22.1-25.1-32.7-37.1c-5.2,0-10,0-14.8,0c0,23.3,0,46.3,0,69.6c6.3,0,12.4,0,18.8,0
		c0-12.2,0-24.3,0-36.4c0.2-0.1,0.5-0.2,0.7-0.3c10.8,12.3,21.6,24.6,32.3,36.7c5.1,0,9.9,0,14.7,0c0-23.3,0-46.5,0-69.5
		c-6.4,0-12.5,0-19,0C377.1,262.7,377.1,274.8,377.1,287.5z"/>
	<path d="M349.9,105.6c11.4,13,22.3,25.3,32.8,37.3c5.2,0,10,0,14.8,0c0-23.2,0-46.3,0-69.3c-6.4,0-12.5,0-19,0
		c0,12.2,0,24.2,0,36.9c-11.2-12.8-21.9-24.9-32.5-36.9c-5.1,0-10,0-14.9,0c0,23.2,0,46.3,0,69.3c6.3,0,12.5,0,18.8,0
		C349.9,130.6,349.9,118.6,349.9,105.6z"/>
	<path d="M260.3,199c-11.2-12.7-21.9-24.9-32.5-37c-5,0-9.8,0-14.7,0c0,23.3,0,46.3,0,69.4c6.3,0,12.4,0,18.9,0
		c0-12.3,0-24.4,0-37.2c11.3,12.8,22.1,25.1,32.7,37.2c5.2,0,10,0,14.9,0c0-23.2,0-46.3,0-69.4c-6.4,0-12.6,0-19.2,0
		C260.3,174.3,260.3,186.3,260.3,199z"/>
	<path d="M665.3,194.3c11.2,12.8,22.1,25.1,32.7,37.2c5.1,0,9.9,0,14.8,0c0-23.2,0-46.3,0-69.4c-6.3,0-12.4,0-18.8,0
		c0,12.2,0,24.3,0,37.3c-11.4-13-22.2-25.2-32.8-37.3c-5.1,0-10,0-14.8,0c0,23.2,0,46.3,0,69.3c6.3,0,12.5,0,18.9,0
		C665.3,219.1,665.3,206.9,665.3,194.3z"/>
	<path d="M250.3,294.2c5.4-2,9.6-5,12.1-9.9c8.1-15.3-1.7-32.7-19.1-33.7c-10.3-0.6-20.7-0.3-31.1-0.4c-1,0-2,0.1-3.1,0.1
		c0,23.4,0,46.5,0,69.6c6.4,0,12.5,0,18.9,0c0-8.3,0-16.4,0-25.3c6.2,9,12,17.2,17.7,25.5c7.8,0,15.4,0,23.8,0
		c-3.5-4.7-6.6-8.8-9.7-13C256.7,302.8,253.6,298.6,250.3,294.2z M240,281.3c-3.9,0.7-7.8,0.6-11.9,0.9c0-5.2,0-10,0-14.7
		c3.9,0,7.7-0.3,11.4,0.1c3.7,0.4,5.7,3,5.8,6.6C245.4,278,243.7,280.7,240,281.3z"/>
	<path d="M518.6,281.6c4.2-12.3-0.1-29.2-20.2-30.9c-11.2-0.9-22.6-0.3-33.9-0.4c-0.2,0-0.3,0.2-0.5,0.3c0,23.1,0,46.2,0,69.4
		c6.3,0,12.4,0,18.9,0c0-8.3,0-16.5,0-25.5c6.3,9.1,12.1,17.4,17.7,25.5c8,0,15.7,0,23.8,0c-6.5-8.8-12.8-17.2-19.1-25.6
		C513.2,290.5,516.6,287.3,518.6,281.6z M495.4,281.2c-4,0.7-8.1,0.7-12.4,1c0-5.3,0-10,0-14.7c4,0,8-0.3,11.9,0.1
		c3.4,0.3,5.3,2.9,5.5,6.2C500.5,277.6,498.8,280.6,495.4,281.2z"/>
	<path d="M403.5,180.9c-1.1-9.5-8.2-17.3-19.1-18.2c-12.1-1-24.4-0.2-36.7-0.2c0,22.7,0,45.8,0,68.9c6.3,0,12.4,0,18.9,0
		c0-8.3,0-16.4,0-25.5c6.3,9.1,12.1,17.4,17.8,25.6c7.9,0,15.5,0,23.8,0c-6.6-8.9-12.9-17.3-19.2-25.7
		C400.3,201,404.9,192.9,403.5,180.9z M379.2,192.7c-4.1,0.7-8.2,0.7-12.6,1c0-5.3,0-9.9,0-15.4c4.5,0.4,8.9,0.5,13.2,1.3
		c3.2,0.6,4.3,3.5,4.2,6.6C383.9,189.5,382.5,192.2,379.2,192.7z"/>
	<path d="M633.6,275.4c-7.9,0-15.6,0-23.6,0c0-8.4,0-16.7,0-25c-6.6,0-12.7,0-18.8,0c0,23.3,0,46.4,0,69.6c6.3,0,12.4,0,19,0
		c0-9,0-18,0-26.9c8,0,15.6,0,23.6,0c0,9.1,0,18,0,27c6.4,0,12.4,0,18.7,0c0-23.4,0-46.5,0-69.7c-6.3,0-12.4,0-18.9,0
		C633.6,258.8,633.6,267.1,633.6,275.4z"/>
	<path d="M486.7,231.5c-9-23.3-18-46.3-26.9-69.4c-6.9,0-13.7,0-20.5,0c-9,23.2-17.9,46.2-26.9,69.4c7.3,0,14.1,0,21.1,0
		c1.5-4.3,2.9-8.6,4.4-12.9c7.9,0,15.7,0,23.5,0c1.5,4.3,2.9,8.7,4.4,12.9C472.7,231.5,479.5,231.5,486.7,231.5z M442.5,203.3
		c2.3-6.8,4.5-13.5,7-21.2c2.5,7.6,4.6,14.3,6.9,21.2C451.7,203.3,447.3,203.3,442.5,203.3z"/>
	<path d="M572.3,281.2c-5.4-3.2-11.1-5.8-16.6-8.8c-1.7-0.9-3.1-2.4-4.6-3.6c0.1-0.4,0.2-0.8,0.3-1.2c1-0.5,2-1.3,3.1-1.4
		c2.1-0.1,4.3-0.1,6.2,0.5c4.2,1.2,8.2,2.9,12.4,4.4c2.5-5.2,5.2-10.6,8-16.4c-10.3-5.1-20.8-7.3-31.9-5.2
		c-8.8,1.6-15.6,6-17.8,15.4c-2.3,10.1,1.9,19.4,11,24.4c5.2,2.9,10.7,5.3,15.9,8.1c1.5,0.8,2.7,2.2,4,3.3c-0.1,0.5-0.1,1-0.2,1.4
		c-1.6,0.6-3.3,1.9-4.8,1.7c-4.4-0.5-8.9-1.2-13.1-2.7c-3.6-1.2-6.7-3.6-10.2-5.5c-2.9,6.1-5.7,12-8.6,18c10.7,6,22,8.7,33.8,7.8
		c7.6-0.6,14.8-2.4,19.5-9C586,302.3,582.9,287.4,572.3,281.2z"/>
	<path d="M427.6,292.4c7.4,0,14.6,0,21.9,0c0-5.6,0-11,0-16.7c-7.4,0-14.7,0-22,0c0-2.8,0-5.2,0-8c8.5,0,16.8,0,25.2,0
		c0-5.9,0-11.5,0-17.3c-14.9,0-29.6,0-44.3,0c0,23.3,0,46.4,0,69.5c15.4,0,30.6,0,45.8,0c0-5.8,0-11.5,0-17.4c-9,0-17.8,0-26.6,0
		C427.6,298.9,427.6,295.7,427.6,292.4z"/>
	<path d="M231.9,122.9c5.7-0.4,11.1-0.4,16.5-1.1c12.5-1.8,19.9-10.7,20-23.4c0.1-13.3-6.9-22.7-19.7-24.1
		c-11.8-1.3-23.8-0.9-35.7-1.2c0,23.7,0,46.8,0,69.8c6.4,0,12.6,0,19,0C231.9,136.1,231.9,129.5,231.9,122.9z M232,90.4
		c3.3,0,6.7-0.3,9.9,0.1c4.3,0.4,6.9,3.6,6.8,7.6c-0.1,4-2.8,7.1-7,7.4c-3.2,0.3-6.4,0.1-9.7,0.1C232,100.4,232,95.4,232,90.4z"/>
	<path d="M113.9,251.3c-11.8-1.4-23.8-1.1-35.8-1.5c0,23.9,0,47.1,0,70.1c6.4,0,12.5,0,18.9,0c0-6.8,0-13.5,0-20.1
		c5.5-0.3,10.9-0.3,16.1-1c12.7-1.8,20.2-10.4,20.4-23.3C133.7,262.3,126.8,252.9,113.9,251.3z M113.7,275.4c-0.2,3.9-2.6,6.6-6.7,7
		c-3.2,0.3-6.5,0.1-10,0.1c0-5.1,0-10,0-15c3.7,0,7.4-0.4,10.9,0.1C111.8,268.1,113.9,271.4,113.7,275.4z"/>
	<path d="M321.3,125.5c-9,0-17.9,0-26.6,0c0-3.5,0-6.7,0-10.2c7.5,0,14.7,0,21.9,0c0-5.7,0-11.1,0-16.8c-7.5,0-14.7,0-21.9,0
		c0-2.7,0-5.1,0-7.8c8.5,0,16.8,0,25.1,0c0-6,0-11.6,0-17.1c-14.9,0-29.5,0-44.2,0c0,23.2,0,46.2,0,69.3c15.3,0,30.4,0,45.8,0
		C321.3,137.3,321.3,131.7,321.3,125.5z"/>
	<path d="M732.1,251.4c-11.8-1.4-23.8-0.8-35.7-1c-0.1,0-0.3,0.2-0.4,0.3c0,23.1,0,46.2,0,69.3c6.3,0,12.5,0,18.9,0
		c0-6.8,0-13.5,0-20.1c5.8-0.3,11.2-0.3,16.4-1c12.4-1.8,19.8-10.4,20.1-22.7C751.6,262.3,745.1,252.9,732.1,251.4z M725,282.4
		c-3.2,0.3-6.5,0.1-9.9,0.1c0-4.9,0-9.9,0-15.1c3.4,0,6.7-0.3,10,0.1c4.2,0.4,6.6,3.3,6.6,7.3C731.8,278.9,729.3,282,725,282.4z"/>
	<path d="M508.2,230.5c9.3,3.3,18.7,3.3,28.1,0.9c4.7-1.2,9.2-3,13.1-6.2c-3.4-5.5-6.6-10.7-10-16.3c-5.4,3.9-11,5.7-17.3,5.3
		c-7.8-0.5-14.2-5.3-16.1-12.3c-3.7-13.2,6.7-24.9,20.5-22.6c4.5,0.7,8.8,2.8,13.4,4.3c3-4.9,6.3-10.2,9.6-15.6
		c-12-7.7-24.7-9.4-38.1-6.1c-9.7,2.4-17.3,7.8-22.1,16.7c-3.8,6.9-4.8,14.5-4,22.2C486.8,215.4,494.3,225.5,508.2,230.5z"/>
	<path d="M111.3,232.6c6.8-0.9,13.1-3.1,19-7.3c-1.7-2.8-3.3-5.5-4.9-8.1c-1.7-2.7-3.4-5.4-5-8c-2.4,1.3-4.5,2.5-6.7,3.5
		c-8.2,3.4-18.5,1.4-23.5-4.4c-4.7-5.4-5.5-13.8-1.9-20.3c3.3-6.1,11.4-10.1,19.1-8.7c4.5,0.8,8.8,2.8,13.5,4.3
		c3-4.8,6.2-10.1,9.5-15.4c-6.9-5.3-16-8-27.4-7.8c-18.7,0.3-35,11.5-36.8,33.2c-1.2,15,5.9,28.9,19,35.3
		C93.3,233,102.2,233.8,111.3,232.6z"/>
	<path d="M157,250.4c-9,23.2-18,46.3-27,69.6c7.3,0,14.1,0,21.1,0c5.3-16.3,10.6-32.4,16.2-49.3c5.6,17.1,10.8,33.3,16.1,49.4
		c7.1,0,13.8,0,21.1,0c-9.1-23.5-18.1-46.6-27-69.7C170.5,250.4,163.9,250.4,157,250.4z"/>
	<path d="M268.6,267.8c5.8,0,11.4,0,17.3,0c0,17.5,0,34.8,0,52.2c6.4,0,12.6,0,19.1,0c0-17.4,0-34.7,0-52.2c6,0,11.6,0,17.3,0
		c0-5.9,0-11.5,0-17.3c-18.1,0-35.9,0-53.7,0C268.6,256.3,268.6,261.9,268.6,267.8z"/>
	<path d="M607.8,162.1c-17.9,0-35.7,0-53.6,0c0,5.7,0,11.2,0,17.3c5.9,0,11.5,0,17.3,0c0,17.5,0,34.7,0,52.1c6.4,0,12.5,0,19.1,0
		c0-17.3,0-34.6,0-52.2c6,0,11.6,0,17.2,0C607.8,173.3,607.8,167.7,607.8,162.1z"/>
	<path d="M340.4,162.1c-18,0-35.8,0-53.7,0c0,5.7,0,11.3,0,17.3c5.8,0,11.5,0,17.5,0c0,17.6,0,34.8,0,52c6.4,0,12.6,0,19.1,0
		c0-17.4,0-34.7,0-52.3c6,0,11.6,0,17.2,0C340.4,173.3,340.4,167.8,340.4,162.1z"/>
	<path d="M665,320c6.3,0,12.3,0,18.7,0c0-23.4,0-46.5,0-69.7c-6.3,0-12.5,0-18.7,0C665,273.7,665,296.8,665,320z"/>
	<path d="M634,161.9c-5.5,0-10.8,0-16.1,0c-0.8,0-1.6,0.1-2.5,0.1c0,23.2,0,46.3,0,69.4c6.4,0,12.5,0,18.7,0
		C634,208.2,634,185.2,634,161.9z"/>
</g>
</svg>
