<?xml version="1.0" encoding="utf-8"?>
<!-- Generator: Adobe Illustrator 25.2.3, SVG Export Plug-In . SVG Version: 6.00 Build 0)  -->
<svg version="1.1" xmlns="http://www.w3.org/2000/svg" xmlns:xlink="http://www.w3.org/1999/xlink" x="0px" y="0px"
	 viewBox="0 0 513.6 513.4" style="enable-background:new 0 0 513.6 513.4;" xml:space="preserve">
<style type="text/css">
	.st0{opacity:0.5;}
	.st1{display:none;opacity:0.4;}
	.st2{opacity:0.4;}
	.st3{opacity:0.7;}
</style>
<g id="Capa_2">
</g>
<g id="Capa_1">
	<path class="st0" d="M273.6,20.5c-6-0.8-12.1-1.3-18.3-1.3c-7.4,0-14.7,0.6-21.7,1.8c7.6-0.7,15.4-1.1,23.2-1.1
		C262.4,19.9,268,20.1,273.6,20.5z"/>
	<path class="st1" d="M147.7,231.3c-9.3,6.2-15.2,15.6-15.2,26.1c0,18.6,18.5,33.6,41.2,33.6c15.6,0,29.1-7,36.1-17.4
		C185.5,265.3,164.1,250.6,147.7,231.3z"/>
	<g>
		<path class="st2" d="M63.7,239.2c1.7-2.4,3.5-4.7,5.4-6.9h-5.4V239.2z"/>
		<path class="st2" d="M444.7,232.1c3.9,4.6,7.5,9.6,10.8,14.7c0.2-0.9,0.3-1.8,0.3-2.8C455.7,237.6,450.8,232.3,444.7,232.1z"/>
		<path class="st2" d="M273.6,20.5c63.1,8.9,111.7,63.1,111.7,128.7c0,14.3-2.3,28.1-6.6,41c19.9,5.3,37.9,15.1,52.8,28.4h12.4
			c0.6,0,1.3,0,2,0c13.2,0,23.8,11.3,23.8,25.2c0,6.7-2.5,12.8-6.6,17.4c7.7,16.6,12,35.1,12,54.7c0,71.8-58.2,130-130,130
			c-34.1,0-65.1-13.1-88.3-34.6c-23.2,21.4-54.2,34.6-88.3,34.6c-71.8,0-130-58.2-130-130c0-18.9,4.1-36.9,11.3-53.1v-44h5h8.7h18.7
			c14.2-12.6,31.1-22.1,49.8-27.6c-4.5-13.1-6.9-27.2-6.9-41.9c0-64.4,46.8-117.8,108.3-128.1C113.7,32.7,20,133.8,20,256.7
			c0,130.8,106,236.8,236.8,236.8s236.8-106,236.8-236.8C493.6,131.6,396.5,29.1,273.6,20.5z"/>
		<path class="st2" d="M125.3,149.2c0,14.6,2.4,28.7,6.9,41.9c11.6-3.4,23.8-5.2,36.5-5.2c33,0,63.1,12.3,86.1,32.6l4.4,0
			c22.9-20.3,53.1-32.6,86.1-32.6c11.6,0,22.8,1.5,33.5,4.4c4.3-12.9,6.6-26.7,6.6-41c0-65.6-48.6-119.8-111.7-128.7
			c-5.6-0.4-11.2-0.6-16.8-0.6c-7.8,0-15.6,0.4-23.2,1.1C172.1,31.4,125.3,84.8,125.3,149.2z"/>
		<path class="st0" d="M125.3,149.2c0,14.6,2.4,28.7,6.9,41.9c11.6-3.4,23.8-5.2,36.5-5.2c33,0,63.1,12.3,86.1,32.6l4.4,0
			c22.9-20.3,53.1-32.6,86.1-32.6c11.6,0,22.8,1.5,33.5,4.4c4.3-12.9,6.6-26.7,6.6-41c0-65.6-48.6-119.8-111.7-128.7
			c-5.6-0.4-11.2-0.6-16.8-0.6c-7.8,0-15.6,0.4-23.2,1.1C172.1,31.4,125.3,84.8,125.3,149.2z"/>
		<path class="st2" d="M215.2,315.8c0-9.5,1-18.8,3-27.8c-9.7,8-23.1,13-38,13c-24.6,0-45.3-13.6-51.5-32.1c-2.2,1-4.1,1.5-5.1,1.7
			c-0.5,0.1-1.4,0.2-1.9,0.2h-1.5h-0.6H63.7v30.1H50v-38.2c-7.3,16.2-11.3,34.2-11.3,53.1c0,71.8,58.2,130,130,130
			c34.1,0,65.1-13.1,88.3-34.6C231.3,387.5,215.2,353.5,215.2,315.8z"/>
		<path class="st2" d="M215.2,315.8c0-9.5,1-18.8,3-27.8c-9.7,8-23.1,13-38,13c-24.6,0-45.3-13.6-51.5-32.1c-2.2,1-4.1,1.5-5.1,1.7
			c-0.5,0.1-1.4,0.2-1.9,0.2h-1.5h-0.6H63.7v30.1H50v-38.2c-7.3,16.2-11.3,34.2-11.3,53.1c0,71.8,58.2,130,130,130
			c34.1,0,65.1-13.1,88.3-34.6C231.3,387.5,215.2,353.5,215.2,315.8z"/>
		<path class="st2" d="M117.4,218.6c1.4,0,14.6,0.6,21.5,11c2.7-2.6,5.7-5,9.1-7.1c-6.6-9.6-12-20.2-15.8-31.5
			c-18.7,5.5-35.6,15-49.8,27.6L117.4,218.6L117.4,218.6z"/>
		<path class="st2" d="M117.4,218.6c1.4,0,14.6,0.6,21.5,11c2.7-2.6,5.7-5,9.1-7.1c-6.6-9.6-12-20.2-15.8-31.5
			c-18.7,5.5-35.6,15-49.8,27.6L117.4,218.6L117.4,218.6z"/>
		<path class="st2" d="M63.7,257.1H117c0,0,8.1-0.2,10.4-6.7c0.2-0.8,0.4-1.6,0.6-2.4c0.1-0.6,0.1-1.3,0.1-2
			c-0.2-7.4-4.6-13.7-11.6-13.7H69.1c-1.9,2.2-3.7,4.5-5.4,6.9V257.1z"/>
		<path class="st2" d="M63.7,257.1H117c0,0,8.1-0.2,10.4-6.7c0.2-0.8,0.4-1.6,0.6-2.4c0.1-0.6,0.1-1.3,0.1-2
			c-0.2-7.4-4.6-13.7-11.6-13.7H69.1c-1.9,2.2-3.7,4.5-5.4,6.9V257.1z"/>
		<path class="st2" d="M156.2,233.3c-8.6,5.7-14,14.3-14,24.1c0,17.1,17,31,38,31c14.4,0,26.8-6.5,33.3-16.1
			C191,264.6,171.3,251,156.2,233.3z"/>
		<path class="st2" d="M180.2,213.7c14.9,0,28.3,5,38,13v-8.3l36.5,0c-22.9-20.3-53.1-32.6-86.1-32.6c-12.7,0-24.9,1.8-36.5,5.2
			c3.8,11.3,9.2,21.9,15.8,31.5C157,217,168.1,213.7,180.2,213.7z"/>
		<path class="st0" d="M180.2,213.7c14.9,0,28.3,5,38,13v-8.3l36.5,0c-22.9-20.3-53.1-32.6-86.1-32.6c-12.7,0-24.9,1.8-36.5,5.2
			c3.8,11.3,9.2,21.9,15.8,31.5C157,217,168.1,213.7,180.2,213.7z"/>
		<path class="st2" d="M180.2,213.7c14.9,0,28.3,5,38,13v-8.3l36.5,0c-22.9-20.3-53.1-32.6-86.1-32.6c-12.7,0-24.9,1.8-36.5,5.2
			c3.8,11.3,9.2,21.9,15.8,31.5C157,217,168.1,213.7,180.2,213.7z"/>
		<path class="st2" d="M180.2,226.3c-9.1,0-17.5,2.6-24,7c15.1,17.7,34.8,31.4,57.3,39c3-4.4,4.7-9.5,4.7-15
			C218.2,240.2,201.2,226.3,180.2,226.3z"/>
		<path class="st0" d="M180.2,226.3c-9.1,0-17.5,2.6-24,7c15.1,17.7,34.8,31.4,57.3,39c3-4.4,4.7-9.5,4.7-15
			C218.2,240.2,201.2,226.3,180.2,226.3z"/>
		<path class="st2" d="M180.2,226.3c-9.1,0-17.5,2.6-24,7c15.1,17.7,34.8,31.4,57.3,39c3-4.4,4.7-9.5,4.7-15
			C218.2,240.2,201.2,226.3,180.2,226.3z"/>
		<path class="st2" d="M233.8,232v16.8c3.6-5.9,7.6-11.6,12.1-16.8L233.8,232z"/>
		<path class="st0" d="M233.8,232v16.8c3.6-5.9,7.6-11.6,12.1-16.8L233.8,232z"/>
		<path class="st2" d="M233.8,232v16.8c3.6-5.9,7.6-11.6,12.1-16.8L233.8,232z"/>
		<path class="st2" d="M335.9,251.2h30.6v13.5H318v22.7h59v-55.3h-21.6C349.6,239.1,343,245.5,335.9,251.2z"/>
		<path class="st3" d="M335.9,251.2h30.6v13.5H318v22.7h59v-55.3h-21.6C349.6,239.1,343,245.5,335.9,251.2z"/>
		<path class="st2" d="M294.3,282.2c3.7-3,6.6-7.2,8.3-11.9c-3.5,1.4-7.2,2.6-10.8,3.7C292.7,276.7,293.5,279.4,294.3,282.2z"/>
		<path class="st3" d="M294.3,282.2c3.7-3,6.6-7.2,8.3-11.9c-3.5,1.4-7.2,2.6-10.8,3.7C292.7,276.7,293.5,279.4,294.3,282.2z"/>
		<path class="st2" d="M448,268.9l23,32l-16.6,0l-22.5-31.3h-41.4v17.8v13.5H377h-59h-11.1h-2.5v-9.2c-2.2,2-4.6,3.7-7.2,5.1
			c0.9,6.2,1.4,12.6,1.4,19c0,37.7-16.1,71.7-41.7,95.4c23.2,21.4,54.2,34.6,88.3,34.6c71.8,0,130-58.2,130-130
			c0-19.5-4.3-38-12-54.7C459.3,265.5,454,268.3,448,268.9z"/>
		<path class="st3" d="M448,268.9l23,32l-16.6,0l-22.5-31.3h-41.4v17.8v13.5H377h-59h-11.1h-2.5v-9.2c-2.2,2-4.6,3.7-7.2,5.1
			c0.9,6.2,1.4,12.6,1.4,19c0,37.7-16.1,71.7-41.7,95.4c23.2,21.4,54.2,34.6,88.3,34.6c71.8,0,130-58.2,130-130
			c0-19.5-4.3-38-12-54.7C459.3,265.5,454,268.3,448,268.9z"/>
		<path class="st2" d="M377,218.6h3.7h9.8h41c-14.9-13.3-32.9-23.1-52.8-28.4c-3.3,10.1-7.9,19.6-13.5,28.4H377z"/>
		<path class="st3" d="M377,218.6h3.7h9.8h41c-14.9-13.3-32.9-23.1-52.8-28.4c-3.3,10.1-7.9,19.6-13.5,28.4H377z"/>
		<path class="st2" d="M444.4,232.1h-0.5h-19.1h-34.3v24h34.7h19.3c5.4,0,9.8-3.9,11-9.2c-3.2-5.2-6.8-10.1-10.8-14.7
			C444.6,232.1,444.5,232.1,444.4,232.1z"/>
		<path class="st3" d="M444.4,232.1h-0.5h-19.1h-34.3v24h34.7h19.3c5.4,0,9.8-3.9,11-9.2c-3.2-5.2-6.8-10.1-10.8-14.7
			C444.6,232.1,444.5,232.1,444.4,232.1z"/>
		<path class="st2" d="M259.2,218.4l22.4,0c8.7,0.2,16.6,3.6,22.9,9.2v-9.1h2.5H318h47.2c5.6-8.8,10.1-18.3,13.5-28.4
			c-10.7-2.8-21.9-4.4-33.5-4.4C312.2,185.8,282.1,198.2,259.2,218.4z"/>
		<path class="st0" d="M259.2,218.4l22.4,0c8.7,0.2,16.6,3.6,22.9,9.2v-9.1h2.5H318h47.2c5.6-8.8,10.1-18.3,13.5-28.4
			c-10.7-2.8-21.9-4.4-33.5-4.4C312.2,185.8,282.1,198.2,259.2,218.4z"/>
		<path class="st3" d="M259.2,218.4l22.4,0c8.7,0.2,16.6,3.6,22.9,9.2v-9.1h2.5H318h47.2c5.6-8.8,10.1-18.3,13.5-28.4
			c-10.7-2.8-21.9-4.4-33.5-4.4C312.2,185.8,282.1,198.2,259.2,218.4z"/>
		<path class="st2" d="M318,251.2h17.9c7.1-5.7,13.7-12,19.5-19H318V251.2z"/>
		<path class="st0" d="M318,251.2h17.9c7.1-5.7,13.7-12,19.5-19H318V251.2z"/>
		<path class="st3" d="M318,251.2h17.9c7.1-5.7,13.7-12,19.5-19H318V251.2z"/>
		<path class="st2" d="M280,231.9l-12,0c10.4,12.3,18.5,26.5,23.8,42c3.7-1.1,7.3-2.3,10.8-3.7c1.2-3.2,1.8-6.8,1.8-10.5
			C304.5,244.7,293.6,232.4,280,231.9z"/>
		<path class="st0" d="M280,231.9l-12,0c10.4,12.3,18.5,26.5,23.8,42c3.7-1.1,7.3-2.3,10.8-3.7c1.2-3.2,1.8-6.8,1.8-10.5
			C304.5,244.7,293.6,232.4,280,231.9z"/>
		<path class="st3" d="M280,231.9l-12,0c10.4,12.3,18.5,26.5,23.8,42c3.7-1.1,7.3-2.3,10.8-3.7c1.2-3.2,1.8-6.8,1.8-10.5
			C304.5,244.7,293.6,232.4,280,231.9z"/>
		<path class="st2" d="M298.7,315.8c0-6.5-0.5-12.8-1.4-19c-3.9,2.1-8.1,3.5-12.6,4l-66.5,0.2v-13c0,0,0,0,0,0c-2,9-3,18.3-3,27.8
			c0,37.7,16.1,71.7,41.7,95.4C282.6,387.5,298.7,353.5,298.7,315.8z"/>
		<path class="st2" d="M298.7,315.8c0-6.5-0.5-12.8-1.4-19c-3.9,2.1-8.1,3.5-12.6,4l-66.5,0.2v-13c0,0,0,0,0,0c-2,9-3,18.3-3,27.8
			c0,37.7,16.1,71.7,41.7,95.4C282.6,387.5,298.7,353.5,298.7,315.8z"/>
		<path class="st3" d="M298.7,315.8c0-6.5-0.5-12.8-1.4-19c-3.9,2.1-8.1,3.5-12.6,4l-66.5,0.2v-13c0,0,0,0,0,0c-2,9-3,18.3-3,27.8
			c0,37.7,16.1,71.7,41.7,95.4C282.6,387.5,298.7,353.5,298.7,315.8z"/>
		<path class="st2" d="M255.3,279.1c-7.3,0-14.5-0.6-21.5-1.8v10H283c4.2-0.7,8-2.5,11.3-5.2c-0.7-2.8-1.6-5.5-2.5-8.3
			C280.2,277.3,268,279.1,255.3,279.1z"/>
		<path class="st2" d="M255.3,279.1c-7.3,0-14.5-0.6-21.5-1.8v10H283c4.2-0.7,8-2.5,11.3-5.2c-0.7-2.8-1.6-5.5-2.5-8.3
			C280.2,277.3,268,279.1,255.3,279.1z"/>
		<path class="st3" d="M255.3,279.1c-7.3,0-14.5-0.6-21.5-1.8v10H283c4.2-0.7,8-2.5,11.3-5.2c-0.7-2.8-1.6-5.5-2.5-8.3
			C280.2,277.3,268,279.1,255.3,279.1z"/>
		<path class="st2" d="M255.3,279.1c12.7,0,24.9-1.8,36.5-5.2c-5.3-15.5-13.4-29.7-23.8-42l-22.1,0c-4.5,5.3-8.5,10.9-12.1,16.8
			v28.6C240.8,278.5,248,279.1,255.3,279.1z"/>
		<path class="st0" d="M255.3,279.1c12.7,0,24.9-1.8,36.5-5.2c-5.3-15.5-13.4-29.7-23.8-42l-22.1,0c-4.5,5.3-8.5,10.9-12.1,16.8
			v28.6C240.8,278.5,248,279.1,255.3,279.1z"/>
		<path class="st2" d="M255.3,279.1c12.7,0,24.9-1.8,36.5-5.2c-5.3-15.5-13.4-29.7-23.8-42l-22.1,0c-4.5,5.3-8.5,10.9-12.1,16.8
			v28.6C240.8,278.5,248,279.1,255.3,279.1z"/>
		<path class="st3" d="M255.3,279.1c12.7,0,24.9-1.8,36.5-5.2c-5.3-15.5-13.4-29.7-23.8-42l-22.1,0c-4.5,5.3-8.5,10.9-12.1,16.8
			v28.6C240.8,278.5,248,279.1,255.3,279.1z"/>
	</g>
</g>
</svg>
