<svg xmlns="http://www.w3.org/2000/svg" xml:space="preserve" style="enable-background:new 0 0 850.4 370.7" viewBox="0 0 850.4 370.7"><path d="M314.5 177.3c-3.9 3.6-7.5 7.4-11.5 10.8-2.3 2-4.4 4.7-8.8 4-2.4-6.8-4.7-14.1-7.7-21s-6.4-13.7-10.3-20.2c-4-6.6-8.8-12.7-13.2-19.1 1.7-2.9 3.8-6.1 5.6-9.6 3.2-6.3 3.8-13.1 2.4-20-1-5.3-4.3-9.2-7.7-12.9-4.1-4.4-8.6-8.3-13.8-11.3-9-5.3-18.5-9.6-28.7-12.1-5.3-1.3-10.7-1.8-16-2.7-6.6-1-13.2-.7-19.7.4-3 .5-5.6.8-8.4-1.9-7.1-6.8-16-9.9-25.7-10.6-5.6-.4-10.9 1.3-16.1 3.3-.8.3-1.4 1.4-2.4 2.5 8.8 4.9 18.6 6.8 25.4 14.4-.3.9-.6 2-.8 2.4-9.3 5.6-15.7 13.6-23.1 20.5-7.9-2.7-11.7-2.3-16.5-1.1-12.4 2.9-22.5 10-31.6 18.6-7.9 7.4-14.5 15.8-19.8 25.3-4.3 7.8-7.3 16-8.9 24.3-4.6 2.9-9 5.5-13.2 8.4-5.1 3.6-8.7 8.6-10.5 14.4-1.7 5.3-2.3 10.9-3.2 16.4-.2.9.5 1.9.8 3.2 5.6-5.1 10.6-9.7 15.7-14.2 2.5-2.2 5.2-4.5 9.3-3.9 2.9 12.4 7.4 24.3 13.3 35.5 5.9 11.3 12.4 22.4 18.9 34-1.6 3.7-2.7 7.9-2.9 12.5-.2 4.8.4 9.4 3 13.5 6 9.1 14 16 23.6 21.1 10.6 5.6 21.7 10.1 33.7 11.8 3.2.5 6.4 1 9.6 1.1 3.6.2 7.2.2 10.8 0 3.6-.2 7.1-.7 10.8-1 3.6 4.2 8 7.5 13 10 8.7 4.2 17.8 4.2 26.9 2.3 1.6-.3 3.1-1.3 4.3-1.8v-4.4c-4.6-2.1-9-3.8-13.3-6-2.8-1.4-5.4-3.2-7.8-5.2-1.9-1.6-1.5-3 .5-4.5 3.1-2.4 6.2-4.8 9.1-7.4 3.6-3.1 7-6.4 10.5-9.6 6.2 3 12.6 2.9 18.9.6 8.3-3 15.9-7.5 22.4-13.5 6.8-6.4 13.3-13.2 18.5-21.1 7.1-10.8 12.4-22.3 14.1-35.4.2-1.3 1.7-2.6 2.9-3.4 2.7-1.9 5.7-3.3 8.2-5.4 6.1-5 10.1-11.4 11.5-19.3.9-4.5 1.6-9 .9-14.4-1.2.8-2.3 1-3 1.7zM153.3 85.2c2.3-1.9 4.7-3.6 7.2-5.2 3.3-2.2 3.5-8.3 1-11.5-2.4-3.1-5.5-5.7-8.3-8.5-.5-.5-.9-1-1.3-2.1.9 0 2-.3 2.8 0 6.3 2.9 12.5 5.8 18.7 8.8 1.7.8 3.3 2 5.1 2.2 3.5.3 7.1.1 10.7.1h8.1c8 0 15.7 1.5 23.3 3.7 8.5 2.4 16.5 5.9 23.7 11 6.4 4.5 13 9 17.2 15.9 1.8 3 3.2 6.3 4.2 9.7.5 1.6 0 3.9-.8 5.4-2.2 4-4.9 7.8-7.3 11.8-4.8-4.8-8.9-9.3-13.4-13.4-5.7-5.2-11.9-9.8-19.5-11.8-5.5-1.5-11.7 1.1-15.2 5.5-9.6 12.2-13.7 26.7-17.7 41.2-1.2 4.6-2.2 9.2-3.3 14.1-7.2 2.1-14.6 4.2-22.3 6.4-.2-.8-.5-1.5-.5-2.2 0-14.5-3.2-28.4-7.9-42.1-2.1-6-4-12.2-8.3-17.2-2.5-2.9-5.3-5.5-7.9-8.2-.5-.5-1-.9-2-1.7 4.6-4.1 9.1-8.1 13.7-11.9zm99.2 45.1c-15.4 15.9-36.3 21.1-56.4 29 .6-3.3.9-6.2 1.8-8.8 2.6-7.4 5.3-14.9 8.4-22.1 2.6-6.1 7.3-10.4 14-11.6 5-.9 9.9-.5 14.6 1.5 6.6 2.9 12.3 7.3 17.6 12zm-67.1 47.5v20c-7.6 1.9-14.8 3.7-22.1 5.6.8-7.1 1.6-14.3 2.5-21.6 6.6-1.3 13.1-2.6 19.6-4zm-38.3-59.7c4.9 7.5 7.2 16.1 8.8 24.8.8 4.4.8 9 1.1 13.6.3 4.5.5 9.1.8 13.6-9.8 2.1-19.3 3.4-28.9 2.9-8.2-.5-14.9-4.6-18-12.9-3.4-8.9-2-17.5 1.7-25.9 1.8-4 3.9-7.8 5.9-11.7 3.4-6.5 8.4-11.6 12.9-17.2 7.4 1.8 11.9 6.9 15.7 12.8zM85 232.6c-6.4-9.7-11.9-20-16.7-30.6-2.6-5.8-5-11.8-7.3-17.7-1.4-3.4-5.8-5.4-10-3.7-3.3 1.4-6.3 3.6-9.3 5.5-1.2.8-2.2 2-3.2 3-.2.3-.5.6-.7.9-.1-.1-.3-.1-.4-.2.2-.6.5-1.2.7-1.8 2.6-6.3 6.1-12 11.9-15.9 2.6-1.8 5.4-3.5 8.4-4.7 2.3-.9 3.4-2.5 4.1-4.5 3.9-10.3 9.4-19.8 16.2-28.5 7-9.1 15.3-16.9 25-23 6.3-4 13.2-6.4 21.2-6.7-2 2.6-3.8 4.9-5.6 7.3-6.7 8.6-12.9 17.6-17.6 27.4-3.2 6.6-6.1 13.4-7.1 20.7-.6 4.2-.8 8.6.9 12.7 1.6 3.9 5 5.7 8.5 7.1 6.2 2.5 12.7 3.6 19.4 3.7 5.2.1 10.4.6 15.5.4 5.4-.2 10.7-1 16.1-1.5.6-.1 1.2 0 2.5 0-1.1 8.1-2.3 16-3.4 24.1-22.1 9.4-42.2 21.6-59.8 38.4-3-3.7-6.3-7.9-9.3-12.4zm65.8-14.8c-1.3 3.7-2.3 6.9-3.5 10.1-3.5 9-8 17.5-13.8 25.1-4.7 6.1-10.6 10.4-18.9 9.2-2.1-.3-4.4-1.3-6.1-2.6-3.4-2.7-6.5-5.8-10-8.9 14.6-15.7 32.6-24.9 52.3-32.9zm45.4 81.9c-5 4.1-4.9 7.8-.8 12.7 2.8 3.3 6 6.3 10.1 8.2.5.2.9.9 1.3 1.3-12.2-1.1-21.8-7-30-15-7.6.5-14.8 1.2-22.1 1.3-9.9.1-19.6-1.8-28.4-6.7-7.3-4.1-14.8-7.9-21.4-12.9-6.8-5-11.8-11.8-13.6-20.4-.5-2.6.3-5.6.5-8.9 4.7 4.8 8.5 9.1 12.8 13 3.9 3.6 8.3 6.5 13.4 8.4 8.3 3.1 13.4-.1 17.6-5.5 4.1-5.2 7.7-10.9 10.6-16.9 4.8-10.1 8.6-20.6 11.2-31.5 1-4.3 2.3-8.6 3.6-13.4 7.8-2.4 16-4.9 24.3-7.5 1 12.2 3 23.6 6 34.9 2.6 9.7 5.4 19.3 10 28.2 2.5 5 5.5 9.7 10.2 13.2.8.6 1.1 1.7 1.8 2.9-5.8 5.1-11.4 9.9-17.1 14.6zm27.5-25.2c-8.6-2.7-14-8.5-18-15.7-4.5-8.2-7-17.1-8.4-26.3-1.2-7.9-2.1-15.8-3.2-23.8-.2-1.3-.4-2.6-.7-4.1 9.1-1.7 18.1-2.8 27.1-2.3 6.9.4 13.9 1 20.2 4.2 6.1 3.1 9 8.7 10.3 15.2 1.9 9.4-2 17.3-6.6 24.9-4 6.7-8.5 13-13 19.3-2.2 3-5.1 5.7-7.7 8.6zm84-79.5c-3.6 5.9-8.6 10.4-14 14.5-1.4 1-2.6 2.4-3.4 3.9-5.3 10.2-10.5 20.4-17.1 29.8-5.7 8.2-12.2 15.8-19.6 22.4-4.7 4.2-9.8 8.1-16.5 8.8-1.7.2-3.4.3-5.3.5 5.5-7.3 11.1-14.1 16.1-21.4 6.6-9.7 12.2-20 14.9-31.6 1.2-5.3 1.8-10.7-.7-16.1-1.8-3.9-5.4-5.4-8.9-6.8-6.2-2.5-12.8-3.7-19.6-3.8-5.4-.1-10.7-.6-16.1-.4-6.2.2-12.3 1-18.4 1.5-1.9.2-3.9.3-5.7.4v-21.8c24.4-8.6 45.8-21.8 65.1-38.9 2.2 2.6 4.6 5.1 6.6 7.8 5.7 7.9 11 16 14.7 25 3.4 8 6.3 16.3 9.3 24.4 1.6 4.4 6.6 6.2 10.5 3.7 2.5-1.6 4.9-3.2 7.5-4.8.3-.2.8-.1 1.7-.2-.5 1.5-.7 2.3-1.1 3.1zM487.7 152.7c-10.8 26.7-21.4 53.1-32.2 79.8h21.6c2-5.3 3.9-10.4 5.9-15.5h35c2.2 5.3 4.4 10.4 6.6 15.5h21.8c-11.9-26.8-23.6-53.3-35.3-79.8h-23.4zm.8 49.4c3.7-9.7 7.2-19.1 11-29.2 4.2 10 8.1 19.5 12.2 29.2h-23.2zM823.6 198.7c0-2-.2-3.9-.5-5.9-2.8-14.9-18.9-19.3-29.8-12.7-2.2 1.3-4.3 2.8-6.8 4.5v-6.3h-17v54h17.1v-32.5c0-.8 0-1.9.4-2.4 1.7-2.1 3.5-4.1 5.4-6 2.6-2.6 5.7-3 8.9-1.7 3.6 1.5 4.5 4.8 4.5 8.4v34.2h17.6c.1-.3.2-.6.2-.8v-32.8zM755.2 191.2c-5.8-9.6-14.9-13.4-25.7-14-5.2-.3-10.4.6-15.2 2.7-6.8 3-12.2 7.6-14.7 15-1.6 4.8-2.2 9.6-1.5 14.8.8 5.7 3 10.6 6.8 14.7 6.3 6.5 14.2 9.4 23.4 9.2 3.4-.5 6.8-.6 10.1-1.5 6.1-1.8 11.4-4.9 15.4-10.2 5.1-6.7 4.9-14.4 4.4-22.1-.2-3-1.5-6.1-3-8.6zm-16.8 24.3c-1.3 3.7-4.6 6.9-8.9 7.1-6.5.3-9.7-2.5-11.3-7-1.1-3.1-1.5-6.5-2.2-9.8.2 0 .4-.1.6-.1-.1-4.5.2-8.9 2.8-13 2.4-3.7 5.9-5.2 9.9-5 5 .2 8.4 3.5 9.7 8.2 1.7 6.6 1.8 13.2-.6 19.6zM451.1 197.8c-2.2-9.5-8.1-16-17.4-19.1-4.6-1.5-9.4-1.9-14.3-1.2-7.3 1.1-13.3 4.3-17.8 10.2-5.2 6.8-6.5 14.5-5.3 22.9 1.5 10.1 7.4 16.8 16.5 20.2 9.9 3.7 20.1 3.3 30.1-.2 3-1.1 5.8-2.8 8.2-4.1v-11.4c-.8.3-1.5.5-2 .9-3.4 2.8-7.4 4.7-11.7 5.8-5.2 1.3-10.6 1.5-15.5-.9-4.9-2.5-7.7-6.7-8.1-12.5h38.7c-.5-3.7-.6-7.2-1.4-10.6zm-37 1.2c1.4-7.7 5.8-12 11.7-11.3 6.6.8 10 3.9 10.6 11.3h-22.3zM579.6 220.2c-7-1.8-11.7-9.7-10.5-17.7 1.4-9.5 11.9-13.6 19-12.1 3.7.8 7.2 2 10.8 3v-12.9c-2-.6-3.9-1.3-5.8-1.8-8.5-2-16.8-2.5-25.2.8-16.6 6.4-21.3 24.5-14.7 38.6 4.4 9.4 12.9 13.7 22.8 14.7 8.2.8 16.4.1 24-3.4v-12.5c-2.4.8-4.5 1.5-6.7 2.1-4.6 1.5-9 2.5-13.7 1.2zM639.4 220.6c-4.6-.7-8.2-3-10.4-6.7-3.3-5.5-3.7-11.7 1-18.3 2.7-3.8 11.1-6.5 16.1-5.1 3.6 1 7.2 2 10.9 3V181c-.7-.4-1.3-.8-2-1-7.9-2.3-15.8-3.7-24.1-1.9-7.7 1.6-13.6 5.5-18.1 11.8-3.8 5.4-4.6 11.6-4.3 18 .2 6.4 2.5 12 6.9 16.5 8.5 8.8 19.4 9.6 30.7 8.4 3.9-.4 7.8-1.8 11.4-2.7v-12.8c-.6.2-1 .3-1.4.4-5.6 1.5-10.8 3.8-16.7 2.9zM377.1 179.3c-2.6 2-4.7 4.7-6.9 7.3-1.3 1.5-2.1 3.5-3.1 5.2-.2 0-.4-.1-.5-.1v-13.4h-17.1v54.1h17.1c0-6.3.1-12.5 0-18.7-.1-7.6 3.7-13.3 8.7-18.3 1.6-1.6 3.8-2.5 6.2-1.6 3 1.1 5.9 2.2 9.1 3.4 1.5-4.8 3.1-10 4.7-15-1.1-.8-2-1.5-3-2.1-5-2.9-10.2-4.5-15.2-.8zM672.1 184.7c.3 6.4.7 12.9 1 19.3.4 8.3.9 16.5 1 24.8 0 5.4 4 7.3 8.8 4.6.4-1 1-2 1.1-3.2.3-3.4.4-6.9.6-10.3.3-5.9.7-11.8 1-17.8.4-7.4.7-14.8 1.1-22.2.3-7.4.7-14.8 1-22.2.1-2.8-1.3-4.8-4-5.1-3-.3-6.1-.3-9.1.2-3.4.5-4.3 1.9-4.2 5.5 0 2 .4 3.9.5 5.9.5 6.9.9 13.7 1.2 20.5zM680.3 241.3c-8.7.3-13.8 4.8-13.9 12.7-.1 6.1 5.1 13.1 12.8 12.5 7.4 1 12.7-6.4 12.9-12.1.2-7.3-6.3-13.3-11.8-13.1zM747.3 153.8h-20.1c-2.8 5.6-5.7 11.2-8.7 17.1h9.5c6.5-5.7 12.7-11.2 19.3-17.1z"/></svg>