<?xml version="1.0" encoding="utf-8"?>
<!-- Generator: Adobe Illustrator 25.2.3, SVG Export Plug-In . SVG Version: 6.00 Build 0)  -->
<svg version="1.1" id="Capa_1" xmlns="http://www.w3.org/2000/svg" xmlns:xlink="http://www.w3.org/1999/xlink" x="0px" y="0px"
	 viewBox="0 0 850.4 370.7" style="enable-background:new 0 0 850.4 370.7;" xml:space="preserve">
<g>
	<path d="M314.5,177.3c-3.9,3.6-7.5,7.4-11.5,10.8c-2.3,2-4.4,4.7-8.8,4c-2.4-6.8-4.7-14.1-7.7-21c-3-6.9-6.4-13.7-10.3-20.2
		c-4-6.6-8.8-12.7-13.2-19.1c1.7-2.9,3.8-6.1,5.6-9.6c3.2-6.3,3.8-13.1,2.4-20c-1-5.3-4.3-9.2-7.7-12.9c-4.1-4.4-8.6-8.3-13.8-11.3
		c-9-5.3-18.5-9.6-28.7-12.1c-5.3-1.3-10.7-1.8-16-2.7c-6.6-1-13.2-0.7-19.7,0.4c-3,0.5-5.6,0.8-8.4-1.9c-7.1-6.8-16-9.9-25.7-10.6
		c-5.6-0.4-10.9,1.3-16.1,3.3c-0.8,0.3-1.4,1.4-2.4,2.5c8.8,4.9,18.6,6.8,25.4,14.4c-0.3,0.9-0.6,2-0.8,2.4
		c-9.3,5.6-15.7,13.6-23.1,20.5c-7.9-2.7-11.7-2.3-16.5-1.1c-12.4,2.9-22.5,10-31.6,18.6c-7.9,7.4-14.5,15.8-19.8,25.3
		c-4.3,7.8-7.3,16-8.9,24.3c-4.6,2.9-9,5.5-13.2,8.4c-5.1,3.6-8.7,8.6-10.5,14.4c-1.7,5.3-2.3,10.9-3.2,16.4
		c-0.2,0.9,0.5,1.9,0.8,3.2c5.6-5.1,10.6-9.7,15.7-14.2c2.5-2.2,5.2-4.5,9.3-3.9c2.9,12.4,7.4,24.3,13.3,35.5
		c5.9,11.3,12.4,22.4,18.9,34c-1.6,3.7-2.7,7.9-2.9,12.5c-0.2,4.8,0.4,9.4,3,13.5c6,9.1,14,16,23.6,21.1
		c10.6,5.6,21.7,10.1,33.7,11.8c3.2,0.5,6.4,1,9.6,1.1c3.6,0.2,7.2,0.2,10.8,0c3.6-0.2,7.1-0.7,10.8-1c3.6,4.2,8,7.5,13,10
		c8.7,4.2,17.8,4.2,26.9,2.3c1.6-0.3,3.1-1.3,4.3-1.8c0-2,0-3.2,0-4.4c-4.6-2.1-9-3.8-13.3-6c-2.8-1.4-5.4-3.2-7.8-5.2
		c-1.9-1.6-1.5-3,0.5-4.5c3.1-2.4,6.2-4.8,9.1-7.4c3.6-3.1,7-6.4,10.5-9.6c6.2,3,12.6,2.9,18.9,0.6c8.3-3,15.9-7.5,22.4-13.5
		c6.8-6.4,13.3-13.2,18.5-21.1c7.1-10.8,12.4-22.3,14.1-35.4c0.2-1.3,1.7-2.6,2.9-3.4c2.7-1.9,5.7-3.3,8.2-5.4
		c6.1-5,10.1-11.4,11.5-19.3c0.9-4.5,1.6-9,0.9-14.4C316.3,176.4,315.2,176.6,314.5,177.3z M153.3,85.2c2.3-1.9,4.7-3.6,7.2-5.2
		c3.3-2.2,3.5-8.3,1-11.5c-2.4-3.1-5.5-5.7-8.3-8.5c-0.5-0.5-0.9-1-1.3-2.1c0.9,0,2-0.3,2.8,0c6.3,2.9,12.5,5.8,18.7,8.8
		c1.7,0.8,3.3,2,5.1,2.2c3.5,0.3,7.1,0.1,10.7,0.1c2.7,0,5.4,0,8.1,0c8,0,15.7,1.5,23.3,3.7c8.5,2.4,16.5,5.9,23.7,11
		c6.4,4.5,13,9,17.2,15.9c1.8,3,3.2,6.3,4.2,9.7c0.5,1.6,0,3.9-0.8,5.4c-2.2,4-4.9,7.8-7.3,11.8c-4.8-4.8-8.9-9.3-13.4-13.4
		c-5.7-5.2-11.9-9.8-19.5-11.8c-5.5-1.5-11.7,1.1-15.2,5.5c-9.6,12.2-13.7,26.7-17.7,41.2c-1.2,4.6-2.2,9.2-3.3,14.1
		c-7.2,2.1-14.6,4.2-22.3,6.4c-0.2-0.8-0.5-1.5-0.5-2.2c0-14.5-3.2-28.4-7.9-42.1c-2.1-6-4-12.2-8.3-17.2c-2.5-2.9-5.3-5.5-7.9-8.2
		c-0.5-0.5-1-0.9-2-1.7C144.2,93,148.7,89,153.3,85.2z M252.5,130.3c-15.4,15.9-36.3,21.1-56.4,29c0.6-3.3,0.9-6.2,1.8-8.8
		c2.6-7.4,5.3-14.9,8.4-22.1c2.6-6.1,7.3-10.4,14-11.6c5-0.9,9.9-0.5,14.6,1.5C241.5,121.2,247.2,125.6,252.5,130.3z M185.4,177.8
		c0,6.7,0,13.4,0,20c-7.6,1.9-14.8,3.7-22.1,5.6c0.8-7.1,1.6-14.3,2.5-21.6C172.4,180.5,178.9,179.2,185.4,177.8z M147.1,118.1
		c4.9,7.5,7.2,16.1,8.8,24.8c0.8,4.4,0.8,9,1.1,13.6c0.3,4.5,0.5,9.1,0.8,13.6c-9.8,2.1-19.3,3.4-28.9,2.9
		c-8.2-0.5-14.9-4.6-18-12.9c-3.4-8.9-2-17.5,1.7-25.9c1.8-4,3.9-7.8,5.9-11.7c3.4-6.5,8.4-11.6,12.9-17.2
		C138.8,107.1,143.3,112.2,147.1,118.1z M85,232.6c-6.4-9.7-11.9-20-16.7-30.6c-2.6-5.8-5-11.8-7.3-17.7c-1.4-3.4-5.8-5.4-10-3.7
		c-3.3,1.4-6.3,3.6-9.3,5.5c-1.2,0.8-2.2,2-3.2,3c-0.2,0.3-0.5,0.6-0.7,0.9c-0.1-0.1-0.3-0.1-0.4-0.2c0.2-0.6,0.5-1.2,0.7-1.8
		c2.6-6.3,6.1-12,11.9-15.9c2.6-1.8,5.4-3.5,8.4-4.7c2.3-0.9,3.4-2.5,4.1-4.5c3.9-10.3,9.4-19.8,16.2-28.5c7-9.1,15.3-16.9,25-23
		c6.3-4,13.2-6.4,21.2-6.7c-2,2.6-3.8,4.9-5.6,7.3c-6.7,8.6-12.9,17.6-17.6,27.4c-3.2,6.6-6.1,13.4-7.1,20.7
		c-0.6,4.2-0.8,8.6,0.9,12.7c1.6,3.9,5,5.7,8.5,7.1c6.2,2.5,12.7,3.6,19.4,3.7c5.2,0.1,10.4,0.6,15.5,0.4c5.4-0.2,10.7-1,16.1-1.5
		c0.6-0.1,1.2,0,2.5,0c-1.1,8.1-2.3,16-3.4,24.1c-22.1,9.4-42.2,21.6-59.8,38.4C91.3,241.3,88,237.1,85,232.6z M150.8,217.8
		c-1.3,3.7-2.3,6.9-3.5,10.1c-3.5,9-8,17.5-13.8,25.1c-4.7,6.1-10.6,10.4-18.9,9.2c-2.1-0.3-4.4-1.3-6.1-2.6
		c-3.4-2.7-6.5-5.8-10-8.9C113.1,235,131.1,225.8,150.8,217.8z M196.2,299.7c-5,4.1-4.9,7.8-0.8,12.7c2.8,3.3,6,6.3,10.1,8.2
		c0.5,0.2,0.9,0.9,1.3,1.3c-12.2-1.1-21.8-7-30-15c-7.6,0.5-14.8,1.2-22.1,1.3c-9.9,0.1-19.6-1.8-28.4-6.7
		c-7.3-4.1-14.8-7.9-21.4-12.9c-6.8-5-11.8-11.8-13.6-20.4c-0.5-2.6,0.3-5.6,0.5-8.9c4.7,4.8,8.5,9.1,12.8,13
		c3.9,3.6,8.3,6.5,13.4,8.4c8.3,3.1,13.4-0.1,17.6-5.5c4.1-5.2,7.7-10.9,10.6-16.9c4.8-10.1,8.6-20.6,11.2-31.5
		c1-4.3,2.3-8.6,3.6-13.4c7.8-2.4,16-4.9,24.3-7.5c1,12.2,3,23.6,6,34.9c2.6,9.7,5.4,19.3,10,28.2c2.5,5,5.5,9.7,10.2,13.2
		c0.8,0.6,1.1,1.7,1.8,2.9C207.5,290.2,201.9,295,196.2,299.7z M223.7,274.5c-8.6-2.7-14-8.5-18-15.7c-4.5-8.2-7-17.1-8.4-26.3
		c-1.2-7.9-2.1-15.8-3.2-23.8c-0.2-1.3-0.4-2.6-0.7-4.1c9.1-1.7,18.1-2.8,27.1-2.3c6.9,0.4,13.9,1,20.2,4.2c6.1,3.1,9,8.7,10.3,15.2
		c1.9,9.4-2,17.3-6.6,24.9c-4,6.7-8.5,13-13,19.3C229.2,268.9,226.3,271.6,223.7,274.5z M307.7,195c-3.6,5.9-8.6,10.4-14,14.5
		c-1.4,1-2.6,2.4-3.4,3.9c-5.3,10.2-10.5,20.4-17.1,29.8c-5.7,8.2-12.2,15.8-19.6,22.4c-4.7,4.2-9.8,8.1-16.5,8.8
		c-1.7,0.2-3.4,0.3-5.3,0.5c5.5-7.3,11.1-14.1,16.1-21.4c6.6-9.7,12.2-20,14.9-31.6c1.2-5.3,1.8-10.7-0.7-16.1
		c-1.8-3.9-5.4-5.4-8.9-6.8c-6.2-2.5-12.8-3.7-19.6-3.8c-5.4-0.1-10.7-0.6-16.1-0.4c-6.2,0.2-12.3,1-18.4,1.5
		c-1.9,0.2-3.9,0.3-5.7,0.4c0-7.2,0-14.5,0-21.8c24.4-8.6,45.8-21.8,65.1-38.9c2.2,2.6,4.6,5.1,6.6,7.8c5.7,7.9,11,16,14.7,25
		c3.4,8,6.3,16.3,9.3,24.4c1.6,4.4,6.6,6.2,10.5,3.7c2.5-1.6,4.9-3.2,7.5-4.8c0.3-0.2,0.8-0.1,1.7-0.2
		C308.3,193.4,308.1,194.2,307.7,195z"/>
	<path d="M487.7,152.7c-10.8,26.7-21.4,53.1-32.2,79.8c7.6,0,14.6,0,21.6,0c2-5.3,3.9-10.4,5.9-15.5c11.9,0,23.4,0,35,0
		c2.2,5.3,4.4,10.4,6.6,15.5c7.3,0,14.4,0,21.8,0c-11.9-26.8-23.6-53.3-35.3-79.8C502.9,152.7,495.4,152.7,487.7,152.7z
		 M488.5,202.1c3.7-9.7,7.2-19.1,11-29.2c4.2,10,8.1,19.5,12.2,29.2C503.9,202.1,496.4,202.1,488.5,202.1z"/>
	<path d="M823.6,198.7c0-2-0.2-3.9-0.5-5.9c-2.8-14.9-18.9-19.3-29.8-12.7c-2.2,1.3-4.3,2.8-6.8,4.5c0-2.3,0-4.3,0-6.3
		c-5.9,0-11.5,0-17,0c0,18.1,0,36.1,0,54c5.8,0,11.4,0,17.1,0c0-10.9,0-21.7,0-32.5c0-0.8,0-1.9,0.4-2.4c1.7-2.1,3.5-4.1,5.4-6
		c2.6-2.6,5.7-3,8.9-1.7c3.6,1.5,4.5,4.8,4.5,8.4c0,8.7,0,17.4,0,26.1c0,2.7,0,5.3,0,8.1c6,0,11.8,0,17.6,0c0.1-0.3,0.2-0.6,0.2-0.8
		C823.6,220.6,823.6,209.7,823.6,198.7z"/>
	<path d="M755.2,191.2c-5.8-9.6-14.9-13.4-25.7-14c-5.2-0.3-10.4,0.6-15.2,2.7c-6.8,3-12.2,7.6-14.7,15c-1.6,4.8-2.2,9.6-1.5,14.8
		c0.8,5.7,3,10.6,6.8,14.7c6.3,6.5,14.2,9.4,23.4,9.2c3.4-0.5,6.8-0.6,10.1-1.5c6.1-1.8,11.4-4.9,15.4-10.2
		c5.1-6.7,4.9-14.4,4.4-22.1C758,196.8,756.7,193.7,755.2,191.2z M738.4,215.5c-1.3,3.7-4.6,6.9-8.9,7.1c-6.5,0.3-9.7-2.5-11.3-7
		c-1.1-3.1-1.5-6.5-2.2-9.8c0.2,0,0.4-0.1,0.6-0.1c-0.1-4.5,0.2-8.9,2.8-13c2.4-3.7,5.9-5.2,9.9-5c5,0.2,8.4,3.5,9.7,8.2
		C740.7,202.5,740.8,209.1,738.4,215.5z"/>
	<path d="M451.1,197.8c-2.2-9.5-8.1-16-17.4-19.1c-4.6-1.5-9.4-1.9-14.3-1.2c-7.3,1.1-13.3,4.3-17.8,10.2
		c-5.2,6.8-6.5,14.5-5.3,22.9c1.5,10.1,7.4,16.8,16.5,20.2c9.9,3.7,20.1,3.3,30.1-0.2c3-1.1,5.8-2.8,8.2-4.1c0-4.3,0-7.7,0-11.4
		c-0.8,0.3-1.5,0.5-2,0.9c-3.4,2.8-7.4,4.7-11.7,5.8c-5.2,1.3-10.6,1.5-15.5-0.9c-4.9-2.5-7.7-6.7-8.1-12.5c12.8,0,25.5,0,38.7,0
		C452,204.7,451.9,201.2,451.1,197.8z M414.1,199c1.4-7.7,5.8-12,11.7-11.3c6.6,0.8,10,3.9,10.6,11.3C429,199,421.7,199,414.1,199z"
		/>
	<path d="M579.6,220.2c-7-1.8-11.7-9.7-10.5-17.7c1.4-9.5,11.9-13.6,19-12.1c3.7,0.8,7.2,2,10.8,3c0-4.1,0-8.4,0-12.9
		c-2-0.6-3.9-1.3-5.8-1.8c-8.5-2-16.8-2.5-25.2,0.8c-16.6,6.4-21.3,24.5-14.7,38.6c4.4,9.4,12.9,13.7,22.8,14.7
		c8.2,0.8,16.4,0.1,24-3.4c0-4,0-8.1,0-12.5c-2.4,0.8-4.5,1.5-6.7,2.1C588.7,220.5,584.3,221.5,579.6,220.2z"/>
	<path d="M639.4,220.6c-4.6-0.7-8.2-3-10.4-6.7c-3.3-5.5-3.7-11.7,1-18.3c2.7-3.8,11.1-6.5,16.1-5.1c3.6,1,7.2,2,10.9,3
		c0-4,0-8.3,0-12.5c-0.7-0.4-1.3-0.8-2-1c-7.9-2.3-15.8-3.7-24.1-1.9c-7.7,1.6-13.6,5.5-18.1,11.8c-3.8,5.4-4.6,11.6-4.3,18
		c0.2,6.4,2.5,12,6.9,16.5c8.5,8.8,19.4,9.6,30.7,8.4c3.9-0.4,7.8-1.8,11.4-2.7c0-4.6,0-8.6,0-12.8c-0.6,0.2-1,0.3-1.4,0.4
		C650.5,219.2,645.3,221.5,639.4,220.6z"/>
	<path d="M377.1,179.3c-2.6,2-4.7,4.7-6.9,7.3c-1.3,1.5-2.1,3.5-3.1,5.2c-0.2,0-0.4-0.1-0.5-0.1c0-4.4,0-8.9,0-13.4
		c-5.9,0-11.5,0-17.1,0c0,18.1,0,36.1,0,54.1c5.7,0,11.2,0,17.1,0c0-6.3,0.1-12.5,0-18.7c-0.1-7.6,3.7-13.3,8.7-18.3
		c1.6-1.6,3.8-2.5,6.2-1.6c3,1.1,5.9,2.2,9.1,3.4c1.5-4.8,3.1-10,4.7-15c-1.1-0.8-2-1.5-3-2.1C387.3,177.2,382.1,175.6,377.1,179.3z
		"/>
	<path d="M672.1,184.7c0.3,6.4,0.7,12.9,1,19.3c0.4,8.3,0.9,16.5,1,24.8c0,5.4,4,7.3,8.8,4.6c0.4-1,1-2,1.1-3.2
		c0.3-3.4,0.4-6.9,0.6-10.3c0.3-5.9,0.7-11.8,1-17.8c0.4-7.4,0.7-14.8,1.1-22.2c0.3-7.4,0.7-14.8,1-22.2c0.1-2.8-1.3-4.8-4-5.1
		c-3-0.3-6.1-0.3-9.1,0.2c-3.4,0.5-4.3,1.9-4.2,5.5c0,2,0.4,3.9,0.5,5.9C671.4,171.1,671.8,177.9,672.1,184.7z"/>
	<path d="M680.3,241.3c-8.7,0.3-13.8,4.8-13.9,12.7c-0.1,6.1,5.1,13.1,12.8,12.5c7.4,1,12.7-6.4,12.9-12.1
		C692.3,247.1,685.8,241.1,680.3,241.3z"/>
	<path d="M747.3,153.8c-7,0-13.4,0-20.1,0c-2.8,5.6-5.7,11.2-8.7,17.1c3.4,0,6.4,0,9.5,0C734.5,165.2,740.7,159.7,747.3,153.8z"/>
</g>
</svg>
